<?xml version="1.0" encoding="utf-8"?>
<!-- Generator: Adobe Illustrator 24.1.1, SVG Export Plug-In . SVG Version: 6.00 Build 0)  -->
<svg version="1.1" xmlns="http://www.w3.org/2000/svg" xmlns:xlink="http://www.w3.org/1999/xlink" x="0px" y="0px"
	 viewBox="0 0 448 448" style="enable-background:new 0 0 448 448;" xml:space="preserve">
<style type="text/css">
	.st0{fill:#173042;}
</style>
<g id="grid">
</g>
<g id="icons">
	<g>
		<g>
			<path class="st0" d="M407.5,391.5c-0.36,0-0.71,0.03-1.06,0.07l-4.01-12.04c-0.2-0.61-0.78-1.03-1.42-1.03h-5
				c-0.83,0-1.5,0.67-1.5,1.5s0.67,1.5,1.5,1.5h3.92l1.67,5H387c-0.58,0-1.12,0.34-1.36,0.87l-2.15,4.65
				c-0.94-0.33-1.94-0.52-2.99-0.52c-4.96,0-9,4.04-9,9s4.04,9,9,9c4.27,0,7.86-3,8.77-7h2.69c0.44,0,0.86-0.19,1.15-0.53
				l9.78-11.59l0.68,2.04c-2.99,1.46-5.06,4.53-5.06,8.08c0,4.96,4.04,9,9,9s9-4.04,9-9S412.46,391.5,407.5,391.5z M380.5,406.5
				c-3.31,0-6-2.69-6-6s2.69-6,6-6c0.6,0,1.18,0.09,1.73,0.26l-2.59,5.61c-0.21,0.46-0.18,1.01,0.1,1.44
				c0.28,0.43,0.75,0.69,1.26,0.69h5.15C385.32,404.83,383.11,406.5,380.5,406.5z M383.34,399.5l1.46-3.17
				c0.83,0.85,1.4,1.95,1.6,3.17H383.34z M391.26,399.5h-1.82c-0.27-2.43-1.51-4.56-3.32-6.02l1.84-3.98h11.73L391.26,399.5z
				 M407.5,406.5c-3.31,0-6-2.69-6-6c0-2.22,1.22-4.16,3.02-5.2l2.06,6.17c0.21,0.63,0.79,1.03,1.42,1.03
				c0.16,0,0.32-0.02,0.47-0.08c0.79-0.26,1.21-1.11,0.95-1.9l-2.01-6.02c0.03,0,0.06,0,0.08,0c3.31,0,6,2.69,6,6
				S410.81,406.5,407.5,406.5z"/>
			<path class="st0" d="M389.5,381h-6c-0.83,0-1.5,0.67-1.5,1.5s0.67,1.5,1.5,1.5h6c0.83,0,1.5-0.67,1.5-1.5S390.33,381,389.5,381z"
				/>
		</g>
	</g>
	<g>
		<g>
			<path class="st0" d="M331.76,376.88l-5.37-2.3c-0.66-0.28-1.39,0.2-1.39,0.92v4.6c0,0.72,0.73,1.2,1.39,0.92l5.37-2.3
				C332.56,378.37,332.56,377.23,331.76,376.88z"/>
			<path class="st0" d="M345.61,403c-0.83-0.06-1.52,0.55-1.6,1.35L328,383.5c-0.48-0.64-1.21-1.01-2-1.01s-1.53,0.37-1.99,0.99
				l-16.02,20.87c-0.08-0.79-0.77-1.41-1.6-1.35c-0.8,0.06-1.39,0.8-1.39,1.61V413c0,0.28,0.22,0.5,0.5,0.5h2
				c0.28,0,0.5-0.22,0.5-0.5v-3.74l3-3.91V413c0,0.28,0.22,0.5,0.5,0.5h7.56c0.17,0,0.33-0.08,0.43-0.23
				c2.84-4.43,5.1-10.86,6.04-13.75c0.15-0.46,0.8-0.46,0.95,0c0.94,2.9,3.2,9.32,6.04,13.75c0.09,0.15,0.25,0.23,0.43,0.23h7.56
				c0.28,0,0.5-0.22,0.5-0.5v-7.65l3,3.91V413c0,0.28,0.22,0.5,0.5,0.5h2c0.28,0,0.5-0.22,0.5-0.5v-8.39
				C347,403.81,346.41,403.06,345.61,403z"/>
		</g>
	</g>
	<g>
		<g>
			<g>
				<path class="st0" d="M263.57,375.17c2.13,3.05,3.43,8.15,3.43,14.4c0,0.96-0.27,1.86-0.74,2.66c0.43,0.21,0.91,0.34,1.4,0.34
					h5.67c1.66,0,3.17-1.34,3.17-3C276.5,382.56,271.04,376.94,263.57,375.17z M251.33,393.06c-0.83-0.96-1.33-2.18-1.33-3.49
					c0-7.2,1.71-12.87,4.45-15.64c-8.64,1.52-14.95,7.85-14.95,15.64c0,2.17,1.91,4,4.17,4h5.67
					C250.05,393.57,250.73,393.39,251.33,393.06z M256.5,402.82h-8c-1.1,0-2,0.9-2,2c0,1.1,0.9,2,2,2h8v5.25c0,1.1,0.9,2,2,2
					s2-0.9,2-2v-17h-4V402.82z M271.49,396.09c-0.96-0.55-2.18-0.21-2.73,0.74l-3.42,5.99H263v4h4.66l4.58-8.01
					C272.78,397.85,272.45,396.63,271.49,396.09z"/>
				<path class="st0" d="M258.5,374.57c-3.31,0-6,6.48-6,15c0,1.66,1.51,3,3.17,3h5.67c1.66,0,3.17-1.34,3.17-3
					C264.5,381.05,261.81,374.57,258.5,374.57z"/>
			</g>
		</g>
	</g>
	<g>
		<g>
			<path class="st0" d="M192.75,381.75h-20c-0.28,0-0.5,0.22-0.5,0.5v29c0,0.28,0.22,0.5,0.5,0.5h20c0.28,0,0.5-0.22,0.5-0.5v-29
				C193.25,381.97,193.03,381.75,192.75,381.75z M181.25,397.25c0,0.28-0.22,0.5-0.5,0.5h-5c-0.28,0-0.5-0.22-0.5-0.5v-3
				c0-0.28,0.22-0.5,0.5-0.5h5c0.28,0,0.5,0.22,0.5,0.5V397.25z M181.25,389.25c0,0.28-0.22,0.5-0.5,0.5h-5
				c-0.28,0-0.5-0.22-0.5-0.5v-3c0-0.28,0.22-0.5,0.5-0.5h5c0.28,0,0.5,0.22,0.5,0.5V389.25z M190.25,397.25
				c0,0.28-0.22,0.5-0.5,0.5h-5c-0.28,0-0.5-0.22-0.5-0.5v-3c0-0.28,0.22-0.5,0.5-0.5h5c0.28,0,0.5,0.22,0.5,0.5V397.25z
				 M190.25,389.25c0,0.28-0.22,0.5-0.5,0.5h-5c-0.28,0-0.5-0.22-0.5-0.5v-3c0-0.28,0.22-0.5,0.5-0.5h5c0.28,0,0.5,0.22,0.5,0.5
				V389.25z M193.75,376.25h-22c-0.83,0-1.5,0.67-1.5,1.5s0.67,1.5,1.5,1.5h22c0.83,0,1.5-0.67,1.5-1.5S194.58,376.25,193.75,376.25
				z"/>
			<path class="st0" d="M208.25,387.75h-12c-0.28,0-0.5,0.22-0.5,0.5v23c0,0.28,0.22,0.5,0.5,0.5h12c0.28,0,0.5-0.22,0.5-0.5v-23
				C208.75,387.97,208.53,387.75,208.25,387.75z M204.75,402.25c0,0.28-0.22,0.5-0.5,0.5h-5c-0.28,0-0.5-0.22-0.5-0.5v-3
				c0-0.28,0.22-0.5,0.5-0.5h5c0.28,0,0.5,0.22,0.5,0.5V402.25z M204.75,394.25c0,0.28-0.22,0.5-0.5,0.5h-5
				c-0.28,0-0.5-0.22-0.5-0.5v-3c0-0.28,0.22-0.5,0.5-0.5h5c0.28,0,0.5,0.22,0.5,0.5V394.25z M208.25,382.25h-12.5v3h12.5
				c0.83,0,1.5-0.67,1.5-1.5S209.08,382.25,208.25,382.25z"/>
		</g>
	</g>
	<g>
		<g>
			<path class="st0" d="M137.51,390.55l-2.69-9.4c-0.49-1.72-2.06-2.9-3.85-2.9h-17.97c-1.79,0-3.36,1.18-3.85,2.9l-2.69,9.4
				c-1.46,0.6-2.49,2.03-2.49,3.7v9.5c0,0.28,0.22,0.5,0.5,0.5h0.5v3.5c0,1.1,0.9,2,2,2h2c1.1,0,2-0.9,2-2v-3
				c0-0.28,0.22-0.5,0.5-0.5h21c0.28,0,0.5,0.22,0.5,0.5v3c0,1.1,0.9,2,2,2h2c1.1,0,2-0.9,2-2v-3.5h0.5c0.28,0,0.5-0.22,0.5-0.5
				v-9.5C140,392.58,138.97,391.15,137.51,390.55z M112.68,383.36c0.19-0.93,1.01-1.61,1.96-1.61h14.72c0.95,0,1.77,0.67,1.96,1.61
				l1.26,6.29c0.06,0.31-0.17,0.6-0.49,0.6h-20.18c-0.32,0-0.55-0.29-0.49-0.6L112.68,383.36z M111,400.25c-1.66,0-3-1.34-3-3
				s1.34-3,3-3s3,1.34,3,3S112.66,400.25,111,400.25z M125,398.75h-6c-0.83,0-1.5-0.67-1.5-1.5s0.67-1.5,1.5-1.5h6
				c0.83,0,1.5,0.67,1.5,1.5S125.83,398.75,125,398.75z M133,400.25c-1.66,0-3-1.34-3-3s1.34-3,3-3s3,1.34,3,3
				S134.66,400.25,133,400.25z"/>
			<path class="st0" d="M123.5,384h-3c-0.83,0-1.5,0.67-1.5,1.5s0.67,1.5,1.5,1.5h3c0.83,0,1.5-0.67,1.5-1.5S124.33,384,123.5,384z"
				/>
		</g>
	</g>
	<g>
		<g>
			<path class="st0" d="M68,406.25H41c-0.83,0-1.5,0.67-1.5,1.5s0.67,1.5,1.5,1.5h27c0.83,0,1.5-0.67,1.5-1.5
				S68.83,406.25,68,406.25z"/>
			<path class="st0" d="M69.5,378.75h-31c-1.1,0-2,0.9-2,2v21c0,1.1,0.9,2,2,2h31c1.1,0,2-0.9,2-2v-21
				C71.5,379.65,70.6,378.75,69.5,378.75z M49,382.25c1.38,0,2.5,1.12,2.5,2.5s-1.12,2.5-2.5,2.5c-1.38,0-2.5-1.12-2.5-2.5
				S47.62,382.25,49,382.25z M64.22,400.25H43.78c-1.35,0-2.18-1.48-1.47-2.64l3-4.88c0.6-0.97,2.02-0.94,2.57,0.06l2.49,4.48
				l6.23-9.34c0.59-0.88,1.87-0.89,2.47-0.01l6.58,9.62C66.43,398.69,65.61,400.25,64.22,400.25z"/>
		</g>
	</g>
	<g>
		<g>
			<path class="st0" d="M408.4,323.94l1.25-1.14c-1.49-2.61-4.69-4.27-8.24-3.74c-3.57,0.53-6.39,2.61-7,6.41
				c-0.01,0.04-0.02,0.07-0.03,0.11c-2.18-0.35-4.29-0.62-5.59-0.62h-5c-2.71,0-4.43,2.06-4.43,4.77v1.01
				c0,0.89,0.72,1.62,1.62,1.62c0.89,0,1.62-0.72,1.62-1.62v-2.69c0-0.59,0.48-1.08,1.08-1.08c0.5,0,0.91,0.35,1.02,0.82
				c-0.36,0.71-0.58,1.51-0.58,2.35v9.02c0,0.7,0.57,1.27,1.27,1.27c0.62,0,1.15-0.45,1.25-1.06l0.58-3.42
				c0.14-0.79,0.82-1.38,1.63-1.38h8.8c0.81,0,1.49,0.58,1.63,1.38l0.58,3.42c0.1,0.61,0.63,1.06,1.25,1.06h0.02
				c0.7,0,1.27-0.57,1.27-1.27v-11.28c0-0.61,0.49-1.1,1.1-1.1c0.61,0,1.1,0.49,1.1,1.1v1.05c0,1.24,1,2.24,2.24,2.24
				c0.41,0,0.77-0.26,0.9-0.65l0.63-1.9c0.4-1.2,0.48-2.49,0.23-3.74L408.4,323.94z"/>
			<path class="st0" d="M404.78,341.96h-9.14v-4.46h-3.28v4.46h-9.57c-1.1,0-2,0.9-2,2c0,1.1,0.9,2,2,2h22c1.1,0,2-0.9,2-2
				C406.78,342.85,405.89,341.96,404.78,341.96z M409.69,310.65l-15.13-4.56c-0.2-0.06-0.42-0.06-0.62,0l-15.63,4.57
				c-0.46,0.13-0.78,0.56-0.78,1.04v1.66c0,1.86,1.35,3.43,3.06,3.58c0.96,0.08,1.87-0.23,2.58-0.87c0.69-0.64,1.09-1.54,1.09-2.48
				c0-0.55,0.45-1,1-1c0.55,0,1,0.45,1,1c0,1.86,1.51,3.37,3.37,3.37c1.86,0,3.37-1.51,3.37-3.37c0-0.55,0.45-1,1-1s1,0.45,1,1
				c0,1.86,1.51,3.37,3.37,3.37c1.86,0,3.37-1.51,3.37-3.37c0-0.55,0.45-1,1-1c0.55,0,1,0.45,1,1c0,0.94,0.4,1.85,1.09,2.48
				c0.7,0.64,1.62,0.95,2.58,0.87c1.72-0.15,3.06-1.72,3.06-3.58v-1.68C410.47,311.2,410.16,310.79,409.69,310.65z"/>
		</g>
	</g>
	<g>
		<g>
			<g>
				<g>
					<path class="st0" d="M340.29,310.75h-28.57c-0.83,0-1.5,0.67-1.5,1.5s0.67,1.5,1.5,1.5h28.57c0.83,0,1.5-0.67,1.5-1.5
						S341.11,310.75,340.29,310.75z"/>
					<path class="st0" d="M341.5,316.25h-31c-1.1,0-2,0.9-2,2v21c0,1.1,0.9,2,2,2h31c1.1,0,2-0.9,2-2v-21
						C343.5,317.15,342.6,316.25,341.5,316.25z M316.5,320.25c1.66,0,3,1.34,3,3s-1.34,3-3,3s-3-1.34-3-3
						S314.84,320.25,316.5,320.25z M319,337h-4c-0.69,0-1.25-0.56-1.25-1.25s0.56-1.25,1.25-1.25h4c0.69,0,1.25,0.56,1.25,1.25
						S319.69,337,319,337z M328,337h-4c-0.69,0-1.25-0.56-1.25-1.25s0.56-1.25,1.25-1.25h4c0.69,0,1.25,0.56,1.25,1.25
						S328.69,337,328,337z M337,337h-4c-0.69,0-1.25-0.56-1.25-1.25s0.56-1.25,1.25-1.25h4c0.69,0,1.25,0.56,1.25,1.25
						S337.69,337,337,337z M337,325h-13c-0.69,0-1.25-0.56-1.25-1.25s0.56-1.25,1.25-1.25h13c0.69,0,1.25,0.56,1.25,1.25
						S337.69,325,337,325z"/>
				</g>
			</g>
		</g>
	</g>
	<g>
		<g>
			<path class="st0" d="M250.76,309.77c-2.43,0-4.45,1.68-4.95,3.93c-0.49-0.28-1.06-0.45-1.66-0.45c-1.83,0-3.31,1.46-3.31,3.26
				c0,1.73,1.36,3.14,3.09,3.25l7.06,0c2.7-0.11,4.85-2.3,4.85-4.99C255.84,312.01,253.57,309.77,250.76,309.77z"/>
			<path class="st0" d="M278.59,341.48l-14.78-26.09c-0.78-1.37-2.76-1.35-3.5,0.04l-6.01,11.27c-0.08,0.15-0.08,0.33,0.01,0.48
				l3.05,5.33c0.58,1.01,0.37,2.26-0.43,3.03c-0.35-0.05-0.44-0.07-0.79-0.12l-6.31-11.04c-0.78-1.37-2.77-1.34-3.51,0.06
				l-8.92,17.03c-0.17,0.33,0.07,0.73,0.44,0.73h40.32C278.54,342.23,278.78,341.82,278.59,341.48z"/>
		</g>
	</g>
	<g>
		<g>
			<path class="st0" d="M202.02,340.5l-6.09-2.51l6.03-2.51c1.18-0.49,1.73-1.84,1.24-3.02c-0.49-1.18-1.84-1.73-3.02-1.24
				l-10.3,4.29l-10.21-4.2c-1.14-0.47-2.44,0.07-2.91,1.21c-0.47,1.14,0.07,2.44,1.21,2.91l6.09,2.51l-6.03,2.51
				c-1.18,0.49-1.73,1.84-1.24,3.02c0.49,1.18,1.84,1.73,3.02,1.24l10.3-4.29l10.21,4.2c1.14,0.47,2.44-0.07,2.91-1.21h0
				C203.7,342.27,203.16,340.97,202.02,340.5z"/>
			<path class="st0" d="M198.82,322.75c-0.21-2.57-1.3-4.69-2.57-6.71c-1.79-2.85-3.94-5.5-4.42-8.92c-2.21,1.48-3.21,3.98-3.2,6.56
				c0,0.02,0,0.03,0,0.05c0.03,2.53,2.79,5.99,0.77,8.19c-2.2,2.4-5.95,0.44-4.9-3.26c0.49-1.72,0.18-2.74-0.06-3.21
				c-2.21,1.68-3.65,4.33-3.65,7.33c0,4.97,3.94,9.01,8.87,9.19C194.44,331.75,199.24,327.9,198.82,322.75z"/>
		</g>
	</g>
	<g>
		<g>
			<g>
				<path class="st0" d="M124,311h-4c-1.1,0-2,0.9-2,2s0.9,2,2,2h4c1.1,0,2-0.9,2-2S125.1,311,124,311z"/>
				<path class="st0" d="M138.98,322.78l-1.58-14.22c-0.23-2.03-1.94-3.56-3.98-3.56h-22.84c-2.04,0-3.75,1.53-3.98,3.56
					l-1.58,14.22c-0.01,0.15-0.02,0.29-0.02,0.44V345c0,1.1,0.9,2,2,2h2c1.1,0,2-0.9,2-2v-3.5c0-0.28,0.22-0.5,0.5-0.5h21
					c0.28,0,0.5,0.22,0.5,0.5v3.5c0,1.1,0.9,2,2,2h2c1.1,0,2-0.9,2-2v-21.78C138.99,323.07,138.98,322.93,138.98,322.78z
					 M110.87,310.87c0.07-1.05,0.94-1.87,2-1.87h18.26c1.05,0,1.92,0.82,2,1.87l0.78,11.6c0.02,0.29-0.21,0.53-0.5,0.53h-22.82
					c-0.29,0-0.52-0.24-0.5-0.53L110.87,310.87z M114,334c0,0.55-0.45,1-1,1h-3c-0.55,0-1-0.45-1-1v-3c0-0.55,0.45-1,1-1h3
					c0.55,0,1,0.45,1,1V334z M125,334h-6c-0.83,0-1.5-0.67-1.5-1.5s0.67-1.5,1.5-1.5h6c0.83,0,1.5,0.67,1.5,1.5S125.83,334,125,334z
					 M136,334c0,0.55-0.45,1-1,1h-4c-0.55,0-1-0.45-1-1v-3c0-0.55,0.45-1,1-1h4c0.55,0,1,0.45,1,1V334z"/>
			</g>
		</g>
	</g>
	<g>
		<g>
			<path class="st0" d="M72.74,320.61c0.88-0.24,1.51-1.02,1.51-1.93V315c0-1.1-0.9-2-2-2h-8.5c-0.28,0-0.5,0.22-0.5,0.5v25
				c0,0.28,0.22,0.5,0.5,0.5h8.5c1.1,0,2-0.9,2-2v-3.64c0-0.93-0.64-1.72-1.54-1.94c-2.61-0.62-4.39-2.81-4.39-5.42
				C68.32,323.43,70.34,321.27,72.74,320.61z"/>
			<path class="st0" d="M60.25,313h-24.5c-1.1,0-2,0.9-2,2v22c0,1.1,0.9,2,2,2h24.5c0.28,0,0.5-0.22,0.5-0.5v-25
				C60.75,313.22,60.53,313,60.25,313z M53.97,327.46h-5.12v2.93l1.48,0.37c0.45,0.11,0.76,0.51,0.76,0.97v0.93h-7.68v-0.93
				c0-0.46,0.31-0.86,0.76-0.97l1.48-0.37v-2.93h-5.12v-1.22c0-0.46,0.31-0.86,0.76-0.97l4.36-1.09v-3.24
				c0-0.97,0.87-1.74,1.87-1.58c0.79,0.13,1.33,0.87,1.33,1.66v3.15l4.36,1.09c0.45,0.11,0.76,0.51,0.76,0.97V327.46z"/>
		</g>
	</g>
	<g>
		<g>
			<path class="st0" d="M409.93,257.54c-1,1.09-2,1.99-2.82,2.68c-0.11,7.39-5.77,13.46-12.99,14.2v-28.84
				c0.04,0,0.08,0.01,0.12,0.02c0.15-1.01,0.44-1.99,0.86-2.9c-0.81-0.12-1.63-0.2-2.48-0.2c-9.65,0-17.5,7.85-17.5,17.5
				c0,9.65,7.85,17.5,17.5,17.5c9.65,0,17.5-7.85,17.5-17.5C410.12,259.16,410.04,258.35,409.93,257.54z M385.72,247.25
				c-1.79,2.96-2.93,7.08-3.07,11.75h-4.48C378.52,253.93,381.48,249.56,385.72,247.25z M378.28,262h4.41
				c0.27,4.26,1.37,8,3.03,10.75C381.76,270.6,378.92,266.64,378.28,262z M391.12,274.15c-2.94-1.4-4.99-6.76-5.41-12.15h5.41
				V274.15z M391.12,259h-5.47c0.23-5.71,2.35-11.67,5.47-13.15V259z"/>
			<path class="st0" d="M404.5,238.5c-0.3,0-0.61,0.02-0.92,0.05c-4.45,0.47-7.81,4.76-7.42,9.22c0.51,5.85,5.88,10.21,7.73,11.54
				c0.18,0.13,0.38,0.19,0.59,0.19c0.22,0,0.44-0.07,0.62-0.21c1.91-1.49,7.79-6.56,7.79-12.4
				C412.88,242.25,409.12,238.5,404.5,238.5z M404.5,250.79c-2.16,0-3.91-1.75-3.91-3.91c0-2.16,1.75-3.91,3.91-3.91
				c2.16,0,3.91,1.75,3.91,3.91C408.41,249.04,406.66,250.79,404.5,250.79z"/>
		</g>
	</g>
	<g>
		<g>
			<path class="st0" d="M327.59,243.83l4.22-1.81c0.63-0.27,0.63-1.17,0-1.44l-4.22-1.81c-0.52-0.22-1.09,0.16-1.09,0.72v3.62
				C326.49,243.67,327.07,244.05,327.59,243.83z M342.22,257.71c0-0.66-0.33-1.28-0.88-1.66l-13.76-9.32
				c-0.66-0.45-1.52-0.46-2.2-0.03l-14.68,9.35c-0.58,0.37-0.93,1-0.93,1.69l0,3.01c0,1.65,1.35,3,3,3h0.23c1.65,0,3-1.35,3-3V259
				c0-0.69,0.56-1.25,1.25-1.25s1.25,0.56,1.25,1.25v1.75c0,1.65,1.35,3,3,3h0.23c1.63,0,2.95-1.31,2.99-2.92
				c0-0.03-0.02-0.05-0.02-0.08V259c0-0.69,0.56-1.25,1.25-1.25s1.25,0.56,1.25,1.25l0.02,1.75c0,1.65,1.35,3,3,3h0.23
				c1.65,0,3-1.35,3-3V259c0-0.69,0.56-1.25,1.25-1.25c0.69,0,1.25,0.56,1.25,1.25v1.75c0,1.65,1.35,3,3,3h0.23c1.65,0,3-1.35,3-3
				L342.22,257.71z"/>
			<path class="st0" d="M339.1,266.25c-1.71,0-3.36-0.79-4.37-2.01c-1.01,1.23-2.66,2.01-4.37,2.01c-0.56,0-1.22-0.09-1.73-0.24
				c0.54,4.49,2.12,8.58,3.22,11c0.08,0.18,0.26,0.29,0.45,0.29h8.18c0.28,0,0.5-0.22,0.5-0.5v-10.85
				C340.44,266.14,339.73,266.25,339.1,266.25z M317.27,264.24c-1.01,1.23-2.66,2.01-4.37,2.01c-0.63,0-1.34-0.11-1.9-0.3v10.85
				c0,0.28,0.22,0.5,0.5,0.5h8.18c0.2,0,0.37-0.11,0.45-0.29c1.1-2.42,2.68-6.52,3.22-11c-0.51,0.16-1.17,0.24-1.73,0.24
				C319.92,266.25,318.28,265.46,317.27,264.24z"/>
		</g>
	</g>
	<g>
		<g>
			<path class="st0" d="M272.5,273.5h-1c-0.83,0-1.5-0.67-1.5-1.5s0.67-1.5,1.5-1.5h1c0.83,0,1.5-0.67,1.5-1.5s-0.67-1.5-1.5-1.5h-1
				c-0.83,0-1.5-0.67-1.5-1.5s0.67-1.5,1.5-1.5h1c0.28,0,0.5-0.22,0.5-0.5v-6.5c0-0.28-0.22-0.5-0.5-0.5h-29
				c-0.28,0-0.5,0.22-0.5,0.5v6.5c0,0.28,0.22,0.5,0.5,0.5h1c0.83,0,1.5,0.67,1.5,1.5s-0.67,1.5-1.5,1.5h-1
				c-0.83,0-1.5,0.67-1.5,1.5s0.67,1.5,1.5,1.5h1c0.83,0,1.5,0.67,1.5,1.5s-0.67,1.5-1.5,1.5h-1c-0.83,0-1.5,0.67-1.5,1.5
				s0.67,1.5,1.5,1.5h10c0.28,0,0.5-0.22,0.5-0.5v-4.81c0-2.35,1.72-4.45,4.06-4.67c2.68-0.26,4.94,1.85,4.94,4.48v5
				c0,0.28,0.22,0.5,0.5,0.5h9c0.83,0,1.5-0.67,1.5-1.5S273.33,273.5,272.5,273.5z M254,263.5c0,0.55-0.45,1-1,1h-3
				c-0.55,0-1-0.45-1-1v-2c0-0.55,0.45-1,1-1h3c0.55,0,1,0.45,1,1V263.5z M268,263.5c0,0.55-0.45,1-1,1h-3c-0.55,0-1-0.45-1-1v-2
				c0-0.55,0.45-1,1-1h3c0.55,0,1,0.45,1,1V263.5z"/>
			<path class="st0" d="M274.16,245.3c-0.09-0.47-0.5-0.8-0.98-0.8H254c-0.28,0-0.5,0.22-0.5,0.5v1c0,1.38-1.12,2.5-2.5,2.5V240
				c0-0.28-0.22-0.5-0.5-0.5h-4c-0.28,0-0.5,0.22-0.5,0.5v4.5h-3.18c-0.48,0-0.89,0.34-0.98,0.8l-1.6,8
				c-0.12,0.62,0.35,1.2,0.98,1.2h33.56c0.63,0,1.1-0.58,0.98-1.2L274.16,245.3z"/>
		</g>
	</g>
	<g>
		<g>
			<g>
				<g>
					<circle class="st0" cx="177.29" cy="244.46" r="3.5"/>
					<path class="st0" d="M205.86,276.19c-3.74-3.27-6.46-5.92-8.68-8.56c-0.09-0.11-0.23-0.17-0.38-0.17h-3.52
						c-1.38,0-2.5-1.12-2.5-2.5h10.55c0.88,0,1.33-1.05,0.72-1.69c-2.71-2.88-4.74-5.27-6.34-7.59c-0.09-0.13-0.24-0.21-0.41-0.21
						h-2.03c-1.38,0-2.5-1.12-2.5-2.5c0,0,5.62,0,6.76,0c0.81,0,1.27-0.91,0.81-1.57c-3.49-5.02-5.31-8.16-7.07-12.71
						c-0.33-0.85-1.54-0.86-1.87-0.01c-1.87,4.76-3.69,7.91-7.04,12.71c-0.46,0.66,0,1.58,0.81,1.58c0.93,0,2.14,0,3.52,0
						c-1.83,3.23-4.27,6.3-8.04,10.3c-0.61,0.64-0.15,1.7,0.73,1.7c2.27,0,4.31,0,6.23,0c-2.6,3.6-5.78,6.86-10.77,11.23
						c-0.7,0.61-0.26,1.77,0.66,1.77c11.41,0,18.25,0,29.68,0C206.13,277.96,206.56,276.81,205.86,276.19z"/>
				</g>
			</g>
		</g>
	</g>
	<g>
		<g>
			<path class="st0" d="M127,274.5h-10c-1.1,0-2,0.9-2,2s0.9,2,2,2h10c1.1,0,2-0.9,2-2S128.1,274.5,127,274.5z"/>
			<path class="st0" d="M120.46,237.58c-7.42,0.79-13.02,7.93-12.37,15.37c0.85,9.74,9.81,17.01,12.88,19.23
				c0.61,0.44,1.42,0.42,2.02-0.04c3.19-2.49,12.98-10.93,12.98-20.67C135.96,243.25,128.86,236.69,120.46,237.58z M121.99,257.01
				c-3.06,0-5.54-2.48-5.54-5.54c0-3.06,2.48-5.54,5.54-5.54c3.06,0,5.54,2.48,5.54,5.54C127.54,254.53,125.05,257.01,121.99,257.01
				z"/>
		</g>
	</g>
	<g>
		<g>
			<path class="st0" d="M65,238H43c-2.21,0-4,1.79-4,4v32c0,2.21,1.79,4,4,4h22c2.21,0,4-1.79,4-4v-32C69,239.79,67.21,238,65,238z
				 M57.5,274h-7c-0.83,0-1.5-0.67-1.5-1.5s0.67-1.5,1.5-1.5h7c0.83,0,1.5,0.67,1.5,1.5S58.33,274,57.5,274z M54,267
				c-4.96,0-9-4.04-9-9s4.04-9,9-9s9,4.04,9,9S58.96,267,54,267z M62,245H46c-0.83,0-1.5-0.67-1.5-1.5s0.67-1.5,1.5-1.5h16
				c0.83,0,1.5,0.67,1.5,1.5S62.83,245,62,245z"/>
			<path class="st0" d="M50.03,259.19c-0.01-0.11-0.09-0.19-0.2-0.19h-2.52c-0.13,0-0.22,0.12-0.2,0.24
				c0.38,2.11,1.7,3.89,3.51,4.89c0.16,0.09,0.34-0.07,0.28-0.25C50.42,262.54,50.13,260.89,50.03,259.19z M50.63,251.87
				c-1.81,1-3.14,2.78-3.51,4.89c-0.02,0.12,0.08,0.24,0.2,0.24h2.52c0.11,0,0.19-0.08,0.2-0.19c0.09-1.7,0.39-3.35,0.87-4.69
				C50.97,251.95,50.79,251.78,50.63,251.87z M57.97,256.81c0.01,0.11,0.09,0.19,0.2,0.19h2.52c0.13,0,0.22-0.12,0.2-0.24
				c-0.38-2.11-1.7-3.89-3.52-4.89c-0.16-0.09-0.34,0.07-0.28,0.25C57.58,253.46,57.87,255.11,57.97,256.81z M55.76,259h-3.52
				c-0.12,0-0.21,0.1-0.2,0.22c0.22,3.76,1.44,5.78,1.96,5.78s1.74-2.02,1.96-5.78C55.97,259.1,55.88,259,55.76,259z M60.68,259
				h-2.52c-0.11,0-0.19,0.08-0.2,0.19c-0.09,1.7-0.39,3.35-0.87,4.69c-0.06,0.17,0.12,0.33,0.28,0.25c1.81-1,3.14-2.78,3.52-4.89
				C60.9,259.12,60.8,259,60.68,259z M54,251c-0.53,0-1.74,2.02-1.96,5.78c-0.01,0.12,0.09,0.22,0.2,0.22h3.52
				c0.12,0,0.21-0.1,0.2-0.22C55.74,253.02,54.53,251,54,251z"/>
		</g>
	</g>
	<g>
		<g>
			<circle class="st0" cx="396.5" cy="192.5" r="6"/>
			<path class="st0" d="M410,188.5h3c0.28,0,0.5-0.22,0.5-0.5v-5.5c0-2.21-1.79-4-4-4h-2.14l-1.71-2.98
				c-0.71-1.25-2.04-2.02-3.47-2.02h-10.36c-1.44,0-2.76,0.77-3.47,2.02l-1.71,2.98h-8.14c-2.21,0-4,1.79-4,4v20c0,2.21,1.79,4,4,4
				h31c2.21,0,4-1.79,4-4V198c0-0.28-0.22-0.5-0.5-0.5h-3c-0.83,0-1.5-0.67-1.5-1.5s0.67-1.5,1.5-1.5h3c0.28,0,0.5-0.22,0.5-0.5v-2
				c0-0.28-0.22-0.5-0.5-0.5h-3c-0.83,0-1.5-0.67-1.5-1.5S409.17,188.5,410,188.5z M380.5,186.5c-1.1,0-2-0.9-2-2s0.9-2,2-2
				c1.1,0,2,0.9,2,2S381.6,186.5,380.5,186.5z M396.5,201.5c-4.96,0-9-4.04-9-9s4.04-9,9-9s9,4.04,9,9S401.46,201.5,396.5,201.5z"/>
		</g>
	</g>
	<g>
		<g>
			<g>
				<path class="st0" d="M316,169.04h-2.36c-2.01,0-3.64,1.63-3.64,3.65v0.71c0,2.01,1.63,3.65,3.64,3.65H316c1.1,0,2-0.9,2-2v-4
					C318,169.94,317.1,169.04,316,169.04z M337.36,169.04H335c-1.1,0-2,0.9-2,2v4c0,1.1,0.9,2,2,2h2.36c2.01,0,3.64-1.63,3.64-3.65
					v-0.71C341,170.68,339.37,169.04,337.36,169.04z M328.5,169.04h-6c-1.1,0-2,0.9-2,2v4c0,1.1,0.9,2,2,2h6c1.1,0,2-0.9,2-2v-4
					C330.5,169.94,329.6,169.04,328.5,169.04z"/>
				<path class="st0" d="M310.12,185.54h-1.37c-2.21,0-4,1.79-4,4v7c0,2.21,1.79,4,4,4h0.4c0.26,0,0.48-0.21,0.5-0.47
					c0.33-4.83,0.59-8.54,0.97-13.99C310.64,185.8,310.41,185.54,310.12,185.54z M318.03,194.54h15.93c2.5,0,4.53-2.03,4.53-4.53
					v-8.47c0-1.1-0.9-2-2-2h-21c-1.1,0-2,0.9-2,2v8.47C313.5,192.51,315.53,194.54,318.03,194.54z M326,184.04
					c1.38,0,2.5,1.12,2.5,2.5c0,1.38-1.12,2.5-2.5,2.5c-1.38,0-2.5-1.12-2.5-2.5C323.5,185.16,324.62,184.04,326,184.04z
					 M343.25,185.54h-1.37c-0.29,0-0.52,0.25-0.5,0.54c0.38,5.45,0.63,9.15,0.97,13.99c0.02,0.26,0.24,0.47,0.5,0.47h0.4
					c2.21,0,4-1.79,4-4v-7C347.25,187.33,345.46,185.54,343.25,185.54z M338.67,195.21c-1.25,1.14-2.89,1.83-4.71,1.83h-15.93
					c-1.81,0-3.46-0.7-4.71-1.83c-0.31-0.29-0.81-0.1-0.84,0.32c-0.21,3.02-0.42,6.07-0.7,10.1c-0.16,2.29,1.67,4.51,3.98,4.73
					c8.17,0.79,12.3,0.79,20.47,0c2.32-0.22,4.14-2.44,3.98-4.73c-0.28-4.03-0.49-7.08-0.7-10.1
					C339.49,195.11,338.99,194.93,338.67,195.21z M330,204.54h-8c-0.83,0-1.5-0.67-1.5-1.5s0.67-1.5,1.5-1.5h8
					c0.83,0,1.5,0.67,1.5,1.5S330.83,204.54,330,204.54z"/>
			</g>
		</g>
	</g>
	<g>
		<g>
			<g>
				<path class="st0" d="M275.38,198.2h-34.76c-0.74,0-1.23,0.78-0.89,1.45l4,8c0.17,0.34,0.52,0.55,0.89,0.55h26.76
					c0.38,0,0.72-0.21,0.89-0.55l4-8C276.61,198.98,276.13,198.2,275.38,198.2z M258.46,195.7h11.86c0.75,0,1.23-0.79,0.89-1.46
					l-11.36-21.9c-0.48-0.93-1.89-0.59-1.89,0.46v22.4C257.96,195.48,258.19,195.7,258.46,195.7z"/>
				<path class="st0" d="M253.66,180.09l-8.78,11.68c-0.43,0.58-0.13,1.41,0.57,1.57l9.39,2.21c0.31,0.07,0.61-0.16,0.61-0.49V180.7
					C255.46,179.73,254.24,179.33,253.66,180.09z"/>
			</g>
		</g>
	</g>
	<g>
		<g>
			<g>
				<path class="st0" d="M209,197.79v-6l-14.59-9.32l0.33-6.28c0.14-2.71-2.02-6.99-4.74-6.99c-2.72,0-4.88,4.28-4.74,6.99
					l0.33,6.28L171,191.79v6l15.15-4.73l0.6,11.31l-5.75,2.43v4h18v-4l-5.75-2.43l0.6-11.31L209,197.79z"/>
				<path class="st0" d="M207.41,199.61l-9.5-3.29c-0.65-0.22-1.36,0.12-1.59,0.77c-0.23,0.65,0.12,1.36,0.77,1.59l9.5,3.29
					c0.14,0.05,0.27,0.07,0.41,0.07c0.52,0,1-0.32,1.18-0.84C208.41,200.55,208.06,199.84,207.41,199.61z M182.09,196.32l-9.5,3.29
					c-0.65,0.23-1,0.94-0.77,1.59c0.18,0.52,0.66,0.84,1.18,0.84c0.14,0,0.27-0.02,0.41-0.07l9.5-3.29c0.65-0.23,1-0.94,0.77-1.59
					C183.46,196.44,182.74,196.09,182.09,196.32z"/>
			</g>
		</g>
	</g>
	<g>
		<g>
			<g>
				<path class="st0" d="M133,169.75h-22c-2.21,0-4,1.79-4,4v27c0,2.21,1.79,4,4,4h22c2.21,0,4-1.79,4-4v-27
					C137,171.54,135.21,169.75,133,169.75z M119.5,173h5c0.83,0,1.5,0.67,1.5,1.5s-0.67,1.5-1.5,1.5h-5c-0.83,0-1.5-0.67-1.5-1.5
					S118.67,173,119.5,173z M113.5,199c-1.38,0-2.5-1.12-2.5-2.5s1.12-2.5,2.5-2.5c1.38,0,2.5,1.12,2.5,2.5S114.88,199,113.5,199z
					 M120,188c0,0.28-0.22,0.5-0.5,0.5H112v-8.06c0-0.52,0.42-0.94,0.94-0.94h6.56c0.28,0,0.5,0.22,0.5,0.5V188z M124,188v-8
					c0-0.28,0.22-0.5,0.5-0.5h6.56c0.52,0,0.94,0.42,0.94,0.94v8.06h-7.5C124.22,188.5,124,188.28,124,188z M130.5,199
					c-1.38,0-2.5-1.12-2.5-2.5s1.12-2.5,2.5-2.5c1.38,0,2.5,1.12,2.5,2.5S131.88,199,130.5,199z"/>
				<path class="st0" d="M132.47,207.25h-21c-0.83,0-1.5,0.67-1.5,1.5s0.67,1.5,1.5,1.5h21c0.83,0,1.5-0.67,1.5-1.5
					S133.29,207.25,132.47,207.25z"/>
			</g>
		</g>
	</g>
	<g>
		<g>
			<g>
				<path class="st0" d="M65,169H43c-2.21,0-4,1.79-4,4v31.5c0,0.28,0.22,0.5,0.5,0.5H40v4c0,1.1,0.9,2,2,2h2c1.1,0,2-0.9,2-2v-4h16
					v4c0,1.1,0.9,2,2,2h2c1.1,0,2-0.9,2-2v-4h0.5c0.28,0,0.5-0.22,0.5-0.5V173C69,170.79,67.21,169,65,169z M44,175.94
					c0-0.52,0.42-0.94,0.94-0.94h18.13c0.52,0,0.94,0.42,0.94,0.94V187H44V175.94z M45.5,199.5c-1.38,0-2.5-1.12-2.5-2.5
					s1.12-2.5,2.5-2.5c1.38,0,2.5,1.12,2.5,2.5S46.88,199.5,45.5,199.5z M55.5,199h-3c-0.83,0-1.5-0.67-1.5-1.5s0.67-1.5,1.5-1.5h3
					c0.83,0,1.5,0.67,1.5,1.5S56.33,199,55.5,199z M62.5,199.5c-1.38,0-2.5-1.12-2.5-2.5s1.12-2.5,2.5-2.5c1.38,0,2.5,1.12,2.5,2.5
					S63.88,199.5,62.5,199.5z"/>
				<path class="st0" d="M56,177h-4c-1.1,0-2,0.9-2,2s0.9,2,2,2h4c1.1,0,2-0.9,2-2S57.1,177,56,177z"/>
			</g>
		</g>
	</g>
	<g>
		<g>
			<g>
				<path class="st0" d="M390.5,111.35h5c0.28,0,0.5-0.22,0.5-0.5v-4.79c0-0.28-0.22-0.5-0.5-0.5h-5c-0.28,0-0.5,0.22-0.5,0.5v4.79
					C390,111.12,390.22,111.35,390.5,111.35z M380.5,111.35h5c0.28,0,0.5-0.22,0.5-0.5v-4.79c0-0.28-0.22-0.5-0.5-0.5h-5
					c-0.28,0-0.5,0.22-0.5,0.5v4.79C380,111.12,380.22,111.35,380.5,111.35z M412.34,123.45H401.3c-0.51,0-1,0.19-1.37,0.54
					l-3.09,2.91c-0.37,0.35-0.86,0.54-1.37,0.54h-19.81c-1.25,0-2.19,1.13-1.97,2.36l1.27,7c0.17,0.95,1,1.64,1.97,1.64h31.1
					c0.82,0,1.56-0.5,1.86-1.27l4.3-11C414.71,124.86,413.74,123.45,412.34,123.45z"/>
				<path class="st0" d="M407.9,120.24l-2.77-6.1c-0.08-0.18-0.26-0.29-0.46-0.29H378.5c-0.28,0-0.5,0.22-0.5,0.5v10
					c0,0.28,0.22,0.5,0.5,0.5h16.88l2.84-2.68c0.83-0.79,1.94-1.23,3.09-1.23h6.15C407.81,120.95,408.06,120.57,407.9,120.24z
					 M384,120.35c0,0.28-0.22,0.5-0.5,0.5h-2c-0.28,0-0.5-0.22-0.5-0.5v-2c0-0.28,0.22-0.5,0.5-0.5h2c0.28,0,0.5,0.22,0.5,0.5
					V120.35z M389,120.35c0,0.28-0.22,0.5-0.5,0.5h-2c-0.28,0-0.5-0.22-0.5-0.5v-2c0-0.28,0.22-0.5,0.5-0.5h2
					c0.28,0,0.5,0.22,0.5,0.5V120.35z M394,120.35c0,0.28-0.22,0.5-0.5,0.5h-2c-0.28,0-0.5-0.22-0.5-0.5v-2c0-0.28,0.22-0.5,0.5-0.5
					h2c0.28,0,0.5,0.22,0.5,0.5V120.35z"/>
			</g>
		</g>
	</g>
	<g>
		<g>
			<g>
				<path class="st0" d="M333,130c-0.83,0-1.5,0.67-1.5,1.5s0.67,1.5,1.5,1.5s1.5-0.67,1.5-1.5S333.83,130,333,130z M342,105.5h-28
					c-4.42,0-8,3.58-8,8V132c0,0.28,0.22,0.5,0.5,0.5h3.5v4.5c0,0.83,0.67,1.5,1.5,1.5s1.5-0.67,1.5-1.5v-4.5h13.08
					c0.49,3.39,3.4,6,6.92,6s6.43-2.61,6.92-6h5.58c0.28,0,0.5-0.22,0.5-0.5v-22.5C346,107.29,344.21,105.5,342,105.5z M321,127.5
					h-10v-15c0-1.1,0.9-2,2-2h6c1.1,0,2,0.9,2,2V127.5z M333,135.5c-2.21,0-4-1.79-4-4s1.79-4,4-4s4,1.79,4,4
					S335.21,135.5,333,135.5z M341,115.5c0,1.1-0.9,2-2,2h-11c-1.1,0-2-0.9-2-2v-3c0-1.1,0.9-2,2-2h11c1.1,0,2,0.9,2,2V115.5z"/>
				<path class="st0" d="M317.5,115c-0.83,0-1.5,0.67-1.5,1.5v4c0,0.83,0.67,1.5,1.5,1.5s1.5-0.67,1.5-1.5v-4
					C319,115.67,318.33,115,317.5,115z"/>
			</g>
		</g>
	</g>
	<g>
		<g>
			<g>
				<path class="st0" d="M257.99,100.75L257.99,100.75c-3.71,0-6.7,5.01-6.7,13.65c0,9.3,2.75,15.84,4.73,19.35h3.96
					c1.97-3.51,4.72-10.05,4.72-19.36C264.71,105.75,261.69,100.75,257.99,100.75z"/>
				<path class="st0" d="M253,133.75h0.19c-2.04-3.99-4.4-10.5-4.4-19.35c0-5.63,1.19-10.11,3.26-12.91
					c-6.46,1.69-11.06,6.2-11.06,12.92c0,9.76,6.63,16.04,11.62,19.38C252.75,133.78,252.87,133.75,253,133.75z M263.87,101.47
					c2.27,3.1,3.34,8.01,3.34,12.92c0,8.86-2.35,15.37-4.38,19.36H263c0.1,0,0.2,0.02,0.3,0.03c4.99-3.38,11.7-9.73,11.7-19.4
					C275,107.64,270.36,103.14,263.87,101.47z M263,136.25h-10c-1.1,0-2,0.9-2,2v3c0,1.1,0.9,2,2,2h10c1.1,0,2-0.9,2-2v-3
					C265,137.14,264.1,136.25,263,136.25z"/>
			</g>
		</g>
	</g>
	<g>
		<g>
			<g>
				<path class="st0" d="M196,104.31h-12c-1.87,0-3.38,1.51-3.38,3.38v2c0,0.28,0.22,0.5,0.5,0.5h2.38c0.28,0,0.5-0.22,0.5-0.5v-2
					h12v2c0,0.28,0.22,0.5,0.5,0.5h2.38c0.28,0,0.5-0.22,0.5-0.5v-2C199.38,105.82,197.87,104.31,196,104.31z"/>
				<path class="st0" d="M205,112.69h-30c-2.21,0-4,1.79-4,4v19c0,2.21,1.79,4,4,4h30c2.21,0,4-1.79,4-4v-19
					C209,114.48,207.21,112.69,205,112.69z M186.99,122.7l-6.48,6.48c-0.36,0.36-0.94,0.36-1.3,0l-3.37-3.37
					c-0.36-0.36-0.36-0.94,0-1.3l6.48-6.48c0.36-0.36,0.94-0.36,1.3,0l3.37,3.37C187.35,121.76,187.35,122.34,186.99,122.7z
					 M197,134.69c-2.21,0-4-1.79-4-4c0-2.21,1.79-4,4-4c2.21,0,4,1.79,4,4C201,132.9,199.21,134.69,197,134.69z"/>
			</g>
		</g>
	</g>
	<g>
		<g>
			<g>
				<path class="st0" d="M123.67,125.5h-7c-0.28,0-0.5,0.22-0.5,0.5v14.5c0,0.28,0.22,0.5,0.5,0.5h7c0.28,0,0.5-0.22,0.5-0.5V126
					C124.17,125.72,123.95,125.5,123.67,125.5z M122.17,103h-4c-1.1,0-2,0.9-2,2v2c0,0.28,0.22,0.5,0.5,0.5h7
					c0.28,0,0.5-0.22,0.5-0.5v-2C124.17,103.9,123.28,103,122.17,103z"/>
				<path class="st0" d="M136.88,115.25l-3.6-4.5c-0.38-0.47-0.95-0.75-1.56-0.75h-23.04c-1.1,0-2,0.9-2,2v9c0,1.1,0.9,2,2,2h23.04
					c0.61,0,1.18-0.28,1.56-0.75l3.6-4.5C137.47,117.02,137.47,115.98,136.88,115.25z"/>
			</g>
		</g>
	</g>
	<g>
		<g>
			<g>
				<path class="st0" d="M62.04,128.42l-4.2-9.44c-0.16-0.37-0.45-0.65-0.82-0.82l-9.44-4.2c-0.89-0.4-2.01,0.72-1.61,1.61l4.2,9.44
					c0.16,0.37,0.45,0.65,0.82,0.82l9.44,4.2C61.31,130.43,62.43,129.31,62.04,128.42z M54,123.94c-1.07,0-1.94-0.87-1.94-1.94
					s0.87-1.94,1.94-1.94s1.94,0.87,1.94,1.94S55.07,123.94,54,123.94z"/>
				<path class="st0" d="M54,130.5c-0.83,0-1.5,0.67-1.5,1.5v1c0,0.83,0.67,1.5,1.5,1.5s1.5-0.67,1.5-1.5v-1
					C55.5,131.17,54.83,130.5,54,130.5z M44.5,121h-1c-0.83,0-1.5,0.67-1.5,1.5s0.67,1.5,1.5,1.5h1c0.83,0,1.5-0.67,1.5-1.5
					S45.33,121,44.5,121z M54,110.5c-0.83,0-1.5,0.67-1.5,1.5v1c0,0.83,0.67,1.5,1.5,1.5s1.5-0.67,1.5-1.5v-1
					C55.5,111.17,54.83,110.5,54,110.5z M54,102.5c-10.75,0-19.5,8.75-19.5,19.5s8.75,19.5,19.5,19.5s19.5-8.75,19.5-19.5
					S64.75,102.5,54,102.5z M54,136.5c-8,0-14.5-6.5-14.5-14.5S46,107.5,54,107.5S68.5,114,68.5,122S62,136.5,54,136.5z M64.5,121
					h-1c-0.83,0-1.5,0.67-1.5,1.5s0.67,1.5,1.5,1.5h1c0.83,0,1.5-0.67,1.5-1.5S65.33,121,64.5,121z"/>
			</g>
		</g>
	</g>
</g>
<g id="title">
</g>
</svg>
