<?xml version="1.0" encoding="utf-8"?>
<!-- Generator: Adobe Illustrator 24.1.1, SVG Export Plug-In . SVG Version: 6.00 Build 0)  -->
<svg version="1.1" xmlns="http://www.w3.org/2000/svg" xmlns:xlink="http://www.w3.org/1999/xlink" x="0px" y="0px"
	 viewBox="0 0 448 448" style="enable-background:new 0 0 448 448;" xml:space="preserve">
<style type="text/css">
	.st0{fill:#173042;}
</style>
<g id="grid">
</g>
<g id="icons">
	<g>
		<g>
			<path class="st0" d="M409.75,397.05c0,0.04-0.01,0.09-0.01,0.13c0,0.04,0.01,0.07,0.01,0.11V397.05z M408.88,389.42h-9.13
				c-1.1,0-2-0.9-2-2v-3.84c0-2.25-1.86-4.07-4.13-4c-1.05,0.03-1.87,0.94-1.87,2v4c0,2.84-4,4.84-4,6.84v12.79
				c0,0.74,0.41,1.42,1.06,1.77c0.36,0.19,0.79,0.42,1.24,0.66c2.18,1.17,4.62,1.78,7.09,1.78h7.74c1.58,0,2.87-1.28,2.87-2.87
				v-0.26c0-0.48-0.13-0.92-0.34-1.32c0.8-0.51,1.34-1.4,1.34-2.42v-0.76c0-0.81-0.34-1.53-0.87-2.06c1.05-0.39,1.81-1.38,1.86-2.55
				c-0.03-0.68-0.29-1.3-0.71-1.78c1.51-0.08,2.72-1.32,2.72-2.85v-0.26C411.75,390.7,410.47,389.42,408.88,389.42z"/>
			<path class="st0" d="M384.75,390.42h-7c-0.28,0-0.5,0.22-0.5,0.5v16c0,0.28,0.22,0.5,0.5,0.5h7c0.28,0,0.5-0.22,0.5-0.5v-16
				C385.25,390.64,385.03,390.42,384.75,390.42z M381.25,404.42c-0.83,0-1.5-0.67-1.5-1.5c0-0.83,0.67-1.5,1.5-1.5s1.5,0.67,1.5,1.5
				C382.75,403.75,382.08,404.42,381.25,404.42z"/>
		</g>
	</g>
	<g>
		<g>
			<g>
				<path class="st0" d="M327.13,377.93c-0.78-0.78-1.96-0.87-2.63-0.2l-6.06,6.06c-0.67,0.67-0.58,1.85,0.2,2.63
					c0,0,0.2,0.2,0.44,0.44c0.24,0.24,0.76,0.13,1.15-0.27l7.07-7.07c0.39-0.39,0.51-0.9,0.27-1.15L327.13,377.93z M341.28,392.07
					c0,0-0.2-0.2-0.44-0.44c-0.24-0.24-0.76-0.13-1.15,0.27l-7.07,7.07c-0.39,0.39-0.51,0.9-0.27,1.15l0.44,0.44
					c0.78,0.78,1.96,0.87,2.63,0.2l6.06-6.06C342.15,394.02,342.06,392.85,341.28,392.07z"/>
				<path class="st0" d="M343.48,407.72h-18c-1.1,0-2,0.9-2,2v1.5c0,0.28,0.22,0.5,0.5,0.5h21c0.28,0,0.5-0.22,0.5-0.5v-1.5
					C345.48,408.62,344.58,407.72,343.48,407.72z M327.13,397.72l0.71-0.71l1.24,1.24c0.2,0.2,0.51,0.2,0.71,0l9.19-9.19
					c0.2-0.2,0.2-0.51,0-0.71l-8.13-8.13c-0.2-0.2-0.51-0.2-0.71,0l-9.19,9.19c-0.2,0.2-0.2,0.51,0,0.71l1.24,1.24l-0.71,0.71
					c-0.78,0.78-0.78,2.05,0,2.83l-0.99,0.99c-1.84,1.84-3.9,3.45-6.05,4.93c-1.13,0.78-2.29,1.73-3.34,2.78
					c-3.32,3.32-4.29,6.31-3.05,7.56c1.24,1.24,4.24,0.27,7.56-3.05c1.05-1.05,2.01-2.21,2.78-3.34c1.48-2.15,3.08-4.21,4.93-6.05
					l0.99-0.99C325.09,398.51,326.35,398.51,327.13,397.72z"/>
			</g>
		</g>
	</g>
	<g>
		<g>
			<path class="st0" d="M277.66,385.13c-0.14-0.21-0.33-0.4-0.54-0.54c-0.32-0.22-0.7-0.34-1.12-0.34h-35c-1.1,0-2,0.9-2,2v22
				c0,1.1,0.9,2,2,2h35c0.41,0,0.8-0.13,1.12-0.34c0.21-0.14,0.4-0.33,0.54-0.54c0.22-0.32,0.34-0.7,0.34-1.12v-22
				C278,385.83,277.87,385.45,277.66,385.13z M274.5,402.25c-2.49,0-4.5,2.01-4.5,4.5h-23c0-2.49-2.01-4.5-4.5-4.5v-10
				c2.49,0,4.5-2.01,4.5-4.5h23c0,2.49,2.01,4.5,4.5,4.5V402.25z"/>
			<path class="st0" d="M258.25,394.46c0.51-0.04,1,0.24,1.21,0.72c0.28,0.63,1.01,0.92,1.65,0.65c0.63-0.28,0.92-1.01,0.65-1.65
				c-0.36-0.83-1-1.46-1.78-1.84v-0.46c0-0.69-0.56-1.25-1.25-1.25c-0.69,0-1.25,0.56-1.25,1.25v0.19c-1.13,0.3-1.96,1.2-2.18,2.39
				c-0.25,1.36,0.4,2.7,1.62,3.33l2.03,1.05c0.36,0.18,0.33,0.54,0.32,0.65c-0.03,0.18-0.13,0.4-0.52,0.46
				c-0.51,0.04-1-0.24-1.21-0.72c-0.28-0.63-1.01-0.92-1.65-0.65c-0.63,0.28-0.92,1.01-0.65,1.65c0.43,0.99,1.25,1.71,2.23,2.03
				v0.19c0,0.69,0.56,1.25,1.25,1.25c0.69,0,1.25-0.56,1.25-1.25v-0.27c0.93-0.4,1.59-1.24,1.76-2.3c0.22-1.36-0.43-2.64-1.64-3.26
				l-2.03-1.05c-0.36-0.18-0.34-0.52-0.31-0.65C257.78,394.77,257.88,394.5,258.25,394.46z M248,395.25c-1.1,0-2,0.9-2,2
				c0,1.1,0.9,2,2,2s2-0.9,2-2C250,396.14,249.1,395.25,248,395.25z M269,395.25c-1.1,0-2,0.9-2,2c0,1.1,0.9,2,2,2s2-0.9,2-2
				C271,396.14,270.1,395.25,269,395.25z M272.6,378.75h-28c-0.83,0-1.5,0.67-1.5,1.5s0.67,1.5,1.5,1.5h28c0.83,0,1.5-0.67,1.5-1.5
				S273.42,378.75,272.6,378.75z"/>
		</g>
	</g>
	<g>
		<g>
			<g>
				<path class="st0" d="M190.53,395.98c-0.4,0-0.8,0.15-1.1,0.46c-0.61,0.61-0.61,1.6,0,2.2c0.3,0.3,0.7,0.46,1.1,0.46
					s0.8-0.15,1.1-0.46c0.61-0.61,0.61-1.6,0-2.2C191.32,396.13,190.93,395.98,190.53,395.98z M190.5,387.14
					c-5.62,0-10.18,4.56-10.18,10.18c0,5.62,4.56,10.18,10.18,10.18s10.18-4.56,10.18-10.18
					C200.68,391.7,196.12,387.14,190.5,387.14z M195.85,394.76l-1.94,1.75c0,0,0,0,0,0c0.1,0.33,0.17,0.68,0.17,1.04
					c0,0.95-0.37,1.84-1.04,2.52c-0.67,0.67-1.57,1.04-2.52,1.04c-0.95,0-1.84-0.37-2.52-1.04c-0.67-0.67-1.04-1.57-1.04-2.52
					c0-0.95,0.37-1.84,1.04-2.52c0.67-0.67,1.57-1.04,2.52-1.04c0.49,0,0.96,0.1,1.39,0.28l1.93-1.74c0.62-0.56,1.56-0.51,2.12,0.11
					C196.52,393.25,196.47,394.2,195.85,394.76z"/>
			</g>
			<path class="st0" d="M193.35,381.41v-0.95h2.1c0.28,0,0.5-0.22,0.5-0.5v-3.45c0-0.55-0.45-1-1-1h-8.89c-0.55,0-1,0.45-1,1v3.45
				c0,0.28,0.22,0.5,0.5,0.5h2.1v0.95c-2.86,0.51-5.47,1.77-7.6,3.58l-1.25-1.25c-0.39-0.39-1.02-0.39-1.41,0l-2.45,2.45
				c-0.39,0.39-0.39,1.02,0,1.41l1.59,1.59c-1.4,2.39-2.21,5.16-2.21,8.12c0,8.92,7.26,16.18,16.18,16.18s16.18-7.26,16.18-16.18
				C206.68,389.37,200.91,382.76,193.35,381.41z M190.5,410c-6.99,0-12.68-5.69-12.68-12.68c0-6.99,5.69-12.68,12.68-12.68
				s12.68,5.69,12.68,12.68C203.18,404.31,197.49,410,190.5,410z"/>
		</g>
	</g>
	<g>
		<g>
			<path class="st0" d="M132.51,385.61c-1.33-1.33-3.09-2.06-4.97-2.06c-1.88,0-3.64,0.73-4.97,2.06c-0.49,0.49-0.49,1.28,0,1.77
				c0.49,0.49,1.28,0.49,1.77,0c0.86-0.86,1.99-1.33,3.2-1.33c1.21,0,2.35,0.47,3.2,1.33c0.24,0.24,0.56,0.37,0.88,0.37
				c0.32,0,0.64-0.12,0.88-0.37C133,386.89,133,386.1,132.51,385.61z"/>
			<path class="st0" d="M136.2,381.16c-2.44-2.44-5.64-3.66-8.84-3.66c-3.2,0-6.4,1.22-8.84,3.66c-4.28,4.28-4.81,10.88-1.59,15.73
				l-2.3,2.3l-0.35-0.35c-0.2-0.2-0.51-0.2-0.71,0l-8.13,8.13c-0.39,0.39-0.39,1.02,0,1.41l2.83,2.83c0.39,0.39,1.02,0.39,1.41,0
				l8.13-8.13c0.2-0.2,0.2-0.51,0-0.71l-0.35-0.35l2.19-2.19c2.26,1.77,4.98,2.67,7.71,2.67c3.2,0,6.4-1.22,8.84-3.66
				C141.08,393.95,141.08,386.04,136.2,381.16z M133.37,396.01c-1.61,1.61-3.74,2.49-6.01,2.49c-2.27,0-4.4-0.88-6.01-2.49
				c-1.61-1.61-2.49-3.74-2.49-6.01c0-2.27,0.88-4.4,2.49-6.01c1.61-1.61,3.74-2.49,6.01-2.49c2.27,0,4.4,0.88,6.01,2.49
				c1.61,1.61,2.49,3.74,2.49,6.01C135.86,392.27,134.97,394.4,133.37,396.01z"/>
		</g>
	</g>
	<g>
		<g>
			<g>
				<path class="st0" d="M71.59,398.46c-0.86-1.08-2.42-1.27-3.51-0.42L61,403.59c-0.35,0.28-0.79,0.43-1.23,0.43l-5.07,0.01
					c-0.69,0-1.25-0.56-1.25-1.25c0-0.69,0.56-1.25,1.25-1.25l4.25,0c1.38,0,2.5-1.12,2.5-2.5c0-1.38-1.12-2.5-2.5-2.5l-4.71,0
					l-3.21,0l-1.81,0l-0.66,0c-1.34,0-2.65,0.45-3.7,1.28l-3.47,2.73c-0.22,0.17-0.26,0.49-0.08,0.7l6.74,8.53
					c0.09,0.12,0.24,0.19,0.39,0.19l8.16,0.07l2.26,0.02c1.37,0.01,2.7-0.44,3.77-1.29l8.57-6.77
					C72.26,401.12,72.45,399.54,71.59,398.46z"/>
				<path class="st0" d="M39.33,402.78c-0.17-0.22-0.49-0.25-0.7-0.08l-1.57,1.24c-0.22,0.17-0.25,0.49-0.08,0.7l6.58,8.33
					c0.17,0.22,0.49,0.25,0.7,0.08l1.57-1.24c0.22-0.17,0.25-0.49,0.08-0.7L39.33,402.78z M58.55,375.84
					c-4.86,0-8.81,3.94-8.81,8.81c0,4.86,3.94,8.81,8.81,8.81s8.81-3.94,8.81-8.81C67.36,379.78,63.42,375.84,58.55,375.84z
					 M58.06,382.95L60.1,384c1.21,0.62,1.86,1.91,1.64,3.26c-0.17,1.06-0.83,1.89-1.76,2.3v0.27c0,0.69-0.56,1.25-1.25,1.25
					s-1.25-0.56-1.25-1.25v-0.19c-0.98-0.32-1.8-1.04-2.23-2.03c-0.28-0.63,0.02-1.37,0.65-1.64c0.63-0.28,1.37,0.02,1.64,0.65
					c0.21,0.48,0.7,0.76,1.21,0.72c0.39-0.06,0.49-0.28,0.52-0.46c0.02-0.11,0.04-0.46-0.32-0.65l-2.03-1.05
					c-1.23-0.63-1.88-1.97-1.62-3.33c0.22-1.19,1.06-2.09,2.18-2.39v-0.19c0-0.69,0.56-1.25,1.25-1.25s1.25,0.56,1.25,1.25v0.46
					c0.78,0.38,1.42,1.01,1.78,1.84c0.28,0.63-0.01,1.37-0.65,1.64c-0.64,0.28-1.37-0.01-1.65-0.65c-0.21-0.48-0.7-0.77-1.21-0.72
					c-0.38,0.04-0.48,0.31-0.51,0.46C57.73,382.44,57.71,382.77,58.06,382.95z"/>
			</g>
		</g>
	</g>
	<g>
		<g>
			<path class="st0" d="M394.5,308c-10.2,0-18.5,8.3-18.5,18.5c0,10.2,8.3,18.5,18.5,18.5s18.5-8.3,18.5-18.5
				C413,316.3,404.7,308,394.5,308z M394.5,341c-8,0-14.5-6.5-14.5-14.5c0-8,6.5-14.5,14.5-14.5s14.5,6.5,14.5,14.5
				C409,334.5,402.5,341,394.5,341z"/>
			<path class="st0" d="M395,321.3c1.88,0,3.4-1.52,3.4-3.4c0-1.88-1.52-3.4-3.4-3.4c-1.88,0-3.4,1.52-3.4,3.4
				C391.6,319.78,393.12,321.3,395,321.3z M398.3,328.25c0.57-2.44-1.28-4.77-3.78-4.77h-2.93c-0.55,0-1,0.45-1,1
				c0,0.21,0.1,0.41,0.25,0.58c0.49,0.53,0.75,1.23,0.58,1.94l-1.53,6.24c-0.57,2.44,1.28,4.77,3.78,4.77h2.93c0.55,0,1-0.45,1-1
				c0-0.21-0.1-0.41-0.25-0.58c-0.49-0.53-0.75-1.23-0.58-1.94L398.3,328.25z"/>
		</g>
	</g>
	<g>
		<g>
			<path class="st0" d="M346.57,323.19c-0.48-1.45-1.5-2.63-2.87-3.31c-0.62-0.31-1.37-0.06-1.68,0.56
				c-0.31,0.62-0.06,1.37,0.56,1.68c0.77,0.38,1.34,1.05,1.62,1.86c0.27,0.82,0.21,1.69-0.17,2.46c-0.28,0.55-0.75,0.96-1.33,1.16
				c-1.74-6.4-8.48-9.6-16.55-9.6c-2.69,0-5.22,0.37-7.48,1.08c-2.25-1.02-4.84-1.22-7.28-0.45c-0.6,0.19-0.89,0.89-0.58,1.45
				l1.51,2.74c-1.68,1.75-2.79,3.97-3.08,6.67l-1.41,0.24c-0.96,0.16-1.67,1-1.67,1.97v3.41c0,0.57,0.24,1.11,0.66,1.49l2.21,1.98
				l0,0c1.36,1.28,3.13,2.34,5.12,3.17V346c0,0.55,0.45,1,1,1h5.22c0.46,0,0.86-0.31,0.97-0.76l0.63-2.5
				c1.4,0.17,2.81,0.26,4.18,0.26c1.44,0,2.83-0.11,4.17-0.32l0.64,2.56c0.11,0.45,0.51,0.76,0.97,0.76h5.22c0.55,0,1-0.45,1-1
				v-5.24c3.09-2.17,5-5.42,5-9.76c0-0.32-0.03-0.62-0.05-0.93c0.13-0.03,0.25-0.05,0.38-0.09c1.22-0.41,2.21-1.27,2.79-2.42
				C346.94,326.19,347.05,324.64,346.57,323.19z M314.64,330c-0.83,0-1.5-0.67-1.5-1.5c0-0.83,0.67-1.5,1.5-1.5s1.5,0.67,1.5,1.5
				C316.14,329.33,315.47,330,314.64,330z M332.85,323.23c-0.17,0.53-0.66,0.86-1.19,0.86c-0.13,0-0.26-0.02-0.39-0.06
				c-1.84-0.6-4.02-0.82-6.32-0.65c-1.06,0.08-2.08,0.24-3.04,0.47c-0.67,0.17-1.35-0.25-1.51-0.92c-0.16-0.67,0.25-1.35,0.92-1.51
				c1.09-0.26,2.25-0.44,3.44-0.53c2.65-0.2,5.1,0.06,7.28,0.77C332.71,321.86,333.07,322.57,332.85,323.23z"/>
			<circle class="st0" cx="326.64" cy="310.5" r="4.5"/>
		</g>
	</g>
	<g>
		<g>
			<path class="st0" d="M243.74,312.14c-0.14-0.19-0.41-0.24-0.59-0.1c-2.78,2.05-3.15,6.06-0.79,8.58l7.12,7.64l-1.29,1.73
				c-0.64,0.87-1.66,1.34-2.74,1.39c-1.83,0.08-3.6,1.04-4.62,2.79c-1.36,2.34-0.78,5.45,1.33,7.15c1.01,0.82,2.24,1.25,3.51,1.25
				c0.28,0,0.56-0.02,0.84-0.06c1.48-0.22,2.79-1,3.68-2.21c1.07-1.44,1.34-3.24,0.89-4.84c-0.31-1.12,0.06-2.33,0.86-3.19l0.65-0.7
				l0.01,0.01v-7.52L243.74,312.14z M248.11,338.78L248.11,338.78c-0.48,0.65-1.18,1.07-1.98,1.19c-0.8,0.12-1.59-0.08-2.24-0.56
				c-1.34-0.99-1.62-2.88-0.63-4.22c0.59-0.8,1.5-1.22,2.43-1.22c0.62,0,1.25,0.19,1.79,0.59
				C248.82,335.55,249.1,337.45,248.11,338.78z"/>
			<path class="st0" d="M276.38,326.8h0.52v-8.52c0-0.64-0.31-1.24-0.82-1.62l-9-6.55c-0.7-0.51-1.65-0.51-2.35,0l-9,6.55
				c-0.52,0.38-0.82,0.98-0.82,1.62v8.52h0.66c0.83,0,1.5,0.67,1.5,1.5c0,0.83-0.67,1.5-1.5,1.5h-0.66v11.46c0,1.1,0.9,2,2,2h18
				c1.1,0,2-0.9,2-2V329.8h-0.52c-0.83,0-1.5-0.67-1.5-1.5C274.88,327.47,275.55,326.8,276.38,326.8z M263.18,329.8h-2.03
				c-0.83,0-1.5-0.67-1.5-1.5c0-0.83,0.67-1.5,1.5-1.5h2.03c0.83,0,1.5,0.67,1.5,1.5C264.68,329.13,264.01,329.8,263.18,329.8z
				 M264.05,316.77c0-1.1,0.9-2,2-2c1.1,0,2,0.9,2,2c0,1.1-0.9,2-2,2C264.95,318.77,264.05,317.87,264.05,316.77z M270.8,329.8
				h-2.03c-0.83,0-1.5-0.67-1.5-1.5c0-0.83,0.67-1.5,1.5-1.5h2.03c0.83,0,1.5,0.67,1.5,1.5C272.3,329.13,271.62,329.8,270.8,329.8z"
				/>
		</g>
	</g>
	<g>
		<g>
			<g>
				<path class="st0" d="M176.57,311.58c-0.14-0.19-0.41-0.24-0.59-0.1c-2.78,2.05-3.15,6.06-0.79,8.58l7.12,7.64l-1.29,1.73
					c-0.64,0.87-1.66,1.34-2.74,1.39c-1.83,0.08-3.6,1.04-4.62,2.79c-1.36,2.34-0.78,5.45,1.33,7.15c1.01,0.82,2.24,1.25,3.51,1.25
					c0.28,0,0.56-0.02,0.84-0.06c1.48-0.22,2.79-1,3.68-2.21c1.07-1.44,1.34-3.24,0.89-4.84c-0.32-1.12,0.06-2.33,0.86-3.19
					l0.65-0.7l0.01,0.01v-7.52L176.57,311.58z M180.94,338.21L180.94,338.21c-0.48,0.65-1.18,1.07-1.98,1.19
					c-0.8,0.12-1.59-0.08-2.24-0.56c-1.34-0.99-1.62-2.88-0.63-4.22c0.59-0.8,1.5-1.22,2.43-1.22c0.62,0,1.25,0.19,1.79,0.59
					C181.65,334.98,181.93,336.88,180.94,338.21z"/>
				<path class="st0" d="M197.9,332.67c-0.81,0-1.47,0.66-1.47,1.47c0,0.81,0.66,1.47,1.47,1.47c0.81,0,1.47-0.66,1.47-1.47
					C199.37,333.33,198.71,332.67,197.9,332.67z M197.9,319.79c0.81,0,1.47-0.66,1.47-1.47s-0.66-1.47-1.47-1.47
					c-0.81,0-1.47,0.66-1.47,1.47S197.09,319.79,197.9,319.79z M197.9,322.28c-2.84,0-4.52,1.77-4.52,3.95
					c0,2.18,1.68,3.95,4.52,3.95c2.81,0,4.52-1.77,4.52-3.95C202.42,324.05,200.71,322.28,197.9,322.28z M206.07,310.98h-16.34
					c-1.1,0-2,0.9-2,2v26.51c0,1.1,0.9,2,2,2h16.34c1.1,0,2-0.9,2-2v-26.51C208.07,311.87,207.18,310.98,206.07,310.98z
					 M205.57,335.25c-0.08-0.01-0.16-0.03-0.24-0.03c-1.94,0-3.52,1.58-3.52,3.52c0,0.08,0.02,0.16,0.03,0.24h-7.88
					c0.01-0.08,0.03-0.16,0.03-0.24c0-1.94-1.58-3.52-3.52-3.52c-0.08,0-0.16,0.02-0.24,0.03v-18.05c0.08,0.01,0.16,0.03,0.24,0.03
					c1.94,0,3.52-1.58,3.52-3.52c0-0.08-0.02-0.16-0.03-0.24h7.88c-0.01,0.08-0.03,0.16-0.03,0.24c0,1.94,1.58,3.52,3.52,3.52
					c0.08,0,0.16-0.02,0.24-0.03V335.25z"/>
			</g>
		</g>
	</g>
	<g>
		<g>
			<g>
				<g>
					<path class="st0" d="M120.61,342.75c-0.19-0.2-0.51-0.2-0.7,0c-0.33,0.32-0.79,0.79-1.02,1.01c-0.08,0.08-0.13,0.19-0.14,0.31
						l-0.25,3.24c-0.02,0.31,0.24,0.57,0.56,0.54l3.11-0.36c0.11-0.01,0.22-0.06,0.3-0.14l1.02-1.02c0.2-0.2,0.2-0.51,0-0.71
						L120.61,342.75z M134.03,335.06l-2.87-2.87c-0.2-0.2-0.51-0.2-0.71,0l-8.04,8.04c-0.2,0.2-0.2,0.51,0,0.71l2.87,2.87
						c0.2,0.2,0.51,0.2,0.71,0l8.04-8.04C134.22,335.58,134.22,335.26,134.03,335.06z M131.87,314.64c0-1.1-0.9-2-2-2h-1.09
						c-0.28,0-0.5,0.22-0.5,0.5v3c0,0.28-0.22,0.5-0.5,0.5h-16.92c-0.28,0-0.5-0.22-0.5-0.5v-3c0-0.28-0.22-0.5-0.5-0.5h-0.99
						c-1.1,0-2,0.9-2,2v26c0,1.1,0.9,2,2,2h7.77c0.13-0.23,0.28-0.45,0.47-0.64c0.36-0.36,1.37-1.37,1.37-1.37l13.39-13.39V314.64z
						 M120.37,329.01h-7c-0.69,0-1.25-0.56-1.25-1.25c0-0.69,0.56-1.25,1.25-1.25h7c0.69,0,1.25,0.56,1.25,1.25
						C121.62,328.45,121.06,329.01,120.37,329.01z M125.37,324.01h-12c-0.69,0-1.25-0.56-1.25-1.25c0-0.69,0.56-1.25,1.25-1.25h12
						c0.69,0,1.25,0.56,1.25,1.25C126.62,323.45,126.06,324.01,125.37,324.01z"/>
					<path class="st0" d="M123.14,309.36c-0.74-0.25-1.28-0.94-1.27-1.72c0.02-1.37-1.08-2.48-2.45-2.48h-0.1
						c-1.32,0-2.5,1.05-2.45,2.38c0.03,0.83-0.49,1.57-1.26,1.83c-1.59,0.54-2.74,1.03-2.74,2.8v1.5c0,0.28,0.22,0.5,0.5,0.5h12.01
						c0.28,0,0.5-0.22,0.5-0.5v-1.5C125.87,310.39,124.73,309.9,123.14,309.36z M137.98,331.11l-2.87-2.87c-0.2-0.2-0.51-0.2-0.71,0
						l-1.51,1.51c-0.2,0.2-0.2,0.51,0,0.71l2.87,2.87c0.2,0.2,0.51,0.2,0.71,0l1.51-1.51C138.18,331.62,138.18,331.31,137.98,331.11
						z"/>
				</g>
			</g>
		</g>
	</g>
	<g>
		<g>
			<path class="st0" d="M70.43,326.04c-1,1.09-2,1.99-2.82,2.68c-0.11,7.39-5.77,13.46-12.99,14.2v-28.84
				c0.04,0,0.08,0.01,0.12,0.02c0.15-1.01,0.44-1.99,0.86-2.9c-0.81-0.12-1.63-0.2-2.48-0.2c-9.65,0-17.5,7.85-17.5,17.5
				c0,9.65,7.85,17.5,17.5,17.5s17.5-7.85,17.5-17.5C70.62,327.66,70.54,326.85,70.43,326.04z M46.22,315.75
				c-1.79,2.96-2.93,7.08-3.07,11.75h-4.48C39.02,322.43,41.98,318.06,46.22,315.75z M38.78,330.5h4.41c0.27,4.26,1.37,8,3.03,10.75
				C42.26,339.1,39.42,335.14,38.78,330.5z M51.62,342.65c-2.94-1.4-4.99-6.76-5.41-12.15h5.41V342.65z M51.62,327.5h-5.47
				c0.23-5.71,2.35-11.67,5.47-13.15V327.5z"/>
			<path class="st0" d="M65,307c-0.3,0-0.61,0.02-0.92,0.05c-4.45,0.47-7.81,4.76-7.42,9.22c0.51,5.85,5.88,10.21,7.73,11.54
				c0.18,0.13,0.38,0.19,0.59,0.19c0.22,0,0.44-0.07,0.62-0.21c1.91-1.49,7.79-6.56,7.79-12.4C73.38,310.75,69.62,307,65,307z
				 M65,319.29c-2.16,0-3.91-1.75-3.91-3.91c0-2.16,1.75-3.91,3.91-3.91c2.16,0,3.91,1.75,3.91,3.91
				C68.91,317.54,67.16,319.29,65,319.29z"/>
		</g>
	</g>
	<g>
		<g>
			<path class="st0" d="M410.7,251.31l-14.71,8.83c-0.15,0.09-0.24,0.25-0.24,0.43V277c0,0.39,0.42,0.63,0.75,0.43l14.71-8.49
				c0.15-0.09,0.25-0.25,0.25-0.43v-16.77C411.46,251.35,411.04,251.11,410.7,251.31z M378.3,251.31c-0.33-0.2-0.76,0.04-0.76,0.43
				v16.77c0,0.18,0.1,0.34,0.25,0.43l14.71,8.49c0.33,0.19,0.75-0.05,0.75-0.43v-16.44c0-0.18-0.09-0.34-0.24-0.43L378.3,251.31z
				 M387.28,266.54l-0.74-0.4v2.51c0,0.34-0.27,0.46-0.61,0.28l-1.9-1.02c-0.34-0.18-0.61-0.6-0.61-0.94v-2.51l-0.74-0.4
				c-0.52-0.28-0.8-1.05-0.46-1.26l2.31-1.42c0.24-0.15,0.68,0.08,0.92,0.49l2.31,3.89C388.08,266.35,387.8,266.82,387.28,266.54z"
				/>
			<path class="st0" d="M400.26,242.74l-5.51-3.18c-0.15-0.09-0.35-0.09-0.5,0l-14.89,8.6c-0.33,0.19-0.33,0.67-0.01,0.86l5.68,3.41
				c0.16,0.1,0.36,0.1,0.51,0l14.71-8.83C400.59,243.41,400.59,242.93,400.26,242.74z M410.19,248.18l-2.51-5.46
				c-0.12-0.27-0.46-0.37-0.71-0.22l-14.89,8.93c-0.21,0.13-0.3,0.4-0.2,0.63l2.4,5.53c0.12,0.28,0.46,0.39,0.72,0.23l15-9
				C410.21,248.69,410.29,248.41,410.19,248.18z"/>
		</g>
	</g>
	<g>
		<g>
			<path class="st0" d="M322.2,273.91l-11-11c-0.59-0.59-1.54-0.59-2.12,0c-0.59,0.59-0.59,1.54,0,2.12l11,11
				c0.29,0.29,0.68,0.44,1.06,0.44s0.77-0.15,1.06-0.44C322.78,275.44,322.78,274.49,322.2,273.91z"/>
			<path class="st0" d="M344.34,254.95l-1.74-10.99c-0.14-0.86-0.81-1.53-1.66-1.66l-10.99-1.74c-0.63-0.1-1.27,0.11-1.73,0.56
				l-16.25,16.25c-0.78,0.78-0.78,2.05,0,2.83l12.73,12.73c0.78,0.78,2.05,0.78,2.83,0l16.25-16.25
				C344.23,256.22,344.44,255.58,344.34,254.95z M338.59,249.34c-0.78,0.78-2.05,0.78-2.83,0c-0.78-0.78-0.78-2.05,0-2.83
				c0.78-0.78,2.05-0.78,2.83,0C339.37,247.3,339.37,248.56,338.59,249.34z"/>
		</g>
	</g>
	<g>
		<g>
			<g>
				<path class="st0" d="M268.38,243.89c-0.48-1.43-1.81-2.39-3.32-2.39h-13.12c-1.51,0-2.84,0.96-3.32,2.39l-2.37,7.11h3.16
					l2.05-6.16c0.07-0.2,0.26-0.34,0.47-0.34h13.12c0.22,0,0.41,0.14,0.47,0.34l2.05,6.16h3.16L268.38,243.89z"/>
				<path class="st0" d="M275,253.5h-33c-0.55,0-1,0.45-1,1v5c0,0.55,0.45,1,1,1h1.72l2.03,13.3c0.15,0.98,0.99,1.7,1.98,1.7h21.56
					c0.99,0,1.83-0.72,1.98-1.7l2.03-13.3H275c0.55,0,1-0.45,1-1v-5C276,253.95,275.55,253.5,275,253.5z M253,270
					c0,0.83-0.67,1.5-1.5,1.5s-1.5-0.67-1.5-1.5v-6.5c0-0.83,0.67-1.5,1.5-1.5s1.5,0.67,1.5,1.5V270z M260,270
					c0,0.83-0.67,1.5-1.5,1.5s-1.5-0.67-1.5-1.5v-6.5c0-0.83,0.67-1.5,1.5-1.5s1.5,0.67,1.5,1.5V270z M267,270
					c0,0.83-0.67,1.5-1.5,1.5s-1.5-0.67-1.5-1.5v-6.5c0-0.83,0.67-1.5,1.5-1.5s1.5,0.67,1.5,1.5V270z"/>
			</g>
		</g>
	</g>
	<g>
		<g>
			<g>
				<g>
					<circle class="st0" cx="196.78" cy="262.58" r="1.79"/>
					<circle class="st0" cx="184.22" cy="254.42" r="1.79"/>
					<path class="st0" d="M206.68,262.84c0.39-1.47,2.57-2.75,2.57-4.34c0-1.59-2.17-2.87-2.57-4.34c-0.41-1.52,0.83-3.71,0.06-5.04
						c-0.78-1.35-3.3-1.37-4.4-2.47c-1.09-1.09-1.12-3.62-2.47-4.4c-1.33-0.77-3.52,0.46-5.04,0.06c-1.47-0.39-2.75-2.57-4.34-2.57
						c-1.59,0-2.87,2.17-4.34,2.57c-1.52,0.41-3.71-0.83-5.04-0.06c-1.35,0.78-1.37,3.3-2.47,4.4c-1.09,1.09-3.62,1.12-4.4,2.47
						c-0.77,1.33,0.46,3.52,0.06,5.04c-0.39,1.47-2.57,2.75-2.57,4.34c0,1.59,2.18,2.87,2.57,4.34c0.41,1.52-0.83,3.71-0.06,5.04
						c0.78,1.35,3.3,1.37,4.4,2.47c1.09,1.09,1.12,3.62,2.47,4.4c1.33,0.77,3.52-0.46,5.04-0.06c1.47,0.39,2.75,2.57,4.34,2.57
						c1.59,0,2.87-2.17,4.34-2.57c1.52-0.41,3.71,0.83,5.04,0.06c1.35-0.78,1.37-3.3,2.47-4.4c1.09-1.09,3.62-1.12,4.4-2.47
						C207.51,266.55,206.28,264.35,206.68,262.84z M180.24,254.42c0-2.19,1.78-3.97,3.98-3.97c2.19,0,3.97,1.78,3.97,3.97
						c0,2.19-1.78,3.98-3.97,3.98C182.03,258.39,180.24,256.61,180.24,254.42z M187.6,266.12c-0.09,0.16-0.25,0.25-0.43,0.25h-1.73
						c-0.38,0-0.62-0.41-0.43-0.75l8.39-14.74c0.09-0.16,0.25-0.25,0.43-0.25h1.73c0.38,0,0.62,0.41,0.43,0.75L187.6,266.12z
						 M196.78,266.56c-2.19,0-3.97-1.78-3.97-3.98s1.78-3.98,3.97-3.98c2.19,0,3.98,1.78,3.98,3.98S198.97,266.56,196.78,266.56z"/>
				</g>
			</g>
		</g>
	</g>
	<g>
		<g>
			<g>
				<g>
					<path class="st0" d="M111.01,245.5h19v-2c0-2.21-1.79-4-4-4h-16c-2.21,0-4,1.79-4,4v30c0,2.21,1.79,4,4,4h16c2.21,0,4-1.79,4-4
						v-5h-19c-0.55,0-1-0.45-1-1v-21C110.01,245.95,110.46,245.5,111.01,245.5z M118.9,275h-2c-1.1,0-2-0.9-2-2l0,0c0-1.1,0.9-2,2-2
						h2c1.1,0,2,0.9,2,2l0,0C120.9,274.1,120,275,118.9,275z"/>
					<path class="st0" d="M136.99,247.97h-21.95c-1.1,0-2,0.9-2,2V264c0,1.1,0.9,2,2,2h21.95c1.1,0,2-0.9,2-2v-14.03
						C138.99,248.86,138.09,247.97,136.99,247.97z M119.48,250.36c1.1,0,1.99,0.89,1.99,1.99c0,1.1-0.89,1.99-1.99,1.99
						c-1.1,0-1.99-0.89-1.99-1.99C117.49,251.25,118.38,250.36,119.48,250.36z M121.08,262.37h-2.39c-0.69,0-1.25-0.56-1.25-1.25
						c0-0.69,0.56-1.25,1.25-1.25h2.39c0.69,0,1.25,0.56,1.25,1.25C122.33,261.81,121.77,262.37,121.08,262.37z M127.45,262.37
						h-2.39c-0.69,0-1.25-0.56-1.25-1.25c0-0.69,0.56-1.25,1.25-1.25h2.39c0.69,0,1.25,0.56,1.25,1.25
						C128.7,261.81,128.14,262.37,127.45,262.37z M134.53,262.37h-3.1c-0.69,0-1.25-0.56-1.25-1.25c0-0.69,0.56-1.25,1.25-1.25h3.1
						c0.69,0,1.25,0.56,1.25,1.25C135.78,261.81,135.22,262.37,134.53,262.37z M134.53,253.6h-9.47c-0.69,0-1.25-0.56-1.25-1.25
						c0-0.69,0.56-1.25,1.25-1.25h9.47c0.69,0,1.25,0.56,1.25,1.25C135.78,253.04,135.22,253.6,134.53,253.6z"/>
				</g>
			</g>
		</g>
	</g>
	<g>
		<g>
			<path class="st0" d="M67,241.66h-4c-1.1,0-2,0.9-2,2c0,1.1-0.9,2-2,2s-2-0.9-2-2c0-1.1-0.9-2-2-2h-5c-1.1,0-2,0.9-2,2
				c0,1.1-0.9,2-2,2s-2-0.9-2-2c0-1.1-0.9-2-2-2h-4c-1.1,0-2,0.9-2,2v25c0,1.1,0.9,2,2,2h15.16c-0.53-1.34-0.84-2.79-0.84-4.32
				c0-6.45,5.23-11.68,11.68-11.68c1.79,0,3.48,0.42,5,1.14v-12.14C69,242.56,68.1,241.66,67,241.66z M42,265.84c-1.1,0-2-0.9-2-2
				c0-1.1,0.9-2,2-2s2,0.9,2,2C44,264.94,43.1,265.84,42,265.84z M42,259.84c-1.1,0-2-0.9-2-2c0-1.1,0.9-2,2-2s2,0.9,2,2
				C44,258.94,43.1,259.84,42,259.84z M48,265.84c-1.1,0-2-0.9-2-2c0-1.1,0.9-2,2-2s2,0.9,2,2C50,264.94,49.1,265.84,48,265.84z
				 M48,259.84c-1.1,0-2-0.9-2-2c0-1.1,0.9-2,2-2s2,0.9,2,2C50,258.94,49.1,259.84,48,259.84z M48,253.84c-1.1,0-2-0.9-2-2
				c0-1.1,0.9-2,2-2s2,0.9,2,2C50,252.94,49.1,253.84,48,253.84z M54,253.84c-1.1,0-2-0.9-2-2c0-1.1,0.9-2,2-2s2,0.9,2,2
				C56,252.94,55.1,253.84,54,253.84z"/>
			<path class="st0" d="M64,257.34c-4.97,0-9,4.03-9,9c0,4.97,4.03,9,9,9c4.97,0,9-4.03,9-9C73,261.37,68.97,257.34,64,257.34z
				 M65.25,266.84c0,0.69-0.56,1.25-1.25,1.25h-5c-0.69,0-1.25-0.56-1.25-1.25c0-0.69,0.56-1.25,1.25-1.25h3.75v-4.75
				c0-0.69,0.56-1.25,1.25-1.25s1.25,0.56,1.25,1.25V266.84z"/>
		</g>
	</g>
	<g>
		<g>
			<g>
				<g>
					<path class="st0" d="M404.17,188.17h6.33v-5.67c0-1.1-0.9-2-2-2H384c-0.83,0-1.5-0.67-1.5-1.5c0-0.83,0.67-1.5,1.5-1.5h23.5v-2
						c0-1.1-0.9-2-2-2h-24c-2.21,0-4,1.79-4,4v26c0,2.21,1.79,4,4,4h27c1.1,0,2-0.9,2-2v-4.99h-6.33c-3.4,0-6.17-2.77-6.17-6.17
						S400.77,188.17,404.17,188.17z"/>
					<path class="st0" d="M411,190.67h-6.83c-2.02,0-3.67,1.64-3.67,3.67c0,2.03,1.64,3.67,3.67,3.67H411c0.28,0,0.5-0.22,0.5-0.5
						v-6.33C411.5,190.9,411.28,190.67,411,190.67z M405,195.84c-0.83,0-1.5-0.67-1.5-1.5s0.67-1.5,1.5-1.5s1.5,0.67,1.5,1.5
						S405.83,195.84,405,195.84z"/>
				</g>
			</g>
		</g>
	</g>
	<g>
		<g>
			<path class="st0" d="M343.5,186.4h-34c-1.1,0-2,0.9-2,2v17c0,1.1,0.9,2,2,2h34c1.1,0,2-0.9,2-2v-17
				C345.5,187.3,344.6,186.4,343.5,186.4z M317.76,195.22c-0.58,0.38-1.35,0.22-1.73-0.36c-0.41-0.62-0.94-0.92-1.44-0.82
				c-0.25,0.05-0.44,0.2-0.47,0.37c-0.05,0.27,0.3,0.8,1.17,1.33c2.44,1.47,2.58,3.1,2.45,3.95c-0.19,1.21-1.16,2.19-2.48,2.5
				c-0.29,0.07-0.57,0.1-0.85,0.1c-1.24,0-2.41-0.63-3.21-1.74c-0.4-0.56-0.27-1.34,0.29-1.74c0.56-0.4,1.34-0.27,1.74,0.29
				c0.55,0.78,1.2,0.72,1.45,0.66c0.31-0.07,0.55-0.26,0.58-0.46c0.03-0.22-0.19-0.77-1.27-1.42c-2.46-1.48-2.46-3.21-2.34-3.89
				c0.2-1.19,1.15-2.13,2.42-2.4c1.19-0.25,2.87,0.12,4.04,1.9C318.5,194.06,318.34,194.84,317.76,195.22z M326.46,202.12
				c-0.15,0.06-0.3,0.08-0.44,0.08c-0.5,0-0.98-0.31-1.17-0.8l-0.37-0.97h-2.95l-0.37,0.97c-0.25,0.64-0.97,0.97-1.61,0.72
				c-0.65-0.25-0.97-0.97-0.72-1.61l3.01-7.9c0.18-0.48,0.65-0.8,1.17-0.8c0.52,0,0.98,0.32,1.17,0.8l3.01,7.9
				C327.43,201.15,327.11,201.87,326.46,202.12z M332.78,202.18h-3c-0.69,0-1.25-0.56-1.25-1.25v-8c0-0.69,0.56-1.25,1.25-1.25
				s1.25,0.56,1.25,1.25v6.75h1.75c0.69,0,1.25,0.56,1.25,1.25C334.03,201.62,333.47,202.18,332.78,202.18z M339.71,195.68
				c0.69,0,1.25,0.56,1.25,1.25c0,0.69-0.56,1.25-1.25,1.25h-1.69v1.5h2.75c0.69,0,1.25,0.56,1.25,1.25c0,0.69-0.56,1.25-1.25,1.25
				h-4c-0.69,0-1.25-0.56-1.25-1.25v-8c0-0.69,0.56-1.25,1.25-1.25h4c0.69,0,1.25,0.56,1.25,1.25c0,0.69-0.56,1.25-1.25,1.25h-2.75
				v1.5H339.71z M322.49,197.93h1.04l-0.52-1.37L322.49,197.93z"/>
			<path class="st0" d="M326.69,173.6c-1.79,0-3.25,1.46-3.25,3.25c0,1.79,1.46,3.25,3.25,3.25c1.79,0,3.25-1.46,3.25-3.25
				C329.94,175.05,328.48,173.6,326.69,173.6z M322.31,178.66c-0.3-0.74-1.26-0.95-1.88-0.46l-5.66,4.45
				c-0.54,0.43-0.64,1.21-0.21,1.76c0.25,0.31,0.61,0.48,0.98,0.48c0.27,0,0.54-0.09,0.77-0.27l5.66-4.44
				c0.45-0.35,0.58-0.96,0.36-1.49C322.32,178.68,322.31,178.67,322.31,178.66z M338.24,182.36l-5.29-4.15
				c-0.63-0.49-1.58-0.28-1.88,0.46c0,0.01-0.01,0.02-0.01,0.02c-0.22,0.53-0.1,1.14,0.36,1.49l5.28,4.15
				c0.23,0.18,0.5,0.27,0.77,0.27c0.37,0,0.74-0.16,0.98-0.48C338.88,183.57,338.78,182.78,338.24,182.36z"/>
		</g>
	</g>
	<g>
		<g>
			<path class="st0" d="M253.89,203.11c-1.59,0-2.88,1.29-2.88,2.88s1.29,2.88,2.88,2.88c1.59,0,2.87-1.29,2.87-2.88
				S255.48,203.11,253.89,203.11z M268.39,203.11c-1.59,0-2.88,1.29-2.88,2.88s1.29,2.88,2.88,2.88c1.59,0,2.88-1.29,2.88-2.88
				S269.98,203.11,268.39,203.11z"/>
			<path class="st0" d="M274.86,177.61h-25.3l-0.84-3.23c-0.24-1.29-1.38-2.24-2.7-2.24h-4.13c-0.97,0-1.75,0.78-1.75,1.75
				c0,0.97,0.78,1.75,1.75,1.75h3.55l4.73,18.22l-1.88,4.33c-0.23,0.54-0.18,1.16,0.14,1.66c0.32,0.49,0.87,0.79,1.46,0.79h22
				c0.97,0,1.75-0.78,1.75-1.75c0-0.97-0.78-1.75-1.75-1.75h-19.33l1.06-2.44c0.01-0.03,0.01-0.06,0.02-0.09h18.16
				c0.93,0,1.73-0.64,1.95-1.54l3.06-13C277.1,178.81,276.15,177.61,274.86,177.61z M257.87,188.68c0,0.69-0.56,1.25-1.25,1.25
				c-0.69,0-1.25-0.56-1.25-1.25v-5.14c0-0.69,0.56-1.25,1.25-1.25c0.69,0,1.25,0.56,1.25,1.25V188.68z M263.87,188.68
				c0,0.69-0.56,1.25-1.25,1.25c-0.69,0-1.25-0.56-1.25-1.25v-5.14c0-0.69,0.56-1.25,1.25-1.25c0.69,0,1.25,0.56,1.25,1.25V188.68z
				 M269.87,188.68c0,0.69-0.56,1.25-1.25,1.25c-0.69,0-1.25-0.56-1.25-1.25v-5.14c0-0.69,0.56-1.25,1.25-1.25
				c0.69,0,1.25,0.56,1.25,1.25V188.68z"/>
		</g>
	</g>
	<g>
		<g>
			<path class="st0" d="M173,184v9c0,0.55,0.45,1,1,1h11v-12h-10C173.9,182,173,182.9,173,184z M175,197.5v8c0,1.1,0.9,2,2,2h8v-11
				h-9C175.45,196.5,175,196.95,175,197.5z M205,196.5h-9v11h8c1.1,0,2-0.9,2-2v-8C206,196.95,205.55,196.5,205,196.5z M206,182h-10
				v12h11c0.55,0,1-0.45,1-1v-9C208,182.9,207.1,182,206,182z"/>
			<path class="st0" d="M187.5,207.5h6V182h-6V207.5z M189.25,177.57c0-2.25-1.82-4.07-4.07-4.07h-5.73c-0.45,0-0.67,0.54-0.35,0.85
				l1.79,1.79c0.2,0.2,0.2,0.51,0,0.71l-1.79,1.79c-0.32,0.32-0.09,0.85,0.35,0.85h9.79V177.57z M200.1,176.85
				c-0.2-0.2-0.2-0.51,0-0.71l1.79-1.79c0.31-0.32,0.09-0.85-0.35-0.85h-5.73c-2.25,0-4.07,1.82-4.07,4.07v1.93h9.79
				c0.45,0,0.67-0.54,0.35-0.85L200.1,176.85z"/>
		</g>
	</g>
	<g>
		<g>
			<path class="st0" d="M142.13,206.62l-1.8-5.4c-0.1-0.31-0.07-0.64,0.08-0.93c1.35-2.63,1.91-5.73,1.33-9
				c-0.9-5.01-4.57-9.18-9.33-10.78c1.23,2.97,1.6,6.27,0.99,9.54c-1.25,6.65-6.57,11.93-13.25,13.12
				c-0.86,0.16-1.74,0.23-2.61,0.25c2.03,2.19,4.74,3.74,7.76,4.29c3.25,0.58,6.34,0.04,8.96-1.29c0.29-0.15,0.62-0.18,0.92-0.08
				l5.42,1.81C141.55,208.47,142.45,207.57,142.13,206.62z"/>
			<path class="st0" d="M114.41,173.03c-5.63,1.05-10.14,5.62-11.15,11.26c-0.59,3.27-0.03,6.37,1.33,9
				c0.15,0.29,0.18,0.62,0.08,0.93l-1.8,5.4c-0.32,0.95,0.59,1.85,1.54,1.54l5.42-1.81c0.31-0.1,0.64-0.07,0.92,0.08
				c2.62,1.33,5.71,1.87,8.96,1.29c5.62-1.01,10.18-5.51,11.24-11.12C132.8,179.7,124.3,171.2,114.41,173.03z M118,191.25h-7
				c-0.69,0-1.25-0.56-1.25-1.25c0-0.69,0.56-1.25,1.25-1.25h7c0.69,0,1.25,0.56,1.25,1.25C119.25,190.69,118.69,191.25,118,191.25z
				 M123,186.25h-12c-0.69,0-1.25-0.56-1.25-1.25c0-0.69,0.56-1.25,1.25-1.25h12c0.69,0,1.25,0.56,1.25,1.25
				C124.25,185.69,123.69,186.25,123,186.25z"/>
		</g>
	</g>
	<g>
		<g>
			<path class="st0" d="M71.5,186.64h-34c-1.1,0-2,0.9-2,2v17c0,1.1,0.9,2,2,2h34c1.1,0,2-0.9,2-2v-17
				C73.5,187.53,72.6,186.64,71.5,186.64z M46.24,202.78h-5.25c-0.49,0-0.94-0.29-1.14-0.74c-0.2-0.45-0.12-0.97,0.2-1.34l3.33-3.77
				c0.45-0.49,1.12-1.24,1.12-1.7c0-0.47-0.1-0.84-0.29-1.04c-0.16-0.17-0.38-0.2-0.54-0.2c-0.45,0-1.07,0.31-1.07,0.89
				c0,0.69-0.56,1.25-1.25,1.25c-0.69,0-1.25-0.56-1.25-1.25c0-2.09,1.85-3.39,3.57-3.39c0.91,0,1.74,0.34,2.34,0.97
				c0.45,0.47,0.99,1.33,0.99,2.77c0,1.43-1.02,2.56-1.77,3.38l-1.47,1.66h2.48c0.69,0,1.25,0.56,1.25,1.25
				S46.94,202.78,46.24,202.78z M54.77,200.27v1.26c0,0.69-0.56,1.25-1.25,1.25c-0.69,0-1.25-0.56-1.25-1.25v-1.14h-3.64
				c-0.48,0-0.92-0.27-1.12-0.7c-0.21-0.43-0.15-0.94,0.14-1.32l4.89-6.2c0.02-0.02,0.04-0.03,0.06-0.05
				c0.06-0.06,0.13-0.11,0.2-0.17c0.06-0.05,0.12-0.09,0.19-0.13c0.07-0.03,0.14-0.05,0.21-0.07c0.09-0.02,0.17-0.05,0.26-0.05
				c0.02,0,0.05-0.01,0.07-0.01c0.05,0,0.1,0.02,0.15,0.03c0.09,0.01,0.17,0.02,0.25,0.05c0.08,0.03,0.15,0.07,0.23,0.11
				c0.05,0.03,0.1,0.04,0.14,0.07c0.02,0.02,0.03,0.04,0.05,0.06c0.07,0.06,0.11,0.13,0.17,0.2c0.05,0.06,0.09,0.12,0.13,0.19
				c0.03,0.07,0.05,0.14,0.07,0.22c0.02,0.08,0.05,0.17,0.05,0.25c0,0.02,0.01,0.05,0.01,0.07v5.08c0.42,0.2,0.72,0.62,0.72,1.12
				C55.49,199.65,55.19,200.07,54.77,200.27z M60.49,197.59c-0.24,0.23-0.56,0.36-0.89,0.36c-0.33,0-0.65-0.13-0.88-0.36
				c-0.23-0.24-0.37-0.56-0.37-0.89c0-0.08,0.01-0.16,0.03-0.24c0.01-0.08,0.04-0.16,0.07-0.24c0.03-0.07,0.07-0.15,0.11-0.21
				c0.05-0.07,0.1-0.14,0.16-0.19c0.46-0.47,1.3-0.47,1.77,0c0.05,0.05,0.11,0.12,0.15,0.19c0.05,0.06,0.09,0.14,0.12,0.21
				c0.03,0.08,0.05,0.16,0.07,0.24c0.01,0.08,0.02,0.16,0.02,0.24C60.85,197.03,60.72,197.35,60.49,197.59z M69.17,193.36
				l-3.53,8.59c-0.2,0.48-0.67,0.78-1.16,0.78c-0.16,0-0.32-0.03-0.47-0.09c-0.64-0.26-0.94-0.99-0.68-1.63l2.82-6.86H63.6
				c-0.69,0-1.25-0.56-1.25-1.25s0.56-1.25,1.25-1.25h4.41c0.42,0,0.81,0.21,1.04,0.55C69.28,192.53,69.32,192.97,69.17,193.36z
				 M52.27,197.9v-1.35l-1.06,1.35H52.27z"/>
			<path class="st0" d="M50.12,178.43c-0.3-0.74-1.26-0.95-1.88-0.46l-5.66,4.45c-0.54,0.43-0.64,1.21-0.21,1.76
				c0.25,0.31,0.61,0.48,0.98,0.48c0.27,0,0.54-0.09,0.77-0.27l5.66-4.44c0.45-0.35,0.58-0.96,0.36-1.49
				C50.13,178.45,50.12,178.44,50.12,178.43z M54.5,173.36c-1.79,0-3.25,1.46-3.25,3.25c0,1.79,1.46,3.25,3.25,3.25
				s3.25-1.46,3.25-3.25C57.75,174.82,56.29,173.36,54.5,173.36z M66.05,182.12l-5.29-4.15c-0.63-0.49-1.58-0.28-1.88,0.46
				c0,0.01-0.01,0.02-0.01,0.02c-0.22,0.53-0.1,1.14,0.36,1.49l5.28,4.15c0.23,0.18,0.5,0.27,0.77,0.27c0.37,0,0.74-0.16,0.98-0.48
				C66.69,183.34,66.59,182.55,66.05,182.12z"/>
		</g>
	</g>
	<g>
		<g>
			<g>
				<g>
					<path class="st0" d="M410,135h-2v-15.76c-0.09,0-0.19,0.01-0.28,0.01h-0.23c-1.71,0-3.24-0.79-4.25-2.01
						c-1.01,1.23-2.54,2.01-4.25,2.01h-0.23c-1.71,0-3.24-0.79-4.25-2.01c-1.01,1.23-2.54,2.01-4.25,2.01h-0.23
						c-1.71,0-3.24-0.79-4.25-2.01c-1.01,1.23-2.54,2.01-4.25,2.01h-0.23c-0.1,0-0.19-0.01-0.28-0.01V135h-2c-0.55,0-1,0.45-1,1v3.5
						c0,0.28,0.22,0.5,0.5,0.5h32c0.28,0,0.5-0.22,0.5-0.5V136C411,135.45,410.55,135,410,135z M394,133.5c0,0.28-0.22,0.5-0.5,0.5
						h-9c-0.28,0-0.5-0.22-0.5-0.5v-10c0-0.28,0.22-0.5,0.5-0.5h9c0.28,0,0.5,0.22,0.5,0.5V133.5z M405,136.5
						c0,0.28-0.22,0.5-0.5,0.5h-6c-0.28,0-0.5-0.22-0.5-0.5v-13c0-0.28,0.22-0.5,0.5-0.5h6c0.28,0,0.5,0.22,0.5,0.5V136.5z"/>
					<path class="st0" d="M402,129.25h-1c-0.69,0-1.25,0.56-1.25,1.25c0,0.69,0.56,1.25,1.25,1.25h1c0.69,0,1.25-0.56,1.25-1.25
						C403.25,129.81,402.69,129.25,402,129.25z M410.71,112.25v-2.07c0-0.35-0.09-0.69-0.26-0.99l-1.81-3.18
						c-0.36-0.62-1.02-1.01-1.74-1.01h-24.81c-0.72,0-1.38,0.39-1.74,1.01l-1.81,3.18c-0.17,0.3-0.26,0.64-0.26,0.99v2.89h0v0.68
						c0,1.65,1.35,3,3,3h0.23c1.65,0,3-1.35,3-3V112c0-0.69,0.56-1.25,1.25-1.25s1.25,0.56,1.25,1.25v1.75c0,1.65,1.35,3,3,3h0.23
						c1.65,0,3-1.35,3-3v-1.5h-0.02V112c0-0.69,0.56-1.25,1.25-1.25s1.25,0.56,1.25,1.25v1.07h0.02v0.68c0,1.65,1.35,3,3,3h0.23
						c1.65,0,3-1.35,3-3V112c0-0.69,0.56-1.25,1.25-1.25s1.25,0.56,1.25,1.25v1.75c0,1.65,1.35,3,3,3h0.23c1.65,0,3-1.35,3-3
						L410.71,112.25L410.71,112.25z"/>
				</g>
			</g>
		</g>
	</g>
	<g>
		<g>
			<path class="st0" d="M332.63,123.7c-4.97,0-9,4.03-9,9c0,4.97,4.03,9,9,9s9-4.03,9-9C341.63,127.73,337.6,123.7,332.63,123.7z
				 M332.18,131.11l2.03,1.05c1.21,0.63,1.86,1.91,1.64,3.27c-0.17,1.06-0.83,1.89-1.76,2.3v0.27c0,0.69-0.56,1.25-1.25,1.25
				c-0.69,0-1.25-0.56-1.25-1.25v-0.19c-0.98-0.32-1.8-1.05-2.23-2.03c-0.28-0.63,0.02-1.37,0.65-1.64
				c0.63-0.27,1.37,0.02,1.64,0.65c0.21,0.48,0.69,0.76,1.21,0.72c0.39-0.06,0.49-0.28,0.52-0.46c0.02-0.11,0.04-0.46-0.32-0.65
				l-2.03-1.05c-1.23-0.63-1.88-1.97-1.62-3.33c0.22-1.19,1.06-2.09,2.18-2.39v-0.19c0-0.69,0.56-1.25,1.25-1.25
				c0.69,0,1.25,0.56,1.25,1.25v0.46c0.78,0.38,1.42,1.01,1.78,1.84c0.28,0.63-0.01,1.37-0.65,1.65c-0.64,0.28-1.37-0.01-1.65-0.65
				c-0.21-0.48-0.69-0.76-1.21-0.72c-0.38,0.04-0.48,0.31-0.51,0.46C331.85,130.59,331.83,130.93,332.18,131.11z"/>
			<path class="st0" d="M334.9,103.96l-2.22,1.21c-0.3,0.16-0.66,0.16-0.96,0l-3.21-1.75c-0.3-0.16-0.66-0.16-0.96,0l-3.21,1.75
				c-0.3,0.16-0.66,0.16-0.96,0l-3.21-1.75c-0.3-0.16-0.66-0.16-0.96,0l-3.21,1.75c-0.3,0.16-0.66,0.16-0.96,0l-2.2-1.2
				c-0.67-0.36-1.48,0.12-1.48,0.88v32.05c0,0.76,0.81,1.24,1.48,0.88l2.22-1.21c0.3-0.16,0.66-0.16,0.96,0l3.22,1.75
				c0.3,0.16,0.66,0.16,0.96,0l1.88-1.03c-0.61-1.41-0.96-2.95-0.96-4.58c0-6.34,5.16-11.5,11.5-11.5c1.31,0,2.57,0.23,3.75,0.64
				v-17C336.38,104.08,335.56,103.6,334.9,103.96z M317.87,128.25h-1.5c-0.69,0-1.25-0.56-1.25-1.25c0-0.69,0.56-1.25,1.25-1.25h1.5
				c0.69,0,1.25,0.56,1.25,1.25C319.12,127.69,318.57,128.25,317.87,128.25z M320.8,123.25h-4.43c-0.69,0-1.25-0.56-1.25-1.25
				c0-0.69,0.56-1.25,1.25-1.25h4.43c0.69,0,1.25,0.56,1.25,1.25C322.05,122.69,321.49,123.25,320.8,123.25z M331.13,118.25h-14.76
				c-0.69,0-1.25-0.56-1.25-1.25c0-0.69,0.56-1.25,1.25-1.25h14.76c0.69,0,1.25,0.56,1.25,1.25
				C332.38,117.69,331.82,118.25,331.13,118.25z M331.13,113.25h-14.76c-0.69,0-1.25-0.56-1.25-1.25c0-0.69,0.56-1.25,1.25-1.25
				h14.76c0.69,0,1.25,0.56,1.25,1.25C332.38,112.69,331.82,113.25,331.13,113.25z"/>
		</g>
	</g>
	<g>
		<g>
			<path class="st0" d="M257,126.81h-3.22l1.79-1.79c0.89-0.86,2.1-2.04,2.1-3.56c0-1.53-0.64-2.43-1.17-2.92
				c-0.66-0.61-1.57-0.94-2.55-0.94c-1.93,0-4,1.34-4,3.49c0,0.69,0.56,1.25,1.25,1.25c0.69,0,1.25-0.56,1.25-1.25
				c0-0.57,0.79-0.99,1.5-0.99c0.36,0,0.66,0.1,0.86,0.28c0.24,0.22,0.36,0.58,0.36,1.08c0,0.47-0.84,1.28-1.34,1.77l-3.95,3.95
				c-0.36,0.36-0.46,0.89-0.27,1.36c0.19,0.47,0.65,0.77,1.15,0.77H257c0.69,0,1.25-0.56,1.25-1.25
				C258.25,127.37,257.69,126.81,257,126.81z M266.5,124.31h-0.25v-5.25c0-0.02-0.01-0.03-0.01-0.05c0-0.09-0.03-0.17-0.05-0.26
				c-0.02-0.07-0.03-0.15-0.06-0.21c-0.03-0.07-0.08-0.12-0.12-0.18c-0.05-0.07-0.1-0.15-0.16-0.21c-0.01-0.01-0.02-0.03-0.03-0.04
				c-0.05-0.04-0.1-0.05-0.15-0.08c-0.07-0.05-0.15-0.1-0.23-0.13c-0.08-0.03-0.17-0.04-0.26-0.05c-0.06-0.01-0.11-0.03-0.17-0.03
				c-0.02,0-0.03,0.01-0.05,0.01c-0.09,0-0.17,0.03-0.26,0.05c-0.07,0.02-0.14,0.03-0.21,0.06c-0.07,0.03-0.12,0.08-0.19,0.12
				c-0.07,0.05-0.15,0.1-0.21,0.16c-0.01,0.01-0.03,0.02-0.04,0.03l-5.5,6.5c-0.31,0.37-0.38,0.89-0.18,1.33
				c0.2,0.44,0.65,0.72,1.13,0.72h4.25v1.25c0,0.69,0.56,1.25,1.25,1.25c0.69,0,1.25-0.56,1.25-1.25v-1.25h0.25
				c0.69,0,1.25-0.56,1.25-1.25C267.75,124.87,267.19,124.31,266.5,124.31z M263.75,124.31h-1.55l1.55-1.84V124.31z"/>
			<path class="st0" d="M261,106.77v-1.99c0-1.12-1.29-1.75-2.18-1.06l-5.06,3.97c-0.69,0.54-0.69,1.58,0,2.12l5.06,3.97
				c0.88,0.69,2.18,0.06,2.18-1.06v-1.9c6.75,1.27,11.74,7.55,10.91,14.83c-0.71,6.15-5.7,11.13-11.85,11.82
				c-8.14,0.91-15.06-5.46-15.06-13.41c0-4.65,2.37-8.75,5.97-11.18c0.26-0.18,0.31-0.54,0.08-0.77l-2.16-2.16
				c-0.17-0.17-0.45-0.2-0.65-0.06c-5.03,3.65-8.05,9.9-7.05,16.76c1.13,7.76,7.51,13.91,15.3,14.78
				c10.55,1.18,19.51-7.07,19.51-17.39C276,115.27,269.47,107.99,261,106.77z"/>
		</g>
	</g>
	<g>
		<g>
			<g>
				<g>
					<path class="st0" d="M204.79,107.25h-28.57c-0.83,0-1.5,0.67-1.5,1.5c0,0.83,0.67,1.5,1.5,1.5h28.57c0.83,0,1.5-0.67,1.5-1.5
						C206.29,107.92,205.61,107.25,204.79,107.25z"/>
					<path class="st0" d="M206,112.75h-31c-1.1,0-2,0.9-2,2v21c0,1.1,0.9,2,2,2h31c1.1,0,2-0.9,2-2v-21
						C208,113.65,207.1,112.75,206,112.75z M181,116.75c1.66,0,3,1.34,3,3c0,1.66-1.34,3-3,3s-3-1.34-3-3
						C178,118.09,179.34,116.75,181,116.75z M183.5,133.5h-4c-0.69,0-1.25-0.56-1.25-1.25c0-0.69,0.56-1.25,1.25-1.25h4
						c0.69,0,1.25,0.56,1.25,1.25C184.75,132.94,184.19,133.5,183.5,133.5z M192.5,133.5h-4c-0.69,0-1.25-0.56-1.25-1.25
						c0-0.69,0.56-1.25,1.25-1.25h4c0.69,0,1.25,0.56,1.25,1.25C193.75,132.94,193.19,133.5,192.5,133.5z M201.5,133.5h-4
						c-0.69,0-1.25-0.56-1.25-1.25c0-0.69,0.56-1.25,1.25-1.25h4c0.69,0,1.25,0.56,1.25,1.25
						C202.75,132.94,202.19,133.5,201.5,133.5z M201.5,121.5h-13c-0.69,0-1.25-0.56-1.25-1.25c0-0.69,0.56-1.25,1.25-1.25h13
						c0.69,0,1.25,0.56,1.25,1.25C202.75,120.94,202.19,121.5,201.5,121.5z"/>
				</g>
			</g>
		</g>
	</g>
	<g>
		<g>
			<path class="st0" d="M136.11,137.97c-0.02-0.26-0.24-0.47-0.5-0.47h-26.22c-0.26,0-0.48,0.2-0.5,0.47l-0.32,4.97
				c-0.04,0.58,0.42,1.06,1,1.06h25.87c0.58,0,1.04-0.49,1-1.06L136.11,137.97z"/>
			<g>
				<path class="st0" d="M134.56,111.94c-0.03-0.53-0.47-0.94-1-0.94h-3.46c-0.16-6-3.17-10-7.59-10c-4.43,0-7.43,4-7.59,10h-3.46
					c-0.53,0-0.97,0.41-1,0.94l-1.27,21.5c-0.03,0.57,0.42,1.06,1,1.06h24.65c0.58,0,1.03-0.48,1-1.06L134.56,111.94z M115.75,119
					c-1.1,0-2-0.9-2-2s0.9-2,2-2s2,0.9,2,2S116.85,119,115.75,119z M117.9,111c0.11-3.34,1.36-7,4.6-7c3.24,0,4.48,3.66,4.6,7H117.9
					z M129.25,119.5c-1.1,0-2-0.9-2-2s0.9-2,2-2s2,0.9,2,2S130.35,119.5,129.25,119.5z"/>
			</g>
		</g>
	</g>
	<g>
		<g>
			<path class="st0" d="M43.44,109.5h19v-2c0-2.21-1.79-4-4-4h-16c-2.21,0-4,1.79-4,4v30c0,2.21,1.79,4,4,4h16c2.21,0,4-1.79,4-4v-5
				h-19c-0.55,0-1-0.45-1-1v-21C42.44,109.95,42.89,109.5,43.44,109.5z M51.44,139h-2c-1.1,0-2-0.9-2-2l0,0c0-1.1,0.9-2,2-2h2
				c1.1,0,2,0.9,2,2l0,0C53.44,138.1,52.55,139,51.44,139z"/>
			<path class="st0" d="M66.7,132.32c-0.96,0-1.74,0.78-1.74,1.74c0,0.96,0.78,1.74,1.74,1.74c0.96,0,1.74-0.78,1.74-1.74
				C68.44,133.1,67.66,132.32,66.7,132.32z M55.57,124.81h11.71c0.6,0,1.12-0.41,1.26-1l1.98-8.41c0.19-0.81-0.43-1.59-1.26-1.59
				h-16.5l-0.3-1.14c-0.17-0.88-0.96-1.54-1.86-1.54h-2.67c-0.69,0-1.25,0.56-1.25,1.25c0,0.69,0.56,1.25,1.25,1.25h2.2l2.9,11.14
				l-1.11,3.4c-0.12,0.38-0.06,0.8,0.18,1.12c0.24,0.32,0.61,0.52,1.01,0.52h14.24c0.69,0,1.25-0.56,1.25-1.25
				c0-0.69-0.56-1.25-1.25-1.25H54.82l0.69-2.1C55.55,125.07,55.57,124.94,55.57,124.81z M62.5,118.05c0-0.69,0.56-1.25,1.25-1.25
				c0.69,0,1.25,0.56,1.25,1.25v3c0,0.69-0.56,1.25-1.25,1.25c-0.69,0-1.25-0.56-1.25-1.25V118.05z M57.5,118.05
				c0-0.69,0.56-1.25,1.25-1.25c0.69,0,1.25,0.56,1.25,1.25v3c0,0.69-0.56,1.25-1.25,1.25c-0.69,0-1.25-0.56-1.25-1.25V118.05z"/>
		</g>
	</g>
</g>
<g id="title">
</g>
</svg>
