<?xml version="1.0" encoding="utf-8"?>
<!-- Generator: Adobe Illustrator 24.1.1, SVG Export Plug-In . SVG Version: 6.00 Build 0)  -->
<svg version="1.1" xmlns="http://www.w3.org/2000/svg" xmlns:xlink="http://www.w3.org/1999/xlink" x="0px" y="0px"
	 viewBox="0 0 448 448" style="enable-background:new 0 0 448 448;" xml:space="preserve">
<style type="text/css">
	.st0{display:none;}
	.st1{display:inline;fill:#FFFFFF;}
	.st2{fill:#173042;}
	.st3{display:inline;}
	.st4{fill:#869093;}
</style>
<g id="grid" class="st0">
	<rect x="30" y="98" class="st1" width="48" height="48"/>
	<rect x="98" y="98" class="st1" width="48" height="48"/>
	<rect x="166" y="98" class="st1" width="48" height="48"/>
	<rect x="234" y="98" class="st1" width="48" height="48"/>
	<rect x="302" y="98" class="st1" width="48" height="48"/>
	<rect x="370" y="98" class="st1" width="48" height="48"/>
	<rect x="30" y="166" class="st1" width="48" height="48"/>
	<rect x="98" y="166" class="st1" width="48" height="48"/>
	<rect x="166" y="166" class="st1" width="48" height="48"/>
	<rect x="234" y="166" class="st1" width="48" height="48"/>
	<rect x="302" y="166" class="st1" width="48" height="48"/>
	<rect x="370" y="166" class="st1" width="48" height="48"/>
	<rect x="30" y="234" class="st1" width="48" height="48"/>
	<rect x="98" y="234" class="st1" width="48" height="48"/>
	<rect x="370" y="234" class="st1" width="48" height="48"/>
	<rect x="30" y="302" class="st1" width="48" height="48"/>
	<rect x="98" y="302" class="st1" width="48" height="48"/>
	<rect x="166" y="234" class="st1" width="48" height="48"/>
	<rect x="234" y="234" class="st1" width="48" height="48"/>
	<rect x="302" y="234" class="st1" width="48" height="48"/>
	<rect x="166" y="302" class="st1" width="48" height="48"/>
	<rect x="234" y="302" class="st1" width="48" height="48"/>
	<rect x="302" y="302" class="st1" width="48" height="48"/>
	<rect x="370" y="302" class="st1" width="48" height="48"/>
	<rect x="30" y="370" class="st1" width="48" height="48"/>
	<rect x="98" y="370" class="st1" width="48" height="48"/>
	<rect x="166" y="370" class="st1" width="48" height="48"/>
	<rect x="234" y="370" class="st1" width="48" height="48"/>
	<rect x="302" y="370" class="st1" width="48" height="48"/>
	<rect x="370" y="370" class="st1" width="48" height="48"/>
</g>
<g id="icons">
	<g>
		<g>
			<path class="st2" d="M406.03,377.54h-4c-0.55,0-1,0.45-1,1v14.94h6v-14.94C407.03,377.99,406.58,377.54,406.03,377.54z"/>
			<path class="st2" d="M404.72,396.83c-1.89,1.89-4.4,2.93-7.07,2.93c-2.67,0-5.18-1.04-7.07-2.93c-3.9-3.9-3.9-10.24,0-14.14
				c1.89-1.89,4.4-2.93,7.07-2.93c0.29,0,0.59,0.02,0.88,0.04v-4c-0.29-0.02-0.58-0.04-0.88-0.04c-3.58,0-7.17,1.37-9.9,4.1
				c-4.8,4.8-5.38,12.22-1.75,17.66l-2.75,2.75l-0.65-0.65c-0.2-0.2-0.51-0.2-0.71,0l-8.13,8.13c-0.39,0.39-0.39,1.02,0,1.41
				l3.77,3.77c0.39,0.39,1.02,0.39,1.41,0l8.13-8.13c0.2-0.2,0.2-0.51,0-0.71l-0.65-0.65l2.65-2.65c2.52,1.96,5.54,2.95,8.57,2.95
				c3.58,0,7.17-1.37,9.9-4.1c1.1-1.1,1.97-2.35,2.63-3.68h-4.71C405.24,396.28,404.99,396.56,404.72,396.83z M393.53,385.54
				c-0.55,0-1,0.45-1,1v6.94h6v-6.94c0-0.55-0.45-1-1-1H393.53z M414.53,382.54h-4c-0.55,0-1,0.45-1,1v9.94h6v-9.94
				C415.53,382.99,415.08,382.54,414.53,382.54z"/>
		</g>
	</g>
	<g>
		<g>
			<path class="st2" d="M332.5,376.82h-12c-1.87,0-3.38,1.51-3.38,3.38v2.48h3.38v-2.48h12v2.48h3.38v-2.48
				C335.88,378.33,334.37,376.82,332.5,376.82z"/>
			<path class="st2" d="M328,403.68v0.71c0,0.83-0.67,1.5-1.5,1.5c-0.83,0-1.5-0.67-1.5-1.5v-0.71h-13.5c-0.7,0-1.37-0.11-2-0.32
				v6.82c0,1.1,0.9,2,2,2h30c1.1,0,2-0.9,2-2v-6.82c-0.63,0.2-1.3,0.32-2,0.32H328z M343.5,385.18h-34c-1.1,0-2,0.9-2,2v10
				c0,2.21,1.79,4,4,4H325v-1.17c0-0.83,0.67-1.5,1.5-1.5c0.83,0,1.5,0.67,1.5,1.5v1.17h13.5c2.21,0,4-1.79,4-4v-10
				C345.5,386.08,344.6,385.18,343.5,385.18z"/>
		</g>
	</g>
	<g>
		<g>
			<path class="st2" d="M241.25,388.5c-1.1,0-2,0.9-2,2v17c0,1.1,0.9,2,2,2c1.1,0,2-0.9,2-2v-17
				C243.25,389.4,242.35,388.5,241.25,388.5z"/>
			<path class="st2" d="M275.75,379.5h-28c-1.1,0-2,0.93-2,2.07v27.93h28c2.21,0,4-1.85,4-4.14v-23.79
				C277.75,380.43,276.85,379.5,275.75,379.5z M263.75,385.5c0-0.55,0.45-1,1-1h6c0.55,0,1,0.45,1,1v6c0,0.55-0.45,1-1,1h-6
				c-0.55,0-1-0.45-1-1V385.5z M252.25,385.75h6c0.69,0,1.25,0.56,1.25,1.25c0,0.69-0.56,1.25-1.25,1.25h-6
				c-0.69,0-1.25-0.56-1.25-1.25C251,386.31,251.56,385.75,252.25,385.75z M252.25,390.75h6c0.69,0,1.25,0.56,1.25,1.25
				c0,0.69-0.56,1.25-1.25,1.25h-6c-0.69,0-1.25-0.56-1.25-1.25C251,391.31,251.56,390.75,252.25,390.75z M271.25,403.25h-19
				c-0.69,0-1.25-0.56-1.25-1.25c0-0.69,0.56-1.25,1.25-1.25h19c0.69,0,1.25,0.56,1.25,1.25
				C272.5,402.69,271.94,403.25,271.25,403.25z M271.25,398.25h-19c-0.69,0-1.25-0.56-1.25-1.25c0-0.69,0.56-1.25,1.25-1.25h19
				c0.69,0,1.25,0.56,1.25,1.25C272.5,397.69,271.94,398.25,271.25,398.25z"/>
		</g>
	</g>
	<g>
		<g>
			<path class="st2" d="M205.43,377.94l-31.45,13.71c-1.54,0.67-1.62,2.84-0.12,3.61l6.38,3.29l19-13.22
				c0.2-0.14,0.41,0.03,0.42,0.21l-15.92,15.19c-0.4,0.38-0.62,0.9-0.62,1.45v7.04c0,2.02,2.65,2.77,3.71,1.04l3.86-6.32l8.17,4.22
				c1.15,0.59,2.56-0.05,2.86-1.31l6.45-26.61C208.56,378.64,206.94,377.28,205.43,377.94z"/>
		</g>
	</g>
	<g>
		<g>
			<g>
				<path class="st2" d="M135,381.24h-3.09c-0.28,0-0.5,0.22-0.5,0.5v3c0,0.28-0.22,0.5-0.5,0.5h-16.92c-0.28,0-0.5-0.22-0.5-0.5v-3
					c0-0.28-0.22-0.5-0.5-0.5H110c-1.1,0-2,0.9-2,2v30c0,1.1,0.9,2,2,2h25c1.1,0,2-0.9,2-2v-30C137,382.14,136.1,381.24,135,381.24z
					 M120.25,391.13h10.11c0.69,0,1.25,0.56,1.25,1.25s-0.56,1.25-1.25,1.25h-10.11c-0.69,0-1.25-0.56-1.25-1.25
					S119.56,391.13,120.25,391.13z M120.25,396.13h10.11c0.69,0,1.25,0.56,1.25,1.25s-0.56,1.25-1.25,1.25h-10.11
					c-0.69,0-1.25-0.56-1.25-1.25S119.56,396.13,120.25,396.13z M114.75,403.63h-0.39c-0.69,0-1.25-0.56-1.25-1.25
					s0.56-1.25,1.25-1.25h0.39c0.69,0,1.25,0.56,1.25,1.25S115.44,403.63,114.75,403.63z M114.75,398.63h-0.39
					c-0.69,0-1.25-0.56-1.25-1.25s0.56-1.25,1.25-1.25h0.39c0.69,0,1.25,0.56,1.25,1.25S115.44,398.63,114.75,398.63z
					 M114.75,393.63h-0.39c-0.69,0-1.25-0.56-1.25-1.25s0.56-1.25,1.25-1.25h0.39c0.69,0,1.25,0.56,1.25,1.25
					S115.44,393.63,114.75,393.63z M130.5,403.63h-10.25c-0.69,0-1.25-0.56-1.25-1.25s0.56-1.25,1.25-1.25h10.25
					c0.69,0,1.25,0.56,1.25,1.25S131.19,403.63,130.5,403.63z"/>
				<path class="st2" d="M126.27,377.96c-0.74-0.25-1.28-0.94-1.27-1.72c0.02-1.37-1.08-2.48-2.45-2.48h-0.1
					c-1.32,0-2.5,1.05-2.45,2.38c0.03,0.83-0.49,1.57-1.26,1.83c-1.59,0.54-2.74,1.03-2.74,2.8v1.5c0,0.28,0.22,0.5,0.5,0.5h12.01
					c0.28,0,0.5-0.22,0.5-0.5v-1.5C129,378.99,127.85,378.5,126.27,377.96z"/>
			</g>
		</g>
	</g>
	<g>
		<g>
			<g>
				<path class="st2" d="M52.18,376.25H41c-0.55,0-1,0.45-1,1v34.5c0,0.55,0.45,1,1,1h11.18c0.55,0,1-0.45,1-1v-34.5
					C53.18,376.7,52.73,376.25,52.18,376.25z M46.59,407.25c-1.66,0-3-1.34-3-3c0-1.66,1.34-3,3-3s3,1.34,3,3
					C49.59,405.91,48.25,407.25,46.59,407.25z M48.79,388.5h-4.4c-0.69,0-1.25-0.56-1.25-1.25c0-0.69,0.56-1.25,1.25-1.25h4.4
					c0.69,0,1.25,0.56,1.25,1.25C50.04,387.94,49.48,388.5,48.79,388.5z M48.79,383.5h-4.4c-0.69,0-1.25-0.56-1.25-1.25
					c0-0.69,0.56-1.25,1.25-1.25h4.4c0.69,0,1.25,0.56,1.25,1.25C50.04,382.94,49.48,383.5,48.79,383.5z"/>
				<path class="st2" d="M68,376.25H56.57c-0.55,0-1,0.45-1,1v34.5c0,0.55,0.45,1,1,1H68c0.55,0,1-0.45,1-1v-34.5
					C69,376.7,68.55,376.25,68,376.25z M62.29,407.25c-1.66,0-3-1.34-3-3c0-1.66,1.34-3,3-3c1.66,0,3,1.34,3,3
					C65.29,405.91,63.94,407.25,62.29,407.25z M64.49,388.5h-4.4c-0.69,0-1.25-0.56-1.25-1.25c0-0.69,0.56-1.25,1.25-1.25h4.4
					c0.69,0,1.25,0.56,1.25,1.25C65.74,387.94,65.18,388.5,64.49,388.5z M64.49,383.5h-4.4c-0.69,0-1.25-0.56-1.25-1.25
					c0-0.69,0.56-1.25,1.25-1.25h4.4c0.69,0,1.25,0.56,1.25,1.25C65.74,382.94,65.18,383.5,64.49,383.5z"/>
			</g>
		</g>
	</g>
	<g>
		<g>
			<g>
				<path class="st2" d="M389.5,308h-8c-1.1,0-2,0.9-2,2v0.5c0,0.28,0.22,0.5,0.5,0.5h11c0.28,0,0.5-0.22,0.5-0.5V310
					C391.5,308.9,390.6,308,389.5,308z M407.5,308h-8c-1.1,0-2,0.9-2,2v0.5c0,0.28,0.22,0.5,0.5,0.5h11c0.28,0,0.5-0.22,0.5-0.5V310
					C409.5,308.9,408.6,308,407.5,308z"/>
				<path class="st2" d="M391,342h-8c-0.28,0-0.5,0.22-0.5,0.5v0.5c0,1.1,0.9,2,2,2h5c1.1,0,2-0.9,2-2v-0.5
					C391.5,342.22,391.28,342,391,342z M409,313.5h-11c-0.28,0-0.5,0.22-0.5,0.5v6.5c0,0.55-0.45,1-1,1h-4c-0.55,0-1-0.45-1-1V314
					c0-0.28-0.22-0.5-0.5-0.5h-11c-0.28,0-0.5,0.22-0.5,0.5v18.63c0,0.47,0.34,0.85,0.8,0.98c1.27,0.35,2.2,1.51,2.2,2.89v2.5
					c0,0.28,0.22,0.5,0.5,0.5h8c0.28,0,0.5-0.22,0.5-0.5v-1.5c0-0.55,0.45-1,1-1h4c0.55,0,1,0.45,1,1v1.5c0,0.28,0.22,0.5,0.5,0.5h8
					c0.28,0,0.5-0.22,0.5-0.5v-2.5c0-1.38,0.93-2.54,2.2-2.89c0.46-0.13,0.8-0.5,0.8-0.98V314C409.5,313.72,409.28,313.5,409,313.5z
					 M396.38,329.62c0,1.04-0.84,1.88-1.88,1.88c-1.04,0-1.88-0.84-1.88-1.88v-1.24c0-1.04,0.84-1.88,1.88-1.88
					c1.04,0,1.88,0.84,1.88,1.88V329.62z M406,342h-8c-0.28,0-0.5,0.22-0.5,0.5v0.5c0,1.1,0.9,2,2,2h5c1.1,0,2-0.9,2-2v-0.5
					C406.5,342.22,406.28,342,406,342z"/>
			</g>
		</g>
	</g>
	<g>
		<g>
			<g>
				<g>
					<path class="st2" d="M346.13,342.62l-1.8-5.4c-0.1-0.31-0.07-0.64,0.08-0.93c1.35-2.63,1.91-5.73,1.33-9
						c-0.9-5.01-4.57-9.18-9.33-10.78c1.23,2.97,1.6,6.27,0.99,9.54c-1.25,6.65-6.57,11.93-13.25,13.12
						c-0.86,0.16-1.74,0.23-2.61,0.25c2.03,2.19,4.74,3.74,7.76,4.29c3.25,0.58,6.34,0.04,8.96-1.29c0.29-0.15,0.62-0.18,0.92-0.08
						l5.42,1.81C345.55,344.47,346.45,343.57,346.13,342.62z"/>
					<path class="st2" d="M318.41,309.03c-5.63,1.05-10.14,5.62-11.15,11.26c-0.59,3.27-0.03,6.37,1.33,9
						c0.15,0.29,0.18,0.62,0.08,0.93l-1.8,5.4c-0.32,0.95,0.59,1.85,1.54,1.54l5.42-1.81c0.31-0.1,0.63-0.07,0.92,0.08
						c2.62,1.33,5.71,1.87,8.96,1.29c5.62-1.01,10.18-5.51,11.24-11.12C336.8,315.7,328.3,307.2,318.41,309.03z M319.91,321.01
						l3.23,1.66c1.64,0.84,2.51,2.58,2.21,4.41c-0.25,1.58-1.33,2.81-2.8,3.26v0.93c0,0.69-0.56,1.25-1.25,1.25
						s-1.25-0.56-1.25-1.25v-0.86c-1.57-0.35-2.93-1.42-3.6-2.96c-0.28-0.63,0.01-1.37,0.65-1.64c0.63-0.27,1.37,0.02,1.64,0.65
						c0.46,1.05,1.52,1.69,2.66,1.58c0.06,0,0.12-0.01,0.17-0.02c1.04-0.17,1.26-1.06,1.31-1.33c0.1-0.6-0.09-1.38-0.89-1.79
						l-3.23-1.66c-1.68-0.87-2.54-2.63-2.19-4.5c0.34-1.79,1.69-3.08,3.48-3.33v-0.9c0-0.69,0.56-1.25,1.25-1.25
						s1.25,0.56,1.25,1.25v1.2c1.28,0.48,2.33,1.45,2.89,2.74c0.28,0.63-0.01,1.37-0.65,1.64c-0.63,0.27-1.37-0.02-1.64-0.65
						c-0.46-1.05-1.52-1.69-2.66-1.58c-1.15,0.12-1.41,1.05-1.46,1.33C318.92,319.79,319.09,320.59,319.91,321.01z"/>
				</g>
			</g>
		</g>
	</g>
	<g>
		<g>
			<g>
				<path class="st2" d="M250.05,326.86c-0.96-0.96-2.55-0.9-3.43,0.18c-0.77,0.94-0.6,2.33,0.25,3.18l2.54,2.54
					c0.5,0.5,0.5,1.31,0,1.81c-0.5,0.5-1.31,0.5-1.81,0l-2.47-2.47c-0.94-0.94-1.48-2.18-1.53-3.5l0.02-5.99
					c0-1.47-1.26-2.64-2.76-2.49c-1.3,0.13-2.24,1.32-2.24,2.63v6.16c0,1.42,0.5,2.79,1.42,3.87l5.62,6.65
					c0.09,0.11,0.23,0.18,0.38,0.18l10.27,0.01c0.28,0,0.5-0.22,0.5-0.5v-3.03c0-1.59-0.63-3.12-1.76-4.24L250.05,326.86z
					 M276.14,320.13c-1.5-0.15-2.76,1.02-2.76,2.49l0.02,5.99c-0.05,1.32-0.59,2.56-1.53,3.5l-2.47,2.47c-0.5,0.5-1.31,0.5-1.81,0
					c-0.5-0.5-0.5-1.31,0-1.81l2.54-2.54c0.85-0.85,1.02-2.25,0.25-3.18c-0.88-1.08-2.47-1.13-3.43-0.18l-5,5
					c-1.13,1.13-1.76,2.65-1.76,4.24v3.03c0,0.28,0.22,0.5,0.5,0.5l10.27-0.01c0.15,0,0.29-0.07,0.38-0.18l5.62-6.65
					c0.92-1.08,1.42-2.45,1.42-3.87v-6.16C278.38,321.45,277.44,320.26,276.14,320.13z"/>
				<path class="st2" d="M256.57,342.39H246.3c-0.28,0-0.5,0.22-0.5,0.5v2c0,0.28,0.22,0.5,0.5,0.5h10.27c0.28,0,0.5-0.22,0.5-0.5
					v-2C257.07,342.61,256.85,342.39,256.57,342.39z M270.7,342.39h-10.27c-0.28,0-0.5,0.22-0.5,0.5v2c0,0.28,0.22,0.5,0.5,0.5
					h10.27c0.28,0,0.5-0.22,0.5-0.5v-2C271.2,342.61,270.97,342.39,270.7,342.39z M268.8,317.61c0-5.52-4.48-10-10-10
					c-5.52,0-10,4.48-10,10c0,5.52,4.48,10,10,10C264.32,327.61,268.8,323.14,268.8,317.61z M258.17,315.84l2.31,1.19
					c1.31,0.67,2.01,2.06,1.77,3.53c-0.19,1.18-0.95,2.1-2,2.52v0.42c0,0.69-0.56,1.25-1.25,1.25s-1.25-0.56-1.25-1.25v-0.33
					c-1.12-0.33-2.06-1.14-2.54-2.26c-0.28-0.63,0.01-1.37,0.65-1.64c0.63-0.27,1.37,0.02,1.64,0.65c0.26,0.61,0.89,0.98,1.54,0.92
					l0.11-0.01c0.48-0.08,0.6-0.48,0.63-0.65c0.02-0.15,0.06-0.65-0.45-0.91l-2.31-1.19c-1.33-0.68-2.03-2.13-1.76-3.6
					c0.25-1.33,1.21-2.32,2.48-2.61v-0.35c0-0.69,0.56-1.25,1.25-1.25s1.25,0.56,1.25,1.25v0.62c0.89,0.4,1.63,1.12,2.04,2.06
					c0.28,0.63-0.02,1.37-0.65,1.64c-0.63,0.28-1.37-0.02-1.64-0.65c-0.26-0.61-0.89-0.97-1.54-0.92c-0.56,0.06-0.69,0.48-0.73,0.66
					C257.7,315.07,257.65,315.57,258.17,315.84z"/>
			</g>
		</g>
	</g>
	<g>
		<g>
			<path class="st2" d="M199.75,321.53l-1.56-14c-0.11-1.01-0.97-1.78-1.99-1.78h-11.42c-1.02,0-1.88,0.77-1.99,1.78l-1.56,14
				c-0.13,1.18,0.8,2.22,1.99,2.22h14.53C198.96,323.75,199.88,322.71,199.75,321.53z"/>
			<path class="st2" d="M207,315.25h-4c-0.55,0-1,0.45-1,1v2c0,0.55,0.45,1,1,1h0.5v5.81l-3.54,3.78c-0.2-1.46-1.44-2.59-2.96-2.59
				h-13c-1.52,0-2.76,1.13-2.96,2.59l-3.54-3.78v-5.81h0.5c0.55,0,1-0.45,1-1v-2c0-0.55-0.45-1-1-1h-4c-0.55,0-1,0.45-1,1v2
				c0,0.55,0.45,1,1,1h0.5v6.01c0,0.63,0.24,1.24,0.67,1.71l4.67,5c0.47,0.51,1.13,0.79,1.83,0.79h5.83v1.5c0,0.55,0.45,1,1,1h0.5
				v4.48l-6.56,2.62c-0.57,0.23-0.94,0.78-0.94,1.39v3c0,0.28,0.22,0.5,0.5,0.5h2c0.28,0,0.5-0.22,0.5-0.5v-1.98l4.5-1.8v3.78
				c0,0.28,0.22,0.5,0.5,0.5h2c0.28,0,0.5-0.22,0.5-0.5v-3.78l4.5,1.8v1.98c0,0.28,0.22,0.5,0.5,0.5h2c0.28,0,0.5-0.22,0.5-0.5v-3
				c0-0.61-0.37-1.16-0.94-1.39l-6.56-2.62v-4.48h0.5c0.55,0,1-0.45,1-1v-1.5h5.83c0.69,0,1.35-0.29,1.83-0.79l4.67-4.99
				c0.43-0.46,0.67-1.07,0.67-1.71v-6h0.5c0.55,0,1-0.45,1-1v-2C208,315.7,207.55,315.25,207,315.25z"/>
		</g>
	</g>
	<g>
		<g>
			<g>
				<g>
					<path class="st2" d="M145.06,320.07l-8.34-8.85c-0.19-0.2-0.51-0.21-0.71-0.02l-3.5,3.3c-0.2,0.19-0.21,0.51-0.02,0.71
						l8.34,8.85c0.19,0.2,0.51,0.21,0.71,0.02l3.5-3.3C145.24,320.58,145.25,320.27,145.06,320.07z M142.01,321.07
						c-0.44,0.41-1.13,0.39-1.54-0.05c-0.41-0.44-0.39-1.13,0.05-1.54c0.44-0.41,1.13-0.39,1.54,0.05
						C142.47,319.97,142.45,320.66,142.01,321.07z M108.4,312.42c-0.22-0.17-0.53-0.13-0.7,0.09l-7.78,10.02
						c-0.17,0.22-0.13,0.53,0.09,0.7l3.82,2.97c0.22,0.17,0.53,0.13,0.7-0.09l7.79-10.02c0.17-0.22,0.13-0.53-0.09-0.7L108.4,312.42
						z M104.73,322.86c-0.37,0.48-1.06,0.56-1.54,0.19c-0.48-0.37-0.56-1.06-0.19-1.54c0.37-0.48,1.06-0.56,1.54-0.19
						C105.02,321.7,105.1,322.39,104.73,322.86z"/>
					<path class="st2" d="M133.7,332.57l-8.56-6.68l-1.56,1.43c-2.2,1.98-4.19,2.51-5.69,2.51c-0.38,0-0.74-0.04-1.05-0.09
						c-2.06-0.36-3.45-1.67-4.08-2.8c-0.77-1.23-0.55-2.78,0.55-3.78l6.14-5.59c-0.72-0.55-1.58-0.83-2.43-0.83
						c-1.19,0-2.38,0.53-3.17,1.55l-6,7.75c-0.49,0.63-0.71,1.42-0.61,2.21l0.39,3.15c0.1,0.79,0.5,1.51,1.13,2l10.52,8.2
						c0.29,0.23,0.64,0.34,0.99,0.34c0.44,0,0.87-0.18,1.19-0.52l0.47-0.52c0.62-0.68,0.55-1.74-0.15-2.33l1.77,1.48
						c0.3,0.25,0.67,0.38,1.04,0.38c0.4,0,0.81-0.15,1.12-0.45l0.54-0.52c0.69-0.67,0.65-1.79-0.09-2.4l1.31,1.09
						c0.3,0.25,0.67,0.37,1.03,0.37c0.41,0,0.82-0.15,1.13-0.46l0.48-0.47c0.67-0.66,0.64-1.75-0.07-2.37l0.86,0.75
						c0.31,0.26,0.68,0.39,1.05,0.39c0.46,0,0.92-0.2,1.24-0.58l0.75-0.89C134.53,334.18,134.42,333.13,133.7,332.57z
						 M137.88,324.58l-7.22-7.37c-0.31-0.32-0.72-0.52-1.17-0.58l-3.7-0.48c-0.58-0.08-1.17,0.11-1.6,0.5l-0.87,0.79L115,325
						c-0.09,0.09-0.3,0.33-0.11,0.62l0.05,0.09c0.32,0.6,1.13,1.37,2.34,1.58c1.44,0.25,3.04-0.38,4.63-1.81l3.11-2.85l9.79,7.64
						l3.05-2.86C138.64,326.63,138.65,325.37,137.88,324.58z"/>
				</g>
			</g>
		</g>
	</g>
	<g>
		<g>
			<path class="st2" d="M57.5,324.67v-1c0-0.28-0.22-0.5-0.5-0.5h-5c-0.28,0-0.5,0.22-0.5,0.5v1c0,0.26,0.2,0.46,0.45,0.49v12.02
				c-0.25,0.03-0.45,0.23-0.45,0.49v1c0,0.28,0.22,0.5,0.5,0.5h5c0.28,0,0.5-0.22,0.5-0.5v-1c0-0.26-0.2-0.46-0.45-0.49v-12.02
				C57.3,325.14,57.5,324.93,57.5,324.67z"/>
			<path class="st2" d="M71,341.67H38c-0.55,0-1,0.45-1,1v3c0,0.28,0.22,0.5,0.5,0.5h34c0.28,0,0.5-0.22,0.5-0.5v-3
				C72,342.12,71.55,341.67,71,341.67z M41.5,337.67v1c0,0.28,0.22,0.5,0.5,0.5h5c0.28,0,0.5-0.22,0.5-0.5v-1
				c0-0.28-0.22-0.5-0.5-0.5v-12c0.28,0,0.5-0.22,0.5-0.5v-1c0-0.28-0.22-0.5-0.5-0.5h-5c-0.28,0-0.5,0.22-0.5,0.5v1
				c0,0.28,0.22,0.5,0.5,0.5v12C41.72,337.17,41.5,337.4,41.5,337.67z M71.5,316.39L55,306.96c-0.31-0.18-0.68-0.18-0.99,0
				l-16.5,9.43c-0.31,0.18-0.5,0.51-0.5,0.87v2.92c0,0.28,0.22,0.5,0.5,0.5h34c0.28,0,0.5-0.22,0.5-0.5v-2.92
				C72,316.9,71.81,316.56,71.5,316.39z M54.5,317.92c-1.59,0-2.88-1.29-2.88-2.88s1.29-2.88,2.88-2.88c1.59,0,2.88,1.29,2.88,2.88
				S56.09,317.92,54.5,317.92z M61.5,337.67v1c0,0.28,0.22,0.5,0.5,0.5h5c0.28,0,0.5-0.22,0.5-0.5v-1c0-0.28-0.22-0.5-0.5-0.5v-12
				c0.28,0,0.5-0.22,0.5-0.5v-1c0-0.28-0.22-0.5-0.5-0.5h-5c-0.28,0-0.5,0.22-0.5,0.5v1c0,0.24,0.17,0.43,0.4,0.48v12.04
				C61.67,337.24,61.5,337.44,61.5,337.67z"/>
		</g>
	</g>
	<g>
		<g>
			<path class="st2" d="M388.88,258.12l-11.87-10.19c-0.32-0.28-0.83-0.05-0.83,0.38v20.38c0,0.43,0.5,0.66,0.83,0.38l11.87-10.19
				C389.11,258.68,389.11,258.32,388.88,258.12z M398.09,260.43c-0.19-0.16-0.46-0.16-0.65,0l-1.63,1.4c-0.75,0.64-1.86,0.64-2.61,0
				l-1.63-1.4c-0.19-0.16-0.46-0.16-0.65,0l-11.58,9.94c-0.35,0.3-0.14,0.88,0.33,0.88h29.68c0.46,0,0.68-0.58,0.33-0.88
				L398.09,260.43z M411.99,247.93l-11.87,10.19c-0.23,0.2-0.23,0.56,0,0.76l11.87,10.19c0.32,0.28,0.83,0.05,0.83-0.38v-20.38
				C412.81,247.88,412.31,247.65,411.99,247.93z"/>
			<path class="st2" d="M409.34,245.75h-29.68c-0.46,0-0.68,0.58-0.33,0.88l14.51,12.46c0.37,0.32,0.93,0.32,1.3,0l14.51-12.46
				C410.02,246.33,409.8,245.75,409.34,245.75z"/>
		</g>
	</g>
	<g>
		<g>
			<g>
				<g>
					<g>
						<path class="st2" d="M312.25,244.5c-0.83,0-1.5,0.67-1.5,1.5v25c0,0.83,0.67,1.5,1.5,1.5c0.83,0,1.5-0.67,1.5-1.5v-25
							C313.75,245.17,313.08,244.5,312.25,244.5z"/>
						<path class="st2" d="M340.25,242.5h-22c-1.1,0-2,0.9-2,2v28c0,1.1,0.9,2,2,2h22c1.1,0,2-0.9,2-2v-28
							C342.25,243.4,341.35,242.5,340.25,242.5z M321.25,248.5c0-0.55,0.45-1,1-1h4c0.55,0,1,0.45,1,1v5c0,0.55-0.45,1-1,1h-4
							c-0.55,0-1-0.45-1-1V248.5z M330.75,270.25h-9c-0.69,0-1.25-0.56-1.25-1.25c0-0.69,0.56-1.25,1.25-1.25h9
							c0.69,0,1.25,0.56,1.25,1.25C332,269.69,331.44,270.25,330.75,270.25z M336.75,265.25h-15c-0.69,0-1.25-0.56-1.25-1.25
							c0-0.69,0.56-1.25,1.25-1.25h15c0.69,0,1.25,0.56,1.25,1.25C338,264.69,337.44,265.25,336.75,265.25z M336.75,260.25h-15
							c-0.69,0-1.25-0.56-1.25-1.25c0-0.69,0.56-1.25,1.25-1.25h15c0.69,0,1.25,0.56,1.25,1.25
							C338,259.69,337.44,260.25,336.75,260.25z M336.75,255.25h-5c-0.69,0-1.25-0.56-1.25-1.25c0-0.69,0.56-1.25,1.25-1.25h5
							c0.69,0,1.25,0.56,1.25,1.25C338,254.69,337.44,255.25,336.75,255.25z M336.75,250.25h-5c-0.69,0-1.25-0.56-1.25-1.25
							c0-0.69,0.56-1.25,1.25-1.25h5c0.69,0,1.25,0.56,1.25,1.25C338,249.69,337.44,250.25,336.75,250.25z"/>
					</g>
				</g>
			</g>
		</g>
	</g>
	<g>
		<g>
			<g>
				<g>
					<g>
						<path class="st2" d="M258,252h11c0.69,0,1.25-0.56,1.25-1.25s-0.56-1.25-1.25-1.25h-11c-0.69,0-1.25,0.56-1.25,1.25
							S257.31,252,258,252z M248,262h21c0.69,0,1.25-0.56,1.25-1.25s-0.56-1.25-1.25-1.25h-21c-0.69,0-1.25,0.56-1.25,1.25
							S247.31,262,248,262z M279.68,267.63h0.02l-2.2-0.75V244.5c0-1.1-0.9-2-2-2h-34c-1.1,0-2,0.9-2,2v22.37l-2.2,0.75h0.02
							c-0.77,0.28-1.32,1.01-1.32,1.87v3c0,1.1,0.9,2,2,2h41c1.1,0,2-0.9,2-2v-3C281,268.64,280.45,267.91,279.68,267.63z
							 M261,271.44h-5c-0.83,0-1.5-0.67-1.5-1.5c0-0.83,0.67-1.5,1.5-1.5h5c0.83,0,1.5,0.67,1.5,1.5
							C262.5,270.77,261.83,271.44,261,271.44z M273.5,265.5h-30v-19h30V265.5z M258,257h11c0.69,0,1.25-0.56,1.25-1.25
							s-0.56-1.25-1.25-1.25h-11c-0.69,0-1.25,0.56-1.25,1.25S257.31,257,258,257z"/>
						<path class="st2" d="M252.5,249.25h-4c-0.55,0-1,0.45-1,1v5c0,0.55,0.45,1,1,1h4c0.55,0,1-0.45,1-1v-5
							C253.5,249.69,253.05,249.25,252.5,249.25z"/>
					</g>
				</g>
			</g>
		</g>
	</g>
	<g>
		<g>
			<g>
				<path class="st2" d="M203.25,256.9c0-0.69-0.56-1.25-1.25-1.25h-21c-0.69,0-1.25,0.56-1.25,1.25s0.56,1.25,1.25,1.25h21
					C202.69,258.15,203.25,257.59,203.25,256.9z M181,260.65c-0.69,0-1.25,0.56-1.25,1.25s0.56,1.25,1.25,1.25h8.7
					c0.69,0,1.25-0.56,1.25-1.25s-0.56-1.25-1.25-1.25H181z M195,253.15c0.69,0,1.25-0.56,1.25-1.25s-0.56-1.25-1.25-1.25h-8
					c-0.69,0-1.25,0.56-1.25,1.25s0.56,1.25,1.25,1.25H195z M207.5,242.6h-34c-1.1,0-2,0.9-2,2v25c0,1.1,0.9,2,2,2h19v-4h-14
					c0-1.66-1.34-3-3-3v-15c1.66,0,3-1.34,3-3h24c0,1.66,1.34,3,3,3v15c-1.66,0-3,1.34-3,3h0v4h5c1.1,0,2-0.9,2-2v-25
					C209.5,243.49,208.6,242.6,207.5,242.6z"/>
				<path class="st2" d="M195,269.74v4.22c0,0.26,0.22,0.45,0.45,0.45c0.09,0,0.18-0.03,0.26-0.08l1.54-1.1
					c0.08-0.06,0.17-0.08,0.26-0.08c0.09,0,0.18,0.03,0.26,0.08l1.54,1.1c0.08,0.06,0.17,0.08,0.26,0.08c0.23,0,0.45-0.18,0.45-0.45
					v-4.22c-0.76,0.35-1.61,0.55-2.5,0.55C196.6,270.29,195.76,270.09,195,269.74z M197.5,267.79c1.93,0,3.5-1.57,3.5-3.5
					c0-1.93-1.57-3.5-3.5-3.5c-1.93,0-3.5,1.57-3.5,3.5C194,266.22,195.56,267.79,197.5,267.79z"/>
			</g>
		</g>
	</g>
	<g>
		<g>
			<path class="st2" d="M141.66,249.13c-0.14-0.21-0.33-0.4-0.54-0.54c-0.32-0.22-0.7-0.34-1.12-0.34h-35c-1.1,0-2,0.9-2,2v22
				c0,1.1,0.9,2,2,2h35c0.41,0,0.8-0.13,1.12-0.34c0.21-0.14,0.4-0.33,0.54-0.54c0.22-0.32,0.34-0.7,0.34-1.12v-22
				C142,249.84,141.87,249.45,141.66,249.13z M138.5,266.25c-2.49,0-4.5,2.01-4.5,4.5h-23c0-2.49-2.01-4.5-4.5-4.5v-10
				c2.49,0,4.5-2.01,4.5-4.5h23c0,2.49,2.01,4.5,4.5,4.5V266.25z"/>
			<path class="st2" d="M122.25,258.46c0.51-0.04,1,0.24,1.21,0.72c0.28,0.63,1.01,0.92,1.65,0.65c0.63-0.28,0.92-1.01,0.65-1.65
				c-0.36-0.83-1-1.46-1.78-1.84v-0.46c0-0.69-0.56-1.25-1.25-1.25c-0.69,0-1.25,0.56-1.25,1.25v0.19c-1.13,0.3-1.96,1.2-2.18,2.39
				c-0.25,1.36,0.4,2.7,1.62,3.33l2.03,1.05c0.36,0.18,0.33,0.54,0.32,0.65c-0.03,0.18-0.13,0.4-0.52,0.46
				c-0.51,0.04-1-0.24-1.21-0.72c-0.28-0.63-1.01-0.92-1.65-0.65c-0.63,0.28-0.92,1.01-0.65,1.65c0.43,0.99,1.25,1.71,2.23,2.03
				v0.19c0,0.69,0.56,1.25,1.25,1.25c0.69,0,1.25-0.56,1.25-1.25v-0.27c0.93-0.4,1.59-1.24,1.76-2.3c0.22-1.36-0.43-2.64-1.64-3.26
				l-2.03-1.05c-0.36-0.18-0.34-0.52-0.31-0.65C121.78,258.77,121.88,258.5,122.25,258.46z M112,259.25c-1.1,0-2,0.9-2,2
				c0,1.1,0.9,2,2,2c1.1,0,2-0.9,2-2C114,260.14,113.1,259.25,112,259.25z M133,259.25c-1.1,0-2,0.9-2,2c0,1.1,0.9,2,2,2
				c1.1,0,2-0.9,2-2C135,260.14,134.1,259.25,133,259.25z M136.6,242.75h-28c-0.83,0-1.5,0.67-1.5,1.5c0,0.83,0.67,1.5,1.5,1.5h28
				c0.83,0,1.5-0.67,1.5-1.5C138.1,243.42,137.42,242.75,136.6,242.75z"/>
		</g>
	</g>
	<g>
		<g>
			<path class="st2" d="M66,257h-1.5c-0.83,0-1.5,0.67-1.5,1.5c0,0.83,0.67,1.5,1.5,1.5H66c0.83,0,1.5-0.67,1.5-1.5
				C67.5,257.67,66.83,257,66,257z M54.5,267c-0.83,0-1.5,0.67-1.5,1.5v1.5c0,0.83,0.67,1.5,1.5,1.5c0.83,0,1.5-0.67,1.5-1.5v-1.5
				C56,267.67,55.33,267,54.5,267z M44.5,257H43c-0.83,0-1.5,0.67-1.5,1.5c0,0.83,0.67,1.5,1.5,1.5h1.5c0.83,0,1.5-0.67,1.5-1.5
				C46,257.67,45.33,257,44.5,257z M54.5,245.5c-0.83,0-1.5,0.67-1.5,1.5v1.5c0,0.83,0.67,1.5,1.5,1.5c0.83,0,1.5-0.67,1.5-1.5V247
				C56,246.17,55.33,245.5,54.5,245.5z"/>
			<path class="st2" d="M54.5,239c-10.77,0-19.5,8.73-19.5,19.5c0,10.77,8.73,19.5,19.5,19.5c10.77,0,19.5-8.73,19.5-19.5
				C74,247.73,65.27,239,54.5,239z M54.5,273c-8,0-14.5-6.5-14.5-14.5c0-8,6.5-14.5,14.5-14.5c8,0,14.5,6.5,14.5,14.5
				C69,266.5,62.5,273,54.5,273z M61.04,250.16l-5.91,5.91c-0.2-0.04-0.41-0.07-0.63-0.07c-0.32,0-0.62,0.06-0.9,0.15l-4.58-4.58
				c-0.59-0.59-1.54-0.59-2.12,0c-0.59,0.59-0.59,1.54,0,2.12l4.67,4.67c-0.04,0.2-0.07,0.41-0.07,0.63c0,1.66,1.34,3,3,3
				c1.66,0,3-1.34,3-3c0-0.32-0.06-0.62-0.15-0.9l5.81-5.81c0.59-0.59,0.59-1.54,0-2.12C62.58,249.58,61.63,249.58,61.04,250.16z"/>
		</g>
	</g>
	<g>
		<g>
			<g>
				<path class="st2" d="M409.25,187h-1.5c-0.28,0-0.5,0.22-0.5,0.5v6c0,0.28,0.22,0.5,0.5,0.5h1.5c1.1,0,2-0.9,2-2v-3
					C411.25,187.9,410.35,187,409.25,187z"/>
				<path class="st2" d="M402.75,174h-23c-1.1,0-2,0.9-2,2v4c0,1.1,0.9,2,2,2h0c1.1,0,2,0.9,2,2c0,1.1-0.9,2-2,2h0c-1.1,0-2,0.9-2,2
					v5c0,1.1,0.9,2,2,2h0c1.1,0,2,0.9,2,2c0,1.1-0.9,2-2,2h0c-1.1,0-2,0.9-2,2v4c0,1.1,0.9,2,2,2h23c1.1,0,2-0.9,2-2v-29
					C404.75,174.9,403.85,174,402.75,174z M400.01,196.45c-1.49,1.5-3.74,1.97-5.68,1.14c-0.43-0.18-0.88-0.42-1.36-0.73
					c0,0-1.61-0.81-3.17-2.4c-1.6-1.56-2.41-3.17-2.41-3.17c-0.31-0.48-0.55-0.93-0.73-1.36c-0.84-1.93-0.37-4.19,1.12-5.68
					c0.47-0.49,1.25-0.07,1.25-0.07l2.6,2.59c0.61,0.66,0.01,1.29,0.01,1.29l-1.59,1.59c0.17,0.77,1.96,2.6,1.96,2.6
					s1.83,1.8,2.6,1.95l1.58-1.58c0,0,0.62-0.6,1.29,0.01l2.59,2.59C400.08,195.2,400.5,195.97,400.01,196.45z M409.25,177.5h-1.5
					c-0.28,0-0.5,0.22-0.5,0.5v6c0,0.28,0.22,0.5,0.5,0.5h1.5c1.1,0,2-0.9,2-2v-3C411.25,178.4,410.35,177.5,409.25,177.5z
					 M409.25,196.4h-1.5c-0.28,0-0.5,0.22-0.5,0.5v6c0,0.28,0.22,0.5,0.5,0.5h1.5c1.1,0,2-0.9,2-2v-3
					C411.25,197.29,410.35,196.4,409.25,196.4z"/>
			</g>
		</g>
	</g>
	<g>
		<g>
			<path class="st2" d="M343.75,175.42h-2c-1.1,0-2,0.9-2,2v26c0,1.1,0.9,2,2,2h2c1.1,0,2-0.9,2-2v-26
				C345.75,176.32,344.85,175.42,343.75,175.42z"/>
			<path class="st2" d="M336.61,178.3l-22.5,6.33c-0.22,0.06-0.36,0.26-0.36,0.48v11.94h0v3.97c0,1.63,1.18,3.02,2.79,3.29
				l7.33,1.22c0.18,0.03,0.37,0.05,0.55,0.05c0.78,0,1.54-0.28,2.15-0.79c0.75-0.63,1.18-1.56,1.18-2.54v-1.4l8.87,2.4
				c0.32,0.09,0.63-0.15,0.63-0.48v-23.98C337.25,178.45,336.93,178.21,336.61,178.3z M324.75,202.25c0,0.13-0.06,0.21-0.12,0.25
				c-0.05,0.05-0.14,0.1-0.27,0.07c0,0,0,0,0,0l-7.33-1.22c-0.16-0.03-0.28-0.17-0.28-0.33v-3.16l8,2.17V202.25z M310.75,185.42
				h-1.5c-1.1,0-2,0.9-2,2v7c0,1.1,0.9,2,2,2h1.5c0.28,0,0.5-0.22,0.5-0.5v-10C311.25,185.65,311.03,185.42,310.75,185.42z"/>
		</g>
	</g>
	<g>
		<g>
			<path class="st2" d="M272.5,170.75h-28c-1.1,0-2,0.9-2,2v20c0,1.1,0.9,2,2,2h28c1.1,0,2-0.9,2-2v-20
				C274.5,171.65,273.6,170.75,272.5,170.75z M252.5,188.64c0,1.1-0.9,2-2,2c-1.1,0-2-0.9-2-2v-8c0-1.1,0.9-2,2-2c1.1,0,2,0.9,2,2
				V188.64z M260.51,188.64c0,1.1-0.9,2-2,2c-1.1,0-2-0.9-2-2v-6c0-1.1,0.9-2,2-2c1.1,0,2,0.9,2,2V188.64z M268.5,188.64
				c0,1.1-0.9,2-2,2c-1.1,0-2-0.9-2-2v-10c0-1.1,0.9-2,2-2c1.1,0,2,0.9,2,2V188.64z"/>
			<path class="st2" d="M256.17,194.73l-0.02,0.02h0.04L256.17,194.73z M266.27,207.19l-6.28-6.28v-2.34c0-0.83-0.67-1.5-1.5-1.5
				c-0.83,0-1.5,0.67-1.5,1.5v2.34l-6.27,6.27c-0.59,0.59-0.59,1.54,0,2.12c0.29,0.29,0.68,0.44,1.06,0.44
				c0.38,0,0.77-0.15,1.06-0.44l4.15-4.15v3.59c0,0.83,0.67,1.5,1.5,1.5c0.83,0,1.5-0.67,1.5-1.5v-3.59l4.15,4.15
				c0.29,0.29,0.68,0.44,1.06,0.44s0.77-0.15,1.06-0.44C266.86,208.73,266.86,207.77,266.27,207.19z"/>
		</g>
	</g>
	<g>
		<g>
			<path class="st2" d="M188.67,199.5l0.27,9c0.03,0.84,0.72,1.5,1.55,1.5c0.84,0,1.52-0.66,1.55-1.5l0.27-9H188.67z"/>
			<path class="st2" d="M197.21,190.02L195.3,177h1.2c1.66,0,3-1.34,3-3c0-1.66-1.34-3-3-3h-12c-1.66,0-3,1.34-3,3
				c0,1.66,1.34,3,3,3h1.2l-1.91,13.02c-1.83,0.11-3.29,1.62-3.29,3.48v2.5c0,0.55,0.45,1,1,1h18c0.55,0,1-0.45,1-1v-2.5
				C200.5,191.64,199.04,190.13,197.21,190.02z"/>
		</g>
	</g>
	<g>
		<g>
			<g>
				<path class="st2" d="M125,187.5c0-0.55-0.45-1-1-1h-4c-0.55,0-1,0.45-1,1v14h6V187.5z M133.5,189.5c0-0.55-0.45-1-1-1h-4
					c-0.55,0-1,0.45-1,1v12h6V189.5z M137.5,204h-30c-0.83,0-1.5,0.67-1.5,1.5c0,0.83,0.67,1.5,1.5,1.5h30c0.83,0,1.5-0.67,1.5-1.5
					C139,204.67,138.33,204,137.5,204z M116.5,192.5c0-0.55-0.45-1-1-1h-4c-0.55,0-1,0.45-1,1v9h6V192.5z"/>
				<path class="st2" d="M134.95,174.01l-4.5,0.64c-0.72,0.1-1.02,0.99-0.5,1.51l1.04,1.04l-3.63,3.63l-5.96-4.52
					c-0.55-0.42-1.32-0.4-1.86,0.04l-9.5,7.81c-0.64,0.53-0.73,1.47-0.21,2.11c0.3,0.36,0.73,0.55,1.16,0.55
					c0.33,0,0.67-0.11,0.95-0.34l8.58-7.06l6.06,4.59c0.6,0.45,1.44,0.4,1.97-0.13l4.55-4.55l0.69,0.69c0.52,0.52,1.4,0.22,1.51-0.5
					l0.64-4.5C136.04,174.43,135.54,173.93,134.95,174.01z"/>
			</g>
		</g>
	</g>
	<g>
		<g>
			<path class="st2" d="M54.5,187c-0.83,0-1.5,0.67-1.5,1.5v3c0,0.83,0.67,1.5,1.5,1.5c0.83,0,1.5-0.67,1.5-1.5v-3
				C56,187.67,55.33,187,54.5,187z"/>
			<path class="st2" d="M56,171.08V171h-3v0.08c-10.05,0.77-18,9.18-18,19.42c0,10.75,8.75,19.5,19.5,19.5S74,201.25,74,190.5
				C74,180.25,66.05,171.85,56,171.08z M68.62,182h-4.64c-0.65-2.54-1.57-4.77-2.72-6.54C64.32,176.84,66.89,179.14,68.62,182z
				 M56,174.35c2.1,0.98,3.79,3.96,4.83,7.65H56V174.35z M53,174.35V182h-4.83C49.21,178.32,50.9,175.34,53,174.35z M47.75,175.46
				c-1.15,1.77-2.07,4-2.72,6.54h-4.64C42.11,179.14,44.68,176.84,47.75,175.46z M38,190.5c0-1.93,0.35-3.78,0.96-5.5h5.45
				c-0.27,1.74-0.42,3.58-0.42,5.5c0,1.56,0.1,3.06,0.28,4.5h-5.64C38.23,193.57,38,192.06,38,190.5z M39.82,198h4.96
				c0.65,2.96,1.67,5.54,2.97,7.54C44.33,204,41.53,201.33,39.82,198z M53,206.65c-2.28-1.07-4.08-4.51-5.09-8.65H53V206.65z
				 M47.33,195c-0.21-1.49-0.33-3.01-0.33-4.5c0-1.83,0.17-3.7,0.49-5.5h14.02c0.31,1.8,0.49,3.67,0.49,5.5
				c0,1.49-0.11,3.01-0.33,4.5H47.33z M56,206.65V198h5.09C60.08,202.13,58.28,205.57,56,206.65z M61.25,205.54
				c1.3-2,2.32-4.58,2.97-7.54h4.96C67.47,201.33,64.67,204,61.25,205.54z M64.72,195c0.18-1.44,0.28-2.94,0.28-4.5
				c0-1.92-0.15-3.76-0.42-5.5H70v-0.1c0.64,1.75,1,3.63,1,5.6c0,1.56-0.23,3.07-0.64,4.5H64.72z"/>
		</g>
	</g>
	<g>
		<g>
			<path class="st2" d="M399.93,119.33c0,3.17-2.5,5.75-5.57,5.75c-3.07,0-5.56-2.58-5.56-5.75c0-3.17,2.5-5.75,5.56-5.75
				c0.25,0,0.5,0.02,0.75,0.06l3.19-3.19c-1.2-0.56-2.53-0.87-3.93-0.87c-5.27,0-9.56,4.38-9.56,9.75c0,5.38,4.29,9.75,9.56,9.75
				c5.27,0,9.57-4.38,9.57-9.75c0-1.36-0.28-2.66-0.78-3.84l-3.25,3.25C399.92,118.94,399.93,119.13,399.93,119.33z M404.36,132.22
				c3.85-2.99,6.34-7.65,6.34-12.89c0-1.78-0.3-3.5-0.83-5.1l-0.89,0.89c-0.65,0.65-1.52,1.01-2.44,1.01c-0.1,0-0.19-0.02-0.29-0.03
				c0.28,1.03,0.45,2.11,0.45,3.23c0,6.8-5.53,12.33-12.33,12.33c-6.8,0-12.33-5.53-12.33-12.33c0-6.8,5.53-12.33,12.33-12.33
				c1.3,0,2.54,0.2,3.72,0.58c0.02-0.87,0.36-1.72,1-2.36l1.12-1.12c-1.82-0.7-3.78-1.1-5.84-1.1c-9.01,0-16.33,7.33-16.33,16.33
				c0,5.59,2.82,10.53,7.12,13.47l-2.69,7.17c-0.29,0.78,0.1,1.64,0.88,1.93c0.17,0.07,0.35,0.1,0.53,0.1c0.61,0,1.18-0.37,1.4-0.97
				l2.53-6.75c1.72,0.76,3.6,1.22,5.56,1.34v4.88c0,0.83,0.67,1.5,1.5,1.5c0.83,0,1.5-0.67,1.5-1.5v-4.97
				c1.93-0.24,3.75-0.81,5.41-1.66l2.68,7.16c0.23,0.6,0.8,0.97,1.4,0.97c0.17,0,0.35-0.03,0.53-0.1c0.78-0.29,1.17-1.16,0.88-1.93
				L404.36,132.22z"/>
			<path class="st2" d="M410.37,108.31l-2.84-1.09c-0.25-0.1-0.45-0.29-0.54-0.54l-1.09-2.84c-0.15-0.39-0.51-0.61-0.89-0.61
				c-0.24,0-0.48,0.09-0.67,0.28l-3.48,3.48c-0.26,0.26-0.35,0.66-0.21,1.01l0.92,2.38l-5.98,5.98c-0.37-0.15-0.78-0.24-1.2-0.24
				c-1.77,0-3.21,1.44-3.21,3.21s1.44,3.21,3.21,3.21c1.77,0,3.21-1.44,3.21-3.21c0-0.43-0.09-0.83-0.24-1.2l5.76-5.76l3.11,1.19
				c0.11,0.04,0.23,0.06,0.34,0.06c0.25,0,0.49-0.1,0.67-0.28l3.48-3.48C411.18,109.38,411,108.56,410.37,108.31z"/>
		</g>
	</g>
	<g>
		<g>
			<path class="st2" d="M342.5,111.25h-32c-2.21,0-4,1.79-4,4v10c0,2.21,1.79,4,4,4h2v-3.5c0-1.93,1.57-3.5,3.5-3.5h21
				c1.93,0,3.5,1.57,3.5,3.5v3.5h2c2.21,0,4-1.79,4-4v-10C346.5,113.04,344.71,111.25,342.5,111.25z M312.33,118.67
				c-1.03,0-1.86-0.83-1.86-1.86c0-1.03,0.83-1.86,1.86-1.86c1.03,0,1.86,0.83,1.86,1.86C314.18,117.84,313.35,118.67,312.33,118.67
				z"/>
			<path class="st2" d="M336.95,105.75h-20.91c-0.83,0-1.5,0.67-1.5,1.5c0,0.83,0.67,1.5,1.5,1.5h20.91c0.83,0,1.5-0.67,1.5-1.5
				C338.45,106.42,337.78,105.75,336.95,105.75z M337,124.75h-21c-0.55,0-1,0.45-1,1v11.5c0,1.1,0.9,2,2,2h19c1.1,0,2-0.9,2-2v-11.5
				C338,125.2,337.55,124.75,337,124.75z M327,136h-7c-0.69,0-1.25-0.56-1.25-1.25c0-0.69,0.56-1.25,1.25-1.25h7
				c0.69,0,1.25,0.56,1.25,1.25C328.25,135.44,327.69,136,327,136z M332,131h-12c-0.69,0-1.25-0.56-1.25-1.25
				c0-0.69,0.56-1.25,1.25-1.25h12c0.69,0,1.25,0.56,1.25,1.25C333.25,130.44,332.69,131,332,131z"/>
		</g>
	</g>
	<g>
		<g>
			<path class="st2" d="M270.42,124.77l-2.27-2.67c-1.46-1.72-1.24-3.13-1.18-5.37c0.01-0.46-0.29-0.87-0.73-1l-2.63-0.75
				c-0.54-0.15-1.11,0.16-1.24,0.7c-0.44,1.9-2.01,3.7-3.88,3.7c-1.88,0-3.45-1.77-3.88-3.65c-0.12-0.54-0.69-0.85-1.22-0.71
				l-2.66,0.71c-0.45,0.12-0.76,0.54-0.74,1c0.06,2.08,0.25,3.69-1.18,5.38l-2.28,2.7c-1.05,1.24-1.63,2.82-1.63,4.45v5.67
				c0,1.57,1.28,2.85,2.85,2.85h21.43c1.61,0,2.92-1.31,2.92-2.92v-5.53C272.1,127.67,271.5,126.05,270.42,124.77z M258.5,132.78
				c-2.71,0-4.91-2.2-4.91-4.91c0-2.71,2.2-4.91,4.91-4.91c2.71,0,4.91,2.2,4.91,4.91C263.41,130.58,261.21,132.78,258.5,132.78z"/>
			<path class="st2" d="M276.21,112.41c-3.69-3.07-10.54-5.22-17.71-5.22c-7.17,0-14.03,2.15-17.71,5.22
				c-1.26,1.05-2.06,4.4-0.93,6.61c0.82,1.6,1.8,2.28,3.54,1.75l2.9-1.19c1.14-0.29,1.42-1.03,1.18-2.31
				c-0.53-2.83,0.26-3.73,2.8-4.38c2.37-0.6,5.66-0.67,8.21-0.67c2.55,0,5.84,0.07,8.21,0.67c2.54,0.65,3.33,1.55,2.8,4.38
				c-0.24,1.29,0.05,2.02,1.18,2.31l2.9,1.19c1.74,0.53,2.71-0.15,3.54-1.75C278.28,116.82,277.48,113.46,276.21,112.41z"/>
		</g>
	</g>
	<g>
		<g>
			<path class="st2" d="M205,106.26h-4c-1.1,0-2,0.9-2,2s-0.9,2-2,2c-1.1,0-2-0.9-2-2s-0.9-2-2-2h-5c-1.1,0-2,0.9-2,2s-0.9,2-2,2
				c-1.1,0-2-0.9-2-2s-0.9-2-2-2h-4c-1.1,0-2,0.9-2,2v23c0,1.1,0.9,2,2,2h29c1.1,0,2-0.9,2-2v-23
				C207,107.15,206.1,106.26,205,106.26z M182.64,115.35c1.6,0,2.89,1.3,2.89,2.89c0,1.6-1.3,2.89-2.89,2.89
				c-1.6,0-2.89-1.3-2.89-2.89C179.75,116.64,181.04,115.35,182.64,115.35z M187.5,126.63c0,0.4-0.3,0.72-0.67,0.72h-8.39
				c-0.37,0-0.67-0.32-0.67-0.72v-0.68c0-1.3,0.98-2.36,2.19-2.36h5.35c1.21,0,2.19,1.06,2.19,2.36V126.63z M201,126.01h-9
				c-0.69,0-1.25-0.56-1.25-1.25s0.56-1.25,1.25-1.25h9c0.69,0,1.25,0.56,1.25,1.25S201.69,126.01,201,126.01z M201,121.01h-9
				c-0.69,0-1.25-0.56-1.25-1.25s0.56-1.25,1.25-1.25h9c0.69,0,1.25,0.56,1.25,1.25S201.69,121.01,201,121.01z"/>
			<path class="st2" d="M204,135.74h-28c-0.83,0-1.5,0.67-1.5,1.5s0.67,1.5,1.5,1.5h28c0.83,0,1.5-0.67,1.5-1.5
				S204.83,135.74,204,135.74z"/>
		</g>
	</g>
	<g>
		<g>
			<path class="st2" d="M136.75,135.75h-28c-0.83,0-1.5,0.67-1.5,1.5c0,0.83,0.67,1.5,1.5,1.5h28c0.83,0,1.5-0.67,1.5-1.5
				C138.25,136.42,137.58,135.75,136.75,135.75z"/>
			<path class="st2" d="M137,106.25h-4c-1.1,0-2,0.9-2,2c0,1.1-0.9,2-2,2c-1.1,0-2-0.9-2-2c0-1.1-0.9-2-2-2h-5c-1.1,0-2,0.9-2,2
				c0,1.1-0.9,2-2,2c-1.1,0-2-0.9-2-2c0-1.1-0.9-2-2-2h-4c-1.1,0-2,0.9-2,2v23c0,1.1,0.9,2,2,2h29c1.1,0,2-0.9,2-2v-23
				C139,107.14,138.1,106.25,137,106.25z M113.5,129.43c-1.1,0-2-0.9-2-2c0-1.1,0.9-2,2-2c1.1,0,2,0.9,2,2
				C115.5,128.53,114.6,129.43,113.5,129.43z M113.5,123.43c-1.1,0-2-0.9-2-2c0-1.1,0.9-2,2-2c1.1,0,2,0.9,2,2
				C115.5,122.53,114.6,123.43,113.5,123.43z M119.5,129.43c-1.1,0-2-0.9-2-2c0-1.1,0.9-2,2-2c1.1,0,2,0.9,2,2
				C121.5,128.53,120.6,129.43,119.5,129.43z M119.5,123.43c-1.1,0-2-0.9-2-2c0-1.1,0.9-2,2-2c1.1,0,2,0.9,2,2
				C121.5,122.53,120.6,123.43,119.5,123.43z M119.5,117.43c-1.1,0-2-0.9-2-2c0-1.1,0.9-2,2-2c1.1,0,2,0.9,2,2
				C121.5,116.53,120.6,117.43,119.5,117.43z M125.5,129.43c-1.1,0-2-0.9-2-2c0-1.1,0.9-2,2-2c1.1,0,2,0.9,2,2
				C127.5,128.53,126.6,129.43,125.5,129.43z M125.5,123.43c-1.1,0-2-0.9-2-2c0-1.1,0.9-2,2-2c1.1,0,2,0.9,2,2
				C127.5,122.53,126.6,123.43,125.5,123.43z M125.5,117.43c-1.1,0-2-0.9-2-2c0-1.1,0.9-2,2-2c1.1,0,2,0.9,2,2
				C127.5,116.53,126.6,117.43,125.5,117.43z M131.5,123.43c-1.1,0-2-0.9-2-2c0-1.1,0.9-2,2-2c1.1,0,2,0.9,2,2
				C133.5,122.53,132.6,123.43,131.5,123.43z M131.5,117.43c-1.1,0-2-0.9-2-2c0-1.1,0.9-2,2-2c1.1,0,2,0.9,2,2
				C133.5,116.53,132.6,117.43,131.5,117.43z"/>
		</g>
	</g>
	<g>
		<g>
			<g>
				<path class="st2" d="M47.85,127.67c-0.07-0.21-0.26-0.34-0.48-0.34h-2.45c-4.33,0-7.83,3.51-7.83,7.83v3.48
					c0,0.64,0.52,1.17,1.17,1.17h12.86c0.34,0,0.58-0.33,0.48-0.65L47.85,127.67z M64.07,127.33h-2.44c-0.22,0-0.41,0.14-0.48,0.34
					l-3.74,11.48c-0.11,0.32,0.14,0.65,0.48,0.65h12.85c0.64,0,1.17-0.52,1.17-1.17v-3.48C71.9,130.83,68.4,127.33,64.07,127.33z
					 M64.11,114.81c0-5.31-4.3-9.61-9.61-9.61c-5.31,0-9.61,4.3-9.61,9.61c0,5.31,4.3,9.61,9.61,9.61
					C59.81,124.41,64.11,120.11,64.11,114.81z"/>
				<path class="st2" d="M54.5,127.6c-0.83,0-1.5,0.67-1.5,1.5v8c0,0.83,0.67,1.5,1.5,1.5c0.83,0,1.5-0.67,1.5-1.5v-8
					C56,128.27,55.33,127.6,54.5,127.6z"/>
			</g>
		</g>
	</g>
</g>
<g id="title" class="st0">
	<g class="st3">
		<path class="st2" d="M31.77,46.96c0-0.72,0.51-1.3,1.14-1.51c0.65-0.21,2.17-0.7,3.8-0.7c3.4,0,5.47,2.14,5.47,4.75
			c0,1.42-0.61,2.47-1.7,3.15c1.61,0.72,2.54,2.03,2.54,3.75c0,2.68-2.21,4.92-5.99,4.92h-4.15c-0.68,0-1.12-0.44-1.12-1.12V46.96z
			 M36.64,51.58c1.4,0,2.1-0.96,2.1-2.07c0-1.14-0.68-1.96-2.07-1.96c-0.61,0-1.03,0.09-1.54,0.28v3.75H36.64z M36.92,58.52
			c1.61,0,2.59-0.86,2.59-2.12c0-1.3-0.75-2.24-2.59-2.24h-1.79v4.36H36.92z"/>
		<path class="st2" d="M45.33,46.17c0-0.68,0.44-1.12,1.12-1.12h1.12c0.68,0,1.12,0.44,1.12,1.12v9.39c0,1.56,0.77,3.26,2.91,3.26
			c2.1,0,2.89-1.7,2.89-3.26v-9.39c0-0.68,0.44-1.12,1.12-1.12h1.12c0.68,0,1.12,0.44,1.12,1.12v8.99c0,4.01-2.19,6.45-6.24,6.45
			c-4.01,0-6.27-2.42-6.27-6.45V46.17z"/>
		<path class="st2" d="M60.29,59.61l0.14-0.61c0.16-0.72,0.68-0.91,1.3-0.72c0.44,0.12,1.68,0.54,3.14,0.54
			c1.58,0,2.24-0.84,2.24-1.96c0-3.17-6.73-1.98-6.73-7.55c0-2.89,2.42-4.57,5.62-4.57c1.49,0,2.52,0.33,3.1,0.51
			c0.63,0.21,0.98,0.72,0.75,1.42l-0.16,0.51c-0.21,0.63-0.75,0.91-1.42,0.7C67.72,47.73,67,47.54,66,47.54c-1.4,0-2.1,0.7-2.1,1.77
			c0,2.73,6.73,2.03,6.73,7.55c0,2.87-2.33,4.75-5.76,4.75c-1.61,0-2.87-0.35-3.77-0.63C60.43,60.78,60.13,60.36,60.29,59.61z"/>
		<path class="st2" d="M73.26,46.17c0-0.68,0.44-1.12,1.12-1.12h1.12c0.67,0,1.12,0.44,1.12,1.12V60.2c0,0.68-0.44,1.12-1.12,1.12
			h-1.12c-0.68,0-1.12-0.44-1.12-1.12V46.17z"/>
		<path class="st2" d="M80.16,46.17c0-0.68,0.44-1.12,1.12-1.12h0.93c0.68,0,1.19,0.37,1.56,1.03l5.17,9.13
			c-0.14-1.17-0.21-2.33-0.21-3.22v-5.83c0-0.68,0.44-1.12,1.12-1.12h1.07c0.68,0,1.12,0.44,1.12,1.12V60.2
			c0,0.68-0.44,1.12-1.12,1.12h-0.93c-0.68,0-1.21-0.37-1.58-1.03l-5.15-9.09c0.12,1.17,0.21,2.31,0.21,3.17v5.82
			c0,0.68-0.44,1.12-1.12,1.12h-1.07c-0.68,0-1.12-0.44-1.12-1.12V46.17z"/>
		<path class="st2" d="M95.14,49.52c0-2.7,1.72-4.47,5.15-4.47h3.38c0.68,0,1.12,0.44,1.12,1.12v0.56c0,0.68-0.44,1.12-1.12,1.12
			h-3.33c-1.4,0-1.84,0.63-1.84,1.93v1.82h4.47c0.68,0,1.12,0.44,1.12,1.12v0.54c0,0.68-0.44,1.12-1.12,1.12H98.5v2.24
			c0,1.33,0.44,1.91,1.84,1.91h3.43c0.68,0,1.12,0.44,1.12,1.12v0.56c0,0.68-0.44,1.12-1.12,1.12h-3.47c-3.4,0-5.15-1.77-5.15-4.45
			V49.52z"/>
		<path class="st2" d="M107,59.61l0.14-0.61c0.16-0.72,0.68-0.91,1.3-0.72c0.44,0.12,1.68,0.54,3.15,0.54
			c1.58,0,2.24-0.84,2.24-1.96c0-3.17-6.73-1.98-6.73-7.55c0-2.89,2.42-4.57,5.62-4.57c1.49,0,2.52,0.33,3.1,0.51
			c0.63,0.21,0.98,0.72,0.75,1.42l-0.16,0.51c-0.21,0.63-0.75,0.91-1.42,0.7c-0.54-0.16-1.26-0.35-2.26-0.35
			c-1.4,0-2.1,0.7-2.1,1.77c0,2.73,6.73,2.03,6.73,7.55c0,2.87-2.33,4.75-5.75,4.75c-1.61,0-2.87-0.35-3.77-0.63
			C107.14,60.78,106.84,60.36,107,59.61z"/>
		<path class="st2" d="M119.23,59.61l0.14-0.61c0.16-0.72,0.68-0.91,1.3-0.72c0.44,0.12,1.68,0.54,3.15,0.54
			c1.58,0,2.24-0.84,2.24-1.96c0-3.17-6.73-1.98-6.73-7.55c0-2.89,2.42-4.57,5.62-4.57c1.49,0,2.52,0.33,3.1,0.51
			c0.63,0.21,0.98,0.72,0.75,1.42l-0.16,0.51c-0.21,0.63-0.75,0.91-1.42,0.7c-0.54-0.16-1.26-0.35-2.26-0.35
			c-1.4,0-2.1,0.7-2.1,1.77c0,2.73,6.73,2.03,6.73,7.55c0,2.87-2.33,4.75-5.76,4.75c-1.61,0-2.87-0.35-3.77-0.63
			C119.37,60.78,119.07,60.36,119.23,59.61z"/>
		<path class="st2" d="M139.29,52.55c-1.21-0.77-1.91-1.96-1.91-3.47c0-2.82,2.42-4.99,5.85-4.99c1,0,1.87,0.14,2.28,0.23
			c0.65,0.14,1,0.7,0.86,1.35l-0.12,0.56c-0.14,0.65-0.7,0.96-1.37,0.84c-0.4-0.07-0.91-0.14-1.61-0.14c-1.58,0-2.4,0.82-2.4,2.14
			c0,1.44,0.82,2.35,2.4,2.35h4.85c0.68,0,1.12,0.37,1.12,1.05v0.37c0,0.68-0.44,1.05-1.12,1.05h-0.16v5.52
			c0,0.68-0.35,1.26-1.07,1.51c-0.72,0.26-2.26,0.68-3.94,0.68c-3.98,0-6.17-2.19-6.17-5.15C136.77,54.65,137.68,53.3,139.29,52.55z
			 M142.99,58.77c0.72,0,1.58-0.09,2.24-0.3V53.9h-2.21c-1.89,0-2.75,0.98-2.75,2.52C140.27,57.89,141.06,58.77,142.99,58.77z"/>
		<path class="st2" d="M156.02,51.69c0-4.01,2.4-6.94,6.55-6.94c4.15,0,6.55,2.94,6.55,6.94v2.98c0,4.01-2.4,6.94-6.55,6.94
			c-4.15,0-6.55-2.94-6.55-6.94V51.69z M165.66,54.42v-2.47c0-2.35-0.63-4.4-3.1-4.4c-2.45,0-3.1,2.05-3.1,4.4v2.47
			c0,2.38,0.65,4.4,3.1,4.4C165.03,58.82,165.66,56.79,165.66,54.42z"/>
		<path class="st2" d="M172.09,46.17c0-0.68,0.44-1.12,1.12-1.12h7.41c0.68,0,1.12,0.44,1.12,1.12v0.56c0,0.68-0.44,1.12-1.12,1.12
			h-5.17v4.03h4.47c0.68,0,1.12,0.44,1.12,1.12v0.54c0,0.68-0.44,1.12-1.12,1.12h-4.47v5.54c0,0.68-0.44,1.12-1.12,1.12h-1.12
			c-0.68,0-1.12-0.44-1.12-1.12V46.17z"/>
		<path class="st2" d="M184.39,46.17c0-0.68,0.44-1.12,1.12-1.12h7.41c0.68,0,1.12,0.44,1.12,1.12v0.56c0,0.68-0.44,1.12-1.12,1.12
			h-5.17v4.03h4.47c0.68,0,1.12,0.44,1.12,1.12v0.54c0,0.68-0.44,1.12-1.12,1.12h-4.47v5.54c0,0.68-0.44,1.12-1.12,1.12h-1.12
			c-0.68,0-1.12-0.44-1.12-1.12V46.17z"/>
		<path class="st2" d="M196.69,46.17c0-0.68,0.44-1.12,1.12-1.12h1.12c0.67,0,1.12,0.44,1.12,1.12V60.2c0,0.68-0.44,1.12-1.12,1.12
			h-1.12c-0.68,0-1.12-0.44-1.12-1.12V46.17z"/>
		<path class="st2" d="M203.05,50.76c0-3.87,2.35-6.01,6.06-6.01c1.72,0,2.91,0.23,3.87,0.47c0.51,0.14,0.75,0.56,0.63,1.09
			l-0.21,0.96c-0.12,0.51-0.61,0.75-1.12,0.61c-0.63-0.14-1.49-0.33-2.7-0.33c-1.91,0-3.08,0.82-3.08,3.47v4.33
			c0,2.66,1.17,3.47,3.08,3.47c1.49,0,2.4-0.26,2.82-0.35c0.56-0.14,0.89,0.12,1,0.63l0.21,0.96c0.09,0.47-0.12,0.96-0.63,1.1
			c-0.54,0.14-1.93,0.47-3.87,0.47c-3.7,0-6.06-2.12-6.06-6.01V50.76z"/>
		<path class="st2" d="M216.22,49.52c0-2.7,1.72-4.47,5.15-4.47h3.38c0.68,0,1.12,0.44,1.12,1.12v0.56c0,0.68-0.44,1.12-1.12,1.12
			h-3.33c-1.4,0-1.84,0.63-1.84,1.93v1.82h4.47c0.68,0,1.12,0.44,1.12,1.12v0.54c0,0.68-0.44,1.12-1.12,1.12h-4.47v2.24
			c0,1.33,0.44,1.91,1.84,1.91h3.42c0.68,0,1.12,0.44,1.12,1.12v0.56c0,0.68-0.44,1.12-1.12,1.12h-3.47c-3.4,0-5.15-1.77-5.15-4.45
			V49.52z"/>
		<path class="st4" d="M234.15,45.71c0-0.7,0.46-1.15,1.15-1.15h1.15c0.7,0,1.15,0.46,1.15,1.15v14.45c0,0.7-0.46,1.15-1.15,1.15
			h-1.15c-0.7,0-1.15-0.46-1.15-1.15V45.71z"/>
		<path class="st4" d="M240.71,50.44c0-3.98,2.42-6.19,6.24-6.19c1.78,0,3,0.24,3.98,0.48c0.53,0.14,0.77,0.58,0.65,1.13l-0.22,0.98
			c-0.12,0.53-0.62,0.77-1.15,0.62c-0.65-0.14-1.54-0.34-2.78-0.34c-1.97,0-3.17,0.84-3.17,3.58v4.46c0,2.74,1.2,3.58,3.17,3.58
			c1.54,0,2.47-0.26,2.9-0.36c0.58-0.14,0.91,0.12,1.03,0.65l0.22,0.98c0.1,0.48-0.12,0.98-0.65,1.13
			c-0.55,0.14-1.99,0.48-3.98,0.48c-3.82,0-6.24-2.18-6.24-6.19V50.44z"/>
		<path class="st4" d="M254.15,51.4c0-4.13,2.47-7.15,6.74-7.15c4.27,0,6.75,3.02,6.75,7.15v3.07c0,4.13-2.47,7.15-6.75,7.15
			c-4.27,0-6.74-3.02-6.74-7.15V51.4z M264.08,54.21v-2.54c0-2.42-0.65-4.54-3.19-4.54c-2.52,0-3.19,2.11-3.19,4.54v2.54
			c0,2.45,0.67,4.54,3.19,4.54C263.44,58.75,264.08,56.66,264.08,54.21z"/>
		<path class="st4" d="M270.71,45.71c0-0.7,0.46-1.15,1.15-1.15h0.96c0.7,0,1.22,0.38,1.61,1.06l5.33,9.41
			c-0.14-1.2-0.22-2.4-0.22-3.31v-6c0-0.7,0.45-1.15,1.15-1.15h1.1c0.7,0,1.15,0.46,1.15,1.15v14.45c0,0.7-0.46,1.15-1.15,1.15
			h-0.96c-0.7,0-1.25-0.38-1.63-1.06l-5.3-9.36c0.12,1.2,0.22,2.38,0.22,3.26v6c0,0.7-0.46,1.15-1.15,1.15h-1.11
			c-0.7,0-1.15-0.46-1.15-1.15V45.71z"/>
		<path class="st4" d="M285.83,59.56l0.14-0.62c0.17-0.74,0.7-0.94,1.34-0.74c0.46,0.12,1.73,0.55,3.24,0.55
			c1.63,0,2.3-0.86,2.3-2.02c0-3.26-6.94-2.04-6.94-7.78c0-2.98,2.5-4.7,5.78-4.7c1.54,0,2.59,0.34,3.19,0.53
			c0.65,0.22,1.01,0.74,0.77,1.46l-0.17,0.53c-0.22,0.65-0.77,0.94-1.46,0.72c-0.55-0.17-1.3-0.36-2.33-0.36
			c-1.44,0-2.16,0.72-2.16,1.82c0,2.81,6.94,2.09,6.94,7.78c0,2.95-2.4,4.9-5.93,4.9c-1.66,0-2.95-0.36-3.89-0.65
			C285.97,60.76,285.66,60.33,285.83,59.56z"/>
	</g>
</g>
</svg>
