<?xml version="1.0" encoding="utf-8"?>
<!-- Generator: Adobe Illustrator 24.1.1, SVG Export Plug-In . SVG Version: 6.00 Build 0)  -->
<svg version="1.1" xmlns="http://www.w3.org/2000/svg" xmlns:xlink="http://www.w3.org/1999/xlink" x="0px" y="0px"
	 viewBox="0 0 448 448" style="enable-background:new 0 0 448 448;" xml:space="preserve">
<style type="text/css">
	.st0{fill:#173042;}
</style>
<g id="grid">
</g>
<g id="icons">
	<g>
		<g>
			<path class="st0" d="M404,393.34c-4.97,0-9,4.03-9,9c0,4.97,4.03,9,9,9s9-4.03,9-9C413,397.37,408.97,393.34,404,393.34z
				 M403.56,400.62l2.03,1.05c1.21,0.63,1.86,1.91,1.64,3.27c-0.17,1.06-0.83,1.89-1.76,2.3v0.27c0,0.69-0.56,1.25-1.25,1.25
				c-0.69,0-1.25-0.56-1.25-1.25v-0.19c-0.98-0.32-1.8-1.04-2.23-2.03c-0.28-0.63,0.01-1.37,0.65-1.65
				c0.64-0.27,1.37,0.01,1.65,0.65c0.21,0.48,0.7,0.76,1.21,0.72c0.39-0.06,0.49-0.28,0.52-0.46c0.02-0.11,0.04-0.46-0.32-0.65
				l-2.03-1.05c-1.23-0.63-1.88-1.97-1.62-3.33c0.22-1.19,1.06-2.09,2.18-2.39v-0.19c0-0.69,0.56-1.25,1.25-1.25
				c0.69,0,1.25,0.56,1.25,1.25v0.46c0.78,0.38,1.42,1.01,1.78,1.84c0.28,0.63-0.02,1.37-0.65,1.64c-0.63,0.27-1.37-0.02-1.64-0.65
				c-0.21-0.48-0.7-0.76-1.21-0.72c-0.38,0.04-0.48,0.31-0.51,0.46C403.23,400.1,403.21,400.43,403.56,400.62z"/>
			<path class="st0" d="M407,377.66h-4c-1.1,0-2,0.9-2,2s-0.9,2-2,2s-2-0.9-2-2s-0.9-2-2-2h-5c-1.1,0-2,0.9-2,2s-0.9,2-2,2
				s-2-0.9-2-2s-0.9-2-2-2h-4c-1.1,0-2,0.9-2,2v25c0,1.1,0.9,2,2,2h15.35c-0.54-1.34-0.85-2.79-0.85-4.32
				c0-6.34,5.16-11.5,11.5-11.5c1.79,0,3.49,0.42,5,1.16v-12.34C409,378.56,408.1,377.66,407,377.66z M382,401.84c-1.1,0-2-0.9-2-2
				c0-1.1,0.9-2,2-2s2,0.9,2,2C384,400.94,383.1,401.84,382,401.84z M382,395.84c-1.1,0-2-0.9-2-2c0-1.1,0.9-2,2-2s2,0.9,2,2
				C384,394.94,383.1,395.84,382,395.84z M388,401.84c-1.1,0-2-0.9-2-2c0-1.1,0.9-2,2-2s2,0.9,2,2
				C390,400.94,389.1,401.84,388,401.84z M388,395.84c-1.1,0-2-0.9-2-2c0-1.1,0.9-2,2-2s2,0.9,2,2
				C390,394.94,389.1,395.84,388,395.84z M388,389.84c-1.1,0-2-0.9-2-2c0-1.1,0.9-2,2-2s2,0.9,2,2
				C390,388.94,389.1,389.84,388,389.84z M394,389.84c-1.1,0-2-0.9-2-2c0-1.1,0.9-2,2-2s2,0.9,2,2
				C396,388.94,395.1,389.84,394,389.84z"/>
		</g>
	</g>
	<g>
		<g>
			<path class="st0" d="M314.12,381.5l19-0.02v-1.98c0-2.21-1.79-4-4-4h-16c-2.21,0-4,1.79-4,4v30c0,2.21,1.79,4,4,4h16
				c2.21,0,4-1.79,4-4v-5.02h-4.92c-0.03,0-14.08,0.02-14.08,0.02c-0.55,0-1-0.45-1-1v-21C313.12,381.95,313.57,381.5,314.12,381.5z
				 M322.12,411h-2c-1.1,0-2-0.9-2-2l0,0c0-1.1,0.9-2,2-2h2c1.1,0,2,0.9,2,2l0,0C324.12,410.1,323.23,411,322.12,411z"/>
			<path class="st0" d="M323.38,391.49c-0.83,0-1.5,0.67-1.5,1.5s0.67,1.5,1.5,1.5c0.83,0,1.5-0.67,1.5-1.5
				S324.21,391.49,323.38,391.49z M330.38,388.98c-1.93,0-3.5,1.52-3.5,4c0,2.52,1.57,4,3.5,4c1.93,0,3.5-1.48,3.5-4
				C333.88,390.5,332.31,388.98,330.38,388.98z M343.72,385.21c-0.25-0.6-0.79-1.05-1.44-1.18c-0.13-0.03-0.26-0.04-0.4-0.04h-23
				c-0.14,0-0.27,0.01-0.4,0.04c-0.65,0.13-1.19,0.58-1.44,1.18c-0.1,0.24-0.16,0.5-0.16,0.78v14c0,0.28,0.06,0.54,0.16,0.78
				c0.25,0.6,0.79,1.05,1.44,1.18c0.13,0.03,23.4,0.04,23.4,0.04c0.14,0,0.27-0.01,0.4-0.04c0.65-0.13,1.19-0.58,1.44-1.18
				c0.1-0.24,0.16-0.5,0.16-0.78v-14C343.88,385.71,343.82,385.44,343.72,385.21z M341.38,396.45c-1.66,0.04-2.99,1.37-3.03,3.03
				h-15.94c-0.04-1.66-1.37-2.99-3.03-3.03v-6.94c1.66-0.04,2.99-1.37,3.03-3.03h15.94c0.04,1.66,1.37,2.99,3.03,3.03V396.45z
				 M337.38,391.49c-0.83,0-1.5,0.67-1.5,1.5c0,0.83,0.67,1.5,1.5,1.5c0.83,0,1.5-0.67,1.5-1.5
				C338.88,392.17,338.21,391.49,337.38,391.49z"/>
		</g>
	</g>
	<g>
		<g>
			<g>
				<g>
					<path class="st0" d="M247.01,381.5h19v-2c0-2.21-1.79-4-4-4h-16c-2.21,0-4,1.79-4,4v30c0,2.21,1.79,4,4,4h16c2.21,0,4-1.79,4-4
						v-5h-19c-0.55,0-1-0.45-1-1v-21C246.01,381.95,246.46,381.5,247.01,381.5z M254.9,411h-2c-1.1,0-2-0.9-2-2l0,0c0-1.1,0.9-2,2-2
						h2c1.1,0,2,0.9,2,2l0,0C256.9,410.1,256,411,254.9,411z"/>
					<path class="st0" d="M272.99,383.97h-21.95c-1.1,0-2,0.9-2,2V400c0,1.1,0.9,2,2,2h21.95c1.1,0,2-0.9,2-2v-14.03
						C274.99,384.86,274.09,383.97,272.99,383.97z M255.48,386.36c1.1,0,1.99,0.89,1.99,1.99s-0.89,1.99-1.99,1.99
						c-1.1,0-1.99-0.89-1.99-1.99S254.38,386.36,255.48,386.36z M257.08,398.37h-2.39c-0.69,0-1.25-0.56-1.25-1.25
						c0-0.69,0.56-1.25,1.25-1.25h2.39c0.69,0,1.25,0.56,1.25,1.25C258.33,397.81,257.77,398.37,257.08,398.37z M263.45,398.37
						h-2.39c-0.69,0-1.25-0.56-1.25-1.25c0-0.69,0.56-1.25,1.25-1.25h2.39c0.69,0,1.25,0.56,1.25,1.25
						C264.7,397.81,264.14,398.37,263.45,398.37z M270.53,398.37h-3.1c-0.69,0-1.25-0.56-1.25-1.25c0-0.69,0.56-1.25,1.25-1.25h3.1
						c0.69,0,1.25,0.56,1.25,1.25C271.78,397.81,271.22,398.37,270.53,398.37z M270.53,389.6h-9.47c-0.69,0-1.25-0.56-1.25-1.25
						c0-0.69,0.56-1.25,1.25-1.25h9.47c0.69,0,1.25,0.56,1.25,1.25C271.78,389.04,271.22,389.6,270.53,389.6z"/>
				</g>
			</g>
		</g>
	</g>
	<g>
		<g>
			<path class="st0" d="M198.25,375.25h-16c-4.69,0-8.5,3.81-8.5,8.5c0,4.69,3.81,8.5,8.5,8.5h6.5v-3c0-1.2,0.47-2.33,1.32-3.18
				c0.85-0.85,1.98-1.32,3.18-1.32c0.47,0,0.95,0.07,1.41,0.22c1.85,0.59,3.09,2.34,3.09,4.36v2.92h0.5c4.69,0,8.5-3.81,8.5-8.5
				C206.75,379.06,202.94,375.25,198.25,375.25z M182.06,382.44l2.03,1.05c1.21,0.63,1.86,1.91,1.64,3.26
				c-0.17,1.06-0.83,1.89-1.76,2.3v0.27c0,0.69-0.56,1.25-1.25,1.25s-1.25-0.56-1.25-1.25v-0.19c-0.98-0.32-1.8-1.05-2.23-2.03
				c-0.28-0.63,0.02-1.37,0.65-1.64c0.63-0.27,1.37,0.02,1.64,0.65c0.21,0.48,0.69,0.76,1.21,0.72c0.39-0.06,0.49-0.28,0.52-0.46
				c0.02-0.1,0.04-0.46-0.32-0.65l-2.03-1.05c-1.23-0.63-1.88-1.97-1.62-3.33c0.22-1.19,1.06-2.09,2.18-2.39v-0.19
				c0-0.69,0.56-1.25,1.25-1.25s1.25,0.56,1.25,1.25v0.46c0.78,0.38,1.42,1.01,1.78,1.84c0.28,0.63-0.01,1.37-0.65,1.65
				c-0.64,0.28-1.37-0.01-1.65-0.65c-0.21-0.48-0.7-0.76-1.21-0.72c-0.38,0.04-0.48,0.31-0.51,0.46
				C181.73,381.93,181.71,382.26,182.06,382.44z M197.75,382.5h-8c-0.69,0-1.25-0.56-1.25-1.25c0-0.69,0.56-1.25,1.25-1.25h8
				c0.69,0,1.25,0.56,1.25,1.25C199,381.94,198.44,382.5,197.75,382.5z"/>
			<path class="st0" d="M205.59,396.78c-0.74-0.12-1.58,0.17-2.17,0.67c-0.2-0.83-0.99-1.53-1.83-1.67c-0.7-0.11-1.5,0.14-2.07,0.6
				c-0.26-0.8-1.11-1.46-1.93-1.6c-0.79-0.13-1.87,0.29-2.34,0.88v-6.32c0-0.87-0.51-1.72-1.35-1.98c-1.38-0.44-2.65,0.58-2.65,1.9
				v16c-1.1,0-2-0.9-2-2v-1.81c0-0.38-0.31-0.69-0.69-0.69h-0.6c-1.49,0-2.7,1.21-2.7,2.7v4.94c0,0.86,0.37,1.69,1.02,2.26
				l2.69,2.36c0.55,0.48,1.25,0.74,1.98,0.74h11.07c0.8,0,1.56-0.32,2.12-0.88l2.24-2.24c0.56-0.56,0.88-1.33,0.88-2.12v-9.65
				C207.25,397.86,206.57,396.94,205.59,396.78z"/>
		</g>
	</g>
	<g>
		<g>
			<g>
				<g>
					<path class="st0" d="M136.79,379.25h-28.57c-0.83,0-1.5,0.67-1.5,1.5c0,0.83,0.67,1.5,1.5,1.5h28.57c0.83,0,1.5-0.67,1.5-1.5
						C138.29,379.92,137.61,379.25,136.79,379.25z"/>
					<path class="st0" d="M138,384.75h-31c-1.1,0-2,0.9-2,2v21c0,1.1,0.9,2,2,2h31c1.1,0,2-0.9,2-2v-21
						C140,385.65,139.1,384.75,138,384.75z M113,388.75c1.66,0,3,1.34,3,3c0,1.66-1.34,3-3,3s-3-1.34-3-3
						C110,390.09,111.34,388.75,113,388.75z M115.5,405.5h-4c-0.69,0-1.25-0.56-1.25-1.25c0-0.69,0.56-1.25,1.25-1.25h4
						c0.69,0,1.25,0.56,1.25,1.25C116.75,404.94,116.19,405.5,115.5,405.5z M124.5,405.5h-4c-0.69,0-1.25-0.56-1.25-1.25
						c0-0.69,0.56-1.25,1.25-1.25h4c0.69,0,1.25,0.56,1.25,1.25C125.75,404.94,125.19,405.5,124.5,405.5z M133.5,405.5h-4
						c-0.69,0-1.25-0.56-1.25-1.25c0-0.69,0.56-1.25,1.25-1.25h4c0.69,0,1.25,0.56,1.25,1.25
						C134.75,404.94,134.19,405.5,133.5,405.5z M133.5,393.5h-13c-0.69,0-1.25-0.56-1.25-1.25c0-0.69,0.56-1.25,1.25-1.25h13
						c0.69,0,1.25,0.56,1.25,1.25C134.75,392.94,134.19,393.5,133.5,393.5z"/>
				</g>
			</g>
		</g>
	</g>
	<g>
		<g>
			<path class="st0" d="M68.49,378.87c-0.69,0-1.25,0.56-1.25,1.25v23.52c0,0.69,0.56,1.25,1.25,1.25c0.69,0,1.25-0.56,1.25-1.25
				v-23.52C69.74,379.43,69.18,378.87,68.49,378.87z"/>
			<path class="st0" d="M67.63,407.57H44.5c-0.72,0-1.31-0.59-1.31-1.31s0.59-1.31,1.31-1.31h19.28c0.55,0,1-0.45,1-1V378.5
				c0-0.55-0.45-1-1-1H43.26c-2.21,0-4,1.79-4,4v26c0,2.21,1.79,4,4,4h24.37c1.09,0,1.97-0.88,1.97-1.97
				C69.6,408.45,68.72,407.57,67.63,407.57z M53.93,389.25l-2.31-1.19c-1.33-0.68-2.03-2.13-1.75-3.6c0.25-1.33,1.2-2.31,2.48-2.61
				v-0.35c0-0.69,0.56-1.25,1.25-1.25s1.25,0.56,1.25,1.25v0.62c0.89,0.4,1.63,1.11,2.04,2.06c0.28,0.63-0.01,1.37-0.65,1.65
				c-0.64,0.27-1.37-0.01-1.65-0.65c-0.26-0.61-0.9-0.97-1.54-0.92c-0.56,0.06-0.69,0.48-0.73,0.66c-0.03,0.15-0.08,0.65,0.44,0.92
				l2.31,1.19c1.31,0.67,2.01,2.06,1.77,3.53c-0.19,1.18-0.95,2.1-2,2.52v0.42c0,0.69-0.56,1.25-1.25,1.25s-1.25-0.56-1.25-1.25
				v-0.33c-1.12-0.33-2.06-1.14-2.54-2.26c-0.28-0.63,0.01-1.37,0.65-1.64c0.63-0.27,1.37,0.02,1.64,0.65
				c0.26,0.61,0.89,0.97,1.54,0.92l0.11-0.01c0.49-0.08,0.6-0.48,0.63-0.65C54.4,390.01,54.44,389.51,53.93,389.25z M48.34,396.87
				h10c0.69,0,1.25,0.56,1.25,1.25c0,0.69-0.56,1.25-1.25,1.25h-10c-0.69,0-1.25-0.56-1.25-1.25
				C47.09,397.43,47.65,396.87,48.34,396.87z"/>
		</g>
	</g>
	<g>
		<g>
			<g>
				<path class="st0" d="M397,328.91c0-0.55-0.45-1-1-1h-4c-0.55,0-1,0.45-1,1v8h6V328.91z M405.5,324.91c0-0.55-0.45-1-1-1h-4
					c-0.55,0-1,0.45-1,1v12h6V324.91z M388.5,321.91c0-0.55-0.45-1-1-1h-4c-0.55,0-1,0.45-1,1v15h6V321.91z M409.5,339.5h-30
					c-0.83,0-1.5,0.67-1.5,1.5c0,0.83,0.67,1.5,1.5,1.5h30c0.83,0,1.5-0.67,1.5-1.5C411,340.17,410.33,339.5,409.5,339.5z"/>
				<path class="st0" d="M407.81,315.3c-0.1-0.72-0.99-1.02-1.51-0.5l-0.78,0.78l-4.57-3.74c-0.56-0.46-1.37-0.45-1.93,0.02
					l-6.09,5.22l-8.54-6.29c-0.66-0.49-1.6-0.35-2.1,0.32c-0.49,0.67-0.35,1.61,0.32,2.1l9.5,7c0.27,0.2,0.58,0.29,0.89,0.29
					c0.35,0,0.7-0.12,0.98-0.36l6.05-5.18l3.37,2.76l-0.94,0.94c-0.52,0.52-0.22,1.4,0.5,1.51l4.5,0.64c0.59,0.08,1.09-0.42,1-1
					L407.81,315.3z"/>
			</g>
		</g>
	</g>
	<g>
		<g>
			<g>
				<g>
					<g>
						<g>
							<path class="st0" d="M327.08,333.36h-2.96v0.65c0,0.83-0.67,1.5-1.5,1.5s-1.5-0.67-1.5-1.5v-0.65h-11.5
								c-0.7,0-1.37-0.11-2-0.32v6.82c0,1.1,0.9,2,2,2h19.17c-1.21-1.82-1.92-4-1.92-6.35
								C326.88,334.77,326.95,334.06,327.08,333.36z M337.63,314.86h-5.62v-2.98c0-1.87-1.51-3.38-3.38-3.38h-12
								c-1.87,0-3.38,1.51-3.38,3.38v2.98h-5.62c-1.1,0-2,0.9-2,2v10c0,2.21,1.79,4,4,4h11.5v-1.12c0-0.83,0.67-1.5,1.5-1.5
								s1.5,0.67,1.5,1.5v1.12h3.74c1.79-4.03,5.82-6.85,10.51-6.85c0.42,0,0.84,0.03,1.25,0.07v-7.22
								C339.63,315.75,338.73,314.86,337.63,314.86z M328.63,314.86h-12v-2.98h12V314.86z"/>
							<path class="st0" d="M338.38,326.51c-4.97,0-9,4.03-9,9c0,4.97,4.03,9,9,9c4.97,0,9-4.03,9-9
								C347.38,330.54,343.35,326.51,338.38,326.51z M337.94,333.78l2.03,1.05c1.21,0.63,1.86,1.91,1.64,3.27
								c-0.17,1.06-0.83,1.89-1.76,2.3v0.27c0,0.69-0.56,1.25-1.25,1.25c-0.69,0-1.25-0.56-1.25-1.25v-0.19
								c-0.98-0.32-1.8-1.04-2.23-2.03c-0.28-0.63,0.01-1.37,0.65-1.65c0.64-0.27,1.37,0.01,1.65,0.65c0.21,0.48,0.7,0.76,1.21,0.72
								c0.39-0.06,0.49-0.28,0.52-0.46c0.02-0.11,0.04-0.46-0.32-0.65l-2.03-1.05c-1.23-0.63-1.88-1.97-1.62-3.33
								c0.22-1.19,1.06-2.09,2.18-2.39v-0.19c0-0.69,0.56-1.25,1.25-1.25c0.69,0,1.25,0.56,1.25,1.25v0.46
								c0.78,0.38,1.42,1.01,1.78,1.84c0.28,0.63-0.02,1.37-0.65,1.64c-0.63,0.27-1.37-0.02-1.64-0.65
								c-0.21-0.48-0.7-0.76-1.21-0.72c-0.38,0.04-0.48,0.31-0.51,0.46C337.6,333.27,337.58,333.6,337.94,333.78z"/>
						</g>
					</g>
				</g>
			</g>
		</g>
	</g>
	<g>
		<g>
			<g>
				<path class="st0" d="M260.35,330.7l-2.31-1.19c-0.52-0.27-0.47-0.77-0.44-0.92c0.03-0.18,0.17-0.6,0.73-0.66
					c0.66-0.05,1.28,0.31,1.54,0.92c0.27,0.63,1.01,0.92,1.64,0.65c0.63-0.28,0.92-1.01,0.65-1.64c-0.41-0.95-1.15-1.66-2.04-2.06
					v-0.62c0-0.69-0.56-1.25-1.25-1.25c-0.69,0-1.25,0.56-1.25,1.25v0.35c-1.28,0.29-2.23,1.28-2.48,2.61
					c-0.28,1.47,0.43,2.92,1.76,3.6l2.31,1.19c0.51,0.26,0.47,0.76,0.45,0.91c-0.03,0.17-0.14,0.57-0.63,0.65l-0.11,0.01
					c-0.65,0.06-1.28-0.31-1.54-0.92c-0.28-0.63-1.01-0.92-1.64-0.65c-0.63,0.28-0.92,1.01-0.65,1.64c0.49,1.12,1.43,1.93,2.54,2.26
					v0.33c0,0.69,0.56,1.25,1.25,1.25c0.69,0,1.25-0.56,1.25-1.25v-0.42c1.05-0.42,1.81-1.34,2-2.52
					C262.36,332.76,261.67,331.38,260.35,330.7z"/>
				<path class="st0" d="M275,341.67h-33c-0.55,0-1,0.45-1,1v3c0,0.28,0.22,0.5,0.5,0.5h34c0.28,0,0.5-0.22,0.5-0.5v-3
					C276,342.12,275.55,341.67,275,341.67z M245.5,337.67v1c0,0.28,0.22,0.5,0.5,0.5h5c0.28,0,0.5-0.22,0.5-0.5v-1
					c0-0.28-0.22-0.5-0.5-0.5v-12c0.28,0,0.5-0.22,0.5-0.5v-1c0-0.28-0.22-0.5-0.5-0.5h-5c-0.28,0-0.5,0.22-0.5,0.5v1
					c0,0.28,0.22,0.5,0.5,0.5v12C245.72,337.17,245.5,337.4,245.5,337.67z M275.5,316.39l-16.5-9.43c-0.31-0.18-0.68-0.18-0.99,0
					l-16.5,9.43c-0.31,0.18-0.5,0.51-0.5,0.87v2.92c0,0.28,0.22,0.5,0.5,0.5h34c0.28,0,0.5-0.22,0.5-0.5v-2.92
					C276,316.9,275.81,316.56,275.5,316.39z M258.5,317.92c-1.59,0-2.88-1.29-2.88-2.88s1.29-2.88,2.88-2.88s2.88,1.29,2.88,2.88
					S260.09,317.92,258.5,317.92z M265.5,337.67v1c0,0.28,0.22,0.5,0.5,0.5h5c0.28,0,0.5-0.22,0.5-0.5v-1c0-0.28-0.22-0.5-0.5-0.5
					v-12c0.28,0,0.5-0.22,0.5-0.5v-1c0-0.28-0.22-0.5-0.5-0.5h-5c-0.28,0-0.5,0.22-0.5,0.5v1c0,0.24,0.17,0.43,0.4,0.48v12.04
					C265.67,337.24,265.5,337.44,265.5,337.67z"/>
			</g>
		</g>
	</g>
	<g>
		<g>
			<g>
				<path class="st0" d="M182,325c-5.8,0-10.5,4.7-10.5,10.5S176.2,346,182,346c5.8,0,10.5-4.7,10.5-10.5S187.8,325,182,325z
					 M180.15,332.4c0.69,0,1.25,0.56,1.25,1.25s-0.56,1.25-1.25,1.25h-0.25v1.5h0.25c0.69,0,1.25,0.56,1.25,1.25
					s-0.56,1.25-1.25,1.25h-0.22c0.12,0.85,0.85,1.5,1.72,1.5c0.96,0,1.75-0.79,1.75-1.75c0-0.69,0.56-1.25,1.25-1.25
					s1.25,0.56,1.25,1.25c0,2.34-1.91,4.25-4.25,4.25c-2.26,0-4.09-1.77-4.22-4h-0.28c-0.69,0-1.25-0.56-1.25-1.25
					s0.56-1.25,1.25-1.25h0.25v-1.5h-0.25c-0.69,0-1.25-0.56-1.25-1.25s0.56-1.25,1.25-1.25h0.28c0.13-2.23,1.97-4,4.22-4
					c2.34,0,4.25,1.91,4.25,4.25c0,0.69-0.56,1.25-1.25,1.25s-1.25-0.56-1.25-1.25c0-0.96-0.79-1.75-1.75-1.75
					c-0.88,0-1.6,0.65-1.72,1.5H180.15z M176.67,323.59c0.06,0.01,0.12,0.01,0.18,0.01c0.61,0,1.14-0.45,1.24-1.07
					c0.43-2.95,2.12-5.5,4.61-7.05l0.41,0.91c0.27,0.6,1.11,0.63,1.43,0.05l1.77-3.27c0.25-0.46-0.01-1.04-0.53-1.16l-3.63-0.82
					c-0.64-0.14-1.17,0.51-0.9,1.11l0.41,0.9c-3.26,1.91-5.49,5.18-6.05,8.97C175.52,322.86,175.99,323.49,176.67,323.59z"/>
				<path class="st0" d="M199,307c-5.8,0-10.5,4.7-10.5,10.5S193.2,328,199,328c5.8,0,10.5-4.7,10.5-10.5S204.8,307,199,307z
					 M198.31,315.49l2.31,1.19c1.31,0.67,2.01,2.06,1.77,3.53c-0.19,1.18-0.95,2.1-2,2.52v0.42c0,0.69-0.56,1.25-1.25,1.25
					s-1.25-0.56-1.25-1.25v-0.33c-1.12-0.33-2.06-1.14-2.54-2.26c-0.28-0.63,0.01-1.37,0.65-1.64c0.63-0.27,1.37,0.02,1.64,0.65
					c0.26,0.61,0.89,0.97,1.54,0.92l0.11-0.01c0.48-0.08,0.6-0.48,0.63-0.65c0.02-0.15,0.06-0.65-0.45-0.91l-2.31-1.19
					c-1.33-0.68-2.03-2.13-1.76-3.6c0.25-1.33,1.21-2.32,2.48-2.61v-0.35c0-0.69,0.56-1.25,1.25-1.25s1.25,0.56,1.25,1.25v0.62
					c0.89,0.4,1.63,1.12,2.04,2.06c0.28,0.63-0.02,1.37-0.65,1.64c-0.63,0.28-1.37-0.02-1.64-0.65c-0.26-0.61-0.89-0.97-1.54-0.92
					c-0.56,0.06-0.69,0.48-0.73,0.66C197.84,314.72,197.79,315.22,198.31,315.49z M204.83,329.91c-0.69-0.11-1.32,0.37-1.42,1.05
					c-0.43,2.94-2.16,5.5-4.64,7.05l-0.51-1.04c-0.29-0.59-1.13-0.59-1.43-0.01l-1.67,3.32c-0.24,0.47,0.04,1.04,0.56,1.14
					l3.65,0.71c0.65,0.13,1.16-0.54,0.87-1.14l-0.36-0.74c3.21-1.91,5.45-5.18,6-8.94C205.98,330.64,205.51,330.01,204.83,329.91z"
					/>
			</g>
		</g>
	</g>
	<g>
		<g>
			<path class="st0" d="M135.75,319.28c-0.14,0-0.27,0.02-0.41,0.04c-1.42-5.9-6.64-10.29-12.86-10.29
				c-6.22,0-11.44,4.39-12.86,10.29c-0.12-0.02-0.25-0.04-0.37-0.04c-1.38,0-2.5,1.12-2.5,2.5v3c0,1.38,1.12,2.5,2.5,2.5
				c0.3,0,0.59-0.06,0.86-0.16c0.74,1.85,2.53,3.16,4.64,3.16c0.55,0,1-0.45,1-1c0-0.55-0.45-1-1-1c-1.65,0-3-1.35-3-3v-3.17
				c0.22-5.87,4.94-10.58,10.73-10.58c5.93,0,10.75,4.93,10.75,10.99c0,0.02,0.01,0.05,0.01,0.07v2.19c0,1.38,1.12,2.5,2.5,2.5
				s2.5-1.12,2.5-2.5v-3C138.25,320.4,137.13,319.28,135.75,319.28z"/>
			<path class="st0" d="M130.69,333.27h-2.93c-0.65,0-1.27,0.32-1.64,0.85l-2.05,2.94c-0.8,1.15-2.51,1.14-3.29-0.02l-1.96-2.89
				c-0.37-0.55-0.99-0.88-1.65-0.88h-2.88c-3.71,0-6.72,3.01-6.72,6.72v2.98c0,0.55,0.45,1,1,1h27.86c0.55,0,1-0.45,1-1v-2.98
				C137.41,336.28,134.4,333.27,130.69,333.27z M122.48,330.77c4.55,0,8.24-3.69,8.24-8.24c0-4.55-3.69-8.24-8.24-8.24
				c-4.55,0-8.24,3.69-8.24,8.24C114.24,327.08,117.93,330.77,122.48,330.77z"/>
		</g>
	</g>
	<g>
		<g>
			<g>
				<path class="st0" d="M74.71,323.5c-0.07-0.45-0.47-0.79-0.93-0.79h-1.92c-0.61-0.18-1.1-0.66-1.31-1.29
					c-0.36-1.13-0.84-2.21-1.42-3.22c-0.21-0.37-0.16-0.82,0.14-1.12l1.54-1.54c0.33-0.33,0.38-0.85,0.1-1.23
					c-1.18-1.59-2.58-2.99-4.17-4.18c-0.37-0.28-0.9-0.23-1.23,0.1l-1.54,1.54c-0.3,0.3-0.75,0.35-1.12,0.14
					c-1.42-0.81-2.96-1.42-4.6-1.8c0,0,0,0,0,0v-2.9c0-0.46-0.33-0.86-0.79-0.93c-0.97-0.14-1.95-0.23-2.96-0.23
					s-1.99,0.08-2.96,0.23c-0.46,0.07-0.79,0.47-0.79,0.93v2.9c0,0,0,0,0,0c-1.64,0.37-3.18,0.98-4.6,1.8
					c-0.37,0.21-0.82,0.16-1.12-0.14l-1.54-1.54c-0.33-0.33-0.86-0.38-1.23-0.1c-1.58,1.18-2.99,2.59-4.17,4.18
					c-0.28,0.37-0.23,0.9,0.1,1.23l1.54,1.54c0.3,0.3,0.35,0.75,0.14,1.12c-0.58,1.01-1.06,2.09-1.42,3.22
					c-0.2,0.64-0.69,1.12-1.31,1.29h-1.92c-0.46,0-0.86,0.33-0.93,0.79c-0.15,0.98-0.23,1.98-0.23,3c0,1.02,0.08,2.02,0.23,3
					c0.07,0.45,0.47,0.79,0.93,0.79h1.92c0.61,0.18,1.1,0.66,1.31,1.29c0.36,1.13,0.84,2.21,1.42,3.22
					c0.21,0.37,0.16,0.82-0.14,1.12l-1.54,1.54c-0.33,0.33-0.38,0.85-0.1,1.23c1.18,1.59,2.58,2.99,4.17,4.18
					c0.37,0.28,0.9,0.23,1.23-0.1l1.54-1.54c0.3-0.3,0.75-0.35,1.12-0.14c1.42,0.81,2.96,1.42,4.6,1.8c0,0,0,0,0,0v2.9
					c0,0.46,0.33,0.86,0.79,0.93c0.97,0.14,1.95,0.23,2.96,0.23s1.99-0.08,2.96-0.23c0.46-0.07,0.79-0.47,0.79-0.93v-2.9
					c0,0,0,0,0,0c1.64-0.37,3.18-0.98,4.6-1.8c0.37-0.21,0.82-0.16,1.12,0.14l1.54,1.54c0.33,0.33,0.86,0.38,1.23,0.1
					c1.58-1.18,2.99-2.59,4.17-4.18c0.28-0.37,0.23-0.9-0.1-1.23l-1.54-1.54c-0.3-0.3-0.35-0.75-0.14-1.12
					c0.58-1.01,1.06-2.09,1.42-3.22c0.2-0.64,0.69-1.12,1.31-1.29h1.92c0.46,0,0.86-0.33,0.93-0.79c0.15-0.98,0.23-1.98,0.23-3
					C74.94,325.48,74.86,324.48,74.71,323.5z M65.43,328.25c-0.71,4.66-4.52,8.47-9.18,9.18c-7.48,1.15-13.83-5.2-12.68-12.68
					c0.71-4.66,4.52-8.47,9.18-9.18C60.23,314.42,66.58,320.77,65.43,328.25z"/>
			</g>
			<path class="st0" d="M56.6,325.95l-2.82-1.45c-0.65-0.33-0.59-0.96-0.55-1.15c0.04-0.22,0.21-0.75,0.91-0.83
				c0.81-0.07,1.58,0.38,1.91,1.13c0.33,0.76,1.21,1.11,1.97,0.78c0.76-0.33,1.11-1.21,0.78-1.97c-0.47-1.07-1.29-1.9-2.3-2.4v-0.97
				c0-0.83-0.67-1.5-1.5-1.5s-1.5,0.67-1.5,1.5v0.51c-1.65,0.29-2.9,1.51-3.22,3.2c-0.33,1.79,0.52,3.54,2.13,4.37l2.82,1.45
				c0.5,0.26,0.62,0.76,0.56,1.14c-0.03,0.21-0.18,0.72-0.8,0.82l-0.12,0.01c-0.81,0.07-1.58-0.38-1.91-1.13
				c-0.33-0.76-1.21-1.11-1.97-0.78c-0.76,0.33-1.11,1.21-0.78,1.97c0.62,1.42,1.85,2.43,3.3,2.79v0.65c0,0.83,0.67,1.5,1.5,1.5
				s1.5-0.67,1.5-1.5v-0.88c1.18-0.54,2.03-1.62,2.25-2.98C59.03,328.45,58.19,326.77,56.6,325.95z"/>
		</g>
	</g>
	<g>
		<g>
			<path class="st0" d="M406.89,243h-19.88c-1.1,0-2,0.9-2,2v27c0,1.1,0.9,2,2,2h19.88c1.1,0,2-0.9,2-2v-27
				C408.89,243.9,408,243,406.89,243z M389.53,254.88c0.63-0.28,1.37,0.02,1.64,0.65c0.21,0.48,0.69,0.76,1.21,0.72
				c0.39-0.06,0.49-0.28,0.52-0.46c0.02-0.11,0.04-0.46-0.32-0.65l-2.03-1.05c-1.23-0.63-1.88-1.97-1.62-3.33
				c0.22-1.19,1.06-2.09,2.18-2.39v-0.19c0-0.69,0.56-1.25,1.25-1.25c0.69,0,1.25,0.56,1.25,1.25v0.46
				c0.78,0.38,1.42,1.01,1.78,1.84c0.28,0.63-0.01,1.37-0.65,1.65c-0.63,0.27-1.37-0.01-1.65-0.65c-0.21-0.48-0.7-0.76-1.21-0.72
				c-0.38,0.04-0.48,0.31-0.51,0.46c-0.03,0.13-0.04,0.47,0.31,0.65l2.03,1.05c1.21,0.62,1.86,1.91,1.64,3.26
				c-0.17,1.06-0.83,1.89-1.76,2.3v0.27c0,0.69-0.56,1.25-1.25,1.25c-0.69,0-1.25-0.56-1.25-1.25v-0.19
				c-0.98-0.32-1.8-1.05-2.23-2.03C388.6,255.89,388.89,255.15,389.53,254.88z M397.88,270.07h-7.5c-0.69,0-1.25-0.56-1.25-1.25
				c0-0.69,0.56-1.25,1.25-1.25h7.5c0.69,0,1.25,0.56,1.25,1.25C399.13,269.51,398.57,270.07,397.88,270.07z M403.88,265.07h-13.5
				c-0.69,0-1.25-0.56-1.25-1.25c0-0.69,0.56-1.25,1.25-1.25h13.5c0.69,0,1.25,0.56,1.25,1.25
				C405.13,264.51,404.57,265.07,403.88,265.07z M403.88,260.01h-4.87c-0.69,0-1.25-0.56-1.25-1.25c0-0.69,0.56-1.25,1.25-1.25h4.87
				c0.69,0,1.25,0.56,1.25,1.25C405.13,259.45,404.57,260.01,403.88,260.01z M403.88,255.07h-4.87c-0.69,0-1.25-0.56-1.25-1.25
				c0-0.69,0.56-1.25,1.25-1.25h4.87c0.69,0,1.25,0.56,1.25,1.25C405.13,254.51,404.57,255.07,403.88,255.07z M403.88,250.07h-4.87
				c-0.69,0-1.25-0.56-1.25-1.25c0-0.69,0.56-1.25,1.25-1.25h4.87c0.69,0,1.25,0.56,1.25,1.25
				C405.13,249.51,404.57,250.07,403.88,250.07z"/>
			<path class="st0" d="M381.36,245.49c-0.69,0-1.25,0.56-1.25,1.25v23.52c0,0.69,0.56,1.25,1.25,1.25s1.25-0.56,1.25-1.25v-23.52
				C382.61,246.05,382.05,245.49,381.36,245.49z"/>
		</g>
	</g>
	<g>
		<g>
			<g>
				<path class="st0" d="M329,255.5c0-0.55-0.45-1-1-1h-4c-0.55,0-1,0.45-1,1v14h6V255.5z M337.5,257.5c0-0.55-0.45-1-1-1h-4
					c-0.55,0-1,0.45-1,1v12h6V257.5z M341.5,272h-30c-0.83,0-1.5,0.67-1.5,1.5c0,0.83,0.67,1.5,1.5,1.5h30c0.83,0,1.5-0.67,1.5-1.5
					C343,272.67,342.33,272,341.5,272z M320.5,260.5c0-0.55-0.45-1-1-1h-4c-0.55,0-1,0.45-1,1v9h6V260.5z"/>
				<path class="st0" d="M338.95,242.01l-4.5,0.64c-0.72,0.1-1.02,0.99-0.5,1.51l1.04,1.04l-3.63,3.63l-5.96-4.52
					c-0.55-0.42-1.32-0.4-1.86,0.04l-9.5,7.81c-0.64,0.53-0.73,1.47-0.21,2.11c0.3,0.36,0.73,0.55,1.16,0.55
					c0.33,0,0.67-0.11,0.95-0.34l8.59-7.06l6.06,4.59c0.6,0.45,1.44,0.4,1.97-0.13l4.55-4.55l0.69,0.69c0.52,0.52,1.4,0.22,1.51-0.5
					l0.64-4.5C340.04,242.43,339.54,241.93,338.95,242.01z"/>
			</g>
		</g>
	</g>
	<g>
		<g>
			<g>
				<path class="st0" d="M269.5,257.25c0.69,0,1.25-0.56,1.25-1.25c0-0.69-0.56-1.25-1.25-1.25h-3.98c0.2,0.81,0.34,1.64,0.41,2.5
					H269.5z M266.5,245.5c-2.08,0-4.04,0.5-5.79,1.37c1.68,1.48,3.03,3.31,3.95,5.38h2.09v-1.75c0-0.69,0.56-1.25,1.25-1.25
					s1.25,0.56,1.25,1.25v1.75h0.25c2.07,0,3.75,1.68,3.75,3.75c0,0.96-0.38,1.83-0.98,2.5c0.6,0.67,0.98,1.54,0.98,2.5
					c0,2.07-1.68,3.75-3.75,3.75h-0.25v1.75c0,0.69-0.56,1.25-1.25,1.25s-1.25-0.56-1.25-1.25v-1.75h-2.09
					c-0.92,2.07-2.27,3.9-3.95,5.38c1.74,0.87,3.7,1.37,5.79,1.37c7.18,0,13-5.82,13-13C279.5,251.32,273.68,245.5,266.5,245.5z
					 M269.5,262.25c0.69,0,1.25-0.56,1.25-1.25c0-0.69-0.56-1.25-1.25-1.25h-3.57c-0.07,0.86-0.21,1.69-0.41,2.5H269.5z"/>
				<path class="st0" d="M250.5,245.5c-7.18,0-13,5.82-13,13c0,7.18,5.82,13,13,13c7.18,0,13-5.82,13-13
					C263.5,251.32,257.68,245.5,250.5,245.5z M249.46,256.62l3.23,1.66c1.64,0.84,2.51,2.58,2.21,4.41
					c-0.25,1.58-1.33,2.81-2.8,3.26v0.93c0,0.69-0.56,1.25-1.25,1.25s-1.25-0.56-1.25-1.25v-0.87c-1.58-0.35-2.93-1.42-3.6-2.96
					c-0.28-0.63,0.01-1.37,0.65-1.64c0.63-0.28,1.37,0.02,1.64,0.65c0.46,1.05,1.53,1.68,2.66,1.58c0.05,0,0.11-0.01,0.17-0.02
					c1.04-0.17,1.26-1.06,1.31-1.33c0.1-0.6-0.09-1.38-0.89-1.79l-3.23-1.66c-1.66-0.85-2.54-2.66-2.19-4.5
					c0.34-1.79,1.7-3.08,3.48-3.33v-0.9c0-0.69,0.56-1.25,1.25-1.25s1.25,0.56,1.25,1.25v1.2c1.28,0.48,2.33,1.45,2.89,2.74
					c0.28,0.63-0.01,1.37-0.65,1.64c-0.63,0.27-1.37-0.02-1.64-0.65c-0.46-1.05-1.53-1.69-2.66-1.58c-1.15,0.12-1.41,1.05-1.46,1.33
					C248.47,255.41,248.64,256.2,249.46,256.62z"/>
			</g>
		</g>
	</g>
	<g>
		<g>
			<path class="st0" d="M196.63,259.7c-4.97,0-9,4.03-9,9c0,4.97,4.03,9,9,9s9-4.03,9-9C205.63,263.73,201.6,259.7,196.63,259.7z
				 M196.18,267.11l2.03,1.05c1.21,0.63,1.86,1.91,1.64,3.27c-0.17,1.06-0.83,1.89-1.76,2.3v0.27c0,0.69-0.56,1.25-1.25,1.25
				c-0.69,0-1.25-0.56-1.25-1.25v-0.19c-0.98-0.32-1.8-1.05-2.23-2.03c-0.28-0.63,0.02-1.37,0.65-1.64
				c0.63-0.27,1.37,0.02,1.64,0.65c0.21,0.48,0.69,0.76,1.21,0.72c0.39-0.06,0.49-0.28,0.52-0.46c0.02-0.11,0.04-0.46-0.32-0.65
				l-2.03-1.05c-1.23-0.63-1.88-1.97-1.62-3.33c0.22-1.19,1.06-2.09,2.18-2.39v-0.19c0-0.69,0.56-1.25,1.25-1.25
				c0.69,0,1.25,0.56,1.25,1.25v0.46c0.78,0.38,1.42,1.01,1.78,1.84c0.28,0.63-0.01,1.37-0.65,1.65c-0.64,0.28-1.37-0.01-1.65-0.65
				c-0.21-0.48-0.69-0.76-1.21-0.72c-0.38,0.04-0.48,0.31-0.51,0.46C195.85,266.59,195.83,266.93,196.18,267.11z"/>
			<path class="st0" d="M198.9,239.96l-2.22,1.21c-0.3,0.16-0.66,0.16-0.96,0l-3.21-1.75c-0.3-0.16-0.66-0.16-0.96,0l-3.21,1.75
				c-0.3,0.16-0.66,0.16-0.96,0l-3.21-1.75c-0.3-0.16-0.66-0.16-0.96,0l-3.21,1.75c-0.3,0.16-0.66,0.16-0.96,0l-2.2-1.2
				c-0.67-0.36-1.48,0.12-1.48,0.88v32.05c0,0.76,0.81,1.24,1.48,0.88l2.22-1.21c0.3-0.16,0.66-0.16,0.96,0l3.22,1.75
				c0.3,0.16,0.66,0.16,0.96,0l1.88-1.03c-0.61-1.41-0.96-2.95-0.96-4.58c0-6.34,5.16-11.5,11.5-11.5c1.31,0,2.57,0.23,3.75,0.64
				v-17C200.38,240.08,199.56,239.6,198.9,239.96z M181.87,264.25h-1.5c-0.69,0-1.25-0.56-1.25-1.25c0-0.69,0.56-1.25,1.25-1.25h1.5
				c0.69,0,1.25,0.56,1.25,1.25C183.12,263.69,182.57,264.25,181.87,264.25z M184.8,259.25h-4.43c-0.69,0-1.25-0.56-1.25-1.25
				c0-0.69,0.56-1.25,1.25-1.25h4.43c0.69,0,1.25,0.56,1.25,1.25C186.05,258.69,185.49,259.25,184.8,259.25z M195.13,254.25h-14.76
				c-0.69,0-1.25-0.56-1.25-1.25c0-0.69,0.56-1.25,1.25-1.25h14.76c0.69,0,1.25,0.56,1.25,1.25
				C196.38,253.69,195.82,254.25,195.13,254.25z M195.13,249.25h-14.76c-0.69,0-1.25-0.56-1.25-1.25c0-0.69,0.56-1.25,1.25-1.25
				h14.76c0.69,0,1.25,0.56,1.25,1.25C196.38,248.69,195.82,249.25,195.13,249.25z"/>
		</g>
	</g>
	<g>
		<g>
			<g>
				<path class="st0" d="M123.13,241.93c-0.78-0.78-1.96-0.87-2.63-0.2l-6.06,6.06c-0.67,0.67-0.58,1.85,0.2,2.63
					c0,0,0.2,0.2,0.44,0.44c0.24,0.24,0.76,0.13,1.15-0.27l7.07-7.07c0.39-0.39,0.51-0.9,0.27-1.15L123.13,241.93z M137.28,256.07
					c0,0-0.2-0.2-0.44-0.44c-0.24-0.24-0.76-0.13-1.15,0.27l-7.07,7.07c-0.39,0.39-0.51,0.9-0.27,1.15l0.44,0.44
					c0.78,0.78,1.96,0.87,2.63,0.2l6.06-6.06C138.15,258.02,138.06,256.85,137.28,256.07z"/>
				<path class="st0" d="M139.48,271.72h-18c-1.1,0-2,0.9-2,2v1.5c0,0.28,0.22,0.5,0.5,0.5h21c0.28,0,0.5-0.22,0.5-0.5v-1.5
					C141.48,272.62,140.58,271.72,139.48,271.72z M123.13,261.72l0.71-0.71l1.24,1.24c0.2,0.2,0.51,0.2,0.71,0l9.19-9.19
					c0.2-0.2,0.2-0.51,0-0.71l-8.13-8.13c-0.2-0.2-0.51-0.2-0.71,0l-9.19,9.19c-0.2,0.2-0.2,0.51,0,0.71l1.24,1.24l-0.71,0.71
					c-0.78,0.78-0.78,2.05,0,2.83l-0.99,0.99c-1.84,1.84-3.9,3.45-6.05,4.93c-1.13,0.78-2.29,1.73-3.34,2.78
					c-3.32,3.32-4.29,6.31-3.05,7.56c1.24,1.24,4.24,0.27,7.56-3.05c1.05-1.05,2.01-2.21,2.78-3.34c1.48-2.15,3.08-4.21,4.93-6.05
					l0.99-0.99C121.09,262.51,122.35,262.51,123.13,261.72z"/>
			</g>
		</g>
	</g>
	<g>
		<g>
			<path class="st0" d="M60.33,268.96c-0.16-0.17-0.41-0.2-0.61-0.07c-1.8,1.1-3.94,1.71-6.24,1.6c-5.41-0.25-9.95-4.58-10.43-9.98
				c-0.49-5.52,3.09-10.27,8.08-11.62c0.22-0.06,0.37-0.25,0.37-0.48v-6.14c0-0.31-0.28-0.55-0.59-0.5
				c-10.22,1.77-17.49,12.14-14.05,23.4c1.52,4.98,6.74,10.09,11.73,11.55c5.95,1.74,11.63,0.48,15.91-2.6
				c0.24-0.17,0.27-0.53,0.06-0.74C63.61,272.37,61.14,269.83,60.33,268.96z M69.6,248.73c-0.18-0.25-0.55-0.28-0.77-0.06
				l-3.31,3.31l-1.76,1.72c-0.16,0.16-0.19,0.4-0.09,0.59c0.84,1.55,1.33,3.32,1.33,5.21c0,2.79-1.04,5.33-2.76,7.27
				c-0.18,0.2-0.17,0.49,0.01,0.68l4.96,4.96c0.2,0.2,0.53,0.2,0.73-0.01c3.14-3.39,5.06-7.92,5.06-12.9
				C73,255.49,71.73,251.79,69.6,248.73z"/>
			<path class="st0" d="M68.01,245.24c-3.49-3.44-8.24-5.6-13.49-5.74c-0.28-0.01-0.52,0.23-0.52,0.51v10.01
				c0,0.27,0.21,0.48,0.48,0.49c2.22,0.12,4.22,1.04,5.72,2.48c0.2,0.19,0.5,0.2,0.69,0.01l2.88-2.8l4.23-4.23
				C68.21,245.76,68.21,245.44,68.01,245.24z"/>
		</g>
	</g>
	<g>
		<g>
			<path class="st0" d="M413,179.16h-37c-0.55,0-1,0.45-1,1v14c0,0.55,0.45,1,1,1h37c0.55,0,1-0.45,1-1v-14
				C414,179.61,413.55,179.16,413,179.16z M387.28,188.7l-1.08,1.88l-2.26-1.71l0.29,2.29h-2l0.29-2.29l-2.26,1.71l-1.08-1.88
				l2.59-1.09l-2.59-1.09l1.08-1.88l2.25,1.7l-0.27-2.18h2l-0.27,2.18l2.25-1.7l1.08,1.88l-2.59,1.09L387.28,188.7z M398.56,188.7
				l-1.08,1.88l-2.26-1.71l0.29,2.29h-2l0.29-2.29l-2.26,1.71l-1.08-1.88l2.59-1.09l-2.59-1.09l1.08-1.88l2.25,1.7l-0.27-2.18h2
				l-0.27,2.18l2.25-1.7l1.08,1.88l-2.59,1.09L398.56,188.7z M409.84,188.7l-1.08,1.88l-2.26-1.71l0.29,2.29h-2l0.29-2.29
				l-2.26,1.71l-1.08-1.88l2.59-1.09l-2.59-1.09l1.08-1.88l2.25,1.7l-0.27-2.18h2l-0.27,2.18l2.25-1.7l1.08,1.88l-2.59,1.09
				L409.84,188.7z"/>
			<path class="st0" d="M411.75,197.84h-34.5c-0.83,0-1.5,0.67-1.5,1.5c0,0.83,0.67,1.5,1.5,1.5h34.5c0.83,0,1.5-0.67,1.5-1.5
				C413.25,198.51,412.58,197.84,411.75,197.84z"/>
		</g>
	</g>
	<g>
		<g>
			<path class="st0" d="M317.76,194.26c-0.69-0.11-1.32,0.37-1.42,1.05c-0.41,2.73-1,5.33-1.73,7.74c-0.2,0.66,0.17,1.36,0.83,1.56
				c0.12,0.04,0.25,0.06,0.37,0.06c0.54,0,1.03-0.35,1.2-0.88c0.77-2.52,1.38-5.25,1.82-8.1C318.91,195,318.44,194.37,317.76,194.26
				z M328.43,181.44c-1.67-0.33-3.18-0.01-4.38,0.92c-1.46,1.14-2.38,3.14-2.51,5.5c-0.24,4.39-0.62,7.74-1.23,10.87
				c-0.13,0.68,0.31,1.33,0.99,1.47c0.68,0.14,1.33-0.31,1.47-0.99c0.63-3.24,1.03-6.7,1.28-11.21c0.09-1.61,0.67-2.98,1.55-3.67
				c0.63-0.49,1.4-0.63,2.36-0.44c2.04,0.41,2.73,1.91,2.54,5.57c-0.18,3.53-0.6,7.09-1.28,10.6c-0.13,0.68,0.31,1.33,0.99,1.46
				c0.08,0.02,0.16,0.02,0.24,0.02c0.59,0,1.11-0.42,1.23-1.02c0.69-3.62,1.14-7.3,1.32-10.94
				C333.08,187.62,333.34,182.41,328.43,181.44z M329.77,203.45c-0.66-0.17-1.35,0.23-1.52,0.9c-0.24,0.91-0.5,1.81-0.77,2.71
				c-0.2,0.66,0.17,1.36,0.83,1.56c0.12,0.04,0.25,0.06,0.37,0.06c0.54,0,1.03-0.35,1.2-0.88c0.29-0.93,0.56-1.87,0.8-2.82
				C330.84,204.31,330.44,203.62,329.77,203.45z"/>
			<path class="st0" d="M320.95,201.69c-0.66-0.18-1.35,0.22-1.53,0.88c-0.24,0.9-0.53,1.84-0.87,2.88
				c-0.22,0.65,0.14,1.36,0.79,1.58c0.13,0.04,0.26,0.06,0.39,0.06c0.52,0,1.01-0.33,1.19-0.86c0.36-1.09,0.66-2.08,0.92-3.03
				C322.02,202.55,321.62,201.87,320.95,201.69z M327.31,185.83L327.31,185.83c-0.69,0-1.25,0.56-1.26,1.24
				c-0.03,6.88-1.13,13.7-3.19,19.73c-0.22,0.65,0.13,1.36,0.78,1.59c0.13,0.05,0.27,0.07,0.4,0.07c0.52,0,1.01-0.33,1.18-0.85
				c2.14-6.28,3.29-13.38,3.32-20.52C328.56,186.39,328,185.83,327.31,185.83z M327.21,174.83c0.69-0.01,1.25-0.57,1.24-1.26
				c-0.01-0.69-0.54-1.21-1.26-1.24c-6.7,0.06-12.68,4.81-14.23,11.29c-0.39,1.64-0.45,3.3-0.5,4.92c-0.03,0.85-0.06,1.65-0.13,2.45
				c-0.26,2.87-0.71,5.63-1.32,8.19c-0.16,0.67,0.25,1.35,0.92,1.51c0.1,0.02,0.2,0.03,0.29,0.03c0.56,0,1.08-0.39,1.21-0.96
				c0.64-2.68,1.11-5.56,1.38-8.55c0.08-0.87,0.11-1.74,0.14-2.59c0.05-1.56,0.11-3.03,0.44-4.43
				C316.67,178.82,321.64,174.87,327.21,174.83z M332.87,173.41c-0.64-0.26-1.37,0.05-1.63,0.69c-0.26,0.64,0.05,1.37,0.69,1.63
				c4.96,2.01,7.8,6.84,7.6,12.9c-0.16,4.73-0.73,9.51-1.71,14.2c-0.14,0.68,0.29,1.34,0.97,1.48c0.09,0.02,0.17,0.03,0.26,0.03
				c0.58,0,1.1-0.41,1.22-0.99c1.01-4.83,1.6-9.75,1.77-14.63C342.25,181.66,338.75,175.8,332.87,173.41z M326.97,176.83
				c-3.41,0.11-6.64,1.98-8.41,4.88c-1.38,2.24-1.47,4.63-1.57,6.94c-0.02,0.56-0.05,1.12-0.09,1.68c-0.05,0.69,0.46,1.29,1.15,1.34
				c0.7,0.05,1.29-0.46,1.34-1.15c0.04-0.59,0.07-1.18,0.09-1.77c0.09-2.08,0.17-4.05,1.2-5.74c1.34-2.19,3.78-3.61,6.36-3.69
				c2.95-0.09,5.69,1.5,7.07,4.06c1.16,2.15,0.98,4.65,0.79,7.3l-0.03,0.43c-0.05,0.69,0.47,1.29,1.16,1.34c0.03,0,0.06,0,0.09,0
				c0.65,0,1.2-0.5,1.25-1.16l0.03-0.43c0.2-2.75,0.42-5.88-1.09-8.67C334.49,178.81,330.79,176.71,326.97,176.83z M335.88,194.13
				c-0.67-0.08-1.31,0.41-1.39,1.09c-0.46,3.77-1.14,7.39-2.04,10.75c-0.18,0.67,0.22,1.35,0.89,1.53c0.11,0.03,0.22,0.04,0.32,0.04
				c0.55,0,1.06-0.37,1.21-0.93c0.92-3.47,1.63-7.2,2.1-11.09C337.06,194.84,336.57,194.21,335.88,194.13z"/>
		</g>
	</g>
	<g>
		<g>
			<g>
				<path class="st0" d="M275.59,194.46c-0.86-1.08-2.42-1.27-3.51-0.42l-7.08,5.55c-0.35,0.28-0.79,0.43-1.23,0.43l-5.07,0.01
					c-0.69,0-1.25-0.56-1.25-1.25c0-0.69,0.56-1.25,1.25-1.25l4.25,0c1.38,0,2.5-1.12,2.5-2.5c0-1.38-1.12-2.5-2.5-2.5l-4.71,0
					l-3.21,0l-1.81,0l-0.66,0c-1.34,0-2.65,0.45-3.7,1.28l-3.47,2.73c-0.22,0.17-0.26,0.49-0.08,0.7l6.74,8.53
					c0.09,0.12,0.24,0.19,0.39,0.19l8.16,0.07l2.26,0.02c1.37,0.01,2.7-0.44,3.77-1.29l8.57-6.77
					C276.26,197.12,276.45,195.54,275.59,194.46z"/>
				<path class="st0" d="M243.33,198.78c-0.17-0.22-0.49-0.25-0.7-0.08l-1.57,1.24c-0.22,0.17-0.25,0.49-0.08,0.7l6.58,8.33
					c0.17,0.22,0.49,0.25,0.7,0.08l1.57-1.24c0.22-0.17,0.25-0.49,0.08-0.7L243.33,198.78z M262.55,171.84
					c-4.86,0-8.81,3.94-8.81,8.81c0,4.86,3.94,8.81,8.81,8.81s8.81-3.94,8.81-8.81C271.36,175.78,267.42,171.84,262.55,171.84z
					 M262.06,178.95l2.03,1.05c1.21,0.62,1.86,1.91,1.64,3.26c-0.17,1.06-0.83,1.89-1.76,2.3v0.27c0,0.69-0.56,1.25-1.25,1.25
					s-1.25-0.56-1.25-1.25v-0.19c-0.98-0.32-1.8-1.04-2.23-2.03c-0.28-0.63,0.02-1.37,0.65-1.64c0.63-0.28,1.37,0.02,1.64,0.65
					c0.21,0.48,0.7,0.76,1.21,0.72c0.39-0.06,0.49-0.28,0.52-0.46c0.02-0.1,0.04-0.46-0.32-0.65l-2.03-1.05
					c-1.23-0.63-1.88-1.97-1.62-3.33c0.22-1.19,1.06-2.09,2.18-2.39v-0.19c0-0.69,0.56-1.25,1.25-1.25s1.25,0.56,1.25,1.25v0.46
					c0.78,0.38,1.42,1.01,1.78,1.84c0.28,0.63-0.01,1.37-0.65,1.65c-0.64,0.28-1.37-0.01-1.65-0.65c-0.21-0.48-0.7-0.77-1.21-0.72
					c-0.38,0.04-0.48,0.31-0.51,0.46C261.73,178.44,261.71,178.77,262.06,178.95z"/>
			</g>
		</g>
	</g>
	<g>
		<g>
			<path class="st0" d="M192.88,190.16l-3.38-1.74c-0.77-0.39-0.93-1.14-0.82-1.7c0.05-0.26,0.29-1.12,1.36-1.24
				c1.09-0.1,2.15,0.52,2.59,1.54c0.33,0.76,1.21,1.11,1.97,0.78c0.76-0.33,1.11-1.21,0.78-1.97c-0.59-1.37-1.68-2.39-3.01-2.93
				v-1.12c0-0.83-0.67-1.5-1.5-1.5c-0.83,0-1.5,0.67-1.5,1.5v0.79c-1.87,0.32-3.28,1.7-3.64,3.61c-0.38,2.01,0.59,3.99,2.4,4.92
				l3.38,1.74c0.75,0.39,0.92,1.12,0.83,1.68c-0.04,0.25-0.24,1.08-1.2,1.23c-0.06,0.01-0.12,0.02-0.18,0.02
				c-1.1,0.1-2.15-0.52-2.59-1.54c-0.33-0.76-1.21-1.11-1.97-0.78c-0.76,0.33-1.11,1.21-0.78,1.97c0.7,1.62,2.11,2.76,3.75,3.17
				v0.75c0,0.83,0.67,1.5,1.5,1.5c0.83,0,1.5-0.67,1.5-1.5v-0.83c1.54-0.53,2.66-1.84,2.93-3.52
				C195.63,192.97,194.68,191.08,192.88,190.16z"/>
			<path class="st0" d="M202.87,178.12c-6.22-6.22-15.99-6.75-22.83-1.62l-1.41-1.41c-0.79-0.79-2.16-0.32-2.29,0.79l-0.77,6.38
				c-0.11,0.87,0.63,1.6,1.5,1.5l6.38-0.77c1.12-0.14,1.59-1.5,0.79-2.29l-1.34-1.34c5.67-3.87,13.64-2.96,18.2,2.77
				c3.85,4.85,3.84,11.9-0.02,16.74c-5.11,6.4-14.5,6.79-20.13,1.16c-3.29-3.29-4.51-7.87-3.68-12.13c0.06-0.31-0.17-0.6-0.48-0.6
				l-3.05,0c-0.25,0-0.46,0.18-0.5,0.42c-0.98,6.14,1.3,12.69,6.86,16.84c6.28,4.69,15.14,4.53,21.27-0.36
				C209.66,197.59,210.16,185.41,202.87,178.12z"/>
		</g>
	</g>
	<g>
		<g>
			<path class="st0" d="M122.5,187c-1.65,0-3,1.35-3,3c0,1.65,1.35,3,3,3s3-1.35,3-3C125.5,188.35,124.15,187,122.5,187z
				 M140.15,188.58c-2.8-2.76-9.65-8.58-17.65-8.58s-14.86,5.82-17.65,8.58c-0.79,0.78-0.79,2.05,0,2.84
				c2.8,2.76,9.65,8.58,17.65,8.58s14.86-5.82,17.65-8.58C140.95,190.64,140.95,189.36,140.15,188.58z M122.5,196
				c-3.31,0-6-2.69-6-6c0-3.31,2.69-6,6-6s6,2.69,6,6C128.5,193.31,125.81,196,122.5,196z"/>
			<path class="st0" d="M113.07,173.8h-4.8c-1.64,0-2.97,1.33-2.97,2.97v4.8c0,0.83,0.67,1.5,1.5,1.5c0.83,0,1.5-0.67,1.5-1.5
				l-0.03-4.77h4.8c0.83,0,1.5-0.67,1.5-1.5C114.57,174.47,113.89,173.8,113.07,173.8z M113.07,204.2l-4.77,0.03v-4.8
				c0-0.83-0.67-1.5-1.5-1.5c-0.83,0-1.5,0.67-1.5,1.5v4.8c0,1.64,1.33,2.97,2.97,2.97h4.8c0.83,0,1.5-0.67,1.5-1.5
				C114.57,204.87,113.89,204.2,113.07,204.2z M135.73,173.8h-4.8c-0.83,0-1.5,0.67-1.5,1.5c0,0.83,0.67,1.5,1.5,1.5l4.77-0.03v4.8
				c0,0.83,0.67,1.5,1.5,1.5c0.83,0,1.5-0.67,1.5-1.5v-4.8C138.7,175.13,137.37,173.8,135.73,173.8z M137.2,197.93
				c-0.83,0-1.5,0.67-1.5,1.5l0.03,4.77h-4.8c-0.83,0-1.5,0.67-1.5,1.5c0,0.83,0.67,1.5,1.5,1.5h4.8c1.64,0,2.97-1.33,2.97-2.97
				v-4.8C138.7,198.61,138.03,197.93,137.2,197.93z"/>
		</g>
	</g>
	<g>
		<g>
			<g>
				<g>
					<path class="st0" d="M45.29,180.63l-2.3-1.92c0.96-2.2,0.26-4.83-1.8-6.22c-2.32-1.57-5.47-0.96-7.04,1.36
						c-1.57,2.32-0.96,5.47,1.36,7.04c1.71,1.16,3.88,1.12,5.53,0.1l2.37,1.98C43.92,182.11,44.56,181.32,45.29,180.63z
						 M49.49,202.21l0.65-2.45c-0.99-0.26-1.93-0.66-2.79-1.16l-0.79,2.96c-1.02,0.18-1.97,0.74-2.6,1.67
						c-1.22,1.8-0.75,4.26,1.05,5.48c1.8,1.22,4.26,0.75,5.48-1.05C51.71,205.86,51.25,203.44,49.49,202.21z M73.93,183.46
						c-1.87-1.26-4.41-0.78-5.67,1.09c-0.22,0.33-0.37,0.68-0.49,1.04l-3.84,0.26c0.26,0.95,0.41,1.95,0.41,2.98l3.62-0.24
						c0.3,0.64,0.76,1.21,1.38,1.63c1.87,1.26,4.41,0.78,5.67-1.09C76.29,187.26,75.8,184.72,73.93,183.46z"/>
					<path class="st0" d="M53.04,180.03c-4.86,0-8.81,3.94-8.81,8.81c0,4.86,3.94,8.81,8.81,8.81s8.81-3.94,8.81-8.81
						C61.85,183.98,57.9,180.03,53.04,180.03z M52.55,187.15l2.03,1.05c1.21,0.62,1.86,1.91,1.64,3.26
						c-0.17,1.06-0.83,1.89-1.76,2.3v0.58c0,0.69-0.56,1.25-1.25,1.25c-0.69,0-1.25-0.56-1.25-1.25v-0.5
						c-0.98-0.32-1.8-1.04-2.23-2.03c-0.28-0.63,0.02-1.37,0.65-1.64c0.63-0.28,1.37,0.02,1.64,0.65c0.21,0.48,0.7,0.76,1.21,0.72
						c0.39-0.06,0.49-0.28,0.52-0.46c0.02-0.1,0.04-0.46-0.32-0.65l-2.03-1.05c-1.23-0.63-1.88-1.97-1.62-3.33
						c0.22-1.19,1.06-2.09,2.18-2.39v-0.19c0-0.69,0.56-1.25,1.25-1.25c0.69,0,1.25,0.56,1.25,1.25v0.46
						c0.78,0.38,1.42,1.01,1.78,1.84c0.28,0.63-0.01,1.37-0.65,1.65c-0.64,0.28-1.37-0.01-1.65-0.65c-0.21-0.48-0.7-0.77-1.21-0.72
						c-0.38,0.04-0.48,0.31-0.51,0.46C52.22,186.63,52.2,186.96,52.55,187.15z"/>
				</g>
			</g>
		</g>
	</g>
	<g>
		<g>
			<path class="st0" d="M405.54,121.54h6.33v-5.67c0-1.1-0.9-2-2-2h-13.29c-0.38,6-5.37,10.77-11.46,10.77
				c-2.3,0-4.45-0.69-6.25-1.86v14.09c0,2.21,1.79,4,4,4h27c1.1,0,2-0.9,2-2v-4.99h-6.33c-3.4,0-6.17-2.77-6.17-6.17
				C399.38,124.31,402.14,121.54,405.54,121.54z M408.88,110.87v-2c0-1.1-0.9-2-2-2h-12.12c0.78,1.2,1.35,2.55,1.64,4H408.88z"/>
			<path class="st0" d="M385.13,104.13c-4.97,0-9,4.03-9,9c0,4.97,4.03,9,9,9s9-4.03,9-9C394.13,108.16,390.1,104.13,385.13,104.13z
				 M384.69,111.41l2.03,1.05c1.21,0.62,1.86,1.91,1.64,3.27c-0.17,1.06-0.83,1.89-1.76,2.3v0.27c0,0.69-0.56,1.25-1.25,1.25
				c-0.69,0-1.25-0.56-1.25-1.25v-0.19c-0.98-0.32-1.8-1.04-2.23-2.03c-0.28-0.63,0.01-1.37,0.65-1.65
				c0.64-0.28,1.37,0.02,1.65,0.65c0.21,0.48,0.7,0.77,1.21,0.72c0.39-0.06,0.49-0.28,0.52-0.46c0.02-0.11,0.04-0.46-0.32-0.65
				l-2.03-1.05c-1.23-0.63-1.88-1.97-1.62-3.33c0.22-1.19,1.06-2.09,2.18-2.39v-0.5c0-0.69,0.56-1.25,1.25-1.25
				c0.69,0,1.25,0.56,1.25,1.25v0.77c0.78,0.38,1.42,1.01,1.78,1.84c0.28,0.63-0.02,1.37-0.65,1.64c-0.63,0.27-1.37-0.02-1.64-0.65
				c-0.21-0.48-0.71-0.76-1.21-0.72c-0.38,0.04-0.48,0.31-0.51,0.46C384.35,110.89,384.33,111.23,384.69,111.41z M412.38,124.04
				h-6.83c-2.03,0-3.67,1.64-3.67,3.67c0,2.02,1.64,3.67,3.67,3.67h6.83c0.28,0,0.5-0.22,0.5-0.5v-6.33
				C412.88,124.26,412.65,124.04,412.38,124.04z M406.38,129.21c-0.83,0-1.5-0.67-1.5-1.5c0-0.83,0.67-1.5,1.5-1.5s1.5,0.67,1.5,1.5
				C407.88,128.53,407.2,129.21,406.38,129.21z"/>
		</g>
	</g>
	<g>
		<g>
			<g>
				<path class="st0" d="M342.58,136.7l-0.1-0.01c0.01-0.51,0.02-1.05,0.02-1.69c0-15.12-8-20-13.33-22h-5.71
					c-4.96,2-12.96,5.88-12.96,22c0,0.63,0.01,1.19,0.02,1.69l-0.1,0.02c-1.1,0.17-1.92,1.12-1.92,2.24c0,1.17,0.89,2.14,2.05,2.25
					l4.39,0.24c2.91,0.96,7.01,1.57,11.56,1.57s8.65-0.6,11.56-1.57l4.39-0.24c1.16-0.11,2.05-1.09,2.05-2.25
					C344.5,137.82,343.68,136.87,342.58,136.7z M325.78,125.26l2.6,1.34c1.41,0.73,2.17,2.22,1.91,3.81
					c-0.21,1.31-1.07,2.33-2.25,2.76v0.58c0,0.69-0.56,1.25-1.25,1.25s-1.25-0.56-1.25-1.25v-0.5c-1.26-0.34-2.33-1.23-2.88-2.48
					c-0.28-0.63,0.01-1.37,0.65-1.65c0.63-0.27,1.37,0.02,1.64,0.65c0.32,0.75,1.08,1.2,1.89,1.13l0.12-0.01
					c0.66-0.1,0.81-0.64,0.85-0.86c0.06-0.4-0.06-0.92-0.59-1.19l-2.6-1.34c-1.43-0.74-2.19-2.3-1.89-3.88
					c0.28-1.48,1.36-2.55,2.79-2.83v-0.53c0-0.69,0.56-1.25,1.25-1.25s1.25,0.56,1.25,1.25v0.81c1.02,0.43,1.85,1.22,2.31,2.27
					c0.28,0.63-0.01,1.37-0.65,1.65c-0.63,0.28-1.37-0.02-1.64-0.65c-0.32-0.74-1.08-1.2-1.89-1.13c-0.75,0.08-0.92,0.69-0.96,0.87
					C325.16,124.25,325.1,124.91,325.78,125.26z"/>
				<path class="st0" d="M330.75,102.23c-0.87-0.55-2.35-0.01-3.6,1.18c-0.61,0.58-1.54,0.58-2.14,0c-1.25-1.19-2.72-1.71-3.6-1.18
					c-2.91,1.76,1.01,7.9,1.37,8.25h6.6C329.74,110.13,333.5,103.99,330.75,102.23z"/>
			</g>
		</g>
	</g>
	<g>
		<g>
			<g>
				<path class="st0" d="M274,138.34h-28.5c-0.83,0-1.5,0.67-1.5,1.5c0,0.83,0.67,1.5,1.5,1.5H274c0.83,0,1.5-0.67,1.5-1.5
					C275.5,139.01,274.83,138.34,274,138.34z"/>
				<path class="st0" d="M274,103.66h-29c-1.1,0-2,0.9-2,2v2.05c-1.14,0.23-2,1.24-2,2.45v5c0,1.21,0.86,2.22,2,2.45v5.1
					c-1.14,0.23-2,1.24-2,2.45v4c0,1.21,0.86,2.22,2,2.45v2.05c0,1.1,0.9,2,2,2h29c1.1,0,2-0.9,2-2v-28
					C276,104.56,275.1,103.66,274,103.66z M251.25,119.88v5.28c0,0.69-0.56,1.25-1.25,1.25s-1.25-0.56-1.25-1.25v-5.28
					c-1.03-0.47-1.75-1.51-1.75-2.72c0-1.66,1.34-3,3-3s3,1.34,3,3C253,118.37,252.28,119.41,251.25,119.88z M271.5,120.91h-1.65
					c-0.14,0.59-0.37,1.15-0.68,1.65l1.17,1.17c0.49,0.49,0.49,1.28,0,1.77c-0.24,0.24-0.56,0.37-0.88,0.37
					c-0.32,0-0.64-0.12-0.88-0.37l-1.17-1.17c-0.5,0.31-1.06,0.55-1.65,0.68v1.65c0,0.69-0.56,1.25-1.25,1.25
					c-0.69,0-1.25-0.56-1.25-1.25v-1.65c-0.59-0.14-1.15-0.37-1.65-0.68l-1.17,1.17c-0.24,0.24-0.56,0.37-0.88,0.37
					c-0.32,0-0.64-0.12-0.88-0.37c-0.49-0.49-0.49-1.28,0-1.77l1.17-1.17c-0.31-0.5-0.55-1.06-0.68-1.65h-1.65
					c-0.69,0-1.25-0.56-1.25-1.25c0-0.69,0.56-1.25,1.25-1.25h1.65c0.14-0.59,0.37-1.15,0.68-1.65l-1.17-1.17
					c-0.49-0.49-0.49-1.28,0-1.77c0.49-0.49,1.28-0.49,1.77,0l1.17,1.17c0.5-0.31,1.06-0.55,1.65-0.68v-1.65
					c0-0.69,0.56-1.25,1.25-1.25c0.69,0,1.25,0.56,1.25,1.25v1.65c0.59,0.14,1.15,0.37,1.65,0.68l1.17-1.17
					c0.49-0.49,1.28-0.49,1.77,0c0.49,0.49,0.49,1.28,0,1.77l-1.17,1.17c0.31,0.5,0.55,1.06,0.68,1.65h1.65
					c0.69,0,1.25,0.56,1.25,1.25C272.75,120.35,272.19,120.91,271.5,120.91z M264.5,117.16c-1.38,0-2.5,1.12-2.5,2.5
					c0,1.38,1.12,2.5,2.5,2.5c1.38,0,2.5-1.12,2.5-2.5C267,118.28,265.88,117.16,264.5,117.16z"/>
			</g>
		</g>
	</g>
	<g>
		<g>
			<g>
				<path class="st0" d="M183.85,127.67c-0.07-0.21-0.26-0.34-0.48-0.34h-2.45c-4.33,0-7.83,3.51-7.83,7.83v3.48
					c0,0.64,0.52,1.17,1.17,1.17h12.86c0.34,0,0.58-0.33,0.48-0.65L183.85,127.67z M200.07,127.33h-2.44
					c-0.22,0-0.41,0.14-0.48,0.34l-3.74,11.48c-0.11,0.32,0.14,0.65,0.48,0.65h12.85c0.64,0,1.17-0.52,1.17-1.17v-3.48
					C207.9,130.83,204.4,127.33,200.07,127.33z M200.11,114.81c0-5.31-4.3-9.61-9.61-9.61c-5.31,0-9.61,4.3-9.61,9.61
					c0,5.31,4.3,9.61,9.61,9.61C195.81,124.41,200.11,120.11,200.11,114.81z"/>
				<path class="st0" d="M190.5,127.6c-0.83,0-1.5,0.67-1.5,1.5v8c0,0.83,0.67,1.5,1.5,1.5c0.83,0,1.5-0.67,1.5-1.5v-8
					C192,128.27,191.33,127.6,190.5,127.6z"/>
			</g>
		</g>
	</g>
	<g>
		<g>
			<path class="st0" d="M138.66,110.67c-6.31-0.78-12.38-5.5-14.92-7.71c-0.71-0.62-1.77-0.62-2.48,0
				c-2.54,2.21-8.61,6.93-14.92,7.71c-1,0.12-1.75,0.97-1.71,1.98c0.78,19.18,13.39,27.6,16.94,29.6c0.58,0.33,1.27,0.33,1.85,0
				c3.56-2,16.17-10.42,16.94-29.6C140.41,111.65,139.66,110.8,138.66,110.67z M122.5,132.01c-5.25,0-9.51-4.26-9.51-9.51
				c0-5.25,4.26-9.51,9.51-9.51s9.51,4.26,9.51,9.51C132.01,127.75,127.75,132.01,122.5,132.01z"/>
			<polygon class="st0" points="126.7,117.69 121.03,123.36 118.27,120.6 116.31,122.56 119.07,125.32 121.06,127.31 123.02,125.35 
				128.69,119.68 			"/>
		</g>
	</g>
	<g>
		<g>
			<g>
				<g>
					<path class="st0" d="M64.63,103.42c-4.97,0-9,4.03-9,9c0,4.97,4.03,9,9,9s9-4.03,9-9C73.63,107.45,69.6,103.42,64.63,103.42z
						 M64.19,110.69l2.03,1.05c1.21,0.62,1.86,1.91,1.64,3.27c-0.17,1.06-0.83,1.89-1.76,2.3v0.27c0,0.69-0.56,1.25-1.25,1.25
						c-0.69,0-1.25-0.56-1.25-1.25v-0.19c-0.98-0.32-1.8-1.04-2.23-2.03c-0.28-0.63,0.01-1.37,0.65-1.64
						c0.64-0.28,1.37,0.02,1.65,0.65c0.21,0.48,0.7,0.77,1.21,0.72c0.39-0.06,0.49-0.28,0.52-0.46c0.02-0.1,0.04-0.46-0.32-0.65
						l-2.03-1.05c-1.23-0.63-1.88-1.97-1.62-3.33c0.22-1.19,1.06-2.09,2.18-2.39V107c0-0.69,0.56-1.25,1.25-1.25
						c0.69,0,1.25,0.56,1.25,1.25v0.46c0.78,0.38,1.42,1.01,1.78,1.84c0.28,0.63-0.02,1.37-0.65,1.64
						c-0.63,0.28-1.37-0.02-1.64-0.65c-0.21-0.48-0.7-0.77-1.21-0.72c-0.38,0.04-0.48,0.31-0.51,0.46
						C63.85,110.18,63.83,110.51,64.19,110.69z"/>
					<path class="st0" d="M63.71,124.61c-0.74-0.12-1.58,0.17-2.17,0.67c-0.2-0.83-0.99-1.53-1.83-1.67c-0.7-0.11-1.5,0.14-2.07,0.6
						c-0.26-0.8-1.11-1.46-1.93-1.6c-0.79-0.13-1.87,0.29-2.34,0.88v-6.32c0-0.87-0.51-1.72-1.35-1.98
						c-1.38-0.44-2.65,0.58-2.65,1.9v16c-1.1,0-2-0.9-2-2v-1.81c0-0.38-0.31-0.69-0.69-0.69h-0.6c-1.49,0-2.7,1.21-2.7,2.7v4.94
						c0,0.86,0.37,1.69,1.02,2.26l2.69,2.36c0.55,0.48,1.25,0.74,1.98,0.74h11.07c0.8,0,1.56-0.32,2.12-0.88l2.24-2.24
						c0.56-0.56,0.88-1.33,0.88-2.12v-9.65C65.38,125.69,64.69,124.77,63.71,124.61z M46.88,122.58h-2.5c-0.55,0-1-0.45-1-1v-12
						c0-0.55,0.45-1,1-1h9.42c0.39-1.08,0.93-2.09,1.6-3H39.38c-2.21,0-4,1.79-4,4v12c0,2.21,1.79,4,4,4h7.5V122.58z M40.16,117.27
						c-0.93,0-1.68-0.75-1.68-1.68s0.75-1.68,1.68-1.68c0.93,0,1.68,0.75,1.68,1.68S41.09,117.27,40.16,117.27z"/>
				</g>
			</g>
		</g>
	</g>
</g>
<g id="title">
</g>
</svg>
