<?xml version="1.0" encoding="utf-8"?>
<!-- Generator: Adobe Illustrator 24.1.1, SVG Export Plug-In . SVG Version: 6.00 Build 0)  -->
<svg version="1.1" xmlns="http://www.w3.org/2000/svg" xmlns:xlink="http://www.w3.org/1999/xlink" x="0px" y="0px"
	 viewBox="0 0 448 448" style="enable-background:new 0 0 448 448;" xml:space="preserve">
<style type="text/css">
	.st0{fill:#173042;}
</style>
<g id="grid">
</g>
<g id="icons">
	<g>
		<g>
			<path class="st0" d="M404,393.34c-4.97,0-9,4.03-9,9c0,4.97,4.03,9,9,9c4.97,0,9-4.03,9-9C413,397.37,408.97,393.34,404,393.34z
				 M403.56,400.62l2.03,1.05c1.21,0.63,1.86,1.91,1.64,3.27c-0.17,1.06-0.83,1.89-1.76,2.3v0.27c0,0.69-0.56,1.25-1.25,1.25
				c-0.69,0-1.25-0.56-1.25-1.25v-0.19c-0.98-0.32-1.8-1.04-2.23-2.03c-0.28-0.63,0.01-1.37,0.65-1.65
				c0.64-0.27,1.37,0.01,1.65,0.65c0.21,0.48,0.7,0.76,1.21,0.72c0.39-0.06,0.49-0.28,0.52-0.46c0.02-0.11,0.04-0.46-0.32-0.65
				l-2.03-1.05c-1.23-0.63-1.88-1.97-1.62-3.33c0.22-1.19,1.06-2.09,2.18-2.39v-0.19c0-0.69,0.56-1.25,1.25-1.25
				c0.69,0,1.25,0.56,1.25,1.25v0.46c0.78,0.38,1.42,1.01,1.78,1.84c0.28,0.63-0.02,1.37-0.65,1.64c-0.63,0.27-1.37-0.02-1.64-0.65
				c-0.21-0.48-0.7-0.76-1.21-0.72c-0.38,0.04-0.48,0.31-0.51,0.46C403.23,400.1,403.21,400.43,403.56,400.62z"/>
			<path class="st0" d="M407,377.66h-4c-1.1,0-2,0.9-2,2c0,1.1-0.9,2-2,2c-1.1,0-2-0.9-2-2c0-1.1-0.9-2-2-2h-5c-1.1,0-2,0.9-2,2
				c0,1.1-0.9,2-2,2c-1.1,0-2-0.9-2-2c0-1.1-0.9-2-2-2h-4c-1.1,0-2,0.9-2,2v25c0,1.1,0.9,2,2,2h15.35
				c-0.54-1.34-0.85-2.79-0.85-4.32c0-6.34,5.16-11.5,11.5-11.5c1.79,0,3.49,0.42,5,1.16v-12.34C409,378.56,408.1,377.66,407,377.66
				z M382,401.84c-1.1,0-2-0.9-2-2c0-1.1,0.9-2,2-2c1.1,0,2,0.9,2,2C384,400.94,383.1,401.84,382,401.84z M382,395.84
				c-1.1,0-2-0.9-2-2c0-1.1,0.9-2,2-2c1.1,0,2,0.9,2,2C384,394.94,383.1,395.84,382,395.84z M388,401.84c-1.1,0-2-0.9-2-2
				c0-1.1,0.9-2,2-2c1.1,0,2,0.9,2,2C390,400.94,389.1,401.84,388,401.84z M388,395.84c-1.1,0-2-0.9-2-2c0-1.1,0.9-2,2-2
				c1.1,0,2,0.9,2,2C390,394.94,389.1,395.84,388,395.84z M388,389.84c-1.1,0-2-0.9-2-2c0-1.1,0.9-2,2-2c1.1,0,2,0.9,2,2
				C390,388.94,389.1,389.84,388,389.84z M394,389.84c-1.1,0-2-0.9-2-2c0-1.1,0.9-2,2-2c1.1,0,2,0.9,2,2
				C396,388.94,395.1,389.84,394,389.84z"/>
		</g>
	</g>
	<g>
		<g>
			<g>
				<path class="st0" d="M318.05,394.86c-0.96-0.96-2.55-0.9-3.43,0.18c-0.77,0.94-0.6,2.33,0.25,3.18l2.54,2.54
					c0.5,0.5,0.5,1.31,0,1.81c-0.5,0.5-1.31,0.5-1.81,0l-2.47-2.47c-0.94-0.94-1.48-2.18-1.53-3.5l0.02-5.99
					c0-1.47-1.26-2.64-2.76-2.49c-1.3,0.13-2.24,1.32-2.24,2.63v6.16c0,1.42,0.5,2.79,1.42,3.87l5.62,6.65
					c0.09,0.11,0.23,0.18,0.38,0.18l10.27,0.01c0.28,0,0.5-0.22,0.5-0.5v-3.03c0-1.59-0.63-3.12-1.76-4.24L318.05,394.86z
					 M344.14,388.13c-1.5-0.15-2.76,1.02-2.76,2.49l0.02,5.99c-0.05,1.32-0.59,2.56-1.53,3.5l-2.47,2.47c-0.5,0.5-1.31,0.5-1.81,0
					c-0.5-0.5-0.5-1.31,0-1.81l2.54-2.54c0.85-0.85,1.02-2.25,0.25-3.18c-0.88-1.08-2.47-1.14-3.43-0.18l-5,5
					c-1.13,1.13-1.76,2.65-1.76,4.24v3.03c0,0.28,0.22,0.5,0.5,0.5l10.27-0.01c0.15,0,0.29-0.07,0.38-0.18l5.62-6.65
					c0.92-1.08,1.42-2.45,1.42-3.87v-6.16C346.38,389.45,345.44,388.26,344.14,388.13z"/>
				<path class="st0" d="M324.57,410.39H314.3c-0.28,0-0.5,0.22-0.5,0.5v2c0,0.28,0.22,0.5,0.5,0.5h10.27c0.28,0,0.5-0.22,0.5-0.5
					v-2C325.07,410.61,324.85,410.39,324.57,410.39z M338.7,410.39h-10.27c-0.28,0-0.5,0.22-0.5,0.5v2c0,0.28,0.22,0.5,0.5,0.5
					h10.27c0.28,0,0.5-0.22,0.5-0.5v-2C339.2,410.61,338.97,410.39,338.7,410.39z M336.8,385.61c0-5.52-4.48-10-10-10
					c-5.52,0-10,4.48-10,10c0,5.52,4.48,10,10,10C332.32,395.61,336.8,391.14,336.8,385.61z M326.17,383.84l2.31,1.19
					c1.31,0.67,2.01,2.06,1.77,3.53c-0.19,1.18-0.95,2.1-2,2.52v0.42c0,0.69-0.56,1.25-1.25,1.25s-1.25-0.56-1.25-1.25v-0.33
					c-1.12-0.33-2.06-1.14-2.54-2.26c-0.28-0.63,0.01-1.37,0.65-1.64c0.63-0.27,1.37,0.02,1.64,0.65c0.26,0.61,0.89,0.98,1.54,0.92
					l0.11-0.01c0.48-0.08,0.6-0.48,0.63-0.65c0.02-0.15,0.06-0.65-0.45-0.91l-2.31-1.19c-1.33-0.68-2.03-2.13-1.76-3.6
					c0.25-1.33,1.21-2.32,2.48-2.61v-0.35c0-0.69,0.56-1.25,1.25-1.25s1.25,0.56,1.25,1.25v0.62c0.89,0.4,1.63,1.12,2.04,2.06
					c0.28,0.63-0.02,1.37-0.65,1.64c-0.63,0.28-1.37-0.02-1.64-0.65c-0.26-0.61-0.89-0.97-1.54-0.92c-0.56,0.06-0.69,0.48-0.73,0.66
					C325.7,383.07,325.65,383.57,326.17,383.84z"/>
			</g>
		</g>
	</g>
	<g>
		<g>
			<g>
				<g>
					<path class="st0" d="M247.01,381.5h19v-2c0-2.21-1.79-4-4-4h-16c-2.21,0-4,1.79-4,4v30c0,2.21,1.79,4,4,4h16c2.21,0,4-1.79,4-4
						v-5h-19c-0.55,0-1-0.45-1-1v-21C246.01,381.95,246.46,381.5,247.01,381.5z M254.9,411h-2c-1.1,0-2-0.9-2-2l0,0c0-1.1,0.9-2,2-2
						h2c1.1,0,2,0.9,2,2l0,0C256.9,410.1,256,411,254.9,411z"/>
					<path class="st0" d="M272.99,383.97h-21.95c-1.1,0-2,0.9-2,2V400c0,1.1,0.9,2,2,2h21.95c1.1,0,2-0.9,2-2v-14.03
						C274.99,384.86,274.09,383.97,272.99,383.97z M255.48,386.36c1.1,0,1.99,0.89,1.99,1.99s-0.89,1.99-1.99,1.99
						c-1.1,0-1.99-0.89-1.99-1.99S254.38,386.36,255.48,386.36z M257.08,398.37h-2.39c-0.69,0-1.25-0.56-1.25-1.25
						c0-0.69,0.56-1.25,1.25-1.25h2.39c0.69,0,1.25,0.56,1.25,1.25C258.33,397.81,257.77,398.37,257.08,398.37z M263.45,398.37
						h-2.39c-0.69,0-1.25-0.56-1.25-1.25c0-0.69,0.56-1.25,1.25-1.25h2.39c0.69,0,1.25,0.56,1.25,1.25
						C264.7,397.81,264.14,398.37,263.45,398.37z M270.53,398.37h-3.1c-0.69,0-1.25-0.56-1.25-1.25c0-0.69,0.56-1.25,1.25-1.25h3.1
						c0.69,0,1.25,0.56,1.25,1.25C271.78,397.81,271.22,398.37,270.53,398.37z M270.53,389.6h-9.47c-0.69,0-1.25-0.56-1.25-1.25
						c0-0.69,0.56-1.25,1.25-1.25h9.47c0.69,0,1.25,0.56,1.25,1.25C271.78,389.04,271.22,389.6,270.53,389.6z"/>
				</g>
			</g>
		</g>
	</g>
	<g>
		<g>
			<path class="st0" d="M178.12,381.5l19-0.02v-1.98c0-2.21-1.79-4-4-4h-16c-2.21,0-4,1.79-4,4v30c0,2.21,1.79,4,4,4h16
				c2.21,0,4-1.79,4-4v-5.02h-4.92c-0.03,0-14.08,0.02-14.08,0.02c-0.55,0-1-0.45-1-1v-21C177.12,381.95,177.57,381.5,178.12,381.5z
				 M186.12,411h-2c-1.1,0-2-0.9-2-2l0,0c0-1.1,0.9-2,2-2h2c1.1,0,2,0.9,2,2l0,0C188.12,410.1,187.23,411,186.12,411z"/>
			<path class="st0" d="M187.38,391.49c-0.83,0-1.5,0.67-1.5,1.5s0.67,1.5,1.5,1.5c0.83,0,1.5-0.67,1.5-1.5
				S188.21,391.49,187.38,391.49z M194.38,388.98c-1.93,0-3.5,1.52-3.5,4c0,2.52,1.57,4,3.5,4c1.93,0,3.5-1.48,3.5-4
				C197.88,390.5,196.31,388.98,194.38,388.98z M207.72,385.21c-0.25-0.6-0.79-1.05-1.44-1.18c-0.13-0.03-0.26-0.04-0.4-0.04h-23
				c-0.14,0-0.27,0.01-0.4,0.04c-0.65,0.13-1.19,0.58-1.44,1.18c-0.1,0.24-0.16,0.5-0.16,0.78v14c0,0.28,0.06,0.54,0.16,0.78
				c0.25,0.6,0.79,1.05,1.44,1.18c0.13,0.03,23.4,0.04,23.4,0.04c0.14,0,0.27-0.01,0.4-0.04c0.65-0.13,1.19-0.58,1.44-1.18
				c0.1-0.24,0.16-0.5,0.16-0.78v-14C207.88,385.71,207.82,385.44,207.72,385.21z M205.38,396.45c-1.66,0.04-2.99,1.37-3.03,3.03
				h-15.94c-0.04-1.66-1.37-2.99-3.03-3.03v-6.94c1.66-0.04,2.99-1.37,3.03-3.03h15.94c0.04,1.66,1.37,2.99,3.03,3.03V396.45z
				 M201.38,391.49c-0.83,0-1.5,0.67-1.5,1.5c0,0.83,0.67,1.5,1.5,1.5c0.83,0,1.5-0.67,1.5-1.5
				C202.88,392.17,202.21,391.49,201.38,391.49z"/>
		</g>
	</g>
	<g>
		<g>
			<path class="st0" d="M139.59,397.46c-0.86-1.08-2.42-1.27-3.51-0.42l-7.08,5.55c-0.35,0.28-0.79,0.43-1.23,0.43l-5.07,0.01
				c-0.69,0-1.25-0.56-1.25-1.25c0-0.69,0.56-1.25,1.25-1.25l4.25,0c1.38,0,2.5-1.12,2.5-2.5v0c0-1.38-1.12-2.5-2.5-2.5l-9.73,0.01
				l-0.66,0c-1.34,0-2.65,0.45-3.7,1.28l-3.47,2.73c-0.22,0.17-0.26,0.49-0.08,0.7l6.74,8.53c0.09,0.12,0.24,0.19,0.39,0.19
				l8.16,0.07l2.26,0.02c1.37,0.01,2.7-0.44,3.77-1.29l8.57-6.77C140.26,400.12,140.45,398.54,139.59,397.46z"/>
			<path class="st0" d="M120.5,382.49c-0.82,0-1.48,0.66-1.48,1.48s0.66,1.48,1.48,1.48c0.82,0,1.48-0.66,1.48-1.48
				S121.32,382.49,120.5,382.49z M136.51,377.72c-0.14-0.21-0.33-0.4-0.54-0.54c-0.32-0.22-0.7-0.34-1.12-0.34h-17.53
				c-0.41,0-0.8,0.13-1.12,0.34c-0.21,0.14-0.4,0.33-0.54,0.54c-0.22,0.32-0.34,0.7-0.34,1.12v10.36c0,1.1,0.9,2,2,2h17.53
				c1.1,0,2-0.9,2-2v-10.36C136.85,378.42,136.73,378.04,136.51,377.72z M134.35,386.85c-0.91,0.21-1.63,0.93-1.85,1.85h-12.84
				c-0.21-0.91-0.93-1.63-1.85-1.85v-5.66c0.91-0.21,1.63-0.93,1.85-1.85h12.84c0.21,0.91,0.93,1.63,1.85,1.85V386.85z
				 M107.33,401.78c-0.17-0.22-0.49-0.25-0.7-0.08l-1.57,1.24c-0.22,0.17-0.25,0.49-0.08,0.7l6.58,8.33
				c0.17,0.22,0.49,0.25,0.7,0.08l1.57-1.24c0.22-0.17,0.25-0.49,0.08-0.7L107.33,401.78z M131.67,382.49
				c-0.82,0-1.48,0.66-1.48,1.48s0.66,1.48,1.48,1.48c0.82,0,1.48-0.66,1.48-1.48S132.49,382.49,131.67,382.49z M126.09,380.83
				c-1.54,0-2.79,1.21-2.79,3.19c0,2.01,1.25,3.19,2.79,3.19c1.54,0,2.79-1.18,2.79-3.19C128.88,382.04,127.63,380.83,126.09,380.83
				z"/>
		</g>
	</g>
	<g>
		<g>
			<path class="st0" d="M73.98,409.14l-3.98-10.36c-0.3-0.77-1.04-1.28-1.87-1.28H58v3.75h8.5c0.69,0,1.25,0.56,1.25,1.25
				s-0.56,1.25-1.25,1.25H58v2.75c0,1.51-0.52,2.9-1.39,4h16.43C73.75,410.5,74.23,409.8,73.98,409.14z M51.5,378.5h-13
				c-2.21,0-4,1.79-4,4v24c0,2.21,1.79,4,4,4h13c2.21,0,4-1.79,4-4v-24C55.5,380.29,53.71,378.5,51.5,378.5z M46.5,407.25h-3
				c-0.69,0-1.25-0.56-1.25-1.25s0.56-1.25,1.25-1.25h3c0.69,0,1.25,0.56,1.25,1.25S47.19,407.25,46.5,407.25z M49.5,402.25h-9
				c-0.69,0-1.25-0.56-1.25-1.25s0.56-1.25,1.25-1.25h9c0.69,0,1.25,0.56,1.25,1.25S50.19,402.25,49.5,402.25z M50.84,392.24
				c-0.92,2.4-3.27,4.01-5.84,4.01c-2.59,0-4.95-1.63-5.85-4.06c-0.24-0.65,0.09-1.37,0.73-1.61c0.65-0.24,1.37,0.09,1.61,0.73
				c0.55,1.46,1.96,2.43,3.51,2.43c1.54,0,2.95-0.97,3.5-2.41c0.25-0.64,0.97-0.97,1.61-0.72
				C50.77,390.87,51.09,391.59,50.84,392.24z M50.14,388.78c-0.12,0.04-0.24,0.05-0.36,0.05c-0.54,0-1.04-0.35-1.2-0.9
				c-0.47-1.58-1.95-2.68-3.6-2.68c-1.65,0-3.09,1.06-3.58,2.63c-0.21,0.66-0.91,1.02-1.57,0.82c-0.66-0.21-1.03-0.91-0.82-1.57
				c0.82-2.62,3.22-4.38,5.97-4.38c2.75,0,5.21,1.84,5.99,4.47C51.18,387.89,50.8,388.58,50.14,388.78z"/>
			<path class="st0" d="M65.2,389.13c-1.41-0.57-2.09-1.24-2.65-2.65c-0.16-0.4-0.74-0.4-0.9,0c-0.57,1.41-1.24,2.09-2.65,2.65
				c-0.4,0.16-0.4,0.74,0,0.9c1.41,0.57,2.09,1.24,2.65,2.65c0.16,0.4,0.74,0.4,0.9,0c0.57-1.41,1.24-2.09,2.65-2.65
				C65.6,389.87,65.6,389.29,65.2,389.13z M74.24,392.19c-1.21-0.48-1.78-1.06-2.26-2.26c-0.14-0.34-0.63-0.34-0.77,0
				c-0.48,1.21-1.06,1.78-2.26,2.26c-0.34,0.14-0.34,0.63,0,0.77c1.21,0.48,1.78,1.06,2.26,2.26c0.14,0.34,0.63,0.34,0.77,0
				c0.48-1.21,1.06-1.78,2.26-2.26C74.59,392.83,74.59,392.33,74.24,392.19z M68.29,382.26c-1-0.4-1.47-0.88-1.87-1.87
				c-0.11-0.28-0.52-0.28-0.64,0c-0.4,1-0.88,1.47-1.87,1.87c-0.28,0.11-0.28,0.52,0,0.64c1,0.4,1.47,0.87,1.87,1.87
				c0.11,0.28,0.52,0.28,0.64,0c0.4-1,0.88-1.47,1.87-1.87C68.57,382.78,68.57,382.37,68.29,382.26z"/>
		</g>
	</g>
	<g>
		<g>
			<path class="st0" d="M409.49,311.86c-2.73-2.73-6.32-4.1-9.9-4.1c-3.58,0-7.17,1.37-9.9,4.1c-4.8,4.8-5.38,12.22-1.75,17.66
				l-2.75,2.75l-0.65-0.65c-0.2-0.2-0.51-0.2-0.71,0l-8.13,8.13c-0.39,0.39-0.39,1.02,0,1.41l3.77,3.77c0.39,0.39,1.02,0.39,1.41,0
				l8.13-8.13c0.2-0.2,0.2-0.51,0-0.71l-0.65-0.65l2.65-2.65c2.52,1.96,5.54,2.95,8.57,2.95c3.58,0,7.17-1.37,9.9-4.1
				C414.96,326.19,414.96,317.33,409.49,311.86z M406.66,328.83c-1.89,1.89-4.4,2.93-7.07,2.93c-2.67,0-5.18-1.04-7.07-2.93
				c-3.9-3.9-3.9-10.24,0-14.14c1.89-1.89,4.4-2.93,7.07-2.93c2.67,0,5.18,1.04,7.07,2.93c1.89,1.89,2.93,4.4,2.93,7.07
				C409.59,324.43,408.55,326.94,406.66,328.83z"/>
			<path class="st0" d="M400.53,320.51h-1.87c-0.34,0-0.62-0.28-0.62-0.62c0-0.34,0.28-0.62,0.62-0.62h3.74
				c0.69,0,1.25-0.56,1.25-1.25s-0.56-1.25-1.25-1.25h-1.56v-0.62c0-0.69-0.56-1.25-1.25-1.25s-1.25,0.56-1.25,1.25v0.65
				c-1.57,0.16-2.81,1.48-2.81,3.09c0,1.72,1.4,3.12,3.12,3.12h1.87c0.34,0,0.62,0.28,0.62,0.62c0,0.34-0.28,0.62-0.62,0.62h-3.74
				c-0.69,0-1.25,0.56-1.25,1.25s0.56,1.25,1.25,1.25h1.56v0.62c0,0.69,0.56,1.25,1.25,1.25s1.25-0.56,1.25-1.25v-0.65
				c1.57-0.16,2.81-1.48,2.81-3.09C403.65,321.91,402.25,320.51,400.53,320.51z"/>
		</g>
	</g>
	<g>
		<g>
			<path class="st0" d="M347.43,323l-2.87-2.87c-0.2-0.2-0.51-0.2-0.71,0l-1.51,1.51c-0.2,0.2-0.2,0.51,0,0.71l2.87,2.87
				c0.2,0.2,0.51,0.2,0.71,0l1.51-1.51C347.62,323.51,347.62,323.2,347.43,323z M322.97,336.69h-15c-0.83,0-1.5,0.67-1.5,1.5
				c0,0.83,0.67,1.5,1.5,1.5h15c0.83,0,1.5-0.67,1.5-1.5C324.47,337.37,323.8,336.69,322.97,336.69z"/>
			<path class="st0" d="M343.47,326.95l-2.87-2.87c-0.2-0.2-0.51-0.2-0.71,0l-8.04,8.04c-0.2,0.2-0.2,0.51,0,0.71l2.87,2.87
				c0.2,0.2,0.51,0.2,0.71,0l8.04-8.04C343.67,327.46,343.67,327.15,343.47,326.95z M341.43,315.27c0-1.1-0.9-2-2-2h-32
				c-1.1,0-2,0.9-2,2v17c0,1.1,0.9,2,2,2h18.82c0.09-0.13,15.18-15.25,15.18-15.25V315.27z M313.05,322.06l2.5,1.29
				c1.38,0.71,2.11,2.17,1.86,3.71c-0.2,1.26-1.03,2.25-2.17,2.68v0.52c0,0.69-0.56,1.25-1.25,1.25s-1.25-0.56-1.25-1.25v-0.44
				c-1.21-0.34-2.24-1.2-2.77-2.41c-0.28-0.63,0.01-1.37,0.65-1.64c0.63-0.27,1.37,0.02,1.64,0.65c0.3,0.7,1.01,1.12,1.78,1.05
				l0.13-0.01c0.59-0.09,0.74-0.59,0.77-0.79c0.06-0.37-0.05-0.85-0.54-1.1l-2.5-1.29c-1.39-0.72-2.14-2.24-1.85-3.79
				c0.27-1.43,1.31-2.47,2.69-2.76v-0.47c0-0.69,0.56-1.25,1.25-1.25s1.25,0.56,1.25,1.25V318c0.96,0.42,1.77,1.19,2.22,2.21
				c0.28,0.63-0.01,1.37-0.65,1.64c-0.63,0.28-1.37-0.02-1.64-0.65c-0.3-0.7-1.01-1.12-1.78-1.05c-0.67,0.07-0.84,0.58-0.88,0.8
				C312.48,321.13,312.42,321.74,313.05,322.06z M327.97,328.02h-6c-0.69,0-1.25-0.56-1.25-1.25c0-0.69,0.56-1.25,1.25-1.25h6
				c0.69,0,1.25,0.56,1.25,1.25C329.22,327.46,328.66,328.02,327.97,328.02z M331.97,323.02h-10c-0.69,0-1.25-0.56-1.25-1.25
				c0-0.69,0.56-1.25,1.25-1.25h10c0.69,0,1.25,0.56,1.25,1.25C333.22,322.46,332.66,323.02,331.97,323.02z M330.05,334.64
				c-0.19-0.2-0.51-0.2-0.7,0c-0.33,0.32-0.79,0.79-1.02,1.01c-0.08,0.08-0.13,0.19-0.14,0.31l-0.25,3.24
				c-0.02,0.31,0.24,0.57,0.56,0.54l3.11-0.36c0.11-0.01,0.22-0.06,0.3-0.14l1.02-1.02c0.2-0.2,0.2-0.51,0-0.71L330.05,334.64z"/>
		</g>
	</g>
	<g>
		<g>
			<path class="st0" d="M264.75,308h-18c-2.21,0-4,0.79-4,3v30c0,2.21,1.79,4,4,4h18c2.21,0,4-1.79,4-4v-29
				C268.75,309.79,266.95,308,264.75,308z M259.25,341h-7c-0.83,0-1.5-0.67-1.5-1.5s0.67-1.5,1.5-1.5h7c0.83,0,1.5,0.67,1.5,1.5
				S260.07,341,259.25,341z M256.22,328.4l-2.31-1.19c-1.33-0.68-2.03-2.13-1.76-3.6c0.25-1.33,1.21-2.32,2.48-2.61v-0.35
				c0-0.69,0.56-1.25,1.25-1.25c0.69,0,1.25,0.56,1.25,1.25v0.62c0.89,0.4,1.63,1.12,2.04,2.06c0.28,0.63-0.02,1.37-0.65,1.64
				c-0.63,0.27-1.37-0.02-1.64-0.65c-0.26-0.61-0.89-0.97-1.54-0.92c-0.56,0.06-0.69,0.48-0.73,0.66c-0.03,0.15-0.08,0.65,0.44,0.92
				l2.31,1.19c1.31,0.67,2.01,2.06,1.77,3.53c-0.19,1.18-0.95,2.1-2,2.52v0.42c0,0.69-0.56,1.25-1.25,1.25
				c-0.69,0-1.25-0.56-1.25-1.25v-0.33c-1.12-0.33-2.06-1.14-2.54-2.26c-0.28-0.63,0.01-1.37,0.65-1.64
				c0.63-0.28,1.37,0.02,1.64,0.65c0.26,0.61,0.89,0.98,1.54,0.92l0.11-0.01c0.48-0.08,0.6-0.48,0.63-0.65
				C256.7,329.16,256.73,328.66,256.22,328.4z M261.75,315h-12c-0.83,0-1.5-0.67-1.5-1.5s0.67-1.5,1.5-1.5h12
				c0.83,0,1.5,0.67,1.5,1.5S262.57,315,261.75,315z"/>
			<path class="st0" d="M272.75,312c-0.83,0-1.5,0.67-1.5,1.5v26c0,0.83,0.67,1.5,1.5,1.5s1.5-0.67,1.5-1.5v-26
				C274.25,312.67,273.58,312,272.75,312z"/>
		</g>
	</g>
	<g>
		<g>
			<g>
				<path class="st0" d="M182,325c-5.8,0-10.5,4.7-10.5,10.5S176.2,346,182,346c5.8,0,10.5-4.7,10.5-10.5S187.8,325,182,325z
					 M180.15,332.4c0.69,0,1.25,0.56,1.25,1.25s-0.56,1.25-1.25,1.25h-0.25v1.5h0.25c0.69,0,1.25,0.56,1.25,1.25
					s-0.56,1.25-1.25,1.25h-0.22c0.12,0.85,0.85,1.5,1.72,1.5c0.96,0,1.75-0.79,1.75-1.75c0-0.69,0.56-1.25,1.25-1.25
					s1.25,0.56,1.25,1.25c0,2.34-1.91,4.25-4.25,4.25c-2.26,0-4.09-1.77-4.22-4h-0.28c-0.69,0-1.25-0.56-1.25-1.25
					s0.56-1.25,1.25-1.25h0.25v-1.5h-0.25c-0.69,0-1.25-0.56-1.25-1.25s0.56-1.25,1.25-1.25h0.28c0.13-2.23,1.97-4,4.22-4
					c2.34,0,4.25,1.91,4.25,4.25c0,0.69-0.56,1.25-1.25,1.25s-1.25-0.56-1.25-1.25c0-0.96-0.79-1.75-1.75-1.75
					c-0.88,0-1.6,0.65-1.72,1.5H180.15z M176.67,323.59c0.06,0.01,0.12,0.01,0.18,0.01c0.61,0,1.14-0.45,1.24-1.07
					c0.43-2.95,2.12-5.5,4.61-7.05l0.41,0.91c0.27,0.6,1.11,0.63,1.43,0.05l1.77-3.27c0.25-0.46-0.01-1.04-0.53-1.16l-3.63-0.82
					c-0.64-0.14-1.17,0.51-0.9,1.11l0.41,0.9c-3.26,1.91-5.49,5.18-6.05,8.97C175.52,322.86,175.99,323.49,176.67,323.59z"/>
				<path class="st0" d="M199,307c-5.8,0-10.5,4.7-10.5,10.5S193.2,328,199,328c5.8,0,10.5-4.7,10.5-10.5S204.8,307,199,307z
					 M198.31,315.49l2.31,1.19c1.31,0.67,2.01,2.06,1.77,3.53c-0.19,1.18-0.95,2.1-2,2.52v0.42c0,0.69-0.56,1.25-1.25,1.25
					s-1.25-0.56-1.25-1.25v-0.33c-1.12-0.33-2.06-1.14-2.54-2.26c-0.28-0.63,0.01-1.37,0.65-1.64c0.63-0.27,1.37,0.02,1.64,0.65
					c0.26,0.61,0.89,0.97,1.54,0.92l0.11-0.01c0.48-0.08,0.6-0.48,0.63-0.65c0.02-0.15,0.06-0.65-0.45-0.91l-2.31-1.19
					c-1.33-0.68-2.03-2.13-1.76-3.6c0.25-1.33,1.21-2.32,2.48-2.61v-0.35c0-0.69,0.56-1.25,1.25-1.25s1.25,0.56,1.25,1.25v0.62
					c0.89,0.4,1.63,1.12,2.04,2.06c0.28,0.63-0.02,1.37-0.65,1.64c-0.63,0.28-1.37-0.02-1.64-0.65c-0.26-0.61-0.89-0.97-1.54-0.92
					c-0.56,0.06-0.69,0.48-0.73,0.66C197.84,314.72,197.79,315.22,198.31,315.49z M204.83,329.91c-0.69-0.11-1.32,0.37-1.42,1.05
					c-0.43,2.94-2.16,5.5-4.64,7.05l-0.51-1.04c-0.29-0.59-1.13-0.59-1.43-0.01l-1.67,3.32c-0.24,0.47,0.04,1.04,0.56,1.14
					l3.65,0.71c0.65,0.13,1.16-0.54,0.87-1.14l-0.36-0.74c3.21-1.91,5.45-5.18,6-8.94C205.98,330.64,205.51,330.01,204.83,329.91z"
					/>
			</g>
		</g>
	</g>
	<g>
		<g>
			<g>
				<g>
					<path class="st0" d="M132.63,307.42c-4.97,0-9,4.03-9,9c0,4.97,4.03,9,9,9c4.97,0,9-4.03,9-9
						C141.63,311.45,137.6,307.42,132.63,307.42z M132.19,314.69l2.03,1.05c1.21,0.62,1.86,1.91,1.64,3.27
						c-0.17,1.06-0.83,1.89-1.76,2.3v0.27c0,0.69-0.56,1.25-1.25,1.25c-0.69,0-1.25-0.56-1.25-1.25v-0.19
						c-0.98-0.32-1.8-1.04-2.23-2.03c-0.28-0.63,0.01-1.37,0.65-1.65c0.64-0.28,1.37,0.02,1.65,0.65c0.21,0.48,0.7,0.77,1.21,0.72
						c0.39-0.06,0.49-0.28,0.52-0.46c0.02-0.1,0.04-0.46-0.32-0.65l-2.03-1.05c-1.23-0.63-1.88-1.97-1.62-3.33
						c0.22-1.19,1.06-2.09,2.18-2.39V311c0-0.69,0.56-1.25,1.25-1.25c0.69,0,1.25,0.56,1.25,1.25v0.46
						c0.78,0.38,1.42,1.01,1.78,1.84c0.28,0.63-0.02,1.37-0.65,1.64c-0.63,0.28-1.37-0.02-1.64-0.65c-0.21-0.48-0.7-0.77-1.21-0.72
						c-0.38,0.04-0.48,0.31-0.51,0.46C131.85,314.18,131.83,314.51,132.19,314.69z"/>
					<path class="st0" d="M131.71,328.61c-0.74-0.12-1.58,0.17-2.17,0.67c-0.2-0.83-0.99-1.53-1.83-1.67
						c-0.7-0.11-1.5,0.14-2.07,0.6c-0.26-0.8-1.11-1.46-1.93-1.6c-0.79-0.13-1.87,0.29-2.34,0.88v-6.32c0-0.87-0.51-1.72-1.35-1.98
						c-1.38-0.44-2.65,0.58-2.65,1.9v16c-1.1,0-2-0.9-2-2v-1.81c0-0.38-0.31-0.69-0.69-0.69h-0.6c-1.49,0-2.7,1.21-2.7,2.7v4.94
						c0,0.86,0.37,1.69,1.02,2.26l2.69,2.36c0.55,0.48,1.25,0.74,1.98,0.74h11.07c0.8,0,1.56-0.32,2.12-0.88l2.24-2.24
						c0.56-0.56,0.88-1.33,0.88-2.12v-9.65C133.38,329.69,132.69,328.77,131.71,328.61z M114.88,326.58h-2.5c-0.55,0-1-0.45-1-1v-12
						c0-0.55,0.45-1,1-1h9.42c0.39-1.08,0.93-2.09,1.6-3h-16.02c-2.21,0-4,1.79-4,4v12c0,2.21,1.79,4,4,4h7.5V326.58z
						 M108.16,321.27c-0.93,0-1.68-0.75-1.68-1.68s0.75-1.68,1.68-1.68c0.93,0,1.68,0.75,1.68,1.68S109.09,321.27,108.16,321.27z"/>
				</g>
			</g>
		</g>
	</g>
	<g>
		<g>
			<path class="st0" d="M60.5,308.82h-12c-1.87,0-3.38,1.51-3.38,3.38v2.48h3.38v-2.48h12v2.48h3.38v-2.48
				C63.88,310.33,62.37,308.82,60.5,308.82z"/>
			<path class="st0" d="M56,335.68v0.71c0,0.83-0.67,1.5-1.5,1.5c-0.83,0-1.5-0.67-1.5-1.5v-0.71H39.5c-0.7,0-1.37-0.11-2-0.32v6.82
				c0,1.1,0.9,2,2,2h30c1.1,0,2-0.9,2-2v-6.82c-0.63,0.2-1.3,0.32-2,0.32H56z M71.5,317.18h-34c-1.1,0-2,0.9-2,2v10
				c0,2.21,1.79,4,4,4H53v-1.17c0-0.83,0.67-1.5,1.5-1.5c0.83,0,1.5,0.67,1.5,1.5v1.17h13.5c2.21,0,4-1.79,4-4v-10
				C73.5,318.08,72.6,317.18,71.5,317.18z"/>
		</g>
	</g>
	<g>
		<g>
			<g>
				<path class="st0" d="M395.13,241.93c-0.78-0.78-1.96-0.87-2.63-0.2l-6.06,6.06c-0.67,0.67-0.58,1.85,0.2,2.63
					c0,0,0.2,0.2,0.44,0.44c0.24,0.24,0.76,0.13,1.15-0.27l7.07-7.07c0.39-0.39,0.51-0.9,0.27-1.15L395.13,241.93z M409.28,256.07
					c0,0-0.2-0.2-0.44-0.44c-0.24-0.24-0.76-0.13-1.15,0.27l-7.07,7.07c-0.39,0.39-0.51,0.9-0.27,1.15l0.44,0.44
					c0.78,0.78,1.96,0.87,2.63,0.2l6.06-6.06C410.15,258.02,410.06,256.85,409.28,256.07z"/>
				<path class="st0" d="M411.48,271.72h-18c-1.1,0-2,0.9-2,2v1.5c0,0.28,0.22,0.5,0.5,0.5h21c0.28,0,0.5-0.22,0.5-0.5v-1.5
					C413.48,272.62,412.58,271.72,411.48,271.72z M395.13,261.72l0.71-0.71l1.24,1.24c0.2,0.2,0.51,0.2,0.71,0l9.19-9.19
					c0.2-0.2,0.2-0.51,0-0.71l-8.13-8.13c-0.2-0.2-0.51-0.2-0.71,0l-9.19,9.19c-0.2,0.2-0.2,0.51,0,0.71l1.24,1.24l-0.71,0.71
					c-0.78,0.78-0.78,2.05,0,2.83l-0.99,0.99c-1.84,1.84-3.9,3.45-6.05,4.93c-1.13,0.78-2.29,1.73-3.34,2.78
					c-3.32,3.32-4.29,6.31-3.05,7.56c1.24,1.24,4.24,0.27,7.56-3.05c1.05-1.05,2.01-2.21,2.78-3.34c1.48-2.15,3.08-4.21,4.93-6.05
					l0.99-0.99C393.09,262.51,394.35,262.51,395.13,261.72z"/>
			</g>
		</g>
	</g>
	<g>
		<g>
			<g>
				<g>
					<path class="st0" d="M336.59,258.78c-0.74-0.12-1.58,0.17-2.17,0.67c-0.2-0.83-0.99-1.53-1.83-1.67
						c-0.7-0.11-1.5,0.14-2.07,0.6c-0.26-0.8-1.11-1.46-1.93-1.6c-0.79-0.13-1.87,0.29-2.34,0.88l0-6.32c0-0.87-0.51-1.72-1.35-1.98
						c-1.38-0.44-2.65,0.58-2.65,1.9v16c-1.1,0-2-0.9-2-2v-1.81c0-0.38-0.31-0.69-0.69-0.69h-0.6c-1.49,0-2.7,1.21-2.7,2.7v4.94
						c0,0.86,0.37,1.69,1.02,2.26l2.69,2.36c0.55,0.48,1.25,0.74,1.98,0.74h11.07c0.8,0,1.56-0.32,2.12-0.88l2.24-2.24
						c0.56-0.56,0.88-1.33,0.88-2.12v-9.65C338.25,259.86,337.57,258.94,336.59,258.78z"/>
					<path class="st0" d="M315.75,253.25h3c0.55,0,1-0.45,1-1v-3c0-0.55-0.45-1-1-1h-3c-0.55,0-1,0.45-1,1v3
						C314.75,252.8,315.2,253.25,315.75,253.25z M318.82,255.25h-3c-0.55,0-1,0.45-1,1v3c0,0.55,0.45,1,1,1h3c0.55,0,1-0.45,1-1v-3
						C319.82,255.7,319.37,255.25,318.82,255.25z M332.75,241.25h-3c-0.55,0-1,0.45-1,1v3c0,0.55,0.45,1,1,1h3c0.55,0,1-0.45,1-1v-3
						C333.75,241.7,333.3,241.25,332.75,241.25z M315.75,246.25h3c0.55,0,1-0.45,1-1v-3c0-0.55-0.45-1-1-1h-3c-0.55,0-1,0.45-1,1v3
						C314.75,245.8,315.2,246.25,315.75,246.25z M325.75,241.25h-3c-0.55,0-1,0.45-1,1v3c0,0.55,0.45,1,1,1h3c0.55,0,1-0.45,1-1v-3
						C326.75,241.7,326.3,241.25,325.75,241.25z M332.75,248.25h-3c-0.55,0-1,0.45-1,1v3c0,0.55,0.45,1,1,1h3c0.55,0,1-0.45,1-1v-3
						C333.75,248.7,333.3,248.25,332.75,248.25z"/>
				</g>
			</g>
		</g>
	</g>
	<g>
		<g>
			<g>
				<path class="st0" d="M261,255.5c0-0.55-0.45-1-1-1h-4c-0.55,0-1,0.45-1,1v14h6V255.5z M269.5,257.5c0-0.55-0.45-1-1-1h-4
					c-0.55,0-1,0.45-1,1v12h6V257.5z M273.5,272h-30c-0.83,0-1.5,0.67-1.5,1.5s0.67,1.5,1.5,1.5h30c0.83,0,1.5-0.67,1.5-1.5
					S274.33,272,273.5,272z M252.5,260.5c0-0.55-0.45-1-1-1h-4c-0.55,0-1,0.45-1,1v9h6V260.5z"/>
				<path class="st0" d="M270.95,242.01l-4.5,0.64c-0.72,0.1-1.02,0.99-0.5,1.51l1.04,1.04l-3.63,3.63l-5.96-4.52
					c-0.55-0.42-1.32-0.4-1.86,0.04l-9.5,7.81c-0.64,0.53-0.73,1.47-0.21,2.11c0.3,0.36,0.73,0.55,1.16,0.55
					c0.33,0,0.67-0.11,0.95-0.34l8.58-7.06l6.06,4.59c0.6,0.45,1.44,0.4,1.97-0.13l4.55-4.55l0.69,0.69c0.52,0.52,1.4,0.22,1.51-0.5
					l0.64-4.5C272.04,242.43,271.54,241.93,270.95,242.01z"/>
			</g>
		</g>
	</g>
	<g>
		<g>
			<g>
				<path class="st0" d="M176.57,243.58c-0.14-0.19-0.41-0.24-0.59-0.1c-2.78,2.05-3.15,6.06-0.79,8.58l7.12,7.64l-1.29,1.73
					c-0.64,0.87-1.66,1.34-2.74,1.39c-1.83,0.08-3.6,1.04-4.62,2.79c-1.36,2.34-0.78,5.45,1.33,7.15c1.01,0.82,2.24,1.25,3.51,1.25
					c0.28,0,0.56-0.02,0.84-0.06c1.48-0.22,2.79-1,3.68-2.21c1.07-1.44,1.34-3.24,0.89-4.84c-0.32-1.12,0.06-2.33,0.86-3.19
					l0.65-0.7l0.01,0.01v-7.52L176.57,243.58z M180.94,270.21L180.94,270.21c-0.48,0.65-1.18,1.07-1.98,1.19
					c-0.8,0.12-1.59-0.08-2.24-0.56c-1.34-0.99-1.62-2.88-0.63-4.22c0.59-0.8,1.5-1.22,2.43-1.22c0.62,0,1.25,0.19,1.79,0.59
					C181.65,266.98,181.93,268.88,180.94,270.21z"/>
				<path class="st0" d="M197.9,264.67c-0.81,0-1.47,0.66-1.47,1.47c0,0.81,0.66,1.47,1.47,1.47c0.81,0,1.47-0.66,1.47-1.47
					C199.37,265.33,198.71,264.67,197.9,264.67z M197.9,251.79c0.81,0,1.47-0.66,1.47-1.47s-0.66-1.47-1.47-1.47
					c-0.81,0-1.47,0.66-1.47,1.47S197.09,251.79,197.9,251.79z M197.9,254.28c-2.84,0-4.52,1.77-4.52,3.95
					c0,2.18,1.68,3.95,4.52,3.95c2.81,0,4.52-1.77,4.52-3.95C202.42,256.05,200.71,254.28,197.9,254.28z M206.07,242.98h-16.34
					c-1.1,0-2,0.9-2,2v26.51c0,1.1,0.9,2,2,2h16.34c1.1,0,2-0.9,2-2v-26.51C208.07,243.87,207.18,242.98,206.07,242.98z
					 M205.57,267.25c-0.08-0.01-0.16-0.03-0.24-0.03c-1.94,0-3.52,1.58-3.52,3.52c0,0.08,0.02,0.16,0.03,0.24h-7.88
					c0.01-0.08,0.03-0.16,0.03-0.24c0-1.94-1.58-3.52-3.52-3.52c-0.08,0-0.16,0.02-0.24,0.03v-18.05c0.08,0.01,0.16,0.03,0.24,0.03
					c1.94,0,3.52-1.58,3.52-3.52c0-0.08-0.02-0.16-0.03-0.24h7.88c-0.01,0.08-0.03,0.16-0.03,0.24c0,1.94,1.58,3.52,3.52,3.52
					c0.08,0,0.16-0.02,0.24-0.03V267.25z"/>
			</g>
		</g>
	</g>
	<g>
		<g>
			<g>
				<g>
					<path class="st0" d="M145.06,252.07l-8.34-8.85c-0.19-0.2-0.51-0.21-0.71-0.02l-3.5,3.3c-0.2,0.19-0.21,0.51-0.02,0.71
						l8.34,8.85c0.19,0.2,0.51,0.21,0.71,0.02l3.5-3.3C145.24,252.58,145.25,252.27,145.06,252.07z M142.01,253.07
						c-0.44,0.41-1.13,0.39-1.54-0.05c-0.41-0.44-0.39-1.13,0.05-1.54c0.44-0.41,1.13-0.39,1.54,0.05
						C142.47,251.97,142.45,252.66,142.01,253.07z M108.4,244.42c-0.22-0.17-0.53-0.13-0.7,0.09l-7.78,10.02
						c-0.17,0.22-0.13,0.53,0.09,0.7l3.82,2.97c0.22,0.17,0.53,0.13,0.7-0.09l7.79-10.02c0.17-0.22,0.13-0.53-0.09-0.7L108.4,244.42
						z M104.73,254.86c-0.37,0.48-1.06,0.56-1.54,0.19c-0.48-0.37-0.56-1.06-0.19-1.54c0.37-0.48,1.06-0.56,1.54-0.19
						C105.02,253.7,105.1,254.39,104.73,254.86z"/>
					<path class="st0" d="M133.7,264.57l-8.56-6.68l-1.56,1.43c-2.2,1.98-4.19,2.51-5.69,2.51c-0.38,0-0.74-0.04-1.05-0.09
						c-2.06-0.36-3.45-1.67-4.08-2.8c-0.77-1.23-0.55-2.78,0.55-3.78l6.14-5.59c-0.72-0.55-1.58-0.83-2.43-0.83
						c-1.19,0-2.38,0.53-3.17,1.55l-6,7.75c-0.49,0.63-0.71,1.42-0.61,2.21l0.39,3.15c0.1,0.79,0.5,1.51,1.13,2l10.52,8.2
						c0.29,0.23,0.64,0.34,0.99,0.34c0.44,0,0.87-0.18,1.19-0.52l0.47-0.52c0.62-0.68,0.55-1.74-0.15-2.33l1.77,1.48
						c0.3,0.25,0.67,0.38,1.04,0.38c0.4,0,0.81-0.15,1.12-0.45l0.54-0.52c0.69-0.67,0.65-1.79-0.09-2.4l1.31,1.09
						c0.3,0.25,0.67,0.37,1.03,0.37c0.41,0,0.82-0.15,1.13-0.46l0.48-0.47c0.67-0.66,0.64-1.75-0.07-2.37l0.86,0.75
						c0.31,0.26,0.68,0.39,1.05,0.39c0.46,0,0.92-0.2,1.24-0.58l0.75-0.89C134.53,266.18,134.42,265.13,133.7,264.57z
						 M137.88,256.58l-7.22-7.37c-0.31-0.32-0.72-0.52-1.17-0.58l-3.7-0.48c-0.58-0.08-1.17,0.11-1.6,0.5l-0.87,0.79L115,257
						c-0.09,0.09-0.3,0.33-0.11,0.62l0.05,0.09c0.32,0.6,1.13,1.37,2.34,1.58c1.44,0.25,3.04-0.38,4.63-1.81l3.11-2.85l9.79,7.64
						l3.05-2.86C138.64,258.63,138.65,257.37,137.88,256.58z"/>
				</g>
			</g>
		</g>
	</g>
	<g>
		<g>
			<path class="st0" d="M54.5,255.25c-2.76,0-5,2-5,6s2.24,6,5,6c2.76,0,5-2,5-6S57.26,255.25,54.5,255.25z M44,259.27
				c-1.09,0-1.98,0.89-1.98,1.98c0,1.09,0.89,1.98,1.98,1.98c1.09,0,1.98-0.89,1.98-1.98C45.98,260.16,45.09,259.27,44,259.27z
				 M65,259.27c-1.09,0-1.98,0.89-1.98,1.98c0,1.09,0.89,1.98,1.98,1.98c1.09,0,1.98-0.89,1.98-1.98
				C66.98,260.16,66.09,259.27,65,259.27z M68.6,242.75h-28c-0.83,0-1.5,0.67-1.5,1.5c0,0.83,0.67,1.5,1.5,1.5h28
				c0.83,0,1.5-0.67,1.5-1.5C70.1,243.42,69.42,242.75,68.6,242.75z"/>
			<path class="st0" d="M73.55,249c-0.08-0.1-0.17-0.19-0.27-0.27c-0.35-0.29-0.79-0.48-1.28-0.48h-4.3v0H41.3v0H37
				c-1.1,0-2,0.9-2,2v22c0,1.1,0.9,2,2,2h35c1.1,0,2-0.9,2-2v-22C74,249.77,73.83,249.34,73.55,249z M70.5,266.25
				c-2.49,0-4.5,2.01-4.5,4.5v0H43v0c0-2.49-2.01-4.5-4.5-4.5v-10c2.49,0,4.5-2.01,4.5-4.5h23c0,2.49,2.01,4.5,4.5,4.5V266.25z"/>
		</g>
	</g>
	<g>
		<g>
			<g>
				<path class="st0" d="M411.59,194.46c-0.86-1.08-2.42-1.27-3.51-0.42l-7.08,5.55c-0.35,0.28-0.79,0.43-1.23,0.43l-5.07,0.01
					c-0.69,0-1.25-0.56-1.25-1.25c0-0.69,0.56-1.25,1.25-1.25l4.25,0c1.38,0,2.5-1.12,2.5-2.5c0-1.38-1.12-2.5-2.5-2.5l-4.71,0
					l-3.21,0l-1.81,0l-0.66,0c-1.34,0-2.65,0.45-3.7,1.28l-3.47,2.73c-0.22,0.17-0.26,0.49-0.08,0.7l6.74,8.53
					c0.09,0.12,0.24,0.19,0.39,0.19l8.16,0.07l2.26,0.02c1.37,0.01,2.7-0.44,3.77-1.29l8.57-6.77
					C412.26,197.12,412.45,195.54,411.59,194.46z"/>
				<path class="st0" d="M379.33,198.78c-0.17-0.22-0.49-0.25-0.7-0.08l-1.57,1.24c-0.22,0.17-0.25,0.49-0.08,0.7l6.58,8.33
					c0.17,0.22,0.49,0.25,0.7,0.08l1.57-1.24c0.22-0.17,0.25-0.49,0.08-0.7L379.33,198.78z M398.55,171.84
					c-4.86,0-8.81,3.94-8.81,8.81c0,4.86,3.94,8.81,8.81,8.81s8.81-3.94,8.81-8.81C407.36,175.78,403.42,171.84,398.55,171.84z
					 M398.06,178.95l2.03,1.05c1.21,0.62,1.86,1.91,1.64,3.26c-0.17,1.06-0.83,1.89-1.76,2.3v0.27c0,0.69-0.56,1.25-1.25,1.25
					s-1.25-0.56-1.25-1.25v-0.19c-0.98-0.32-1.8-1.04-2.23-2.03c-0.28-0.63,0.02-1.37,0.65-1.64c0.63-0.28,1.37,0.02,1.64,0.65
					c0.21,0.48,0.7,0.76,1.21,0.72c0.39-0.06,0.49-0.28,0.52-0.46c0.02-0.1,0.04-0.46-0.32-0.65l-2.03-1.05
					c-1.23-0.63-1.88-1.97-1.62-3.33c0.22-1.19,1.06-2.09,2.18-2.39v-0.19c0-0.69,0.56-1.25,1.25-1.25s1.25,0.56,1.25,1.25v0.46
					c0.78,0.38,1.42,1.01,1.78,1.84c0.28,0.63-0.01,1.37-0.65,1.65c-0.64,0.28-1.37-0.01-1.65-0.65c-0.21-0.48-0.7-0.77-1.21-0.72
					c-0.38,0.04-0.48,0.31-0.51,0.46C397.73,178.44,397.71,178.77,398.06,178.95z"/>
			</g>
		</g>
	</g>
	<g>
		<g>
			<g>
				<path class="st0" d="M339.25,188.9c0-0.69-0.56-1.25-1.25-1.25h-21c-0.69,0-1.25,0.56-1.25,1.25s0.56,1.25,1.25,1.25h21
					C338.69,190.15,339.25,189.59,339.25,188.9z M317,192.65c-0.69,0-1.25,0.56-1.25,1.25s0.56,1.25,1.25,1.25h8.7
					c0.69,0,1.25-0.56,1.25-1.25s-0.56-1.25-1.25-1.25H317z M331,185.15c0.69,0,1.25-0.56,1.25-1.25s-0.56-1.25-1.25-1.25h-8
					c-0.69,0-1.25,0.56-1.25,1.25s0.56,1.25,1.25,1.25H331z M343.5,174.6h-34c-1.1,0-2,0.9-2,2v25c0,1.1,0.9,2,2,2h19v-4h-14
					c0-1.66-1.34-3-3-3v-15c1.66,0,3-1.34,3-3h24c0,1.66,1.34,3,3,3v15c-1.66,0-3,1.34-3,3h0v4h5c1.1,0,2-0.9,2-2v-25
					C345.5,175.49,344.6,174.6,343.5,174.6z"/>
				<path class="st0" d="M331,201.74v4.22c0,0.26,0.22,0.45,0.45,0.45c0.09,0,0.18-0.03,0.26-0.08l1.54-1.1
					c0.08-0.06,0.17-0.08,0.26-0.08c0.09,0,0.18,0.03,0.26,0.08l1.54,1.1c0.08,0.06,0.17,0.08,0.26,0.08c0.23,0,0.45-0.18,0.45-0.45
					v-4.22c-0.76,0.35-1.61,0.55-2.5,0.55C332.6,202.29,331.76,202.09,331,201.74z M333.5,199.79c1.93,0,3.5-1.57,3.5-3.5
					s-1.57-3.5-3.5-3.5c-1.93,0-3.5,1.57-3.5,3.5S331.56,199.79,333.5,199.79z"/>
			</g>
		</g>
	</g>
	<g>
		<g>
			<path class="st0" d="M247.5,181.77v25.6c0,0.67,0.71,1.09,1.3,0.77l1.95-1.06c0.26-0.14,0.58-0.14,0.84,0l2.83,1.54
				c0.26,0.14,0.58,0.14,0.84,0l2.82-1.54c0.26-0.14,0.58-0.14,0.84,0l2.82,1.54c0.26,0.14,0.58,0.14,0.84,0l2.82-1.54
				c0.26-0.14,0.58-0.14,0.84,0l1.94,1.06c0.59,0.32,1.3-0.1,1.3-0.77v-25.6H247.5z M256.06,192.36h-1.87
				c-1.72,0-3.12-1.4-3.12-3.12c0-1.61,1.24-2.93,2.81-3.09v-0.65c0-0.69,0.56-1.25,1.25-1.25c0.69,0,1.25,0.56,1.25,1.25v0.62h1.56
				c0.69,0,1.25,0.56,1.25,1.25c0,0.69-0.56,1.25-1.25,1.25h-3.74c-0.34,0-0.62,0.28-0.62,0.62c0,0.34,0.28,0.62,0.62,0.62h1.87
				c1.72,0,3.12,1.4,3.12,3.12c0,1.61-1.24,2.93-2.81,3.09v0.65c0,0.69-0.56,1.25-1.25,1.25c-0.69,0-1.25-0.56-1.25-1.25v-0.62
				h-1.56c-0.69,0-1.25-0.56-1.25-1.25c0-0.69,0.56-1.25,1.25-1.25h3.74c0.34,0,0.62-0.28,0.62-0.62
				C256.68,192.63,256.4,192.36,256.06,192.36z M266,203.02h-14c-0.69,0-1.25-0.56-1.25-1.25c0-0.69,0.56-1.25,1.25-1.25h14
				c0.69,0,1.25,0.56,1.25,1.25C267.25,202.46,266.69,203.02,266,203.02z M266,198.02h-3c-0.69,0-1.25-0.56-1.25-1.25
				c0-0.69,0.56-1.25,1.25-1.25h3c0.69,0,1.25,0.56,1.25,1.25C267.25,197.46,266.69,198.02,266,198.02z M266,193.02h-3
				c-0.69,0-1.25-0.56-1.25-1.25c0-0.69,0.56-1.25,1.25-1.25h3c0.69,0,1.25,0.56,1.25,1.25C267.25,192.46,266.69,193.02,266,193.02z
				 M266,188.02h-3c-0.69,0-1.25-0.56-1.25-1.25c0-0.69,0.56-1.25,1.25-1.25h3c0.69,0,1.25,0.56,1.25,1.25
				C267.25,187.46,266.69,188.02,266,188.02z"/>
			<path class="st0" d="M273.5,172.27h-30c-2.21,0-4,1.79-4,4v7c0,2.21,1.79,4,4,4h0.5c0.28,0,0.5-0.22,0.5-0.5v-7
				c0-0.28,0.22-0.5,0.5-0.5h27c0.28,0,0.5,0.22,0.5,0.5v7c0,0.28,0.22,0.5,0.5,0.5h0.5c2.21,0,4-1.79,4-4v-7
				C277.5,174.06,275.71,172.27,273.5,172.27z"/>
		</g>
	</g>
	<g>
		<g>
			<path class="st0" d="M197.25,182.5v4c0,0.69-0.56,1.25-1.25,1.25c-0.69,0-1.25-0.56-1.25-1.25v-4h-8.5v12
				c0,0.69-0.56,1.25-1.25,1.25c-0.69,0-1.25-0.56-1.25-1.25v-12h-4.25V206c0,1.1,0.9,2,2,2h18c1.1,0,2-0.9,2-2v-23.5H197.25z
				 M185,204c-1.38,0-2.5-1.12-2.5-2.5c0-1.38,1.12-2.5,2.5-2.5c1.38,0,2.5,1.12,2.5,2.5C187.5,202.88,186.38,204,185,204z
				 M197.25,202.5c0,0.69-0.56,1.25-1.25,1.25c-0.69,0-1.25-0.56-1.25-1.25v-3c0-0.69,0.56-1.25,1.25-1.25
				c0.69,0,1.25,0.56,1.25,1.25V202.5z M197.25,194.5c0,0.69-0.56,1.25-1.25,1.25c-0.69,0-1.25-0.56-1.25-1.25v-3
				c0-0.69,0.56-1.25,1.25-1.25c0.69,0,1.25,0.56,1.25,1.25V194.5z"/>
			<path class="st0" d="M205.5,173h-30c-2.21,0-4,1.79-4,4v7c0,2.21,1.79,4,4,4h0.5c0.28,0,0.5-0.22,0.5-0.5v-7
				c0-0.28,0.22-0.5,0.5-0.5h27c0.28,0,0.5,0.22,0.5,0.5v7c0,0.28,0.22,0.5,0.5,0.5h0.5c2.21,0,4-1.79,4-4v-7
				C209.5,174.79,207.71,173,205.5,173z"/>
		</g>
	</g>
	<g>
		<g>
			<g>
				<g>
					<path class="st0" d="M136.79,175.25h-28.57c-0.83,0-1.5,0.67-1.5,1.5c0,0.83,0.67,1.5,1.5,1.5h28.57c0.83,0,1.5-0.67,1.5-1.5
						C138.29,175.92,137.61,175.25,136.79,175.25z"/>
					<path class="st0" d="M138,180.75h-31c-1.1,0-2,0.9-2,2v21c0,1.1,0.9,2,2,2h31c1.1,0,2-0.9,2-2v-21
						C140,181.65,139.1,180.75,138,180.75z M113,184.75c1.66,0,3,1.34,3,3c0,1.66-1.34,3-3,3c-1.66,0-3-1.34-3-3
						C110,186.09,111.34,184.75,113,184.75z M115.5,201.5h-4c-0.69,0-1.25-0.56-1.25-1.25c0-0.69,0.56-1.25,1.25-1.25h4
						c0.69,0,1.25,0.56,1.25,1.25C116.75,200.94,116.19,201.5,115.5,201.5z M124.5,201.5h-4c-0.69,0-1.25-0.56-1.25-1.25
						c0-0.69,0.56-1.25,1.25-1.25h4c0.69,0,1.25,0.56,1.25,1.25C125.75,200.94,125.19,201.5,124.5,201.5z M133.5,201.5h-4
						c-0.69,0-1.25-0.56-1.25-1.25c0-0.69,0.56-1.25,1.25-1.25h4c0.69,0,1.25,0.56,1.25,1.25
						C134.75,200.94,134.19,201.5,133.5,201.5z M133.5,189.5h-13c-0.69,0-1.25-0.56-1.25-1.25c0-0.69,0.56-1.25,1.25-1.25h13
						c0.69,0,1.25,0.56,1.25,1.25C134.75,188.94,134.19,189.5,133.5,189.5z"/>
				</g>
			</g>
		</g>
	</g>
	<g>
		<g>
			<path class="st0" d="M74.57,187.19c-0.48-1.45-1.5-2.63-2.87-3.31c-0.62-0.31-1.37-0.06-1.68,0.56
				c-0.31,0.62-0.06,1.37,0.56,1.68c0.77,0.38,1.34,1.05,1.62,1.86c0.27,0.82,0.21,1.69-0.17,2.46c-0.28,0.55-0.75,0.96-1.33,1.16
				c-1.74-6.4-8.48-9.6-16.55-9.6c-2.69,0-5.22,0.37-7.48,1.08c-2.25-1.02-4.84-1.22-7.28-0.45c-0.6,0.19-0.89,0.89-0.58,1.45
				l1.51,2.74c-1.68,1.75-2.79,3.97-3.08,6.67l-1.41,0.24c-0.96,0.16-1.67,1-1.67,1.97v3.41c0,0.57,0.24,1.11,0.66,1.49l2.21,1.98
				l0,0c1.36,1.28,3.13,2.34,5.12,3.17V210c0,0.55,0.45,1,1,1h5.22c0.46,0,0.86-0.31,0.97-0.76l0.63-2.5
				c1.4,0.17,2.81,0.26,4.19,0.26c1.44,0,2.83-0.11,4.17-0.32l0.64,2.56c0.11,0.45,0.51,0.76,0.97,0.76h5.22c0.55,0,1-0.45,1-1
				v-5.24c3.09-2.17,5-5.42,5-9.76c0-0.32-0.03-0.62-0.05-0.93c0.13-0.03,0.25-0.05,0.38-0.09c1.22-0.41,2.21-1.27,2.79-2.42
				C74.94,190.19,75.05,188.64,74.57,187.19z M42.64,194c-0.83,0-1.5-0.67-1.5-1.5c0-0.83,0.67-1.5,1.5-1.5s1.5,0.67,1.5,1.5
				C44.14,193.33,43.47,194,42.64,194z M60.85,187.23c-0.17,0.53-0.66,0.86-1.19,0.86c-0.13,0-0.26-0.02-0.39-0.06
				c-1.84-0.6-4.02-0.82-6.32-0.65c-1.06,0.08-2.08,0.24-3.04,0.47c-0.67,0.17-1.35-0.25-1.51-0.92c-0.16-0.67,0.25-1.35,0.92-1.51
				c1.09-0.26,2.25-0.44,3.44-0.53c2.65-0.2,5.1,0.06,7.28,0.77C60.71,185.86,61.07,186.57,60.85,187.23z"/>
			<circle class="st0" cx="54.64" cy="174.5" r="4.5"/>
		</g>
	</g>
	<g>
		<g>
			<path class="st0" d="M399.5,112.5c-0.83,0-1.5,0.67-1.5,1.5v4c0,0.83,0.67,1.5,1.5,1.5c0.83,0,1.5-0.67,1.5-1.5v-4
				C401,113.17,400.33,112.5,399.5,112.5z"/>
			<path class="st0" d="M404,103.5h-19c-2.21,0-4,1.79-4,4v30c0,2.21,1.79,4,4,4h19c2.21,0,4-1.79,4-4v-30
				C408,105.29,406.21,103.5,404,103.5z M388.5,137.5h-2c-0.83,0-1.5-0.67-1.5-1.5c0-0.83,0.67-1.5,1.5-1.5h2
				c0.83,0,1.5,0.67,1.5,1.5C390,136.83,389.33,137.5,388.5,137.5z M388.5,132.5h-2c-0.83,0-1.5-0.67-1.5-1.5
				c0-0.83,0.67-1.5,1.5-1.5h2c0.83,0,1.5,0.67,1.5,1.5C390,131.83,389.33,132.5,388.5,132.5z M388.5,127.5h-2
				c-0.83,0-1.5-0.67-1.5-1.5c0-0.83,0.67-1.5,1.5-1.5h2c0.83,0,1.5,0.67,1.5,1.5C390,126.83,389.33,127.5,388.5,127.5z
				 M395.5,137.5h-2c-0.83,0-1.5-0.67-1.5-1.5c0-0.83,0.67-1.5,1.5-1.5h2c0.83,0,1.5,0.67,1.5,1.5
				C397,136.83,396.33,137.5,395.5,137.5z M395.5,132.5h-2c-0.83,0-1.5-0.67-1.5-1.5c0-0.83,0.67-1.5,1.5-1.5h2
				c0.83,0,1.5,0.67,1.5,1.5C397,131.83,396.33,132.5,395.5,132.5z M395.5,127.5h-2c-0.83,0-1.5-0.67-1.5-1.5
				c0-0.83,0.67-1.5,1.5-1.5h2c0.83,0,1.5,0.67,1.5,1.5C397,126.83,396.33,127.5,395.5,127.5z M404,136c0,0.83-0.67,1.5-1.5,1.5h-2
				c-0.83,0-1.5-0.67-1.5-1.5v-5c0-0.83,0.67-1.5,1.5-1.5h2c0.83,0,1.5,0.67,1.5,1.5V136z M402.5,127.5h-2c-0.83,0-1.5-0.67-1.5-1.5
				c0-0.83,0.67-1.5,1.5-1.5h2c0.83,0,1.5,0.67,1.5,1.5C404,126.83,403.33,127.5,402.5,127.5z M404,120c0,0.55-0.45,1-1,1h-17
				c-0.55,0-1-0.45-1-1v-9c0-0.55,0.45-1,1-1h17c0.55,0,1,0.45,1,1V120z"/>
		</g>
	</g>
	<g>
		<g>
			<g>
				<path class="st0" d="M342.58,136.7l-0.1-0.01c0.01-0.51,0.02-1.05,0.02-1.69c0-15.12-8-20-13.33-22h-5.71
					c-4.96,2-12.96,5.88-12.96,22c0,0.63,0.01,1.19,0.02,1.69l-0.1,0.02c-1.1,0.17-1.92,1.12-1.92,2.24c0,1.17,0.89,2.14,2.05,2.25
					l4.39,0.24c2.91,0.96,7.01,1.57,11.56,1.57s8.65-0.6,11.56-1.57l4.39-0.24c1.16-0.11,2.05-1.09,2.05-2.25
					C344.5,137.82,343.68,136.87,342.58,136.7z M325.78,125.26l2.6,1.34c1.41,0.73,2.17,2.22,1.91,3.81
					c-0.21,1.31-1.07,2.33-2.25,2.76v0.58c0,0.69-0.56,1.25-1.25,1.25s-1.25-0.56-1.25-1.25v-0.5c-1.26-0.34-2.33-1.23-2.88-2.48
					c-0.28-0.63,0.01-1.37,0.65-1.65c0.63-0.27,1.37,0.02,1.64,0.65c0.32,0.75,1.08,1.2,1.89,1.13l0.12-0.01
					c0.66-0.1,0.81-0.64,0.85-0.86c0.06-0.4-0.06-0.92-0.59-1.19l-2.6-1.34c-1.43-0.74-2.19-2.3-1.89-3.88
					c0.28-1.48,1.36-2.55,2.79-2.83v-0.53c0-0.69,0.56-1.25,1.25-1.25s1.25,0.56,1.25,1.25v0.81c1.02,0.43,1.85,1.22,2.31,2.27
					c0.28,0.63-0.01,1.37-0.65,1.64c-0.63,0.28-1.37-0.02-1.64-0.65c-0.32-0.74-1.08-1.2-1.89-1.13c-0.75,0.08-0.92,0.69-0.96,0.87
					C325.16,124.25,325.1,124.91,325.78,125.26z"/>
				<path class="st0" d="M330.75,102.23c-0.87-0.55-2.35-0.01-3.6,1.18c-0.61,0.58-1.54,0.58-2.14,0c-1.25-1.19-2.72-1.71-3.6-1.18
					c-2.91,1.76,1.01,7.9,1.37,8.25h6.6C329.74,110.13,333.5,103.99,330.75,102.23z"/>
			</g>
		</g>
	</g>
	<g>
		<g>
			<g>
				<path class="st0" d="M274,138.34h-28.5c-0.83,0-1.5,0.67-1.5,1.5c0,0.83,0.67,1.5,1.5,1.5H274c0.83,0,1.5-0.67,1.5-1.5
					C275.5,139.01,274.83,138.34,274,138.34z"/>
				<path class="st0" d="M274,103.66h-29c-1.1,0-2,0.9-2,2v2.05c-1.14,0.23-2,1.24-2,2.45v5c0,1.21,0.86,2.22,2,2.45v5.1
					c-1.14,0.23-2,1.24-2,2.45v4c0,1.21,0.86,2.22,2,2.45v2.05c0,1.1,0.9,2,2,2h29c1.1,0,2-0.9,2-2v-28
					C276,104.56,275.1,103.66,274,103.66z M251.25,119.88v5.28c0,0.69-0.56,1.25-1.25,1.25c-0.69,0-1.25-0.56-1.25-1.25v-5.28
					c-1.03-0.47-1.75-1.51-1.75-2.72c0-1.66,1.34-3,3-3c1.66,0,3,1.34,3,3C253,118.37,252.28,119.41,251.25,119.88z M271.5,120.91
					h-1.65c-0.14,0.59-0.37,1.15-0.68,1.65l1.17,1.17c0.49,0.49,0.49,1.28,0,1.77c-0.24,0.24-0.56,0.37-0.88,0.37
					s-0.64-0.12-0.88-0.37l-1.17-1.17c-0.5,0.31-1.06,0.55-1.65,0.68v1.65c0,0.69-0.56,1.25-1.25,1.25c-0.69,0-1.25-0.56-1.25-1.25
					v-1.65c-0.59-0.14-1.15-0.37-1.65-0.68l-1.17,1.17c-0.24,0.24-0.56,0.37-0.88,0.37c-0.32,0-0.64-0.12-0.88-0.37
					c-0.49-0.49-0.49-1.28,0-1.77l1.17-1.17c-0.31-0.5-0.55-1.06-0.68-1.65h-1.65c-0.69,0-1.25-0.56-1.25-1.25
					c0-0.69,0.56-1.25,1.25-1.25h1.65c0.14-0.59,0.37-1.15,0.68-1.65l-1.17-1.17c-0.49-0.49-0.49-1.28,0-1.77
					c0.49-0.49,1.28-0.49,1.77,0l1.17,1.17c0.5-0.31,1.06-0.55,1.65-0.68v-1.65c0-0.69,0.56-1.25,1.25-1.25
					c0.69,0,1.25,0.56,1.25,1.25v1.65c0.59,0.14,1.15,0.37,1.65,0.68l1.17-1.17c0.49-0.49,1.28-0.49,1.77,0
					c0.49,0.49,0.49,1.28,0,1.77l-1.17,1.17c0.31,0.5,0.55,1.06,0.68,1.65h1.65c0.69,0,1.25,0.56,1.25,1.25
					C272.75,120.35,272.19,120.91,271.5,120.91z M264.5,117.16c-1.38,0-2.5,1.12-2.5,2.5c0,1.38,1.12,2.5,2.5,2.5
					c1.38,0,2.5-1.12,2.5-2.5C267,118.28,265.88,117.16,264.5,117.16z"/>
			</g>
		</g>
	</g>
	<g>
		<g>
			<g>
				<g>
					<path class="st0" d="M200.17,120.17h6.33v-5.67c0-1.1-0.9-2-2-2H180c-0.83,0-1.5-0.67-1.5-1.5c0-0.83,0.67-1.5,1.5-1.5h23.5v-2
						c0-1.1-0.9-2-2-2h-24c-2.21,0-4,1.79-4,4v26c0,2.21,1.79,4,4,4h27c1.1,0,2-0.9,2-2v-4.99h-6.33c-3.4,0-6.17-2.77-6.17-6.17
						C194,122.94,196.77,120.17,200.17,120.17z"/>
					<path class="st0" d="M207,122.67h-6.83c-2.02,0-3.67,1.64-3.67,3.67c0,2.03,1.64,3.67,3.67,3.67H207c0.28,0,0.5-0.22,0.5-0.5
						v-6.33C207.5,122.9,207.28,122.67,207,122.67z M201,127.84c-0.83,0-1.5-0.67-1.5-1.5s0.67-1.5,1.5-1.5c0.83,0,1.5,0.67,1.5,1.5
						S201.83,127.84,201,127.84z"/>
				</g>
			</g>
		</g>
	</g>
	<g>
		<g>
			<g>
				<g>
					<path class="st0" d="M142.13,138.62l-1.8-5.4c-0.1-0.31-0.07-0.64,0.08-0.93c1.35-2.63,1.91-5.73,1.33-9
						c-0.9-5.01-4.57-9.18-9.33-10.78c1.23,2.97,1.6,6.27,0.99,9.54c-1.25,6.65-6.57,11.93-13.25,13.12
						c-0.86,0.16-1.74,0.23-2.61,0.25c2.03,2.19,4.74,3.74,7.76,4.29c3.25,0.58,6.34,0.04,8.96-1.29c0.29-0.15,0.62-0.18,0.92-0.08
						l5.42,1.81C141.55,140.47,142.45,139.57,142.13,138.62z"/>
					<path class="st0" d="M114.41,105.03c-5.63,1.05-10.14,5.62-11.15,11.26c-0.59,3.27-0.03,6.37,1.33,9
						c0.15,0.29,0.18,0.62,0.08,0.93l-1.8,5.4c-0.32,0.95,0.59,1.85,1.54,1.54l5.42-1.81c0.31-0.1,0.63-0.07,0.92,0.08
						c2.62,1.33,5.71,1.87,8.96,1.29c5.62-1.01,10.18-5.51,11.24-11.12C132.8,111.7,124.3,103.2,114.41,105.03z M115.91,117.01
						l3.23,1.66c1.64,0.84,2.51,2.58,2.21,4.41c-0.25,1.58-1.33,2.81-2.8,3.26v0.93c0,0.69-0.56,1.25-1.25,1.25
						s-1.25-0.56-1.25-1.25v-0.86c-1.57-0.35-2.93-1.42-3.6-2.96c-0.28-0.63,0.01-1.37,0.65-1.64c0.63-0.27,1.37,0.02,1.64,0.65
						c0.46,1.05,1.52,1.69,2.66,1.58c0.06,0,0.12-0.01,0.17-0.02c1.04-0.17,1.26-1.06,1.31-1.33c0.1-0.6-0.09-1.38-0.89-1.79
						l-3.23-1.66c-1.68-0.87-2.54-2.63-2.19-4.5c0.34-1.79,1.69-3.08,3.48-3.33v-0.9c0-0.69,0.56-1.25,1.25-1.25
						s1.25,0.56,1.25,1.25v1.2c1.28,0.48,2.33,1.45,2.89,2.74c0.28,0.63-0.01,1.37-0.65,1.64c-0.63,0.27-1.37-0.02-1.64-0.65
						c-0.46-1.05-1.52-1.69-2.66-1.58c-1.15,0.12-1.41,1.05-1.46,1.33C114.92,115.79,115.09,116.59,115.91,117.01z"/>
				</g>
			</g>
		</g>
	</g>
	<g>
		<g>
			<path class="st0" d="M57.5,120.67v-1c0-0.28-0.22-0.5-0.5-0.5h-5c-0.28,0-0.5,0.22-0.5,0.5v1c0,0.26,0.2,0.46,0.45,0.49v12.02
				c-0.25,0.03-0.45,0.23-0.45,0.49v1c0,0.28,0.22,0.5,0.5,0.5h5c0.28,0,0.5-0.22,0.5-0.5v-1c0-0.26-0.2-0.46-0.45-0.49v-12.02
				C57.3,121.14,57.5,120.93,57.5,120.67z"/>
			<path class="st0" d="M71,137.67H38c-0.55,0-1,0.45-1,1v3c0,0.28,0.22,0.5,0.5,0.5h34c0.28,0,0.5-0.22,0.5-0.5v-3
				C72,138.12,71.55,137.67,71,137.67z M41.5,133.67v1c0,0.28,0.22,0.5,0.5,0.5h5c0.28,0,0.5-0.22,0.5-0.5v-1
				c0-0.28-0.22-0.5-0.5-0.5v-12c0.28,0,0.5-0.22,0.5-0.5v-1c0-0.28-0.22-0.5-0.5-0.5h-5c-0.28,0-0.5,0.22-0.5,0.5v1
				c0,0.28,0.22,0.5,0.5,0.5v12C41.72,133.17,41.5,133.4,41.5,133.67z M71.5,112.39L55,102.96c-0.31-0.18-0.68-0.18-0.99,0
				l-16.5,9.43c-0.31,0.18-0.5,0.51-0.5,0.87v2.92c0,0.28,0.22,0.5,0.5,0.5h34c0.28,0,0.5-0.22,0.5-0.5v-2.92
				C72,112.9,71.81,112.56,71.5,112.39z M54.5,113.92c-1.59,0-2.88-1.29-2.88-2.88s1.29-2.88,2.88-2.88c1.59,0,2.88,1.29,2.88,2.88
				S56.09,113.92,54.5,113.92z M61.5,133.67v1c0,0.28,0.22,0.5,0.5,0.5h5c0.28,0,0.5-0.22,0.5-0.5v-1c0-0.28-0.22-0.5-0.5-0.5v-12
				c0.28,0,0.5-0.22,0.5-0.5v-1c0-0.28-0.22-0.5-0.5-0.5h-5c-0.28,0-0.5,0.22-0.5,0.5v1c0,0.24,0.17,0.43,0.4,0.48v12.04
				C61.67,133.24,61.5,133.44,61.5,133.67z"/>
		</g>
	</g>
</g>
<g id="title">
</g>
</svg>
