<?xml version="1.0" encoding="utf-8"?>
<!-- Generator: Adobe Illustrator 24.1.1, SVG Export Plug-In . SVG Version: 6.00 Build 0)  -->
<svg version="1.1" xmlns="http://www.w3.org/2000/svg" xmlns:xlink="http://www.w3.org/1999/xlink" x="0px" y="0px"
	 viewBox="0 0 448 448" style="enable-background:new 0 0 448 448;" xml:space="preserve">
<style type="text/css">
	.st0{fill:#173042;}
</style>
<g id="grid">
</g>
<g id="icons">
	<g>
		<g>
			<path class="st0" d="M409.43,377.94l-31.45,13.71c-1.54,0.67-1.62,2.84-0.12,3.61l6.38,3.29l19-13.22
				c0.2-0.14,0.41,0.03,0.42,0.21l-15.92,15.19c-0.4,0.38-0.62,0.9-0.62,1.45v7.04c0,2.02,2.65,2.77,3.71,1.04l3.86-6.32l8.17,4.22
				c1.15,0.59,2.56-0.05,2.86-1.31l6.45-26.61C412.56,378.64,410.94,377.28,409.43,377.94z"/>
		</g>
	</g>
	<g>
		<g>
			<path class="st0" d="M341.25,391h-1.5c-0.28,0-0.5,0.22-0.5,0.5v6c0,0.28,0.22,0.5,0.5,0.5h1.5c1.1,0,2-0.9,2-2v-3
				C343.25,391.9,342.35,391,341.25,391z"/>
			<path class="st0" d="M341.25,400.5h-1.5c-0.28,0-0.5,0.22-0.5,0.5v6c0,0.28,0.22,0.5,0.5,0.5h1.5c1.1,0,2-0.9,2-2v-3
				C343.25,401.4,342.35,400.5,341.25,400.5z M341.25,381.5h-1.5c-0.28,0-0.5,0.22-0.5,0.5v6c0,0.28,0.22,0.5,0.5,0.5h1.5
				c1.1,0,2-0.9,2-2v-3C343.25,382.4,342.35,381.5,341.25,381.5z M334.75,378h-23c-1.1,0-2,0.9-2,2v4c0,1.1,0.9,2,2,2s2,0.9,2,2
				s-0.9,2-2,2s-2,0.9-2,2v5c0,1.1,0.9,2,2,2s2,0.9,2,2s-0.9,2-2,2s-2,0.9-2,2v4c0,1.1,0.9,2,2,2h23c1.1,0,2-0.9,2-2v-29
				C336.75,378.9,335.85,378,334.75,378z M325.67,388c1.94,0,3.51,1.57,3.51,3.51c0,1.94-1.57,3.51-3.51,3.51
				c-1.94,0-3.51-1.57-3.51-3.51C322.16,389.57,323.73,388,325.67,388z M332.03,401.21c0,0.48-0.39,0.87-0.87,0.87h-10.98
				c-0.48,0-0.87-0.39-0.87-0.87v-0.83c0-1.58,1.28-2.86,2.86-2.86h6.99c1.58,0,2.86,1.28,2.86,2.86V401.21z"/>
		</g>
	</g>
	<g>
		<g>
			<path class="st0" d="M264.69,376.77c-6.19,0-11.36,4.35-12.63,10.16c-1.25-0.73-2.7-1.15-4.25-1.15c-4.66,0-8.44,3.78-8.44,8.44
				c0,4.47,3.48,8.12,7.88,8.41h3.95v-5.36c0-1.69,1.14-3.17,2.78-3.6l9.17-2.41c0.31-0.08,0.63-0.12,0.95-0.12
				c2.05,0,3.72,1.67,3.72,3.72v7.41c5.64-1.4,9.82-6.48,9.82-12.54C277.63,382.57,271.84,376.77,264.69,376.77z"/>
			<path class="st0" d="M263.78,393.67l-9.17,2.41c-0.54,0.14-0.91,0.63-0.91,1.18v9.45h-1.53c-1.52,0-2.75,1.23-2.75,2.75
				c0,1.52,1.23,2.75,2.75,2.75h0.61c1.42,0,2.57-1.07,2.72-2.45h0.03v-9.17l7.95-2.45v6.11h-1.53c-1.52,0-2.75,1.23-2.75,2.75
				c0,1.52,1.23,2.75,2.75,2.75h0.61c1.52,0,2.75-1.23,2.75-2.75v-12.17C265.32,394.05,264.56,393.47,263.78,393.67z"/>
		</g>
	</g>
	<g>
		<g>
			<path class="st0" d="M182.67,389h-5.5v5.5c0,3.04,2.46,5.5,5.5,5.5c3.04,0,5.5-2.46,5.5-5.5C188.17,391.46,185.7,389,182.67,389z
				"/>
			<path class="st0" d="M204.33,383.67l-4.47-2.61c-1.64-2.73-4.63-4.57-8.05-4.57h-0.21c-5.19,0-9.39,4.21-9.39,9.39v0.61h0.46
				c4.41,0,8,3.59,8,8s-3.59,8-8,8c-0.16,0-0.31-0.01-0.46-0.02v0.02h-3.65c-1.3,0-2.35,1.05-2.35,2.35v0.3
				c0,1.3,1.05,2.35,2.35,2.35h10.65c0.34,0,0.67-0.02,1-0.05V411c0,0.83,0.67,1.5,1.5,1.5c0.83,0,1.5-0.67,1.5-1.5v-4.2
				c4.66-1.65,8-6.08,8-11.3v-8.38l3.12-1.82C204.95,384.93,204.95,384.04,204.33,383.67z M194.2,386.5c-1.1,0-2-0.9-2-2s0.9-2,2-2
				c1.1,0,2,0.9,2,2S195.31,386.5,194.2,386.5z"/>
		</g>
	</g>
	<g>
		<g>
			<path class="st0" d="M135.46,392.44h-7.54c-0.23,0-0.41,0.15-0.48,0.37c-0.69,2.35-2.93,4.05-5.54,3.89
				c-2.85-0.17-5.16-2.67-5.1-5.53c0.04-2.29,1.51-4.23,3.55-4.99c0.2-0.07,0.34-0.25,0.34-0.47v-7.61c0-0.3-0.27-0.55-0.57-0.5
				c-7.05,1.09-12.28,7.98-11.66,15.14c0.84,9.65,9.7,16.84,12.75,19.04c0.6,0.44,1.42,0.43,2-0.03
				c2.97-2.32,11.71-9.85,12.75-18.76C136,392.7,135.76,392.44,135.46,392.44z"/>
			<path class="st0" d="M125.43,382.16c-0.78-0.28-1.64,0.14-1.91,0.92c-0.27,0.78,0.14,1.64,0.92,1.91
				c1.87,0.66,3.35,2.1,4.04,3.96c0.23,0.6,0.8,0.97,1.41,0.97c0.17,0,0.35-0.03,0.53-0.09c0.78-0.29,1.17-1.15,0.88-1.93
				C130.28,385.2,128.14,383.11,125.43,382.16z M122.24,389.11c-1.2,0-2.17,0.97-2.17,2.17c0,1.2,0.97,2.17,2.17,2.17
				c1.2,0,2.17-0.97,2.17-2.17C124.4,390.08,123.43,389.11,122.24,389.11z M136.55,388.1c-1.25-5.62-5.69-10.01-11.31-11.18
				c-0.81-0.17-1.61,0.35-1.77,1.16c-0.17,0.81,0.35,1.61,1.16,1.77c4.48,0.93,8.01,4.42,9,8.89c0.16,0.7,0.78,1.18,1.46,1.18
				c0.11,0,0.22-0.01,0.33-0.04C136.22,389.71,136.73,388.91,136.55,388.1z"/>
		</g>
	</g>
	<g>
		<g>
			<path class="st0" d="M53.29,377.06c-5.9,0.63-10.34,6.3-9.83,12.2c0.67,7.74,7.79,13.51,10.23,15.27
				c0.48,0.35,1.13,0.34,1.6-0.03c2.53-1.98,10.31-8.68,10.31-16.42C65.6,381.57,59.96,376.36,53.29,377.06z M54.5,392.49
				c-2.43,0-4.4-1.97-4.4-4.4c0-2.43,1.97-4.4,4.4-4.4c2.43,0,4.4,1.97,4.4,4.4C58.91,390.52,56.94,392.49,54.5,392.49z"/>
			<path class="st0" d="M68.07,409.5l-1.82-8.24c-0.21-0.94-1.04-1.62-2.01-1.62h-0.58c-1.63,2.17-3.83,4.48-6.83,6.83
				c-0.67,0.52-1.51,0.81-2.36,0.81c-0.81,0-1.59-0.25-2.25-0.73c-1.7-1.23-4.64-3.62-7.1-6.92H44.7c-0.97,0-1.81,0.68-2.01,1.63
				l-1.76,8.24c-0.27,1.28,0.7,2.49,2.01,2.49h23.13C67.38,412,68.36,410.78,68.07,409.5z"/>
		</g>
	</g>
	<g>
		<g>
			<g>
				<g>
					<g>
						<path class="st0" d="M404.17,327.44c0-0.69-0.56-1.25-1.25-1.25h-12c-0.69,0-1.25,0.56-1.25,1.25c0,0.69,0.56,1.25,1.25,1.25
							h12C403.61,328.69,404.17,328.13,404.17,327.44z M378.42,336.94c-0.55,0-1-0.45-1-1v-17c0-0.55,0.45-1,1-1h26
							c0.55,0,1,0.45,1,1v9.42l4-4v-12.42c0-2.21-1.79-4-4-4h-28c-2.21,0-4,1.79-4,4v25c0,2.21,1.79,4,4,4h16.32
							c0.08-0.65,0.37-1.26,0.83-1.73c0.36-0.36,1.37-1.37,1.37-1.37l0.9-0.9H378.42z M385.42,311.44h4c0.83,0,1.5,0.67,1.5,1.5
							c0,0.83-0.67,1.5-1.5,1.5h-4c-0.83,0-1.5-0.67-1.5-1.5C383.92,312.11,384.59,311.44,385.42,311.44z M379.42,310.94
							c1.1,0,2,0.9,2,2c0,1.1-0.9,2-2,2c-1.1,0-2-0.9-2-2C377.42,311.84,378.31,310.94,379.42,310.94z M411.48,332.28l-2.87-2.87
							c-0.2-0.2-0.51-0.2-0.71,0l-8.04,8.04c-0.2,0.2-0.2,0.51,0,0.71l2.87,2.87c0.2,0.2,0.51,0.2,0.71,0l8.04-8.04
							C411.68,332.79,411.68,332.47,411.48,332.28z M398.06,339.96c-0.2-0.19-0.51-0.2-0.7,0c-0.33,0.32-0.79,0.79-1.02,1.01
							c-0.08,0.08-0.13,0.19-0.14,0.31l-0.25,3.24c-0.02,0.31,0.24,0.57,0.56,0.54l3.11-0.36c0.11-0.01,0.22-0.06,0.3-0.14
							l1.02-1.02c0.2-0.2,0.2-0.51,0-0.71L398.06,339.96z M380.92,331.19c-0.69,0-1.25,0.56-1.25,1.25c0,0.69,0.56,1.25,1.25,1.25
							h18c0.69,0,1.25-0.56,1.25-1.25c0-0.69-0.56-1.25-1.25-1.25H380.92z M402.92,321.19h-12c-0.69,0-1.25,0.56-1.25,1.25
							c0,0.69,0.56,1.25,1.25,1.25h12c0.69,0,1.25-0.56,1.25-1.25C404.17,321.75,403.61,321.19,402.92,321.19z"/>
						<path class="st0" d="M385.42,320.94h-4c-0.55,0-1,0.45-1,1v5c0,0.55,0.45,1,1,1h4c0.55,0,1-0.45,1-1v-5
							C386.42,321.39,385.97,320.94,385.42,320.94z M415.44,328.33l-2.87-2.87c-0.2-0.2-0.51-0.2-0.71,0l-1.51,1.51
							c-0.2,0.2-0.2,0.51,0,0.71l2.87,2.87c0.2,0.2,0.51,0.2,0.71,0l1.51-1.51C415.63,328.84,415.63,328.52,415.44,328.33z"/>
					</g>
				</g>
			</g>
		</g>
	</g>
	<g>
		<g>
			<g>
				<path class="st0" d="M332.5,320h-12c-1.1,0-2,0.9-2,2v10.5c0,0.28,0.22,0.5,0.5,0.5h15c0.28,0,0.5-0.22,0.5-0.5V322
					C334.5,320.9,333.6,320,332.5,320z M328,330.25h-5c-0.69,0-1.25-0.56-1.25-1.25s0.56-1.25,1.25-1.25h5
					c0.69,0,1.25,0.56,1.25,1.25S328.69,330.25,328,330.25z M331,325.25h-8c-0.69,0-1.25-0.56-1.25-1.25s0.56-1.25,1.25-1.25h8
					c0.69,0,1.25,0.56,1.25,1.25S331.69,325.25,331,325.25z"/>
				<path class="st0" d="M345.33,335.13L345.33,335.13L345.33,335.13c-0.06-0.05-0.12-0.08-0.18-0.1l-2.65-1.47V319
					c0-2.21-1.79-4-4-4h-5v-2c0-1.66-1.34-3-3-3h-8c-1.66,0-3,1.34-3,3v2h-5c-2.21,0-4,1.79-4,4v14.56l-2.65,1.47
					c-0.07,0.02-0.13,0.05-0.18,0.1l0,0l0,0c-0.1,0.09-0.17,0.22-0.17,0.37v5.5c0,1.1,0.9,2,2,2h34c1.1,0,2-0.9,2-2v-5.5
					C345.5,335.35,345.43,335.22,345.33,335.13z M322.5,313h8v2h-8V313z M329.5,340h-5c-0.55,0-1-0.45-1-1c0-0.55,0.45-1,1-1h5
					c0.55,0,1,0.45,1,1C330.5,339.55,330.05,340,329.5,340z M339.5,335h-26v-16c0-0.55,0.45-1,1-1h24c0.55,0,1,0.45,1,1V335z"/>
			</g>
		</g>
	</g>
	<g>
		<g>
			<path class="st0" d="M273.75,329.05c0,0.04-0.01,0.09-0.01,0.13c0,0.04,0.01,0.07,0.01,0.11V329.05z M272.88,321.42h-9.13
				c-1.1,0-2-0.9-2-2v-3.84c0-2.25-1.86-4.07-4.13-4c-1.05,0.03-1.87,0.95-1.87,2v4c0,2.84-4,4.84-4,6.84v12.79
				c0,0.74,0.41,1.42,1.06,1.77c0.36,0.19,0.79,0.42,1.24,0.66c2.18,1.17,4.62,1.78,7.09,1.78h7.74c1.58,0,2.87-1.28,2.87-2.87
				v-0.26c0-0.48-0.13-0.92-0.34-1.32c0.8-0.51,1.34-1.4,1.34-2.42v-0.76c0-0.81-0.34-1.53-0.87-2.06c1.05-0.39,1.81-1.38,1.86-2.55
				c-0.03-0.68-0.29-1.3-0.71-1.78c1.51-0.08,2.72-1.32,2.72-2.85v-0.26C275.75,322.7,274.47,321.42,272.88,321.42z"/>
			<path class="st0" d="M248.75,322.42h-7c-0.28,0-0.5,0.22-0.5,0.5v16c0,0.28,0.22,0.5,0.5,0.5h7c0.28,0,0.5-0.22,0.5-0.5v-16
				C249.25,322.64,249.03,322.42,248.75,322.42z M245.25,336.42c-0.83,0-1.5-0.67-1.5-1.5s0.67-1.5,1.5-1.5s1.5,0.67,1.5,1.5
				S246.08,336.42,245.25,336.42z"/>
		</g>
	</g>
	<g>
		<g>
			<g>
				<path class="st0" d="M202,309.3h-23c-2.21,0-4,1.79-4,4v20c0,2.21,1.79,4,4,4h5.42c0.3,0,0.59,0.14,0.78,0.38l4.52,5.65
					c0.4,0.5,1.16,0.5,1.56,0l4.52-5.65c0.19-0.24,0.48-0.38,0.78-0.38H202c2.21,0,4-1.79,4-4v-20
					C206,311.09,204.21,309.3,202,309.3z M190.5,333.3c-5.52,0-10-4.48-10-10c0-5.52,4.48-10,10-10c5.52,0,10,4.48,10,10
					C200.5,328.82,196.02,333.3,190.5,333.3z"/>
				<path class="st0" d="M193,318.3c-0.98,0-1.86,0.41-2.5,1.06c-0.64-0.65-1.52-1.06-2.5-1.06c-1.93,0-3.5,1.57-3.5,3.5
					c0,4.5,6,7.5,6,7.5s6-3,6-7.5C196.5,319.87,194.93,318.3,193,318.3z"/>
			</g>
		</g>
	</g>
	<g>
		<g>
			<g>
				<path class="st0" d="M142.13,342.62l-1.8-5.4c-0.1-0.31-0.07-0.64,0.08-0.93c1.35-2.63,1.91-5.73,1.33-9
					c-0.9-5.01-4.57-9.18-9.33-10.78c1.23,2.97,1.6,6.27,0.99,9.54c-1.25,6.65-6.57,11.93-13.25,13.12
					c-0.86,0.16-1.74,0.23-2.61,0.25c2.03,2.19,4.74,3.74,7.76,4.29c3.25,0.58,6.34,0.04,8.96-1.29c0.29-0.15,0.62-0.18,0.92-0.08
					l5.42,1.81C141.55,344.47,142.45,343.57,142.13,342.62z"/>
				<path class="st0" d="M114.41,309.03c-5.63,1.05-10.14,5.62-11.15,11.26c-0.59,3.27-0.03,6.37,1.33,9
					c0.15,0.29,0.18,0.62,0.08,0.93l-1.8,5.4c-0.32,0.95,0.59,1.85,1.54,1.54l5.42-1.81c0.31-0.1,0.63-0.07,0.92,0.08
					c2.62,1.33,5.71,1.87,8.96,1.29c5.62-1.01,10.18-5.51,11.24-11.12C132.8,315.7,124.3,307.2,114.41,309.03z M122.02,322.85
					l-8.23,7.52c-0.39,0.35-0.99-0.05-0.81-0.54l2.02-5.38c0.12-0.33-0.12-0.68-0.47-0.68h-2.8c-0.37,0-0.61-0.39-0.45-0.72l3.5-7
					c0.08-0.17,0.26-0.28,0.45-0.28h6.22c0.37,0,0.61,0.39,0.45,0.72l-1.58,3.16c-0.33,0.66,0.15,1.45,0.89,1.45h0.14
					C122.26,321.12,122.69,322.24,122.02,322.85z"/>
			</g>
		</g>
	</g>
	<g>
		<g>
			<path class="st0" d="M67.46,341.51c-0.55-1.26-1.14-3.72-1.64-6.62c-0.58,0.09-1.16,0.16-1.77,0.16c-1.21,0-2.31-0.18-3.61-0.44
				c-1.27-0.26-2.23-1.29-2.39-2.57c-0.17-1.3,0.52-2.56,1.7-3.14c1.27-0.62,2.61-2.7,3.98-6.19c0.2-0.51,0.45-0.99,0.74-1.41
				c0-0.09-0.01-0.2-0.01-0.29c0-6.5-4.89-11.5-10.91-11.5c-6.03,0-10.91,5-10.91,11.5c0,1.09-0.05,2.29-0.13,3.56
				c-0.03,0.52-0.47,0.94-1,0.94h-3.05c-1.02,0-1.98,0.62-2.29,1.59c-0.41,1.27,0.3,2.55,1.47,2.94l3.38,1.13
				c0.46,0.15,0.74,0.61,0.68,1.09c-0.58,4.01-1.34,7.63-2.06,9.26c-0.17,0.39-0.1,0.87,0.18,1.16c0.49,0.5,1.09,0.83,1.81,0.83
				c2.73,0,3.73-3,6.46-3s2.72,3,5.45,3c2.73,0,2.72-3,5.45-3s3.73,3,6.46,3c0.72,0,1.32-0.33,1.81-0.83
				C67.56,342.38,67.63,341.9,67.46,341.51z M49.05,324.5c-1.38,0-2.5-1.12-2.5-2.5c0-1.38,1.12-2.5,2.5-2.5
				c1.38,0,2.5,1.12,2.5,2.5C51.55,323.38,50.43,324.5,49.05,324.5z M55.55,322c0-1.38,1.12-2.5,2.5-2.5c1.38,0,2.5,1.12,2.5,2.5
				c0,1.38-1.12,2.5-2.5,2.5C56.67,324.5,55.55,323.38,55.55,322z"/>
			<path class="st0" d="M72.91,324.21c-0.25-2.01-2.31-3.46-4.28-2.99c-1.03,0.24-2,0.94-2.58,2.4c-1.9,4.8-3.56,6.71-5.21,7.51
				c-0.47,0.23-0.42,0.92,0.09,1.02c1.69,0.35,3.24,0.58,5.02,0.18c2.51-0.56,4.76-2.22,6.05-4.45
				C72.66,326.77,73.07,325.48,72.91,324.21z"/>
		</g>
	</g>
	<g>
		<g>
			<path class="st0" d="M411.83,249.62c-0.92-2.83-4.12-3.95-6.55-2.55c-1.44,0.83-2.23,2.33-2.23,3.88c0,0.53-0.26,1.03-0.72,1.29
				l-0.76,0.44c-0.71,0.41-0.95,1.32-0.54,2.03l0.01,0.01l0.01,0.01c0.41,0.71,1.32,0.95,2.03,0.54l0.76-0.44
				c0.46-0.26,1.01-0.24,1.47,0.02c1.53,0.88,3.52,0.84,5.06-0.39C411.8,253.33,412.4,251.36,411.83,249.62z"/>
			<path class="st0" d="M387.95,262.26c-0.41-0.71-1.32-0.95-2.03-0.54l-0.76,0.44c-0.46,0.26-1.01,0.24-1.47-0.02
				c-1.53-0.88-3.52-0.84-5.06,0.39c-1.43,1.14-2.03,3.11-1.46,4.85c0.93,2.83,4.12,3.95,6.55,2.55c1.44-0.83,2.23-2.33,2.23-3.88
				c0-0.53,0.26-1.03,0.72-1.29l0.76-0.44c0.71-0.41,0.95-1.32,0.54-2.03L387.95,262.26z M387.43,252.68l-0.76-0.44
				c-0.46-0.26-0.71-0.76-0.71-1.29c0-1.76-1.03-3.47-2.87-4.19c-1.7-0.66-3.71-0.2-4.93,1.16c-1.99,2.22-1.36,5.54,1.07,6.94
				c1.44,0.83,3.13,0.77,4.47,0c0.46-0.26,1.02-0.29,1.48-0.03l0.76,0.44c0.71,0.41,1.62,0.16,2.03-0.54l0.02-0.03
				C388.38,254,388.13,253.09,387.43,252.68z M392.24,247.32c0.46,0.27,0.76,0.74,0.76,1.26v0.88c0,0.82,0.67,1.48,1.48,1.48h0.03
				c0.82,0,1.48-0.67,1.48-1.48v-0.88c0-0.53,0.3-1,0.76-1.26c1.53-0.88,2.49-2.63,2.19-4.58c-0.28-1.81-1.68-3.31-3.47-3.69
				c-2.91-0.61-5.48,1.59-5.48,4.4C390,245.11,390.9,246.54,392.24,247.32z M409.78,262.13c-1.44-0.83-3.13-0.77-4.47,0
				c-0.46,0.26-1.02,0.29-1.47,0.03l-0.76-0.44c-0.71-0.41-1.62-0.16-2.03,0.54l-0.02,0.03c-0.41,0.71-0.17,1.62,0.54,2.03
				l0.76,0.44c0.46,0.26,0.71,0.76,0.71,1.29c0,1.76,1.03,3.47,2.87,4.19c1.7,0.66,3.71,0.2,4.93-1.16
				C412.84,266.86,412.21,263.53,409.78,262.13z M394.5,253.5c-2.76,0-5,2.24-5,5c0,2.76,2.24,5,5,5s5-2.24,5-5
				C399.5,255.74,397.26,253.5,394.5,253.5z M396.76,269.68c-0.46-0.27-0.76-0.73-0.76-1.26v-0.88c0-0.82-0.67-1.48-1.48-1.48h-0.03
				c-0.82,0-1.48,0.67-1.48,1.48v0.88c0,0.53-0.3,1-0.76,1.26c-1.53,0.88-2.49,2.63-2.19,4.58c0.28,1.81,1.68,3.31,3.47,3.69
				c2.91,0.61,5.48-1.59,5.48-4.4C399,271.89,398.1,270.46,396.76,269.68z"/>
		</g>
	</g>
	<g>
		<g>
			<circle class="st0" cx="321" cy="273" r="3"/>
			<path class="st0" d="M313.59,271.5H310c-0.83,0-1.5,0.67-1.5,1.5s0.67,1.5,1.5,1.5h3.59c0.81,0,1.42-0.68,1.41-1.48v-0.03
				C315,272.18,314.4,271.5,313.59,271.5z M342,241h-31c-1.66,0-3,1.34-3,3v20c0,1.66,1.34,3,3,3h31c1.66,0,3-1.34,3-3v-20
				C345,242.34,343.66,241,342,241z M332.56,254.78l-8.67,5.31c-0.61,0.37-1.39-0.07-1.39-0.78v-10.62c0-0.71,0.78-1.15,1.39-0.78
				l8.67,5.31C333.15,253.58,333.15,254.42,332.56,254.78z M343,271.5h-14.59c-0.81,0-1.42,0.68-1.41,1.48v0.03
				c0,0.81,0.6,1.48,1.41,1.48H343c0.83,0,1.5-0.67,1.5-1.5S343.83,271.5,343,271.5z"/>
		</g>
	</g>
	<g>
		<g>
			<path class="st0" d="M262.17,255.55c-0.02-0.19-0.08-0.38-0.16-0.56c-0.01-0.03-0.03-0.05-0.04-0.08
				c-0.09-0.18-0.21-0.36-0.36-0.52c-1.43-1.43-3.31-2.14-5.18-2.14c-1.88,0-3.75,0.71-5.18,2.14l-6.91,6.91
				c-2.86,2.86-2.86,7.51,0,10.37c1.43,1.43,3.31,2.14,5.18,2.14c1.88,0,3.75-0.71,5.18-2.14l4.07-4.07
				c-1.45-0.25-2.81-0.81-4.02-1.63l-2.87,2.87c-1.26,1.26-3.45,1.26-4.71,0c-1.3-1.3-1.3-3.41,0-4.71l3.78-3.78c0,0,0,0,0,0
				l3.13-3.13c0.32-0.32,0.69-0.56,1.09-0.72c0.21-0.08,0.42-0.15,0.64-0.19c0,0,0,0,0,0c1.05-0.2,2.17,0.11,2.98,0.91
				c0.78,0.78,2.05,0.78,2.83,0c0.27-0.27,0.44-0.6,0.53-0.95c0-0.01,0.01-0.02,0.01-0.03c0.04-0.2,0.05-0.4,0.04-0.6
				C262.18,255.61,262.18,255.58,262.17,255.55z"/>
			<path class="st0" d="M272.66,245.34c-1.38-1.38-3.22-2.15-5.18-2.15c-1.96,0-3.8,0.76-5.18,2.15l-4.07,4.07
				c1.42,0.25,2.79,0.79,4.02,1.63l2.88-2.88c1.26-1.26,3.45-1.26,4.71,0c0.63,0.63,0.98,1.47,0.98,2.36c0,0.89-0.35,1.73-0.98,2.35
				l-1.27,1.27c0,0,0,0,0,0.01l-5.64,5.64c-1.26,1.26-3.45,1.26-4.71,0c-0.78-0.78-2.05-0.78-2.83,0c-0.78,0.78-0.78,2.05,0,2.83
				c1.38,1.38,3.22,2.15,5.18,2.15c1.96,0,3.8-0.76,5.18-2.15l5.64-5.64c0,0,0,0,0.01,0l1.27-1.27c1.38-1.38,2.15-3.22,2.15-5.18
				C274.81,248.56,274.05,246.72,272.66,245.34z"/>
		</g>
	</g>
	<g>
		<g>
			<g>
				<path class="st0" d="M201.51,240.3c-4.35,0.46-7.63,4.65-7.25,9c0.5,5.71,5.74,9.96,7.54,11.26c0.36,0.26,0.83,0.25,1.18-0.02
					c1.87-1.46,7.6-6.4,7.6-12.11C210.59,243.62,206.43,239.77,201.51,240.3z M202.41,252.25c-2.11,0-3.82-1.71-3.82-3.82
					c0-2.11,1.71-3.82,3.82-3.82c2.11,0,3.82,1.71,3.82,3.82C206.23,250.54,204.52,252.25,202.41,252.25z"/>
				<path class="st0" d="M200.34,262.59c-2.36-1.7-7.85-6.34-8.54-12.84h-17.39c-2.21,0-4,1.79-4,4v19c0,2.21,1.79,4,4,4h23
					c2.21,0,4-1.79,4-4v-9.64C201.03,263,200.67,262.83,200.34,262.59z M181.5,255.26c1.47,0,2.65,1.19,2.65,2.65
					c0,1.47-1.19,2.65-2.65,2.65c-1.47,0-2.65-1.19-2.65-2.65C178.85,256.44,180.03,255.26,181.5,255.26z M196.67,273.08h-20.52
					c-1.36,0-2.19-1.49-1.48-2.65l3.01-4.9c0.6-0.97,2.03-0.94,2.58,0.06l2.5,4.5l6.25-9.38c0.59-0.88,1.88-0.89,2.48-0.01
					l6.61,9.66C198.89,271.52,198.07,273.08,196.67,273.08z"/>
			</g>
		</g>
	</g>
	<g>
		<g>
			<g>
				<path class="st0" d="M109.6,247.01h14c0,0,0,0,0.01,0h4.99v-2c0-2.21-1.79-4-4-4h-16c-2.21,0-4,1.79-4,4v30c0,2.21,1.79,4,4,4
					h16c2.21,0,4-1.79,4-4v-8h-4v2c0,0.55-0.45,1-1,1h-14c-0.55,0-1-0.45-1-1v-21C108.6,247.46,109.05,247.01,109.6,247.01z
					 M117.57,276.51h-2c-1.1,0-2-0.9-2-2l0,0c0-1.1,0.9-2,2-2h2c1.1,0,2,0.9,2,2l0,0C119.57,275.61,118.67,276.51,117.57,276.51z"/>
				<path class="st0" d="M128.6,249.51h-14c-1.1,0-2,0.9-2,2v14c0,0.82,0.94,1.29,1.6,0.8l1.87-1.4c0.35-0.26,0.77-0.4,1.2-0.4
					h11.33c1.1,0,2-0.9,2-2v-11C130.6,250.4,129.7,249.51,128.6,249.51z M121.35,261.01h-3.75c-0.42,0-0.79-0.26-0.94-0.66
					c-0.14-0.39-0.03-0.84,0.29-1.11c1.88-1.59,3.13-3.48,2.82-3.91c-0.2-0.28-0.6-0.19-0.68-0.18c-0.21,0.06-0.48,0.21-0.5,0.46
					c-0.06,0.55-0.55,0.95-1.1,0.89c-0.55-0.06-0.95-0.55-0.89-1.1c0.11-1.04,0.89-1.9,1.99-2.19c1.11-0.28,2.21,0.09,2.82,0.97
					c1.03,1.48-0.12,3.39-1.37,4.82h1.3c0.55,0,1,0.45,1,1C122.35,260.56,121.91,261.01,121.35,261.01z M126.35,260.01
					c0,0.55-0.45,1-1,1c-0.55,0-1-0.45-1-1v-4.38l-0.05,0.03c-0.14,0.07-0.3,0.11-0.45,0.11c-0.37,0-0.72-0.2-0.9-0.55
					c-0.25-0.49-0.05-1.09,0.45-1.34l1.5-0.75c0.01,0,0.02,0,0.03-0.01c0.06-0.03,0.13-0.04,0.2-0.05c0.06-0.01,0.12-0.04,0.19-0.04
					c0.01,0,0.02-0.01,0.03-0.01c0,0,0,0.01,0,0.01c0.36,0,0.72,0.19,0.89,0.54c0.07,0.14,0.1,0.29,0.1,0.44c0,0,0.01,0,0.01,0
					V260.01z"/>
			</g>
		</g>
	</g>
	<g>
		<g>
			<path class="st0" d="M54.5,254.33c1.84,0,3.33-1.49,3.33-3.33c0-1.84-1.49-3.33-3.33-3.33c-1.84,0-3.33,1.49-3.33,3.33
				C51.17,252.84,52.66,254.33,54.5,254.33z M57.81,256.01h-6.63c-1.5,0-2.71,1.21-2.71,2.71v1.61h12.05v-1.61
				C60.53,257.22,59.31,256.01,57.81,256.01z"/>
			<path class="st0" d="M66.71,239.33H42.29c-1.1,0-2,0.9-2,2v34.35c0,1.1,0.9,2,2,2h24.42c1.1,0,2-0.9,2-2v-34.35
				C68.71,240.22,67.82,239.33,66.71,239.33z M47.29,273.02c-0.33,0.22-0.75,0.22-1.09,0c-0.79-0.51-2.16-1.61-2.18-3.05
				c-0.01-0.67,0.41-1.32,1.05-1.54c0.65-0.22,1.27-0.02,1.67,0.39c0.4-0.41,1.02-0.61,1.67-0.39c0.64,0.21,1.06,0.86,1.05,1.54
				C49.45,271.41,48.08,272.51,47.29,273.02z M57.58,274.09h-4.61c-0.69,0-1.25-0.56-1.25-1.25c0-0.69,0.56-1.25,1.25-1.25h4.61
				c0.69,0,1.25,0.56,1.25,1.25C58.83,273.53,58.27,274.09,57.58,274.09z M63.58,269.09H52.97c-0.69,0-1.25-0.56-1.25-1.25
				c0-0.69,0.56-1.25,1.25-1.25h10.61c0.69,0,1.25,0.56,1.25,1.25C64.83,268.53,64.27,269.09,63.58,269.09z M65.29,261.33
				c0,0.55-0.45,1-1,1H44.71c-0.55,0-1-0.45-1-1v-15.65c0-0.55,0.45-1,1-1h19.58c0.55,0,1,0.45,1,1V261.33z"/>
		</g>
	</g>
	<g>
		<g>
			<path class="st0" d="M386.5,177.5l19,0v-2c0-2.21-1.79-4-4-4h-16c-2.21,0-4,1.79-4,4v30c0,2.21,1.79,4,4,4h16c2.21,0,4-1.79,4-4
				v-8h-4v2c0,0.55-0.45,1-1,1h-14c-0.55,0-1-0.45-1-1v-21C385.5,177.95,385.95,177.5,386.5,177.5z M394.5,207h-2c-1.1,0-2-0.9-2-2
				l0,0c0-1.1,0.9-2,2-2h2c1.1,0,2,0.9,2,2l0,0C396.5,206.1,395.6,207,394.5,207z"/>
			<path class="st0" d="M405.5,180h-14c-1.1,0-2,0.9-2,2v14c0,0.82,0.94,1.29,1.6,0.8l1.87-1.4c0.35-0.26,0.77-0.4,1.2-0.4h11.33
				c1.1,0,2-0.9,2-2v-11C407.5,180.9,406.6,180,405.5,180z M399.5,191.75h-5c-0.69,0-1.25-0.56-1.25-1.25
				c0-0.69,0.56-1.25,1.25-1.25h5c0.69,0,1.25,0.56,1.25,1.25C400.75,191.19,400.19,191.75,399.5,191.75z M403.5,186.75h-9
				c-0.69,0-1.25-0.56-1.25-1.25c0-0.69,0.56-1.25,1.25-1.25h9c0.69,0,1.25,0.56,1.25,1.25
				C404.75,186.19,404.19,186.75,403.5,186.75z"/>
		</g>
	</g>
	<g>
		<g>
			<g>
				<g>
					<circle class="st0" cx="329" cy="193" r="6"/>
					<path class="st0" d="M343.29,179h-3.43l-2.08-3.63c-0.48-0.85-1.38-1.37-2.36-1.37h-11.85c-0.97,0-1.87,0.52-2.36,1.37
						l-2.08,3.63h-9.43c-1.5,0-2.71,1.21-2.71,2.71v22.57c0,1.5,1.22,2.71,2.71,2.71h33.57c1.5,0,2.71-1.21,2.71-2.71v-22.57
						C346,180.21,344.79,179,343.29,179z M313,187c-1.1,0-2-0.9-2-2c0-1.1,0.9-2,2-2c1.1,0,2,0.9,2,2C315,186.1,314.1,187,313,187z
						 M336.88,197.52c-0.73,1.44-1.91,2.63-3.36,3.36c-8.31,4.18-16.58-4.1-12.41-12.41c0.73-1.44,1.91-2.63,3.36-3.36
						C332.78,180.94,341.06,189.22,336.88,197.52z"/>
				</g>
			</g>
		</g>
	</g>
	<g>
		<g>
			<path class="st0" d="M258.5,171c-10.75,0-19.5,8.75-19.5,19.5c0,1.2,0.11,2.41,0.33,3.58c0.15,0.82,0.94,1.36,1.75,1.2
				c0.81-0.15,1.35-0.93,1.2-1.75c-0.18-1-0.28-2.02-0.28-3.04c0-1.56,0.23-3.07,0.64-4.5h5.64c-0.18,1.44-0.28,2.94-0.28,4.5
				c0,0.83,0.67,1.5,1.5,1.5s1.5-0.67,1.5-1.5c0-1.49,0.11-3.01,0.33-4.5H257v20.93c-1.16-0.1-2.3-0.32-3.4-0.66
				c-0.79-0.25-1.63,0.2-1.88,0.99s0.2,1.63,0.99,1.88c1.87,0.58,3.82,0.87,5.79,0.87c10.75,0,19.5-8.75,19.5-19.5
				S269.25,171,258.5,171z M248.78,183h-4.96c1.71-3.33,4.51-6,7.93-7.54C250.45,177.46,249.43,180.04,248.78,183z M257,183h-5.09
				c1.01-4.13,2.81-7.57,5.09-8.65V183z M273.18,183h-4.96c-0.65-2.96-1.67-5.54-2.97-7.54C268.67,177,271.47,179.67,273.18,183z
				 M260,174.35c2.29,1.07,4.08,4.51,5.09,8.65H260V174.35z M260,186h5.67c0.21,1.49,0.33,3.01,0.33,4.5s-0.11,3.01-0.33,4.5H260
				V186z M260,206.65V198h5.09C264.08,202.13,262.29,205.57,260,206.65z M265.25,205.54c1.3-2,2.32-4.58,2.97-7.54h4.96
				C271.47,201.33,268.67,204,265.25,205.54z M268.72,195c0.18-1.44,0.28-2.94,0.28-4.5c0-1.56-0.1-3.06-0.28-4.5h5.64
				c0.41,1.43,0.64,2.94,0.64,4.5c0,1.56-0.23,3.07-0.64,4.5H268.72z"/>
			<path class="st0" d="M252.72,193.86l-9.04,2.94c-0.82,0.27-0.94,1.37-0.2,1.81l2.21,1.31l-5.14,5.14c-0.39,0.39-0.39,1.02,0,1.41
				l0.76,0.77c0.39,0.39,1.02,0.39,1.41,0l5.19-5.19l1.28,2.22c0.43,0.75,1.54,0.64,1.82-0.18l2.97-8.97
				C254.23,194.35,253.5,193.61,252.72,193.86z"/>
		</g>
	</g>
	<g>
		<g>
			<g>
				<path class="st0" d="M190.44,170.31c-4.43,0-8.01,3.59-8.01,8.01c0,4.43,3.59,8.01,8.01,8.01c4.43,0,8.01-3.59,8.01-8.01
					C198.46,173.89,194.87,170.31,190.44,170.31z M188.44,178.81c-1.1,0-2-0.9-2-2s0.9-2,2-2c1.1,0,2,0.9,2,2
					S189.55,178.81,188.44,178.81z"/>
				<path class="st0" d="M204.57,204.46l-2.24-2.24c-0.56-0.56-1.33-0.88-2.12-0.88h-5.19l-0.45-3.14
					c-0.07-0.49-0.49-0.86-0.99-0.86h-0.63v-8.81c-0.8,0.2-1.64,0.31-2.5,0.31c-0.86,0-1.7-0.12-2.5-0.31v8.81h-0.63
					c-0.5,0-0.92,0.37-0.99,0.86l-0.45,3.14h-5.19c-0.8,0-1.56,0.32-2.12,0.88l-2.24,2.24c-0.56,0.56-0.88,1.33-0.88,2.12v1.73
					c0,1.1,0.9,2,2,2h26c1.1,0,2-0.9,2-2v-1.73C205.44,205.78,205.13,205.02,204.57,204.46z"/>
			</g>
		</g>
	</g>
	<g>
		<g>
			<path class="st0" d="M120.67,199.5l0.27,9c0.03,0.84,0.72,1.5,1.55,1.5c0.84,0,1.52-0.66,1.55-1.5l0.27-9H120.67z"/>
			<path class="st0" d="M129.21,190.02L127.3,177h1.2c1.66,0,3-1.34,3-3c0-1.66-1.34-3-3-3h-12c-1.66,0-3,1.34-3,3
				c0,1.66,1.34,3,3,3h1.2l-1.91,13.02c-1.83,0.11-3.29,1.62-3.29,3.48v2.5c0,0.55,0.45,1,1,1h18c0.55,0,1-0.45,1-1v-2.5
				C132.5,191.64,131.04,190.13,129.21,190.02z"/>
		</g>
	</g>
	<g>
		<g>
			<path class="st0" d="M39.5,178.5c-0.83,0-1.5,0.67-1.5,1.5v21c0,0.83,0.67,1.5,1.5,1.5c0.83,0,1.5-0.67,1.5-1.5v-21
				C41,179.17,40.33,178.5,39.5,178.5z M69.5,178.5c-0.83,0-1.5,0.67-1.5,1.5v21c0,0.83,0.67,1.5,1.5,1.5c0.83,0,1.5-0.67,1.5-1.5
				v-21C71,179.17,70.33,178.5,69.5,178.5z"/>
			<path class="st0" d="M63.5,174.5h-18c-1.1,0-2,0.9-2,2v28c0,1.1,0.9,2,2,2h18c1.1,0,2-0.9,2-2v-28
				C65.5,175.4,64.6,174.5,63.5,174.5z M55.09,202.29h-7c-0.69,0-1.25-0.56-1.25-1.25c0-0.69,0.56-1.25,1.25-1.25h7
				c0.69,0,1.25,0.56,1.25,1.25C56.34,201.73,55.79,202.29,55.09,202.29z M60.09,197.29h-12c-0.69,0-1.25-0.56-1.25-1.25
				c0-0.69,0.56-1.25,1.25-1.25h12c0.69,0,1.25,0.56,1.25,1.25C61.34,196.73,60.79,197.29,60.09,197.29z M60.6,187.5H48.4
				c-0.81,0-1.3-0.89-0.88-1.57l1.79-2.91c0.36-0.58,1.2-0.56,1.53,0.03l1.48,2.67l3.72-5.57c0.35-0.52,1.12-0.53,1.47-0.01
				l3.93,5.74C61.92,186.57,61.43,187.5,60.6,187.5z"/>
		</g>
	</g>
	<g>
		<g>
			<g>
				<path class="st0" d="M409.5,119.44c0-8.28-6.72-15-15-15s-15,6.72-15,15c0,7.65,5.74,13.96,13.14,14.87
					c-0.24,1.03-0.97,1.86-1.94,2.25h-3.21c-1.1,0-2,0.9-2,2c0,1.1,0.9,2,2,2h14c1.1,0,2-0.9,2-2c0-1.1-0.9-2-2-2h-3.2
					c-0.96-0.39-1.69-1.22-1.94-2.25C403.76,133.39,409.5,127.09,409.5,119.44z M394.5,106.71c0.75,0,1.36,0.61,1.36,1.36
					c0,0.75-0.61,1.36-1.36,1.36s-1.36-0.61-1.36-1.36C393.14,107.32,393.75,106.71,394.5,106.71z M394.5,127.89
					c-4.66,0-8.45-3.79-8.45-8.45c0-4.66,3.79-8.45,8.45-8.45s8.45,3.79,8.45,8.45C402.95,124.1,399.16,127.89,394.5,127.89z"/>
				<path class="st0" d="M394.5,113.98c-3.01,0-5.45,2.44-5.45,5.45c0,3.01,2.44,5.45,5.45,5.45s5.45-2.44,5.45-5.45
					C399.95,116.42,397.51,113.98,394.5,113.98z"/>
			</g>
		</g>
	</g>
	<g>
		<g>
			<path class="st0" d="M329.75,113.5h-1v-4c0-1.65-1.35-3-3-3h-14.97c-1.1,0-2,0.9-2,2c0,1.1,0.9,2,2,2h13.97v3h-15
				c-2.21,0-4,1.79-4,4v17c0,2.21,1.79,4,4,4h20c2.21,0,4-1.79,4-4v-17C333.75,115.29,331.96,113.5,329.75,113.5z M327.44,121.06
				c-1.1,0-2-0.9-2-2c0-1.1,0.9-2,2-2c1.1,0,2,0.9,2,2C329.43,120.17,328.54,121.06,327.44,121.06z"/>
			<path class="st0" d="M344.29,117.11l-7,3.82c-0.64,0.35-1.04,1.02-1.04,1.76v6.63c0,0.73,0.4,1.41,1.04,1.76l7,3.82
				c1.33,0.73,2.96-0.24,2.96-1.76v-14.26C347.25,117.35,345.63,116.39,344.29,117.11z"/>
		</g>
	</g>
	<g>
		<g>
			<path class="st0" d="M278.13,138.62l-1.8-5.4c-0.1-0.31-0.07-0.64,0.08-0.93c1.35-2.63,1.91-5.73,1.33-9
				c-0.9-5.01-4.57-9.18-9.33-10.78c1.23,2.97,1.6,6.27,0.99,9.54c-1.25,6.65-6.57,11.93-13.25,13.12
				c-0.86,0.16-1.74,0.23-2.61,0.25c2.03,2.19,4.74,3.74,7.76,4.29c3.25,0.58,6.34,0.04,8.96-1.29c0.29-0.15,0.62-0.18,0.92-0.08
				l5.42,1.81C277.55,140.47,278.45,139.57,278.13,138.62z"/>
			<path class="st0" d="M250.41,105.03c-5.63,1.05-10.14,5.62-11.15,11.26c-0.59,3.27-0.03,6.37,1.33,9
				c0.15,0.29,0.18,0.62,0.08,0.93l-1.8,5.4c-0.32,0.95,0.59,1.85,1.54,1.54l5.42-1.81c0.31-0.1,0.63-0.07,0.92,0.08
				c2.62,1.33,5.71,1.87,8.96,1.29c5.62-1.01,10.19-5.51,11.24-11.12C268.8,111.7,260.3,103.2,250.41,105.03z M254,123.25h-7
				c-0.69,0-1.25-0.56-1.25-1.25c0-0.69,0.56-1.25,1.25-1.25h7c0.69,0,1.25,0.56,1.25,1.25C255.25,122.69,254.69,123.25,254,123.25z
				 M259,118.25h-12c-0.69,0-1.25-0.56-1.25-1.25c0-0.69,0.56-1.25,1.25-1.25h12c0.69,0,1.25,0.56,1.25,1.25
				C260.25,117.69,259.69,118.25,259,118.25z"/>
		</g>
	</g>
	<g>
		<g>
			<g>
				<path class="st0" d="M187.25,138.54V139c0,1.66,1.34,3,3,3h0.5c1.66,0,3-1.34,3-3v-0.46H187.25z"/>
				<path class="st0" d="M203.3,129.27c-1.98-2.76-3.05-6.07-3.05-9.47v-2.92c0-4.67-3.17-8.8-7.58-9.83V105c0-1.1-0.9-2-2-2h-0.33
					c-1.1,0-2,0.9-2,2v2.04c-4.34,0.99-7.58,4.86-7.58,9.5v3.25c0,3.4-1.07,6.71-3.05,9.47c-0.13,0.18-0.2,0.4-0.2,0.62v5.07
					c0,0.6,0.49,1.08,1.08,1.08h23.83c0.6,0,1.08-0.49,1.08-1.08v-5.07C203.5,129.66,203.43,129.45,203.3,129.27z"/>
			</g>
		</g>
	</g>
	<g>
		<g>
			<path class="st0" d="M116.88,122.12l-11.87-10.19c-0.32-0.28-0.83-0.05-0.83,0.38v20.38c0,0.43,0.5,0.66,0.83,0.38l11.87-10.19
				C117.11,122.68,117.11,122.32,116.88,122.12z M126.09,124.43c-0.19-0.16-0.46-0.16-0.65,0l-1.63,1.4c-0.75,0.64-1.86,0.64-2.61,0
				l-1.63-1.4c-0.19-0.16-0.46-0.16-0.65,0l-11.58,9.94c-0.35,0.3-0.14,0.88,0.33,0.88h29.68c0.46,0,0.68-0.58,0.33-0.88
				L126.09,124.43z M139.99,111.93l-11.87,10.19c-0.23,0.2-0.23,0.56,0,0.76l11.87,10.19c0.32,0.28,0.83,0.05,0.83-0.38v-20.38
				C140.81,111.88,140.31,111.65,139.99,111.93z"/>
			<path class="st0" d="M137.34,109.75h-29.68c-0.46,0-0.68,0.58-0.33,0.88l14.51,12.46c0.37,0.32,0.93,0.32,1.3,0l14.51-12.46
				C138.02,110.33,137.8,109.75,137.34,109.75z"/>
		</g>
	</g>
	<g>
		<g>
			<path class="st0" d="M71.75,107.42h-2c-1.1,0-2,0.9-2,2v26c0,1.1,0.9,2,2,2h2c1.1,0,2-0.9,2-2v-26
				C73.75,108.32,72.85,107.42,71.75,107.42z"/>
			<path class="st0" d="M64.61,110.3l-22.5,6.33c-0.22,0.06-0.36,0.26-0.36,0.48v11.94h0v3.97c0,1.63,1.18,3.02,2.78,3.29l7.33,1.22
				c0.18,0.03,0.37,0.05,0.55,0.05c0.78,0,1.54-0.28,2.15-0.79c0.75-0.63,1.18-1.56,1.18-2.54v-1.4l8.87,2.4
				c0.32,0.09,0.63-0.15,0.63-0.48v-23.98C65.25,110.45,64.93,110.21,64.61,110.3z M52.75,134.25c0,0.13-0.06,0.21-0.12,0.25
				c-0.05,0.05-0.14,0.1-0.27,0.07c0,0,0,0,0,0l-7.33-1.22c-0.16-0.03-0.28-0.17-0.28-0.33v-3.16l8,2.17V134.25z M38.75,117.42h-1.5
				c-1.1,0-2,0.9-2,2v7c0,1.1,0.9,2,2,2h1.5c0.28,0,0.5-0.22,0.5-0.5v-10C39.25,117.65,39.03,117.42,38.75,117.42z"/>
		</g>
	</g>
</g>
<g id="title">
</g>
</svg>
