<?xml version="1.0" encoding="utf-8"?>
<!-- Generator: Adobe Illustrator 24.1.1, SVG Export Plug-In . SVG Version: 6.00 Build 0)  -->
<svg version="1.1" xmlns="http://www.w3.org/2000/svg" xmlns:xlink="http://www.w3.org/1999/xlink" x="0px" y="0px"
	 viewBox="0 0 448 448" style="enable-background:new 0 0 448 448;" xml:space="preserve">
<style type="text/css">
	.st0{display:none;}
	.st1{display:inline;fill:#FFFFFF;}
	.st2{fill:#173042;}
</style>
<g id="grid" class="st0">
	<rect x="30" y="98" class="st1" width="48" height="48"/>
	<rect x="98" y="98" class="st1" width="48" height="48"/>
	<rect x="166" y="98" class="st1" width="48" height="48"/>
	<rect x="234" y="98" class="st1" width="48" height="48"/>
	<rect x="302" y="98" class="st1" width="48" height="48"/>
	<rect x="370" y="98" class="st1" width="48" height="48"/>
	<rect x="30" y="166" class="st1" width="48" height="48"/>
	<rect x="98" y="166" class="st1" width="48" height="48"/>
	<rect x="166" y="166" class="st1" width="48" height="48"/>
	<rect x="234" y="166" class="st1" width="48" height="48"/>
	<rect x="302" y="166" class="st1" width="48" height="48"/>
	<rect x="370" y="166" class="st1" width="48" height="48"/>
	<rect x="30" y="234" class="st1" width="48" height="48"/>
	<rect x="98" y="234" class="st1" width="48" height="48"/>
	<rect x="370" y="234" class="st1" width="48" height="48"/>
	<rect x="30" y="302" class="st1" width="48" height="48"/>
	<rect x="98" y="302" class="st1" width="48" height="48"/>
	<rect x="166" y="234" class="st1" width="48" height="48"/>
	<rect x="234" y="234" class="st1" width="48" height="48"/>
	<rect x="302" y="234" class="st1" width="48" height="48"/>
	<rect x="166" y="302" class="st1" width="48" height="48"/>
	<rect x="234" y="302" class="st1" width="48" height="48"/>
	<rect x="302" y="302" class="st1" width="48" height="48"/>
	<rect x="370" y="302" class="st1" width="48" height="48"/>
	<rect x="30" y="370" class="st1" width="48" height="48"/>
	<rect x="98" y="370" class="st1" width="48" height="48"/>
	<rect x="166" y="370" class="st1" width="48" height="48"/>
	<rect x="234" y="370" class="st1" width="48" height="48"/>
	<rect x="302" y="370" class="st1" width="48" height="48"/>
	<rect x="370" y="370" class="st1" width="48" height="48"/>
</g>
<g id="icons">
	<g>
		<g>
			<g>
				<path class="st2" d="M373.53,389.48c0,0.83,0.67,1.5,1.5,1.5h22.5v-3h-22.5C374.2,387.98,373.53,388.65,373.53,389.48z
					 M413.8,387.33l-6.5-5.57c-0.19-0.16-0.46-0.16-0.65,0l-6.5,5.57c-0.11,0.1-0.17,0.23-0.17,0.38v25.27c0,0.28,0.22,0.5,0.5,0.5
					h13c0.28,0,0.5-0.22,0.5-0.5v-25.27C413.97,387.56,413.91,387.42,413.8,387.33z M409.47,410.84c0,0.28-0.22,0.5-0.5,0.5h-4
					c-0.28,0-0.5-0.22-0.5-0.5v-4.58c0-1.38,1.12-2.5,2.5-2.5c1.38,0,2.5,1.12,2.5,2.5V410.84z M409.47,393.75
					c0,0.28-0.22,0.5-0.5,0.5h-4c-0.28,0-0.5-0.22-0.5-0.5v-2.5c0-1.38,1.12-2.5,2.5-2.5c1.38,0,2.5,1.12,2.5,2.5V393.75z"/>
				<path class="st2" d="M397.03,393.48h-22c-0.28,0-0.5,0.22-0.5,0.5v19c0,0.28,0.22,0.5,0.5,0.5h22c0.28,0,0.5-0.22,0.5-0.5v-19
					C397.53,393.7,397.3,393.48,397.03,393.48z M383.47,410.84c0,0.28-0.22,0.5-0.5,0.5h-4c-0.28,0-0.5-0.22-0.5-0.5v-4.58
					c0-1.38,1.12-2.5,2.5-2.5c1.38,0,2.5,1.12,2.5,2.5V410.84z M383.97,398.75c0,0.28-0.22,0.5-0.5,0.5h-5c-0.28,0-0.5-0.22-0.5-0.5
					v-2c0-0.28,0.22-0.5,0.5-0.5h5c0.28,0,0.5,0.22,0.5,0.5V398.75z M393.47,410.84c0,0.28-0.22,0.5-0.5,0.5h-4
					c-0.28,0-0.5-0.22-0.5-0.5v-4.58c0-1.38,1.12-2.5,2.5-2.5c1.38,0,2.5,1.12,2.5,2.5V410.84z M393.97,398.75
					c0,0.28-0.22,0.5-0.5,0.5h-5c-0.28,0-0.5-0.22-0.5-0.5v-2c0-0.28,0.22-0.5,0.5-0.5h5c0.28,0,0.5,0.22,0.5,0.5V398.75z
					 M414.95,381.89l-7-6c-0.56-0.48-1.39-0.48-1.95,0l-7,6c-0.63,0.54-0.7,1.49-0.16,2.12c0.54,0.63,1.48,0.7,2.12,0.16l6.02-5.16
					l6.02,5.16c0.28,0.24,0.63,0.36,0.98,0.36c0.42,0,0.84-0.18,1.14-0.52C415.65,383.37,415.58,382.42,414.95,381.89z"/>
			</g>
		</g>
	</g>
	<g>
		<g>
			<g>
				<path class="st2" d="M335.21,376.99l-8.42-4.56c-0.38-0.21-0.85-0.2-1.23,0.02l-7.81,4.56c-0.6,0.35-0.8,1.11-0.45,1.71
					c0.35,0.6,1.11,0.8,1.71,0.45l7.2-4.21l7.8,4.22c0.19,0.1,0.39,0.15,0.59,0.15c0.44,0,0.87-0.24,1.1-0.65
					C336.04,378.08,335.81,377.32,335.21,376.99z"/>
				<path class="st2" d="M321.16,389.02h10.68c0.55,0,1-0.45,1-1v-6.21c0-0.37-0.2-0.7-0.52-0.88l-5.57-3.04
					c-0.31-0.17-0.69-0.16-0.99,0.02l-5.1,3.02c-0.3,0.18-0.49,0.51-0.49,0.86v6.23C320.16,388.57,320.61,389.02,321.16,389.02z
					 M326.5,381.82c1.33,0,2.4,1.08,2.4,2.4c0,1.33-1.08,2.4-2.4,2.4c-1.33,0-2.4-1.08-2.4-2.4
					C324.1,382.89,325.17,381.82,326.5,381.82z M333.33,393.92c0.65-0.02,1.17-0.54,1.17-1.19c0-0.66-0.54-1.2-1.2-1.2h-13.6
					c-0.66,0-1.2,0.54-1.2,1.2c0,0.65,0.52,1.18,1.17,1.19l-2.12,22.26c-0.03,0.29,0.2,0.55,0.5,0.55h5.12v-4.95c0-1.66,1.34-3,3-3
					h0.67c1.66,0,3,1.34,3,3v4.95h5.12c0.29,0,0.53-0.25,0.5-0.55L333.33,393.92z M329,402.78c0,0.28-0.22,0.5-0.5,0.5h-4
					c-0.28,0-0.5-0.22-0.5-0.5v-2.5c0-1.38,1.12-2.5,2.5-2.5c1.38,0,2.5,1.12,2.5,2.5V402.78z"/>
			</g>
		</g>
	</g>
	<g>
		<g>
			<g>
				<path class="st2" d="M271.28,394.4l-11.57-10.02c-0.7-0.6-1.73-0.6-2.42,0l-11.57,10.02c-0.41,0.35-0.64,0.86-0.64,1.4v14.58
					c0,0.26,0.21,0.46,0.46,0.46h8.33c0.26,0,0.46-0.21,0.46-0.46v-9.87c0-1.02,0.83-1.85,1.85-1.85h4.63
					c1.02,0,1.85,0.83,1.85,1.85v9.87c0,0.26,0.21,0.46,0.46,0.46h8.33c0.26,0,0.46-0.21,0.46-0.46V395.8
					C271.92,395.27,271.69,394.75,271.28,394.4z"/>
				<path class="st2" d="M275.75,389.81l-14.63-12.67c-1.5-1.3-3.73-1.3-5.24,0l-5.69,4.93v-4.15h-5.16v8.62l-3.78,3.28
					c-0.83,0.72-0.87,1.99-0.1,2.77h0c0.7,0.7,1.82,0.74,2.57,0.09L257.19,381c0.75-0.65,1.87-0.65,2.62,0l13.47,11.66
					c0.75,0.65,1.87,0.61,2.57-0.09C276.63,391.8,276.58,390.53,275.75,389.81z"/>
			</g>
		</g>
	</g>
	<g>
		<g>
			<path class="st2" d="M204,406.5h3c0.83,0,1.5-0.67,1.5-1.5s-0.67-1.5-1.5-1.5h-3c-0.83,0-1.5-0.67-1.5-1.5s0.67-1.5,1.5-1.5h3
				c0.83,0,1.5-0.67,1.5-1.5s-0.67-1.5-1.5-1.5h-3c-0.83,0-1.5-0.67-1.5-1.5s0.67-1.5,1.5-1.5h3c0.28,0,0.5-0.22,0.5-0.5v-1.33
				c-0.69-0.03-1.36-0.23-1.96-0.59l-15.04-9.02l-15.04,9.02c-0.59,0.36-1.27,0.55-1.96,0.59V394c0,0.28,0.22,0.5,0.5,0.5h4
				c0.83,0,1.5,0.67,1.5,1.5s-0.67,1.5-1.5,1.5h-3c-0.83,0-1.5,0.67-1.5,1.5s0.67,1.5,1.5,1.5h3c0.83,0,1.5,0.67,1.5,1.5
				s-0.67,1.5-1.5,1.5h-3c-0.83,0-1.5,0.67-1.5,1.5s0.67,1.5,1.5,1.5h3c0.83,0,1.5,0.67,1.5,1.5s-0.67,1.5-1.5,1.5h-3
				c-0.83,0-1.5,0.67-1.5,1.5s0.67,1.5,1.5,1.5h32c0.83,0,1.5-0.67,1.5-1.5s-0.67-1.5-1.5-1.5h-3c-0.83,0-1.5-0.67-1.5-1.5
				S203.17,406.5,204,406.5z M194.1,405.33c0,0.55-0.45,1-1,1h-5.2c-0.55,0-1-0.45-1-1v-7.26c0-0.55,0.45-1,1-1h5.2
				c0.55,0,1,0.45,1,1V405.33z"/>
			<path class="st2" d="M208.58,387.02l-16.78-10.06c-0.41-0.24-0.91-0.46-1.3-0.46s-0.89,0.21-1.3,0.46l-16.78,10.06
				c-0.81,0.48-1.07,1.53-0.59,2.34c0.48,0.81,1.53,1.07,2.34,0.59l16.33-9.79l16.33,9.79c0.81,0.48,1.85,0.22,2.34-0.59
				C209.65,388.55,209.39,387.5,208.58,387.02z"/>
		</g>
	</g>
	<g>
		<g>
			<g>
				<path class="st2" d="M112.23,375.89c-0.56-0.48-1.39-0.48-1.95,0l-7,6c-0.63,0.54-0.7,1.49-0.16,2.12
					c0.54,0.63,1.49,0.7,2.12,0.16l6.02-5.16l6.02,5.16c0.28,0.24,0.63,0.36,0.98,0.36c0.42,0,0.84-0.18,1.14-0.52
					c0.54-0.63,0.47-1.58-0.16-2.12L112.23,375.89z M140.18,398.75h-19c-0.28,0-0.5,0.22-0.5,0.5v13.73c0,0.28,0.22,0.5,0.5,0.5h19
					c0.28,0,0.5-0.22,0.5-0.5v-13.73C140.68,398.97,140.45,398.75,140.18,398.75z M129.25,409.11c0,0.28-0.22,0.5-0.5,0.5h-4
					c-0.28,0-0.5-0.22-0.5-0.5v-4c0-1.38,1.12-2.5,2.5-2.5c1.38,0,2.5,1.12,2.5,2.5V409.11z M137.25,409.11c0,0.28-0.22,0.5-0.5,0.5
					h-4c-0.28,0-0.5-0.22-0.5-0.5v-4c0-1.38,1.12-2.5,2.5-2.5s2.5,1.12,2.5,2.5V409.11z"/>
				<path class="st2" d="M141.75,388.25h-21c-0.28,0-0.5,0.22-0.5,0.5v7c0,0.28,0.22,0.5,0.5,0.5h21c0.28,0,0.5-0.22,0.5-0.5v-7
					C142.25,388.47,142.03,388.25,141.75,388.25z M111.58,381.76c-0.19-0.16-0.46-0.16-0.65,0l-6.5,5.57
					c-0.11,0.1-0.17,0.23-0.17,0.38v25.27c0,0.28,0.22,0.5,0.5,0.5h13c0.28,0,0.5-0.22,0.5-0.5v-25.27c0-0.15-0.06-0.28-0.17-0.38
					L111.58,381.76z M113.75,410.84c0,0.28-0.22,0.5-0.5,0.5h-4c-0.28,0-0.5-0.22-0.5-0.5v-7.58c0-0.28,0.22-0.5,0.5-0.5h4
					c0.28,0,0.5,0.22,0.5,0.5V410.84z M111.25,393.25c-1.38,0-2.5-1.12-2.5-2.5c0-1.38,1.12-2.5,2.5-2.5c1.38,0,2.5,1.12,2.5,2.5
					C113.75,392.13,112.63,393.25,111.25,393.25z"/>
			</g>
		</g>
	</g>
	<g>
		<g>
			<path class="st2" d="M65.5,376.75h-22c-0.83,0-1.5,0.67-1.5,1.5s0.67,1.5,1.5,1.5H44v32c0,0.28,0.22,0.5,0.5,0.5h20
				c0.28,0,0.5-0.22,0.5-0.5v-32h0.5c0.83,0,1.5-0.67,1.5-1.5S66.33,376.75,65.5,376.75z M49.88,384.08h9.63
				c0.41,0,0.76,0.25,0.91,0.6l-5.98,4.18l-5.49-4.13C49.1,384.35,49.46,384.08,49.88,384.08z M48.88,387.8l4.78,3.6
				c0.22,0.17,0.49,0.25,0.75,0.25c0.25,0,0.5-0.08,0.72-0.23l5.38-3.76v4.25c0,0.55-0.45,1-1,1h-9.63c-0.55,0-1-0.45-1-1V387.8z
				 M53,407.75c0,0.28-0.22,0.5-0.5,0.5h-5c-0.28,0-0.5-0.22-0.5-0.5V401c0-0.28,0.22-0.5,0.5-0.5h5c0.28,0,0.5,0.22,0.5,0.5V407.75
				z M62,407.75c0,0.28-0.22,0.5-0.5,0.5h-5c-0.28,0-0.5-0.22-0.5-0.5V401c0-0.28,0.22-0.5,0.5-0.5h5c0.28,0,0.5,0.22,0.5,0.5
				V407.75z"/>
			<path class="st2" d="M74,382.75h-6.5v3H74c0.83,0,1.5-0.67,1.5-1.5S74.83,382.75,74,382.75z M33.5,384.25
				c0,0.83,0.67,1.5,1.5,1.5h6.5v-3H35C34.17,382.75,33.5,383.42,33.5,384.25z M41,388.25h-6c-0.28,0-0.5,0.22-0.5,0.5v23
				c0,0.28,0.22,0.5,0.5,0.5h6c0.28,0,0.5-0.22,0.5-0.5v-7.5H37.5c-0.28,0-0.5-0.22-0.5-0.5v-3c0-0.28,0.22-0.5,0.5-0.5h3.99v-4
				H37.5c-0.28,0-0.5-0.22-0.5-0.5v-3c0-0.28,0.22-0.5,0.5-0.5h3.99v-3.5C41.5,388.47,41.27,388.25,41,388.25z M74,388.25h-6
				c-0.28,0-0.5,0.22-0.5,0.5v3.5h4c0.28,0,0.5,0.22,0.5,0.5v3c0,0.28-0.22,0.5-0.5,0.5h-4v4h4c0.28,0,0.5,0.22,0.5,0.5v3
				c0,0.28-0.22,0.5-0.5,0.5h-4v7.5c0,0.28,0.22,0.5,0.5,0.5h6c0.28,0,0.5-0.22,0.5-0.5v-23C74.5,388.47,74.28,388.25,74,388.25z"/>
		</g>
	</g>
	<g>
		<g>
			<g>
				<path class="st2" d="M405.5,308.75h-22c-0.83,0-1.5,0.67-1.5,1.5s0.67,1.5,1.5,1.5h0.5v32c0,0.28,0.22,0.5,0.5,0.5h20
					c0.28,0,0.5-0.22,0.5-0.5v-32h0.5c0.83,0,1.5-0.67,1.5-1.5S406.33,308.75,405.5,308.75z M393,339.75c0,0.28-0.22,0.5-0.5,0.5h-5
					c-0.28,0-0.5-0.22-0.5-0.5V333c0-0.28,0.22-0.5,0.5-0.5h5c0.28,0,0.5,0.22,0.5,0.5V339.75z M393.89,327.42
					c-1.16-0.65-5.25-3.39-5.51-9.62c-0.01-0.33,0.23-0.6,0.56-0.64c2.05-0.25,4.02-1.79,4.85-2.51c0.23-0.2,0.57-0.2,0.81,0
					c0.82,0.72,2.8,2.25,4.85,2.51c0.33,0.04,0.57,0.32,0.56,0.64c-0.25,6.23-4.35,8.97-5.51,9.62
					C394.31,327.53,394.08,327.53,393.89,327.42z M402,339.75c0,0.28-0.22,0.5-0.5,0.5h-5c-0.28,0-0.5-0.22-0.5-0.5V333
					c0-0.28,0.22-0.5,0.5-0.5h5c0.28,0,0.5,0.22,0.5,0.5V339.75z"/>
				<path class="st2" d="M373.5,316.25c0,0.83,0.67,1.5,1.5,1.5h6.5v-3H375C374.17,314.75,373.5,315.42,373.5,316.25z M381,320.25
					h-6c-0.28,0-0.5,0.22-0.5,0.5v23c0,0.28,0.22,0.5,0.5,0.5h6c0.28,0,0.5-0.22,0.5-0.5v-7.5h-3.99c-0.28,0-0.5-0.22-0.5-0.5v-3
					c0-0.28,0.22-0.5,0.5-0.5h3.99v-4h-3.99c-0.28,0-0.5-0.22-0.5-0.5v-3c0-0.28,0.22-0.5,0.5-0.5h3.99v-3.5
					C381.5,320.47,381.27,320.25,381,320.25z M394.2,319c-1.1,0-2,0.9-2,2c0,1.1,0.9,2,2,2c1.1,0,2-0.9,2-2
					C396.2,319.9,395.3,319,394.2,319z M414,320.25h-6c-0.28,0-0.5,0.22-0.5,0.5v3.5h4c0.28,0,0.5,0.22,0.5,0.5v3
					c0,0.28-0.22,0.5-0.5,0.5h-4v4h4c0.28,0,0.5,0.22,0.5,0.5v3c0,0.28-0.22,0.5-0.5,0.5h-4v7.5c0,0.28,0.22,0.5,0.5,0.5h6
					c0.28,0,0.5-0.22,0.5-0.5v-23C414.5,320.47,414.28,320.25,414,320.25z M414,314.75h-6.5v3h6.5c0.83,0,1.5-0.67,1.5-1.5
					S414.83,314.75,414,314.75z"/>
			</g>
		</g>
	</g>
	<g>
		<g>
			<path class="st2" d="M341,342h-1c-0.83,0-1.5-0.67-1.5-1.5c0-0.83,0.67-1.5,1.5-1.5h1c0.83,0,1.5-0.67,1.5-1.5
				c0-0.83-0.67-1.5-1.5-1.5h-1c-0.83,0-1.5-0.67-1.5-1.5c0-0.83,0.67-1.5,1.5-1.5h1c0.28,0,0.5-0.22,0.5-0.5V326
				c0-0.28-0.22-0.5-0.5-0.5h-29c-0.28,0-0.5,0.22-0.5,0.5v6.5c0,0.28,0.22,0.5,0.5,0.5h1c0.83,0,1.5,0.67,1.5,1.5
				c0,0.83-0.67,1.5-1.5,1.5h-1c-0.83,0-1.5,0.67-1.5,1.5c0,0.83,0.67,1.5,1.5,1.5h1c0.83,0,1.5,0.67,1.5,1.5
				c0,0.83-0.67,1.5-1.5,1.5h-1c-0.83,0-1.5,0.67-1.5,1.5c0,0.83,0.67,1.5,1.5,1.5h10c0.28,0,0.5-0.22,0.5-0.5v-4.81
				c0-2.35,1.72-4.45,4.06-4.67c2.68-0.26,4.94,1.85,4.94,4.48v5c0,0.28,0.22,0.5,0.5,0.5h9c0.83,0,1.5-0.67,1.5-1.5
				C342.5,342.67,341.83,342,341,342z M322.5,332c0,0.55-0.45,1-1,1h-3c-0.55,0-1-0.45-1-1v-2c0-0.55,0.45-1,1-1h3
				c0.55,0,1,0.45,1,1V332z M336.5,332c0,0.55-0.45,1-1,1h-3c-0.55,0-1-0.45-1-1v-2c0-0.55,0.45-1,1-1h3c0.55,0,1,0.45,1,1V332z"/>
			<path class="st2" d="M342.66,313.8c-0.09-0.47-0.5-0.8-0.98-0.8H322.5c-0.28,0-0.5,0.22-0.5,0.5v1c0,1.38-1.12,2.5-2.5,2.5v-8.5
				c0-0.28-0.22-0.5-0.5-0.5h-4c-0.28,0-0.5,0.22-0.5,0.5v4.5h-3.18c-0.48,0-0.89,0.34-0.98,0.8l-1.6,8
				c-0.12,0.62,0.35,1.2,0.98,1.2h33.56c0.63,0,1.1-0.58,0.98-1.2L342.66,313.8z"/>
		</g>
	</g>
	<g>
		<g>
			<path class="st2" d="M269.5,308.75h-22c-0.83,0-1.5,0.67-1.5,1.5s0.67,1.5,1.5,1.5h0.5v32c0,0.28,0.22,0.5,0.5,0.5h20
				c0.28,0,0.5-0.22,0.5-0.5v-32h0.5c0.83,0,1.5-0.67,1.5-1.5S270.33,308.75,269.5,308.75z M257,339.75c0,0.28-0.22,0.5-0.5,0.5h-5
				c-0.28,0-0.5-0.22-0.5-0.5V333c0-0.28,0.22-0.5,0.5-0.5h5c0.28,0,0.5,0.22,0.5,0.5V339.75z M255.06,327.16
				c-0.24,0.24-0.56,0.37-0.88,0.37c-0.32,0-0.64-0.12-0.88-0.37c-0.49-0.49-0.49-1.28,0-1.77l3.27-3.27l-1.36-1.36
				c-0.91,0.14-2.01-0.22-2.85-1.07c-1.25-1.25-1.48-3.03-0.53-3.98c0.95-0.95,2.74-0.72,3.98,0.53c0.8,0.8,1.17,1.81,1.1,2.69
				l1.42,1.42l1.3-1.3c-0.42-0.72-0.33-1.66,0.28-2.27l1.88-1.88c0.3-0.3,0.79-0.3,1.1,0c0.3,0.3,0.3,0.79,0,1.1l-0.48,0.48
				c-0.43,0.43-0.43,1.13,0,1.57c0.43,0.43,1.13,0.43,1.57,0l0.48-0.48c0.3-0.3,0.79-0.3,1.1,0l0,0c0.3,0.3,0.3,0.79,0,1.1
				l-1.88,1.88c-0.62,0.62-1.56,0.71-2.27,0.28l-1.3,1.3l3.16,3.16c0.49,0.49,0.49,1.28,0,1.77c-0.24,0.24-0.56,0.37-0.88,0.37
				c-0.32,0-0.64-0.12-0.88-0.37l-3.16-3.16L255.06,327.16z M266,339.75c0,0.28-0.22,0.5-0.5,0.5h-5c-0.28,0-0.5-0.22-0.5-0.5V333
				c0-0.28,0.22-0.5,0.5-0.5h5c0.28,0,0.5,0.22,0.5,0.5V339.75z"/>
			<path class="st2" d="M245,320.25h-6c-0.28,0-0.5,0.22-0.5,0.5v23c0,0.28,0.22,0.5,0.5,0.5h6c0.28,0,0.5-0.22,0.5-0.5v-7.5h-3.99
				c-0.28,0-0.5-0.22-0.5-0.5v-3c0-0.28,0.22-0.5,0.5-0.5h3.99v-4h-3.99c-0.28,0-0.5-0.22-0.5-0.5v-3c0-0.28,0.22-0.5,0.5-0.5h3.99
				v-3.5C245.5,320.47,245.27,320.25,245,320.25z M237.5,316.25c0,0.83,0.67,1.5,1.5,1.5h6.5v-3H239
				C238.17,314.75,237.5,315.42,237.5,316.25z M278,314.75h-6.5v3h6.5c0.83,0,1.5-0.67,1.5-1.5S278.83,314.75,278,314.75z
				 M278,320.25h-6c-0.28,0-0.5,0.22-0.5,0.5v3.5h4c0.28,0,0.5,0.22,0.5,0.5v3c0,0.28-0.22,0.5-0.5,0.5h-4v4h4
				c0.28,0,0.5,0.22,0.5,0.5v3c0,0.28-0.22,0.5-0.5,0.5h-4v7.5c0,0.28,0.22,0.5,0.5,0.5h6c0.28,0,0.5-0.22,0.5-0.5v-23
				C278.5,320.47,278.28,320.25,278,320.25z"/>
		</g>
	</g>
	<g>
		<g>
			<path class="st2" d="M171.43,324.5V347h38v-22.5H171.43z M179.86,338.86h-6v-4h6V338.86z M179.86,331.86h-6v-4h6V331.86z
				 M188.99,345h-6v-10.14h6V345z M189,331.86h-6v-4h6V331.86z M197.86,345h-6v-10.14h6V345z M197.86,331.86h-6v-4h6V331.86z
				 M206.99,338.86h-6v-4h6V338.86z M206.99,331.86h-6v-4h6V331.86z"/>
			<path class="st2" d="M208.57,319h-6.82v-3H204v-10h-28v10h2.25v3h-5.82c-0.79,0-1.43,0.67-1.43,1.5s0.64,1.5,1.43,1.5h36.15
				c0.79,0,1.43-0.67,1.43-1.5S209.36,319,208.57,319z M198.75,319h-17.5v-3h17.5V319z"/>
		</g>
	</g>
	<g>
		<g>
			<g>
				<g>
					<path class="st2" d="M138,339h-2v-15.76c-0.09,0-0.19,0.01-0.28,0.01h-0.23c-1.71,0-3.24-0.79-4.25-2.01
						c-1.01,1.23-2.54,2.01-4.25,2.01h-0.23c-1.71,0-3.24-0.79-4.25-2.01c-1.01,1.23-2.54,2.01-4.25,2.01h-0.23
						c-1.71,0-3.24-0.79-4.25-2.01c-1.01,1.23-2.54,2.01-4.25,2.01h-0.23c-0.1,0-0.19-0.01-0.28-0.01V339h-2c-0.55,0-1,0.45-1,1v3.5
						c0,0.28,0.22,0.5,0.5,0.5h32c0.28,0,0.5-0.22,0.5-0.5V340C139,339.45,138.55,339,138,339z M122,337.5c0,0.28-0.22,0.5-0.5,0.5
						h-9c-0.28,0-0.5-0.22-0.5-0.5v-10c0-0.28,0.22-0.5,0.5-0.5h9c0.28,0,0.5,0.22,0.5,0.5V337.5z M133,340.5
						c0,0.28-0.22,0.5-0.5,0.5h-6c-0.28,0-0.5-0.22-0.5-0.5v-13c0-0.28,0.22-0.5,0.5-0.5h6c0.28,0,0.5,0.22,0.5,0.5V340.5z"/>
					<path class="st2" d="M130,333.25h-1c-0.69,0-1.25,0.56-1.25,1.25s0.56,1.25,1.25,1.25h1c0.69,0,1.25-0.56,1.25-1.25
						S130.69,333.25,130,333.25z M138.71,316.25v-2.07c0-0.35-0.09-0.69-0.26-0.99l-1.81-3.18c-0.36-0.62-1.02-1.01-1.74-1.01
						h-24.81c-0.72,0-1.38,0.39-1.74,1.01l-1.81,3.18c-0.17,0.3-0.26,0.64-0.26,0.99v2.89h0v0.68c0,1.65,1.35,3,3,3h0.23
						c1.65,0,3-1.35,3-3V316c0-0.69,0.56-1.25,1.25-1.25s1.25,0.56,1.25,1.25v1.75c0,1.65,1.35,3,3,3h0.23c1.65,0,3-1.35,3-3v-1.5
						h-0.02V316c0-0.69,0.56-1.25,1.25-1.25s1.25,0.56,1.25,1.25v1.07h0.02v0.68c0,1.65,1.35,3,3,3h0.23c1.65,0,3-1.35,3-3V316
						c0-0.69,0.56-1.25,1.25-1.25s1.25,0.56,1.25,1.25v1.75c0,1.65,1.35,3,3,3h0.23c1.65,0,3-1.35,3-3L138.71,316.25L138.71,316.25z
						"/>
				</g>
			</g>
		</g>
	</g>
	<g>
		<g>
			<g>
				<path class="st2" d="M74.35,322.75H61.04v22c0,0.28,0.22,0.5,0.5,0.5h12c0.28,0,0.5-0.22,0.5-0.5v-19h0.31
					c0.83,0,1.5-0.67,1.5-1.5S75.17,322.75,74.35,322.75z M70.23,338c0,0.28-0.22,0.5-0.5,0.5h-5c-0.28,0-0.5-0.22-0.5-0.5v-3
					c0-0.28,0.22-0.5,0.5-0.5h5c0.28,0,0.5,0.22,0.5,0.5V338z M70.23,331c0,0.28-0.22,0.5-0.5,0.5h-5c-0.28,0-0.5-0.22-0.5-0.5v-3
					c0-0.28,0.22-0.5,0.5-0.5h5c0.28,0,0.5,0.22,0.5,0.5V331z M43.19,307.5h-4.08c-0.26,0-0.48,0.2-0.5,0.46l-0.19,2.25
					c-0.02,0.29,0.21,0.54,0.5,0.54h4.45c0.29,0,0.52-0.25,0.5-0.54l-0.19-2.25C43.67,307.7,43.45,307.5,43.19,307.5z M54.19,307.5
					h-4.08c-0.26,0-0.48,0.2-0.5,0.46l-0.19,2.25c-0.02,0.29,0.21,0.54,0.5,0.54h4.45c0.29,0,0.52-0.25,0.5-0.54l-0.19-2.25
					C54.67,307.7,54.45,307.5,54.19,307.5z"/>
				<path class="st2" d="M58.65,317.5h-3.17l-0.32-3.79c-0.02-0.26-0.24-0.46-0.5-0.46h-5.04c-0.26,0-0.48,0.2-0.5,0.46l-0.32,3.79
					h-4.33l-0.32-3.79c-0.02-0.26-0.24-0.46-0.5-0.46h-5.04c-0.26,0-0.48,0.2-0.5,0.46l-0.32,3.79H34.7c-0.85,0-1.54,0.67-1.54,1.5
					s0.69,1.5,1.54,1.5h23.96c0.83,0,1.5-0.67,1.5-1.5S59.48,317.5,58.65,317.5z M58.15,323h-23c-0.28,0-0.5,0.22-0.5,0.5V345
					c0,0.28,0.22,0.5,0.5,0.5h23c0.28,0,0.5-0.22,0.5-0.5v-21.5C58.65,323.22,58.43,323,58.15,323z M45.09,336.86
					c0,0.28-0.22,0.5-0.5,0.5h-5c-0.28,0-0.5-0.22-0.5-0.5v-3c0-0.28,0.22-0.5,0.5-0.5h5c0.28,0,0.5,0.22,0.5,0.5V336.86z
					 M45.09,329.86c0,0.28-0.22,0.5-0.5,0.5h-5c-0.28,0-0.5-0.22-0.5-0.5v-3c0-0.28,0.22-0.5,0.5-0.5h5c0.28,0,0.5,0.22,0.5,0.5
					V329.86z M54.22,336.86c0,0.28-0.22,0.5-0.5,0.5h-5c-0.28,0-0.5-0.22-0.5-0.5v-3c0-0.28,0.22-0.5,0.5-0.5h5
					c0.28,0,0.5,0.22,0.5,0.5V336.86z M54.22,329.86c0,0.28-0.22,0.5-0.5,0.5h-5c-0.28,0-0.5-0.22-0.5-0.5v-3
					c0-0.28,0.22-0.5,0.5-0.5h5c0.28,0,0.5,0.22,0.5,0.5V329.86z"/>
			</g>
		</g>
	</g>
	<g>
		<g>
			<path class="st2" d="M401.33,251.33l-6.5-5.57c-0.19-0.16-0.46-0.16-0.65,0l-6.5,5.57c-0.11,0.1-0.17,0.23-0.17,0.38v25.27
				c0,0.28,0.22,0.5,0.5,0.5h13c0.28,0,0.5-0.22,0.5-0.5v-25.27C401.51,251.56,401.44,251.42,401.33,251.33z M397.01,274.84
				c0,0.28-0.22,0.5-0.5,0.5h-4c-0.28,0-0.5-0.22-0.5-0.5v-7.58c0-0.28,0.22-0.5,0.5-0.5h4c0.28,0,0.5,0.22,0.5,0.5V274.84z
				 M394.51,257.25c-1.38,0-2.5-1.12-2.5-2.5c0-1.38,1.12-2.5,2.5-2.5c1.38,0,2.5,1.12,2.5,2.5
				C397.01,256.13,395.89,257.25,394.51,257.25z"/>
			<path class="st2" d="M395.49,239.88c-0.56-0.48-1.39-0.48-1.95,0l-7,6c-0.63,0.54-0.7,1.49-0.16,2.12
				c0.54,0.63,1.49,0.7,2.12,0.16l6.02-5.16l6.02,5.16c0.28,0.24,0.63,0.36,0.98,0.36c0.42,0,0.84-0.18,1.14-0.52
				c0.54-0.63,0.47-1.58-0.16-2.12L395.49,239.88z M384.57,257.48h-6c-0.28,0-0.5,0.22-0.5,0.5v19c0,0.28,0.22,0.5,0.5,0.5h6
				c0.28,0,0.5-0.22,0.5-0.5v-3.5h-3.99c-0.28,0-0.5-0.22-0.5-0.5v-3c0-0.28,0.22-0.5,0.5-0.5h3.99v-4h-3.99
				c-0.28,0-0.5-0.22-0.5-0.5v-3c0-0.28,0.22-0.5,0.5-0.5h3.99v-3.5C385.07,257.7,384.84,257.48,384.57,257.48z M377.07,253.48
				c0,0.83,0.67,1.5,1.5,1.5h6.5v-3h-6.5C377.74,251.98,377.07,252.65,377.07,253.48z M410.43,251.98h-6.5v3h6.5
				c0.83,0,1.5-0.67,1.5-1.5S411.26,251.98,410.43,251.98z M410.43,257.48h-6c-0.28,0-0.5,0.22-0.5,0.5v3.5h3.99
				c0.28,0,0.5,0.22,0.5,0.5v3c0,0.28-0.22,0.5-0.5,0.5h-3.99v4h3.99c0.28,0,0.5,0.22,0.5,0.5v3c0,0.28-0.22,0.5-0.5,0.5h-3.99v3.5
				c0,0.28,0.22,0.5,0.5,0.5h6c0.28,0,0.5-0.22,0.5-0.5v-19C410.93,257.7,410.71,257.48,410.43,257.48z"/>
		</g>
	</g>
	<g>
		<g>
			<path class="st2" d="M342,276.25h-0.82c-1.61-4.39-4.31-13.14-4.65-23H338c0.28,0,0.5-0.22,0.5-0.5v-3c0-0.28-0.22-0.5-0.5-0.5
				h-23c-0.28,0-0.5,0.22-0.5,0.5v3c0,0.28,0.22,0.5,0.5,0.5h1.46c-0.34,9.86-3.1,18.61-4.74,23H311c-0.28,0-0.5,0.22-0.5,0.5v3
				c0,0.28,0.22,0.5,0.5,0.5h31c0.28,0,0.5-0.22,0.5-0.5v-3C342.5,276.47,342.28,276.25,342,276.25z M326.25,262.91
				c0.92,0,1.66,0.74,1.66,1.66c0,0.92-0.74,1.66-1.66,1.66s-1.66-0.74-1.66-1.66C324.59,263.65,325.33,262.91,326.25,262.91z
				 M321.63,264.52l-3.13-0.04c-0.28,0-0.52-0.25-0.5-0.53c0.19-2.59,1.57-4.84,3.6-6.22c0.24-0.16,0.56-0.08,0.71,0.17l1.6,2.71
				c0.13,0.23,0.06,0.5-0.15,0.66c-0.87,0.66-1.48,1.65-1.62,2.78C322.1,264.31,321.89,264.52,321.63,264.52z M329.85,272.03
				c-1.09,0.53-2.31,0.83-3.6,0.83c-1.29,0-2.51-0.3-3.6-0.83c-0.26-0.12-0.35-0.45-0.21-0.69l1.54-2.74
				c0.12-0.22,0.39-0.32,0.62-0.22c0.5,0.22,1.06,0.36,1.64,0.36s1.14-0.13,1.64-0.36c0.23-0.1,0.5,0,0.62,0.22l1.54,2.74
				C330.19,271.58,330.1,271.9,329.85,272.03z M334.01,264.48l-3.13,0.04c-0.26,0-0.47-0.2-0.5-0.47c-0.14-1.14-0.75-2.13-1.62-2.78
				c-0.21-0.16-0.28-0.44-0.15-0.66l1.6-2.71c0.15-0.24,0.47-0.33,0.71-0.17c2.03,1.38,3.41,3.64,3.6,6.22
				C334.53,264.24,334.29,264.48,334.01,264.48z"/>
			<path class="st2" d="M331.43,236.75c-2.43,0-4.45,1.68-4.95,3.93c-0.49-0.28-1.06-0.45-1.66-0.45c-1.83,0-3.31,1.46-3.31,3.26
				l-0.01,3.25l10.16,0c2.7-0.11,4.85-2.3,4.85-4.99C336.5,238.99,334.23,236.75,331.43,236.75z"/>
		</g>
	</g>
	<g>
		<g>
			<path class="st2" d="M278.85,259.89h-27.49c-0.28,0-0.5,0.22-0.5,0.5v16.23c0,0.28,0.22,0.5,0.5,0.5h27.49
				c0.28,0,0.5-0.22,0.5-0.5v-16.23C279.35,260.11,279.13,259.89,278.85,259.89z M258.98,273.39c0,0.28-0.22,0.5-0.5,0.5h-3.75
				c-0.28,0-0.5-0.22-0.5-0.5v-9.89c0-0.28,0.22-0.5,0.5-0.5h3.75c0.28,0,0.5,0.22,0.5,0.5V273.39z M267.48,273.39
				c0,0.28-0.22,0.5-0.5,0.5h-3.75c-0.28,0-0.5-0.22-0.5-0.5v-9.89c0-0.28,0.22-0.5,0.5-0.5h3.75c0.28,0,0.5,0.22,0.5,0.5V273.39z
				 M275.98,273.39c0,0.28-0.22,0.5-0.5,0.5h-3.75c-0.28,0-0.5-0.22-0.5-0.5v-9.89c0-0.28,0.22-0.5,0.5-0.5h3.75
				c0.28,0,0.5,0.22,0.5,0.5V273.39z"/>
			<path class="st2" d="M247.85,254.39h-6c-0.28,0-0.5,0.22-0.5,0.5v21.82c0,0.22,0.18,0.4,0.4,0.4h6.21c0.21,0,0.39-0.17,0.39-0.39
				v-21.84C248.35,254.61,248.13,254.39,247.85,254.39z M251.51,251.08l1.6-8c0.12-0.62-0.35-1.2-0.98-1.2h-4.28v-1
				c0-0.55-0.45-1-1-1h-4c-0.55,0-1,0.45-1,1v1h-4.28c-0.63,0-1.1,0.58-0.98,1.2l1.6,8c0.09,0.47,0.5,0.8,0.98,0.8h11.36
				C251.01,251.89,251.42,251.55,251.51,251.08z M243.6,249.39h-3.2l-1-5h4.2V249.39z M249.3,249.39h-3.2v-5h4.2L249.3,249.39z
				 M278.93,254.39h-27.58c-0.28,0-0.5,0.22-0.5,0.5v2c0,0.28,0.22,0.5,0.5,0.5h27.58c0.83,0,1.5-0.67,1.5-1.5
				C280.43,255.06,279.76,254.39,278.93,254.39z"/>
		</g>
	</g>
	<g>
		<g>
			<path class="st2" d="M193.5,256.67v-1c0-0.28-0.22-0.5-0.5-0.5h-5c-0.28,0-0.5,0.22-0.5,0.5v1c0,0.26,0.2,0.46,0.45,0.49v12.02
				c-0.25,0.03-0.45,0.23-0.45,0.49v1c0,0.28,0.22,0.5,0.5,0.5h5c0.28,0,0.5-0.22,0.5-0.5v-1c0-0.26-0.2-0.46-0.45-0.49v-12.02
				C193.3,257.14,193.5,256.93,193.5,256.67z"/>
			<path class="st2" d="M207,273.67h-33c-0.55,0-1,0.45-1,1v3c0,0.28,0.22,0.5,0.5,0.5h34c0.28,0,0.5-0.22,0.5-0.5v-3
				C208,274.12,207.55,273.67,207,273.67z M177.5,269.67v1c0,0.28,0.22,0.5,0.5,0.5h5c0.28,0,0.5-0.22,0.5-0.5v-1
				c0-0.28-0.22-0.5-0.5-0.5v-12c0.28,0,0.5-0.22,0.5-0.5v-1c0-0.28-0.22-0.5-0.5-0.5h-5c-0.28,0-0.5,0.22-0.5,0.5v1
				c0,0.28,0.22,0.5,0.5,0.5v12C177.72,269.17,177.5,269.4,177.5,269.67z M207.5,248.39l-16.5-9.43c-0.31-0.18-0.68-0.18-0.99,0
				l-16.5,9.43c-0.31,0.18-0.5,0.51-0.5,0.87v2.92c0,0.28,0.22,0.5,0.5,0.5h34c0.28,0,0.5-0.22,0.5-0.5v-2.92
				C208,248.9,207.81,248.56,207.5,248.39z M190.5,249.92c-1.59,0-2.88-1.29-2.88-2.88s1.29-2.88,2.88-2.88s2.88,1.29,2.88,2.88
				S192.09,249.92,190.5,249.92z M197.5,269.67v1c0,0.28,0.22,0.5,0.5,0.5h5c0.28,0,0.5-0.22,0.5-0.5v-1c0-0.28-0.22-0.5-0.5-0.5
				v-12c0.28,0,0.5-0.22,0.5-0.5v-1c0-0.28-0.22-0.5-0.5-0.5h-5c-0.28,0-0.5,0.22-0.5,0.5v1c0,0.24,0.17,0.43,0.4,0.48v12.04
				C197.67,269.24,197.5,269.44,197.5,269.67z"/>
		</g>
	</g>
	<g>
		<g>
			<path class="st2" d="M140.93,254.5h-37c-0.28,0-0.5,0.22-0.5,0.5v21.5c0,0.28,0.22,0.5,0.5,0.5h37c0.28,0,0.5-0.22,0.5-0.5V255
				C141.43,254.72,141.2,254.5,140.93,254.5z M111.86,268.36c0,0.28-0.22,0.5-0.5,0.5h-5c-0.28,0-0.5-0.22-0.5-0.5v-3
				c0-0.28,0.22-0.5,0.5-0.5h5c0.28,0,0.5,0.22,0.5,0.5V268.36z M111.86,261.36c0,0.28-0.22,0.5-0.5,0.5h-5
				c-0.28,0-0.5-0.22-0.5-0.5v-3c0-0.28,0.22-0.5,0.5-0.5h5c0.28,0,0.5,0.22,0.5,0.5V261.36z M120.99,268.36
				c0,0.28-0.22,0.5-0.5,0.5h-5c-0.28,0-0.5-0.22-0.5-0.5v-3c0-0.28,0.22-0.5,0.5-0.5h5c0.28,0,0.5,0.22,0.5,0.5V268.36z
				 M120.99,261.36c0,0.28-0.22,0.5-0.5,0.5h-5c-0.28,0-0.5-0.22-0.5-0.5v-3c0-0.28,0.22-0.5,0.5-0.5h5c0.28,0,0.5,0.22,0.5,0.5
				V261.36z M129.86,268.36c0,0.28-0.22,0.5-0.5,0.5h-5c-0.28,0-0.5-0.22-0.5-0.5v-3c0-0.28,0.22-0.5,0.5-0.5h5
				c0.28,0,0.5,0.22,0.5,0.5V268.36z M129.86,261.36c0,0.28-0.22,0.5-0.5,0.5h-5c-0.28,0-0.5-0.22-0.5-0.5v-3
				c0-0.28,0.22-0.5,0.5-0.5h5c0.28,0,0.5,0.22,0.5,0.5V261.36z M138.99,268.36c0,0.28-0.22,0.5-0.5,0.5h-5
				c-0.28,0-0.5-0.22-0.5-0.5v-3c0-0.28,0.22-0.5,0.5-0.5h5c0.28,0,0.5,0.22,0.5,0.5V268.36z M138.99,261.36
				c0,0.28-0.22,0.5-0.5,0.5h-5c-0.28,0-0.5-0.22-0.5-0.5v-3c0-0.28,0.22-0.5,0.5-0.5h5c0.28,0,0.5,0.22,0.5,0.5V261.36z"/>
			<path class="st2" d="M141.5,249h-8.01v-4h4.59c0.31,0,0.47-0.36,0.27-0.59l-1.44-1.68c-0.11-0.13-0.11-0.33,0-0.46l1.44-1.68
				c0.2-0.23,0.03-0.59-0.27-0.59h-6.72c-0.2,0-0.36,0.16-0.36,0.36V241h-0.01v8h-8.5v-4h4.59c0.31,0,0.47-0.36,0.27-0.59
				l-1.44-1.68c-0.11-0.13-0.11-0.33,0-0.46l1.44-1.68c0.2-0.23,0.03-0.59-0.27-0.59h-6.72c-0.2,0-0.36,0.16-0.36,0.36V241h-0.01v8
				h-8.5v-4h4.59c0.31,0,0.47-0.36,0.27-0.59l-1.44-1.68c-0.11-0.13-0.11-0.33,0-0.46l1.44-1.68c0.2-0.23,0.03-0.59-0.27-0.59h-6.72
				c-0.2,0-0.36,0.16-0.36,0.36V241h-0.01v8h-5.49c-0.83,0-1.5,0.67-1.5,1.5s0.67,1.5,1.5,1.5h38c0.83,0,1.5-0.67,1.5-1.5
				S142.33,249,141.5,249z"/>
		</g>
	</g>
	<g>
		<g>
			<path class="st2" d="M65.5,240.75h-22c-0.83,0-1.5,0.67-1.5,1.5s0.67,1.5,1.5,1.5H44v32c0,0.28,0.22,0.5,0.5,0.5h20
				c0.28,0,0.5-0.22,0.5-0.5v-32h0.5c0.83,0,1.5-0.67,1.5-1.5S66.33,240.75,65.5,240.75z M57.2,273.75c0,0.28-0.22,0.5-0.5,0.5
				h-4.38c-0.28,0-0.5-0.22-0.5-0.5V266c0-0.28,0.22-0.5,0.5-0.5h4.38c0.28,0,0.5,0.22,0.5,0.5V273.75z M62.1,260
				c0,0.28-0.22,0.5-0.5,0.5H47.41c-0.28,0-0.5-0.22-0.5-0.5v-4c0-0.28,0.22-0.5,0.5-0.5H61.6c0.28,0,0.5,0.22,0.5,0.5V260z
				 M62.1,251c0,0.28-0.22,0.5-0.5,0.5H47.41c-0.28,0-0.5-0.22-0.5-0.5v-4c0-0.28,0.22-0.5,0.5-0.5H61.6c0.28,0,0.5,0.22,0.5,0.5
				V251z"/>
			<path class="st2" d="M33.5,248.25c0,0.83,0.67,1.5,1.5,1.5h6.5v-3H35C34.17,246.75,33.5,247.42,33.5,248.25z M41,252.25h-6
				c-0.28,0-0.5,0.22-0.5,0.5v23c0,0.28,0.22,0.5,0.5,0.5h6c0.28,0,0.5-0.22,0.5-0.5v-7.5H37.5c-0.28,0-0.5-0.22-0.5-0.5v-3
				c0-0.28,0.22-0.5,0.5-0.5h3.99v-4H37.5c-0.28,0-0.5-0.22-0.5-0.5v-3c0-0.28,0.22-0.5,0.5-0.5h3.99v-3.5
				C41.5,252.47,41.27,252.25,41,252.25z M74,246.75h-6.5v3H74c0.83,0,1.5-0.67,1.5-1.5S74.83,246.75,74,246.75z M74,252.25h-6
				c-0.28,0-0.5,0.22-0.5,0.5v3.5h4c0.28,0,0.5,0.22,0.5,0.5v3c0,0.28-0.22,0.5-0.5,0.5h-4v4h4c0.28,0,0.5,0.22,0.5,0.5v3
				c0,0.28-0.22,0.5-0.5,0.5h-4v7.5c0,0.28,0.22,0.5,0.5,0.5h6c0.28,0,0.5-0.22,0.5-0.5v-23C74.5,252.47,74.28,252.25,74,252.25z"/>
		</g>
	</g>
	<g>
		<g>
			<g>
				<path class="st2" d="M416.48,177.88l-7-6c-0.56-0.48-1.39-0.48-1.95,0l-6.02,5.16l-6.02-5.16c-0.56-0.48-1.39-0.48-1.95,0
					l-6.02,5.16l-6.02-5.16c-0.56-0.48-1.39-0.48-1.95,0l-7,6c-0.63,0.54-0.7,1.49-0.16,2.12c0.54,0.63,1.49,0.7,2.12,0.16
					l6.02-5.16l6.02,5.16c0.01,0.01,0.01,0.01,0.02,0.01c0.12,0.1,0.26,0.18,0.4,0.24c0.03,0.01,0.05,0.02,0.08,0.03
					c0.14,0.05,0.29,0.07,0.44,0.08c0.01,0,0.02,0.01,0.04,0.01c0.03,0,0.05-0.01,0.08-0.01c0.06,0,0.11-0.01,0.17-0.02
					c0.04-0.01,0.09-0.02,0.13-0.03c0.06-0.01,0.11-0.03,0.16-0.05c0.04-0.02,0.08-0.03,0.13-0.05c0.05-0.03,0.1-0.06,0.15-0.09
					c0.04-0.03,0.08-0.05,0.12-0.08c0.01-0.01,0.03-0.02,0.05-0.03l6.02-5.16l6.02,5.16c0.01,0.01,0.01,0.01,0.02,0.01
					c0.12,0.1,0.26,0.18,0.4,0.24c0.03,0.01,0.05,0.02,0.08,0.03c0.14,0.05,0.29,0.07,0.44,0.08c0.01,0,0.02,0.01,0.04,0.01
					c0.03,0,0.05-0.01,0.08-0.01c0.06,0,0.11-0.01,0.17-0.02c0.04-0.01,0.09-0.02,0.13-0.03c0.05-0.01,0.11-0.03,0.16-0.05
					c0.04-0.02,0.09-0.03,0.13-0.06c0.05-0.03,0.1-0.05,0.15-0.09c0.04-0.03,0.08-0.05,0.12-0.08c0.01-0.01,0.03-0.02,0.05-0.03
					l6.02-5.16l6.02,5.16c0.28,0.24,0.63,0.36,0.98,0.36c0.42,0,0.84-0.18,1.14-0.52C417.18,179.37,417.11,178.42,416.48,177.88z"/>
				<path class="st2" d="M415.33,183.33l-6.5-5.57c-0.19-0.16-0.46-0.16-0.65,0l-6.5,5.57c-0.11,0.1-0.17,0.23-0.17,0.38
					c0-0.15-0.06-0.28-0.17-0.38l-6.5-5.57c-0.19-0.16-0.46-0.16-0.65,0l-6.5,5.57c-0.11,0.1-0.17,0.23-0.17,0.38
					c0-0.15-0.06-0.28-0.17-0.38l-6.5-5.57c-0.19-0.16-0.46-0.16-0.65,0l-6.5,5.57c-0.11,0.1-0.17,0.23-0.17,0.38v25.27
					c0,0.28,0.22,0.5,0.5,0.5h13c0.28,0,0.5-0.22,0.5-0.5c0,0.28,0.22,0.5,0.5,0.5h13c0.28,0,0.5-0.22,0.5-0.5
					c0,0.28,0.22,0.5,0.5,0.5h13c0.28,0,0.5-0.22,0.5-0.5v-25.27C415.5,183.56,415.44,183.42,415.33,183.33z M375.5,187.64
					c0-0.28,0.22-0.5,0.5-0.5h3c0.28,0,0.5,0.22,0.5,0.5v1.67c0,0.28-0.22,0.5-0.5,0.5h-3c-0.28,0-0.5-0.22-0.5-0.5V187.64z
					 M375.5,194.31v-1.67c0-0.28,0.22-0.5,0.5-0.5h3c0.28,0,0.5,0.22,0.5,0.5v1.67c0,0.28-0.22,0.5-0.5,0.5h-3
					C375.72,194.81,375.5,194.59,375.5,194.31z M382.5,206.98c0,0.28-0.22,0.5-0.5,0.5h-3c-0.28,0-0.5-0.22-0.5-0.5v-6
					c0-0.28,0.22-0.5,0.5-0.5h3c0.28,0,0.5,0.22,0.5,0.5V206.98z M385.5,194.31c0,0.28-0.22,0.5-0.5,0.5h-3
					c-0.28,0-0.5-0.22-0.5-0.5v-1.67c0-0.28,0.22-0.5,0.5-0.5h3c0.28,0,0.5,0.22,0.5,0.5V194.31z M385.5,189.31
					c0,0.28-0.22,0.5-0.5,0.5h-3c-0.28,0-0.5-0.22-0.5-0.5v-1.67c0-0.28,0.22-0.5,0.5-0.5h3c0.28,0,0.5,0.22,0.5,0.5V189.31z
					 M389.5,187.64c0-0.28,0.22-0.5,0.5-0.5h3c0.28,0,0.5,0.22,0.5,0.5v1.67c0,0.28-0.22,0.5-0.5,0.5h-3c-0.28,0-0.5-0.22-0.5-0.5
					V187.64z M389.5,194.31v-1.67c0-0.28,0.22-0.5,0.5-0.5h3c0.28,0,0.5,0.22,0.5,0.5v1.67c0,0.28-0.22,0.5-0.5,0.5h-3
					C389.72,194.81,389.5,194.59,389.5,194.31z M396.5,206.98c0,0.28-0.22,0.5-0.5,0.5h-3c-0.28,0-0.5-0.22-0.5-0.5v-6
					c0-0.28,0.22-0.5,0.5-0.5h3c0.28,0,0.5,0.22,0.5,0.5V206.98z M399.5,194.31c0,0.28-0.22,0.5-0.5,0.5h-3
					c-0.28,0-0.5-0.22-0.5-0.5v-1.67c0-0.28,0.22-0.5,0.5-0.5h3c0.28,0,0.5,0.22,0.5,0.5V194.31z M399.5,189.31
					c0,0.28-0.22,0.5-0.5,0.5h-3c-0.28,0-0.5-0.22-0.5-0.5v-1.67c0-0.28,0.22-0.5,0.5-0.5h3c0.28,0,0.5,0.22,0.5,0.5V189.31z
					 M403.5,187.64c0-0.28,0.22-0.5,0.5-0.5h3c0.28,0,0.5,0.22,0.5,0.5v1.67c0,0.28-0.22,0.5-0.5,0.5h-3c-0.28,0-0.5-0.22-0.5-0.5
					V187.64z M403.5,194.31v-1.67c0-0.28,0.22-0.5,0.5-0.5h3c0.28,0,0.5,0.22,0.5,0.5v1.67c0,0.28-0.22,0.5-0.5,0.5h-3
					C403.72,194.81,403.5,194.59,403.5,194.31z M410.5,206.98c0,0.28-0.22,0.5-0.5,0.5h-3c-0.28,0-0.5-0.22-0.5-0.5v-6
					c0-0.28,0.22-0.5,0.5-0.5h3c0.28,0,0.5,0.22,0.5,0.5V206.98z M413.5,194.31c0,0.28-0.22,0.5-0.5,0.5h-3
					c-0.28,0-0.5-0.22-0.5-0.5v-1.67c0-0.28,0.22-0.5,0.5-0.5h3c0.28,0,0.5,0.22,0.5,0.5V194.31z M413.5,189.31
					c0,0.28-0.22,0.5-0.5,0.5h-3c-0.28,0-0.5-0.22-0.5-0.5v-1.67c0-0.28,0.22-0.5,0.5-0.5h3c0.28,0,0.5,0.22,0.5,0.5V189.31z"/>
			</g>
		</g>
	</g>
	<g>
		<g>
			<g>
				<path class="st2" d="M337.5,172.75h-22c-0.83,0-1.5,0.67-1.5,1.5c0,0.83,0.67,1.5,1.5,1.5h0.5v32c0,0.28,0.22,0.5,0.5,0.5h20
					c0.28,0,0.5-0.22,0.5-0.5v-32h0.5c0.83,0,1.5-0.67,1.5-1.5C339,173.42,338.33,172.75,337.5,172.75z M325,203.75
					c0,0.28-0.22,0.5-0.5,0.5h-5c-0.28,0-0.5-0.22-0.5-0.5v-3c0-0.28,0.22-0.5,0.5-0.5h5c0.28,0,0.5,0.22,0.5,0.5V203.75z
					 M325,195.75c0,0.28-0.22,0.5-0.5,0.5h-5c-0.28,0-0.5-0.22-0.5-0.5v-3c0-0.28,0.22-0.5,0.5-0.5h5c0.28,0,0.5,0.22,0.5,0.5
					V195.75z M320.5,182.25c0-3.31,2.69-6,6-6c3.31,0,6,2.69,6,6c0,3.31-2.69,6-6,6C323.19,188.25,320.5,185.56,320.5,182.25z
					 M334,203.75c0,0.28-0.22,0.5-0.5,0.5h-5c-0.28,0-0.5-0.22-0.5-0.5v-3c0-0.28,0.22-0.5,0.5-0.5h5c0.28,0,0.5,0.22,0.5,0.5
					V203.75z M334,195.75c0,0.28-0.22,0.5-0.5,0.5h-5c-0.28,0-0.5-0.22-0.5-0.5v-3c0-0.28,0.22-0.5,0.5-0.5h5
					c0.28,0,0.5,0.22,0.5,0.5V195.75z"/>
				<path class="st2" d="M305.5,180.25c0,0.83,0.67,1.5,1.5,1.5h6.5v-3H307C306.17,178.75,305.5,179.42,305.5,180.25z M329.73,180.9
					h-1.88v-1.88c0-0.15-0.12-0.27-0.27-0.27h-2.15c-0.15,0-0.27,0.12-0.27,0.27v1.88h-1.88c-0.15,0-0.27,0.12-0.27,0.27v2.15
					c0,0.15,0.12,0.27,0.27,0.27h1.88v1.88c0,0.15,0.12,0.27,0.27,0.27h2.15c0.15,0,0.27-0.12,0.27-0.27v-1.88h1.88
					c0.15,0,0.27-0.12,0.27-0.27v-2.15C330,181.02,329.88,180.9,329.73,180.9z M313,184.25h-6c-0.28,0-0.5,0.22-0.5,0.5v23
					c0,0.28,0.22,0.5,0.5,0.5h6c0.28,0,0.5-0.22,0.5-0.5v-7.5h-3.99c-0.28,0-0.5-0.22-0.5-0.5v-3c0-0.28,0.22-0.5,0.5-0.5h3.99v-4
					h-3.99c-0.28,0-0.5-0.22-0.5-0.5v-3c0-0.28,0.22-0.5,0.5-0.5h3.99v-3.5C313.5,184.47,313.27,184.25,313,184.25z M346,178.75
					h-6.5v3h6.5c0.83,0,1.5-0.67,1.5-1.5C347.5,179.42,346.83,178.75,346,178.75z M346,184.25h-6c-0.28,0-0.5,0.22-0.5,0.5v3.5h4
					c0.28,0,0.5,0.22,0.5,0.5v3c0,0.28-0.22,0.5-0.5,0.5h-4v4h4c0.28,0,0.5,0.22,0.5,0.5v3c0,0.28-0.22,0.5-0.5,0.5h-4v7.5
					c0,0.28,0.22,0.5,0.5,0.5h6c0.28,0,0.5-0.22,0.5-0.5v-23C346.5,184.47,346.28,184.25,346,184.25z"/>
			</g>
		</g>
	</g>
	<g>
		<g>
			<path class="st2" d="M276.25,187.25h-3.51c-0.28,0-0.5,0.22-0.5,0.5v2c0,0.28-0.22,0.5-0.5,0.5h-1.49c0,0,0,0,0,0c0,0,0,0,0,0
				h-1.5c-0.28,0-0.5-0.22-0.5-0.5v-2c0-0.28-0.22-0.5-0.5-0.5h-3.5c-0.28,0-0.5,0.22-0.5,0.5v18.75c0,0.28,0.22,0.5,0.5,0.5h6
				c0,0,0,0,0,0c0,0,0,0,0,0h6c0.28,0,0.5-0.22,0.5-0.5v-18.75C276.75,187.47,276.53,187.25,276.25,187.25z M273.24,202.75
				c0,0.28-0.22,0.5-0.5,0.5h-5c-0.28,0-0.5-0.22-0.5-0.5v-3.5c0-1.66,1.34-3,3-3s3,1.34,3,3V202.75z"/>
			<path class="st2" d="M260.75,174h-3c-0.28,0-0.5,0.22-0.5,0.5v2.25c0,0.28-0.22,0.5-0.5,0.5h-3c-0.28,0-0.5-0.22-0.5-0.5v-2.25
				c0-0.28-0.22-0.5-0.5-0.5h-4c-0.28,0-0.5,0.22-0.5,0.5v2.25c0,0.28-0.22,0.5-0.5,0.5h-3c-0.28,0-0.5-0.22-0.5-0.5v-2.25
				c0-0.28-0.22-0.5-0.5-0.5h-3c-0.28,0-0.5,0.22-0.5,0.5v32c0,0.28,0.22,0.5,0.5,0.5h6.67v-5.75c0-1.66,1.34-3,3-3h0.67
				c1.66,0,3,1.34,3,3V207h6.67c0.28,0,0.5-0.22,0.5-0.5v-32C261.25,174.22,261.03,174,260.75,174z M248.75,188.75
				c0,0.28-0.22,0.5-0.5,0.5h-4c-0.28,0-0.5-0.22-0.5-0.5v-3c0-1.38,1.12-2.5,2.5-2.5s2.5,1.12,2.5,2.5V188.75z M257.75,188.75
				c0,0.28-0.22,0.5-0.5,0.5h-4c-0.28,0-0.5-0.22-0.5-0.5v-3c0-1.38,1.12-2.5,2.5-2.5s2.5,1.12,2.5,2.5V188.75z"/>
		</g>
	</g>
	<g>
		<g>
			<g>
				<path class="st2" d="M210.75,181.75h-9.06v3h9.06c0.83,0,1.5-0.67,1.5-1.5C212.25,182.42,211.58,181.75,210.75,181.75z
					 M210.75,187.25h-8.56c-0.28,0-0.5,0.22-0.5,0.5v20c0,0.28,0.22,0.5,0.5,0.5h8.56c0.28,0,0.5-0.22,0.5-0.5v-20
					C211.25,187.47,211.03,187.25,210.75,187.25z M209.47,202.75c0,0.28-0.22,0.5-0.5,0.5h-5c-0.28,0-0.5-0.22-0.5-0.5v-3
					c0-0.28,0.22-0.5,0.5-0.5h5c0.28,0,0.5,0.22,0.5,0.5V202.75z M209.47,194.75c0,0.28-0.22,0.5-0.5,0.5h-5
					c-0.28,0-0.5-0.22-0.5-0.5v-3c0-0.28,0.22-0.5,0.5-0.5h5c0.28,0,0.5,0.22,0.5,0.5V194.75z"/>
				<path class="st2" d="M189.64,185.46v-1.38l-1.17,1.38H189.64z M199.69,172.75h-29.44c-0.83,0-1.5,0.67-1.5,1.5
					c0,0.83,0.67,1.5,1.5,1.5h0.5v32c0,0.28,0.22,0.5,0.5,0.5h27.44c0.28,0,0.5-0.22,0.5-0.5v-32h0.5c0.83,0,1.5-0.67,1.5-1.5
					C201.19,173.42,200.52,172.75,199.69,172.75z M177.38,202.3c0,0.28-0.22,0.5-0.5,0.5h-2.58c-0.28,0-0.5-0.22-0.5-0.5v-6.55
					c0-0.28,0.22-0.5,0.5-0.5h2.58c0.28,0,0.5,0.22,0.5,0.5V202.3z M183.69,202.3c0,0.28-0.22,0.5-0.5,0.5h-2.58
					c-0.28,0-0.5-0.22-0.5-0.5v-6.55c0-0.28,0.22-0.5,0.5-0.5h2.58c0.28,0,0.5,0.22,0.5,0.5V202.3z M183.45,190.28h-5.8
					c-0.51,0-0.96-0.3-1.16-0.77c-0.19-0.47-0.09-1,0.27-1.36l3.68-3.67c0.43-0.41,1.22-1.18,1.22-1.58c0-0.44-0.1-0.75-0.3-0.94
					c-0.23-0.21-0.57-0.24-0.75-0.24c-0.62,0-1.31,0.36-1.31,0.83c0,0.69-0.56,1.25-1.25,1.25s-1.25-0.56-1.25-1.25
					c0-2.06,1.98-3.33,3.81-3.33c0.94,0,1.8,0.32,2.43,0.9c0.51,0.47,1.12,1.33,1.12,2.78c0,1.46-1.14,2.57-1.98,3.38l-1.52,1.51
					h2.79c0.69,0,1.25,0.56,1.25,1.25C184.7,189.72,184.14,190.28,183.45,190.28z M189.91,202.3c0,0.28-0.22,0.5-0.5,0.5h-2.58
					c-0.28,0-0.5-0.22-0.5-0.5v-6.55c0-0.28,0.22-0.5,0.5-0.5h2.58c0.28,0,0.5,0.22,0.5,0.5V202.3z M192.14,187.96v1.07
					c0,0.69-0.56,1.25-1.25,1.25c-0.69,0-1.25-0.56-1.25-1.25v-1.07h-3.86c-0.49,0-0.93-0.28-1.13-0.72
					c-0.21-0.44-0.13-0.96,0.18-1.33l5.11-6.04c0.01-0.01,0.03-0.02,0.04-0.03c0.06-0.07,0.13-0.11,0.21-0.16
					c0.06-0.04,0.12-0.09,0.19-0.13c0.07-0.03,0.14-0.04,0.21-0.06c0.09-0.02,0.17-0.05,0.26-0.05c0.02,0,0.03-0.01,0.05-0.01
					c0.06,0,0.11,0.03,0.17,0.03c0.09,0.01,0.17,0.02,0.26,0.05c0.08,0.03,0.16,0.08,0.23,0.13c0.05,0.03,0.11,0.04,0.15,0.08
					c0.01,0.01,0.02,0.03,0.03,0.04c0.07,0.06,0.11,0.13,0.16,0.21c0.04,0.06,0.09,0.12,0.12,0.18c0.03,0.07,0.04,0.14,0.06,0.21
					c0.02,0.09,0.05,0.17,0.05,0.26c0,0.02,0.01,0.03,0.01,0.05v4.79h0.15c0.69,0,1.25,0.56,1.25,1.25c0,0.69-0.56,1.25-1.25,1.25
					H192.14z M196.22,202.3c0,0.28-0.22,0.5-0.5,0.5h-2.58c-0.28,0-0.5-0.22-0.5-0.5v-6.55c0-0.28,0.22-0.5,0.5-0.5h2.58
					c0.28,0,0.5,0.22,0.5,0.5V202.3z"/>
			</g>
		</g>
	</g>
	<g>
		<g>
			<path class="st2" d="M140.36,193.5h-7.11c-0.28,0-0.5,0.22-0.5,0.5v1.7c0,0.28,0.22,0.5,0.5,0.5h1.25v10.82h-1.25
				c-0.28,0-0.5,0.22-0.5,0.5v1.7c0,0.28,0.22,0.5,0.5,0.5h7.11c0.28,0,0.5-0.22,0.5-0.5v-1.7c0-0.28-0.22-0.5-0.5-0.5h-1.25V196.2
				h1.25c0.28,0,0.5-0.22,0.5-0.5V194C140.86,193.72,140.64,193.5,140.36,193.5z M111.36,193.5h-7.11c-0.28,0-0.5,0.22-0.5,0.5v1.7
				c0,0.28,0.22,0.5,0.5,0.5h0.86v10.82h-0.86c-0.28,0-0.5,0.22-0.5,0.5v1.7c0,0.28,0.22,0.5,0.5,0.5h7.11c0.28,0,0.5-0.22,0.5-0.5
				v-1.7c0-0.28-0.22-0.5-0.5-0.5h-0.86V196.2h0.86c0.28,0,0.5-0.22,0.5-0.5V194C111.86,193.72,111.64,193.5,111.36,193.5z
				 M140,187.77h-7.5v-3.27c0-5.1-3.82-9.3-8.75-9.91v-2.06c0-0.69-0.56-1.25-1.25-1.25s-1.25,0.56-1.25,1.25v2.06
				c-4.93,0.62-8.75,4.82-8.75,9.91h0v3.27H105c-0.83,0-1.5,0.67-1.5,1.5s0.67,1.5,1.5,1.5h10.5c0.36,0,0.7-0.13,0.98-0.36l5.7-4.88
				c0.19-0.16,0.46-0.16,0.65,0l5.7,4.88c0.27,0.23,0.62,0.36,0.98,0.36H140c0.83,0,1.5-0.67,1.5-1.5S140.83,187.77,140,187.77z"/>
			<path class="st2" d="M131.7,195.56l-8.76-7.51c-0.25-0.22-0.63-0.22-0.88,0l-8.76,7.51c-0.15,0.13-0.24,0.32-0.24,0.51V197
				c0,0.28,0.22,0.5,0.5,0.5h1.94v8H114c-0.28,0-0.5,0.22-0.5,0.5v3.23c0,0.28,0.22,0.5,0.5,0.5h17c0.28,0,0.5-0.22,0.5-0.5V206
				c0-0.28-0.22-0.5-0.5-0.5h-1.5v-8h1.94c0.28,0,0.5-0.22,0.5-0.5v-0.93C131.94,195.87,131.85,195.68,131.7,195.56z M125.5,205.5
				h-6v-8h6V205.5z"/>
		</g>
	</g>
	<g>
		<g>
			<path class="st2" d="M51.25,173.63h-17c-0.83,0-1.5,0.67-1.5,1.5c0,0.83,0.67,1.5,1.5,1.5h0.5v32c0,0.28,0.22,0.5,0.5,0.5h15
				c0.28,0,0.5-0.22,0.5-0.5v-32h0.5c0.83,0,1.5-0.67,1.5-1.5C52.75,174.3,52.08,173.63,51.25,173.63z M41.38,203.17
				c0,0.28-0.22,0.5-0.5,0.5h-2.58c-0.28,0-0.5-0.22-0.5-0.5v-23.8c0-0.28,0.22-0.5,0.5-0.5h2.58c0.28,0,0.5,0.22,0.5,0.5V203.17z
				 M47.69,203.17c0,0.28-0.22,0.5-0.5,0.5h-2.58c-0.28,0-0.5-0.22-0.5-0.5v-23.8c0-0.28,0.22-0.5,0.5-0.5h2.58
				c0.28,0,0.5,0.22,0.5,0.5V203.17z"/>
			<path class="st2" d="M74.75,188.13h-21c-0.28,0-0.5,0.22-0.5,0.5v20c0,0.28,0.22,0.5,0.5,0.5h21c0.28,0,0.5-0.22,0.5-0.5v-20
				C75.25,188.35,75.03,188.13,74.75,188.13z M62.69,203.63c0,0.28-0.22,0.5-0.5,0.5h-5c-0.28,0-0.5-0.22-0.5-0.5v-3
				c0-0.28,0.22-0.5,0.5-0.5h5c0.28,0,0.5,0.22,0.5,0.5V203.63z M62.69,195.63c0,0.28-0.22,0.5-0.5,0.5h-5c-0.28,0-0.5-0.22-0.5-0.5
				v-3c0-0.28,0.22-0.5,0.5-0.5h5c0.28,0,0.5,0.22,0.5,0.5V195.63z M71.81,203.63c0,0.28-0.22,0.5-0.5,0.5h-5
				c-0.28,0-0.5-0.22-0.5-0.5v-3c0-0.28,0.22-0.5,0.5-0.5h5c0.28,0,0.5,0.22,0.5,0.5V203.63z M71.81,195.63c0,0.28-0.22,0.5-0.5,0.5
				h-5c-0.28,0-0.5-0.22-0.5-0.5v-3c0-0.28,0.22-0.5,0.5-0.5h5c0.28,0,0.5,0.22,0.5,0.5V195.63z M74.75,182.63H72.5v-2.75h1.75
				c0.28,0,0.5-0.22,0.5-0.5v-7c0-0.28-0.22-0.5-0.5-0.5h-19c-0.28,0-0.5,0.22-0.5,0.5v7c0,0.28,0.22,0.5,0.5,0.5H57v2.75h-3.75v3
				h21.5c0.83,0,1.5-0.67,1.5-1.5C76.25,183.3,75.58,182.63,74.75,182.63z M69.5,182.63H60v-2.75h9.5V182.63z"/>
		</g>
	</g>
	<g>
		<g>
			<path class="st2" d="M405.5,104.75h-22c-0.83,0-1.5,0.67-1.5,1.5c0,0.83,0.67,1.5,1.5,1.5h0.5v32c0,0.28,0.22,0.5,0.5,0.5h20
				c0.28,0,0.5-0.22,0.5-0.5v-32h0.5c0.83,0,1.5-0.67,1.5-1.5C407,105.42,406.33,104.75,405.5,104.75z M393,135.75
				c0,0.28-0.22,0.5-0.5,0.5h-5c-0.28,0-0.5-0.22-0.5-0.5V129c0-0.28,0.22-0.5,0.5-0.5h5c0.28,0,0.5,0.22,0.5,0.5V135.75z
				 M395.98,121.4c0,0.69-0.56,1.25-1.25,1.25c-0.69,0-1.25-0.56-1.25-1.25v-0.19c-0.98-0.32-1.8-1.04-2.23-2.03
				c-0.28-0.63,0.01-1.37,0.65-1.65c0.64-0.27,1.37,0.01,1.65,0.65c0.21,0.48,0.7,0.76,1.21,0.72c0.39-0.06,0.49-0.28,0.52-0.46
				c0.02-0.11,0.04-0.46-0.32-0.65l-2.03-1.05c-1.23-0.63-1.88-1.97-1.62-3.33c0.22-1.19,1.06-2.09,2.18-2.39v-0.19
				c0-0.69,0.56-1.25,1.25-1.25c0.69,0,1.25,0.56,1.25,1.25v0.46c0.78,0.38,1.42,1.01,1.78,1.84c0.28,0.63-0.02,1.37-0.65,1.64
				c-0.63,0.27-1.37-0.02-1.64-0.65c-0.21-0.48-0.7-0.76-1.21-0.72c-0.38,0.04-0.48,0.31-0.51,0.46c-0.02,0.13-0.04,0.47,0.31,0.65
				l2.03,1.05c1.21,0.62,1.86,1.91,1.64,3.26c-0.17,1.06-0.83,1.89-1.76,2.3V121.4z M402,135.75c0,0.28-0.22,0.5-0.5,0.5h-5
				c-0.28,0-0.5-0.22-0.5-0.5V129c0-0.28,0.22-0.5,0.5-0.5h5c0.28,0,0.5,0.22,0.5,0.5V135.75z"/>
			<path class="st2" d="M373.5,112.25c0,0.83,0.67,1.5,1.5,1.5h6.5v-3H375C374.17,110.75,373.5,111.42,373.5,112.25z M381,116.25h-6
				c-0.28,0-0.5,0.22-0.5,0.5v23c0,0.28,0.22,0.5,0.5,0.5h6c0.28,0,0.5-0.22,0.5-0.5v-7.5h-3.99c-0.28,0-0.5-0.22-0.5-0.5v-3
				c0-0.28,0.22-0.5,0.5-0.5h3.99v-4h-3.99c-0.28,0-0.5-0.22-0.5-0.5v-3c0-0.28,0.22-0.5,0.5-0.5h3.99v-3.5
				C381.5,116.47,381.27,116.25,381,116.25z M414,110.75h-6.5v3h6.5c0.83,0,1.5-0.67,1.5-1.5C415.5,111.42,414.83,110.75,414,110.75
				z M414,116.25h-6c-0.28,0-0.5,0.22-0.5,0.5v3.5h4c0.28,0,0.5,0.22,0.5,0.5v3c0,0.28-0.22,0.5-0.5,0.5h-4v4h4
				c0.28,0,0.5,0.22,0.5,0.5v3c0,0.28-0.22,0.5-0.5,0.5h-4v7.5c0,0.28,0.22,0.5,0.5,0.5h6c0.28,0,0.5-0.22,0.5-0.5v-23
				C414.5,116.47,414.28,116.25,414,116.25z"/>
		</g>
	</g>
	<g>
		<g>
			<path class="st2" d="M346.69,116.56l-1.5-6c-0.11-0.45-0.51-0.76-0.97-0.76H333.5v-1.54c0-0.15-0.06-0.28-0.17-0.38l-6.5-5.57
				c-0.19-0.16-0.46-0.16-0.65,0l-6.5,5.57c-0.11,0.1-0.17,0.23-0.17,0.38v1.54h-10.72c-0.46,0-0.86,0.31-0.97,0.76l-1.5,6
				c-0.16,0.63,0.32,1.24,0.97,1.24h38.44C346.37,117.81,346.85,117.2,346.69,116.56z M326.5,113.81c-1.38,0-2.5-1.12-2.5-2.5
				s1.12-2.5,2.5-2.5s2.5,1.12,2.5,2.5S327.88,113.81,326.5,113.81z"/>
			<path class="st2" d="M344.93,120.31h-37c-0.28,0-0.5,0.22-0.5,0.5v21.5c0,0.28,0.22,0.5,0.5,0.5h37c0.28,0,0.5-0.22,0.5-0.5
				v-21.5C345.43,120.53,345.2,120.31,344.93,120.31z M315.86,135.17c0,0.28-0.22,0.5-0.5,0.5h-5c-0.28,0-0.5-0.22-0.5-0.5v-3
				c0-0.28,0.22-0.5,0.5-0.5h5c0.28,0,0.5,0.22,0.5,0.5V135.17z M315.86,127.17c0,0.28-0.22,0.5-0.5,0.5h-5
				c-0.28,0-0.5-0.22-0.5-0.5v-3c0-0.28,0.22-0.5,0.5-0.5h5c0.28,0,0.5,0.22,0.5,0.5V127.17z M324.99,140.31
				c0,0.28-0.22,0.5-0.5,0.5h-5c-0.28,0-0.5-0.22-0.5-0.5v-5.64c0-1.66,1.34-3,3-3c1.66,0,3,1.34,3,3V140.31z M324.99,127.17
				c0,0.28-0.22,0.5-0.5,0.5h-5c-0.28,0-0.5-0.22-0.5-0.5v-3c0-0.28,0.22-0.5,0.5-0.5h5c0.28,0,0.5,0.22,0.5,0.5V127.17z
				 M333.86,140.31c0,0.28-0.22,0.5-0.5,0.5h-5c-0.28,0-0.5-0.22-0.5-0.5v-5.64c0-1.66,1.34-3,3-3c1.66,0,3,1.34,3,3V140.31z
				 M333.86,127.17c0,0.28-0.22,0.5-0.5,0.5h-5c-0.28,0-0.5-0.22-0.5-0.5v-3c0-0.28,0.22-0.5,0.5-0.5h5c0.28,0,0.5,0.22,0.5,0.5
				V127.17z M342.99,135.17c0,0.28-0.22,0.5-0.5,0.5h-5c-0.28,0-0.5-0.22-0.5-0.5v-3c0-0.28,0.22-0.5,0.5-0.5h5
				c0.28,0,0.5,0.22,0.5,0.5V135.17z M342.99,127.17c0,0.28-0.22,0.5-0.5,0.5h-5c-0.28,0-0.5-0.22-0.5-0.5v-3
				c0-0.28,0.22-0.5,0.5-0.5h5c0.28,0,0.5,0.22,0.5,0.5V127.17z"/>
		</g>
	</g>
	<g>
		<g>
			<path class="st2" d="M245,116.25h-6c-0.28,0-0.5,0.22-0.5,0.5v23c0,0.28,0.22,0.5,0.5,0.5h6c0.28,0,0.5-0.22,0.5-0.5v-7.5h-3.99
				c-0.28,0-0.5-0.22-0.5-0.5v-3c0-0.28,0.22-0.5,0.5-0.5h3.99v-4h-3.99c-0.28,0-0.5-0.22-0.5-0.5v-3c0-0.28,0.22-0.5,0.5-0.5h3.99
				v-3.5C245.5,116.47,245.27,116.25,245,116.25z M237.5,112.25c0,0.83,0.67,1.5,1.5,1.5h6.5v-3H239
				C238.17,110.75,237.5,111.42,237.5,112.25z M278,116.25h-6c-0.28,0-0.5,0.22-0.5,0.5v3.5h4c0.28,0,0.5,0.22,0.5,0.5v3
				c0,0.28-0.22,0.5-0.5,0.5h-4v4h4c0.28,0,0.5,0.22,0.5,0.5v3c0,0.28-0.22,0.5-0.5,0.5h-4v7.5c0,0.28,0.22,0.5,0.5,0.5h6
				c0.28,0,0.5-0.22,0.5-0.5v-23C278.5,116.47,278.28,116.25,278,116.25z M278,110.75h-6.5v3h6.5c0.83,0,1.5-0.67,1.5-1.5
				C279.5,111.42,278.83,110.75,278,110.75z"/>
			<path class="st2" d="M269.5,104.75h-22c-0.83,0-1.5,0.67-1.5,1.5c0,0.83,0.67,1.5,1.5,1.5h0.5v32c0,0.28,0.22,0.5,0.5,0.5h20
				c0.28,0,0.5-0.22,0.5-0.5v-32h0.5c0.83,0,1.5-0.67,1.5-1.5C271,105.42,270.33,104.75,269.5,104.75z M256.2,135.75
				c0,0.28-0.22,0.5-0.5,0.5h-3.38c-0.28,0-0.5-0.22-0.5-0.5v-11c0-0.28,0.22-0.5,0.5-0.5h3.38c0.28,0,0.5,0.22,0.5,0.5V135.75z
				 M257.2,116.5v3h-3v-9h3v3h3v-3h3v9h-3v-3H257.2z M265.2,135.75c0,0.28-0.22,0.5-0.5,0.5h-3.38c-0.28,0-0.5-0.22-0.5-0.5v-11
				c0-0.28,0.22-0.5,0.5-0.5h3.38c0.28,0,0.5,0.22,0.5,0.5V135.75z"/>
		</g>
	</g>
	<g>
		<g>
			<g>
				<g>
					<path class="st2" d="M193.93,119.55h-22c-0.83,0-1.5,0.67-1.5,1.5c0,0.83,0.67,1.5,1.5,1.5h0.5v17.2c0,0.28,0.22,0.5,0.5,0.5
						h20c0.28,0,0.5-0.22,0.5-0.5v-17.2h0.5c0.83,0,1.5-0.67,1.5-1.5C195.43,120.22,194.75,119.55,193.93,119.55z M181.43,136.25
						c0,0.28-0.22,0.5-0.5,0.5h-5c-0.28,0-0.5-0.22-0.5-0.5v-3c0-0.28,0.22-0.5,0.5-0.5h5c0.28,0,0.5,0.22,0.5,0.5V136.25z
						 M181.43,128.25c0,0.28-0.22,0.5-0.5,0.5h-5c-0.28,0-0.5-0.22-0.5-0.5v-3c0-0.28,0.22-0.5,0.5-0.5h5c0.28,0,0.5,0.22,0.5,0.5
						V128.25z M190.43,136.25c0,0.28-0.22,0.5-0.5,0.5h-5c-0.28,0-0.5-0.22-0.5-0.5v-3c0-0.28,0.22-0.5,0.5-0.5h5
						c0.28,0,0.5,0.22,0.5,0.5V136.25z M190.43,128.25c0,0.28-0.22,0.5-0.5,0.5h-5c-0.28,0-0.5-0.22-0.5-0.5v-3
						c0-0.28,0.22-0.5,0.5-0.5h5c0.28,0,0.5,0.22,0.5,0.5V128.25z M171.93,107.75h0.5v9.3h21v-9.3h0.5c0.83,0,1.5-0.67,1.5-1.5
						c0-0.83-0.67-1.5-1.5-1.5h-22c-0.83,0-1.5,0.67-1.5,1.5C170.43,107.08,171.1,107.75,171.93,107.75z M184.43,110.43
						c0-0.28,0.22-0.5,0.5-0.5h5c0.28,0,0.5,0.22,0.5,0.5v3c0,0.28-0.22,0.5-0.5,0.5h-5c-0.28,0-0.5-0.22-0.5-0.5V110.43z
						 M175.43,110.43c0-0.28,0.22-0.5,0.5-0.5h5c0.28,0,0.5,0.22,0.5,0.5v3c0,0.28-0.22,0.5-0.5,0.5h-5c-0.28,0-0.5-0.22-0.5-0.5
						V110.43z"/>
					<path class="st2" d="M209.07,130.25h-12.65c-0.28,0-0.5,0.22-0.5,0.5v9c0,0.28,0.22,0.5,0.5,0.5h12.65c0.28,0,0.5-0.22,0.5-0.5
						v-9C209.57,130.47,209.35,130.25,209.07,130.25z M205.75,136.75c0,0.28-0.22,0.5-0.5,0.5h-5c-0.28,0-0.5-0.22-0.5-0.5v-3
						c0-0.28,0.22-0.5,0.5-0.5h5c0.28,0,0.5,0.22,0.5,0.5V136.75z M209.07,124.75h-13.15v3h13.15c0.83,0,1.5-0.67,1.5-1.5
						C210.57,125.42,209.9,124.75,209.07,124.75z"/>
				</g>
			</g>
		</g>
	</g>
	<g>
		<g>
			<path class="st2" d="M141.5,116.89h-38c-0.83,0-1.5,0.67-1.5,1.5c0,0.83,0.67,1.5,1.5,1.5h1v18.5c0,0.28,0.22,0.5,0.5,0.5h12
				c0.28,0,0.5-0.22,0.5-0.5v-8.5c0-2.76,2.24-5,5-5s5,2.24,5,5v8.5c0,0.28,0.22,0.5,0.5,0.5h12c0.28,0,0.5-0.22,0.5-0.5v-18.5h1
				c0.83,0,1.5-0.67,1.5-1.5C143,117.56,142.33,116.89,141.5,116.89z M113.5,133.39c0,0.28-0.22,0.5-0.5,0.5h-4
				c-0.28,0-0.5-0.22-0.5-0.5v-4c0-1.38,1.12-2.5,2.5-2.5s2.5,1.12,2.5,2.5V133.39z M136.5,133.39c0,0.28-0.22,0.5-0.5,0.5h-4
				c-0.28,0-0.5-0.22-0.5-0.5v-4c0-1.38,1.12-2.5,2.5-2.5s2.5,1.12,2.5,2.5V133.39z"/>
			<path class="st2" d="M141.5,106.11h-38c-0.83,0-1.5,0.67-1.5,1.5s0.67,1.5,1.5,1.5h1v4.5c0,0.28,0.22,0.5,0.5,0.5h4v-3.72
				c0-0.83,0.67-1.5,1.5-1.5s1.5,0.67,1.5,1.5v3.72h5v-3.72c0-0.83,0.67-1.5,1.5-1.5s1.5,0.67,1.5,1.5v3.72h5v-3.72
				c0-0.83,0.67-1.5,1.5-1.5s1.5,0.67,1.5,1.5v3.72h5v-3.72c0-0.83,0.67-1.5,1.5-1.5s1.5,0.67,1.5,1.5v3.72h4
				c0.28,0,0.5-0.22,0.5-0.5v-4.5h1c0.83,0,1.5-0.67,1.5-1.5S142.33,106.11,141.5,106.11z"/>
		</g>
	</g>
	<g>
		<g>
			<path class="st2" d="M75.65,117.94l-7.15-10.22c-0.14-0.2-0.34-0.35-0.58-0.43l-13.06-4.35c-0.24-0.08-0.49-0.08-0.73,0
				l-13.06,4.35c-0.23,0.08-0.44,0.23-0.58,0.43l-7.15,10.22c-0.37,0.53-0.23,1.26,0.3,1.61l1.51,1.01
				c0.53,0.35,1.24,0.21,1.59-0.32l6.03-9.04c0.15-0.22,0.37-0.39,0.63-0.46l10.76-3.23c0.22-0.06,0.44-0.06,0.66,0l10.76,3.23
				c0.26,0.08,0.48,0.24,0.63,0.46l6.03,9.04c0.35,0.53,1.07,0.67,1.59,0.32l1.51-1.01C75.89,119.19,76.02,118.47,75.65,117.94z"/>
			<path class="st2" d="M69,136.12h2c0.83,0,1.5-0.67,1.5-1.5c0-0.83-0.67-1.5-1.5-1.5h-2c-0.83,0-1.5-0.67-1.5-1.5
				c0-0.83,0.67-1.5,1.5-1.5h2c0.83,0,1.5-0.67,1.5-1.5c0-0.83-0.67-1.5-1.5-1.5h-1.5v-6.48c0-0.23-0.07-0.45-0.19-0.64l-4.2-6.28
				c-0.14-0.21-0.35-0.37-0.59-0.45l-9.65-3.2c-0.23-0.08-0.49-0.08-0.72,0l-9.65,3.2c-0.24,0.08-0.45,0.24-0.59,0.45l-4.2,6.28
				c-0.13,0.19-0.19,0.41-0.19,0.64v6.48H38c-0.83,0-1.5,0.67-1.5,1.5c0,0.83,0.67,1.5,1.5,1.5h2c0.83,0,1.5,0.67,1.5,1.5
				c0,0.83-0.67,1.5-1.5,1.5h-2c-0.83,0-1.5,0.67-1.5,1.5c0,0.83,0.67,1.5,1.5,1.5h2c0.83,0,1.5,0.67,1.5,1.5
				c0,0.83-0.67,1.5-1.5,1.5h-2c-0.83,0-1.5,0.67-1.5,1.5c0,0.83,0.67,1.5,1.5,1.5h2.65c0,0,0,0,0,0h8.74c0.3,0,0.6-0.12,0.81-0.33
				l3.93-3.92c0.22-0.22,0.59-0.22,0.81,0l3.93,3.92c0.22,0.21,0.51,0.33,0.81,0.33h8.66c0,0,0,0,0,0H71c0.83,0,1.5-0.67,1.5-1.5
				c0-0.83-0.67-1.5-1.5-1.5h-2c-0.83,0-1.5-0.67-1.5-1.5C67.5,136.79,68.17,136.12,69,136.12z M54.5,115.12c2.21,0,4,1.79,4,4
				c0,2.21-1.79,4-4,4c-2.21,0-4-1.79-4-4C50.5,116.91,52.29,115.12,54.5,115.12z M52.4,136.25l-3.92,3.92
				c-0.36,0.36-0.98,0.11-0.98-0.41v-7.84c0-0.51,0.62-0.77,0.98-0.41l3.92,3.92C52.63,135.66,52.63,136.02,52.4,136.25z
				 M54.13,133.45l-3.35-3.35c-0.36-0.36-0.11-0.98,0.41-0.98h6.69c0.51,0,0.77,0.62,0.41,0.98l-3.35,3.35
				C54.72,133.67,54.36,133.67,54.13,133.45z M61.5,139.69c0,0.51-0.62,0.77-0.98,0.41l-3.84-3.84c-0.22-0.22-0.22-0.59,0-0.81
				l3.84-3.84c0.36-0.36,0.98-0.11,0.98,0.41V139.69z"/>
		</g>
	</g>
</g>
<g id="title" class="st0">
</g>
</svg>
