<?xml version="1.0" encoding="utf-8"?>
<!-- Generator: Adobe Illustrator 24.1.1, SVG Export Plug-In . SVG Version: 6.00 Build 0)  -->
<svg version="1.1" xmlns="http://www.w3.org/2000/svg" xmlns:xlink="http://www.w3.org/1999/xlink" x="0px" y="0px"
	 viewBox="0 0 448 448" style="enable-background:new 0 0 448 448;" xml:space="preserve">
<style type="text/css">
	.st0{display:none;}
	.st1{display:inline;fill:#FFFFFF;}
	.st2{fill:#173042;}
	.st3{display:inline;}
	.st4{fill:#869093;}
</style>
<g id="grid" class="st0">
	<rect x="30" y="98" class="st1" width="48" height="48"/>
	<rect x="98" y="98" class="st1" width="48" height="48"/>
	<rect x="166" y="98" class="st1" width="48" height="48"/>
	<rect x="234" y="98" class="st1" width="48" height="48"/>
	<rect x="302" y="98" class="st1" width="48" height="48"/>
	<rect x="370" y="98" class="st1" width="48" height="48"/>
	<rect x="30" y="166" class="st1" width="48" height="48"/>
	<rect x="98" y="166" class="st1" width="48" height="48"/>
	<rect x="166" y="166" class="st1" width="48" height="48"/>
	<rect x="234" y="166" class="st1" width="48" height="48"/>
	<rect x="302" y="166" class="st1" width="48" height="48"/>
	<rect x="370" y="166" class="st1" width="48" height="48"/>
	<rect x="30" y="234" class="st1" width="48" height="48"/>
	<rect x="98" y="234" class="st1" width="48" height="48"/>
	<rect x="370" y="234" class="st1" width="48" height="48"/>
	<rect x="30" y="302" class="st1" width="48" height="48"/>
	<rect x="98" y="302" class="st1" width="48" height="48"/>
	<rect x="166" y="234" class="st1" width="48" height="48"/>
	<rect x="234" y="234" class="st1" width="48" height="48"/>
	<rect x="302" y="234" class="st1" width="48" height="48"/>
	<rect x="166" y="302" class="st1" width="48" height="48"/>
	<rect x="234" y="302" class="st1" width="48" height="48"/>
	<rect x="302" y="302" class="st1" width="48" height="48"/>
	<rect x="370" y="302" class="st1" width="48" height="48"/>
	<rect x="30" y="370" class="st1" width="48" height="48"/>
	<rect x="98" y="370" class="st1" width="48" height="48"/>
	<rect x="166" y="370" class="st1" width="48" height="48"/>
	<rect x="234" y="370" class="st1" width="48" height="48"/>
	<rect x="302" y="370" class="st1" width="48" height="48"/>
	<rect x="370" y="370" class="st1" width="48" height="48"/>
</g>
<g id="icons">
	<g>
		<g>
			<path class="st2" d="M410.76,405.34l-1.27-1.44c-0.34-0.39-0.92-0.42-1.33-0.1c-6.42,5.04-15.72,4.53-21.56-1.31
				c-5.91-5.91-6.37-15.28-1.19-21.71c0.32-0.4,0.29-0.98-0.09-1.32l-1.43-1.29c-0.4-0.36-1.03-0.33-1.37,0.09
				c-6.5,7.95-5.97,19.6,1.37,26.94c7.25,7.25,18.82,7.85,26.76,1.52C411.08,406.38,411.12,405.75,410.76,405.34z"/>
			<path class="st2" d="M407.49,400.66l-0.34-0.33c0,0,0,0,0,0l-18.78-18.68c-0.28-0.26-0.73-0.23-0.97,0.06
				c-4.59,5.61-4.21,13.83,0.97,19.01c5.12,5.12,13.44,5.38,19.04,0.91C407.71,401.39,407.74,400.95,407.49,400.66z M388.41,391.48
				c-0.78-0.78-0.78-2.05,0-2.83c0.78-0.78,2.05-0.78,2.83,0l1.41,1.41l-1.41,1.41C390.46,392.26,389.19,392.26,388.41,391.48z
				 M395.36,395.72c0,1.1-0.9,2-2,2c-1.1,0-2-0.9-2-2c0-1.1,0.9-2,2-2h2V395.72z M400.43,400.67c-0.78,0.78-2.05,0.78-2.83,0
				c-0.78-0.78-0.78-2.05,0-2.83l1.41-1.41l1.41,1.41C401.21,398.62,401.21,399.89,400.43,400.67z"/>
		</g>
	</g>
	<g>
		<g>
			<g>
				<path class="st2" d="M317.46,389.93l8.13-0.01c0.85,0,1.28-1.03,0.68-1.64l-5.74-5.74c-0.42-0.42-1.11-0.36-1.46,0.12
					c-1.37,1.85-2.22,3.97-2.55,6.15C316.42,389.4,316.87,389.93,317.46,389.93z M325.57,391.84l-8.12,0.01
					c-0.59,0-1.04,0.53-0.95,1.11c0.32,2.18,1.17,4.29,2.53,6.14c0.35,0.48,1.04,0.54,1.46,0.12l5.75-5.75
					C326.85,392.87,326.42,391.84,325.57,391.84z M338.53,400.56l-5.74-5.74c-0.6-0.6-1.63-0.18-1.64,0.68l-0.01,8.13
					c0,0.59,0.53,1.04,1.12,0.95c2.18-0.33,4.3-1.18,6.15-2.55C338.89,401.67,338.95,400.98,338.53,400.56z M327.6,394.83
					l-5.75,5.75c-0.42,0.42-0.36,1.11,0.12,1.46c1.85,1.36,3.96,2.21,6.14,2.53c0.58,0.09,1.11-0.36,1.11-0.95l0.01-8.12
					C329.24,394.65,328.21,394.23,327.6,394.83z"/>
				<path class="st2" d="M330.9,392.66c0.37-0.14,0.46-0.63,0.18-0.91l-1.76-1.76c-0.28-0.28-0.76-0.19-0.91,0.18
					c-0.27,0.69-0.13,1.5,0.43,2.05C329.4,392.79,330.21,392.93,330.9,392.66z M342.76,405.34l-1.27-1.44
					c-0.34-0.39-0.92-0.42-1.33-0.1c-6.42,5.04-15.72,4.53-21.56-1.31c-5.91-5.91-6.37-15.28-1.19-21.71
					c0.32-0.4,0.29-0.98-0.09-1.32l-1.43-1.29c-0.4-0.36-1.03-0.33-1.37,0.09c-6.5,7.95-5.97,19.6,1.37,26.94
					c7.25,7.25,18.82,7.85,26.76,1.52C343.08,406.38,343.12,405.75,342.76,405.34z"/>
			</g>
		</g>
	</g>
	<g>
		<g>
			<path class="st2" d="M238,406.49c0,1.1,0.9,2,2,2h37c1.1,0,2-0.9,2-2v-2.24h-41V406.49z M277.98,393.68l-2.55-0.02
				c-0.46,0-0.63,0.12-1.42,1.01c-0.95,1.06-2.39,2.67-5.15,2.67c-2.76,0-4.2-1.61-5.15-2.67c-0.79-0.88-0.96-1.01-1.42-1.01
				c-0.46,0-0.63,0.12-1.42,1c-0.95,1.07-2.39,2.68-5.15,2.68c-2.76,0-4.2-1.61-5.15-2.68c-0.79-0.88-0.96-1-1.42-1
				c-0.46,0-0.63,0.12-1.42,1c-0.95,1.07-2.39,2.68-5.15,2.68c-2.49,0-3.91-1.4-4.38-1.85c-0.07-0.06-0.12-0.14-0.19-0.2v6.47h41
				v-8.24C278.67,393.61,278.34,393.68,277.98,393.68z"/>
			<path class="st2" d="M277.62,387.62l-21.5-7c-0.21-0.07-0.42-0.1-0.64-0.1c-8.7,0.05-17.47,2.06-17.47,7.55v0.83
				c0,1.79,0.65,3.55,1.93,4.81c0.65,0.64,1.42,1.14,2.63,1.14c3.28,0,3.28-3.68,6.57-3.68c3.29,0,3.29,3.68,6.57,3.68
				c3.28,0,3.28-3.68,6.57-3.68c3.29,0,3.29,3.68,6.57,3.68c3.29,0,3.29-3.68,6.58-3.68l2.57,0.02c0.55,0,1.01-0.45,1.01-1v-0.66
				C279,388.65,278.44,387.88,277.62,387.62z M245.17,389l-1.35,0.43c-0.13,0.04-0.25,0.06-0.38,0.06c-0.53,0-1.02-0.34-1.19-0.87
				c-0.21-0.66,0.15-1.36,0.81-1.57l1.35-0.43c0.66-0.21,1.36,0.16,1.57,0.81C246.19,388.09,245.83,388.79,245.17,389z
				 M251.02,385.9c-0.22,0.44-0.66,0.69-1.12,0.69c-0.19,0-0.38-0.04-0.56-0.13l-1.26-0.63c-0.62-0.31-0.87-1.06-0.56-1.68
				c0.31-0.62,1.06-0.87,1.68-0.56l1.26,0.63C251.07,384.53,251.32,385.28,251.02,385.9z M256.29,390.27
				c-0.22,0.16-0.47,0.23-0.73,0.23c-0.39,0-0.77-0.18-1.02-0.52l-0.82-1.15c-0.4-0.56-0.27-1.34,0.29-1.74
				c0.56-0.4,1.34-0.27,1.74,0.29l0.82,1.15C256.98,389.09,256.85,389.87,256.29,390.27z M257.39,384.33
				c-0.19,0.49-0.67,0.8-1.17,0.8c-0.15,0-0.3-0.03-0.45-0.08l-1.32-0.51c-0.64-0.25-0.96-0.98-0.71-1.62
				c0.25-0.64,0.98-0.96,1.62-0.71l1.32,0.51C257.32,382.96,257.64,383.68,257.39,384.33z M263.43,387.48l-1.38,0.3
				c-0.09,0.02-0.18,0.03-0.26,0.03c-0.58,0-1.09-0.4-1.22-0.99c-0.15-0.67,0.28-1.34,0.96-1.49l1.38-0.3
				c0.67-0.15,1.34,0.28,1.49,0.96C264.53,386.67,264.11,387.33,263.43,387.48z M271.18,390.11l-1.23,0.7
				c-0.2,0.11-0.41,0.17-0.62,0.17c-0.43,0-0.85-0.23-1.09-0.63c-0.34-0.6-0.14-1.36,0.46-1.71l1.23-0.7
				c0.6-0.34,1.36-0.14,1.71,0.46C271.98,389,271.78,389.76,271.18,390.11z"/>
		</g>
	</g>
	<g>
		<g>
			<path class="st2" d="M201.51,373.73l-26.19,4.64c-0.37,0.09-0.63,0.42-0.63,0.8c0,0.46,0.37,0.82,0.82,0.82h26.18
				c0.55,0,1-0.45,1-1v-4.28C202.69,374.09,202.13,373.62,201.51,373.73z"/>
			<path class="st2" d="M205.31,382.52h-29.63c-0.55,0-1,0.45-1,1v30.76c0,0.55,0.45,1,1,1h29.63c0.55,0,1-0.45,1-1v-30.76
				C206.31,382.97,205.86,382.52,205.31,382.52z M190.5,410.32c-6.3,0-11.42-5.11-11.42-11.42c0-6.3,5.11-11.42,11.42-11.42
				s11.42,5.11,11.42,11.42C201.92,405.21,196.8,410.32,190.5,410.32z M198.34,395.82c-0.34-0.34-0.9-0.34-1.24,0l-0.55,0.55
				c-0.49,0.49-1.28,0.49-1.77,0c-0.49-0.49-0.49-1.28,0-1.77l0.55-0.55c0.34-0.34,0.34-0.9,0-1.24c-0.34-0.34-0.9-0.34-1.24,0
				l-2.13,2.13c-0.74,0.74-0.81,1.88-0.23,2.71l-1.47,1.47l-1.51-1.51c0.16-1.03-0.26-2.25-1.21-3.2c-1.4-1.4-3.41-1.67-4.48-0.59
				c-1.07,1.07-0.81,3.08,0.59,4.48c1.02,1.02,2.35,1.43,3.42,1.17l1.42,1.42l-3.25,3.25c-0.49,0.49-0.49,1.28,0,1.77
				c0.24,0.24,0.56,0.37,0.88,0.37s0.64-0.12,0.88-0.37l3.25-3.25l3.48,3.48c0.24,0.24,0.56,0.37,0.88,0.37s0.64-0.12,0.88-0.37
				c0.49-0.49,0.49-1.28,0-1.77l-3.48-3.48l1.47-1.47c0.83,0.58,1.97,0.5,2.71-0.23l2.13-2.13
				C198.68,396.71,198.68,396.16,198.34,395.82L198.34,395.82z"/>
		</g>
	</g>
	<g>
		<g>
			<g>
				<path class="st2" d="M137.5,403.87h-30c-0.55,0-1,0.45-1,1v4c0,2.21,1.79,4,4,4h24c2.21,0,4-1.79,4-4v-4
					C138.5,404.32,138.05,403.87,137.5,403.87z M123.5,376.13h-2c-8.28,0-15,6.72-15,15v1.13c0,0.48,0.39,0.87,0.87,0.87h30.27
					c0.48,0,0.87-0.39,0.87-0.87v-1.13C138.5,382.84,131.78,376.13,123.5,376.13z M115.3,385.37c-0.83,0-1.5-0.52-1.5-1.15
					c0-0.64,0.67-1.15,1.5-1.15c0.83,0,1.5,0.52,1.5,1.15C116.8,384.86,116.13,385.37,115.3,385.37z M118.9,381.68
					c-0.83,0-1.5-0.52-1.5-1.15c0-0.64,0.67-1.15,1.5-1.15s1.5,0.52,1.5,1.15C120.4,381.16,119.73,381.68,118.9,381.68z
					 M122.5,385.37c-0.83,0-1.5-0.52-1.5-1.15c0-0.64,0.67-1.15,1.5-1.15s1.5,0.52,1.5,1.15C124,384.86,123.33,385.37,122.5,385.37z
					 M126.1,381.68c-0.83,0-1.5-0.52-1.5-1.15c0-0.64,0.67-1.15,1.5-1.15c0.83,0,1.5,0.52,1.5,1.15
					C127.6,381.16,126.93,381.68,126.1,381.68z M129.7,385.37c-0.83,0-1.5-0.52-1.5-1.15c0-0.64,0.67-1.15,1.5-1.15
					s1.5,0.52,1.5,1.15C131.2,384.86,130.53,385.37,129.7,385.37z"/>
				<path class="st2" d="M137.5,395.87c-1.86,0-2.91,0.83-3.59,1.38c-0.55,0.44-0.77,0.62-1.41,0.62c-0.64,0-0.86-0.18-1.41-0.62
					c-0.69-0.55-1.73-1.38-3.59-1.38c-1.86,0-2.9,0.83-3.59,1.38c-0.55,0.44-0.77,0.62-1.41,0.62c-0.63,0-0.86-0.18-1.4-0.62
					c-0.69-0.55-1.73-1.38-3.59-1.38c-1.86,0-2.9,0.83-3.59,1.38c-0.54,0.44-0.77,0.62-1.41,0.62c-0.63,0-0.86-0.18-1.4-0.62
					c-0.69-0.55-1.73-1.38-3.59-1.38c-0.97,0-1.75,0.78-1.75,1.75c0,0.97,0.78,1.75,1.75,1.75c0.64,0,0.86,0.18,1.41,0.62
					c0.69,0.55,1.73,1.38,3.59,1.38c1.86,0,2.9-0.83,3.59-1.38c0.54-0.44,0.77-0.62,1.41-0.62c0.63,0,0.86,0.18,1.4,0.62
					c0.69,0.55,1.73,1.38,3.59,1.38c1.86,0,2.9-0.83,3.59-1.38c0.55-0.44,0.77-0.62,1.41-0.62c0.64,0,0.86,0.18,1.41,0.62
					c0.69,0.55,1.73,1.38,3.59,1.38c1.86,0,2.91-0.83,3.59-1.38c0.55-0.44,0.77-0.62,1.41-0.62c0.97,0,1.75-0.78,1.75-1.75
					C139.25,396.66,138.47,395.87,137.5,395.87z"/>
			</g>
		</g>
	</g>
	<g>
		<g>
			<g>
				<path class="st2" d="M72.28,379.67c-0.01-0.01-0.02-0.02-0.03-0.03c-1.37-1.37-4.35-2.61-7.37-3.11
					c-0.75-0.12-1.35,0.64-1.08,1.35l2.92,7.57c0.22,0.58,0.91,0.81,1.45,0.5c0.83-0.49,1.67-0.95,2.51-1.38
					C72.68,383.56,73.55,380.97,72.28,379.67z M45.46,406.72l-7.57-2.92c-0.71-0.27-1.48,0.32-1.35,1.08
					c0.5,3.01,1.74,5.99,3.11,7.37c0.01,0.01,0.02,0.02,0.03,0.03c1.3,1.27,3.88,0.4,4.9-1.6c0.43-0.84,0.89-1.68,1.38-2.51
					C46.27,407.63,46.04,406.94,45.46,406.72z"/>
				<path class="st2" d="M39.35,392.53c-0.52-0.35-1.24-0.14-1.47,0.44c-0.86,2.12-1.46,4.36-1.74,6.68
					c-0.05,0.45,0.22,0.89,0.64,1.05l11.33,4.36c0.43,0.17,0.92,0.01,1.18-0.38c0.66-0.97,1.35-1.93,2.07-2.86
					c0.36-0.46,0.25-1.12-0.23-1.44L39.35,392.53z M49.73,379.65c-0.29-0.44-0.87-0.58-1.33-0.32c-3.77,2.18-6.89,5.3-9.07,9.07
					c-0.26,0.45-0.11,1.04,0.32,1.33l14.25,9.5c0.41,0.28,0.96,0.2,1.29-0.17c1.22-1.35,2.5-2.64,3.86-3.86
					c0.37-0.33,0.44-0.88,0.17-1.29L49.73,379.65z M65.06,388.11l-4.36-11.33c-0.16-0.43-0.6-0.7-1.05-0.64
					c-2.32,0.28-4.56,0.88-6.68,1.74c-0.58,0.23-0.78,0.95-0.44,1.47l7.85,11.78c0.32,0.48,0.98,0.58,1.44,0.23
					c0.94-0.72,1.89-1.42,2.86-2.07C65.07,389.03,65.23,388.55,65.06,388.11z"/>
			</g>
		</g>
	</g>
	<g>
		<g>
			<path class="st2" d="M407.21,314.81c0,0-0.01,0-0.01,0c0.06-0.44,0.09-0.89,0.09-1.36c0-3.29-1.5-5.95-3.35-5.95
				c-1.85,0-3.35,2.67-3.35,5.95c0,2.59,0.93,4.79,2.23,5.61c0.92,0.78,2.54,1.3,4.39,1.3c2.87,0,5.2-1.24,5.2-2.77
				C412.41,316.05,410.08,314.81,407.21,314.81z"/>
			<path class="st2" d="M401.8,320.29c-2.88-2.88-7.15-3.43-11.45-0.28l5.04,5.04c0.49,0.49,0.49,1.28,0,1.77
				c-0.24,0.24-0.56,0.37-0.88,0.37s-0.64-0.12-0.88-0.37l-5.17-5.17c-0.01,0.01-0.01,0.01-0.02,0.02c-1.4,1.4-3.54,4.17-5.63,7.36
				l4.31,4.31c0.49,0.49,0.49,1.28,0,1.77c-0.24,0.24-0.56,0.37-0.88,0.37s-0.64-0.12-0.88-0.37l-3.91-3.91
				c-3.42,5.61-6.14,11.75-4.21,13.68c2.53,2.53,12.34-2.96,18.65-7.51l-3.81-3.81c-0.49-0.49-0.49-1.28,0-1.77
				c0.49-0.49,1.28-0.49,1.77,0l4.06,4.06c1.05-0.82,1.92-1.57,2.53-2.18C405.34,328.75,405.12,323.61,401.8,320.29z"/>
		</g>
	</g>
	<g>
		<g>
			<path class="st2" d="M334.45,317.89c-1.39-0.22-2.79-0.09-4.13,0.33c-2.51,0.78-5.14,0.78-7.65,0c-1.34-0.42-2.74-0.55-4.13-0.33
				c-6.08,0.96-10.21,8.23-8.19,16.01c2.14,8.27,7.73,13.5,13.81,12.55c0.01,0,0.02,0,0.02,0c1.54-0.25,3.09-0.25,4.63,0
				c0.01,0,0.02,0,0.02,0c6.08,0.96,11.66-4.28,13.81-12.55C344.67,326.12,340.53,318.84,334.45,317.89z M318.53,324.57
				c-1.78,1.54-2.48,4.28-1.78,6.98c0.32,1.23,0.78,2.34,1.36,3.31c0.36,0.59,0.17,1.36-0.42,1.72c-0.2,0.12-0.42,0.18-0.65,0.18
				c-0.42,0-0.84-0.21-1.07-0.6c-0.71-1.17-1.26-2.51-1.64-3.98c-0.94-3.62,0.07-7.35,2.57-9.5c0.52-0.45,1.31-0.39,1.76,0.13
				C319.11,323.33,319.05,324.12,318.53,324.57z"/>
			<path class="st2" d="M326.11,308.57c-2.41-2.41-5.59-2.2-6.68-2.05c-0.24,0.03-0.42,0.21-0.45,0.45
				c-0.16,1.09-0.36,4.27,2.05,6.68c2.45,2.45,5.7,2.2,6.73,2.04c0.21-0.03,0.38-0.18,0.44-0.39
				C328.47,314.36,328.98,311.44,326.11,308.57z"/>
		</g>
	</g>
	<g>
		<g>
			<path class="st2" d="M258.5,316.17c-7.37,0-13.34,3.65-13.34,14.56c0,7.63,3.51,12.1,8.46,13.78c1.17,0.4,2.28,1,3.06,1.96
				c0.43,0.53,1.09,0.86,1.82,0.86s1.39-0.33,1.82-0.86c0.78-0.95,1.89-1.56,3.06-1.96c4.95-1.68,8.46-6.15,8.46-13.78
				C271.84,320.77,265.87,316.17,258.5,316.17z M254.69,322.98c-2.3,0.93-3.42,3.1-3.42,6.63c0,1.16,0.16,2.21,0.46,3.11
				c0.22,0.65-0.13,1.36-0.79,1.58c-0.13,0.04-0.27,0.07-0.4,0.07c-0.52,0-1.01-0.33-1.18-0.85c-0.39-1.16-0.59-2.48-0.59-3.91
				c0-5.74,2.71-8.04,4.98-8.95c0.64-0.26,1.37,0.05,1.63,0.69C255.64,321.99,255.33,322.72,254.69,322.98z"/>
			<path class="st2" d="M258.58,307.65c-2.24-2.24-5.21-2.05-6.22-1.91c-0.22,0.03-0.39,0.2-0.42,0.42
				c-0.15,1.01-0.34,3.98,1.91,6.22c2.28,2.28,5.3,2.05,6.27,1.9c0.2-0.03,0.36-0.17,0.41-0.36
				C260.78,313.04,261.25,310.32,258.58,307.65z"/>
		</g>
	</g>
	<g>
		<g>
			<path class="st2" d="M206.83,326c-0.06-0.79-1.21-1.53-3.27-2.13c-0.19-0.06-0.4,0-0.55,0.14l-1.33,1.33
				c-0.26,0.26-0.2,0.7,0.12,0.86c0.34,0.17,0.53,0.36,0.53,0.55c0,1.11-6.11,2-13.64,2c-7.54,0-13.65-0.9-13.65-2
				c0-0.84,3.48-1.55,8.43-1.85c0.16-0.01,0.32-0.09,0.41-0.23l1.38-1.96c0.1-0.15-0.01-0.35-0.19-0.34
				c-8.28,0.35-14.4,1.85-14.51,3.65c-0.86,13.62,6.75,20.23,18.13,20.23C199.08,346.22,207.78,338.53,206.83,326z"/>
			<path class="st2" d="M210.35,311.76l-1.63-1.63c-0.2-0.2-0.53-0.19-0.72,0.01l-14.63,15.75c-0.12,0.13-0.03,0.34,0.15,0.34h3.09
				c0.13,0,0.26-0.05,0.36-0.15l13.39-13.61C210.55,312.27,210.55,311.95,210.35,311.76z M204.54,308.59l-1.75-1.67
				c-0.2-0.2-0.51-0.2-0.71,0l-15.87,18.92c-0.11,0.13-0.03,0.33,0.14,0.33c0.91,0.02,2.5,0.04,3.04,0.04
				c0.14,0,0.28-0.06,0.37-0.17l14.77-16.75C204.74,309.1,204.74,308.79,204.54,308.59z"/>
		</g>
	</g>
	<g>
		<g>
			<g>
				<path class="st2" d="M139.5,312.26h-28c-0.55,0-1,0.45-1,1v1h-2.24c-2.63,0-4.76,2.14-4.76,4.76c0,5,4.07,9.06,9.06,9.06h0.81
					c1.12,1.53,2.52,2.85,4.13,3.86c0.62,0.39,0.99,1.08,0.99,1.81c0,0.28,0.22,0.5,0.5,0.5h13c0.28,0,0.5-0.22,0.5-0.5
					c0-0.73,0.37-1.42,0.99-1.81c4.21-2.66,7.01-7.34,7.01-12.69v-6C140.5,312.7,140.05,312.26,139.5,312.26z M106.5,319.02
					c0-0.97,0.79-1.76,1.76-1.76h2.24v2c0,2.04,0.41,3.98,1.15,5.75C108.74,324.56,106.5,322.05,106.5,319.02z M130.76,323.62
					l-4.05,4.05c-0.39,0.39-1.02,0.39-1.41,0l-5.06-5.06c-0.19-0.19-0.3-0.45-0.29-0.72l0.04-4.01c0-0.55,0.45-0.99,0.99-0.99
					l4.01-0.04c0.27,0,0.53,0.1,0.72,0.29l5.06,5.06C131.15,322.6,131.15,323.23,130.76,323.62z"/>
				<path class="st2" d="M139.5,336.74h-28c-1.1,0-2,0.9-2,2c0,1.1,0.9,2,2,2h28c1.1,0,2-0.9,2-2
					C141.5,337.64,140.6,336.74,139.5,336.74z"/>
			</g>
		</g>
	</g>
	<g>
		<g>
			<path class="st2" d="M71.76,323.27l-20.71,9.98c-0.57,0.26-1.17,0.39-1.78,0.39c-0.61,0-1.21-0.13-1.78-0.39l-10.29-4.72
				c-0.33-0.15-0.71,0.09-0.71,0.45v4.81c0,2.27,1.29,4.35,3.32,5.37l6.86,3.42c1.71,0.86,3.73,0.84,5.44-0.04l17.13-8.86
				c1.99-1.03,3.24-3.09,3.24-5.33v-4.64C72.48,323.35,72.1,323.11,71.76,323.27z"/>
			<path class="st2" d="M40.8,318.87c-0.16,0.01-0.28-0.05-0.41,0.01l-4.42,2.17c-0.63,0.29-0.7,0.82-0.71,1.04l0,2.09
				c0,0.18,0.05,0.77,0.68,1.06l12.58,5.73c0.47,0.21,1,0.21,1.47,0l4.84-2.37c0.18-0.09,0.29-0.27,0.28-0.47l-0.14-2.9
				C54.99,323.72,42.98,318.72,40.8,318.87z M64.77,320.57c0-2.29-11.62-6.34-13.71-6.61c-0.15-0.02-0.28-0.05-0.41,0.01l-6.03,2.88
				c-0.39,0.19-0.37,0.75,0.03,0.91c0,0,12.87,3.69,12.82,7.05l0.08,1.73c0.02,0.36,0.39,0.58,0.72,0.43l6.8-3.25l-0.15,0.01
				L64.77,320.57z M59.72,309.78c-0.25,0-0.51,0.05-0.74,0.16l-4.11,1.98c-0.39,0.19-0.37,0.75,0.03,0.91c0,0,12.43,3.21,12.39,7.18
				l0.04,1.82c0.02,0.36,0.39,0.58,0.72,0.43l4.97-2.4c0.66-0.3,0.71-0.9,0.71-1.07v-2.1C72.83,313.52,61.63,309.78,59.72,309.78z"
				/>
		</g>
	</g>
	<g>
		<g>
			<g>
				<g>
					<path class="st2" d="M411.5,244.26h-28c-0.55,0-1,0.45-1,1v1h-2.24c-2.63,0-4.76,2.14-4.76,4.76c0,5,4.07,9.06,9.06,9.06h0.81
						c1.12,1.53,2.52,2.85,4.13,3.86c0.62,0.39,0.99,1.08,0.99,1.81c0,0.28,0.22,0.5,0.5,0.5h13c0.28,0,0.5-0.22,0.5-0.5
						c0-0.73,0.37-1.42,0.99-1.81c4.21-2.66,7.01-7.34,7.01-12.69v-6C412.5,244.7,412.05,244.26,411.5,244.26z M378.5,251.02
						c0-0.97,0.79-1.76,1.76-1.76h2.24v2c0,2.04,0.41,3.98,1.15,5.75C380.74,256.56,378.5,254.05,378.5,251.02z M408.95,249.41
						c0,4.04-1.61,7.8-4.54,10.59c-0.24,0.23-0.55,0.34-0.86,0.34c-0.33,0-0.66-0.13-0.91-0.39c-0.48-0.5-0.46-1.29,0.04-1.77
						c2.43-2.31,3.77-5.43,3.77-8.78v-0.29c0-0.69,0.56-1.25,1.25-1.25s1.25,0.56,1.25,1.25V249.41z"/>
					<path class="st2" d="M411.5,268.74h-28c-1.1,0-2,0.9-2,2s0.9,2,2,2h28c1.1,0,2-0.9,2-2S412.6,268.74,411.5,268.74z"/>
				</g>
			</g>
		</g>
	</g>
	<g>
		<g>
			<path class="st2" d="M338.42,271.04c-0.73-0.85-7.24-7.41-12.18-11.78c-2.15-1.9-3.04-4.74-2.72-7.59c0.22-2-0.41-4.24-2.41-6.19
				c-3.77-3.67-8.85-4.9-11.35-2.74c-2.49,2.16-2.01,7.36,1.07,11.62c1.64,2.26,3.76,3.22,5.77,3.28c2.87,0.1,5.55,1.39,7.11,3.79
				c3.61,5.52,9.16,12.91,9.9,13.75c1.15,1.33,3.15,1.47,4.48,0.33C339.42,274.37,339.57,272.37,338.42,271.04z"/>
			<path class="st2" d="M344.5,247.57L344.5,247.57c-0.42-0.39-1.08-0.37-1.48,0.05l-5.49,5.87c-0.47,0.5-1.26,0.53-1.77,0.06
				c-0.5-0.47-0.53-1.26-0.06-1.77l5.33-5.7c0.48-0.51,0.45-1.32-0.06-1.8h0c-0.51-0.48-1.32-0.45-1.8,0.06l-5.33,5.7
				c-0.47,0.5-1.26,0.53-1.77,0.06c-0.5-0.47-0.53-1.26-0.06-1.77l5.49-5.87c0.39-0.42,0.37-1.08-0.05-1.48
				c-0.41-0.38-1.04-0.37-1.44,0.01l-6.86,6.65c-1.49,1.44-2.23,3.5-1.99,5.57l0,0.04c0.12,0.99,0,1.97-0.31,2.89
				c0.28,0.46,0.63,0.89,1.04,1.25c0.65,0.58,1.33,1.19,2.02,1.83c0.95-0.42,1.99-0.62,3.06-0.57c2.08,0.11,4.1-0.76,5.44-2.35
				l6.16-7.28C344.95,248.59,344.91,247.95,344.5,247.57z M321.26,262.32c-4.22,3.76-9.07,8.11-9.56,8.63
				c-1.2,1.28-1.13,3.29,0.15,4.49c1.28,1.2,3.29,1.13,4.49-0.15c0.46-0.49,4.06-5.1,7.38-9.37c-0.74-1.07-1.45-2.12-2.09-3.1
				C321.51,262.64,321.39,262.48,321.26,262.32z"/>
		</g>
	</g>
	<g>
		<g>
			<path class="st2" d="M267.92,266.63l-5.93,4.65c-0.29,0.23-0.66,0.36-1.03,0.36l-3.07,0l0-0.01l-0.98,0
				c-0.69,0-1.25-0.56-1.25-1.25c0-0.69,0.56-1.25,1.25-1.25l3.57,0c1.04,0,1.89-0.85,1.89-1.89c0-1.04-0.85-1.89-1.89-1.89
				l-9.36,0.01v0l-0.55,0c-1.13,0-2.22,0.38-3.1,1.07l-2.91,2.28c-0.18,0.14-0.21,0.41-0.07,0.59l5.65,7.15
				c0.08,0.1,0.2,0.16,0.33,0.16l7.84,0.06l1.89,0.02c1.15,0.01,2.26-0.37,3.16-1.08l7.18-5.67c0.91-0.72,1.06-2.04,0.34-2.95
				C270.14,266.08,268.83,265.92,267.92,266.63z M259.97,240.65c0.46-0.31,0.76-0.75,0.76-1.25c0-0.92-1-1.67-2.23-1.67
				s-2.23,0.75-2.23,1.67c0,0.5,0.3,0.94,0.76,1.25c-8.25,0.73-14.76,7.51-15.05,15.88c-0.01,0.31,0.25,0.58,0.57,0.58h31.9
				c0.32,0,0.58-0.26,0.57-0.58C274.73,248.16,268.22,241.38,259.97,240.65z M256.52,246.8c-2.95,0.61-5.5,2.6-6.81,5.32
				c-0.21,0.45-0.66,0.71-1.13,0.71c-0.18,0-0.37-0.04-0.54-0.12c-0.62-0.3-0.88-1.05-0.58-1.67c1.65-3.42,4.85-5.92,8.56-6.69
				c0.68-0.14,1.34,0.3,1.48,0.97C257.63,246,257.2,246.66,256.52,246.8z"/>
			<path class="st2" d="M242.88,270.67c-0.17-0.22-0.49-0.25-0.7-0.08l-1.19,0.94c-0.22,0.17-0.25,0.49-0.08,0.7l5.42,6.85
				c0.17,0.22,0.49,0.25,0.7,0.08l1.19-0.94c0.22-0.17,0.25-0.49,0.08-0.7L242.88,270.67z M276.35,259.46h-35.69
				c-0.91,0-1.65,0.74-1.65,1.65c0,0.91,0.74,1.65,1.65,1.65h35.69c0.91,0,1.65-0.74,1.65-1.65
				C278,260.2,277.26,259.46,276.35,259.46z"/>
		</g>
	</g>
	<g>
		<g>
			<path class="st2" d="M202.41,247.41c-0.7-5.96-5.76-10.58-11.91-10.58s-11.21,4.63-11.91,10.58c-0.87,0.02-1.58,0.73-1.58,1.61
				c0,0.89,0.72,1.62,1.62,1.62h23.74c0.89,0,1.62-0.72,1.62-1.62C203.99,248.15,203.28,247.44,202.41,247.41z M188.91,242.08
				c-1.62,0-3.11,0.94-3.81,2.4c-0.21,0.45-0.66,0.71-1.13,0.71c-0.18,0-0.37-0.04-0.54-0.12c-0.62-0.3-0.88-1.05-0.59-1.67
				c1.11-2.32,3.5-3.82,6.07-3.82c0.69,0,1.25,0.56,1.25,1.25C190.16,241.52,189.6,242.08,188.91,242.08z"/>
			<path class="st2" d="M201.22,253.2h-21.44c-0.32,0-0.57,0.28-0.54,0.6l3.11,25.89c0.03,0.27,0.26,0.48,0.54,0.48h15.23
				c0.27,0,0.5-0.2,0.54-0.48l3.11-25.89C201.79,253.48,201.54,253.2,201.22,253.2z M190.5,271.04c-3.31,0-6-1.95-6-4.35
				c0-2.4,2.69-4.35,6-4.35s6,1.95,6,4.35C196.5,269.09,193.81,271.04,190.5,271.04z"/>
		</g>
	</g>
	<g>
		<g>
			<path class="st2" d="M127,237.5h-9c-0.55,0-1,0.45-1,1v3.5c0,0.28,0.22,0.5,0.5,0.5h10c0.28,0,0.5-0.22,0.5-0.5v-3.5
				C128,237.95,127.55,237.5,127,237.5z"/>
			<path class="st2" d="M132.34,254.82l-5.14-10.05c-0.09-0.17-0.26-0.27-0.45-0.27h-8.58c-0.19,0-0.36,0.11-0.45,0.27l-5.09,10.06
				c-0.43,0.84-0.65,1.77-0.65,2.71v1.58h21v-1.57C133,256.61,132.77,255.67,132.34,254.82z M121.06,249.28l-3.1,6.13
				c-0.22,0.43-0.66,0.69-1.12,0.69c-0.19,0-0.38-0.04-0.56-0.14c-0.62-0.31-0.86-1.06-0.55-1.68l3.1-6.13
				c0.31-0.62,1.06-0.86,1.68-0.55C121.13,247.91,121.38,248.67,121.06,249.28z M112,275.5c0,2.21,1.79,4,4,4h13c2.21,0,4-1.79,4-4
				v-1.63h-21V275.5z M112,271.37h21v-9.75h-21V271.37z M126.32,264.36c0-0.69,0.56-1.25,1.25-1.25c0.69,0,1.25,0.56,1.25,1.25v2.76
				h0.6c0.69,0,1.25,0.56,1.25,1.25s-0.56,1.25-1.25,1.25h-1.85c-0.69,0-1.25-0.56-1.25-1.25V264.36z M122.49,264.36
				c0-0.69,0.56-1.25,1.25-1.25s1.25,0.56,1.25,1.25v4.01c0,0.69-0.56,1.25-1.25,1.25s-1.25-0.56-1.25-1.25V264.36z M114.68,264.36
				c0-0.5,0.29-0.95,0.75-1.15c0.45-0.2,0.98-0.11,1.35,0.23l1.14,1.05l1.14-1.05c0.37-0.34,0.89-0.43,1.35-0.23
				c0.45,0.2,0.75,0.65,0.75,1.15v4.01c0,0.69-0.56,1.25-1.25,1.25c-0.69,0-1.25-0.56-1.25-1.25v-1.17c-0.44,0.32-1.04,0.32-1.48,0
				v1.17c0,0.69-0.56,1.25-1.25,1.25s-1.25-0.56-1.25-1.25V264.36z"/>
		</g>
	</g>
	<g>
		<g>
			<path class="st2" d="M54.11,239.53c-0.03-0.56-0.49-0.99-1.04-0.99c-0.58,0-1.04,0.47-1.04,1.04v8.04c0,0.69-0.56,1.25-1.25,1.25
				c-0.69,0-1.25-0.56-1.25-1.25v-7.8c0-0.7-0.57-1.28-1.28-1.28s-1.28,0.57-1.28,1.28v7.8c0,0.69-0.56,1.25-1.25,1.25
				c-0.69,0-1.25-0.56-1.25-1.25v-8.04c0-0.58-0.47-1.04-1.04-1.04c-0.56,0-1.02,0.44-1.04,0.99l-0.48,9.65
				c-0.1,2.01,0.74,3.95,2.27,5.24l0.03,0.03c1.66,1.41,2.5,3.55,2.23,5.71c-0.81,6.44-1.37,14.8-1.37,15.86
				c0,1.75,1.42,3.18,3.18,3.18c1.75,0,3.18-1.42,3.18-3.18c0-1.06-0.57-9.43-1.38-15.87c-0.27-2.17,0.58-4.32,2.25-5.73
				c1.54-1.3,2.39-3.24,2.29-5.26L54.11,239.53z"/>
			<path class="st2" d="M65.83,237.82l0-0.01c-0.02,0-0.04,0.01-0.06,0.01c-0.03,0-0.05-0.01-0.07-0.01c-0.09,0-0.17,0.03-0.25,0.05
				c0,0-0.01,0-0.01,0c-0.15,0.03-0.28,0.07-0.41,0.14c-1.79,0.84-4.84,5.16-6.01,14.19c-0.38,2.94-0.26,5.43-0.05,7.17
				c0.2,1.66,1.15,3.13,2.54,4.04c0.68,0.44,1.06,1.22,1.01,2.03l-0.67,10.96c-0.11,1.67,1.35,3.06,3.08,2.78
				c1.29-0.21,2.2-1.4,2.2-2.71v-37.24C67.1,238.48,66.54,237.88,65.83,237.82z"/>
		</g>
	</g>
	<g>
		<g>
			<path class="st2" d="M413.86,199.24h-38.72c-0.27,0-0.48,0.22-0.48,0.48v2.38c0,1.07,0.87,1.94,1.94,1.94h35.81
				c1.07,0,1.94-0.87,1.94-1.94v-2.38C414.34,199.45,414.13,199.24,413.86,199.24z M413.65,184.05l-21.76-7.09
				c-8.52,0-17.23,1.92-17.23,7.31v4.32c0,0.27,0.22,0.48,0.48,0.48h38.72c0.27,0,0.48-0.22,0.48-0.48V185
				C414.34,184.57,414.06,184.18,413.65,184.05z"/>
			<path class="st2" d="M413.86,191.49h-38.72c-0.27,0-0.48,0.22-0.48,0.48v4.36c0,0.27,0.22,0.48,0.48,0.48h38.72
				c0.27,0,0.48-0.22,0.48-0.48v-4.36C414.34,191.71,414.13,191.49,413.86,191.49z"/>
		</g>
	</g>
	<g>
		<g>
			<path class="st2" d="M341.08,199.41c-1.37,0-2.43-0.47-3.37-0.88c-0.83-0.37-1.61-0.71-2.59-0.71c-0.25,0-0.51,0.02-0.77,0.07
				c-1.35,0.23-1.98,0.87-2.78,1.67c-1.02,1.03-2.29,2.32-5.07,2.32c-2.79,0-4.05-1.29-5.07-2.32c-0.79-0.8-1.42-1.44-2.78-1.67
				c-0.27-0.05-0.52-0.07-0.77-0.07c-0.97,0-1.76,0.35-2.59,0.71c-0.94,0.41-2,0.88-3.36,0.88c-0.41,0-0.82-0.05-1.25-0.13
				c3.4,4.23,9.22,6.22,15.84,6.22c6.62,0,12.44-1.99,15.84-6.22C341.91,199.36,341.49,199.41,341.08,199.41z"/>
			<path class="st2" d="M326.5,175.5c-10.49,0-19,6.27-19,14c0,1.82,0.25,3.47,0.69,4.96c0.39,0.97,0.77,1.64,2.2,2.15
				c0.58,0.21,1.07,0.29,1.52,0.29c0.84,0,1.52-0.3,2.36-0.67c0.95-0.42,2.1-0.92,3.59-0.92c0.38,0,0.77,0.03,1.2,0.1
				c2.15,0.37,3.25,1.48,4.14,2.38c0.9,0.91,1.55,1.57,3.29,1.57c1.74,0,2.39-0.66,3.29-1.57c0.89-0.9,1.99-2.01,4.14-2.38
				c0.42-0.07,0.82-0.1,1.19-0.1c1.5,0,2.65,0.5,3.6,0.92c0.84,0.37,1.53,0.67,2.36,0.67c0.45,0,0.94-0.09,1.52-0.29
				c1.44-0.52,1.82-1.2,2.21-2.18c0.43-1.49,0.69-3.13,0.69-4.94C345.5,181.77,336.99,175.5,326.5,175.5z M331.12,180.12l1-1
				c0.49-0.49,1.28-0.49,1.77,0c0.49,0.49,0.49,1.28,0,1.77l-1,1c-0.24,0.24-0.56,0.37-0.88,0.37c-0.32,0-0.64-0.12-0.88-0.37
				C330.63,181.4,330.63,180.6,331.12,180.12z M325.53,178.44l1.38-0.32c0.67-0.16,1.35,0.26,1.5,0.93c0.16,0.67-0.26,1.34-0.93,1.5
				l-1.38,0.32c-0.1,0.02-0.19,0.03-0.29,0.03c-0.57,0-1.08-0.39-1.22-0.96C324.44,179.27,324.85,178.6,325.53,178.44z
				 M314.77,191.17l-1.19,0.76c-0.21,0.13-0.44,0.2-0.67,0.2c-0.41,0-0.82-0.2-1.05-0.58c-0.37-0.58-0.2-1.35,0.38-1.73l1.19-0.76
				c0.58-0.37,1.35-0.2,1.73,0.38C315.52,190.03,315.35,190.8,314.77,191.17z M315.88,185.88c-0.24,0.24-0.56,0.37-0.88,0.37
				c-0.32,0-0.64-0.12-0.88-0.37l-1-1c-0.49-0.49-0.49-1.28,0-1.77c0.49-0.49,1.28-0.49,1.77,0l1,1
				C316.37,184.6,316.37,185.4,315.88,185.88z M318.36,182.09c-0.56-0.4-0.69-1.18-0.29-1.74l0.82-1.15
				c0.4-0.56,1.18-0.69,1.74-0.29c0.56,0.4,0.69,1.18,0.29,1.74l-0.82,1.15c-0.24,0.34-0.63,0.52-1.02,0.52
				C318.84,182.32,318.58,182.25,318.36,182.09z M320.82,193.43c-0.07,0.01-0.14,0.02-0.21,0.02c-0.6,0-1.13-0.43-1.23-1.05
				l-0.23-1.4c-0.11-0.68,0.35-1.33,1.03-1.44c0.68-0.12,1.32,0.35,1.44,1.03l0.23,1.4C321.96,192.68,321.5,193.32,320.82,193.43z
				 M328.52,194.51l-1.36,0.38c-0.11,0.03-0.23,0.05-0.34,0.05c-0.55,0-1.05-0.36-1.2-0.91c-0.19-0.67,0.2-1.35,0.87-1.54l1.36-0.38
				c0.67-0.19,1.35,0.2,1.54,0.87C329.57,193.64,329.18,194.33,328.52,194.51z M326.5,188.5c-2.9,0-5.25-1.34-5.25-3
				c0-1.66,2.35-3,5.25-3c2.9,0,5.25,1.34,5.25,3C331.75,187.16,329.4,188.5,326.5,188.5z M334.88,190.88l-1,1
				c-0.24,0.24-0.56,0.37-0.88,0.37c-0.32,0-0.64-0.12-0.88-0.37c-0.49-0.49-0.49-1.28,0-1.77l1-1c0.49-0.49,1.28-0.49,1.77,0
				C335.37,189.6,335.37,190.4,334.88,190.88z M336.79,185.75c-0.69,0-1.25-0.56-1.25-1.25c0-0.69,0.56-1.25,1.25-1.25h1.41
				c0.69,0,1.25,0.56,1.25,1.25c0,0.69-0.56,1.25-1.25,1.25H336.79z M341.52,190.51l-1.36,0.38c-0.11,0.03-0.23,0.05-0.34,0.05
				c-0.55,0-1.05-0.36-1.2-0.91c-0.19-0.67,0.2-1.35,0.87-1.54l1.36-0.38c0.66-0.18,1.35,0.2,1.54,0.87
				C342.57,189.64,342.18,190.33,341.52,190.51z"/>
		</g>
	</g>
	<g>
		<g>
			<path class="st2" d="M258.5,171.75c-7.47,0-12.67,2.97-12.67,5.63c0,2.66,5.2,5.63,12.67,5.63c7.47,0,12.67-2.97,12.67-5.63
				C271.17,174.72,265.97,171.75,258.5,171.75z M262.66,177.41l-4.21,1.95c-0.41,0.19-0.89,0.19-1.3,0l-2.82-1.28
				c-1.06-0.48-1.06-2,0-2.48l4.21-1.95c0.41-0.19,0.89-0.19,1.3,0l2.82,1.28C263.73,175.41,263.73,176.92,262.66,177.41z"/>
			<path class="st2" d="M270.4,199.86c-2.76,1.86-7.03,3.04-11.9,3.04c-4.88,0-9.15-1.18-11.9-3.04c-0.33-0.22-0.77,0.02-0.77,0.42
				v3.34c0,2.66,5.2,5.63,12.67,5.63c7.47,0,12.67-2.97,12.67-5.63v-3.34C271.17,199.88,270.73,199.64,270.4,199.86z M270.4,191.3
				c-2.76,1.86-7.03,3.04-11.9,3.04c-4.88,0-9.15-1.18-11.9-3.04c-0.33-0.22-0.77,0.02-0.77,0.42v3.05c0,2.66,5.2,5.63,12.67,5.63
				c7.47,0,12.67-2.97,12.67-5.63v-3.05C271.17,191.32,270.73,191.08,270.4,191.3z M270.4,182.47c-2.76,1.86-7.03,3.04-11.9,3.04
				c-4.88,0-9.15-1.18-11.9-3.04c-0.33-0.22-0.77,0.02-0.77,0.42v3.32c0,2.66,5.2,5.63,12.67,5.63c7.47,0,12.67-2.97,12.67-5.63
				v-3.32C271.17,182.49,270.73,182.25,270.4,182.47z"/>
		</g>
	</g>
	<g>
		<g>
			<path class="st2" d="M209.65,192.72c-3.68,3.51-10.76,5.79-19.27,5.79c-8.51,0-15.59-2.28-19.27-5.79
				c-0.14,0.43-0.23,0.87-0.23,1.32v2.17c0,4.97,8.73,9,19.5,9c10.77,0,19.5-4.03,19.5-9v-2.17
				C209.88,193.58,209.79,193.15,209.65,192.72z"/>
			<path class="st2" d="M190.62,175.79c-10.77,0-19.5,4.03-19.5,9v2.17c0,4.97,8.73,9,19.5,9c10.77,0,19.5-4.03,19.5-9v-2.17
				C210.12,179.82,201.39,175.79,190.62,175.79z M175.64,183.38c0-0.81,1.16-1.31,2.46-1.31c1.29,0,2.72,0.5,2.72,1.31
				c0,0.81-1.42,1.21-2.72,1.21C176.81,184.58,175.64,184.18,175.64,183.38z M183.13,190.29c-1.29,0-2.64-0.72-2.64-1.53
				c0-0.81,1.35-1.09,2.64-1.09c1.29,0,2.59,0.29,2.59,1.09C185.72,189.57,184.42,190.29,183.13,190.29z M184.81,180.1
				c0-0.81,0.83-1.2,2.12-1.2c1.29,0,2.65,0.39,2.65,1.2c0,0.81-1.35,1.5-2.65,1.5C185.64,181.6,184.81,180.9,184.81,180.1z
				 M192.09,187.83c-1.56,0-2.96-0.85-2.96-1.83c0-0.97,1.41-1.91,2.96-1.91c1.56,0,2.33,0.94,2.33,1.91
				C194.42,186.98,193.65,187.83,192.09,187.83z M195.75,181.1c0-0.81,1.25-1.6,2.55-1.6c1.29,0,1.97,0.8,1.97,1.6
				c0,0.81-0.68,1.26-1.97,1.26C197,182.35,195.75,181.9,195.75,181.1z M200.64,190.07c-1.29,0-2.56-0.49-2.56-1.3
				c0-0.81,1.26-1.58,2.56-1.58c1.29,0,2.22,0.77,2.22,1.58C202.86,189.57,201.93,190.07,200.64,190.07z"/>
		</g>
	</g>
	<g>
		<g>
			<g>
				<path class="st2" d="M138.5,196h-32c-0.55,0-1,0.45-1,1v0c0,3.66,2.97,6.62,6.62,6.62h20.75c3.66,0,6.62-2.97,6.62-6.62v0
					C139.5,196.44,139.05,196,138.5,196z M132.88,177.38h-20.75c-3.66,0-6.62,2.97-6.62,6.62v0.25c0,0.55,0.45,1,1,1h32
					c0.55,0,1-0.45,1-1V184C139.5,180.35,136.53,177.38,132.88,177.38z"/>
				<path class="st2" d="M138.69,187.75c0,0-4.94,0.01-4.94,0.03V190c0,0.69-0.56,1.25-1.25,1.25s-1.25-0.56-1.25-1.25v-1.75
					c0-0.28-0.22-0.5-0.5-0.5h-1.5c-0.01,0-0.02,0-0.02,0c-0.01,0-0.02,0-0.03,0h-4.95c-0.28,0-0.5,0.22-0.5,0.5V190
					c0,0.69-0.56,1.25-1.25,1.25s-1.25-0.56-1.25-1.25v-1.75c0-0.28-0.22-0.5-0.5-0.5h-6.5c-0.28,0-0.5,0.22-0.5,0.5V190
					c0,0.69-0.56,1.25-1.25,1.25s-1.25-0.56-1.25-1.25v-2.22c0-0.02-4.94-0.03-4.94-0.03c-1.57,0-2.99,1.18-3.06,2.74
					c-0.07,1.65,1.24,3.01,2.87,3.01h32.76c1.63,0,2.94-1.36,2.87-3.01C141.69,188.92,140.27,187.75,138.69,187.75z"/>
			</g>
		</g>
	</g>
	<g>
		<g>
			<path class="st2" d="M72.72,195.21c-1.98-5.05-5-9.78-9.07-13.86c-4.08-4.08-8.81-7.1-13.86-9.07c-1.07-0.42-2.27,0.14-2.64,1.23
				l-1.59,4.78c-0.09,0.26,0.05,0.53,0.31,0.62c4.54,1.58,8.8,4.17,12.43,7.8c3.62,3.62,6.22,7.89,7.8,12.43
				c0.09,0.26,0.36,0.39,0.62,0.31l4.78-1.59C72.58,197.49,73.14,196.28,72.72,195.21z"/>
			<path class="st2" d="M63.71,199.91c-1.46-4.18-3.85-8.1-7.18-11.43c-3.33-3.33-7.25-5.72-11.43-7.18
				c-0.26-0.09-0.56,0.05-0.64,0.32l-8.2,24.61c-0.52,1.56,0.97,3.05,2.53,2.53l24.61-8.2C63.65,200.46,63.8,200.17,63.71,199.91z
				 M43.89,204.26c-0.78,0.78-2.05,0.78-2.83,0c-0.78-0.78-0.78-2.05,0-2.83c0.78-0.78,2.05-0.78,2.83,0
				C44.67,202.21,44.67,203.48,43.89,204.26z M45.13,196.66c0.49,0.49,0.49,1.28,0,1.77c-0.24,0.24-0.56,0.37-0.88,0.37
				c-0.32,0-0.64-0.12-0.88-0.37c-1.46-1.46-1.46-3.84,0-5.3c0.49-0.49,1.28-0.49,1.77,0c0.49,0.49,0.49,1.28,0,1.77
				C44.64,195.38,44.64,196.17,45.13,196.66z M46.72,187.29c1.17-1.17,3.07-1.17,4.24,0s1.17,3.07,0,4.24
				c-1.17,1.17-3.07,1.17-4.24,0C45.55,190.36,45.55,188.46,46.72,187.29z M52.73,201.08c-0.98,0.98-2.56,0.98-3.54,0
				c-0.98-0.98-0.98-2.56,0-3.54c0.98-0.98,2.56-0.98,3.54,0C53.71,198.52,53.71,200.1,52.73,201.08z M57.71,197.8h-0.03
				c-0.69-0.02-1.23-0.59-1.22-1.28c0.01-0.33-0.11-0.65-0.34-0.89c-0.23-0.24-0.54-0.38-0.88-0.39c-0.69-0.02-1.24-0.59-1.22-1.28
				c0.02-0.69,0.63-1.2,1.28-1.22c1,0.03,1.93,0.44,2.62,1.17c0.69,0.73,1.05,1.68,1.03,2.68C58.94,197.26,58.38,197.8,57.71,197.8z
				"/>
		</g>
	</g>
	<g>
		<g>
			<path class="st2" d="M395.82,105.32c-0.85,0-1.54,0.69-1.54,1.54s0.69,1.54,1.54,1.54c0.85,0,1.54-0.69,1.54-1.54
				S396.67,105.32,395.82,105.32z M396.03,109.57l-1.98-0.26c-0.27-0.04-0.53,0.16-0.56,0.43l-0.61,4.55
				c-0.04,0.3,0.19,0.57,0.5,0.57h2.02c0.25,0,0.46-0.19,0.5-0.43l0.57-4.28C396.49,109.86,396.3,109.61,396.03,109.57z
				 M406.88,102.83l-0.74-1.86c-0.1-0.26-0.39-0.38-0.65-0.28l-7.54,2.99c-0.26,0.1-0.38,0.39-0.28,0.65l0.74,1.86
				c0.1,0.26,0.39,0.38,0.65,0.28l7.54-2.99C406.86,103.37,406.98,103.08,406.88,102.83z"/>
			<path class="st2" d="M404.45,110.35h-2c-0.26,0-0.48,0.2-0.5,0.47l-0.45,6.53h-15.96l-0.45-6.53c-0.02-0.26-0.24-0.47-0.5-0.47
				h-2c-0.29,0-0.52,0.25-0.5,0.53l2.01,29.73c0.14,2.1,1.89,3.73,3.99,3.73h10.87c2.1,0,3.85-1.63,3.99-3.73l2.01-29.73
				C404.97,110.59,404.74,110.35,404.45,110.35z M389.61,140.1c-0.03,0-0.06,0-0.1,0c-0.65,0-1.2-0.5-1.25-1.15l-1-13
				c-0.05-0.69,0.46-1.29,1.15-1.34c0.68-0.06,1.29,0.46,1.34,1.15l1,13C390.81,139.44,390.3,140.04,389.61,140.1z"/>
		</g>
	</g>
	<g>
		<g>
			<path class="st2" d="M334.5,110.37c0-0.02,0-0.03,0-0.05c0-4.42-3.58-8-8-8s-8,3.58-8,8c0,0.02,0,0.03,0,0.05
				c-2.25,0.25-4,2.13-4,4.45c0,2.49,2.01,4.5,4.5,4.5h15c2.49,0,4.5-2.01,4.5-4.5C338.5,112.5,336.75,110.62,334.5,110.37z"/>
			<path class="st2" d="M334,121.81h-15.33c-0.28,0-0.5,0.22-0.5,0.5v4c0,0.28,0.22,0.5,0.5,0.5h1.07l3.26,15.08
				c0.1,0.46,0.51,0.79,0.98,0.79h4.73c0.47,0,0.88-0.33,0.98-0.79l2.82-13.08h-4c-0.55,0-1-0.45-1-1c0-0.55,0.45-1,1-1l5.5,0
				c0.28,0,0.5-0.22,0.5-0.5v-4C334.5,122.04,334.28,121.81,334,121.81z"/>
		</g>
	</g>
	<g>
		<g>
			<path class="st2" d="M262,102.25h-7c-0.55,0-1,0.45-1,1v2h9v-2C263,102.7,262.55,102.25,262,102.25z"/>
			<path class="st2" d="M266.99,117.75c0.56,0.01,1.01-0.44,1.01-1V115c0-2.52-1.02-4.96-2.91-6.62c-0.43-0.38-0.82-0.63-1.09-0.63
				h-11c-0.28,0-0.66,0.25-1.09,0.63c-1.89,1.66-2.91,4.11-2.91,6.62v1.75c0,0.55,0.44,1.01,0.99,1c0.56-0.01,1.01,0.44,1.01,1v1
				c0,0.56-0.45,1.01-1.01,1c-0.55-0.01-0.99,0.45-0.99,1v4h2.5c0.83,0,1.5,0.67,1.5,1.5c0,0.83-0.67,1.5-1.5,1.5H249v4h2.5
				c0.83,0,1.5,0.67,1.5,1.5c0,0.83-0.67,1.5-1.5,1.5H249v3c0,2.21,1.79,4,4,4h11c2.21,0,4-1.79,4-4v-3h-2.5
				c-0.83,0-1.5-0.67-1.5-1.5c0-0.83,0.67-1.5,1.5-1.5h2.5v-4h-2.5c-0.83,0-1.5-0.67-1.5-1.5c0-0.83,0.67-1.5,1.5-1.5h2.5v-4
				c0-0.55-0.44-1.01-0.99-1c-0.56,0.01-1.01-0.44-1.01-1v-1C266,118.2,266.44,117.74,266.99,117.75z"/>
		</g>
	</g>
	<g>
		<g>
			<path class="st2" d="M185.2,131.89c-2.26-1.12-3.72-2.99-3.72-5.14c0-1.96,1.2-3.68,3.12-4.82l-0.26-4.3c0,0,0-0.01,0-0.01
				l-0.05-0.84c-0.1-1.63-1.45-2.9-3.08-2.9h-0.3c-0.89,0-1.74,0.39-2.33,1.06c-0.59,0.68-0.85,1.57-0.73,2.46l3.33,23.48
				c0.12,0.86,0.87,1.5,1.73,1.5h2.92l-0.62-10.27L185.2,131.89z M199.06,107.46c0-0.01,0-0.02,0-0.03c0-2.65-2.15-4.8-4.8-4.8
				c-1.8,0-3.35,1-4.17,2.46c-0.75-0.55-1.67-0.88-2.67-0.88c-2.15,0-3.93,1.49-4.42,3.49c-0.11-0.01-0.22-0.03-0.33-0.03
				c-2.42,0-4.38,1.96-4.38,4.38c0.8-0.43,1.7-0.67,2.63-0.67h0.3c1.8,0,3.41,0.86,4.43,2.2c0.1-0.12,0.19-0.24,0.3-0.35
				c1.11-1.18,2.67-1.85,4.29-1.85c1.62,0,3.18,0.68,4.29,1.85c0.1,0.11,0.2,0.23,0.3,0.35c1.02-1.34,2.63-2.2,4.43-2.2
				c1.41,0,2.77,0.53,3.79,1.48c0.08-0.34,0.14-0.68,0.14-1.04C203.18,109.48,201.35,107.6,199.06,107.46z M199.25,113.87
				c-1.63,0-2.98,1.27-3.08,2.9l-0.31,5.15c1.92,1.14,3.12,2.86,3.12,4.82c0,2.16-1.46,4.02-3.72,5.14l-0.63,10.48h2.62
				c0.87,0,1.61-0.65,1.73-1.5l3.33-23.48c0.13-0.89-0.14-1.78-0.73-2.46C200.99,114.26,200.14,113.87,199.25,113.87z"/>
			<path class="st2" d="M190.23,120.5c1.13,0,2.2,0.15,3.18,0.42l0.21-3.44c0.06-0.94-0.27-1.84-0.92-2.53
				c-1.3-1.38-3.65-1.38-4.95,0c-0.65,0.69-0.97,1.59-0.92,2.53l0.21,3.45C188.03,120.65,189.1,120.5,190.23,120.5z M187.76,132.75
				l0.58,9.62h3.77l0.58-9.62c-0.78,0.16-1.61,0.25-2.47,0.25C189.37,133,188.54,132.91,187.76,132.75z M190.23,123
				c-3.39,0-6.25,1.72-6.25,3.75c0,2.03,2.86,3.75,6.25,3.75c3.39,0,6.25-1.72,6.25-3.75C196.48,124.72,193.62,123,190.23,123z"/>
		</g>
	</g>
	<g>
		<g>
			<path class="st2" d="M127,135h-16c-0.28,0-0.5,0.22-0.5,0.5v2.5c0,1.1,0.9,2,2,2h13c1.1,0,2-0.9,2-2v-2.5
				C127.5,135.22,127.28,135,127,135z M132,111.5h-5c0,0,0,0,0,0h-18c-0.28,0-0.5,0.22-0.5,0.5v18.5c0,1.1,0.9,2,2,2h17
				c1.1,0,2-0.9,2-2v-3.05c4.49-0.47,8-4.27,8-8.88V117C137.5,113.97,135.03,111.5,132,111.5z M134.5,118.57c0,2.95-2.17,5.4-5,5.85
				v-9.92h2.5c1.38,0,2.5,1.12,2.5,2.5V118.57z"/>
			<path class="st2" d="M128.5,105h-20c-0.55,0-1,0.45-1,1v2.5c0,0.28,0.22,0.5,0.5,0.5h21c0.28,0,0.5-0.22,0.5-0.5V106
				C129.5,105.45,129.05,105,128.5,105z"/>
		</g>
	</g>
	<g>
		<g>
			<path class="st2" d="M67.49,108.01h-1.79l-0.84-3.37c-0.06-0.24-0.28-0.41-0.52-0.41H44.67c-0.25,0-0.46,0.17-0.52,0.41
				l-0.84,3.37h-1.79c-0.28,0-0.5,0.22-0.5,0.5v2.24c0,0.28,0.22,0.5,0.5,0.5h25.97c0.28,0,0.5-0.22,0.5-0.5v-2.24
				C67.99,108.23,67.76,108.01,67.49,108.01z"/>
			<path class="st2" d="M65.22,113.79H43.78c-0.32,0-0.57,0.28-0.54,0.6l3.11,25.89c0.03,0.27,0.26,0.48,0.54,0.48h15.23
				c0.27,0,0.5-0.2,0.54-0.48l3.11-25.89C65.79,114.08,65.54,113.79,65.22,113.79z M51.07,123.31c2.73-2.73,4.94-2.48,6.73-1.05
				c-1.96,0.71-3.94,1.98-5.68,3.72c-1.02,1.02-1.9,2.16-2.6,3.33C48.57,127.66,48.7,125.68,51.07,123.31z M57.93,130.18
				c-2.68,2.68-4.87,2.49-6.65,1.12c0.63-1.24,1.52-2.46,2.6-3.54c1.75-1.75,3.8-2.96,5.69-3.41
				C60.42,125.95,60.22,127.88,57.93,130.18z"/>
		</g>
	</g>
</g>
<g id="title" class="st0">
	<g class="st3">
		<path class="st2" d="M31.77,46.17c0-0.68,0.44-1.12,1.12-1.12h7.41c0.68,0,1.12,0.44,1.12,1.12v0.56c0,0.68-0.44,1.12-1.12,1.12
			h-5.17v4.03h4.47c0.68,0,1.12,0.44,1.12,1.12v0.54c0,0.68-0.44,1.12-1.12,1.12h-4.47v5.54c0,0.68-0.44,1.12-1.12,1.12h-1.12
			c-0.68,0-1.12-0.44-1.12-1.12V46.17z"/>
		<path class="st2" d="M43.51,51.69c0-4.01,2.4-6.94,6.55-6.94c4.15,0,6.55,2.94,6.55,6.94v2.98c0,4.01-2.4,6.94-6.55,6.94
			c-4.15,0-6.55-2.94-6.55-6.94V51.69z M53.16,54.42v-2.47c0-2.35-0.63-4.4-3.1-4.4c-2.45,0-3.1,2.05-3.1,4.4v2.47
			c0,2.38,0.65,4.4,3.1,4.4C52.53,58.82,53.16,56.79,53.16,54.42z"/>
		<path class="st2" d="M59.03,51.69c0-4.01,2.4-6.94,6.55-6.94c4.15,0,6.55,2.94,6.55,6.94v2.98c0,4.01-2.4,6.94-6.55,6.94
			c-4.15,0-6.55-2.94-6.55-6.94V51.69z M68.68,54.42v-2.47c0-2.35-0.63-4.4-3.1-4.4c-2.45,0-3.1,2.05-3.1,4.4v2.47
			c0,2.38,0.65,4.4,3.1,4.4C68.05,58.82,68.68,56.79,68.68,54.42z"/>
		<path class="st2" d="M75.1,46.17c0-0.68,0.44-1.12,1.12-1.12h4.99c4.19,0,6.17,1.93,6.17,6.06v4.15c0,4.12-1.98,6.06-6.17,6.06
			h-4.99c-0.68,0-1.12-0.44-1.12-1.12V46.17z M81.12,58.52c2.56,0,2.82-1.35,2.82-3.5v-3.66c0-2.12-0.26-3.52-2.82-3.52h-2.66v10.67
			H81.12z"/>
		<path class="st2" d="M97.45,52.55c-1.21-0.77-1.91-1.96-1.91-3.47c0-2.82,2.42-4.99,5.85-4.99c1,0,1.86,0.14,2.28,0.23
			c0.65,0.14,1,0.7,0.86,1.35l-0.12,0.56c-0.14,0.65-0.7,0.95-1.38,0.84c-0.4-0.07-0.91-0.14-1.61-0.14c-1.58,0-2.4,0.82-2.4,2.14
			c0,1.44,0.82,2.35,2.4,2.35h4.85c0.68,0,1.12,0.37,1.12,1.05v0.37c0,0.68-0.44,1.05-1.12,1.05h-0.16v5.52
			c0,0.68-0.35,1.26-1.07,1.51c-0.72,0.26-2.26,0.68-3.94,0.68c-3.98,0-6.18-2.19-6.18-5.15C94.93,54.65,95.84,53.3,97.45,52.55z
			 M101.15,58.77c0.72,0,1.58-0.09,2.24-0.3V53.9h-2.21c-1.89,0-2.75,0.98-2.75,2.52C98.43,57.89,99.22,58.77,101.15,58.77z"/>
		<path class="st2" d="M114.73,46.96c0-0.72,0.51-1.3,1.14-1.51c0.65-0.21,2.17-0.7,3.8-0.7c3.4,0,5.48,2.14,5.48,4.75
			c0,1.42-0.61,2.47-1.7,3.15c1.61,0.72,2.54,2.03,2.54,3.75c0,2.68-2.21,4.92-5.99,4.92h-4.15c-0.68,0-1.12-0.44-1.12-1.12V46.96z
			 M119.6,51.58c1.4,0,2.1-0.96,2.1-2.07c0-1.14-0.68-1.96-2.07-1.96c-0.61,0-1.03,0.09-1.54,0.28v3.75H119.6z M119.88,58.52
			c1.61,0,2.59-0.86,2.59-2.12c0-1.3-0.75-2.24-2.59-2.24h-1.79v4.36H119.88z"/>
		<path class="st2" d="M128.2,49.52c0-2.7,1.72-4.47,5.15-4.47h3.38c0.68,0,1.12,0.44,1.12,1.12v0.56c0,0.68-0.44,1.12-1.12,1.12
			h-3.33c-1.4,0-1.84,0.63-1.84,1.93v1.82h4.47c0.68,0,1.12,0.44,1.12,1.12v0.54c0,0.68-0.44,1.12-1.12,1.12h-4.47v2.24
			c0,1.33,0.44,1.91,1.84,1.91h3.43c0.68,0,1.12,0.44,1.12,1.12v0.56c0,0.68-0.44,1.12-1.12,1.12h-3.47c-3.4,0-5.15-1.77-5.15-4.45
			V49.52z"/>
		<path class="st2" d="M140.01,46.33c-0.23-0.75,0.12-1.28,0.86-1.28h1.14c0.68,0,1.14,0.33,1.33,0.96l2.38,8.08
			c0.28,0.93,0.58,2.28,0.84,3.54c0.28-1.26,0.58-2.61,0.86-3.54l2.35-8.01c0.19-0.63,0.68-1.03,1.35-1.03h1.14
			c0.75,0,1.1,0.54,0.84,1.33l-4.29,13.72c-0.23,0.75-0.82,1.21-1.49,1.21h-1.51c-0.68,0-1.26-0.47-1.49-1.21L140.01,46.33z"/>
		<path class="st2" d="M155.2,49.52c0-2.7,1.72-4.47,5.15-4.47h3.38c0.68,0,1.12,0.44,1.12,1.12v0.56c0,0.68-0.44,1.12-1.12,1.12
			h-3.33c-1.4,0-1.84,0.63-1.84,1.93v1.82h4.47c0.68,0,1.12,0.44,1.12,1.12v0.54c0,0.68-0.44,1.12-1.12,1.12h-4.47v2.24
			c0,1.33,0.44,1.91,1.84,1.91h3.43c0.68,0,1.12,0.44,1.12,1.12v0.56c0,0.68-0.44,1.12-1.12,1.12h-3.47c-3.4,0-5.15-1.77-5.15-4.45
			V49.52z"/>
		<path class="st2" d="M167.8,46.84c0-0.68,0.47-1.26,1.14-1.44c0.72-0.21,2.45-0.65,4.12-0.65c3.66,0,5.62,2.59,5.62,5.41
			c0,1.49-0.79,3.75-3.05,4.75l2.38,5.1c0.33,0.68-0.09,1.3-0.77,1.3h-1.38c-0.68,0-1.09-0.37-1.37-1l-2.14-4.92h-1.19v4.8
			c0,0.68-0.44,1.12-1.12,1.12h-1.12c-0.68,0-1.12-0.44-1.12-1.12V46.84z M172.81,52.74c1.56,0,2.35-1,2.35-2.59
			c0-1.44-0.61-2.61-2.12-2.61c-0.63,0-1.26,0.07-1.89,0.28v4.92H172.81z"/>
		<path class="st2" d="M183.79,47.61c0.4-1.54,1.54-2.87,3.49-2.87c1.91,0,3.08,1.37,3.47,2.87l3.29,12.47
			c0.16,0.63-0.19,1.24-0.91,1.24h-1.12c-0.68,0-1.14-0.47-1.3-1.12l-0.77-3.05h-5.31l-0.75,3.03c-0.19,0.75-0.58,1.14-1.26,1.14
			h-1.19c-0.72,0-1.05-0.63-0.88-1.26L183.79,47.61z M189.26,54.39l-1.58-6.38c-0.05-0.23-0.19-0.4-0.4-0.4
			c-0.23,0-0.35,0.16-0.4,0.4l-1.58,6.38H189.26z"/>
		<path class="st2" d="M196.06,50.76c0-3.87,2.35-6.01,6.06-6.01c1.63,0,2.7,0.19,3.59,0.4c0.79,0.21,1.03,0.63,0.86,1.35
			l-0.12,0.56c-0.14,0.63-0.7,0.93-1.35,0.77c-0.61-0.12-1.28-0.28-2.52-0.28c-1.91,0-3.08,0.82-3.08,3.47v4.33
			c0,2.66,1.17,3.47,3.08,3.47c1.03,0,1.63-0.14,2.33-0.33v-4.31c0-0.68,0.35-1.14,1.03-1.19l1.24-0.09c0.68-0.05,1,0.37,1,1.05
			v5.55c0,0.68-0.51,1.26-1.14,1.42c-1.03,0.26-2.77,0.7-4.92,0.7c-3.71,0-6.06-2.12-6.06-6.01V50.76z"/>
		<path class="st2" d="M210.91,49.52c0-2.7,1.72-4.47,5.15-4.47h3.38c0.68,0,1.12,0.44,1.12,1.12v0.56c0,0.68-0.44,1.12-1.12,1.12
			h-3.33c-1.4,0-1.84,0.63-1.84,1.93v1.82h4.47c0.68,0,1.12,0.44,1.12,1.12v0.54c0,0.68-0.44,1.12-1.12,1.12h-4.47v2.24
			c0,1.33,0.44,1.91,1.84,1.91h3.42c0.68,0,1.12,0.44,1.12,1.12v0.56c0,0.68-0.44,1.12-1.12,1.12h-3.47c-3.4,0-5.15-1.77-5.15-4.45
			V49.52z"/>
		<path class="st4" d="M228.84,45.71c0-0.7,0.46-1.15,1.15-1.15h1.15c0.7,0,1.15,0.46,1.15,1.15v14.45c0,0.7-0.46,1.15-1.15,1.15
			H230c-0.7,0-1.15-0.46-1.15-1.15V45.71z"/>
		<path class="st4" d="M235.39,50.44c0-3.98,2.42-6.19,6.24-6.19c1.78,0,3,0.24,3.98,0.48c0.53,0.14,0.77,0.58,0.65,1.13l-0.21,0.98
			c-0.12,0.53-0.63,0.77-1.15,0.62c-0.65-0.14-1.54-0.34-2.79-0.34c-1.97,0-3.17,0.84-3.17,3.58v4.46c0,2.74,1.2,3.58,3.17,3.58
			c1.54,0,2.47-0.26,2.9-0.36c0.58-0.14,0.91,0.12,1.03,0.65l0.21,0.98c0.1,0.48-0.12,0.98-0.65,1.13
			c-0.55,0.14-1.99,0.48-3.98,0.48c-3.82,0-6.24-2.18-6.24-6.19V50.44z"/>
		<path class="st4" d="M248.84,51.4c0-4.13,2.47-7.15,6.75-7.15c4.27,0,6.74,3.02,6.74,7.15v3.07c0,4.13-2.47,7.15-6.74,7.15
			c-4.27,0-6.75-3.02-6.75-7.15V51.4z M258.77,54.21v-2.54c0-2.42-0.65-4.54-3.19-4.54c-2.52,0-3.19,2.11-3.19,4.54v2.54
			c0,2.45,0.67,4.54,3.19,4.54C258.12,58.75,258.77,56.66,258.77,54.21z"/>
		<path class="st4" d="M265.39,45.71c0-0.7,0.46-1.15,1.15-1.15h0.96c0.7,0,1.22,0.38,1.61,1.06l5.33,9.41
			c-0.14-1.2-0.22-2.4-0.22-3.31v-6c0-0.7,0.46-1.15,1.15-1.15h1.1c0.7,0,1.15,0.46,1.15,1.15v14.45c0,0.7-0.46,1.15-1.15,1.15
			h-0.96c-0.7,0-1.25-0.38-1.63-1.06l-5.3-9.36c0.12,1.2,0.22,2.38,0.22,3.26v6c0,0.7-0.46,1.15-1.15,1.15h-1.1
			c-0.7,0-1.15-0.46-1.15-1.15V45.71z"/>
		<path class="st4" d="M280.51,59.56l0.14-0.62c0.17-0.74,0.7-0.94,1.34-0.74c0.46,0.12,1.73,0.55,3.24,0.55
			c1.63,0,2.3-0.86,2.3-2.02c0-3.26-6.94-2.04-6.94-7.78c0-2.98,2.5-4.7,5.78-4.7c1.54,0,2.59,0.34,3.19,0.53
			c0.65,0.22,1.01,0.74,0.77,1.46l-0.17,0.53c-0.22,0.65-0.77,0.94-1.46,0.72c-0.55-0.17-1.3-0.36-2.33-0.36
			c-1.44,0-2.16,0.72-2.16,1.82c0,2.81,6.94,2.09,6.94,7.78c0,2.95-2.4,4.9-5.93,4.9c-1.66,0-2.95-0.36-3.89-0.65
			C280.66,60.76,280.35,60.33,280.51,59.56z"/>
	</g>
</g>
</svg>
