<?xml version="1.0" encoding="utf-8"?>
<!-- Generator: Adobe Illustrator 24.1.1, SVG Export Plug-In . SVG Version: 6.00 Build 0)  -->
<svg version="1.1" xmlns="http://www.w3.org/2000/svg" xmlns:xlink="http://www.w3.org/1999/xlink" x="0px" y="0px"
	 viewBox="0 0 448 448" style="enable-background:new 0 0 448 448;" xml:space="preserve">
<style type="text/css">
	.st0{display:none;}
	.st1{display:inline;fill:#FFFFFF;}
	.st2{fill:#173042;}
	.st3{display:inline;}
	.st4{fill:#869093;}
</style>
<g id="grid" class="st0">
	<rect x="30" y="98" class="st1" width="48" height="48"/>
	<rect x="98" y="98" class="st1" width="48" height="48"/>
	<rect x="166" y="98" class="st1" width="48" height="48"/>
	<rect x="234" y="98" class="st1" width="48" height="48"/>
	<rect x="302" y="98" class="st1" width="48" height="48"/>
	<rect x="370" y="98" class="st1" width="48" height="48"/>
	<rect x="30" y="166" class="st1" width="48" height="48"/>
	<rect x="98" y="166" class="st1" width="48" height="48"/>
	<rect x="166" y="166" class="st1" width="48" height="48"/>
	<rect x="234" y="166" class="st1" width="48" height="48"/>
	<rect x="302" y="166" class="st1" width="48" height="48"/>
	<rect x="370" y="166" class="st1" width="48" height="48"/>
	<rect x="30" y="234" class="st1" width="48" height="48"/>
	<rect x="98" y="234" class="st1" width="48" height="48"/>
	<rect x="370" y="234" class="st1" width="48" height="48"/>
	<rect x="30" y="302" class="st1" width="48" height="48"/>
	<rect x="98" y="302" class="st1" width="48" height="48"/>
	<rect x="166" y="234" class="st1" width="48" height="48"/>
	<rect x="234" y="234" class="st1" width="48" height="48"/>
	<rect x="302" y="234" class="st1" width="48" height="48"/>
	<rect x="166" y="302" class="st1" width="48" height="48"/>
	<rect x="234" y="302" class="st1" width="48" height="48"/>
	<rect x="302" y="302" class="st1" width="48" height="48"/>
	<rect x="370" y="302" class="st1" width="48" height="48"/>
	<rect x="30" y="370" class="st1" width="48" height="48"/>
	<rect x="98" y="370" class="st1" width="48" height="48"/>
	<rect x="166" y="370" class="st1" width="48" height="48"/>
	<rect x="234" y="370" class="st1" width="48" height="48"/>
	<rect x="302" y="370" class="st1" width="48" height="48"/>
	<rect x="370" y="370" class="st1" width="48" height="48"/>
</g>
<g id="icons">
	<g>
		<g>
			<g>
				<g>
					<path class="st2" d="M404.59,394.78c-0.74-0.12-1.58,0.17-2.17,0.67c-0.2-0.83-0.99-1.53-1.83-1.67
						c-0.7-0.11-1.5,0.14-2.07,0.6c-0.26-0.8-1.11-1.46-1.93-1.6c-0.79-0.13-1.87,0.29-2.34,0.88l0-6.32c0-0.87-0.51-1.72-1.35-1.98
						c-1.38-0.44-2.65,0.58-2.65,1.9v16c-1.1,0-2-0.9-2-2v-1.81c0-0.38-0.31-0.69-0.69-0.69h-0.6c-1.49,0-2.7,1.21-2.7,2.7v4.94
						c0,0.86,0.37,1.69,1.02,2.26l2.69,2.36c0.55,0.48,1.25,0.74,1.98,0.74h11.07c0.8,0,1.56-0.32,2.12-0.88l2.24-2.24
						c0.56-0.56,0.88-1.33,0.88-2.12v-9.65C406.25,395.86,405.57,394.94,404.59,394.78z"/>
					<path class="st2" d="M383.75,389.25h3c0.55,0,1-0.45,1-1v-3c0-0.55-0.45-1-1-1h-3c-0.55,0-1,0.45-1,1v3
						C382.75,388.8,383.2,389.25,383.75,389.25z M386.82,391.25h-3c-0.55,0-1,0.45-1,1v3c0,0.55,0.45,1,1,1h3c0.55,0,1-0.45,1-1v-3
						C387.82,391.7,387.37,391.25,386.82,391.25z M400.75,377.25h-3c-0.55,0-1,0.45-1,1v3c0,0.55,0.45,1,1,1h3c0.55,0,1-0.45,1-1v-3
						C401.75,377.7,401.3,377.25,400.75,377.25z M383.75,382.25h3c0.55,0,1-0.45,1-1v-3c0-0.55-0.45-1-1-1h-3c-0.55,0-1,0.45-1,1v3
						C382.75,381.8,383.2,382.25,383.75,382.25z M393.75,377.25h-3c-0.55,0-1,0.45-1,1v3c0,0.55,0.45,1,1,1h3c0.55,0,1-0.45,1-1v-3
						C394.75,377.7,394.3,377.25,393.75,377.25z M400.75,384.25h-3c-0.55,0-1,0.45-1,1v3c0,0.55,0.45,1,1,1h3c0.55,0,1-0.45,1-1v-3
						C401.75,384.7,401.3,384.25,400.75,384.25z"/>
				</g>
			</g>
		</g>
	</g>
	<g>
		<g>
			<g>
				<g>
					<path class="st2" d="M346.61,383.7h-15c-0.28,0-0.5,0.22-0.5,0.5v3c0,0.28,0.22,0.5,0.5,0.5h1.94v16.78
						c0,2.41,1.79,4.37,4,4.37h0.31v4.87c0,0.69,0.56,1.25,1.25,1.25s1.25-0.56,1.25-1.25v-4.87h0.31c2.21,0,4-1.96,4-4.37V387.7
						h1.94c0.28,0,0.5-0.22,0.5-0.5v-3C347.11,383.92,346.88,383.7,346.61,383.7z M342.17,393.68l-6.12,2.72v-7.66h6.12V393.68z
						 M331.9,407.84h-21.01c-0.55,0-1-0.45-1-1v-17c0-0.55,0.45-1,1-1h18.22c-0.31-0.47-0.51-1.04-0.51-1.65v-3c0-1.65,1.35-3,3-3
						h2.64v-2.35h-24.35c-2.21,0-4,1.79-4,4v25c0,2.21,1.79,4,4,4h25.46v-0.9C333.88,410.38,332.66,409.27,331.9,407.84z
						 M317.89,382.34h4c0.83,0,1.5,0.67,1.5,1.5c0,0.83-0.67,1.5-1.5,1.5h-4c-0.83,0-1.5-0.67-1.5-1.5
						C316.39,383.02,317.07,382.34,317.89,382.34z M311.89,381.84c1.1,0,2,0.9,2,2c0,1.1-0.9,2-2,2c-1.1,0-2-0.9-2-2
						C309.89,382.74,310.79,381.84,311.89,381.84z M327.39,393.09h-4c-0.69,0-1.25,0.56-1.25,1.25c0,0.69,0.56,1.25,1.25,1.25h4
						c0.69,0,1.25-0.56,1.25-1.25C328.64,393.65,328.09,393.09,327.39,393.09z M327.39,398.09h-4c-0.69,0-1.25,0.56-1.25,1.25
						c0,0.69,0.56,1.25,1.25,1.25h4c0.69,0,1.25-0.56,1.25-1.25C328.64,398.65,328.09,398.09,327.39,398.09z M327.39,403.09h-14
						c-0.69,0-1.25,0.56-1.25,1.25c0,0.69,0.56,1.25,1.25,1.25h14c0.69,0,1.25-0.56,1.25-1.25
						C328.64,403.65,328.09,403.09,327.39,403.09z"/>
					<path class="st2" d="M317.89,392.84h-4c-0.55,0-1,0.45-1,1v5c0,0.55,0.45,1,1,1h4c0.55,0,1-0.45,1-1v-5
						C318.89,393.29,318.45,392.84,317.89,392.84z M342.54,374.04h-6.88c-0.59,0-1.06,0.47-1.06,1.06c0,0.59,0.47,1.06,1.06,1.06
						h1.08v5.53h4.73v-5.53h1.08c0.59,0,1.06-0.47,1.06-1.06C343.61,374.52,343.13,374.04,342.54,374.04z"/>
				</g>
			</g>
		</g>
	</g>
	<g>
		<g>
			<path class="st2" d="M270.53,378h-29c-1.1,0-2,0.9-2,2v6c0,1.1,0.9,2,2,2h29c1.1,0,2-0.9,2-2v-6
				C272.53,378.9,271.64,378,270.53,378z M245.53,385c-1.1,0-2-0.9-2-2s0.9-2,2-2s2,0.9,2,2S246.64,385,245.53,385z M252.53,385
				c-1.1,0-2-0.9-2-2s0.9-2,2-2s2,0.9,2,2S253.64,385,252.53,385z M268.03,384.25h-8c-0.69,0-1.25-0.56-1.25-1.25
				s0.56-1.25,1.25-1.25h8c0.69,0,1.25,0.56,1.25,1.25S268.72,384.25,268.03,384.25z M239.53,393v6c0,1.1,0.9,2,2,2h16.28
				c-0.38-1.46-0.64-3.05-0.71-4.82c-0.07-1.81,1.24-3.35,3.05-3.57c1.36-0.17,2.76-0.88,3.9-1.61h-22.52
				C240.43,391,239.53,391.9,239.53,393z M252.53,394c1.1,0,2,0.9,2,2s-0.9,2-2,2s-2-0.9-2-2S251.43,394,252.53,394z M245.53,394
				c1.1,0,2,0.9,2,2s-0.9,2-2,2s-2-0.9-2-2S244.43,394,245.53,394z"/>
			<path class="st2" d="M257.25,404h-13.72c-0.83,0-1.5,0.67-1.5,1.5s0.67,1.5,1.5,1.5h13.72c0.83,0,1.5-0.67,1.5-1.5
				S258.08,404,257.25,404z M276.61,395.09c-3.15-0.39-6.19-2.75-7.46-3.86c-0.36-0.31-0.88-0.31-1.24,0
				c-1.27,1.1-4.31,3.46-7.46,3.86c-0.5,0.06-0.88,0.49-0.86,0.99c0.39,9.59,6.69,13.8,8.47,14.8c0.29,0.16,0.64,0.16,0.93,0
				c1.78-1,8.08-5.21,8.47-14.8C277.49,395.57,277.11,395.15,276.61,395.09z M267.79,404.74l-4-4l1.99-1.99l2,2l3.5-3.5l2,2
				L267.79,404.74z"/>
		</g>
	</g>
	<g>
		<g>
			<path class="st2" d="M190.5,391c-1.65,0-3,1.35-3,3c0,1.65,1.35,3,3,3s3-1.35,3-3C193.5,392.35,192.15,391,190.5,391z
				 M208.15,392.58c-2.8-2.76-9.65-8.58-17.65-8.58s-14.86,5.82-17.65,8.58c-0.79,0.78-0.79,2.05,0,2.84
				c2.8,2.76,9.65,8.58,17.65,8.58s14.86-5.82,17.65-8.58C208.95,394.64,208.95,393.36,208.15,392.58z M190.5,400
				c-3.31,0-6-2.69-6-6c0-3.31,2.69-6,6-6s6,2.69,6,6C196.5,397.31,193.81,400,190.5,400z"/>
			<path class="st2" d="M181.07,377.8h-4.8c-1.64,0-2.97,1.33-2.97,2.97v4.8c0,0.83,0.67,1.5,1.5,1.5c0.83,0,1.5-0.67,1.5-1.5
				l-0.03-4.77h4.8c0.83,0,1.5-0.67,1.5-1.5C182.57,378.47,181.89,377.8,181.07,377.8z M181.07,408.2l-4.77,0.03v-4.8
				c0-0.83-0.67-1.5-1.5-1.5c-0.83,0-1.5,0.67-1.5,1.5v4.8c0,1.64,1.33,2.97,2.97,2.97h4.8c0.83,0,1.5-0.67,1.5-1.5
				C182.57,408.87,181.89,408.2,181.07,408.2z M203.73,377.8h-4.8c-0.83,0-1.5,0.67-1.5,1.5c0,0.83,0.67,1.5,1.5,1.5l4.77-0.03v4.8
				c0,0.83,0.67,1.5,1.5,1.5c0.83,0,1.5-0.67,1.5-1.5v-4.8C206.7,379.13,205.37,377.8,203.73,377.8z M205.2,401.93
				c-0.83,0-1.5,0.67-1.5,1.5l0.03,4.77h-4.8c-0.83,0-1.5,0.67-1.5,1.5c0,0.83,0.67,1.5,1.5,1.5h4.8c1.64,0,2.97-1.33,2.97-2.97
				v-4.8C206.7,402.61,206.03,401.93,205.2,401.93z"/>
		</g>
	</g>
	<g>
		<g>
			<g>
				<g>
					<path class="st2" d="M121,395.75h3.5c0.69,0,1.25-0.56,1.25-1.25s-0.56-1.25-1.25-1.25H121c-0.69,0-1.25,0.56-1.25,1.25
						S120.31,395.75,121,395.75z M109.75,404.5c0,0.69,0.56,1.25,1.25,1.25h18c0.69,0,1.25-0.56,1.25-1.25s-0.56-1.25-1.25-1.25h-18
						C110.31,403.25,109.75,403.81,109.75,404.5z M121,400.75h3.5c0.69,0,1.25-0.56,1.25-1.25s-0.56-1.25-1.25-1.25H121
						c-0.69,0-1.25,0.56-1.25,1.25S120.31,400.75,121,400.75z M135.5,401.93V407c0,0.55-0.45,1-1,1h-26c-0.55,0-1-0.45-1-1v-17
						c0-0.55,0.45-1,1-1H133v-1.76c-1.81-1.27-3-3.36-3-5.74c0-0.88,0.17-1.72,0.47-2.5H107.5c-2.21,0-4,1.79-4,4v25
						c0,2.21,1.79,4,4,4h28c2.21,0,4-1.79,4-4v-8.81C138.52,400.5,137.12,401.48,135.5,401.93z M115.5,382.5h4
						c0.83,0,1.5,0.67,1.5,1.5s-0.67,1.5-1.5,1.5h-4c-0.83,0-1.5-0.67-1.5-1.5S114.67,382.5,115.5,382.5z M109.5,382
						c1.1,0,2,0.9,2,2c0,1.1-0.9,2-2,2s-2-0.9-2-2C107.5,382.9,108.4,382,109.5,382z"/>
					<path class="st2" d="M115.5,393h-4c-0.55,0-1,0.45-1,1v5c0,0.55,0.45,1,1,1h4c0.55,0,1-0.45,1-1v-5
						C116.5,393.45,116.05,393,115.5,393z M137,377c-2.48,0-4.5,2.02-4.5,4.5c0,1.95,1.26,3.6,3,4.22v8.98c0,1.1-0.9,2-2,2
						s-2-0.9-2-2v-1.21c0-0.83-0.67-1.5-1.5-1.5s-1.5,0.67-1.5,1.5v1.21c0,2.76,2.24,5,5,5s5-2.24,5-5v-8.98
						c1.74-0.62,3-2.27,3-4.22C141.5,379.02,139.48,377,137,377z M137,383c-0.83,0-1.5-0.67-1.5-1.5s0.67-1.5,1.5-1.5
						s1.5,0.67,1.5,1.5S137.83,383,137,383z"/>
				</g>
			</g>
		</g>
	</g>
	<g>
		<g>
			<path class="st2" d="M45.76,398.26c-0.69-0.11-1.32,0.37-1.42,1.05c-0.41,2.73-1,5.33-1.73,7.74c-0.2,0.66,0.17,1.36,0.83,1.56
				c0.12,0.04,0.25,0.06,0.37,0.06c0.54,0,1.03-0.35,1.2-0.88c0.77-2.52,1.38-5.25,1.82-8.1C46.91,399,46.44,398.36,45.76,398.26z
				 M56.43,385.44c-1.67-0.33-3.18-0.01-4.38,0.92c-1.46,1.14-2.38,3.14-2.51,5.5c-0.24,4.39-0.62,7.74-1.23,10.87
				c-0.13,0.68,0.31,1.33,0.99,1.47c0.68,0.14,1.33-0.31,1.47-0.99c0.63-3.24,1.03-6.7,1.28-11.21c0.09-1.61,0.67-2.98,1.55-3.67
				c0.63-0.49,1.4-0.63,2.36-0.44c2.04,0.41,2.73,1.91,2.54,5.57c-0.18,3.53-0.6,7.09-1.28,10.6c-0.13,0.68,0.31,1.33,0.99,1.46
				c0.08,0.02,0.16,0.02,0.24,0.02c0.59,0,1.11-0.42,1.23-1.02c0.69-3.62,1.14-7.3,1.32-10.94
				C61.08,391.62,61.34,386.41,56.43,385.44z M57.77,407.45c-0.66-0.17-1.35,0.23-1.52,0.9c-0.24,0.91-0.5,1.81-0.77,2.71
				c-0.2,0.66,0.17,1.36,0.83,1.56c0.12,0.04,0.25,0.06,0.37,0.06c0.54,0,1.03-0.35,1.2-0.88c0.29-0.93,0.56-1.87,0.8-2.82
				C58.84,408.31,58.44,407.62,57.77,407.45z"/>
			<path class="st2" d="M48.95,405.69c-0.66-0.18-1.35,0.22-1.53,0.88c-0.24,0.9-0.53,1.84-0.87,2.88
				c-0.22,0.65,0.14,1.36,0.79,1.58c0.13,0.04,0.26,0.06,0.39,0.06c0.52,0,1.01-0.33,1.19-0.86c0.36-1.09,0.66-2.08,0.92-3.03
				C50.02,406.55,49.62,405.87,48.95,405.69z M55.31,389.83L55.31,389.83c-0.69,0-1.25,0.56-1.26,1.24
				c-0.03,6.88-1.13,13.7-3.19,19.73c-0.22,0.65,0.13,1.36,0.78,1.59c0.13,0.05,0.27,0.07,0.4,0.07c0.52,0,1.01-0.33,1.18-0.85
				c2.14-6.28,3.29-13.38,3.32-20.52C56.56,390.39,56,389.83,55.31,389.83z M55.21,378.83c0.69-0.01,1.25-0.57,1.24-1.26
				c-0.01-0.69-0.54-1.21-1.26-1.24c-6.7,0.06-12.68,4.81-14.23,11.29c-0.39,1.64-0.45,3.3-0.5,4.92c-0.03,0.85-0.06,1.65-0.13,2.45
				c-0.26,2.87-0.71,5.63-1.32,8.19c-0.16,0.67,0.25,1.35,0.92,1.51c0.1,0.02,0.2,0.03,0.29,0.03c0.56,0,1.08-0.39,1.21-0.96
				c0.64-2.68,1.11-5.56,1.38-8.55c0.08-0.87,0.11-1.74,0.14-2.59c0.05-1.56,0.11-3.03,0.44-4.43
				C44.67,382.82,49.64,378.87,55.21,378.83z M60.87,377.41c-0.64-0.26-1.37,0.05-1.63,0.69c-0.26,0.64,0.05,1.37,0.69,1.63
				c4.96,2.01,7.8,6.84,7.6,12.9c-0.16,4.73-0.73,9.51-1.71,14.2c-0.14,0.68,0.29,1.34,0.97,1.48c0.09,0.02,0.17,0.03,0.26,0.03
				c0.58,0,1.1-0.41,1.22-0.99c1.01-4.83,1.6-9.75,1.77-14.63C70.25,385.66,66.75,379.8,60.87,377.41z M54.97,380.83
				c-3.41,0.11-6.64,1.98-8.41,4.88c-1.38,2.24-1.47,4.63-1.57,6.94c-0.02,0.56-0.05,1.12-0.09,1.68c-0.05,0.69,0.46,1.29,1.15,1.34
				c0.7,0.05,1.29-0.46,1.34-1.15c0.05-0.59,0.07-1.18,0.09-1.77c0.09-2.08,0.17-4.05,1.2-5.74c1.34-2.19,3.78-3.61,6.36-3.69
				c2.95-0.09,5.69,1.5,7.07,4.06c1.16,2.15,0.98,4.65,0.79,7.3l-0.03,0.43c-0.05,0.69,0.47,1.29,1.16,1.33c0.03,0,0.06,0,0.09,0
				c0.65,0,1.2-0.5,1.25-1.16l0.03-0.43c0.2-2.75,0.42-5.88-1.09-8.67C62.49,382.81,58.79,380.71,54.97,380.83z M63.88,398.13
				c-0.67-0.08-1.31,0.41-1.39,1.09c-0.46,3.77-1.14,7.39-2.04,10.75c-0.18,0.67,0.22,1.35,0.89,1.53c0.11,0.03,0.22,0.04,0.32,0.04
				c0.55,0,1.06-0.37,1.21-0.93c0.92-3.47,1.63-7.2,2.1-11.09C65.06,398.84,64.57,398.21,63.88,398.13z"/>
		</g>
	</g>
	<g>
		<g>
			<path class="st2" d="M393.77,336.16c-1.3,0.17-2.66,0.27-4.07,0.27c-4.31,0-8.3-0.86-11.24-2.33c-0.34-0.17-0.73,0.06-0.73,0.44
				v2.54c0,0.02,0.01,0.04,0.01,0.07c0,0.03-0.01,0.06-0.01,0.09c0,3.18,5.39,5.76,12.03,5.76c1.41,0,2.76-0.12,4.02-0.34
				c0-0.06-0.02-0.11-0.02-0.16V336.16z M389.76,310c-6.65,0-12.03,2.58-12.03,5.76v5.84c0,0.16,0.07,0.31,0.2,0.4
				c2.46,1.86,6.92,3.05,11.78,3.05c4.92,0,9.48-1.25,11.91-3.15c0.12-0.1,0.19-0.24,0.19-0.4v-5.74
				C401.8,312.58,396.41,310,389.76,310z M389.76,318.24c-3.64,0-6.59-1.11-6.59-2.47c0-1.36,2.95-2.47,6.59-2.47
				c3.64,0,6.59,1.11,6.59,2.47C396.35,317.13,393.4,318.24,389.76,318.24z M378.46,325.23c-0.34-0.17-0.73,0.06-0.73,0.44v4.8
				c0,0.16,0.07,0.31,0.2,0.4c2.46,1.86,6.92,3.05,11.78,3.05c1.4,0,2.77-0.11,4.07-0.3v-0.12c0-1.48,1.08-2.72,2.5-2.96v-0.79
				c0-1.09,0.24-2.12,0.66-3.06c-2.18,0.55-4.63,0.87-7.22,0.87C385.39,327.56,381.4,326.7,378.46,325.23z"/>
			<path class="st2" d="M410.77,333h-2v-3.25c0-2.76-2.24-5-5-5s-5,2.24-5,5V333h-2c-0.28,0-0.5,0.22-0.5,0.5v9
				c0,0.28,0.22,0.5,0.5,0.5h14c0.28,0,0.5-0.22,0.5-0.5v-9C411.27,333.22,411.05,333,410.77,333z M406.27,333h-5v-3.25
				c0-1.38,1.12-2.5,2.5-2.5c1.38,0,2.5,1.12,2.5,2.5V333z"/>
		</g>
	</g>
	<g>
		<g>
			<path class="st2" d="M329.27,317.62h-3c-0.55,0-1,0.45-1,1v3c0,0.55,0.45,1,1,1h3c0.55,0,1-0.45,1-1v-3
				C330.27,318.07,329.82,317.62,329.27,317.62z M322.27,324.62h-3c-0.55,0-1,0.45-1,1v3c0,0.55,0.45,1,1,1h3c0.55,0,1-0.45,1-1v-3
				C323.27,325.07,322.82,324.62,322.27,324.62z M323.27,318.62c0-0.55-0.45-1-1-1h-3c-0.55,0-1,0.45-1,1v3c0,0.55,0.45,1,1,1h3
				c0.55,0,1-0.45,1-1V318.62z M340.8,311.37h-30c-2.21,0-4,1.79-4,4v16c0,2.21,1.79,4,4,4h18.45v-3.25c0-0.26,0.04-0.51,0.11-0.75
				H316.8c-0.55,0-1-0.45-1-1v-14c0-0.55,0.45-1,1-1h21c0.55,0,1,0.45,1,1v4.52c0.15-0.01,0.3-0.02,0.45-0.02
				c2.2,0,4.18,0.96,5.55,2.48v-7.98C344.8,313.16,343.01,311.37,340.8,311.37z M313.3,324.37c0,1.1-0.9,2-2,2c-1.1,0-2-0.9-2-2v-2
				c0-1.1,0.9-2,2-2c1.1,0,2,0.9,2,2V324.37z"/>
			<path class="st2" d="M334.24,331.62h-2c-0.28,0-0.5,0.22-0.5,0.5v9c0,0.28,0.22,0.5,0.5,0.5h14c0.28,0,0.5-0.22,0.5-0.5v-9
				c0-0.28-0.22-0.5-0.5-0.5h-2v-3.25c0-2.76-2.24-5-5-5c-2.76,0-5,2.24-5,5V331.62z M336.74,328.37c0-1.38,1.12-2.5,2.5-2.5
				s2.5,1.12,2.5,2.5v3.25h-5V328.37z"/>
		</g>
	</g>
	<g>
		<g>
			<g>
				<path class="st2" d="M278.91,331.88h-2v-3.25c0-2.76-2.24-5-5-5s-5,2.24-5,5v3.25h-2c-0.28,0-0.5,0.22-0.5,0.5v9
					c0,0.28,0.22,0.5,0.5,0.5h14c0.28,0,0.5-0.22,0.5-0.5v-9C279.41,332.1,279.18,331.88,278.91,331.88z M274.41,331.88h-5v-3.25
					c0-1.38,1.12-2.5,2.5-2.5c1.38,0,2.5,1.12,2.5,2.5V331.88z"/>
				<path class="st2" d="M255.26,324.47c0.37,0.32,0.93,0.32,1.3,0L271.07,312c0.35-0.3,0.14-0.88-0.33-0.88h-29.68
					c-0.46,0-0.68,0.58-0.33,0.88L255.26,324.47z M250.29,323.5l-11.87-10.19c-0.32-0.28-0.83-0.05-0.83,0.38v20.38
					c0,0.43,0.5,0.66,0.83,0.38l11.87-10.19C250.52,324.05,250.52,323.7,250.29,323.5z M273.39,313.31l-11.87,10.19
					c-0.23,0.2-0.23,0.56,0,0.76l3.09,2.65c0.78-3.31,3.75-5.78,7.29-5.78c0.81,0,1.58,0.13,2.31,0.37v-7.81
					C274.22,313.26,273.72,313.03,273.39,313.31z M258.84,325.8l-1.63,1.4c-0.75,0.64-1.86,0.64-2.61,0l-1.63-1.4
					c-0.19-0.16-0.46-0.16-0.65,0l-11.58,9.94c-0.35,0.3-0.14,0.88,0.33,0.88h20.84v-4.25c0-1.29,0.82-2.39,1.96-2.81l-4.38-3.76
					C259.31,325.64,259.03,325.64,258.84,325.8z"/>
			</g>
		</g>
	</g>
	<g>
		<g>
			<path class="st2" d="M202.75,311.5h-31c-1.1,0-2,0.9-2,2v21c0,1.1,0.9,2,2,2h22V332c0-1.48,1.08-2.72,2.5-2.96v-0.79
				c0-4.14,3.36-7.5,7.5-7.5c0.34,0,0.67,0.03,1,0.07v-7.32C204.75,312.4,203.85,311.5,202.75,311.5z M177.75,315.5
				c1.66,0,3,1.34,3,3s-1.34,3-3,3s-3-1.34-3-3S176.09,315.5,177.75,315.5z M180.25,332.25h-4c-0.69,0-1.25-0.56-1.25-1.25
				s0.56-1.25,1.25-1.25h4c0.69,0,1.25,0.56,1.25,1.25S180.94,332.25,180.25,332.25z M189.25,332.25h-4c-0.69,0-1.25-0.56-1.25-1.25
				s0.56-1.25,1.25-1.25h4c0.69,0,1.25,0.56,1.25,1.25S189.94,332.25,189.25,332.25z M195.25,319.75h-10
				c-0.69,0-1.25-0.56-1.25-1.25s0.56-1.25,1.25-1.25h10c0.69,0,1.25,0.56,1.25,1.25S195.94,319.75,195.25,319.75z"/>
			<path class="st2" d="M210.75,331.5h-2v-3.25c0-2.76-2.24-5-5-5s-5,2.24-5,5v3.25h-2c-0.28,0-0.5,0.22-0.5,0.5v9
				c0,0.28,0.22,0.5,0.5,0.5h14c0.28,0,0.5-0.22,0.5-0.5v-9C211.25,331.72,211.03,331.5,210.75,331.5z M206.25,331.5h-5v-3.25
				c0-1.38,1.12-2.5,2.5-2.5s2.5,1.12,2.5,2.5V331.5z"/>
		</g>
	</g>
	<g>
		<g>
			<path class="st2" d="M140,333.54h-2v-3.25c0-2.76-2.24-5-5-5c-2.76,0-5,2.24-5,5v3.25h-2c-0.28,0-0.5,0.22-0.5,0.5v9
				c0,0.28,0.22,0.5,0.5,0.5h14c0.28,0,0.5-0.22,0.5-0.5v-9C140.5,333.77,140.27,333.54,140,333.54z M135.5,333.54h-5v-3.25
				c0-1.38,1.12-2.5,2.5-2.5c1.38,0,2.5,1.12,2.5,2.5V333.54z"/>
			<path class="st2" d="M128.69,309.46c-6.19,0-11.36,4.35-12.64,10.16c-1.25-0.73-2.7-1.16-4.25-1.16c-4.66,0-8.44,3.78-8.44,8.44
				c0,4.47,3.48,8.12,7.88,8.41H123v-1.27c0-1.48,1.08-2.72,2.5-2.96v-0.79c0-4.14,3.36-7.5,7.5-7.5c3.44,0,6.33,2.33,7.22,5.49
				c0.9-1.76,1.42-3.76,1.42-5.88C141.63,315.25,135.84,309.46,128.69,309.46z"/>
		</g>
	</g>
	<g>
		<g>
			<g>
				<path class="st2" d="M70.67,314.67c-6.31-0.78-12.39-5.51-14.93-7.71c-0.71-0.62-1.77-0.62-2.48,0
					c-2.54,2.21-8.61,6.93-14.93,7.71c-1,0.12-1.75,0.97-1.71,1.98c0.78,19.19,13.4,27.61,16.95,29.61c0.58,0.33,1.27,0.33,1.85,0
					c3.56-2,16.17-10.42,16.95-29.61C72.42,315.64,71.67,314.79,70.67,314.67z M54.5,336.77c-5.52,0-10-4.48-10-10
					c0-5.52,4.48-10,10-10c5.52,0,10,4.48,10,10C64.5,332.3,60.02,336.77,54.5,336.77z"/>
				<path class="st2" d="M60,324.77h-1.25v-1c0-2.34-1.91-4.25-4.25-4.25s-4.25,1.91-4.25,4.25v1H49c-0.28,0-0.5,0.22-0.5,0.5v7
					c0,0.28,0.22,0.5,0.5,0.5h11c0.28,0,0.5-0.22,0.5-0.5v-7C60.5,325,60.28,324.77,60,324.77z M56.25,324.77h-3.5v-1
					c0-0.96,0.79-1.75,1.75-1.75s1.75,0.79,1.75,1.75V324.77z"/>
			</g>
		</g>
	</g>
	<g>
		<g>
			<g>
				<path class="st2" d="M410,274.34h-28.5c-0.83,0-1.5,0.67-1.5,1.5c0,0.83,0.67,1.5,1.5,1.5H410c0.83,0,1.5-0.67,1.5-1.5
					C411.5,275.01,410.83,274.34,410,274.34z"/>
				<path class="st2" d="M410,239.66h-29c-1.1,0-2,0.9-2,2v2.05c-1.14,0.23-2,1.24-2,2.45v5c0,1.21,0.86,2.22,2,2.45v5.1
					c-1.14,0.23-2,1.24-2,2.45v4c0,1.21,0.86,2.22,2,2.45v2.05c0,1.1,0.9,2,2,2h29c1.1,0,2-0.9,2-2v-28
					C412,240.56,411.1,239.66,410,239.66z M387.25,255.88v5.28c0,0.69-0.56,1.25-1.25,1.25s-1.25-0.56-1.25-1.25v-5.28
					c-1.03-0.47-1.75-1.51-1.75-2.72c0-1.66,1.34-3,3-3s3,1.34,3,3C389,254.37,388.28,255.41,387.25,255.88z M407.5,256.91h-1.65
					c-0.14,0.59-0.37,1.15-0.68,1.65l1.17,1.17c0.49,0.49,0.49,1.28,0,1.77c-0.24,0.24-0.56,0.37-0.88,0.37
					c-0.32,0-0.64-0.12-0.88-0.37l-1.17-1.17c-0.5,0.31-1.06,0.55-1.65,0.68v1.65c0,0.69-0.56,1.25-1.25,1.25
					c-0.69,0-1.25-0.56-1.25-1.25v-1.65c-0.59-0.14-1.15-0.37-1.65-0.68l-1.17,1.17c-0.24,0.24-0.56,0.37-0.88,0.37
					c-0.32,0-0.64-0.12-0.88-0.37c-0.49-0.49-0.49-1.28,0-1.77l1.17-1.17c-0.31-0.5-0.55-1.06-0.68-1.65h-1.65
					c-0.69,0-1.25-0.56-1.25-1.25c0-0.69,0.56-1.25,1.25-1.25h1.65c0.14-0.59,0.37-1.15,0.68-1.65l-1.17-1.17
					c-0.49-0.49-0.49-1.28,0-1.77c0.49-0.49,1.28-0.49,1.77,0l1.17,1.17c0.5-0.31,1.06-0.55,1.65-0.68v-1.65
					c0-0.69,0.56-1.25,1.25-1.25c0.69,0,1.25,0.56,1.25,1.25v1.65c0.59,0.14,1.15,0.37,1.65,0.68l1.17-1.17
					c0.49-0.49,1.28-0.49,1.77,0c0.49,0.49,0.49,1.28,0,1.77l-1.17,1.17c0.31,0.5,0.55,1.06,0.68,1.65h1.65
					c0.69,0,1.25,0.56,1.25,1.25C408.75,256.35,408.19,256.91,407.5,256.91z M400.5,253.16c-1.38,0-2.5,1.12-2.5,2.5
					c0,1.38,1.12,2.5,2.5,2.5c1.38,0,2.5-1.12,2.5-2.5C403,254.28,401.88,253.16,400.5,253.16z"/>
			</g>
		</g>
	</g>
	<g>
		<g>
			<path class="st2" d="M323.66,241.13h5.68c0.17,0,0.3-0.13,0.3-0.3v-1.37c0-0.43-0.23-0.82-0.59-1.03l-1.94-1.14
				c-0.37-0.22-0.84-0.22-1.21,0l-1.94,1.14c-0.37,0.21-0.59,0.61-0.59,1.03v1.37C323.36,240.99,323.5,241.13,323.66,241.13z
				 M332,246.88h2.33c1.06,0,1.92-0.86,1.92-1.92v-4.32c0-0.64-0.32-1.24-0.85-1.6l-1.71-1.14c-0.57-0.38-1.35-0.23-1.73,0.35
				c-0.38,0.58-0.23,1.35,0.35,1.73l1.45,0.96v3.42H332c-0.1,0-0.18,0.03-0.27,0.06c-0.2-0.75-0.88-1.31-1.7-1.31h-7.06
				c-0.81,0-1.49,0.56-1.7,1.31c-0.09-0.02-0.18-0.06-0.27-0.06h-1.75v-3.42l1.45-0.96c0.57-0.38,0.73-1.16,0.35-1.73
				c-0.38-0.57-1.16-0.73-1.73-0.35l-1.71,1.14c-0.53,0.36-0.85,0.95-0.85,1.59v4.32c0,1.06,0.86,1.92,1.92,1.92H321
				c0.07,0,0.14-0.03,0.21-0.04v3.58c-0.07-0.01-0.13-0.04-0.21-0.04h-2.33c-1.06,0-1.92,0.86-1.92,1.92v6.3
				c0,0.67,0.36,1.3,0.93,1.64l3.01,1.81c0.2,0.12,0.42,0.18,0.64,0.18c0.42,0,0.84-0.22,1.07-0.61c0.36-0.59,0.16-1.36-0.43-1.71
				l-2.73-1.64v-5.39H321c0.07,0,0.14-0.03,0.21-0.04v2.31c0,0.62,0.32,1.19,0.85,1.51l3.64,2.2c0.57,0.35,1.29,0.34,1.86-0.02
				l3.42-2.17c0.51-0.32,0.82-0.89,0.82-1.49v-2.34c0.07,0.01,0.13,0.04,0.21,0.04h1.75v5.39l-2.73,1.64
				c-0.59,0.36-0.78,1.12-0.43,1.71c0.23,0.39,0.65,0.61,1.07,0.61c0.22,0,0.44-0.06,0.64-0.18l3.01-1.81
				c0.58-0.34,0.93-0.97,0.93-1.65v-6.3c0-1.06-0.86-1.92-1.92-1.92H332c-0.07,0-0.14,0.03-0.21,0.04v-3.58
				C331.86,246.85,331.93,246.88,332,246.88z"/>
			<path class="st2" d="M345.5,243.37h-6.75v1.59c0,0.89-0.27,1.72-0.73,2.41h5.48v18h-34v-18h5.48c-0.46-0.69-0.73-1.52-0.73-2.41
				v-1.59h-6.75c-1.1,0-2,0.9-2,2v25c0,1.1,0.9,2,2,2h14.92l-0.75,4.5H318c-0.83,0-1.5,0.67-1.5,1.5c0,0.83,0.67,1.5,1.5,1.5h17
				c0.83,0,1.5-0.67,1.5-1.5c0-0.83-0.67-1.5-1.5-1.5h-3.67l-0.75-4.5h14.92c1.1,0,2-0.9,2-2v-25
				C347.5,244.27,346.6,243.37,345.5,243.37z M326.5,270.87c-0.83,0-1.5-0.67-1.5-1.5s0.67-1.5,1.5-1.5s1.5,0.67,1.5,1.5
				S327.33,270.87,326.5,270.87z"/>
		</g>
	</g>
	<g>
		<g>
			<g>
				<path class="st2" d="M276,254.21h-35c-0.28,0-0.5,0.22-0.5,0.5v16.54c0,2.21,1.79,4,4,4h28c2.21,0,4-1.79,4-4v-16.54
					C276.5,254.44,276.28,254.21,276,254.21z M254.32,268.17c-0.24,0.21-0.53,0.31-0.82,0.31c-0.35,0-0.7-0.15-0.94-0.43l-2-2.3
					c-0.39-0.44-0.41-1.09-0.06-1.56l2-2.7c0.41-0.56,1.19-0.67,1.75-0.26c0.56,0.41,0.67,1.19,0.26,1.75l-1.4,1.9l1.34,1.54
					C254.9,266.93,254.84,267.72,254.32,268.17z M260.71,261.57l-1.93,7c-0.15,0.55-0.66,0.92-1.2,0.92c-0.11,0-0.22-0.01-0.33-0.04
					c-0.67-0.18-1.06-0.87-0.87-1.54l1.93-7c0.18-0.67,0.87-1.05,1.54-0.87C260.5,260.21,260.89,260.9,260.71,261.57z M266.5,265.27
					l-2,2.7c-0.25,0.33-0.62,0.51-1.01,0.51c-0.26,0-0.52-0.08-0.74-0.25c-0.56-0.41-0.67-1.19-0.26-1.75l1.4-1.9l-1.34-1.54
					c-0.45-0.52-0.4-1.31,0.12-1.76c0.52-0.45,1.31-0.4,1.76,0.12l2,2.3C266.83,264.15,266.85,264.8,266.5,265.27z"/>
				<path class="st2" d="M272.5,241.75h-28c-2.21,0-4,1.79-4,4v5.46c0,0.28,0.22,0.5,0.5,0.5h35c0.28,0,0.5-0.22,0.5-0.5v-5.46
					C276.5,243.54,274.71,241.75,272.5,241.75z M246.5,248.75c-1.1,0-2-0.9-2-2c0-1.1,0.9-2,2-2s2,0.9,2,2
					C248.5,247.85,247.6,248.75,246.5,248.75z M253,248.75c-1.1,0-2-0.9-2-2c0-1.1,0.9-2,2-2s2,0.9,2,2
					C255,247.85,254.1,248.75,253,248.75z"/>
			</g>
		</g>
	</g>
	<g>
		<g>
			<path class="st2" d="M190.5,254.9c-1.99,0-3.6,1.61-3.6,3.6c0,0.44,0.09,0.86,0.23,1.24l-6.52,6.52c0.87,0.52,1.6,1.25,2.12,2.12
				l6.52-6.52c0.39,0.14,0.81,0.23,1.24,0.23c1.99,0,3.6-1.61,3.6-3.6S192.49,254.9,190.5,254.9z"/>
			<path class="st2" d="M190.5,249.1c1.45,0,2.69-0.86,3.26-2.1h3.83c-0.12-0.48-0.19-0.98-0.19-1.5s0.07-1.02,0.19-1.5h-3.83
				c-0.57-1.24-1.81-2.1-3.26-2.1c-1.99,0-3.6,1.61-3.6,3.6S188.51,249.1,190.5,249.1z M180.76,270c-0.57-1.24-1.81-2.1-3.26-2.1
				c-1.99,0-3.6,1.61-3.6,3.6s1.61,3.6,3.6,3.6c1.45,0,2.69-0.86,3.26-2.1h3.83c-0.12-0.48-0.19-0.98-0.19-1.5s0.07-1.02,0.19-1.5
				H180.76z M177.5,262.1c1.99,0,3.6-1.61,3.6-3.6s-1.61-3.6-3.6-3.6s-3.6,1.61-3.6,3.6S175.51,262.1,177.5,262.1z M193.61,253.26
				c0.87,0.52,1.6,1.25,2.12,2.12l6.52-6.52c0.39,0.14,0.81,0.23,1.24,0.23c1.99,0,3.6-1.61,3.6-3.6s-1.61-3.6-3.6-3.6
				s-3.6,1.61-3.6,3.6c0,0.44,0.09,0.86,0.23,1.24L193.61,253.26z M203.5,267.9c-1.99,0-3.6,1.61-3.6,3.6s1.61,3.6,3.6,3.6
				s3.6-1.61,3.6-3.6S205.49,267.9,203.5,267.9z M180.76,244c-0.57-1.24-1.81-2.1-3.26-2.1c-1.99,0-3.6,1.61-3.6,3.6
				s1.61,3.6,3.6,3.6c1.45,0,2.69-0.86,3.26-2.1h3.83c-0.12-0.48-0.19-0.98-0.19-1.5s0.07-1.02,0.19-1.5H180.76z M203.5,254.9
				c-1.99,0-3.6,1.61-3.6,3.6s1.61,3.6,3.6,3.6s3.6-1.61,3.6-3.6S205.49,254.9,203.5,254.9z M193.76,270
				c-0.57-1.24-1.81-2.1-3.26-2.1c-1.99,0-3.6,1.61-3.6,3.6s1.61,3.6,3.6,3.6c1.45,0,2.69-0.86,3.26-2.1h3.83
				c-0.12-0.48-0.19-0.98-0.19-1.5s0.07-1.02,0.19-1.5H193.76z"/>
		</g>
	</g>
	<g>
		<g>
			<g>
				<path class="st2" d="M139.25,251.25h-15c-0.28,0-0.5,0.22-0.5,0.5v5c0,0.28,0.22,0.5,0.5,0.5h15c0.28,0,0.5-0.22,0.5-0.5v-5
					C139.75,251.47,139.53,251.25,139.25,251.25z"/>
				<path class="st2" d="M129.75,259.75h-15c-0.28,0-0.5,0.22-0.5,0.5v5c0,0.28,0.22,0.5,0.5,0.5h15c0.28,0,0.5-0.22,0.5-0.5v-5
					C130.25,259.97,130.03,259.75,129.75,259.75z M105.75,257.25h15c0.28,0,0.5-0.22,0.5-0.5v-5c0-0.28-0.22-0.5-0.5-0.5h-15
					c-0.28,0-0.5,0.22-0.5,0.5v5C105.25,257.03,105.47,257.25,105.75,257.25z M105.75,248.75h5.5c0.28,0,0.5-0.22,0.5-0.5v-5
					c0-0.28-0.22-0.5-0.5-0.5h-5.5c-0.28,0-0.5,0.22-0.5,0.5v5C105.25,248.53,105.47,248.75,105.75,248.75z M114.75,248.75h15
					c0.28,0,0.5-0.22,0.5-0.5v-5c0-0.28-0.22-0.5-0.5-0.5h-15c-0.28,0-0.5,0.22-0.5,0.5v5
					C114.25,248.53,114.47,248.75,114.75,248.75z M139.25,259.75h-6c-0.28,0-0.5,0.22-0.5,0.5v5c0,0.28,0.22,0.5,0.5,0.5h6
					c0.28,0,0.5-0.22,0.5-0.5v-5C139.75,259.97,139.53,259.75,139.25,259.75z M139.25,242.75h-6c-0.28,0-0.5,0.22-0.5,0.5v5
					c0,0.28,0.22,0.5,0.5,0.5h6c0.28,0,0.5-0.22,0.5-0.5v-5C139.75,242.97,139.53,242.75,139.25,242.75z M139.25,268.25h-15
					c-0.28,0-0.5,0.22-0.5,0.5v5c0,0.28,0.22,0.5,0.5,0.5h15c0.28,0,0.5-0.22,0.5-0.5v-5C139.75,268.47,139.53,268.25,139.25,268.25
					z M105.75,265.75h5.5c0.28,0,0.5-0.22,0.5-0.5v-5c0-0.28-0.22-0.5-0.5-0.5h-5.5c-0.28,0-0.5,0.22-0.5,0.5v5
					C105.25,265.53,105.47,265.75,105.75,265.75z M120.75,268.25h-15c-0.28,0-0.5,0.22-0.5,0.5v5c0,0.28,0.22,0.5,0.5,0.5h15
					c0.28,0,0.5-0.22,0.5-0.5v-5C121.25,268.47,121.03,268.25,120.75,268.25z"/>
			</g>
		</g>
	</g>
	<g>
		<g>
			<path class="st2" d="M46.25,261.25v5c0,0.28,0.22,0.5,0.5,0.5h15c0.28,0,0.5-0.22,0.5-0.5v-5c0-0.28-0.22-0.5-0.5-0.5h-15
				C46.47,260.75,46.25,260.97,46.25,261.25z M37.75,249.75h5.5c0.28,0,0.5-0.22,0.5-0.5v-5c0-0.28-0.22-0.5-0.5-0.5h-5.5
				c-0.28,0-0.5,0.22-0.5,0.5v5C37.25,249.53,37.47,249.75,37.75,249.75z M46.75,249.75h10.42c0.46-1.84,1.49-3.55,2.89-4.71v-0.79
				c0-0.28-0.22-0.5-0.5-0.5H46.75c-0.28,0-0.5,0.22-0.5,0.5v5C46.25,249.53,46.47,249.75,46.75,249.75z M59.87,258.25
				c-1.72-1.46-2.82-3.6-2.94-6h-4.68c-0.28,0-0.5,0.22-0.5,0.5v5c0,0.28,0.22,0.5,0.5,0.5H59.87z M52.75,269.25h-15
				c-0.28,0-0.5,0.22-0.5,0.5v5c0,0.28,0.22,0.5,0.5,0.5h15c0.28,0,0.5-0.22,0.5-0.5v-5C53.25,269.47,53.03,269.25,52.75,269.25z
				 M71.25,269.25h-15c-0.28,0-0.5,0.22-0.5,0.5v5c0,0.28,0.22,0.5,0.5,0.5h15c0.28,0,0.5-0.22,0.5-0.5v-5
				C71.75,269.47,71.53,269.25,71.25,269.25z M71.25,260.75h-6c-0.28,0-0.5,0.22-0.5,0.5v5c0,0.28,0.22,0.5,0.5,0.5h6
				c0.28,0,0.5-0.22,0.5-0.5v-5C71.75,260.97,71.53,260.75,71.25,260.75z M37.75,266.75h5.5c0.28,0,0.5-0.22,0.5-0.5v-5
				c0-0.28-0.22-0.5-0.5-0.5h-5.5c-0.28,0-0.5,0.22-0.5,0.5v5C37.25,266.53,37.47,266.75,37.75,266.75z M37.75,258.25h11
				c0.28,0,0.5-0.22,0.5-0.5v-5c0-0.28-0.22-0.5-0.5-0.5h-11c-0.28,0-0.5,0.22-0.5,0.5v5C37.25,258.03,37.47,258.25,37.75,258.25z"
				/>
			<path class="st2" d="M71.03,251.82c-0.13-1.66-0.84-3.02-1.66-4.32c-1.16-1.84-2.53-3.54-2.85-5.74
				c-1.81,0.73-2.47,2.69-2.46,4.35c0.02,1.63,2.2,3.76,0.9,5.18c-1.42,1.55-3.83,0.28-3.16-2.1c0.31-1.11,0.17-2.05,0.01-2.35
				c-1.43,1.08-2.4,3.08-2.4,5c0,3.2,2.54,5.8,5.71,5.92C68.21,257.61,71.3,255.13,71.03,251.82z"/>
		</g>
	</g>
	<g>
		<g>
			<path class="st2" d="M413,179.66h-37c-0.55,0-1,0.45-1,1v14c0,0.55,0.45,1,1,1h37c0.55,0,1-0.45,1-1v-14
				C414,180.11,413.55,179.66,413,179.66z M387.28,189.2l-1.08,1.88l-2.26-1.71l0.29,2.29h-2l0.29-2.29l-2.26,1.71l-1.08-1.88
				l2.59-1.09l-2.59-1.09l1.08-1.88l2.25,1.7l-0.27-2.18h2l-0.27,2.18l2.25-1.7l1.08,1.88l-2.59,1.09L387.28,189.2z M398.56,189.2
				l-1.08,1.88l-2.26-1.71l0.29,2.29h-2l0.29-2.29l-2.26,1.71l-1.08-1.88l2.59-1.09l-2.59-1.09l1.08-1.88l2.25,1.7l-0.27-2.18h2
				l-0.27,2.18l2.25-1.7l1.08,1.88l-2.59,1.09L398.56,189.2z M409.84,189.2l-1.08,1.88l-2.26-1.71l0.29,2.29h-2l0.29-2.29
				l-2.26,1.71l-1.08-1.88l2.59-1.09l-2.59-1.09l1.08-1.88l2.25,1.7l-0.27-2.18h2l-0.27,2.18l2.25-1.7l1.08,1.88l-2.59,1.09
				L409.84,189.2z"/>
			<path class="st2" d="M411.75,198.34h-34.5c-0.83,0-1.5,0.67-1.5,1.5s0.67,1.5,1.5,1.5h34.5c0.83,0,1.5-0.67,1.5-1.5
				S412.58,198.34,411.75,198.34z"/>
		</g>
	</g>
	<g>
		<g>
			<path class="st2" d="M342.8,176h-33c-2.21,0-4,1.79-4,4v13c0,2.21,1.79,4,4,4h16.93c-0.08-0.55-0.13-1.11-0.13-1.68
				c0-0.79,0.08-1.57,0.23-2.32h-8.54c-0.83,0-1.5-0.67-1.5-1.5c0-0.83,0.67-1.5,1.5-1.5h9.6c0.54-1.04,1.23-2,2.08-2.85
				c2.18-2.18,5.08-3.38,8.17-3.38s5.99,1.2,8.17,3.38c0.17,0.17,0.32,0.35,0.48,0.53V180C346.8,177.79,345.01,176,342.8,176z
				 M313.3,193h-2c-0.83,0-1.5-0.67-1.5-1.5c0-0.83,0.67-1.5,1.5-1.5h2c0.83,0,1.5,0.67,1.5,1.5C314.8,192.33,314.13,193,313.3,193z
				 M313.3,188h-2c-0.83,0-1.5-0.67-1.5-1.5c0-0.83,0.67-1.5,1.5-1.5h2c0.83,0,1.5,0.67,1.5,1.5C314.8,187.33,314.13,188,313.3,188z
				 M313.3,183h-2c-0.83,0-1.5-0.67-1.5-1.5c0-0.83,0.67-1.5,1.5-1.5h2c0.83,0,1.5,0.67,1.5,1.5C314.8,182.33,314.13,183,313.3,183z
				 M320.3,188h-2c-0.83,0-1.5-0.67-1.5-1.5c0-0.83,0.67-1.5,1.5-1.5h2c0.83,0,1.5,0.67,1.5,1.5C321.8,187.33,321.13,188,320.3,188z
				 M320.3,183h-2c-0.83,0-1.5-0.67-1.5-1.5c0-0.83,0.67-1.5,1.5-1.5h2c0.83,0,1.5,0.67,1.5,1.5C321.8,182.33,321.13,183,320.3,183z
				 M327.3,188h-2c-0.83,0-1.5-0.67-1.5-1.5c0-0.83,0.67-1.5,1.5-1.5h2c0.83,0,1.5,0.67,1.5,1.5C328.8,187.33,328.13,188,327.3,188z
				 M327.3,183h-2c-0.83,0-1.5-0.67-1.5-1.5c0-0.83,0.67-1.5,1.5-1.5h2c0.83,0,1.5,0.67,1.5,1.5C328.8,182.33,328.13,183,327.3,183z
				 M334.3,183h-2c-0.83,0-1.5-0.67-1.5-1.5c0-0.83,0.67-1.5,1.5-1.5h2c0.83,0,1.5,0.67,1.5,1.5C335.8,182.33,335.13,183,334.3,183z
				 M341.3,183h-2c-0.83,0-1.5-0.67-1.5-1.5c0-0.83,0.67-1.5,1.5-1.5h2c0.83,0,1.5,0.67,1.5,1.5C342.8,182.33,342.13,183,341.3,183z
				"/>
			<path class="st2" d="M341.8,172c0-0.83-0.67-1.5-1.5-1.5h-28c-0.83,0-1.5,0.67-1.5,1.5c0,0.83,0.67,1.5,1.5,1.5h28
				C341.13,173.5,341.8,172.83,341.8,172z M344.55,188.92c-1.77-1.77-4.08-2.65-6.4-2.65s-4.63,0.88-6.4,2.65
				c-3.08,3.08-3.47,7.81-1.2,11.32l-1.42,1.42l-0.22-0.22c-0.1-0.1-0.23-0.15-0.35-0.15c-0.13,0-0.26,0.05-0.35,0.15l-5.36,5.36
				c-0.39,0.39-0.39,1.02,0,1.41l1.99,1.99c0.2,0.2,0.45,0.29,0.71,0.29c0.26,0,0.51-0.1,0.71-0.29l5.36-5.36
				c0.2-0.2,0.2-0.51,0-0.71l-0.22-0.22l1.35-1.35c1.6,1.2,3.52,1.81,5.43,1.81c2.31,0,4.62-0.88,6.39-2.65
				C348.09,198.19,348.09,192.46,344.55,188.92z M341.72,198.89c-0.95,0.95-2.21,1.47-3.56,1.47c-1.1,0-2.15-0.35-3.03-1.01
				l-0.74-0.56l-0.48-0.74c-1.29-1.98-1.01-4.64,0.67-6.31c0.95-0.95,2.22-1.48,3.57-1.48c1.35,0,2.62,0.53,3.57,1.48
				C343.69,193.72,343.69,196.92,341.72,198.89z"/>
		</g>
	</g>
	<g>
		<g>
			<path class="st2" d="M258.5,171c-5.21,0-9.45,4.24-9.45,9.45v3.05h4v-3.05c0-3,2.44-5.45,5.45-5.45s5.45,2.44,5.45,5.45v3.05h4
				v-3.05C267.95,175.24,263.71,171,258.5,171z"/>
			<path class="st2" d="M269.5,186h-22c-1.1,0-2,0.9-2,2v20c0,1.1,0.9,2,2,2h22c1.1,0,2-0.9,2-2v-20
				C271.5,186.9,270.6,186,269.5,186z M261.1,204h-5.2c-0.73,0-1.21-0.76-0.91-1.42l1.63-3.52c0.2-0.43,0.06-0.91-0.3-1.22
				c-0.71-0.61-1.16-1.5-1.16-2.51c0-2.5,2.74-4.35,5.38-2.71c0.27,0.17,0.51,0.41,0.68,0.68c1.09,1.77,0.61,3.55-0.55,4.55
				c-0.36,0.3-0.49,0.79-0.3,1.21l1.63,3.52C262.31,203.24,261.83,204,261.1,204z"/>
		</g>
	</g>
	<g>
		<g>
			<g>
				<path class="st2" d="M209.5,175.3h-5.51c0.29,1.2,0.45,2.54,0.49,4h3.02v18h-34v-18h3.02c0.04-1.46,0.2-2.8,0.49-4h-5.51
					c-1.1,0-2,0.9-2,2v25c0,1.1,0.9,2,2,2h14.92l-0.75,4.5H182c-0.83,0-1.5,0.67-1.5,1.5s0.67,1.5,1.5,1.5h17
					c0.83,0,1.5-0.67,1.5-1.5s-0.67-1.5-1.5-1.5h-3.67l-0.75-4.5h14.92c1.1,0,2-0.9,2-2v-25C211.5,176.19,210.6,175.3,209.5,175.3z
					 M190.5,202.8c-0.83,0-1.5-0.67-1.5-1.5s0.67-1.5,1.5-1.5s1.5,0.67,1.5,1.5S191.33,202.8,190.5,202.8z"/>
				<path class="st2" d="M190.5,169.2c-7.82,0-11.5,2.77-11.5,10.85v1.48c0,1.95,1.47,3.52,3.29,3.52h3.56c0.47,0,0.85,0.45,0.85,1
					c0,0.55-0.38,1-0.85,1c-0.47,0-0.85,0.45-0.85,1v1c0,1.1,0.76,2,1.69,2h7.62c0.93,0,1.69-0.9,1.69-2v-1c0-0.55-0.38-1-0.85-1
					c-0.47,0-0.85-0.45-0.85-1c0-0.55,0.38-1,0.85-1h3.56c1.81,0,3.29-1.58,3.29-3.52v-1.48C202,171.97,198.32,169.2,190.5,169.2z
					 M185,182.05c-1.66,0-3-1.34-3-3c0-1.66,1.34-3,3-3s3,1.34,3,3C188,180.71,186.66,182.05,185,182.05z M190.5,185.06
					c-1.1,0-2,1.07-2-0.31c0-1.38,0.9-2.5,2-2.5s2,1.12,2,2.5C192.5,186.13,191.6,185.06,190.5,185.06z M196,182.05
					c-1.66,0-3-1.34-3-3c0-1.66,1.34-3,3-3s3,1.34,3,3C199,180.71,197.66,182.05,196,182.05z"/>
			</g>
		</g>
	</g>
	<g>
		<g>
			<g>
				<path class="st2" d="M135.31,199.43h-29.22c-0.55,0-1,0.45-1,1v3.92c0,0.55,0.45,1,1,1h1.15c-0.01,0.15-0.02,0.3-0.02,0.45
					c0,3.06,2.49,5.55,5.55,5.55c3.06,0,5.55-2.49,5.55-5.55c0-0.15-0.01-0.3-0.02-0.45h3.83c-0.01,0.15-0.02,0.3-0.02,0.45
					c0,3.06,2.49,5.55,5.55,5.55c3.06,0,5.55-2.49,5.55-5.55c0-0.15-0.01-0.3-0.02-0.45h2.15c0.55,0,1-0.45,1-1v-3.92
					C136.31,199.88,135.86,199.43,135.31,199.43z M112.76,208.34c-1.4,0-2.55-1.14-2.55-2.55c0-1.41,1.14-2.55,2.55-2.55
					c1.4,0,2.55,1.14,2.55,2.55C115.31,207.2,114.17,208.34,112.76,208.34z M127.64,208.34c-1.4,0-2.55-1.14-2.55-2.55
					c0-1.41,1.14-2.55,2.55-2.55s2.55,1.14,2.55,2.55C130.19,207.2,129.05,208.34,127.64,208.34z"/>
				<path class="st2" d="M139.37,176.2l1.42-1.3c-2.04-3.56-6.43-5.84-11.3-5.12c-5.55,0.82-9.49,5.4-9.49,10.51
					c0,1.13-0.91,2.04-2.04,2.04h-7.76v0.08c-3.39,0.49-6,3.39-6,6.92c0,1.1,0.9,2,2,2c1.1,0,2-0.9,2-2v-2c0-0.55,0.45-1,1-1
					c0.55,0,1,0.45,1,1v9.54h4.96l0.46-2.7c0.08-0.48,0.5-0.83,0.99-0.83h8.16c0.49,0,0.9,0.35,0.99,0.83l0.46,2.7h4.99v-15.04
					c0-0.83,0.67-1.5,1.5-1.5s1.5,0.67,1.5,1.5v1.43c0,1.69,1.37,3.07,3.07,3.07c0.56,0,1.05-0.36,1.23-0.88l0.87-2.6
					c0.55-1.65,0.66-3.41,0.32-5.11L139.37,176.2z"/>
			</g>
		</g>
	</g>
	<g>
		<g>
			<path class="st2" d="M66,188.85c1.38,0,2.5-1.12,2.5-2.5v-8.46c0-0.84-0.42-1.62-1.11-2.08l-2.55-1.7
				c-0.69-0.46-1.62-0.27-2.08,0.42c-0.46,0.69-0.27,1.62,0.42,2.08l2.33,1.55v7.7h-2v-0.7c0-2.21-1.79-4-4-4h-10
				c-2.21,0-4,1.79-4,4v0.7h-2v-7.7l2.33-1.55c0.69-0.46,0.88-1.39,0.42-2.08c-0.46-0.69-1.39-0.88-2.08-0.42l-2.55,1.7
				c-0.7,0.46-1.11,1.24-1.11,2.08v8.46c0,1.38,1.12,2.5,2.5,2.5h2.5v3H43c-1.38,0-2.5,1.12-2.5,2.5v9.43c0,0.87,0.47,1.7,1.21,2.14
				l4.51,2.71c0.24,0.15,0.51,0.21,0.77,0.21c0.51,0,1.01-0.26,1.29-0.73c0.43-0.71,0.2-1.63-0.51-2.06l-4.27-2.56v-8.65h2v4.39
				c0,1.43,0.76,2.75,2,3.46l4.25,2.45c0.67,0.38,1.5-0.1,1.5-0.87v-15.44c0-0.69,0.56-1.25,1.25-1.25s1.25,0.56,1.25,1.25v15.44
				c0,0.77,0.83,1.25,1.5,0.87l4.25-2.45c1.24-0.71,2-2.04,2-3.46v-4.39h2v8.65l-4.27,2.56c-0.71,0.43-0.94,1.35-0.51,2.06
				c0.28,0.47,0.78,0.73,1.29,0.73c0.26,0,0.53-0.07,0.77-0.21l4.51-2.71c0.75-0.45,1.21-1.27,1.21-2.14v-9.43
				c0-1.38-1.12-2.5-2.5-2.5h-2.5v-3H66z"/>
			<path class="st2" d="M58.82,174.34l-3.32-1.91c-0.62-0.36-1.38-0.36-2,0l-3.32,1.91c-0.62,0.36-1,1.02-1,1.73v2.28
				c0,0.28,0.22,0.5,0.5,0.5h9.63c0.28,0,0.5-0.22,0.5-0.5v-2.28C59.82,175.35,59.43,174.69,58.82,174.34z"/>
		</g>
	</g>
	<g>
		<g>
			<g>
				<g>
					<path class="st2" d="M411.21,116.34l-4.45-2.78v0.93c0,1.09-0.31,2.1-0.84,2.95h0.23c1.56,0,2.21,1.94,0.95,2.84l-11.4,8.07
						c-0.71,0.5-1.67,0.5-2.38,0l-11.4-8.07c-1.26-0.89-0.61-2.84,0.95-2.84h0.23c-0.53-0.85-0.84-1.86-0.84-2.95v-0.93l-4.45,2.78
						c-1.11,0.69-1.78,1.88-1.78,3.16v17.7c0,2.07,1.72,3.75,3.85,3.75h29.26c2.13,0,3.85-1.68,3.85-3.75v-17.7
						C412.98,118.22,412.31,117.03,411.21,116.34z M389.77,131.3l-9,7c-0.23,0.18-0.5,0.26-0.77,0.26c-0.37,0-0.74-0.17-0.99-0.48
						c-0.42-0.54-0.33-1.33,0.22-1.75l9-7c0.54-0.42,1.33-0.33,1.75,0.22C390.41,130.09,390.31,130.87,389.77,131.3z M409.99,138.08
						c-0.25,0.32-0.62,0.48-0.99,0.48c-0.27,0-0.54-0.09-0.77-0.26l-9-7c-0.54-0.42-0.64-1.21-0.22-1.75
						c0.42-0.54,1.21-0.64,1.75-0.22l9,7C410.31,136.75,410.41,137.53,409.99,138.08z"/>
					<path class="st2" d="M394.5,104.05c-6.63,0-9.75,2.34-9.75,9.2v1.25c0,1.65,1.25,2.99,2.79,2.99h3.02
						c0.4,0,0.72,0.38,0.72,0.85c0,0.47-0.32,0.85-0.72,0.85c-0.4,0-0.72,0.38-0.72,0.85v0.85c0,0.94,0.64,1.7,1.43,1.7h6.46
						c0.79,0,1.43-0.76,1.43-1.7v-0.85c0-0.47-0.32-0.85-0.72-0.85s-0.72-0.38-0.72-0.85c0-0.47,0.32-0.85,0.72-0.85h3.02
						c1.54,0,2.79-1.34,2.79-2.99v-1.25C404.25,106.39,401.13,104.05,394.5,104.05z M389.84,113.94c-1.4,0-2.54-1.14-2.54-2.54
						s1.14-2.54,2.54-2.54c1.4,0,2.54,1.14,2.54,2.54S391.24,113.94,389.84,113.94z M394.5,117.49c-0.94,0-1.7,0.9-1.7-0.27
						c0-1.17,0.76-2.12,1.7-2.12s1.7,0.95,1.7,2.12C396.2,118.4,395.44,117.49,394.5,117.49z M399.16,113.94
						c-1.4,0-2.54-1.14-2.54-2.54s1.14-2.54,2.54-2.54c1.4,0,2.54,1.14,2.54,2.54S400.57,113.94,399.16,113.94z"/>
				</g>
			</g>
		</g>
	</g>
	<g>
		<g>
			<g>
				<path class="st2" d="M320.74,115c-0.83,0-1.5,0.67-1.5,1.5s0.67,1.5,1.5,1.5s1.5-0.67,1.5-1.5S321.57,115,320.74,115z
					 M324.24,117.7c-0.83,0-1.5,0.67-1.5,1.5c0,0.83,0.67,0.85,1.5,0.85s1.5-0.02,1.5-0.85C325.74,118.37,325.07,117.7,324.24,117.7
					z M342.19,125.89c-0.28-0.56-0.28-1.23,0-1.79l4.11-8.21c0.66-1.33-0.3-2.89-1.79-2.89h-6.3v7.5c0,0.69-0.56,1.25-1.25,1.25
					s-1.25-0.56-1.25-1.25v-10.83c-0.17-2.05-1.87-3.67-3.97-3.67h-17.5c-0.28,0-0.5,0.22-0.5,0.5v23c0,0.28,0.22,0.5,0.5,0.5
					l15-0.02c0.69,0,1.25,0.56,1.25,1.25c0,0.69-0.56,1.25-1.25,1.25h-6.5V133c0,2.21,1.79,4,4,4h17.76c1.49,0,2.45-1.56,1.79-2.89
					L342.19,125.89z M330.74,118.99c0,0.84-0.68,1.51-1.51,1.51h-1.49v3.05c0,0.25-0.2,0.45-0.45,0.45h-1.05
					c-0.28,0-0.5-0.22-0.5-0.5c0-0.83-0.67-1.5-1.5-1.5h0c-0.83,0-1.5,0.67-1.5,1.5c0,0.28-0.22,0.5-0.5,0.5h-1.05
					c-0.25,0-0.45-0.2-0.45-0.45v-3.05h-1.49c-0.84,0-1.51-0.68-1.51-1.51v-3.36c0-2.28,1.85-4.13,4.13-4.13h4.75
					c2.28,0,4.13,1.85,4.13,4.13V118.99z M327.74,115c-0.83,0-1.5,0.67-1.5,1.5s0.67,1.5,1.5,1.5s1.5-0.67,1.5-1.5
					S328.57,115,327.74,115z"/>
				<path class="st2" d="M308.5,104c-1.1,0-2,0.9-2,2v33c0,1.1,0.9,2,2,2c1.1,0,2-0.9,2-2v-33C310.5,104.9,309.6,104,308.5,104z"/>
			</g>
		</g>
	</g>
	<g>
		<g>
			<g>
				<path class="st2" d="M252.39,134.99l-4.31-4.31h-2.09c-0.55,0-1,0.45-1,1v4c0,0.05,0.02,0.1,0.03,0.15
					c-2.24,0.49-3.92,2.49-3.92,4.88v0.97c0,0.28,0.22,0.5,0.5,0.5h15.48v-5.88h-1.5C254.37,136.31,253.24,135.84,252.39,134.99z
					 M271.96,135.83c0.01-0.05,0.03-0.09,0.03-0.14v-4c0-0.55-0.45-1-1-1h-2.07l-4.31,4.31c-0.85,0.85-1.98,1.32-3.18,1.32h-1.35
					v5.88h15.33c0.28,0,0.5-0.22,0.5-0.5v-0.97C275.9,138.31,274.21,136.32,271.96,135.83z"/>
				<path class="st2" d="M273.5,115.69h-30c-0.83,0-1.5,0.67-1.5,1.5c0,0.83,0.67,1.5,1.5,1.5h1.73c-0.14,0.27-0.23,0.57-0.23,0.89
					v2.21c0,1.05,0.85,1.89,1.89,1.89H248v1.73c0,1.06,0.42,2.08,1.17,2.83l4.98,4.98c0.38,0.38,0.88,0.59,1.41,0.59h5.86
					c0.53,0,1.04-0.21,1.41-0.59l4.98-4.98c0.75-0.75,1.17-1.77,1.17-2.83v-1.73h1.11c1.05,0,1.89-0.85,1.89-1.89v-2.21
					c0-0.33-0.09-0.63-0.23-0.89h1.73c0.83,0,1.5-0.67,1.5-1.5C275,116.36,274.33,115.69,273.5,115.69z M253,124.69
					c-1.66,0-3-1.34-3-3c0-1.66,1.34-3,3-3s3,1.34,3,3C256,123.34,254.66,124.69,253,124.69z M264,124.69c-1.66,0-3-1.34-3-3
					c0-1.66,1.34-3,3-3s3,1.34,3,3C267,123.34,265.66,124.69,264,124.69z M267.05,105.92c-0.25-1.15-0.99-2.12-2.03-2.67
					c-1.05-0.54-2.27-0.59-3.35-0.12c-2.01,0.86-4.32,0.86-6.33,0c-1.08-0.46-2.31-0.42-3.35,0.12c-1.05,0.54-1.79,1.51-2.03,2.64
					l-1.62,6.79h20.3L267.05,105.92z"/>
			</g>
		</g>
	</g>
	<g>
		<g>
			<path class="st2" d="M182.62,133h-1.25v-3c0-2.34-1.91-4.25-4.25-4.25c-2.34,0-4.25,1.91-4.25,4.25v3h-1.25
				c-0.28,0-0.5,0.22-0.5,0.5v7c0,0.28,0.22,0.5,0.5,0.5h11c0.28,0,0.5-0.22,0.5-0.5v-7C183.12,133.22,182.9,133,182.62,133z
				 M178.87,133h-3.5v-3c0-0.96,0.79-1.75,1.75-1.75c0.96,0,1.75,0.79,1.75,1.75V133z"/>
			<path class="st2" d="M190.5,103c-10.75,0-19.5,8.75-19.5,19.5c0,0.83,0.67,1.5,1.5,1.5s1.5-0.67,1.5-1.5
				c0-1.56,0.23-3.07,0.64-4.5h5.64c-0.18,1.44-0.28,2.94-0.28,4.5c0,0.83,0.67,1.5,1.5,1.5s1.5-0.67,1.5-1.5
				c0-1.49,0.11-3.01,0.33-4.5H189v9h-3.88c-0.83,0-1.5,0.67-1.5,1.5c0,0.83,0.67,1.5,1.5,1.5H189v8.92
				c-0.67-0.06-1.34-0.15-1.99-0.29c-0.8-0.17-1.61,0.34-1.78,1.15c-0.17,0.81,0.34,1.61,1.15,1.78c1.35,0.29,2.74,0.44,4.12,0.44
				c10.75,0,19.5-8.75,19.5-19.5S201.25,103,190.5,103z M180.78,115h-4.96c1.71-3.33,4.51-6,7.93-7.54
				C182.45,109.46,181.43,112.04,180.78,115z M189,115h-5.09c1.01-4.13,2.81-7.57,5.09-8.64V115z M205.18,115h-4.96
				c-0.65-2.96-1.67-5.54-2.97-7.54C200.67,109,203.47,111.67,205.18,115z M192,106.36c2.29,1.07,4.08,4.51,5.09,8.64H192V106.36z
				 M192,118h5.67c0.21,1.49,0.33,3.01,0.33,4.5s-0.11,3.01-0.33,4.5H192V118z M192,138.65V130h5.09
				C196.08,134.13,194.29,137.57,192,138.65z M197.25,137.54c1.3-2,2.32-4.58,2.97-7.54h4.96
				C203.47,133.33,200.67,136,197.25,137.54z M200.72,127c0.18-1.44,0.28-2.94,0.28-4.5s-0.1-3.06-0.28-4.5h5.64
				c0.41,1.43,0.64,2.94,0.64,4.5s-0.23,3.07-0.64,4.5H200.72z"/>
		</g>
	</g>
	<g>
		<g>
			<path class="st2" d="M138.66,110.67c-6.31-0.78-12.38-5.5-14.92-7.71c-0.71-0.62-1.77-0.62-2.48,0
				c-2.54,2.21-8.61,6.93-14.92,7.71c-1,0.12-1.75,0.97-1.71,1.98c0.78,19.18,13.39,27.6,16.94,29.6c0.58,0.33,1.27,0.33,1.85,0
				c3.56-2,16.17-10.42,16.94-29.6C140.41,111.65,139.66,110.8,138.66,110.67z M122.5,132.01c-5.25,0-9.51-4.26-9.51-9.51
				s4.26-9.51,9.51-9.51s9.51,4.26,9.51,9.51S127.75,132.01,122.5,132.01z"/>
			<polygon class="st2" points="126.7,117.69 121.03,123.36 118.27,120.6 116.31,122.56 119.07,125.32 121.06,127.31 123.02,125.35 
				128.69,119.68 			"/>
		</g>
	</g>
	<g>
		<g>
			<g>
				<path class="st2" d="M54.47,110.01c-3.97,0-7.2,3.24-7.2,7.24s3.22,7.24,7.2,7.24s7.2-3.24,7.2-7.24S58.44,110.01,54.47,110.01z
					 M53.47,121.13l-3.78-3.78l1.96-1.96l1.79,1.79l3.81-3.81l1.99,1.99L53.47,121.13z"/>
				<path class="st2" d="M73.5,104.25h-38c-1.1,0-2,0.9-2,2v25c0,1.1,0.9,2,2,2h14.92l-0.75,4.5H46c-0.83,0-1.5,0.67-1.5,1.5
					s0.67,1.5,1.5,1.5h17c0.83,0,1.5-0.67,1.5-1.5s-0.67-1.5-1.5-1.5h-3.67l-0.75-4.5H73.5c1.1,0,2-0.9,2-2v-25
					C75.5,105.15,74.6,104.25,73.5,104.25z M54.5,131.75c-0.83,0-1.5-0.67-1.5-1.5s0.67-1.5,1.5-1.5s1.5,0.67,1.5,1.5
					S55.33,131.75,54.5,131.75z M71.5,126.25h-34v-18h34V126.25z"/>
			</g>
		</g>
	</g>
</g>
<g id="title" class="st0">
	<g class="st3">
		<path class="st2" d="M31.23,50.76c0-3.87,2.35-6.01,6.06-6.01c1.72,0,2.91,0.23,3.87,0.47c0.51,0.14,0.75,0.56,0.63,1.09
			l-0.21,0.96c-0.12,0.51-0.61,0.75-1.12,0.61c-0.63-0.14-1.49-0.33-2.7-0.33c-1.91,0-3.08,0.82-3.08,3.47v4.33
			c0,2.66,1.16,3.47,3.08,3.47c1.49,0,2.4-0.26,2.82-0.35c0.56-0.14,0.89,0.12,1,0.63l0.21,0.96c0.09,0.47-0.12,0.96-0.63,1.1
			c-0.54,0.14-1.93,0.47-3.87,0.47c-3.7,0-6.06-2.12-6.06-6.01V50.76z"/>
		<path class="st2" d="M48.31,54.86c-1.93-0.54-2.94-2-3.38-4.15l-0.91-4.4c-0.14-0.72,0.26-1.26,0.93-1.26h1.12
			c0.68,0,1.14,0.47,1.28,1.14l0.77,3.75c0.28,1.42,0.63,2.38,1.84,2.38c1.21,0,1.56-0.91,1.84-2.33l0.77-3.77
			c0.14-0.7,0.61-1.17,1.28-1.17H55c0.68,0,1.05,0.51,0.91,1.23L55,50.71c-0.44,2.14-1.47,3.61-3.35,4.15v5.33
			c0,0.68-0.44,1.12-1.12,1.12h-1.1c-0.68,0-1.12-0.44-1.12-1.12V54.86z"/>
		<path class="st2" d="M58.63,46.96c0-0.72,0.51-1.3,1.14-1.51c0.65-0.21,2.17-0.7,3.8-0.7c3.4,0,5.48,2.14,5.48,4.75
			c0,1.42-0.61,2.47-1.7,3.15c1.61,0.72,2.54,2.03,2.54,3.75c0,2.68-2.21,4.92-5.99,4.92h-4.15c-0.68,0-1.12-0.44-1.12-1.12V46.96z
			 M63.5,51.58c1.4,0,2.1-0.96,2.1-2.07c0-1.14-0.68-1.96-2.07-1.96c-0.61,0-1.03,0.09-1.54,0.28v3.75H63.5z M63.78,58.52
			c1.61,0,2.59-0.86,2.59-2.12c0-1.3-0.75-2.24-2.59-2.24h-1.79v4.36H63.78z"/>
		<path class="st2" d="M72.1,49.52c0-2.7,1.72-4.47,5.15-4.47h3.38c0.68,0,1.12,0.44,1.12,1.12v0.56c0,0.68-0.44,1.12-1.12,1.12
			h-3.33c-1.4,0-1.84,0.63-1.84,1.93v1.82h4.47c0.68,0,1.12,0.44,1.12,1.12v0.54c0,0.68-0.44,1.12-1.12,1.12h-4.47v2.24
			c0,1.33,0.44,1.91,1.84,1.91h3.43c0.68,0,1.12,0.44,1.12,1.12v0.56c0,0.68-0.44,1.12-1.12,1.12h-3.47c-3.4,0-5.15-1.77-5.15-4.45
			V49.52z"/>
		<path class="st2" d="M84.7,46.84c0-0.68,0.47-1.26,1.14-1.44c0.72-0.21,2.45-0.65,4.12-0.65c3.66,0,5.62,2.59,5.62,5.41
			c0,1.49-0.79,3.75-3.05,4.75l2.38,5.1c0.33,0.68-0.09,1.3-0.77,1.3h-1.38c-0.68,0-1.09-0.37-1.37-1l-2.14-4.92h-1.19v4.8
			c0,0.68-0.44,1.12-1.12,1.12h-1.12c-0.68,0-1.12-0.44-1.12-1.12V46.84z M89.71,52.74c1.56,0,2.35-1,2.35-2.59
			c0-1.44-0.61-2.61-2.12-2.61c-0.63,0-1.26,0.07-1.89,0.28v4.92H89.71z"/>
		<path class="st2" d="M102.57,59.61l0.14-0.61c0.16-0.72,0.68-0.91,1.3-0.72c0.44,0.12,1.68,0.54,3.15,0.54
			c1.58,0,2.24-0.84,2.24-1.96c0-3.17-6.73-1.98-6.73-7.55c0-2.89,2.42-4.57,5.62-4.57c1.49,0,2.52,0.33,3.1,0.51
			c0.63,0.21,0.98,0.72,0.75,1.42l-0.16,0.51c-0.21,0.63-0.75,0.91-1.42,0.7c-0.54-0.16-1.26-0.35-2.26-0.35
			c-1.4,0-2.1,0.7-2.1,1.77c0,2.73,6.73,2.03,6.73,7.55c0,2.87-2.33,4.75-5.76,4.75c-1.61,0-2.87-0.35-3.77-0.63
			C102.71,60.78,102.41,60.36,102.57,59.61z"/>
		<path class="st2" d="M115.11,49.52c0-2.7,1.72-4.47,5.15-4.47h3.38c0.68,0,1.12,0.44,1.12,1.12v0.56c0,0.68-0.44,1.12-1.12,1.12
			h-3.33c-1.4,0-1.84,0.63-1.84,1.93v1.82h4.47c0.68,0,1.12,0.44,1.12,1.12v0.54c0,0.68-0.44,1.12-1.12,1.12h-4.47v2.24
			c0,1.33,0.44,1.91,1.84,1.91h3.43c0.68,0,1.12,0.44,1.12,1.12v0.56c0,0.68-0.44,1.12-1.12,1.12h-3.47c-3.4,0-5.15-1.77-5.15-4.45
			V49.52z"/>
		<path class="st2" d="M127.17,50.76c0-3.87,2.35-6.01,6.06-6.01c1.72,0,2.91,0.23,3.87,0.47c0.51,0.14,0.75,0.56,0.63,1.09
			l-0.21,0.96c-0.12,0.51-0.61,0.75-1.12,0.61c-0.63-0.14-1.49-0.33-2.7-0.33c-1.91,0-3.08,0.82-3.08,3.47v4.33
			c0,2.66,1.16,3.47,3.08,3.47c1.49,0,2.4-0.26,2.82-0.35c0.56-0.14,0.89,0.12,1,0.63l0.21,0.96c0.09,0.47-0.12,0.96-0.63,1.1
			c-0.54,0.14-1.93,0.47-3.87,0.47c-3.7,0-6.06-2.12-6.06-6.01V50.76z"/>
		<path class="st2" d="M140.43,46.17c0-0.68,0.44-1.12,1.12-1.12h1.12c0.68,0,1.12,0.44,1.12,1.12v9.39c0,1.56,0.77,3.26,2.91,3.26
			c2.1,0,2.89-1.7,2.89-3.26v-9.39c0-0.68,0.44-1.12,1.12-1.12h1.12c0.68,0,1.12,0.44,1.12,1.12v8.99c0,4.01-2.19,6.45-6.24,6.45
			c-4.01,0-6.27-2.42-6.27-6.45V46.17z"/>
		<path class="st2" d="M156.13,46.84c0-0.68,0.47-1.26,1.14-1.44c0.72-0.21,2.45-0.65,4.12-0.65c3.66,0,5.62,2.59,5.62,5.41
			c0,1.49-0.79,3.75-3.05,4.75l2.38,5.1c0.33,0.68-0.09,1.3-0.77,1.3h-1.38c-0.68,0-1.09-0.37-1.37-1l-2.14-4.92h-1.19v4.8
			c0,0.68-0.44,1.12-1.12,1.12h-1.12c-0.68,0-1.12-0.44-1.12-1.12V46.84z M161.14,52.74c1.56,0,2.35-1,2.35-2.59
			c0-1.44-0.61-2.61-2.12-2.61c-0.63,0-1.26,0.07-1.89,0.28v4.92H161.14z"/>
		<path class="st2" d="M169.62,46.17c0-0.68,0.44-1.12,1.12-1.12h1.12c0.68,0,1.12,0.44,1.12,1.12V60.2c0,0.68-0.44,1.12-1.12,1.12
			h-1.12c-0.68,0-1.12-0.44-1.12-1.12V46.17z"/>
		<path class="st2" d="M179.13,47.85h-2.66c-0.68,0-1.12-0.44-1.12-1.12v-0.56c0-0.68,0.44-1.12,1.12-1.12h8.67
			c0.68,0,1.12,0.44,1.12,1.12v0.56c0,0.68-0.44,1.12-1.12,1.12h-2.66V60.2c0,0.68-0.44,1.12-1.12,1.12h-1.12
			c-0.68,0-1.12-0.44-1.12-1.12V47.85z"/>
		<path class="st2" d="M192.1,54.86c-1.93-0.54-2.94-2-3.38-4.15l-0.91-4.4c-0.14-0.72,0.26-1.26,0.93-1.26h1.12
			c0.68,0,1.14,0.47,1.28,1.14l0.77,3.75c0.28,1.42,0.63,2.38,1.84,2.38c1.21,0,1.56-0.91,1.84-2.33l0.77-3.77
			c0.14-0.7,0.61-1.17,1.28-1.17h1.14c0.68,0,1.05,0.51,0.91,1.23l-0.91,4.43c-0.44,2.14-1.47,3.61-3.36,4.15v5.33
			c0,0.68-0.44,1.12-1.12,1.12h-1.1c-0.68,0-1.12-0.44-1.12-1.12V54.86z"/>
		<path class="st4" d="M207.76,45.71c0-0.7,0.46-1.15,1.15-1.15h1.15c0.7,0,1.15,0.46,1.15,1.15v14.45c0,0.7-0.46,1.15-1.15,1.15
			h-1.15c-0.7,0-1.15-0.46-1.15-1.15V45.71z"/>
		<path class="st4" d="M214.31,50.44c0-3.98,2.42-6.19,6.24-6.19c1.78,0,3,0.24,3.98,0.48c0.53,0.14,0.77,0.58,0.65,1.13l-0.22,0.98
			c-0.12,0.53-0.62,0.77-1.15,0.62c-0.65-0.14-1.54-0.34-2.78-0.34c-1.97,0-3.17,0.84-3.17,3.58v4.46c0,2.74,1.2,3.58,3.17,3.58
			c1.54,0,2.47-0.26,2.9-0.36c0.58-0.14,0.91,0.12,1.03,0.65l0.22,0.98c0.1,0.48-0.12,0.98-0.65,1.13
			c-0.55,0.14-1.99,0.48-3.98,0.48c-3.82,0-6.24-2.18-6.24-6.19V50.44z"/>
		<path class="st4" d="M227.75,51.4c0-4.13,2.47-7.15,6.74-7.15c4.27,0,6.74,3.02,6.74,7.15v3.07c0,4.13-2.47,7.15-6.74,7.15
			c-4.27,0-6.74-3.02-6.74-7.15V51.4z M237.69,54.21v-2.54c0-2.42-0.65-4.54-3.19-4.54c-2.52,0-3.19,2.11-3.19,4.54v2.54
			c0,2.45,0.67,4.54,3.19,4.54C237.04,58.75,237.69,56.66,237.69,54.21z"/>
		<path class="st4" d="M244.31,45.71c0-0.7,0.46-1.15,1.15-1.15h0.96c0.7,0,1.22,0.38,1.61,1.06l5.33,9.41
			c-0.14-1.2-0.22-2.4-0.22-3.31v-6c0-0.7,0.46-1.15,1.15-1.15h1.1c0.7,0,1.15,0.46,1.15,1.15v14.45c0,0.7-0.46,1.15-1.15,1.15
			h-0.96c-0.7,0-1.25-0.38-1.63-1.06l-5.3-9.36c0.12,1.2,0.22,2.38,0.22,3.26v6c0,0.7-0.46,1.15-1.15,1.15h-1.1
			c-0.7,0-1.15-0.46-1.15-1.15V45.71z"/>
		<path class="st4" d="M259.43,59.56l0.14-0.62c0.17-0.74,0.7-0.94,1.34-0.74c0.46,0.12,1.73,0.55,3.24,0.55
			c1.63,0,2.3-0.86,2.3-2.02c0-3.26-6.94-2.04-6.94-7.78c0-2.98,2.5-4.7,5.78-4.7c1.54,0,2.59,0.34,3.19,0.53
			c0.65,0.22,1.01,0.74,0.77,1.46l-0.17,0.53c-0.22,0.65-0.77,0.94-1.46,0.72c-0.55-0.17-1.3-0.36-2.33-0.36
			c-1.44,0-2.16,0.72-2.16,1.82c0,2.81,6.94,2.09,6.94,7.78c0,2.95-2.4,4.9-5.93,4.9c-1.66,0-2.95-0.36-3.89-0.65
			C259.57,60.76,259.26,60.33,259.43,59.56z"/>
	</g>
</g>
</svg>
