<?xml version="1.0" encoding="utf-8"?>
<!-- Generator: Adobe Illustrator 24.1.1, SVG Export Plug-In . SVG Version: 6.00 Build 0)  -->
<svg version="1.1" xmlns="http://www.w3.org/2000/svg" xmlns:xlink="http://www.w3.org/1999/xlink" x="0px" y="0px"
	 viewBox="0 0 448 448" style="enable-background:new 0 0 448 448;" xml:space="preserve">
<style type="text/css">
	.st0{display:none;}
	.st1{display:inline;fill:#FFFFFF;}
	.st2{fill:#173042;}
	.st3{display:inline;}
	.st4{fill:#869093;}
</style>
<g id="grid" class="st0">
	<rect x="30" y="98" class="st1" width="48" height="48"/>
	<rect x="98" y="98" class="st1" width="48" height="48"/>
	<rect x="166" y="98" class="st1" width="48" height="48"/>
	<rect x="234" y="98" class="st1" width="48" height="48"/>
	<rect x="302" y="98" class="st1" width="48" height="48"/>
	<rect x="370" y="98" class="st1" width="48" height="48"/>
	<rect x="30" y="166" class="st1" width="48" height="48"/>
	<rect x="98" y="166" class="st1" width="48" height="48"/>
	<rect x="166" y="166" class="st1" width="48" height="48"/>
	<rect x="234" y="166" class="st1" width="48" height="48"/>
	<rect x="302" y="166" class="st1" width="48" height="48"/>
	<rect x="370" y="166" class="st1" width="48" height="48"/>
	<rect x="30" y="234" class="st1" width="48" height="48"/>
	<rect x="98" y="234" class="st1" width="48" height="48"/>
	<rect x="370" y="234" class="st1" width="48" height="48"/>
	<rect x="30" y="302" class="st1" width="48" height="48"/>
	<rect x="98" y="302" class="st1" width="48" height="48"/>
	<rect x="166" y="234" class="st1" width="48" height="48"/>
	<rect x="234" y="234" class="st1" width="48" height="48"/>
	<rect x="302" y="234" class="st1" width="48" height="48"/>
	<rect x="166" y="302" class="st1" width="48" height="48"/>
	<rect x="234" y="302" class="st1" width="48" height="48"/>
	<rect x="302" y="302" class="st1" width="48" height="48"/>
	<rect x="370" y="302" class="st1" width="48" height="48"/>
	<rect x="30" y="370" class="st1" width="48" height="48"/>
	<rect x="98" y="370" class="st1" width="48" height="48"/>
	<rect x="166" y="370" class="st1" width="48" height="48"/>
	<rect x="234" y="370" class="st1" width="48" height="48"/>
	<rect x="302" y="370" class="st1" width="48" height="48"/>
	<rect x="370" y="370" class="st1" width="48" height="48"/>
</g>
<g id="icons">
	<g>
		<g>
			<g>
				<path class="st2" d="M405.5,376.75h-22c-0.83,0-1.5,0.67-1.5,1.5s0.67,1.5,1.5,1.5h0.5v32c0,0.28,0.22,0.5,0.5,0.5h20
					c0.28,0,0.5-0.22,0.5-0.5v-32h0.5c0.83,0,1.5-0.67,1.5-1.5S406.33,376.75,405.5,376.75z M393,407.75c0,0.28-0.22,0.5-0.5,0.5h-5
					c-0.28,0-0.5-0.22-0.5-0.5v-3c0-0.28,0.22-0.5,0.5-0.5h5c0.28,0,0.5,0.22,0.5,0.5V407.75z M393,399.75c0,0.28-0.22,0.5-0.5,0.5
					h-5c-0.28,0-0.5-0.22-0.5-0.5v-3c0-0.28,0.22-0.5,0.5-0.5h5c0.28,0,0.5,0.22,0.5,0.5V399.75z M388.5,386.25c0-3.31,2.69-6,6-6
					c3.31,0,6,2.69,6,6s-2.69,6-6,6C391.19,392.25,388.5,389.56,388.5,386.25z M402,407.75c0,0.28-0.22,0.5-0.5,0.5h-5
					c-0.28,0-0.5-0.22-0.5-0.5v-3c0-0.28,0.22-0.5,0.5-0.5h5c0.28,0,0.5,0.22,0.5,0.5V407.75z M402,399.75c0,0.28-0.22,0.5-0.5,0.5
					h-5c-0.28,0-0.5-0.22-0.5-0.5v-3c0-0.28,0.22-0.5,0.5-0.5h5c0.28,0,0.5,0.22,0.5,0.5V399.75z"/>
				<path class="st2" d="M373.5,384.25c0,0.83,0.67,1.5,1.5,1.5h6.5v-3H375C374.17,382.75,373.5,383.42,373.5,384.25z M397.73,384.9
					h-1.88v-1.88c0-0.15-0.12-0.27-0.27-0.27h-2.15c-0.15,0-0.27,0.12-0.27,0.27v1.88h-1.88c-0.15,0-0.27,0.12-0.27,0.27v2.15
					c0,0.15,0.12,0.27,0.27,0.27h1.88v1.88c0,0.15,0.12,0.27,0.27,0.27h2.15c0.15,0,0.27-0.12,0.27-0.27v-1.88h1.88
					c0.15,0,0.27-0.12,0.27-0.27v-2.15C398,385.02,397.88,384.9,397.73,384.9z M381,388.25h-6c-0.28,0-0.5,0.22-0.5,0.5v23
					c0,0.28,0.22,0.5,0.5,0.5h6c0.28,0,0.5-0.22,0.5-0.5v-7.5h-3.99c-0.28,0-0.5-0.22-0.5-0.5v-3c0-0.28,0.22-0.5,0.5-0.5h3.99v-4
					h-3.99c-0.28,0-0.5-0.22-0.5-0.5v-3c0-0.28,0.22-0.5,0.5-0.5h3.99v-3.5C381.5,388.47,381.27,388.25,381,388.25z M414,382.75
					h-6.5v3h6.5c0.83,0,1.5-0.67,1.5-1.5S414.83,382.75,414,382.75z M414,388.25h-6c-0.28,0-0.5,0.22-0.5,0.5v3.5h4
					c0.28,0,0.5,0.22,0.5,0.5v3c0,0.28-0.22,0.5-0.5,0.5h-4v4h4c0.28,0,0.5,0.22,0.5,0.5v3c0,0.28-0.22,0.5-0.5,0.5h-4v7.5
					c0,0.28,0.22,0.5,0.5,0.5h6c0.28,0,0.5-0.22,0.5-0.5v-23C414.5,388.47,414.28,388.25,414,388.25z"/>
			</g>
		</g>
	</g>
	<g>
		<g>
			<g>
				<g>
					<path class="st2" d="M338,385.5h-3.5V382c0-0.28-0.22-0.5-0.5-0.5h-4c-0.28,0-0.5,0.22-0.5,0.5v3.5H326
						c-0.28,0-0.5,0.22-0.5,0.5v4c0,0.28,0.22,0.5,0.5,0.5h3.5v3.5c0,0.28,0.22,0.5,0.5,0.5h4c0.28,0,0.5-0.22,0.5-0.5v-3.5h3.5
						c0.28,0,0.5-0.22,0.5-0.5v-4C338.5,385.72,338.28,385.5,338,385.5z"/>
					<path class="st2" d="M340.35,401.19l-3.93-2.12c-0.96-0.52-1.7-0.14-2.53,0.99c-1.81,2.49-2.69,2.98-4.91,1.74
						c-2.07-1.16-3.56-2.53-5.42-4.39c-1.86-1.86-3.24-3.34-4.39-5.42c-1.24-2.22-0.75-3.1,1.74-4.91c1.13-0.82,1.51-1.57,0.99-2.53
						l-2.12-3.93c-0.87-1.67-2.09-1.86-3.91-1.25c-2.5,0.85-4.93,4.46-4.81,6.18c0.36,5.02,2.87,11.04,8.1,16.27
						c5.23,5.23,11.25,7.74,16.27,8.1c1.72,0.12,5.31-2.32,6.16-4.83C342.22,403.29,342.03,402.06,340.35,401.19z"/>
				</g>
			</g>
		</g>
	</g>
	<g>
		<g>
			<path class="st2" d="M271,377.66h-4c-1.1,0-2,0.9-2,2c0,1.1-0.9,2-2,2s-2-0.9-2-2c0-1.1-0.9-2-2-2h-5c-1.1,0-2,0.9-2,2
				c0,1.1-0.9,2-2,2s-2-0.9-2-2c0-1.1-0.9-2-2-2h-4c-1.1,0-2,0.9-2,2v25c0,1.1,0.9,2,2,2h15.16c-0.53-1.34-0.84-2.79-0.84-4.32
				c0-6.45,5.23-11.68,11.68-11.68c1.79,0,3.48,0.42,5,1.14v-12.14C273,378.56,272.1,377.66,271,377.66z M246,401.84
				c-1.1,0-2-0.9-2-2c0-1.1,0.9-2,2-2s2,0.9,2,2C248,400.94,247.1,401.84,246,401.84z M246,395.84c-1.1,0-2-0.9-2-2c0-1.1,0.9-2,2-2
				s2,0.9,2,2C248,394.94,247.1,395.84,246,395.84z M252,401.84c-1.1,0-2-0.9-2-2c0-1.1,0.9-2,2-2s2,0.9,2,2
				C254,400.94,253.1,401.84,252,401.84z M252,395.84c-1.1,0-2-0.9-2-2c0-1.1,0.9-2,2-2s2,0.9,2,2
				C254,394.94,253.1,395.84,252,395.84z M252,389.84c-1.1,0-2-0.9-2-2c0-1.1,0.9-2,2-2s2,0.9,2,2
				C254,388.94,253.1,389.84,252,389.84z M258,389.84c-1.1,0-2-0.9-2-2c0-1.1,0.9-2,2-2s2,0.9,2,2
				C260,388.94,259.1,389.84,258,389.84z"/>
			<path class="st2" d="M268,393.34c-4.97,0-9,4.03-9,9c0,4.97,4.03,9,9,9c4.97,0,9-4.03,9-9C277,397.37,272.97,393.34,268,393.34z
				 M269.25,402.84c0,0.69-0.56,1.25-1.25,1.25h-5c-0.69,0-1.25-0.56-1.25-1.25s0.56-1.25,1.25-1.25h3.75v-4.75
				c0-0.69,0.56-1.25,1.25-1.25s1.25,0.56,1.25,1.25V402.84z"/>
		</g>
	</g>
	<g>
		<g>
			<g>
				<g>
					<path class="st2" d="M188.61,410.75c-0.19-0.2-0.51-0.2-0.7,0c-0.33,0.32-0.79,0.79-1.02,1.01c-0.08,0.08-0.13,0.19-0.14,0.31
						l-0.25,3.24c-0.02,0.31,0.24,0.57,0.56,0.54l3.11-0.36c0.11-0.01,0.22-0.06,0.3-0.14l1.02-1.02c0.2-0.2,0.2-0.51,0-0.71
						L188.61,410.75z M202.03,403.06l-2.87-2.87c-0.2-0.2-0.51-0.2-0.71,0l-8.04,8.04c-0.2,0.2-0.2,0.51,0,0.71l2.87,2.87
						c0.2,0.2,0.51,0.2,0.71,0l8.04-8.04C202.22,403.58,202.22,403.26,202.03,403.06z M199.87,382.64c0-1.1-0.9-2-2-2h-1.09
						c-0.28,0-0.5,0.22-0.5,0.5v3c0,0.28-0.22,0.5-0.5,0.5h-16.92c-0.28,0-0.5-0.22-0.5-0.5v-3c0-0.28-0.22-0.5-0.5-0.5h-0.99
						c-1.1,0-2,0.9-2,2v26c0,1.1,0.9,2,2,2h7.77c0.13-0.23,0.28-0.45,0.47-0.64c0.36-0.36,1.37-1.37,1.37-1.37l13.39-13.39V382.64z
						 M188.37,397.01h-7c-0.69,0-1.25-0.56-1.25-1.25s0.56-1.25,1.25-1.25h7c0.69,0,1.25,0.56,1.25,1.25
						S189.06,397.01,188.37,397.01z M193.37,392.01h-12c-0.69,0-1.25-0.56-1.25-1.25s0.56-1.25,1.25-1.25h12
						c0.69,0,1.25,0.56,1.25,1.25S194.06,392.01,193.37,392.01z"/>
					<path class="st2" d="M191.14,377.36c-0.74-0.25-1.28-0.94-1.27-1.72c0.02-1.37-1.08-2.48-2.45-2.48h-0.1
						c-1.32,0-2.5,1.05-2.45,2.38c0.03,0.83-0.49,1.57-1.26,1.83c-1.59,0.54-2.74,1.03-2.74,2.8v1.5c0,0.28,0.22,0.5,0.5,0.5h12.01
						c0.28,0,0.5-0.22,0.5-0.5v-1.5C193.87,378.39,192.73,377.9,191.14,377.36z M205.98,399.11l-2.87-2.87c-0.2-0.2-0.51-0.2-0.71,0
						l-1.51,1.51c-0.2,0.2-0.2,0.51,0,0.71l2.87,2.87c0.2,0.2,0.51,0.2,0.71,0l1.51-1.51C206.18,399.62,206.18,399.31,205.98,399.11
						z"/>
				</g>
			</g>
		</g>
	</g>
	<g>
		<g>
			<path class="st2" d="M137.46,398.41h-1.42c-0.71,0-1.29,0.58-1.29,1.29v0.6c0,4.67-3.95,8.43-8.68,8.11
				c-4.31-0.29-7.57-4.07-7.57-8.39v-0.43c3.83-0.7,10.34-3.84,11.24-16.99c0.08-1.12-0.31-2.2-1.09-3.04
				c-0.81-0.87-1.98-1.37-3.19-1.37h-0.31c-0.65-0.97-1.75-1.61-3-1.61c-1.99,0-3.61,1.61-3.61,3.61c0,1.99,1.61,3.61,3.61,3.61
				c1.25,0,2.35-0.64,3-1.61h0.31c0.19,0,0.29,0.11,0.29,0.13c-0.59,8.55-3.96,13.46-9.25,13.46c-5.29,0-8.66-4.91-9.25-13.45
				c0.01-0.03,0.1-0.14,0.29-0.14h0.61c0.65,0.97,1.75,1.61,3,1.61c1.99,0,3.61-1.61,3.61-3.61c0-1.99-1.61-3.61-3.61-3.61
				c-1.25,0-2.35,0.64-3,1.61h-0.61c-1.22,0-2.38,0.5-3.19,1.37c-0.78,0.84-1.17,1.91-1.09,3.04c0.91,13.16,7.41,16.3,11.24,16.99
				v0.36c0,6.31,4.67,11.84,10.96,12.43c7.21,0.68,13.3-5,13.3-12.07v-0.6C138.75,398.98,138.18,398.41,137.46,398.41z"/>
			<path class="st2" d="M141.74,388.63c-0.09-2.14-2.28-3.86-4.98-3.86c-2.7,0-4.89,1.72-4.98,3.86h-0.02v1.14
				c0,1.56,1.12,2.89,2.75,3.55c-0.01,0.07-0.03,0.15-0.04,0.22h-0.01v0.52c0,1.02,1.03,1.84,2.3,1.84s2.3-0.82,2.3-1.84v-0.52
				h-0.01c0-0.08-0.02-0.15-0.04-0.22c1.62-0.66,2.75-2,2.75-3.55v-1.14H141.74z M136.75,390.37c-1.1,0-2-0.72-2-1.6
				c0-0.88,0.9-1.6,2-1.6s2,0.72,2,1.6C138.75,389.65,137.86,390.37,136.75,390.37z"/>
		</g>
	</g>
	<g>
		<g>
			<g>
				<g>
					<path class="st2" d="M46.05,394.43c-0.96-0.96-2.55-0.9-3.43,0.18c-0.77,0.94-0.6,2.33,0.25,3.18l2.54,2.54
						c0.5,0.5,0.5,1.31,0,1.81c-0.5,0.5-1.31,0.5-1.81,0l-2.47-2.47c-0.94-0.94-1.48-2.18-1.53-3.5l0.02-5.99
						c0-1.47-1.26-2.64-2.76-2.49c-1.3,0.13-2.24,1.32-2.24,2.63v6.16c0,1.42,0.5,2.79,1.42,3.87l5.62,6.65
						c0.09,0.11,0.23,0.18,0.38,0.18l10.27,0.01c0.28,0,0.5-0.22,0.5-0.5v-3.03c0-1.59-0.63-3.12-1.76-4.24L46.05,394.43z
						 M72.14,387.7c-1.5-0.15-2.76,1.02-2.76,2.49l0.02,5.99c-0.05,1.32-0.59,2.56-1.53,3.5l-2.47,2.47c-0.5,0.5-1.31,0.5-1.81,0
						c-0.5-0.5-0.5-1.31,0-1.81l2.54-2.54c0.85-0.85,1.02-2.25,0.25-3.18c-0.88-1.08-2.47-1.14-3.43-0.18l-5,5
						c-1.13,1.13-1.76,2.65-1.76,4.24v3.03c0,0.28,0.22,0.5,0.5,0.5l10.27-0.01c0.15,0,0.29-0.06,0.38-0.18l5.62-6.65
						c0.91-1.08,1.42-2.45,1.42-3.87l0-6.16C74.38,389.02,73.44,387.83,72.14,387.7z"/>
					<path class="st2" d="M46.44,386.81h4.29v4.29c0,0.28,0.22,0.5,0.5,0.5h4.99c0.28,0,0.5-0.22,0.5-0.5v-4.29H61
						c0.28,0,0.5-0.22,0.5-0.5v-4.99c0-0.28-0.22-0.5-0.5-0.5h-4.29v-4.29c0-0.28-0.22-0.5-0.5-0.5h-4.99c-0.28,0-0.5,0.22-0.5,0.5
						v4.29h-4.29c-0.28,0-0.5,0.22-0.5,0.5v4.99C45.94,386.59,46.16,386.81,46.44,386.81z M52.57,409.96H42.3
						c-0.28,0-0.5,0.22-0.5,0.5v2c0,0.28,0.22,0.5,0.5,0.5h10.27c0.28,0,0.5-0.22,0.5-0.5v-2
						C53.07,410.18,52.85,409.96,52.57,409.96z M66.7,409.96H56.43c-0.28,0-0.5,0.22-0.5,0.5v2c0,0.28,0.22,0.5,0.5,0.5H66.7
						c0.28,0,0.5-0.22,0.5-0.5v-2C67.2,410.18,66.97,409.96,66.7,409.96z"/>
				</g>
			</g>
		</g>
	</g>
	<g>
		<g>
			<path class="st2" d="M400.5,308.81h-12c-1.87,0-3.38,1.51-3.38,3.38v2.5h3.38v-2.5h12v2.5h3.38v-2.5
				C403.88,310.32,402.37,308.81,400.5,308.81z"/>
			<path class="st2" d="M409.5,317.19h-30c-2.21,0-4,1.79-4,4v19c0,2.21,1.79,4,4,4h30c2.21,0,4-1.79,4-4v-19
				C413.5,318.98,411.71,317.19,409.5,317.19z M400.75,332.59c0,0.28-0.22,0.5-0.5,0.5h-3.35v3.35c0,0.28-0.22,0.5-0.5,0.5h-3.81
				c-0.28,0-0.5-0.22-0.5-0.5v-3.35h-3.35c-0.28,0-0.5-0.22-0.5-0.5v-3.81c0-0.28,0.22-0.5,0.5-0.5h3.35v-3.35
				c0-0.28,0.22-0.5,0.5-0.5h3.81c0.28,0,0.5,0.22,0.5,0.5v3.35h3.35c0.28,0,0.5,0.22,0.5,0.5V332.59z"/>
		</g>
	</g>
	<g>
		<g>
			<path class="st2" d="M324.45,334.88l-5.94-3.34c-0.62-0.35-0.94-1.05-0.79-1.74c0.18-0.8,0.01-1.52-0.93-1.89
				c-0.93-0.37-2.04-0.16-2.73,0.57c-0.62,0.66-0.79,1.5-0.62,2.26c-0.54,0.18-1.03,0.54-1.34,1.07c-0.34,0.57-0.35,1.28-0.13,1.9
				c0.81,2.28,2.06,1.77,2.85,1.1c0.52-0.44,1.25-0.54,1.85-0.21l4.14,2.32L324.45,334.88z M340.91,331.81
				c-0.31-0.53-0.8-0.89-1.34-1.07c0.17-0.76,0-1.6-0.62-2.26c-0.69-0.73-1.8-0.93-2.73-0.57c-0.86,0.34-1.08,0.97-0.97,1.69
				c0.13,0.87-0.37,1.72-1.14,2.15l-12.05,6.77c-0.78,0.44-1.73,0.36-2.44-0.16c-0.8-0.59-1.92-0.85-2.67,1.27
				c-0.22,0.62-0.21,1.34,0.13,1.91c0.32,0.53,0.8,0.89,1.35,1.08c-0.17,0.76,0,1.61,0.63,2.27c0.69,0.73,1.81,0.94,2.75,0.57
				c0.88-0.34,1.09-0.99,0.97-1.72c-0.14-0.87,0.37-1.73,1.14-2.16l2.6-1.46l2.99,1.68c0.62,0.35,0.94,1.06,0.79,1.75
				c-0.18,0.81-0.02,1.54,0.94,1.91c0.94,0.37,2.06,0.16,2.75-0.57c0.63-0.66,0.8-1.51,0.63-2.27c0.55-0.18,1.03-0.55,1.35-1.08
				c0.34-0.57,0.35-1.28,0.13-1.91c-0.82-2.33-2.1-1.78-2.9-1.09c-0.52,0.45-1.25,0.52-1.85,0.19l-1.17-0.66l5.82-3.27
				c0.78-0.44,1.72-0.33,2.44,0.18c0.79,0.56,1.89,0.79,2.62-1.28C341.26,333.1,341.24,332.38,340.91,331.81z"/>
			<path class="st2" d="M326.5,307.35c-7.82,0-11.5,2.77-11.5,10.85v1.48c0,1.95,1.47,3.52,3.29,3.52h3.56c0.47,0,0.85,0.45,0.85,1
				s-0.38,1-0.85,1c-0.47,0-0.85,0.45-0.85,1v1c0,1.1,0.76,2,1.69,2h7.62c0.93,0,1.69-0.9,1.69-2v-1c0-0.55-0.38-1-0.85-1
				c-0.47,0-0.85-0.45-0.85-1s0.38-1,0.85-1h3.56c1.81,0,3.29-1.58,3.29-3.52v-1.48C338,310.12,334.32,307.35,326.5,307.35z
				 M321,320.2c-1.66,0-3-1.34-3-3s1.34-3,3-3s3,1.34,3,3S322.66,320.2,321,320.2z M326.5,323.21c-1.1,0-2,1.07-2-0.31
				c0-1.38,0.9-2.5,2-2.5s2,1.12,2,2.5C328.5,324.28,327.6,323.21,326.5,323.21z M332,320.2c-1.66,0-3-1.34-3-3s1.34-3,3-3
				s3,1.34,3,3S333.66,320.2,332,320.2z"/>
		</g>
	</g>
	<g>
		<g>
			<path class="st2" d="M276.5,320.55h-36c-1.1,0-2,0.9-2,2v0.57c0,1.1,0.9,2,2,2h0.32c0.29,5.45,2.14,11.86,7.79,15.28
				c0,0.03-0.02,0.05-0.02,0.08v2.27c0,0.99,0.8,1.8,1.8,1.8h16.22c0.99,0,1.8-0.8,1.8-1.8v-2.27c0-0.13-0.05-0.24-0.13-0.32
				c5.3-3.47,7.54-9.71,7.89-15.03h0.33c1.1,0,2-0.9,2-2v-0.57C278.5,321.45,277.6,320.55,276.5,320.55z M255.67,337.54
				c-0.14,0.57-0.65,0.94-1.21,0.94c-0.1,0-0.21-0.01-0.31-0.04c-4.35-1.11-7.42-4.06-8.86-8.54c-0.21-0.66,0.15-1.36,0.81-1.57
				c0.66-0.21,1.36,0.15,1.57,0.81c1.18,3.67,3.57,5.99,7.1,6.89C255.44,336.19,255.84,336.87,255.67,337.54z"/>
			<path class="st2" d="M274.81,312.1l-3.17-3.17c-0.64-0.64-1.68-0.64-2.32,0c-0.53,0.53-0.62,1.34-0.26,1.97l-8.55,7.16h9.7
				l2.77-3.3c0.61,0.27,1.34,0.17,1.84-0.33C275.46,313.78,275.46,312.74,274.81,312.1z"/>
		</g>
	</g>
	<g>
		<g>
			<path class="st2" d="M198.96,307.84l-2.22,1.21c-0.3,0.16-0.66,0.16-0.96,0l-3.21-1.75c-0.3-0.16-0.66-0.16-0.96,0l-3.21,1.75
				c-0.3,0.16-0.66,0.16-0.96,0l-3.21-1.75c-0.3-0.16-0.66-0.16-0.96,0l-3.21,1.75c-0.3,0.16-0.66,0.16-0.96,0l-2.2-1.2
				c-0.67-0.36-1.48,0.12-1.48,0.88v32.05c0,0.76,0.81,1.24,1.48,0.88l2.22-1.21c0.3-0.16,0.66-0.16,0.96,0l3.21,1.75
				c0.3,0.16,0.66,0.16,0.96,0l1.7-0.93c-0.57-1.37-0.89-2.86-0.89-4.43c0-6.34,5.16-11.5,11.5-11.5c1.36,0,2.66,0.25,3.87,0.68
				v-17.3C200.43,307.96,199.62,307.48,198.96,307.84z M181.93,332.13h-1.5c-0.69,0-1.25-0.56-1.25-1.25s0.56-1.25,1.25-1.25h1.5
				c0.69,0,1.25,0.56,1.25,1.25S182.62,332.13,181.93,332.13z M184.86,327.13h-4.43c-0.69,0-1.25-0.56-1.25-1.25
				s0.56-1.25,1.25-1.25h4.43c0.69,0,1.25,0.56,1.25,1.25S185.55,327.13,184.86,327.13z M195.19,322.13h-14.76
				c-0.69,0-1.25-0.56-1.25-1.25s0.56-1.25,1.25-1.25h14.76c0.69,0,1.25,0.56,1.25,1.25S195.88,322.13,195.19,322.13z
				 M195.19,317.13h-14.76c-0.69,0-1.25-0.56-1.25-1.25s0.56-1.25,1.25-1.25h14.76c0.69,0,1.25,0.56,1.25,1.25
				S195.88,317.13,195.19,317.13z"/>
			<path class="st2" d="M196.57,327.83c-4.97,0-9,4.03-9,9c0,4.97,4.03,9,9,9c4.97,0,9-4.03,9-9
				C205.57,331.86,201.54,327.83,196.57,327.83z M201.07,338.21c0,0.19-0.16,0.35-0.35,0.35h-2.43v2.43c0,0.19-0.16,0.35-0.35,0.35
				h-2.77c-0.19,0-0.35-0.16-0.35-0.35v-2.43h-2.43c-0.19,0-0.35-0.16-0.35-0.35v-2.77c0-0.19,0.16-0.35,0.35-0.35h2.43v-2.43
				c0-0.19,0.16-0.35,0.35-0.35h2.77c0.19,0,0.35,0.16,0.35,0.35v2.43h2.43c0.19,0,0.35,0.16,0.35,0.35V338.21z"/>
		</g>
	</g>
	<g>
		<g>
			<path class="st2" d="M130.9,316.18c-1.79,0-3.45,0.59-4.79,1.58c-2.18-2-3.53-5.23-3.53-8.76c0-1.1-0.9-2-2-2s-2,0.9-2,2
				c0,4.72,1.92,9.1,5,11.85c-0.48,1.04-0.76,2.19-0.76,3.41c0,0.74-0.6,1.35-1.35,1.35c-4.46,0-8.08,3.62-8.08,8.08
				c0,4.46,3.62,8.08,8.08,8.08c9.65,0,17.5-7.85,17.5-17.5C138.98,319.8,135.36,316.18,130.9,316.18z M131.07,334.1
				c-0.53,0.51-1.1,0.99-1.69,1.41c-0.22,0.15-0.47,0.23-0.72,0.23c-0.39,0-0.78-0.18-1.02-0.53c-0.4-0.56-0.26-1.34,0.3-1.74
				c0.49-0.35,0.96-0.73,1.39-1.15c0.5-0.48,1.29-0.47,1.77,0.02C131.58,332.83,131.57,333.62,131.07,334.1z M134.42,328.9
				c-0.18,0.51-0.66,0.83-1.18,0.83c-0.14,0-0.28-0.02-0.42-0.07c-0.65-0.23-0.99-0.95-0.75-1.6c0.44-1.22,0.66-2.5,0.66-3.8
				c0-1.01-0.82-1.83-1.83-1.83c-0.69,0-1.25-0.56-1.25-1.25s0.56-1.25,1.25-1.25c2.39,0,4.33,1.94,4.33,4.33
				C135.23,325.85,134.96,327.41,134.42,328.9z"/>
			<path class="st2" d="M112.26,328.96c-0.39-1.04-1.54-1.56-2.57-1.17c-2.23,0.83-3.67,2.91-3.67,5.28V344c0,1.1,0.9,2,2,2
				s2-0.9,2-2v-10.93c0-0.84,0.55-1.34,1.07-1.54C112.12,331.15,112.65,330,112.26,328.96z"/>
		</g>
	</g>
	<g>
		<g>
			<path class="st2" d="M61.45,310.59c-3.57-0.17-6.71,1.66-8.45,4.46c-1.87-3.03-5.4-4.92-9.33-4.38
				c-4.83,0.66-8.23,4.85-8.07,9.72c0.03,1.08,0.21,2.14,0.48,3.19h5.91l1.47-5.59c0.17-0.66,0.76-1.12,1.44-1.12
				c0.68,0.01,1.27,0.45,1.46,1.1l2.6,9.43l2.33-6.88c0.2-0.58,0.73-0.98,1.34-1.02c0.61-0.03,1.18,0.31,1.44,0.87l1.47,3.21H62
				c0.83,0,1.5,0.67,1.5,1.5s-0.67,1.5-1.5,1.5h-7.42c-0.59,0-1.12-0.34-1.36-0.87l-0.3-0.65l-2.69,7.93
				c-0.21,0.61-0.78,1.02-1.42,1.02c-0.01,0-0.03,0-0.04,0c-0.66-0.02-1.23-0.46-1.4-1.1l-2.42-8.76l-0.35,1.32
				c-0.17,0.66-0.77,1.12-1.45,1.12H34c-0.83,0-1.5,0.67-1.5,1.5s0.67,1.5,1.5,1.5h4.88c4.33,6.53,11.63,11.43,13.61,12.68
				c0.32,0.2,0.71,0.21,1.03,0.02c2.79-1.63,15.86-9.83,16.83-20.98C70.83,315.86,66.9,310.84,61.45,310.59z"/>
			<path class="st2" d="M75,323.58h-2c-0.83,0-1.5,0.67-1.5,1.5s0.67,1.5,1.5,1.5h2c0.83,0,1.5-0.67,1.5-1.5S75.83,323.58,75,323.58
				z"/>
		</g>
	</g>
	<g>
		<g>
			<g>
				<path class="st2" d="M390.43,247.85c0.01-0.01,0.02-0.02,0.03-0.03c-0.75-1-1.48-2.05-2.14-3.19c-0.77-1.33-2.62-1.33-3.38,0
					c-3.29,5.72-8.46,9.21-8.91,15.3c-0.44,6.04,4.31,10.97,9.97,11.31c-1.9-2.84-2.81-6.18-2.56-9.64
					C383.87,255.88,387.2,251.8,390.43,247.85z"/>
				<path class="st2" d="M412.96,261.79c-0.58-7.79-7.5-12.17-11.67-19.64c-0.82-1.47-2.87-1.47-3.69,0
					c-4.17,7.46-11.09,11.85-11.67,19.64c-0.58,7.82,5.95,14.16,13.51,14.16S413.55,269.6,412.96,261.79z M405.01,264.76
					c0,0.24-0.19,0.43-0.43,0.43h-2.99v2.99c0,0.24-0.19,0.43-0.43,0.43h-3.42c-0.24,0-0.43-0.19-0.43-0.43v-2.99h-2.99
					c-0.24,0-0.43-0.19-0.43-0.43v-3.42c0-0.24,0.19-0.43,0.43-0.43h2.99v-2.99c0-0.24,0.19-0.43,0.43-0.43h3.42
					c0.24,0,0.43,0.19,0.43,0.43v2.99h2.99c0.24,0,0.43,0.19,0.43,0.43V264.76z"/>
			</g>
		</g>
	</g>
	<g>
		<g>
			<path class="st2" d="M342.07,242.93L342.07,242.93c-1.95-1.95-5.12-1.95-7.07,0l-3.54,3.54l-1.77-1.77c-0.2-0.2-0.51-0.2-0.71,0
				l-2.12,2.12c-0.2,0.2-0.2,0.51,0,0.71l10.61,10.61c0.2,0.2,0.51,0.2,0.71,0l2.12-2.12c0.2-0.2,0.2-0.51,0-0.71l-1.77-1.77
				l3.54-3.54C344.02,248.05,344.02,244.88,342.07,242.93z"/>
			<path class="st2" d="M333.94,257.43l-6.36-6.36c-0.2-0.2-0.51-0.2-0.71,0l-15.08,15.08c-0.19,0.19-0.29,0.44-0.29,0.71v4.54
				l-1.59,1.59c-0.59,0.59-0.59,1.54,0,2.12c0.29,0.29,0.68,0.44,1.06,0.44c0.38,0,0.77-0.15,1.06-0.44l1.59-1.59h4.54
				c0.27,0,0.52-0.11,0.71-0.29l15.08-15.08C334.13,257.94,334.13,257.62,333.94,257.43z M321.81,263.83l-4.2,4.2
				c-0.24,0.24-0.56,0.37-0.88,0.37c-0.32,0-0.64-0.12-0.88-0.37c-0.49-0.49-0.49-1.28,0-1.77l4.2-4.2c0.49-0.49,1.28-0.49,1.77,0
				C322.3,262.55,322.3,263.34,321.81,263.83z M326.4,259.25l-1.41,1.41c-0.24,0.24-0.56,0.37-0.88,0.37
				c-0.32,0-0.64-0.12-0.88-0.37c-0.49-0.49-0.49-1.28,0-1.77l1.41-1.41c0.49-0.49,1.28-0.49,1.77,0
				C326.88,257.97,326.88,258.76,326.4,259.25z"/>
		</g>
	</g>
	<g>
		<g>
			<path class="st2" d="M268.97,253.65c0.01-0.1,0.03-0.2,0.03-0.3c0-0.57-0.17-1.1-0.45-1.55l1.12-1.12
				c0.47-0.47,0.67-1.13,0.55-1.78l-0.32-1.71c-0.12-0.65,0.08-1.32,0.55-1.78l0.92-0.92c0.78-0.78,0.78-2.05,0-2.83l-1.67-1.67
				c-0.78-0.78-2.05-0.78-2.83,0l-0.92,0.92c-0.47,0.47-1.13,0.67-1.78,0.55l-1.71-0.32c-0.65-0.12-1.32,0.08-1.78,0.55l-8.86,8.86
				c-0.78,0.78-0.78,2.05,0,2.83l6.17,6.17c0.78,0.78,2.05,0.78,2.83,0l3.63-3.63c0.45,0.28,0.98,0.45,1.55,0.45
				c0.42,0,0.82-0.09,1.18-0.24c1.14,1.29,1.82,2.94,1.82,4.74v1c0,4.14-3.62,7.5-8.06,7.5H246.5c-0.83,0-1.5,0.67-1.5,1.5
				c0,0.83,0.67,1.5,1.5,1.5h5.32c-1.12,1.17-1.82,2.75-1.82,4.5v0.27c0,0.28,0.22,0.5,0.5,0.5h15c0.28,0,0.5-0.22,0.5-0.5v-0.27
				c0-1.94-0.85-3.68-2.2-4.87c4.72-1.2,8.2-5.28,8.2-10.13v-1C272,258.06,270.84,255.53,268.97,253.65z"/>
			<path class="st2" d="M251.62,261.3c0.78,0.78,2.05,0.78,2.83,0l0.54-0.54c0.2-0.2,0.2-0.51,0-0.71l-3.91-3.91
				c-0.2-0.2-0.51-0.2-0.71,0l-0.54,0.54c-0.78,0.78-0.78,2.05,0,2.83L251.62,261.3z M261,264.34h-11c-0.83,0-1.5,0.67-1.5,1.5
				c0,0.83,0.67,1.5,1.5,1.5h11c0.83,0,1.5-0.67,1.5-1.5C262.5,265.02,261.83,264.34,261,264.34z"/>
		</g>
	</g>
	<g>
		<g>
			<path class="st2" d="M210.21,253.05l-1.41-1.41c-0.39-0.39-1.02-0.39-1.41,0l-0.71,0.71c-3.57,3.57-7.24,4.37-11.25,4.38
				c-0.29,0-0.51,0.23-0.5,0.52c0.02,0.32,0.04,0.64,0.06,0.97c0.04,0.65,0.08,1.33,0.12,2.01c0.01,0.27,0.24,0.49,0.51,0.49
				c4.6-0.05,9.41-1.06,13.89-5.54l0.71-0.71C210.6,254.08,210.6,253.44,210.21,253.05z M185.89,256.77
				c-0.01-0.27-0.24-0.49-0.51-0.49c-4.6,0.05-9.41,1.06-13.89,5.54l-0.71,0.71c-0.39,0.39-0.39,1.02,0,1.41l1.41,1.41
				c0.39,0.39,1.02,0.39,1.41,0l0.71-0.71c3.57-3.57,7.24-4.37,11.25-4.38c0.29,0,0.51-0.23,0.5-0.52
				c-0.02-0.32-0.04-0.64-0.06-0.97C185.97,258.13,185.93,257.46,185.89,256.77z"/>
			<path class="st2" d="M203.7,251.14l-1.26-1.26c-0.49-0.49-1.28-0.49-1.77,0c-0.49,0.49-0.49,1.28,0,1.77l1.26,1.26
				c0.24,0.24,0.56,0.37,0.88,0.37s0.64-0.12,0.88-0.37C204.19,252.42,204.19,251.63,203.7,251.14z M179.12,265.45
				c-0.49-0.49-1.28-0.49-1.77,0c-0.49,0.49-0.49,1.28,0,1.77l0.79,0.79c0.24,0.24,0.56,0.37,0.88,0.37c0.32,0,0.64-0.12,0.88-0.37
				c0.49-0.49,0.49-1.28,0-1.77L179.12,265.45z M196.65,244.08c0.27-0.3,0.55-0.61,0.86-0.91l0.71-0.71c0.39-0.39,0.39-1.02,0-1.41
				l-1.41-1.41c-0.39-0.39-1.02-0.39-1.41,0l-0.71,0.71c-6.17,6.17-6.17,12.54-6.18,18.15c0,2.79-0.01,5.38-0.64,7.91l-3.32-3.32
				c-0.49-0.49-1.28-0.49-1.77,0c-0.49,0.49-0.49,1.28,0,1.77l4.17,4.17c-0.41,0.89-0.93,1.77-1.59,2.66l-2.68-2.68
				c-0.49-0.49-1.28-0.49-1.77,0c-0.49,0.49-0.49,1.28,0,1.77l2.82,2.82c-0.08,0.08-0.15,0.16-0.23,0.24l-0.71,0.71
				c-0.39,0.39-0.39,1.02,0,1.41l1.41,1.41c0.39,0.39,1.02,0.39,1.41,0l0.71-0.71c6.17-6.17,6.17-12.54,6.18-18.15
				c0-2.4,0.01-4.65,0.41-6.84l3.01,3.01c0.24,0.24,0.56,0.37,0.88,0.37c0.32,0,0.64-0.12,0.88-0.37c0.49-0.49,0.49-1.28,0-1.77
				l-4.01-4.01c0.36-0.94,0.83-1.87,1.44-2.81l2.99,2.99c0.24,0.24,0.56,0.37,0.88,0.37c0.32,0,0.64-0.12,0.88-0.37
				c0.49-0.49,0.49-1.28,0-1.77L196.65,244.08z"/>
		</g>
	</g>
	<g>
		<g>
			<path class="st2" d="M130.91,273.25c-0.89-1.05-2.47-1.19-3.52-0.29c-1.84,1.56-4.19,2.42-6.61,2.42
				c-5.65,0-10.25-4.6-10.25-10.25c0-2.05,0.6-4.02,1.74-5.71c0.77-1.15,0.47-2.7-0.68-3.47c-1.15-0.77-2.7-0.46-3.47,0.68
				c-1.69,2.52-2.59,5.46-2.59,8.5c0,8.41,6.84,15.25,15.25,15.25c3.6,0,7.1-1.28,9.84-3.6C131.67,275.88,131.8,274.3,130.91,273.25
				z"/>
			<path class="st2" d="M139.37,274.18l-4.13-12.98c-0.3-0.93-1.16-1.57-2.14-1.57H120l-0.01-4.26h8.73c1.24,0,2.25-1.01,2.25-2.25
				c0-1.24-1.01-2.25-2.25-2.25h-8.74l-0.01-4.87c1.56-0.85,2.63-2.48,2.63-4.38c0-2.76-2.24-5-5-5c-2.76,0-5,2.24-5,5
				c0,2,1.18,3.71,2.87,4.51l0.02,15.75c0,1.24,1.01,2.25,2.25,2.25h13.7l3.63,11.41c0.3,0.96,1.19,1.57,2.14,1.57
				c0.23,0,0.46-0.03,0.68-0.11C139.1,276.63,139.75,275.36,139.37,274.18z"/>
		</g>
	</g>
	<g>
		<g>
			<g>
				<path class="st2" d="M61.75,245.25v-4.5c0-0.55-0.45-1-1-1h-16.5c-0.55,0-1,0.45-1,1v4.5c0,0.28,0.22,0.5,0.5,0.5h17.5
					C61.53,245.75,61.75,245.53,61.75,245.25z M63,267.25c-2.76,0-5,2.24-5,5c0,0.93,0.27,1.78,0.71,2.53l6.82-6.82
					C64.78,267.52,63.93,267.25,63,267.25z M67.29,269.72l-6.82,6.82c0.74,0.44,1.6,0.71,2.53,0.71c2.76,0,5-2.24,5-5
					C68,271.32,67.73,270.47,67.29,269.72z"/>
				<path class="st2" d="M60.12,253.26h-5.28c-0.69,0-1.25-0.56-1.25-1.25s0.56-1.25,1.25-1.25H60v-2.01c0-0.28-0.22-0.5-0.5-0.5
					h-14c-0.28,0-0.5,0.22-0.5,0.5v4.5c-2.21,0-4,1.79-4,4v16c0,2.21,1.79,4,4,4h12.43c-1.19-1.33-1.93-3.08-1.93-5
					c0-4.14,3.36-7.5,7.5-7.5c0.34,0,0.67,0.03,1,0.07v-7.57C64,255.08,62.27,253.32,60.12,253.26z M46.75,270.75
					c0,0.69-0.56,1.25-1.25,1.25c-0.69,0-1.25-0.56-1.25-1.25v-4.5c0-0.69,0.56-1.25,1.25-1.25c0.69,0,1.25,0.56,1.25,1.25V270.75z
					 M46.75,261.25c0,0.69-0.56,1.25-1.25,1.25c-0.69,0-1.25-0.56-1.25-1.25v-1.5c0-0.69,0.56-1.25,1.25-1.25
					c0.69,0,1.25,0.56,1.25,1.25V261.25z"/>
			</g>
		</g>
	</g>
	<g>
		<g>
			<g>
				<path class="st2" d="M386.05,190.89c-0.96-0.96-2.55-0.9-3.43,0.18c-0.77,0.94-0.6,2.33,0.25,3.18l2.54,2.54
					c0.5,0.5,0.5,1.31,0,1.81c-0.5,0.5-1.31,0.5-1.81,0l-2.47-2.47c-0.94-0.94-1.48-2.18-1.53-3.5l0.02-5.99
					c0-1.47-1.26-2.64-2.76-2.49c-1.3,0.13-2.24,1.32-2.24,2.63v6.16c0,1.42,0.5,2.79,1.42,3.87l5.62,6.65
					c0.09,0.11,0.23,0.18,0.38,0.18l10.27,0.01c0.28,0,0.5-0.22,0.5-0.5v-3.03c0-1.59-0.63-3.12-1.76-4.24L386.05,190.89z
					 M412.14,184.15c-1.5-0.15-2.76,1.02-2.76,2.49l0.02,5.99c-0.05,1.32-0.59,2.56-1.53,3.5l-2.47,2.47c-0.5,0.5-1.31,0.5-1.81,0
					c-0.5-0.5-0.5-1.31,0-1.81l2.54-2.54c0.85-0.85,1.02-2.25,0.25-3.18c-0.88-1.08-2.47-1.13-3.43-0.18l-5,5
					c-1.13,1.13-1.76,2.65-1.76,4.24v3.03c0,0.28,0.22,0.5,0.5,0.5l10.27-0.01c0.15,0,0.29-0.06,0.38-0.18l5.62-6.65
					c0.92-1.08,1.42-2.45,1.42-3.87v-6.16C414.38,185.48,413.44,184.28,412.14,184.15z"/>
				<path class="st2" d="M392.57,206.42H382.3c-0.28,0-0.5,0.22-0.5,0.5v2c0,0.28,0.22,0.5,0.5,0.5h10.27c0.28,0,0.5-0.22,0.5-0.5
					v-2C393.07,206.64,392.85,206.42,392.57,206.42z M400.78,181.76c-0.28-3.83-3.65-5.98-5.66-9.65c-0.38-0.7-1.37-0.7-1.75,0
					c-2.01,3.68-5.38,5.83-5.66,9.65c-0.28,3.83,2.88,6.94,6.53,6.94C397.9,188.7,401.06,185.59,400.78,181.76z M392.33,184.2
					c-1.04,0-1.88-0.84-1.88-1.88c0-1.04,0.84-1.88,1.88-1.88c1.04,0,1.88,0.84,1.88,1.88C394.21,183.35,393.37,184.2,392.33,184.2z
					 M406.7,206.42h-10.27c-0.28,0-0.5,0.22-0.5,0.5v2c0,0.28,0.22,0.5,0.5,0.5h10.27c0.28,0,0.5-0.22,0.5-0.5v-2
					C407.2,206.64,406.97,206.42,406.7,206.42z"/>
			</g>
		</g>
	</g>
	<g>
		<g>
			<g>
				<path class="st2" d="M322,188.9c4.55,0,8.24-3.69,8.24-8.24c0-4.55-3.69-8.24-8.24-8.24c-4.55,0-8.24,3.69-8.24,8.24
					C313.76,185.21,317.45,188.9,322,188.9z M331.08,191.46c-0.28-0.04-0.57-0.06-0.87-0.06h-2.93c-0.65,0-1.27,0.32-1.64,0.85
					l-2.05,2.94c-0.8,1.15-2.51,1.14-3.29-0.02l-1.96-2.89c-0.37-0.55-0.99-0.88-1.65-0.88h-2.88c-3.71,0-6.72,3.01-6.72,6.72v2.98
					c0,0.55,0.45,1,1,1h19.41l3.6-5.22V191.46z M316.08,199.34h-4c-0.69,0-1.25-0.56-1.25-1.25s0.56-1.25,1.25-1.25h4
					c0.69,0,1.25,0.56,1.25,1.25S316.77,199.34,316.08,199.34z M345.5,204.81l-4.5-6.53c-0.28-0.4-0.43-0.88-0.43-1.37v-7.02
					c0-0.17-0.13-0.3-0.3-0.3h-6.4c-0.17,0-0.3,0.13-0.3,0.3v7.02c0,0.49-0.15,0.97-0.43,1.37l-4.5,6.53
					c-1.1,1.6,0.04,3.78,1.98,3.78h12.88C345.46,208.59,346.6,206.41,345.5,204.81z"/>
				<path class="st2" d="M340.08,184.59h-6c-0.83,0-1.5,0.67-1.5,1.5s0.67,1.5,1.5,1.5h6c0.83,0,1.5-0.67,1.5-1.5
					S340.91,184.59,340.08,184.59z"/>
			</g>
		</g>
	</g>
	<g>
		<g>
			<path class="st2" d="M258.82,178.23c1.37,0.93,3.24,0.57,4.17-0.8s0.57-3.24-0.8-4.17c-1.37-0.93-3.24-0.57-4.17,0.8
				C257.09,175.44,257.45,177.31,258.82,178.23z M251.79,185.05c0.43-0.63,0.95-1.18,1.54-1.64l-2.4-2c1.1-2.01,0.54-4.57-1.4-5.88
				c-2.06-1.39-4.86-0.85-6.25,1.2c-1.39,2.06-0.85,4.86,1.2,6.25c1.28,0.87,2.85,0.99,4.19,0.45l2.72,2.27
				C251.51,185.48,251.65,185.26,251.79,185.05z M254.66,195.96l-1.44,5.39c-0.83,0.19-1.6,0.68-2.12,1.44
				c-1.08,1.6-0.66,3.78,0.94,4.86s3.78,0.66,4.86-0.94c1.04-1.53,0.69-3.58-0.75-4.7l1.41-5.29
				C256.55,196.66,255.56,196.41,254.66,195.96z M266.6,187.17l-3.43,0.23c-0.38-1.06-1.07-2.03-2.08-2.71
				c-0.94-0.64-2.02-0.95-3.08-0.95c-1.76,0-3.5,0.85-4.56,2.42c-1.7,2.52-1.04,5.93,1.47,7.64c0.94,0.64,2.02,0.95,3.08,0.95
				c1.76,0,3.5-0.85,4.56-2.42c0.41-0.61,0.68-1.26,0.82-1.94l3.42-0.23C266.5,189.2,266.43,188.18,266.6,187.17z"/>
			<path class="st2" d="M246.52,190.52c-2.06-1.39-4.86-0.85-6.25,1.2c-1.39,2.06-0.85,4.86,1.2,6.25c2.06,1.39,4.86,0.85,6.25-1.2
				C249.12,194.71,248.58,191.92,246.52,190.52z M275.52,184.52c-0.77-0.52-1.65-0.77-2.52-0.77c-1.44,0-2.86,0.69-3.73,1.98
				c-1.39,2.06-0.85,4.86,1.2,6.25c0.77,0.52,1.65,0.77,2.52,0.77c1.44,0,2.86-0.69,3.73-1.98
				C278.12,188.71,277.58,185.92,275.52,184.52z"/>
		</g>
	</g>
	<g>
		<g>
			<path class="st2" d="M204.32,191.18l-1.36-1.36c1.97-3.77,1.37-8.53-1.8-11.7c-3.17-3.17-7.93-3.76-11.7-1.8l-1.26-1.26
				c-0.58-0.59-1.54-0.59-2.12,0c-0.59,0.59-0.59,1.54,0,2.12l1,1l1,1c0.59,0.59,0.59,1.54,0,2.12c-0.29,0.29-0.68,0.44-1.06,0.44
				c-0.38,0-0.77-0.15-1.06-0.44c0,0,0,0,0,0l-0.95-0.95l-0.11-0.11l-1.83-1.83c-0.59-0.59-1.54-0.59-2.12,0
				c-0.59,0.59-0.59,1.54,0,2.12l1.83,1.83l0,0l1.06,1.06c0.59,0.59,0.59,1.54,0,2.12c-0.29,0.29-0.68,0.44-1.06,0.44
				s-0.77-0.15-1.06-0.44l-1.06-1.06l0,0l-2.33-2.33c-0.59-0.59-1.54-0.59-2.12,0c-0.59,0.59-0.59,1.54,0,2.12l2.33,2.33l0,0
				l1.06,1.06c0.59,0.59,0.59,1.54,0,2.12c-0.29,0.29-0.68,0.44-1.06,0.44c-0.38,0-0.77-0.15-1.06-0.44l-1.03-1.03v0l-0.86-0.86
				c-0.59-0.59-1.54-0.59-2.12,0c-0.59,0.59-0.59,1.54,0,2.12l1.42,1.42c-1.4,3.59-0.67,7.82,2.23,10.72l0,0
				c2.9,2.9,7.13,3.64,10.72,2.23l1.63,1.63c0.29,0.29,0.68,0.44,1.06,0.44s0.77-0.15,1.06-0.44c0.59-0.59,0.59-1.54,0-2.12
				l-1.07-1.07c0,0,0,0,0,0l-0.32-0.32c-0.59-0.59-0.59-1.54,0-2.12c0.59-0.59,1.54-0.59,2.12,0l0.35,0.35l0,0l2.56,2.56
				c0.29,0.29,0.68,0.44,1.06,0.44c0.38,0,0.77-0.15,1.06-0.44c0.59-0.59,0.59-1.54,0-2.12l-2.56-2.56l0,0l-0.35-0.35
				c-0.59-0.59-0.59-1.54,0-2.12c0.59-0.59,1.54-0.59,2.12,0l0.35,0.35l0,0l2.56,2.56c0.29,0.29,0.68,0.44,1.06,0.44
				s0.77-0.15,1.06-0.44c0.59-0.59,0.59-1.54,0-2.12l-2.91-2.91c0,0,0,0,0,0c-0.59-0.59-0.59-1.54,0-2.12
				c0.59-0.59,1.54-0.59,2.12,0l1.39,1.39c0.29,0.29,0.68,0.44,1.06,0.44c0.38,0,0.77-0.15,1.06-0.44
				C204.91,192.71,204.91,191.76,204.32,191.18z M183.14,197.57c-0.98,0.98-2.56,0.98-3.54,0c-0.98-0.98-0.98-2.56,0-3.54
				c0.98-0.98,2.56-0.98,3.54,0C184.11,195.01,184.11,196.59,183.14,197.57z M192.68,193.68c-0.78,0.78-2.05,0.78-2.83,0
				c-0.78-0.78-0.78-2.05,0-2.83c0.78-0.78,2.05-0.78,2.83,0C193.46,191.63,193.46,192.9,192.68,193.68z M195.86,184.14
				c-0.98,0.98-2.56,0.98-3.54,0c-0.98-0.98-0.98-2.56,0-3.54c0.98-0.98,2.56-0.98,3.54,0
				C196.84,181.58,196.84,183.16,195.86,184.14z"/>
			<path class="st2" d="M175.5,171.5c-0.9,0-1.79,0.34-2.47,1.03c-1.37,1.37-1.37,3.58,0,4.95c0.68,0.68,1.58,1.03,2.47,1.03
				c0.9,0,1.79-0.34,2.47-1.03c1.37-1.37,1.37-3.58,0-4.95C177.29,171.84,176.4,171.5,175.5,171.5z M174.5,204.5
				c-0.64,0-1.28,0.24-1.77,0.73c-0.98,0.98-0.98,2.56,0,3.54c0.49,0.49,1.13,0.73,1.77,0.73s1.28-0.24,1.77-0.73
				c0.98-0.98,0.98-2.56,0-3.54C175.78,204.74,175.14,204.5,174.5,204.5z M208.27,174.73c-0.49-0.49-1.13-0.73-1.77-0.73
				s-1.28,0.24-1.77,0.73c-0.98,0.98-0.98,2.56,0,3.54c0.49,0.49,1.13,0.73,1.77,0.73s1.28-0.24,1.77-0.73
				C209.24,177.29,209.24,175.71,208.27,174.73z"/>
		</g>
	</g>
	<g>
		<g>
			<path class="st2" d="M140.56,176.81l-4.36-4.36c-0.55-0.55-1.45-0.55-2,0h0c-0.55,0.55-0.55,1.45,0,2l0.51,0.51l-3.51,3.51
				l3.34,3.34l3.51-3.51l0.51,0.51c0.55,0.55,1.45,0.55,2,0C141.11,178.26,141.11,177.36,140.56,176.81z"/>
			<path class="st2" d="M136.76,186.85l-10.61-10.61c-0.2-0.2-0.51-0.2-0.71,0l-2.12,2.12c-0.2,0.2-0.2,0.51,0,0.71l1.37,1.37
				l-15.02,15.02c-1.45,1.45-1.54,3.73-0.3,5.3l-0.49,0.49c-0.33,0.33-0.36,0.84-0.13,1.22l-4.37,4.37c-0.49,0.49-0.49,1.28,0,1.77
				c0.24,0.24,0.56,0.37,0.88,0.37c0.32,0,0.64-0.12,0.88-0.37l4.37-4.37c0.39,0.24,0.89,0.21,1.22-0.13l0.49-0.49
				c1.57,1.24,3.85,1.15,5.3-0.3l15.02-15.02l1.37,1.37c0.2,0.2,0.51,0.2,0.71,0l2.12-2.12
				C136.95,187.36,136.95,187.05,136.76,186.85z M115.92,196.27l-2.7,2.7c-0.24,0.24-0.56,0.37-0.88,0.37
				c-0.32,0-0.64-0.12-0.88-0.37c-0.49-0.49-0.49-1.28,0-1.77l2.7-2.7c0.49-0.49,1.28-0.49,1.77,0
				C116.4,194.99,116.4,195.78,115.92,196.27z M119.9,192.28l-0.93,0.92c-0.24,0.24-0.56,0.37-0.88,0.37s-0.64-0.12-0.88-0.37
				c-0.49-0.49-0.49-1.28,0-1.77l0.93-0.92c0.49-0.49,1.28-0.49,1.77,0C120.39,191,120.39,191.8,119.9,192.28z M127.26,190.06
				l-6.25-2.4l4.71-4.71l4.33,4.33L127.26,190.06z"/>
		</g>
	</g>
	<g>
		<g>
			<path class="st2" d="M69.65,197.42c-0.28-3.83-3.65-5.98-5.66-9.65c-0.38-0.7-1.37-0.7-1.75,0c-2.01,3.68-5.38,5.83-5.66,9.65
				c-0.28,3.83,2.88,6.94,6.53,6.94C66.77,204.36,69.93,201.25,69.65,197.42z M61.78,200.05c-1.04,0-1.88-0.84-1.88-1.88
				c0-1.04,0.84-1.88,1.88-1.88c1.04,0,1.88,0.84,1.88,1.88C63.66,199.21,62.82,200.05,61.78,200.05z"/>
			<path class="st2" d="M58,173.5h-3.33v0c0-1.1-0.9-2-2-2h-4c-1.1,0-2,0.9-2,2v0h-3.33c-2.21,0-4,1.79-4,4v20.68
				c0,1.6,0.95,3.04,2.42,3.68l4.91,2.1V206c0,0.28,0.22,0.5,0.5,0.5h1.5v1c0,1.1,0.9,2,2,2c1.1,0,2-0.9,2-2v-1h1.5
				c0.28,0,0.5-0.22,0.5-0.5v-2.04l1.33-0.57c-1.39-1.75-2.07-3.91-1.91-6.15c0.23-3.2,2.05-5.45,3.65-7.44
				c0.86-1.07,1.67-2.07,2.3-3.23c0.43-0.78,1.13-1.35,1.95-1.63v-7.43C62,175.29,60.21,173.5,58,173.5z M47.67,198.25h-2.5
				c-0.69,0-1.25-0.56-1.25-1.25c0-0.69,0.56-1.25,1.25-1.25h2.5c0.69,0,1.25,0.56,1.25,1.25
				C48.92,197.69,48.36,198.25,47.67,198.25z M47.67,193.25h-2.5c-0.69,0-1.25-0.56-1.25-1.25c0-0.69,0.56-1.25,1.25-1.25h2.5
				c0.69,0,1.25,0.56,1.25,1.25C48.92,192.69,48.36,193.25,47.67,193.25z M47.67,188.25h-2.5c-0.69,0-1.25-0.56-1.25-1.25
				c0-0.69,0.56-1.25,1.25-1.25h2.5c0.69,0,1.25,0.56,1.25,1.25C48.92,187.69,48.36,188.25,47.67,188.25z M58,182.5H43.33v-5H58
				V182.5z"/>
		</g>
	</g>
	<g>
		<g>
			<path class="st2" d="M394.21,121.97c-0.07-0.25-0.31-0.41-0.56-0.37l-3.6,0.55c-0.25,0.04-0.49-0.12-0.56-0.37l-0.32-1.2
				l-4.97,7.59c-0.58,0.9-1.67,1.32-2.71,1.07c-1.71-0.41-4.07-0.28-3.42,3.88c0.16,1.04,0.71,2,1.6,2.55
				c0.87,0.54,1.86,0.71,2.8,0.56c0.33,1.19,1.19,2.25,2.51,2.76c1.64,0.63,3.54,0.04,4.64-1.32c1-1.24,0.67-2.39-0.2-3.4
				c-0.74-0.86-0.85-2.08-0.23-3.03l5.2-7.94c0.08-0.12,0.1-0.26,0.07-0.4L394.21,121.97z M410.56,112.37
				c-0.53-0.88-1.33-1.48-2.24-1.77c0.25-1.21-0.04-2.53-0.99-3.57c-1.17-1.29-3.11-1.63-4.7-0.91c-1.44,0.64-1.67,1.81-1.36,3.08
				c0.27,1.1-0.19,2.24-1.16,2.81l-7.6,4.67c-0.12,0.07-0.2,0.19-0.23,0.32l-0.22,1.01c-0.05,0.25,0.09,0.5,0.33,0.58l3.46,1.13
				c0.24,0.08,0.39,0.33,0.33,0.58l-0.25,1.16l7.23-4.46c0.92-0.54,2.08-0.42,2.89,0.27c1.33,1.12,3.47,2.03,4.76-1.92
				C411.15,114.36,411.1,113.27,410.56,112.37z"/>
			<path class="st2" d="M386.77,116.77l-3.39,0.07c-0.3,0.01-0.53,0.28-0.48,0.58l0.29,1.8c0.05,0.29,0.33,0.48,0.61,0.41l3.09-0.77
				c0.22-0.06,0.38-0.26,0.38-0.49v-1.1C387.28,116.99,387.05,116.76,386.77,116.77z M386.57,113.68l-1.61-2.42
				c-0.17-0.26-0.55-0.3-0.77-0.08l-1.61,1.61c-0.27,0.27-0.14,0.74,0.23,0.84l3.22,0.81C386.47,114.55,386.82,114.06,386.57,113.68
				z M391.44,109.97l-2.64,0.66c-0.28,0.07-0.45,0.37-0.35,0.64l1.32,3.95c0.16,0.47,0.82,0.45,0.96-0.02l1.32-4.61
				C392.15,110.22,391.82,109.87,391.44,109.97z M403.51,121.76h-3.84c-0.23,0-0.43,0.15-0.48,0.37l-0.19,0.71
				c-0.08,0.29,0.12,0.58,0.42,0.62l3.5,0.48c0.22,0.03,0.43-0.09,0.52-0.29l0.53-1.19C404.12,122.13,403.87,121.76,403.51,121.76z
				 M402.28,126.89l-3.21-0.85c-0.44-0.12-0.8,0.37-0.55,0.76l1.58,2.44c0.17,0.26,0.54,0.31,0.77,0.09l1.63-1.59
				C402.78,127.46,402.66,126.98,402.28,126.89z M395.91,127.04c-0.19-0.45-0.85-0.39-0.95,0.09l-0.98,4.7
				c-0.08,0.38,0.28,0.7,0.65,0.58l2.58-0.85c0.28-0.09,0.42-0.4,0.31-0.67L395.91,127.04z"/>
		</g>
	</g>
	<g>
		<g>
			<g>
				<g>
					<path class="st2" d="M326.11,125.9v-16.27c0-2.83-2.3-5.13-5.13-5.13s-5.13,2.3-5.13,5.13v16.27c-1.8,1.45-2.99,3.64-3.07,6.13
						c-0.15,4.53,3.4,8.32,7.93,8.47c4.53,0.15,8.32-3.4,8.47-7.93C329.27,129.88,328.05,127.46,326.11,125.9z M320.86,137.18
						c-0.01,0-0.03,0-0.04,0c-1.3-0.04-2.51-0.59-3.4-1.54c-0.89-0.95-1.36-2.19-1.32-3.5c0.02-0.69,0.6-1.28,1.29-1.21
						c0.69,0.02,1.23,0.6,1.21,1.29c-0.04,1.31,0.99,2.42,2.3,2.46c0.69,0.02,1.23,0.6,1.21,1.29
						C322.08,136.64,321.53,137.18,320.86,137.18z M323.11,120.5h-4.26v-10.87c0-1.17,0.95-2.13,2.13-2.13s2.13,0.95,2.13,2.13
						V120.5z"/>
					<path class="st2" d="M338.98,111.5c-0.69,0-1.25,0.56-1.25,1.25c0,0.55-0.45,1-1,1s-1-0.45-1-1v-4.5c0-0.55,0.45-1,1-1
						s1,0.45,1,1c0,0.69,0.56,1.25,1.25,1.25s1.25-0.56,1.25-1.25c0-1.93-1.57-3.5-3.5-3.5c-1.93,0-3.5,1.57-3.5,3.5v4.5
						c0,1.93,1.57,3.5,3.5,3.5c1.93,0,3.5-1.57,3.5-3.5C340.23,112.06,339.67,111.5,338.98,111.5z M329.98,104.75c-1.1,0-2,0.9-2,2
						c0,1.1,0.9,2,2,2c1.1,0,2-0.9,2-2C331.98,105.65,331.08,104.75,329.98,104.75z"/>
				</g>
			</g>
		</g>
	</g>
	<g>
		<g>
			<path class="st2" d="M273.99,111.6c-0.57-3.48-3.35-6.3-6.82-6.91c-2.59-0.45-5.01,0.27-6.82,1.73c-1.09,0.88-2.59,0.88-3.69,0
				c-1.81-1.45-4.22-2.18-6.81-1.73c-3.51,0.61-6.31,3.48-6.85,6.99c-0.36,2.31,0.22,4.48,1.42,6.18c1.54,2.19,2.03,4.95,1.22,7.51
				c-0.03,0.08-0.05,0.17-0.08,0.25c-2.08,6.88-0.47,13.45,3.59,14.68l0.04,0.01c2.02,0.6,4.05-0.92,4.05-3.03v-3.52
				c0-2.61,1.91-4.94,4.51-5.19c2.98-0.28,5.49,2.05,5.49,4.98v3.55c0,1.55,1.06,2.94,2.58,3.23c0.75,0.14,1.5,0.12,2.21-0.1
				c3.95-1.19,5.47-7.7,3.41-14.55c-0.03-0.11-0.07-0.21-0.1-0.32c-0.79-2.47-0.48-5.22,1.07-7.3
				C273.74,116.32,274.39,114.04,273.99,111.6z M250.76,121.55c-0.83,0-1.5-0.67-1.5-1.49c0-0.83,0.67-1.5,1.5-1.5
				s1.49,0.67,1.49,1.5C252.25,120.88,251.58,121.55,250.76,121.55z M254.23,110.4c-0.29,0.63-1.03,0.9-1.66,0.61
				c-0.29-0.14-0.61-0.21-0.94-0.21c-1.23,0-2.22,1-2.22,2.22c0,0.65,0.29,1.27,0.78,1.69c0.53,0.45,0.59,1.24,0.14,1.76
				c-0.25,0.29-0.6,0.44-0.95,0.44c-0.29,0-0.57-0.1-0.81-0.3c-1.06-0.9-1.67-2.21-1.67-3.6c0-2.6,2.12-4.72,4.72-4.72
				c0.69,0,1.36,0.15,1.99,0.44C254.25,109.03,254.52,109.77,254.23,110.4z"/>
			<path class="st2" d="M259.75,131.55h-3c-0.83,0-1.5,0.67-1.5,1.5c0,0.83,0.67,1.5,1.5,1.5h3c0.83,0,1.5-0.67,1.5-1.5
				C261.25,132.23,260.58,131.55,259.75,131.55z"/>
		</g>
	</g>
	<g>
		<g>
			<path class="st2" d="M210.13,138.62l-1.8-5.4c-0.1-0.31-0.07-0.64,0.08-0.93c1.35-2.63,1.91-5.73,1.33-9
				c-0.9-5.01-4.57-9.18-9.33-10.78c1.23,2.97,1.6,6.27,0.99,9.54c-1.25,6.65-6.57,11.93-13.25,13.12
				c-0.86,0.16-1.74,0.23-2.61,0.25c2.03,2.19,4.74,3.74,7.76,4.29c3.25,0.58,6.34,0.04,8.96-1.29c0.29-0.15,0.62-0.18,0.92-0.08
				l5.42,1.81C209.55,140.47,210.45,139.57,210.13,138.62z"/>
			<path class="st2" d="M182.41,105.03c-5.63,1.05-10.14,5.62-11.15,11.26c-0.59,3.27-0.03,6.37,1.33,9
				c0.15,0.29,0.18,0.62,0.08,0.93l-1.8,5.4c-0.32,0.95,0.59,1.85,1.54,1.54l5.42-1.81c0.31-0.1,0.63-0.07,0.92,0.08
				c2.62,1.33,5.71,1.88,8.96,1.29c5.62-1.01,10.18-5.51,11.24-11.12C200.8,111.7,192.3,103.2,182.41,105.03z M191.01,120.52
				c0,0.28-0.22,0.5-0.5,0.5h-3.5v3.5c0,0.28-0.22,0.5-0.5,0.5h-4c-0.28,0-0.5-0.22-0.5-0.5v-3.5h-3.5c-0.28,0-0.5-0.22-0.5-0.5v-4
				c0-0.28,0.22-0.5,0.5-0.5h3.5v-3.5c0-0.28,0.22-0.5,0.5-0.5h4c0.28,0,0.5,0.22,0.5,0.5v3.5h3.5c0.28,0,0.5,0.22,0.5,0.5V120.52z"
				/>
		</g>
	</g>
	<g>
		<g>
			<path class="st2" d="M122.5,124.41c5.31,0,9.61-4.3,9.61-9.61c0-5.31-4.3-9.61-9.61-9.61c-5.31,0-9.61,4.3-9.61,9.61
				C112.89,120.11,117.19,124.41,122.5,124.41z M132.07,127.33h-3.42c-0.76,0-1.47,0.37-1.91,1l-2.39,3.42
				c-0.94,1.34-2.92,1.33-3.84-0.03l-2.29-3.37c-0.43-0.64-1.16-1.02-1.93-1.02h-3.36c-4.33,0-7.83,3.51-7.83,7.83v3.48
				c0,0.64,0.52,1.17,1.17,1.17h32.47c0.64,0,1.17-0.52,1.17-1.17v-3.48C139.9,130.83,136.4,127.33,132.07,127.33z M135.85,134.87
				c0,0.28-0.22,0.5-0.5,0.5h-1.83v1.83c0,0.28-0.22,0.5-0.5,0.5h-1.5c-0.28,0-0.5-0.22-0.5-0.5v-1.83h-1.83
				c-0.28,0-0.5-0.22-0.5-0.5v-1.5c0-0.28,0.22-0.5,0.5-0.5h1.83v-1.83c0-0.28,0.22-0.5,0.5-0.5h1.5c0.28,0,0.5,0.22,0.5,0.5v1.83
				h1.83c0.28,0,0.5,0.22,0.5,0.5V134.87z"/>
			<path class="st2" d="M123.65,127.15h-2c-0.69,0-1.25,0.56-1.25,1.25c0,0.69,0.56,1.25,1.25,1.25h2c0.69,0,1.25-0.56,1.25-1.25
				C124.9,127.71,124.34,127.15,123.65,127.15z"/>
		</g>
	</g>
	<g>
		<g>
			<path class="st2" d="M43.51,124.94c-0.39-0.39-1.02-0.39-1.41,0l-2.27,2.27c-2.71,2.71-2.99,7.16-0.36,9.95
				c2.72,2.89,7.27,2.94,10.05,0.15l2.48-2.48c0.39-0.39,0.39-1.02,0-1.41L43.51,124.94z M69.16,107.47
				c-2.79-2.63-7.24-2.35-9.95,0.36l-2.27,2.27c-0.39,0.39-0.39,1.02,0,1.41l8.49,8.49c0.39,0.39,1.02,0.39,1.41,0l2.48-2.48
				C72.1,114.73,72.05,110.18,69.16,107.47z"/>
			<path class="st2" d="M63.66,121.76l-8.49-8.49c-0.39-0.39-1.02-0.39-1.41,0l-8.49,8.49c-0.39,0.39-0.39,1.02,0,1.41l8.49,8.49
				c0.39,0.39,1.02,0.39,1.41,0l8.49-8.49C64.05,122.78,64.05,122.15,63.66,121.76z M50.58,123.53c-0.59,0.59-1.54,0.59-2.12,0
				c-0.59-0.59-0.59-1.54,0-2.12c0.59-0.59,1.54-0.59,2.12,0C51.16,121.99,51.16,122.94,50.58,123.53z M55.53,128.48
				c-0.59,0.59-1.54,0.59-2.12,0c-0.59-0.59-0.59-1.54,0-2.12c0.59-0.59,1.54-0.59,2.12,0C56.11,126.94,56.11,127.89,55.53,128.48z
				 M55.53,123.53c-0.59,0.59-1.54,0.59-2.12,0s-0.59-1.54,0-2.12s1.54-0.59,2.12,0C56.11,121.99,56.11,122.94,55.53,123.53z
				 M55.53,118.58c-0.59,0.59-1.54,0.59-2.12,0c-0.59-0.59-0.59-1.54,0-2.12s1.54-0.59,2.12,0
				C56.11,117.04,56.11,117.99,55.53,118.58z M60.48,123.53c-0.59,0.59-1.54,0.59-2.12,0c-0.59-0.59-0.59-1.54,0-2.12
				c0.59-0.59,1.54-0.59,2.12,0C61.06,121.99,61.06,122.94,60.48,123.53z"/>
		</g>
	</g>
</g>
<g id="title" class="st0">
	<g class="st3">
		<path class="st2" d="M31.77,46.17c0-0.68,0.44-1.12,1.12-1.12h1.12c0.68,0,1.12,0.44,1.12,1.12v5.41h5.43v-5.41
			c0-0.68,0.44-1.12,1.12-1.12h1.12c0.68,0,1.12,0.44,1.12,1.12V60.2c0,0.68-0.44,1.12-1.12,1.12h-1.12c-0.68,0-1.12-0.44-1.12-1.12
			v-5.87h-5.43v5.87c0,0.68-0.44,1.12-1.12,1.12h-1.12c-0.68,0-1.12-0.44-1.12-1.12V46.17z"/>
		<path class="st2" d="M47.01,49.52c0-2.7,1.72-4.47,5.15-4.47h3.38c0.68,0,1.12,0.44,1.12,1.12v0.56c0,0.68-0.44,1.12-1.12,1.12
			H52.2c-1.4,0-1.84,0.63-1.84,1.93v1.82h4.47c0.68,0,1.12,0.44,1.12,1.12v0.54c0,0.68-0.44,1.12-1.12,1.12h-4.47v2.24
			c0,1.33,0.44,1.91,1.84,1.91h3.43c0.68,0,1.12,0.44,1.12,1.12v0.56c0,0.68-0.44,1.12-1.12,1.12h-3.47c-3.4,0-5.15-1.77-5.15-4.45
			V49.52z"/>
		<path class="st2" d="M62.1,47.61c0.4-1.54,1.54-2.87,3.49-2.87c1.91,0,3.08,1.37,3.47,2.87l3.29,12.47
			c0.16,0.63-0.19,1.24-0.91,1.24h-1.12c-0.68,0-1.14-0.47-1.3-1.12l-0.77-3.05h-5.31l-0.75,3.03c-0.19,0.75-0.58,1.14-1.26,1.14
			h-1.19c-0.72,0-1.05-0.63-0.89-1.26L62.1,47.61z M67.58,54.39L66,48.01c-0.05-0.23-0.19-0.4-0.4-0.4c-0.23,0-0.35,0.16-0.4,0.4
			l-1.58,6.38H67.58z"/>
		<path class="st2" d="M75.15,46.17c0-0.68,0.44-1.12,1.12-1.12h1.12c0.68,0,1.12,0.44,1.12,1.12v12.35h5.78
			c0.68,0,1.12,0.44,1.12,1.12v0.56c0,0.68-0.44,1.12-1.12,1.12h-8.02c-0.68,0-1.12-0.44-1.12-1.12V46.17z"/>
		<path class="st2" d="M88.99,47.85h-2.66c-0.68,0-1.12-0.44-1.12-1.12v-0.56c0-0.68,0.44-1.12,1.12-1.12H95
			c0.68,0,1.12,0.44,1.12,1.12v0.56c0,0.68-0.44,1.12-1.12,1.12h-2.66V60.2c0,0.68-0.44,1.12-1.12,1.12h-1.12
			c-0.68,0-1.12-0.44-1.12-1.12V47.85z"/>
		<path class="st2" d="M98.5,46.17c0-0.68,0.44-1.12,1.12-1.12h1.12c0.68,0,1.12,0.44,1.12,1.12v5.41h5.43v-5.41
			c0-0.68,0.44-1.12,1.12-1.12h1.12c0.68,0,1.12,0.44,1.12,1.12V60.2c0,0.68-0.44,1.12-1.12,1.12h-1.12c-0.68,0-1.12-0.44-1.12-1.12
			v-5.87h-5.43v5.87c0,0.68-0.44,1.12-1.12,1.12h-1.12c-0.68,0-1.12-0.44-1.12-1.12V46.17z"/>
		<path class="st2" d="M121.26,52.55c-1.21-0.77-1.91-1.96-1.91-3.47c0-2.82,2.42-4.99,5.85-4.99c1,0,1.86,0.14,2.28,0.23
			c0.65,0.14,1,0.7,0.86,1.35l-0.12,0.56c-0.14,0.65-0.7,0.96-1.38,0.84c-0.4-0.07-0.91-0.14-1.61-0.14c-1.58,0-2.4,0.82-2.4,2.14
			c0,1.44,0.82,2.35,2.4,2.35h4.85c0.68,0,1.12,0.37,1.12,1.05v0.37c0,0.68-0.44,1.05-1.12,1.05h-0.16v5.52
			c0,0.68-0.35,1.26-1.07,1.51c-0.72,0.26-2.26,0.68-3.94,0.68c-3.98,0-6.17-2.19-6.17-5.15C118.74,54.65,119.65,53.3,121.26,52.55z
			 M124.96,58.77c0.72,0,1.58-0.09,2.24-0.3V53.9h-2.21c-1.89,0-2.75,0.98-2.75,2.52C122.24,57.89,123.03,58.77,124.96,58.77z"/>
		<path class="st2" d="M139.54,46.24c0.09-0.77,0.58-1.19,1.26-1.19h1.4c0.68,0,1.19,0.4,1.4,1.09l3.24,10.97
			c0.02,0.09,0.09,0.26,0.19,0.26c0.09,0,0.16-0.16,0.19-0.26l3.22-10.95c0.21-0.72,0.72-1.12,1.4-1.12h1.4
			c0.68,0,1.17,0.44,1.26,1.17l1.65,13.93c0.09,0.75-0.3,1.17-0.98,1.17h-1.12c-0.68,0-1.14-0.44-1.21-1.12l-0.61-6.08
			c-0.09-0.84-0.14-1.96-0.19-3.08c-0.21,1.14-0.44,2.24-0.7,3.08l-1,3.38c-0.44,1.51-1.33,2.82-3.31,2.82
			c-1.96,0-2.89-1.3-3.31-2.82l-1-3.52c-0.26-0.84-0.49-1.93-0.7-3.05c-0.05,1.14-0.09,2.26-0.19,3.12l-0.63,6.13
			c-0.07,0.68-0.51,1.14-1.19,1.14h-1.14c-0.68,0-1.07-0.44-0.98-1.17L139.54,46.24z"/>
		<path class="st2" d="M158.58,49.52c0-2.7,1.72-4.47,5.15-4.47h3.38c0.68,0,1.12,0.44,1.12,1.12v0.56c0,0.68-0.44,1.12-1.12,1.12
			h-3.33c-1.4,0-1.84,0.63-1.84,1.93v1.82h4.47c0.68,0,1.12,0.44,1.12,1.12v0.54c0,0.68-0.44,1.12-1.12,1.12h-4.47v2.24
			c0,1.33,0.44,1.91,1.84,1.91h3.43c0.68,0,1.12,0.44,1.12,1.12v0.56c0,0.68-0.44,1.12-1.12,1.12h-3.47c-3.4,0-5.15-1.77-5.15-4.45
			V49.52z"/>
		<path class="st2" d="M171.18,46.17c0-0.68,0.44-1.12,1.12-1.12h4.99c4.19,0,6.17,1.93,6.17,6.06v4.15c0,4.12-1.98,6.06-6.17,6.06
			h-4.99c-0.68,0-1.12-0.44-1.12-1.12V46.17z M177.19,58.52c2.56,0,2.82-1.35,2.82-3.5v-3.66c0-2.12-0.26-3.52-2.82-3.52h-2.66
			v10.67H177.19z"/>
		<path class="st2" d="M186.44,46.17c0-0.68,0.44-1.12,1.12-1.12h1.12c0.68,0,1.12,0.44,1.12,1.12V60.2c0,0.68-0.44,1.12-1.12,1.12
			h-1.12c-0.68,0-1.12-0.44-1.12-1.12V46.17z"/>
		<path class="st2" d="M192.8,50.76c0-3.87,2.35-6.01,6.06-6.01c1.72,0,2.91,0.23,3.87,0.47c0.51,0.14,0.75,0.56,0.63,1.09
			l-0.21,0.96c-0.12,0.51-0.61,0.75-1.12,0.61c-0.63-0.14-1.49-0.33-2.7-0.33c-1.91,0-3.08,0.82-3.08,3.47v4.33
			c0,2.66,1.17,3.47,3.08,3.47c1.49,0,2.4-0.26,2.82-0.35c0.56-0.14,0.89,0.12,1,0.63l0.21,0.96c0.09,0.47-0.12,0.96-0.63,1.1
			c-0.54,0.14-1.93,0.47-3.87,0.47c-3.7,0-6.06-2.12-6.06-6.01V50.76z"/>
		<path class="st2" d="M208.9,47.61c0.4-1.54,1.54-2.87,3.49-2.87c1.91,0,3.08,1.37,3.47,2.87l3.29,12.47
			c0.16,0.63-0.19,1.24-0.91,1.24h-1.12c-0.68,0-1.14-0.47-1.3-1.12l-0.77-3.05h-5.31L209,60.17c-0.19,0.75-0.58,1.14-1.26,1.14
			h-1.19c-0.72,0-1.05-0.63-0.89-1.26L208.9,47.61z M214.38,54.39l-1.58-6.38c-0.05-0.23-0.19-0.4-0.4-0.4
			c-0.23,0-0.35,0.16-0.4,0.4l-1.58,6.38H214.38z"/>
		<path class="st2" d="M221.95,46.17c0-0.68,0.44-1.12,1.12-1.12h1.12c0.68,0,1.12,0.44,1.12,1.12v12.35h5.78
			c0.68,0,1.12,0.44,1.12,1.12v0.56c0,0.68-0.44,1.12-1.12,1.12h-8.02c-0.68,0-1.12-0.44-1.12-1.12V46.17z"/>
		<path class="st4" d="M240.03,45.71c0-0.7,0.46-1.15,1.15-1.15h1.15c0.7,0,1.15,0.46,1.15,1.15v14.45c0,0.7-0.46,1.15-1.15,1.15
			h-1.15c-0.7,0-1.15-0.46-1.15-1.15V45.71z"/>
		<path class="st4" d="M246.58,50.44c0-3.98,2.42-6.19,6.24-6.19c1.78,0,3,0.24,3.98,0.48c0.53,0.14,0.77,0.58,0.65,1.13l-0.22,0.98
			c-0.12,0.53-0.62,0.77-1.15,0.62c-0.65-0.14-1.54-0.34-2.78-0.34c-1.97,0-3.17,0.84-3.17,3.58v4.46c0,2.74,1.2,3.58,3.17,3.58
			c1.54,0,2.47-0.26,2.9-0.36c0.58-0.14,0.91,0.12,1.03,0.65l0.22,0.98c0.1,0.48-0.12,0.98-0.65,1.13
			c-0.55,0.14-1.99,0.48-3.98,0.48c-3.82,0-6.24-2.18-6.24-6.19V50.44z"/>
		<path class="st4" d="M260.02,51.4c0-4.13,2.47-7.15,6.74-7.15c4.27,0,6.74,3.02,6.74,7.15v3.07c0,4.13-2.47,7.15-6.74,7.15
			c-4.27,0-6.74-3.02-6.74-7.15V51.4z M269.95,54.21v-2.54c0-2.42-0.65-4.54-3.19-4.54c-2.52,0-3.19,2.11-3.19,4.54v2.54
			c0,2.45,0.67,4.54,3.19,4.54C269.31,58.75,269.95,56.66,269.95,54.21z"/>
		<path class="st4" d="M276.58,45.71c0-0.7,0.46-1.15,1.15-1.15h0.96c0.7,0,1.22,0.38,1.61,1.06l5.33,9.41
			c-0.14-1.2-0.22-2.4-0.22-3.31v-6c0-0.7,0.46-1.15,1.15-1.15h1.1c0.7,0,1.15,0.46,1.15,1.15v14.45c0,0.7-0.46,1.15-1.15,1.15
			h-0.96c-0.7,0-1.25-0.38-1.63-1.06l-5.3-9.36c0.12,1.2,0.22,2.38,0.22,3.26v6c0,0.7-0.46,1.15-1.15,1.15h-1.1
			c-0.7,0-1.15-0.46-1.15-1.15V45.71z"/>
		<path class="st4" d="M291.7,59.56l0.14-0.62c0.17-0.74,0.7-0.94,1.34-0.74c0.46,0.12,1.73,0.55,3.24,0.55
			c1.63,0,2.3-0.86,2.3-2.02c0-3.26-6.94-2.04-6.94-7.78c0-2.98,2.5-4.7,5.78-4.7c1.54,0,2.59,0.34,3.19,0.53
			c0.65,0.22,1.01,0.74,0.77,1.46l-0.17,0.53c-0.22,0.65-0.77,0.94-1.46,0.72c-0.55-0.17-1.3-0.36-2.33-0.36
			c-1.44,0-2.16,0.72-2.16,1.82c0,2.81,6.94,2.09,6.94,7.78c0,2.95-2.4,4.9-5.93,4.9c-1.66,0-2.95-0.36-3.89-0.65
			C291.84,60.76,291.53,60.33,291.7,59.56z"/>
	</g>
</g>
</svg>
