<?xml version="1.0" encoding="utf-8"?>
<!-- Generator: Adobe Illustrator 24.1.1, SVG Export Plug-In . SVG Version: 6.00 Build 0)  -->
<svg version="1.1" xmlns="http://www.w3.org/2000/svg" xmlns:xlink="http://www.w3.org/1999/xlink" x="0px" y="0px"
	 viewBox="0 0 448 448" style="enable-background:new 0 0 448 448;" xml:space="preserve">
<style type="text/css">
	.st0{display:none;}
	.st1{display:inline;fill:#FFFFFF;}
	.st2{fill:#173042;}
	.st3{display:inline;}
	.st4{fill:#869093;}
</style>
<g id="grid" class="st0">
	<rect x="30" y="98" class="st1" width="48" height="48"/>
	<rect x="98" y="98" class="st1" width="48" height="48"/>
	<rect x="166" y="98" class="st1" width="48" height="48"/>
	<rect x="234" y="98" class="st1" width="48" height="48"/>
	<rect x="302" y="98" class="st1" width="48" height="48"/>
	<rect x="370" y="98" class="st1" width="48" height="48"/>
	<rect x="30" y="166" class="st1" width="48" height="48"/>
	<rect x="98" y="166" class="st1" width="48" height="48"/>
	<rect x="166" y="166" class="st1" width="48" height="48"/>
	<rect x="234" y="166" class="st1" width="48" height="48"/>
	<rect x="302" y="166" class="st1" width="48" height="48"/>
	<rect x="370" y="166" class="st1" width="48" height="48"/>
	<rect x="30" y="234" class="st1" width="48" height="48"/>
	<rect x="98" y="234" class="st1" width="48" height="48"/>
	<rect x="370" y="234" class="st1" width="48" height="48"/>
	<rect x="30" y="302" class="st1" width="48" height="48"/>
	<rect x="98" y="302" class="st1" width="48" height="48"/>
	<rect x="166" y="234" class="st1" width="48" height="48"/>
	<rect x="234" y="234" class="st1" width="48" height="48"/>
	<rect x="302" y="234" class="st1" width="48" height="48"/>
	<rect x="166" y="302" class="st1" width="48" height="48"/>
	<rect x="234" y="302" class="st1" width="48" height="48"/>
	<rect x="302" y="302" class="st1" width="48" height="48"/>
	<rect x="370" y="302" class="st1" width="48" height="48"/>
	<rect x="30" y="370" class="st1" width="48" height="48"/>
	<rect x="98" y="370" class="st1" width="48" height="48"/>
	<rect x="166" y="370" class="st1" width="48" height="48"/>
	<rect x="234" y="370" class="st1" width="48" height="48"/>
	<rect x="302" y="370" class="st1" width="48" height="48"/>
	<rect x="370" y="370" class="st1" width="48" height="48"/>
</g>
<g id="icons">
	<g>
		<g>
			<path class="st2" d="M401,376.75h-13c-0.83,0-1.5,0.67-1.5,1.5s0.67,1.5,1.5,1.5h13c0.83,0,1.5-0.67,1.5-1.5
				S401.83,376.75,401,376.75z"/>
			<path class="st2" d="M407.54,405.99l-6.83-9.97c-0.46-0.67-0.7-1.45-0.7-2.26v-11.01c0-0.28-0.22-0.5-0.5-0.5h-10
				c-0.28,0-0.5,0.22-0.5,0.5v11.01c0,0.81-0.24,1.6-0.7,2.26l-6.83,9.97c-1.82,2.65,0.08,6.26,3.3,6.26h19.47
				C407.45,412.25,409.36,408.64,407.54,405.99z M390.12,403.04l-3.1,4.42c-0.24,0.35-0.63,0.53-1.02,0.53
				c-0.25,0-0.5-0.07-0.72-0.23c-0.57-0.4-0.7-1.18-0.31-1.74l3.1-4.42c0.4-0.56,1.17-0.7,1.74-0.31
				C390.38,401.7,390.52,402.48,390.12,403.04z M394.02,397.47l-0.88,1.25c-0.24,0.35-0.63,0.53-1.02,0.53
				c-0.25,0-0.5-0.07-0.72-0.23c-0.57-0.4-0.7-1.18-0.31-1.74l0.88-1.25c0.4-0.56,1.18-0.7,1.74-0.31
				C394.28,396.12,394.42,396.9,394.02,397.47z"/>
		</g>
	</g>
	<g>
		<g>
			<g>
				<g>
					<path class="st2" d="M345.85,411.61l-13.89-24.51c-0.73-1.29-2.6-1.27-3.29,0.04l-5.68,10.66l3.04,5.32
						c0.58,1.01,0.37,2.26-0.43,3.03c-0.35-0.05-0.44-0.07-0.79-0.12l-5.98-10.47c-0.74-1.29-2.61-1.26-3.3,0.06l-8.38,16
						c-0.16,0.31,0.06,0.69,0.42,0.69h37.88C345.8,412.31,346.03,411.92,345.85,411.61z"/>
					<path class="st2" d="M338.37,380.52c-0.16-0.19-0.16-0.46,0-0.65l2.01-2.35c0.28-0.32,0.05-0.83-0.38-0.83h-9.41
						c-0.28,0-0.5,0.22-0.5,0.5v6c0,0.28,0.22,0.5,0.5,0.5H340c0.43,0,0.66-0.5,0.38-0.83L338.37,380.52z"/>
				</g>
			</g>
		</g>
	</g>
	<g>
		<g>
			<path class="st2" d="M278.13,410.62l-1.8-5.4c-0.1-0.31-0.07-0.64,0.08-0.93c1.35-2.63,1.91-5.73,1.33-9
				c-0.9-5.01-4.57-9.18-9.33-10.78c1.23,2.97,1.6,6.27,0.99,9.54c-1.25,6.65-6.57,11.93-13.25,13.12
				c-0.86,0.16-1.74,0.23-2.61,0.25c2.03,2.19,4.74,3.74,7.76,4.29c3.25,0.58,6.34,0.04,8.96-1.29c0.29-0.15,0.62-0.18,0.92-0.08
				l5.42,1.81C277.55,412.47,278.45,411.57,278.13,410.62z"/>
			<path class="st2" d="M250.41,377.03c-5.63,1.05-10.14,5.62-11.15,11.26c-0.59,3.27-0.03,6.37,1.33,9
				c0.15,0.29,0.18,0.62,0.08,0.93l-1.8,5.4c-0.32,0.95,0.59,1.85,1.54,1.54l5.42-1.81c0.31-0.1,0.63-0.07,0.92,0.08
				c2.62,1.33,5.71,1.87,8.96,1.29c5.62-1.01,10.19-5.51,11.24-11.12C268.8,383.7,260.3,375.2,250.41,377.03z M254,395.25h-7
				c-0.69,0-1.25-0.56-1.25-1.25c0-0.69,0.56-1.25,1.25-1.25h7c0.69,0,1.25,0.56,1.25,1.25C255.25,394.69,254.69,395.25,254,395.25z
				 M259,390.25h-12c-0.69,0-1.25-0.56-1.25-1.25c0-0.69,0.56-1.25,1.25-1.25h12c0.69,0,1.25,0.56,1.25,1.25
				C260.25,389.69,259.69,390.25,259,390.25z"/>
		</g>
	</g>
	<g>
		<g>
			<path class="st2" d="M175.92,395.05c0.29,0.29,0.68,0.44,1.06,0.44c0.38,0,0.77-0.15,1.06-0.44l2.12-2.12l2.12,2.12
				c0.29,0.29,0.68,0.44,1.06,0.44c0.38,0,0.77-0.15,1.06-0.44c0.59-0.59,0.59-1.54,0-2.12l-2.12-2.12l2.12-2.12
				c0.59-0.59,0.59-1.54,0-2.12c-0.59-0.59-1.54-0.59-2.12,0l-2.12,2.12l-2.12-2.12c-0.59-0.59-1.54-0.59-2.12,0
				c-0.59,0.59-0.59,1.54,0,2.12l2.12,2.12l-2.12,2.12C175.33,393.52,175.33,394.47,175.92,395.05z M192.55,395.79
				c1.04-1.04,1.61-2.42,1.61-3.89v-6.77h-3v6.77c0,0.66-0.27,1.3-0.73,1.77l-8.25,8.25c-0.75-0.39-1.61-0.61-2.51-0.61
				c-3.03,0-5.5,2.47-5.5,5.5s2.47,5.5,5.5,5.5s5.5-2.47,5.5-5.5c0-1.04-0.29-2.01-0.8-2.83L192.55,395.79z M179.66,409.31
				c-1.38,0-2.5-1.12-2.5-2.5s1.12-2.5,2.5-2.5s2.5,1.12,2.5,2.5S181.04,409.31,179.66,409.31z M197.28,407.81l2.12-2.12
				c0.59-0.59,0.59-1.54,0-2.12c-0.59-0.59-1.54-0.59-2.12,0l-2.12,2.12l-2.12-2.12c-0.59-0.59-1.54-0.59-2.12,0
				c-0.59,0.59-0.59,1.54,0,2.12l2.12,2.12l-2.12,2.12c-0.59,0.59-0.59,1.54,0,2.12c0.29,0.29,0.68,0.44,1.06,0.44
				c0.38,0,0.77-0.15,1.06-0.44l2.12-2.12l2.12,2.12c0.29,0.29,0.68,0.44,1.06,0.44c0.38,0,0.77-0.15,1.06-0.44
				c0.59-0.59,0.59-1.54,0-2.12L197.28,407.81z"/>
			<path class="st2" d="M193.52,376.89c-0.45-0.51-1.24-0.51-1.68,0l-3.4,3.89c-0.63,0.72-0.12,1.85,0.84,1.85h6.81
				c0.96,0,1.47-1.13,0.84-1.85L193.52,376.89z M204.28,392.81l2.12-2.12c0.59-0.59,0.59-1.54,0-2.12c-0.59-0.59-1.54-0.59-2.12,0
				l-2.12,2.12l-2.12-2.12c-0.59-0.59-1.54-0.59-2.12,0c-0.59,0.59-0.59,1.54,0,2.12l2.12,2.12l-2.12,2.12
				c-0.59,0.59-0.59,1.54,0,2.12c0.29,0.29,0.68,0.44,1.06,0.44c0.38,0,0.77-0.15,1.06-0.44l2.12-2.12l2.12,2.12
				c0.29,0.29,0.68,0.44,1.06,0.44c0.38,0,0.77-0.15,1.06-0.44c0.59-0.59,0.59-1.54,0-2.12L204.28,392.81z"/>
		</g>
	</g>
	<g>
		<g>
			<path class="st2" d="M137.43,377.94l-31.45,13.71c-1.54,0.67-1.62,2.84-0.12,3.61l6.38,3.29l19-13.22
				c0.2-0.14,0.41,0.03,0.42,0.21l-15.92,15.19c-0.4,0.38-0.62,0.9-0.62,1.45v7.04c0,2.02,2.65,2.77,3.71,1.04l3.86-6.32l8.17,4.22
				c1.15,0.59,2.56-0.05,2.86-1.31l6.45-26.61C140.56,378.64,138.94,377.28,137.43,377.94z"/>
		</g>
	</g>
	<g>
		<g>
			<path class="st2" d="M59.31,407.12h-9.61c-0.9,0-1.63,0.73-1.63,1.63v0.23c0,0.9,0.73,1.63,1.63,1.63h1.59V411c0,1.66,1.34,3,3,3
				h0.43c1.66,0,3-1.34,3-3v-0.39h1.59c0.9,0,1.63-0.73,1.63-1.63v-0.23C60.93,407.85,60.2,407.12,59.31,407.12z"/>
			<path class="st2" d="M53.01,375.08c-5.41,0.61-10.61,5.79-11.25,11.19c-0.48,4.08,0.96,7.83,3.52,10.47
				c1.49,1.53,2.31,3.59,2.31,5.72v0c0,1.09,0.88,1.97,1.97,1.97h9.87c1.09,0,1.97-0.88,1.97-1.97c0-2.11,0.78-4.17,2.26-5.67
				c2.26-2.31,3.66-5.47,3.66-8.96C67.33,380.25,60.76,374.21,53.01,375.08z M53.25,399.5c0,0.69-0.56,1.25-1.25,1.25
				c-0.69,0-1.25-0.56-1.25-1.25v-5.41c0-1.7-1.38-3.08-3.08-3.08c-0.69,0-1.25-0.56-1.25-1.25c0-0.69,0.56-1.25,1.25-1.25
				c3.08,0,5.58,2.5,5.58,5.58V399.5z M61.33,391.01c-1.7,0-3.08,1.38-3.08,3.08v5.41c0,0.69-0.56,1.25-1.25,1.25
				c-0.69,0-1.25-0.56-1.25-1.25v-5.41c0-3.08,2.5-5.58,5.58-5.58c0.69,0,1.25,0.56,1.25,1.25
				C62.58,390.45,62.02,391.01,61.33,391.01z"/>
		</g>
	</g>
	<g>
		<g>
			<path class="st2" d="M415.68,335.63h0.02l-2.2-0.75V312.5c0-1.1-0.9-2-2-2h-34c-1.1,0-2,0.9-2,2v22.37l-2.2,0.75h0.02
				c-0.77,0.28-1.32,1.01-1.32,1.87v3c0,1.1,0.9,2,2,2h41c1.1,0,2-0.9,2-2v-3C417,336.64,416.45,335.91,415.68,335.63z M397,339.44
				h-5c-0.83,0-1.5-0.67-1.5-1.5c0-0.83,0.67-1.5,1.5-1.5h5c0.83,0,1.5,0.67,1.5,1.5C398.5,338.77,397.83,339.44,397,339.44z
				 M409.5,333.5h-30v-19h30V333.5z"/>
			<path class="st2" d="M399.72,318.09l-9.04,2.94c-0.82,0.27-0.94,1.37-0.2,1.81l2.21,1.31l-5.14,5.14c-0.39,0.39-0.39,1.02,0,1.41
				l0.76,0.76c0.39,0.39,1.02,0.39,1.41,0l5.19-5.19l1.28,2.22c0.43,0.75,1.54,0.64,1.82-0.18l2.97-8.97
				C401.23,318.58,400.5,317.84,399.72,318.09z"/>
		</g>
	</g>
	<g>
		<g>
			<path class="st2" d="M339,309.66h-4c-1.1,0-2,0.9-2,2c0,1.1-0.9,2-2,2s-2-0.9-2-2c0-1.1-0.9-2-2-2h-5c-1.1,0-2,0.9-2,2
				c0,1.1-0.9,2-2,2s-2-0.9-2-2c0-1.1-0.9-2-2-2h-4c-1.1,0-2,0.9-2,2v25c0,1.1,0.9,2,2,2h15.16c-0.53-1.34-0.84-2.79-0.84-4.32
				c0-6.45,5.23-11.68,11.68-11.68c1.79,0,3.48,0.42,5,1.14v-12.14C341,310.56,340.1,309.66,339,309.66z M314,333.84
				c-1.1,0-2-0.9-2-2c0-1.1,0.9-2,2-2s2,0.9,2,2C316,332.94,315.1,333.84,314,333.84z M314,327.84c-1.1,0-2-0.9-2-2c0-1.1,0.9-2,2-2
				s2,0.9,2,2C316,326.94,315.1,327.84,314,327.84z M320,333.84c-1.1,0-2-0.9-2-2c0-1.1,0.9-2,2-2s2,0.9,2,2
				C322,332.94,321.1,333.84,320,333.84z M320,327.84c-1.1,0-2-0.9-2-2c0-1.1,0.9-2,2-2s2,0.9,2,2
				C322,326.94,321.1,327.84,320,327.84z M320,321.84c-1.1,0-2-0.9-2-2c0-1.1,0.9-2,2-2s2,0.9,2,2
				C322,320.94,321.1,321.84,320,321.84z M326,321.84c-1.1,0-2-0.9-2-2c0-1.1,0.9-2,2-2s2,0.9,2,2
				C328,320.94,327.1,321.84,326,321.84z"/>
			<path class="st2" d="M336,325.34c-4.97,0-9,4.03-9,9c0,4.97,4.03,9,9,9c4.97,0,9-4.03,9-9C345,329.37,340.97,325.34,336,325.34z
				 M337.25,334.84c0,0.69-0.56,1.25-1.25,1.25h-5c-0.69,0-1.25-0.56-1.25-1.25s0.56-1.25,1.25-1.25h3.75v-4.75
				c0-0.69,0.56-1.25,1.25-1.25s1.25,0.56,1.25,1.25V334.84z"/>
		</g>
	</g>
	<g>
		<g>
			<g>
				<path class="st2" d="M266.54,332.92l-4.2-9.44c-0.16-0.37-0.45-0.65-0.82-0.82l-9.44-4.2c-0.89-0.4-2.01,0.72-1.61,1.61
					l4.2,9.44c0.16,0.37,0.45,0.65,0.82,0.82l9.44,4.2C265.81,334.93,266.93,333.81,266.54,332.92z M258.5,328.44
					c-1.07,0-1.94-0.87-1.94-1.94s0.87-1.94,1.94-1.94s1.94,0.87,1.94,1.94S259.57,328.44,258.5,328.44z"/>
				<path class="st2" d="M258.5,335c-0.83,0-1.5,0.67-1.5,1.5v1c0,0.83,0.67,1.5,1.5,1.5s1.5-0.67,1.5-1.5v-1
					C260,335.67,259.33,335,258.5,335z M249,325.5h-1c-0.83,0-1.5,0.67-1.5,1.5s0.67,1.5,1.5,1.5h1c0.83,0,1.5-0.67,1.5-1.5
					S249.83,325.5,249,325.5z M258.5,315c-0.83,0-1.5,0.67-1.5,1.5v1c0,0.83,0.67,1.5,1.5,1.5s1.5-0.67,1.5-1.5v-1
					C260,315.67,259.33,315,258.5,315z M258.5,307c-10.75,0-19.5,8.75-19.5,19.5s8.75,19.5,19.5,19.5c10.75,0,19.5-8.75,19.5-19.5
					S269.25,307,258.5,307z M258.5,341c-8,0-14.5-6.5-14.5-14.5s6.5-14.5,14.5-14.5c8,0,14.5,6.5,14.5,14.5S266.5,341,258.5,341z
					 M269,325.5h-1c-0.83,0-1.5,0.67-1.5,1.5s0.67,1.5,1.5,1.5h1c0.83,0,1.5-0.67,1.5-1.5S269.83,325.5,269,325.5z"/>
			</g>
		</g>
	</g>
	<g>
		<g>
			<g>
				<path class="st2" d="M208,322.21h-35c-0.28,0-0.5,0.22-0.5,0.5v16.54c0,2.21,1.79,4,4,4h28c2.21,0,4-1.79,4-4v-16.54
					C208.5,322.44,208.28,322.21,208,322.21z M186.32,336.17c-0.24,0.21-0.53,0.31-0.82,0.31c-0.35,0-0.7-0.15-0.94-0.43l-2-2.3
					c-0.39-0.44-0.41-1.09-0.06-1.56l2-2.7c0.41-0.56,1.19-0.67,1.75-0.26c0.56,0.41,0.67,1.19,0.26,1.75l-1.4,1.9l1.34,1.54
					C186.9,334.93,186.84,335.72,186.32,336.17z M192.71,329.57l-1.93,7c-0.15,0.55-0.66,0.92-1.2,0.92c-0.11,0-0.22-0.01-0.33-0.04
					c-0.66-0.18-1.06-0.87-0.87-1.54l1.93-7c0.18-0.67,0.87-1.05,1.54-0.87C192.5,328.21,192.89,328.9,192.71,329.57z M198.5,333.27
					l-2,2.7c-0.25,0.33-0.62,0.51-1.01,0.51c-0.26,0-0.52-0.08-0.74-0.25c-0.56-0.41-0.67-1.19-0.26-1.75l1.4-1.9l-1.34-1.54
					c-0.45-0.52-0.4-1.31,0.12-1.76c0.52-0.45,1.31-0.4,1.76,0.12l2,2.3C198.83,332.15,198.85,332.8,198.5,333.27z"/>
				<path class="st2" d="M204.5,309.75h-28c-2.21,0-4,1.79-4,4v5.46c0,0.28,0.22,0.5,0.5,0.5h35c0.28,0,0.5-0.22,0.5-0.5v-5.46
					C208.5,311.54,206.71,309.75,204.5,309.75z M178.5,316.75c-1.1,0-2-0.9-2-2c0-1.1,0.9-2,2-2c1.1,0,2,0.9,2,2
					C180.5,315.85,179.6,316.75,178.5,316.75z M185,316.75c-1.1,0-2-0.9-2-2c0-1.1,0.9-2,2-2c1.1,0,2,0.9,2,2
					C187,315.85,186.1,316.75,185,316.75z"/>
			</g>
		</g>
	</g>
	<g>
		<g>
			<path class="st2" d="M105.25,320.5c-1.1,0-2,0.9-2,2v17c0,1.1,0.9,2,2,2c1.1,0,2-0.9,2-2v-17
				C107.25,321.4,106.35,320.5,105.25,320.5z"/>
			<path class="st2" d="M139.75,311.5h-28c-1.1,0-2,0.93-2,2.07v27.93h28c2.21,0,4-1.85,4-4.14v-23.79
				C141.75,312.43,140.85,311.5,139.75,311.5z M127.75,317.5c0-0.55,0.45-1,1-1h6c0.55,0,1,0.45,1,1v6c0,0.55-0.45,1-1,1h-6
				c-0.55,0-1-0.45-1-1V317.5z M116.25,317.75h6c0.69,0,1.25,0.56,1.25,1.25s-0.56,1.25-1.25,1.25h-6c-0.69,0-1.25-0.56-1.25-1.25
				S115.56,317.75,116.25,317.75z M116.25,322.75h6c0.69,0,1.25,0.56,1.25,1.25s-0.56,1.25-1.25,1.25h-6
				c-0.69,0-1.25-0.56-1.25-1.25S115.56,322.75,116.25,322.75z M135.25,335.25h-19c-0.69,0-1.25-0.56-1.25-1.25s0.56-1.25,1.25-1.25
				h19c0.69,0,1.25,0.56,1.25,1.25S135.94,335.25,135.25,335.25z M135.25,330.25h-19c-0.69,0-1.25-0.56-1.25-1.25
				s0.56-1.25,1.25-1.25h19c0.69,0,1.25,0.56,1.25,1.25S135.94,330.25,135.25,330.25z"/>
		</g>
	</g>
	<g>
		<g>
			<path class="st2" d="M69.75,329.05c0,0.04-0.01,0.09-0.01,0.13c0,0.04,0.01,0.07,0.01,0.11V329.05z M68.88,321.42h-9.13
				c-1.1,0-2-0.9-2-2v-3.84c0-2.25-1.86-4.07-4.13-4c-1.05,0.03-1.87,0.95-1.87,2v4c0,2.84-4,4.84-4,6.84v12.79
				c0,0.74,0.41,1.42,1.06,1.77c0.36,0.19,0.79,0.42,1.24,0.66c2.18,1.17,4.62,1.78,7.09,1.78h7.74c1.58,0,2.87-1.28,2.87-2.87
				v-0.26c0-0.48-0.13-0.92-0.34-1.32c0.8-0.51,1.34-1.4,1.34-2.42v-0.76c0-0.81-0.34-1.53-0.87-2.06c1.05-0.39,1.81-1.38,1.86-2.55
				c-0.03-0.68-0.29-1.3-0.71-1.78c1.51-0.08,2.72-1.32,2.72-2.85v-0.26C71.75,322.7,70.47,321.42,68.88,321.42z"/>
			<path class="st2" d="M44.75,322.42h-7c-0.28,0-0.5,0.22-0.5,0.5v16c0,0.28,0.22,0.5,0.5,0.5h7c0.28,0,0.5-0.22,0.5-0.5v-16
				C45.25,322.64,45.03,322.42,44.75,322.42z M41.25,336.42c-0.83,0-1.5-0.67-1.5-1.5s0.67-1.5,1.5-1.5c0.83,0,1.5,0.67,1.5,1.5
				S42.08,336.42,41.25,336.42z"/>
		</g>
	</g>
	<g>
		<g>
			<g>
				<path class="st2" d="M389.5,240h-8c-1.1,0-2,0.9-2,2v0.5c0,0.28,0.22,0.5,0.5,0.5h11c0.28,0,0.5-0.22,0.5-0.5V242
					C391.5,240.9,390.6,240,389.5,240z M407.5,240h-8c-1.1,0-2,0.9-2,2v0.5c0,0.28,0.22,0.5,0.5,0.5h11c0.28,0,0.5-0.22,0.5-0.5V242
					C409.5,240.9,408.6,240,407.5,240z"/>
				<path class="st2" d="M391,274h-8c-0.28,0-0.5,0.22-0.5,0.5v0.5c0,1.1,0.9,2,2,2h5c1.1,0,2-0.9,2-2v-0.5
					C391.5,274.22,391.28,274,391,274z M409,245.5h-11c-0.28,0-0.5,0.22-0.5,0.5v6.5c0,0.55-0.45,1-1,1h-4c-0.55,0-1-0.45-1-1V246
					c0-0.28-0.22-0.5-0.5-0.5h-11c-0.28,0-0.5,0.22-0.5,0.5v18.63c0,0.47,0.34,0.85,0.8,0.98c1.27,0.35,2.2,1.51,2.2,2.89v2.5
					c0,0.28,0.22,0.5,0.5,0.5h8c0.28,0,0.5-0.22,0.5-0.5v-1.5c0-0.55,0.45-1,1-1h4c0.55,0,1,0.45,1,1v1.5c0,0.28,0.22,0.5,0.5,0.5h8
					c0.28,0,0.5-0.22,0.5-0.5v-2.5c0-1.38,0.93-2.54,2.2-2.89c0.46-0.13,0.8-0.5,0.8-0.98V246C409.5,245.72,409.28,245.5,409,245.5z
					 M396.38,261.62c0,1.04-0.84,1.88-1.88,1.88s-1.88-0.84-1.88-1.88v-1.24c0-1.04,0.84-1.88,1.88-1.88s1.88,0.84,1.88,1.88V261.62
					z M406,274h-8c-0.28,0-0.5,0.22-0.5,0.5v0.5c0,1.1,0.9,2,2,2h5c1.1,0,2-0.9,2-2v-0.5C406.5,274.22,406.28,274,406,274z"/>
			</g>
		</g>
	</g>
	<g>
		<g>
			<g>
				<path class="st2" d="M318.05,258.86c-0.96-0.96-2.55-0.9-3.43,0.18c-0.77,0.94-0.6,2.33,0.25,3.18l2.54,2.54
					c0.5,0.5,0.5,1.31,0,1.81c-0.5,0.5-1.31,0.5-1.81,0l-2.47-2.47c-0.94-0.94-1.48-2.18-1.53-3.5l0.02-5.99
					c0-1.47-1.26-2.64-2.76-2.49c-1.3,0.13-2.24,1.32-2.24,2.63v6.16c0,1.42,0.5,2.79,1.42,3.87l5.62,6.65
					c0.09,0.11,0.23,0.18,0.38,0.18l10.27,0.01c0.28,0,0.5-0.22,0.5-0.5v-3.03c0-1.59-0.63-3.12-1.76-4.24L318.05,258.86z
					 M344.14,252.13c-1.5-0.15-2.76,1.02-2.76,2.49l0.02,5.99c-0.05,1.32-0.59,2.56-1.53,3.5l-2.47,2.47c-0.5,0.5-1.31,0.5-1.81,0
					c-0.5-0.5-0.5-1.31,0-1.81l2.54-2.54c0.85-0.85,1.02-2.25,0.25-3.18c-0.88-1.08-2.47-1.14-3.43-0.18l-5,5
					c-1.13,1.13-1.76,2.65-1.76,4.24v3.03c0,0.28,0.22,0.5,0.5,0.5l10.27-0.01c0.15,0,0.29-0.07,0.38-0.18l5.62-6.65
					c0.91-1.08,1.42-2.45,1.42-3.87v-6.16C346.38,253.45,345.44,252.26,344.14,252.13z"/>
				<path class="st2" d="M324.57,274.39H314.3c-0.28,0-0.5,0.22-0.5,0.5v2c0,0.28,0.22,0.5,0.5,0.5h10.27c0.28,0,0.5-0.22,0.5-0.5
					v-2C325.07,274.61,324.85,274.39,324.57,274.39z M338.7,274.39h-10.27c-0.28,0-0.5,0.22-0.5,0.5v2c0,0.28,0.22,0.5,0.5,0.5
					h10.27c0.28,0,0.5-0.22,0.5-0.5v-2C339.2,274.61,338.97,274.39,338.7,274.39z M336.8,249.61c0-5.52-4.48-10-10-10
					s-10,4.48-10,10c0,5.52,4.48,10,10,10S336.8,255.14,336.8,249.61z M326.17,247.84l2.31,1.19c1.31,0.67,2.01,2.06,1.77,3.53
					c-0.19,1.18-0.95,2.1-2,2.52v0.42c0,0.69-0.56,1.25-1.25,1.25s-1.25-0.56-1.25-1.25v-0.33c-1.12-0.33-2.06-1.14-2.54-2.26
					c-0.28-0.63,0.01-1.37,0.65-1.64c0.63-0.27,1.37,0.02,1.64,0.65c0.26,0.61,0.89,0.98,1.54,0.92l0.11-0.01
					c0.48-0.08,0.6-0.48,0.63-0.65c0.02-0.15,0.06-0.65-0.45-0.91l-2.31-1.19c-1.33-0.68-2.03-2.13-1.76-3.6
					c0.25-1.33,1.2-2.32,2.48-2.61v-0.35c0-0.69,0.56-1.25,1.25-1.25s1.25,0.56,1.25,1.25v0.62c0.89,0.4,1.63,1.12,2.04,2.06
					c0.28,0.63-0.02,1.37-0.65,1.64c-0.63,0.28-1.37-0.02-1.64-0.65c-0.26-0.61-0.89-0.97-1.54-0.92c-0.56,0.06-0.69,0.48-0.73,0.66
					C325.7,247.07,325.65,247.57,326.17,247.84z"/>
			</g>
		</g>
	</g>
	<g>
		<g>
			<path class="st2" d="M250.05,259.36c-0.96-0.96-2.55-0.9-3.43,0.18c-0.77,0.94-0.6,2.33,0.25,3.18l2.54,2.54
				c0.5,0.5,0.5,1.31,0,1.81c-0.5,0.5-1.31,0.5-1.81,0l-2.47-2.47c-0.94-0.94-1.48-2.18-1.53-3.5l0.02-5.99
				c0-1.47-1.26-2.64-2.76-2.49c-1.3,0.13-2.24,1.32-2.24,2.63v6.16c0,1.42,0.5,2.79,1.42,3.87l5.62,6.65
				c0.09,0.11,0.23,0.18,0.38,0.18l10.27,0.01c0.28,0,0.5-0.22,0.5-0.5v-3.03c0-1.59-0.63-3.12-1.76-4.24L250.05,259.36z
				 M276.14,252.63c-1.5-0.15-2.76,1.02-2.76,2.49l0.02,5.99c-0.05,1.32-0.59,2.56-1.53,3.5l-2.47,2.47c-0.5,0.5-1.31,0.5-1.81,0
				c-0.5-0.5-0.5-1.31,0-1.81l2.54-2.54c0.85-0.85,1.02-2.25,0.25-3.18c-0.88-1.08-2.47-1.14-3.43-0.18l-5,5
				c-1.13,1.13-1.76,2.65-1.76,4.24v3.03c0,0.28,0.22,0.5,0.5,0.5l10.27-0.01c0.15,0,0.29-0.07,0.38-0.18l5.62-6.65
				c0.91-1.08,1.42-2.45,1.42-3.87v-6.16C278.38,253.95,277.44,252.76,276.14,252.63z"/>
			<path class="st2" d="M256.07,247.43h4.86c0.29,0,0.52-0.24,0.5-0.51c-0.32-4.88-1.98-7.81-2.93-7.81c-0.95,0-2.61,2.93-2.93,7.81
				C255.55,247.2,255.78,247.43,256.07,247.43z M249.12,247.36h3.44c0.27,0,0.48-0.21,0.5-0.47c0.13-2.32,0.52-4.56,1.16-6.39
				c0.15-0.43-0.31-0.83-0.71-0.6c-2.51,1.44-4.34,3.94-4.89,6.89C248.57,247.08,248.82,247.36,249.12,247.36z M263.94,246.89
				c0.01,0.26,0.23,0.47,0.5,0.47h3.44c0.31,0,0.55-0.28,0.5-0.58c-0.55-2.95-2.38-5.44-4.89-6.89c-0.4-0.23-0.86,0.17-0.71,0.6
				C263.42,242.33,263.81,244.57,263.94,246.89z M263.49,257.33c2.51-1.44,4.34-3.94,4.89-6.89c0.06-0.3-0.19-0.58-0.5-0.58h-3.44
				c-0.27,0-0.48,0.21-0.5,0.47c-0.13,2.32-0.52,4.56-1.16,6.39C262.62,257.16,263.09,257.56,263.49,257.33z M260.93,249.79h-4.86
				c-0.29,0-0.52,0.24-0.5,0.51c0.32,4.88,1.98,7.81,2.93,7.81c0.95,0,2.61-2.93,2.93-7.81
				C261.45,250.03,261.22,249.79,260.93,249.79z M270.7,274.89h-10.27c-0.28,0-0.5,0.22-0.5,0.5v2c0,0.28,0.22,0.5,0.5,0.5h10.27
				c0.28,0,0.5-0.22,0.5-0.5v-2C271.2,275.11,270.97,274.89,270.7,274.89z M253.51,257.33c0.4,0.23,0.86-0.17,0.71-0.6
				c-0.64-1.84-1.03-4.08-1.16-6.39c-0.01-0.26-0.23-0.47-0.5-0.47h-3.44c-0.31,0-0.56,0.28-0.5,0.58
				C249.17,253.39,251,255.89,253.51,257.33z M256.57,274.89H246.3c-0.28,0-0.5,0.22-0.5,0.5v2c0,0.28,0.22,0.5,0.5,0.5h10.27
				c0.28,0,0.5-0.22,0.5-0.5v-2C257.07,275.11,256.85,274.89,256.57,274.89z"/>
		</g>
	</g>
	<g>
		<g>
			<g>
				<g>
					<path class="st2" d="M188.52,269h-13.05c-3.02,0-5.48,2.45-5.48,5.48v3.02c0,0.28,0.22,0.5,0.5,0.5h23c0.28,0,0.5-0.22,0.5-0.5
						v-3.02C194,271.45,191.55,269,188.52,269z M181.91,266.29c3.71,0,6.72-3.01,6.72-6.72c0-3.71-3.01-6.72-6.72-6.72
						c-3.71,0-6.72,3.01-6.72,6.72C175.19,263.28,178.2,266.29,181.91,266.29z"/>
					<path class="st2" d="M209,239h-17c-1.1,0-2,0.9-2,2v14c0,0.59,0.49,1,1,1c0.2,0,0.41-0.06,0.6-0.2l1.87-1.4
						c0.35-0.26,0.77-0.4,1.2-0.4H209c1.1,0,2-0.9,2-2v-11C211,239.9,210.1,239,209,239z M196.32,249.94
						c-0.24,0.21-0.53,0.31-0.82,0.31c-0.35,0-0.7-0.15-0.94-0.43l-2-2.3c-0.39-0.44-0.41-1.09-0.06-1.56l2-2.7
						c0.41-0.56,1.19-0.67,1.75-0.26c0.56,0.41,0.67,1.19,0.26,1.75l-1.4,1.9l1.34,1.54C196.9,248.7,196.84,249.49,196.32,249.94z
						 M202.71,243.33l-1.93,7c-0.15,0.55-0.66,0.92-1.2,0.92c-0.11,0-0.22-0.01-0.33-0.04c-0.67-0.18-1.06-0.87-0.87-1.54l1.93-7
						c0.18-0.67,0.87-1.05,1.54-0.87C202.5,241.98,202.89,242.67,202.71,243.33z M208.5,247.04l-2,2.7
						c-0.25,0.33-0.62,0.51-1.01,0.51c-0.26,0-0.52-0.08-0.74-0.25c-0.56-0.41-0.67-1.19-0.26-1.75l1.4-1.9l-1.34-1.54
						c-0.45-0.52-0.4-1.31,0.12-1.76c0.52-0.45,1.31-0.4,1.76,0.12l2,2.3C208.83,245.92,208.85,246.57,208.5,247.04z"/>
				</g>
			</g>
		</g>
	</g>
	<g>
		<g>
			<path class="st2" d="M116.5,255h-4c-0.55,0-1,0.45-1,1v5c0,0.55,0.45,1,1,1h4c0.55,0,1-0.45,1-1v-5
				C117.5,255.45,117.05,255,116.5,255z"/>
			<path class="st2" d="M136.5,242h-28c-2.21,0-4,1.79-4,4v25c0,2.21,1.79,4,4,4h28c2.21,0,4-1.79,4-4v-25
				C140.5,243.79,138.71,242,136.5,242z M116.5,245.5h4c0.83,0,1.5,0.67,1.5,1.5s-0.67,1.5-1.5,1.5h-4c-0.83,0-1.5-0.67-1.5-1.5
				S115.67,245.5,116.5,245.5z M110.5,245c1.1,0,2,0.9,2,2s-0.9,2-2,2c-1.1,0-2-0.9-2-2S109.4,245,110.5,245z M136.5,270
				c0,0.55-0.45,1-1,1h-26c-0.55,0-1-0.45-1-1v-17c0-0.55,0.45-1,1-1h26c0.55,0,1,0.45,1,1V270z M132,255.25h-10
				c-0.69,0-1.25,0.56-1.25,1.25s0.56,1.25,1.25,1.25h10c0.69,0,1.25-0.56,1.25-1.25S132.69,255.25,132,255.25z M132,260.25h-10
				c-0.69,0-1.25,0.56-1.25,1.25s0.56,1.25,1.25,1.25h10c0.69,0,1.25-0.56,1.25-1.25S132.69,260.25,132,260.25z M132,265.25h-19
				c-0.69,0-1.25,0.56-1.25,1.25s0.56,1.25,1.25,1.25h19c0.69,0,1.25-0.56,1.25-1.25S132.69,265.25,132,265.25z"/>
		</g>
	</g>
	<g>
		<g>
			<g>
				<path class="st2" d="M43.29,270.67v-5.11c-0.33,0.04-0.67,0.08-1.02,0.08c-0.69,0-1.35-0.1-1.98-0.27v5.3
					c0,1.93,1.57,3.5,3.5,3.5h3.83v-3h-3.83C43.51,271.17,43.29,270.95,43.29,270.67z M58.12,268h-6c-1.1,0-2,0.9-2,2v5
					c0,1.1,0.9,2,2,2h6c1.1,0,2-0.9,2-2v-5C60.12,268.9,59.22,268,58.12,268z"/>
				<path class="st2" d="M52.12,249h6c1.1,0,2-0.9,2-2v-5c0-1.1-0.9-2-2-2h-6c-1.1,0-2,0.9-2,2v5C50.12,248.1,51.02,249,52.12,249z
					 M53.29,252.5v1c0,0.83,0.67,1.5,1.5,1.5c0.83,0,1.5-0.67,1.5-1.5v-1c0-0.83-0.67-1.5-1.5-1.5
					C53.96,251,53.29,251.67,53.29,252.5z M71.59,257.29l-4.51-4.51c-0.2-0.2-0.45-0.29-0.71-0.29c-0.26,0-0.51,0.1-0.71,0.29
					l-3.72,3.72H47.16c-0.65-2.11-2.58-3.65-4.9-3.65c-2.84,0-5.15,2.3-5.15,5.15c0,2.84,2.3,5.15,5.15,5.15
					c2.32,0,4.25-1.54,4.9-3.65h14.78l3.72,3.72c0.2,0.2,0.45,0.29,0.71,0.29c0.26,0,0.51-0.1,0.71-0.29l4.51-4.51
					C71.98,258.31,71.98,257.68,71.59,257.29z M54.62,262c-0.83,0-1.5,0.67-1.5,1.5v1c0,0.83,0.67,1.5,1.5,1.5
					c0.83,0,1.5-0.67,1.5-1.5v-1C56.12,262.67,55.45,262,54.62,262z"/>
			</g>
		</g>
	</g>
	<g>
		<g>
			<path class="st2" d="M400.5,172.82h-12c-1.87,0-3.38,1.51-3.38,3.38v2.48h3.38v-2.48h12v2.48h3.38v-2.48
				C403.88,174.33,402.37,172.82,400.5,172.82z"/>
			<path class="st2" d="M396,199.68v0.71c0,0.83-0.67,1.5-1.5,1.5s-1.5-0.67-1.5-1.5v-0.71h-13.5c-0.7,0-1.37-0.11-2-0.32v6.82
				c0,1.1,0.9,2,2,2h30c1.1,0,2-0.9,2-2v-6.82c-0.63,0.2-1.3,0.32-2,0.32H396z M411.5,181.18h-34c-1.1,0-2,0.9-2,2v10
				c0,2.21,1.79,4,4,4H393v-1.17c0-0.83,0.67-1.5,1.5-1.5s1.5,0.67,1.5,1.5v1.17h13.5c2.21,0,4-1.79,4-4v-10
				C413.5,182.08,412.6,181.18,411.5,181.18z"/>
		</g>
	</g>
	<g>
		<g>
			<path class="st2" d="M346.57,187.19c-0.48-1.45-1.5-2.63-2.87-3.31c-0.62-0.31-1.37-0.06-1.68,0.56
				c-0.31,0.62-0.06,1.37,0.56,1.68c0.77,0.38,1.34,1.05,1.62,1.86c0.27,0.82,0.21,1.69-0.17,2.46c-0.28,0.55-0.75,0.96-1.33,1.16
				c-1.74-6.4-8.48-9.6-16.55-9.6c-2.69,0-5.22,0.37-7.48,1.08c-2.25-1.02-4.84-1.22-7.28-0.45c-0.6,0.19-0.89,0.89-0.58,1.45
				l1.51,2.74c-1.68,1.75-2.79,3.97-3.08,6.67l-1.41,0.24c-0.96,0.16-1.67,1-1.67,1.97v3.41c0,0.57,0.24,1.11,0.66,1.49l2.21,1.98
				l0,0c1.36,1.28,3.13,2.34,5.12,3.17V210c0,0.55,0.45,1,1,1h5.22c0.46,0,0.86-0.31,0.97-0.76l0.63-2.5
				c1.4,0.17,2.81,0.26,4.18,0.26c1.44,0,2.83-0.11,4.17-0.32l0.64,2.56c0.11,0.45,0.51,0.76,0.97,0.76h5.22c0.55,0,1-0.45,1-1
				v-5.24c3.09-2.17,5-5.42,5-9.76c0-0.32-0.03-0.62-0.05-0.93c0.13-0.03,0.25-0.05,0.38-0.09c1.22-0.41,2.21-1.27,2.79-2.42
				C346.94,190.19,347.05,188.64,346.57,187.19z M314.64,194c-0.83,0-1.5-0.67-1.5-1.5s0.67-1.5,1.5-1.5s1.5,0.67,1.5,1.5
				S315.47,194,314.64,194z M332.85,187.23c-0.17,0.53-0.66,0.86-1.19,0.86c-0.13,0-0.26-0.02-0.39-0.06
				c-1.84-0.6-4.02-0.82-6.32-0.65c-1.06,0.08-2.08,0.24-3.04,0.47c-0.67,0.17-1.35-0.25-1.51-0.92c-0.16-0.67,0.25-1.35,0.92-1.51
				c1.09-0.26,2.25-0.44,3.44-0.53c2.65-0.2,5.1,0.06,7.28,0.77C332.71,185.86,333.07,186.57,332.85,187.23z"/>
			<circle class="st2" cx="326.64" cy="174.5" r="4.5"/>
		</g>
	</g>
	<g>
		<g>
			<path class="st2" d="M272.5,171.25h-28c-1.1,0-2,0.9-2,2v20c0,1.1,0.9,2,2,2h28c1.1,0,2-0.9,2-2v-20
				C274.5,172.15,273.6,171.25,272.5,171.25z M249,190c-1.38,0-2.5-1.12-2.5-2.5s1.12-2.5,2.5-2.5s2.5,1.12,2.5,2.5
				S250.38,190,249,190z M249,182c-1.38,0-2.5-1.12-2.5-2.5s1.12-2.5,2.5-2.5s2.5,1.12,2.5,2.5S250.38,182,249,182z M265,189.75h-8
				c-0.69,0-1.25-0.56-1.25-1.25s0.56-1.25,1.25-1.25h8c0.69,0,1.25,0.56,1.25,1.25S265.69,189.75,265,189.75z M269,184.75h-12
				c-0.69,0-1.25-0.56-1.25-1.25s0.56-1.25,1.25-1.25h12c0.69,0,1.25,0.56,1.25,1.25S269.69,184.75,269,184.75z M269,179.75h-12
				c-0.69,0-1.25-0.56-1.25-1.25s0.56-1.25,1.25-1.25h12c0.69,0,1.25,0.56,1.25,1.25S269.69,179.75,269,179.75z"/>
			<path class="st2" d="M256.17,195.23l-0.02,0.02h0.04L256.17,195.23z M266.27,206.69l-6.27-6.27v-1.34c0-0.83-0.67-1.5-1.5-1.5
				s-1.5,0.67-1.5,1.5v1.34l-6.27,6.27c-0.59,0.59-0.59,1.54,0,2.12c0.29,0.29,0.68,0.44,1.06,0.44c0.38,0,0.77-0.15,1.06-0.44
				l4.15-4.15v3.59c0,0.83,0.67,1.5,1.5,1.5s1.5-0.67,1.5-1.5v-3.59l4.15,4.15c0.29,0.29,0.68,0.44,1.06,0.44
				c0.38,0,0.77-0.15,1.06-0.44C266.86,208.23,266.86,207.27,266.27,206.69z"/>
		</g>
	</g>
	<g>
		<g>
			<path class="st2" d="M207.75,175.42h-2c-1.1,0-2,0.9-2,2v26c0,1.1,0.9,2,2,2h2c1.1,0,2-0.9,2-2v-26
				C209.75,176.32,208.85,175.42,207.75,175.42z"/>
			<path class="st2" d="M200.61,178.3l-22.5,6.33c-0.22,0.06-0.36,0.26-0.36,0.48v11.94h0v3.97c0,1.63,1.18,3.02,2.79,3.29
				l7.33,1.22c0.18,0.03,0.37,0.05,0.55,0.05c0.78,0,1.54-0.28,2.15-0.79c0.75-0.63,1.18-1.56,1.18-2.54v-1.4l8.87,2.4
				c0.32,0.09,0.63-0.15,0.63-0.48v-23.98C201.25,178.45,200.93,178.21,200.61,178.3z M188.75,202.25c0,0.13-0.06,0.21-0.12,0.25
				c-0.05,0.05-0.14,0.1-0.27,0.07c0,0,0,0,0,0l-7.33-1.22c-0.16-0.03-0.28-0.17-0.28-0.33v-3.16l8,2.17V202.25z M174.75,185.42
				h-1.5c-1.1,0-2,0.9-2,2v7c0,1.1,0.9,2,2,2h1.5c0.28,0,0.5-0.22,0.5-0.5v-10C175.25,185.65,175.03,185.42,174.75,185.42z"/>
		</g>
	</g>
	<g>
		<g>
			<g>
				<path class="st2" d="M125,187.5c0-0.55-0.45-1-1-1h-4c-0.55,0-1,0.45-1,1v14h6V187.5z M133.5,189.5c0-0.55-0.45-1-1-1h-4
					c-0.55,0-1,0.45-1,1v12h6V189.5z M137.5,204h-30c-0.83,0-1.5,0.67-1.5,1.5s0.67,1.5,1.5,1.5h30c0.83,0,1.5-0.67,1.5-1.5
					S138.33,204,137.5,204z M116.5,192.5c0-0.55-0.45-1-1-1h-4c-0.55,0-1,0.45-1,1v9h6V192.5z"/>
				<path class="st2" d="M134.95,174.01l-4.5,0.64c-0.72,0.1-1.02,0.99-0.5,1.51l1.04,1.04l-3.63,3.63l-5.96-4.52
					c-0.55-0.42-1.32-0.4-1.86,0.04l-9.5,7.81c-0.64,0.53-0.73,1.47-0.21,2.11c0.3,0.36,0.73,0.55,1.16,0.55
					c0.33,0,0.67-0.11,0.95-0.34l8.58-7.06l6.06,4.59c0.6,0.45,1.44,0.4,1.97-0.13l4.55-4.55l0.69,0.69c0.52,0.52,1.4,0.22,1.51-0.5
					l0.64-4.5C136.04,174.43,135.54,173.93,134.95,174.01z"/>
			</g>
		</g>
	</g>
	<g>
		<g>
			<g>
				<g>
					<path class="st2" d="M46,194v-17c0-0.55,0.45-1,1-1h12c0.55,0,1,0.45,1,1v12.5c0.25,0,0.5,0.02,0.74,0.06
						c0.83,0.14,1.61,0.51,2.26,1.04c0,0,0,0,0.01,0V175c0-2.21-1.79-4-4-4H47c-2.21,0-4,1.79-4,4v21.09
						c0.83-0.84,1.94-1.41,3.19-1.54C46.08,194.39,46,194.21,46,194z M64.34,193.03c-0.74-0.12-1.58,0.17-2.17,0.67
						c-0.2-0.83-0.99-1.53-1.83-1.67c-0.7-0.11-1.5,0.14-2.07,0.6c-0.26-0.8-1.11-1.46-1.93-1.6c-0.79-0.13-1.87,0.29-2.34,0.88
						l0-6.32c0-0.87-0.51-1.72-1.35-1.98c-1.38-0.44-2.65,0.58-2.65,1.9v16c-1.1,0-2-0.9-2-2v-1.81c0-0.38-0.31-0.69-0.69-0.69h-0.6
						c-1.49,0-2.7,1.21-2.7,2.7v4.94c0,0.86,0.37,1.69,1.02,2.26l2.69,2.36c0.55,0.48,1.25,0.74,1.98,0.74h11.07
						c0.8,0,1.56-0.32,2.12-0.88l2.24-2.24c0.56-0.56,0.88-1.33,0.88-2.12v-9.65C66,194.11,65.32,193.19,64.34,193.03z"/>
				</g>
				<path class="st2" d="M50.41,177.99H48.4c-0.28,0-0.5,0.22-0.5,0.5v2.01c0,0.28,0.22,0.5,0.5,0.5h2.01c0.28,0,0.5-0.22,0.5-0.5
					v-2.01C50.91,178.21,50.68,177.99,50.41,177.99z M55.41,177.99H53.4c-0.28,0-0.5,0.22-0.5,0.5v2.01c0,0.28,0.22,0.5,0.5,0.5
					h2.01c0.28,0,0.5-0.22,0.5-0.5v-2.01C55.91,178.21,55.68,177.99,55.41,177.99z"/>
			</g>
		</g>
	</g>
	<g>
		<g>
			<path class="st2" d="M404.51,113.61c-1.33-1.33-3.09-2.06-4.97-2.06c-1.88,0-3.64,0.73-4.97,2.06c-0.49,0.49-0.49,1.28,0,1.77
				c0.49,0.49,1.28,0.49,1.77,0c0.85-0.85,1.99-1.33,3.2-1.33c1.21,0,2.35,0.47,3.2,1.33c0.24,0.24,0.56,0.37,0.88,0.37
				c0.32,0,0.64-0.12,0.88-0.37C405,114.89,405,114.1,404.51,113.61z"/>
			<path class="st2" d="M408.2,109.16c-2.44-2.44-5.64-3.66-8.84-3.66c-3.2,0-6.4,1.22-8.84,3.66c-4.28,4.28-4.81,10.88-1.59,15.73
				l-2.3,2.3l-0.35-0.35c-0.2-0.2-0.51-0.2-0.71,0l-8.13,8.13c-0.39,0.39-0.39,1.02,0,1.41l2.83,2.83c0.39,0.39,1.02,0.39,1.41,0
				l8.13-8.13c0.2-0.2,0.2-0.51,0-0.71l-0.35-0.35l2.19-2.19c2.26,1.77,4.98,2.67,7.71,2.67c3.2,0,6.4-1.22,8.84-3.66
				C413.08,121.95,413.08,114.04,408.2,109.16z M405.37,124.01c-1.61,1.61-3.74,2.49-6.01,2.49c-2.27,0-4.4-0.88-6.01-2.49
				c-1.61-1.61-2.49-3.74-2.49-6.01c0-2.27,0.88-4.4,2.49-6.01c1.61-1.61,3.74-2.49,6.01-2.49c2.27,0,4.4,0.88,6.01,2.49
				c1.61,1.61,2.49,3.74,2.49,6.01C407.86,120.27,406.97,122.4,405.37,124.01z"/>
		</g>
	</g>
	<g>
		<g>
			<path class="st2" d="M331.93,119.33c0,3.17-2.5,5.75-5.57,5.75c-3.07,0-5.56-2.58-5.56-5.75c0-3.17,2.5-5.75,5.56-5.75
				c0.25,0,0.5,0.02,0.75,0.06l3.19-3.19c-1.2-0.56-2.53-0.87-3.93-0.87c-5.27,0-9.56,4.38-9.56,9.75c0,5.38,4.29,9.75,9.56,9.75
				c5.27,0,9.57-4.38,9.57-9.75c0-1.36-0.28-2.66-0.78-3.84l-3.25,3.25C331.92,118.94,331.93,119.13,331.93,119.33z M336.36,132.22
				c3.85-2.99,6.34-7.65,6.34-12.89c0-1.78-0.3-3.5-0.83-5.1l-0.89,0.89c-0.65,0.65-1.52,1.01-2.44,1.01c-0.1,0-0.19-0.02-0.29-0.03
				c0.28,1.03,0.45,2.11,0.45,3.23c0,6.8-5.53,12.33-12.33,12.33c-6.8,0-12.33-5.53-12.33-12.33c0-6.8,5.53-12.33,12.33-12.33
				c1.3,0,2.54,0.2,3.72,0.58c0.02-0.87,0.36-1.72,1-2.36l1.12-1.12c-1.82-0.7-3.78-1.1-5.84-1.1c-9.01,0-16.33,7.33-16.33,16.33
				c0,5.59,2.82,10.53,7.12,13.47l-2.69,7.17c-0.29,0.78,0.1,1.64,0.88,1.93c0.17,0.07,0.35,0.1,0.53,0.1c0.61,0,1.18-0.37,1.4-0.97
				l2.53-6.75c1.72,0.76,3.6,1.22,5.56,1.34v4.88c0,0.83,0.67,1.5,1.5,1.5s1.5-0.67,1.5-1.5v-4.97c1.93-0.24,3.75-0.81,5.41-1.66
				l2.68,7.16c0.23,0.6,0.8,0.97,1.4,0.97c0.17,0,0.35-0.03,0.53-0.1c0.78-0.29,1.17-1.16,0.88-1.93L336.36,132.22z"/>
			<path class="st2" d="M342.37,108.31l-2.84-1.09c-0.25-0.1-0.45-0.29-0.54-0.54l-1.09-2.84c-0.15-0.39-0.51-0.61-0.89-0.61
				c-0.24,0-0.48,0.09-0.67,0.28l-3.48,3.48c-0.26,0.26-0.35,0.66-0.21,1.01l0.92,2.38l-5.98,5.98c-0.37-0.15-0.78-0.24-1.2-0.24
				c-1.77,0-3.21,1.44-3.21,3.21s1.44,3.21,3.21,3.21c1.77,0,3.21-1.44,3.21-3.21c0-0.43-0.09-0.83-0.24-1.2l5.76-5.76l3.11,1.19
				c0.11,0.04,0.23,0.06,0.34,0.06c0.25,0,0.49-0.1,0.67-0.28l3.48-3.48C343.18,109.38,343,108.56,342.37,108.31z"/>
		</g>
	</g>
	<g>
		<g>
			<g>
				<path class="st2" d="M258.53,123.98c-0.4,0-0.8,0.15-1.1,0.46c-0.61,0.61-0.61,1.6,0,2.2c0.3,0.3,0.7,0.46,1.1,0.46
					c0.4,0,0.8-0.15,1.1-0.46c0.61-0.61,0.61-1.6,0-2.2C259.32,124.13,258.93,123.98,258.53,123.98z M258.5,115.14
					c-5.62,0-10.18,4.56-10.18,10.18c0,5.62,4.56,10.18,10.18,10.18c5.62,0,10.18-4.56,10.18-10.18
					C268.68,119.7,264.12,115.14,258.5,115.14z M263.85,122.76l-1.94,1.75c0,0,0,0,0,0c0.1,0.33,0.17,0.68,0.17,1.04
					c0,0.95-0.37,1.84-1.04,2.52c-0.67,0.67-1.57,1.04-2.52,1.04c-0.95,0-1.84-0.37-2.52-1.04c-0.67-0.67-1.04-1.57-1.04-2.52
					c0-0.95,0.37-1.84,1.04-2.52c0.67-0.67,1.57-1.04,2.52-1.04c0.49,0,0.96,0.1,1.39,0.28l1.93-1.74c0.62-0.56,1.56-0.51,2.12,0.11
					C264.52,121.25,264.47,122.2,263.85,122.76z"/>
			</g>
			<path class="st2" d="M261.35,109.41v-0.95h2.1c0.28,0,0.5-0.22,0.5-0.5v-3.45c0-0.55-0.45-1-1-1h-8.89c-0.55,0-1,0.45-1,1v3.45
				c0,0.28,0.22,0.5,0.5,0.5h2.1v0.95c-2.86,0.51-5.47,1.77-7.6,3.58l-1.25-1.25c-0.39-0.39-1.02-0.39-1.41,0l-2.45,2.45
				c-0.39,0.39-0.39,1.02,0,1.41l1.59,1.59c-1.4,2.39-2.21,5.16-2.21,8.12c0,8.92,7.26,16.18,16.18,16.18
				c8.92,0,16.18-7.26,16.18-16.18C274.68,117.37,268.91,110.76,261.35,109.41z M258.5,138c-6.99,0-12.68-5.69-12.68-12.68
				c0-6.99,5.69-12.68,12.68-12.68c6.99,0,12.68,5.69,12.68,12.68C271.18,132.31,265.49,138,258.5,138z"/>
		</g>
	</g>
	<g>
		<g>
			<path class="st2" d="M190.5,103H189v39h1.5c10.75,0,19.5-8.8,19.5-19.61C210,111.7,201.25,103,190.5,103z M205.16,114.89h-4.95
				c-0.65-2.92-1.66-5.45-2.94-7.43C200.66,108.99,203.46,111.61,205.16,114.89z M192,106.38c2.09,1.01,4.06,4.06,5.14,8.51H192
				V106.38z M192,117.89h5.7c0.19,1.41,0.3,2.91,0.3,4.5c0,1.59-0.11,3.09-0.3,4.5H192V117.89z M192,138.6v-8.71h5.14
				C196.05,134.39,194.06,137.54,192,138.6z M197.24,137.53c1.31-2.02,2.34-4.64,2.98-7.64h4.99
				C203.51,133.27,200.68,135.97,197.24,137.53z M200.72,126.89c0.18-1.44,0.28-2.94,0.28-4.5c0-1.56-0.1-3.06-0.28-4.5h5.65
				c0.41,1.43,0.64,2.94,0.64,4.5c0,1.56-0.22,3.07-0.62,4.5H200.72z"/>
			<path class="st2" d="M172.75,119.02c0.13,0.04,0.27,0.06,0.4,0.06c0.66,0,1.26-0.44,1.44-1.1c0.17-0.62,0.39-1.24,0.63-1.84
				c0.32-0.77-0.05-1.64-0.82-1.96c-0.76-0.32-1.64,0.05-1.96,0.82c-0.29,0.71-0.54,1.44-0.75,2.18
				C171.48,117.98,171.95,118.8,172.75,119.02z M176.57,112.53c0.43,0,0.86-0.19,1.16-0.55c0.41-0.5,0.86-0.98,1.33-1.42
				c0.6-0.57,0.62-1.52,0.05-2.12c-0.57-0.6-1.52-0.62-2.12-0.05c-0.55,0.53-1.08,1.09-1.57,1.69c-0.53,0.64-0.44,1.58,0.2,2.11
				C175.89,112.42,176.23,112.53,176.57,112.53z M183.71,127.75l-9.04,2.94c-0.82,0.27-0.94,1.37-0.2,1.81l2.21,1.31l-5.14,5.14
				c-0.39,0.39-0.39,1.02,0,1.41l0.76,0.76c0.39,0.39,1.02,0.39,1.41,0l5.19-5.19l1.28,2.22c0.43,0.75,1.54,0.64,1.82-0.18
				l2.97-8.97C185.23,128.24,184.49,127.5,183.71,127.75z M172.55,125.34c0.04,0,0.08,0,0.12,0c0.83-0.07,1.44-0.79,1.38-1.61
				c-0.02-0.3-0.04-0.61-0.05-0.91c-0.02-0.83-0.71-1.49-1.54-1.46c-0.83,0.02-1.48,0.71-1.46,1.53c0.01,0.36,0.03,0.72,0.06,1.08
				C171.12,124.74,171.78,125.34,172.55,125.34z M185.71,105.07c-0.28-0.78-1.14-1.18-1.92-0.9c-0.72,0.26-1.43,0.57-2.11,0.91
				c-0.74,0.37-1.04,1.27-0.67,2.01c0.26,0.52,0.79,0.83,1.34,0.83c0.23,0,0.46-0.05,0.67-0.16c0.58-0.29,1.18-0.55,1.79-0.77
				C185.59,106.71,185.99,105.85,185.71,105.07z"/>
		</g>
	</g>
	<g>
		<g>
			<g>
				<g>
					<path class="st2" d="M145.06,116.07l-8.34-8.85c-0.19-0.2-0.51-0.21-0.71-0.02l-3.5,3.3c-0.2,0.19-0.21,0.51-0.02,0.71
						l8.34,8.85c0.19,0.2,0.51,0.21,0.71,0.02l3.5-3.3C145.24,116.58,145.25,116.27,145.06,116.07z M142.01,117.07
						c-0.44,0.41-1.13,0.39-1.54-0.05c-0.41-0.44-0.39-1.13,0.05-1.54c0.44-0.41,1.13-0.39,1.54,0.05
						C142.47,115.97,142.45,116.66,142.01,117.07z M108.4,108.42c-0.22-0.17-0.53-0.13-0.7,0.09l-7.78,10.02
						c-0.17,0.22-0.13,0.53,0.09,0.7l3.82,2.97c0.22,0.17,0.53,0.13,0.7-0.09l7.79-10.02c0.17-0.22,0.13-0.53-0.09-0.7L108.4,108.42
						z M104.73,118.86c-0.37,0.48-1.06,0.56-1.54,0.19c-0.48-0.37-0.56-1.06-0.19-1.54c0.37-0.48,1.06-0.56,1.54-0.19
						C105.02,117.7,105.1,118.39,104.73,118.86z"/>
					<path class="st2" d="M133.7,128.57l-8.56-6.68l-1.56,1.43c-2.2,1.98-4.19,2.51-5.69,2.51c-0.38,0-0.74-0.04-1.05-0.09
						c-2.06-0.36-3.45-1.67-4.08-2.8c-0.77-1.23-0.55-2.78,0.55-3.78l6.14-5.59c-0.72-0.55-1.58-0.83-2.43-0.83
						c-1.19,0-2.38,0.53-3.17,1.55l-6,7.75c-0.49,0.63-0.71,1.42-0.61,2.21l0.39,3.15c0.1,0.79,0.5,1.51,1.13,2l10.52,8.2
						c0.29,0.23,0.64,0.34,0.99,0.34c0.44,0,0.87-0.18,1.19-0.52l0.47-0.52c0.62-0.68,0.55-1.74-0.15-2.33l1.77,1.48
						c0.3,0.25,0.67,0.38,1.04,0.38c0.4,0,0.81-0.15,1.12-0.45l0.54-0.52c0.69-0.67,0.65-1.79-0.09-2.4l1.31,1.09
						c0.3,0.25,0.67,0.37,1.03,0.37c0.41,0,0.82-0.15,1.13-0.46l0.48-0.47c0.67-0.66,0.64-1.75-0.07-2.37l0.86,0.75
						c0.31,0.26,0.68,0.39,1.05,0.39c0.46,0,0.92-0.2,1.24-0.58l0.75-0.89C134.53,130.18,134.42,129.13,133.7,128.57z
						 M137.88,120.58l-7.22-7.37c-0.31-0.32-0.72-0.52-1.17-0.58l-3.7-0.48c-0.58-0.08-1.17,0.11-1.6,0.5l-0.87,0.79L115,121
						c-0.09,0.09-0.3,0.33-0.11,0.62l0.05,0.09c0.32,0.6,1.13,1.37,2.34,1.58c1.44,0.25,3.04-0.38,4.63-1.81l3.11-2.85l9.79,7.64
						l3.05-2.86C138.64,122.63,138.65,121.37,137.88,120.58z"/>
				</g>
			</g>
		</g>
	</g>
	<g>
		<g>
			<path class="st2" d="M70.21,105.14l-4.33,0.7c-4.32,0.6-8.11,2.55-10.86,5.59l-4.85,5.31l-6.61-0.39
				c-0.35-0.02-0.69,0.15-0.89,0.44l-3.33,4.96c-0.34,0.51-0.14,1.21,0.42,1.47l4.69,2.13l7.17,7.17l2.13,4.69
				c0.25,0.56,0.95,0.76,1.46,0.42l5.04-3.34c0.3-0.2,0.47-0.54,0.44-0.9l-0.44-6.61l5.29-4.83c3.05-2.76,5-6.55,5.59-10.86
				l0.7-4.33C72.02,105.82,71.18,104.98,70.21,105.14z M62.24,119c-1.17,1.17-3.07,1.17-4.24,0s-1.17-3.07,0-4.24s3.07-1.17,4.24,0
				C63.41,115.93,63.41,117.83,62.24,119z"/>
			<path class="st2" d="M49.1,133.44l-5.54-5.54c-0.15-0.15-0.4-0.16-0.55-0.01c-0.3,0.29-0.71,0.7-0.86,0.85
				c-4.89,4.89-5.03,11.14-5.03,11.14s6.25-0.14,11.14-5.03c0.15-0.15,0.56-0.56,0.85-0.86C49.26,133.84,49.25,133.59,49.1,133.44z"
				/>
		</g>
	</g>
</g>
<g id="title" class="st0">
	<g class="st3">
		<path class="st2" d="M31.03,59.61l0.14-0.61c0.16-0.72,0.68-0.91,1.3-0.72c0.44,0.12,1.68,0.54,3.15,0.54
			c1.58,0,2.24-0.84,2.24-1.96c0-3.17-6.73-1.98-6.73-7.55c0-2.89,2.42-4.57,5.62-4.57c1.49,0,2.52,0.33,3.1,0.51
			c0.63,0.21,0.98,0.72,0.75,1.42l-0.16,0.51c-0.21,0.63-0.75,0.91-1.42,0.7c-0.54-0.16-1.26-0.35-2.26-0.35
			c-1.4,0-2.1,0.7-2.1,1.77c0,2.73,6.73,2.03,6.73,7.55c0,2.87-2.33,4.75-5.76,4.75c-1.61,0-2.87-0.35-3.77-0.63
			C31.17,60.78,30.86,60.36,31.03,59.61z"/>
		<path class="st2" d="M46.61,47.85h-2.66c-0.68,0-1.12-0.44-1.12-1.12v-0.56c0-0.68,0.44-1.12,1.12-1.12h8.67
			c0.68,0,1.12,0.44,1.12,1.12v0.56c0,0.68-0.44,1.12-1.12,1.12h-2.66V60.2c0,0.68-0.44,1.12-1.12,1.12h-1.12
			c-0.68,0-1.12-0.44-1.12-1.12V47.85z"/>
		<path class="st2" d="M57.33,47.61c0.4-1.54,1.54-2.87,3.5-2.87c1.91,0,3.08,1.37,3.47,2.87l3.29,12.47
			c0.16,0.63-0.19,1.24-0.91,1.24h-1.12c-0.68,0-1.14-0.47-1.3-1.12l-0.77-3.05h-5.31l-0.75,3.03c-0.19,0.75-0.58,1.14-1.26,1.14
			h-1.19c-0.72,0-1.05-0.63-0.89-1.26L57.33,47.61z M62.8,54.39l-1.58-6.38c-0.05-0.23-0.19-0.4-0.4-0.4c-0.23,0-0.35,0.16-0.4,0.4
			l-1.58,6.38H62.8z"/>
		<path class="st2" d="M70.38,46.84c0-0.68,0.47-1.26,1.14-1.44c0.72-0.21,2.45-0.65,4.12-0.65c3.66,0,5.62,2.59,5.62,5.41
			c0,1.49-0.79,3.75-3.05,4.75l2.38,5.1c0.33,0.68-0.09,1.3-0.77,1.3h-1.38c-0.68,0-1.1-0.37-1.38-1l-2.14-4.92h-1.19v4.8
			c0,0.68-0.44,1.12-1.12,1.12h-1.12c-0.68,0-1.12-0.44-1.12-1.12V46.84z M75.38,52.74c1.56,0,2.35-1,2.35-2.59
			c0-1.44-0.61-2.61-2.12-2.61c-0.63,0-1.26,0.07-1.89,0.28v4.92H75.38z"/>
		<path class="st2" d="M86.47,47.85h-2.66c-0.68,0-1.12-0.44-1.12-1.12v-0.56c0-0.68,0.44-1.12,1.12-1.12h8.67
			c0.67,0,1.12,0.44,1.12,1.12v0.56c0,0.68-0.44,1.12-1.12,1.12h-2.66V60.2c0,0.68-0.44,1.12-1.12,1.12h-1.12
			c-0.68,0-1.12-0.44-1.12-1.12V47.85z"/>
		<path class="st2" d="M95.63,46.17c0-0.68,0.44-1.12,1.12-1.12h1.12c0.68,0,1.12,0.44,1.12,1.12v9.39c0,1.56,0.77,3.26,2.91,3.26
			c2.1,0,2.89-1.7,2.89-3.26v-9.39c0-0.68,0.44-1.12,1.12-1.12h1.12c0.68,0,1.12,0.44,1.12,1.12v8.99c0,4.01-2.19,6.45-6.25,6.45
			c-4.01,0-6.27-2.42-6.27-6.45V46.17z"/>
		<path class="st2" d="M111.33,46.17c0-0.68,0.44-1.12,1.12-1.12h3.61c3.8,0,5.89,2.47,5.89,5.34c0,2.94-2.1,5.33-5.89,5.33h-1.38
			v4.47c0,0.68-0.44,1.12-1.12,1.12h-1.12c-0.68,0-1.12-0.44-1.12-1.12V46.17z M115.95,52.95c1.68,0,2.49-1.19,2.49-2.56
			c0-1.4-0.82-2.54-2.52-2.54h-1.24v5.1H115.95z"/>
		<path class="st4" d="M129.78,45.71c0-0.7,0.46-1.15,1.15-1.15h1.15c0.7,0,1.15,0.46,1.15,1.15v14.45c0,0.7-0.46,1.15-1.15,1.15
			h-1.15c-0.7,0-1.15-0.46-1.15-1.15V45.71z"/>
		<path class="st4" d="M136.33,50.44c0-3.98,2.42-6.19,6.24-6.19c1.78,0,3,0.24,3.98,0.48c0.53,0.14,0.77,0.58,0.65,1.13l-0.22,0.98
			c-0.12,0.53-0.62,0.77-1.15,0.62c-0.65-0.14-1.54-0.34-2.78-0.34c-1.97,0-3.17,0.84-3.17,3.58v4.46c0,2.74,1.2,3.58,3.17,3.58
			c1.54,0,2.47-0.26,2.9-0.36c0.58-0.14,0.91,0.12,1.03,0.65l0.22,0.98c0.1,0.48-0.12,0.98-0.65,1.13
			c-0.55,0.14-1.99,0.48-3.98,0.48c-3.82,0-6.24-2.18-6.24-6.19V50.44z"/>
		<path class="st4" d="M149.77,51.4c0-4.13,2.47-7.15,6.74-7.15c4.27,0,6.75,3.02,6.75,7.15v3.07c0,4.13-2.47,7.15-6.75,7.15
			c-4.27,0-6.74-3.02-6.74-7.15V51.4z M159.71,54.21v-2.54c0-2.42-0.65-4.54-3.19-4.54c-2.52,0-3.19,2.11-3.19,4.54v2.54
			c0,2.45,0.67,4.54,3.19,4.54C159.06,58.75,159.71,56.66,159.71,54.21z"/>
		<path class="st4" d="M166.33,45.71c0-0.7,0.46-1.15,1.15-1.15h0.96c0.7,0,1.22,0.38,1.61,1.06l5.33,9.41
			c-0.14-1.2-0.22-2.4-0.22-3.31v-6c0-0.7,0.46-1.15,1.15-1.15h1.1c0.7,0,1.15,0.46,1.15,1.15v14.45c0,0.7-0.46,1.15-1.15,1.15
			h-0.96c-0.7,0-1.25-0.38-1.63-1.06l-5.3-9.36c0.12,1.2,0.22,2.38,0.22,3.26v6c0,0.7-0.46,1.15-1.15,1.15h-1.11
			c-0.7,0-1.15-0.46-1.15-1.15V45.71z"/>
		<path class="st4" d="M181.45,59.56l0.14-0.62c0.17-0.74,0.7-0.94,1.34-0.74c0.46,0.12,1.73,0.55,3.24,0.55
			c1.63,0,2.3-0.86,2.3-2.02c0-3.26-6.94-2.04-6.94-7.78c0-2.98,2.5-4.7,5.78-4.7c1.54,0,2.59,0.34,3.19,0.53
			c0.65,0.22,1.01,0.74,0.77,1.46l-0.17,0.53c-0.22,0.65-0.77,0.94-1.46,0.72c-0.55-0.17-1.3-0.36-2.33-0.36
			c-1.44,0-2.16,0.72-2.16,1.82c0,2.81,6.94,2.09,6.94,7.78c0,2.95-2.4,4.9-5.93,4.9c-1.66,0-2.95-0.36-3.89-0.65
			C181.6,60.76,181.29,60.33,181.45,59.56z"/>
	</g>
</g>
</svg>
