<?xml version="1.0" encoding="utf-8"?>
<!-- Generator: Adobe Illustrator 24.1.1, SVG Export Plug-In . SVG Version: 6.00 Build 0)  -->
<svg version="1.1" xmlns="http://www.w3.org/2000/svg" xmlns:xlink="http://www.w3.org/1999/xlink" x="0px" y="0px"
	 viewBox="0 0 448 448" style="enable-background:new 0 0 448 448;" xml:space="preserve">
<style type="text/css">
	.st0{display:none;}
	.st1{display:inline;fill:#FFFFFF;}
	.st2{fill:#173042;}
	.st3{display:inline;}
	.st4{fill:#869093;}
</style>
<g id="grid" class="st0">
	<rect x="30" y="98" class="st1" width="48" height="48"/>
	<rect x="98" y="98" class="st1" width="48" height="48"/>
	<rect x="166" y="98" class="st1" width="48" height="48"/>
	<rect x="234" y="98" class="st1" width="48" height="48"/>
	<rect x="302" y="98" class="st1" width="48" height="48"/>
	<rect x="370" y="98" class="st1" width="48" height="48"/>
	<rect x="30" y="166" class="st1" width="48" height="48"/>
	<rect x="98" y="166" class="st1" width="48" height="48"/>
	<rect x="166" y="166" class="st1" width="48" height="48"/>
	<rect x="234" y="166" class="st1" width="48" height="48"/>
	<rect x="302" y="166" class="st1" width="48" height="48"/>
	<rect x="370" y="166" class="st1" width="48" height="48"/>
	<rect x="30" y="234" class="st1" width="48" height="48"/>
	<rect x="98" y="234" class="st1" width="48" height="48"/>
	<rect x="370" y="234" class="st1" width="48" height="48"/>
	<rect x="30" y="302" class="st1" width="48" height="48"/>
	<rect x="98" y="302" class="st1" width="48" height="48"/>
	<rect x="166" y="234" class="st1" width="48" height="48"/>
	<rect x="234" y="234" class="st1" width="48" height="48"/>
	<rect x="302" y="234" class="st1" width="48" height="48"/>
	<rect x="166" y="302" class="st1" width="48" height="48"/>
	<rect x="234" y="302" class="st1" width="48" height="48"/>
	<rect x="302" y="302" class="st1" width="48" height="48"/>
	<rect x="370" y="302" class="st1" width="48" height="48"/>
	<rect x="30" y="370" class="st1" width="48" height="48"/>
	<rect x="98" y="370" class="st1" width="48" height="48"/>
	<rect x="166" y="370" class="st1" width="48" height="48"/>
	<rect x="234" y="370" class="st1" width="48" height="48"/>
	<rect x="302" y="370" class="st1" width="48" height="48"/>
	<rect x="370" y="370" class="st1" width="48" height="48"/>
</g>
<g id="icons">
	<g>
		<g>
			<g>
				<path class="st2" d="M388.94,378.64l-5.67,9.88l1.56-0.66c0.36-0.15,0.74-0.23,1.12-0.23c1.46,0,2.69,1.09,2.87,2.54l0.28,2.24
					l4.02-7.01l-4.02-7.01C389.05,378.47,388.99,378.55,388.94,378.64z M404.55,382.58l-1.56,0.9l-2.78-4.85
					c-0.62-1.09-1.78-1.76-3.04-1.76h-5.2c-0.27,0-0.54,0.04-0.79,0.1l3.96,6.9h0.01l1.78,3.1l-1.28,0.74
					c-0.28,0.16-0.26,0.58,0.04,0.71l7.84,3.3c0.06,0.03,0.12,0.03,0.18,0.03c0.06,0,0.12-0.02,0.17-0.05
					c0.1-0.06,0.18-0.16,0.19-0.29l0.73-5.78l0.33-2.66C405.18,382.65,404.84,382.42,404.55,382.58z"/>
				<path class="st2" d="M412.66,400.37c-0.04-0.08-0.07-0.16-0.11-0.23l-5.78-10.07l-0.21,1.66c-0.18,1.45-1.42,2.54-2.87,2.54
					c-0.39,0-0.77-0.08-1.12-0.23l-2.1-0.88l4.14,7.22H412.66z M385.52,398.57l1.29,0.75c0.28,0.16,0.63-0.07,0.59-0.39l-1.06-8.44
					c-0.03-0.26-0.3-0.42-0.55-0.32l-7.84,3.3c-0.3,0.13-0.33,0.54-0.04,0.71l1.54,0.89l-2.87,5.1c-0.61,1.08-0.6,2.4,0.02,3.47
					l2.6,4.49c0.14,0.23,0.3,0.45,0.48,0.64l4.54-7.92L385.52,398.57z M404.9,402.87L404.9,402.87l-3.59,0v-1.42
					c0-0.33-0.37-0.51-0.63-0.32l-6.78,5.14c-0.1,0.08-0.16,0.2-0.16,0.32c0,0.01,0.01,0.03,0.01,0.04c0.01,0.1,0.06,0.21,0.15,0.28
					l2.36,1.79l2.29,1.73l2.13,1.62c0.26,0.2,0.63,0.01,0.63-0.32v-1.85h5.61c1.25,0,2.4-0.67,3.03-1.75l2.6-4.49
					c0.14-0.24,0.25-0.5,0.32-0.76H404.9z M391.23,406.59c0-0.9,0.43-1.76,1.15-2.31l1.85-1.41h-8.28l-4.01,6.98
					c0.1,0.01,0.19,0.02,0.29,0.02h11.43l-1.29-0.98C391.66,408.35,391.23,407.49,391.23,406.59z"/>
			</g>
		</g>
	</g>
	<g>
		<g>
			<path class="st2" d="M336.96,409.62c-1.73,0-3.22-1.29-3.46-3l-0.37-2.61c-1.84,1.4-4.13,2.24-6.62,2.24
				c-3.35,0-6.34-1.51-8.35-3.87l0.67-0.38c0.36-0.21,0.32-0.74-0.06-0.9l-6.72-2.69c-0.3-0.12-0.64,0.07-0.68,0.39l-1.03,7.16
				c-0.06,0.41,0.38,0.71,0.74,0.5l0.94-0.55c3.28,4.44,8.54,7.33,14.49,7.33c4.07,0,7.82-1.37,10.83-3.66
				C337.21,409.59,337.09,409.62,336.96,409.62z"/>
			<path class="st2" d="M331,380.34l-5.69-4.47c-0.33-0.26-0.81-0.02-0.81,0.39v1.1c-9,1-16,8.61-16,17.87
				c0,0.76,0.06,1.5,0.15,2.23c0.55-1.25,1.79-2.11,3.2-2.11h0c0.45,0,0.89,0.08,1.3,0.25l2.44,0.98c-0.06-0.44-0.09-0.89-0.09-1.35
				c0-5.39,3.88-9.87,9-10.81v0.78c0,0.42,0.48,0.65,0.81,0.39l5.69-4.47C331.25,380.93,331.25,380.54,331,380.34z M342.98,402.44
				c0.97-2.21,1.52-4.64,1.52-7.2c0-7.45-4.54-13.81-10.99-16.55c0.43,0.59,0.68,1.3,0.68,2.05c0,1.08-0.49,2.08-1.34,2.75
				l-2.07,1.63c3.94,1.67,6.72,5.57,6.72,10.12c0,1.29-0.24,2.52-0.64,3.67l-0.67-0.39c-0.36-0.21-0.8,0.09-0.75,0.5l1.03,7.16
				c0.05,0.32,0.38,0.51,0.68,0.39l6.72-2.69c0.39-0.16,0.43-0.69,0.06-0.9L342.98,402.44z"/>
		</g>
	</g>
	<g>
		<g>
			<path class="st2" d="M250.05,395.18c-0.96-0.96-2.55-0.9-3.43,0.18c-0.77,0.94-0.6,2.33,0.25,3.18l2.54,2.54
				c0.5,0.5,0.5,1.31,0,1.81c-0.5,0.5-1.31,0.5-1.81,0l-2.47-2.47c-0.94-0.94-1.48-2.18-1.53-3.5l0.02-5.99
				c0-1.47-1.26-2.64-2.76-2.49c-1.3,0.13-2.24,1.32-2.24,2.63v6.16c0,1.42,0.5,2.79,1.42,3.87l5.62,6.65
				c0.09,0.11,0.23,0.18,0.38,0.18l10.27,0.01c0.28,0,0.5-0.22,0.5-0.5v-3.03c0-1.59-0.63-3.12-1.76-4.24L250.05,395.18z
				 M276.14,388.45c-1.5-0.15-2.76,1.02-2.76,2.49l0.02,5.99c-0.05,1.32-0.59,2.56-1.53,3.5l-2.47,2.47c-0.5,0.5-1.31,0.5-1.81,0
				c-0.5-0.5-0.5-1.31,0-1.81l2.54-2.54c0.85-0.85,1.02-2.25,0.25-3.18c-0.88-1.08-2.47-1.13-3.43-0.18l-5,5
				c-1.13,1.13-1.76,2.65-1.76,4.24v3.03c0,0.28,0.22,0.5,0.5,0.5l10.27-0.01c0.15,0,0.29-0.07,0.38-0.18l5.62-6.65
				c0.91-1.08,1.42-2.45,1.42-3.87v-6.16C278.38,389.77,277.44,388.58,276.14,388.45z"/>
			<path class="st2" d="M256.57,410.71H246.3c-0.28,0-0.5,0.22-0.5,0.5v2c0,0.28,0.22,0.5,0.5,0.5h10.27c0.28,0,0.5-0.22,0.5-0.5v-2
				C257.07,410.93,256.85,410.71,256.57,410.71z M266.8,389.93c3.64-5.47,0.37-12.87-0.99-14.42c-0.19-0.22-0.49-0.28-0.76-0.17
				c-1.88,0.8-9.33,4.1-11.37,6.92c-1.84,2.55-1.49,5.08,0.29,7.3c-0.43,0.32-0.83,0.57-1.19,0.73c-0.63,0.29-0.9,1.03-0.61,1.66
				c0.21,0.46,0.66,0.73,1.14,0.73c0.17,0,0.35-0.04,0.52-0.11c2.89-1.33,6.6-5.58,8.62-9.9c0.02-0.04,0.02-0.08,0.03-0.12
				c0.02-0.03,0.05-0.08,0.08-0.11c0.32-0.48,1.06-0.17,0.96,0.4c-0.46,2.58-1.94,6.26-5.61,9.66c-0.44,0.41-0.21,1.16,0.39,1.22
				C261.25,394.06,265.18,392.37,266.8,389.93z M270.7,410.71h-10.27c-0.28,0-0.5,0.22-0.5,0.5v2c0,0.28,0.22,0.5,0.5,0.5h10.27
				c0.28,0,0.5-0.22,0.5-0.5v-2C271.2,410.93,270.97,410.71,270.7,410.71z"/>
		</g>
	</g>
	<g>
		<g>
			<path class="st2" d="M182.05,395.36c-0.96-0.96-2.55-0.9-3.43,0.18c-0.77,0.94-0.6,2.33,0.25,3.18l2.54,2.54
				c0.5,0.5,0.5,1.31,0,1.81c-0.5,0.5-1.31,0.5-1.81,0l-2.47-2.47c-0.94-0.94-1.48-2.18-1.53-3.5l0.02-5.99
				c0-1.47-1.26-2.64-2.76-2.49c-1.3,0.13-2.24,1.32-2.24,2.63v6.16c0,1.42,0.5,2.79,1.42,3.87l5.62,6.65
				c0.09,0.11,0.23,0.18,0.38,0.18l10.27,0.01c0.28,0,0.5-0.22,0.5-0.5v-3.03c0-1.59-0.63-3.12-1.76-4.24L182.05,395.36z
				 M208.14,388.63c-1.5-0.15-2.76,1.02-2.76,2.49l0.02,5.99c-0.05,1.32-0.59,2.56-1.53,3.5l-2.47,2.47c-0.5,0.5-1.31,0.5-1.81,0
				c-0.5-0.5-0.5-1.31,0-1.81l2.54-2.54c0.85-0.85,1.02-2.25,0.25-3.18c-0.88-1.08-2.47-1.14-3.43-0.18l-5,5
				c-1.13,1.13-1.76,2.65-1.76,4.24v3.03c0,0.28,0.22,0.5,0.5,0.5l10.27-0.01c0.15,0,0.29-0.07,0.38-0.18l5.62-6.65
				c0.92-1.08,1.42-2.45,1.42-3.87v-6.16C210.38,389.95,209.44,388.76,208.14,388.63z"/>
			<path class="st2" d="M188.07,383.43h4.86c0.29,0,0.52-0.24,0.5-0.51c-0.32-4.88-1.98-7.81-2.93-7.81c-0.95,0-2.61,2.93-2.93,7.81
				C187.55,383.2,187.78,383.43,188.07,383.43z M181.12,383.36h3.44c0.27,0,0.48-0.21,0.5-0.47c0.13-2.32,0.52-4.56,1.16-6.39
				c0.15-0.43-0.31-0.83-0.71-0.6c-2.51,1.44-4.34,3.94-4.89,6.89C180.57,383.08,180.82,383.36,181.12,383.36z M195.94,382.89
				c0.01,0.26,0.23,0.47,0.5,0.47h3.44c0.31,0,0.55-0.28,0.5-0.58c-0.55-2.95-2.38-5.44-4.89-6.89c-0.4-0.23-0.86,0.17-0.71,0.6
				C195.42,378.33,195.81,380.57,195.94,382.89z M195.49,393.33c2.51-1.44,4.34-3.94,4.89-6.89c0.06-0.3-0.19-0.58-0.5-0.58h-3.44
				c-0.27,0-0.48,0.21-0.5,0.47c-0.13,2.31-0.52,4.56-1.16,6.39C194.62,393.16,195.09,393.56,195.49,393.33z M192.93,385.79h-4.86
				c-0.29,0-0.52,0.24-0.5,0.51c0.32,4.88,1.98,7.81,2.93,7.81c0.95,0,2.61-2.93,2.93-7.81
				C193.45,386.03,193.22,385.79,192.93,385.79z M202.7,410.89h-10.27c-0.28,0-0.5,0.22-0.5,0.5v2c0,0.28,0.22,0.5,0.5,0.5h10.27
				c0.28,0,0.5-0.22,0.5-0.5v-2C203.2,411.11,202.97,410.89,202.7,410.89z M185.51,393.33c0.4,0.23,0.86-0.17,0.71-0.6
				c-0.64-1.84-1.03-4.08-1.16-6.39c-0.01-0.26-0.23-0.47-0.5-0.47h-3.44c-0.31,0-0.56,0.28-0.5,0.58
				C181.17,389.39,183,391.89,185.51,393.33z M188.57,410.89H178.3c-0.28,0-0.5,0.22-0.5,0.5v2c0,0.28,0.22,0.5,0.5,0.5h10.27
				c0.28,0,0.5-0.22,0.5-0.5v-2C189.07,411.11,188.85,410.89,188.57,410.89z"/>
		</g>
	</g>
	<g>
		<g>
			<g>
				<path class="st2" d="M114.05,394.89c-0.96-0.96-2.55-0.9-3.43,0.18c-0.77,0.94-0.6,2.33,0.25,3.18l2.54,2.54
					c0.5,0.5,0.5,1.31,0,1.81c-0.5,0.5-1.31,0.5-1.81,0l-2.47-2.47c-0.94-0.94-1.48-2.18-1.53-3.5l0.02-5.99
					c0-1.47-1.26-2.64-2.76-2.49c-1.3,0.13-2.24,1.32-2.24,2.63v6.16c0,1.42,0.5,2.79,1.42,3.87l5.62,6.65
					c0.09,0.11,0.23,0.18,0.38,0.18l10.27,0.01c0.28,0,0.5-0.22,0.5-0.5v-3.03c0-1.59-0.63-3.12-1.76-4.24L114.05,394.89z
					 M140.14,388.15c-1.5-0.15-2.76,1.02-2.76,2.49l0.02,5.99c-0.05,1.32-0.59,2.56-1.53,3.5l-2.47,2.47c-0.5,0.5-1.31,0.5-1.81,0
					c-0.5-0.5-0.5-1.31,0-1.81l2.54-2.54c0.85-0.85,1.02-2.25,0.25-3.18c-0.88-1.08-2.47-1.13-3.43-0.18l-5,5
					c-1.13,1.13-1.76,2.65-1.76,4.24v3.03c0,0.28,0.22,0.5,0.5,0.5l10.27-0.01c0.15,0,0.29-0.07,0.38-0.18l5.62-6.65
					c0.92-1.08,1.42-2.45,1.42-3.87v-6.16C142.38,389.48,141.44,388.28,140.14,388.15z"/>
				<path class="st2" d="M120.57,410.42H110.3c-0.28,0-0.5,0.22-0.5,0.5v2c0,0.28,0.22,0.5,0.5,0.5h10.27c0.28,0,0.5-0.22,0.5-0.5
					v-2C121.07,410.64,120.85,410.42,120.57,410.42z M128.78,385.76c-0.28-3.83-3.65-5.98-5.66-9.65c-0.38-0.7-1.37-0.7-1.75,0
					c-2.01,3.68-5.38,5.83-5.66,9.65c-0.28,3.83,2.88,6.94,6.53,6.94C125.9,392.7,129.06,389.59,128.78,385.76z M120.33,388.2
					c-1.04,0-1.88-0.84-1.88-1.88c0-1.04,0.84-1.88,1.88-1.88c1.04,0,1.88,0.84,1.88,1.88C122.21,387.35,121.37,388.2,120.33,388.2z
					 M134.7,410.42h-10.27c-0.28,0-0.5,0.22-0.5,0.5v2c0,0.28,0.22,0.5,0.5,0.5h10.27c0.28,0,0.5-0.22,0.5-0.5v-2
					C135.2,410.64,134.97,410.42,134.7,410.42z"/>
			</g>
		</g>
	</g>
	<g>
		<g>
			<g>
				<path class="st2" d="M54.18,374.62c-0.62,0-4.57,3.44-5.3,7.91c1.62,0.22,3.86,0.87,5.61,2.68c0,0,0,0,0,0c0,0,0,0,0,0
					c1.54-1.59,3.45-2.28,4.99-2.58C58.82,378.1,54.8,374.62,54.18,374.62z"/>
				<path class="st2" d="M52.71,394.38L52.71,394.38l3.55,0.01v-0.01c1.47-0.03,3.47-0.73,5-2.31c2.35-2.42,2.08-6.63,1.77-6.95
					c-0.31-0.32-4.39-0.59-6.73,1.83c-0.85,0.88-1.44,1.91-1.8,2.91c-0.36-1-0.95-2.03-1.8-2.91c-2.35-2.42-6.42-2.15-6.73-1.83
					c-0.31,0.32-0.58,4.52,1.77,6.95C49.26,393.64,51.25,394.34,52.71,394.38z M65,396.38H44c-0.55,0-1,0.45-1,1v4.5
					c0,0.28,0.22,0.5,0.5,0.5h0.89l1.83,10.05c0.21,1.13,1.19,1.95,2.34,1.95h11.4c1.15,0,2.13-0.82,2.34-1.95l1.38-7.56h-3.67
					c-0.69,0-1.25-0.56-1.25-1.25c0-0.67,0.53-1.2,1.19-1.24h5.57c0.28,0,0.5-0.22,0.5-0.5v-4.5C66,396.83,65.55,396.38,65,396.38z"
					/>
			</g>
		</g>
	</g>
	<g>
		<g>
			<circle class="st2" cx="394.56" cy="326.5" r="3"/>
			<path class="st2" d="M408.14,326.41c0.34-0.37,0.66-0.75,0.96-1.12c2.7-3.36,3.49-6.42,2.22-8.61c-0.66-1.14-2.16-2.52-5.57-2.6
				c-0.85-0.03-1.52,0.64-1.54,1.46c-0.02,0.83,0.63,1.52,1.46,1.54c1.58,0.04,2.66,0.43,3.05,1.1c0.58,1-0.17,3.01-1.96,5.23
				c-0.24,0.3-0.5,0.6-0.77,0.89c-0.99-0.88-2.06-1.74-3.18-2.56c-0.77-7.45-3.57-14.74-8.25-14.74c-3.11,0-5.41,3.18-6.83,7.65
				c-0.51-0.11-1.01-0.21-1.49-0.28c-4.26-0.65-7.3,0.19-8.57,2.38c-0.69,1.2-1.13,3.3,0.74,6.49c0.42,0.71,1.34,0.96,2.05,0.54
				c0.71-0.42,0.96-1.34,0.54-2.05c-0.87-1.49-1.14-2.76-0.73-3.47c0.58-1,2.69-1.35,5.51-0.92c0.39,0.06,0.78,0.14,1.19,0.22
				c-0.27,1.28-0.49,2.63-0.64,4c-6.13,4.4-11.15,10.54-8.79,14.63c1.05,1.82,3.17,2.59,5.86,2.59c1.31,0,2.77-0.21,4.29-0.54
				c1.42,4.53,3.73,7.78,6.87,7.78c1.43,0,3.52-0.71,5.38-4.12c0.4-0.73,0.13-1.64-0.6-2.04c-0.73-0.4-1.64-0.13-2.04,0.6
				c-0.89,1.62-1.89,2.55-2.74,2.55c-1.26,0-2.83-2.02-3.97-5.57c1.26-0.41,2.54-0.91,3.82-1.48c3.8,1.72,7.88,2.88,11.17,2.88
				c2.67,0,4.82-0.76,5.87-2.58C413.02,333.53,411.36,329.9,408.14,326.41z M380.15,334.68c-0.88-1.53,1.17-5.25,5.93-9.15
				c-0.01,0.33-0.01,0.65-0.01,0.98c0,3,0.3,6.06,0.89,8.84C383.31,336.12,380.77,335.77,380.15,334.68z M394.56,310
				c1.75,0,3.92,3.58,4.93,9.54c-0.23-0.14-0.45-0.27-0.68-0.4c-2.74-1.58-5.53-2.84-8.18-3.7C391.77,311.98,393.32,310,394.56,310z
				 M389.84,334.54c-0.48-2.3-0.78-5-0.78-8.04c0-3.09,0.31-5.83,0.8-8.16c2.39,0.79,4.94,1.95,7.45,3.4
				c2.63,1.52,4.81,3.12,6.56,4.68c-1.89,1.68-4.17,3.32-6.69,4.77C394.55,332.71,392.07,333.8,389.84,334.54z M408.85,334.75
				c-0.88,1.53-5.14,1.61-10.9-0.56c0.24-0.14,0.49-0.26,0.74-0.4c2.76-1.59,5.25-3.4,7.33-5.27
				C408.52,331.28,409.48,333.66,408.85,334.75z"/>
		</g>
	</g>
	<g>
		<g>
			<path class="st2" d="M332.61,317.16l0.47-0.47c0.2-0.2,0.2-0.51,0-0.71l-3.57-3.57c-0.2-0.2-0.51-0.2-0.71,0l-0.49,0.49
				c-5.19-3.97-10.35-4.22-12.93-3.33c-0.55,0.19-0.52,0.97,0.03,1.15c2.95,1,6.25,2.95,9.42,5.66l-0.04,0.04
				c-0.2,0.2-0.2,0.51,0,0.71l3.57,3.57c0.2,0.2,0.51,0.2,0.71,0l0.05-0.05c2.78,3.24,4.77,6.61,5.75,9.61
				c0.17,0.52,0.89,0.58,1.13,0.09C337.35,327.66,336.94,322.56,332.61,317.16z"/>
			<path class="st2" d="M331.55,334.41h1.12c0.28,0,0.5-0.22,0.5-0.5v-1.12c0-0.28-0.22-0.5-0.5-0.5h-1.12c-0.28,0-0.5,0.22-0.5,0.5
				v1.12C331.05,334.18,331.28,334.41,331.55,334.41z M324.2,330.93v1.83c0,0.28,0.22,0.5,0.5,0.5h1.83c0.28,0,0.5-0.22,0.5-0.5
				v-1.83c0-0.28-0.22-0.5-0.5-0.5h-1.83C324.42,330.43,324.2,330.66,324.2,330.93z M337.76,316.49c0.2,0.2,0.51,0.2,0.71,0
				l0.79-0.79c0.2-0.2,0.2-0.51,0-0.71l-0.79-0.79c-0.2-0.2-0.51-0.2-0.71,0l-0.79,0.79c-0.2,0.2-0.2,0.51,0,0.71L337.76,316.49z
				 M326.21,322.11l-2.83-2.83c-0.2-0.2-0.51-0.2-0.71,0l-14.14,14.14c-0.2,0.2-0.2,0.51,0,0.71l2.83,2.83c0.2,0.2,0.51,0.2,0.71,0
				l14.14-14.14C326.4,322.62,326.4,322.31,326.21,322.11z M344.11,317.85h-2.06c-0.15,0-0.3,0.07-0.39,0.19l-2.85,3.56
				c-0.12,0.15-0.14,0.36-0.06,0.54l1.8,3.61c0.03,0.07,0.05,0.15,0.05,0.22v5.67c0,0.13-0.05,0.26-0.15,0.35l-5.68,5.68
				c-0.11,0.11-0.26,0.16-0.42,0.14l-7.61-0.95c-0.1-0.01-0.2,0-0.29,0.05l-5.76,2.88c-0.07,0.03-0.15,0.05-0.22,0.05h-4.63
				c-0.16,0-0.31,0.07-0.4,0.2l-2.25,3c-0.25,0.33-0.01,0.8,0.4,0.8h30.5c0.28,0,0.5-0.22,0.5-0.5v-25
				C344.61,318.07,344.39,317.85,344.11,317.85z"/>
		</g>
	</g>
	<g>
		<g>
			<path class="st2" d="M277,337.5h-1.61v-10.9l-0.43,0.25c-0.54,0.32-1.15,0.48-1.77,0.48c-0.1,0-0.2-0.02-0.3-0.03v10.2h-1.61
				c-0.28,0-0.5,0.22-0.5,0.5v7c0,0.28,0.22,0.5,0.5,0.5H277c0.28,0,0.5-0.22,0.5-0.5v-7C277.5,337.72,277.28,337.5,277,337.5z"/>
			<path class="st2" d="M268,341.5h-5.5v-19.3l3.5-1.52l-0.77-0.93c-0.27-0.32-0.47-0.69-0.61-1.09l-1.17-3.36l-22.18,9.66
				c-0.25,0.11-0.37,0.4-0.26,0.66l0.75,1.72v11.16H240c-0.28,0-0.5,0.22-0.5,0.5v6c0,0.28,0.22,0.5,0.5,0.5h3.75
				c0.28,0,0.5-0.22,0.5-0.5V344c0,0,0,0,0-0.01v-13.85l3.25-1.42v12.58c0,0.06,0,0.12,0,0.18V345c0,0.28,0.22,0.5,0.5,0.5h20
				c0.28,0,0.5-0.22,0.5-0.5v-3C268.5,341.72,268.28,341.5,268,341.5z M251.5,330.7l4.94,3.43l-4.94,3.43V330.7z M258.5,341.5h-5.66
				l5.66-3.92V341.5z M258.5,330.69l-5.97-4.15l5.97-2.6V330.69z M275.5,318.34c-0.05-3.15-1.04-6.06-2.88-8.45l-1.54-2
				c-0.31-0.4-0.86-0.51-1.3-0.25l-4.57,2.68c-0.41,0.24-0.59,0.74-0.44,1.19l2.2,6.32c0.04,0.11,0.1,0.22,0.18,0.31l5.26,6.33
				c0.31,0.38,0.85,0.47,1.28,0.22l1.39-0.82c0.31-0.18,0.5-0.52,0.49-0.88L275.5,318.34z"/>
		</g>
	</g>
	<g>
		<g>
			<path class="st2" d="M183.58,312.25l-3.01-3.01c-0.2-0.2-0.51-0.2-0.71,0l-5.09,5.09c-0.2,0.2-0.2,0.51,0,0.71l3.01,3.01
				c0.2,0.2,0.51,0.2,0.71,0l5.09-5.09C183.77,312.76,183.77,312.44,183.58,312.25z"/>
			<path class="st2" d="M202.02,308h-7.72c-1.15,0-2.25,0.45-3.06,1.26l-12.57,12.44c-0.83,0.82-1.29,1.93-1.29,3.09v0.23
				c-0.76,0.08-1.35,0.71-1.35,1.48s0.59,1.41,1.35,1.48V328h1.85c0.83,0,1.5,0.67,1.5,1.5c0,0.82-0.67,1.49-1.49,1.5h-1.7
				c0,0-0.01,0-0.01,0h-0.14v0.01c-0.76,0.08-1.35,0.71-1.35,1.48s0.59,1.41,1.35,1.48V334h1.85c0.83,0,1.5,0.67,1.5,1.5
				c0,0.82-0.67,1.49-1.49,1.5h-1.7c0,0-0.01,0-0.01,0h-0.14v0.01c-0.76,0.08-1.35,0.71-1.35,1.48s0.59,1.41,1.35,1.48v0.66
				c0,2.4,1.95,4.35,4.35,4.35h20.29c2.4,0,4.35-1.95,4.35-4.35v-28.29C206.38,309.95,204.43,308,202.02,308z M199.02,336.39
				c-1.32,1.98-4.5,3.35-6.91,3.08c-0.48-0.05-0.67-0.66-0.32-0.99c2.98-2.76,4.19-5.75,4.56-7.84c0.06-0.35-0.26-0.58-0.54-0.5
				c-0.01,0.16-0.04,0.31-0.11,0.46c-1.66,3.55-4.72,7.05-7.12,8.15c-0.17,0.08-0.35,0.11-0.52,0.11c-0.47,0-0.93-0.27-1.14-0.73
				c-0.29-0.63-0.01-1.37,0.61-1.66c0.27-0.13,0.59-0.33,0.92-0.57c-1.31-1.75-1.52-3.73-0.08-5.73c1.65-2.3,7.71-4.97,9.23-5.62
				c0.22-0.09,0.46-0.04,0.61,0.14C199.32,325.94,201.98,331.95,199.02,336.39z M202.38,316c0,0.55-0.45,1-1,1h-10.79
				c-0.45,0-0.67-0.54-0.35-0.85l3.85-3.85c0.19-0.19,0.44-0.29,0.71-0.29h6.59c0.55,0,1,0.45,1,1V316z"/>
		</g>
	</g>
	<g>
		<g>
			<path class="st2" d="M134.56,317.06c-0.03-0.53-0.47-0.94-1-0.94h-22.12c-0.53,0-0.96,0.41-1,0.94l-1.87,29
				c-0.04,0.58,0.42,1.06,1,1.06h25.87c0.58,0,1.04-0.49,1-1.06L134.56,317.06z M127.65,337.01c-1.32,1.98-4.5,3.35-6.91,3.08
				c-0.48-0.05-0.67-0.66-0.32-0.99c2.98-2.76,4.19-5.75,4.56-7.84c0.06-0.35-0.26-0.58-0.54-0.5c-0.01,0.16-0.04,0.31-0.11,0.46
				c-1.66,3.55-4.72,7.05-7.12,8.15c-0.17,0.08-0.35,0.11-0.52,0.11c-0.47,0-0.93-0.27-1.14-0.73c-0.29-0.63-0.01-1.37,0.61-1.66
				c0.27-0.13,0.59-0.33,0.92-0.57c-1.31-1.75-1.52-3.73-0.08-5.73c1.65-2.3,7.71-4.97,9.23-5.62c0.22-0.09,0.46-0.04,0.61,0.14
				C127.95,326.57,130.6,332.57,127.65,337.01z"/>
			<path class="st2" d="M122.61,305.88h-0.22c-4,0-7.25,3.25-7.25,7.25c0,0.69,0.56,1.25,1.25,1.25c0.69,0,1.25-0.56,1.25-1.25
				c0-2.62,2.13-4.75,4.75-4.75h0.22c2.62,0,4.75,2.13,4.75,4.75c0,0.69,0.56,1.25,1.25,1.25c0.69,0,1.25-0.56,1.25-1.25
				C129.86,309.13,126.61,305.88,122.61,305.88z"/>
		</g>
	</g>
	<g>
		<g>
			<path class="st2" d="M67.5,310.53h-5.25v-1.82c0-1.79-1.46-3.25-3.25-3.25h-9c-1.79,0-3.25,1.46-3.25,3.25v1.82H41.5
				c-1.1,0-2,0.9-2,2v4h30v-4C69.5,311.43,68.6,310.53,67.5,310.53z M59.75,310.53h-10.5v-1.82c0-0.41,0.34-0.75,0.75-0.75h9
				c0.41,0,0.75,0.34,0.75,0.75V310.53z"/>
			<path class="st2" d="M41.5,318.53v25c0,2.21,1.79,4,4,4h18c2.21,0,4-1.79,4-4v-25H41.5z M59.65,338.42
				c-1.32,1.98-4.5,3.35-6.91,3.08c-0.48-0.05-0.67-0.66-0.32-0.99c2.98-2.76,4.19-5.75,4.56-7.84c0.06-0.35-0.26-0.58-0.54-0.5
				c-0.01,0.16-0.04,0.31-0.11,0.46c-1.66,3.55-4.72,7.05-7.12,8.15c-0.17,0.08-0.35,0.11-0.52,0.11c-0.47,0-0.93-0.27-1.14-0.73
				c-0.29-0.63-0.01-1.37,0.61-1.66c0.27-0.13,0.59-0.33,0.92-0.57c-1.31-1.75-1.52-3.73-0.08-5.73c1.65-2.3,7.71-4.97,9.23-5.62
				c0.22-0.09,0.46-0.04,0.61,0.14C59.95,327.97,62.6,333.98,59.65,338.42z"/>
		</g>
	</g>
	<g>
		<g>
			<path class="st2" d="M389.29,264.14c0-6.52,4.64-11.97,10.8-13.23c-2.54-3.26-5.54-6.5-7.8-10.55c-0.91-1.63-3.19-1.63-4.1,0
				c-4.62,8.28-12.3,13.15-12.94,21.78c-0.65,8.67,6.6,15.71,14.99,15.71c2.37,0,4.64-0.58,6.67-1.58
				C392.41,274.09,389.29,269.48,389.29,264.14z M382.11,254.48c0.32-0.49,0.66-0.98,1.02-1.48c0.4-0.56,1.18-0.7,1.74-0.3
				c0.56,0.4,0.7,1.18,0.3,1.74c-0.34,0.48-0.66,0.95-0.97,1.41c-0.24,0.37-0.64,0.56-1.05,0.56c-0.24,0-0.47-0.07-0.69-0.21
				C381.89,255.83,381.73,255.06,382.11,254.48z M385.23,272.02c-0.23,0.4-0.65,0.62-1.08,0.62c-0.21,0-0.43-0.05-0.63-0.17
				c-0.82-0.48-1.56-1.06-2.18-1.73c-1.85-1.97-2.71-4.63-2.51-7.68c0.06-0.87,0.2-1.75,0.43-2.6c0.18-0.67,0.86-1.07,1.53-0.89
				c0.67,0.18,1.07,0.86,0.89,1.53c-0.19,0.71-0.3,1.4-0.35,2.13c-0.16,2.34,0.48,4.35,1.84,5.8c0.46,0.49,1.01,0.92,1.62,1.28
				C385.37,270.66,385.57,271.42,385.23,272.02z"/>
			<path class="st2" d="M402.79,253.14c-6.08,0-11,4.92-11,11s4.92,11,11,11c6.08,0,11-4.92,11-11S408.87,253.14,402.79,253.14z
				 M407.63,264.23l-7.36,6.72c-0.38,0.35-0.98-0.04-0.82-0.53l1.57-4.7c0.11-0.33-0.13-0.67-0.48-0.67h-2.95
				c-0.46,0-0.68-0.57-0.34-0.88l7.36-6.72c0.38-0.35,0.98,0.04,0.82,0.53l-1.57,4.7c-0.11,0.33,0.13,0.67,0.48,0.67h2.95
				C407.75,263.35,407.97,263.92,407.63,264.23z"/>
		</g>
	</g>
	<g>
		<g>
			<g>
				<path class="st2" d="M313.83,240.69c-0.2-0.2-0.51-0.2-0.71,0l-5.09,5.09c-0.2,0.2-0.2,0.51,0,0.71l3.01,3.01
					c0.2,0.2,0.51,0.2,0.71,0l5.09-5.09c0.2-0.2,0.2-0.51,0-0.71L313.83,240.69z M345.1,271.02c-0.26-3.6-3.43-5.62-5.32-9.08
					c-0.18-0.33-0.5-0.49-0.82-0.49c-0.32,0-0.64,0.16-0.82,0.49c-1.89,3.46-5.06,5.48-5.32,9.08c-0.26,3.6,2.7,6.53,6.15,6.53
					C342.4,277.55,345.36,274.63,345.1,271.02z M337.61,273.24c-1.04,0-1.88-0.84-1.88-1.88s0.84-1.88,1.88-1.88
					c1.04,0,1.88,0.84,1.88,1.88S338.65,273.24,337.61,273.24z"/>
				<path class="st2" d="M335.28,239.45h-7.72c-1.15,0-2.25,0.45-3.06,1.26l-12.57,12.44c-0.83,0.82-1.29,1.93-1.29,3.09v1.23
					c-0.75,0.08-1.35,0.71-1.35,1.48s0.59,1.41,1.35,1.48v0.02h1.85c0.83,0,1.5,0.67,1.5,1.5c0,0.83-0.67,1.49-1.49,1.5h-1.7
					c0,0-0.01,0-0.01,0h-0.14v0.01c-0.75,0.08-1.35,0.71-1.35,1.48s0.59,1.41,1.35,1.48v0.02h1.85c0.83,0,1.5,0.67,1.5,1.5
					c0,0.83-0.67,1.49-1.49,1.5h-1.7c0,0-0.01,0-0.01,0h-0.14v0.01c-0.75,0.08-1.35,0.71-1.35,1.48c0,0.79,0.61,1.43,1.38,1.49
					c0.18,2.24,2.03,4.01,4.32,4.01h16.93c-1.19-1.62-1.76-3.58-1.61-5.61c0.22-3.05,1.95-5.19,3.47-7.08c0.8-1,1.56-1.94,2.15-3.02
					c0.6-1.11,1.76-1.79,3.02-1.79c0.23,0,0.46,0.03,0.68,0.08V243.8C339.64,241.4,337.69,239.45,335.28,239.45z M335.64,247.45
					c0,0.55-0.45,1-1,1h-10.79c-0.45,0-0.67-0.54-0.35-0.85l3.85-3.85c0.19-0.19,0.44-0.29,0.71-0.29h6.59c0.55,0,1,0.45,1,1V247.45
					z"/>
			</g>
		</g>
	</g>
	<g>
		<g>
			<g>
				<path class="st2" d="M268.15,254.73c-2.64-2.64-6.16-4.1-9.9-4.1c-3.74,0-7.26,1.46-9.9,4.1c-5.46,5.46-5.46,14.34,0,19.8
					c2.64,2.64,6.16,4.1,9.9,4.1c3.74,0,7.26-1.46,9.9-4.1C273.61,269.07,273.61,260.18,268.15,254.73z M258.25,253.62
					c1.15,0,2.28,0.18,3.34,0.52c-0.18,0.06-0.36,0.11-0.54,0.18c-2.22,0.83-4.6,2.35-6.78,4.34l-2.61-2.75
					c-0.02-0.02-0.04-0.02-0.05-0.04C253.51,254.42,255.81,253.62,258.25,253.62z M247.77,267.94c-1.05-3.33-0.47-7.06,1.72-9.95
					l2.66,2.8C250,263.19,248.5,265.69,247.77,267.94z M250.67,272.21c-1.07-1.07-0.12-5.03,3.56-9.23l2.71,2.91
					c0.29,0.31,0.69,0.47,1.09,0.47c0.37,0,0.74-0.14,1.03-0.41c0.6-0.57,0.63-1.52,0.06-2.12l-2.78-2.98
					c1.89-1.71,3.91-3.01,5.77-3.7c0.9-0.34,1.72-0.51,2.39-0.51c0.6,0,1.07,0.14,1.35,0.42c1.17,1.17-0.07,5.83-4.7,10.46
					c-2.16,2.16-4.55,3.8-6.73,4.61C252.69,272.76,251.25,272.79,250.67,272.21z M258.25,275.62c-1.15,0-2.27-0.18-3.34-0.52
					c0.18-0.06,0.36-0.11,0.54-0.18c2.12-0.79,4.37-2.21,6.47-4.06l2.71,2.71C262.78,274.9,260.57,275.62,258.25,275.62z
					 M266.82,271.52l-2.75-2.75c2.31-2.5,3.91-5.11,4.67-7.46C269.81,264.74,269.17,268.6,266.82,271.52z"/>
				<path class="st2" d="M276.3,248.74l-16.5-10c-0.8-0.48-1.79-0.48-2.59,0l-16.5,10c-1.18,0.71-1.56,2.25-0.84,3.43
					c0.72,1.18,2.25,1.56,3.43,0.84l15.2-9.21l15.2,9.21c0.41,0.25,0.85,0.36,1.29,0.36c0.85,0,1.67-0.43,2.14-1.2
					C277.85,250.99,277.48,249.45,276.3,248.74z"/>
			</g>
		</g>
	</g>
	<g>
		<g>
			<g>
				<g>
					<path class="st2" d="M184.75,267.99c-1.43,0-2.7-0.84-3.26-2.15c-0.55-1.29-0.27-2.78,0.71-3.79c1.95-2.02,3.49-3.73,4.76-5.31
						c-2.17-3.13-3.44-5.42-4.68-8.53c-0.27-0.67-1.24-0.68-1.52-0.01c-1.52,3.76-3,6.25-5.72,10.04c-0.38,0.52,0,1.25,0.66,1.25
						c0.54,0,1.2,0,1.93,0c-1.37,2.04-3.14,4.11-5.61,6.66c-0.49,0.51-0.12,1.34,0.59,1.34h5.59c-2.2,3.14-4.87,5.85-9.26,9.59
						c-0.57,0.48-0.23,1.41,0.52,1.41h7.91c-0.41-1.33,0-2.75,1.07-3.67c2.91-2.48,5.15-4.55,7.01-6.48
						c-0.09-0.12-0.17-0.23-0.26-0.35H184.75z"/>
					<path class="st2" d="M211.97,276.73c-3.94-3.35-6.77-6.04-9.08-8.74h-3.44c-1.38,0-2.5-1.12-2.5-2.5h7.01c1.07,0,2.18,0,3.35,0
						c0.9,0,1.37-1.05,0.75-1.69c-2.88-2.97-5-5.42-6.67-7.81h-1.94c-1.38,0-2.5-1.12-2.5-2.5h6.46c0.83,0,1.3-0.91,0.83-1.57
						c-3.61-5.04-5.48-8.19-7.29-12.76c-0.34-0.85-1.54-0.85-1.88-0.01c-1.93,4.79-3.8,7.95-7.26,12.77c-0.48,0.66,0,1.58,0.83,1.58
						c0.95,0,2.2,0,3.62,0c-1.88,3.24-4.39,6.3-8.27,10.3c-0.62,0.64-0.15,1.7,0.75,1.7h6.41c-2.67,3.6-5.94,6.86-11.08,11.24
						c-0.72,0.61-0.27,1.76,0.68,1.76c11.74,0,18.77,0,30.53,0C212.25,278.49,212.69,277.34,211.97,276.73z"/>
				</g>
			</g>
		</g>
	</g>
	<g>
		<g>
			<g>
				<path class="st2" d="M139.59,260.96c-0.86-1.08-2.42-1.27-3.51-0.42l-7.08,5.55c-0.35,0.28-0.78,0.43-1.23,0.43l-4.6,0l-0.47,0
					c-0.69,0-1.25-0.56-1.25-1.25c0-0.69,0.56-1.25,1.25-1.25l4.25,0c1.38,0,2.5-1.12,2.5-2.5c0-1.38-1.12-2.5-2.5-2.5l-9.73,0.01
					l-0.66,0c-1.34,0-2.65,0.45-3.7,1.28l-3.47,2.73c-0.22,0.17-0.26,0.49-0.08,0.7l6.74,8.53c0.09,0.12,0.24,0.19,0.39,0.19
					l8.16,0.07l2.26,0.02c1.37,0.01,2.7-0.44,3.77-1.29l8.57-6.77C140.26,263.62,140.45,262.04,139.59,260.96z"/>
				<path class="st2" d="M107.33,265.28c-0.17-0.22-0.49-0.25-0.7-0.08l-1.57,1.24c-0.22,0.17-0.25,0.49-0.08,0.7l6.58,8.33
					c0.17,0.22,0.49,0.25,0.7,0.08l1.57-1.24c0.22-0.17,0.25-0.49,0.08-0.7L107.33,265.28z M133.09,241.34
					c-4.06,0-7.36,3.23-7.49,7.25c0,0-0.01,0-0.01,0c0,0-0.01,0-0.01,0c-0.13-4.03-3.43-7.25-7.49-7.25h-1.5v1.5
					c0,4.14,3.36,7.5,7.5,7.5h0.25v4.5c0,0.69,0.56,1.25,1.25,1.25c0.69,0,1.25-0.56,1.25-1.25v-4.5h0.25c4.14,0,7.5-3.36,7.5-7.5
					v-1.5H133.09z"/>
			</g>
		</g>
	</g>
	<g>
		<g>
			<path class="st2" d="M58,238.25h-7c-0.28,0-0.5,0.22-0.5,0.5v3.5h8v-3.5C58.5,238.47,58.28,238.25,58,238.25z"/>
			<path class="st2" d="M64.5,244.75h-20c-1.1,0-2,0.9-2,2v30c0,1.1,0.9,2,2,2h20c1.1,0,2-0.9,2-2v-30
				C66.5,245.65,65.6,244.75,64.5,244.75z M58.52,268.28l-6.41,5.86c-0.34,0.31-0.86-0.03-0.71-0.46l1.37-4.1
				c0.1-0.29-0.12-0.58-0.42-0.58h-2.57c-0.4,0-0.59-0.49-0.3-0.77l6.41-5.86c0.34-0.31,0.86,0.03,0.71,0.46l-1.37,4.1
				c-0.1,0.29,0.12,0.58,0.42,0.58h2.57C58.63,267.51,58.82,268.01,58.52,268.28z M62.5,257.75h-16v-9h16V257.75z"/>
		</g>
	</g>
	<g>
		<g>
			<path class="st2" d="M410,208.25h-0.82c-1.61-4.39-4.31-13.14-4.65-23H406c0.28,0,0.5-0.22,0.5-0.5v-3c0-0.28-0.22-0.5-0.5-0.5
				h-23c-0.28,0-0.5,0.22-0.5,0.5v3c0,0.28,0.22,0.5,0.5,0.5h1.46c-0.34,9.86-3.1,18.61-4.74,23H379c-0.28,0-0.5,0.22-0.5,0.5v3
				c0,0.28,0.22,0.5,0.5,0.5h31c0.28,0,0.5-0.22,0.5-0.5v-3C410.5,208.47,410.28,208.25,410,208.25z M394.25,194.91
				c0.92,0,1.66,0.74,1.66,1.66c0,0.91-0.74,1.66-1.66,1.66s-1.66-0.74-1.66-1.66C392.59,195.65,393.33,194.91,394.25,194.91z
				 M389.63,196.52l-3.13-0.04c-0.28,0-0.52-0.25-0.5-0.53c0.19-2.59,1.57-4.84,3.6-6.22c0.24-0.16,0.56-0.08,0.71,0.17l1.6,2.71
				c0.13,0.23,0.06,0.5-0.15,0.66c-0.87,0.66-1.48,1.65-1.62,2.78C390.1,196.31,389.89,196.52,389.63,196.52z M397.85,204.03
				c-1.09,0.53-2.31,0.83-3.6,0.83c-1.29,0-2.51-0.3-3.6-0.83c-0.26-0.12-0.35-0.45-0.21-0.69l1.54-2.74
				c0.12-0.22,0.39-0.32,0.62-0.22c0.5,0.22,1.06,0.36,1.64,0.36s1.14-0.13,1.64-0.36c0.23-0.1,0.5,0,0.62,0.22l1.54,2.74
				C398.19,203.58,398.1,203.9,397.85,204.03z M402.01,196.48l-3.13,0.04c-0.26,0-0.47-0.2-0.5-0.47c-0.14-1.14-0.75-2.13-1.62-2.78
				c-0.21-0.16-0.28-0.44-0.15-0.66l1.6-2.71c0.15-0.24,0.47-0.33,0.71-0.17c2.03,1.38,3.41,3.63,3.6,6.22
				C402.53,196.24,402.29,196.48,402.01,196.48z"/>
			<path class="st2" d="M399.43,168.75c-2.43,0-4.45,1.68-4.95,3.93c-0.49-0.28-1.06-0.45-1.66-0.45c-1.83,0-3.31,1.46-3.31,3.26
				l-0.01,3.25l10.16,0c2.7-0.11,4.85-2.3,4.85-4.99C404.5,170.99,402.23,168.75,399.43,168.75z"/>
		</g>
	</g>
	<g>
		<g>
			<g>
				<g>
					<path class="st2" d="M346.41,181.85c-0.68-0.68-1.79-0.68-2.47,0l-3.45,3.45l-4.69-4.69l3.45-3.45c0.68-0.68,0.68-1.79,0-2.47
						c-0.68-0.68-1.79-0.68-2.47,0l-3.45,3.45l-2.4-2.4c-0.39-0.39-1.02-0.39-1.41,0l-3.13,3.13c-0.39,0.39-0.39,1.02,0,1.41
						l13.93,13.93c0.39,0.39,1.02,0.39,1.41,0l3.13-3.13c0.39-0.39,0.39-1.02,0-1.41l-1.89-1.89l3.45-3.45
						C347.09,183.64,347.09,182.54,346.41,181.85z"/>
					<path class="st2" d="M324.92,182.37l-4.5,4.5c-2.92,2.92-2.12,6.79,0.74,9.73l-5.32,5.32c-1.2,1.19-3.14,1.19-4.33,0
						c-1.19-1.19-1.19-3.14,0-4.33l1.5-1.5c1.91-1.91,1.91-5.01,0-6.92l-3.51-3.51c-0.78-0.78-2.05-0.78-2.83,0
						c-0.78,0.78-0.78,2.05,0,2.83l3.51,3.51c0.23,0.23,0.26,0.49,0.26,0.63c0,0.14-0.03,0.4-0.26,0.63l-1.5,1.5
						c-2.75,2.75-2.75,7.24,0,9.99c1.38,1.38,3.19,2.07,4.99,2.07c1.81,0,3.62-0.69,5-2.07l5.32-5.32c2.94,2.86,6.81,3.66,9.73,0.74
						l4.5-4.5L324.92,182.37z M328.74,194.72c-0.78,0.78-2.05,0.78-2.83,0c-0.78-0.78-0.78-2.05,0-2.83c0.78-0.78,2.05-0.78,2.83,0
						C329.52,192.67,329.52,193.93,328.74,194.72z"/>
				</g>
			</g>
		</g>
	</g>
	<g>
		<g>
			<path class="st2" d="M257.73,193.9v-16.27c0-2.83-2.3-5.13-5.13-5.13s-5.13,2.3-5.13,5.13v16.27c-1.8,1.45-2.99,3.64-3.07,6.13
				c-0.15,4.53,3.4,8.32,7.93,8.47c4.53,0.15,8.32-3.4,8.47-7.93C260.89,197.88,259.67,195.46,257.73,193.9z M252.48,205.18
				c-0.01,0-0.03,0-0.04,0c-1.3-0.04-2.51-0.59-3.4-1.54c-0.89-0.95-1.36-2.19-1.32-3.5c0.02-0.69,0.62-1.23,1.29-1.21
				c0.69,0.02,1.23,0.6,1.21,1.29c-0.02,0.64,0.21,1.24,0.64,1.71c0.43,0.46,1.02,0.73,1.66,0.75c0.69,0.02,1.23,0.6,1.21,1.29
				C253.71,204.64,253.15,205.18,252.48,205.18z M254.73,188.5h-4.26v-10.87c0-1.17,0.95-2.13,2.13-2.13c1.17,0,2.13,0.95,2.13,2.13
				V188.5z"/>
			<path class="st2" d="M261.6,172.75c-1.1,0-2,0.9-2,2c0,1.1,0.9,2,2,2s2-0.9,2-2C263.6,173.65,262.71,172.75,261.6,172.75z
				 M271.1,176.5c0.83,0,1.5-0.67,1.5-1.5c0-0.83-0.67-1.5-1.5-1.5h-4c-0.83,0-1.5,0.67-1.5,1.5v9c0,0.83,0.67,1.5,1.5,1.5
				s1.5-0.67,1.5-1.5v-2.5h1.5c0.83,0,1.5-0.67,1.5-1.5c0-0.83-0.67-1.5-1.5-1.5h-1.5v-2H271.1z"/>
		</g>
	</g>
	<g>
		<g>
			<g>
				<path class="st2" d="M206.01,189.58l-2.69-9.4c-0.49-1.72-2.06-2.9-3.85-2.9h-0.79c0.06,0.11,0.11,0.21,0.16,0.33
					c0.43,1.12,0.16,2.36-0.68,3.2c0.82,0.13,1.49,0.75,1.66,1.58l1.26,6.29c0.06,0.31-0.17,0.6-0.49,0.6h-20.18
					c-0.32,0-0.55-0.29-0.49-0.6l1.26-6.29c0.19-0.93,1.01-1.61,1.96-1.61h0.67c-0.06-0.11-0.11-0.21-0.16-0.33
					c-0.43-1.11-0.17-2.33,0.66-3.17h-2.79c-1.79,0-3.36,1.18-3.85,2.9l-2.69,9.4c-1.46,0.6-2.49,2.03-2.49,3.7v9.5
					c0,0.28,0.22,0.5,0.5,0.5h0.5v3.5c0,1.1,0.9,2,2,2h2c1.1,0,2-0.9,2-2v-3c0-0.28,0.22-0.5,0.5-0.5h21c0.28,0,0.5,0.22,0.5,0.5v3
					c0,1.1,0.9,2,2,2h2c1.1,0,2-0.9,2-2v-3.5h0.5c0.28,0,0.5-0.22,0.5-0.5v-9.5C208.5,191.61,207.47,190.18,206.01,189.58z
					 M179.5,199.28c-1.66,0-3-1.34-3-3c0-1.66,1.34-3,3-3s3,1.34,3,3C182.5,197.94,181.16,199.28,179.5,199.28z M193.5,197.78h-6
					c-0.83,0-1.5-0.67-1.5-1.5c0-0.83,0.67-1.5,1.5-1.5h6c0.83,0,1.5,0.67,1.5,1.5C195,197.11,194.33,197.78,193.5,197.78z
					 M201.5,199.28c-1.66,0-3-1.34-3-3c0-1.66,1.34-3,3-3s3,1.34,3,3C204.5,197.94,203.16,199.28,201.5,199.28z"/>
			</g>
			<path class="st2" d="M196.05,178.19h-2.91c-0.34,0-0.58-0.33-0.47-0.66l1.55-4.65c0.16-0.49-0.43-0.88-0.81-0.53l-7.28,6.65
				c-0.34,0.31-0.12,0.87,0.34,0.87h2.91c0.34,0,0.58,0.33,0.47,0.66l-1.55,4.65c-0.16,0.49,0.43,0.88,0.81,0.53l7.28-6.65
				C196.72,178.75,196.5,178.19,196.05,178.19z"/>
		</g>
	</g>
	<g>
		<g>
			<path class="st2" d="M133.25,187.69v13c0,1.1-0.9,2-2,2c-1.1,0-2-0.9-2-2v-3.5c0-1.93-1.57-3.5-3.5-3.5h-2.5v-1.75
				c0-1.67-1.03-3.1-2.49-3.7l-2.69-9.4c-0.49-1.72-2.06-2.9-3.85-2.9h-9.48v3.5h7.86c0.95,0,1.77,0.67,1.96,1.61l1.38,6.89h-11.2
				v5.5h3.5c0.83,0,1.5,0.67,1.5,1.5s-0.67,1.5-1.5,1.5h-3.5v5.5h11.5v3.5c0,1.1,0.9,2,2,2h2c1.1,0,2-0.9,2-2v-3.5h0.5
				c0.28,0,0.5-0.22,0.5-0.5v-4.75h2.5c0.28,0,0.5,0.22,0.5,0.5v3.5c0,2.76,2.24,5,5,5c2.76,0,5-2.24,5-5v-13H133.25z
				 M116.25,197.94c-1.66,0-3-1.34-3-3s1.34-3,3-3s3,1.34,3,3S117.91,197.94,116.25,197.94z"/>
			<path class="st2" d="M106.75,181.69h-2v3h2c0.83,0,1.5-0.67,1.5-1.5S107.58,181.69,106.75,181.69z M139.25,177.19h-0.75v-2.38
				c0-0.69-0.56-1.25-1.25-1.25c-0.69,0-1.25,0.56-1.25,1.25v2.38h-2.5v-2.38c0-0.69-0.56-1.25-1.25-1.25
				c-0.69,0-1.25,0.56-1.25,1.25v2.38h-0.75c-0.55,0-1,0.45-1,1v1c0,0.55,0.45,1,1,1v3c0,1.1,0.9,2,2,2h5c1.1,0,2-0.9,2-2v-3
				c0.55,0,1-0.45,1-1v-1C140.25,177.64,139.8,177.19,139.25,177.19z"/>
		</g>
	</g>
	<g>
		<g>
			<path class="st2" d="M68,188c-0.36,0-0.71,0.03-1.06,0.07l-4.01-12.04c-0.2-0.61-0.78-1.03-1.42-1.03h-5
				c-0.83,0-1.5,0.67-1.5,1.5s0.67,1.5,1.5,1.5h3.92l1.67,5H47.5c-0.58,0-1.12,0.34-1.36,0.87l-2.15,4.65
				C43.05,188.19,42.05,188,41,188c-4.96,0-9,4.04-9,9s4.04,9,9,9c4.27,0,7.86-3,8.77-7h2.69c0.44,0,0.86-0.19,1.15-0.53l9.78-11.59
				l0.68,2.04C61.07,190.39,59,193.45,59,197c0,4.96,4.04,9,9,9s9-4.04,9-9S72.96,188,68,188z M41,203c-3.31,0-6-2.69-6-6
				s2.69-6,6-6c0.6,0,1.18,0.09,1.73,0.26l-2.59,5.61c-0.21,0.46-0.18,1.01,0.1,1.44c0.28,0.43,0.75,0.69,1.26,0.69h5.15
				C45.82,201.33,43.61,203,41,203z M43.84,196l1.46-3.17c0.83,0.85,1.4,1.95,1.6,3.17H43.84z M51.76,196h-1.82
				c-0.27-2.43-1.51-4.56-3.32-6.02l1.84-3.98h11.73L51.76,196z M68,203c-3.31,0-6-2.69-6-6c0-2.22,1.22-4.16,3.02-5.2l2.06,6.17
				c0.21,0.63,0.79,1.03,1.42,1.03c0.16,0,0.32-0.02,0.47-0.08c0.79-0.26,1.21-1.11,0.95-1.9L67.92,191c0.03,0,0.06,0,0.08,0
				c3.31,0,6,2.69,6,6S71.31,203,68,203z"/>
			<path class="st2" d="M50,177.5h-6c-0.83,0-1.5,0.67-1.5,1.5s0.67,1.5,1.5,1.5h6c0.83,0,1.5-0.67,1.5-1.5S50.83,177.5,50,177.5z"
				/>
		</g>
	</g>
	<g>
		<g>
			<path class="st2" d="M404.39,109.65c1.48,0,2.68-1.2,2.68-2.68c0-1.48-1.2-2.68-2.68-2.68c-0.72,0-3.66,0.64-6.49,1.29
				c-0.36-0.94-1.26-1.61-2.33-1.61c-1.07,0-1.97,0.67-2.33,1.61c-2.83-0.65-5.77-1.29-6.49-1.29c-1.48,0-2.68,1.2-2.68,2.68
				c0,1.48,1.2,2.68,2.68,2.68c0.71,0,3.55-0.61,6.32-1.25v3.02c-2.3,0.45-4.26,1.65-5.52,3.3c-0.39,0.52-0.96,0.88-1.6,0.99
				c-5.7,0.95-9.38,2.77-9.38,9.09v1.16c0,0.28,0.22,0.5,0.5,0.5h7c0.28,0,0.5-0.22,0.5-0.5v-1.16c0-1.42,0.54-1.8,1.25-1.88
				c0.86-0.1,1.69,0.31,2.29,0.94c1.65,1.74,4.15,2.85,6.96,2.85c2.45,0,4.67-0.85,6.29-2.22c0.8-0.68,1.83-1.03,2.89-1.03h1.25
				c0.28,0,0.5-0.22,0.5-0.5v-7c0-0.28-0.22-0.5-0.5-0.5h-0.18c-1.29,0-2.49-0.58-3.39-1.5c-1.02-1.04-2.35-1.84-3.86-2.3v-3.27
				C400.84,109.04,403.68,109.65,404.39,109.65z"/>
			<path class="st2" d="M380.68,129.29c-0.27-0.49-0.97-0.49-1.24,0c-1.42,2.6-3.8,4.12-4,6.83c-0.2,2.71,2.03,4.91,4.62,4.91
				s4.82-2.2,4.62-4.91C384.49,133.41,382.11,131.89,380.68,129.29z M378.86,138.63c-0.84,0-1.52-0.68-1.52-1.52
				s0.68-1.52,1.52-1.52s1.52,0.68,1.52,1.52S379.7,138.63,378.86,138.63z M412.57,111.47h-3c-0.55,0-1,0.45-1,1v13
				c0,0.55,0.45,1,1,1h3c0.55,0,1-0.45,1-1v-13C413.57,111.92,413.12,111.47,412.57,111.47z"/>
		</g>
	</g>
	<g>
		<g>
			<g>
				<g>
					<path class="st2" d="M326.25,120c1.27,0,2.42,0.5,3.29,1.31c0.34-1.23,0.55-2.88,0.55-5.1c0-6.32-1.6-14.71-3.58-14.71
						s-3.58,8.39-3.58,14.71c0,2.02,0.17,3.57,0.46,4.76C324.18,120.37,325.17,120,326.25,120z M321.41,124.83
						c0-0.55,0.11-1.07,0.28-1.56c-1.14,0.36-2.5,0.97-4.15,1.92c-5.47,3.16-11.94,8.74-10.95,10.46c0.99,1.71,9.06-1.09,14.53-4.25
						c1.33-0.77,2.36-1.48,3.18-2.15C322.6,128.5,321.41,126.81,321.41,124.83z M327.54,130.5h-2.01c-0.27,0-0.49,0.22-0.5,0.49
						c-0.06,4.84-0.96,10.18-1.28,11.92c-0.06,0.31,0.18,0.59,0.49,0.59h4.78c0.32,0,0.56-0.29,0.49-0.6
						c-0.37-1.76-1.41-7.08-1.47-11.91C328.04,130.72,327.82,130.5,327.54,130.5z M335.46,125.2c-1.93-1.11-3.47-1.77-4.71-2.09
						c0.21,0.54,0.33,1.12,0.33,1.73c0,1.85-1.05,3.44-2.58,4.25c0.84,0.72,1.94,1.48,3.37,2.31c5.47,3.16,13.54,5.96,14.53,4.25
						C347.39,133.94,340.93,128.35,335.46,125.2z"/>
					<path class="st2" d="M326.25,122.5c-1.29,0-2.33,1.05-2.33,2.33c0,1.29,1.05,2.33,2.33,2.33c1.29,0,2.33-1.05,2.33-2.33
						C328.58,123.55,327.54,122.5,326.25,122.5z"/>
				</g>
			</g>
		</g>
	</g>
	<g>
		<g>
			<path class="st2" d="M269.57,114.53c-0.29-1.09,1.61-3.08,1.06-4.04c-0.56-0.97-3.24-0.31-4.03-1.1
				c-0.78-0.78-0.13-3.47-1.1-4.03c-0.12-0.07-0.26-0.1-0.41-0.1c-0.95,0-2.41,1.19-3.38,1.19c-0.09,0-0.17-0.01-0.25-0.03
				c-1.05-0.28-1.83-2.93-2.97-2.93s-1.92,2.65-2.97,2.93c-0.08,0.02-0.16,0.03-0.25,0.03c-0.97,0-2.43-1.19-3.38-1.19
				c-0.15,0-0.29,0.03-0.41,0.1c-0.97,0.56-0.31,3.24-1.1,4.03c-0.78,0.78-3.47,0.13-4.03,1.1c-0.55,0.95,1.35,2.95,1.06,4.04
				c-0.28,1.05-2.93,1.83-2.93,2.97c0,0.17,0.07,0.34,0.17,0.5h6.85c-0.01-0.17-0.03-0.33-0.03-0.5c0-3.87,3.13-7,7-7s7,3.13,7,7
				c0,0.17-0.01,0.33-0.03,0.5h6.85c0.11-0.16,0.17-0.33,0.17-0.5C272.5,116.36,269.85,115.58,269.57,114.53z"/>
			<path class="st2" d="M249.5,120.5h-8c-0.55,0-1,0.45-1,1v7c0,0.55,0.45,1,1,1h8c0.55,0,1-0.45,1-1v-7
				C250.5,120.95,250.05,120.5,249.5,120.5z M249.5,132.5h-8c-0.55,0-1,0.45-1,1v7c0,0.55,0.45,1,1,1h8c0.55,0,1-0.45,1-1v-7
				C250.5,132.95,250.05,132.5,249.5,132.5z M262.5,132.5h-8c-0.55,0-1,0.45-1,1v7c0,0.55,0.45,1,1,1h8c0.55,0,1-0.45,1-1v-7
				C263.5,132.95,263.05,132.5,262.5,132.5z M275.5,120.5h-8c-0.55,0-1,0.45-1,1v7c0,0.55,0.45,1,1,1h8c0.55,0,1-0.45,1-1v-7
				C276.5,120.95,276.05,120.5,275.5,120.5z M275.5,132.5h-8c-0.55,0-1,0.45-1,1v7c0,0.55,0.45,1,1,1h8c0.55,0,1-0.45,1-1v-7
				C276.5,132.95,276.05,132.5,275.5,132.5z M262.5,120.5h-8c-0.55,0-1,0.45-1,1v7c0,0.55,0.45,1,1,1h8c0.55,0,1-0.45,1-1v-7
				C263.5,120.95,263.05,120.5,262.5,120.5z"/>
		</g>
	</g>
	<g>
		<g>
			<path class="st2" d="M195.38,135.27h-9.76c-0.9,0-1.63,0.73-1.63,1.63v0.27c0,0.9,0.73,1.63,1.63,1.63h1.63v0.43
				c0,1.66,1.34,3,3,3h0.51c1.66,0,3-1.34,3-3v-0.43h1.62c0.9,0,1.63-0.73,1.63-1.63v-0.27C197,135.99,196.28,135.27,195.38,135.27z
				"/>
			<path class="st2" d="M188.99,102.86c-5.47,0.62-10.73,5.85-11.38,11.32c-0.21,1.82-0.03,3.57,0.44,5.19l0.02-0.01
				c0.83,1.38,1.86,2.08,3.08,2.1h0.04c0.78,0,1.62-0.27,2.52-0.78c-0.97-1.72-0.94-3.56,0.47-5.51c1.86-2.58,8.66-5.59,10.37-6.31
				c0.24-0.1,0.52-0.04,0.69,0.16c1.24,1.41,4.23,8.16,0.9,13.15c-1.48,2.22-5.06,3.76-7.76,3.46c-0.54-0.06-0.76-0.75-0.36-1.12
				c3.35-3.11,4.7-6.46,5.12-8.81c0.09-0.52-0.58-0.8-0.88-0.36c-0.17,0.25-0.36,0.52-0.56,0.8c-3.65,5.14-7.25,7.84-10.51,7.84
				h-0.08c-0.24,0-0.47-0.03-0.7-0.06c0.24,0.3,0.49,0.6,0.76,0.88c1.5,1.55,2.33,3.63,2.33,5.79v0c0,1.1,0.89,2,2,2h9.98
				c1.1,0,2-0.89,2-2c0-2.14,0.79-4.21,2.29-5.74c2.29-2.34,3.7-5.53,3.7-9.06C203.48,108.09,196.83,101.98,188.99,102.86z"/>
		</g>
	</g>
	<g>
		<g>
			<path class="st2" d="M116,103.75h-6c-0.28,0-0.5,0.22-0.5,0.5v3.5h7v-3.5C116.5,103.97,116.28,103.75,116,103.75z M135,103.75h-6
				c-0.28,0-0.5,0.22-0.5,0.5v3.5h7v-3.5C135.5,103.97,135.28,103.75,135,103.75z"/>
			<path class="st2" d="M140,110.25h-35c-0.28,0-0.5,0.22-0.5,0.5v3c0,0.28,0.22,0.5,0.5,0.5h0.5v25c0,1.1,0.9,2,2,2h30
				c1.1,0,2-0.9,2-2v-25h0.5c0.28,0,0.5-0.22,0.5-0.5v-3C140.5,110.47,140.28,110.25,140,110.25z M127.02,130.28l-6.41,5.86
				c-0.34,0.31-0.86-0.03-0.71-0.46l1.37-4.1c0.1-0.29-0.12-0.58-0.42-0.58h-2.57c-0.4,0-0.59-0.49-0.3-0.77l6.41-5.86
				c0.34-0.31,0.86,0.03,0.71,0.46l-1.37,4.1c-0.1,0.29,0.12,0.58,0.42,0.58h2.57C127.13,129.51,127.32,130.01,127.02,130.28z
				 M135.5,120.25h-26v-6h26V120.25z"/>
		</g>
	</g>
	<g>
		<g>
			<path class="st2" d="M72.5,122.5c0-1.47-3.41-2.46-3.77-3.81c-0.37-1.4,2.07-3.96,1.36-5.19c-0.72-1.24-4.17-0.4-5.18-1.41
				c-1.01-1.01-0.17-4.46-1.41-5.18c-0.16-0.09-0.33-0.13-0.53-0.13c-1.22,0-3.1,1.53-4.34,1.53c-0.11,0-0.22-0.01-0.32-0.04
				c-1.35-0.36-2.35-3.77-3.81-3.77c-1.47,0-2.46,3.41-3.81,3.77c-0.1,0.03-0.21,0.04-0.32,0.04c-1.24,0-3.12-1.53-4.34-1.53
				c-0.19,0-0.37,0.04-0.53,0.13c-1.24,0.72-0.4,4.17-1.41,5.18c-1.01,1.01-4.46,0.17-5.18,1.41c-0.71,1.22,1.73,3.79,1.36,5.19
				c-0.36,1.35-3.77,2.35-3.77,3.81c0,1.47,3.41,2.46,3.77,3.81c0.37,1.4-2.07,3.96-1.36,5.19c0.72,1.24,4.17,0.4,5.18,1.41
				c1.01,1.01,0.17,4.46,1.41,5.18c0.16,0.09,0.33,0.13,0.53,0.13c1.22,0,3.1-1.53,4.34-1.53c0.11,0,0.22,0.01,0.32,0.04
				c1.35,0.36,2.35,3.77,3.81,3.77c1.47,0,2.46-3.41,3.81-3.77c0.1-0.03,0.21-0.04,0.32-0.04c1.24,0,3.12,1.53,4.34,1.53
				c0.2,0,0.37-0.04,0.53-0.13c1.24-0.72,0.4-4.17,1.41-5.18c1.01-1.01,4.46-0.17,5.18-1.41c0.71-1.22-1.73-3.79-1.36-5.19
				C69.09,124.96,72.5,123.97,72.5,122.5z M54.5,134c-6.34,0-11.5-5.16-11.5-11.5c0-6.34,5.16-11.5,11.5-11.5S66,116.16,66,122.5
				C66,128.84,60.84,134,54.5,134z"/>
			<circle class="st2" cx="54.5" cy="122.5" r="9"/>
		</g>
	</g>
</g>
<g id="title" class="st0">
	<g class="st3">
		<path class="st2" d="M31.33,49.52c0-2.7,1.72-4.47,5.15-4.47h3.38c0.68,0,1.12,0.44,1.12,1.12v0.56c0,0.68-0.44,1.12-1.12,1.12
			h-3.33c-1.4,0-1.84,0.63-1.84,1.93v1.82h4.47c0.68,0,1.12,0.44,1.12,1.12v0.54c0,0.68-0.44,1.12-1.12,1.12h-4.47v2.24
			c0,1.33,0.44,1.91,1.84,1.91h3.43c0.68,0,1.12,0.44,1.12,1.12v0.56c0,0.68-0.44,1.12-1.12,1.12h-3.47c-3.4,0-5.15-1.77-5.15-4.45
			V49.52z"/>
		<path class="st2" d="M43.93,46.17c0-0.68,0.44-1.12,1.12-1.12h0.93c0.68,0,1.19,0.37,1.56,1.03l5.17,9.13
			c-0.14-1.17-0.21-2.33-0.21-3.22v-5.83c0-0.68,0.44-1.12,1.12-1.12h1.07c0.68,0,1.12,0.44,1.12,1.12V60.2
			c0,0.68-0.44,1.12-1.12,1.12h-0.93c-0.68,0-1.21-0.37-1.58-1.03l-5.15-9.09c0.12,1.17,0.21,2.31,0.21,3.17v5.82
			c0,0.68-0.44,1.12-1.12,1.12h-1.07c-0.68,0-1.12-0.44-1.12-1.12V46.17z"/>
		<path class="st2" d="M58.91,49.52c0-2.7,1.72-4.47,5.15-4.47h3.38c0.68,0,1.12,0.44,1.12,1.12v0.56c0,0.68-0.44,1.12-1.12,1.12
			h-3.33c-1.4,0-1.84,0.63-1.84,1.93v1.82h4.47c0.68,0,1.12,0.44,1.12,1.12v0.54c0,0.68-0.44,1.12-1.12,1.12h-4.47v2.24
			c0,1.33,0.44,1.91,1.84,1.91h3.43c0.68,0,1.12,0.44,1.12,1.12v0.56c0,0.68-0.44,1.12-1.12,1.12h-3.47c-3.4,0-5.15-1.77-5.15-4.45
			V49.52z"/>
		<path class="st2" d="M71.52,46.84c0-0.68,0.47-1.26,1.14-1.44c0.72-0.21,2.45-0.65,4.12-0.65c3.66,0,5.62,2.59,5.62,5.41
			c0,1.49-0.79,3.75-3.05,4.75l2.38,5.1c0.33,0.68-0.09,1.3-0.77,1.3h-1.38c-0.68,0-1.09-0.37-1.37-1l-2.14-4.92h-1.19v4.8
			c0,0.68-0.44,1.12-1.12,1.12h-1.12c-0.68,0-1.12-0.44-1.12-1.12V46.84z M76.53,52.74c1.56,0,2.35-1,2.35-2.59
			c0-1.44-0.61-2.61-2.12-2.61c-0.63,0-1.26,0.07-1.89,0.28v4.92H76.53z"/>
		<path class="st2" d="M84.47,50.76c0-3.87,2.35-6.01,6.06-6.01c1.63,0,2.7,0.19,3.59,0.4c0.79,0.21,1.02,0.63,0.86,1.35l-0.12,0.56
			c-0.14,0.63-0.7,0.93-1.35,0.77c-0.61-0.12-1.28-0.28-2.52-0.28c-1.91,0-3.08,0.82-3.08,3.47v4.33c0,2.66,1.16,3.47,3.08,3.47
			c1.03,0,1.63-0.14,2.33-0.33v-4.31c0-0.68,0.35-1.14,1.03-1.19l1.23-0.09c0.68-0.05,1,0.37,1,1.05v5.55
			c0,0.68-0.51,1.26-1.14,1.42c-1.03,0.26-2.77,0.7-4.92,0.7c-3.7,0-6.06-2.12-6.06-6.01V50.76z"/>
		<path class="st2" d="M103.22,54.86c-1.93-0.54-2.94-2-3.38-4.15l-0.91-4.4c-0.14-0.72,0.26-1.26,0.93-1.26h1.12
			c0.68,0,1.14,0.47,1.28,1.14l0.77,3.75c0.28,1.42,0.63,2.38,1.84,2.38c1.21,0,1.56-0.91,1.84-2.33l0.77-3.77
			c0.14-0.7,0.61-1.17,1.28-1.17h1.14c0.68,0,1.05,0.51,0.91,1.23l-0.91,4.43c-0.44,2.14-1.47,3.61-3.35,4.15v5.33
			c0,0.68-0.44,1.12-1.12,1.12h-1.1c-0.68,0-1.12-0.44-1.12-1.12V54.86z"/>
		<path class="st2" d="M120.63,52.55c-1.21-0.77-1.91-1.96-1.91-3.47c0-2.82,2.42-4.99,5.85-4.99c1,0,1.86,0.14,2.28,0.23
			c0.65,0.14,1,0.7,0.86,1.35l-0.12,0.56c-0.14,0.65-0.7,0.96-1.37,0.84c-0.4-0.07-0.91-0.14-1.61-0.14c-1.58,0-2.4,0.82-2.4,2.14
			c0,1.44,0.82,2.35,2.4,2.35h4.85c0.68,0,1.12,0.37,1.12,1.05v0.37c0,0.68-0.44,1.05-1.12,1.05h-0.16v5.52
			c0,0.68-0.35,1.26-1.07,1.51c-0.72,0.26-2.26,0.68-3.94,0.68c-3.98,0-6.17-2.19-6.17-5.15C118.11,54.65,119.02,53.3,120.63,52.55z
			 M124.33,58.77c0.72,0,1.58-0.09,2.24-0.3V53.9h-2.21c-1.89,0-2.75,0.98-2.75,2.52C121.61,57.89,122.4,58.77,124.33,58.77z"/>
		<path class="st2" d="M137.47,49.52c0-2.7,1.72-4.47,5.15-4.47H146c0.68,0,1.12,0.44,1.12,1.12v0.56c0,0.68-0.44,1.12-1.12,1.12
			h-3.33c-1.4,0-1.84,0.63-1.84,1.93v1.82h4.47c0.68,0,1.12,0.44,1.12,1.12v0.54c0,0.68-0.44,1.12-1.12,1.12h-4.47v2.24
			c0,1.33,0.44,1.91,1.84,1.91h3.43c0.68,0,1.12,0.44,1.12,1.12v0.56c0,0.68-0.44,1.12-1.12,1.12h-3.47c-3.4,0-5.15-1.77-5.15-4.45
			V49.52z"/>
		<path class="st2" d="M149.54,50.76c0-3.87,2.35-6.01,6.06-6.01c1.72,0,2.91,0.23,3.87,0.47c0.51,0.14,0.75,0.56,0.63,1.09
			l-0.21,0.96c-0.12,0.51-0.61,0.75-1.12,0.61c-0.63-0.14-1.49-0.33-2.7-0.33c-1.91,0-3.08,0.82-3.08,3.47v4.33
			c0,2.66,1.17,3.47,3.08,3.47c1.49,0,2.4-0.26,2.82-0.35c0.56-0.14,0.89,0.12,1,0.63l0.21,0.96c0.09,0.47-0.12,0.96-0.63,1.1
			c-0.54,0.14-1.93,0.47-3.87,0.47c-3.7,0-6.06-2.12-6.06-6.01V50.76z"/>
		<path class="st2" d="M162.59,51.69c0-4.01,2.4-6.94,6.55-6.94c4.15,0,6.55,2.94,6.55,6.94v2.98c0,4.01-2.4,6.94-6.55,6.94
			c-4.15,0-6.55-2.94-6.55-6.94V51.69z M172.23,54.42v-2.47c0-2.35-0.63-4.4-3.1-4.4c-2.45,0-3.1,2.05-3.1,4.4v2.47
			c0,2.38,0.65,4.4,3.1,4.4C171.6,58.82,172.23,56.79,172.23,54.42z"/>
		<path class="st2" d="M178.66,46.17c0-0.68,0.44-1.12,1.12-1.12h1.12c0.68,0,1.12,0.44,1.12,1.12v12.35h5.78
			c0.68,0,1.12,0.44,1.12,1.12v0.56c0,0.68-0.44,1.12-1.12,1.12h-8.02c-0.68,0-1.12-0.44-1.12-1.12V46.17z"/>
		<path class="st2" d="M190.73,51.69c0-4.01,2.4-6.94,6.55-6.94c4.15,0,6.55,2.94,6.55,6.94v2.98c0,4.01-2.4,6.94-6.55,6.94
			c-4.15,0-6.55-2.94-6.55-6.94V51.69z M200.38,54.42v-2.47c0-2.35-0.63-4.4-3.1-4.4c-2.45,0-3.1,2.05-3.1,4.4v2.47
			c0,2.38,0.65,4.4,3.1,4.4C199.75,58.82,200.38,56.79,200.38,54.42z"/>
		<path class="st2" d="M206.27,50.76c0-3.87,2.35-6.01,6.06-6.01c1.63,0,2.7,0.19,3.59,0.4c0.79,0.21,1.02,0.63,0.86,1.35
			l-0.12,0.56c-0.14,0.63-0.7,0.93-1.35,0.77c-0.61-0.12-1.28-0.28-2.52-0.28c-1.91,0-3.08,0.82-3.08,3.47v4.33
			c0,2.66,1.17,3.47,3.08,3.47c1.03,0,1.63-0.14,2.33-0.33v-4.31c0-0.68,0.35-1.14,1.03-1.19l1.23-0.09c0.68-0.05,1,0.37,1,1.05
			v5.55c0,0.68-0.51,1.26-1.14,1.42c-1.03,0.26-2.77,0.7-4.92,0.7c-3.7,0-6.06-2.12-6.06-6.01V50.76z"/>
		<path class="st2" d="M225.02,54.86c-1.93-0.54-2.94-2-3.38-4.15l-0.91-4.4c-0.14-0.72,0.26-1.26,0.93-1.26h1.12
			c0.68,0,1.14,0.47,1.28,1.14l0.77,3.75c0.28,1.42,0.63,2.38,1.84,2.38c1.21,0,1.56-0.91,1.84-2.33l0.77-3.77
			c0.14-0.7,0.61-1.17,1.28-1.17h1.14c0.68,0,1.05,0.51,0.91,1.23l-0.91,4.43c-0.44,2.14-1.47,3.61-3.36,4.15v5.33
			c0,0.68-0.44,1.12-1.12,1.12h-1.1c-0.68,0-1.12-0.44-1.12-1.12V54.86z"/>
		<path class="st4" d="M240.68,45.71c0-0.7,0.46-1.15,1.15-1.15h1.15c0.7,0,1.15,0.46,1.15,1.15v14.45c0,0.7-0.46,1.15-1.15,1.15
			h-1.15c-0.7,0-1.15-0.46-1.15-1.15V45.71z"/>
		<path class="st4" d="M247.23,50.44c0-3.98,2.42-6.19,6.24-6.19c1.78,0,3,0.24,3.98,0.48c0.53,0.14,0.77,0.58,0.65,1.13l-0.22,0.98
			c-0.12,0.53-0.62,0.77-1.15,0.62c-0.65-0.14-1.54-0.34-2.78-0.34c-1.97,0-3.17,0.84-3.17,3.58v4.46c0,2.74,1.2,3.58,3.17,3.58
			c1.54,0,2.47-0.26,2.9-0.36c0.58-0.14,0.91,0.12,1.03,0.65l0.22,0.98c0.1,0.48-0.12,0.98-0.65,1.13
			c-0.55,0.14-1.99,0.48-3.98,0.48c-3.82,0-6.24-2.18-6.24-6.19V50.44z"/>
		<path class="st4" d="M260.67,51.4c0-4.13,2.47-7.15,6.74-7.15c4.27,0,6.74,3.02,6.74,7.15v3.07c0,4.13-2.47,7.15-6.74,7.15
			c-4.27,0-6.74-3.02-6.74-7.15V51.4z M270.61,54.21v-2.54c0-2.42-0.65-4.54-3.19-4.54c-2.52,0-3.19,2.11-3.19,4.54v2.54
			c0,2.45,0.67,4.54,3.19,4.54C269.96,58.75,270.61,56.66,270.61,54.21z"/>
		<path class="st4" d="M277.23,45.71c0-0.7,0.46-1.15,1.15-1.15h0.96c0.7,0,1.22,0.38,1.61,1.06l5.33,9.41
			c-0.14-1.2-0.22-2.4-0.22-3.31v-6c0-0.7,0.46-1.15,1.15-1.15h1.1c0.7,0,1.15,0.46,1.15,1.15v14.45c0,0.7-0.46,1.15-1.15,1.15
			h-0.96c-0.7,0-1.25-0.38-1.63-1.06l-5.3-9.36c0.12,1.2,0.22,2.38,0.22,3.26v6c0,0.7-0.46,1.15-1.15,1.15h-1.1
			c-0.7,0-1.15-0.46-1.15-1.15V45.71z"/>
		<path class="st4" d="M292.35,59.56l0.14-0.62c0.17-0.74,0.7-0.94,1.34-0.74c0.46,0.12,1.73,0.55,3.24,0.55
			c1.63,0,2.3-0.86,2.3-2.02c0-3.26-6.94-2.04-6.94-7.78c0-2.98,2.5-4.7,5.78-4.7c1.54,0,2.59,0.34,3.19,0.53
			c0.65,0.22,1.01,0.74,0.77,1.46l-0.17,0.53c-0.22,0.65-0.77,0.94-1.46,0.72c-0.55-0.17-1.3-0.36-2.33-0.36
			c-1.44,0-2.16,0.72-2.16,1.82c0,2.81,6.94,2.09,6.94,7.78c0,2.95-2.4,4.9-5.93,4.9c-1.66,0-2.95-0.36-3.89-0.65
			C292.49,60.76,292.18,60.33,292.35,59.56z"/>
	</g>
</g>
</svg>
