<?xml version="1.0" encoding="utf-8"?>
<!-- Generator: Adobe Illustrator 24.1.1, SVG Export Plug-In . SVG Version: 6.00 Build 0)  -->
<svg version="1.1" xmlns="http://www.w3.org/2000/svg" xmlns:xlink="http://www.w3.org/1999/xlink" x="0px" y="0px"
	 viewBox="0 0 448 448" style="enable-background:new 0 0 448 448;" xml:space="preserve">
<style type="text/css">
	.st0{fill:#173042;}
</style>
<g id="grid">
</g>
<g id="icons">
	<g>
		<g>
			<g>
				<path class="st0" d="M394.49,373.25L394.49,373.25c-3.71,0-6.7,5.01-6.7,13.65c0,9.3,2.75,15.84,4.73,19.35h3.96
					c1.97-3.51,4.72-10.05,4.72-19.36C401.21,378.25,398.19,373.25,394.49,373.25z"/>
				<path class="st0" d="M389.5,406.25h0.19c-2.04-3.99-4.4-10.5-4.4-19.35c0-5.63,1.19-10.11,3.26-12.91
					c-6.46,1.69-11.06,6.2-11.06,12.92c0,9.76,6.63,16.04,11.62,19.38C389.25,406.28,389.37,406.25,389.5,406.25z M400.37,373.97
					c2.27,3.1,3.34,8.01,3.34,12.92c0,8.86-2.35,15.37-4.38,19.36h0.18c0.1,0,0.2,0.02,0.3,0.03c4.99-3.38,11.7-9.73,11.7-19.4
					C411.5,380.15,406.86,375.64,400.37,373.97z M399.5,408.75h-10c-1.1,0-2,0.9-2,2v3c0,1.1,0.9,2,2,2h10c1.1,0,2-0.9,2-2v-3
					C401.5,409.65,400.6,408.75,399.5,408.75z"/>
			</g>
		</g>
	</g>
	<g>
		<g>
			<g>
				<path class="st0" d="M323,383.85h5c0.28,0,0.5-0.22,0.5-0.5v-4.79c0-0.28-0.22-0.5-0.5-0.5h-5c-0.28,0-0.5,0.22-0.5,0.5v4.79
					C322.5,383.62,322.72,383.85,323,383.85z M313,383.85h5c0.28,0,0.5-0.22,0.5-0.5v-4.79c0-0.28-0.22-0.5-0.5-0.5h-5
					c-0.28,0-0.5,0.22-0.5,0.5v4.79C312.5,383.62,312.72,383.85,313,383.85z M344.84,395.95H333.8c-0.51,0-1,0.19-1.37,0.54
					l-3.09,2.91c-0.37,0.35-0.86,0.54-1.37,0.54h-19.81c-1.25,0-2.19,1.13-1.97,2.36l1.27,7c0.17,0.95,1,1.64,1.97,1.64h31.1
					c0.82,0,1.56-0.5,1.86-1.27l4.3-11C347.21,397.36,346.24,395.95,344.84,395.95z"/>
				<path class="st0" d="M340.4,392.74l-2.77-6.1c-0.08-0.18-0.26-0.29-0.46-0.29H311c-0.28,0-0.5,0.22-0.5,0.5v10
					c0,0.28,0.22,0.5,0.5,0.5h16.88l2.84-2.68c0.83-0.79,1.94-1.23,3.09-1.23h6.15C340.31,393.45,340.56,393.07,340.4,392.74z
					 M316.5,392.85c0,0.28-0.22,0.5-0.5,0.5h-2c-0.28,0-0.5-0.22-0.5-0.5v-2c0-0.28,0.22-0.5,0.5-0.5h2c0.28,0,0.5,0.22,0.5,0.5
					V392.85z M321.5,392.85c0,0.28-0.22,0.5-0.5,0.5h-2c-0.28,0-0.5-0.22-0.5-0.5v-2c0-0.28,0.22-0.5,0.5-0.5h2
					c0.28,0,0.5,0.22,0.5,0.5V392.85z M326.5,392.85c0,0.28-0.22,0.5-0.5,0.5h-2c-0.28,0-0.5-0.22-0.5-0.5v-2
					c0-0.28,0.22-0.5,0.5-0.5h2c0.28,0,0.5,0.22,0.5,0.5V392.85z"/>
			</g>
		</g>
	</g>
	<g>
		<g>
			<g>
				<path class="st0" d="M275.88,402.7h-34.76c-0.74,0-1.23,0.78-0.89,1.45l4,8c0.17,0.34,0.52,0.55,0.89,0.55h26.76
					c0.38,0,0.72-0.21,0.89-0.55l4-8C277.11,403.48,276.63,402.7,275.88,402.7z M258.96,400.2h11.86c0.75,0,1.23-0.79,0.89-1.46
					l-11.36-21.9c-0.48-0.93-1.89-0.59-1.89,0.46v22.4C258.46,399.98,258.69,400.2,258.96,400.2z"/>
				<path class="st0" d="M254.16,384.59l-8.78,11.68c-0.43,0.58-0.13,1.41,0.57,1.57l9.39,2.21c0.31,0.07,0.61-0.16,0.61-0.49V385.2
					C255.96,384.23,254.74,383.83,254.16,384.59z"/>
			</g>
		</g>
	</g>
	<g>
		<g>
			<path class="st0" d="M211.03,392.21c-0.87-1.38-2.74-4.16-5.32-6.94l1.43-1.43c0.82,0.2,1.71-0.02,2.35-0.65
				c0.98-0.98,0.98-2.56,0-3.54c-0.98-0.98-2.56-0.98-3.54,0c-0.67,0.67-0.87,1.61-0.62,2.46l-1.38,1.38
				c-2.81-2.66-5.57-4.49-6.95-5.33c-0.54-0.33-1.26-0.19-1.63,0.32c-2.67,3.61-1.84,9.3,2.11,13.26c3.95,3.95,9.63,4.78,13.24,2.12
				C211.24,393.47,211.37,392.75,211.03,392.21z"/>
			<path class="st0" d="M175.5,395.3h1.75l0,0h15.5c0.28,0,0.5-0.22,0.5-0.5v-1.45c0-0.17-0.02-0.33-0.06-0.49l-3.56-14.05
				c-0.22-0.89-1.02-1.51-1.94-1.51h-8.44c-1.1,0-2,0.9-2,2v11.5h-1.75c-1.24,0-2.25,1.01-2.25,2.25
				C173.25,394.29,174.26,395.3,175.5,395.3z M180.25,381.8c0-0.28,0.22-0.5,0.5-0.5h5.1c0.23,0,0.44,0.16,0.49,0.39l1.78,8
				c0.07,0.31-0.17,0.61-0.49,0.61h-6.88c-0.28,0-0.5-0.22-0.5-0.5V381.8z M177.25,403.2c-0.83,0-1.5,0.67-1.5,1.5
				c0,0.83,0.67,1.5,1.5,1.5c0.83,0,1.5-0.67,1.5-1.5C178.75,403.87,178.08,403.2,177.25,403.2z M201.25,403.2
				c-0.83,0-1.5,0.67-1.5,1.5c0,0.83,0.67,1.5,1.5,1.5c0.83,0,1.5-0.67,1.5-1.5C202.75,403.87,202.08,403.2,201.25,403.2z
				 M189.25,403.2c-0.83,0-1.5,0.67-1.5,1.5c0,0.83,0.67,1.5,1.5,1.5c0.83,0,1.5-0.67,1.5-1.5
				C190.75,403.87,190.08,403.2,189.25,403.2z M206.68,400.88c-1.29-1.99-3.5-3.18-5.87-3.18h-24.03c-2.37,0-4.58,1.2-5.87,3.18
				c-1.51,2.32-1.51,5.31,0,7.63c1.29,1.99,3.5,3.18,5.87,3.18h24.03c2.37,0,4.58-1.2,5.87-3.18
				C208.19,406.19,208.19,403.2,206.68,400.88z M177.25,408.7c-2.21,0-4-1.79-4-4c0-2.21,1.79-4,4-4c2.21,0,4,1.79,4,4
				C181.25,406.9,179.46,408.7,177.25,408.7z M189.25,408.7c-2.21,0-4-1.79-4-4c0-2.21,1.79-4,4-4c2.21,0,4,1.79,4,4
				C193.25,406.9,191.46,408.7,189.25,408.7z M201.25,408.7c-2.21,0-4-1.79-4-4c0-2.21,1.79-4,4-4c2.21,0,4,1.79,4,4
				C205.25,406.9,203.46,408.7,201.25,408.7z"/>
		</g>
	</g>
	<g>
		<g>
			<path class="st0" d="M107.98,385.24v-1.85c0-0.83-0.67-1.5-1.5-1.5s-1.5,0.67-1.5,1.5v3.14c0,0.83,0.67,1.5,1.5,1.5
				c1.34,0,2.43,1.09,2.43,2.43c0,1.34-1.09,2.43-2.43,2.43c-1.34,0-2.43-1.09-2.43-2.43c0-0.83-0.67-1.5-1.5-1.5
				c-0.83,0-1.5,0.67-1.5,1.5c0,2.99,2.44,5.43,5.43,5.43c2.99,0,5.43-2.44,5.43-5.43C111.91,387.98,110.25,385.89,107.98,385.24z"
				/>
			<path class="st0" d="M125.39,405.06c-0.83,0-1.5,0.67-1.5,1.5c0,0.83,0.67,1.5,1.5,1.5c0.83,0,1.5-0.67,1.5-1.5
				C126.89,405.73,126.22,405.06,125.39,405.06z M138.68,396.6v-1.45c0-0.17-0.02-0.33-0.06-0.49l-3.56-14.05
				c-0.22-0.89-1.02-1.51-1.94-1.51h-8.44c-1.1,0-2,0.9-2,2v16h15.5C138.46,397.1,138.68,396.88,138.68,396.6z M133.06,392.1h-6.88
				c-0.28,0-0.5-0.22-0.5-0.5v-8c0-0.28,0.22-0.5,0.5-0.5h5.1c0.23,0,0.44,0.16,0.49,0.39l1.78,8
				C133.62,391.81,133.38,392.1,133.06,392.1z M142.82,402.74c-1.29-1.99-3.5-3.18-5.87-3.18h-24.03c-2.37,0-4.58,1.2-5.87,3.18
				c-1.51,2.32-1.51,5.31,0,7.63c1.29,1.99,3.5,3.18,5.87,3.18h24.03c2.37,0,4.58-1.2,5.87-3.18
				C144.32,408.05,144.32,405.06,142.82,402.74z M113.39,410.56c-2.21,0-4-1.79-4-4c0-2.21,1.79-4,4-4c2.21,0,4,1.79,4,4
				C117.39,408.76,115.59,410.56,113.39,410.56z M125.39,410.56c-2.21,0-4-1.79-4-4c0-2.21,1.79-4,4-4c2.21,0,4,1.79,4,4
				C129.39,408.76,127.59,410.56,125.39,410.56z M137.39,410.56c-2.21,0-4-1.79-4-4c0-2.21,1.79-4,4-4c2.21,0,4,1.79,4,4
				C141.39,408.76,139.59,410.56,137.39,410.56z M137.39,405.06c-0.83,0-1.5,0.67-1.5,1.5c0,0.83,0.67,1.5,1.5,1.5
				c0.83,0,1.5-0.67,1.5-1.5C138.89,405.73,138.22,405.06,137.39,405.06z M113.39,405.06c-0.83,0-1.5,0.67-1.5,1.5
				c0,0.83,0.67,1.5,1.5,1.5c0.83,0,1.5-0.67,1.5-1.5C114.89,405.73,114.22,405.06,113.39,405.06z M112.93,379.88
				c0.11,1.39,0.9,2.57,2.05,3.23v13.94h5.5v-15.29c0.41-0.64,0.65-1.39,0.65-2.21c0-2.27-1.85-4.12-4.12-4.12
				c-1.24,0-2.35,0.57-3.1,1.44h-7.93c-0.83,0-1.5,0.67-1.5,1.5s0.67,1.5,1.5,1.5H112.93z M117.02,377.94
				c0.89,0,1.62,0.73,1.62,1.62s-0.72,1.62-1.62,1.62c-0.89,0-1.62-0.73-1.62-1.62S116.13,377.94,117.02,377.94z"/>
		</g>
	</g>
	<g>
		<g>
			<g>
				<g>
					<path class="st0" d="M73.19,375.72c-0.81-0.81-1.99-1.16-3.11-0.91l-2.17,0.48c-3.53,0.78-6.76,2.56-9.31,5.11l-0.6,0.6
						c-2.73,2.73-6.33,4.43-10.17,4.79l-5.84,0.56c-0.46,0.04-0.9,0.25-1.22,0.58l-1.59,1.59c-0.78,0.78-0.78,2.05,0,2.83l6.27,6.27
						c-0.61,0.35-1.2,0.69-1.86,1.04c-0.49,0.27-0.66,0.88-0.4,1.37c1.7,3.1,3.3,4.7,6.4,6.4c0.49,0.27,1.11,0.09,1.37-0.4
						c0.36-0.65,0.69-1.25,1.04-1.86l6.27,6.27c0.78,0.78,2.05,0.78,2.83,0l1.56-1.56c0.34-0.34,0.55-0.8,0.58-1.28l0.43-6.61
						c0.26-4.03,1.98-7.82,4.83-10.68h0c2.55-2.55,4.33-5.78,5.11-9.31l0.48-2.17C74.35,377.71,74,376.54,73.19,375.72z
						 M68.17,386.41l-1.04,1.04c-0.39,0.39-1.05,0.15-1.1-0.4c-0.1-0.94-0.58-1.94-1.4-2.77c-0.82-0.82-1.83-1.3-2.77-1.4
						c-0.55-0.06-0.79-0.71-0.4-1.1l1.04-1.04c1.17-1.17,3.4-0.86,4.96,0.71C69.03,383.02,69.35,385.24,68.17,386.41z"/>
					<path class="st0" d="M46.8,407.82l-5.54-5.54c-0.15-0.15-0.4-0.16-0.55-0.01c-0.3,0.29-0.71,0.7-0.86,0.85
						c-4.89,4.89-5.03,11.14-5.03,11.14s6.25-0.14,11.14-5.03c0.15-0.15,0.56-0.56,0.85-0.86C46.96,408.22,46.96,407.97,46.8,407.82
						z"/>
				</g>
			</g>
		</g>
	</g>
	<g>
		<g>
			<g>
				<path class="st0" d="M402,317.11v-0.74c0-1.1-0.9-2-2-2h-3.5c-1.1,0-2,0.9-2,2v0.5h-5c-1.86,0-3.41,1.28-3.86,3h-5.86
					l-0.43-3.02c-0.08-0.56-0.56-0.98-1.13-0.98h-3.58c-0.63,0-1.14,0.51-1.14,1.14v6.05c0,1.03,0.78,1.89,2.01,2.01l10.05,1.01
					c0.53,6.18,5.06,11.21,11,12.48l-0.7,3.06h-2c-0.69,0-1.25,0.56-1.25,1.25s0.56,1.25,1.25,1.25h17c0.69,0,1.25-0.56,1.25-1.25
					s-0.56-1.25-1.25-1.25h-1.95l-0.47-2.75h1.06c2.21,0,4-1.79,4-4v-4C413.5,324,408.54,318.29,402,317.11z M394.5,326.88
					c0,0.55-0.45,1-1,1h-3c-0.55,0-1-0.45-1-1v-5c0-0.55,0.45-1,1-1h3c0.55,0,1,0.45,1,1V326.88z M398.43,341.63l0.63-2.77
					c0.15,0,0.29,0.02,0.44,0.02h6.4l0.47,2.75H398.43z M409.5,330.49c0,0.68-0.67,1.16-1.32,0.95l-10-3.33
					c-0.41-0.14-0.68-0.52-0.68-0.95v-5.28c0-0.55,0.45-1,1-1h1.39C405.2,320.88,409.5,325.18,409.5,330.49L409.5,330.49z"/>
				<path class="st0" d="M414,308.88h-31c-0.83,0-1.5,0.67-1.5,1.5s0.67,1.5,1.5,1.5h31c0.83,0,1.5-0.67,1.5-1.5
					S414.83,308.88,414,308.88z"/>
			</g>
		</g>
	</g>
	<g>
		<g>
			<g>
				<g>
					<path class="st0" d="M340.3,321.76l-6.28,0.33l-9.32-14.59h-6l4.73,15.15l-11.31,0.6l-2.43-5.75h-4v18h4l2.43-5.75l11.31,0.6
						l-4.73,15.15h6l9.32-14.59l6.28,0.33c2.71,0.14,6.99-2.02,6.99-4.74S343.01,321.62,340.3,321.76z"/>
					<path class="st0" d="M317.82,319.41c0.18,0.52,0.66,0.84,1.18,0.84c0.14,0,0.27-0.02,0.41-0.07c0.65-0.23,1-0.94,0.77-1.59
						l-3.29-9.5c-0.23-0.65-0.94-1-1.59-0.77c-0.65,0.23-1,0.94-0.77,1.59L317.82,319.41z M319.41,332.82
						c-0.65-0.23-1.36,0.12-1.59,0.77l-3.29,9.5c-0.23,0.65,0.12,1.36,0.77,1.59c0.14,0.05,0.27,0.07,0.41,0.07
						c0.52,0,1-0.32,1.18-0.84l3.29-9.5C320.41,333.76,320.06,333.04,319.41,332.82z"/>
				</g>
			</g>
		</g>
	</g>
	<g>
		<g>
			<path class="st0" d="M278.61,329.77l-6.53-15c-0.64-1.46-2.08-2.4-3.67-2.4h-29.37c-0.55,0-1,0.45-1,1v2.5
				c0,0.28,0.22,0.5,0.5,0.5h11.74c0.45,0,0.84,0.3,0.96,0.73l1.43,5c0.18,0.64-0.3,1.27-0.96,1.27h-13.16c-0.28,0-0.5,0.22-0.5,0.5
				v3.51c0,0.28,0.22,0.5,0.5,0.5h32.99c0.69,0,1.25,0.56,1.25,1.25c0,0.69-0.56,1.25-1.25,1.25h-32.99c-0.28,0-0.5,0.22-0.5,0.5
				v3.49c0,0.55,0.45,1,1,1h35.9C277.83,335.37,279.76,332.42,278.61,329.77z M270.52,323.63h-12.65c-0.45,0-0.84-0.3-0.96-0.73
				l-1.43-5c-0.18-0.64,0.3-1.27,0.96-1.27h11.94c0.4,0,0.76,0.24,0.92,0.61l2.14,5C271.73,322.9,271.24,323.63,270.52,323.63z"/>
			<path class="st0" d="M274.54,337.63h-35.99c-0.28,0-0.5,0.22-0.5,0.5v2c0,0.28,0.22,0.5,0.5,0.5h35.99c0.83,0,1.5-0.67,1.5-1.5
				C276.04,338.3,275.37,337.63,274.54,337.63z"/>
		</g>
	</g>
	<g>
		<g>
			<rect x="197.4" y="313.83" class="st0" width="8" height="2.5"/>
			<path class="st0" d="M202.53,334.11c-0.59,0.59-0.59,1.54,0,2.12c0.59,0.59,1.54,0.59,2.12,0c0.59-0.59,0.59-1.54,0-2.12
				C204.07,333.52,203.12,333.52,202.53,334.11z M177.53,334.11c-0.59,0.59-0.59,1.54,0,2.12c0.59,0.59,1.54,0.59,2.12,0
				c0.59-0.59,0.59-1.54,0-2.12C179.07,333.52,178.12,333.52,177.53,334.11z M189.53,334.11c-0.59,0.59-0.59,1.54,0,2.12
				c0.59,0.59,1.54,0.59,2.12,0c0.59-0.59,0.59-1.54,0-2.12C191.07,333.52,190.12,333.52,189.53,334.11z M209.4,331.27v-6.44
				c0-1.1-0.9-2-2-2h-3v-4h-6v4h-8v-9h1.5c0.83,0,1.5-0.67,1.5-1.5c0-0.83-0.67-1.5-1.5-1.5h-20c-0.83,0-1.5,0.67-1.5,1.5
				c0,0.83,0.67,1.5,1.5,1.5h0.5v18.08c-0.51,0.97-0.81,2.08-0.81,3.26c0,3.86,3.14,7,7,7c2.55,0,4.78-1.37,6-3.41
				c1.22,2.04,3.45,3.41,6,3.41c2.95,0,5.47-1.83,6.5-4.42c1.03,2.58,3.55,4.42,6.5,4.42c3.86,0,7-3.14,7-7
				C210.6,333.73,210.16,332.38,209.4,331.27z M178.6,339.17c-2.21,0-4-1.79-4-4c0-2.21,1.79-4,4-4c2.21,0,4,1.79,4,4
				C182.6,337.38,180.8,339.17,178.6,339.17z M186.4,321.83c0,0.55-0.45,1-1,1h-8c-0.55,0-1-0.45-1-1v-6c0-0.55,0.45-1,1-1h8
				c0.55,0,1,0.45,1,1V321.83z M190.6,339.17c-2.21,0-4-1.79-4-4c0-2.21,1.79-4,4-4c2.21,0,4,1.79,4,4
				C194.6,337.38,192.8,339.17,190.6,339.17z M203.6,339.17c-2.21,0-4-1.79-4-4c0-2.21,1.79-4,4-4c2.21,0,4,1.79,4,4
				C207.6,337.38,205.8,339.17,203.6,339.17z"/>
		</g>
	</g>
	<g>
		<g>
			<path class="st0" d="M133.14,333.51c-0.83,0-1.5,0.67-1.5,1.5c0,0.83,0.67,1.5,1.5,1.5c0.83,0,1.5-0.67,1.5-1.5
				C134.64,334.18,133.97,333.51,133.14,333.51z M112.14,333.51c-0.83,0-1.5,0.67-1.5,1.5c0,0.83,0.67,1.5,1.5,1.5s1.5-0.67,1.5-1.5
				C113.64,334.18,112.97,333.51,112.14,333.51z M143.43,323.5l-7.55-2.26c-0.48-0.14-0.88-0.46-1.14-0.89l-5.02-8.37
				c-0.36-0.6-1.01-0.97-1.71-0.97l-16.51-0.02c-0.82,0-1.56,0.5-1.86,1.26l-3.15,7.9c-0.22,0.55-0.67,0.97-1.23,1.16l-3.75,1.25
				c-0.82,0.27-1.37,1.04-1.37,1.9l0,5.59c0,0.61,0.28,1.19,0.75,1.56l3.7,2.94c0.17,0.13,0.36,0.24,0.55,0.31
				c0,0.05-0.01,0.1-0.01,0.15c0,3.86,3.14,7,7,7s7-3.14,7-7c0,0,0,0,0-0.01l7,0.01c0,3.86,3.14,7,7,7c3.85,0,6.99-3.13,7-6.98
				l1.33,0c0.97,0,1.8-0.69,1.97-1.64l1.38-7.62C145.01,324.77,144.41,323.79,143.43,323.5z M112.14,339.01c-2.21,0-4-1.79-4-4
				c0-2.21,1.79-4,4-4c2.21,0,4,1.79,4,4C116.14,337.22,114.35,339.01,112.14,339.01z M119.14,320.01c0,0.55-0.45,1-1,1h-6.61
				c-0.68,0-1.16-0.67-0.95-1.32l1.33-4c0.14-0.41,0.52-0.68,0.95-0.68h5.28c0.55,0,1,0.45,1,1V320.01z M126.64,326.76h-3
				c-0.69,0-1.25-0.56-1.25-1.25c0-0.69,0.56-1.25,1.25-1.25h3c0.69,0,1.25,0.56,1.25,1.25
				C127.89,326.2,127.33,326.76,126.64,326.76z M123.14,321.01c-0.55,0-1-0.45-1-1v-4c0-0.55,0.45-1,1-1h4.38
				c0.38,0,0.73,0.21,0.89,0.55l2,4c0.33,0.66-0.15,1.45-0.89,1.45H123.14z M133.14,339.01c-2.21,0-4-1.79-4-4c0-2.21,1.79-4,4-4
				c2.21,0,4,1.79,4,4C137.14,337.22,135.35,339.01,133.14,339.01z"/>
		</g>
	</g>
	<g>
		<g>
			<path class="st0" d="M68,324c-0.36,0-0.71,0.03-1.06,0.07l-4.01-12.04c-0.2-0.61-0.78-1.03-1.42-1.03h-5
				c-0.83,0-1.5,0.67-1.5,1.5s0.67,1.5,1.5,1.5h3.92l1.67,5H47.5c-0.58,0-1.12,0.34-1.36,0.87l-2.15,4.65
				C43.05,324.19,42.05,324,41,324c-4.96,0-9,4.04-9,9s4.04,9,9,9c4.27,0,7.86-3,8.77-7h2.69c0.44,0,0.86-0.19,1.15-0.53l9.78-11.59
				l0.68,2.04C61.07,326.39,59,329.45,59,333c0,4.96,4.04,9,9,9s9-4.04,9-9S72.96,324,68,324z M41,339c-3.31,0-6-2.69-6-6
				s2.69-6,6-6c0.6,0,1.18,0.09,1.73,0.26l-2.59,5.61c-0.21,0.46-0.18,1.01,0.1,1.44c0.28,0.43,0.75,0.69,1.26,0.69h5.15
				C45.82,337.33,43.61,339,41,339z M43.84,332l1.46-3.17c0.83,0.85,1.4,1.95,1.6,3.17H43.84z M51.76,332h-1.82
				c-0.27-2.43-1.51-4.56-3.32-6.02l1.84-3.98h11.73L51.76,332z M68,339c-3.31,0-6-2.69-6-6c0-2.22,1.22-4.16,3.02-5.2l2.06,6.17
				c0.21,0.63,0.79,1.03,1.42,1.03c0.16,0,0.32-0.02,0.47-0.08c0.79-0.26,1.21-1.11,0.95-1.9L67.92,327c0.03,0,0.06,0,0.08,0
				c3.31,0,6,2.69,6,6S71.31,339,68,339z"/>
			<path class="st0" d="M50,313.5h-6c-0.83,0-1.5,0.67-1.5,1.5s0.67,1.5,1.5,1.5h6c0.83,0,1.5-0.67,1.5-1.5S50.83,313.5,50,313.5z"
				/>
		</g>
	</g>
	<g>
		<g>
			<g>
				<path class="st0" d="M380,267.75c-0.83,0-1.5,0.67-1.5,1.5c0,0.83,0.67,1.5,1.5,1.5s1.5-0.67,1.5-1.5
					C381.5,268.42,380.83,267.75,380,267.75z M403,257.5c0-1.24-1.01-2.25-2.25-2.25h-4.12l-3.07-12.13
					c-0.22-0.89-1.02-1.51-1.94-1.51h-10.44c-1.1,0-2,0.9-2,2v11.65c-1.21,0.04-2.18,1.02-2.18,2.24v5.44c-2.36,1.13-4,3.53-4,6.31
					c0,3.86,3.14,7,7,7c3.16,0,5.84-2.11,6.71-5h2.59c0.86,2.89,3.54,5,6.71,5c3.86,0,7-3.14,7-7c0-0.05-0.01-0.11-0.01-0.16
					c0-0.03,0.01-0.06,0.01-0.09V257.5z M380,273.25c-2.21,0-4-1.79-4-4s1.79-4,4-4s4,1.79,4,4S382.21,273.25,380,273.25z
					 M391.38,255.61h-3.2v2c0,0.55-0.45,1-1,1h-4c-0.55,0-1-0.45-1-1v-2.37c-0.01-0.04-0.03-0.08-0.03-0.13l0.03-9
					c0-0.28,0.22-0.5,0.5-0.5h6.9c0.24,0,0.44,0.17,0.49,0.4l1.8,9C391.93,255.32,391.69,255.61,391.38,255.61z M396,273.25
					c-2.21,0-4-1.79-4-4s1.79-4,4-4s4,1.79,4,4S398.21,273.25,396,273.25z M396,267.75c-0.83,0-1.5,0.67-1.5,1.5
					c0,0.83,0.67,1.5,1.5,1.5s1.5-0.67,1.5-1.5C397.5,268.42,396.83,267.75,396,267.75z"/>
				<path class="st0" d="M414,267.25h-4.5v-24.5c0-1.1-0.9-2-2-2s-2,0.9-2,2v26.5c0,1.1,0.9,2,2,2h6.5c1.1,0,2-0.9,2-2
					S415.1,267.25,414,267.25z"/>
			</g>
		</g>
	</g>
	<g>
		<g>
			<g>
				<path class="st0" d="M310.51,259.24h17.5c0.28,0,0.5-0.22,0.5-0.5v-1.45c0-0.17-0.02-0.33-0.06-0.49l-3.56-14.05
					c-0.22-0.89-1.02-1.51-1.94-1.51h-8.44c-1.1,0-2,0.9-2,2v12h-2c-1.1,0-2,0.9-2,2C308.51,258.35,309.41,259.24,310.51,259.24z
					 M315.51,245.74c0-0.28,0.22-0.5,0.5-0.5h5.1c0.23,0,0.44,0.16,0.49,0.39l1.78,8c0.07,0.31-0.17,0.61-0.49,0.61h-6.88
					c-0.28,0-0.5-0.22-0.5-0.5V245.74z M326.62,267.26c-0.83,0-1.5,0.67-1.5,1.5c0,0.83,0.67,1.5,1.5,1.5c0.83,0,1.5-0.67,1.5-1.5
					C328.12,267.93,327.45,267.26,326.62,267.26z M333.17,265.73c-1.16-2.43-3.62-3.98-6.31-3.98h-14.48
					c-2.69,0-5.15,1.55-6.31,3.98c-0.92,1.91-0.92,4.14,0,6.05c1.16,2.43,3.62,3.98,6.31,3.98h14.48c2.69,0,5.15-1.55,6.31-3.98
					C334.09,269.87,334.09,267.65,333.17,265.73z M312.62,272.76c-2.21,0-4-1.79-4-4c0-2.21,1.79-4,4-4c2.21,0,4,1.79,4,4
					C316.62,270.96,314.83,272.76,312.62,272.76z M326.62,272.76c-2.21,0-4-1.79-4-4c0-2.21,1.79-4,4-4c2.21,0,4,1.79,4,4
					C330.62,270.96,328.83,272.76,326.62,272.76z M312.62,267.26c-0.83,0-1.5,0.67-1.5,1.5c0,0.83,0.67,1.5,1.5,1.5
					c0.83,0,1.5-0.67,1.5-1.5C314.12,267.93,313.45,267.26,312.62,267.26z"/>
				<path class="st0" d="M347.36,266.47l-4.32-2.48c-0.26-0.15-0.45-0.41-0.49-0.72l-1.8-11.68c-0.07-0.49-0.49-0.85-0.99-0.85h-2.4
					c-0.55,0-1,0.45-1,1v5.01l-3.25,0.03c-0.83,0.01-1.49,0.68-1.49,1.51c0.01,0.82,0.68,1.49,1.5,1.49h0.01l3.23-0.03v7.99
					c0,0.55,0.45,1,1,1h9.26c0.55,0,1-0.45,1-1v-0.62C347.62,266.89,347.53,266.66,347.36,266.47z"/>
			</g>
		</g>
	</g>
	<g>
		<g>
			<path class="st0" d="M246.02,260.76c-3.99,0-7.24,3.25-7.24,7.24c0,3.99,3.25,7.24,7.24,7.24c3.99,0,7.24-3.25,7.24-7.24
				C253.26,264.01,250.01,260.76,246.02,260.76z M246.02,272.24c-2.34,0-4.24-1.9-4.24-4.24c0-2.34,1.9-4.24,4.24-4.24
				c2.34,0,4.24,1.9,4.24,4.24C250.26,270.34,248.36,272.24,246.02,272.24z M246.02,266.43c-0.86,0-1.57,0.7-1.57,1.57
				c0,0.86,0.7,1.57,1.57,1.57c0.86,0,1.57-0.7,1.57-1.57C247.59,267.14,246.89,266.43,246.02,266.43z M271.03,258.99
				c0.72-0.16,1.02-1.02,0.55-1.59c-2.39-2.9-5.86-7.63-7-7.63h-2.61c-0.68,0-1.17,0.67-0.95,1.31c0.97,2.91,2.37,7.09,2.87,8.59
				c0.53,1.6-0.65,3.24-2.34,3.24h-2.94c-0.39,0-0.74-0.22-0.9-0.57l-1.92-4.05c0.55-0.47,0.98-1.07,1.22-1.79l0.2-0.6
				c0.43-1.29-0.53-2.63-1.9-2.63h-16.23c-1.62,0-3,1-2,2.84c0.83,1.52,2.29,3.16,4,3.16h4.7c4.07,0,7.75,2.68,8.73,6.63
				c0.31,1.27,0.33,2.51,0.12,3.66c-0.11,0.63,0.34,1.21,0.98,1.21h7.34c0.63,0,1.08-0.57,0.98-1.19c-0.09-0.51-0.13-1.04-0.13-1.57
				C263.78,263.58,266.88,259.9,271.03,258.99z M273.02,266.43c-0.86,0-1.57,0.7-1.57,1.57c0,0.86,0.7,1.57,1.57,1.57
				c0.86,0,1.57-0.7,1.57-1.57C274.59,267.14,273.89,266.43,273.02,266.43z M273.02,260.76c-3.99,0-7.24,3.25-7.24,7.24
				c0,3.99,3.25,7.24,7.24,7.24c3.99,0,7.24-3.25,7.24-7.24C280.26,264.01,277.01,260.76,273.02,260.76z M273.02,272.24
				c-2.34,0-4.24-1.9-4.24-4.24c0-2.34,1.9-4.24,4.24-4.24c2.34,0,4.24,1.9,4.24,4.24C277.26,270.34,275.36,272.24,273.02,272.24z"
				/>
			<path class="st0" d="M266.08,241.76h-3.44c-1.11,0-2.06,0.61-2.58,1.5h-2.48c-0.83,0-1.5,0.67-1.5,1.5c0,0.83,0.67,1.5,1.5,1.5
				h2.48c0.52,0.89,1.48,1.5,2.58,1.5h3.44c0.55,0,1-0.45,1-1v-4C267.08,242.21,266.63,241.76,266.08,241.76z"/>
		</g>
	</g>
	<g>
		<g>
			<rect x="188.5" y="240.5" class="st0" width="3" height="8.5"/>
			<path class="st0" d="M204,268c-0.83,0-1.5,0.67-1.5,1.5c0,0.83,0.67,1.5,1.5,1.5s1.5-0.67,1.5-1.5
				C205.5,268.67,204.83,268,204,268z M174.94,268.44c-0.59,0.59-0.59,1.54,0,2.12c0.59,0.59,1.54,0.59,2.12,0
				c0.59-0.59,0.59-1.54,0-2.12C176.47,267.85,175.53,267.85,174.94,268.44z M185.94,268.44c-0.59,0.59-0.59,1.54,0,2.12
				c0.59,0.59,1.54,0.59,2.12,0c0.59-0.59,0.59-1.54,0-2.12C187.47,267.85,186.53,267.85,185.94,268.44z M212.87,259.16l-3.5-9.36
				c-0.29-0.78-1.04-1.3-1.87-1.3H199c-1.1,0-2,0.9-2,2v12h-4v-11h-6v11h-18c-0.55,0-1,0.45-1,1v5c0,0.55,0.45,1,1,1v0
				c0,3.86,3.14,7,7,7c2.23,0,4.22-1.05,5.5-2.68c1.28,1.63,3.27,2.68,5.5,2.68c3.86,0,7-3.14,7-7v0h3v0c0,3.86,3.14,7,7,7
				s7-3.14,7-7v0c1.1,0,2-0.9,2-2v-7.64C213,259.62,212.96,259.38,212.87,259.16z M176,273.5c-2.21,0-4-1.79-4-4c0-2.21,1.79-4,4-4
				s4,1.79,4,4C180,271.71,178.21,273.5,176,273.5z M187,273.5c-2.21,0-4-1.79-4-4c0-2.21,1.79-4,4-4s4,1.79,4,4
				C191,271.71,189.21,273.5,187,273.5z M204,273.5c-2.21,0-4-1.79-4-4c0-2.21,1.79-4,4-4s4,1.79,4,4
				C208,271.71,206.21,273.5,204,273.5z M208.22,258.41l-7.78-0.86c-0.25-0.03-0.44-0.24-0.44-0.5V253c0-0.28,0.22-0.5,0.5-0.5h6.14
				c0.22,0,0.41,0.14,0.47,0.34l1.64,4.92C208.87,258.1,208.59,258.45,208.22,258.41z"/>
		</g>
	</g>
	<g>
		<g>
			<path class="st0" d="M133.33,264.67c-0.83,0-1.5,0.67-1.5,1.5c0,0.83,0.67,1.5,1.5,1.5c0.83,0,1.5-0.67,1.5-1.5
				C134.83,265.34,134.16,264.67,133.33,264.67z M112.33,264.67c-0.83,0-1.5,0.67-1.5,1.5c0,0.83,0.67,1.5,1.5,1.5
				c0.83,0,1.5-0.67,1.5-1.5C113.83,265.34,113.16,264.67,112.33,264.67z M142.21,255.83l-3.5-9.36c-0.29-0.78-1.04-1.3-1.87-1.3
				h-8.5c-1.1,0-2,0.9-2,2v13.66h-2.67v-16c0-0.55-0.45-1-1-1h-19c-0.55,0-1,0.45-1,1v21c0,0.55,0.45,1,1,1h1.7
				c0.33,3.55,3.33,6.34,6.97,6.34c3.64,0,6.63-2.79,6.97-6.34h7.07c0.33,3.55,3.33,6.34,6.97,6.34c3.86,0,7-3.14,7-7v0h0
				c1.1,0,2-0.9,2-2v-7.64C142.33,256.29,142.29,256.05,142.21,255.83z M112.33,270.17c-2.21,0-4-1.79-4-4c0-2.21,1.79-4,4-4
				c2.21,0,4,1.79,4,4C116.33,268.38,114.54,270.17,112.33,270.17z M133.33,270.17c-2.21,0-4-1.79-4-4c0-2.21,1.79-4,4-4
				c2.21,0,4,1.79,4,4C137.33,268.38,135.54,270.17,133.33,270.17z M137.56,255.08l-7.78-0.86c-0.25-0.03-0.44-0.24-0.44-0.5v-4.05
				c0-0.28,0.22-0.5,0.5-0.5h6.14c0.22,0,0.41,0.14,0.47,0.34l1.64,4.92C138.2,254.77,137.92,255.12,137.56,255.08z"/>
		</g>
	</g>
	<g>
		<g>
			<path class="st0" d="M64.5,264c-0.83,0-1.5,0.67-1.5,1.5c0,0.83,0.67,1.5,1.5,1.5c0.83,0,1.5-0.67,1.5-1.5
				C66,264.67,65.33,264,64.5,264z M43.44,264.44c-0.59,0.59-0.59,1.54,0,2.12c0.59,0.59,1.54,0.59,2.12,0
				c0.59-0.59,0.59-1.54,0-2.12C44.97,263.85,44.03,263.85,43.44,264.44z M74.37,255.16l-3.5-9.36c-0.29-0.78-1.04-1.3-1.87-1.3
				h-8.5c-1.1,0-2,0.9-2,2v9h-23c-0.55,0-1,0.45-1,1v8c0,0.55,0.45,1,1,1h2v0c0,3.86,3.14,7,7,7s7-3.14,7-7v0h6v0c0,3.86,3.14,7,7,7
				c3.86,0,7-3.14,7-7v0h1c1.1,0,2-0.9,2-2v-7.64C74.5,255.62,74.46,255.38,74.37,255.16z M44.5,269.5c-2.21,0-4-1.79-4-4
				c0-2.21,1.79-4,4-4c2.21,0,4,1.79,4,4C48.5,267.71,46.71,269.5,44.5,269.5z M64.5,269.5c-2.21,0-4-1.79-4-4c0-2.21,1.79-4,4-4
				c2.21,0,4,1.79,4,4C68.5,267.71,66.71,269.5,64.5,269.5z M69.72,254.41l-7.78-0.86c-0.25-0.03-0.44-0.24-0.44-0.5V249
				c0-0.28,0.22-0.5,0.5-0.5h6.14c0.22,0,0.41,0.14,0.47,0.34l1.64,4.92C70.37,254.1,70.09,254.45,69.72,254.41z"/>
			<path class="st0" d="M54,249.5H40c-0.83,0-1.5,0.67-1.5,1.5c0,0.83,0.67,1.5,1.5,1.5h14c0.83,0,1.5-0.67,1.5-1.5
				C55.5,250.17,54.83,249.5,54,249.5z"/>
		</g>
	</g>
	<g>
		<g>
			<g>
				<path class="st0" d="M415.12,191.23l-3.5-9.36c-0.29-0.78-1.04-1.3-1.87-1.3h-8.5c-1.1,0-2,0.9-2,2v13.65h-7.19
					c-1.19-0.94-2.69-1.5-4.31-1.5s-3.12,0.56-4.31,1.5h-4.24c-0.24,0-0.44,0.21-0.44,0.46v4.58c0,0.25,0.2,0.46,0.44,0.46h1.56
					c0,0,0,0,0,0c0,3.86,3.14,7,7,7s7-3.14,7-7c0,0,0,0,0,0h3c0,0,0,0,0,0c0,3.86,3.14,7,7,7s7-3.14,7-7c0-0.05-0.01-0.1-0.01-0.15
					h1.51c1.1,0,2-0.9,2-2v-7.64C415.25,191.69,415.21,191.45,415.12,191.23z M387.75,205.72c-2.21,0-4-1.79-4-4c0-2.21,1.79-4,4-4
					s4,1.79,4,4C391.75,203.92,389.96,205.72,387.75,205.72z M404.75,205.72c-2.21,0-4-1.79-4-4c0-2.21,1.79-4,4-4s4,1.79,4,4
					C408.75,203.92,406.96,205.72,404.75,205.72z M410.47,190.48l-7.78-0.86c-0.25-0.03-0.44-0.24-0.44-0.5v-4.05
					c0-0.28,0.22-0.5,0.5-0.5h6.14c0.22,0,0.41,0.14,0.47,0.34l1.64,4.92C411.12,190.17,410.84,190.52,410.47,190.48z
					 M387.75,200.22c-0.83,0-1.5,0.67-1.5,1.5c0,0.83,0.67,1.5,1.5,1.5s1.5-0.67,1.5-1.5C389.25,200.89,388.58,200.22,387.75,200.22
					z M404.75,200.22c-0.83,0-1.5,0.67-1.5,1.5c0,0.83,0.67,1.5,1.5,1.5s1.5-0.67,1.5-1.5
					C406.25,200.89,405.58,200.22,404.75,200.22z"/>
				<path class="st0" d="M373.75,176.85v11.18c0,5.49,23,5.49,23,0v-11.18C396.75,170.76,373.75,170.76,373.75,176.85z"/>
			</g>
		</g>
	</g>
	<g>
		<g>
			<path class="st0" d="M306.38,181.12h9c0.28,0,0.5-0.22,0.5-0.5v-5c0-0.28-0.22-0.5-0.5-0.5h-9c-0.28,0-0.5,0.22-0.5,0.5v5
				C305.88,180.9,306.1,181.12,306.38,181.12z M327.88,183.62h-21.5c-0.28,0-0.5,0.22-0.5,0.5v5c0,0.28,0.22,0.5,0.5,0.5h21.5
				c0.28,0,0.5-0.22,0.5-0.5v-5C328.38,183.85,328.15,183.62,327.88,183.62z M327.88,175.12h-9c-0.28,0-0.5,0.22-0.5,0.5v5
				c0,0.28,0.22,0.5,0.5,0.5h9c0.28,0,0.5-0.22,0.5-0.5v-5C328.38,175.35,328.15,175.12,327.88,175.12z"/>
			<path class="st0" d="M319.63,197.37c-0.83,0-1.5,0.67-1.5,1.5s0.67,1.5,1.5,1.5s1.5-0.67,1.5-1.5S320.45,197.37,319.63,197.37z
				 M336.63,197.37c-0.83,0-1.5,0.67-1.5,1.5s0.67,1.5,1.5,1.5s1.5-0.67,1.5-1.5S337.45,197.37,336.63,197.37z M347,188.39
				l-3.5-9.36c-0.29-0.78-1.04-1.3-1.87-1.3h-8.5c-1.1,0-2,0.9-2,2v13.65h-7.19c-1.19-0.94-2.69-1.5-4.31-1.5s-3.12,0.56-4.31,1.5
				h-4.24c-0.24,0-0.44,0.21-0.44,0.46v4.58c0,0.25,0.2,0.46,0.44,0.46h1.56c0,0,0,0,0,0c0,3.86,3.14,7,7,7s7-3.14,7-7c0,0,0,0,0,0
				h3c0,0,0,0,0,0c0,3.86,3.14,7,7,7s7-3.14,7-7c0-0.05-0.01-0.1-0.01-0.15h1.51c1.1,0,2-0.9,2-2v-7.64
				C347.13,188.85,347.08,188.61,347,188.39z M319.63,202.88c-2.21,0-4-1.79-4-4c0-2.21,1.79-4,4-4s4,1.79,4,4
				C323.63,201.08,321.83,202.88,319.63,202.88z M336.63,202.88c-2.21,0-4-1.79-4-4c0-2.21,1.79-4,4-4s4,1.79,4,4
				C340.63,201.08,338.83,202.88,336.63,202.88z M342.35,187.64l-7.78-0.86c-0.25-0.03-0.44-0.24-0.44-0.5v-4.05
				c0-0.28,0.22-0.5,0.5-0.5h6.14c0.22,0,0.41,0.14,0.47,0.34l1.64,4.92C342.99,187.33,342.71,187.68,342.35,187.64z"/>
		</g>
	</g>
	<g>
		<g>
			<path class="st0" d="M259.75,172h-21c-0.55,0-1,0.45-1,1v19c0,0.55,0.45,1,1,1h21c0.55,0,1-0.45,1-1v-19
				C260.75,172.45,260.3,172,259.75,172z M244.75,187.5c0,0.83-0.67,1.5-1.5,1.5c-0.83,0-1.5-0.67-1.5-1.5v-10
				c0-0.83,0.67-1.5,1.5-1.5c0.83,0,1.5,0.67,1.5,1.5V187.5z M250.75,187.5c0,0.83-0.67,1.5-1.5,1.5c-0.83,0-1.5-0.67-1.5-1.5v-10
				c0-0.83,0.67-1.5,1.5-1.5c0.83,0,1.5,0.67,1.5,1.5V187.5z M256.75,187.5c0,0.83-0.67,1.5-1.5,1.5c-0.83,0-1.5-0.67-1.5-1.5v-10
				c0-0.83,0.67-1.5,1.5-1.5c0.83,0,1.5,0.67,1.5,1.5V187.5z"/>
			<path class="st0" d="M251.75,200.5c-0.83,0-1.5,0.67-1.5,1.5s0.67,1.5,1.5,1.5s1.5-0.67,1.5-1.5S252.58,200.5,251.75,200.5z
				 M279.12,191.51l-3.5-9.36c-0.29-0.78-1.04-1.3-1.87-1.3h-8.5c-1.1,0-2,0.9-2,2v13.65h-7.19c-1.19-0.94-2.69-1.5-4.31-1.5
				s-3.12,0.56-4.31,1.5h-4.24c-0.24,0-0.44,0.21-0.44,0.46v4.58c0,0.25,0.2,0.46,0.44,0.46h1.56c0,0,0,0,0,0c0,3.86,3.14,7,7,7
				s7-3.14,7-7c0,0,0,0,0,0h3c0,0,0,0,0,0c0,3.86,3.14,7,7,7s7-3.14,7-7c0-0.05-0.01-0.1-0.01-0.15h1.51c1.1,0,2-0.9,2-2v-7.64
				C279.25,191.97,279.21,191.74,279.12,191.51z M251.75,206c-2.21,0-4-1.79-4-4c0-2.21,1.79-4,4-4s4,1.79,4,4
				C255.75,204.21,253.96,206,251.75,206z M268.75,206c-2.21,0-4-1.79-4-4c0-2.21,1.79-4,4-4s4,1.79,4,4
				C272.75,204.21,270.96,206,268.75,206z M274.47,190.77l-7.78-0.86c-0.25-0.03-0.44-0.24-0.44-0.5v-4.05c0-0.28,0.22-0.5,0.5-0.5
				h6.14c0.22,0,0.41,0.14,0.47,0.34l1.64,4.92C275.12,190.46,274.84,190.81,274.47,190.77z M268.75,200.5c-0.83,0-1.5,0.67-1.5,1.5
				s0.67,1.5,1.5,1.5s1.5-0.67,1.5-1.5S269.58,200.5,268.75,200.5z"/>
		</g>
	</g>
	<g>
		<g>
			<path class="st0" d="M187.58,172.19c-0.79,0-1.51,0.23-2.14,0.62h-9.23c-0.83,0-1.5,0.67-1.5,1.5s0.67,1.5,1.5,1.5h7
				c0.1,0,0.2,0.02,0.3,0.03c-0.02,0.16-0.05,0.31-0.05,0.47c0,1.39,0.69,2.61,1.75,3.36v13.32h5.5v-14.04
				c0.6-0.72,0.98-1.63,0.98-2.64C191.7,174.04,189.85,172.19,187.58,172.19z M187.58,177.92c-0.89,0-1.62-0.72-1.62-1.62
				c0-0.89,0.72-1.62,1.62-1.62s1.62,0.73,1.62,1.62C189.2,177.2,188.47,177.92,187.58,177.92z"/>
			<path class="st0" d="M182.14,186.38c0-2.47-1.66-4.57-3.93-5.22v-1.85c0-0.83-0.67-1.5-1.5-1.5s-1.5,0.67-1.5,1.5v3.14
				c0,0.83,0.67,1.5,1.5,1.5c1.34,0,2.43,1.09,2.43,2.43s-1.09,2.43-2.43,2.43s-2.43-1.09-2.43-2.43c0-0.83-0.67-1.5-1.5-1.5
				c-0.83,0-1.5,0.67-1.5,1.5c0,2.99,2.44,5.43,5.43,5.43S182.14,189.37,182.14,186.38z M209.59,191.32l-3.5-9.36
				c-0.29-0.78-1.04-1.3-1.87-1.3h-8.5c-1.1,0-2,0.9-2,2v13.65h-7.18c-1.19-0.94-2.69-1.5-4.32-1.5s-3.12,0.56-4.31,1.5h-4.24
				c-0.24,0-0.44,0.21-0.44,0.46v4.58c0,0.25,0.2,0.46,0.44,0.46h1.56c0,0,0,0,0,0c0,3.86,3.14,7,7,7c3.86,0,7-3.14,7-7c0,0,0,0,0,0
				h3c0,0,0,0,0,0c0,3.86,3.14,7,7,7c3.86,0,7-3.14,7-7c0-0.05-0.01-0.1-0.01-0.15h1.51c1.1,0,2-0.9,2-2v-7.64
				C209.71,191.78,209.67,191.54,209.59,191.32z M182.21,205.81c-2.21,0-4-1.79-4-4c0-2.21,1.79-4,4-4c2.21,0,4,1.79,4,4
				C186.21,204.01,184.42,205.81,182.21,205.81z M199.21,205.81c-2.21,0-4-1.79-4-4c0-2.21,1.79-4,4-4c2.21,0,4,1.79,4,4
				C203.21,204.01,201.42,205.81,199.21,205.81z M204.94,190.57l-7.78-0.86c-0.25-0.03-0.44-0.24-0.44-0.5v-4.05
				c0-0.28,0.22-0.5,0.5-0.5h6.14c0.22,0,0.41,0.14,0.47,0.34l1.64,4.92C205.58,190.26,205.3,190.61,204.94,190.57z M182.21,200.31
				c-0.83,0-1.5,0.67-1.5,1.5c0,0.83,0.67,1.5,1.5,1.5s1.5-0.67,1.5-1.5C183.71,200.98,183.04,200.31,182.21,200.31z M199.21,200.31
				c-0.83,0-1.5,0.67-1.5,1.5c0,0.83,0.67,1.5,1.5,1.5s1.5-0.67,1.5-1.5C200.71,200.98,200.04,200.31,199.21,200.31z"/>
		</g>
	</g>
	<g>
		<g>
			<path class="st0" d="M136.11,172.19l-7-0.07c-0.56,0.03-1.03,0.34-1.2,0.85l-0.84,2.51l-23.48,0.03c-0.48,0-0.89,0.34-0.98,0.81
				l-1.84,9.36c-0.1,0.51,0.21,1.02,0.72,1.16l22.66,6.18c0.54,0.15,1.1-0.18,1.23-0.72l3.89-15.51c0-0.01,0.01-0.02,0.01-0.03
				l0.71-2.14l6.09,0.06h0.01c0.68,0,1.24-0.55,1.25-1.24C137.36,172.76,136.8,172.2,136.11,172.19z M109.39,180.24l-0.83,3.48
				c-0.17,0.69-0.78,1.15-1.46,1.15c-0.12,0-0.23-0.01-0.35-0.04c-0.81-0.19-1.3-1-1.11-1.81l0.83-3.48c0.19-0.81,1-1.31,1.81-1.11
				C109.09,178.63,109.58,179.43,109.39,180.24z M116.05,180.29l-1.5,5.48c-0.18,0.67-0.79,1.1-1.45,1.1c-0.13,0-0.26-0.02-0.4-0.05
				c-0.8-0.22-1.27-1.04-1.05-1.84l1.5-5.48c0.22-0.8,1.04-1.27,1.84-1.05C115.8,178.66,116.26,179.49,116.05,180.29z
				 M122.71,180.31l-2.17,7.48c-0.19,0.66-0.79,1.08-1.44,1.08c-0.14,0-0.28-0.02-0.42-0.06c-0.8-0.23-1.25-1.06-1.02-1.86
				l2.17-7.48c0.23-0.8,1.07-1.26,1.86-1.02C122.48,178.68,122.94,179.51,122.71,180.31z"/>
			<path class="st0" d="M117.6,200.37c-0.83,0-1.5,0.67-1.5,1.5c0,0.83,0.67,1.5,1.5,1.5s1.5-0.67,1.5-1.5
				C119.1,201.05,118.43,200.37,117.6,200.37z M134.6,200.37c-0.83,0-1.5,0.67-1.5,1.5c0,0.83,0.67,1.5,1.5,1.5s1.5-0.67,1.5-1.5
				C136.1,201.05,135.43,200.37,134.6,200.37z M144.11,191.39l-3.5-9.36c-0.29-0.78-1.04-1.3-1.87-1.3h-5.88
				c-0.94,0-1.76,0.66-1.96,1.58l-3.34,14.07h-5.65c-1.19-0.94-2.69-1.5-4.31-1.5c-1.63,0-3.12,0.56-4.31,1.5h-4.24
				c-0.24,0-0.44,0.21-0.44,0.46v4.58c0,0.25,0.2,0.46,0.44,0.46h1.56c0,0,0,0,0,0c0,3.86,3.14,7,7,7c3.86,0,7-3.14,7-7c0,0,0,0,0,0
				h3c0,0,0,0,0,0c0,3.86,3.14,7,7,7c3.86,0,7-3.14,7-7c0-0.05-0.01-0.1-0.01-0.15h0.65c1.1,0,2-0.9,2-2v-7.64
				C144.24,191.85,144.2,191.61,144.11,191.39z M117.6,205.88c-2.21,0-4-1.79-4-4s1.79-4,4-4c2.21,0,4,1.79,4,4
				S119.81,205.88,117.6,205.88z M134.6,205.88c-2.21,0-4-1.79-4-4s1.79-4,4-4c2.21,0,4,1.79,4,4S136.81,205.88,134.6,205.88z
				 M139.79,189.66l-6.62-0.55c-0.3-0.03-0.51-0.31-0.45-0.61l0.78-3.38c0.05-0.23,0.25-0.39,0.49-0.39h4.26
				c0.2,0,0.39,0.12,0.46,0.31l1.57,3.93C140.44,189.32,140.16,189.69,139.79,189.66z"/>
		</g>
	</g>
	<g>
		<g>
			<g>
				<path class="st0" d="M75.54,190.76l-3.5-9.36c-0.29-0.78-1.04-1.3-1.87-1.3h-8.5c-1.1,0-2,0.9-2,2v13.65h-7.19
					c-1.19-0.94-2.69-1.5-4.31-1.5c-1.63,0-3.12,0.56-4.31,1.5h-4.24c-0.24,0-0.44,0.21-0.44,0.46v4.58c0,0.25,0.2,0.46,0.44,0.46
					h1.56c0,0,0,0,0,0c0,3.86,3.14,7,7,7s7-3.14,7-7c0,0,0,0,0,0h3c0,0,0,0,0,0c0,3.86,3.14,7,7,7s7-3.14,7-7
					c0-0.05-0.01-0.1-0.01-0.15h1.51c1.1,0,2-0.9,2-2v-7.64C75.67,191.22,75.62,190.98,75.54,190.76z M48.17,205.25
					c-2.21,0-4-1.79-4-4c0-2.21,1.79-4,4-4c2.21,0,4,1.79,4,4C52.17,203.45,50.37,205.25,48.17,205.25z M65.17,205.25
					c-2.21,0-4-1.79-4-4c0-2.21,1.79-4,4-4c2.21,0,4,1.79,4,4C69.17,203.45,67.37,205.25,65.17,205.25z M70.89,190.01l-7.78-0.86
					c-0.25-0.03-0.44-0.24-0.44-0.5v-4.05c0-0.28,0.22-0.5,0.5-0.5h6.14c0.22,0,0.41,0.14,0.47,0.34l1.64,4.92
					C71.53,189.7,71.25,190.05,70.89,190.01z M48.17,199.75c-0.83,0-1.5,0.67-1.5,1.5c0,0.83,0.67,1.5,1.5,1.5s1.5-0.67,1.5-1.5
					C49.67,200.42,48.99,199.75,48.17,199.75z M65.17,199.75c-0.83,0-1.5,0.67-1.5,1.5c0,0.83,0.67,1.5,1.5,1.5s1.5-0.67,1.5-1.5
					C66.67,200.42,65.99,199.75,65.17,199.75z"/>
				<path class="st0" d="M57.77,179.28l-3.99-5.47c-0.15-0.2-0.36-0.34-0.61-0.39l-3.2-0.65c-0.51-0.1-1.02,0.2-1.16,0.71
					l-2.75,9.61c-0.16,0.55-0.66,0.91-1.2,0.91c-0.11,0-0.23-0.02-0.34-0.05c-0.66-0.19-1.05-0.88-0.86-1.55l2.32-8.13
					c0.21-0.73-0.44-1.41-1.18-1.25l-9.05,1.99c-0.2,0.04-0.37,0.14-0.51,0.29c-0.46,0.48-1.49,1.72-1.8,3.43
					c-0.31,1.73,0.01,3.86,0.17,4.73c0.05,0.26,0.19,0.48,0.4,0.63l9.86,6.98c0.11,0.08,0.24,0.14,0.38,0.16l5.09,1.03
					c0.24,0.05,0.5,0.01,0.71-0.12l5.8-3.49c0.24-0.14,0.41-0.38,0.46-0.66l1.6-7.92C58,179.8,57.94,179.51,57.77,179.28z"/>
			</g>
		</g>
	</g>
	<g>
		<g>
			<path class="st0" d="M406.72,129.51c-0.83,0-1.5,0.67-1.5,1.5c0,0.83,0.67,1.5,1.5,1.5s1.5-0.67,1.5-1.5
				C408.22,130.18,407.55,129.51,406.72,129.51z M388.72,129.51c-0.83,0-1.5,0.67-1.5,1.5c0,0.83,0.67,1.5,1.5,1.5s1.5-0.67,1.5-1.5
				C390.22,130.18,389.55,129.51,388.72,129.51z M415.2,118.63l-5.49-1.37c-0.62-0.16-1.13-0.6-1.37-1.2l-3.12-7.79
				c-0.3-0.76-1.04-1.26-1.86-1.26l-22.64-0.02c-1.1,0-2,0.89-2,2l-0.02,20c0,1.1,0.89,2,2,2l1.01,0c0,0.01,0,0.01,0,0.02
				c0,3.86,3.14,7,7,7c3.86,0,7-3.14,7-7c0,0,0,0,0,0l4,0c0,3.86,3.14,7,7,7c3.85,0,6.99-3.13,7-6.98l1,0c1.11,0,2-0.89,2-2v-8.46
				C416.72,119.65,416.09,118.85,415.2,118.63z M388.72,135.01c-2.21,0-4-1.79-4-4c0-2.21,1.79-4,4-4c2.21,0,4,1.79,4,4
				C392.72,133.22,390.92,135.01,388.72,135.01z M392.72,116.01c0,0.55-0.45,1-1,1h-8c-0.55,0-1-0.45-1-1v-4c0-0.55,0.45-1,1-1h8
				c0.55,0,1,0.45,1,1V116.01z M395.72,116.01v-4c0-0.55,0.45-1,1-1H402c0.43,0,0.81,0.28,0.95,0.68l1.33,4
				c0.22,0.65-0.27,1.32-0.95,1.32h-6.61C396.17,117.01,395.72,116.56,395.72,116.01z M400.89,123.02h-3
				c-0.69,0-1.25-0.56-1.25-1.25c0-0.69,0.56-1.25,1.25-1.25h3c0.69,0,1.25,0.56,1.25,1.25
				C402.14,122.46,401.58,123.02,400.89,123.02z M406.72,135.01c-2.21,0-4-1.79-4-4c0-2.21,1.79-4,4-4c2.21,0,4,1.79,4,4
				C410.72,133.22,408.92,135.01,406.72,135.01z"/>
			<path class="st0" d="M374.28,110.51c-1.1,0-2,0.9-2,2v8.5c0,1.1,0.9,2,2,2s2-0.9,2-2v-8.5
				C376.28,111.41,375.39,110.51,374.28,110.51z"/>
		</g>
	</g>
	<g>
		<g>
			<path class="st0" d="M338,129c-0.83,0-1.5,0.67-1.5,1.5c0,0.83,0.67,1.5,1.5,1.5s1.5-0.67,1.5-1.5
				C339.5,129.67,338.83,129,338,129z M313.94,129.44c-0.59,0.59-0.59,1.54,0,2.12c0.59,0.59,1.54,0.59,2.12,0
				c0.59-0.59,0.59-1.54,0-2.12C315.47,128.85,314.52,128.85,313.94,129.44z M346.63,118.04l-0.66-0.22
				c-0.61-0.2-1.09-0.69-1.28-1.3l-2.37-7.62c-0.26-0.84-1.03-1.41-1.91-1.41H307c-1.1,0-2,0.9-2,2v19c0,1.1,0.9,2,2,2h1v0
				c0,3.86,3.14,7,7,7s7-3.14,7-7v0h9v0c0,3.86,3.14,7,7,7s7-3.14,7-7v0h1c1.1,0,2-0.9,2-2v-8.56
				C348,119.08,347.45,118.32,346.63,118.04z M310,118.5c-0.55,0-1-0.45-1-1v-5c0-0.55,0.45-1,1-1h6c0.55,0,1,0.45,1,1v5
				c0,0.55-0.45,1-1,1H310z M315,134.5c-2.21,0-4-1.79-4-4c0-2.21,1.79-4,4-4c2.21,0,4,1.79,4,4C319,132.71,317.21,134.5,315,134.5z
				 M328,117.5c0,0.55-0.45,1-1,1h-6c-0.55,0-1-0.45-1-1v-5c0-0.55,0.45-1,1-1h6c0.55,0,1,0.45,1,1V117.5z M332,118.5
				c-0.55,0-1-0.45-1-1v-5c0-0.55,0.45-1,1-1h7.25c0.45,0,0.84,0.3,0.96,0.73l1.43,5c0.18,0.64-0.3,1.27-0.96,1.27H332z M338,134.5
				c-2.21,0-4-1.79-4-4c0-2.21,1.79-4,4-4c2.21,0,4,1.79,4,4C342,132.71,340.21,134.5,338,134.5z"/>
		</g>
	</g>
	<g>
		<g>
			<path class="st0" d="M246.94,129.44c-0.59,0.59-0.59,1.54,0,2.12c0.59,0.59,1.54,0.59,2.12,0c0.59-0.59,0.59-1.54,0-2.12
				C248.47,128.85,247.53,128.85,246.94,129.44z M269,129c-0.83,0-1.5,0.67-1.5,1.5s0.67,1.5,1.5,1.5c0.83,0,1.5-0.67,1.5-1.5
				S269.83,129,269,129z M272,107.5h-34c-0.55,0-1,0.45-1,1v21c0,0.55,0.45,1,1,1h3c0,0,0,0,0,0c0,3.86,3.14,7,7,7
				c3.86,0,7-3.14,7-7c0,0,0,0,0,0h7c0,0,0,0,0,0c0,3.86,3.14,7,7,7c3.86,0,7-3.14,7-7c0,0,0,0,0,0h3c0.55,0,1-0.45,1-1v-14
				C280,111.08,276.42,107.5,272,107.5z M241,118.5c-0.55,0-1-0.45-1-1v-5c0-0.55,0.45-1,1-1h9c0.55,0,1,0.45,1,1v5
				c0,0.55-0.45,1-1,1H241z M248,134.5c-2.21,0-4-1.79-4-4c0-2.21,1.79-4,4-4c2.21,0,4,1.79,4,4C252,132.71,250.21,134.5,248,134.5z
				 M262,117.5c0,0.55-0.45,1-1,1h-6c-0.55,0-1-0.45-1-1v-5c0-0.55,0.45-1,1-1h6c0.55,0,1,0.45,1,1V117.5z M269,134.5
				c-2.21,0-4-1.79-4-4c0-2.21,1.79-4,4-4c2.21,0,4,1.79,4,4C273,132.71,271.21,134.5,269,134.5z M277,121.11
				c0,0.68-0.67,1.16-1.32,0.95l-10-3.33c-0.41-0.14-0.68-0.52-0.68-0.95v-5.28c0-0.55,0.45-1,1-1h6c2.76,0,5,2.24,5,5V121.11z"/>
		</g>
	</g>
	<g>
		<g>
			<path class="st0" d="M206.88,110.82c-0.51-0.82-1.58-2.41-3.06-4.05l0.24-0.24c0.49-0.49,0.49-1.28,0-1.77s-1.28-0.49-1.77,0
				l-0.24,0.24c-1.66-1.51-3.24-2.56-4.06-3.06c-0.34-0.21-0.79-0.12-1.03,0.2c-1.69,2.28-1.16,5.88,1.33,8.38v0
				c2.49,2.49,6.09,3.02,8.37,1.34C207.01,111.62,207.1,111.16,206.88,110.82z"/>
			<path class="st0" d="M181,134.68c-0.83,0-1.5,0.67-1.5,1.5s0.67,1.5,1.5,1.5s1.5-0.67,1.5-1.5S181.83,134.68,181,134.68z
				 M200,134.68c-0.83,0-1.5,0.67-1.5,1.5s0.67,1.5,1.5,1.5s1.5-0.67,1.5-1.5S200.83,134.68,200,134.68z M209.87,125.84l-3.5-9.36
				c-0.29-0.78-1.04-1.3-1.87-1.3H196v-1c0-1.1-0.9-2-2-2h-21c-1.1,0-2,0.9-2,2v21c0,0.55,0.45,1,1,1h2c0,0,0,0,0,0
				c0,3.86,3.14,7,7,7s7-3.14,7-7c0,0,0,0,0,0h5c0,0,0,0,0,0c0,3.86,3.14,7,7,7s7-3.14,7-7c0,0,0,0,0,0h1c1.1,0,2-0.9,2-2v-7.64
				C210,126.3,209.96,126.06,209.87,125.84z M176,122.18c-0.55,0-1-0.45-1-1v-4c0-0.55,0.45-1,1-1h6c0.55,0,1,0.45,1,1v4
				c0,0.55-0.45,1-1,1H176z M181,140.18c-2.21,0-4-1.79-4-4c0-2.21,1.79-4,4-4s4,1.79,4,4C185,138.38,183.21,140.18,181,140.18z
				 M193,127.18c0,0.55-0.45,1-1,1h-5c-0.55,0-1-0.45-1-1v-10c0-0.55,0.45-1,1-1h5c0.55,0,1,0.45,1,1V127.18z M200,140.18
				c-2.21,0-4-1.79-4-4c0-2.21,1.79-4,4-4s4,1.79,4,4C204,138.38,202.21,140.18,200,140.18z M205.22,124.09l-7.78-0.86
				c-0.25-0.03-0.44-0.24-0.44-0.5v-4.05c0-0.28,0.22-0.5,0.5-0.5h6.14c0.22,0,0.41,0.14,0.47,0.34l1.64,4.92
				C205.87,123.78,205.59,124.13,205.22,124.09z"/>
		</g>
	</g>
	<g>
		<g>
			<path class="st0" d="M113,132.25c-0.83,0-1.5,0.67-1.5,1.5c0,0.83,0.67,1.5,1.5,1.5s1.5-0.67,1.5-1.5
				C114.5,132.92,113.83,132.25,113,132.25z M132,132.25c-0.83,0-1.5,0.67-1.5,1.5c0,0.83,0.67,1.5,1.5,1.5s1.5-0.67,1.5-1.5
				C133.5,132.92,132.83,132.25,132,132.25z M141.87,123.41l-3.5-9.36c-0.29-0.78-1.04-1.3-1.87-1.3H130v-1c0-1.1-0.9-2-2-2h-23
				c-1.1,0-2,0.9-2,2v21c0,0.55,0.45,1,1,1h2c0,0,0,0,0,0c0,3.86,3.14,7,7,7c3.86,0,7-3.14,7-7c0,0,0,0,0,0h5c0,0,0,0,0,0
				c0,3.86,3.14,7,7,7c3.86,0,7-3.14,7-7c0,0,0,0,0,0h1c1.1,0,2-0.9,2-2v-7.64C142,123.87,141.96,123.63,141.87,123.41z M108,119.75
				c-0.55,0-1-0.45-1-1v-4c0-0.55,0.45-1,1-1h6c0.55,0,1,0.45,1,1v4c0,0.55-0.45,1-1,1H108z M113,137.75c-2.21,0-4-1.79-4-4
				s1.79-4,4-4c2.21,0,4,1.79,4,4S115.21,137.75,113,137.75z M125,124.75c0,0.55-0.45,1-1,1h-5c-0.55,0-1-0.45-1-1v-10
				c0-0.55,0.45-1,1-1h5c0.55,0,1,0.45,1,1V124.75z M132,137.75c-2.21,0-4-1.79-4-4s1.79-4,4-4c2.21,0,4,1.79,4,4
				S134.21,137.75,132,137.75z M137.22,121.66l-7.78-0.86c-0.25-0.03-0.44-0.24-0.44-0.5v-4.05c0-0.28,0.22-0.5,0.5-0.5h6.14
				c0.22,0,0.41,0.14,0.47,0.34l1.64,4.92C137.87,121.35,137.59,121.7,137.22,121.66z"/>
			<path class="st0" d="M125,104.25h-14c-0.83,0-1.5,0.67-1.5,1.5s0.67,1.5,1.5,1.5h14c0.83,0,1.5-0.67,1.5-1.5
				S125.83,104.25,125,104.25z"/>
		</g>
	</g>
	<g>
		<g>
			<path class="st0" d="M64,129c-0.83,0-1.5,0.67-1.5,1.5s0.67,1.5,1.5,1.5c0.83,0,1.5-0.67,1.5-1.5S64.83,129,64,129z
				 M73.87,120.16l-3.1-9.86c-0.52-1.67-2.07-2.8-3.82-2.8H37c-1.1,0-2,0.9-2,2v19c0,1.1,0.9,2,2,2h1c0,0,0,0,0,0c0,3.86,3.14,7,7,7
				s7-3.14,7-7c0,0,0,0,0,0h5c0,0,0,0,0,0c0,3.86,3.14,7,7,7s7-3.14,7-7c0,0,0,0,0,0h1c1.1,0,2-0.9,2-2v-7.64
				C74,120.62,73.96,120.38,73.87,120.16z M40,118.5c-0.55,0-1-0.45-1-1v-5c0-0.55,0.45-1,1-1h6c0.55,0,1,0.45,1,1v5
				c0,0.55-0.45,1-1,1H40z M45,134.5c-2.21,0-4-1.79-4-4c0-2.21,1.79-4,4-4c2.21,0,4,1.79,4,4C49,132.71,47.21,134.5,45,134.5z
				 M58,117.5c0,0.55-0.45,1-1,1h-6c-0.55,0-1-0.45-1-1v-5c0-0.55,0.45-1,1-1h6c0.55,0,1,0.45,1,1V117.5z M64,134.5
				c-2.21,0-4-1.79-4-4c0-2.21,1.79-4,4-4c2.21,0,4,1.79,4,4C68,132.71,66.21,134.5,64,134.5z M69.66,121.5H62c-0.55,0-1-0.45-1-1
				v-8c0-0.55,0.45-1,1-1h5.26c0.44,0,0.83,0.29,0.96,0.71l2.4,8C70.81,120.85,70.33,121.5,69.66,121.5z M43.94,129.44
				c-0.59,0.59-0.59,1.54,0,2.12c0.59,0.59,1.54,0.59,2.12,0c0.59-0.59,0.59-1.54,0-2.12C45.47,128.85,44.53,128.85,43.94,129.44z"
				/>
		</g>
	</g>
</g>
<g id="title">
</g>
</svg>
