<?xml version="1.0" encoding="utf-8"?>
<!-- Generator: Adobe Illustrator 24.1.1, SVG Export Plug-In . SVG Version: 6.00 Build 0)  -->
<svg version="1.1" xmlns="http://www.w3.org/2000/svg" x="0px" y="0px"
     viewBox="0 0 448 448" style="enable-background:new 0 0 448 448;" xml:space="preserve">
<style type="text/css">
	.st0{fill:#173042;}
</style>
<g id="grid">
</g>
<g id="icons">
	<g>
		<g>
			<path class="st0" d="M383.91,395.16c-0.07-0.07-0.2-0.01-0.19,0.09c0.04,0.55,0.12,1.1,0.23,1.65c0.67,3.2-0.43,6.51-2.74,8.81
				l-2.32,2.32c-0.39,0.39-0.39,1.02,0,1.41l2.45,2.45c0.39,0.39,1.02,0.39,1.41,0l2.32-2.32c2.31-2.31,5.62-3.41,8.82-2.74
				c0.54,0.11,1.09,0.19,1.65,0.24c0.1,0.01,0.16-0.12,0.09-0.19L383.91,395.16z M406.64,384.14c-2.18-2.18-4.96-3.4-7.84-3.68
				c0.01,0.12,0.02,0.24,0.02,0.36c0,3.58-2.92,6.5-6.5,6.5c-1.99,0-3.78-0.9-4.97-2.32c-1.7,1.91-2.76,4.17-3.2,6.52
				c-0.03,0.18,0.03,0.36,0.16,0.49l14.47,14.47c0.13,0.13,0.31,0.19,0.49,0.16c2.6-0.49,5.1-1.73,7.12-3.76
				C411.63,397.63,411.74,389.24,406.64,384.14z"/>
			<circle class="st0" cx="392.32" cy="380.82" r="4"/>
		</g>
	</g>
	<g>
		<g>
			<g>
				<path class="st0" d="M343.88,402.7h-34.76c-0.74,0-1.23,0.78-0.89,1.45l4,8c0.17,0.34,0.52,0.55,0.89,0.55h26.76
					c0.38,0,0.72-0.21,0.89-0.55l4-8C345.11,403.48,344.63,402.7,343.88,402.7z M326.96,400.2h11.86c0.75,0,1.23-0.79,0.89-1.46
					l-11.36-21.9c-0.48-0.93-1.89-0.59-1.89,0.46v22.4C326.46,399.98,326.69,400.2,326.96,400.2z"/>
				<path class="st0" d="M322.16,384.59l-8.78,11.68c-0.43,0.58-0.13,1.41,0.57,1.57l9.39,2.21c0.31,0.07,0.61-0.16,0.61-0.49V385.2
					C323.96,384.23,322.74,383.83,322.16,384.59z"/>
			</g>
		</g>
	</g>
	<g>
		<g>
			<path class="st0" d="M262.68,391.55h5.28c0.83,0,1.5-0.67,1.5-1.5c0-0.83-0.67-1.5-1.5-1.5h-5.28c-0.83,0-1.5,0.67-1.5,1.5
				C261.18,390.88,261.85,391.55,262.68,391.55z M267.96,392.96h-5.28c-0.83,0-1.5,0.67-1.5,1.5c0,0.83,0.67,1.5,1.5,1.5h5.28
				c0.83,0,1.5-0.67,1.5-1.5C269.46,393.63,268.78,392.96,267.96,392.96z"/>
			<path class="st0" d="M263.32,403.12c0,3.58-2.92,6.5-6.5,6.5c-3.58,0-6.5-2.92-6.5-6.5v-0.5h2.14c0.8,0,1.27-0.89,0.83-1.55
				l-3.15-4.77c-0.31-0.69-1.01-1.18-1.82-1.18c-1.1,0-2,0.9-2,2v6c0,5.79,4.71,10.5,10.5,10.5s10.5-4.71,10.5-10.5v-4.73h-4V403.12
				z M265.32,375.38c-2.96,0-5.37,2.41-5.37,5.37s2.41,5.37,5.37,5.37s5.37-2.41,5.37-5.37S268.28,375.38,265.32,375.38z
				 M265.32,382.12c-0.75,0-1.37-0.61-1.37-1.37s0.61-1.37,1.37-1.37s1.37,0.61,1.37,1.37S266.07,382.12,265.32,382.12z"/>
		</g>
	</g>
	<g>
		<g>
			<path class="st0" d="M202.75,388.13h-1v3.81c0,0.83-0.67,1.5-1.5,1.5c-0.83,0-1.5-0.67-1.5-1.5v-4c0-0.83-0.67-1.5-1.5-1.5
				c-0.83,0-1.5,0.67-1.5,1.5v4c0,0.83-0.67,1.5-1.5,1.5c-0.83,0-1.5-0.67-1.5-1.5v-3.98c-0.49-0.21-0.89-0.6-1.06-1.13l-0.79-2.37
				c-0.45-1.34-2.14-1.74-3.14-0.74l-0.9,0.9c-0.76,0.76-1.95,0.86-2.82,0.23l-4.45-3.18c-0.93-0.67-2.23-0.41-2.85,0.55l-5.89,9.22
				c-0.3,0.47-0.16,1.1,0.33,1.39l14.93,9c0.35,0.22,0.75,0.33,1.16,0.33h23.48c1.1,0,2-0.9,2-2v-2.06
				C212.75,392.61,208.27,388.13,202.75,388.13z"/>
			<path class="st0" d="M211.11,404.69H185.4l-14.9-8.57c-0.72-0.41-1.63-0.17-2.05,0.55c-0.41,0.72-0.17,1.64,0.55,2.05l15.25,8.77
				c0.23,0.13,0.49,0.2,0.75,0.2h26.11c0.83,0,1.5-0.67,1.5-1.5C212.61,405.36,211.93,404.69,211.11,404.69z"/>
		</g>
	</g>
	<g>
		<g>
			<path class="st0" d="M109.36,405.45c-0.41-0.41-1.09-0.39-1.47,0.06l-0.99,1.17c-0.59-0.58-1.53-0.58-2.12,0l-0.53,0.53
				c-0.59,0.59-0.59,1.54,0,2.12l3.38,3.38c0.59,0.59,1.54,0.59,2.12,0l0.53-0.53c0.58-0.58,0.59-1.53,0-2.12l1.17-0.99
				c0.45-0.38,0.48-1.06,0.06-1.47L109.36,405.45z M139.53,377.33c-2.3-2.24-6.08-1.87-8.15,0.58l-15.47,18.37
				c-0.32,0.38-0.29,0.94,0.06,1.29l3.43,3.43c0.35,0.35,0.91,0.37,1.29,0.05l18.56-15.62
				C141.71,383.35,141.86,379.59,139.53,377.33z"/>
			<path class="st0" d="M111.75,401.72c-0.59-0.59-1.54-0.59-2.12,0c-0.59,0.59-0.59,1.54,0,2.12l3,3c0.29,0.29,0.68,0.44,1.06,0.44
				c0.38,0,0.77-0.15,1.06-0.44c0.59-0.59,0.59-1.54,0-2.12L111.75,401.72z M117.75,401.72l-3-3c-0.59-0.59-1.54-0.59-2.12,0
				c-0.59,0.59-0.59,1.54,0,2.12l3,3c0.29,0.29,0.68,0.44,1.06,0.44c0.38,0,0.77-0.15,1.06-0.44
				C118.34,403.25,118.34,402.31,117.75,401.72z"/>
		</g>
	</g>
	<g>
		<g>
			<path class="st0" d="M60.5,378h-12c-2.21,0-4,1.79-4,4v8.9c0,1.1,0.9,2,2,2h16c1.1,0,2-0.9,2-2V382
				C64.5,379.79,62.71,378,60.5,378z M54.5,389.71c-1.18,0-2.13-0.95-2.13-2.13c0-0.81,0.46-1.51,1.13-1.87v-3.45c0-0.55,0.45-1,1-1
				s1,0.45,1,1v3.45c0.67,0.36,1.13,1.06,1.13,1.87C56.63,388.76,55.68,389.71,54.5,389.71z"/>
			<path class="st0" d="M68.06,381.19h-1.12c0.03,0.26,0.06,0.53,0.06,0.81v8.9c0,2.48-2.02,4.5-4.5,4.5h-16
				c-2.48,0-4.5-2.02-4.5-4.5V382c0-0.27,0.02-0.54,0.06-0.81h-1.12c-2.21,0-4,1.79-4,4V407c0,2.21,1.79,4,4,4h27.13
				c2.21,0,4-1.79,4-4v-21.81C72.06,382.98,70.27,381.19,68.06,381.19z M56.53,405.5c0,0.83-0.67,1.5-1.5,1.5
				c-0.83,0-1.5-0.67-1.5-1.5v-5c0-0.83,0.67-1.5,1.5-1.5c0.83,0,1.5,0.67,1.5,1.5V405.5z"/>
		</g>
	</g>
	<g>
		<g>
			<path class="st0" d="M410.39,310.59c-3.56-3.56-8.89-4.46-13.78-2.82l1.81,3.62c0.98-0.28,1.97-0.43,2.95-0.43
				c2.33,0,4.54,0.81,6.19,2.45c1.75,1.75,2.61,4.19,2.43,6.88c-0.19,2.79-1.46,5.5-3.59,7.63c-4.32,4.32-10.83,4.84-14.51,1.16
				c-1.75-1.75-2.61-4.19-2.43-6.88c0.1-1.43,0.48-2.83,1.12-4.15l-3.12-1.56l-0.45-0.23c-0.87,1.79-1.4,3.71-1.53,5.67
				c-0.21,3.12,0.6,6.03,2.28,8.39l-3.67,3.67c-0.79-0.02-1.58,0.27-2.18,0.87l-6.03,6.03c-1.17,1.17-1.17,3.07,0,4.24
				c0.59,0.59,1.35,0.88,2.12,0.88c0.77,0,1.54-0.29,2.12-0.88l6.03-6.03c0.65-0.65,0.93-1.52,0.85-2.37l3.57-3.57
				c2.19,1.57,4.81,2.36,7.51,2.36c3.91,0,7.99-1.61,11.15-4.78c2.81-2.81,4.5-6.43,4.75-10.19
				C414.24,316.71,412.96,313.16,410.39,310.59z"/>
			<path class="st0" d="M394.23,308.6l-5.66,5.66l5.66,2.83l2.83-2.83L394.23,308.6z M399.51,316.09c-0.15-0.15-0.3-0.28-0.47-0.4
				l-3.38,3.38c0.12,0.16,0.25,0.32,0.4,0.47c1.19,1.19,2.93,1.38,3.88,0.43C400.89,319.01,400.7,317.28,399.51,316.09z"/>
		</g>
	</g>
	<g>
		<g>
			<path class="st0" d="M346,334.21c-0.83,0-1.5,0.67-1.5,1.5c0,1.93-1.57,3.5-3.5,3.5h-34c-0.83,0-1.5,0.67-1.5,1.5
				c0,0.83,0.67,1.5,1.5,1.5h34c3.58,0,6.5-2.92,6.5-6.5C347.5,334.88,346.83,334.21,346,334.21z"/>
			<path class="st0" d="M329.5,323.79H321c-0.83,0-1.5-0.67-1.5-1.5c0-0.83,0.67-1.5,1.5-1.5h5c0.83,0,1.5-0.67,1.5-1.5
				c0-0.83-0.67-1.5-1.5-1.5h-4c-0.83,0-1.5-0.67-1.5-1.5c0-0.83,0.67-1.5,1.5-1.5h2.5v-2c0-1.1-0.9-2-2-2h-13c-1.1,0-2,0.9-2,2v22
				c0,1.1,0.9,2,2,2h29c1.1,0,2-0.9,2-2C340.5,328.71,335.58,323.79,329.5,323.79z"/>
		</g>
	</g>
	<g>
		<g>
			<path class="st0" d="M265.29,329.54h-8.94l3.99,12h2.19c-0.11-0.31-0.18-0.65-0.18-1v-3c0-1.65,1.35-3,3-3h1.61L265.29,329.54z"
				/>
			<path class="st0" d="M276.34,336.54h-11c-0.55,0-1,0.45-1,1v3c0,0.55,0.45,1,1,1h11c0.55,0,1-0.45,1-1v-3
				C277.34,336.99,276.89,336.54,276.34,336.54z M274.01,334.54l-0.76-2.26c-0.54-1.63-2.07-2.74-3.79-2.74h-2.07l1.66,5H274.01z
				 M254.19,329.4c-1.28-0.34-2.34-1.29-2.78-2.59l-4.91-14.67c-0.14-0.41-0.52-0.68-0.95-0.68h-4.89c-0.68,0-1.17,0.67-0.95,1.32
				l8.26,24.67c0.82,2.45,3.11,4.09,5.69,4.09h4.57l-3.78-11.37L254.19,329.4z"/>
		</g>
	</g>
	<g>
		<g>
			<path class="st0" d="M194.21,321.12c-0.41-0.68-0.81-2.22-0.97-2.95c-0.05-0.23-0.25-0.38-0.49-0.38h-4.51
				c-0.23,0-0.43,0.16-0.49,0.38c-0.16,0.72-0.57,2.26-0.98,2.95c-0.2,0.34,0.04,0.77,0.44,0.77h6.55
				C194.17,321.89,194.42,321.46,194.21,321.12z"/>
			<path class="st0" d="M195.79,324.6c-0.1-0.13-0.25-0.21-0.41-0.21h-9.76c-0.16,0-0.32,0.07-0.41,0.21
				c-1.95,2.72-3.21,6.88-3.21,11.57c0,4.68,1.25,8.85,3.19,11.57c0.1,0.13,0.25,0.21,0.41,0.21h9.8c0.16,0,0.32-0.08,0.41-0.21
				c1.94-2.72,3.19-6.89,3.19-11.57C199,331.47,197.74,327.32,195.79,324.6z M186.56,312.05c0.54,0.9,0.91,1.85,1.11,2.83
				c0.05,0.24,0.25,0.41,0.5,0.41h4.67c0.24,0,0.45-0.17,0.5-0.41c0.2-0.97,0.57-1.93,1.11-2.83h-0.02c0.64-1.05,0.9-2.35,0.48-3.75
				c-0.47-1.58-1.81-2.82-3.42-3.15c-2.98-0.61-5.59,1.64-5.59,4.51c0,0.88,0.26,1.69,0.69,2.39H186.56z"/>
		</g>
	</g>
	<g>
		<g>
			<path class="st0" d="M130.99,316.76l-8.02-3.65c-0.27-0.12-0.55-0.18-0.83-0.18c-0.74,0-1.46,0.42-1.8,1.13l-1.42,2.93
				c-0.49,1.01-0.05,2.23,0.97,2.69l8.02,3.65c0.27,0.12,0.55,0.18,0.83,0.18c0.74,0,1.46-0.42,1.8-1.13l1.42-2.93
				C132.45,318.44,132.01,317.23,130.99,316.76z"/>
			<path class="st0" d="M140.53,326.49c-0.54-3.02-2.54-5.59-5.33-6.87l-0.62-0.29c-0.07,0.42-0.18,0.83-0.37,1.22l-1.42,2.93
				c-0.07,0.15-0.16,0.28-0.24,0.42l0.57,0.26c1.32,0.61,2.23,1.78,2.49,3.21c0.26,1.43-0.19,2.85-1.22,3.88l-4.76,4.76
				c-1.71,1.71-4.49,1.71-6.2,0l-12.82-12.82c-0.83-0.83-1.28-1.93-1.28-3.1c0-1.17,0.46-2.27,1.28-3.1
				c0.84-0.84,1.97-1.28,3.11-1.28c0.62,0,1.24,0.13,1.82,0.4l0.91,0.42c0.07-0.21,0.13-0.41,0.22-0.61l1.42-2.93
				c0.16-0.34,0.37-0.64,0.61-0.93l-1.08-0.5c-3.55-1.63-7.79-0.86-10.55,1.9c-3.66,3.66-3.66,9.61,0,13.27l12.82,12.82
				c1.83,1.83,4.23,2.75,6.64,2.75c2.4,0,4.81-0.92,6.64-2.75l4.76-4.76C140.1,332.61,141.07,329.51,140.53,326.49z"/>
		</g>
	</g>
	<g>
		<g>
			<path class="st0" d="M45.56,311.3c-0.1-0.46-0.51-0.8-0.98-0.8h-3.97c-0.63,0-1.1,0.58-0.98,1.2l0.9,4.49l0.94,0.29l5.52,1.73
				L45.56,311.3z M65.33,323.81c-1.35-0.74-2.93-0.97-4.44-0.63L42.7,327.2l1.58,7.12c0.47,2.12,2.24,3.7,4.4,3.93l10.27,1.07
				c-0.03-0.27-0.06-0.54-0.06-0.82c0-3.58,2.92-6.5,6.5-6.5c0.87,0,1.69,0.17,2.45,0.48C69.54,329.4,68.43,325.51,65.33,323.81z"/>
			<path class="st0" d="M65.39,334.5c-2.21,0-4,1.79-4,4c0,2.21,1.79,4,4,4c2.21,0,4-1.79,4-4C69.39,336.29,67.6,334.5,65.39,334.5z
				 M40.87,318.39l1.57,6.82l5.86-1.3l-0.68-3.41L40.87,318.39z"/>
		</g>
	</g>
	<g>
		<g>
			<path class="st0" d="M410.98,242.01c-2.44-2.45-5.81-3.65-9.47-3.41c-1.3,0.09-2.59,0.36-3.82,0.8c1.07,0.89,1.84,2.12,2.17,3.52
				c0.85-0.23,1.72-0.35,2.56-0.35c2.16,0,4.21,0.75,5.73,2.27c3.41,3.41,2.92,9.45-1.09,13.47c-4.01,4.01-10.06,4.5-13.47,1.09
				c-2.23-2.23-2.78-5.58-1.79-8.75c-1.37-0.38-2.56-1.19-3.41-2.29c-0.03,0.08-0.08,0.16-0.11,0.25l-0.01,0
				c-1.08,2.19-1.66,5.12-2.28,8.21c-0.67,3.35-1.41,7.04-2.83,9.63c-0.61,0.09-1.21,0.36-1.68,0.84l-6.03,6.03
				c-1.17,1.17-1.17,3.07,0,4.24c0.59,0.59,1.35,0.88,2.12,0.88c0.77,0,1.54-0.29,2.12-0.88l6.03-6.03
				c0.47-0.47,0.74-1.06,0.84-1.67c2.53-1.29,6.27-2.11,9.67-2.85c3.37-0.74,6.56-1.43,8.81-2.57l0,0c1.77-0.77,3.42-1.88,4.84-3.31
				C415.46,255.55,415.95,246.98,410.98,242.01z M388.14,264.93c0.48-1.45,0.86-2.97,1.19-4.48c0.42,0.63,0.89,1.23,1.44,1.77
				c0.57,0.57,1.18,1.07,1.84,1.5C391.07,264.08,389.56,264.46,388.14,264.93z"/>
			<circle class="st0" cx="393.53" cy="244.38" r="4"/>
		</g>
	</g>
	<g>
		<g>
			<g>
				<path class="st0" d="M342.68,257.28c-2.75-1.77-5.54-4.05-8.02-6.53c-2.6-2.59-4.97-5.52-6.78-8.4
					c-0.12-0.19-0.34-0.28-0.55-0.22c-3.43,0.97-7.13,2.92-10.7,6.49c-3.71,3.71-5.66,7.55-6.6,11.1c-0.05,0.21,0.03,0.42,0.21,0.54
					c2.68,1.75,5.39,3.98,7.8,6.39c2.53,2.53,4.85,5.37,6.63,8.18c0.12,0.18,0.33,0.27,0.54,0.22c3.57-0.92,7.46-2.88,11.21-6.63
					c3.54-3.54,5.48-7.19,6.46-10.59C342.95,257.62,342.86,257.4,342.68,257.28z M325.09,264.2c-0.29,0.29-0.68,0.44-1.06,0.44
					c-0.38,0-0.77-0.15-1.06-0.44l-2.12-2.12c-0.59-0.59-0.59-1.54,0-2.12c0.59-0.59,1.54-0.59,2.12,0l2.12,2.12
					C325.68,262.67,325.68,263.62,325.09,264.2z M328.63,260.67c-0.29,0.29-0.68,0.44-1.06,0.44c-0.38,0-0.77-0.15-1.06-0.44
					l-2.12-2.12c-0.59-0.59-0.59-1.54,0-2.12c0.59-0.59,1.54-0.59,2.12,0l2.12,2.12C329.21,259.13,329.21,260.08,328.63,260.67z
					 M332.16,257.13c-0.29,0.29-0.68,0.44-1.06,0.44c-0.38,0-0.77-0.15-1.06-0.44l-2.12-2.12c-0.59-0.59-0.59-1.54,0-2.12
					c0.59-0.59,1.54-0.59,2.12,0l2.12,2.12C332.75,255.59,332.75,256.54,332.16,257.13z"/>
				<path class="st0" d="M316.25,268.4c-2.05-2.05-4.14-3.79-6.12-5.2c-0.31-0.22-0.75-0.01-0.79,0.37
					c-0.41,5.01,0.96,8.91,1.44,10.1c0.1,0.25,0.29,0.44,0.54,0.54c1.19,0.48,5.04,1.83,10,1.45c0.38-0.03,0.59-0.47,0.37-0.78
					C320.25,272.79,318.43,270.58,316.25,268.4z M342.22,243.32c-0.1-0.25-0.29-0.44-0.54-0.54c-1.23-0.5-5.34-1.93-10.57-1.4
					c-0.37,0.04-0.58,0.47-0.37,0.78c1.48,2.19,3.37,4.51,5.66,6.8c2.16,2.16,4.35,3.97,6.42,5.41c0.31,0.21,0.74,0.01,0.78-0.36
					C344.17,248.72,342.72,244.56,342.22,243.32z"/>
			</g>
		</g>
	</g>
	<g>
		<g>
			<g>
				<path class="st0" d="M257.1,259.75c-2.99-0.14-5.93-0.95-8.58-2.34c-1.33-0.7-2.63-1.55-3.76-2.55
					c-0.27-0.24-1.63-1.44-2.38-2.28c-0.25-0.28-0.72-0.21-0.84,0.15c-0.54,1.58-0.86,3.27-0.94,5.01c0,0.09,0.02,0.19,0.06,0.27
					c3.06,5.94,9.18,9.72,15.93,9.72c0.82,0,1.64-0.07,2.44-0.19c0.26-0.04,0.45-0.28,0.44-0.54c-0.17-2.42-0.82-4.8-1.95-6.99
					C257.44,259.86,257.28,259.76,257.1,259.75z M258.06,258.75l0.18-0.11l-0.18-0.11L258.06,258.75z M266.5,252.65
					c-0.15-0.19-0.43-0.24-0.64-0.12c-2.45,1.39-4.56,3.34-6.13,5.73c-0.1,0.15-0.11,0.35-0.02,0.51
					c2.58,4.94,3.05,10.72,1.26,16.02c-0.18,0.53-0.38,1.05-0.6,1.56c2.56-0.27,4.95-1.09,7.08-2.33c0.07-0.04,0.14-0.1,0.18-0.17
					c3.71-5.64,3.96-12.91,0.56-18.8C267.69,254.2,267.12,253.4,266.5,252.65z M272.22,247.09c-1.46-1.76-3.25-3.23-5.27-4.32
					c-0.07-0.04-0.15-0.06-0.23-0.07c-6.73-0.39-13.15,3.03-16.55,8.92c-0.49,0.85-0.9,1.75-1.24,2.67
					c-0.09,0.23,0.01,0.49,0.22,0.62c2.41,1.38,5.12,2.18,7.94,2.33c0.18,0.01,0.35-0.08,0.44-0.23c2.99-4.6,7.71-7.83,13.12-8.91
					c0.41-0.08,0.82-0.15,1.23-0.2C272.28,247.84,272.47,247.39,272.22,247.09z"/>
				<path class="st0" d="M258.8,270.11c-0.73,0.08-1.47,0.13-2.21,0.13c-5.65,0-10.92-2.33-14.69-6.25
					c-0.17-0.17-0.46-0.01-0.39,0.22c2.25,6.71,8.37,11.65,15.7,12.17c0.2,0.01,0.4-0.1,0.49-0.28c0.34-0.68,0.64-1.38,0.89-2.11
					c0.37-1.09,0.62-2.19,0.77-3.31C259.41,270.35,259.13,270.08,258.8,270.11z M274.48,250.5c-0.09-0.18-0.28-0.29-0.48-0.28
					c-0.95,0.03-1.9,0.14-2.85,0.32c-0.65,0.13-1.28,0.31-1.9,0.51c-0.32,0.11-0.44,0.5-0.23,0.78c0.48,0.63,0.92,1.28,1.32,1.96
					c2.71,4.7,3.38,10.16,2.1,15.21c-0.06,0.25,0.25,0.4,0.41,0.19c2.22-2.98,3.55-6.67,3.55-10.67
					C276.4,255.65,275.7,252.92,274.48,250.5z M243.34,249c-0.11,0.17-0.1,0.39,0.01,0.56c0.38,0.56,0.79,1.1,1.25,1.62
					c0.48,0.55,1,1.05,1.55,1.53c0.26,0.22,0.65,0.12,0.78-0.19c0.32-0.74,0.67-1.46,1.08-2.16c2.81-4.88,7.44-8.27,12.7-9.59
					c-0.73-0.09-1.47-0.15-2.23-0.15C252.11,240.62,246.52,243.98,243.34,249z"/>
			</g>
		</g>
	</g>
	<g>
		<g>
			<path class="st0" d="M205.25,250.34c0.12,0.13,0.31,0.19,0.49,0.14l1.38-0.35c0.31-0.08,0.48-0.44,0.33-0.72
				c-1.69-3.15-4.23-5.78-7.32-7.58c-0.28-0.16-0.64-0.01-0.73,0.3c-0.13,0.45-0.26,0.93-0.41,1.45c-0.05,0.17,0,0.37,0.13,0.5
				C201.54,246.5,202.87,247.86,205.25,250.34z M184.13,242.2c0.89,0.9,1.81,1.83,3.06,3.12c0.13,0.13,0.32,0.18,0.5,0.14
				c3.33-0.88,5.16-1.35,8.46-2.16c0.17-0.04,0.32-0.18,0.37-0.35c0.22-0.75,0.41-1.4,0.59-2c0.07-0.26-0.06-0.53-0.31-0.61
				c-1.98-0.69-4.09-1.08-6.3-1.08c-2.47,0-4.83,0.47-7,1.33c-0.33,0.13-0.41,0.57-0.16,0.82
				C183.61,241.67,183.87,241.94,184.13,242.2z M175.55,258.24l7.21-1.84c0.17-0.04,0.31-0.19,0.36-0.36
				c0.91-3.34,1.43-5.17,2.4-8.44c0.05-0.17,0-0.37-0.12-0.5c-1.26-1.32-2.17-2.25-3.06-3.15c-0.5-0.51-1-1.01-1.54-1.57
				c-0.17-0.17-0.44-0.21-0.64-0.08c-4.08,2.62-7.11,6.72-8.31,11.55c-0.04,0.15,0,0.32,0.1,0.45c0.93,1.16,1.8,2.23,3.1,3.77
				C175.16,258.22,175.36,258.29,175.55,258.24z M205.01,267.12c-0.94-0.95-1.9-1.92-3.26-3.31l0-0.01c-0.01,0-0.03,0.01-0.04,0.02
				c-2.7,0.72-4.42,1.17-6.6,1.71c-0.65,0.16-1.34,0.33-2.11,0.52c-0.17,0.04-0.32,0.18-0.37,0.35c-0.52,1.76-0.88,3.01-1.23,4.23
				c-0.26,0.89-0.51,1.77-0.8,2.82c-0.05,0.19,0.02,0.41,0.17,0.54c1.66,1.34,2.76,2.16,4.1,3.07c0.12,0.08,0.28,0.11,0.42,0.07
				c4.64-1.19,8.6-4.07,11.2-7.94c0.13-0.2,0.1-0.47-0.07-0.64C205.92,268.04,205.47,267.58,205.01,267.12z M208.87,252.79
				c-0.08-0.25-0.35-0.4-0.61-0.33l-1.86,0.47c-0.17,0.04-0.31,0.19-0.36,0.36c-0.92,3.36-1.44,5.19-2.4,8.44
				c-0.05,0.17,0,0.37,0.12,0.5c1.24,1.31,2.15,2.23,3.03,3.12c0.39,0.39,0.77,0.78,1.17,1.19c1.13-2.45,1.78-5.17,1.78-8.04
				C209.75,256.51,209.43,254.6,208.87,252.79z M183.7,258.78l-0.01-0.03c0,0,0-0.01-0.01-0.01c-0.01,0-0.02,0.01-0.03,0.01l0,0
				l-4.27,1.09l-3.22,0.82c-0.19,0.05-0.33,0.21-0.37,0.4c-0.6,3.05-0.88,4.61-1.37,7.44c0,0.02,0.02,0.08,0.06,0.14
				c2.09,2.51,3.39,3.65,5.76,5.73c0.06,0.06,0.14,0.08,0.16,0.08c2.81-0.36,4.35-0.56,7.36-1.22c0.18-0.04,0.33-0.18,0.38-0.36
				c0.3-1.08,0.56-1.98,0.82-2.9c0.35-1.23,0.71-2.48,1.19-4.22c0.05-0.17,0-0.37-0.13-0.5C187.54,262.76,186.21,261.4,183.7,258.78
				z"/>
			<path class="st0" d="M171.3,257.5c-0.02,0.33-0.05,0.66-0.05,1c0,2.35,0.44,4.59,1.22,6.67c0.26-1.46,0.52-2.84,0.92-4.86
				c-0.03-0.13-0.08-0.3-0.11-0.43C172.5,258.96,171.87,258.2,171.3,257.5z M188.76,275.55c-0.04,0.01-0.07,0.03-0.11,0.04
				c-1.09,0.24-2,0.43-2.82,0.58c-0.52,0.1-0.56,0.84-0.04,0.98c1.51,0.39,3.09,0.6,4.72,0.6c0.33,0,0.65-0.03,0.97-0.05
				c-0.78-0.58-1.6-1.23-2.65-2.08C188.8,275.6,188.78,275.57,188.76,275.55z M203.48,252.13c-2.46-2.58-3.8-3.93-6.33-6.44
				c-0.02-0.02-0.06-0.04-0.09-0.04c-0.01,0-0.02,0-0.03,0l0,0c-3.11,0.76-4.91,1.21-7.68,1.95c-0.33,0.09-0.68,0.18-1.05,0.28
				c-0.12,0.12-0.23,0.23-0.36,0.35c-0.98,3.3-1.5,5.12-2.4,8.48c0.04,0.17,0.08,0.32,0.13,0.49c2.4,2.51,3.73,3.86,6.17,6.29
				c0.17,0.05,0.32,0.09,0.48,0.13c3.39-0.83,5.22-1.3,8.73-2.24l0,0h0c0.04-0.01,0.08-0.05,0.09-0.08
				c1.02-3.44,1.54-5.26,2.46-8.69C203.57,252.45,203.53,252.3,203.48,252.13z"/>
		</g>
	</g>
	<g>
		<g>
			<path class="st0" d="M107.92,259.05c0.29,0.29,0.68,0.44,1.06,0.44c0.38,0,0.77-0.15,1.06-0.44l2.12-2.12l2.12,2.12
				c0.29,0.29,0.68,0.44,1.06,0.44c0.38,0,0.77-0.15,1.06-0.44c0.59-0.59,0.59-1.54,0-2.12l-2.12-2.12l2.12-2.12
				c0.59-0.59,0.59-1.54,0-2.12c-0.59-0.59-1.54-0.59-2.12,0l-2.12,2.12l-2.12-2.12c-0.59-0.59-1.54-0.59-2.12,0
				c-0.59,0.59-0.59,1.54,0,2.12l2.12,2.12l-2.12,2.12C107.33,257.52,107.33,258.47,107.92,259.05z M124.55,259.79
				c1.04-1.04,1.61-2.42,1.61-3.89v-6.77h-3v6.77c0,0.66-0.27,1.3-0.73,1.77l-8.25,8.25c-0.75-0.39-1.61-0.61-2.51-0.61
				c-3.03,0-5.5,2.47-5.5,5.5s2.47,5.5,5.5,5.5s5.5-2.47,5.5-5.5c0-1.04-0.29-2.01-0.8-2.83L124.55,259.79z M111.66,273.31
				c-1.38,0-2.5-1.12-2.5-2.5s1.12-2.5,2.5-2.5c1.38,0,2.5,1.12,2.5,2.5S113.04,273.31,111.66,273.31z M129.28,271.81l2.12-2.12
				c0.59-0.59,0.59-1.54,0-2.12c-0.59-0.59-1.54-0.59-2.12,0l-2.12,2.12l-2.12-2.12c-0.59-0.59-1.54-0.59-2.12,0
				c-0.59,0.59-0.59,1.54,0,2.12l2.12,2.12l-2.12,2.12c-0.59,0.59-0.59,1.54,0,2.12c0.29,0.29,0.68,0.44,1.06,0.44
				c0.38,0,0.77-0.15,1.06-0.44l2.12-2.12l2.12,2.12c0.29,0.29,0.68,0.44,1.06,0.44c0.38,0,0.77-0.15,1.06-0.44
				c0.59-0.59,0.59-1.54,0-2.12L129.28,271.81z"/>
			<path class="st0" d="M125.52,240.89c-0.45-0.51-1.24-0.51-1.68,0l-3.4,3.89c-0.63,0.72-0.12,1.85,0.84,1.85h6.81
				c0.96,0,1.47-1.13,0.84-1.85L125.52,240.89z M136.28,256.81l2.12-2.12c0.59-0.59,0.59-1.54,0-2.12c-0.59-0.59-1.54-0.59-2.12,0
				l-2.12,2.12l-2.12-2.12c-0.59-0.59-1.54-0.59-2.12,0c-0.59,0.59-0.59,1.54,0,2.12l2.12,2.12l-2.12,2.12
				c-0.59,0.59-0.59,1.54,0,2.12c0.29,0.29,0.68,0.44,1.06,0.44c0.38,0,0.77-0.15,1.06-0.44l2.12-2.12l2.12,2.12
				c0.29,0.29,0.68,0.44,1.06,0.44c0.38,0,0.77-0.15,1.06-0.44c0.59-0.59,0.59-1.54,0-2.12L136.28,256.81z"/>
		</g>
	</g>
	<g>
		<g>
			<path class="st0" d="M67.94,254.26l-9.19-9.19c-0.78-0.78-2.05-0.78-2.83,0l-2.12,2.12c-0.78,0.78-0.78,2.05,0,2.83l2.83,2.83
				l-7.78,7.78l-2.83-2.83c-0.78-0.78-2.05-0.78-2.83,0l-2.12,2.12c-0.78,0.78-0.78,2.05,0,2.83l9.19,9.19
				c0.78,0.78,2.05,0.78,2.83,0l2.12-2.12c0.78-0.78,0.78-2.05,0-2.83l-2.83-2.83l7.78-7.78l2.83,2.83c0.78,0.78,2.05,0.78,2.83,0
				l2.12-2.12C68.72,256.3,68.72,255.04,67.94,254.26z"/>
			<path class="st0" d="M38.59,268.05c-0.39,0.39-0.39,1.02,0,1.41l4.95,4.95c0.39,0.39,1.02,0.39,1.41,0l2.12-2.12l-6.36-6.36
				L38.59,268.05z M70.41,247.54l-4.95-4.95c-0.39-0.39-1.02-0.39-1.41,0l-2.12,2.12l6.36,6.36l2.12-2.12
				C70.8,248.56,70.8,247.93,70.41,247.54z"/>
		</g>
	</g>
	<g>
		<g>
			<path class="st0" d="M398,170.25h-7c-0.55,0-1,0.45-1,1v2h9v-2C399,170.7,398.55,170.25,398,170.25z"/>
			<path class="st0" d="M402.99,185.75c0.56,0.01,1.01-0.44,1.01-1V183c0-2.52-1.02-4.96-2.91-6.62c-0.43-0.38-0.82-0.63-1.09-0.63
				h-11c-0.28,0-0.66,0.25-1.09,0.63c-1.89,1.66-2.91,4.11-2.91,6.62v1.75c0,0.55,0.44,1.01,0.99,1c0.56-0.01,1.01,0.44,1.01,1v1
				c0,0.56-0.45,1.01-1.01,1c-0.55-0.01-0.99,0.45-0.99,1v4h2.5c0.83,0,1.5,0.67,1.5,1.5c0,0.83-0.67,1.5-1.5,1.5H385v4h2.5
				c0.83,0,1.5,0.67,1.5,1.5c0,0.83-0.67,1.5-1.5,1.5H385v3c0,2.21,1.79,4,4,4h11c2.21,0,4-1.79,4-4v-3h-2.5
				c-0.83,0-1.5-0.67-1.5-1.5c0-0.83,0.67-1.5,1.5-1.5h2.5v-4h-2.5c-0.83,0-1.5-0.67-1.5-1.5c0-0.83,0.67-1.5,1.5-1.5h2.5v-4
				c0-0.55-0.44-1.01-0.99-1c-0.56,0.01-1.01-0.44-1.01-1v-1C402,186.2,402.44,185.74,402.99,185.75z"/>
		</g>
	</g>
	<g>
		<g>
			<path class="st0" d="M334,171.25h-12.89c-3.31,0-6,2.69-6,6v2.25c0.26-0.04,0.52-0.08,0.79-0.08h6.28c2.68,0,4.86,2.24,4.86,5
				h3.39c1.74,0,3.15-1.41,3.15-3.15v-1.85c0-0.55,0.45-1,1-1c0.55,0,1,0.45,1,1v1.85c0,2.84-2.31,5.15-5.15,5.15h-3.8
				c-0.45,1.04-1.23,1.9-2.2,2.43c1.86,1.36,3.07,3.56,3.07,6.03c0,0.55-0.45,1-1,1c-0.55,0-1-0.45-1-1c0-3.01-2.45-5.46-5.46-5.46
				h-1.25c-0.55,0-1-0.45-1-1c0-0.55,0.45-1,1-1h3.39c1.58,0,2.86-1.35,2.86-3c0-1.65-1.28-3-2.86-3h-6.28c-1.58,0-2.86,1.35-2.86,3
				v8.02c0,0.06-0.02,0.11-0.03,0.16l0.01,0c0.11,3.65,2.48,5.53,3.27,6.12c0.17,0.13,0.38,0.2,0.59,0.2h20.87
				c0.33,0,0.64-0.16,0.83-0.44c0.52-0.75,1.43-2.54,1.43-5.98v-15.24C340,173.94,337.31,171.25,334,171.25z"/>
			<path class="st0" d="M336.92,201.42h-18.74c-0.55,0-1,0.45-1,1v5.26c0,1.15,0.93,2.07,2.07,2.07h16.59
				c1.15,0,2.07-0.93,2.07-2.07v-5.26C337.92,201.86,337.48,201.42,336.92,201.42z M330.95,206.43c0,0.55-0.45,1-1,1h-4.79
				c-0.55,0-1-0.45-1-1v-1.68c0-0.55,0.45-1,1-1h4.79c0.55,0,1,0.45,1,1V206.43z"/>
		</g>
	</g>
	<g>
		<g>
			<g>
				<path class="st0" d="M270.33,178.67c-2.47-2.47-5.53-3.99-8.73-4.59c-0.25-0.05-0.5,0.11-0.57,0.36
					c-1.21,4.11-3.56,8.16-6.99,11.6c-3.44,3.44-7.49,5.79-11.6,6.99c-0.25,0.07-0.4,0.32-0.36,0.57c0.6,3.2,2.12,6.26,4.59,8.73
					c2.47,2.47,5.53,3.99,8.73,4.59c0.25,0.05,0.5-0.11,0.57-0.36c1.21-4.11,3.56-8.16,6.99-11.6c3.44-3.44,7.49-5.79,11.6-6.99
					c0.25-0.07,0.4-0.32,0.36-0.57C274.32,184.2,272.8,181.14,270.33,178.67z"/>
				<path class="st0" d="M274.55,190.58c-3.47,1.15-6.88,3.22-9.82,6.15c-2.93,2.93-5,6.35-6.15,9.82
					c-0.11,0.33,0.15,0.67,0.49,0.66c4.09-0.14,8.14-1.76,11.26-4.88s4.74-7.17,4.88-11.26
					C275.22,190.73,274.87,190.47,274.55,190.58z M257.93,173.79c-4.09,0.14-8.14,1.76-11.26,4.88c-3.12,3.12-4.74,7.17-4.88,11.26
					c-0.01,0.34,0.33,0.6,0.66,0.49c3.47-1.15,6.88-3.22,9.82-6.15c2.93-2.93,5-6.35,6.15-9.82
					C258.53,174.13,258.27,173.78,257.93,173.79z"/>
			</g>
		</g>
	</g>
	<g>
		<g>
			<g>
				<path class="st0" d="M201.3,181.72l0.94-1.42c0.96-1.46,1.23-3.25,0.76-4.93c-0.48-1.7-1.69-3.1-3.3-3.84
					c-5.84-2.7-12.55-2.69-18.39,0c-1.61,0.74-2.82,2.15-3.3,3.84c-0.48,1.68-0.2,3.47,0.76,4.93l0.94,1.42
					c-4.46,3.02-7.36,7.96-7.36,13.94c0,10.03,8.13,15.84,18.16,15.84c10.03,0,18.16-5.8,18.16-15.84
					C208.66,189.68,205.76,184.75,201.3,181.72z M190.5,203.23c-4.74,0-8.58-3.69-8.58-8.24c0-4.55,3.84-8.24,8.57-8.24
					c4.74,0,8.58,3.69,8.58,8.24C199.08,199.54,195.24,203.23,190.5,203.23z M198.9,178.1l-1.15,1.74
					c-2.22-0.87-4.67-1.35-7.25-1.35c-2.58,0-5.03,0.48-7.25,1.35l-1.15-1.75c-0.32-0.49-0.41-1.07-0.25-1.63
					c0.17-0.58,0.58-1.06,1.13-1.31c2.39-1.1,4.91-1.66,7.52-1.66c2.6,0,5.13,0.56,7.52,1.66c0.55,0.26,0.97,0.73,1.13,1.31
					C199.31,177.03,199.22,177.61,198.9,178.1z"/>
				<polygon class="st0" points="187.56,190.25 187.56,192.8 189.43,192.8 189.43,199.85 192.15,199.85 192.15,190.25 				"/>
			</g>
		</g>
	</g>
	<g>
		<g>
			<path class="st0" d="M116.02,194.56c-1.54-1.75-2.83-3.64-3.86-5.64c-0.13-0.25-0.42-0.34-0.67-0.21
				c-2.24,1.19-4.47,2.06-6.6,2.61c-0.23,0.06-0.39,0.28-0.38,0.52c0.26,3.61,1.6,7.14,4.01,10.09c0.19,0.23,0.54,0.24,0.75,0.03
				l6.73-6.73C116.19,195.05,116.2,194.75,116.02,194.56z M117.75,192.73c0.19,0.22,0.53,0.23,0.74,0.02l15.42-15.42
				c0.21-0.21,0.2-0.56-0.03-0.75c-2.08-1.71-4.49-2.91-7.07-3.55c-0.25-0.06-0.51,0.08-0.59,0.33c-0.25,0.72-0.56,1.46-0.94,2.21
				c-1.96,3.85-5.46,7.67-9.84,10.73v0c-0.32,0.22-0.64,0.43-0.95,0.63c-0.22,0.14-0.3,0.42-0.18,0.65
				C115.21,189.41,116.36,191.14,117.75,192.73z M124.08,200.84c-1.99-1.03-3.88-2.31-5.63-3.85c-0.2-0.17-0.49-0.17-0.68,0.02
				l-6.73,6.73c-0.21,0.21-0.2,0.56,0.03,0.75c2.87,2.36,6.36,3.75,10.08,4.02c0.24,0.02,0.46-0.14,0.52-0.37
				c0.55-2.13,1.42-4.37,2.61-6.62C124.41,201.26,124.32,200.96,124.08,200.84z M139.96,186.21c-0.62-2.53-1.8-4.95-3.54-7.07
				c-0.19-0.23-0.54-0.24-0.75-0.03l-15.42,15.42c-0.21,0.21-0.2,0.55,0.02,0.74c1.59,1.38,3.32,2.53,5.13,3.45
				c0.23,0.12,0.51,0.04,0.65-0.18c0.21-0.32,0.42-0.64,0.64-0.95c3.84-5.49,8.59-9.28,12.94-10.78
				C139.88,186.71,140.02,186.46,139.96,186.21z"/>
			<path class="st0" d="M111.77,176.04c-0.13,0.1-0.21,0.26-0.21,0.42c0.04,2.85,0.55,5.69,1.54,8.39c0.3-0.2,0.6-0.38,0.89-0.59v0
				c4.05-2.84,7.27-6.33,9.05-9.82c0.33-0.65,0.58-1.27,0.8-1.88c-0.46-0.03-0.91-0.07-1.37-0.07
				C118.56,172.5,114.86,173.75,111.77,176.04z M109.28,179.57c-0.06-0.45-0.61-0.61-0.89-0.26c-2.07,2.59-3.33,5.62-3.76,8.75
				c-0.05,0.36,0.3,0.65,0.64,0.55c1.71-0.52,3.5-1.26,5.29-2.22c0.22-0.12,0.32-0.38,0.23-0.61
				C110.04,183.76,109.54,181.68,109.28,179.57z M139.78,189.4c-3.66,1.5-7.77,4.94-11.04,9.6c-0.21,0.3-0.4,0.59-0.59,0.89
				c2.7,0.99,5.54,1.5,8.39,1.54c0.17,0,0.33-0.08,0.43-0.21c2.48-3.36,3.65-7.39,3.51-11.38
				C140.46,189.51,140.1,189.27,139.78,189.4z M133.44,203.73c-2.11-0.26-4.19-0.76-6.21-1.5c-0.23-0.09-0.5,0.01-0.61,0.23
				c-0.96,1.79-1.7,3.58-2.22,5.3c-0.1,0.34,0.19,0.69,0.55,0.64c3.21-0.44,6.22-1.74,8.76-3.77
				C134.05,204.34,133.89,203.78,133.44,203.73z"/>
		</g>
	</g>
	<g>
		<g>
			<path class="st0" d="M54.5,172c-10.22,0-18.5,8.28-18.5,18.5c0,10.22,8.28,18.5,18.5,18.5c10.22,0,18.5-8.28,18.5-18.5
				C73,180.28,64.72,172,54.5,172z M54.5,195.4c-4.74,0-8.58-3.69-8.58-8.24c0-4.55,3.84-8.24,8.57-8.24c4.74,0,8.58,3.69,8.58,8.24
				C63.08,191.71,59.24,195.4,54.5,195.4z"/>
			<polygon class="st0" points="51.56,182.42 51.56,184.97 53.43,184.97 53.43,192.02 56.15,192.02 56.15,182.42 			"/>
		</g>
	</g>
	<g>
		<g>
			<path class="st0" d="M379.75,106.54c-0.83,0-1.5,0.67-1.5,1.5v29.91c0,0.83,0.67,1.5,1.5,1.5s1.5-0.67,1.5-1.5v-29.91
				C381.25,107.21,380.58,106.54,379.75,106.54z"/>
			<path class="st0" d="M406.75,103.54h-19c-2.21,0-4,1.79-4,4v29.91c0,2.21,1.79,4,4,4h19c2.21,0,4-1.79,4-4v-29.91
				C410.75,105.33,408.96,103.54,406.75,103.54z M387.75,110.04c0-1.1,0.9-2,2-2s2,0.9,2,2c0,1.1-0.9,2-2,2
				S387.75,111.15,387.75,110.04z M401.03,126.84c-1.2,0.13-2.29-0.34-3.03-1.13c0.27,1.67,1.07,2.85,1.68,3.45
				c0.35,0.34,0,0.82-0.58,0.82h-3.6c-0.57,0-0.92-0.46-0.6-0.8c0.56-0.6,1.34-1.78,1.61-3.47c-0.75,0.79-1.84,1.26-3.04,1.13
				c-1.18-0.13-2.24-0.86-2.81-1.91c-2.25-4.16,4.81-8.92,6.31-9.87c0.17-0.11,0.38-0.11,0.55,0c1.5,0.95,8.56,5.71,6.31,9.87
				C403.27,125.98,402.21,126.71,401.03,126.84z M405.75,137.96c-1.1,0-2-0.9-2-2c0-1.1,0.9-2,2-2s2,0.9,2,2
				C407.75,137.06,406.85,137.96,405.75,137.96z"/>
		</g>
	</g>
	<g>
		<g>
			<path class="st0" d="M319.5,140c0,1.1,0.9,2,2,2h10c1.1,0,2-0.9,2-2v-7.5h-14V140z M331.5,103h-10c-1.1,0-2,0.9-2,2v4.5h14V105
				C333.5,103.9,332.6,103,331.5,103z"/>
			<path class="st0" d="M334.6,112H318.4c-1.05,0-1.9,0.81-1.9,1.8v14.4c0,0.99,0.85,1.8,1.9,1.8h16.19c1.05,0,1.9-0.81,1.9-1.8
				v-14.4C336.5,112.81,335.65,112,334.6,112z M333,121.5h-2.32l-1.75,4.37c-0.15,0.37-0.51,0.62-0.91,0.63H328
				c-0.39,0-0.75-0.23-0.91-0.59l-3.04-6.84l-1.12,2.8c-0.15,0.38-0.52,0.63-0.93,0.63h-2c-0.55,0-1-0.45-1-1s0.45-1,1-1h1.32
				l1.75-4.37c0.15-0.37,0.51-0.62,0.91-0.63c0.4,0.01,0.77,0.23,0.93,0.59l3.04,6.83l1.12-2.8c0.15-0.38,0.52-0.63,0.93-0.63h3
				c0.55,0,1,0.45,1,1S333.55,121.5,333,121.5z"/>
		</g>
	</g>
	<g>
		<g>
			<g>
				<path class="st0" d="M258.53,123.98c-0.4,0-0.8,0.15-1.1,0.46c-0.61,0.61-0.61,1.6,0,2.2c0.3,0.3,0.7,0.46,1.1,0.46
					c0.4,0,0.8-0.15,1.1-0.46c0.61-0.61,0.61-1.6,0-2.2C259.32,124.13,258.93,123.98,258.53,123.98z M258.5,115.14
					c-5.62,0-10.18,4.56-10.18,10.18c0,5.62,4.56,10.18,10.18,10.18c5.62,0,10.18-4.56,10.18-10.18
					C268.68,119.7,264.12,115.14,258.5,115.14z M263.85,122.76l-1.94,1.75c0,0,0,0,0,0c0.1,0.33,0.17,0.68,0.17,1.04
					c0,0.95-0.37,1.84-1.04,2.52c-0.67,0.67-1.57,1.04-2.52,1.04c-0.95,0-1.84-0.37-2.52-1.04c-0.67-0.67-1.04-1.57-1.04-2.52
					c0-0.95,0.37-1.84,1.04-2.52c0.67-0.67,1.57-1.04,2.52-1.04c0.49,0,0.96,0.1,1.39,0.28l1.93-1.74c0.62-0.56,1.56-0.51,2.12,0.11
					C264.52,121.25,264.47,122.2,263.85,122.76z"/>
			</g>
			<path class="st0" d="M261.35,109.41v-0.95h2.1c0.28,0,0.5-0.22,0.5-0.5v-3.45c0-0.55-0.45-1-1-1h-8.89c-0.55,0-1,0.45-1,1v3.45
				c0,0.28,0.22,0.5,0.5,0.5h2.1v0.95c-2.86,0.51-5.47,1.77-7.6,3.58l-1.25-1.25c-0.39-0.39-1.02-0.39-1.41,0l-2.45,2.45
				c-0.39,0.39-0.39,1.02,0,1.41l1.59,1.59c-1.4,2.39-2.21,5.16-2.21,8.12c0,8.92,7.26,16.18,16.18,16.18
				c8.92,0,16.18-7.26,16.18-16.18C274.68,117.37,268.91,110.76,261.35,109.41z M258.5,138c-6.99,0-12.68-5.69-12.68-12.68
				c0-6.99,5.69-12.68,12.68-12.68c6.99,0,12.68,5.69,12.68,12.68C271.18,132.31,265.49,138,258.5,138z"/>
		</g>
	</g>
	<g>
		<g>
			<g>
				<path class="st0" d="M193.77,112.24l-1.89-0.27l-0.85-1.71c-0.29-0.59-0.77-0.59-1.06,0l-0.85,1.71l-1.89,0.27
					c-0.65,0.1-0.8,0.55-0.33,1.01l1.37,1.33l-0.32,1.88c-0.11,0.65,0.27,0.93,0.86,0.62l1.69-0.89l1.69,0.89
					c0.58,0.31,0.97,0.03,0.86-0.62l-0.32-1.88l1.37-1.33C194.56,112.79,194.42,112.34,193.77,112.24z"/>
				<path class="st0" d="M205.78,106.72h-5.66v-2.76h-19.25v2.76h-5.66c-0.53,0-0.97,0.43-0.97,0.97v5.19
					c0,2.97,2.41,5.38,5.38,5.38h1.94c0.76,1.73,2.06,3.32,3.48,4.47l0.42,0.34c1.28,1.04,2.02,2.6,2.02,4.24v2.23h6v-2.55
					c0-1.45,0.65-2.82,1.78-3.73l0.67-0.54c1.42-1.15,2.72-2.74,3.48-4.47h1.94c2.97,0,5.38-2.41,5.38-5.38v-5.19
					C206.75,107.15,206.32,106.72,205.78,106.72z M179.63,115.75c-1.59,0-2.88-1.29-2.88-2.88v-3.66h4.13v5.97
					c0,0.19,0.03,0.38,0.05,0.57H179.63z M193.79,118.72c-5.78,3.12-11.62-2.71-8.5-8.5c0.44-0.81,1.11-1.49,1.93-1.92
					c5.78-3.12,11.61,2.72,8.5,8.5C195.28,117.61,194.6,118.29,193.79,118.72z M204.25,112.87c0,1.59-1.29,2.88-2.88,2.88h-1.3
					c0.02-0.19,0.05-0.38,0.05-0.57v-5.97h4.13V112.87z M200.5,138.04h-2v-3.22c0-1.54-1.25-2.78-2.78-2.78h-10.44
					c-1.54,0-2.78,1.25-2.78,2.78v3.22h-2v3h20V138.04z M194.94,135.04v2h-8.89v-2H194.94z"/>
			</g>
		</g>
	</g>
	<g>
		<g>
			<path class="st0" d="M122.5,102.34c-11.14,0-20.16,9.03-20.16,20.16c0,11.14,9.03,20.16,20.16,20.16
				c11.14,0,20.16-9.03,20.16-20.16C142.66,111.36,133.64,102.34,122.5,102.34z M122.5,135.84c-7.37,0-13.34-5.97-13.34-13.34
				c0-7.37,5.97-13.34,13.34-13.34c7.37,0,13.34,5.97,13.34,13.34C135.84,129.87,129.87,135.84,122.5,135.84z"/>
			<path class="st0" d="M122.5,114.34c-4.51,0-8.16,3.66-8.16,8.16c0,4.51,3.65,8.16,8.16,8.16c4.51,0,8.16-3.66,8.16-8.16
				C130.66,117.99,127.01,114.34,122.5,114.34z M122.5,125.66c-1.75,0-3.16-1.42-3.16-3.16s1.42-3.16,3.16-3.16
				c1.75,0,3.16,1.42,3.16,3.16C125.66,124.25,124.25,125.66,122.5,125.66z"/>
		</g>
	</g>
	<g>
		<g>
			<path class="st0" d="M58.35,127.67l-2.23-0.32l-1-2.02c-0.34-0.7-0.9-0.7-1.25,0l-1,2.02l-2.23,0.32
				c-0.77,0.11-0.94,0.64-0.38,1.19l1.61,1.57l-0.38,2.22c-0.13,0.77,0.32,1.09,1.01,0.73l1.99-1.05l1.99,1.05
				c0.69,0.36,1.14,0.03,1.01-0.73l-0.38-2.22l1.61-1.57C59.29,128.32,59.12,127.79,58.35,127.67z M66.49,103.67h-8.72
				c-0.36,0-0.7,0.2-0.88,0.52l-5.93,10.77c1.13-0.29,2.31-0.46,3.53-0.46h0c2.45,0,4.76,0.62,6.79,1.69l6.08-11.05
				C67.73,104.48,67.25,103.67,66.49,103.67z"/>
			<path class="st0" d="M52.98,106.12l-0.88-1.59c-0.18-0.32-0.51-0.52-0.88-0.52h-8.72c-0.76,0-1.24,0.82-0.88,1.48l5.85,10.63
				L52.98,106.12z M54.5,117c-6.72,0-12.16,5.45-12.16,12.16c0,6.72,5.45,12.16,12.16,12.16c6.72,0,12.16-5.45,12.16-12.16
				C66.66,122.45,61.22,117.01,54.5,117z M54.5,136.33c-3.96,0-7.16-3.21-7.16-7.16c0-3.96,3.21-7.16,7.16-7.16
				c3.96,0,7.16,3.21,7.16,7.16C61.66,133.12,58.46,136.33,54.5,136.33z"/>
		</g>
	</g>
</g>
<g id="title">
</g>
</svg>
