<?xml version="1.0" encoding="utf-8"?>
<!-- Generator: Adobe Illustrator 24.1.1, SVG Export Plug-In . SVG Version: 6.00 Build 0)  -->
<svg version="1.1" xmlns="http://www.w3.org/2000/svg" xmlns:xlink="http://www.w3.org/1999/xlink" x="0px" y="0px"
	 viewBox="0 0 448 448" style="enable-background:new 0 0 448 448;" xml:space="preserve">
<style type="text/css">
	.st0{fill:#173042;}
</style>
<g id="grid">
</g>
<g id="icons">
	<g>
		<g>
			<path class="st0" d="M379.92,395.05c0.29,0.29,0.68,0.44,1.06,0.44c0.38,0,0.77-0.15,1.06-0.44l2.12-2.12l2.12,2.12
				c0.29,0.29,0.68,0.44,1.06,0.44c0.38,0,0.77-0.15,1.06-0.44c0.59-0.59,0.59-1.54,0-2.12l-2.12-2.12l2.12-2.12
				c0.59-0.59,0.59-1.54,0-2.12c-0.59-0.59-1.54-0.59-2.12,0l-2.12,2.12l-2.12-2.12c-0.59-0.59-1.54-0.59-2.12,0
				c-0.59,0.59-0.59,1.54,0,2.12l2.12,2.12l-2.12,2.12C379.33,393.52,379.33,394.47,379.92,395.05z M396.55,395.79
				c1.04-1.04,1.61-2.42,1.61-3.89v-6.77h-3v6.77c0,0.66-0.27,1.3-0.73,1.77l-8.25,8.25c-0.75-0.39-1.61-0.61-2.51-0.61
				c-3.03,0-5.5,2.47-5.5,5.5s2.47,5.5,5.5,5.5c3.03,0,5.5-2.47,5.5-5.5c0-1.04-0.29-2.01-0.8-2.83L396.55,395.79z M383.66,409.31
				c-1.38,0-2.5-1.12-2.5-2.5s1.12-2.5,2.5-2.5c1.38,0,2.5,1.12,2.5,2.5S385.04,409.31,383.66,409.31z M401.28,407.81l2.12-2.12
				c0.59-0.59,0.59-1.54,0-2.12c-0.59-0.59-1.54-0.59-2.12,0l-2.12,2.12l-2.12-2.12c-0.59-0.59-1.54-0.59-2.12,0
				c-0.59,0.59-0.59,1.54,0,2.12l2.12,2.12l-2.12,2.12c-0.59,0.59-0.59,1.54,0,2.12c0.29,0.29,0.68,0.44,1.06,0.44
				c0.38,0,0.77-0.15,1.06-0.44l2.12-2.12l2.12,2.12c0.29,0.29,0.68,0.44,1.06,0.44c0.38,0,0.77-0.15,1.06-0.44
				c0.59-0.59,0.59-1.54,0-2.12L401.28,407.81z"/>
			<path class="st0" d="M397.52,376.89c-0.45-0.51-1.24-0.51-1.68,0l-3.4,3.89c-0.63,0.72-0.12,1.85,0.84,1.85h6.81
				c0.96,0,1.47-1.13,0.84-1.85L397.52,376.89z M408.28,392.81l2.12-2.12c0.59-0.59,0.59-1.54,0-2.12c-0.59-0.59-1.54-0.59-2.12,0
				l-2.12,2.12l-2.12-2.12c-0.59-0.59-1.54-0.59-2.12,0c-0.59,0.59-0.59,1.54,0,2.12l2.12,2.12l-2.12,2.12
				c-0.59,0.59-0.59,1.54,0,2.12c0.29,0.29,0.68,0.44,1.06,0.44c0.38,0,0.77-0.15,1.06-0.44l2.12-2.12l2.12,2.12
				c0.29,0.29,0.68,0.44,1.06,0.44c0.38,0,0.77-0.15,1.06-0.44c0.59-0.59,0.59-1.54,0-2.12L408.28,392.81z"/>
		</g>
	</g>
	<g>
		<g>
			<g>
				<g>
					<path class="st0" d="M345.11,378.87c0-0.68-2.06-0.95-2.3-1.54c-0.25-0.61,1-2.26,0.54-2.72c-0.46-0.46-2.1,0.8-2.72,0.54
						c-0.59-0.25-0.86-2.3-1.54-2.3c-0.68,0-0.95,2.06-1.54,2.3c-0.61,0.25-2.26-1-2.72-0.54c-0.46,0.46,0.8,2.1,0.54,2.72
						c-0.25,0.59-2.3,0.86-2.3,1.54c0,0.68,2.06,0.95,2.3,1.54c0.25,0.61-1,2.26-0.54,2.72c0.46,0.46,2.09-0.78,2.71-0.54
						c-0.29,0.8-0.74,1.54-1.36,2.16c-0.49,0.49-0.49,1.28,0,1.77c0.24,0.24,0.56,0.37,0.88,0.37c0.32,0,0.64-0.12,0.88-0.37
						c0.51-0.51,0.93-1.07,1.29-1.67c0.58-0.27,0.85-2.02,1.4-2.25c0.61-0.25,2.26,1,2.72,0.54c0.46-0.46-0.8-2.1-0.54-2.72
						C343.05,379.81,345.11,379.55,345.11,378.87z"/>
					<path class="st0" d="M338.01,392c0.39-0.39,0.39-1.02,0-1.41l-5.27-5.27c-0.39-0.39-1.02-0.39-1.41,0l-1.97,1.97
						c-5.59-2.58-12.43-1.58-17.04,3.03c-5.91,5.91-5.91,15.49,0,21.4c5.91,5.91,15.49,5.91,21.41,0
						c4.87-4.87,5.72-12.24,2.55-17.99L338.01,392z M319.7,393.37c-0.96,0.42-1.82,1-2.57,1.75c-3.25,3.25-3.25,8.54,0,11.79
						c0.49,0.49,0.49,1.28,0,1.77c-0.24,0.24-0.56,0.37-0.88,0.37s-0.64-0.12-0.88-0.37c-4.22-4.22-4.22-11.1,0-15.32
						c0.97-0.97,2.09-1.73,3.34-2.28c0.63-0.28,1.37,0.01,1.64,0.65C320.62,392.36,320.33,393.1,319.7,393.37z"/>
				</g>
			</g>
		</g>
	</g>
	<g>
		<g>
			<path class="st0" d="M263.93,391.33c0,3.17-2.5,5.75-5.57,5.75c-3.07,0-5.56-2.58-5.56-5.75c0-3.17,2.5-5.75,5.56-5.75
				c0.25,0,0.5,0.02,0.75,0.06l3.19-3.19c-1.2-0.56-2.53-0.87-3.93-0.87c-5.27,0-9.56,4.38-9.56,9.75c0,5.38,4.29,9.75,9.56,9.75
				c5.27,0,9.57-4.38,9.57-9.75c0-1.36-0.28-2.66-0.78-3.84l-3.25,3.25C263.92,390.94,263.93,391.13,263.93,391.33z M268.36,404.22
				c3.85-2.99,6.34-7.65,6.34-12.89c0-1.78-0.3-3.5-0.83-5.1l-0.89,0.89c-0.65,0.65-1.52,1.01-2.44,1.01c-0.1,0-0.19-0.02-0.29-0.03
				c0.28,1.03,0.45,2.11,0.45,3.23c0,6.8-5.53,12.33-12.33,12.33c-6.8,0-12.33-5.53-12.33-12.33c0-6.8,5.53-12.33,12.33-12.33
				c1.3,0,2.54,0.2,3.72,0.58c0.02-0.87,0.36-1.72,1-2.36l1.12-1.12c-1.82-0.7-3.78-1.1-5.84-1.1c-9.01,0-16.33,7.33-16.33,16.33
				c0,5.59,2.82,10.53,7.12,13.47l-2.69,7.17c-0.29,0.78,0.1,1.64,0.88,1.93c0.17,0.07,0.35,0.1,0.53,0.1c0.61,0,1.18-0.37,1.4-0.97
				l2.53-6.75c1.72,0.76,3.6,1.22,5.56,1.34v4.88c0,0.83,0.67,1.5,1.5,1.5s1.5-0.67,1.5-1.5v-4.97c1.93-0.24,3.75-0.81,5.41-1.66
				l2.68,7.16c0.23,0.6,0.8,0.97,1.4,0.97c0.17,0,0.35-0.03,0.53-0.1c0.78-0.29,1.17-1.16,0.88-1.93L268.36,404.22z"/>
			<path class="st0" d="M274.37,380.31l-2.84-1.09c-0.25-0.1-0.45-0.29-0.54-0.54l-1.09-2.84c-0.15-0.39-0.51-0.61-0.89-0.61
				c-0.24,0-0.48,0.09-0.67,0.28l-3.48,3.48c-0.26,0.26-0.35,0.66-0.21,1.01l0.92,2.38l-5.98,5.98c-0.37-0.15-0.78-0.24-1.2-0.24
				c-1.77,0-3.21,1.44-3.21,3.21s1.44,3.21,3.21,3.21c1.77,0,3.21-1.44,3.21-3.21c0-0.43-0.09-0.83-0.24-1.2l5.76-5.76l3.11,1.19
				c0.11,0.04,0.23,0.06,0.34,0.06c0.25,0,0.49-0.1,0.67-0.28l3.48-3.48C275.18,381.38,275,380.56,274.37,380.31z"/>
		</g>
	</g>
	<g>
		<g>
			<path class="st0" d="M188.45,402.88l-5.94-3.34c-0.62-0.35-0.94-1.05-0.79-1.74c0.18-0.8,0.01-1.52-0.93-1.89
				c-0.93-0.37-2.04-0.16-2.73,0.57c-0.62,0.66-0.79,1.5-0.62,2.26c-0.54,0.18-1.03,0.54-1.34,1.07c-0.34,0.57-0.35,1.28-0.13,1.9
				c0.81,2.28,2.06,1.77,2.85,1.1c0.52-0.44,1.25-0.54,1.85-0.21l4.14,2.32L188.45,402.88z M204.91,399.81
				c-0.31-0.53-0.8-0.89-1.34-1.07c0.17-0.76,0-1.6-0.62-2.26c-0.69-0.73-1.8-0.93-2.73-0.57c-0.86,0.34-1.08,0.97-0.97,1.69
				c0.13,0.87-0.37,1.72-1.14,2.15l-12.05,6.77c-0.78,0.44-1.73,0.36-2.44-0.16c-0.8-0.59-1.92-0.85-2.67,1.27
				c-0.22,0.62-0.21,1.34,0.13,1.91c0.32,0.53,0.8,0.89,1.35,1.08c-0.17,0.76,0,1.61,0.63,2.27c0.69,0.73,1.81,0.94,2.75,0.57
				c0.88-0.34,1.09-0.99,0.97-1.72c-0.14-0.87,0.37-1.73,1.14-2.16l2.6-1.46l2.99,1.68c0.62,0.35,0.94,1.06,0.79,1.75
				c-0.18,0.81-0.02,1.54,0.94,1.91c0.94,0.37,2.06,0.16,2.75-0.57c0.63-0.66,0.8-1.51,0.63-2.27c0.55-0.18,1.03-0.55,1.35-1.08
				c0.34-0.57,0.35-1.28,0.13-1.91c-0.82-2.33-2.1-1.78-2.9-1.09c-0.52,0.45-1.25,0.52-1.85,0.19l-1.17-0.66l5.82-3.27
				c0.78-0.44,1.72-0.33,2.44,0.18c0.79,0.56,1.89,0.79,2.62-1.28C205.26,401.1,205.24,400.38,204.91,399.81z"/>
			<path class="st0" d="M190.5,375.35c-7.82,0-11.5,2.77-11.5,10.85v1.48c0,1.95,1.47,3.52,3.29,3.52h3.56c0.47,0,0.85,0.45,0.85,1
				s-0.38,1-0.85,1c-0.47,0-0.85,0.45-0.85,1v1c0,1.1,0.76,2,1.69,2h7.62c0.93,0,1.69-0.9,1.69-2v-1c0-0.55-0.38-1-0.85-1
				c-0.47,0-0.85-0.45-0.85-1s0.38-1,0.85-1h3.56c1.81,0,3.29-1.58,3.29-3.52v-1.48C202,378.12,198.32,375.35,190.5,375.35z
				 M185,388.2c-1.66,0-3-1.34-3-3s1.34-3,3-3s3,1.34,3,3S186.66,388.2,185,388.2z M190.5,391.21c-1.1,0-2,1.07-2-0.31
				c0-1.38,0.9-2.5,2-2.5s2,1.12,2,2.5C192.5,392.28,191.6,391.21,190.5,391.21z M196,388.2c-1.66,0-3-1.34-3-3s1.34-3,3-3
				s3,1.34,3,3S197.66,388.2,196,388.2z"/>
		</g>
	</g>
	<g>
		<g>
			<path class="st0" d="M140.87,377.63c-0.1-0.97-0.89-1.72-1.86-1.78l-4.86-0.31c-0.57-0.04-1.14,0.17-1.54,0.58l-18.06,18.06
				c-0.39,0.39-0.39,1.02,0,1.41l2.55,2.55l14.41-14.41c0.49-0.49,1.28-0.49,1.77,0c0.49,0.49,0.49,1.28,0,1.77l-14.41,14.41
				l2.55,2.55c0.39,0.39,1.02,0.39,1.41,0l18.02-18.02c0.43-0.43,0.64-1.03,0.57-1.63L140.87,377.63z"/>
			<path class="st0" d="M128.22,402.9c-0.59-0.59-1.54-0.59-2.12,0l-2.12,2.12c-0.98,0.97-2.56,0.97-3.54,0l-8.49-8.49
				c-0.97-0.97-0.97-2.56,0-3.54l2.12-2.12c0.59-0.59,0.59-1.54,0-2.12c-0.59-0.59-1.54-0.59-2.12,0l-2.12,2.12
				c-2.14,2.14-2.14,5.63,0,7.78l1.58,1.58l-4.5,5.95l-0.87-0.87c-0.39-0.39-1.02-0.39-1.41,0l-0.78,0.78
				c-0.39,0.39-0.39,1.02,0,1.41l5.66,5.66c0.39,0.39,1.02,0.39,1.41,0l0.78-0.78c0.39-0.39,0.39-1.02,0-1.41l-0.63-0.63l5.75-4.7
				l1.5,1.5c1.07,1.07,2.48,1.61,3.89,1.61c1.41,0,2.82-0.54,3.89-1.61l2.12-2.12C128.81,404.43,128.81,403.48,128.22,402.9z"/>
		</g>
	</g>
	<g>
		<g>
			<g>
				<path class="st0" d="M69.22,385.41c-1.34-1.05-2.6-2.14-3.76-3.18c0.4-0.76,0.29-1.71-0.34-2.35l-1.23-1.23
					c-0.67-0.67-1.68-0.76-2.46-0.29c-0.82-0.83-1.39-1.45-1.65-1.72c-0.42-0.44-1.11-0.44-1.54-0.02l-7.58,7.58
					c-0.43,0.43-0.42,1.13,0.02,1.54c0.51,0.48,1.1,1.04,1.68,1.6L33.4,406.32c-0.78,0.78-0.78,2.05,0,2.83l1.23,1.23
					c0.04,0.04,0.08,0.06,0.12,0.09c1.28,1.21,2.53,2.11,4.54,2.2c0.65,0.03,1.31-0.55,1.41-1.21c0.69-4.37,4.27-8.59,7.63-11.96
					l7.7-7.7c0.66,0.99,1.29,2.05,1.9,3.22c0.13,0.26,0.44,0.38,0.71,0.25c2.67-1.23,5.23-3.03,7.51-5.31
					c1.21-1.21,2.27-2.49,3.2-3.83C69.5,385.91,69.44,385.58,69.22,385.41z"/>
				<path class="st0" d="M75.55,389.25c-0.96-0.44-2.24-1.06-3.45-1.8c-0.23-0.14-0.53-0.09-0.7,0.12c-0.68,0.87-2.37,3.03-3.5,4.16
					c-2.55,2.55-5.4,4.51-8.31,5.84c-0.25,0.12-0.37,0.39-0.28,0.66c0.25,0.71,0.72,2.09,1.04,3.09c0.18,0.56,0.79,0.89,1.35,0.7
					c3.69-1.25,7.41-3.54,10.66-6.79c1.4-1.4,2.61-2.89,3.65-4.42C76.38,390.27,76.15,389.52,75.55,389.25z"/>
			</g>
		</g>
	</g>
	<g>
		<g>
			<g>
				<path class="st0" d="M410.58,340.7l-0.1-0.01c0.01-0.51,0.02-1.05,0.02-1.69c0-15.12-8-20-13.33-22h-5.71
					c-4.96,2-12.96,5.88-12.96,22c0,0.63,0.01,1.19,0.02,1.69l-0.1,0.02c-1.1,0.17-1.92,1.12-1.92,2.24c0,1.17,0.89,2.14,2.05,2.25
					l4.39,0.24c2.91,0.96,7.01,1.57,11.56,1.57s8.65-0.6,11.56-1.57l4.39-0.24c1.16-0.11,2.05-1.09,2.05-2.25
					C412.5,341.82,411.68,340.87,410.58,340.7z M393.78,329.26l2.6,1.34c1.41,0.73,2.17,2.22,1.91,3.81
					c-0.21,1.31-1.07,2.33-2.25,2.76v0.58c0,0.69-0.56,1.25-1.25,1.25s-1.25-0.56-1.25-1.25v-0.5c-1.26-0.34-2.33-1.23-2.88-2.48
					c-0.28-0.63,0.01-1.37,0.65-1.65c0.63-0.27,1.37,0.02,1.64,0.65c0.32,0.75,1.08,1.2,1.89,1.13l0.12-0.01
					c0.66-0.1,0.81-0.64,0.85-0.86c0.06-0.4-0.06-0.92-0.59-1.19l-2.6-1.34c-1.43-0.74-2.19-2.3-1.89-3.88
					c0.28-1.48,1.36-2.55,2.79-2.83v-0.53c0-0.69,0.56-1.25,1.25-1.25s1.25,0.56,1.25,1.25v0.81c1.02,0.43,1.85,1.22,2.31,2.27
					c0.28,0.63-0.01,1.37-0.65,1.64c-0.63,0.28-1.37-0.02-1.64-0.65c-0.32-0.74-1.08-1.2-1.89-1.13c-0.75,0.08-0.92,0.69-0.96,0.87
					C393.16,328.25,393.1,328.91,393.78,329.26z"/>
				<path class="st0" d="M398.75,306.23c-0.87-0.55-2.35-0.01-3.6,1.18c-0.61,0.58-1.54,0.58-2.14,0c-1.25-1.19-2.72-1.71-3.6-1.18
					c-2.91,1.76,1.01,7.9,1.37,8.25h6.6C397.74,314.13,401.5,307.99,398.75,306.23z"/>
			</g>
		</g>
	</g>
	<g>
		<g>
			<path class="st0" d="M324,316h-6c-0.83,0-1.5,0.67-1.5,1.5s0.67,1.5,1.5,1.5h1.5v10.5c0,0.83,0.67,1.5,1.5,1.5s1.5-0.67,1.5-1.5
				V319h1.5c0.83,0,1.5-0.67,1.5-1.5S324.83,316,324,316z M335.37,316.05c-0.8-0.21-1.62,0.28-1.83,1.08l-1.57,6.11l-1.52-6.1
				c-0.2-0.8-1.01-1.29-1.82-1.09c-0.8,0.2-1.29,1.01-1.09,1.82l2.96,11.85c0.17,0.67,0.76,1.13,1.45,1.14h0
				c0.68,0,1.28-0.46,1.45-1.13l3.04-11.85C336.66,317.07,336.18,316.25,335.37,316.05z"/>
			<path class="st0" d="M345.5,309h-38c-1.1,0-2,0.9-2,2v25c0,1.1,0.9,2,2,2h13.88l-0.72,2.88c-0.01,0.04,0,0.08,0,0.12H316
				c-0.83,0-1.5,0.67-1.5,1.5c0,0.83,0.67,1.5,1.5,1.5h21c0.83,0,1.5-0.67,1.5-1.5c0-0.83-0.67-1.5-1.5-1.5h-4.65
				c0-0.04,0.01-0.08,0-0.12l-0.72-2.88h13.88c1.1,0,2-0.9,2-2v-25C347.5,309.9,346.6,309,345.5,309z M343.5,334h-34v-21h34V334z"/>
		</g>
	</g>
	<g>
		<g>
			<circle class="st0" cx="258.5" cy="326.5" r="2.85"/>
			<path class="st0" d="M277,324.5h-1.31c-0.92-7.95-7.24-14.27-15.19-15.19V308c0-1.1-0.9-2-2-2s-2,0.9-2,2v1.31
				c-7.95,0.92-14.27,7.24-15.19,15.19H240c-1.1,0-2,0.9-2,2s0.9,2,2,2h1.31c0.92,7.95,7.24,14.27,15.19,15.19V345c0,1.1,0.9,2,2,2
				s2-0.9,2-2v-1.31c7.95-0.92,14.27-7.24,15.19-15.19H277c1.1,0,2-0.9,2-2S278.1,324.5,277,324.5z M265.62,328.5h6.03
				c-0.87,5.74-5.41,10.27-11.14,11.14v-6.03c0-1.1-0.9-2-2-2s-2,0.9-2,2v6.03c-5.74-0.87-10.27-5.41-11.14-11.14h6.03
				c1.1,0,2-0.9,2-2s-0.9-2-2-2h-6.03c0.87-5.74,5.41-10.27,11.14-11.14v6.03c0,1.1,0.9,2,2,2s2-0.9,2-2v-6.03
				c5.74,0.87,10.27,5.41,11.14,11.14h-6.03c-1.1,0-2,0.9-2,2S264.51,328.5,265.62,328.5z"/>
		</g>
	</g>
	<g>
		<g>
			<path class="st0" d="M177.77,315.3c-2.02-0.66-2.67-1.31-3.33-3.33c-0.05-0.15-0.25-0.15-0.3,0c-0.66,2.02-1.31,2.67-3.33,3.33
				c-0.14,0.05-0.14,0.25,0,0.3c2.02,0.66,2.67,1.31,3.33,3.33c0.05,0.15,0.25,0.15,0.3,0c0.66-2.02,1.31-2.67,3.33-3.33
				C177.91,315.55,177.91,315.35,177.77,315.3z M209.86,312.63c-2.48-0.95-3.59-2.06-4.54-4.54c-0.23-0.59-1.05-0.59-1.28,0
				c-0.95,2.48-2.06,3.59-4.54,4.54c-0.59,0.23-0.59,1.05,0,1.28c2.48,0.95,3.59,2.06,4.54,4.54c0.23,0.59,1.05,0.59,1.28,0
				c0.95-2.48,2.06-3.59,4.54-4.54C210.45,313.68,210.45,312.86,209.86,312.63z"/>
			<path class="st0" d="M205.88,327.36c-0.05-6.55-7.54-11.88-16.75-11.88s-16.7,5.32-16.75,11.88h0v6.5h0.03
				c0.11,2.24,1.11,4.31,2.72,6.07v-4.07c0-0.69,0.56-1.25,1.25-1.25c0.69,0,1.25,0.56,1.25,1.25v6.22c0.91,0.61,1.92,1.15,3,1.61
				v-3.33c0-0.69,0.56-1.25,1.25-1.25c0.69,0,1.25,0.56,1.25,1.25v4.2c1.11,0.31,2.29,0.53,3.5,0.66v-1.85
				c0-0.69,0.56-1.25,1.25-1.25c0.69,0,1.25,0.56,1.25,1.25v2c9.03,0,16.39-5.12,16.72-11.5h0.03L205.88,327.36L205.88,327.36z
				 M189.13,336.36c-7.58,0-13.75-4.01-13.75-8.94c0-4.93,6.17-8.94,13.75-8.94c7.58,0,13.75,4.01,13.75,8.94
				C202.88,332.35,196.72,336.36,189.13,336.36z M189.13,320.59c-5.51,0-9.97,3.06-9.97,6.82c0,3.77,4.46,6.82,9.97,6.82
				c5.51,0,9.97-3.06,9.97-6.82C199.11,323.65,194.64,320.59,189.13,320.59z M189.13,328.98c0.82,0,1.61-0.22,2.17-0.59
				c0.57-0.38,1.35-0.23,1.73,0.34c0.38,0.57,0.23,1.35-0.34,1.73c-0.98,0.66-2.24,1.02-3.56,1.02c-3,0-5.36-1.78-5.36-4.06
				c0-2.28,2.35-4.06,5.36-4.06c1.32,0,2.59,0.36,3.56,1.02c0.57,0.38,0.73,1.16,0.34,1.73c-0.38,0.57-1.16,0.73-1.73,0.34
				c-0.56-0.38-1.35-0.59-2.17-0.59c-1.63,0-2.86,0.82-2.86,1.56S187.5,328.98,189.13,328.98z"/>
		</g>
	</g>
	<g>
		<g>
			<path class="st0" d="M122.5,308c-10.22,0-18.5,8.28-18.5,18.5c0,10.22,8.28,18.5,18.5,18.5c10.22,0,18.5-8.28,18.5-18.5
				C141,316.28,132.72,308,122.5,308z M130.92,325.6l-11.53,11.87c-0.48,0.5-1.31,0-1.09-0.66l2.42-7.25
				c0.14-0.42-0.17-0.86-0.62-0.86h-5.54c-0.47,0-0.78-0.47-0.6-0.9l4.98-12.06c0.1-0.24,0.34-0.4,0.6-0.4h7.54
				c0.51,0,0.82,0.55,0.56,0.99l-4.22,7.19c-0.26,0.44,0.06,0.98,0.56,0.98h6.47C131.03,324.49,131.32,325.18,130.92,325.6z"/>
		</g>
	</g>
	<g>
		<g>
			<g>
				<path class="st0" d="M54.53,327.98c-0.4,0-0.8,0.15-1.1,0.46c-0.61,0.61-0.61,1.6,0,2.2c0.3,0.3,0.7,0.46,1.1,0.46
					c0.4,0,0.8-0.15,1.1-0.46c0.61-0.61,0.61-1.6,0-2.2C55.32,328.13,54.93,327.98,54.53,327.98z M54.5,319.14
					c-5.62,0-10.18,4.56-10.18,10.18c0,5.62,4.56,10.18,10.18,10.18s10.18-4.56,10.18-10.18C64.68,323.7,60.12,319.14,54.5,319.14z
					 M59.85,326.76l-1.94,1.75c0,0,0,0,0,0c0.1,0.33,0.17,0.68,0.17,1.04c0,0.95-0.37,1.84-1.04,2.52
					c-0.67,0.67-1.57,1.04-2.52,1.04c-0.95,0-1.84-0.37-2.52-1.04c-0.67-0.67-1.04-1.57-1.04-2.52c0-0.95,0.37-1.84,1.04-2.52
					s1.57-1.04,2.52-1.04c0.49,0,0.96,0.1,1.39,0.28l1.93-1.74c0.62-0.56,1.56-0.51,2.12,0.11
					C60.52,325.25,60.47,326.2,59.85,326.76z"/>
			</g>
			<path class="st0" d="M57.35,313.41v-0.95h2.1c0.28,0,0.5-0.22,0.5-0.5v-3.45c0-0.55-0.45-1-1-1h-8.89c-0.55,0-1,0.45-1,1v3.45
				c0,0.28,0.22,0.5,0.5,0.5h2.1v0.95c-2.86,0.51-5.47,1.77-7.6,3.58l-1.25-1.25c-0.39-0.39-1.02-0.39-1.41,0l-2.45,2.45
				c-0.39,0.39-0.39,1.02,0,1.41l1.59,1.59c-1.4,2.39-2.21,5.16-2.21,8.12c0,8.92,7.26,16.18,16.18,16.18s16.18-7.26,16.18-16.18
				C70.68,321.37,64.91,314.76,57.35,313.41z M54.5,342c-6.99,0-12.68-5.69-12.68-12.68c0-6.99,5.69-12.68,12.68-12.68
				s12.68,5.69,12.68,12.68C67.18,336.31,61.49,342,54.5,342z"/>
		</g>
	</g>
	<g>
		<g>
			<path class="st0" d="M409,246.53h-29c-0.69,0-1.25,0.56-1.25,1.25c0,0.69,0.56,1.25,1.25,1.25h29c0.69,0,1.25-0.56,1.25-1.25
				C410.25,247.09,409.69,246.53,409,246.53z"/>
			<path class="st0" d="M411.26,251.47h-33.53c-1.23,0-2.24,1-2.24,2.24v14.53c0,1.23,1,2.24,2.24,2.24h10.04
				c0.8,0,1.54-0.43,1.94-1.13l0.9-1.58c1.72-3,6.05-3,7.76,0l0.9,1.58c0.4,0.7,1.14,1.13,1.94,1.13h10.04c1.23,0,2.24-1,2.24-2.24
				v-14.53C413.5,252.47,412.5,251.47,411.26,251.47z M383.5,264.47c-2.21,0-4-1.79-4-4c0-2.21,1.79-4,4-4c2.21,0,4,1.79,4,4
				C387.5,262.68,385.71,264.47,383.5,264.47z M405.5,264.47c-2.21,0-4-1.79-4-4c0-2.21,1.79-4,4-4c2.21,0,4,1.79,4,4
				C409.5,262.68,407.71,264.47,405.5,264.47z"/>
		</g>
	</g>
	<g>
		<g>
			<g>
				<g>
					<path class="st0" d="M339.79,258.27c-0.23-0.47-0.23-1.02,0-1.49l3.42-6.84c0.55-1.11-0.25-2.41-1.49-2.41h-4.8v6.25
						c0,0.69-0.56,1.25-1.25,1.25s-1.25-0.56-1.25-1.25l0-8.07c0-2.21-1.79-4-4-4H316.6c-0.28,0-0.5,0.22-0.5,0.5v18.98
						c0,0.28,0.22,0.5,0.5,0.5h12.46c0.67,0.03,1.2,0.57,1.2,1.24c0,0.69-0.56,1.25-1.25,1.25h-5.41v0.01
						c0,1.84,1.49,3.33,3.33,3.33h14.79c1.24,0,2.04-1.3,1.49-2.41L339.79,258.27z"/>
					<path class="st0" d="M311.62,239.71c-1.1,0-2,0.9-2,2v33.59c0,1.1,0.9,2,2,2s2-0.9,2-2v-33.59
						C313.62,240.6,312.72,239.71,311.62,239.71z"/>
				</g>
			</g>
		</g>
	</g>
	<g>
		<g>
			<path class="st0" d="M275,250.75h-33c-2.21,0-4,1.79-4,4v13c0,2.21,1.79,4,4,4h33c2.21,0,4-1.79,4-4v-13
				C279,252.54,277.21,250.75,275,250.75z M257.5,254.75h2c0.83,0,1.5,0.67,1.5,1.5c0,0.83-0.67,1.5-1.5,1.5h-2
				c-0.83,0-1.5-0.67-1.5-1.5C256,255.42,256.67,254.75,257.5,254.75z M257.5,259.75h2c0.83,0,1.5,0.67,1.5,1.5s-0.67,1.5-1.5,1.5
				h-2c-0.83,0-1.5-0.67-1.5-1.5S256.67,259.75,257.5,259.75z M250.5,254.75h2c0.83,0,1.5,0.67,1.5,1.5c0,0.83-0.67,1.5-1.5,1.5h-2
				c-0.83,0-1.5-0.67-1.5-1.5C249,255.42,249.67,254.75,250.5,254.75z M250.5,259.75h2c0.83,0,1.5,0.67,1.5,1.5s-0.67,1.5-1.5,1.5
				h-2c-0.83,0-1.5-0.67-1.5-1.5S249.67,259.75,250.5,259.75z M245.5,267.75h-2c-0.83,0-1.5-0.67-1.5-1.5s0.67-1.5,1.5-1.5h2
				c0.83,0,1.5,0.67,1.5,1.5S246.33,267.75,245.5,267.75z M245.5,262.75h-2c-0.83,0-1.5-0.67-1.5-1.5s0.67-1.5,1.5-1.5h2
				c0.83,0,1.5,0.67,1.5,1.5S246.33,262.75,245.5,262.75z M245.5,257.75h-2c-0.83,0-1.5-0.67-1.5-1.5c0-0.83,0.67-1.5,1.5-1.5h2
				c0.83,0,1.5,0.67,1.5,1.5C247,257.08,246.33,257.75,245.5,257.75z M266.5,267.75h-16c-0.83,0-1.5-0.67-1.5-1.5s0.67-1.5,1.5-1.5
				h16c0.83,0,1.5,0.67,1.5,1.5S267.33,267.75,266.5,267.75z M266.5,262.75h-2c-0.83,0-1.5-0.67-1.5-1.5s0.67-1.5,1.5-1.5h2
				c0.83,0,1.5,0.67,1.5,1.5S267.33,262.75,266.5,262.75z M266.5,257.75h-2c-0.83,0-1.5-0.67-1.5-1.5c0-0.83,0.67-1.5,1.5-1.5h2
				c0.83,0,1.5,0.67,1.5,1.5C268,257.08,267.33,257.75,266.5,257.75z M273.5,267.75h-2c-0.83,0-1.5-0.67-1.5-1.5s0.67-1.5,1.5-1.5h2
				c0.83,0,1.5,0.67,1.5,1.5S274.33,267.75,273.5,267.75z M273.5,262.75h-2c-0.83,0-1.5-0.67-1.5-1.5s0.67-1.5,1.5-1.5h2
				c0.83,0,1.5,0.67,1.5,1.5S274.33,262.75,273.5,262.75z M273.5,257.75h-2c-0.83,0-1.5-0.67-1.5-1.5c0-0.83,0.67-1.5,1.5-1.5h2
				c0.83,0,1.5,0.67,1.5,1.5C275,257.08,274.33,257.75,273.5,257.75z"/>
			<path class="st0" d="M272.5,245.25h-28c-0.83,0-1.5,0.67-1.5,1.5s0.67,1.5,1.5,1.5h28c0.83,0,1.5-0.67,1.5-1.5
				S273.33,245.25,272.5,245.25z"/>
		</g>
	</g>
	<g>
		<g>
			<path class="st0" d="M189.5,274h-2c-0.74,0-1.38,0.4-1.72,1h-8.28c-1.65,0-3-1.35-3-3c0-0.55-0.45-1-1-1s-1,0.45-1,1
				c0,2.76,2.24,5,5,5h8.28c0.35,0.6,0.98,1,1.72,1h2c1.1,0,2-0.9,2-2C191.5,274.9,190.6,274,189.5,274z"/>
			<path class="st0" d="M206.5,262.56h-0.29v-8.36c0-8.39-6.82-15.21-15.21-15.21s-15.21,6.82-15.21,15.21v8.36h-0.29
				c-1.1,0-2,0.9-2,2v3c0,1.1,0.9,2,2,2h1v1c0,1.1,0.9,2,2,2h4c1.1,0,2-0.9,2-2v-9c0-1.1-0.9-2-2-2h-2.71v-5.36
				c0-6.18,5.03-11.21,11.21-11.21s11.21,5.03,11.21,11.21v5.36h-2.71c-1.1,0-2,0.9-2,2v9c0,1.1,0.9,2,2,2h4c1.1,0,2-0.9,2-2v-1h1
				c1.1,0,2-0.9,2-2v-3C208.5,263.46,207.6,262.56,206.5,262.56z"/>
		</g>
	</g>
	<g>
		<g>
			<g>
				<path class="st0" d="M138.27,254.06l-1.8-0.86l-0.31-1.97c-0.11-0.68-0.58-0.83-1.05-0.33l-1.37,1.45l-1.97-0.31
					c-0.68-0.11-0.97,0.3-0.64,0.9l0.95,1.75l-0.9,1.78c-0.31,0.61-0.02,1.01,0.66,0.88l1.96-0.36l1.41,1.41
					c0.49,0.49,0.96,0.33,1.05-0.35l0.26-1.98l1.78-0.91C138.9,254.85,138.89,254.36,138.27,254.06z M113.27,251.92l-2.01,0.32
					l-1.4-1.47c-0.48-0.51-0.97-0.36-1.08,0.33l-0.32,2.01l-1.84,0.88c-0.63,0.3-0.64,0.81-0.01,1.13l1.81,0.92l0.27,2.02
					c0.09,0.7,0.57,0.86,1.07,0.36l1.44-1.44l2,0.37c0.69,0.13,0.99-0.28,0.67-0.9l-0.92-1.81l0.97-1.79
					C114.26,252.22,113.97,251.81,113.27,251.92z"/>
				<path class="st0" d="M114.27,245.69h1.1v1.85c0,2.12,1.44,4.24,3.09,5.59c0.01,0,0.01,0.01,0.02,0.01
					c1.09,0.88,1.8,2.14,1.8,3.53v0.08c0.92-0.05,1.83-0.09,2.74-0.09c0.57,0,1.14,0.02,1.7,0.04v-0.03c0-1.4,0.71-2.66,1.8-3.53
					c0.01,0,0.01-0.01,0.02-0.01c1.66-1.34,3.09-3.47,3.09-5.59v-1.85h1.1c0.83,0,1.5-0.67,1.5-1.5c0-0.83-0.67-1.5-1.5-1.5h-1.1
					v-2.88c0-0.33-0.27-0.59-0.59-0.59h-13.07c-0.33,0-0.59,0.27-0.59,0.59v2.88h-1.1c-0.83,0-1.5,0.67-1.5,1.5
					C112.77,245.02,113.44,245.69,114.27,245.69z M119.57,244.16l1.69-0.25l0.76-1.53c0.26-0.53,0.69-0.53,0.95,0l0.76,1.53
					l1.69,0.25c0.59,0.08,0.72,0.49,0.29,0.9l-1.23,1.19l0.29,1.69c0.1,0.58-0.24,0.83-0.77,0.56l-1.51-0.8l-1.51,0.8
					c-0.52,0.28-0.87,0.03-0.77-0.56l0.29-1.69l-1.23-1.19C118.86,244.65,118.99,244.25,119.57,244.16z M135.22,271.31
					c0.38,0,0.74-0.25,0.85-0.65c0.8-2.95,1.29-4.77,2.1-7.76c0.12-0.43-0.11-0.89-0.52-1.05c-4.7-1.85-9.66-2.7-14.62-2.7
					c-5.29,0-10.6,0.97-15.63,2.72c-0.44,0.15-0.68,0.62-0.56,1.06c0.8,2.97,1.29,4.79,2.09,7.73c0.11,0.39,0.46,0.65,0.85,0.65
					c0.1,0,0.2-0.02,0.3-0.05c4.04-1.46,8.23-2.18,12.42-2.18c4.19,0,8.38,0.73,12.42,2.18
					C135.02,271.29,135.12,271.31,135.22,271.31z M144.27,268.65c0.54-0.53,0.32-1.45-0.41-1.67l-3.89-1.2l-0.56,2.09l-0.93,3.45
					c-0.4,1.47-1.74,2.49-3.26,2.49c-0.39,0-0.78-0.07-1.15-0.2c-0.22-0.08-0.44-0.15-0.67-0.22l-0.31,1.01
					c-0.16,0.53,0.13,1.09,0.66,1.25l6.79,2.09c0.73,0.22,1.43-0.41,1.27-1.15l-0.83-4.07c-0.07-0.33,0.04-0.68,0.28-0.91
					L144.27,268.65z M111.6,273.38c-0.23,0.08-0.45,0.15-0.68,0.23c-0.37,0.13-0.76,0.2-1.15,0.2c-1.52,0-2.86-1.03-3.26-2.49
					l-1.08-4.01l-0.41-1.53l-3.88,1.2c-0.72,0.22-0.95,1.14-0.41,1.67l3,2.95c0.24,0.24,0.35,0.58,0.28,0.91l-0.83,4.07
					c-0.15,0.74,0.55,1.38,1.27,1.15l6.79-2.09c0.53-0.16,0.82-0.72,0.66-1.25L111.6,273.38z"/>
			</g>
		</g>
	</g>
	<g>
		<g>
			<g>
				<path class="st0" d="M61.5,244.75h-14c-0.55,0-1,0.45-1,1v1c0,0.55,0.45,1,1,1h14c0.55,0,1-0.45,1-1v-1
					C62.5,245.2,62.05,244.75,61.5,244.75z M60.5,250.25h-12c-0.55,0-1,0.45-1,1v20c0,0.55,0.45,1,1,1h12c0.55,0,1-0.45,1-1v-20
					C61.5,250.7,61.05,250.25,60.5,250.25z M56.25,264.75c0,0.69-0.56,1.25-1.25,1.25s-1.25-0.56-1.25-1.25v-4.94
					c-0.01,0-0.02,0.01-0.03,0.01c-0.63,0.28-1.37-0.01-1.65-0.64c-0.28-0.63,0.01-1.37,0.64-1.65c0.47-0.21,0.9-0.56,1.32-1.07
					c0.33-0.41,0.89-0.56,1.39-0.39c0.5,0.18,0.83,0.65,0.83,1.18V264.75z"/>
				<path class="st0" d="M45,256.25H33.5c-0.55,0-1,0.45-1,1v14c0,0.55,0.45,1,1,1H45c0.28,0,0.5-0.22,0.5-0.5v-15
					C45.5,256.47,45.28,256.25,45,256.25z M41.5,269.27h-5c-0.51,0-0.96-0.3-1.16-0.77c-0.19-0.47-0.09-1,0.27-1.36
					c0.26-0.26,0.64-0.59,1.07-0.97c1-0.87,3.35-2.91,3.22-3.87c-0.08-0.61-0.94-0.58-0.97-0.57c-0.19,0.01-0.81,0.08-0.83,0.62
					c-0.02,0.69-0.62,1.22-1.29,1.21c-0.69-0.02-1.23-0.6-1.21-1.29c0.06-1.69,1.37-2.94,3.19-3.03c1.82-0.11,3.35,1.05,3.58,2.72
					c0.24,1.73-1.14,3.41-2.62,4.82h1.74c0.69,0,1.25,0.56,1.25,1.25C42.75,268.71,42.19,269.27,41.5,269.27z M45,250.75H32.5
					c-0.55,0-1,0.45-1,1v1c0,0.55,0.45,1,1,1H45c0.28,0,0.5-0.22,0.5-0.5v-2C45.5,250.97,45.28,250.75,45,250.75z M76.5,250.75H64
					c-0.28,0-0.5,0.22-0.5,0.5v2c0,0.28,0.22,0.5,0.5,0.5h12.5c0.55,0,1-0.45,1-1v-1C77.5,251.2,77.05,250.75,76.5,250.75z
					 M75.5,256.25H64c-0.28,0-0.5,0.22-0.5,0.5v15c0,0.28,0.22,0.5,0.5,0.5h11.5c0.55,0,1-0.45,1-1v-14
					C76.5,256.7,76.05,256.25,75.5,256.25z M73.04,267.75c-0.71,0.96-1.96,1.53-3.26,1.53c-0.25,0-0.5-0.02-0.75-0.06
					c-1.35-0.23-2.38-1.09-2.75-2.29c-0.2-0.66,0.17-1.36,0.83-1.56c0.66-0.2,1.36,0.17,1.56,0.83c0.11,0.37,0.49,0.51,0.78,0.56
					c0.61,0.11,1.3-0.11,1.57-0.49c0.36-0.48,0.27-1,0.09-1.3c-0.14-0.23-0.42-0.47-0.93-0.39c-0.5,0.08-1.01-0.15-1.27-0.58
					c-0.26-0.44-0.24-0.99,0.07-1.4l0.64-0.86h-1.43c-0.69,0-1.25-0.56-1.25-1.25s0.56-1.25,1.25-1.25h3.93
					c0.47,0,0.91,0.27,1.12,0.69c0.21,0.42,0.17,0.93-0.12,1.31l-0.98,1.31c0.44,0.27,0.82,0.65,1.11,1.12
					C74.02,264.92,73.94,266.53,73.04,267.75z"/>
			</g>
		</g>
	</g>
	<g>
		<g>
			<path class="st0" d="M404,207h-19c-0.28,0-0.5,0.22-0.5,0.5v2.5c0,0.28,0.22,0.5,0.5,0.5h19c0.28,0,0.5-0.22,0.5-0.5v-2.5
				C404.5,207.22,404.28,207,404,207z M404,170.5h-19c-0.28,0-0.5,0.22-0.5,0.5v2.5c0,0.28,0.22,0.5,0.5,0.5h19
				c0.28,0,0.5-0.22,0.5-0.5V171C404.5,170.72,404.28,170.5,404,170.5z"/>
			<path class="st0" d="M403.5,182.5v-6h-18v6c0,3.49,1.99,6.51,4.89,8c-2.9,1.49-4.89,4.51-4.89,8v6h18v-6c0-3.49-1.99-6.51-4.89-8
				C401.51,189.01,403.5,185.99,403.5,182.5z M388.11,183.36c0-0.69,0.56-1.25,1.25-1.25c0.69,0,1.25,0.56,1.25,1.25
				c0,2.15,1.75,3.89,3.89,3.89c0.69,0,1.25,0.56,1.25,1.25s-0.56,1.25-1.25,1.25C390.98,189.75,388.11,186.88,388.11,183.36z
				 M400.5,198.5v2.48l-4.83-3.49c-0.35-0.25-0.76-0.38-1.17-0.38s-0.82,0.13-1.17,0.38l-4.83,3.49v-2.48c0-3.31,2.69-6,6-6
				S400.5,195.19,400.5,198.5z"/>
		</g>
	</g>
	<g>
		<g>
			<g>
				<path class="st0" d="M330.75,183.91v-3.66h1.5c0.28,0,0.5-0.22,0.5-0.5v-4c0-0.28-0.22-0.5-0.5-0.5h-11.5
					c-0.28,0-0.5,0.22-0.5,0.5v4c0,0.28,0.22,0.5,0.5,0.5h1.5v3.66c-5.65,1.8-9.75,7.09-9.75,13.34c0,7.73,6.27,14,14,14
					s14-6.27,14-14C340.5,191,336.4,185.71,330.75,183.91z M326.5,187c3.69,0,7.11,2,8.93,5.21c0.34,0.6,0.13,1.36-0.47,1.7
					c-0.2,0.11-0.41,0.16-0.62,0.16c-0.44,0-0.86-0.23-1.09-0.63c-1.38-2.43-3.96-3.94-6.75-3.94c-0.69,0-1.25-0.56-1.25-1.25
					S325.81,187,326.5,187z M324.57,208.08c-4.2-0.72-7.65-3.94-8.71-8.07c-0.51-1.99-0.45-3.9,0.04-5.64
					c0.16-0.59,0.83-0.9,1.39-0.64c4.51,2.11,6,7.02,12.8,7.02c2.34,0,4.05-0.59,5.47-1.44c0.76-0.46,1.72,0.26,1.47,1.11
					C335.48,205.52,330.35,209.07,324.57,208.08z"/>
				<path class="st0" d="M329.25,169.75h-5.5c-0.28,0-0.5,0.22-0.5,0.5v2c0,0.28,0.22,0.5,0.5,0.5h5.5c0.28,0,0.5-0.22,0.5-0.5v-2
					C329.75,169.97,329.53,169.75,329.25,169.75z"/>
			</g>
		</g>
	</g>
	<g>
		<g>
			<g>
				<path class="st0" d="M261.77,180.24l-1.89-0.27l-0.85-1.71c-0.29-0.59-0.77-0.59-1.06,0l-0.85,1.71l-1.89,0.27
					c-0.65,0.1-0.8,0.55-0.33,1.01l1.37,1.33l-0.32,1.88c-0.11,0.65,0.27,0.93,0.86,0.62l1.69-0.89l1.69,0.89
					c0.58,0.31,0.97,0.03,0.86-0.62l-0.32-1.88l1.37-1.33C262.56,180.79,262.42,180.34,261.77,180.24z"/>
				<path class="st0" d="M273.78,174.72h-5.66v-2.76h-19.25v2.76h-5.66c-0.53,0-0.97,0.43-0.97,0.97v5.19
					c0,2.97,2.41,5.38,5.38,5.38h1.94c0.76,1.73,2.06,3.32,3.48,4.47l0.42,0.34c1.28,1.04,2.02,2.6,2.02,4.24v2.23h6v-2.55
					c0-1.45,0.65-2.82,1.78-3.73l0.67-0.54c1.42-1.15,2.72-2.74,3.48-4.47h1.94c2.97,0,5.38-2.41,5.38-5.38v-5.19
					C274.75,175.15,274.32,174.72,273.78,174.72z M247.63,183.75c-1.59,0-2.88-1.29-2.88-2.88v-3.66h4.13v5.97
					c0,0.19,0.03,0.38,0.05,0.57H247.63z M261.79,186.72c-5.78,3.12-11.62-2.71-8.5-8.5c0.44-0.81,1.11-1.49,1.93-1.92
					c5.78-3.12,11.61,2.72,8.5,8.5C263.28,185.61,262.6,186.29,261.79,186.72z M272.25,180.87c0,1.59-1.29,2.88-2.88,2.88h-1.3
					c0.02-0.19,0.05-0.38,0.05-0.57v-5.97h4.13V180.87z M268.5,206.04h-2v-3.22c0-1.54-1.25-2.78-2.78-2.78h-10.44
					c-1.54,0-2.78,1.25-2.78,2.78v3.22h-2v3h20V206.04z M262.94,203.04v2h-8.89v-2H262.94z"/>
			</g>
		</g>
	</g>
	<g>
		<g>
			<path class="st0" d="M190.23,170.7c-7.88,0.14-14.04,6.9-14.04,14.78v17.36c0,2.26,3.13,2.83,3.93,0.72
				c0.79-2.1,1.67-3.95,3.23-3.95c3.58,0,3.58,5.05,7.16,5.05c3.58,0,3.58-5.05,7.15-5.05c1.55,0,2.43,1.85,3.22,3.94
				c0.8,2.11,3.93,1.53,3.93-0.72l0-17.82C204.81,177.01,198.26,170.55,190.23,170.7z M187.77,186.79c0,1.22-1,2.21-2.21,2.21
				c-1.22,0-2.21-1-2.21-2.21v-2.7c0-1.22,1-2.21,2.21-2.21c1.22,0,2.21,1,2.21,2.21V186.79z M197.66,186.79
				c0,1.22-1,2.21-2.21,2.21s-2.21-1-2.21-2.21v-2.7c0-1.22,1-2.21,2.21-2.21s2.21,1,2.21,2.21V186.79z"/>
			<path class="st0" d="M197.66,207.3h-14.32c-0.83,0-1.5,0.67-1.5,1.5c0,0.83,0.67,1.5,1.5,1.5h14.32c0.83,0,1.5-0.67,1.5-1.5
				C199.16,207.98,198.49,207.3,197.66,207.3z"/>
		</g>
	</g>
	<g>
		<g>
			<path class="st0" d="M126.75,170.23c-0.87-0.55-2.35-0.01-3.6,1.18c-0.61,0.58-1.54,0.58-2.14,0c-1.25-1.19-2.72-1.71-3.6-1.18
				c-2.91,1.76,1.01,7.9,1.37,8.25h6.6C125.74,178.13,129.5,171.99,126.75,170.23z"/>
			<path class="st0" d="M131.34,177.17c1.73,0.69,2.55,1.51,3.24,3.24c0.2,0.49,0.91,0.49,1.1,0c0.69-1.73,1.51-2.55,3.24-3.24
				c0.49-0.2,0.49-0.91,0-1.1c-1.73-0.69-2.55-1.51-3.24-3.24c-0.2-0.49-0.91-0.49-1.1,0c-0.69,1.73-1.51,2.55-3.24,3.24
				C130.85,176.26,130.85,176.97,131.34,177.17z M138.58,204.7l-0.1-0.01c0.01-0.51,0.02-1.05,0.02-1.69c0-15.12-8-20-13.33-22
				h-5.71c-4.96,2-12.96,5.88-12.96,22c0,0.63,0.01,1.19,0.02,1.69l-0.1,0.02c-1.1,0.17-1.92,1.12-1.92,2.24
				c0,1.17,0.89,2.14,2.05,2.25l4.39,0.24c2.91,0.96,7.01,1.57,11.56,1.57s8.65-0.6,11.56-1.57l4.39-0.24
				c1.16-0.11,2.05-1.09,2.05-2.25C140.5,205.82,139.68,204.87,138.58,204.7z M129.38,195.03l-6.13,7.09c-0.4,0.46-1.11,0.46-1.51,0
				l-6.13-7.09c-0.32-0.37-0.32-0.93,0-1.3l2.54-2.97c0.19-0.22,0.47-0.35,0.76-0.35h7.17c0.29,0,0.57,0.13,0.76,0.35l2.54,2.97
				C129.71,194.1,129.71,194.65,129.38,195.03z M106.75,180.33c1.07,0.43,1.58,0.94,2.01,2.01c0.12,0.3,0.56,0.3,0.68,0
				c0.43-1.07,0.94-1.58,2.01-2.01c0.3-0.12,0.3-0.56,0-0.68c-1.07-0.43-1.58-0.94-2.01-2.01c-0.12-0.3-0.56-0.3-0.68,0
				c-0.43,1.07-0.94,1.58-2.01,2.01C106.44,179.77,106.44,180.21,106.75,180.33z"/>
		</g>
	</g>
	<g>
		<g>
			<path class="st0" d="M45.35,175.71c-2.58-0.84-3.42-1.68-4.26-4.26c-0.06-0.19-0.32-0.19-0.38,0c-0.84,2.58-1.68,3.42-4.26,4.26
				c-0.19,0.06-0.19,0.32,0,0.38c2.58,0.84,3.42,1.68,4.26,4.26c0.06,0.18,0.32,0.18,0.38,0c0.84-2.58,1.68-3.42,4.26-4.26
				C45.53,176.02,45.53,175.77,45.35,175.71z"/>
			<path class="st0" d="M72.09,187.99l-6.31-7.37c-0.47-0.55-1.16-0.87-1.89-0.87H46.1c-0.73,0-1.41,0.32-1.89,0.87l-6.31,7.37
				c-0.8,0.93-0.8,2.31,0.01,3.24l15.21,17.6c0.99,1.15,2.77,1.15,3.76,0l15.21-17.6C72.89,190.3,72.89,188.93,72.09,187.99z
				 M49.56,194.95c-0.08,0.26-0.45,0.26-0.53,0c-1.18-3.62-2.35-4.79-5.97-5.97c-0.26-0.08-0.26-0.45,0-0.53
				c3.62-1.18,4.79-2.35,5.97-5.97c0.08-0.26,0.45-0.26,0.53,0c1.18,3.62,2.35,4.79,5.97,5.97c0.26,0.08,0.26,0.45,0,0.53
				C51.91,190.16,50.75,191.33,49.56,194.95z M61.14,195.84c-1.76,0.57-2.32,1.14-2.9,2.9c-0.04,0.13-0.22,0.13-0.26,0
				c-0.57-1.76-1.14-2.32-2.9-2.9c-0.13-0.04-0.13-0.22,0-0.26c1.76-0.57,2.32-1.14,2.9-2.9c0.04-0.13,0.22-0.13,0.26,0
				c0.57,1.76,1.14,2.32,2.9,2.9C61.27,195.62,61.27,195.8,61.14,195.84z"/>
		</g>
	</g>
	<g>
		<g>
			<g>
				<g>
					<g>
						<path class="st0" d="M406.65,111.13c-0.72-1.73-0.14-4.38-1.44-5.68c-1.3-1.3-3.95-0.72-5.68-1.44c-1.67-0.69-3.11-3-5.03-3
							c-1.92,0-3.36,2.31-5.03,3c-1.73,0.72-4.38,0.14-5.68,1.44c-1.3,1.3-0.72,3.95-1.44,5.68c-0.69,1.67-3,3.11-3,5.03
							c0,1.92,2.31,3.36,3,5.03c0.72,1.73,0.14,4.38,1.44,5.68c1.3,1.3,3.95,0.72,5.68,1.44c1.67,0.69,3.11,3,5.03,3
							c1.92,0,3.36-2.31,5.03-3c1.73-0.72,4.38-0.14,5.68-1.44c1.3-1.3,0.72-3.95,1.44-5.68c0.69-1.67,3-3.11,3-5.03
							C409.65,114.24,407.34,112.8,406.65,111.13z M394.5,124.68c-4.71,0-8.52-3.81-8.52-8.52c0-4.71,3.81-8.52,8.52-8.52
							c4.71,0,8.52,3.81,8.52,8.52C403.02,120.87,399.21,124.68,394.5,124.68z"/>
						<path class="st0" d="M391.58,117.57l-0.42,2.47c-0.15,0.85,0.36,1.22,1.12,0.82l2.22-1.17l2.22,1.17
							c0.77,0.4,1.27,0.04,1.12-0.82l-0.42-2.47l1.8-1.75c0.62-0.6,0.43-1.2-0.43-1.32l-2.48-0.36l-1.11-2.25
							c-0.38-0.78-1.01-0.78-1.39,0l-1.11,2.25l-2.48,0.36c-0.86,0.13-1.05,0.72-0.43,1.32L391.58,117.57z M404.46,142.48
							l-1.73-12.17c-0.19,0.02-0.38,0.04-0.56,0.05c-0.62,0.06-1.33,0.12-1.68,0.27c-0.31,0.13-0.82,0.57-1.28,0.95
							c-1.11,0.94-2.64,2.24-4.71,2.24c-2.07,0-3.59-1.29-4.71-2.24c-0.46-0.39-0.97-0.82-1.28-0.95c-0.35-0.15-1.06-0.21-1.68-0.27
							c-0.12-0.01-0.25-0.02-0.38-0.04l-1.88,12.44c-0.13,0.85,0.76,1.49,1.53,1.1l8.02-4.14c0.3-0.15,0.65-0.16,0.95-0.01
							l7.87,3.86C403.71,143.95,404.58,143.32,404.46,142.48z"/>
					</g>
				</g>
			</g>
		</g>
	</g>
	<g>
		<g>
			<path class="st0" d="M346.13,138.62l-1.8-5.4c-0.1-0.31-0.07-0.64,0.08-0.93c1.35-2.63,1.91-5.73,1.33-9
				c-0.9-5.01-4.57-9.18-9.33-10.78c1.23,2.97,1.6,6.27,0.99,9.54c-1.25,6.65-6.57,11.93-13.25,13.12
				c-0.86,0.16-1.74,0.23-2.61,0.25c2.03,2.19,4.74,3.74,7.76,4.29c3.25,0.58,6.34,0.04,8.96-1.29c0.29-0.15,0.62-0.18,0.92-0.08
				l5.42,1.81C345.55,140.47,346.45,139.57,346.13,138.62z"/>
			<path class="st0" d="M318.41,105.03c-5.63,1.05-10.14,5.62-11.15,11.26c-0.59,3.27-0.03,6.37,1.33,9
				c0.15,0.29,0.18,0.62,0.08,0.93l-1.8,5.4c-0.32,0.95,0.59,1.85,1.54,1.54l5.42-1.81c0.31-0.1,0.63-0.07,0.92,0.08
				c2.62,1.33,5.71,1.87,8.96,1.29c5.62-1.01,10.19-5.51,11.24-11.12C336.8,111.7,328.3,103.2,318.41,105.03z M322,123.25h-7
				c-0.69,0-1.25-0.56-1.25-1.25c0-0.69,0.56-1.25,1.25-1.25h7c0.69,0,1.25,0.56,1.25,1.25C323.25,122.69,322.69,123.25,322,123.25z
				 M327,118.25h-12c-0.69,0-1.25-0.56-1.25-1.25c0-0.69,0.56-1.25,1.25-1.25h12c0.69,0,1.25,0.56,1.25,1.25
				C328.25,117.69,327.69,118.25,327,118.25z"/>
		</g>
	</g>
	<g>
		<g>
			<g>
				<path class="st0" d="M258.5,102.5c-4.43,0-8.01,3.59-8.01,8.01c0,4.43,3.59,8.01,8.01,8.01c4.43,0,8.01-3.59,8.01-8.01
					C266.51,106.09,262.93,102.5,258.5,102.5z M256.5,111c-1.1,0-2-0.9-2-2s0.9-2,2-2c1.1,0,2,0.9,2,2S257.6,111,256.5,111z"/>
				<path class="st0" d="M272.62,136.65l-2.24-2.24c-0.56-0.56-1.33-0.88-2.12-0.88h-5.19l-0.45-3.14
					c-0.07-0.49-0.49-0.86-0.99-0.86H261v-8.81c-0.8,0.2-1.64,0.31-2.5,0.31s-1.7-0.12-2.5-0.31v8.81h-0.63
					c-0.5,0-0.92,0.37-0.99,0.86l-0.45,3.14h-5.19c-0.8,0-1.56,0.32-2.12,0.88l-2.24,2.24c-0.56,0.56-0.88,1.33-0.88,2.12v1.73
					c0,1.1,0.9,2,2,2h26c1.1,0,2-0.9,2-2v-1.73C273.5,137.98,273.18,137.21,272.62,136.65z"/>
			</g>
		</g>
	</g>
	<g>
		<g>
			<path class="st0" d="M206.96,114.38c-1.12,0.49-2.12,0.92-3.44,1.29c-0.7,0.2-0.94,1.04-0.52,1.63c0.94,1.31,1.36,3.02,0.92,4.84
				c-0.52,2.16-2.29,3.88-4.46,4.34c-3.83,0.8-7.2-2.1-7.2-5.78l0-0.68c0-0.56,0.17-1.09,0.46-1.55c1.64-0.82,2.78-2.5,2.78-4.46
				c0-1.67-0.83-3.14-2.09-4.05c-0.21-1.66-1.11-3.68-1.86-5.13c-0.44-0.86-1.67-0.86-2.11,0c-0.74,1.45-1.65,3.47-1.86,5.13
				c-1.26,0.91-2.09,2.38-2.09,4.05c0,1.87,1.04,3.48,2.56,4.34c0.2,0.28,0.38,0.59,0.46,0.93c0.24,0.93,0.25,1.94-0.03,3
				c-0.57,2.11-2.33,3.78-4.47,4.21c-3.81,0.77-7.15-2.12-7.15-5.79c0-1.38,0.47-2.64,1.26-3.64c0.45-0.58,0.14-1.44-0.57-1.63
				c-1.26-0.34-2.46-0.72-3.59-1.15c-0.76-0.29-1.54,0.37-1.39,1.17l2.95,16.21c0.09,0.5,0.53,0.87,1.04,0.87h9.39
				c0.1-0.31,0.25-0.61,0.44-0.89l1.4-1.99c0.62-0.87,1.63-1.4,2.7-1.4c1.07,0,2.08,0.52,2.7,1.4l1.4,1.99
				c0.2,0.28,0.34,0.58,0.44,0.89h9.4c0.51,0,0.95-0.36,1.04-0.87l2.93-16.13C208.57,114.7,207.73,114.04,206.96,114.38z
				 M190.5,116.01c-1.1,0-2-0.9-2-2c0-1.1,0.9-2,2-2s2,0.9,2,2C192.5,115.11,191.6,116.01,190.5,116.01z"/>
			<path class="st0" d="M189.84,136c0.16,0.23,0.41,0.34,0.66,0.34s0.5-0.11,0.66-0.34l1.4-1.99c0.2-0.28,0.2-0.65,0-0.93l-1.4-1.99
				c-0.16-0.23-0.41-0.34-0.66-0.34s-0.5,0.11-0.66,0.34l-1.4,1.99c-0.2,0.28-0.2,0.65,0,0.93L189.84,136z M204.32,135.03h-9.47
				c-0.07,0.15-0.16,0.29-0.25,0.43l-1.4,1.99c-0.62,0.87-1.63,1.4-2.7,1.4c-1.07,0-2.08-0.52-2.7-1.4l-1.4-1.99
				c-0.1-0.14-0.18-0.28-0.25-0.43h-9.47c-0.55,0-1,0.45-1,1v3.79c0,0.55,0.45,1,1,1h27.64c0.55,0,1-0.45,1-1v-3.79
				C205.32,135.48,204.87,135.03,204.32,135.03z"/>
		</g>
	</g>
	<g>
		<g>
			<path class="st0" d="M138.96,110.45c-6.43-0.8-12.62-5.61-15.2-7.85c-0.72-0.63-1.8-0.63-2.53,0c-2.58,2.25-8.77,7.06-15.2,7.85
				c-1.02,0.13-1.79,0.99-1.74,2.02c0.79,19.54,13.64,28.12,17.26,30.15c0.59,0.33,1.3,0.33,1.89,0
				c3.62-2.04,16.47-10.61,17.26-30.15C140.75,111.44,139.98,110.58,138.96,110.45z M122.5,132.19c-5.35,0-9.69-4.34-9.69-9.69
				c0-5.35,4.34-9.69,9.69-9.69s9.69,4.34,9.69,9.69C132.19,127.85,127.85,132.19,122.5,132.19z"/>
			<path class="st0" d="M127.79,120.44l-3.07-0.45l-1.37-2.78c-0.47-0.96-1.24-0.96-1.72,0l-1.37,2.78l-3.07,0.45
				c-1.06,0.15-1.3,0.89-0.53,1.63l2.22,2.16l-0.52,3.05c-0.18,1.06,0.44,1.51,1.39,1.01l2.74-1.44l2.74,1.44
				c0.95,0.5,1.57,0.05,1.39-1.01l-0.52-3.05l2.22-2.16C129.09,121.33,128.85,120.6,127.79,120.44z"/>
		</g>
	</g>
	<g>
		<g>
			<path class="st0" d="M76.02,132.55c0,0-1.66-11.42-1.91-12.82c-0.96-5.22-3.81-8.75-8.61-9v-0.02h-22v0.02
				c-4.79,0.25-7.65,2.83-8.61,9c-0.22,1.41-1.91,12.82-1.91,12.82l0.02,0.01c-0.01,0.15-0.02,0.31-0.02,0.47
				c0,3.41,2.78,6.18,6.22,6.18c2.2,0,4.13-1.14,5.24-2.86l0.02,0.01l3.49-5.73c0.35-0.57,0.97-0.92,1.63-0.92h9.84
				c0.67,0,1.29,0.35,1.63,0.92l3.49,5.73l0.02-0.01c1.1,1.72,3.04,2.86,5.24,2.86c3.43,0,6.22-2.76,6.22-6.18
				c0-0.16-0.01-0.31-0.02-0.47L76.02,132.55z M63.5,114.7c1.1,0,2,0.9,2,2c0,1.1-0.9,2-2,2s-2-0.9-2-2
				C61.5,115.6,62.4,114.7,63.5,114.7z M48.5,122.7h-1v1c0,1.1-0.9,2-2,2s-2-0.9-2-2v-1h-1c-1.1,0-2-0.9-2-2c0-1.1,0.9-2,2-2h1v-1
				c0-1.1,0.9-2,2-2s2,0.9,2,2v1h1c1.1,0,2,0.9,2,2C50.5,121.81,49.6,122.7,48.5,122.7z M59.5,122.7c-1.1,0-2-0.9-2-2
				c0-1.1,0.9-2,2-2s2,0.9,2,2C61.5,121.81,60.6,122.7,59.5,122.7z M63.5,126.7c-1.1,0-2-0.9-2-2c0-1.1,0.9-2,2-2s2,0.9,2,2
				C65.5,125.81,64.6,126.7,63.5,126.7z M67.5,122.7c-1.1,0-2-0.9-2-2c0-1.1,0.9-2,2-2s2,0.9,2,2C69.5,121.81,68.6,122.7,67.5,122.7
				z"/>
			<path class="st0" d="M49,105.8h-5c-0.69,0-1.25,0.56-1.25,1.25s0.56,1.25,1.25,1.25h5c0.69,0,1.25-0.56,1.25-1.25
				S49.69,105.8,49,105.8z M65,105.8h-5c-0.69,0-1.25,0.56-1.25,1.25s0.56,1.25,1.25,1.25h5c0.69,0,1.25-0.56,1.25-1.25
				S65.69,105.8,65,105.8z"/>
		</g>
	</g>
</g>
<g id="title">
</g>
</svg>
