<?xml version="1.0" encoding="utf-8"?>
<!-- Generator: Adobe Illustrator 24.1.1, SVG Export Plug-In . SVG Version: 6.00 Build 0)  -->
<svg version="1.1" id="레이어_1" xmlns="http://www.w3.org/2000/svg" x="0px"
     y="0px" viewBox="0 0 600 300" style="enable-background:new 0 0 600 300;" xml:space="preserve">
<style type="text/css">
	.st0{fill:#FFFFFF;}
</style>
<g>
	<g id="_x34_04_ERROR">
		<g>
			<path class="st0" d="M184.83,197.06c-1.39-0.01-2.53,1.11-2.54,2.5c-0.01,1.39,1.11,2.53,2.5,2.54c1.39,0.01,2.53-1.11,2.54-2.5
				C187.33,198.21,186.22,197.07,184.83,197.06z"/>
			<path class="st0" d="M186.37,127.5c0.78,0.01,1.42-0.62,1.43-1.4s-0.62-1.42-1.4-1.43c-0.78-0.01-1.42,0.62-1.43,1.4
				C184.96,126.85,185.58,127.49,186.37,127.5z"/>
			<path class="st0" d="M394.44,218.1"/>
			<path class="st0" d="M297.98,113.32c-2.55,0-4.63,2.07-4.63,4.62c0,2.55,2.07,4.62,4.63,4.62c2.55,0,4.62-2.07,4.62-4.62
				C302.6,115.39,300.53,113.32,297.98,113.32z"/>
			<path class="st0" d="M220.69,60.08c0-1.42-1.15-2.56-2.56-2.56c-1.42,0-2.56,1.15-2.56,2.56c0,1.42,1.15,2.56,2.56,2.56
				C219.54,62.64,220.69,61.49,220.69,60.08z"/>
			<path class="st0" d="M228.26,222.72c0-1.41-1.15-2.56-2.56-2.56c-1.42,0-2.56,1.15-2.56,2.56c0,1.42,1.15,2.56,2.56,2.56
				C227.12,225.28,228.26,224.14,228.26,222.72z"/>
			<path class="st0" d="M44.5,217.6c-1.42,0-2.56,1.15-2.56,2.56c0,1.42,1.15,2.56,2.56,2.56c1.41,0,2.56-1.15,2.56-2.56
				C47.06,218.74,45.91,217.6,44.5,217.6z"/>
			<path class="st0" d="M223.25,15.22c1.41,0,2.56-1.15,2.56-2.56c0-1.42-1.15-2.56-2.56-2.56c-1.42,0-2.56,1.15-2.56,2.56
				C220.69,14.07,221.83,15.22,223.25,15.22z"/>
			<path class="st0" d="M392.38,185.99c0-1.41-1.15-2.56-2.56-2.56c-1.42,0-2.56,1.15-2.56,2.56c0,1.42,1.15,2.56,2.56,2.56
				C391.23,188.55,392.38,187.41,392.38,185.99z"/>
			<path class="st0" d="M295.41,140.22c-1.42,0-2.56,1.15-2.56,2.56c0,1.42,1.15,2.56,2.56,2.56c1.41,0,2.56-1.15,2.56-2.56
				S296.83,140.22,295.41,140.22z"/>
			<path class="st0" d="M528.35,110.44c5.26,0,9.52-4.26,9.52-9.52s-4.26-9.52-9.52-9.52c-5.26,0-9.52,4.26-9.52,9.52
				S523.09,110.44,528.35,110.44z"/>
			<path class="st0" d="M505.51,98.53c0,1.76,1.43,3.19,3.19,3.19c1.76,0,3.19-1.43,3.19-3.19s-1.43-3.19-3.19-3.19
				C506.94,95.34,505.51,96.77,505.51,98.53z"/>
			<path class="st0" d="M566.12,180.54c-1.83-0.92-3.88-0.92-5.63-0.18c-2.17-0.77-3.72-2.92-3.88-5.46
				c0.39-0.53,0.63-1.18,0.63-1.89c0-1.76-1.43-3.19-3.19-3.19s-3.19,1.43-3.19,3.19s1.43,3.19,3.19,3.19c0.17,0,0.34-0.02,0.5-0.04
				c1.96,1.09,3.21,3.44,2.97,6.03c-0.03,0.31-0.08,0.62-0.15,0.92c-0.08,0.13-0.16,0.26-0.23,0.4c-0.25,0.49-0.42,1-0.54,1.52
				c-0.06,0.28-0.11,0.55-0.14,0.83c-0.26,2.67,1.1,5.35,3.63,6.63c3.3,1.66,7.31,0.34,8.98-2.96
				C570.74,186.22,569.42,182.2,566.12,180.54z"/>
			<path class="st0" d="M521.57,262.63c-1.76,0-3.19,1.43-3.19,3.19c0,1.76,1.43,3.19,3.19,3.19c1.76,0,3.19-1.43,3.19-3.19
				C524.76,264.06,523.33,262.63,521.57,262.63z"/>
			<circle class="st0" cx="52.68" cy="140.88" r="3.19"/>
			<ellipse class="st0" cx="132.32" cy="23.29" rx="6.82" ry="6.82"/>
			<path class="st0" d="M334,222c-0.15-0.59,23.77-6.59,23.49-7.13c-1.24-2.74-2.04-4.96-2.52-6.77
				c17.3-15.46,28.8-37.29,30.82-61.8c9.78,1.81,18.59,8.08,23.27,17.72c0.76,1.56,1.38,3.15,1.87,4.76l-0.37,0.85
				c-1.59,3.45-2.66,8.23-2.66,9.3c0,2.77,0.65,5.45,1.84,7.86c-1.37,4.93-5.97,8.45-11.27,8.21c-0.71-0.03-1.4-0.14-2.06-0.3
				c-0.93-0.39-1.94-0.63-3.01-0.68c-4.85-0.22-8.97,3.53-9.19,8.38c-0.22,4.85,3.53,8.97,8.38,9.19c4.72,0.21,8.74-3.33,9.16-7.99
				c0.02,0.01,0.03,0.02,0.05,0.03c-0.01-0.29-0.01-0.58,0-0.87c0.27-6,5.36-10.64,11.36-10.36c0.35,0.02,0.69,0.05,1.03,0.1
				c3.24,2.77,7.55,4.49,12.58,4.49h58.44v21.78c0,9.56,7.97,16.74,18.33,16.74c1.3,0,2.56-0.11,3.78-0.33
				c4.61,1.43,7.5,6.1,6.56,10.91c-0.12,0.61-0.3,1.19-0.52,1.75c-0.43,0.73-0.76,1.53-0.93,2.41c-0.79,4.06,1.86,8,5.93,8.79
				c4.06,0.79,8-1.86,8.79-5.93c0.77-3.95-1.72-7.77-5.6-8.71c0.01-0.01,0.02-0.03,0.04-0.04c-0.24-0.03-0.49-0.06-0.73-0.11
				c-5.02-0.98-8.3-5.84-7.32-10.86c0.03-0.17,0.08-0.34,0.12-0.51c5.01-2.92,8.23-8.03,8.23-14.11v-15.81
				c4.09-11.73,10.7-13.76,12.54-14.1c1.4-0.13,2.8-0.52,4.12-1.22c5.43-2.84,7.53-9.55,4.69-14.98c-1.6-3.05-4.42-5.05-7.55-5.72
				c-3.92-1.03-6.92-2.09-9.22-3.13c-8.08-0.17-14.57-6.77-14.57-14.89c0-6.51,4.17-12.03,9.98-14.06v-11.73
				c0-9.56-8.5-16.74-18.33-16.74c-10.36,0-18.33,7.17-18.33,16.74v40.64h-6.95c-0.7,1.03-1.43,2.8-2.09,5.74
				c0.07,1.85-0.82,3.6-2.45,4.46c-2.34,1.22-5.31,0.14-6.64-2.41c-0.48-0.92-0.68-1.9-0.63-2.84c-0.21-0.85-1.07-3.08-4.39-4.95
				H452c12.65-29.23,23.34-53.28,35.29-80.66c2.33,1.27,5.29,1.07,7.46-0.73c1.58-1.31,2.39-3.19,2.41-5.09
				c1.57-1.69,4.16-2.24,6.56-1.38c0.33,0.57,0.83,1.05,1.48,1.33c1.61,0.7,3.49-0.04,4.19-1.65c0.7-1.61-0.04-3.49-1.65-4.19
				c-1.61-0.7-3.49,0.04-4.19,1.65c-0.07,0.16-0.12,0.32-0.16,0.48c-1.78,1.37-4.43,1.57-6.72,0.32c-0.28-0.15-0.54-0.32-0.78-0.5
				c-0.09-0.12-0.18-0.25-0.27-0.37c-0.35-0.42-0.75-0.79-1.17-1.1c-0.23-0.17-0.46-0.32-0.71-0.46c-0.36-0.2-0.74-0.37-1.14-0.5
				c0.66-1.52,1.32-3.04,1.99-4.59c0.19-0.44,0.38-0.88,0.57-1.32c0.05-0.11,0.1-0.22,0.14-0.33c1.06-2.39,1.06-4.25,1.06-5.84
				c0-0.86-0.08-1.71-0.23-2.54c0.6-1.02,1.24-1.55,1.53-1.76c0.59-0.37,1.13-0.84,1.57-1.44c1.86-2.51,1.34-6.05-1.17-7.91
				c-1.41-1.04-3.14-1.34-4.71-0.95c-2.14,0.42-3.82,0.6-5.14,0.62c-1.26-0.85-2.61-1.56-4.02-2.1c-0.22-0.08-0.44-0.16-0.66-0.24
				c-1.79-0.61-3.65-0.95-5.5-0.95c-6.91,0-13.81,3.98-16.47,10.36l-19.63,45.3c-8.6,1.77-17.48-2.93-20.73-11.43
				c-0.42-1.11-1.32-3.08-2.13-5.08c-0.19-1.93-0.74-3.75-1.57-5.41c0,0,0,0,0,0l0,0c-2.57-5.14-7.88-8.67-14.02-8.67
				c-8.47,0-15.36,6.71-15.66,15.11c-0.01-0.01-0.03-0.02-0.04-0.03c-0.03,0.41-0.07,0.82-0.14,1.23
				c-1.02,6.47-5.92,11.37-11.95,12.7c-15.53-29.93-46.79-50.38-82.83-50.38c-16.31,0-31.63,4.19-44.97,11.54
				c-1.75,0.68-3.65,1.06-5.65,1.06c-8.56,0-15.51-6.9-15.51-15.41c0-0.98,0.1-1.93,0.28-2.86c0.48-1.31,0.75-2.72,0.75-4.2
				c0-6.7-5.43-12.13-12.13-12.13c-6.7,0-12.13,5.43-12.13,12.13c0,6.52,5.14,11.83,11.58,12.12c-0.01,0.02-0.02,0.04-0.04,0.07
				c0.4-0.03,0.8-0.05,1.2-0.05c8.28,0,15,6.71,15,15c0,3.05-0.91,5.88-2.47,8.25c-16.54,15.66-27.35,37.31-28.95,61.47
				c-2.11,3.01-6.15,4.11-9.51,2.41c-0.44-0.22-0.84-0.48-1.21-0.77c-0.46-0.48-1-0.9-1.63-1.22c-2.59-1.31-5.67-0.52-7.36,1.71
				c-0.03-0.03-0.05-0.06-0.08-0.1c-0.08,0.2-0.17,0.41-0.27,0.61c-0.03,0.05-0.06,0.1-0.09,0.15c-2.09,3.92-7.38,5.28-12.12,3.17
				v-21.26c0-9.56-8.5-16.74-18.33-16.74c-2.31,0-4.49,0.36-6.5,1.01c-6.48-2.1-11.8-6.84-14.7-12.98
				c4.17-9.51,8.44-19.29,12.96-29.74c1.06-2.39,1.06-4.25,1.06-5.84c0-3.08-1.03-6.01-2.72-8.56c1.32-0.1,2.37-1.2,2.37-2.55
				c0-1.42-1.15-2.56-2.56-2.56c-1.19,0-2.19,0.82-2.48,1.92c-3.49-3.37-8.25-5.52-12.94-5.52c-6.91,0-13.81,3.98-16.47,10.36
				L98.2,66.7c-3.38,1.31-5.76,0.82-6.57,0.58c-0.97-0.38-2.03-0.59-3.13-0.58c-4.62,0.03-8.34,3.74-8.31,8.27
				c0.02,2.55,1.22,4.82,3.09,6.32c2.62,2.32,4.42,4.24,5.62,5.84c4.58,0.94,8.03,4.99,8.03,9.85c0,5.55-4.5,10.06-10.06,10.06
				c-2.01,0-3.88-0.59-5.45-1.61L63,147.91c-1.27,0.23-2.15,0.03-2.52-0.08c-0.58-0.23-1.21-0.37-1.87-0.37
				c-2.77,0-5.01,2.24-5.01,5.01c0,1.55,0.7,2.93,1.81,3.85c1.17,1.06,2.06,1.99,2.73,2.8l-1.88,4.34c-1.59,3.45-2.66,8.23-2.66,9.3
				c0,4.65,1.83,9.05,4.99,12.35c-0.92,4.72-4.81,8.48-9.82,8.99c-0.71,0.07-1.4,0.07-2.08,0.01c-0.98-0.25-2.02-0.34-3.08-0.23
				c-4.83,0.49-8.35,4.81-7.86,9.64c0.49,4.83,4.81,8.35,9.64,7.86c4.7-0.48,8.16-4.58,7.89-9.25c0.02,0.01,0.03,0.01,0.05,0.02
				c-0.05-0.28-0.1-0.57-0.13-0.86c-0.61-5.97,3.74-11.31,9.71-11.92c0.65-0.07,1.28-0.07,1.91-0.02c1.3,0.54,2.7,0.93,4.18,1.18
				c0.21,0.11,0.41,0.22,0.61,0.33c0-0.08,0.01-0.16,0.01-0.24c0.92,0.13,1.86,0.19,2.84,0.19h58.44v21.78
				c0,9.56,7.97,16.74,18.33,16.74c10.36,0,18.33-7.17,18.33-16.74v-21.78h3.45c4.3,0,8.16-1.35,11.18-3.62
				c0.47,1.86,2.14,3.24,4.15,3.25c2.39,0.02,4.34-1.9,4.36-4.29c0.02-2.24-1.67-4.1-3.85-4.34c1.25-2.31,1.96-4.94,1.96-7.74
				c0-1.48-0.22-2.93-0.64-4.32c2.56-0.7,5.24-1.08,8-1.08c3.08,0,6.05,0.47,8.88,1.34c8.28,23.09,25.4,41.96,47.29,52.53
				c-1.35,7.95-6.75,14.96-14.8,17.97c-1.38,0.51-2.77,0.88-4.17,1.12c-2.12,0-4.28,0.38-6.38,1.16c-0.44,0.16-0.86,0.34-1.27,0.54
				c-4.25-0.87-7.42-4.63-7.39-9.1c0.01-0.6,0.07-1.19,0.19-1.76c0.28-0.77,0.45-1.59,0.46-2.46c0.03-4.01-3.19-7.28-7.19-7.32
				c-4.01-0.03-7.28,3.19-7.32,7.19c-0.03,3.9,3.01,7.1,6.87,7.3c-0.01,0.02-0.02,0.03-0.03,0.05c0.24-0.02,0.48-0.03,0.72-0.02
				c4.95,0.04,8.93,4.09,8.89,9.04c0,0.1-0.01,0.19-0.01,0.29c-5.28,4.91-7.38,12.7-4.7,19.88c3.55,9.51,14.13,14.34,23.64,10.79
				c9.25-3.45,14.07-13.56,11.06-22.85c0.04,0,0.07,0.01,0.11,0.02c-0.25-0.55-0.5-1.1-0.71-1.67c-3.82-10.24,0.22-21.49,9.11-27.12
				c10.38,3.99,21.66,6.18,33.44,6.18c14.74,0,28.67-3.42,41.06-9.51 M130.9,116.98v40.64H97.69c10.1-23.33,18.94-43.34,28.17-64.39
				c4.03,3.98,6.76,9.29,7.44,15.24C131.77,110.93,130.9,113.82,130.9,116.98z M182.86,161.83c-3.11-2.59-7.23-4.21-11.85-4.21
				h-0.93c-0.71,0.14-1.44,0.15-2.17,0h-0.36v-0.09c-0.55-0.15-1.1-0.4-1.64-0.75c-4.56-2.96-2.37-10.69,1.66-12.76
				c2.51-3.58,7.86-4.62,12.52-2.27c0.13,0.06,0.25,0.13,0.37,0.2c0.47,0.51,1.03,0.95,1.68,1.28c2.83,1.43,6.26,0.36,7.79-2.38
				c0.01,0.01,0.02,0.02,0.02,0.04c0.07-0.18,0.15-0.36,0.24-0.53c1.75-3.47,5.89-4.92,9.41-3.4c-0.01,0.53-0.02,1.05-0.02,1.58
				c0,2.37,0.09,4.72,0.26,7.05C196.01,152.96,190.02,158.73,182.86,161.83z M232.19,142.76c-1.4,0-2.54-1.14-2.54-2.54
				c0-1.4,1.14-2.54,2.54-2.54s2.54,1.14,2.54,2.54C234.73,141.62,233.59,142.76,232.19,142.76z M271.51,71.71
				c2.83,0,5.13,2.3,5.13,5.13c0,2.83-2.3,5.13-5.13,5.13c-2.83,0-5.13-2.3-5.13-5.13C266.39,74.01,268.68,71.71,271.51,71.71z
				 M283.86,204.13c-3.26,0-5.9-2.64-5.9-5.9s2.64-5.9,5.9-5.9s5.9,2.64,5.9,5.9S287.12,204.13,283.86,204.13z M328.71,207.03
				c-1.4,0-2.54-1.14-2.54-2.54c0-1.4,1.14-2.54,2.54-2.54s2.54,1.14,2.54,2.54C331.24,205.9,330.11,207.03,328.71,207.03z
				 M336.87,170.18c-0.99,4.43-5.45,7.2-9.96,6.19c-1.08-0.24-2.06-0.68-2.92-1.27c-0.86-0.5-3.75-1.81-8.53-0.5
				c-2.73,1.83-5.7,3.34-8.84,4.48c-0.6,0.35-0.93,0.46-1.05,0.36c-1.57,0.52-3.17,0.94-4.82,1.26c-0.47,5.03,2.64,9.86,7.66,11.39
				c0.28,0.09,0.56,0.16,0.84,0.22c-0.01,0.01-0.03,0.03-0.04,0.04c4.41,1.56,6.85,6.33,5.47,10.85c-1.42,4.65-6.33,7.26-10.98,5.85
				c-4.65-1.42-7.26-6.33-5.85-10.98c0.31-1.02,0.79-1.95,1.4-2.75c0.32-0.61,0.59-1.25,0.8-1.93c1.39-4.54-0.29-9.29-3.84-12.06
				c-1.11,0.09-2.23,0.14-3.36,0.14c-22.42,0-40.59-18.17-40.59-40.59c0-22.42,18.17-40.59,40.59-40.59
				c22.42,0,40.59,18.17,40.59,40.59c0,5.14-0.96,10.05-2.7,14.58c0.75,1.97,2.15,4.53,4.54,7.87
				C336.77,165.21,337.43,167.69,336.87,170.18z M339.98,155.71c0-2.8,2.27-5.07,5.07-5.07c2.8,0,5.07,2.27,5.07,5.07
				c0,2.8-2.27,5.07-5.07,5.07C342.26,160.78,339.98,158.51,339.98,155.71z M421.77,146.63c-0.41,0-0.82-0.01-1.23-0.04l-0.02,0.05
				c-12.57,3.58-26.04-0.52-34.43-10.23c-0.3-13.34-3.4-25.98-8.73-37.37c3.48-3.53,8.53-5.4,13.78-4.57
				c1.46,0.23,2.84,0.66,4.12,1.24c0-0.01,0-0.03,0-0.05c2.39,1.48,5.21,2.34,8.23,2.34c3.13,0,6.04-0.92,8.49-2.5
				c9.4-2.87,19.55,1.97,23.1,11.26c0.45,1.17,0.76,2.37,0.96,3.56c4.12,3.83,6.69,9.29,6.69,15.35
				C442.73,137.25,433.34,146.63,421.77,146.63z M474.89,183.35c-1.42,0-2.56-1.15-2.56-2.56c0-1.41,1.15-2.56,2.56-2.56
				c1.41,0,2.56,1.15,2.56,2.56C477.45,182.21,476.3,183.35,474.89,183.35z"/>
			<path class="st0" d="M541.67,151.62c1.41,0,2.56-1.15,2.56-2.56c0-1.41-1.15-2.56-2.56-2.56c-1.42,0-2.56,1.15-2.56,2.56
				C539.1,150.47,540.25,151.62,541.67,151.62z"/>
		</g>
	</g>
	<circle class="st0" cx="349" cy="209" r="16"/>
</g>
</svg>
