<?xml version="1.0" encoding="utf-8"?>
<!-- Generator: Adobe Illustrator 24.1.1, SVG Export Plug-In . SVG Version: 6.00 Build 0)  -->
<svg version="1.1" xmlns="http://www.w3.org/2000/svg" xmlns:xlink="http://www.w3.org/1999/xlink" x="0px" y="0px"
	 viewBox="0 0 500 500" style="enable-background:new 0 0 500 500;" xml:space="preserve">
<style type="text/css">
	.st0{display:none;}
	.st1{display:inline;fill:#4ABCF4;}
	.st2{fill:#26A0DD;}
	.st3{fill:#EF9426;}
	.st4{fill:#EFEFEF;}
	.st5{fill:#FFFFFF;}
	.st6{fill:#191C2D;}
	.st7{fill:#272A44;}
	.st8{clip-path:url(#XMLID_7_);}
	.st9{fill:#1A96C6;}
	.st10{fill:#414556;}
	.st11{fill:#C1C4D3;}
	.st12{fill:#DADCEA;}
	.st13{fill:#37A8EE;}
	.st14{fill:#D7CDCD;}
	.st15{fill:#E8E6E6;}
	.st16{fill:#E73A3A;}
	.st17{fill:#EED467;}
	.st18{fill:#63CD63;}
	.st19{fill:none;stroke:#FFFFFF;stroke-miterlimit:10;}
	.st20{fill:none;stroke:#FFFFFF;stroke-linecap:round;stroke-linejoin:round;stroke-miterlimit:10;}
</style>
<g id="BACKGROUND" class="st0">
	<rect id="XMLID_42_" class="st1" width="500" height="500"/>
</g>
<g id="OBJECTS">
	<path id="XMLID_836_" class="st2" d="M415.53,278.86c-0.04-0.02-0.08-0.04-0.13-0.06c-0.04-0.01-0.08-0.03-0.12-0.04
		c-0.08-0.03-0.17-0.05-0.26-0.08c-0.04-0.01-0.08-0.02-0.12-0.03c-0.1-0.02-0.21-0.05-0.33-0.07c-0.05-0.01-0.11-0.02-0.16-0.03
		c-0.06-0.01-0.11-0.02-0.18-0.03c-0.08-0.01-0.16-0.02-0.24-0.03c-0.31-0.04-0.67-0.07-1.05-0.08c-0.36-0.02-0.74-0.03-1.16-0.03
		H276.3c-0.13,0-0.26,0-0.39,0c-0.07,0-0.14,0-0.21,0.01c-0.05,0-0.11,0-0.16,0c-0.1,0-0.2,0-0.3,0.01c-0.1,0-0.2,0.01-0.3,0.01
		c-0.04,0-0.08,0-0.12,0.01c-0.1,0.01-0.21,0.01-0.31,0.01c-0.12,0.01-0.24,0.02-0.35,0.02c-0.02,0-0.03,0-0.05,0
		c-0.11,0.01-0.22,0.02-0.33,0.02c-0.59,0.04-1.19,0.1-1.79,0.17c-0.12,0.01-0.23,0.03-0.35,0.04c-0.23,0.03-0.47,0.06-0.7,0.09
		c-0.24,0.03-0.47,0.07-0.7,0.1c-0.05,0.01-0.1,0.01-0.15,0.02h0c-0.05,0.01-0.1,0.02-0.15,0.02c-0.29,0.05-0.57,0.09-0.85,0.14
		c-0.03,0.01-0.06,0.01-0.08,0.01c-0.42,0.08-0.84,0.16-1.24,0.25c-0.34,0.07-0.67,0.15-1,0.22c-0.13,0.03-0.25,0.06-0.37,0.09
		c-0.2,0.05-0.4,0.1-0.59,0.15c-0.06,0.02-0.12,0.03-0.18,0.05c-0.1,0.03-0.21,0.06-0.3,0.09c-0.1,0.03-0.2,0.06-0.3,0.09
		c-0.3,0.09-0.58,0.18-0.85,0.27c-0.05,0.02-0.1,0.04-0.15,0.05c-0.07,0.02-0.13,0.05-0.2,0.07c-0.06,0.02-0.12,0.04-0.18,0.06
		c-0.08,0.03-0.16,0.06-0.24,0.1c-0.08,0.03-0.16,0.06-0.24,0.1c-0.08,0.03-0.16,0.06-0.23,0.1l-56.32,25.36h0.01h0l-4.32,1.95
		c-2.97,1.34-1.78,2.42,2.67,2.42h44.79c-18.84,7.65-32.57,8.96-33.04,9.01h-0.18c-0.24,0-0.57,0.06-0.74,0.13l-0.25,0.11
		c-0.16,0.07-0.1,0.13,0.15,0.13c0,0,69.12,0,70.85,0c1.73,0-6.2-1.68,9.07-9.38h44.82c4.44,0,10.43-1.08,13.4-2.42l60.65-27.3
		C416.23,280,416.51,279.3,415.53,278.86z"/>
	<g id="XMLID_767_">
		<path id="XMLID_889_" class="st2" d="M434.53,290.3h-4.6c0.09-0.93,1.09-1.66,2.3-1.66C433.45,288.64,434.45,289.37,434.53,290.3z
			"/>
		<path id="XMLID_1064_" class="st2" d="M430.39,319.75h6.64l0.03-0.11c0.07-0.27-0.27-0.42-0.94-0.42l0,0l37.24-18.6h-2.51
			l-0.66,0.33h-83.09l0.66-0.33h-2.51l-37.24,18.6h-0.17c-0.67,0-1.61,0.15-2.62,0.42l-0.42,0.11h6.64l0.03-0.11
			c0.07-0.27-0.27-0.42-0.94-0.42l0,0L380,304.5h83.09l-29.47,14.72h-0.17c-0.67,0-1.61,0.15-2.62,0.42L430.39,319.75z"/>
		<g id="XMLID_1032_">
			<g id="XMLID_1045_">
				<polygon id="XMLID_1063_" class="st3" points="348.31,293.21 352.71,293.21 348.31,287.75 				"/>
				<polygon id="XMLID_1062_" class="st4" points="348.31,286.97 348.31,287.75 352.71,293.21 358.04,293.21 353.01,286.97 				"/>
				<polygon id="XMLID_1061_" class="st3" points="353.01,286.97 358.04,293.21 363.38,293.21 358.34,286.97 				"/>
				<polygon id="XMLID_1060_" class="st4" points="358.34,286.97 363.38,293.21 368.71,293.21 363.68,286.97 				"/>
				<polygon id="XMLID_1059_" class="st3" points="363.68,286.97 368.71,293.21 374.04,293.21 369.01,286.97 				"/>
				<polygon id="XMLID_1058_" class="st4" points="369.01,286.97 374.04,293.21 379.37,293.21 374.34,286.97 				"/>
				<polygon id="XMLID_1057_" class="st3" points="374.34,286.97 379.37,293.21 384.7,293.21 379.67,286.97 				"/>
				<polygon id="XMLID_1056_" class="st4" points="379.67,286.97 384.7,293.21 390.04,293.21 385,286.97 				"/>
				<polygon id="XMLID_1055_" class="st3" points="385,286.97 390.04,293.21 395.37,293.21 390.33,286.97 				"/>
				<polygon id="XMLID_1054_" class="st4" points="390.33,286.97 395.37,293.21 400.7,293.21 395.67,286.97 				"/>
				<polygon id="XMLID_1053_" class="st3" points="395.67,286.97 400.7,293.21 406.03,293.21 401,286.97 				"/>
				<polygon id="XMLID_1052_" class="st4" points="401,286.97 406.03,293.21 411.36,293.21 406.33,286.97 				"/>
				<polygon id="XMLID_1051_" class="st3" points="406.33,286.97 411.36,293.21 416.7,293.21 411.66,286.97 				"/>
				<polygon id="XMLID_1050_" class="st4" points="411.66,286.97 416.7,293.21 422.03,293.21 417,286.97 				"/>
				<polygon id="XMLID_1049_" class="st3" points="417,286.97 422.03,293.21 427.36,293.21 422.33,286.97 				"/>
				<polygon id="XMLID_1048_" class="st4" points="422.33,286.97 427.36,293.21 432.69,293.21 427.66,286.97 				"/>
				<polygon id="XMLID_1047_" class="st3" points="427.66,286.97 432.69,293.21 433.84,293.21 433.84,288.02 432.99,286.97 				"/>
				<polygon id="XMLID_1046_" class="st5" points="433.84,288.02 433.84,286.97 432.99,286.97 				"/>
			</g>
			<g id="XMLID_1039_">
				<g id="XMLID_1043_">
					<rect id="XMLID_1044_" x="346.99" y="286.39" class="st6" width="2.51" height="33.4"/>
				</g>
				<g id="XMLID_1041_">
					<rect id="XMLID_1042_" x="346.99" y="286.39" class="st7" width="1.28" height="33.4"/>
				</g>
				<path id="XMLID_1040_" class="st7" d="M351.49,320.04h-6.64l0,0c0-0.52,0.42-0.94,0.94-0.94h4.77
					C351.07,319.1,351.49,319.52,351.49,320.04L351.49,320.04z"/>
			</g>
			<g id="XMLID_1033_">
				<g id="XMLID_1037_">
					<rect id="XMLID_1038_" x="432.59" y="286.39" class="st6" width="2.51" height="33.4"/>
				</g>
				<g id="XMLID_1035_">
					<rect id="XMLID_1036_" x="432.59" y="286.39" class="st7" width="1.28" height="33.4"/>
				</g>
				<path id="XMLID_1034_" class="st7" d="M437.08,320.04h-6.64l0,0c0-0.52,0.42-0.94,0.94-0.94h4.77
					C436.67,319.1,437.08,319.52,437.08,320.04L437.08,320.04z"/>
			</g>
		</g>
	</g>
	<g id="XMLID_770_">
		<path id="XMLID_1068_" class="st2" d="M162.54,290.3h-4.6c0.09-0.93,1.09-1.66,2.3-1.66S162.45,289.37,162.54,290.3z"/>
		<path id="XMLID_1067_" class="st2" d="M157.94,319.75h6.64l0.06-0.11c0.13-0.27-0.17-0.42-0.83-0.42l0,0l42.02-18.6h-2.51
			l-0.75,0.33h-83.09l0.75-0.33h-2.51l-42.02,18.6h-0.17c-0.67,0-1.65,0.15-2.73,0.42l-0.45,0.11h6.64l0.06-0.11
			c0.13-0.27-0.17-0.42-0.83-0.42l0,0l33.26-14.72h83.09l-33.26,14.72h-0.17c-0.67,0-1.65,0.15-2.73,0.42L157.94,319.75z"/>
		<g id="XMLID_771_">
			<g id="XMLID_788_">
				<polygon id="XMLID_1066_" class="st3" points="76.31,293.21 80.72,293.21 76.31,287.75 				"/>
				<polygon id="XMLID_1065_" class="st4" points="76.31,286.97 76.31,287.75 80.72,293.21 86.05,293.21 81.02,286.97 				"/>
				<polygon id="XMLID_1031_" class="st3" points="81.02,286.97 86.05,293.21 91.38,293.21 86.35,286.97 				"/>
				<polygon id="XMLID_835_" class="st4" points="86.35,286.97 91.38,293.21 96.71,293.21 91.68,286.97 				"/>
				<polygon id="XMLID_834_" class="st3" points="91.68,286.97 96.71,293.21 102.05,293.21 97.01,286.97 				"/>
				<polygon id="XMLID_828_" class="st4" points="97.01,286.97 102.05,293.21 107.38,293.21 102.35,286.97 				"/>
				<polygon id="XMLID_821_" class="st3" points="102.35,286.97 107.38,293.21 112.71,293.21 107.68,286.97 				"/>
				<polygon id="XMLID_802_" class="st4" points="107.68,286.97 112.71,293.21 118.04,293.21 113.01,286.97 				"/>
				<polygon id="XMLID_799_" class="st3" points="113.01,286.97 118.04,293.21 123.37,293.21 118.34,286.97 				"/>
				<polygon id="XMLID_798_" class="st4" points="118.34,286.97 123.37,293.21 128.71,293.21 123.67,286.97 				"/>
				<polygon id="XMLID_797_" class="st3" points="123.67,286.97 128.71,293.21 134.04,293.21 129.01,286.97 				"/>
				<polygon id="XMLID_795_" class="st4" points="129.01,286.97 134.04,293.21 139.37,293.21 134.34,286.97 				"/>
				<polygon id="XMLID_794_" class="st3" points="134.34,286.97 139.37,293.21 144.7,293.21 139.67,286.97 				"/>
				<polygon id="XMLID_793_" class="st4" points="139.67,286.97 144.7,293.21 150.04,293.21 145,286.97 				"/>
				<polygon id="XMLID_792_" class="st3" points="145,286.97 150.04,293.21 155.37,293.21 150.33,286.97 				"/>
				<polygon id="XMLID_791_" class="st4" points="150.33,286.97 155.37,293.21 160.7,293.21 155.67,286.97 				"/>
				<polygon id="XMLID_790_" class="st3" points="155.67,286.97 160.7,293.21 161.85,293.21 161.85,288.02 161,286.97 				"/>
				<polygon id="XMLID_789_" class="st5" points="161.85,288.02 161.85,286.97 161,286.97 				"/>
			</g>
			<g id="XMLID_781_">
				<g id="XMLID_786_">
					<rect id="XMLID_787_" x="75" y="286.39" class="st6" width="2.51" height="33.4"/>
				</g>
				<g id="XMLID_784_">
					<rect id="XMLID_785_" x="75" y="286.39" class="st7" width="1.28" height="33.4"/>
				</g>
				<path id="XMLID_783_" class="st7" d="M79.49,320.04h-6.64l0,0c0-0.52,0.42-0.94,0.94-0.94h4.77
					C79.07,319.1,79.49,319.52,79.49,320.04L79.49,320.04z"/>
			</g>
			<g id="XMLID_772_">
				<g id="XMLID_778_">
					<rect id="XMLID_779_" x="160.6" y="286.39" class="st6" width="2.51" height="33.4"/>
				</g>
				<g id="XMLID_776_">
					<rect id="XMLID_777_" x="160.6" y="286.39" class="st7" width="1.28" height="33.4"/>
				</g>
				<path id="XMLID_775_" class="st7" d="M165.09,320.04h-6.64l0,0c0-0.52,0.42-0.94,0.94-0.94h4.77
					C164.67,319.1,165.09,319.52,165.09,320.04L165.09,320.04z"/>
			</g>
		</g>
	</g>
	<g id="XMLID_1077_">
		<defs>
			<rect id="XMLID_1027_" width="500" height="305.67"/>
		</defs>
		<clipPath id="XMLID_7_">
			<use xlink:href="#XMLID_1027_"  style="overflow:visible;"/>
		</clipPath>
		<g id="XMLID_890_" class="st8">
			<path id="XMLID_1026_" class="st2" d="M424.42,262H76.91c-1.05,0-1.91-0.86-1.91-1.91l0,0c0-1.05,0.86-1.91,1.91-1.91h347.51
				c1.05,0,1.91,0.86,1.91,1.91l0,0C426.33,261.14,425.48,262,424.42,262z"/>
			<g id="XMLID_914_">
				<g id="XMLID_997_">
					<g id="XMLID_1023_">
						<rect id="XMLID_1025_" x="152.35" y="-30.79" class="st2" width="6.41" height="253.29"/>
						<rect id="XMLID_1024_" x="185.5" y="-30.79" class="st2" width="6.41" height="253.29"/>
					</g>
					<g id="XMLID_998_">
						<g id="XMLID_1020_">
							
								<rect id="XMLID_1022_" x="170.64" y="-31.48" transform="matrix(0.7071 -0.7071 0.7071 0.7071 56.5636 119.1708)" class="st2" width="2.98" height="45.57"/>
							
								<rect id="XMLID_1021_" x="170.64" y="-31.48" transform="matrix(-0.7071 -0.7071 0.7071 -0.7071 300 106.8741)" class="st2" width="2.98" height="45.57"/>
						</g>
						<g id="XMLID_1017_">
							
								<rect id="XMLID_1019_" x="170.64" y="-1.18" transform="matrix(0.7071 -0.7071 0.7071 0.7071 35.1414 128.0484)" class="st2" width="2.98" height="45.57"/>
							
								<rect id="XMLID_1018_" x="170.64" y="-1.18" transform="matrix(-0.7071 -0.7071 0.7071 -0.7071 278.5725 158.6011)" class="st2" width="2.98" height="45.57"/>
						</g>
						<g id="XMLID_1014_">
							
								<rect id="XMLID_1016_" x="170.64" y="29.12" transform="matrix(0.7071 -0.7071 0.7071 0.7071 13.7161 136.9233)" class="st2" width="2.98" height="45.57"/>
							
								<rect id="XMLID_1015_" x="170.64" y="29.12" transform="matrix(-0.7071 -0.7071 0.7071 -0.7071 257.1478 210.3249)" class="st2" width="2.98" height="45.57"/>
						</g>
						<g id="XMLID_1011_">
							
								<rect id="XMLID_1013_" x="170.64" y="59.42" transform="matrix(0.7071 -0.7071 0.7071 0.7071 -7.7091 145.7982)" class="st2" width="2.98" height="45.57"/>
							
								<rect id="XMLID_1012_" x="170.64" y="59.42" transform="matrix(-0.7071 -0.7071 0.7071 -0.7071 235.7231 262.0487)" class="st2" width="2.98" height="45.57"/>
						</g>
						<g id="XMLID_1008_">
							
								<rect id="XMLID_1010_" x="170.64" y="89.72" transform="matrix(0.7071 -0.7071 0.7071 0.7071 -29.1343 154.6732)" class="st2" width="2.98" height="45.57"/>
							
								<rect id="XMLID_1009_" x="170.64" y="89.72" transform="matrix(-0.7071 -0.7071 0.7071 -0.7071 214.2984 313.7725)" class="st2" width="2.98" height="45.57"/>
						</g>
						<g id="XMLID_1005_">
							
								<rect id="XMLID_1007_" x="170.64" y="120.02" transform="matrix(0.7071 -0.7071 0.7071 0.7071 -50.56 163.5428)" class="st2" width="2.98" height="45.57"/>
							
								<rect id="XMLID_1006_" x="170.64" y="120.02" transform="matrix(-0.7071 -0.7071 0.7071 -0.7071 192.879 365.4958)" class="st2" width="2.98" height="45.57"/>
						</g>
						<g id="XMLID_1002_">
							
								<rect id="XMLID_1004_" x="170.64" y="150.31" transform="matrix(0.7071 -0.7071 0.7071 0.7071 -71.9847 172.4172)" class="st2" width="2.98" height="45.57"/>
							
								<rect id="XMLID_1003_" x="170.64" y="150.31" transform="matrix(-0.7071 -0.7071 0.7071 -0.7071 171.4548 417.2202)" class="st2" width="2.98" height="45.57"/>
						</g>
						<g id="XMLID_999_">
							
								<rect id="XMLID_1001_" x="170.64" y="180.61" transform="matrix(0.7071 -0.7071 0.7071 0.7071 -93.4094 181.2916)" class="st2" width="2.98" height="45.57"/>
							
								<rect id="XMLID_1000_" x="170.64" y="180.61" transform="matrix(-0.7071 -0.7071 0.7071 -0.7071 150.0306 468.9445)" class="st2" width="2.98" height="45.57"/>
						</g>
					</g>
				</g>
				<g id="XMLID_968_">
					<g id="XMLID_994_">
						<rect id="XMLID_996_" x="188.61" y="-30.79" class="st2" width="3.56" height="253.29"/>
						<rect id="XMLID_995_" x="207" y="-30.79" class="st2" width="3.56" height="253.29"/>
					</g>
					<g id="XMLID_969_">
						<g id="XMLID_991_">
							<polygon id="XMLID_993_" class="st2" points="209.11,6.37 207.94,8.47 190.06,-23.75 191.23,-25.86 							"/>
							<polygon id="XMLID_992_" class="st2" points="190.06,6.37 191.23,8.47 209.11,-23.75 207.94,-25.86 							"/>
						</g>
						<g id="XMLID_988_">
							<polygon id="XMLID_990_" class="st2" points="209.11,36.67 207.94,38.77 190.06,6.55 191.23,4.44 							"/>
							<polygon id="XMLID_989_" class="st2" points="190.06,36.67 191.23,38.77 209.11,6.55 207.94,4.44 							"/>
						</g>
						<g id="XMLID_985_">
							<polygon id="XMLID_987_" class="st2" points="209.11,66.97 207.94,69.07 190.06,36.85 191.23,34.74 							"/>
							<polygon id="XMLID_986_" class="st2" points="190.06,66.97 191.23,69.07 209.11,36.85 207.94,34.74 							"/>
						</g>
						<g id="XMLID_982_">
							<polygon id="XMLID_984_" class="st2" points="209.11,97.26 207.94,99.37 190.06,67.14 191.23,65.04 							"/>
							<polygon id="XMLID_983_" class="st2" points="190.06,97.26 191.23,99.37 209.11,67.14 207.94,65.04 							"/>
						</g>
						<g id="XMLID_979_">
							<polygon id="XMLID_981_" class="st2" points="209.11,127.56 207.94,129.67 190.06,97.44 191.23,95.34 							"/>
							<polygon id="XMLID_980_" class="st2" points="190.06,127.56 191.23,129.67 209.11,97.44 207.94,95.34 							"/>
						</g>
						<g id="XMLID_976_">
							<polygon id="XMLID_978_" class="st2" points="209.11,157.86 207.94,159.97 190.06,127.74 191.23,125.64 							"/>
							<polygon id="XMLID_977_" class="st2" points="190.06,157.86 191.23,159.97 209.11,127.74 207.94,125.64 							"/>
						</g>
						<g id="XMLID_973_">
							<polygon id="XMLID_975_" class="st2" points="209.11,188.16 207.94,190.27 190.06,158.04 191.23,155.94 							"/>
							<polygon id="XMLID_974_" class="st2" points="190.06,188.16 191.23,190.27 209.11,158.04 207.94,155.94 							"/>
						</g>
						<g id="XMLID_970_">
							<polygon id="XMLID_972_" class="st2" points="209.11,218.46 207.94,220.57 190.06,188.34 191.23,186.23 							"/>
							<polygon id="XMLID_971_" class="st2" points="190.06,218.46 191.23,220.57 209.11,188.34 207.94,186.23 							"/>
						</g>
					</g>
				</g>
				<rect id="XMLID_967_" x="146.07" y="215.44" class="st2" width="67.33" height="48.17"/>
				<rect id="XMLID_966_" x="188.54" y="215.44" class="st2" width="24.87" height="48.17"/>
				<path id="XMLID_965_" class="st2" d="M212.45-30.41h-61.98c-2.15,0-3.88-1.74-3.88-3.88v-47.13c0-2.15,1.74-3.88,3.88-3.88
					h61.98c2.15,0,3.88,1.74,3.88,3.88v47.13C216.34-32.15,214.6-30.41,212.45-30.41z"/>
				<path id="XMLID_964_" class="st2" d="M213.68-30.41h-27.32c-1.47,0-2.66-1.19-2.66-2.66v-49.59c0-1.47,1.19-2.66,2.66-2.66
					h27.32c1.47,0,2.66,1.19,2.66,2.66v49.59C216.34-31.6,215.15-30.41,213.68-30.41z"/>
				<g id="XMLID_959_">
					<path id="XMLID_963_" class="st2" d="M209.09-68.36v21c0,0.93-0.2,1.73-0.48,2.08c-0.09,0.12-0.2,0.19-0.31,0.19h-16.45
						c-0.44,0-0.8-1.02-0.8-2.27v-21c0-1.26,0.36-2.27,0.8-2.27h16.45C208.73-70.63,209.09-69.62,209.09-68.36z"/>
					<g id="XMLID_960_">
						<polygon id="XMLID_962_" class="st2" points="200.75,-45.08 193.87,-45.08 191.05,-51.01 191.05,-65.46 						"/>
						<polygon id="XMLID_961_" class="st2" points="208.6,-45.27 196.54,-70.63 192.71,-70.63 204.87,-45.08 208.29,-45.08 						
							"/>
					</g>
				</g>
				<g id="XMLID_951_">
					<path id="XMLID_956_" class="st2" d="M193.65-149.07c-0.53-4.45-4.31-7.9-8.91-7.9c-4.96,0-8.98,4.02-8.98,8.98
						c0,0.51,0.04,1,0.12,1.49c0.12,0.76,0.35,1.49,0.65,2.17c0.28,0.63,0.63,1.22,1.04,1.76c1.18,1.57,2.87,2.74,4.83,3.26
						c0.75,0.2,1.52,0.31,2.33,0.31c1.56,0,3.04-0.4,4.31-1.1c1.49-0.82,2.71-2.04,3.54-3.52c0.22-0.39,0.4-0.8,0.56-1.22
						c0.37-0.98,0.56-2.04,0.56-3.14C193.71-148.36,193.69-148.72,193.65-149.07z M184.74-143.85c-0.86,0-1.67-0.26-2.33-0.71
						c-0.21-0.15-0.4-0.3-0.58-0.48c-0.61-0.6-1.03-1.38-1.18-2.26c-0.04-0.23-0.06-0.46-0.06-0.69c0-0.32,0.04-0.63,0.1-0.92
						c0.42-1.84,2.07-3.22,4.04-3.22c1.63,0,3.05,0.95,3.72,2.32c0.27,0.55,0.42,1.17,0.42,1.82c0,0.9-0.29,1.74-0.78,2.41
						C187.35-144.54,186.12-143.85,184.74-143.85z"/>
					<path id="XMLID_955_" class="st2" d="M374.59-123.09l-0.61,4.2l-180.84-25.97l-0.56-0.08l-3.54-0.51l-0.95-0.13
						c0.49-0.68,0.78-1.51,0.78-2.41c0-0.65-0.15-1.27-0.42-1.82l5.19,0.75L374.59-123.09z"/>
					<path id="XMLID_954_" class="st2" d="M181.83-145.04l-4.25,2.46l-1.04,0.61l-39.69,23l-2.13-3.67l41.17-23.86l0.65-0.38
						l0.72-0.41l3.28-1.9l0.17,0.28c-0.07,0.3-0.1,0.61-0.1,0.92c0,0.24,0.02,0.47,0.06,0.69
						C180.8-146.43,181.22-145.64,181.83-145.04z"/>
					<path id="XMLID_953_" class="st2" d="M182.41-144.57v56.48h-5.87v-59.22h4.12c0.15,0.88,0.57,1.66,1.18,2.26
						C182-144.87,182.2-144.71,182.41-144.57z"/>
					<rect id="XMLID_952_" x="189.05" y="-147.3" class="st2" width="3.54" height="59.22"/>
				</g>
				<g id="XMLID_916_">
					<g id="XMLID_919_">
						<g id="XMLID_948_">
							
								<rect id="XMLID_950_" x="252.22" y="-244.75" transform="matrix(6.123234e-17 -1 1 6.123234e-17 342.6456 168.2029)" class="st2" width="6.41" height="315.05"/>
							
								<rect id="XMLID_949_" x="253.61" y="-247.02" transform="matrix(6.123234e-17 -1 1 6.123234e-17 377.1805 136.4424)" class="st2" width="6.41" height="253.29"/>
						</g>
						<g id="XMLID_920_">
							<g id="XMLID_945_">
								
									<rect id="XMLID_947_" x="150.77" y="-126.58" transform="matrix(-0.7071 -0.7071 0.7071 -0.7071 333.32 -69.5294)" class="st2" width="2.98" height="45.57"/>
								
									<rect id="XMLID_946_" x="150.77" y="-126.58" transform="matrix(-0.7071 0.7071 -0.7071 -0.7071 186.5306 -284.8539)" class="st2" width="2.98" height="45.57"/>
							</g>
							<g id="XMLID_943_">
								<polygon id="XMLID_944_" class="st2" points="137.49,-88.73 135.38,-86.63 117.68,-104.33 114.51,-107.5 116.59,-109.63 
									119.75,-106.47 								"/>
							</g>
							<g id="XMLID_940_">
								
									<rect id="XMLID_942_" x="181.07" y="-126.58" transform="matrix(-0.7071 -0.7071 0.7071 -0.7071 385.0443 -48.1052)" class="st2" width="2.98" height="45.57"/>
								
									<rect id="XMLID_941_" x="181.07" y="-126.58" transform="matrix(-0.7071 0.7071 -0.7071 -0.7071 238.2544 -306.2786)" class="st2" width="2.98" height="45.57"/>
							</g>
							<g id="XMLID_937_">
								
									<rect id="XMLID_939_" x="211.37" y="-126.58" transform="matrix(-0.7071 -0.7071 0.7071 -0.7071 436.7686 -26.681)" class="st2" width="2.98" height="45.57"/>
								
									<rect id="XMLID_938_" x="211.37" y="-126.58" transform="matrix(-0.7071 0.7071 -0.7071 -0.7071 289.9781 -327.7033)" class="st2" width="2.98" height="45.57"/>
							</g>
							<g id="XMLID_934_">
								
									<rect id="XMLID_936_" x="241.67" y="-126.58" transform="matrix(-0.7071 -0.7071 0.7071 -0.7071 488.4907 -5.251)" class="st2" width="2.98" height="45.57"/>
								
									<rect id="XMLID_935_" x="241.67" y="-126.58" transform="matrix(-0.7071 0.7071 -0.7071 -0.7071 341.6962 -349.1304)" class="st2" width="2.98" height="45.57"/>
							</g>
							<g id="XMLID_931_">
								
									<rect id="XMLID_933_" x="271.97" y="-126.58" transform="matrix(-0.7071 -0.7071 0.7071 -0.7071 540.2148 16.173)" class="st2" width="2.98" height="45.57"/>
								
									<rect id="XMLID_932_" x="271.97" y="-126.58" transform="matrix(-0.7071 0.7071 -0.7071 -0.7071 393.4202 -370.5553)" class="st2" width="2.98" height="45.57"/>
							</g>
							<g id="XMLID_928_">
								
									<rect id="XMLID_930_" x="302.27" y="-126.58" transform="matrix(-0.7071 -0.7071 0.7071 -0.7071 591.9382 37.5984)" class="st2" width="2.98" height="45.57"/>
								
									<rect id="XMLID_929_" x="302.27" y="-126.58" transform="matrix(-0.7071 0.7071 -0.7071 -0.7071 445.1428 -391.9808)" class="st2" width="2.98" height="45.57"/>
							</g>
							<g id="XMLID_925_">
								
									<rect id="XMLID_927_" x="332.57" y="-126.58" transform="matrix(-0.7071 -0.7071 0.7071 -0.7071 643.666 59.0158)" class="st2" width="2.98" height="45.57"/>
								
									<rect id="XMLID_926_" x="332.57" y="-126.58" transform="matrix(-0.7071 0.7071 -0.7071 -0.7071 496.8735 -413.4022)" class="st2" width="2.98" height="45.57"/>
							</g>
							<g id="XMLID_921_">
								
									<rect id="XMLID_924_" x="362.87" y="-126.58" transform="matrix(-0.7071 -0.7071 0.7071 -0.7071 695.3903 80.44)" class="st2" width="2.98" height="45.57"/>
								<polygon id="XMLID_923_" class="st2" points="400.33,-106.25 380.71,-86.63 378.61,-88.73 393.69,-103.81 398.25,-108.37 
																	"/>
								
									<rect id="XMLID_922_" x="362.87" y="-126.58" transform="matrix(-0.7071 0.7071 -0.7071 -0.7071 548.5974 -434.8269)" class="st2" width="2.98" height="45.57"/>
							</g>
						</g>
					</g>
					<polygon id="XMLID_918_" class="st2" points="130.16,-123.58 132.93,-117.16 100.66,-84.02 97.9,-90.43 					"/>
					<polygon id="XMLID_917_" class="st2" points="415.72,-90.43 412.96,-84.02 395.77,-101.68 393.69,-103.81 380.69,-117.16 
						383.45,-123.58 398.25,-108.37 400.33,-106.25 					"/>
				</g>
				<rect id="XMLID_915_" x="152.28" y="-30.77" class="st2" width="58.35" height="7.25"/>
			</g>
			<g id="XMLID_903_">
				<g id="XMLID_908_">
					
						<ellipse id="XMLID_913_" transform="matrix(0.9914 -0.1311 0.1311 0.9914 -27.137 47.6918)" class="st2" cx="348.62" cy="229.93" rx="12.08" ry="12.08"/>
					
						<ellipse id="XMLID_912_" transform="matrix(0.8116 -0.5842 0.5842 0.8116 -58.704 247.76)" class="st2" cx="354.82" cy="214.91" rx="12.08" ry="12.08"/>
					
						<ellipse id="XMLID_911_" transform="matrix(0.9931 -0.1176 0.1176 0.9931 -21.3274 43.6252)" class="st2" cx="359.08" cy="202.57" rx="12.08" ry="12.08"/>
					<path id="XMLID_910_" class="st2" d="M378.44,208.48c1.45,6.51-2.65,12.97-9.17,14.42c-6.51,1.45-12.97-2.65-14.42-9.17
						c-1.45-6.51,2.65-12.97,9.17-14.42C370.53,197.86,376.99,201.97,378.44,208.48z"/>
					<path id="XMLID_909_" class="st2" d="M378.24,226.85c1.45,6.51-2.65,12.97-9.17,14.42c-6.51,1.45-12.97-2.65-14.42-9.17
						c-1.45-6.51,2.65-12.97,9.17-14.42C370.34,216.23,376.79,220.33,378.24,226.85z"/>
				</g>
				<g id="XMLID_904_">
					<path id="XMLID_907_" class="st9" d="M359.18,259.82L359.18,259.82c-0.47,0-0.86-0.38-0.86-0.86v-43.95
						c0-0.47,0.38-0.86,0.86-0.86l0,0c0.47,0,0.86,0.38,0.86,0.86v43.95C360.03,259.43,359.65,259.82,359.18,259.82z"/>
					<path id="XMLID_906_" class="st9" d="M358.82,236.57L358.82,236.57c-0.33-0.33-0.33-0.88,0-1.21l4.69-4.69
						c0.33-0.33,0.88-0.33,1.21,0l0,0c0.33,0.33,0.33,0.88,0,1.21l-4.69,4.69C359.7,236.91,359.16,236.91,358.82,236.57z"/>
					<path id="XMLID_905_" class="st9" d="M359.69,222.5L359.69,222.5c0.33-0.33,0.33-0.88,0-1.21l-4.69-4.69
						c-0.33-0.33-0.88-0.33-1.21,0l0,0c-0.33,0.33-0.33,0.88,0,1.21l4.69,4.69C358.81,222.83,359.35,222.83,359.69,222.5z"/>
				</g>
			</g>
			<g id="XMLID_891_">
				<g id="XMLID_896_">
					<path id="XMLID_902_" class="st2" d="M107.36,225.21c1.77,7.94-3.24,15.81-11.18,17.58c-7.94,1.77-15.81-3.24-17.58-11.18
						c-1.77-7.94,3.24-15.81,11.18-17.58C97.73,212.26,105.6,217.27,107.36,225.21z"/>
					<path id="XMLID_901_" class="st2" d="M114.93,206.89c1.77,7.94-3.24,15.81-11.18,17.58c-7.94,1.77-15.81-3.24-17.58-11.18
						c-1.77-7.94,3.24-15.81,11.18-17.58C105.29,193.94,113.16,198.95,114.93,206.89z"/>
					<path id="XMLID_900_" class="st2" d="M124.07,192.31c1.77,7.94-3.24,15.81-11.18,17.58c-7.94,1.77-15.81-3.24-17.58-11.18
						c-1.77-7.94,3.24-15.81,11.18-17.58C114.43,179.37,122.3,184.37,124.07,192.31z"/>
					<path id="XMLID_899_" class="st2" d="M132.13,205.27c1.77,7.94-3.24,15.81-11.18,17.58c-7.94,1.77-15.81-3.24-17.58-11.18
						c-1.77-7.94,3.24-15.81,11.18-17.58S130.36,197.33,132.13,205.27z"/>
					
						<ellipse id="XMLID_898_" transform="matrix(0.3302 -0.9439 0.9439 0.3302 -145.5897 260.0379)" class="st2" cx="110.43" cy="232.6" rx="14.73" ry="14.73"/>
					<path id="XMLID_897_" class="st2" d="M139.54,224.88c1.77,7.94-3.24,15.81-11.18,17.58c-7.94,1.77-15.81-3.24-17.58-11.18
						c-1.77-7.94,3.24-15.81,11.18-17.58C129.91,211.93,137.78,216.94,139.54,224.88z"/>
				</g>
				<g id="XMLID_892_">
					<path id="XMLID_895_" class="st9" d="M109.34,262.06L109.34,262.06c-0.58,0-1.04-0.47-1.04-1.04v-53.59
						c0-0.58,0.47-1.04,1.04-1.04l0,0c0.58,0,1.04,0.47,1.04,1.04v53.59C110.38,261.6,109.92,262.06,109.34,262.06z"/>
					<path id="XMLID_894_" class="st9" d="M108.91,233.73L108.91,233.73c-0.41-0.41-0.41-1.07,0-1.48l5.72-5.72
						c0.41-0.41,1.07-0.41,1.48,0l0,0c0.41,0.41,0.41,1.07,0,1.48l-5.72,5.72C109.98,234.13,109.32,234.13,108.91,233.73z"/>
					<path id="XMLID_893_" class="st9" d="M109.96,216.56L109.96,216.56c0.41-0.41,0.41-1.07,0-1.48l-5.72-5.72
						c-0.41-0.41-1.07-0.41-1.48,0l0,0c-0.41,0.41-0.41,1.07,0,1.48l5.72,5.72C108.89,216.97,109.55,216.97,109.96,216.56z"/>
				</g>
			</g>
		</g>
	</g>
	<g>
		<path id="XMLID_1030_" class="st2" d="M346.12,120.15h-54.58c0.39-3.87,3.64-6.88,7.6-6.9c0.42-3.83,3.67-6.82,7.61-6.82
			c2.65,0,4.99,1.34,6.37,3.4c1.32-1.07,2.99-1.72,4.82-1.72c1.88,0,3.6,0.69,4.94,1.81c1.4-1.67,3.51-2.73,5.86-2.73
			c3.56,0,6.54,2.43,7.41,5.72c0.72-0.23,1.5-0.35,2.3-0.35C342.67,112.57,346.07,115.95,346.12,120.15z"/>
		<path id="XMLID_1029_" class="st2" d="M419.57,166.44h-48.1c0.55-3.69,3.74-6.52,7.58-6.52c0.59,0,1.16,0.07,1.72,0.2
			c0.96-3.13,3.88-5.41,7.33-5.41c1.95,0,3.72,0.74,5.08,1.94c0.97-0.45,2.05-0.71,3.2-0.71c2.43,0,4.6,1.14,6,2.91
			c1.25-2.54,3.86-4.29,6.87-4.29c4.23,0,7.66,3.43,7.66,7.66c0,0.53-0.06,1.05-0.16,1.54C417.9,164.41,418.88,165.33,419.57,166.44
			z"/>
	</g>
	<path id="XMLID_1028_" class="st2" d="M137,131.54h-35.12c0.4-2.78,2.3-5.08,4.85-6.06c1.19-2.7,3.88-4.59,7.03-4.59
		c2.37,0,4.5,1.08,5.9,2.78c1.4-1.46,3.36-2.37,5.54-2.37c3.46,0,6.39,2.3,7.34,5.46C134.66,127.6,136.31,129.36,137,131.54z"/>
	<path id="XMLID_888_" class="st2" d="M131.96,279.53h-9.57c0.19-1.93,2.26-3.46,4.79-3.46
		C129.7,276.07,131.77,277.59,131.96,279.53z"/>
	<g>
		<g id="XMLID_837_">
			<g id="XMLID_865_">
				<rect id="XMLID_869_" x="245.89" class="st10" width="0.93" height="108.99"/>
				<rect id="XMLID_868_" x="250.36" class="st10" width="0.93" height="108.99"/>
				<rect id="XMLID_867_" x="254.83" class="st10" width="0.93" height="108.99"/>
				<rect id="XMLID_866_" x="259.3" class="st10" width="0.93" height="108.99"/>
			</g>
			<g id="XMLID_838_">
				<g id="XMLID_853_">
					<g id="XMLID_862_">
						<path id="XMLID_864_" class="st7" d="M257.46,130.17c-0.1,2.28-1.29,4.31-3.06,5.57c-0.21,0.15-0.43,0.29-0.66,0.41
							c-0.88,0.5-1.88,0.81-2.94,0.9c-0.32,0.02-0.64,0.03-0.96,0.02c-0.26-0.02-0.52-0.04-0.77-0.08c-1.52-0.25-2.88-0.96-3.93-2
							c-0.18-0.18-0.36-0.37-0.52-0.58c-0.98-1.19-1.57-2.7-1.62-4.35c0-0.13,0.1-0.24,0.24-0.24c0.05,0,0.09,0.02,0.13,0.04
							c0,0,0.01,0,0.01,0.01l0.05,0.05l1.76,1.76c0.3,0.3,0.63,0.56,0.98,0.77c0.23,0.14,0.46,0.26,0.7,0.35
							c0.7,0.29,1.45,0.42,2.2,0.39c0.26-0.01,0.52-0.04,0.77-0.09c0.26-0.05,0.51-0.12,0.76-0.21c0.14-0.05,0.28-0.11,0.42-0.17
							c0.24-0.1,0.46-0.23,0.68-0.38c0.29-0.19,0.56-0.41,0.81-0.66h0c2.02-2.02,2.02-5.3,0-7.32l-1.74-1.74
							c-0.15-0.15-0.24-0.36-0.24-0.58v-7.68c0-0.14,0.01-0.28,0.03-0.42c0.19-1.21,1.22-2.18,2.48-2.19c0.7,0,1.34,0.28,1.8,0.74
							c0.38,0.38,0.64,0.88,0.71,1.45c0.02,0.11,0.02,0.23,0.02,0.34v9.54c0,0.67,0.2,1.33,0.59,1.88
							C257.05,126.97,257.54,128.51,257.46,130.17z"/>
						<rect id="XMLID_863_" x="250.54" y="118.07" class="st6" width="5.06" height="2.51"/>
					</g>
					<path id="XMLID_861_" class="st10" d="M256.14,118.8h-5.78c-0.35,0-0.66-0.2-0.81-0.51l-4.42-9.23
						c-0.29-0.6,0.15-1.29,0.81-1.29h14.62c0.66,0,1.1,0.69,0.81,1.29l-4.42,9.23C256.8,118.6,256.49,118.8,256.14,118.8z"/>
					<g id="XMLID_854_">
						<path id="XMLID_860_" class="st3" d="M247.46,113.94l2.08,4.34c0.15,0.31,0.47,0.51,0.81,0.51h1.12l-2.02-4.85H247.46z"/>
						<polygon id="XMLID_859_" class="st5" points="249.48,113.94 249.45,113.94 251.47,118.8 253.55,118.8 251.53,113.94 						"/>
						<polygon id="XMLID_858_" class="st3" points="251.56,113.94 251.53,113.94 253.55,118.8 255.63,118.8 253.61,113.94 						"/>
						<path id="XMLID_857_" class="st5" d="M255.69,113.94h-2.04h-0.04l2.02,4.85h0.51c0.35,0,0.66-0.2,0.81-0.51l0.29-0.6
							L255.69,113.94z"/>
						<polygon id="XMLID_856_" class="st3" points="258.36,115.36 257.77,113.94 255.72,113.94 255.69,113.94 257.24,117.68 						
							"/>
						<polygon id="XMLID_855_" class="st5" points="259.03,113.94 257.8,113.94 257.77,113.94 258.36,115.36 						"/>
					</g>
				</g>
				<g id="XMLID_846_">
					<g id="XMLID_851_">
						<path id="XMLID_852_" class="st6" d="M246.88,132.8l-1.73,2.18c-0.18-0.18-0.36-0.37-0.52-0.58l1.55-1.96
							C246.4,132.59,246.64,132.71,246.88,132.8z"/>
					</g>
					<g id="XMLID_849_">
						<path id="XMLID_850_" class="st6" d="M254.4,135.74c-0.21,0.15-0.43,0.29-0.66,0.41l-2.72-3.43c0.24-0.1,0.46-0.23,0.68-0.38
							L254.4,135.74z"/>
					</g>
					<g id="XMLID_847_">
						<path id="XMLID_848_" class="st6" d="M249.84,133.1v3.96c-0.26-0.02-0.52-0.04-0.77-0.08v-3.79
							C249.33,133.18,249.59,133.15,249.84,133.1z"/>
					</g>
				</g>
				<g id="XMLID_839_">
					<g id="XMLID_844_">
						<path id="XMLID_845_" class="st5" d="M235.13,146.4c-0.08,0-0.17-0.03-0.24-0.08c-0.17-0.13-0.19-0.37-0.06-0.54l11.09-13.98
							c0.13-0.17,0.38-0.19,0.54-0.06c0.17,0.13,0.19,0.37,0.06,0.54l-11.09,13.98C235.35,146.35,235.24,146.4,235.13,146.4z"/>
					</g>
					<g id="XMLID_842_">
						<path id="XMLID_843_" class="st5" d="M262.7,146.4c-0.11,0-0.23-0.05-0.3-0.15l-11.09-13.98c-0.13-0.17-0.1-0.41,0.06-0.54
							c0.17-0.13,0.41-0.1,0.54,0.06L263,145.77c0.13,0.17,0.1,0.41-0.06,0.54C262.87,146.37,262.78,146.4,262.7,146.4z"/>
					</g>
					<g id="XMLID_840_">
						<path id="XMLID_841_" class="st5" d="M249.07,147.07c-0.21,0-0.39-0.17-0.39-0.39v-13.88c0-0.21,0.17-0.39,0.39-0.39
							c0.21,0,0.39,0.17,0.39,0.39v13.88C249.46,146.9,249.29,147.07,249.07,147.07z"/>
					</g>
				</g>
			</g>
		</g>
		<g>
			<g id="XMLID_822_">
				<g id="XMLID_1_">
					<path id="XMLID_5_" class="st11" d="M288.45,318.61h-71.93c0,0,13.32-4.83,13.32-37.59h45.3c0,2.18,0.06,4.25,0.18,6.19
						C276.85,314.4,288.45,318.61,288.45,318.61z"/>
					<path id="XMLID_4_" class="st11" d="M288.65,319.87h-72.3c-0.24,0-0.44-0.2-0.44-0.44v-0.38c0-0.24,0.2-0.44,0.44-0.44h72.3
						c0.24,0,0.44,0.2,0.44,0.44v0.38C289.09,319.67,288.89,319.87,288.65,319.87z"/>
				</g>
				<path id="XMLID_2_" class="st12" d="M328.79,189.92v90.73c0,4.45-3.59,8.04-8.03,8.04H185.3c-4.45,0-8.04-3.59-8.04-8.04v-90.73
					c0-3.5,2.24-6.48,5.37-7.56c0.83-0.3,1.73-0.47,2.67-0.47h135.46C325.2,181.89,328.79,185.48,328.79,189.92z"/>
				<path id="XMLID_3_" class="st6" d="M328.78,189.92v84.26H177.26v-84.26c0-0.11,0-0.22,0.01-0.32c0.01-0.11,0.01-0.22,0.02-0.32
					c0.01-0.11,0.02-0.21,0.03-0.32c0.03-0.21,0.06-0.42,0.1-0.63c0.06-0.31,0.14-0.61,0.24-0.91c0.03-0.1,0.07-0.2,0.1-0.29
					c0.03-0.1,0.07-0.2,0.11-0.29c0.24-0.57,0.55-1.1,0.9-1.6c0.24-0.33,0.5-0.64,0.78-0.93c0.85-0.86,1.9-1.54,3.07-1.94
					c0.31-0.11,0.63-0.21,0.96-0.28c0.21-0.04,0.44-0.09,0.66-0.12c0.21-0.02,0.42-0.05,0.63-0.06c0.13-0.01,0.26-0.01,0.39-0.01
					h135.49c0.56,0,1.11,0.06,1.64,0.17c0.26,0.05,0.51,0.12,0.76,0.2c0.12,0.04,0.25,0.08,0.37,0.12c0.86,0.31,1.66,0.77,2.35,1.35
					c0.2,0.17,0.39,0.34,0.57,0.52C327.88,185.69,328.78,187.7,328.78,189.92z"/>
				<g id="XMLID_831_">
					<path id="XMLID_833_" class="st12" d="M286.38,318.61h-71.93c0,0,13.32-4.83,13.32-37.59h45.3c0,2.18,0.06,4.25,0.18,6.19
						C274.79,314.4,286.38,318.61,286.38,318.61z"/>
					<path id="XMLID_832_" class="st11" d="M286.59,319.87h-72.3c-0.24,0-0.44-0.2-0.44-0.44v-0.38c0-0.24,0.2-0.44,0.44-0.44h72.3
						c0.24,0,0.44,0.2,0.44,0.44v0.38C287.03,319.67,286.83,319.87,286.59,319.87z"/>
				</g>
				<path id="XMLID_830_" class="st11" d="M273.25,288.6c-0.64,0.19-1.42,0.29-2.37,0.29c-20.57,0-23.48,17.12-30.24,24.29
					c-3.09,3.25-6.36,4.75-9.02,5.43h-17.16c0,0,13.32-4.83,13.32-37.59h45.3C273.08,283.2,273.14,286.66,273.25,288.6z"/>
				<path id="XMLID_829_" class="st5" d="M326.2,189.92v90.73c0,4.45-3.59,8.04-8.03,8.04H182.72c-4.45,0-8.04-3.59-8.04-8.04
					v-90.73c0-3.5,2.24-6.48,5.37-7.56c0.83-0.3,1.73-0.47,2.67-0.47h135.46C322.61,181.89,326.2,185.48,326.2,189.92z"/>
				<path id="XMLID_782_" class="st13" d="M326.2,189.92v84.26H174.68v-84.26c0-0.11,0-0.22,0.01-0.32
					c0.01-0.11,0.01-0.22,0.02-0.32c0.01-0.11,0.02-0.21,0.03-0.32c0.03-0.21,0.06-0.42,0.1-0.63c0.06-0.31,0.14-0.61,0.24-0.91
					c0.03-0.1,0.07-0.2,0.1-0.29c0.03-0.1,0.07-0.2,0.11-0.29c0.24-0.57,0.55-1.1,0.9-1.6c0.24-0.33,0.5-0.64,0.78-0.93
					c0.85-0.86,1.9-1.54,3.07-1.94c0.31-0.11,0.63-0.21,0.96-0.28c0.21-0.04,0.44-0.09,0.66-0.12c0.21-0.02,0.42-0.05,0.63-0.06
					c0.13-0.01,0.26-0.01,0.39-0.01h135.49c0.56,0,1.11,0.06,1.64,0.17c0.26,0.05,0.51,0.12,0.76,0.2c0.12,0.04,0.25,0.08,0.37,0.12
					c0.86,0.31,1.66,0.77,2.35,1.35c0.2,0.17,0.39,0.34,0.57,0.52C325.3,185.69,326.2,187.7,326.2,189.92z"/>
				<circle id="XMLID_827_" class="st12" cx="249.55" cy="281.28" r="4.18"/>
				<path id="XMLID_823_" class="st7" d="M323.85,184.24c-0.18-0.18-0.37-0.36-0.57-0.52c-0.69-0.58-1.49-1.03-2.35-1.35
					c-0.12-0.04-0.25-0.09-0.37-0.12c-0.25-0.08-0.5-0.14-0.76-0.2c-0.53-0.11-1.08-0.17-1.64-0.17H182.67
					c-0.13,0-0.26,0.01-0.39,0.01c-0.21,0.01-0.42,0.03-0.63,0.06c-0.22,0.03-0.44,0.07-0.66,0.12c-1.25,0.27-2.39,0.83-3.35,1.61
					c0,0,0,0,0,0c-0.24,0.19-0.46,0.39-0.67,0.61c-0.29,0.29-0.55,0.6-0.78,0.93c-0.36,0.49-0.67,1.03-0.9,1.6
					c-0.04,0.09-0.08,0.19-0.11,0.29c-0.04,0.1-0.07,0.2-0.1,0.29c-0.1,0.29-0.18,0.59-0.24,0.91c-0.04,0.21-0.07,0.42-0.1,0.63
					c-0.01,0.1-0.02,0.21-0.03,0.32c-0.01,0.1-0.01,0.21-0.02,0.32c-0.01,0.1-0.01,0.21-0.01,0.32v84.26H326.2v-84.26
					C326.2,187.7,325.3,185.69,323.85,184.24z M319.9,266.29H180.97v-76.38c0-0.94,0.78-1.73,1.72-1.73h135.46
					c0.96,0,1.74,0.78,1.74,1.73V266.29z"/>
			</g>
			<g>
				<path id="XMLID_780_" class="st14" d="M317.53,181.89v64.63c0,2.93-2.38,5.31-5.31,5.31H192.46c-2.94,0-5.31-2.38-5.31-5.31
					v-64.63H317.53z"/>
				<g id="XMLID_803_">
					<path id="XMLID_820_" class="st15" d="M314.16,148.73v90.89c0,2.93-2.38,5.31-5.31,5.31H189.09c-2.93,0-5.31-2.38-5.31-5.31
						v-90.89c0-2.93,2.38-5.31,5.31-5.31h119.77C311.78,143.42,314.16,145.8,314.16,148.73z"/>
					<path id="XMLID_819_" class="st3" d="M314.16,148.73v18.12H183.78v-18.12c0-2.93,2.38-5.31,5.31-5.31h119.77
						C311.78,143.42,314.16,145.8,314.16,148.73z"/>
					<path id="XMLID_818_" class="st5" d="M303.01,158.84h-67.22c-2.11,0-3.82-1.71-3.82-3.82l0,0c0-2.11,1.71-3.82,3.82-3.82h67.22
						c2.11,0,3.82,1.71,3.82,3.82l0,0C306.83,157.13,305.12,158.84,303.01,158.84z"/>
					<path id="XMLID_817_" class="st16" d="M199.97,154.84c0,2.07-1.68,3.74-3.74,3.74c-2.07,0-3.74-1.68-3.74-3.74
						s1.68-3.74,3.74-3.74C198.29,151.1,199.97,152.77,199.97,154.84z"/>
					<path id="XMLID_816_" class="st17" d="M209.55,154.84c0,2.07-1.68,3.74-3.74,3.74s-3.74-1.68-3.74-3.74s1.68-3.74,3.74-3.74
						S209.55,152.77,209.55,154.84z"/>
					<path id="XMLID_815_" class="st18" d="M219.13,154.84c0,2.07-1.68,3.74-3.74,3.74c-2.07,0-3.74-1.68-3.74-3.74
						s1.68-3.74,3.74-3.74C217.46,151.1,219.13,152.77,219.13,154.84z"/>
					<path id="XMLID_814_" class="st14" d="M244.25,228.2h-46.49c-2.79,0-5.05-2.26-5.05-5.05v-38.4c0-2.79,2.26-5.05,5.05-5.05
						h46.49c2.79,0,5.05,2.26,5.05,5.05v38.4C249.3,225.94,247.04,228.2,244.25,228.2z"/>
					<path id="XMLID_813_" class="st5" d="M242.6,226.55h-46.49c-2.79,0-5.05-2.26-5.05-5.05v-38.4c0-2.79,2.26-5.05,5.05-5.05
						h46.49c2.79,0,5.05,2.26,5.05,5.05v38.4C247.65,224.29,245.39,226.55,242.6,226.55z"/>
					<path id="XMLID_812_" class="st5" d="M307.49,184.89h-54.11c-0.68,0-1.24-0.55-1.24-1.24v-0.44c0-0.68,0.55-1.24,1.24-1.24
						h54.11c0.68,0,1.24,0.55,1.24,1.24v0.44C308.73,184.34,308.18,184.89,307.49,184.89z"/>
					<path id="XMLID_811_" class="st5" d="M307.49,191.93h-54.11c-0.68,0-1.24-0.56-1.24-1.24v-0.44c0-0.68,0.55-1.24,1.24-1.24
						h54.11c0.68,0,1.24,0.55,1.24,1.24v0.44C308.73,191.38,308.18,191.93,307.49,191.93z"/>
					<path id="XMLID_810_" class="st5" d="M307.49,198.97h-54.11c-0.68,0-1.24-0.55-1.24-1.24v-0.44c0-0.68,0.55-1.24,1.24-1.24
						h54.11c0.68,0,1.24,0.56,1.24,1.24v0.44C308.73,198.41,308.18,198.97,307.49,198.97z"/>
					<path id="XMLID_809_" class="st5" d="M307.49,206h-54.11c-0.68,0-1.24-0.56-1.24-1.24v-0.44c0-0.68,0.55-1.24,1.24-1.24h54.11
						c0.68,0,1.24,0.55,1.24,1.24v0.44C308.73,205.45,308.18,206,307.49,206z"/>
					<path id="XMLID_808_" class="st5" d="M307.49,213.04h-54.11c-0.68,0-1.24-0.55-1.24-1.24v-0.44c0-0.68,0.55-1.24,1.24-1.24
						h54.11c0.68,0,1.24,0.56,1.24,1.24v0.44C308.73,212.49,308.18,213.04,307.49,213.04z"/>
					<path id="XMLID_773_" class="st5" d="M307.49,233.37h-54.11c-0.68,0-1.24-0.55-1.24-1.24v-0.44c0-0.68,0.55-1.24,1.24-1.24
						h54.11c0.68,0,1.24,0.55,1.24,1.24v0.44C308.73,232.82,308.18,233.37,307.49,233.37z"/>
					<path id="XMLID_774_" class="st5" d="M307.27,240.53H192.95c-0.81,0-1.46-0.65-1.46-1.46l0,0c0-0.81,0.65-1.46,1.46-1.46
						h114.33c0.81,0,1.46,0.65,1.46,1.46l0,0C308.73,239.87,308.08,240.53,307.27,240.53z"/>
					<path id="XMLID_807_" class="st3" d="M263.03,221.72c0,2.62-2.13,4.75-4.75,4.75c-2.62,0-4.75-2.13-4.75-4.75
						c0-2.62,2.13-4.75,4.75-4.75C260.9,216.97,263.03,219.1,263.03,221.72z"/>
					<path id="XMLID_806_" class="st5" d="M286.09,221.72c0,2.62-2.13,4.75-4.75,4.75c-2.62,0-4.75-2.13-4.75-4.75
						c0-2.62,2.13-4.75,4.75-4.75C283.96,216.97,286.09,219.1,286.09,221.72z"/>
					<path id="XMLID_805_" class="st3" d="M309.15,221.72c0,2.62-2.13,4.75-4.75,4.75c-2.62,0-4.75-2.13-4.75-4.75
						c0-2.62,2.13-4.75,4.75-4.75C307.02,216.97,309.15,219.1,309.15,221.72z"/>
					<rect id="XMLID_804_" x="183.78" y="166.86" class="st14" width="130.38" height="2.4"/>
				</g>
			</g>
		</g>
	</g>
	<path id="XMLID_768_" class="st2" d="M465.04,330.44H38.96c-2.92,0-5.29-2.37-5.29-5.29l0,0c0-2.92,2.37-5.29,5.29-5.29h426.08
		c2.92,0,5.29,2.37,5.29,5.29l0,0C470.33,328.07,467.96,330.44,465.04,330.44z"/>
	<g>
		<g>
			<g>
				<g>
					<g>
						<g>
							<g>
								<g>
									<g>
										<circle class="st19" cx="334.5" cy="136.75" r="2"/>
										<circle class="st19" cx="152.5" cy="161.75" r="2"/>
									</g>
									<circle class="st19" cx="202.5" cy="254.75" r="2"/>
								</g>
								<circle class="st19" cx="337.5" cy="192.75" r="2"/>
							</g>
							<g>
								<line class="st20" x1="280.5" y1="124.88" x2="285.69" y2="130.06"/>
								<line class="st20" x1="285.69" y1="124.88" x2="280.5" y2="130.06"/>
							</g>
						</g>
						<g>
							<line class="st20" x1="179.33" y1="121.71" x2="182.85" y2="125.23"/>
							<line class="st20" x1="182.85" y1="121.71" x2="179.33" y2="125.23"/>
						</g>
					</g>
					<g>
						<line class="st20" x1="155.33" y1="227.71" x2="158.85" y2="231.23"/>
						<line class="st20" x1="158.85" y1="227.71" x2="155.33" y2="231.23"/>
					</g>
				</g>
				<g>
					<line class="st20" x1="322.33" y1="236.71" x2="325.85" y2="240.23"/>
					<line class="st20" x1="325.85" y1="236.71" x2="322.33" y2="240.23"/>
				</g>
			</g>
			<g>
				<line class="st20" x1="236.5" y1="83" x2="236.5" y2="113"/>
				<line class="st20" x1="232.5" y1="95" x2="232.5" y2="113"/>
			</g>
		</g>
		<g>
			<line class="st20" x1="268.5" y1="76" x2="268.5" y2="113"/>
			<line class="st20" x1="272.5" y1="100" x2="272.5" y2="113"/>
		</g>
	</g>
</g>
<g id="DESIGNED_BY_FREEPIK">
</g>
</svg>
