<?xml version="1.0" encoding="utf-8"?>
<!-- Generator: Adobe Illustrator 24.1.1, SVG Export Plug-In . SVG Version: 6.00 Build 0)  -->
<svg version="1.1" xmlns="http://www.w3.org/2000/svg" x="0px" y="0px"
     viewBox="0 0 448 448" style="enable-background:new 0 0 448 448;" xml:space="preserve">
<style type="text/css">
	.st0{fill:#173042;}
</style>
<g id="grid">
</g>
<g id="icons">
	<g>
		<g>
			<path class="st0" d="M410.21,377.14l-4.33,0.7c-4.32,0.6-8.11,2.55-10.86,5.59l-4.85,5.31l-6.61-0.39
				c-0.35-0.02-0.69,0.15-0.89,0.44l-3.33,4.96c-0.34,0.51-0.14,1.21,0.42,1.47l4.69,2.13l7.17,7.17l2.13,4.69
				c0.25,0.56,0.95,0.76,1.46,0.42l5.04-3.34c0.3-0.2,0.47-0.54,0.44-0.9l-0.44-6.61l5.29-4.83c3.05-2.76,5-6.55,5.59-10.86
				l0.7-4.33C412.02,377.82,411.18,376.98,410.21,377.14z M402.24,391c-1.17,1.17-3.07,1.17-4.24,0s-1.17-3.07,0-4.24
				s3.07-1.17,4.24,0C403.41,387.93,403.41,389.83,402.24,391z"/>
			<path class="st0" d="M389.1,405.44l-5.54-5.54c-0.15-0.15-0.4-0.16-0.55-0.01c-0.3,0.29-0.71,0.7-0.86,0.85
				c-4.89,4.89-5.03,11.14-5.03,11.14s6.25-0.14,11.14-5.03c0.15-0.15,0.56-0.56,0.85-0.86
				C389.26,405.83,389.25,405.59,389.1,405.44z"/>
		</g>
	</g>
	<g>
		<g>
			<path class="st0" d="M340.32,395.18l-1.36-1.36c1.97-3.77,1.37-8.53-1.8-11.7c-3.17-3.17-7.93-3.76-11.7-1.8l-1.26-1.26
				c-0.58-0.59-1.54-0.59-2.12,0c-0.59,0.59-0.59,1.54,0,2.12l1,1l1,1c0.59,0.59,0.59,1.54,0,2.12c-0.29,0.29-0.68,0.44-1.06,0.44
				c-0.38,0-0.77-0.15-1.06-0.44c0,0,0,0,0,0l-0.95-0.95l-0.11-0.11l-1.83-1.83c-0.59-0.59-1.54-0.59-2.12,0
				c-0.59,0.59-0.59,1.54,0,2.12l1.83,1.83l0,0l1.06,1.06c0.59,0.59,0.59,1.54,0,2.12c-0.29,0.29-0.68,0.44-1.06,0.44
				c-0.38,0-0.77-0.15-1.06-0.44l-1.06-1.06l0,0l-2.33-2.33c-0.59-0.59-1.54-0.59-2.12,0c-0.59,0.59-0.59,1.54,0,2.12l2.33,2.33l0,0
				l1.06,1.06c0.59,0.59,0.59,1.54,0,2.12c-0.29,0.29-0.68,0.44-1.06,0.44c-0.38,0-0.77-0.15-1.06-0.44l-1.03-1.03v0l-0.86-0.86
				c-0.58-0.59-1.54-0.59-2.12,0c-0.59,0.59-0.59,1.54,0,2.12l1.42,1.42c-1.4,3.59-0.67,7.82,2.23,10.72l0,0
				c2.9,2.9,7.13,3.64,10.72,2.23l1.63,1.63c0.29,0.29,0.68,0.44,1.06,0.44c0.38,0,0.77-0.15,1.06-0.44c0.59-0.59,0.59-1.54,0-2.12
				l-1.07-1.07c0,0,0,0,0,0l-0.32-0.32c-0.59-0.59-0.59-1.54,0-2.12c0.59-0.59,1.54-0.59,2.12,0l0.35,0.35l0,0l2.56,2.56
				c0.29,0.29,0.68,0.44,1.06,0.44c0.38,0,0.77-0.15,1.06-0.44c0.59-0.59,0.59-1.54,0-2.12l-2.56-2.56l0,0l-0.35-0.35
				c-0.59-0.59-0.59-1.54,0-2.12c0.59-0.59,1.54-0.59,2.12,0l0.35,0.35l0,0l2.56,2.56c0.29,0.29,0.68,0.44,1.06,0.44
				s0.77-0.15,1.06-0.44c0.59-0.59,0.59-1.54,0-2.12l-2.91-2.91c0,0,0,0,0,0c-0.59-0.59-0.59-1.54,0-2.12
				c0.59-0.59,1.54-0.59,2.12,0l1.39,1.39c0.29,0.29,0.68,0.44,1.06,0.44c0.38,0,0.77-0.15,1.06-0.44
				C340.91,396.71,340.91,395.76,340.32,395.18z M319.14,401.57c-0.98,0.98-2.56,0.98-3.54,0c-0.98-0.98-0.98-2.56,0-3.54
				c0.98-0.98,2.56-0.98,3.54,0C320.11,399.01,320.11,400.59,319.14,401.57z M328.68,397.68c-0.78,0.78-2.05,0.78-2.83,0
				c-0.78-0.78-0.78-2.05,0-2.83c0.78-0.78,2.05-0.78,2.83,0C329.46,395.63,329.46,396.9,328.68,397.68z M331.86,388.14
				c-0.98,0.98-2.56,0.98-3.54,0c-0.98-0.98-0.98-2.56,0-3.54c0.98-0.98,2.56-0.98,3.54,0
				C332.84,385.58,332.84,387.16,331.86,388.14z"/>
			<path class="st0" d="M311.5,375.5c-0.9,0-1.79,0.34-2.47,1.03c-1.37,1.37-1.37,3.58,0,4.95c0.68,0.68,1.58,1.03,2.47,1.03
				c0.9,0,1.79-0.34,2.47-1.03c1.37-1.37,1.37-3.58,0-4.95C313.29,375.84,312.4,375.5,311.5,375.5z M310.5,408.5
				c-0.64,0-1.28,0.24-1.77,0.73c-0.98,0.98-0.98,2.56,0,3.54c0.49,0.49,1.13,0.73,1.77,0.73s1.28-0.24,1.77-0.73
				c0.98-0.98,0.98-2.56,0-3.54C311.78,408.74,311.14,408.5,310.5,408.5z M344.27,378.73c-0.49-0.49-1.13-0.73-1.77-0.73
				s-1.28,0.24-1.77,0.73c-0.98,0.98-0.98,2.56,0,3.54c0.49,0.49,1.13,0.73,1.77,0.73s1.28-0.24,1.77-0.73
				C345.24,381.29,345.24,379.71,344.27,378.73z"/>
		</g>
	</g>
	<g>
		<g>
			<path class="st0" d="M246.21,381.94c-1.66-0.67-2.45-1.46-3.12-3.12c-0.19-0.47-0.87-0.47-1.06,0c-0.67,1.66-1.46,2.45-3.12,3.12
				c-0.47,0.19-0.47,0.87,0,1.06c1.66,0.67,2.45,1.46,3.12,3.12c0.19,0.47,0.87,0.47,1.06,0c0.67-1.66,1.46-2.45,3.12-3.12
				C246.68,382.81,246.68,382.13,246.21,381.94z M254.06,389.88c-1.38,0-2.5,1.12-2.5,2.5c0,1.38,1.12,2.5,2.5,2.5
				c1.38,0,2.5-1.12,2.5-2.5C256.56,391,255.44,389.88,254.06,389.88z M269.56,395.88c-2.21,0-4,1.79-4,4c0,2.21,1.79,4,4,4
				c2.21,0,4-1.79,4-4C273.56,397.67,271.77,395.88,269.56,395.88z"/>
			<path class="st0" d="M278.87,377.19c-4.58-5.31-17.11-1.86-28.53,7.83c-7.94,6.74-13.37,14.98-13.83,21
				c-0.18,2.33,0.39,4.33,1.64,5.78c1.45,1.68,3.71,2.49,6.49,2.49c5.18,0,12.17-2.8,19.13-8c0.66-0.5,0.8-1.44,0.3-2.1
				c-0.5-0.66-1.44-0.8-2.1-0.3c-10.16,7.59-18.94,8.98-21.56,5.96c-0.73-0.84-1.04-2.05-0.92-3.59c0.4-5.18,5.54-12.79,12.78-18.95
				c8.56-7.27,20.65-12.4,24.31-8.16c1.97,2.28,0.77,7.36-3.05,12.94c-0.47,0.68-0.29,1.62,0.39,2.08c0.69,0.47,1.62,0.29,2.08-0.39
				C280.77,386.84,281.84,380.64,278.87,377.19z M249.94,377.29c0.88,0.35,1.3,0.77,1.66,1.66c0.1,0.25,0.46,0.25,0.56,0
				c0.35-0.88,0.77-1.3,1.66-1.66c0.25-0.1,0.25-0.46,0-0.56c-0.88-0.35-1.3-0.77-1.66-1.66c-0.1-0.25-0.46-0.25-0.56,0
				c-0.35,0.88-0.77,1.3-1.66,1.66C249.69,376.82,249.69,377.19,249.94,377.29z M267.35,410.16c-0.97-0.39-1.44-0.85-1.83-1.83
				c-0.11-0.28-0.51-0.28-0.62,0c-0.39,0.97-0.85,1.44-1.83,1.83c-0.28,0.11-0.28,0.51,0,0.62c0.97,0.39,1.44,0.85,1.83,1.83
				c0.11,0.28,0.51,0.28,0.62,0c0.39-0.97,0.85-1.44,1.83-1.83C267.63,410.67,267.63,410.27,267.35,410.16z M258.7,386.64
				c-0.68,0.48-0.84,1.41-0.37,2.09c0.48,0.68,1.41,0.84,2.09,0.37c4.42-3.1,7.15-3.92,8.04-3.93c-0.17,1.38-2.98,5.66-8.8,10.59
				c-5.87,4.98-10.58,7.06-12,7.01c0.1-0.58,0.69-2.06,2.73-4.55c0.53-0.64,0.43-1.59-0.21-2.11c-0.64-0.53-1.59-0.43-2.11,0.21
				c-3.27,3.99-4.21,6.85-2.77,8.49c0.58,0.66,1.39,0.94,2.35,0.94c4.7,0,12.86-6.78,13.95-7.7c4.38-3.72,9.59-9.3,9.85-12.79
				c0.08-1.07-0.31-1.75-0.64-2.14C268.46,380.44,262.21,384.17,258.7,386.64z"/>
		</g>
	</g>
	<g>
		<g>
			<path class="st0" d="M173.23,388.75c-0.08-0.26-0.36-0.41-0.63-0.33l-0.87,0.27c-0.26,0.08-0.41,0.36-0.33,0.63l2.05,6.65
				c0.08,0.26,0.36,0.41,0.63,0.33l0.87-0.27c0.26-0.08,0.41-0.36,0.33-0.63L173.23,388.75z M208.5,381.59
				c-1.3-4.22-3.21-7.38-4.27-7.06l-10.16,3.13c-1.06,0.33-1.65,1.44-1.32,2.5l3.53,11.47c0.26,0.86,1.06,1.41,1.91,1.41
				c0.19,0,0.39-0.03,0.59-0.09l10.16-3.13c0,0,0,0,0,0C210,389.5,209.8,385.82,208.5,381.59z"/>
			<path class="st0" d="M199.18,412.22l-7.38-14.75c1.26-0.93,2.08-2.42,2.08-4.1c0-0.33-0.04-0.64-0.1-0.95l0.1-0.03l-3.39-10.99
				c-0.08-0.26-0.36-0.41-0.63-0.33l-13.73,4.23c-1.06,0.33-1.65,1.44-1.32,2.5l2.36,7.65c0.33,1.06,1.44,1.65,2.5,1.32l4.38-1.35
				c0.39,0.9,1.03,1.66,1.83,2.21l-7.3,14.61c-0.36,0.72-0.17,1.64,0.52,2.05c0.24,0.15,0.51,0.22,0.77,0.22
				c0.55,0,1.08-0.3,1.34-0.83l6.16-12.32v11.65c0,0.83,0.67,1.5,1.5,1.5c0.83,0,1.5-0.67,1.5-1.5v-11.65l6.16,12.32
				c0.26,0.53,0.79,0.83,1.34,0.83c0.26,0,0.53-0.07,0.77-0.22C199.35,413.86,199.54,412.94,199.18,412.22z M188.76,395.28
				c-1.06,0-1.92-0.86-1.92-1.92s0.86-1.92,1.92-1.92c1.06,0,1.92,0.86,1.92,1.92S189.82,395.28,188.76,395.28z"/>
		</g>
	</g>
	<g>
		<g>
			<path class="st0" d="M143.03,392.21c-0.87-1.38-2.74-4.16-5.32-6.94l1.43-1.43c0.82,0.2,1.71-0.02,2.35-0.65
				c0.98-0.98,0.98-2.56,0-3.54c-0.98-0.98-2.56-0.98-3.54,0c-0.67,0.67-0.87,1.61-0.62,2.46l-1.38,1.38
				c-2.81-2.66-5.57-4.49-6.95-5.33c-0.54-0.33-1.26-0.19-1.63,0.32c-2.67,3.61-1.84,9.3,2.11,13.26c3.95,3.95,9.63,4.78,13.24,2.12
				C143.24,393.47,143.37,392.75,143.03,392.21z"/>
			<path class="st0" d="M107.5,395.3h1.75l0,0h15.5c0.28,0,0.5-0.22,0.5-0.5v-1.45c0-0.17-0.02-0.33-0.06-0.49l-3.56-14.05
				c-0.22-0.89-1.02-1.51-1.94-1.51h-8.44c-1.1,0-2,0.9-2,2v11.5h-1.75c-1.24,0-2.25,1.01-2.25,2.25
				C105.25,394.29,106.26,395.3,107.5,395.3z M112.25,381.8c0-0.28,0.22-0.5,0.5-0.5h5.1c0.23,0,0.44,0.16,0.49,0.39l1.78,8
				c0.07,0.31-0.17,0.61-0.49,0.61h-6.88c-0.28,0-0.5-0.22-0.5-0.5V381.8z M109.25,403.2c-0.83,0-1.5,0.67-1.5,1.5
				c0,0.83,0.67,1.5,1.5,1.5c0.83,0,1.5-0.67,1.5-1.5C110.75,403.87,110.08,403.2,109.25,403.2z M133.25,403.2
				c-0.83,0-1.5,0.67-1.5,1.5c0,0.83,0.67,1.5,1.5,1.5c0.83,0,1.5-0.67,1.5-1.5C134.75,403.87,134.08,403.2,133.25,403.2z
				 M121.25,403.2c-0.83,0-1.5,0.67-1.5,1.5c0,0.83,0.67,1.5,1.5,1.5c0.83,0,1.5-0.67,1.5-1.5
				C122.75,403.87,122.08,403.2,121.25,403.2z M138.68,400.88c-1.29-1.99-3.5-3.18-5.87-3.18h-24.03c-2.37,0-4.58,1.2-5.87,3.18
				c-1.51,2.32-1.51,5.31,0,7.63c1.29,1.99,3.5,3.18,5.87,3.18h24.03c2.37,0,4.58-1.2,5.87-3.18
				C140.19,406.19,140.19,403.2,138.68,400.88z M109.25,408.7c-2.21,0-4-1.79-4-4c0-2.21,1.79-4,4-4c2.21,0,4,1.79,4,4
				C113.25,406.9,111.46,408.7,109.25,408.7z M121.25,408.7c-2.21,0-4-1.79-4-4c0-2.21,1.79-4,4-4c2.21,0,4,1.79,4,4
				C125.25,406.9,123.46,408.7,121.25,408.7z M133.25,408.7c-2.21,0-4-1.79-4-4c0-2.21,1.79-4,4-4c2.21,0,4,1.79,4,4
				C137.25,406.9,135.46,408.7,133.25,408.7z"/>
		</g>
	</g>
	<g>
		<g>
			<path class="st0" d="M53.44,392.35c-2.21,0-4,1.79-4,4c0,2.21,1.79,4,4,4c2.21,0,4-1.79,4-4
				C57.44,394.14,55.65,392.35,53.44,392.35z M52.83,403.99c-0.02,0-0.04,0-0.06,0c-3.99-0.16-7.51-2.86-8.75-6.65
				c-0.48-1.45-0.74-3.01-0.74-4.62c0-3.67,1.33-7.02,3.53-9.61c0.87-1.02-0.36-2.5-1.49-1.78c-3.15,2.02-5.41,5.38-6.08,9.22
				c-0.07,0.39-0.63,0.38-0.67-0.02c-0.05-0.47-0.07-0.94-0.07-1.42c0-1.37-1.9-1.7-2.31-0.39c-1.33,4.24-0.55,9.05,2.53,12.71
				c3.6,4.29,9.29,5.76,14.32,4.21C53.93,405.35,53.77,404.02,52.83,403.99z M70.93,396.5c-0.18-3.73-1.95-7.38-4.94-9.88
				c-0.3-0.25-0.01-0.73,0.35-0.57c0.43,0.19,0.85,0.41,1.26,0.64c1.18,0.68,2.42-0.8,1.49-1.8c-3.01-3.28-7.57-5-12.27-4.17
				c-5.51,0.97-9.64,5.16-10.8,10.3c-0.21,0.92,1.02,1.44,1.52,0.65c0.01-0.02,0.02-0.03,0.03-0.05c2.13-3.37,6.23-5.07,10.14-4.25
				c1.5,0.31,2.97,0.87,4.37,1.68c3.18,1.83,5.42,4.66,6.56,7.86C69.1,398.16,71,397.84,70.93,396.5z M73.18,405.54
				c-1.21-0.48-1.78-1.06-2.26-2.26c-0.14-0.34-0.63-0.34-0.77,0c-0.48,1.21-1.06,1.78-2.26,2.26c-0.34,0.14-0.34,0.63,0,0.77
				c1.21,0.48,1.78,1.06,2.26,2.26c0.14,0.34,0.63,0.34,0.77,0c0.48-1.21,1.06-1.78,2.26-2.26
				C73.53,406.17,73.53,405.68,73.18,405.54z"/>
			<path class="st0" d="M47.93,377.38c1.41,0.57,2.09,1.24,2.65,2.65c0.16,0.4,0.74,0.4,0.9,0c0.57-1.41,1.24-2.09,2.65-2.65
				c0.4-0.16,0.4-0.74,0-0.9c-1.41-0.57-2.09-1.24-2.65-2.65c-0.16-0.4-0.74-0.4-0.9,0c-0.57,1.41-1.24,2.09-2.65,2.65
				C47.53,376.63,47.53,377.22,47.93,377.38z M61.72,392.4c-0.69-0.64-1.76,0.16-1.32,0.99c0.01,0.02,0.02,0.04,0.03,0.05
				c1.85,3.53,1.27,7.93-1.39,10.91c-1.02,1.14-2.24,2.14-3.64,2.95c-3.18,1.83-6.74,2.36-10.09,1.75
				c-1.32-0.24-1.99,1.56-0.79,2.18c3.32,1.71,7.36,2,11.02,0.66c0.37-0.13,0.64,0.36,0.32,0.59c-0.38,0.28-0.78,0.54-1.19,0.77
				c-1.18,0.68-0.52,2.49,0.82,2.2c4.34-0.97,8.11-4.05,9.75-8.54C67.15,401.64,65.59,395.98,61.72,392.4z M40.23,407.61
				c-1-0.4-1.47-0.88-1.87-1.87c-0.11-0.28-0.52-0.28-0.64,0c-0.4,1-0.88,1.47-1.87,1.87c-0.28,0.11-0.28,0.52,0,0.64
				c1,0.4,1.47,0.88,1.87,1.87c0.11,0.28,0.52,0.28,0.64,0c0.4-1,0.88-1.47,1.87-1.87C40.51,408.13,40.51,407.72,40.23,407.61z"/>
		</g>
	</g>
	<g>
		<g>
			<path class="st0" d="M394.5,327.16c-10.1,0-18.38,7.67-19.39,17.5c-0.06,0.57,0.41,1.05,0.97,1.05h36.84
				c0.57,0,1.03-0.49,0.97-1.05C412.88,334.83,404.6,327.16,394.5,327.16z M385.31,338.66c-0.44,1.25-1.88,2.3-3.2,2.33
				c-1.33,0.04-2.04-0.94-1.6-2.19c0.44-1.25,1.88-2.3,3.2-2.33C385.04,336.43,385.75,337.41,385.31,338.66z M399.74,341.92
				c-0.74,0.43-1.9,0.35-2.58-0.17s-0.63-1.29,0.11-1.72c0.74-0.43,1.9-0.35,2.58,0.17C400.54,340.72,400.49,341.49,399.74,341.92z
				 M401.15,334.14c-0.83,0.19-1.92-0.22-2.42-0.91c-0.5-0.7-0.23-1.42,0.61-1.61c0.84-0.19,1.92,0.22,2.42,0.91
				C402.25,333.22,401.98,333.95,401.15,334.14z M406.86,341.65c-1.5-0.06-3.04-1.28-3.45-2.72c-0.41-1.44,0.47-2.55,1.96-2.49
				s3.04,1.28,3.45,2.72C409.23,340.59,408.36,341.71,406.86,341.65z M406.9,325.92c1.16,0.46,1.71,1.01,2.17,2.17
				c0.13,0.33,0.61,0.33,0.74,0c0.46-1.16,1.01-1.71,2.17-2.17c0.33-0.13,0.33-0.61,0-0.74c-1.16-0.46-1.71-1.01-2.17-2.17
				c-0.13-0.33-0.61-0.33-0.74,0c-0.46,1.16-1.01,1.71-2.17,2.17C406.57,325.31,406.57,325.79,406.9,325.92z M391.03,322.32
				c1.24,0,2.24-1,2.24-2.24c0-1.24-1-2.24-2.24-2.24c-1.24,0-2.24,1-2.24,2.24C388.79,321.31,389.8,322.32,391.03,322.32z"/>
			<path class="st0" d="M380.58,316.42c-1.6-0.44-3.25,0.51-3.68,2.11s0.51,3.25,2.11,3.68s3.25-0.51,3.68-2.11
				C383.12,318.5,382.18,316.85,380.58,316.42z M404.84,307.44c-2.13-0.58-4.33,0.68-4.91,2.81c-0.58,2.13,0.68,4.33,2.81,4.91
				c2.13,0.58,4.33-0.68,4.91-2.81C408.23,310.22,406.98,308.02,404.84,307.44z"/>
		</g>
	</g>
	<g>
		<g>
			<path class="st0" d="M334.83,310.03c-5.88-5.88-15.35-6.02-21.42-0.45c-0.22,0.07-0.43,0.18-0.6,0.35
				c-0.17,0.17-0.28,0.38-0.35,0.6c-5.57,6.07-5.43,15.54,0.45,21.42c3.02,3.02,6.99,4.53,10.96,4.53c3.97,0,7.94-1.51,10.96-4.53
				C340.88,325.91,340.88,316.08,334.83,310.03z M323.87,308.5c1.48,0,2.95,0.27,4.35,0.79c-2.65,0.85-5.66,2.69-8.57,5.36
				l-3.49-3.49C318.42,309.39,321.14,308.5,323.87,308.5z M312.17,325.34c-1.48-3.99-0.85-8.58,1.87-12.06l3.49,3.49
				C314.86,319.69,313.02,322.69,312.17,325.34z M315.03,329.83c-1.21-1.21,0.07-5.93,4.62-10.93l3.7,3.7
				c0.29,0.29,0.68,0.44,1.06,0.44c0.38,0,0.77-0.15,1.06-0.44c0.59-0.59,0.59-1.54,0-2.12l-3.69-3.69
				c3.83-3.48,7.49-5.06,9.53-5.06c0.63,0,1.11,0.15,1.39,0.43c0.65,0.65,0.56,2.29-0.23,4.28c-0.99,2.49-2.92,5.24-5.43,7.74
				C321.66,329.57,316.33,331.13,315.03,329.83z M319.53,332.7c2.65-0.85,5.65-2.7,8.56-5.37l3.49,3.49
				C328.11,333.55,323.52,334.17,319.53,332.7z M333.7,328.7l-3.49-3.49c2.28-2.49,4.06-5.17,5.05-7.66c0.12-0.31,0.22-0.6,0.32-0.9
				C337.05,320.64,336.43,325.23,333.7,328.7z"/>
			<path class="st0" d="M338.69,306.92c-0.59-0.59-1.54-0.59-2.12,0c-0.59,0.59-0.59,1.54,0,2.12c3.26,3.26,5.05,7.59,5.05,12.2
				s-1.79,8.94-5.05,12.2c-3.26,3.26-7.59,5.05-12.2,5.05c-4.61,0-8.94-1.79-12.2-5.05c-0.59-0.59-1.54-0.59-2.12,0
				c-0.59,0.59-0.59,1.54,0,2.12c3.46,3.46,7.88,5.41,12.41,5.83c-0.28,0.96-0.97,1.73-1.89,2.1h-1.21c-1.1,0-2,0.9-2,2s0.9,2,2,2
				h10c1.1,0,2-0.9,2-2s-0.9-2-2-2h-1.21c-0.91-0.37-1.61-1.14-1.89-2.1c4.53-0.42,8.95-2.37,12.41-5.83
				C346.59,327.67,346.59,314.82,338.69,306.92z"/>
		</g>
	</g>
	<g>
		<g>
			<circle class="st0" cx="258.56" cy="326.5" r="3"/>
			<path class="st0" d="M272.14,326.41c0.34-0.37,0.66-0.75,0.96-1.12c2.7-3.36,3.49-6.42,2.22-8.61c-0.66-1.14-2.16-2.52-5.57-2.6
				c-0.85-0.03-1.52,0.64-1.54,1.46c-0.02,0.83,0.63,1.52,1.46,1.54c1.58,0.04,2.66,0.43,3.05,1.1c0.58,1-0.17,3.01-1.96,5.23
				c-0.24,0.3-0.5,0.6-0.77,0.89c-0.99-0.88-2.06-1.74-3.18-2.56c-0.77-7.45-3.57-14.74-8.25-14.74c-3.11,0-5.41,3.18-6.83,7.65
				c-0.51-0.11-1.01-0.21-1.49-0.28c-4.26-0.65-7.3,0.19-8.57,2.38c-0.69,1.2-1.13,3.3,0.74,6.49c0.42,0.71,1.34,0.96,2.05,0.54
				c0.71-0.42,0.96-1.34,0.54-2.05c-0.87-1.49-1.14-2.76-0.73-3.47c0.58-1,2.69-1.35,5.51-0.92c0.39,0.06,0.78,0.14,1.19,0.22
				c-0.27,1.28-0.49,2.63-0.64,4c-6.13,4.4-11.15,10.54-8.79,14.63c1.05,1.82,3.17,2.59,5.86,2.59c1.31,0,2.77-0.21,4.29-0.54
				c1.42,4.53,3.73,7.78,6.87,7.78c1.43,0,3.52-0.71,5.38-4.12c0.4-0.73,0.13-1.64-0.6-2.04c-0.73-0.4-1.64-0.13-2.04,0.6
				c-0.89,1.62-1.89,2.55-2.74,2.55c-1.26,0-2.83-2.02-3.97-5.57c1.26-0.41,2.54-0.91,3.82-1.48c3.8,1.72,7.88,2.88,11.17,2.88
				c2.67,0,4.82-0.76,5.87-2.58C277.02,333.53,275.36,329.9,272.14,326.41z M244.15,334.68c-0.88-1.53,1.17-5.25,5.93-9.15
				c-0.01,0.33-0.01,0.65-0.01,0.98c0,3,0.3,6.06,0.89,8.84C247.31,336.12,244.77,335.77,244.15,334.68z M258.56,310
				c1.75,0,3.92,3.58,4.93,9.54c-0.23-0.14-0.45-0.27-0.68-0.4c-2.74-1.58-5.53-2.84-8.18-3.7C255.77,311.98,257.32,310,258.56,310z
				 M253.84,334.54c-0.48-2.3-0.78-5-0.78-8.04c0-3.09,0.31-5.83,0.8-8.16c2.39,0.79,4.94,1.95,7.45,3.4
				c2.63,1.52,4.81,3.12,6.56,4.68c-1.89,1.68-4.17,3.32-6.69,4.77C258.55,332.71,256.07,333.8,253.84,334.54z M272.85,334.75
				c-0.88,1.53-5.14,1.61-10.9-0.56c0.24-0.14,0.49-0.26,0.74-0.4c2.76-1.59,5.25-3.4,7.33-5.27
				C272.52,331.28,273.48,333.66,272.85,334.75z"/>
		</g>
	</g>
	<g>
		<g>
			<path class="st0" d="M194.69,325.73c0.86-0.35,0.86-1.57,0-1.92c-2.88-1.17-4.27-2.55-5.43-5.43c-0.35-0.86-1.57-0.86-1.92,0
				c-1.17,2.88-2.55,4.27-5.43,5.43c-0.86,0.35-0.86,1.57,0,1.92c2.88,1.17,4.27,2.55,5.43,5.43c0.35,0.86,1.57,0.86,1.92,0
				C190.42,328.29,191.81,326.9,194.69,325.73z M195.81,339.04c-1.17-0.51-1.8-1.14-2.31-2.31c-0.21-0.48-0.91-0.48-1.12,0
				c-0.51,1.17-1.14,1.8-2.31,2.31c-0.48,0.21-0.48,0.91,0,1.12c1.17,0.51,1.8,1.14,2.31,2.31c0.21,0.48,0.91,0.48,1.12,0
				c0.51-1.17,1.14-1.8,2.31-2.31C196.29,339.95,196.29,339.25,195.81,339.04z"/>
			<path class="st0" d="M178.81,333.04c-1.17-0.51-1.8-1.14-2.31-2.31c-0.21-0.48-0.91-0.48-1.12,0c-0.51,1.17-1.14,1.8-2.31,2.31
				c-0.48,0.21-0.48,0.91,0,1.12c1.17,0.51,1.8,1.14,2.31,2.31c0.21,0.48,0.91,0.48,1.12,0c0.51-1.17,1.14-1.8,2.31-2.31
				C179.29,333.95,179.29,333.25,178.81,333.04z M178.81,313.04c-1.17-0.51-1.8-1.14-2.31-2.31c-0.21-0.48-0.91-0.48-1.12,0
				c-0.51,1.17-1.14,1.8-2.31,2.31c-0.48,0.21-0.48,0.91,0,1.12c1.17,0.51,1.8,1.14,2.31,2.31c0.21,0.48,0.91,0.48,1.12,0
				c0.51-1.17,1.14-1.8,2.31-2.31C179.29,313.95,179.29,313.25,178.81,313.04z M207.71,315.51c-2.52-1.02-3.74-2.24-4.76-4.76
				c-0.31-0.77-1.4-0.77-1.71,0c-1.02,2.52-2.24,3.74-4.76,4.76c-0.77,0.31-0.77,1.4,0,1.71c2.52,1.02,3.74,2.24,4.76,4.76
				c0.31,0.77,1.4,0.77,1.71,0c1.02-2.52,2.24-3.74,4.76-4.76C208.48,316.91,208.48,315.83,207.71,315.51z M207.1,332.04
				c-2.24-0.91-3.33-2-4.25-4.25c-0.28-0.68-1.25-0.68-1.53,0c-0.91,2.24-2,3.33-4.25,4.25c-0.68,0.28-0.68,1.25,0,1.53
				c2.24,0.91,3.33,2,4.25,4.25c0.28,0.68,1.25,0.68,1.53,0c0.91-2.24,2-3.33,4.25-4.25C207.79,333.3,207.79,332.32,207.1,332.04z"
				/>
		</g>
	</g>
	<g>
		<g>
			<g>
				<path class="st0" d="M123.52,343.9l-3.78-6.88c-0.21-0.38-0.64-0.58-1.06-0.5c-0.48,0.1-0.97,0.15-1.47,0.15
					c-1.4,0-2.7-0.39-3.82-1.05c-0.47-0.28-1.08-0.14-1.37,0.32l-4.86,7.87c-0.77,1.25,0.13,2.86,1.59,2.86h13.13
					C123.3,346.67,124.21,345.14,123.52,343.9z"/>
				<path class="st0" d="M137.83,330c-1.44-2.36-4.63-7.17-9.29-12.01l1.55-1.53c1.22,0.43,2.63,0.17,3.61-0.81
					c1.35-1.35,1.35-3.55,0-4.91c-1.35-1.35-3.55-1.35-4.91,0c-0.97,0.97-1.23,2.37-0.81,3.58l-1.57,1.55
					c-4.76-4.5-9.58-7.75-11.95-9.23c-0.9-0.57-2.1-0.34-2.74,0.52c-3.95,5.36-3.26,13.46,1.59,19.81c-0.37,0.65-0.6,1.39-0.6,2.2
					c0,2.49,2.01,4.5,4.5,4.5c1.02,0,1.95-0.35,2.7-0.92c5.89,3.34,12.69,3.43,17.39-0.03C138.15,332.08,138.38,330.9,137.83,330z
					 M115.98,323.83c-0.21,0.13-0.44,0.19-0.67,0.19c-0.41,0-0.82-0.21-1.06-0.58c-2.14-3.39-2.76-7.26-1.7-10.61
					c0.21-0.66,0.91-1.02,1.57-0.81c0.66,0.21,1.02,0.91,0.81,1.57c-0.83,2.61-0.29,5.79,1.43,8.52
					C116.73,322.68,116.56,323.46,115.98,323.83z"/>
			</g>
		</g>
	</g>
	<g>
		<g>
			<path class="st0" d="M53.09,311.02c-0.63-0.59-1.63,0.05-1.36,0.87c0.37,1.13,0.82,2.51,1.34,4.06
				c-5.01-3.87-10.66-7.16-16.39-9.85c-0.8-0.38-1.56,0.6-1,1.29c3.33,4.05,6.45,8.31,9.52,12.56c-2.4-1.24-4.61-2.3-6.24-3.07
				c-0.78-0.37-1.53,0.55-1.02,1.25c2.96,4.05,8.88,12.05,13.38,17.57l1.7-2.02l-1.08-3.91c-0.36-1.31-0.1-2.67,0.72-3.74
				c0.81-1.07,2.09-1.7,3.42-1.7c0.55,0,1.1,0.11,1.62,0.32l3.76,1.52l3.39-2.24c0.11-0.07,0.23-0.13,0.35-0.19
				C61.22,318.84,56.05,313.79,53.09,311.02z"/>
			<path class="st0" d="M66.87,321.34c0.83,0,1.5-0.67,1.5-1.5c0-0.83-0.67-1.5-1.5-1.5s-1.5,0.67-1.5,1.5
				C65.37,320.67,66.04,321.34,66.87,321.34z M59.82,311.3c1.21,0.48,1.78,1.06,2.26,2.26c0.14,0.34,0.63,0.34,0.77,0
				c0.48-1.21,1.06-1.78,2.26-2.26c0.34-0.14,0.34-0.63,0-0.77c-1.21-0.48-1.78-1.06-2.26-2.26c-0.14-0.34-0.63-0.34-0.77,0
				c-0.48,1.21-1.06,1.78-2.26,2.26C59.48,310.67,59.48,311.17,59.82,311.3z M38.37,329.34c-1.1,0-2,0.9-2,2c0,1.1,0.9,2,2,2
				s2-0.9,2-2C40.37,330.24,39.48,329.34,38.37,329.34z M44.87,335.34c-0.83,0-1.5,0.67-1.5,1.5c0,0.83,0.67,1.5,1.5,1.5
				s1.5-0.67,1.5-1.5C46.37,336.01,45.7,335.34,44.87,335.34z M72.83,336.34l-3.46-2.76c-0.46-0.37-0.71-0.94-0.67-1.53l0.31-4.42
				c0.08-1.11-0.82-1.93-1.8-1.93c-0.33,0-0.67,0.09-0.99,0.3l-3.69,2.44c-0.3,0.2-0.64,0.3-0.99,0.3c-0.23,0-0.46-0.04-0.67-0.13
				l-4.1-1.66c-0.23-0.09-0.46-0.13-0.68-0.13c-1.12,0-2.06,1.08-1.73,2.28l1.18,4.27c0.16,0.57,0.02,1.18-0.36,1.64l-2.85,3.39
				c-0.96,1.14-0.19,2.89,1.3,2.95l4.42,0.2c0.59,0.03,1.13,0.34,1.45,0.84l2.34,3.76c0.36,0.57,0.94,0.85,1.52,0.85
				c0.7,0,1.4-0.4,1.69-1.17l1.56-4.14c0.21-0.55,0.68-0.97,1.25-1.11l4.3-1.07C73.59,339.13,74,337.27,72.83,336.34z M69.35,338.01
				c-0.71,0.46-1.86,0.44-2.56-0.04c-0.7-0.48-0.69-1.25,0.03-1.71c0.71-0.46,1.86-0.44,2.56,0.04
				C70.08,336.79,70.07,337.55,69.35,338.01z"/>
		</g>
	</g>
	<g>
		<g>
			<g>
				<g>
					<path class="st0" d="M413.19,239.72c-0.81-0.81-1.99-1.16-3.11-0.91l-2.17,0.48c-3.53,0.78-6.76,2.56-9.31,5.11l-0.6,0.6
						c-2.73,2.73-6.33,4.43-10.17,4.79l-5.84,0.56c-0.46,0.04-0.9,0.25-1.22,0.58l-1.59,1.59c-0.78,0.78-0.78,2.05,0,2.83l6.27,6.27
						c-0.61,0.35-1.2,0.69-1.86,1.04c-0.49,0.27-0.66,0.88-0.4,1.37c1.7,3.1,3.3,4.7,6.4,6.4c0.49,0.27,1.11,0.09,1.37-0.4
						c0.36-0.65,0.69-1.25,1.04-1.86l6.27,6.27c0.78,0.78,2.05,0.78,2.83,0l1.56-1.56c0.34-0.34,0.55-0.8,0.58-1.28l0.43-6.61
						c0.26-4.03,1.98-7.82,4.83-10.68h0c2.55-2.55,4.33-5.78,5.11-9.31l0.48-2.17C414.35,241.71,414,240.54,413.19,239.72z
						 M408.17,250.41l-1.04,1.04c-0.39,0.39-1.05,0.15-1.1-0.4c-0.1-0.94-0.58-1.94-1.4-2.77c-0.82-0.82-1.83-1.3-2.77-1.4
						c-0.55-0.06-0.79-0.71-0.4-1.1l1.04-1.04c1.17-1.17,3.4-0.86,4.96,0.71C409.03,247.02,409.35,249.24,408.17,250.41z"/>
					<path class="st0" d="M386.8,271.82l-5.54-5.54c-0.15-0.15-0.4-0.16-0.55-0.01c-0.3,0.29-0.71,0.7-0.86,0.85
						c-4.89,4.89-5.03,11.14-5.03,11.14s6.25-0.14,11.14-5.03c0.15-0.15,0.56-0.56,0.85-0.86
						C386.96,272.22,386.96,271.97,386.8,271.82z"/>
				</g>
			</g>
		</g>
	</g>
	<g>
		<g>
			<path class="st0" d="M325.81,243.85c-0.63-0.59-1.63,0.05-1.36,0.87c0.37,1.13,0.82,2.51,1.34,4.06
				c-5.01-3.87-10.66-7.16-16.39-9.85c-0.8-0.38-1.56,0.6-1,1.29c3.33,4.06,6.45,8.31,9.52,12.56c-2.4-1.24-4.61-2.3-6.24-3.07
				c-0.78-0.37-1.53,0.55-1.02,1.25c2.42,3.31,6.8,9.24,10.78,14.31c1.11-6.07,6.43-10.69,12.82-10.69c0.74,0,1.46,0.08,2.16,0.19
				C332.71,250.47,328.4,246.28,325.81,243.85z"/>
			<path class="st0" d="M339.58,254.16c0.83,0,1.5-0.67,1.5-1.5c0-0.83-0.67-1.5-1.5-1.5s-1.5,0.67-1.5,1.5
				C338.08,253.49,338.76,254.16,339.58,254.16z M332.53,244.13c1.21,0.48,1.78,1.06,2.26,2.26c0.14,0.34,0.63,0.34,0.77,0
				c0.48-1.21,1.06-1.78,2.26-2.26c0.34-0.14,0.34-0.63,0-0.77c-1.21-0.48-1.78-1.06-2.26-2.26c-0.14-0.34-0.63-0.34-0.77,0
				c-0.48,1.21-1.06,1.78-2.26,2.26C332.19,243.49,332.19,243.99,332.53,244.13z M334.25,257.07c-5.82,0-10.55,4.72-10.55,10.55
				c0,5.82,4.72,10.55,10.55,10.55c5.82,0,10.55-4.72,10.55-10.55C344.8,261.79,340.08,257.07,334.25,257.07z M330.14,274.22
				c-1.08-0.38-1.98-1.62-2.01-2.77c-0.03-1.14,0.82-1.76,1.89-1.38c1.08,0.38,1.98,1.62,2.01,2.77
				C332.07,273.99,331.22,274.61,330.14,274.22z M336.69,261.54c-0.25-0.69,0.14-1.23,0.88-1.2c0.74,0.03,1.54,0.62,1.8,1.32
				c0.25,0.69-0.14,1.23-0.88,1.2C337.75,262.83,336.95,262.23,336.69,261.54z M339.43,269.88c-0.89-0.93-1.13-2.61-0.53-3.75
				c0.6-1.14,1.82-1.31,2.71-0.38c0.89,0.93,1.13,2.61,0.53,3.75C341.54,270.64,340.32,270.81,339.43,269.88z M311.08,262.16
				c-1.1,0-2,0.9-2,2c0,1.1,0.9,2,2,2c1.1,0,2-0.9,2-2C313.08,263.06,312.19,262.16,311.08,262.16z M317.58,268.16
				c-0.83,0-1.5,0.67-1.5,1.5c0,0.83,0.67,1.5,1.5,1.5s1.5-0.67,1.5-1.5C319.08,268.83,318.41,268.16,317.58,268.16z"/>
		</g>
	</g>
	<g>
		<g>
			<path class="st0" d="M265.3,253.34c-1.82-0.73-2.68-1.59-3.41-3.41c-0.21-0.52-0.95-0.52-1.16,0c-0.73,1.82-1.59,2.68-3.41,3.41
				c-0.52,0.21-0.52,0.95,0,1.16c1.82,0.73,2.68,1.59,3.41,3.41c0.21,0.52,0.95,0.52,1.16,0c0.73-1.82,1.59-2.68,3.41-3.41
				C265.81,254.29,265.81,253.54,265.3,253.34z"/>
			<path class="st0" d="M272.35,263.32c-0.12,0.13-0.25,0.27-0.38,0.4c-4.87,4.87-12.96,4.55-17.4-0.96
				c-3.3-4.08-3.42-10.03-0.3-14.25c0.47-0.64,0.99-1.21,1.54-1.71c1-0.91,0.12-2.58-1.19-2.24c-3.47,0.89-6.7,2.94-9.09,6.15
				c-4.37,5.87-4.2,14.17,0.37,19.89c6.21,7.76,17.58,8.22,24.41,1.39c2.15-2.15,3.58-4.75,4.28-7.5
				C274.92,263.19,273.25,262.33,272.35,263.32z M268.52,257.75c1.16,0.47,1.71,1.02,2.18,2.18c0.13,0.33,0.61,0.33,0.74,0
				c0.47-1.16,1.02-1.71,2.18-2.18c0.33-0.13,0.33-0.61,0-0.74c-1.16-0.47-1.71-1.02-2.18-2.18c-0.13-0.33-0.61-0.33-0.74,0
				c-0.47,1.16-1.02,1.71-2.18,2.18C268.2,257.14,268.2,257.62,268.52,257.75z M263.49,243.39c1.17,0.47,1.72,1.02,2.19,2.19
				c0.13,0.33,0.61,0.33,0.74,0c0.47-1.17,1.02-1.72,2.19-2.19c0.33-0.13,0.33-0.61,0-0.74c-1.17-0.47-1.72-1.02-2.19-2.19
				c-0.13-0.33-0.61-0.33-0.74,0c-0.47,1.17-1.02,1.72-2.19,2.19C263.16,242.78,263.16,243.26,263.49,243.39z"/>
		</g>
	</g>
	<g>
		<g>
			<g>
				<path class="st0" d="M206.18,237.86c-2.13-0.58-4.33,0.68-4.91,2.81s0.68,4.33,2.81,4.91c2.13,0.58,4.33-0.68,4.91-2.81
					C209.57,240.64,208.31,238.44,206.18,237.86z"/>
				<path class="st0" d="M175.66,273.38c-1.6-0.44-3.25,0.51-3.68,2.11c-0.44,1.6,0.51,3.25,2.11,3.68c1.6,0.44,3.25-0.51,3.68-2.11
					C178.2,275.47,177.25,273.82,175.66,273.38z M208.85,259.75l-12.86,12.86c-0.24,0.24-0.56,0.37-0.88,0.37
					c-0.32,0-0.64-0.12-0.88-0.37c-0.49-0.49-0.49-1.28,0-1.77l13.93-13.93c-0.66-1.91-1.67-3.66-2.96-5.17l-5.55,5.45
					c-0.24,0.24-0.56,0.36-0.88,0.36c-0.32,0-0.65-0.13-0.89-0.37c-0.48-0.49-0.48-1.28,0.02-1.77l5.53-5.44
					c-1.5-1.28-3.24-2.28-5.15-2.94l-15.07,15.07c-0.24,0.24-0.56,0.37-0.88,0.37c-0.32,0-0.64-0.12-0.88-0.37
					c-0.49-0.49-0.49-1.28,0-1.77l14-13.99c-0.78-0.12-1.58-0.2-2.39-0.2c-8.84,0-16,7.16-16,16c0,3.95,1.44,7.56,3.81,10.35
					l11.26-11.06c0.49-0.48,1.28-0.48,1.77,0.02c0.48,0.49,0.48,1.28-0.02,1.77l-11.24,11.05c2.8,2.41,6.44,3.88,10.43,3.88
					c8.84,0,16-7.16,16-16C209.04,261.32,208.96,260.53,208.85,259.75z"/>
			</g>
		</g>
	</g>
	<g>
		<g>
			<path class="st0" d="M126.65,239.06c-2.13-0.58-4.33,0.68-4.91,2.81c-0.58,2.13,0.68,4.33,2.81,4.91
				c2.13,0.58,4.33-0.68,4.91-2.81C130.03,241.84,128.78,239.64,126.65,239.06z"/>
			<path class="st0" d="M107.49,258.73c0.44-1.6-0.51-3.25-2.11-3.68c-1.6-0.44-3.25,0.51-3.68,2.11c-0.44,1.6,0.51,3.25,2.11,3.68
				C105.41,261.27,107.05,260.33,107.49,258.73z M118.47,276.62c3.92,1.98,8.73,2.02,12.83-0.33c4.09-2.34,6.49-6.49,6.78-10.87
				c-2.64,2.11-5.84,4.27-9.36,6.28C125.18,273.74,121.66,275.41,118.47,276.62z M143.02,252.77c-1.49-2.56-6.37-1.76-11.57,0.12
				c-4.05-2.38-9.22-2.6-13.59-0.1c-4.31,2.46-6.73,6.94-6.8,11.57c-3.23,2.6-5.68,5.23-6.25,7.33c-0.31,1.15-0.04,1.98,0.24,2.46
				c0.67,1.15,2.03,1.62,3.79,1.62c4.99,0,13.23-3.78,18.44-6.7c7.18-4.03,14.91-9.88,15.99-13.84
				C143.58,254.08,143.31,253.26,143.02,252.77z M107.66,272.64c0-0.73,1.28-2.47,3.82-4.72c0.3,1.14,0.73,2.27,1.35,3.35
				c0.14,0.24,0.29,0.47,0.44,0.7C110.25,272.85,108.25,273.01,107.66,272.64z M120.63,257.64c-2.32,1.33-3.81,3.71-3.99,6.38
				c-0.04,0.66-0.59,1.17-1.25,1.17c-0.03,0-0.06,0-0.09,0c-0.69-0.05-1.21-0.64-1.16-1.33c0.24-3.51,2.2-6.64,5.24-8.38
				c0.6-0.34,1.36-0.13,1.71,0.46C121.43,256.53,121.23,257.3,120.63,257.64z M136.82,258.8c-0.15-0.33-0.31-0.66-0.49-0.98
				c-0.58-1.01-1.28-1.91-2.06-2.71c3.32-1.03,5.51-1.22,6.14-0.83C140.41,254.99,139.21,256.65,136.82,258.8z"/>
		</g>
	</g>
	<g>
		<g>
			<g>
				<path class="st0" d="M38.87,247.03c0.4-1,0.88-1.47,1.87-1.87c0.28-0.11,0.28-0.52,0-0.64c-1-0.4-1.47-0.88-1.87-1.87
					c-0.11-0.28-0.52-0.28-0.64,0c-0.4,1-0.88,1.47-1.87,1.87c-0.28,0.11-0.28,0.52,0,0.64c1,0.4,1.47,0.88,1.87,1.87
					C38.34,247.31,38.75,247.31,38.87,247.03z M62.45,242.26c0.83,0,1.5-0.67,1.5-1.5s-0.67-1.5-1.5-1.5s-1.5,0.67-1.5,1.5
					S61.62,242.26,62.45,242.26z M47.19,270.26l-2.88-2.88c-0.71-0.71-1.1-1.68-1.09-2.68l0.07-5.07c0.01-0.43-0.21-0.82-0.57-1.05
					l-4.16-2.64c-0.39,1.38-0.61,2.82-0.61,4.32c0,7.22,4.78,13.31,11.34,15.31l-1.82-4.87C47.41,270.54,47.32,270.39,47.19,270.26z
					 M55.82,244.38l-1.23,5.31c-0.09,0.39,0.14,0.78,0.52,0.89l2.38,0.68c1.03,0.29,1.85,1.08,2.19,2.09
					c0.34,1.01,0.16,2.13-0.48,2.99l-0.66,0.88c-0.61,0.81-1.58,1.3-2.6,1.3h-2c-0.41,0-0.75,0.34-0.75,0.75v3.36
					c0,0.16,0.05,0.31,0.14,0.44l4.03,5.64c0.14,0.2,0.37,0.31,0.61,0.31h1.3c0.36,0,0.67-0.26,0.74-0.62l1.52-8.34
					c0.19-1.04,0.87-1.92,1.82-2.36l5.7-2.66C67.09,249.33,62,245.1,55.82,244.38z"/>
				<path class="st0" d="M64.42,259.95c-0.22,0.1-0.38,0.31-0.42,0.55l-1.52,8.34c-0.28,1.55-1.63,2.67-3.2,2.67h-1.3
					c-1.05,0-2.04-0.51-2.64-1.36l-4.03-5.64c-0.4-0.56-0.61-1.21-0.61-1.89v-3.36c0-1.79,1.46-3.25,3.25-3.25h2
					c0.23,0,0.46-0.11,0.6-0.3l0.66-0.87c0.21-0.29,0.15-0.58,0.11-0.69c-0.04-0.11-0.16-0.38-0.5-0.48l-2.38-0.68
					c-1.66-0.48-2.66-2.17-2.27-3.86l1.12-4.83c-6.14,0.26-11.38,3.97-13.83,9.25l4.61,2.93c1.1,0.7,1.74,1.89,1.73,3.19l-0.07,5.07
					c0,0.33,0.13,0.65,0.36,0.88l2.88,2.88c0.38,0.38,0.66,0.82,0.85,1.32l2.38,6.34c0.58,0.06,1.17,0.1,1.77,0.1
					c8.84,0,16-7.16,16-16c0-0.95-0.1-1.87-0.26-2.77L64.42,259.95z M40.7,274.45c-1.21-0.48-1.78-1.06-2.26-2.26
					c-0.14-0.34-0.63-0.34-0.77,0c-0.48,1.21-1.06,1.78-2.26,2.26c-0.34,0.14-0.34,0.63,0,0.77c1.21,0.48,1.78,1.06,2.26,2.26
					c0.14,0.34,0.63,0.34,0.77,0c0.48-1.21,1.06-1.78,2.26-2.26C41.04,275.08,41.04,274.59,40.7,274.45z M73.19,243.03
					c-0.89-0.89-2.34-0.89-3.23,0c-0.89,0.89-0.89,2.34,0,3.23c0.89,0.89,2.34,0.89,3.23,0C74.08,245.37,74.08,243.92,73.19,243.03z
					"/>
			</g>
		</g>
	</g>
	<g>
		<g>
			<g>
				<path class="st0" d="M386.2,181.91c2.04,0.83,4.87,1.42,8.3,1.42s6.26-0.59,8.3-1.42c0.26-0.11,0.37-0.41,0.26-0.67L402.5,180
					v-6.2c0-1.54-3.58-2.8-8-2.8s-8,1.25-8,2.8v6.2l-0.56,1.24C385.82,181.5,385.94,181.8,386.2,181.91z M394.5,173
					c2.21,0,4,0.67,4,1.5s-1.79,1.5-4,1.5c-2.21,0-4-0.67-4-1.5S392.29,173,394.5,173z M412.79,202.77l-0.82-1.81
					c-0.12-0.27-0.45-0.37-0.71-0.22c-4.34,2.6-10.35,4.26-16.76,4.26c-6.41,0-12.43-1.66-16.76-4.26
					c-0.26-0.15-0.58-0.05-0.71,0.22l-0.82,1.81c-0.32,0.72-0.21,1.56,0.31,2.14c2.17,2.39,9.39,5.08,17.97,5.08
					c8.58,0,15.8-2.69,17.97-5.08C413,204.34,413.11,203.49,412.79,202.77z"/>
				<path class="st0" d="M410.31,197.29l-5.61-12.41c-0.11-0.25-0.39-0.36-0.64-0.25c-2.56,1.07-5.86,1.69-9.56,1.69
					s-7-0.63-9.56-1.69c-0.25-0.1-0.53,0-0.64,0.25l-5.61,12.41c-0.1,0.23-0.03,0.5,0.18,0.63c3.72,2.36,9.28,4.08,15.63,4.08
					c6.35,0,11.91-1.72,15.63-4.08C410.34,197.79,410.41,197.52,410.31,197.29z M394.5,198.19c-2.21,0-4-1.79-4-4c0-2.21,1.79-4,4-4
					c2.21,0,4,1.79,4,4C398.5,196.4,396.71,198.19,394.5,198.19z"/>
			</g>
		</g>
	</g>
	<g>
		<g>
			<path class="st0" d="M344.66,178.47l-4.17-4.93c-0.36-0.42-0.99-0.47-1.41-0.12l-4.53,3.83c-2.83-2.03-6.29-3.23-10.03-3.23
				c-0.69,0-1.25,0.56-1.25,1.25s0.56,1.25,1.25,1.25c8.16,0,14.79,6.64,14.79,14.79c0,0.69,0.56,1.25,1.25,1.25
				c0.69,0,1.25-0.56,1.25-1.25c0-2.73-0.65-5.31-1.79-7.61l4.52-3.82C344.96,179.53,345.01,178.89,344.66,178.47z"/>
			<path class="st0" d="M337.11,202.03h-27c-1.1,0-2,0.9-2,2v3.29c0,0.28,0.22,0.5,0.5,0.5h30c0.28,0,0.5-0.22,0.5-0.5v-3.29
				C339.11,202.92,338.21,202.03,337.11,202.03z M311.77,199.31h24.16c0.28,0,0.5-0.22,0.5-0.5v-6.92c0-6.95-5.63-12.58-12.58-12.58
				c-6.95,0-12.58,5.63-12.58,12.58v6.92C311.27,199.09,311.49,199.31,311.77,199.31z M319.56,183.52c0.72-0.41,1.63-0.17,2.05,0.55
				c0.42,0.72,0.17,1.63-0.55,2.05c-2.13,1.23-3.46,3.53-3.46,5.99c0,0.83-0.67,1.5-1.5,1.5c-0.83,0-1.5-0.67-1.5-1.5
				C314.61,188.58,316.5,185.29,319.56,183.52z"/>
		</g>
	</g>
	<g>
		<g>
			<path class="st0" d="M258.5,204.79c2,0,3.69-1.29,4.31-3.08h-8.62C254.81,203.5,256.5,204.79,258.5,204.79z M246.58,204.79
				c2,0,3.69-1.29,4.31-3.08h-8.62C242.9,203.5,244.58,204.79,246.58,204.79z M266.11,201.71c0.62,1.79,2.31,3.08,4.31,3.08
				c2,0,3.69-1.29,4.31-3.08H266.11z"/>
			<path class="st0" d="M280.02,196.52l-2.07-5.68c-0.57-1.58-2.08-2.63-3.76-2.63h-1.43c-1.18-6.81-7.11-12-14.26-12l0,0
				c-7.15,0-13.08,5.19-14.26,12h-1.44c-1.68,0-3.18,1.05-3.76,2.63l-2.07,5.68c-0.47,1.3,0.49,2.68,1.88,2.68h39.29
				C279.53,199.21,280.5,197.83,280.02,196.52z M247.5,195.71c-1.1,0-2-0.9-2-2s0.9-2,2-2s2,0.9,2,2S248.6,195.71,247.5,195.71z
				 M250.79,185.83c-0.23,0.4-0.65,0.62-1.08,0.62c-0.21,0-0.43-0.05-0.63-0.17c-0.6-0.35-0.8-1.11-0.46-1.71
				c1.83-3.16,5.23-5.12,8.88-5.12c0.69,0,1.25,0.56,1.25,1.25s-0.56,1.25-1.25,1.25C254.74,181.96,252.17,183.44,250.79,185.83z
				 M258.5,195.71c-1.1,0-2-0.9-2-2s0.9-2,2-2s2,0.9,2,2S259.6,195.71,258.5,195.71z M269.5,195.71c-1.1,0-2-0.9-2-2s0.9-2,2-2
				s2,0.9,2,2S270.6,195.71,269.5,195.71z"/>
		</g>
	</g>
	<g>
		<g>
			<path class="st0" d="M193.1,197h-7c-0.28,0-0.5,0.22-0.5,0.5V209c0,0.28,0.22,0.5,0.5,0.5h7c0.28,0,0.5-0.22,0.5-0.5v-11.5
				C193.6,197.22,193.38,197,193.1,197z M191.6,171.5h-4c-1.1,0-2,0.9-2,2v1c0,0.28,0.22,0.5,0.5,0.5h7c0.28,0,0.5-0.22,0.5-0.5v-1
				C193.6,172.4,192.71,171.5,191.6,171.5z"/>
			<path class="st0" d="M185.11,184.32c-0.69,0-1.25,0.56-1.25,1.25v1c0,0.69,0.56,1.25,1.25,1.25s1.25-0.56,1.25-1.25v-1
				C186.36,184.88,185.8,184.32,185.11,184.32z M194.11,184.32c-0.69,0-1.25,0.56-1.25,1.25v1c0,0.69,0.56,1.25,1.25,1.25
				s1.25-0.56,1.25-1.25v-1C195.36,184.88,194.8,184.32,194.11,184.32z M212.71,185.42l-5-7.08c-0.37-0.53-0.98-0.85-1.63-0.85
				h-35.96c-1.1,0-2,0.9-2,2v13c0,1.1,0.9,2,2,2h35.96c0.65,0,1.26-0.32,1.63-0.85l5-7.08
				C212.95,186.23,212.95,185.77,212.71,185.42z M179.86,189.07c0,0.69-0.56,1.25-1.25,1.25s-1.25-0.56-1.25-1.25v-1.92l-1.32,2.03
				c-0.23,0.36-0.63,0.56-1.07,0.57c-0.43-0.01-0.83-0.23-1.05-0.6l-1.07-1.75v1.68c0,0.69-0.56,1.25-1.25,1.25
				s-1.25-0.56-1.25-1.25v-6.14c0-0.56,0.37-1.05,0.91-1.2c0.54-0.15,1.11,0.08,1.41,0.55l2.35,3.87l2.53-3.9
				c0.3-0.46,0.87-0.68,1.4-0.52c0.53,0.16,0.9,0.64,0.9,1.2V189.07z M188.86,186.57c0,2.07-1.68,3.75-3.75,3.75
				s-3.75-1.68-3.75-3.75v-1c0-2.07,1.68-3.75,3.75-3.75s3.75,1.68,3.75,3.75V186.57z M197.86,186.57c0,2.07-1.68,3.75-3.75,3.75
				s-3.75-1.68-3.75-3.75v-1c0-2.07,1.68-3.75,3.75-3.75s3.75,1.68,3.75,3.75V186.57z M206.86,189.07c0,0.53-0.33,1-0.82,1.18
				c-0.14,0.05-0.28,0.07-0.42,0.07c-0.36,0-0.72-0.16-0.96-0.45l-2.79-3.35v2.55c0,0.69-0.56,1.25-1.25,1.25s-1.25-0.56-1.25-1.25
				v-6c0-0.53,0.33-1,0.82-1.18c0.5-0.18,1.05-0.03,1.39,0.38l2.79,3.35v-2.55c0-0.69,0.56-1.25,1.25-1.25s1.25,0.56,1.25,1.25
				V189.07z"/>
		</g>
	</g>
	<g>
		<g>
			<g>
				<path class="st0" d="M112.44,183.51c-1-0.4-1.47-0.88-1.87-1.87c-0.11-0.28-0.52-0.28-0.64,0c-0.4,1-0.87,1.47-1.87,1.87
					c-0.28,0.11-0.28,0.52,0,0.64c1,0.4,1.47,0.88,1.87,1.87c0.11,0.28,0.52,0.28,0.64,0c0.4-1,0.88-1.47,1.87-1.87
					C112.73,184.03,112.73,183.62,112.44,183.51z M135.4,189.44c-1.21-0.48-1.78-1.06-2.26-2.26c-0.14-0.34-0.63-0.34-0.77,0
					c-0.48,1.21-1.06,1.78-2.26,2.26c-0.34,0.14-0.34,0.63,0,0.77c1.21,0.48,1.78,1.06,2.26,2.26c0.14,0.34,0.63,0.34,0.77,0
					c0.48-1.21,1.06-1.78,2.26-2.26C135.74,190.07,135.74,189.58,135.4,189.44z"/>
				<path class="st0" d="M105.16,192.25c0.83,0,1.5-0.67,1.5-1.5s-0.67-1.5-1.5-1.5c-0.83,0-1.5,0.67-1.5,1.5
					S104.33,192.25,105.16,192.25z M140.77,192.37c-0.76-0.76-2-0.76-2.77,0c-0.76,0.76-0.76,2,0,2.77c0.76,0.76,2,0.76,2.77,0
					C141.54,194.37,141.54,193.13,140.77,192.37z M121.15,191.27v3.48c0,0.69-0.56,1.25-1.25,1.25s-1.25-0.56-1.25-1.25v-1.48
					c0-0.01,0-0.02,0-0.02v-9.65h3v0.65c0,0.55,0.45,1,1,1h6c0.55,0,1-0.45,1-1v-5.85c0-0.55-0.45-1-1-1h-4v-0.65c0-0.55-0.45-1-1-1
					h-5v-0.5c0-0.83-0.67-1.5-1.5-1.5c-0.83,0-1.5,0.67-1.5,1.5v16.78c-6.31,1.96-11.03,7.54-11.73,14.32
					c-0.05,0.49,0.35,0.91,0.84,0.91h31.78c0.49,0,0.89-0.42,0.84-0.91C136.53,198.03,129.63,191.52,121.15,191.27z M112.73,201.18
					c-0.38,1.08-1.62,1.98-2.76,2.01c-1.14,0.03-1.76-0.81-1.38-1.89c0.38-1.08,1.62-1.98,2.76-2.01
					C112.49,199.25,113.11,200.1,112.73,201.18z M125.18,203.99c-0.64,0.37-1.64,0.31-2.22-0.14c-0.59-0.45-0.54-1.11,0.1-1.48
					c0.64-0.37,1.64-0.31,2.22,0.14C125.86,202.95,125.82,203.62,125.18,203.99z M126.39,197.27c-0.72,0.17-1.65-0.19-2.08-0.79
					c-0.43-0.6-0.2-1.22,0.52-1.39c0.72-0.17,1.65,0.19,2.08,0.79C127.34,196.48,127.11,197.11,126.39,197.27z M133.01,201.6
					c0.35,1.24-0.4,2.2-1.69,2.15c-1.29-0.05-2.62-1.11-2.98-2.35c-0.35-1.24,0.4-2.2,1.69-2.15
					C131.32,199.31,132.66,200.36,133.01,201.6z"/>
			</g>
		</g>
	</g>
	<g>
		<g>
			<path class="st0" d="M54.82,178.23c1.37,0.93,3.24,0.57,4.17-0.8c0.93-1.37,0.57-3.24-0.8-4.17c-1.37-0.93-3.24-0.57-4.17,0.8
				C53.09,175.44,53.45,177.31,54.82,178.23z M47.79,185.05c0.43-0.63,0.95-1.18,1.54-1.64l-2.4-2c1.1-2.01,0.54-4.57-1.4-5.88
				c-2.06-1.39-4.86-0.85-6.25,1.2c-1.39,2.06-0.85,4.86,1.2,6.25c1.28,0.87,2.85,0.99,4.19,0.45l2.72,2.27
				C47.51,185.48,47.65,185.26,47.79,185.05z M50.66,195.96l-1.44,5.39c-0.83,0.19-1.6,0.68-2.12,1.44
				c-1.08,1.6-0.66,3.78,0.94,4.86c1.6,1.08,3.78,0.66,4.86-0.94c1.04-1.53,0.69-3.58-0.75-4.7l1.41-5.29
				C52.55,196.66,51.56,196.41,50.66,195.96z M62.6,187.17l-3.43,0.23c-0.38-1.06-1.07-2.03-2.08-2.71
				c-0.94-0.64-2.02-0.95-3.08-0.95c-1.76,0-3.5,0.85-4.56,2.42c-1.7,2.52-1.04,5.93,1.47,7.64c0.94,0.64,2.02,0.95,3.08,0.95
				c1.76,0,3.5-0.85,4.56-2.42c0.41-0.61,0.68-1.26,0.82-1.94l3.42-0.23C62.5,189.2,62.43,188.18,62.6,187.17z"/>
			<path class="st0" d="M42.52,190.52c-2.06-1.39-4.86-0.85-6.25,1.2c-1.39,2.06-0.85,4.86,1.2,6.25c2.06,1.39,4.86,0.85,6.25-1.2
				C45.12,194.71,44.58,191.92,42.52,190.52z M71.52,184.52c-0.77-0.52-1.65-0.77-2.52-0.77c-1.44,0-2.86,0.69-3.73,1.98
				c-1.39,2.06-0.85,4.86,1.2,6.25c0.77,0.52,1.65,0.77,2.52,0.77c1.44,0,2.86-0.69,3.73-1.98
				C74.12,188.71,73.58,185.92,71.52,184.52z"/>
		</g>
	</g>
	<g>
		<g>
			<path class="st0" d="M391.24,106.69c-1.21-0.48-1.78-1.06-2.26-2.26c-0.14-0.34-0.63-0.34-0.77,0c-0.48,1.21-1.06,1.78-2.26,2.26
				c-0.34,0.14-0.34,0.63,0,0.77c1.21,0.48,1.78,1.06,2.26,2.26c0.14,0.34,0.63,0.34,0.77,0c0.48-1.21,1.06-1.78,2.26-2.26
				C391.59,107.33,391.59,106.83,391.24,106.69z M396.5,127c-1.93,0-3.5,1.57-3.5,3.5s1.57,3.5,3.5,3.5s3.5-1.57,3.5-3.5
				S398.43,127,396.5,127z"/>
			<path class="st0" d="M379.5,135c-1.93,0-3.5,1.57-3.5,3.5s1.57,3.5,3.5,3.5s3.5-1.57,3.5-3.5S381.43,135,379.5,135z
				 M379.41,132.5c0.03,0,0.06,0,0.09,0c1.02,0,1.99,0.26,2.83,0.71l3.28-10.78c-1.03-0.15-1.98-0.57-2.77-1.19L379.41,132.5z
				 M407.22,109.97l0.47,2.52c0,0,0,0,0,0l0.64,3.42c0.67-0.26,1.4-0.41,2.17-0.41c0.28,0,0.55,0.03,0.82,0.06l-0.74-3.92
				c0,0,0,0,0,0l-0.52-2.77c0.58-0.62,0.94-1.45,0.94-2.37c0-1.93-1.57-3.5-3.5-3.5s-3.5,1.57-3.5,3.5
				C404,108.34,405.42,109.83,407.22,109.97z M380,111.5c0-1.38-1.12-2.5-2.5-2.5s-2.5,1.12-2.5,2.5s1.12,2.5,2.5,2.5
				S380,112.88,380,111.5z M406.5,134c-1.38,0-2.5,1.12-2.5,2.5s1.12,2.5,2.5,2.5s2.5-1.12,2.5-2.5S407.88,134,406.5,134z
				 M410.5,118c-1.93,0-3.5,1.57-3.5,3.5c0,0.37,0.07,0.71,0.18,1.04l-2.19,1.31l0,0l-4.16,2.49c0.69,0.72,1.2,1.62,1.47,2.62
				l2.81-1.69h0l4.19-2.51c0.38,0.14,0.78,0.23,1.21,0.23c1.93,0,3.5-1.57,3.5-3.5S412.43,118,410.5,118z M393.24,137.69
				c-1.21-0.48-1.78-1.06-2.26-2.26c-0.14-0.34-0.63-0.34-0.77,0c-0.48,1.21-1.06,1.78-2.26,2.26c-0.34,0.14-0.34,0.63,0,0.77
				c1.21,0.48,1.78,1.06,2.26,2.26c0.14,0.34,0.63,0.34,0.77,0c0.48-1.21,1.06-1.78,2.26-2.26
				C393.59,138.33,393.59,137.83,393.24,137.69z M391.75,121.92l-2.33-3.49c0.37-0.55,0.58-1.21,0.58-1.93
				c0-0.22-0.03-0.43-0.06-0.64l3.69-1.68l0,0l9.06-4.12c-0.59-0.8-0.99-1.75-1.13-2.78l-10.86,4.94l-2.6,1.18
				c-0.48-0.25-1.02-0.4-1.59-0.4c-1.93,0-3.5,1.57-3.5,3.5s1.57,3.5,3.5,3.5c0.12,0,0.23-0.02,0.34-0.03l1.5,2.24l0,0l3.24,4.87
				c0.58-0.84,1.37-1.51,2.3-1.96L391.75,121.92L391.75,121.92z"/>
		</g>
	</g>
	<g>
		<g>
			<g>
				<path class="st0" d="M340,114.23v-9.07c0-0.69-0.56-1.25-1.25-1.25c-0.69,0-1.25,0.56-1.25,1.25v2.92
					c-2.43-3.26-6.48-5.42-10.67-5.42h-1.08c-6.44,0-12.56,5.09-12.94,11.5c-1.21,0.38-2.1,1.51-2.1,2.85v3.35
					c0,1.43,1.01,2.63,2.35,2.93c0.34,3.54,3.69,6.38,7.24,6.38h11.97c3.55,0,6.9-2.84,7.24-6.38c1.34-0.3,2.35-1.49,2.35-2.93
					v-3.35C341.87,115.75,341.09,114.68,340,114.23z M324.21,105.52h4.15c0.69,0,1.25,0.56,1.25,1.25c0,0.69-0.56,1.25-1.25,1.25
					h-4.15c-0.69,0-1.25-0.56-1.25-1.25C322.96,106.08,323.52,105.52,324.21,105.52z M334.79,121.37c0,2.29-1.85,4.14-4.14,4.14
					h-8.72c-2.29,0-4.14-1.85-4.14-4.14v-2.21c0-4.69,3.81-8.5,8.5-8.5c4.69,0,8.5,3.81,8.5,8.5V121.37z"/>
				<path class="st0" d="M322.79,123.41h8c0.69,0,1.25-0.56,1.25-1.25s-0.56-1.25-1.25-1.25h-8c-0.69,0-1.25,0.56-1.25,1.25
					S322.1,123.41,322.79,123.41z M337.42,130.67c-1.51,0.94-3.29,1.49-5.14,1.49H320.3c-1.73,0-3.38-0.48-4.83-1.31
					c-2.57,1.03-4.38,3.51-4.38,6.41v4.58c0,0.28,0.22,0.5,0.5,0.5h30.19c0.27,0,0.5-0.22,0.5-0.5v-4.58
					C342.29,134.18,340.24,131.57,337.42,130.67z M335.79,137.48h-4.15c-0.69,0-1.25-0.56-1.25-1.25s0.56-1.25,1.25-1.25h4.15
					c0.69,0,1.25,0.56,1.25,1.25S336.48,137.48,335.79,137.48z"/>
			</g>
		</g>
	</g>
	<g>
		<g>
			<g>
				<g>
					<path class="st0" d="M267.12,120.79l-3.49-3.05l0.23-5.01c0.14-2.87-0.77-5.72-2.61-8.15l-1.79-2.49
						c-0.4-0.56-1.23-0.56-1.63,0l-1.79,2.49c-1.84,2.43-2.75,5.27-2.61,8.15l0.23,5.03l-3.46,3.08c-0.19,0.16-0.27,0.42-0.22,0.66
						l0.81,4.1c0.08,0.42,0.53,0.67,0.93,0.52l3.38-1.27h7.1l3.38,1.27c0.4,0.15,0.85-0.09,0.93-0.52l0.84-4.15
						C267.39,121.21,267.3,120.95,267.12,120.79z M258.64,115c-1.16,0-2.1-0.94-2.1-2.1c0-1.16,0.94-2.1,2.1-2.1
						c1.16,0,2.1,0.94,2.1,2.1C260.74,114.06,259.8,115,258.64,115z"/>
					<path class="st0" d="M272.25,137.33c-0.76,0-1.48,0.15-2.15,0.4c-0.49-1.95-2.24-3.4-4.35-3.4c-0.17,0-0.34,0.03-0.5,0.05
						c0-0.02,0-0.03,0-0.05c0-3.87-3.13-7-7-7s-7,3.13-7,7c0,0.02,0,0.03,0,0.05c-0.17-0.02-0.33-0.05-0.5-0.05
						c-2.05,0-3.76,1.38-4.3,3.25c-0.54-0.16-1.11-0.25-1.7-0.25c-3.14,0-5.71,2.41-5.98,5.47c-0.02,0.29,0.22,0.53,0.5,0.53h38.45
						c0.29,0,0.53-0.24,0.5-0.53C277.96,139.73,275.39,137.33,272.25,137.33z"/>
				</g>
			</g>
		</g>
	</g>
	<g>
		<g>
			<path class="st0" d="M208.5,122.5c0-1.47-3.41-2.46-3.77-3.81c-0.37-1.4,2.07-3.96,1.36-5.19c-0.72-1.24-4.17-0.4-5.18-1.41
				c-1.01-1.01-0.17-4.46-1.41-5.18c-0.16-0.09-0.34-0.13-0.53-0.13c-1.22,0-3.1,1.53-4.34,1.53c-0.11,0-0.22-0.01-0.32-0.04
				c-1.35-0.36-2.35-3.77-3.81-3.77c-1.47,0-2.46,3.41-3.81,3.77c-0.1,0.03-0.21,0.04-0.32,0.04c-1.24,0-3.12-1.53-4.34-1.53
				c-0.19,0-0.37,0.04-0.53,0.13c-1.24,0.72-0.4,4.17-1.41,5.18c-1.01,1.01-4.46,0.17-5.18,1.41c-0.71,1.22,1.73,3.79,1.36,5.19
				c-0.36,1.35-3.77,2.35-3.77,3.81c0,1.47,3.41,2.46,3.77,3.81c0.37,1.4-2.07,3.96-1.36,5.19c0.72,1.24,4.17,0.4,5.18,1.41
				c1.01,1.01,0.17,4.46,1.41,5.18c0.16,0.09,0.34,0.13,0.53,0.13c1.22,0,3.1-1.53,4.34-1.53c0.11,0,0.22,0.01,0.32,0.04
				c1.35,0.36,2.35,3.77,3.81,3.77c1.47,0,2.46-3.41,3.81-3.77c0.1-0.03,0.21-0.04,0.32-0.04c1.24,0,3.12,1.53,4.34,1.53
				c0.2,0,0.37-0.04,0.53-0.13c1.24-0.72,0.4-4.17,1.41-5.18c1.01-1.01,4.46-0.17,5.18-1.41c0.71-1.22-1.73-3.79-1.36-5.19
				C205.09,124.96,208.5,123.97,208.5,122.5z M190.5,134c-6.34,0-11.5-5.16-11.5-11.5c0-6.34,5.16-11.5,11.5-11.5
				s11.5,5.16,11.5,11.5C202,128.84,196.84,134,190.5,134z"/>
			<circle class="st0" cx="190.5" cy="122.5" r="9"/>
		</g>
	</g>
	<g>
		<g>
			<g>
				<path class="st0" d="M138.45,106.59c-3.64-3.64-9.07-4.38-13.44-2.25c-0.09,0.04-0.17,0.12-0.21,0.21
					c-1.82,3.53-0.37,8.94,3.51,12.81c3.44,3.44,8,4.99,11.5,4.02c0.11-0.03,0.21-0.1,0.27-0.2
					C142.95,116.65,142.41,110.56,138.45,106.59z M135.37,108.89c-0.24,0.38-0.64,0.59-1.06,0.59c-0.23,0-0.46-0.06-0.66-0.19
					c-1.44-0.9-3.16-1.21-4.84-0.86c-0.68,0.14-1.34-0.3-1.48-0.97c-0.14-0.68,0.3-1.34,0.97-1.48c2.31-0.47,4.68-0.05,6.67,1.19
					C135.55,107.53,135.73,108.3,135.37,108.89z"/>
				<path class="st0" d="M137.69,124.68c-3.82-0.37-7.91-2.32-11.14-5.56c-3.73-3.73-5.71-8.45-5.63-12.68
					c0.01-0.48-0.58-0.71-0.89-0.34c-0.97,1.19-1.69,2.51-2.19,3.89l-13.94,8.53c-0.66,0.4-0.98,1.23-0.67,1.94
					c0.26,0.57,0.81,0.89,1.37,0.89c0.27,0,0.54-0.07,0.78-0.22l11.65-7.13c-0.12,2.85,0.68,5.72,2.37,8.16l-11.9,11.74
					c-0.57,0.56-0.69,1.5-0.17,2.11c0.3,0.36,0.72,0.53,1.15,0.53c0.38,0,0.76-0.14,1.05-0.43l14.67-14.48
					c0.54-0.21,1.17-0.1,1.6,0.33c0.59,0.59,0.59,1.54,0,2.12l-1.59,1.59c-0.24,0.24-0.18,0.65,0.12,0.8
					c2.38,1.21,5.04,1.65,7.62,1.35l-8.03,11.59c-0.45,0.65-0.4,1.58,0.21,2.09c0.28,0.24,0.62,0.35,0.96,0.35
					c0.48,0,0.94-0.23,1.23-0.64l10.05-14.49c0.07-0.1,0.12-0.2,0.16-0.31c0.47-0.24,0.92-0.51,1.37-0.81
					C138.31,125.32,138.15,124.72,137.69,124.68z"/>
			</g>
		</g>
	</g>
	<g>
		<g>
			<path class="st0" d="M45.48,125.5c-0.49-0.49-1.21-0.55-1.62-0.15l-8.43,8.43c-0.41,0.41-0.34,1.13,0.15,1.62l6.01,6.01
				c0.49,0.49,1.21,0.55,1.62,0.15l8.43-8.43c0.41-0.41,0.34-1.13-0.15-1.62L45.48,125.5z M73.42,109.6l-6.01-6.01
				c-0.49-0.49-1.21-0.55-1.62-0.15l-8.43,8.43c-0.41,0.41-0.34,1.13,0.15,1.62l6.02,6.01c0.49,0.49,1.21,0.55,1.62,0.15l8.43-8.43
				C73.97,110.81,73.9,110.08,73.42,109.6z"/>
			<path class="st0" d="M70.13,125.85c-2.3-1.69-5.63-1.64-8.5,0.01c0.7-1.09,0.97-1.97,1.05-2.6c0.08-0.61-0.14-1.22-0.57-1.65
				l-7.95-7.95c-1.32-1.32-3.32-1.51-4.85-0.61l-0.81-0.81c-1.17-1.17-3.07-1.17-4.24,0c-1.17,1.17-1.17,3.07,0,4.24l0.81,0.81
				c-0.9,1.53-0.71,3.53,0.61,4.85l8.02,8.02c0.41,0.41,0.97,0.64,1.54,0.58c0.59-0.05,1.41-0.29,2.44-0.94
				c-1.65,2.88-1.71,6.23-0.01,8.53c0.31,0.41,0.89,0.53,1.33,0.26c1.09-0.67,3.24-2.09,5.47-4.17l0.97,0.97
				c-0.22,0.83-0.01,1.75,0.64,2.41c0.98,0.98,2.56,0.98,3.54,0c0.98-0.98,0.98-2.56,0-3.54c-0.65-0.65-1.57-0.86-2.41-0.64
				l-0.97-0.97c2.02-2.2,3.47-4.37,4.16-5.46C70.66,126.74,70.55,126.15,70.13,125.85z M49.73,120.49
				c-0.24,0.24-0.56,0.37-0.88,0.37c-0.32,0-0.64-0.12-0.88-0.37l-0.76-0.76c-0.49-0.49-0.49-1.28,0-1.77
				c0.49-0.49,1.28-0.49,1.77,0l0.76,0.76C50.21,119.22,50.21,120.01,49.73,120.49z M55.5,126.27c-0.24,0.24-0.56,0.37-0.88,0.37
				s-0.64-0.12-0.88-0.37l-2.47-2.47c-0.49-0.49-0.49-1.28,0-1.77c0.49-0.49,1.28-0.49,1.77,0l2.47,2.47
				C55.99,124.99,55.99,125.78,55.5,126.27z"/>
		</g>
	</g>
</g>
<g id="title">
</g>
</svg>
