<?xml version="1.0" encoding="utf-8"?>
<!-- Generator: Adobe Illustrator 24.1.1, SVG Export Plug-In . SVG Version: 6.00 Build 0)  -->
<svg version="1.1" xmlns="http://www.w3.org/2000/svg" x="0px" y="0px"
     viewBox="0 0 448 448" style="enable-background:new 0 0 448 448;" xml:space="preserve">
<style type="text/css">
	.st0{fill:#173042;}
</style>
<g id="grid">
</g>
<g id="icons">
	<g>
		<g>
			<g>
				<path class="st0" d="M401.75,381.25v-4.5c0-0.55-0.45-1-1-1h-16.5c-0.55,0-1,0.45-1,1v4.5c0,0.28,0.22,0.5,0.5,0.5h17.5
					C401.53,381.75,401.75,381.53,401.75,381.25z M403,403.25c-2.76,0-5,2.24-5,5c0,0.93,0.27,1.78,0.71,2.53l6.82-6.82
					C404.78,403.52,403.93,403.25,403,403.25z M407.29,405.72l-6.82,6.82c0.74,0.44,1.6,0.71,2.52,0.71c2.76,0,5-2.24,5-5
					C408,407.32,407.73,406.47,407.29,405.72z"/>
				<path class="st0" d="M400.12,389.26h-5.28c-0.69,0-1.25-0.56-1.25-1.25s0.56-1.25,1.25-1.25H400v-2.01c0-0.28-0.22-0.5-0.5-0.5
					h-14c-0.28,0-0.5,0.22-0.5,0.5v4.5c-2.21,0-4,1.79-4,4v16c0,2.21,1.79,4,4,4h12.43c-1.19-1.33-1.93-3.08-1.93-5
					c0-4.14,3.36-7.5,7.5-7.5c0.34,0,0.67,0.03,1,0.07v-7.57C404,391.08,402.27,389.32,400.12,389.26z M386.75,406.75
					c0,0.69-0.56,1.25-1.25,1.25s-1.25-0.56-1.25-1.25v-4.5c0-0.69,0.56-1.25,1.25-1.25s1.25,0.56,1.25,1.25V406.75z M386.75,397.25
					c0,0.69-0.56,1.25-1.25,1.25s-1.25-0.56-1.25-1.25v-1.5c0-0.69,0.56-1.25,1.25-1.25s1.25,0.56,1.25,1.25V397.25z"/>
			</g>
		</g>
	</g>
	<g>
		<g>
			<g>
				<g>
					<path class="st0" d="M336.05,375.62h-19.11c-0.69,0-1.25,0.56-1.25,1.25c0,0.69,0.56,1.25,1.25,1.25h19.11
						c0.69,0,1.25-0.56,1.25-1.25C337.3,376.18,336.75,375.62,336.05,375.62z"/>
					<path class="st0" d="M342,380.37h-31c-1.1,0-2,0.9-2,2v21c0,1.1,0.9,2,2,2h5.34l-2.24,5.97c-0.29,0.78,0.1,1.64,0.88,1.93
						c0.17,0.07,0.35,0.1,0.53,0.1c0.61,0,1.18-0.37,1.4-0.97l2.64-7.03H325v6.5c0,0.83,0.67,1.5,1.5,1.5s1.5-0.67,1.5-1.5v-6.5
						h5.46l2.64,7.03c0.23,0.6,0.8,0.97,1.4,0.97c0.18,0,0.35-0.03,0.53-0.1c0.78-0.29,1.17-1.16,0.88-1.93l-2.24-5.97H342
						c1.1,0,2-0.9,2-2v-21C344,381.27,343.1,380.37,342,380.37z M318,392.37c0.55,0,1,0.45,1,1c0,0.55-0.45,1-1,1h-2v1h2
						c0.55,0,1,0.45,1,1c0,0.55-0.45,1-1,1h-3c-0.55,0-1-0.45-1-1v-6.54c0-0.55,0.45-1,1-1h3c0.55,0,1,0.45,1,1c0,0.55-0.45,1-1,1
						h-2v1.54H318z M327,396.37c0,0.55-0.45,1-1,1s-1-0.45-1-1v-3.72l-0.7,0.93c-0.38,0.5-1.22,0.5-1.6,0l-0.7-0.93v3.72
						c0,0.55-0.45,1-1,1s-1-0.45-1-1v-6.72c0-0.43,0.28-0.81,0.68-0.95c0.41-0.14,0.86,0,1.12,0.35l1.7,2.27l1.7-2.27
						c0.26-0.34,0.71-0.48,1.12-0.35c0.41,0.14,0.68,0.52,0.68,0.95V396.37z M332,395.37c0.53,0,1-0.32,1-0.69c0-0.55,0.45-1,1-1
						c0.55,0,1,0.45,1,1c0,1.48-1.35,2.69-3,2.69s-3-1.21-3-2.69v-3.38c0-1.48,1.35-2.69,3-2.69s3,1.21,3,2.69c0,0.55-0.45,1-1,1
						c-0.55,0-1-0.45-1-1c0-0.37-0.47-0.69-1-0.69c-0.53,0-1,0.32-1,0.69v3.38C331,395.05,331.47,395.37,332,395.37z M339,390.37
						h-1.68c-0.51,0-0.96-0.29-1.19-0.75c-0.22-0.46-0.16-0.99,0.16-1.39l1.37-1.71l-0.07-0.15H337c-0.55,0-1-0.45-1-1
						c0-0.55,0.45-1,1-1h0.6c0.81,0,1.53,0.45,1.88,1.19c0.35,0.73,0.25,1.58-0.25,2.21l-0.48,0.6H339c0.55,0,1,0.45,1,1
						C340,389.93,339.55,390.37,339,390.37z"/>
				</g>
			</g>
		</g>
	</g>
	<g>
		<g>
			<path class="st0" d="M262,373.94h-6c-0.83,0-1.5,0.67-1.5,1.5s0.67,1.5,1.5,1.5h6c0.83,0,1.5-0.67,1.5-1.5
				S262.83,373.94,262,373.94z"/>
			<path class="st0" d="M277.5,378.56h-12.6c0,0.05,0.01,0.09,0.01,0.14v3.86h10.59v18h-34v-18h11.59v-3.86
				c0-0.05,0.01-0.09,0.01-0.14h-13.6c-1.1,0-2,0.9-2,2v25c0,1.1,0.9,2,2,2h14.92l-0.75,4.5H250c-0.83,0-1.5,0.67-1.5,1.5
				s0.67,1.5,1.5,1.5h17c0.83,0,1.5-0.67,1.5-1.5s-0.67-1.5-1.5-1.5h-3.67l-0.75-4.5h14.92c1.1,0,2-0.9,2-2v-25
				C279.5,379.46,278.6,378.56,277.5,378.56z M258.5,406.06c-0.83,0-1.5-0.67-1.5-1.5s0.67-1.5,1.5-1.5s1.5,0.67,1.5,1.5
				S259.33,406.06,258.5,406.06z M252.83,396.94h12.34c1.94,0,3.09-2.18,1.98-3.78l-4.32-6.26c-0.28-0.4-0.43-0.88-0.43-1.37v-6.83
				c0-0.17-0.13-0.3-0.3-0.3h-6.23c-0.17,0-0.3,0.13-0.3,0.3v6.83c0,0.49-0.15,0.97-0.43,1.37l-4.32,6.26
				C249.74,394.76,250.89,396.94,252.83,396.94z M257.94,386.96l0.46-0.65c0.4-0.57,1.18-0.7,1.74-0.31c0.57,0.4,0.7,1.18,0.31,1.74
				l-0.46,0.65c-0.24,0.35-0.63,0.53-1.02,0.53c-0.25,0-0.5-0.07-0.72-0.23C257.68,388.3,257.54,387.52,257.94,386.96z
				 M253.76,392.5l1.61-2.3c0.4-0.57,1.18-0.7,1.74-0.31c0.57,0.4,0.7,1.18,0.31,1.74l-1.61,2.3c-0.24,0.35-0.63,0.53-1.02,0.53
				c-0.25,0-0.5-0.07-0.72-0.23C253.5,393.84,253.36,393.07,253.76,392.5z"/>
		</g>
	</g>
	<g>
		<g>
			<g>
				<path class="st0" d="M190.53,395.98c-0.4,0-0.8,0.15-1.1,0.46c-0.61,0.61-0.61,1.6,0,2.2c0.3,0.3,0.7,0.46,1.1,0.46
					s0.8-0.15,1.1-0.46c0.61-0.61,0.61-1.6,0-2.2C191.32,396.13,190.93,395.98,190.53,395.98z M190.5,387.14
					c-5.62,0-10.18,4.56-10.18,10.18c0,5.62,4.56,10.18,10.18,10.18s10.18-4.56,10.18-10.18
					C200.68,391.7,196.12,387.14,190.5,387.14z M195.85,394.76l-1.94,1.75c0,0,0,0,0,0c0.1,0.33,0.17,0.68,0.17,1.04
					c0,0.95-0.37,1.84-1.04,2.52c-0.67,0.67-1.57,1.04-2.52,1.04c-0.95,0-1.84-0.37-2.52-1.04c-0.67-0.67-1.04-1.57-1.04-2.52
					c0-0.95,0.37-1.84,1.04-2.52c0.67-0.67,1.57-1.04,2.52-1.04c0.49,0,0.96,0.1,1.39,0.28l1.93-1.74c0.62-0.56,1.56-0.51,2.12,0.11
					C196.52,393.25,196.47,394.2,195.85,394.76z"/>
			</g>
			<path class="st0" d="M193.35,381.41v-0.95h2.1c0.28,0,0.5-0.22,0.5-0.5v-3.45c0-0.55-0.45-1-1-1h-8.89c-0.55,0-1,0.45-1,1v3.45
				c0,0.28,0.22,0.5,0.5,0.5h2.1v0.95c-2.86,0.51-5.47,1.77-7.6,3.58l-1.25-1.25c-0.39-0.39-1.02-0.39-1.41,0l-2.45,2.45
				c-0.39,0.39-0.39,1.02,0,1.41l1.59,1.59c-1.4,2.39-2.21,5.16-2.21,8.12c0,8.92,7.26,16.18,16.18,16.18s16.18-7.26,16.18-16.18
				C206.68,389.37,200.91,382.76,193.35,381.41z M190.5,410c-6.99,0-12.68-5.69-12.68-12.68c0-6.99,5.69-12.68,12.68-12.68
				s12.68,5.69,12.68,12.68C203.18,404.31,197.49,410,190.5,410z"/>
		</g>
	</g>
	<g>
		<g>
			<path class="st0" d="M140.56,380.81l-4.36-4.36c-0.55-0.55-1.45-0.55-2,0h0c-0.55,0.55-0.55,1.45,0,2l0.51,0.51l-3.51,3.51
				l3.34,3.34l3.51-3.51l0.51,0.51c0.55,0.55,1.45,0.55,2,0C141.11,382.26,141.11,381.36,140.56,380.81z"/>
			<path class="st0" d="M136.76,390.85l-10.61-10.61c-0.2-0.2-0.51-0.2-0.71,0l-2.12,2.12c-0.2,0.2-0.2,0.51,0,0.71l1.37,1.37
				l-15.02,15.02c-1.45,1.45-1.54,3.73-0.3,5.3l-0.49,0.49c-0.33,0.33-0.36,0.84-0.13,1.22l-4.37,4.37c-0.49,0.49-0.49,1.28,0,1.77
				c0.24,0.24,0.56,0.37,0.88,0.37c0.32,0,0.64-0.12,0.88-0.37l4.37-4.37c0.39,0.24,0.89,0.21,1.22-0.13l0.49-0.49
				c1.57,1.24,3.85,1.15,5.3-0.3l15.02-15.02l1.37,1.37c0.2,0.2,0.51,0.2,0.71,0l2.12-2.12
				C136.95,391.36,136.95,391.05,136.76,390.85z M115.92,400.27l-2.7,2.7c-0.24,0.24-0.56,0.37-0.88,0.37
				c-0.32,0-0.64-0.12-0.88-0.37c-0.49-0.49-0.49-1.28,0-1.77l2.7-2.7c0.49-0.49,1.28-0.49,1.77,0
				C116.4,398.99,116.4,399.78,115.92,400.27z M119.9,396.28l-0.93,0.92c-0.24,0.24-0.56,0.37-0.88,0.37s-0.64-0.12-0.88-0.37
				c-0.49-0.49-0.49-1.28,0-1.77l0.93-0.92c0.49-0.49,1.28-0.49,1.77,0C120.39,395,120.39,395.8,119.9,396.28z M127.26,394.06
				l-6.25-2.4l4.71-4.71l4.33,4.33L127.26,394.06z"/>
		</g>
	</g>
	<g>
		<g>
			<path class="st0" d="M65.53,401.15l-5.66-5.66c-0.2-0.2-0.51-0.2-0.71,0l-5.3,5.3c-1.95,1.95-3.18,3.18-6.01,0.35
				s-1.6-4.06,0.35-6.01l5.3-5.3c0.2-0.2,0.2-0.51,0-0.71l-5.66-5.66c-0.2-0.2-0.51-0.2-0.71,0l-6.01,6.01
				c-5.47,5.47-6.72,10.96,0.35,18.03v0c7.07,7.07,12.56,5.82,18.03,0.35l6.01-6.01C65.73,401.66,65.73,401.34,65.53,401.15z"/>
			<path class="st0" d="M54.57,376.75c-0.2-0.2-0.51-0.2-0.71,0l-4.24,4.24c-0.2,0.2-0.2,0.51,0,0.71l5.66,5.66
				c0.2,0.2,0.51,0.2,0.71,0l4.24-4.24c0.2-0.2,0.2-0.51,0-0.71L54.57,376.75z M72.25,394.43l-5.66-5.66c-0.2-0.2-0.51-0.2-0.71,0
				l-4.24,4.24c-0.2,0.2-0.2,0.51,0,0.71l5.66,5.66c0.2,0.2,0.51,0.2,0.71,0l4.24-4.24C72.44,394.94,72.44,394.62,72.25,394.43z"/>
		</g>
	</g>
	<g>
		<g>
			<path class="st0" d="M414.21,321.05l-1.41-1.41c-0.39-0.39-1.02-0.39-1.41,0l-0.71,0.71c-3.57,3.57-7.24,4.37-11.25,4.38
				c-0.29,0-0.51,0.23-0.5,0.52c0.02,0.32,0.04,0.64,0.06,0.97c0.04,0.65,0.08,1.33,0.12,2.01c0.01,0.27,0.24,0.49,0.51,0.49
				c4.6-0.05,9.41-1.06,13.89-5.54l0.71-0.71C414.6,322.08,414.6,321.44,414.21,321.05z M389.89,324.77
				c-0.01-0.27-0.24-0.49-0.51-0.49c-4.6,0.05-9.41,1.06-13.89,5.54l-0.71,0.71c-0.39,0.39-0.39,1.02,0,1.41l1.41,1.41
				c0.39,0.39,1.02,0.39,1.41,0l0.71-0.71c3.57-3.57,7.24-4.37,11.25-4.38c0.29,0,0.51-0.23,0.5-0.52
				c-0.02-0.32-0.04-0.64-0.06-0.97C389.97,326.13,389.93,325.46,389.89,324.77z"/>
			<path class="st0" d="M407.7,319.14l-1.26-1.26c-0.49-0.49-1.28-0.49-1.77,0c-0.49,0.49-0.49,1.28,0,1.77l1.26,1.26
				c0.24,0.24,0.56,0.37,0.88,0.37c0.32,0,0.64-0.12,0.88-0.37C408.19,320.42,408.19,319.63,407.7,319.14z M383.12,333.45
				c-0.49-0.49-1.28-0.49-1.77,0c-0.49,0.49-0.49,1.28,0,1.77l0.79,0.79c0.24,0.24,0.56,0.37,0.88,0.37s0.64-0.12,0.88-0.37
				c0.49-0.49,0.49-1.28,0-1.77L383.12,333.45z M400.65,312.08c0.27-0.3,0.55-0.61,0.86-0.91l0.71-0.71c0.39-0.39,0.39-1.02,0-1.41
				l-1.41-1.41c-0.39-0.39-1.02-0.39-1.41,0l-0.71,0.71c-6.17,6.17-6.17,12.54-6.18,18.15c0,2.79-0.01,5.38-0.64,7.91l-3.32-3.32
				c-0.49-0.49-1.28-0.49-1.77,0c-0.49,0.49-0.49,1.28,0,1.77l4.17,4.17c-0.41,0.89-0.93,1.77-1.59,2.66l-2.68-2.68
				c-0.49-0.49-1.28-0.49-1.77,0c-0.49,0.49-0.49,1.28,0,1.77l2.82,2.82c-0.08,0.08-0.15,0.16-0.23,0.24l-0.71,0.71
				c-0.39,0.39-0.39,1.02,0,1.41l1.41,1.41c0.39,0.39,1.02,0.39,1.41,0l0.71-0.71c6.17-6.17,6.17-12.54,6.18-18.15
				c0-2.4,0.01-4.65,0.41-6.84l3.01,3.01c0.24,0.24,0.56,0.37,0.88,0.37c0.32,0,0.64-0.12,0.88-0.37c0.49-0.49,0.49-1.28,0-1.77
				l-4.01-4.01c0.36-0.94,0.83-1.87,1.44-2.81l2.99,2.99c0.24,0.24,0.56,0.37,0.88,0.37c0.32,0,0.64-0.12,0.88-0.37
				c0.49-0.49,0.49-1.28,0-1.77L400.65,312.08z"/>
		</g>
	</g>
	<g>
		<g>
			<path class="st0" d="M324.45,334.88l-5.94-3.34c-0.62-0.35-0.94-1.05-0.79-1.74c0.18-0.8,0.01-1.52-0.93-1.89
				c-0.93-0.37-2.04-0.16-2.73,0.57c-0.62,0.66-0.79,1.5-0.62,2.26c-0.54,0.18-1.03,0.54-1.34,1.07c-0.34,0.57-0.35,1.28-0.13,1.9
				c0.81,2.28,2.06,1.77,2.85,1.1c0.52-0.44,1.25-0.54,1.85-0.21l4.14,2.32L324.45,334.88z M340.91,331.81
				c-0.31-0.53-0.8-0.89-1.34-1.07c0.17-0.76,0-1.6-0.62-2.26c-0.69-0.73-1.8-0.93-2.73-0.57c-0.86,0.34-1.08,0.97-0.97,1.69
				c0.13,0.87-0.37,1.72-1.14,2.15l-12.05,6.77c-0.78,0.44-1.73,0.36-2.44-0.16c-0.8-0.59-1.92-0.85-2.67,1.27
				c-0.22,0.62-0.21,1.34,0.13,1.91c0.32,0.53,0.8,0.89,1.35,1.08c-0.17,0.76,0,1.61,0.63,2.27c0.69,0.73,1.81,0.94,2.75,0.57
				c0.88-0.34,1.09-0.99,0.97-1.72c-0.14-0.87,0.37-1.73,1.14-2.16l2.6-1.46l2.99,1.68c0.62,0.35,0.94,1.06,0.79,1.75
				c-0.18,0.81-0.02,1.54,0.94,1.91c0.94,0.37,2.06,0.16,2.75-0.57c0.63-0.66,0.8-1.51,0.63-2.27c0.55-0.18,1.03-0.55,1.35-1.08
				c0.34-0.57,0.35-1.28,0.13-1.91c-0.82-2.33-2.1-1.78-2.9-1.09c-0.52,0.45-1.25,0.52-1.85,0.19l-1.17-0.66l5.82-3.27
				c0.78-0.44,1.72-0.33,2.44,0.18c0.79,0.56,1.89,0.79,2.62-1.28C341.26,333.1,341.24,332.38,340.91,331.81z"/>
			<path class="st0" d="M326.5,307.35c-7.82,0-11.5,2.77-11.5,10.85v1.48c0,1.95,1.47,3.52,3.29,3.52h3.56c0.47,0,0.85,0.45,0.85,1
				s-0.38,1-0.85,1c-0.47,0-0.85,0.45-0.85,1v1c0,1.1,0.76,2,1.69,2h7.62c0.93,0,1.69-0.9,1.69-2v-1c0-0.55-0.38-1-0.85-1
				c-0.47,0-0.85-0.45-0.85-1s0.38-1,0.85-1h3.56c1.81,0,3.29-1.58,3.29-3.52v-1.48C338,310.12,334.32,307.35,326.5,307.35z
				 M321,320.2c-1.66,0-3-1.34-3-3s1.34-3,3-3s3,1.34,3,3S322.66,320.2,321,320.2z M326.5,323.21c-1.1,0-2,1.07-2-0.31
				c0-1.38,0.9-2.5,2-2.5s2,1.12,2,2.5C328.5,324.28,327.6,323.21,326.5,323.21z M332,320.2c-1.66,0-3-1.34-3-3s1.34-3,3-3
				s3,1.34,3,3S333.66,320.2,332,320.2z"/>
		</g>
	</g>
	<g>
		<g>
			<g>
				<g>
					<path class="st0" d="M274.5,339v-17.5c0-0.83-0.67-1.5-1.5-1.5h-28c-0.83,0-1.5,0.67-1.5,1.5V339h-1c-1.1,0-2,0.9-2,2v1.5
						c0,0.28,0.22,0.5,0.5,0.5h35c0.28,0,0.5-0.22,0.5-0.5V341C276.5,339.9,275.6,339,274.5,339z M271.5,339h-25v-16h4v9
						c0,1.66,1.34,3,3,3s3-1.34,3-3v-9h5v9c0,1.66,1.34,3,3,3s3-1.34,3-3v-9h4V339z"/>
					<path class="st0" d="M256.5,310h-6c-0.55,0-1,0.45-1,1s0.45,1,1,1v5.5h6V312c0.55,0,1-0.45,1-1S257.05,310,256.5,310z
						 M267.5,310h-6c-0.55,0-1,0.45-1,1s0.45,1,1,1v5.5h6V312c0.55,0,1-0.45,1-1S268.05,310,267.5,310z"/>
				</g>
			</g>
		</g>
	</g>
	<g>
		<g>
			<path class="st0" d="M194.65,307.06c-2.13-0.58-4.33,0.68-4.91,2.81c-0.58,2.13,0.68,4.33,2.81,4.91
				c2.13,0.58,4.33-0.68,4.91-2.81C198.03,309.84,196.78,307.64,194.65,307.06z"/>
			<path class="st0" d="M175.49,326.73c0.44-1.6-0.51-3.25-2.11-3.68c-1.6-0.44-3.25,0.51-3.68,2.11c-0.44,1.6,0.51,3.25,2.11,3.68
				C173.41,329.27,175.05,328.33,175.49,326.73z M186.47,344.62c3.92,1.98,8.73,2.02,12.83-0.33c4.09-2.34,6.49-6.49,6.78-10.87
				c-2.64,2.11-5.84,4.27-9.36,6.28C193.18,341.74,189.66,343.41,186.47,344.62z M211.02,320.77c-1.49-2.56-6.37-1.76-11.57,0.12
				c-4.05-2.38-9.22-2.6-13.59-0.1c-4.31,2.46-6.73,6.94-6.8,11.57c-3.23,2.6-5.68,5.23-6.25,7.33c-0.31,1.15-0.04,1.98,0.24,2.46
				c0.67,1.15,2.03,1.62,3.79,1.62c4.99,0,13.23-3.78,18.44-6.7c7.18-4.03,14.91-9.88,15.99-13.84
				C211.58,322.08,211.31,321.26,211.02,320.77z M175.66,340.64c0-0.73,1.28-2.47,3.82-4.72c0.3,1.14,0.73,2.27,1.35,3.35
				c0.14,0.24,0.29,0.47,0.44,0.7C178.25,340.85,176.25,341.01,175.66,340.64z M188.63,325.64c-2.32,1.33-3.81,3.71-3.99,6.38
				c-0.04,0.66-0.59,1.17-1.25,1.17c-0.03,0-0.06,0-0.09,0c-0.69-0.05-1.21-0.64-1.16-1.33c0.24-3.51,2.2-6.64,5.24-8.38
				c0.6-0.34,1.36-0.13,1.71,0.46C189.43,324.53,189.23,325.3,188.63,325.64z M204.82,326.8c-0.15-0.33-0.31-0.66-0.49-0.98
				c-0.58-1.01-1.28-1.91-2.06-2.71c3.32-1.03,5.51-1.22,6.14-0.83C208.41,322.99,207.21,324.65,204.82,326.8z"/>
		</g>
	</g>
	<g>
		<g>
			<path class="st0" d="M127.5,316.5c-0.83,0-1.5,0.67-1.5,1.5v4c0,0.83,0.67,1.5,1.5,1.5s1.5-0.67,1.5-1.5v-4
				C129,317.17,128.33,316.5,127.5,316.5z"/>
			<path class="st0" d="M132,307.5h-19c-2.21,0-4,1.79-4,4v30c0,2.21,1.79,4,4,4h19c2.21,0,4-1.79,4-4v-30
				C136,309.29,134.21,307.5,132,307.5z M116.5,341.5h-2c-0.83,0-1.5-0.67-1.5-1.5s0.67-1.5,1.5-1.5h2c0.83,0,1.5,0.67,1.5,1.5
				S117.33,341.5,116.5,341.5z M116.5,336.5h-2c-0.83,0-1.5-0.67-1.5-1.5s0.67-1.5,1.5-1.5h2c0.83,0,1.5,0.67,1.5,1.5
				S117.33,336.5,116.5,336.5z M116.5,331.5h-2c-0.83,0-1.5-0.67-1.5-1.5s0.67-1.5,1.5-1.5h2c0.83,0,1.5,0.67,1.5,1.5
				S117.33,331.5,116.5,331.5z M123.5,341.5h-2c-0.83,0-1.5-0.67-1.5-1.5s0.67-1.5,1.5-1.5h2c0.83,0,1.5,0.67,1.5,1.5
				S124.33,341.5,123.5,341.5z M123.5,336.5h-2c-0.83,0-1.5-0.67-1.5-1.5s0.67-1.5,1.5-1.5h2c0.83,0,1.5,0.67,1.5,1.5
				S124.33,336.5,123.5,336.5z M123.5,331.5h-2c-0.83,0-1.5-0.67-1.5-1.5s0.67-1.5,1.5-1.5h2c0.83,0,1.5,0.67,1.5,1.5
				S124.33,331.5,123.5,331.5z M132,340c0,0.83-0.67,1.5-1.5,1.5h-2c-0.83,0-1.5-0.67-1.5-1.5v-5c0-0.83,0.67-1.5,1.5-1.5h2
				c0.83,0,1.5,0.67,1.5,1.5V340z M130.5,331.5h-2c-0.83,0-1.5-0.67-1.5-1.5s0.67-1.5,1.5-1.5h2c0.83,0,1.5,0.67,1.5,1.5
				S131.33,331.5,130.5,331.5z M132,324c0,0.55-0.45,1-1,1h-17c-0.55,0-1-0.45-1-1v-9c0-0.55,0.45-1,1-1h17c0.55,0,1,0.45,1,1V324z"
				/>
		</g>
	</g>
	<g>
		<g>
			<path class="st0" d="M72.5,320.55h-36c-1.1,0-2,0.9-2,2v0.57c0,1.1,0.9,2,2,2h0.32c0.29,5.45,2.14,11.86,7.79,15.28
				c0,0.03-0.02,0.05-0.02,0.08v2.27c0,0.99,0.8,1.8,1.8,1.8h16.22c0.99,0,1.8-0.8,1.8-1.8v-2.27c0-0.13-0.05-0.24-0.13-0.32
				c5.3-3.47,7.54-9.71,7.89-15.03h0.33c1.1,0,2-0.9,2-2v-0.57C74.5,321.45,73.6,320.55,72.5,320.55z M51.67,337.54
				c-0.14,0.57-0.65,0.94-1.21,0.94c-0.1,0-0.21-0.01-0.31-0.04c-4.35-1.11-7.42-4.06-8.86-8.54c-0.21-0.66,0.15-1.36,0.81-1.57
				c0.66-0.21,1.36,0.15,1.57,0.81c1.18,3.67,3.57,5.99,7.1,6.89C51.44,336.19,51.84,336.87,51.67,337.54z"/>
			<path class="st0" d="M70.81,312.1l-3.17-3.17c-0.64-0.64-1.68-0.64-2.32,0c-0.53,0.53-0.62,1.34-0.26,1.97l-8.55,7.16h9.7
				l2.77-3.3c0.61,0.27,1.34,0.17,1.84-0.33C71.46,313.78,71.46,312.74,70.81,312.1z"/>
		</g>
	</g>
	<g>
		<g>
			<g>
				<path class="st0" d="M407,245.24h-3.09c-0.28,0-0.5,0.22-0.5,0.5v3c0,0.28-0.22,0.5-0.5,0.5h-16.92c-0.28,0-0.5-0.22-0.5-0.5v-3
					c0-0.28-0.22-0.5-0.5-0.5H382c-1.1,0-2,0.9-2,2v30c0,1.1,0.9,2,2,2h25c1.1,0,2-0.9,2-2v-30C409,246.14,408.1,245.24,407,245.24z
					 M392.25,255.13h10.11c0.69,0,1.25,0.56,1.25,1.25c0,0.69-0.56,1.25-1.25,1.25h-10.11c-0.69,0-1.25-0.56-1.25-1.25
					C391,255.69,391.56,255.13,392.25,255.13z M392.25,260.13h10.11c0.69,0,1.25,0.56,1.25,1.25s-0.56,1.25-1.25,1.25h-10.11
					c-0.69,0-1.25-0.56-1.25-1.25S391.56,260.13,392.25,260.13z M386.75,267.63h-0.39c-0.69,0-1.25-0.56-1.25-1.25
					s0.56-1.25,1.25-1.25h0.39c0.69,0,1.25,0.56,1.25,1.25S387.44,267.63,386.75,267.63z M386.75,262.63h-0.39
					c-0.69,0-1.25-0.56-1.25-1.25s0.56-1.25,1.25-1.25h0.39c0.69,0,1.25,0.56,1.25,1.25S387.44,262.63,386.75,262.63z
					 M386.75,257.63h-0.39c-0.69,0-1.25-0.56-1.25-1.25c0-0.69,0.56-1.25,1.25-1.25h0.39c0.69,0,1.25,0.56,1.25,1.25
					C388,257.07,387.44,257.63,386.75,257.63z M402.5,267.63h-10.25c-0.69,0-1.25-0.56-1.25-1.25s0.56-1.25,1.25-1.25h10.25
					c0.69,0,1.25,0.56,1.25,1.25S403.19,267.63,402.5,267.63z"/>
				<path class="st0" d="M398.27,241.96c-0.74-0.25-1.28-0.94-1.27-1.72c0.02-1.37-1.08-2.48-2.45-2.48h-0.1
					c-1.32,0-2.5,1.05-2.45,2.38c0.03,0.83-0.49,1.57-1.26,1.83c-1.59,0.54-2.74,1.03-2.74,2.8v1.5c0,0.28,0.22,0.5,0.5,0.5h12.01
					c0.28,0,0.5-0.22,0.5-0.5v-1.5C401,242.99,399.85,242.5,398.27,241.96z"/>
			</g>
		</g>
	</g>
	<g>
		<g>
			<path class="st0" d="M341,242.26h-4c-1.1,0-2,0.9-2,2s-0.9,2-2,2c-1.1,0-2-0.9-2-2s-0.9-2-2-2h-5c-1.1,0-2,0.9-2,2s-0.9,2-2,2
				s-2-0.9-2-2s-0.9-2-2-2h-4c-1.1,0-2,0.9-2,2v23c0,1.1,0.9,2,2,2h29c1.1,0,2-0.9,2-2v-23C343,243.15,342.1,242.26,341,242.26z
				 M318.64,251.35c1.6,0,2.89,1.3,2.89,2.89s-1.3,2.89-2.89,2.89c-1.6,0-2.89-1.3-2.89-2.89S317.04,251.35,318.64,251.35z
				 M323.5,262.63c0,0.4-0.3,0.72-0.67,0.72h-8.39c-0.37,0-0.67-0.32-0.67-0.72v-0.68c0-1.3,0.98-2.36,2.19-2.36h5.35
				c1.21,0,2.19,1.06,2.19,2.36V262.63z M337,262.01h-9c-0.69,0-1.25-0.56-1.25-1.25s0.56-1.25,1.25-1.25h9
				c0.69,0,1.25,0.56,1.25,1.25S337.69,262.01,337,262.01z M337,257.01h-9c-0.69,0-1.25-0.56-1.25-1.25s0.56-1.25,1.25-1.25h9
				c0.69,0,1.25,0.56,1.25,1.25S337.69,257.01,337,257.01z"/>
			<path class="st0" d="M340,271.74h-28c-0.83,0-1.5,0.67-1.5,1.5c0,0.83,0.67,1.5,1.5,1.5h28c0.83,0,1.5-0.67,1.5-1.5
				C341.5,272.42,340.83,271.74,340,271.74z"/>
		</g>
	</g>
	<g>
		<g>
			<g>
				<path class="st0" d="M263.21,247.07c-0.11-1.35-0.68-2.46-1.35-3.51c-0.94-1.49-2.06-2.88-2.31-4.67
					c-1.16,0.78-1.68,2.08-1.67,3.43c0,0.01,0,0.02,0,0.03c0.01,1.32,1.46,3.13,0.4,4.29c-1.15,1.26-3.11,0.23-2.57-1.71
					c0.25-0.9,0.09-1.43-0.03-1.68c-1.16,0.88-1.91,2.27-1.91,3.83c0,2.6,2.06,4.72,4.64,4.81
					C260.92,251.78,263.43,249.77,263.21,247.07z"/>
				<path class="st0" d="M270.08,262.75c-0.86-0.91-2.04-1.5-3.37-1.6c-0.06-0.01-0.12-0.01-0.18-0.02c-0.07,0-0.15-0.02-0.22-0.02
					h-2.81v-2.71c1.1,0,2-0.9,2-2c0-1.1-0.9-2-2-2h-10c-1.1,0-2,0.9-2,2c0,1.1,0.9,2,2,2v2.71h-2.81c-0.08,0-0.15,0.02-0.22,0.02
					c-0.06,0.01-0.12,0.01-0.18,0.02c-1.32,0.1-2.51,0.69-3.37,1.6c-0.88,0.89-1.42,2.06-1.42,3.36v6.8c0,2.87,2.33,5.19,5.19,5.19
					h15.61c2.87,0,5.19-2.33,5.19-5.19v-6.8C271.5,264.81,270.96,263.64,270.08,262.75z M268.5,269.61h-20v-3.5
					c0-1.08,1.12-2,2.45-2h6.3v2.47c0,0.69,0.56,1.25,1.25,1.25s1.25-0.56,1.25-1.25v-2.47h6.3c1.33,0,2.45,0.92,2.45,2V269.61z"/>
			</g>
		</g>
	</g>
	<g>
		<g>
			<path class="st0" d="M206.07,242.93L206.07,242.93c-1.95-1.95-5.12-1.95-7.07,0l-3.54,3.54l-1.77-1.77c-0.2-0.2-0.51-0.2-0.71,0
				l-2.12,2.12c-0.2,0.2-0.2,0.51,0,0.71l10.61,10.61c0.2,0.2,0.51,0.2,0.71,0l2.12-2.12c0.2-0.2,0.2-0.51,0-0.71l-1.77-1.77
				l3.54-3.54C208.02,248.05,208.02,244.88,206.07,242.93z"/>
			<path class="st0" d="M197.94,257.43l-6.36-6.36c-0.2-0.2-0.51-0.2-0.71,0l-15.08,15.08c-0.19,0.19-0.29,0.44-0.29,0.71v4.54
				l-1.59,1.59c-0.59,0.59-0.59,1.54,0,2.12c0.29,0.29,0.68,0.44,1.06,0.44c0.38,0,0.77-0.15,1.06-0.44l1.59-1.59h4.54
				c0.27,0,0.52-0.11,0.71-0.29l15.08-15.08C198.13,257.94,198.13,257.62,197.94,257.43z M185.81,263.83l-4.2,4.2
				c-0.24,0.24-0.56,0.37-0.88,0.37s-0.64-0.12-0.88-0.37c-0.49-0.49-0.49-1.28,0-1.77l4.2-4.2c0.49-0.49,1.28-0.49,1.77,0
				C186.3,262.55,186.3,263.34,185.81,263.83z M190.4,259.25l-1.41,1.41c-0.24,0.24-0.56,0.37-0.88,0.37s-0.64-0.12-0.88-0.37
				c-0.49-0.49-0.49-1.28,0-1.77l1.41-1.41c0.49-0.49,1.28-0.49,1.77,0C190.88,257.97,190.88,258.76,190.4,259.25z"/>
		</g>
	</g>
	<g>
		<g>
			<path class="st0" d="M129,240.75h-13c-0.83,0-1.5,0.67-1.5,1.5s0.67,1.5,1.5,1.5h13c0.83,0,1.5-0.67,1.5-1.5
				S129.83,240.75,129,240.75z"/>
			<path class="st0" d="M135.54,269.99l-6.83-9.97c-0.46-0.67-0.7-1.45-0.7-2.26v-11.01c0-0.28-0.22-0.5-0.5-0.5h-10
				c-0.28,0-0.5,0.22-0.5,0.5v11.01c0,0.81-0.24,1.6-0.7,2.26l-6.83,9.97c-1.82,2.65,0.08,6.26,3.3,6.26h19.47
				C135.45,276.25,137.36,272.64,135.54,269.99z M118.12,267.04l-3.1,4.42c-0.24,0.35-0.63,0.53-1.02,0.53
				c-0.25,0-0.5-0.07-0.72-0.23c-0.57-0.4-0.7-1.18-0.31-1.74l3.1-4.42c0.4-0.56,1.17-0.7,1.74-0.31
				C118.38,265.7,118.52,266.48,118.12,267.04z M122.02,261.47l-0.88,1.25c-0.24,0.35-0.63,0.53-1.02,0.53
				c-0.25,0-0.5-0.07-0.72-0.23c-0.57-0.4-0.7-1.18-0.31-1.74l0.88-1.25c0.4-0.56,1.18-0.7,1.74-0.31
				C122.28,260.12,122.42,260.9,122.02,261.47z"/>
		</g>
	</g>
	<g>
		<g>
			<path class="st0" d="M64.51,249.61c-1.33-1.33-3.09-2.06-4.97-2.06c-1.88,0-3.64,0.73-4.97,2.06c-0.49,0.49-0.49,1.28,0,1.77
				c0.49,0.49,1.28,0.49,1.77,0c0.85-0.86,1.99-1.33,3.2-1.33c1.21,0,2.35,0.47,3.2,1.33c0.24,0.24,0.56,0.37,0.88,0.37
				s0.64-0.12,0.88-0.37C65,250.89,65,250.1,64.51,249.61z"/>
			<path class="st0" d="M68.2,245.16c-2.44-2.44-5.64-3.66-8.84-3.66c-3.2,0-6.4,1.22-8.84,3.66c-4.28,4.28-4.81,10.88-1.59,15.73
				l-2.3,2.3l-0.35-0.35c-0.2-0.2-0.51-0.2-0.71,0l-8.13,8.13c-0.39,0.39-0.39,1.02,0,1.41l2.83,2.83c0.39,0.39,1.02,0.39,1.41,0
				l8.13-8.13c0.2-0.2,0.2-0.51,0-0.71l-0.35-0.35l2.19-2.19c2.26,1.77,4.98,2.67,7.71,2.67c3.2,0,6.4-1.22,8.84-3.66
				C73.08,257.95,73.08,250.04,68.2,245.16z M65.37,260.01c-1.61,1.61-3.74,2.49-6.01,2.49c-2.27,0-4.4-0.88-6.01-2.49
				c-1.61-1.61-2.49-3.74-2.49-6.01c0-2.27,0.88-4.4,2.49-6.01c1.61-1.61,3.74-2.49,6.01-2.49c2.27,0,4.4,0.88,6.01,2.49
				c1.61,1.61,2.49,3.74,2.49,6.01C67.86,256.27,66.97,258.4,65.37,260.01z"/>
		</g>
	</g>
	<g>
		<g>
			<path class="st0" d="M378.75,199.75v-6.54l-2-1.15v7.64c-0.91,0.37-1.56,1.27-1.56,2.31c0,1.38,1.12,2.5,2.5,2.5
				c1.38,0,2.5-1.12,2.5-2.5C380.19,201,379.6,200.14,378.75,199.75z"/>
			<path class="st0" d="M394.5,201.56c-0.78,0-1.55-0.21-2.23-0.59l-11.05-6.35v4.98c0.05,0.03,0.1,0.07,0.15,0.1l11.13,6.39
				c1.23,0.71,2.75,0.71,3.99,0l11.13-6.39c1.24-0.71,2.01-2.04,2.01-3.47v-2.68l-12.9,7.41
				C396.05,201.36,395.28,201.56,394.5,201.56z M413.82,184.85l-17.33-9.95c-0.62-0.35-1.3-0.53-1.99-0.53s-1.38,0.18-1.99,0.53
				l-17.32,9.95c-1.32,0.76-1.32,2.66,0,3.42l18.34,10.53c0.3,0.17,0.64,0.26,0.98,0.26s0.68-0.09,0.98-0.26l18.34-10.53
				C415.14,187.51,415.14,185.61,413.82,184.85z"/>
		</g>
	</g>
	<g>
		<g>
			<path class="st0" d="M340.32,191.18l-1.36-1.36c1.97-3.77,1.37-8.53-1.8-11.7c-3.17-3.17-7.93-3.76-11.7-1.8l-1.26-1.26
				c-0.58-0.59-1.54-0.59-2.12,0c-0.59,0.59-0.59,1.54,0,2.12l1,1l1,1c0.59,0.59,0.59,1.54,0,2.12c-0.29,0.29-0.68,0.44-1.06,0.44
				c-0.38,0-0.77-0.15-1.06-0.44c0,0,0,0,0,0l-0.95-0.95l-0.11-0.11l-1.83-1.83c-0.59-0.59-1.54-0.59-2.12,0
				c-0.59,0.59-0.59,1.54,0,2.12l1.83,1.83l0,0l1.06,1.06c0.59,0.59,0.59,1.54,0,2.12c-0.29,0.29-0.68,0.44-1.06,0.44
				c-0.38,0-0.77-0.15-1.06-0.44l-1.06-1.06l0,0l-2.33-2.33c-0.59-0.59-1.54-0.59-2.12,0c-0.59,0.59-0.59,1.54,0,2.12l2.33,2.33l0,0
				l1.06,1.06c0.59,0.59,0.59,1.54,0,2.12c-0.29,0.29-0.68,0.44-1.06,0.44c-0.38,0-0.77-0.15-1.06-0.44l-1.03-1.03v0l-0.86-0.86
				c-0.58-0.59-1.54-0.59-2.12,0c-0.59,0.59-0.59,1.54,0,2.12l1.42,1.42c-1.4,3.59-0.67,7.82,2.23,10.72l0,0
				c2.9,2.9,7.13,3.64,10.72,2.23l1.63,1.63c0.29,0.29,0.68,0.44,1.06,0.44c0.38,0,0.77-0.15,1.06-0.44c0.59-0.59,0.59-1.54,0-2.12
				l-1.07-1.07c0,0,0,0,0,0l-0.32-0.32c-0.59-0.59-0.59-1.54,0-2.12c0.59-0.59,1.54-0.59,2.12,0l0.35,0.35l0,0l2.56,2.56
				c0.29,0.29,0.68,0.44,1.06,0.44c0.38,0,0.77-0.15,1.06-0.44c0.59-0.59,0.59-1.54,0-2.12l-2.56-2.56l0,0l-0.35-0.35
				c-0.59-0.59-0.59-1.54,0-2.12c0.59-0.59,1.54-0.59,2.12,0l0.35,0.35l0,0l2.56,2.56c0.29,0.29,0.68,0.44,1.06,0.44
				s0.77-0.15,1.06-0.44c0.59-0.59,0.59-1.54,0-2.12l-2.91-2.91c0,0,0,0,0,0c-0.59-0.59-0.59-1.54,0-2.12
				c0.59-0.59,1.54-0.59,2.12,0l1.39,1.39c0.29,0.29,0.68,0.44,1.06,0.44c0.38,0,0.77-0.15,1.06-0.44
				C340.91,192.71,340.91,191.76,340.32,191.18z M319.14,197.57c-0.98,0.98-2.56,0.98-3.54,0c-0.98-0.98-0.98-2.56,0-3.54
				c0.98-0.98,2.56-0.98,3.54,0C320.11,195.01,320.11,196.59,319.14,197.57z M328.68,193.68c-0.78,0.78-2.05,0.78-2.83,0
				c-0.78-0.78-0.78-2.05,0-2.83c0.78-0.78,2.05-0.78,2.83,0C329.46,191.63,329.46,192.9,328.68,193.68z M331.86,184.14
				c-0.98,0.98-2.56,0.98-3.54,0c-0.98-0.98-0.98-2.56,0-3.54c0.98-0.98,2.56-0.98,3.54,0
				C332.84,181.58,332.84,183.16,331.86,184.14z"/>
			<path class="st0" d="M311.5,171.5c-0.9,0-1.79,0.34-2.47,1.03c-1.37,1.37-1.37,3.58,0,4.95c0.68,0.68,1.58,1.03,2.47,1.03
				c0.9,0,1.79-0.34,2.47-1.03c1.37-1.37,1.37-3.58,0-4.95C313.29,171.84,312.4,171.5,311.5,171.5z M310.5,204.5
				c-0.64,0-1.28,0.24-1.77,0.73c-0.98,0.98-0.98,2.56,0,3.54c0.49,0.49,1.13,0.73,1.77,0.73s1.28-0.24,1.77-0.73
				c0.98-0.98,0.98-2.56,0-3.54C311.78,204.74,311.14,204.5,310.5,204.5z M344.27,174.73c-0.49-0.49-1.13-0.73-1.77-0.73
				s-1.28,0.24-1.77,0.73c-0.98,0.98-0.98,2.56,0,3.54c0.49,0.49,1.13,0.73,1.77,0.73s1.28-0.24,1.77-0.73
				C345.24,177.29,345.24,175.71,344.27,174.73z"/>
		</g>
	</g>
	<g>
		<g>
			<path class="st0" d="M259.24,197.45c0.22,0,0.45-0.05,0.66-0.16l5.59-2.76c0.51-0.25,0.84-0.77,0.84-1.35v-6.77
				c0-0.83-0.67-1.5-1.5-1.5c-0.83,0-1.5,0.67-1.5,1.5v5.83l-4.75,2.34c-0.74,0.37-1.05,1.27-0.68,2.01
				C258.15,197.15,258.68,197.45,259.24,197.45z M275.5,179c-0.58-0.94-1.81-1.24-2.75-0.67l-1.85,1.13l-4.58-2.64
				c-0.96-0.55-2.18-0.23-2.73,0.73c-0.55,0.96-0.22,2.18,0.73,2.73l4.76,2.75v12.66l-10.38,5.12c-0.05,0-0.1-0.01-0.14-0.01
				l-7.7-4.96c0-0.03,0.01-0.07,0.01-0.1c0-2.1-1.7-3.8-3.8-3.8c-2.1,0-3.8,1.7-3.8,3.8c0,2.1,1.7,3.8,3.8,3.8
				c0.57,0,1.1-0.13,1.58-0.36l7.84,5.05v2.85c0,1.1,0.9,2,2,2s2-0.9,2-2v-2.69l11.47-5.65c0.68-0.34,1.12-1.03,1.12-1.79v-14.11
				l1.75-1.07C275.78,181.17,276.08,179.94,275.5,179z"/>
			<path class="st0" d="M258.5,171.93c-1.98,0-3.58,1.52-3.76,3.45l-8.86,4.07l-1.68-0.97c-0.96-0.55-2.18-0.22-2.73,0.73
				c-0.55,0.96-0.22,2.18,0.73,2.73l1.55,0.9l-0.11,5.46c-0.02,1.1,0.85,2.02,1.96,2.04c0.01,0,0.03,0,0.04,0
				c1.08,0,1.98-0.87,2-1.96l0.11-5.39l8.77-4.03c0.58,0.35,1.25,0.57,1.97,0.57c2.1,0,3.8-1.7,3.8-3.8
				C262.3,173.63,260.6,171.93,258.5,171.93z"/>
		</g>
	</g>
	<g>
		<g>
			<path class="st0" d="M205.46,183.65c-0.41-3.06-4.48-3.92-5.86-4.2c-0.5-0.1-1.04-0.2-1.6-0.28c0,0.02,0,0.04,0,0.06
				c0,1.02-0.21,2-0.58,2.88c3.07,0.45,5.09,1.2,5.09,2.04c0,1.32-4.91,2.4-11.13,2.49c-0.28,0.03-0.55,0.05-0.84,0.05
				c-0.28,0-0.56-0.02-0.83-0.05c-6.25-0.09-11.19-1.17-11.19-2.49c0-0.85,2.03-1.6,5.14-2.05c-0.37-0.89-0.58-1.86-0.58-2.88
				c0-0.02,0-0.05,0-0.07c-0.58,0.09-1.14,0.18-1.66,0.29c-1.39,0.29-5.46,1.14-5.86,4.2h-0.04v6.64c0,1.19,0.53,2.32,1.44,3.08
				l9.21,7.66c0.46,0.38,0.72,0.94,0.72,1.54v3.99c0,0.73,0.4,1.4,1.03,1.75l3.24,1.79c1.33,0.74,2.97-0.23,2.97-1.75v-5.78
				c0-0.59,0.26-1.16,0.72-1.54l9.22-7.66c0.91-0.76,1.44-1.89,1.44-3.08v-6.64H205.46z"/>
			<path class="st0" d="M191.29,171.04c-0.19-0.26-0.48-0.39-0.77-0.39c-0.29,0-0.58,0.13-0.77,0.39c-1.39,1.95-4.2,6.12-4.2,8.18
				c0,2.74,2.22,4.97,4.97,4.97c2.74,0,4.97-2.22,4.97-4.97C195.49,177.16,192.69,172.99,191.29,171.04z M189,180.65
				c-0.83,0-1.5-0.67-1.5-1.5s0.67-1.5,1.5-1.5s1.5,0.67,1.5,1.5S189.83,180.65,189,180.65z"/>
		</g>
	</g>
	<g>
		<g>
			<path class="st0" d="M121.73,193.9v-16.27c0-2.83-2.3-5.13-5.13-5.13s-5.13,2.3-5.13,5.13v16.27c-1.8,1.45-2.99,3.64-3.07,6.13
				c-0.15,4.53,3.4,8.32,7.93,8.47c4.53,0.15,8.32-3.4,8.47-7.93C124.89,197.88,123.67,195.46,121.73,193.9z M116.48,205.18
				c-0.01,0-0.03,0-0.04,0c-1.3-0.04-2.51-0.59-3.4-1.54c-0.89-0.95-1.36-2.19-1.32-3.5c0.02-0.69,0.62-1.23,1.29-1.21
				c0.69,0.02,1.23,0.6,1.21,1.29c-0.02,0.64,0.21,1.24,0.64,1.71c0.43,0.46,1.02,0.73,1.66,0.75c0.69,0.02,1.23,0.6,1.21,1.29
				C117.71,204.64,117.15,205.18,116.48,205.18z M118.73,188.5h-4.26v-10.87c0-1.17,0.95-2.13,2.13-2.13s2.13,0.95,2.13,2.13V188.5z
				"/>
			<path class="st0" d="M125.6,172.75c-1.1,0-2,0.9-2,2c0,1.1,0.9,2,2,2s2-0.9,2-2C127.6,173.65,126.71,172.75,125.6,172.75z
				 M135.1,176.5c0.83,0,1.5-0.67,1.5-1.5c0-0.83-0.67-1.5-1.5-1.5h-4c-0.83,0-1.5,0.67-1.5,1.5v9c0,0.83,0.67,1.5,1.5,1.5
				s1.5-0.67,1.5-1.5v-2.5h1.5c0.83,0,1.5-0.67,1.5-1.5c0-0.83-0.67-1.5-1.5-1.5h-1.5v-2H135.1z"/>
		</g>
	</g>
	<g>
		<g>
			<g>
				<g>
					<path class="st0" d="M54.5,189.75c-0.69,0-1.25,0.56-1.25,1.25v4c0,0.69,0.56,1.25,1.25,1.25s1.25-0.56,1.25-1.25v-4
						C55.75,190.31,55.19,189.75,54.5,189.75z M67.5,172.5h-26c-0.83,0-1.5,0.67-1.5,1.5c0,2.48,1.87,4.5,4.18,4.5h7.32v1.03
						c0,0.26,0.21,0.47,0.47,0.47h5.07c0.26,0,0.47-0.21,0.47-0.47v-1.03h7.32c2.3,0,4.18-2.02,4.18-4.5
						C69,173.17,68.33,172.5,67.5,172.5z"/>
					<path class="st0" d="M67.91,186.19c-0.16-2.08-1.9-3.69-3.99-3.69H45.07c-2.09,0-3.83,1.61-3.99,3.69l-1.25,16
						c-0.15,1.86,1.01,3.48,2.66,4.07v1.25c0,0.55,0.45,1,1,1h4c0.55,0,1-0.45,1-1v-1h11v1c0,0.55,0.45,1,1,1h4c0.55,0,1-0.45,1-1
						v-1.03c2.17-0.18,3.84-2.06,3.66-4.28L67.91,186.19z M54.5,201.84c-4.05,0-7.34-3.28-7.34-7.34s3.28-7.34,7.34-7.34
						s7.34,3.28,7.34,7.34S58.55,201.84,54.5,201.84z"/>
				</g>
			</g>
		</g>
	</g>
	<g>
		<g>
			<path class="st0" d="M398.4,105.6h-8.78c-0.28,0-0.5,0.22-0.5,0.5v9.13c0,0.38,0.41,0.62,0.74,0.44l4-2.22
				c0.15-0.09,0.34-0.08,0.49,0l3.8,2.19c0.33,0.19,0.75-0.05,0.75-0.43v-9.12C398.9,105.82,398.68,105.6,398.4,105.6z
				 M408.49,106.87c-0.69,0-1.25,0.56-1.25,1.25v23.52c0,0.69,0.56,1.25,1.25,1.25c0.69,0,1.25-0.56,1.25-1.25v-23.52
				C409.74,107.43,409.18,106.87,408.49,106.87z"/>
			<path class="st0" d="M407.63,135.57H384.5c-0.72,0-1.31-0.59-1.31-1.31c0-0.72,0.59-1.31,1.31-1.31h19.28c0.55,0,1-0.45,1-1
				V106.5c0-0.55-0.45-1-1-1h-2.38c0,0.03,0.01,0.06,0.01,0.1v10.48c0,0.89-0.48,1.72-1.25,2.16c-0.39,0.22-0.82,0.34-1.25,0.34
				c-0.43,0-0.86-0.11-1.25-0.33l-3.57-2.06l-3.75,2.08c-0.38,0.21-0.8,0.31-1.21,0.31c-0.44,0-0.88-0.12-1.27-0.35
				c-0.76-0.45-1.23-1.27-1.23-2.15V105.6c0-0.03,0.01-0.06,0.01-0.1h-3.37c-2.21,0-4,1.79-4,4v26c0,2.21,1.79,4,4,4h24.37
				c1.09,0,1.97-0.88,1.97-1.97S408.72,135.57,407.63,135.57z M388.11,124.6h13c0.55,0,1,0.45,1,1c0,0.55-0.45,1-1,1h-13
				c-0.55,0-1-0.45-1-1C387.11,125.04,387.56,124.6,388.11,124.6z"/>
		</g>
	</g>
	<g>
		<g>
			<path class="st0" d="M346.7,132.55c-1.06-1.37-2.4-2.82-3.92-4.25c-0.54-0.5-1.09-1-1.67-1.49c0.68-0.97,1.09-2.16,1.09-3.44
				c0-3.31-2.69-6-6-6c-3.26,0-5.91,2.6-5.99,5.85h-0.01v0.22c0,0.69-0.56,1.25-1.25,1.25c-0.68,0-1.23-0.55-1.25-1.23
				c0-0.03,0-0.06,0-0.09c0-1.37,0.33-2.66,0.91-3.8c-1.49-0.48-2.98-0.83-4.46-0.98c-11.1-1.11-19.08,7.14-17.09,15.98
				c0.24,1.06,1.22,1.8,2.31,1.8h35.46C346.79,136.38,347.9,134.12,346.7,132.55z M337.7,131.38c-1.1,0-2-0.9-2-2s0.9-2,2-2
				c1.1,0,2,0.9,2,2S338.8,131.38,337.7,131.38z"/>
			<path class="st0" d="M310.58,108.99c-0.49-0.49-1.28-0.49-1.77,0c-0.49,0.49-0.49,1.28,0,1.77c1.72,1.72,1.72,4.51,0,6.23l-1,1
				c-1.2,1.2-1.91,2.79-2.01,4.48c-0.04,0.69,0.49,1.28,1.18,1.32c0.02,0,0.05,0,0.07,0c0.66,0,1.21-0.51,1.25-1.18
				c0.06-1.08,0.52-2.09,1.28-2.86l1-1c1.3-1.3,2.02-3.04,2.02-4.88S311.89,110.3,310.58,108.99z"/>
		</g>
	</g>
	<g>
		<g>
			<circle class="st0" cx="258.56" cy="122.5" r="3"/>
			<path class="st0" d="M272.14,122.41c0.34-0.37,0.66-0.75,0.96-1.12c2.7-3.36,3.49-6.42,2.22-8.61c-0.66-1.14-2.16-2.52-5.57-2.6
				c-0.85-0.03-1.52,0.64-1.54,1.46c-0.02,0.83,0.63,1.52,1.46,1.54c1.58,0.04,2.66,0.43,3.05,1.1c0.58,1-0.17,3.01-1.96,5.23
				c-0.24,0.3-0.5,0.6-0.77,0.89c-0.99-0.88-2.06-1.74-3.18-2.56c-0.77-7.45-3.57-14.74-8.25-14.74c-3.11,0-5.41,3.18-6.83,7.65
				c-0.51-0.11-1.01-0.21-1.49-0.28c-4.26-0.65-7.3,0.19-8.57,2.38c-0.69,1.2-1.13,3.3,0.74,6.49c0.42,0.71,1.34,0.96,2.05,0.54
				c0.71-0.42,0.96-1.34,0.54-2.05c-0.87-1.49-1.14-2.76-0.73-3.47c0.58-1,2.69-1.35,5.51-0.92c0.39,0.06,0.78,0.14,1.19,0.22
				c-0.27,1.28-0.49,2.63-0.64,4c-6.13,4.4-11.15,10.54-8.79,14.63c1.05,1.82,3.17,2.59,5.86,2.59c1.31,0,2.77-0.21,4.29-0.54
				c1.42,4.53,3.73,7.78,6.87,7.78c1.43,0,3.52-0.71,5.38-4.12c0.4-0.73,0.13-1.64-0.6-2.04c-0.73-0.4-1.64-0.13-2.04,0.6
				c-0.89,1.62-1.89,2.55-2.74,2.55c-1.26,0-2.83-2.02-3.97-5.57c1.26-0.41,2.54-0.91,3.82-1.48c3.8,1.72,7.88,2.88,11.17,2.88
				c2.67,0,4.82-0.76,5.87-2.58C277.02,129.53,275.36,125.9,272.14,122.41z M244.15,130.68c-0.88-1.53,1.17-5.25,5.93-9.15
				c-0.01,0.33-0.01,0.65-0.01,0.98c0,3,0.3,6.06,0.89,8.84C247.31,132.12,244.77,131.77,244.15,130.68z M258.56,106
				c1.75,0,3.92,3.58,4.93,9.54c-0.23-0.14-0.45-0.27-0.68-0.4c-2.74-1.58-5.53-2.84-8.18-3.7C255.77,107.98,257.32,106,258.56,106z
				 M253.84,130.54c-0.48-2.3-0.78-5-0.78-8.04c0-3.09,0.31-5.83,0.8-8.16c2.39,0.79,4.94,1.95,7.45,3.4
				c2.63,1.52,4.81,3.12,6.56,4.68c-1.89,1.68-4.17,3.32-6.69,4.77C258.55,128.71,256.07,129.8,253.84,130.54z M272.85,130.75
				c-0.88,1.53-5.14,1.61-10.9-0.56c0.24-0.14,0.49-0.26,0.74-0.4c2.76-1.59,5.25-3.4,7.33-5.27
				C272.52,127.28,273.48,129.66,272.85,130.75z"/>
		</g>
	</g>
	<g>
		<g>
			<path class="st0" d="M190.82,110.23c1.37,0.93,3.24,0.57,4.17-0.8c0.93-1.37,0.57-3.24-0.8-4.17c-1.37-0.93-3.24-0.57-4.17,0.8
				C189.09,107.44,189.45,109.31,190.82,110.23z M183.79,117.05c0.43-0.63,0.95-1.18,1.54-1.64l-2.4-2c1.1-2.01,0.54-4.57-1.4-5.88
				c-2.06-1.39-4.86-0.85-6.25,1.2c-1.39,2.06-0.85,4.86,1.2,6.25c1.28,0.87,2.85,0.99,4.19,0.45l2.72,2.27
				C183.51,117.48,183.65,117.26,183.79,117.05z M186.66,127.96l-1.44,5.39c-0.83,0.19-1.6,0.68-2.12,1.44
				c-1.08,1.6-0.66,3.78,0.94,4.86s3.78,0.66,4.86-0.94c1.04-1.53,0.69-3.58-0.75-4.7l1.41-5.29
				C188.55,128.66,187.56,128.41,186.66,127.96z M198.6,119.17l-3.43,0.23c-0.38-1.06-1.07-2.03-2.08-2.71
				c-0.94-0.64-2.02-0.95-3.08-0.95c-1.76,0-3.5,0.85-4.56,2.42c-1.7,2.52-1.04,5.93,1.47,7.64c0.94,0.64,2.02,0.95,3.08,0.95
				c1.76,0,3.5-0.85,4.56-2.42c0.41-0.61,0.68-1.26,0.82-1.94l3.42-0.23C198.5,121.2,198.43,120.18,198.6,119.17z"/>
			<path class="st0" d="M178.52,122.52c-2.06-1.39-4.86-0.85-6.25,1.2c-1.39,2.06-0.85,4.86,1.2,6.25c2.06,1.39,4.86,0.85,6.25-1.2
				C181.12,126.71,180.58,123.92,178.52,122.52z M207.52,116.52c-0.77-0.52-1.65-0.77-2.52-0.77c-1.44,0-2.86,0.69-3.73,1.98
				c-1.39,2.06-0.85,4.86,1.2,6.25c0.77,0.52,1.65,0.77,2.52,0.77c1.44,0,2.86-0.69,3.73-1.98
				C210.12,120.71,209.58,117.92,207.52,116.52z"/>
		</g>
	</g>
	<g>
		<g>
			<g>
				<path class="st0" d="M118,120.9c4.55,0,8.24-3.69,8.24-8.24c0-4.55-3.69-8.24-8.24-8.24c-4.55,0-8.24,3.69-8.24,8.24
					C109.76,117.21,113.45,120.9,118,120.9z M127.08,123.46c-0.28-0.04-0.57-0.06-0.87-0.06h-2.93c-0.65,0-1.27,0.32-1.64,0.85
					l-2.05,2.94c-0.8,1.15-2.51,1.14-3.29-0.02l-1.96-2.89c-0.37-0.55-0.99-0.88-1.65-0.88h-2.88c-3.71,0-6.72,3.01-6.72,6.72v2.98
					c0,0.55,0.45,1,1,1h19.41l3.6-5.22V123.46z M112.08,131.34h-4c-0.69,0-1.25-0.56-1.25-1.25s0.56-1.25,1.25-1.25h4
					c0.69,0,1.25,0.56,1.25,1.25S112.77,131.34,112.08,131.34z M141.5,136.81l-4.5-6.53c-0.28-0.4-0.43-0.88-0.43-1.37v-7.02
					c0-0.17-0.13-0.3-0.3-0.3h-6.4c-0.17,0-0.3,0.13-0.3,0.3v7.02c0,0.49-0.15,0.97-0.43,1.37l-4.5,6.53
					c-1.1,1.6,0.04,3.78,1.98,3.78h12.88C141.46,140.59,142.6,138.41,141.5,136.81z"/>
				<path class="st0" d="M136.08,116.59h-6c-0.83,0-1.5,0.67-1.5,1.5s0.67,1.5,1.5,1.5h6c0.83,0,1.5-0.67,1.5-1.5
					S136.91,116.59,136.08,116.59z"/>
			</g>
		</g>
	</g>
	<g>
		<g>
			<path class="st0" d="M64.97,117.65c0.01-0.1,0.03-0.2,0.03-0.3c0-0.57-0.17-1.1-0.45-1.55l1.12-1.12
				c0.47-0.47,0.67-1.13,0.55-1.78l-0.32-1.71c-0.12-0.65,0.08-1.32,0.55-1.78l0.92-0.92c0.78-0.78,0.78-2.05,0-2.83l-1.67-1.67
				c-0.78-0.78-2.05-0.78-2.83,0l-0.92,0.92c-0.47,0.47-1.13,0.67-1.78,0.55l-1.71-0.32c-0.65-0.12-1.32,0.08-1.78,0.55l-8.86,8.86
				c-0.78,0.78-0.78,2.05,0,2.83l6.17,6.17c0.78,0.78,2.05,0.78,2.83,0l3.63-3.63c0.45,0.28,0.98,0.45,1.55,0.45
				c0.42,0,0.82-0.09,1.18-0.24c1.14,1.29,1.82,2.94,1.82,4.74v1c0,4.14-3.62,7.5-8.06,7.5H42.5c-0.83,0-1.5,0.67-1.5,1.5
				s0.67,1.5,1.5,1.5h5.32c-1.12,1.17-1.82,2.75-1.82,4.5v0.27c0,0.28,0.22,0.5,0.5,0.5h15c0.28,0,0.5-0.22,0.5-0.5v-0.27
				c0-1.94-0.85-3.68-2.2-4.87c4.72-1.2,8.2-5.28,8.2-10.13v-1C68,122.06,66.84,119.53,64.97,117.65z"/>
			<path class="st0" d="M47.62,125.3c0.78,0.78,2.05,0.78,2.83,0l0.54-0.54c0.2-0.2,0.2-0.51,0-0.71l-3.91-3.91
				c-0.2-0.2-0.51-0.2-0.71,0l-0.54,0.54c-0.78,0.78-0.78,2.05,0,2.83L47.62,125.3z M57,128.34H46c-0.83,0-1.5,0.67-1.5,1.5
				s0.67,1.5,1.5,1.5h11c0.83,0,1.5-0.67,1.5-1.5S57.83,128.34,57,128.34z"/>
		</g>
	</g>
</g>
<g id="title">
</g>
</svg>
