<?xml version="1.0" encoding="utf-8"?>
<!-- Generator: Adobe Illustrator 24.1.1, SVG Export Plug-In . SVG Version: 6.00 Build 0)  -->
<svg version="1.1" xmlns="http://www.w3.org/2000/svg" x="0px" y="0px"
     viewBox="0 0 448 448" style="enable-background:new 0 0 448 448;" xml:space="preserve">
<style type="text/css">
	.st0{fill:#173042;}
</style>
<g id="grid">
</g>
<g id="icons">
	<g>
		<g>
			<g>
				<g>
					<path class="st0" d="M395.04,392.91c-0.64,0-1.27-0.17-1.82-0.49l-6.25-3.59v3.89l6.37,3.66c0.71,0.41,1.59,0.41,2.31,0
						l6.69-3.84c0.72-0.41,1.16-1.18,1.16-2.01v-1.93l-6.64,3.81C396.31,392.74,395.68,392.91,395.04,392.91z M406.38,382.07
						l-10.29-5.91c-0.33-0.19-0.69-0.28-1.05-0.28c-0.36,0-0.73,0.09-1.05,0.28l-10.29,5.91c-0.77,0.44-0.77,1.56,0,2.01l10.76,6.18
						c0.18,0.1,0.38,0.15,0.58,0.15c0.2,0,0.4-0.05,0.58-0.15l10.76-6.18C407.16,383.63,407.16,382.51,406.38,382.07z"/>
					<path class="st0" d="M413.5,376.63h-11.57l5.7,3.27c0.34,0.19,0.63,0.44,0.89,0.73h2.98v18h-34v-18h4.07
						c0.25-0.28,0.55-0.53,0.89-0.73l5.7-3.27H375.5c-1.1,0-2,0.9-2,2v25c0,1.1,0.9,2,2,2h14.92l-0.75,4.5H386
						c-0.83,0-1.5,0.67-1.5,1.5s0.67,1.5,1.5,1.5h17c0.83,0,1.5-0.67,1.5-1.5s-0.67-1.5-1.5-1.5h-3.67l-0.75-4.5h14.92
						c1.1,0,2-0.9,2-2v-25C415.5,377.52,414.6,376.63,413.5,376.63z M394.5,404.13c-0.83,0-1.5-0.67-1.5-1.5s0.67-1.5,1.5-1.5
						c0.83,0,1.5,0.67,1.5,1.5S395.33,404.13,394.5,404.13z M382.5,386.43v5.29l-0.83,1.08c-0.23,0.29-0.23,0.7,0,1l1.08,1.41
						c0.33,0.43,0.97,0.43,1.3,0l1.08-1.41c0.23-0.29,0.23-0.7,0-1l-0.64-0.83v-4.38L382.5,386.43z"/>
				</g>
			</g>
		</g>
	</g>
	<g>
		<g>
			<circle class="st0" cx="326.56" cy="394.5" r="3"/>
			<path class="st0" d="M340.14,394.41c0.34-0.37,0.66-0.75,0.96-1.12c2.7-3.36,3.49-6.42,2.22-8.61c-0.66-1.14-2.16-2.52-5.57-2.6
				c-0.85-0.03-1.52,0.64-1.54,1.46c-0.02,0.83,0.63,1.52,1.46,1.54c1.58,0.04,2.66,0.43,3.05,1.1c0.58,1-0.17,3.01-1.96,5.23
				c-0.24,0.3-0.5,0.6-0.77,0.89c-0.99-0.88-2.06-1.74-3.18-2.56c-0.77-7.45-3.57-14.74-8.25-14.74c-3.11,0-5.41,3.18-6.83,7.65
				c-0.51-0.11-1.01-0.21-1.49-0.28c-4.26-0.65-7.3,0.19-8.57,2.38c-0.69,1.2-1.13,3.3,0.74,6.49c0.42,0.71,1.34,0.96,2.05,0.54
				c0.71-0.42,0.96-1.34,0.54-2.05c-0.87-1.49-1.14-2.76-0.73-3.47c0.58-1,2.69-1.35,5.51-0.92c0.39,0.06,0.78,0.14,1.19,0.22
				c-0.27,1.28-0.49,2.63-0.64,4c-6.13,4.4-11.15,10.54-8.79,14.63c1.05,1.82,3.17,2.59,5.86,2.59c1.31,0,2.77-0.21,4.29-0.54
				c1.42,4.53,3.73,7.78,6.87,7.78c1.43,0,3.52-0.71,5.38-4.12c0.4-0.73,0.13-1.64-0.6-2.04c-0.73-0.4-1.64-0.13-2.04,0.6
				c-0.89,1.62-1.89,2.55-2.74,2.55c-1.26,0-2.83-2.02-3.97-5.57c1.26-0.41,2.54-0.91,3.82-1.48c3.8,1.72,7.88,2.88,11.17,2.88
				c2.67,0,4.82-0.76,5.87-2.58C345.02,401.53,343.36,397.9,340.14,394.41z M312.15,402.68c-0.88-1.53,1.17-5.25,5.93-9.15
				c-0.01,0.33-0.01,0.65-0.01,0.98c0,3,0.3,6.06,0.89,8.84C315.31,404.12,312.77,403.77,312.15,402.68z M326.56,378
				c1.75,0,3.92,3.58,4.93,9.54c-0.23-0.14-0.45-0.27-0.68-0.4c-2.74-1.58-5.53-2.84-8.18-3.7C323.77,379.98,325.32,378,326.56,378z
				 M321.84,402.54c-0.48-2.3-0.78-5-0.78-8.04c0-3.09,0.31-5.83,0.8-8.16c2.39,0.79,4.94,1.95,7.45,3.4
				c2.63,1.52,4.81,3.12,6.56,4.68c-1.89,1.68-4.17,3.32-6.69,4.77C326.55,400.71,324.07,401.8,321.84,402.54z M340.85,402.75
				c-0.88,1.53-5.14,1.61-10.9-0.56c0.24-0.14,0.49-0.26,0.74-0.4c2.76-1.59,5.25-3.4,7.33-5.27
				C340.52,399.28,341.48,401.66,340.85,402.75z"/>
		</g>
	</g>
	<g>
		<g>
			<path class="st0" d="M272.49,378.87c-0.69,0-1.25,0.56-1.25,1.25v23.52c0,0.69,0.56,1.25,1.25,1.25s1.25-0.56,1.25-1.25v-23.52
				C273.74,379.43,273.18,378.87,272.49,378.87z"/>
			<path class="st0" d="M271.63,407.57H248.5c-0.72,0-1.31-0.59-1.31-1.31c0-0.72,0.59-1.31,1.31-1.31h19.28c0.55,0,1-0.45,1-1
				V378.5c0-0.55-0.45-1-1-1h-20.52c-2.21,0-4,1.79-4,4v26c0,2.21,1.79,4,4,4h24.37c1.09,0,1.97-0.88,1.97-1.97
				C273.6,408.45,272.72,407.57,271.63,407.57z M261.55,387.88c-0.37-0.58-0.19-1.36,0.39-1.72c0.58-0.37,1.36-0.19,1.72,0.39
				c2.07,3.28,2.03,7.5-0.11,10.74c-0.24,0.36-0.64,0.56-1.04,0.56c-0.24,0-0.48-0.07-0.69-0.21c-0.58-0.38-0.73-1.16-0.35-1.73
				C263.07,393.49,263.1,390.34,261.55,387.88z M258.14,388.05c0.58-0.37,1.35-0.21,1.73,0.37c1.32,2.04,1.33,4.68,0.05,6.74
				c-0.24,0.38-0.64,0.59-1.06,0.59c-0.23,0-0.46-0.06-0.66-0.19c-0.58-0.37-0.76-1.14-0.4-1.72c0.77-1.24,0.76-2.83-0.03-4.06
				C257.39,389.2,257.56,388.43,258.14,388.05z M246.84,391.03c0-1.1,0.9-2,2-2h1.22l3.49-2.69c0.53-0.41,1.29-0.03,1.29,0.63v9.72
				c0,0.66-0.76,1.04-1.29,0.63l-3.49-2.69h-1.22c-1.1,0-2-0.9-2-2V391.03z"/>
		</g>
	</g>
	<g>
		<g>
			<path class="st0" d="M209.5,376.25h-38c-1.1,0-2,0.9-2,2v25c0,1.1,0.9,2,2,2h14.92l-0.75,4.5H182c-0.83,0-1.5,0.67-1.5,1.5
				s0.67,1.5,1.5,1.5h17c0.83,0,1.5-0.67,1.5-1.5s-0.67-1.5-1.5-1.5h-3.67l-0.75-4.5h14.92c1.1,0,2-0.9,2-2v-25
				C211.5,377.15,210.6,376.25,209.5,376.25z M190.5,403.75c-0.83,0-1.5-0.67-1.5-1.5s0.67-1.5,1.5-1.5c0.83,0,1.5,0.67,1.5,1.5
				S191.33,403.75,190.5,403.75z M207.5,398.25h-34v-18h34V398.25z"/>
			<path class="st0" d="M194.29,388.91l-5.25-3.21c-0.85-0.52-1.95,0.09-1.95,1.09v6.43c0,1,1.1,1.62,1.95,1.09l5.25-3.22
				C195.11,390.59,195.11,389.41,194.29,388.91z"/>
		</g>
	</g>
	<g>
		<g>
			<path class="st0" d="M106.75,403.75v-6.54l-2-1.15v7.64c-0.91,0.37-1.56,1.27-1.56,2.31c0,1.38,1.12,2.5,2.5,2.5
				c1.38,0,2.5-1.12,2.5-2.5C108.19,405,107.6,404.14,106.75,403.75z"/>
			<path class="st0" d="M122.5,405.56c-0.78,0-1.55-0.21-2.23-0.59l-11.05-6.35v4.98c0.05,0.03,0.1,0.07,0.15,0.1l11.13,6.39
				c1.23,0.71,2.75,0.71,3.99,0l11.13-6.39c1.24-0.71,2.01-2.04,2.01-3.47v-2.68l-12.9,7.41
				C124.05,405.36,123.28,405.56,122.5,405.56z M141.82,388.85l-17.33-9.95c-0.62-0.35-1.3-0.53-1.99-0.53
				c-0.69,0-1.38,0.18-1.99,0.53l-17.32,9.95c-1.32,0.76-1.32,2.66,0,3.42l18.34,10.53c0.3,0.17,0.64,0.26,0.98,0.26
				c0.34,0,0.68-0.09,0.98-0.26l18.34-10.53C143.14,391.51,143.14,389.61,141.82,388.85z"/>
		</g>
	</g>
	<g>
		<g>
			<path class="st0" d="M68.49,378.87c-0.69,0-1.25,0.56-1.25,1.25v23.52c0,0.69,0.56,1.25,1.25,1.25s1.25-0.56,1.25-1.25v-23.52
				C69.74,379.43,69.18,378.87,68.49,378.87z"/>
			<path class="st0" d="M67.63,407.57H44.5c-0.72,0-1.31-0.59-1.31-1.31s0.59-1.31,1.31-1.31h19.28c0.55,0,1-0.45,1-1V378.5
				c0-0.55-0.45-1-1-1H43.26c-2.21,0-4,1.79-4,4v26c0,2.21,1.79,4,4,4h24.37c1.09,0,1.97-0.88,1.97-1.97
				C69.6,408.45,68.72,407.57,67.63,407.57z M58.34,399.37h-10c-0.69,0-1.25-0.56-1.25-1.25c0-0.69,0.56-1.25,1.25-1.25h10
				c0.69,0,1.25,0.56,1.25,1.25C59.59,398.81,59.03,399.37,58.34,399.37z M46.84,386.62c0-0.55,0.45-1,1-1h11c0.55,0,1,0.45,1,1v4
				c0,0.55-0.45,1-1,1h-11c-0.55,0-1-0.45-1-1V386.62z"/>
		</g>
	</g>
	<g>
		<g>
			<path class="st0" d="M408.5,309.75h-28c-2.21,0-4,1.79-4,4v5.46c0,0.28,0.22,0.5,0.5,0.5h35c0.28,0,0.5-0.22,0.5-0.5v-5.46
				C412.5,311.54,410.71,309.75,408.5,309.75z M382.5,316.75c-1.1,0-2-0.9-2-2s0.9-2,2-2c1.1,0,2,0.9,2,2S383.6,316.75,382.5,316.75
				z M389,316.75c-1.1,0-2-0.9-2-2s0.9-2,2-2c1.1,0,2,0.9,2,2S390.1,316.75,389,316.75z"/>
			<path class="st0" d="M412,322.21h-35c-0.28,0-0.5,0.22-0.5,0.5v16.54c0,2.21,1.79,4,4,4h28c2.21,0,4-1.79,4-4v-16.54
				C412.5,322.44,412.28,322.21,412,322.21z M389.39,337.05c0,0.36-0.4,0.57-0.69,0.37l-1.74-1.16c-0.15-0.1-0.35-0.1-0.5,0
				l-1.74,1.16c-0.3,0.2-0.69-0.01-0.69-0.37v-3.22c0.8,0.42,1.71,0.67,2.68,0.67s1.88-0.24,2.68-0.67V337.05z M386.72,332
				c-1.79,0-3.25-1.46-3.25-3.25s1.46-3.25,3.25-3.25s3.25,1.46,3.25,3.25S388.51,332,386.72,332z M401,334.75h-5
				c-0.69,0-1.25-0.56-1.25-1.25s0.56-1.25,1.25-1.25h5c0.69,0,1.25,0.56,1.25,1.25S401.69,334.75,401,334.75z M405,329.75h-9
				c-0.69,0-1.25-0.56-1.25-1.25s0.56-1.25,1.25-1.25h9c0.69,0,1.25,0.56,1.25,1.25S405.69,329.75,405,329.75z"/>
		</g>
	</g>
	<g>
		<g>
			<g>
				<path class="st0" d="M345.5,308.94h-3.95v4h1.95v18h-34v-18h1.95v-4h-3.95c-1.1,0-2,0.9-2,2v25c0,1.1,0.9,2,2,2h14.92l-0.75,4.5
					H318c-0.83,0-1.5,0.67-1.5,1.5s0.67,1.5,1.5,1.5h17c0.83,0,1.5-0.67,1.5-1.5s-0.67-1.5-1.5-1.5h-3.67l-0.75-4.5h14.92
					c1.1,0,2-0.9,2-2v-25C347.5,309.83,346.6,308.94,345.5,308.94z M326.5,336.44c-0.83,0-1.5-0.67-1.5-1.5s0.67-1.5,1.5-1.5
					c0.83,0,1.5,0.67,1.5,1.5S327.33,336.44,326.5,336.44z"/>
				<path class="st0" d="M322.82,307.56h-8.87v18.5h8.87c0.87,0,1.7,0.23,2.43,0.64V310c0,0,0,0,0,0c0,0,0,0,0,0
					C325.25,308.65,324.16,307.56,322.82,307.56z M330.18,307.56c-1.34,0-2.43,1.09-2.43,2.43c0,0,0,0,0,0c0,0,0,0,0,0v16.71
					c0.73-0.41,1.56-0.64,2.43-0.64h8.87v-18.5H330.18z"/>
			</g>
		</g>
	</g>
	<g>
		<g>
			<g>
				<path class="st0" d="M266.63,331.73c-0.24-1.01-0.23-2.11,0.15-3.26c0.51-1.55,1.69-2.82,3.16-3.53
					c1.27-0.61,2.48-0.71,3.59-0.52c0.3,0.05,0.56-0.19,0.56-0.5v-13.6c0-1.1-0.9-2-2-2h-27c-1.1,0-2,0.9-2,2v13.58
					c0,0.3,0.26,0.54,0.56,0.49c1.29-0.19,2.71,0.02,4.23,1.03c1.07,0.72,1.92,1.76,2.33,2.98c0.4,1.17,0.41,2.3,0.17,3.32
					c-0.07,0.31,0.17,0.6,0.49,0.6h1.3c0.23,0,0.43-0.16,0.48-0.39c0.64-2.64,3.02-4.6,5.86-4.6c2.83,0,5.21,1.97,5.86,4.6
					c0.06,0.23,0.25,0.39,0.48,0.39h1.3C266.45,332.33,266.7,332.04,266.63,331.73z M263.37,320.59l-6.05,3.7
					c-0.98,0.6-2.25-0.11-2.25-1.26v-7.4c0-1.15,1.26-1.86,2.25-1.26l6.05,3.7C264.31,318.64,264.31,320.01,263.37,320.59z
					 M244.5,334.4c2.23,0,4.04-1.81,4.04-4.04c0-2.23-1.81-4.04-4.04-4.04c-2.23,0-4.03,1.81-4.03,4.04
					C240.46,332.59,242.27,334.4,244.5,334.4z M268.46,330.36c0,2.23,1.81,4.04,4.03,4.04c2.23,0,4.04-1.81,4.04-4.04
					c0-2.23-1.81-4.04-4.04-4.04C270.27,326.33,268.46,328.14,268.46,330.36z M276.52,336.43h-8.04c-1.16,0-2.17,0.6-2.76,1.51
					c-0.15,0.23-0.1,0.52,0.11,0.69c0.84,0.68,1.47,1.6,1.77,2.67c0.06,0.22,0.25,0.38,0.48,0.38h10.72c0.55,0,1-0.45,1-1v-0.95
					C279.81,337.91,278.34,336.43,276.52,336.43z M248.52,336.43h-8.04c-1.82,0-3.29,1.47-3.29,3.29v0.95c0,0.55,0.45,1,1,1h10.72
					c0.23,0,0.42-0.16,0.48-0.38c0.3-1.07,0.93-1.99,1.77-2.67c0.21-0.17,0.26-0.46,0.11-0.69
					C250.69,337.04,249.68,336.43,248.52,336.43z"/>
				<path class="st0" d="M258.5,337.4c2.23,0,4.04-1.81,4.04-4.04c0-2.23-1.81-4.04-4.04-4.04c-2.23,0-4.03,1.81-4.03,4.04
					C254.46,335.59,256.27,337.4,258.5,337.4z M262.52,339.43h-8.04c-1.82,0-3.29,1.47-3.29,3.29v0.95c0,0.55,0.45,1,1,1h12.62
					c0.55,0,1-0.45,1-1v-0.95C265.81,340.91,264.34,339.43,262.52,339.43z"/>
			</g>
		</g>
	</g>
	<g>
		<g>
			<path class="st0" d="M196.79,339.31l8.44-5.9h-16.27L196.79,339.31z M193.39,315.09v-1.5c0-1.77-1.15-2.26-2.73-2.79
				c-0.74-0.25-1.28-0.94-1.27-1.72c0.02-1.37-1.08-2.48-2.45-2.48h-0.1c-1.32,0-2.5,1.05-2.45,2.38c0.03,0.83-0.49,1.57-1.26,1.83
				c-1.59,0.54-2.74,1.03-2.74,2.8v1.5c0,0.28,0.22,0.5,0.5,0.5h12.01C193.16,315.59,193.39,315.37,193.39,315.09z M197.48,341.88
				c-0.21,0.15-0.47,0.23-0.72,0.23c-0.26,0-0.53-0.08-0.75-0.25l-8.39-6.32v9.88c0,0.55,0.45,1,1,1h17c0.55,0,1-0.45,1-1v-9.92
				L197.48,341.88z"/>
			<path class="st0" d="M197.39,314.07h-1.09c-0.28,0-0.5,0.22-0.5,0.5v3c0,0.28-0.22,0.5-0.5,0.5h-16.92c-0.28,0-0.5-0.22-0.5-0.5
				v-3c0-0.28-0.22-0.5-0.5-0.5h-0.99c-1.1,0-2,0.9-2,2v26c0,1.1,0.9,2,2,2h8.73v-9.66c0-1.93,1.57-3.5,3.5-3.5h10.77v-14.84
				C199.39,314.97,198.49,314.07,197.39,314.07z M183.75,330.31h-2.88c-0.69,0-1.25-0.56-1.25-1.25c0-0.69,0.56-1.25,1.25-1.25h2.88
				c0.69,0,1.25,0.56,1.25,1.25C185,329.75,184.44,330.31,183.75,330.31z M192.87,325.31h-12c-0.69,0-1.25-0.56-1.25-1.25
				c0-0.69,0.56-1.25,1.25-1.25h12c0.69,0,1.25,0.56,1.25,1.25C194.12,324.75,193.56,325.31,192.87,325.31z"/>
		</g>
	</g>
	<g>
		<g>
			<path class="st0" d="M135.75,319.28c-0.14,0-0.27,0.02-0.41,0.04c-1.42-5.9-6.64-10.29-12.86-10.29
				c-6.22,0-11.44,4.39-12.86,10.29c-0.12-0.02-0.25-0.04-0.37-0.04c-1.38,0-2.5,1.12-2.5,2.5v3c0,1.38,1.12,2.5,2.5,2.5
				c0.3,0,0.59-0.06,0.86-0.16c0.74,1.85,2.53,3.16,4.64,3.16c0.55,0,1-0.45,1-1c0-0.55-0.45-1-1-1c-1.65,0-3-1.35-3-3v-3.17
				c0.22-5.87,4.94-10.58,10.73-10.58c5.93,0,10.75,4.93,10.75,10.99c0,0.02,0.01,0.05,0.01,0.07v2.19c0,1.38,1.12,2.5,2.5,2.5
				c1.38,0,2.5-1.12,2.5-2.5v-3C138.25,320.4,137.13,319.28,135.75,319.28z"/>
			<path class="st0" d="M130.69,333.27h-2.93c-0.65,0-1.27,0.32-1.64,0.85l-2.05,2.94c-0.8,1.15-2.51,1.14-3.29-0.02l-1.96-2.89
				c-0.37-0.55-0.99-0.88-1.65-0.88h-2.88c-3.71,0-6.72,3.01-6.72,6.72v2.98c0,0.55,0.45,1,1,1h27.86c0.55,0,1-0.45,1-1v-2.98
				C137.41,336.28,134.4,333.27,130.69,333.27z M122.48,330.77c4.55,0,8.24-3.69,8.24-8.24c0-4.55-3.69-8.24-8.24-8.24
				c-4.55,0-8.24,3.69-8.24,8.24C114.24,327.08,117.93,330.77,122.48,330.77z"/>
		</g>
	</g>
	<g>
		<g>
			<path class="st0" d="M54.5,310.38h-10c-0.28,0-0.5,0.22-0.5,0.5v13.25c0,0.58,0.48,1,1,1c0.17,0,0.34-0.04,0.51-0.14l3.58-2.11
				c0.16-0.09,0.33-0.14,0.51-0.14c0.18,0,0.36,0.05,0.52,0.15l3.36,2.06c0.17,0.1,0.35,0.15,0.52,0.15c0.52,0,1-0.42,1-1v-13.22
				C55,310.6,54.78,310.38,54.5,310.38z"/>
			<path class="st0" d="M61.5,325.45c0.69,0,1.25-0.56,1.25-1.25s-0.56-1.25-1.25-1.25h-2c-0.69,0-1.25,0.56-1.25,1.25
				s0.56,1.25,1.25,1.25H61.5z M45.5,330.45h16c0.69,0,1.25-0.56,1.25-1.25s-0.56-1.25-1.25-1.25h-16c-0.69,0-1.25,0.56-1.25,1.25
				S44.81,330.45,45.5,330.45z M45.5,335.45h16c0.69,0,1.25-0.56,1.25-1.25s-0.56-1.25-1.25-1.25h-16c-0.69,0-1.25,0.56-1.25,1.25
				S44.81,335.45,45.5,335.45z M71,310.63H57.97c0.01,0.08,0.03,0.16,0.03,0.25v3.75h7c0.55,0,1,0.45,1,1v22c0,0.55-0.45,1-1,1H42
				c-0.55,0-1-0.45-1-1v-26.75c0-0.09,0.02-0.17,0.03-0.25H38c-2.21,0-4,1.79-4,4v24c0,2.21,1.79,4,4,4h33c2.21,0,4-1.79,4-4v-24
				C75,312.42,73.21,310.63,71,310.63z M68.5,327.63v-2c0-1.1,0.9-2,2-2l0,0c1.1,0,2,0.9,2,2v2c0,1.1-0.9,2-2,2l0,0
				C69.4,329.63,68.5,328.73,68.5,327.63z"/>
		</g>
	</g>
	<g>
		<g>
			<path class="st0" d="M399.31,271.12h-9.61c-0.9,0-1.63,0.73-1.63,1.63v0.23c0,0.9,0.73,1.63,1.63,1.63h1.59V275
				c0,1.66,1.34,3,3,3h0.43c1.66,0,3-1.34,3-3v-0.39h1.59c0.9,0,1.63-0.73,1.63-1.63v-0.23
				C400.93,271.85,400.2,271.12,399.31,271.12z"/>
			<path class="st0" d="M393.01,239.08c-5.41,0.61-10.61,5.79-11.25,11.19c-0.48,4.08,0.96,7.83,3.52,10.47
				c1.49,1.53,2.31,3.59,2.31,5.72v0c0,1.09,0.88,1.97,1.97,1.97h9.87c1.09,0,1.97-0.88,1.97-1.97c0-2.11,0.78-4.17,2.26-5.67
				c2.26-2.31,3.66-5.47,3.66-8.96C407.33,244.25,400.76,238.21,393.01,239.08z M393.25,263.5c0,0.69-0.56,1.25-1.25,1.25
				c-0.69,0-1.25-0.56-1.25-1.25v-5.41c0-1.7-1.38-3.08-3.08-3.08c-0.69,0-1.25-0.56-1.25-1.25c0-0.69,0.56-1.25,1.25-1.25
				c3.08,0,5.58,2.5,5.58,5.58V263.5z M401.33,255.01c-1.7,0-3.08,1.38-3.08,3.08v5.41c0,0.69-0.56,1.25-1.25,1.25
				c-0.69,0-1.25-0.56-1.25-1.25v-5.41c0-3.08,2.5-5.58,5.58-5.58c0.69,0,1.25,0.56,1.25,1.25
				C402.58,254.45,402.02,255.01,401.33,255.01z"/>
		</g>
	</g>
	<g>
		<g>
			<path class="st0" d="M318.91,263.79c3.71,0,6.72-3.01,6.72-6.72c0-3.71-3.01-6.72-6.72-6.72c-3.71,0-6.72,3.01-6.72,6.72
				C312.19,260.78,315.2,263.79,318.91,263.79z M325.52,266.5h-13.05c-3.02,0-5.48,2.45-5.48,5.48V275c0,0.28,0.22,0.5,0.5,0.5h23
				c0.28,0,0.5-0.22,0.5-0.5v-3.02C331,268.95,328.55,266.5,325.52,266.5z"/>
			<path class="st0" d="M344,241.5h-13c-1.1,0-2,0.9-2,2v15.33c0,0.43-0.14,0.85-0.4,1.2l-1.4,1.87c-0.49,0.66-0.02,1.6,0.8,1.6h16
				c1.1,0,2-0.9,2-2v-18C346,242.4,345.1,241.5,344,241.5z M337.5,259.25H334c-0.69,0-1.25-0.56-1.25-1.25
				c0-0.69,0.56-1.25,1.25-1.25h3.5c0.69,0,1.25,0.56,1.25,1.25C338.75,258.69,338.19,259.25,337.5,259.25z M341,254.25h-7
				c-0.69,0-1.25-0.56-1.25-1.25c0-0.69,0.56-1.25,1.25-1.25h7c0.69,0,1.25,0.56,1.25,1.25C342.25,253.69,341.69,254.25,341,254.25z
				 M341,249.25h-7c-0.69,0-1.25-0.56-1.25-1.25c0-0.69,0.56-1.25,1.25-1.25h7c0.69,0,1.25,0.56,1.25,1.25
				C342.25,248.69,341.69,249.25,341,249.25z"/>
		</g>
	</g>
	<g>
		<g>
			<path class="st0" d="M252.5,255h-4c-0.55,0-1,0.45-1,1v5c0,0.55,0.45,1,1,1h4c0.55,0,1-0.45,1-1v-5
				C253.5,255.45,253.05,255,252.5,255z"/>
			<path class="st0" d="M272.5,242h-28c-2.21,0-4,1.79-4,4v25c0,2.21,1.79,4,4,4h28c2.21,0,4-1.79,4-4v-25
				C276.5,243.79,274.71,242,272.5,242z M252.5,245.5h4c0.83,0,1.5,0.67,1.5,1.5s-0.67,1.5-1.5,1.5h-4c-0.83,0-1.5-0.67-1.5-1.5
				S251.67,245.5,252.5,245.5z M246.5,245c1.1,0,2,0.9,2,2s-0.9,2-2,2c-1.1,0-2-0.9-2-2S245.4,245,246.5,245z M272.5,270
				c0,0.55-0.45,1-1,1h-26c-0.55,0-1-0.45-1-1v-17c0-0.55,0.45-1,1-1h26c0.55,0,1,0.45,1,1V270z M268,255.25h-10
				c-0.69,0-1.25,0.56-1.25,1.25s0.56,1.25,1.25,1.25h10c0.69,0,1.25-0.56,1.25-1.25S268.69,255.25,268,255.25z M268,260.25h-10
				c-0.69,0-1.25,0.56-1.25,1.25s0.56,1.25,1.25,1.25h10c0.69,0,1.25-0.56,1.25-1.25S268.69,260.25,268,260.25z M268,265.25h-19
				c-0.69,0-1.25,0.56-1.25,1.25s0.56,1.25,1.25,1.25h19c0.69,0,1.25-0.56,1.25-1.25S268.69,265.25,268,265.25z"/>
		</g>
	</g>
	<g>
		<g>
			<path class="st0" d="M190.5,239H189v39h1.5c10.75,0,19.5-8.8,19.5-19.61C210,247.7,201.25,239,190.5,239z M205.16,250.89h-4.95
				c-0.65-2.92-1.66-5.45-2.94-7.43C200.66,244.99,203.46,247.61,205.16,250.89z M192,242.38c2.09,1.01,4.06,4.06,5.14,8.51H192
				V242.38z M192,253.89h5.7c0.19,1.41,0.3,2.91,0.3,4.5c0,1.59-0.11,3.09-0.3,4.5H192V253.89z M192,274.6v-8.71h5.14
				C196.05,270.39,194.06,273.54,192,274.6z M197.24,273.53c1.31-2.02,2.34-4.64,2.98-7.64h4.99
				C203.51,269.27,200.68,271.97,197.24,273.53z M200.72,262.89c0.18-1.44,0.28-2.94,0.28-4.5c0-1.56-0.1-3.06-0.28-4.5h5.65
				c0.41,1.43,0.64,2.94,0.64,4.5c0,1.56-0.22,3.07-0.62,4.5H200.72z"/>
			<path class="st0" d="M172.75,255.02c0.13,0.04,0.27,0.06,0.4,0.06c0.66,0,1.26-0.44,1.44-1.1c0.17-0.62,0.39-1.24,0.63-1.84
				c0.32-0.77-0.05-1.64-0.82-1.96c-0.76-0.32-1.64,0.05-1.96,0.82c-0.29,0.71-0.54,1.44-0.75,2.18
				C171.48,253.98,171.95,254.8,172.75,255.02z M176.57,248.53c0.43,0,0.86-0.19,1.16-0.55c0.41-0.5,0.86-0.98,1.33-1.42
				c0.6-0.57,0.62-1.52,0.05-2.12c-0.57-0.6-1.52-0.62-2.12-0.05c-0.55,0.53-1.08,1.09-1.57,1.69c-0.53,0.64-0.44,1.58,0.2,2.11
				C175.89,248.42,176.23,248.53,176.57,248.53z M183.71,263.75l-9.04,2.94c-0.82,0.27-0.94,1.37-0.2,1.81l2.21,1.31l-5.14,5.14
				c-0.39,0.39-0.39,1.02,0,1.41l0.76,0.77c0.39,0.39,1.02,0.39,1.41,0l5.19-5.19l1.28,2.22c0.43,0.75,1.54,0.64,1.82-0.18
				l2.97-8.97C185.23,264.24,184.49,263.5,183.71,263.75z M172.55,261.34c0.04,0,0.08,0,0.12,0c0.83-0.07,1.44-0.79,1.38-1.61
				c-0.02-0.3-0.04-0.61-0.05-0.91c-0.02-0.83-0.71-1.49-1.54-1.46c-0.83,0.02-1.48,0.71-1.46,1.53c0.01,0.36,0.03,0.72,0.06,1.08
				C171.12,260.74,171.78,261.34,172.55,261.34z M185.71,241.07c-0.28-0.78-1.14-1.18-1.92-0.9c-0.72,0.26-1.43,0.57-2.11,0.91
				c-0.74,0.37-1.04,1.27-0.67,2.01c0.26,0.52,0.79,0.83,1.34,0.83c0.23,0,0.46-0.05,0.67-0.16c0.58-0.29,1.18-0.55,1.79-0.77
				C185.59,242.71,185.99,241.85,185.71,241.07z"/>
		</g>
	</g>
	<g>
		<g>
			<path class="st0" d="M135,241.66h-4c-1.1,0-2,0.9-2,2c0,1.1-0.9,2-2,2c-1.1,0-2-0.9-2-2c0-1.1-0.9-2-2-2h-5c-1.1,0-2,0.9-2,2
				c0,1.1-0.9,2-2,2c-1.1,0-2-0.9-2-2c0-1.1-0.9-2-2-2h-4c-1.1,0-2,0.9-2,2v25c0,1.1,0.9,2,2,2h15.16
				c-0.53-1.34-0.84-2.79-0.84-4.32c0-6.45,5.23-11.68,11.68-11.68c1.79,0,3.48,0.42,5,1.14v-12.14
				C137,242.56,136.1,241.66,135,241.66z M110,265.84c-1.1,0-2-0.9-2-2c0-1.1,0.9-2,2-2c1.1,0,2,0.9,2,2
				C112,264.94,111.1,265.84,110,265.84z M110,259.84c-1.1,0-2-0.9-2-2c0-1.1,0.9-2,2-2c1.1,0,2,0.9,2,2
				C112,258.94,111.1,259.84,110,259.84z M116,265.84c-1.1,0-2-0.9-2-2c0-1.1,0.9-2,2-2c1.1,0,2,0.9,2,2
				C118,264.94,117.1,265.84,116,265.84z M116,259.84c-1.1,0-2-0.9-2-2c0-1.1,0.9-2,2-2c1.1,0,2,0.9,2,2
				C118,258.94,117.1,259.84,116,259.84z M116,253.84c-1.1,0-2-0.9-2-2c0-1.1,0.9-2,2-2c1.1,0,2,0.9,2,2
				C118,252.94,117.1,253.84,116,253.84z M122,253.84c-1.1,0-2-0.9-2-2c0-1.1,0.9-2,2-2c1.1,0,2,0.9,2,2
				C124,252.94,123.1,253.84,122,253.84z"/>
			<path class="st0" d="M132,257.34c-4.97,0-9,4.03-9,9c0,4.97,4.03,9,9,9c4.97,0,9-4.03,9-9C141,261.37,136.97,257.34,132,257.34z
				 M133.25,266.84c0,0.69-0.56,1.25-1.25,1.25h-5c-0.69,0-1.25-0.56-1.25-1.25s0.56-1.25,1.25-1.25h3.75v-4.75
				c0-0.69,0.56-1.25,1.25-1.25c0.69,0,1.25,0.56,1.25,1.25V266.84z"/>
		</g>
	</g>
	<g>
		<g>
			<path class="st0" d="M71,250.75H38c-2.21,0-4,1.79-4,4v13c0,2.21,1.79,4,4,4h33c2.21,0,4-1.79,4-4v-13
				C75,252.54,73.21,250.75,71,250.75z M53.5,254.75h2c0.83,0,1.5,0.67,1.5,1.5c0,0.83-0.67,1.5-1.5,1.5h-2
				c-0.83,0-1.5-0.67-1.5-1.5C52,255.42,52.67,254.75,53.5,254.75z M53.5,259.75h2c0.83,0,1.5,0.67,1.5,1.5s-0.67,1.5-1.5,1.5h-2
				c-0.83,0-1.5-0.67-1.5-1.5S52.67,259.75,53.5,259.75z M46.5,254.75h2c0.83,0,1.5,0.67,1.5,1.5c0,0.83-0.67,1.5-1.5,1.5h-2
				c-0.83,0-1.5-0.67-1.5-1.5C45,255.42,45.67,254.75,46.5,254.75z M46.5,259.75h2c0.83,0,1.5,0.67,1.5,1.5s-0.67,1.5-1.5,1.5h-2
				c-0.83,0-1.5-0.67-1.5-1.5S45.67,259.75,46.5,259.75z M41.5,267.75h-2c-0.83,0-1.5-0.67-1.5-1.5s0.67-1.5,1.5-1.5h2
				c0.83,0,1.5,0.67,1.5,1.5S42.33,267.75,41.5,267.75z M41.5,262.75h-2c-0.83,0-1.5-0.67-1.5-1.5s0.67-1.5,1.5-1.5h2
				c0.83,0,1.5,0.67,1.5,1.5S42.33,262.75,41.5,262.75z M41.5,257.75h-2c-0.83,0-1.5-0.67-1.5-1.5c0-0.83,0.67-1.5,1.5-1.5h2
				c0.83,0,1.5,0.67,1.5,1.5C43,257.08,42.33,257.75,41.5,257.75z M62.5,267.75h-16c-0.83,0-1.5-0.67-1.5-1.5s0.67-1.5,1.5-1.5h16
				c0.83,0,1.5,0.67,1.5,1.5S63.33,267.75,62.5,267.75z M62.5,262.75h-2c-0.83,0-1.5-0.67-1.5-1.5s0.67-1.5,1.5-1.5h2
				c0.83,0,1.5,0.67,1.5,1.5S63.33,262.75,62.5,262.75z M62.5,257.75h-2c-0.83,0-1.5-0.67-1.5-1.5c0-0.83,0.67-1.5,1.5-1.5h2
				c0.83,0,1.5,0.67,1.5,1.5C64,257.08,63.33,257.75,62.5,257.75z M69.5,267.75h-2c-0.83,0-1.5-0.67-1.5-1.5s0.67-1.5,1.5-1.5h2
				c0.83,0,1.5,0.67,1.5,1.5S70.33,267.75,69.5,267.75z M69.5,262.75h-2c-0.83,0-1.5-0.67-1.5-1.5s0.67-1.5,1.5-1.5h2
				c0.83,0,1.5,0.67,1.5,1.5S70.33,262.75,69.5,262.75z M69.5,257.75h-2c-0.83,0-1.5-0.67-1.5-1.5c0-0.83,0.67-1.5,1.5-1.5h2
				c0.83,0,1.5,0.67,1.5,1.5C71,257.08,70.33,257.75,69.5,257.75z"/>
			<path class="st0" d="M68.5,245.25h-28c-0.83,0-1.5,0.67-1.5,1.5s0.67,1.5,1.5,1.5h28c0.83,0,1.5-0.67,1.5-1.5
				S69.33,245.25,68.5,245.25z"/>
		</g>
	</g>
	<g>
		<g>
			<g>
				<path class="st0" d="M407.25,188.9c0-0.69-0.56-1.25-1.25-1.25h-21c-0.69,0-1.25,0.56-1.25,1.25s0.56,1.25,1.25,1.25h21
					C406.69,190.15,407.25,189.59,407.25,188.9z M385,192.65c-0.69,0-1.25,0.56-1.25,1.25s0.56,1.25,1.25,1.25h8.7
					c0.69,0,1.25-0.56,1.25-1.25s-0.56-1.25-1.25-1.25H385z M399,185.15c0.69,0,1.25-0.56,1.25-1.25s-0.56-1.25-1.25-1.25h-8
					c-0.69,0-1.25,0.56-1.25,1.25s0.56,1.25,1.25,1.25H399z M411.5,174.6h-34c-1.1,0-2,0.9-2,2v25c0,1.1,0.9,2,2,2h19v-4h-14
					c0-1.66-1.34-3-3-3v-15c1.66,0,3-1.34,3-3h24c0,1.66,1.34,3,3,3v15c-1.66,0-3,1.34-3,3h0v4h5c1.1,0,2-0.9,2-2v-25
					C413.5,175.49,412.6,174.6,411.5,174.6z"/>
				<path class="st0" d="M399,201.74v4.22c0,0.26,0.22,0.45,0.45,0.45c0.09,0,0.18-0.03,0.26-0.08l1.54-1.1
					c0.08-0.06,0.17-0.08,0.26-0.08c0.09,0,0.18,0.03,0.26,0.08l1.54,1.1c0.08,0.06,0.17,0.08,0.26,0.08c0.23,0,0.45-0.18,0.45-0.45
					v-4.22c-0.76,0.35-1.61,0.55-2.5,0.55C400.6,202.29,399.76,202.09,399,201.74z M401.5,199.79c1.93,0,3.5-1.57,3.5-3.5
					s-1.57-3.5-3.5-3.5c-1.93,0-3.5,1.57-3.5,3.5S399.56,199.79,401.5,199.79z"/>
			</g>
		</g>
	</g>
	<g>
		<g>
			<path class="st0" d="M316.5,187.28h7c0.69,0,1.25-0.56,1.25-1.25c0-0.69-0.56-1.25-1.25-1.25h-7c-0.69,0-1.25,0.56-1.25,1.25
				C315.25,186.72,315.81,187.28,316.5,187.28z M315.25,191.03c0,0.69,0.56,1.25,1.25,1.25h21c0.69,0,1.25-0.56,1.25-1.25
				c0-0.69-0.56-1.25-1.25-1.25h-21C315.81,189.78,315.25,190.34,315.25,191.03z M347.68,199.66h0.02l-2.2-0.75v-22.37
				c0-1.1-0.9-2-2-2h-2.04c0.02,0.15,0.04,0.29,0.04,0.44v10.22c0,0.01,0,0.03,0,0.04v12.3h-30v-19h14v-3.56
				c0-0.15,0.02-0.3,0.04-0.44H309.5c-1.1,0-2,0.9-2,2v22.37l-2.2,0.75h0.02c-0.77,0.28-1.32,1.01-1.32,1.87v3c0,1.1,0.9,2,2,2h41
				c1.1,0,2-0.9,2-2v-3C349,200.67,348.45,199.93,347.68,199.66z M329,203.47h-5c-0.83,0-1.5-0.67-1.5-1.5c0-0.83,0.67-1.5,1.5-1.5
				h5c0.83,0,1.5,0.67,1.5,1.5C330.5,202.8,329.83,203.47,329,203.47z"/>
			<path class="st0" d="M338.5,174.47h-10c-0.28,0-0.5,0.22-0.5,0.5v10.25c0,0.58,0.48,1,1,1c0.17,0,0.34-0.04,0.51-0.14l3.58-2.11
				c0.16-0.09,0.33-0.14,0.51-0.14c0.18,0,0.36,0.05,0.52,0.15l3.36,2.06c0.17,0.1,0.35,0.15,0.52,0.15c0.52,0,1-0.42,1-1v-10.22
				C339,174.7,338.78,174.47,338.5,174.47z"/>
		</g>
	</g>
	<g>
		<g>
			<path class="st0" d="M255.59,189.52h-7.13v12.88h7.13c0.63,0,1.24,0.15,1.79,0.41v-11.49c0,0,0,0,0,0c0,0,0,0,0,0
				C257.38,190.33,256.58,189.52,255.59,189.52z M261.68,189.52c-0.99,0-1.8,0.81-1.8,1.8c0,0,0,0,0,0c0,0,0,0,0,0v11.49
				c0.55-0.26,1.16-0.41,1.8-0.41h7.13v-12.88H261.68z"/>
			<path class="st0" d="M245.96,189.03c0-1.11,0.9-2.01,2.01-2.01h7.61c1.19,0,2.27,0.49,3.04,1.27c0.78-0.78,1.86-1.27,3.05-1.27
				h7.61c1.11,0,2.01,0.9,2.01,2.01v6.43c3.79-2.25,6.33-6.38,6.33-11.11c0-7.15-5.79-12.94-12.94-12.94
				c-6.19,0-11.36,4.35-12.63,10.16c-1.25-0.73-2.7-1.15-4.25-1.15c-4.66,0-8.44,3.78-8.44,8.44c0,4.03,2.82,7.38,6.6,8.22V189.03z
				 M272.77,197.57c-0.83,0-1.5,0.67-1.5,1.5v5.67h-8.37c-1.55,0-3.03,0.48-4.26,1.36c-1.23-0.89-2.71-1.36-4.26-1.36H246v-3.46
				c0-0.83-0.67-1.5-1.5-1.5c-0.83,0-1.5,0.67-1.5,1.5v4.04c0,1.34,1.09,2.42,2.42,2.42h8.94c1.14,0,2.25,0.46,3.05,1.26l0.14,0.14
				c0.28,0.28,0.66,0.44,1.06,0.44c0.4,0,0.78-0.16,1.06-0.44l0.14-0.14c0.8-0.8,1.92-1.27,3.06-1.27h8.68c1.27,0,2.69-1,2.69-2.42
				v-6.24C274.27,198.24,273.59,197.57,272.77,197.57z"/>
		</g>
	</g>
	<g>
		<g>
			<g>
				<path class="st0" d="M193.77,180.24l-1.89-0.27l-0.85-1.71c-0.29-0.59-0.77-0.59-1.06,0l-0.85,1.71l-1.89,0.27
					c-0.65,0.1-0.8,0.55-0.33,1.01l1.37,1.33l-0.32,1.88c-0.11,0.65,0.27,0.93,0.86,0.62l1.69-0.89l1.69,0.89
					c0.58,0.31,0.97,0.03,0.86-0.62l-0.32-1.88l1.37-1.33C194.56,180.79,194.42,180.34,193.77,180.24z"/>
				<path class="st0" d="M205.78,174.72h-5.66v-2.76h-19.25v2.76h-5.66c-0.53,0-0.97,0.43-0.97,0.97v5.19
					c0,2.97,2.41,5.38,5.38,5.38h1.94c0.76,1.73,2.06,3.32,3.48,4.47l0.42,0.34c1.28,1.04,2.02,2.6,2.02,4.24v2.23h6v-2.55
					c0-1.45,0.65-2.82,1.78-3.73l0.67-0.54c1.42-1.15,2.72-2.74,3.48-4.47h1.94c2.97,0,5.38-2.41,5.38-5.38v-5.19
					C206.75,175.15,206.32,174.72,205.78,174.72z M179.63,183.75c-1.59,0-2.88-1.29-2.88-2.88v-3.66h4.13v5.97
					c0,0.19,0.03,0.38,0.05,0.57H179.63z M193.79,186.72c-5.78,3.12-11.62-2.71-8.5-8.5c0.44-0.81,1.11-1.49,1.93-1.92
					c5.78-3.12,11.61,2.72,8.5,8.5C195.28,185.61,194.6,186.29,193.79,186.72z M204.25,180.87c0,1.59-1.29,2.88-2.88,2.88h-1.3
					c0.02-0.19,0.05-0.38,0.05-0.57v-5.97h4.13V180.87z M200.5,206.04h-2v-3.22c0-1.54-1.25-2.78-2.78-2.78h-10.44
					c-1.54,0-2.78,1.25-2.78,2.78v3.22h-2v3h20V206.04z M194.94,203.04v2h-8.89v-2H194.94z"/>
			</g>
		</g>
	</g>
	<g>
		<g>
			<g>
				<g>
					<path class="st0" d="M120.61,206.75c-0.19-0.2-0.51-0.2-0.7,0c-0.33,0.32-0.79,0.79-1.02,1.01c-0.08,0.08-0.13,0.19-0.14,0.31
						l-0.25,3.24c-0.02,0.31,0.24,0.57,0.56,0.54l3.11-0.36c0.11-0.01,0.22-0.06,0.3-0.14l1.02-1.02c0.2-0.2,0.2-0.51,0-0.71
						L120.61,206.75z M134.03,199.06l-2.87-2.87c-0.2-0.2-0.51-0.2-0.71,0l-8.04,8.04c-0.2,0.2-0.2,0.51,0,0.71l2.87,2.87
						c0.2,0.2,0.51,0.2,0.71,0l8.04-8.04C134.22,199.58,134.22,199.26,134.03,199.06z M131.87,178.64c0-1.1-0.9-2-2-2h-1.09
						c-0.28,0-0.5,0.22-0.5,0.5v3c0,0.28-0.22,0.5-0.5,0.5h-16.92c-0.28,0-0.5-0.22-0.5-0.5v-3c0-0.28-0.22-0.5-0.5-0.5h-0.99
						c-1.1,0-2,0.9-2,2v26c0,1.1,0.9,2,2,2h7.77c0.13-0.23,0.28-0.45,0.47-0.64c0.36-0.36,1.37-1.37,1.37-1.37l13.39-13.39V178.64z
						 M120.37,193.01h-7c-0.69,0-1.25-0.56-1.25-1.25s0.56-1.25,1.25-1.25h7c0.69,0,1.25,0.56,1.25,1.25
						S121.06,193.01,120.37,193.01z M125.37,188.01h-12c-0.69,0-1.25-0.56-1.25-1.25s0.56-1.25,1.25-1.25h12
						c0.69,0,1.25,0.56,1.25,1.25S126.06,188.01,125.37,188.01z"/>
					<path class="st0" d="M123.14,173.36c-0.74-0.25-1.28-0.94-1.27-1.72c0.02-1.37-1.08-2.48-2.45-2.48h-0.1
						c-1.32,0-2.5,1.05-2.45,2.38c0.03,0.83-0.49,1.57-1.26,1.83c-1.59,0.54-2.74,1.03-2.74,2.8v1.5c0,0.28,0.22,0.5,0.5,0.5h12.01
						c0.28,0,0.5-0.22,0.5-0.5v-1.5C125.87,174.39,124.73,173.9,123.14,173.36z M137.98,195.11l-2.87-2.87c-0.2-0.2-0.51-0.2-0.71,0
						l-1.51,1.51c-0.2,0.2-0.2,0.51,0,0.71l2.87,2.87c0.2,0.2,0.51,0.2,0.71,0l1.51-1.51C138.18,195.62,138.18,195.31,137.98,195.11
						z"/>
				</g>
			</g>
		</g>
	</g>
	<g>
		<g>
			<path class="st0" d="M53.5,206h-2c-0.74,0-1.38,0.4-1.72,1H41.5c-1.65,0-3-1.35-3-3c0-0.55-0.45-1-1-1c-0.55,0-1,0.45-1,1
				c0,2.76,2.24,5,5,5h8.28c0.35,0.6,0.98,1,1.72,1h2c1.1,0,2-0.9,2-2C55.5,206.9,54.6,206,53.5,206z"/>
			<path class="st0" d="M70.5,194.56h-0.29v-8.36c0-8.39-6.82-15.21-15.21-15.21c-8.38,0-15.21,6.82-15.21,15.21v8.36H39.5
				c-1.1,0-2,0.9-2,2v3c0,1.1,0.9,2,2,2h1v1c0,1.1,0.9,2,2,2h4c1.1,0,2-0.9,2-2v-9c0-1.1-0.9-2-2-2h-2.71v-5.36
				c0-6.18,5.03-11.21,11.21-11.21c6.18,0,11.21,5.03,11.21,11.21v5.36H63.5c-1.1,0-2,0.9-2,2v9c0,1.1,0.9,2,2,2h4c1.1,0,2-0.9,2-2
				v-1h1c1.1,0,2-0.9,2-2v-3C72.5,195.46,71.6,194.56,70.5,194.56z"/>
		</g>
	</g>
	<g>
		<g>
			<path class="st0" d="M388.89,117.5c-1.6,0-2.89,1.3-2.89,2.89c0,1.6,1.29,2.89,2.89,2.89c1.53,0,2.76-1.19,2.87-2.68
				c0-0.03-0.01-0.07-0.01-0.1v-0.42C391.59,118.63,390.38,117.5,388.89,117.5z M386.22,125.74c-1.21,0-2.19,1.06-2.19,2.36v0.68
				c0,0.4,0.3,0.72,0.67,0.72h8.39c0.37,0,0.67-0.32,0.67-0.72v-0.68c0-1.3-0.98-2.36-2.19-2.36H386.22z M399.08,122l-1.73,1.3
				c-0.19,0.14-0.39,0.26-0.6,0.35v7.85c0,0.55-0.45,1-1,1h-14c-0.55,0-1-0.45-1-1v-21c0-0.55,0.45-1,1-1h10v-3
				c0-1.16,0.45-2.2,1.17-3h-12.17c-2.21,0-4,1.79-4,4v30c0,2.21,1.79,4,4,4h16c2.21,0,4-1.79,4-4V122H399.08z M389.89,139h-2
				c-1.1,0-2-0.9-2-2l0,0c0-1.1,0.9-2,2-2h2c1.1,0,2,0.9,2,2l0,0C391.89,138.1,390.99,139,389.89,139z"/>
			<path class="st0" d="M410.25,104.5h-14c-1.1,0-2,0.9-2,2v14c0,0.59,0.49,1,1,1c0.2,0,0.41-0.06,0.6-0.2l1.87-1.4
				c0.35-0.26,0.77-0.4,1.2-0.4h11.33c1.1,0,2-0.9,2-2v-11C412.25,105.4,411.35,104.5,410.25,104.5z M406.86,112.35l-4.09,2.51
				c-0.67,0.41-1.52-0.07-1.52-0.85v-5.01c0-0.78,0.86-1.26,1.52-0.85l4.09,2.51C407.5,111.04,407.5,111.96,406.86,112.35z"/>
		</g>
	</g>
	<g>
		<g>
			<g>
				<path class="st0" d="M341.5,119.44c0-8.28-6.72-15-15-15c-8.28,0-15,6.72-15,15c0,7.65,5.74,13.96,13.14,14.87
					c-0.24,1.03-0.97,1.86-1.94,2.25h-3.21c-1.1,0-2,0.9-2,2c0,1.1,0.9,2,2,2h14c1.1,0,2-0.9,2-2c0-1.1-0.9-2-2-2h-3.2
					c-0.96-0.39-1.69-1.22-1.94-2.25C335.76,133.39,341.5,127.09,341.5,119.44z M326.5,106.71c0.75,0,1.36,0.61,1.36,1.36
					c0,0.75-0.61,1.36-1.36,1.36c-0.75,0-1.36-0.61-1.36-1.36C325.14,107.32,325.75,106.71,326.5,106.71z M326.5,127.89
					c-4.66,0-8.45-3.79-8.45-8.45c0-4.66,3.79-8.45,8.45-8.45c4.66,0,8.45,3.79,8.45,8.45C334.95,124.1,331.16,127.89,326.5,127.89z
					"/>
				<path class="st0" d="M326.5,113.98c-3.01,0-5.45,2.44-5.45,5.45c0,3.01,2.44,5.45,5.45,5.45c3.01,0,5.45-2.44,5.45-5.45
					C331.95,116.42,329.51,113.98,326.5,113.98z"/>
			</g>
		</g>
	</g>
	<g>
		<g>
			<path class="st0" d="M265.39,109.11h-1.09c-0.28,0-0.5,0.22-0.5,0.5v3c0,0.28-0.22,0.5-0.5,0.5h-16.92c-0.28,0-0.5-0.22-0.5-0.5
				v-3c0-0.28-0.22-0.5-0.5-0.5h-0.99c-1.1,0-2,0.9-2,2v26c0,1.1,0.9,2,2,2h10.75c-0.66-1.45-1.03-3.05-1.03-4.73
				c0-6.34,5.16-11.5,11.5-11.5c0.61,0,1.2,0.06,1.78,0.15v-11.92C267.39,110,266.49,109.11,265.39,109.11z M253.63,125.48h-4.74
				c-0.69,0-1.25-0.56-1.25-1.25s0.56-1.25,1.25-1.25h4.74c0.69,0,1.25,0.56,1.25,1.25S254.32,125.48,253.63,125.48z M260.89,120.48
				h-12c-0.69,0-1.25-0.56-1.25-1.25s0.56-1.25,1.25-1.25h12c0.69,0,1.25,0.56,1.25,1.25S261.58,120.48,260.89,120.48z"/>
			<path class="st0" d="M261.39,110.13v-1.5c0-1.77-1.15-2.26-2.73-2.79c-0.74-0.25-1.28-0.94-1.27-1.72
				c0.02-1.37-1.08-2.48-2.45-2.48h-0.1c-1.32,0-2.5,1.05-2.45,2.38c0.03,0.83-0.49,1.57-1.26,1.83c-1.59,0.54-2.74,1.03-2.74,2.8
				v1.5c0,0.28,0.22,0.5,0.5,0.5h12.01C261.16,110.63,261.39,110.4,261.39,110.13z M265.61,125.37c-4.97,0-9,4.03-9,9s4.03,9,9,9
				s9-4.03,9-9S270.58,125.37,265.61,125.37z M266.86,134.87c0,0.69-0.56,1.25-1.25,1.25h-5c-0.69,0-1.25-0.56-1.25-1.25
				c0-0.69,0.56-1.25,1.25-1.25h3.75v-4.75c0-0.69,0.56-1.25,1.25-1.25s1.25,0.56,1.25,1.25V134.87z"/>
		</g>
	</g>
	<g>
		<g>
			<g>
				<path class="st0" d="M177.58,135.5H174c-0.83,0-1.5,0.67-1.5,1.5s0.67,1.5,1.5,1.5h3.58c0.81,0,1.42-0.67,1.42-1.48v-0.03
					C179,136.17,178.39,135.5,177.58,135.5z M206,105h-31c-1.66,0-3,1.34-3,3v20c0,1.66,1.34,3,3,3h31c1.66,0,3-1.34,3-3v-20
					C209,106.34,207.66,105,206,105z M190.5,111c2,0,3.62,1.62,3.62,3.62c0,2-1.62,3.62-3.62,3.62c-2,0-3.62-1.62-3.62-3.62
					C186.88,112.62,188.5,111,190.5,111z M196.58,125.1c0,0.49-0.37,0.9-0.83,0.9h-10.49c-0.46,0-0.83-0.4-0.83-0.9v-0.85
					c0-1.63,1.22-2.95,2.74-2.95h6.68c1.51,0,2.74,1.32,2.74,2.95V125.1z M207,135.5h-14.58c-0.81,0-1.42,0.67-1.42,1.48v0.03
					c0,0.81,0.61,1.48,1.42,1.48H207c0.83,0,1.5-0.67,1.5-1.5S207.83,135.5,207,135.5z"/>
				<circle class="st0" cx="185" cy="137" r="3"/>
			</g>
		</g>
	</g>
	<g>
		<g>
			<path class="st0" d="M136.5,103.25h-28c-1.1,0-2,0.9-2,2v20c0,1.1,0.9,2,2,2h28c1.1,0,2-0.9,2-2v-20
				C138.5,104.15,137.6,103.25,136.5,103.25z M113,122c-1.38,0-2.5-1.12-2.5-2.5s1.12-2.5,2.5-2.5c1.38,0,2.5,1.12,2.5,2.5
				S114.38,122,113,122z M113,114c-1.38,0-2.5-1.12-2.5-2.5s1.12-2.5,2.5-2.5c1.38,0,2.5,1.12,2.5,2.5S114.38,114,113,114z
				 M129,121.75h-8c-0.69,0-1.25-0.56-1.25-1.25s0.56-1.25,1.25-1.25h8c0.69,0,1.25,0.56,1.25,1.25S129.69,121.75,129,121.75z
				 M133,116.75h-12c-0.69,0-1.25-0.56-1.25-1.25s0.56-1.25,1.25-1.25h12c0.69,0,1.25,0.56,1.25,1.25S133.69,116.75,133,116.75z
				 M133,111.75h-12c-0.69,0-1.25-0.56-1.25-1.25s0.56-1.25,1.25-1.25h12c0.69,0,1.25,0.56,1.25,1.25S133.69,111.75,133,111.75z"/>
			<path class="st0" d="M120.17,127.23l-0.02,0.02h0.04L120.17,127.23z M130.27,138.69l-6.27-6.27v-1.34c0-0.83-0.67-1.5-1.5-1.5
				c-0.83,0-1.5,0.67-1.5,1.5v1.34l-6.27,6.27c-0.59,0.59-0.59,1.54,0,2.12c0.29,0.29,0.68,0.44,1.06,0.44
				c0.38,0,0.77-0.15,1.06-0.44l4.15-4.15v3.59c0,0.83,0.67,1.5,1.5,1.5c0.83,0,1.5-0.67,1.5-1.5v-3.59l4.15,4.15
				c0.29,0.29,0.68,0.44,1.06,0.44c0.38,0,0.77-0.15,1.06-0.44C130.86,140.23,130.86,139.27,130.27,138.69z"/>
		</g>
	</g>
	<g>
		<g>
			<path class="st0" d="M75.68,131.89h0.02l-2.2-0.75v-7.44c-0.17,0.02-0.33,0.05-0.5,0.05h-3.5v6.02h-30v-19h15v-2.52
				c0-0.52,0.11-1.02,0.27-1.48H37.5c-1.1,0-2,0.9-2,2v22.37l-2.2,0.75h0.02c-0.77,0.28-1.32,1.01-1.32,1.87v3c0,1.1,0.9,2,2,2h41
				c1.1,0,2-0.9,2-2v-3C77,132.9,76.45,132.17,75.68,131.89z M57,135.7h-5c-0.83,0-1.5-0.67-1.5-1.5s0.67-1.5,1.5-1.5h5
				c0.83,0,1.5,0.67,1.5,1.5S57.83,135.7,57,135.7z M46.81,120.73c2.14,0.97,4.22-0.57,4.22-2.6c0-1.6-1.3-2.89-2.89-2.89
				c-2.03,0-3.56,2.08-2.59,4.22C45.8,120.02,46.25,120.48,46.81,120.73z M43.28,125.84v0.68c0,0.4,0.3,0.72,0.67,0.72h8.39
				c0.37,0,0.67-0.32,0.67-0.72v-0.68c0-1.3-0.98-2.36-2.19-2.36h-5.35C44.26,123.49,43.28,124.54,43.28,125.84z"/>
			<path class="st0" d="M73,106.24H59c-1.1,0-2,0.9-2,2v14c0,0.59,0.49,1,1,1c0.2,0,0.41-0.06,0.6-0.2l1.87-1.4
				c0.35-0.26,0.77-0.4,1.2-0.4H73c1.1,0,2-0.9,2-2v-11C75,107.14,74.1,106.24,73,106.24z M69.61,114.09l-4.09,2.51
				c-0.67,0.41-1.52-0.07-1.52-0.85v-5.01c0-0.78,0.86-1.26,1.52-0.85l4.09,2.51C70.25,112.78,70.25,113.7,69.61,114.09z"/>
		</g>
	</g>
</g>
<g id="title">
</g>
</svg>
