<?xml version="1.0" encoding="utf-8"?>
<!-- Generator: Adobe Illustrator 24.1.1, SVG Export Plug-In . SVG Version: 6.00 Build 0)  -->
<svg version="1.1" xmlns="http://www.w3.org/2000/svg" x="0px" y="0px"
     viewBox="0 0 448 448" style="enable-background:new 0 0 448 448;" xml:space="preserve">
<style type="text/css">
	.st0{fill:#173042;}
</style>
<g id="grid">
</g>
<g id="icons">
	<g>
		<g>
			<path class="st0" d="M399.5,384.5c-0.83,0-1.5,0.67-1.5,1.5v4c0,0.83,0.67,1.5,1.5,1.5s1.5-0.67,1.5-1.5v-4
				C401,385.17,400.33,384.5,399.5,384.5z"/>
			<path class="st0" d="M404,375.5h-19c-2.21,0-4,1.79-4,4v30c0,2.21,1.79,4,4,4h19c2.21,0,4-1.79,4-4v-30
				C408,377.29,406.21,375.5,404,375.5z M388.5,409.5h-2c-0.83,0-1.5-0.67-1.5-1.5s0.67-1.5,1.5-1.5h2c0.83,0,1.5,0.67,1.5,1.5
				S389.33,409.5,388.5,409.5z M388.5,404.5h-2c-0.83,0-1.5-0.67-1.5-1.5s0.67-1.5,1.5-1.5h2c0.83,0,1.5,0.67,1.5,1.5
				S389.33,404.5,388.5,404.5z M388.5,399.5h-2c-0.83,0-1.5-0.67-1.5-1.5s0.67-1.5,1.5-1.5h2c0.83,0,1.5,0.67,1.5,1.5
				S389.33,399.5,388.5,399.5z M395.5,409.5h-2c-0.83,0-1.5-0.67-1.5-1.5s0.67-1.5,1.5-1.5h2c0.83,0,1.5,0.67,1.5,1.5
				S396.33,409.5,395.5,409.5z M395.5,404.5h-2c-0.83,0-1.5-0.67-1.5-1.5s0.67-1.5,1.5-1.5h2c0.83,0,1.5,0.67,1.5,1.5
				S396.33,404.5,395.5,404.5z M395.5,399.5h-2c-0.83,0-1.5-0.67-1.5-1.5s0.67-1.5,1.5-1.5h2c0.83,0,1.5,0.67,1.5,1.5
				S396.33,399.5,395.5,399.5z M404,408c0,0.83-0.67,1.5-1.5,1.5h-2c-0.83,0-1.5-0.67-1.5-1.5v-5c0-0.83,0.67-1.5,1.5-1.5h2
				c0.83,0,1.5,0.67,1.5,1.5V408z M402.5,399.5h-2c-0.83,0-1.5-0.67-1.5-1.5s0.67-1.5,1.5-1.5h2c0.83,0,1.5,0.67,1.5,1.5
				S403.33,399.5,402.5,399.5z M404,392c0,0.55-0.45,1-1,1h-17c-0.55,0-1-0.45-1-1v-9c0-0.55,0.45-1,1-1h17c0.55,0,1,0.45,1,1V392z"
				/>
		</g>
	</g>
	<g>
		<g>
			<path class="st0" d="M339,377.66h-4c-1.1,0-2,0.9-2,2c0,1.1-0.9,2-2,2s-2-0.9-2-2c0-1.1-0.9-2-2-2h-5c-1.1,0-2,0.9-2,2
				c0,1.1-0.9,2-2,2s-2-0.9-2-2c0-1.1-0.9-2-2-2h-4c-1.1,0-2,0.9-2,2v25c0,1.1,0.9,2,2,2h15.16c-0.53-1.34-0.84-2.79-0.84-4.32
				c0-6.45,5.23-11.68,11.68-11.68c1.79,0,3.48,0.42,5,1.14v-12.14C341,378.56,340.1,377.66,339,377.66z M314,401.84
				c-1.1,0-2-0.9-2-2c0-1.1,0.9-2,2-2s2,0.9,2,2C316,400.94,315.1,401.84,314,401.84z M314,395.84c-1.1,0-2-0.9-2-2c0-1.1,0.9-2,2-2
				s2,0.9,2,2C316,394.94,315.1,395.84,314,395.84z M320,401.84c-1.1,0-2-0.9-2-2c0-1.1,0.9-2,2-2s2,0.9,2,2
				C322,400.94,321.1,401.84,320,401.84z M320,395.84c-1.1,0-2-0.9-2-2c0-1.1,0.9-2,2-2s2,0.9,2,2
				C322,394.94,321.1,395.84,320,395.84z M320,389.84c-1.1,0-2-0.9-2-2c0-1.1,0.9-2,2-2s2,0.9,2,2
				C322,388.94,321.1,389.84,320,389.84z M326,389.84c-1.1,0-2-0.9-2-2c0-1.1,0.9-2,2-2s2,0.9,2,2
				C328,388.94,327.1,389.84,326,389.84z"/>
			<path class="st0" d="M336,393.34c-4.97,0-9,4.03-9,9c0,4.97,4.03,9,9,9c4.97,0,9-4.03,9-9C345,397.37,340.97,393.34,336,393.34z
				 M337.25,402.84c0,0.69-0.56,1.25-1.25,1.25h-5c-0.69,0-1.25-0.56-1.25-1.25s0.56-1.25,1.25-1.25h3.75v-4.75
				c0-0.69,0.56-1.25,1.25-1.25s1.25,0.56,1.25,1.25V402.84z"/>
		</g>
	</g>
	<g>
		<g>
			<path class="st0" d="M272,384.55h-27c-0.55,0-1,0.45-1,1v4c0,0.55,0.45,1,1,1h3.09l1.73,19H247c-0.55,0-1,0.45-1,1v2
				c0,0.55,0.45,1,1,1h23c0.55,0,1-0.45,1-1v-2c0-0.55-0.45-1-1-1h-2.82l1.73-19H272c0.55,0,1-0.45,1-1v-4
				C273,385,272.55,384.55,272,384.55z M262.5,402.17c0,0.27-0.11,0.52-0.29,0.71l-1.38,1.38c-0.19,0.19-0.44,0.29-0.71,0.29h-3.23
				c-0.27,0-0.52-0.11-0.71-0.29l-1.38-1.38c-0.19-0.19-0.29-0.44-0.29-0.71v-7.23c0-0.27,0.11-0.52,0.29-0.71l1.38-1.38
				c0.19-0.19,0.44-0.29,0.71-0.29h3.23c0.27,0,0.52,0.11,0.71,0.29l1.38,1.38c0.19,0.19,0.29,0.44,0.29,0.71V402.17z"/>
			<path class="st0" d="M260.74,376.44c-0.49-0.99-1.9-1.29-3.13-0.67c-0.95,0.48-1.52,1.36-1.51,2.19l-2.21,1.47
				c-0.56,0.37-0.89,0.99-0.89,1.66v0.63c0,0.55,0.45,1,1,1s1-0.45,1-1v-0.63l2.33-1.55c0.61,0.2,1.37,0.16,2.07-0.2
				C260.63,378.73,261.23,377.42,260.74,376.44z"/>
		</g>
	</g>
	<g>
		<g>
			<path class="st0" d="M201.15,386.82h-1v3.5c0,0.83-0.67,1.5-1.5,1.5c-0.83,0-1.5-0.67-1.5-1.5v-4c0-0.83-0.67-1.5-1.5-1.5
				c-0.83,0-1.5,0.67-1.5,1.5v4c0,0.83-0.67,1.5-1.5,1.5c-0.83,0-1.5-0.67-1.5-1.5v-3.53c-0.42-0.04-0.83-0.14-1.2-0.36l-5.68-3.35
				c-1.62-0.96-3.71-0.07-4.15,1.76c-0.32,1.33-1.55,2.24-2.92,2.15l-4.11-0.28c-1.58-0.11-2.94,1.11-3,2.69l-0.26,9.37
				c-0.04,1.13,0.86,2.06,1.99,2.06h37.32c1.1,0,1.99-0.89,1.99-1.99v-2.01C211.15,391.29,206.67,386.82,201.15,386.82z"/>
			<path class="st0" d="M209.65,403.32h-38c-0.83,0-1.5,0.67-1.5,1.5c0,0.83,0.67,1.5,1.5,1.5h38c0.83,0,1.5-0.67,1.5-1.5
				C211.15,403.99,210.48,403.32,209.65,403.32z"/>
		</g>
	</g>
	<g>
		<g>
			<path class="st0" d="M126.65,375.06c-2.13-0.58-4.33,0.68-4.91,2.81c-0.58,2.13,0.68,4.33,2.81,4.91
				c2.13,0.58,4.33-0.68,4.91-2.81C130.03,377.84,128.78,375.64,126.65,375.06z"/>
			<path class="st0" d="M107.49,394.73c0.44-1.6-0.51-3.25-2.11-3.68c-1.6-0.44-3.25,0.51-3.68,2.11c-0.44,1.6,0.51,3.25,2.11,3.68
				C105.41,397.27,107.05,396.33,107.49,394.73z M118.47,412.62c3.92,1.98,8.73,2.02,12.82-0.33c4.09-2.34,6.49-6.49,6.78-10.87
				c-2.64,2.11-5.84,4.27-9.36,6.28C125.18,409.74,121.66,411.41,118.47,412.62z M143.02,388.77c-1.49-2.56-6.37-1.76-11.57,0.12
				c-4.05-2.38-9.22-2.6-13.59-0.1c-4.31,2.46-6.73,6.94-6.8,11.57c-3.23,2.6-5.68,5.23-6.25,7.33c-0.31,1.15-0.04,1.98,0.24,2.46
				c0.67,1.15,2.03,1.62,3.79,1.62c4.99,0,13.23-3.78,18.44-6.7c7.18-4.03,14.91-9.88,15.99-13.84
				C143.58,390.08,143.31,389.26,143.02,388.77z M107.66,408.64c0-0.73,1.28-2.47,3.82-4.72c0.3,1.14,0.73,2.27,1.35,3.35
				c0.14,0.24,0.29,0.47,0.44,0.7C110.25,408.85,108.25,409.01,107.66,408.64z M120.63,393.64c-2.32,1.33-3.81,3.71-3.99,6.38
				c-0.04,0.66-0.59,1.17-1.25,1.17c-0.03,0-0.06,0-0.09,0c-0.69-0.05-1.21-0.64-1.16-1.33c0.24-3.51,2.2-6.64,5.24-8.38
				c0.6-0.34,1.36-0.13,1.71,0.46C121.43,392.53,121.23,393.3,120.63,393.64z M136.82,394.8c-0.15-0.33-0.31-0.66-0.49-0.98
				c-0.58-1.01-1.28-1.91-2.06-2.71c3.32-1.03,5.51-1.22,6.14-0.83C140.41,390.99,139.21,392.65,136.82,394.8z"/>
		</g>
	</g>
	<g>
		<g>
			<g>
				<path class="st0" d="M73.5,376.94h-3.95v4h1.95v18h-34v-18h1.95v-4H35.5c-1.1,0-2,0.9-2,2v25c0,1.1,0.9,2,2,2h14.92l-0.75,4.5
					H46c-0.83,0-1.5,0.67-1.5,1.5s0.67,1.5,1.5,1.5h17c0.83,0,1.5-0.67,1.5-1.5s-0.67-1.5-1.5-1.5h-3.67l-0.75-4.5H73.5
					c1.1,0,2-0.9,2-2v-25C75.5,377.83,74.6,376.94,73.5,376.94z M54.5,404.44c-0.83,0-1.5-0.67-1.5-1.5s0.67-1.5,1.5-1.5
					c0.83,0,1.5,0.67,1.5,1.5S55.33,404.44,54.5,404.44z"/>
				<path class="st0" d="M50.82,375.56h-8.87v18.5h8.87c0.87,0,1.7,0.23,2.43,0.64V378c0,0,0,0,0,0c0,0,0,0,0,0
					C53.25,376.65,52.16,375.56,50.82,375.56z M58.18,375.56c-1.34,0-2.43,1.09-2.43,2.43c0,0,0,0,0,0c0,0,0,0,0,0v16.71
					c0.73-0.41,1.56-0.64,2.43-0.64h8.87v-18.5H58.18z"/>
			</g>
		</g>
	</g>
	<g>
		<g>
			<g>
				<path class="st0" d="M391.25,342.54V343c0,1.66,1.34,3,3,3h0.5c1.66,0,3-1.34,3-3v-0.46H391.25z"/>
				<path class="st0" d="M407.3,333.27c-1.98-2.76-3.05-6.07-3.05-9.47v-2.92c0-4.67-3.17-8.8-7.58-9.83V309c0-1.1-0.9-2-2-2h-0.33
					c-1.1,0-2,0.9-2,2v2.04c-4.34,0.99-7.58,4.86-7.58,9.5v3.25c0,3.4-1.07,6.71-3.05,9.47c-0.13,0.18-0.2,0.4-0.2,0.62v5.08
					c0,0.6,0.49,1.08,1.08,1.08h23.83c0.6,0,1.08-0.48,1.08-1.08v-5.08C407.5,333.66,407.43,333.45,407.3,333.27z"/>
			</g>
		</g>
	</g>
	<g>
		<g>
			<g>
				<path class="st0" d="M342.68,325.28c-2.75-1.77-5.54-4.05-8.02-6.53c-2.6-2.59-4.97-5.52-6.78-8.4
					c-0.12-0.19-0.34-0.28-0.55-0.22c-3.43,0.97-7.13,2.92-10.7,6.49c-3.71,3.71-5.66,7.55-6.6,11.1c-0.05,0.21,0.03,0.42,0.21,0.54
					c2.68,1.75,5.39,3.98,7.8,6.39c2.53,2.53,4.85,5.37,6.63,8.18c0.12,0.18,0.33,0.27,0.54,0.22c3.57-0.92,7.46-2.88,11.21-6.63
					c3.54-3.54,5.48-7.19,6.46-10.59C342.95,325.62,342.86,325.4,342.68,325.28z M325.09,332.2c-0.29,0.29-0.68,0.44-1.06,0.44
					c-0.38,0-0.77-0.15-1.06-0.44l-2.12-2.12c-0.59-0.59-0.59-1.54,0-2.12c0.59-0.59,1.54-0.59,2.12,0l2.12,2.12
					C325.68,330.67,325.68,331.62,325.09,332.2z M328.63,328.67c-0.29,0.29-0.68,0.44-1.06,0.44c-0.38,0-0.77-0.15-1.06-0.44
					l-2.12-2.12c-0.59-0.59-0.59-1.54,0-2.12c0.59-0.59,1.54-0.59,2.12,0l2.12,2.12C329.21,327.13,329.21,328.08,328.63,328.67z
					 M332.16,325.13c-0.29,0.29-0.68,0.44-1.06,0.44c-0.38,0-0.77-0.15-1.06-0.44l-2.12-2.12c-0.59-0.59-0.59-1.54,0-2.12
					c0.59-0.59,1.54-0.59,2.12,0l2.12,2.12C332.75,323.59,332.75,324.54,332.16,325.13z"/>
				<path class="st0" d="M316.25,336.4c-2.05-2.05-4.14-3.79-6.12-5.2c-0.31-0.22-0.75-0.01-0.79,0.37
					c-0.41,5.01,0.96,8.91,1.44,10.1c0.1,0.25,0.29,0.44,0.54,0.54c1.19,0.48,5.04,1.83,10,1.45c0.38-0.03,0.59-0.47,0.37-0.78
					C320.25,340.79,318.43,338.58,316.25,336.4z M342.22,311.32c-0.1-0.25-0.29-0.44-0.54-0.54c-1.23-0.5-5.34-1.93-10.57-1.4
					c-0.37,0.04-0.58,0.47-0.37,0.78c1.48,2.19,3.37,4.51,5.66,6.8c2.16,2.16,4.35,3.97,6.42,5.41c0.31,0.21,0.74,0.01,0.78-0.36
					C344.17,316.72,342.72,312.56,342.22,311.32z"/>
			</g>
		</g>
	</g>
	<g>
		<g>
			<g>
				<path class="st0" d="M244.5,334.4c2.23,0,4.04-1.81,4.04-4.04c0-2.23-1.81-4.04-4.04-4.04c-2.23,0-4.03,1.81-4.03,4.04
					C240.46,332.59,242.27,334.4,244.5,334.4z M268.46,330.36c0,2.23,1.81,4.04,4.03,4.04c2.23,0,4.04-1.81,4.04-4.04
					c0-2.23-1.81-4.04-4.04-4.04C270.27,326.33,268.46,328.14,268.46,330.36z M266.63,331.73c-0.24-1.01-0.23-2.11,0.15-3.26
					c0.51-1.55,1.69-2.82,3.16-3.53c1.27-0.61,2.48-0.71,3.59-0.52c0.3,0.05,0.56-0.19,0.56-0.49v-13.61c0-1.1-0.9-2-2-2h-27
					c-1.1,0-2,0.9-2,2v13.58c0,0.3,0.26,0.54,0.56,0.49c1.29-0.19,2.71,0.02,4.23,1.03c1.07,0.72,1.92,1.76,2.33,2.98
					c0.4,1.17,0.41,2.3,0.17,3.32c-0.07,0.31,0.17,0.6,0.49,0.6h1.16c0.37,0,0.56-0.16,0.62-0.39c0.64-2.64,3.02-4.6,5.86-4.6
					c2.83,0,5.21,1.97,5.86,4.6c0.06,0.23,0.25,0.39,0.48,0.39h1.3C266.45,332.33,266.7,332.04,266.63,331.73z M258,322.08h-7
					c-0.69,0-1.25-0.56-1.25-1.25s0.56-1.25,1.25-1.25h7c0.69,0,1.25,0.56,1.25,1.25S258.69,322.08,258,322.08z M251,317.08
					c-0.69,0-1.25-0.56-1.25-1.25s0.56-1.25,1.25-1.25h16c0.69,0,1.25,0.56,1.25,1.25s-0.56,1.25-1.25,1.25H251z M248.52,336.43
					h-8.04c-1.82,0-3.29,1.47-3.29,3.29v0.95c0,0.55,0.45,1,1,1h10.72c0.23,0,0.42-0.16,0.48-0.38c0.3-1.07,0.93-1.99,1.77-2.67
					c0.21-0.17,0.26-0.46,0.11-0.69C250.69,337.04,249.68,336.43,248.52,336.43z M276.52,336.43h-8.04c-1.16,0-2.17,0.6-2.76,1.51
					c-0.15,0.23-0.1,0.52,0.11,0.69c0.84,0.68,1.47,1.6,1.77,2.67c0.06,0.22,0.25,0.38,0.48,0.38h10.72c0.55,0,1-0.45,1-1v-0.95
					C279.81,337.91,278.34,336.43,276.52,336.43z"/>
				<path class="st0" d="M258.5,337.4c2.23,0,4.04-1.81,4.04-4.04c0-2.23-1.81-4.04-4.04-4.04c-2.23,0-4.03,1.81-4.03,4.04
					C254.46,335.59,256.27,337.4,258.5,337.4z M262.52,339.43h-8.04c-1.82,0-3.29,1.47-3.29,3.29v0.95c0,0.55,0.45,1,1,1h12.62
					c0.55,0,1-0.45,1-1v-0.95C265.81,340.91,264.34,339.43,262.52,339.43z"/>
			</g>
		</g>
	</g>
	<g>
		<g>
			<g>
				<path class="st0" d="M193.77,316.24l-1.89-0.27l-0.85-1.71c-0.29-0.59-0.77-0.59-1.06,0l-0.85,1.71l-1.89,0.27
					c-0.65,0.1-0.8,0.55-0.33,1.01l1.37,1.33l-0.32,1.88c-0.11,0.65,0.27,0.93,0.86,0.62l1.69-0.89l1.69,0.89
					c0.58,0.31,0.97,0.03,0.86-0.62l-0.32-1.88l1.37-1.33C194.56,316.79,194.42,316.34,193.77,316.24z"/>
				<path class="st0" d="M205.78,310.72h-5.66v-2.76h-19.25v2.76h-5.66c-0.53,0-0.97,0.43-0.97,0.97v5.19
					c0,2.97,2.41,5.38,5.38,5.38h1.94c0.76,1.73,2.06,3.32,3.48,4.47l0.42,0.34c1.28,1.04,2.02,2.6,2.02,4.24v2.23h6v-2.55
					c0-1.45,0.65-2.82,1.78-3.73l0.67-0.54c1.42-1.15,2.72-2.74,3.48-4.47h1.94c2.97,0,5.38-2.41,5.38-5.38v-5.19
					C206.75,311.15,206.32,310.72,205.78,310.72z M179.63,319.75c-1.59,0-2.88-1.29-2.88-2.88v-3.66h4.13v5.97
					c0,0.19,0.03,0.38,0.05,0.57H179.63z M193.79,322.72c-5.78,3.12-11.62-2.71-8.5-8.5c0.44-0.81,1.11-1.49,1.93-1.92
					c5.78-3.12,11.61,2.72,8.5,8.5C195.28,321.61,194.6,322.29,193.79,322.72z M204.25,316.87c0,1.59-1.29,2.88-2.88,2.88h-1.3
					c0.02-0.19,0.05-0.38,0.05-0.57v-5.97h4.13V316.87z M200.5,342.04h-2v-3.22c0-1.54-1.25-2.78-2.78-2.78h-10.44
					c-1.54,0-2.78,1.25-2.78,2.78v3.22h-2v3h20V342.04z M194.94,339.04v2h-8.89v-2H194.94z"/>
			</g>
		</g>
	</g>
	<g>
		<g>
			<path class="st0" d="M126.5,309.3c-1.52,0-2.75,1.23-2.75,2.75v16c0,0.69-0.56,1.25-1.25,1.25c-0.69,0-1.25-0.56-1.25-1.25v-16
				c0-1.52-1.23-2.75-2.75-2.75h-12.25v26.5h10.92c1.96,0,3.82,0.64,5.33,1.83c1.5-1.19,3.37-1.83,5.33-1.83h10.92v-26.5H126.5z
				 M114,326.8h-4c-0.69,0-1.25-0.56-1.25-1.25s0.56-1.25,1.25-1.25h4c0.69,0,1.25,0.56,1.25,1.25S114.69,326.8,114,326.8z
				 M117,321.8h-7c-0.69,0-1.25-0.56-1.25-1.25s0.56-1.25,1.25-1.25h7c0.69,0,1.25,0.56,1.25,1.25S117.69,321.8,117,321.8z
				 M117,316.8h-7c-0.69,0-1.25-0.56-1.25-1.25s0.56-1.25,1.25-1.25h7c0.69,0,1.25,0.56,1.25,1.25S117.69,316.8,117,316.8z"/>
			<path class="st0" d="M142.5,312.05c-0.83,0-1.5,0.67-1.5,1.5v24.5h-12.41c-2.24,0-4.36,0.74-6.09,2.12
				c-1.73-1.37-3.85-2.12-6.09-2.12H104v-24.5c0-0.83-0.67-1.5-1.5-1.5c-0.83,0-1.5,0.67-1.5,1.5v24.68c0,1.56,1.27,2.82,2.82,2.82
				h12.59c1.81,0,3.52,0.7,4.8,1.97l0.23,0.23c0.29,0.29,0.67,0.44,1.06,0.44c0.38,0,0.76-0.14,1.06-0.44l0.23-0.23
				c1.28-1.27,2.99-1.98,4.8-1.98h12.59c1.56,0,2.82-1.27,2.82-2.82v-24.68C144,312.73,143.33,312.05,142.5,312.05z"/>
		</g>
	</g>
	<g>
		<g>
			<path class="st0" d="M61,308.75H48c-0.83,0-1.5,0.67-1.5,1.5s0.67,1.5,1.5,1.5h13c0.83,0,1.5-0.67,1.5-1.5
				S61.83,308.75,61,308.75z"/>
			<path class="st0" d="M67.54,337.99l-6.83-9.97c-0.46-0.67-0.7-1.45-0.7-2.26v-11.01c0-0.28-0.22-0.5-0.5-0.5h-10
				c-0.28,0-0.5,0.22-0.5,0.5v11.01c0,0.81-0.24,1.6-0.7,2.26l-6.83,9.97c-1.82,2.65,0.08,6.26,3.3,6.26h19.47
				C67.45,344.25,69.36,340.64,67.54,337.99z M50.12,335.04l-3.1,4.42C46.78,339.81,46.39,340,46,340c-0.25,0-0.5-0.07-0.72-0.23
				c-0.57-0.4-0.7-1.18-0.31-1.74l3.1-4.42c0.4-0.56,1.17-0.7,1.74-0.31C50.38,333.7,50.52,334.48,50.12,335.04z M54.02,329.47
				l-0.88,1.25c-0.24,0.35-0.63,0.53-1.02,0.53c-0.25,0-0.5-0.07-0.72-0.23c-0.57-0.4-0.7-1.18-0.31-1.74l0.88-1.25
				c0.4-0.56,1.18-0.7,1.74-0.31C54.28,328.12,54.42,328.9,54.02,329.47z"/>
		</g>
	</g>
	<g>
		<g>
			<path class="st0" d="M404.97,253.65c0.01-0.1,0.03-0.2,0.03-0.3c0-0.57-0.17-1.1-0.45-1.55l1.12-1.12
				c0.47-0.47,0.67-1.13,0.55-1.78l-0.32-1.71c-0.12-0.65,0.08-1.32,0.55-1.78l0.92-0.92c0.78-0.78,0.78-2.05,0-2.83l-1.67-1.67
				c-0.78-0.78-2.05-0.78-2.83,0l-0.92,0.92c-0.47,0.47-1.13,0.67-1.78,0.55l-1.71-0.32c-0.65-0.12-1.32,0.08-1.78,0.55l-8.86,8.86
				c-0.78,0.78-0.78,2.05,0,2.83l6.17,6.17c0.78,0.78,2.05,0.78,2.83,0l3.63-3.63c0.45,0.28,0.98,0.45,1.55,0.45
				c0.42,0,0.82-0.09,1.18-0.24c1.14,1.29,1.82,2.94,1.82,4.74v1c0,4.14-3.62,7.5-8.06,7.5H382.5c-0.83,0-1.5,0.67-1.5,1.5
				c0,0.83,0.67,1.5,1.5,1.5h5.32c-1.12,1.17-1.82,2.75-1.82,4.5v0.27c0,0.28,0.22,0.5,0.5,0.5h15c0.28,0,0.5-0.22,0.5-0.5v-0.27
				c0-1.94-0.85-3.68-2.2-4.87c4.72-1.2,8.2-5.28,8.2-10.13v-1C408,258.06,406.84,255.53,404.97,253.65z"/>
			<path class="st0" d="M387.62,261.3c0.78,0.78,2.05,0.78,2.83,0l0.54-0.54c0.2-0.2,0.2-0.51,0-0.71l-3.91-3.91
				c-0.2-0.2-0.51-0.2-0.71,0l-0.54,0.54c-0.78,0.78-0.78,2.05,0,2.83L387.62,261.3z M397,264.34h-11c-0.83,0-1.5,0.67-1.5,1.5
				c0,0.83,0.67,1.5,1.5,1.5h11c0.83,0,1.5-0.67,1.5-1.5C398.5,265.02,397.83,264.34,397,264.34z"/>
		</g>
	</g>
	<g>
		<g>
			<g>
				<path class="st0" d="M339.25,256.9c0-0.69-0.56-1.25-1.25-1.25h-21c-0.69,0-1.25,0.56-1.25,1.25s0.56,1.25,1.25,1.25h21
					C338.69,258.15,339.25,257.59,339.25,256.9z M317,260.65c-0.69,0-1.25,0.56-1.25,1.25s0.56,1.25,1.25,1.25h8.7
					c0.69,0,1.25-0.56,1.25-1.25s-0.56-1.25-1.25-1.25H317z M331,253.15c0.69,0,1.25-0.56,1.25-1.25s-0.56-1.25-1.25-1.25h-8
					c-0.69,0-1.25,0.56-1.25,1.25s0.56,1.25,1.25,1.25H331z M343.5,242.6h-34c-1.1,0-2,0.9-2,2v25c0,1.1,0.9,2,2,2h19v-4h-14
					c0-1.66-1.34-3-3-3v-15c1.66,0,3-1.34,3-3h24c0,1.66,1.34,3,3,3v15c-1.66,0-3,1.34-3,3h0v4h5c1.1,0,2-0.9,2-2v-25
					C345.5,243.49,344.6,242.6,343.5,242.6z"/>
				<path class="st0" d="M331,269.74v4.22c0,0.26,0.22,0.45,0.45,0.45c0.09,0,0.18-0.03,0.26-0.08l1.54-1.1
					c0.08-0.06,0.17-0.08,0.26-0.08c0.09,0,0.18,0.03,0.26,0.08l1.54,1.1c0.08,0.06,0.17,0.08,0.26,0.08c0.23,0,0.45-0.18,0.45-0.45
					v-4.22c-0.76,0.35-1.61,0.55-2.5,0.55C332.6,270.29,331.76,270.09,331,269.74z M333.5,267.79c1.93,0,3.5-1.57,3.5-3.5
					c0-1.93-1.57-3.5-3.5-3.5c-1.93,0-3.5,1.57-3.5,3.5C330,266.22,331.56,267.79,333.5,267.79z"/>
			</g>
		</g>
	</g>
	<g>
		<g>
			<path class="st0" d="M240,247.25c-0.83,0-1.5,0.67-1.5,1.5v5c0,0.83,0.67,1.5,1.5,1.5s1.5-0.67,1.5-1.5v-5
				C241.5,247.92,240.83,247.25,240,247.25z M277,247.25c-0.83,0-1.5,0.67-1.5,1.5v5c0,0.83,0.67,1.5,1.5,1.5s1.5-0.67,1.5-1.5v-5
				C278.5,247.92,277.83,247.25,277,247.25z"/>
			<path class="st0" d="M274,256.74c-0.33-0.5-0.5-1.09-0.5-1.69v-12.3c0-2.21-1.79-4-4-4h-22c-2.21,0-4,1.79-4,4v12.18
				c0,0.54-0.14,1.06-0.4,1.53l-0.19,0.34c-0.26,0.47-0.4,0.99-0.4,1.53v12.42c0,0.55,0.45,1,1,1h2v4.5c0,1.1,0.9,2,2,2h2
				c1.1,0,2-0.9,2-2v-4.5h14v4.5c0,1.1,0.9,2,2,2h2c1.1,0,2-0.9,2-2v-4.5h2c0.55,0,1-0.45,1-1v-12.32
				C274.5,257.83,274.33,257.24,274,256.74z M269.45,247.69v8.06h-8.95v-9h8.01C269.03,246.75,269.45,247.17,269.45,247.69z
				 M256,241.25h5c0.83,0,1.5,0.67,1.5,1.5s-0.67,1.5-1.5,1.5h-5c-0.83,0-1.5-0.67-1.5-1.5S255.17,241.25,256,241.25z
				 M247.55,247.69c0-0.52,0.42-0.94,0.94-0.94h8.01v9h-8.95V247.69z M250,266.25c-1.38,0-2.5-1.12-2.5-2.5s1.12-2.5,2.5-2.5
				s2.5,1.12,2.5,2.5S251.38,266.25,250,266.25z M260.5,264.25h-4c-0.55,0-1-0.45-1-1s0.45-1,1-1h4c0.55,0,1,0.45,1,1
				S261.05,264.25,260.5,264.25z M267,266.25c-1.38,0-2.5-1.12-2.5-2.5s1.12-2.5,2.5-2.5s2.5,1.12,2.5,2.5S268.38,266.25,267,266.25
				z"/>
		</g>
	</g>
	<g>
		<g>
			<path class="st0" d="M176.25,244.5c-0.83,0-1.5,0.67-1.5,1.5v25c0,0.83,0.67,1.5,1.5,1.5c0.83,0,1.5-0.67,1.5-1.5v-25
				C177.75,245.17,177.08,244.5,176.25,244.5z"/>
			<path class="st0" d="M188.75,251.66l-0.66,1.46h1.32L188.75,251.66z M204.25,242.5h-22c-1.1,0-2,0.9-2,2v28c0,1.1,0.9,2,2,2h22
				c1.1,0,2-0.9,2-2v-28C206.25,243.4,205.35,242.5,204.25,242.5z M184.11,255.86l3.5-7.75c0.2-0.45,0.65-0.74,1.14-0.74
				c0.49,0,0.94,0.29,1.14,0.74l3.5,7.75c0.28,0.63,0,1.37-0.63,1.65c-0.17,0.08-0.34,0.11-0.51,0.11c-0.48,0-0.93-0.27-1.14-0.74
				l-0.57-1.26h-3.58l-0.57,1.26c-0.28,0.63-1.02,0.91-1.65,0.62C184.11,257.23,183.83,256.49,184.11,255.86z M196.25,269.63h-10
				c-0.69,0-1.25-0.56-1.25-1.25s0.56-1.25,1.25-1.25h10c0.69,0,1.25,0.56,1.25,1.25S196.94,269.63,196.25,269.63z M201.25,264.63
				h-15c-0.69,0-1.25-0.56-1.25-1.25s0.56-1.25,1.25-1.25h15c0.69,0,1.25,0.56,1.25,1.25S201.94,264.63,201.25,264.63z
				 M201.25,253.63h-1.75v1.75c0,0.69-0.56,1.25-1.25,1.25c-0.69,0-1.25-0.56-1.25-1.25v-1.75h-1.75c-0.69,0-1.25-0.56-1.25-1.25
				s0.56-1.25,1.25-1.25H197v-1.75c0-0.69,0.56-1.25,1.25-1.25c0.69,0,1.25,0.56,1.25,1.25v1.75h1.75c0.69,0,1.25,0.56,1.25,1.25
				S201.94,253.63,201.25,253.63z"/>
		</g>
	</g>
	<g>
		<g>
			<g>
				<g>
					<g>
						<path class="st0" d="M140.14,252.68c-1.5-0.15-2.76,1.02-2.76,2.49l0.02,5.99c-0.05,1.32-0.59,2.56-1.53,3.5l-2.47,2.47
							c-0.5,0.5-1.31,0.5-1.81,0c-0.5-0.5-0.5-1.31,0-1.81l2.54-2.54c0.85-0.85,1.02-2.25,0.25-3.18c-0.88-1.08-2.47-1.13-3.43-0.18
							l-5,5c-1.13,1.13-1.76,2.65-1.76,4.24v3.03c0,0.28,0.22,0.5,0.5,0.5l10.27-0.01c0.15,0,0.29-0.07,0.38-0.18l5.62-6.65
							c0.91-1.08,1.42-2.45,1.42-3.87v-6.16C142.38,254,141.44,252.81,140.14,252.68z M112.86,256.53c0.3,0.39,0.88,0.39,1.18,0
							l0.98-1.28c0.2-0.27,0.2-0.64,0-0.9l-0.51-0.67v-3.31l-2-1.15v4.32l-0.62,0.81c-0.2,0.27-0.2,0.64,0,0.9L112.86,256.53z
							 M114.05,259.41c-0.96-0.96-2.55-0.9-3.43,0.18c-0.77,0.94-0.6,2.33,0.25,3.18l2.54,2.54c0.5,0.5,0.5,1.31,0,1.81
							c-0.5,0.5-1.31,0.5-1.81,0l-2.47-2.47c-0.94-0.94-1.48-2.18-1.53-3.5l0.02-5.99c0-1.47-1.26-2.64-2.76-2.49
							c-1.3,0.13-2.24,1.32-2.24,2.63v6.16c0,1.42,0.5,2.79,1.42,3.87l5.62,6.65c0.09,0.11,0.23,0.18,0.38,0.18l10.27,0.01
							c0.28,0,0.5-0.22,0.5-0.5v-3.03c0-1.59-0.63-3.12-1.76-4.24L114.05,259.41z"/>
						<path class="st0" d="M112.71,246.47l9.73,5.59c0.16,0.09,0.34,0.14,0.52,0.14c0.18,0,0.36-0.05,0.52-0.14l9.73-5.59
							c0.7-0.4,0.7-1.41,0-1.81l-9.3-5.34c-0.29-0.17-0.62-0.25-0.95-0.25c-0.33,0-0.66,0.08-0.95,0.25l-9.3,5.34
							C112.01,245.06,112.01,246.06,112.71,246.47z M120.57,274.94H110.3c-0.28,0-0.5,0.22-0.5,0.5v2c0,0.28,0.22,0.5,0.5,0.5h10.27
							c0.28,0,0.5-0.22,0.5-0.5v-2C121.07,275.17,120.85,274.94,120.57,274.94z M129.95,254.1c0.63-0.36,1.01-1.03,1.01-1.75v-1.7
							l-6.23,3.58c-0.54,0.31-1.15,0.47-1.77,0.47c-0.62,0-1.23-0.16-1.77-0.47l-4.7-2.7v2.87l5.46,3.14c0.62,0.36,1.39,0.36,2.01,0
							L129.95,254.1z M134.7,274.94h-10.27c-0.28,0-0.5,0.22-0.5,0.5v2c0,0.28,0.22,0.5,0.5,0.5h10.27c0.28,0,0.5-0.22,0.5-0.5v-2
							C135.2,275.17,134.97,274.94,134.7,274.94z"/>
					</g>
				</g>
			</g>
		</g>
	</g>
	<g>
		<g>
			<path class="st0" d="M59.31,271.12h-9.61c-0.9,0-1.63,0.73-1.63,1.63v0.23c0,0.9,0.73,1.63,1.63,1.63h1.59V275c0,1.66,1.34,3,3,3
				h0.43c1.66,0,3-1.34,3-3v-0.39h1.59c0.9,0,1.63-0.73,1.63-1.63v-0.23C60.93,271.85,60.2,271.12,59.31,271.12z"/>
			<path class="st0" d="M53.01,239.08c-5.41,0.61-10.61,5.79-11.25,11.19c-0.48,4.08,0.96,7.83,3.52,10.47
				c1.49,1.53,2.31,3.59,2.31,5.72v0c0,1.09,0.88,1.97,1.97,1.97h9.87c1.09,0,1.97-0.88,1.97-1.97c0-2.11,0.78-4.17,2.26-5.67
				c2.26-2.31,3.66-5.47,3.66-8.96C67.33,244.25,60.76,238.21,53.01,239.08z M53.25,263.5c0,0.69-0.56,1.25-1.25,1.25
				c-0.69,0-1.25-0.56-1.25-1.25v-5.41c0-1.7-1.38-3.08-3.08-3.08c-0.69,0-1.25-0.56-1.25-1.25c0-0.69,0.56-1.25,1.25-1.25
				c3.08,0,5.58,2.5,5.58,5.58V263.5z M61.33,255.01c-1.7,0-3.08,1.38-3.08,3.08v5.41c0,0.69-0.56,1.25-1.25,1.25
				c-0.69,0-1.25-0.56-1.25-1.25v-5.41c0-3.08,2.5-5.58,5.58-5.58c0.69,0,1.25,0.56,1.25,1.25
				C62.58,254.45,62.02,255.01,61.33,255.01z"/>
		</g>
	</g>
	<g>
		<g>
			<path class="st0" d="M398.35,195.67l-2.23-0.32l-1-2.02c-0.34-0.7-0.9-0.7-1.25,0l-1,2.02l-2.23,0.32
				c-0.77,0.11-0.94,0.64-0.38,1.19l1.61,1.57l-0.38,2.22c-0.13,0.77,0.32,1.09,1.01,0.73l1.99-1.05l1.99,1.05
				c0.69,0.36,1.14,0.03,1.01-0.73l-0.38-2.22l1.61-1.57C399.29,196.32,399.12,195.79,398.35,195.67z M406.49,171.67h-8.72
				c-0.36,0-0.7,0.2-0.88,0.52l-5.93,10.77c1.13-0.29,2.31-0.46,3.53-0.46h0c2.45,0,4.76,0.62,6.79,1.69l6.08-11.05
				C407.73,172.48,407.25,171.67,406.49,171.67z"/>
			<path class="st0" d="M392.98,174.12l-0.88-1.59c-0.18-0.32-0.51-0.52-0.88-0.52h-8.72c-0.76,0-1.24,0.82-0.88,1.48l5.85,10.63
				L392.98,174.12z M394.5,185c-6.72,0-12.16,5.45-12.16,12.16c0,6.72,5.45,12.16,12.16,12.16c6.72,0,12.16-5.45,12.16-12.16
				C406.66,190.45,401.22,185.01,394.5,185z M394.5,204.33c-3.96,0-7.16-3.21-7.16-7.16c0-3.96,3.21-7.16,7.16-7.16
				c3.96,0,7.16,3.21,7.16,7.16C401.66,201.12,398.46,204.33,394.5,204.33z"/>
		</g>
	</g>
	<g>
		<g>
			<g>
				<g>
					<path class="st0" d="M310.15,192.79h-4.9v6.25c0,1.1,0.9,2,2,2h2.4c0.26,0,0.48-0.21,0.5-0.47c0.18-2.59,0.34-4.86,0.5-7.24
						C310.67,193.04,310.44,192.79,310.15,192.79z M310.62,186.04h-3.37c-1.1,0-2,0.9-2,2v2.25h5.14c0.26,0,0.48-0.2,0.5-0.46
						c0.07-1.02,0.15-2.1,0.23-3.25C311.14,186.29,310.91,186.04,310.62,186.04z M345.75,186.04h-3.37c-0.29,0-0.52,0.25-0.5,0.54
						c0.08,1.15,0.15,2.23,0.23,3.25c0.02,0.26,0.24,0.46,0.5,0.46h5.14v-2.25C347.75,186.94,346.85,186.04,345.75,186.04z
						 M342.35,193.33c0.17,2.38,0.32,4.65,0.5,7.24c0.02,0.26,0.24,0.47,0.5,0.47h2.4c1.1,0,2-0.9,2-2v-6.25h-4.9
						C342.56,192.79,342.33,193.04,342.35,193.33z"/>
					<path class="st0" d="M318.53,192.04h15.93c2.5,0,4.53-2.03,4.53-4.53v-8.47c0-1.1-0.9-2-2-2h-3.5v-0.5c0-3.86-3.14-7-7-7
						s-7,3.14-7,7v0.5H316c-1.1,0-2,0.9-2,2v8.47C314,190.01,316.03,192.04,318.53,192.04z M326.5,186.54c-1.38,0-2.5-1.12-2.5-2.5
						c0-1.38,1.12-2.5,2.5-2.5s2.5,1.12,2.5,2.5C329,185.42,327.88,186.54,326.5,186.54z M322.5,176.54c0-2.21,1.79-4,4-4
						s4,1.79,4,4v0.5h-8V176.54z M339.82,193.22c-0.03-0.41-0.51-0.61-0.83-0.34c-1.22,1.04-2.8,1.66-4.53,1.66h-15.93
						c-1.73,0-3.3-0.63-4.53-1.66c-0.32-0.27-0.8-0.07-0.83,0.34c-0.28,4.04-0.53,7.65-0.9,12.91c-0.16,2.29,1.67,4.51,3.98,4.73
						c8.17,0.79,12.3,0.79,20.47,0c2.32-0.22,4.14-2.44,3.98-4.73C340.35,200.87,340.1,197.27,339.82,193.22z M330.5,205.04h-8
						c-0.83,0-1.5-0.67-1.5-1.5c0-0.83,0.67-1.5,1.5-1.5h8c0.83,0,1.5,0.67,1.5,1.5C332,204.37,331.33,205.04,330.5,205.04z"/>
				</g>
			</g>
		</g>
	</g>
	<g>
		<g>
			<path class="st0" d="M268.51,181.61c-1.33-1.33-3.09-2.06-4.97-2.06c-1.88,0-3.64,0.73-4.97,2.06c-0.49,0.49-0.49,1.28,0,1.77
				c0.49,0.49,1.28,0.49,1.77,0c0.85-0.86,1.99-1.33,3.2-1.33c1.21,0,2.35,0.47,3.2,1.33c0.24,0.24,0.56,0.37,0.88,0.37
				c0.32,0,0.64-0.12,0.88-0.37C269,182.89,269,182.1,268.51,181.61z"/>
			<path class="st0" d="M272.2,177.16c-2.44-2.44-5.64-3.66-8.84-3.66c-3.2,0-6.4,1.22-8.84,3.66c-4.28,4.28-4.81,10.88-1.59,15.73
				l-2.3,2.3l-0.35-0.35c-0.2-0.2-0.51-0.2-0.71,0l-8.13,8.13c-0.39,0.39-0.39,1.02,0,1.41l2.83,2.83c0.39,0.39,1.02,0.39,1.41,0
				l8.13-8.13c0.2-0.2,0.2-0.51,0-0.71l-0.35-0.35l2.19-2.19c2.26,1.77,4.98,2.67,7.71,2.67c3.2,0,6.4-1.22,8.84-3.66
				C277.08,189.95,277.08,182.04,272.2,177.16z M269.37,192.01c-1.61,1.61-3.74,2.49-6.01,2.49c-2.27,0-4.4-0.88-6.01-2.49
				c-1.61-1.61-2.49-3.74-2.49-6.01c0-2.27,0.88-4.4,2.49-6.01c1.61-1.61,3.74-2.49,6.01-2.49c2.27,0,4.4,0.88,6.01,2.49
				c1.61,1.61,2.49,3.74,2.49,6.01C271.86,188.27,270.97,190.4,269.37,192.01z"/>
		</g>
	</g>
	<g>
		<g>
			<path class="st0" d="M211.68,199.63h0.02l-2.2-0.75V176.5c0-1.1-0.9-2-2-2h-34c-1.1,0-2,0.9-2,2v22.37l-2.2,0.75h0.02
				c-0.77,0.28-1.32,1.01-1.32,1.87v3c0,1.1,0.9,2,2,2h41c1.1,0,2-0.9,2-2v-3C213,200.64,212.45,199.91,211.68,199.63z M193,203.44
				h-5c-0.83,0-1.5-0.67-1.5-1.5s0.67-1.5,1.5-1.5h5c0.83,0,1.5,0.67,1.5,1.5S193.83,203.44,193,203.44z M205.5,197.5h-30v-19h30
				V197.5z"/>
			<path class="st0" d="M195.72,182.09l-9.04,2.94c-0.82,0.27-0.94,1.37-0.2,1.81l2.21,1.31l-5.14,5.14c-0.39,0.39-0.39,1.02,0,1.41
				l0.76,0.76c0.39,0.39,1.02,0.39,1.41,0l5.19-5.19l1.28,2.22c0.43,0.75,1.54,0.64,1.82-0.18l2.97-8.97
				C197.23,182.58,196.5,181.84,195.72,182.09z"/>
		</g>
	</g>
	<g>
		<g>
			<circle class="st0" cx="131" cy="188.25" r="5.5"/>
			<path class="st0" d="M137,202.25h-29c-0.83,0-1.5,0.67-1.5,1.5s0.67,1.5,1.5,1.5h29c0.83,0,1.5-0.67,1.5-1.5
				S137.83,202.25,137,202.25z M143.45,187.24c-0.51-6.42-5.9-11.49-12.45-11.49c-5.3,0-9.84,3.33-11.65,8H105.5c-2.21,0-4,1.79-4,4
				v8c0,2.21,1.79,4,4,4h34c2.21,0,4-1.79,4-4v-8C143.5,187.58,143.47,187.41,143.45,187.24z M107.5,193.25c0,0.83-0.67,1.5-1.5,1.5
				c-0.83,0-1.5-0.67-1.5-1.5v-3c0-0.83,0.67-1.5,1.5-1.5c0.83,0,1.5,0.67,1.5,1.5V193.25z M112.5,193.25c0,0.83-0.67,1.5-1.5,1.5
				c-0.83,0-1.5-0.67-1.5-1.5v-3c0-0.83,0.67-1.5,1.5-1.5c0.83,0,1.5,0.67,1.5,1.5V193.25z M117.5,193.25c0,0.83-0.67,1.5-1.5,1.5
				c-0.83,0-1.5-0.67-1.5-1.5v-3c0-0.83,0.67-1.5,1.5-1.5c0.83,0,1.5,0.67,1.5,1.5V193.25z M131,196.75c-4.69,0-8.5-3.81-8.5-8.5
				c0-4.69,3.81-8.5,8.5-8.5c4.69,0,8.5,3.81,8.5,8.5C139.5,192.94,135.69,196.75,131,196.75z"/>
		</g>
	</g>
	<g>
		<g>
			<path class="st0" d="M38.75,199.75v-6.54l-2-1.15v7.64c-0.91,0.37-1.56,1.27-1.56,2.31c0,1.38,1.12,2.5,2.5,2.5
				c1.38,0,2.5-1.12,2.5-2.5C40.19,201,39.6,200.14,38.75,199.75z"/>
			<path class="st0" d="M54.5,201.56c-0.78,0-1.55-0.21-2.23-0.59l-11.05-6.35v4.98c0.05,0.03,0.1,0.07,0.15,0.1l11.13,6.39
				c1.23,0.71,2.75,0.71,3.99,0l11.13-6.39c1.24-0.71,2.01-2.04,2.01-3.47v-2.68l-12.9,7.41C56.05,201.36,55.28,201.56,54.5,201.56z
				 M73.82,184.85l-17.33-9.95c-0.62-0.35-1.3-0.53-1.99-0.53c-0.69,0-1.38,0.18-1.99,0.53l-17.32,9.95c-1.32,0.76-1.32,2.66,0,3.42
				l18.34,10.53c0.3,0.17,0.64,0.26,0.98,0.26c0.34,0,0.68-0.09,0.98-0.26l18.34-10.53C75.14,187.51,75.14,185.61,73.82,184.85z"/>
		</g>
	</g>
	<g>
		<g>
			<path class="st0" d="M394.44,116.74c-0.55,0-1,0.45-1,1v5.59l-3.71,3.71c-0.39,0.39-0.39,1.02,0,1.41
				c0.2,0.2,0.45,0.29,0.71,0.29c0.26,0,0.51-0.1,0.71-0.29l4-4c0.19-0.19,0.29-0.44,0.29-0.71v-6
				C395.44,117.19,394.99,116.74,394.44,116.74z"/>
			<path class="st0" d="M386.67,105.93L386.67,105.93c-2.23-2.23-5.84-2.23-8.07,0l-0.75,0.75c-2.23,2.23-2.23,5.84,0,8.07
				c0.2,0.2,0.51,0.2,0.71,0l8.11-8.11C386.87,106.44,386.87,106.12,386.67,105.93z M396.44,108.89v-0.65c0-1.38-1.12-2.5-2.5-2.5
				c-1.38,0-2.5,1.12-2.5,2.5v0.8c-6.85,1.39-12,7.44-12,14.7c0,4.07,1.63,7.76,4.27,10.47l-1.65,3.3c-0.74,1.49,0.34,3.24,2,3.24
				c0.85,0,1.62-0.48,2-1.24l1.28-2.55c2.12,1.14,4.53,1.79,7.11,1.79c2.57,0,4.99-0.65,7.11-1.79l1.28,2.55
				c0.38,0.76,1.15,1.24,2,1.24c1.66,0,2.74-1.75,2-3.24l-1.65-3.3c2.64-2.7,4.27-6.39,4.27-10.47
				C409.44,116.14,403.77,109.87,396.44,108.89z M394.44,133.74c-5.51,0-10-4.49-10-10c0-5.51,4.49-10,10-10c5.51,0,10,4.49,10,10
				C404.44,129.26,399.95,133.74,394.44,133.74z M411.15,106.68l-0.75-0.75c-2.23-2.23-5.84-2.23-8.07,0v0c-0.2,0.2-0.2,0.51,0,0.71
				l8.11,8.11c0.2,0.2,0.51,0.2,0.71,0C413.37,112.52,413.37,108.9,411.15,106.68z"/>
		</g>
	</g>
	<g>
		<g>
			<path class="st0" d="M334.83,106.03c-5.88-5.88-15.35-6.02-21.42-0.45c-0.22,0.07-0.43,0.18-0.6,0.35
				c-0.17,0.17-0.28,0.38-0.35,0.6c-5.57,6.07-5.43,15.54,0.45,21.42c3.02,3.02,6.99,4.53,10.96,4.53c3.97,0,7.94-1.51,10.96-4.53
				C340.88,121.91,340.88,112.08,334.83,106.03z M323.87,104.5c1.48,0,2.95,0.27,4.35,0.79c-2.65,0.85-5.66,2.69-8.57,5.36
				l-3.49-3.49C318.42,105.39,321.14,104.5,323.87,104.5z M312.17,121.34c-1.48-3.99-0.85-8.58,1.87-12.06l3.49,3.49
				C314.86,115.69,313.02,118.69,312.17,121.34z M315.03,125.83c-1.21-1.21,0.07-5.93,4.62-10.93l3.7,3.7
				c0.29,0.29,0.68,0.44,1.06,0.44c0.38,0,0.77-0.15,1.06-0.44c0.59-0.59,0.59-1.54,0-2.12l-3.69-3.69
				c3.83-3.48,7.49-5.06,9.53-5.06c0.63,0,1.11,0.15,1.39,0.43c0.65,0.65,0.56,2.29-0.23,4.28c-0.99,2.49-2.92,5.24-5.43,7.74
				C321.66,125.57,316.33,127.13,315.03,125.83z M319.53,128.7c2.65-0.85,5.65-2.7,8.56-5.37l3.49,3.49
				C328.11,129.55,323.52,130.17,319.53,128.7z M333.7,124.7l-3.49-3.49c2.28-2.49,4.06-5.17,5.05-7.66c0.12-0.31,0.22-0.6,0.32-0.9
				C337.05,116.64,336.43,121.23,333.7,124.7z"/>
			<path class="st0" d="M338.69,102.92c-0.59-0.59-1.54-0.59-2.12,0c-0.59,0.59-0.59,1.54,0,2.12c3.26,3.26,5.05,7.59,5.05,12.2
				c0,4.61-1.79,8.94-5.05,12.2c-3.26,3.26-7.59,5.05-12.2,5.05c-4.61,0-8.94-1.79-12.2-5.05c-0.59-0.59-1.54-0.59-2.12,0
				c-0.59,0.59-0.59,1.54,0,2.12c3.46,3.46,7.88,5.41,12.41,5.83c-0.28,0.96-0.97,1.73-1.89,2.1h-1.21c-1.1,0-2,0.9-2,2
				c0,1.1,0.9,2,2,2h10c1.1,0,2-0.9,2-2c0-1.1-0.9-2-2-2h-1.21c-0.91-0.37-1.61-1.14-1.89-2.1c4.53-0.42,8.95-2.37,12.41-5.83
				C346.59,123.67,346.59,110.82,338.69,102.92z"/>
		</g>
	</g>
	<g>
		<g>
			<circle class="st0" cx="258.56" cy="122.5" r="3"/>
			<path class="st0" d="M272.14,122.41c0.34-0.37,0.66-0.75,0.96-1.12c2.7-3.36,3.49-6.42,2.22-8.61c-0.66-1.14-2.16-2.52-5.57-2.6
				c-0.85-0.03-1.52,0.64-1.54,1.46c-0.02,0.83,0.63,1.52,1.46,1.54c1.58,0.04,2.66,0.43,3.05,1.1c0.58,1-0.17,3.01-1.96,5.23
				c-0.24,0.3-0.5,0.6-0.77,0.89c-0.99-0.88-2.06-1.74-3.18-2.56c-0.77-7.45-3.57-14.74-8.25-14.74c-3.11,0-5.41,3.18-6.83,7.65
				c-0.51-0.11-1.01-0.21-1.49-0.28c-4.26-0.65-7.3,0.19-8.57,2.38c-0.69,1.2-1.13,3.3,0.74,6.49c0.42,0.71,1.34,0.96,2.05,0.54
				c0.71-0.42,0.96-1.34,0.54-2.05c-0.87-1.49-1.14-2.76-0.73-3.47c0.58-1,2.69-1.35,5.51-0.92c0.39,0.06,0.78,0.14,1.19,0.22
				c-0.27,1.28-0.49,2.63-0.64,4c-6.13,4.4-11.15,10.54-8.79,14.63c1.05,1.82,3.17,2.59,5.86,2.59c1.31,0,2.77-0.21,4.29-0.54
				c1.42,4.53,3.73,7.78,6.87,7.78c1.43,0,3.52-0.71,5.38-4.12c0.4-0.73,0.13-1.64-0.6-2.04c-0.73-0.4-1.64-0.13-2.04,0.6
				c-0.89,1.62-1.89,2.55-2.74,2.55c-1.26,0-2.83-2.02-3.97-5.57c1.26-0.41,2.54-0.91,3.82-1.48c3.8,1.72,7.88,2.88,11.17,2.88
				c2.67,0,4.82-0.76,5.87-2.58C277.02,129.53,275.36,125.9,272.14,122.41z M244.15,130.68c-0.88-1.53,1.17-5.25,5.93-9.15
				c-0.01,0.33-0.01,0.65-0.01,0.98c0,3,0.3,6.06,0.89,8.84C247.31,132.12,244.77,131.77,244.15,130.68z M258.56,106
				c1.75,0,3.92,3.58,4.93,9.54c-0.23-0.14-0.45-0.27-0.68-0.4c-2.74-1.58-5.53-2.84-8.18-3.7C255.77,107.98,257.32,106,258.56,106z
				 M253.84,130.54c-0.48-2.3-0.78-5-0.78-8.04c0-3.09,0.31-5.83,0.8-8.16c2.39,0.79,4.94,1.95,7.45,3.4
				c2.63,1.52,4.81,3.12,6.56,4.68c-1.89,1.68-4.17,3.32-6.69,4.77C258.55,128.71,256.07,129.8,253.84,130.54z M272.85,130.75
				c-0.88,1.53-5.14,1.61-10.9-0.56c0.24-0.14,0.49-0.26,0.74-0.4c2.76-1.59,5.25-3.4,7.33-5.27
				C272.52,127.28,273.48,129.66,272.85,130.75z"/>
		</g>
	</g>
	<g>
		<g>
			<path class="st0" d="M200.05,103.62h-19.11c-0.69,0-1.25,0.56-1.25,1.25c0,0.69,0.56,1.25,1.25,1.25h19.11
				c0.69,0,1.25-0.56,1.25-1.25C201.3,104.18,200.75,103.62,200.05,103.62z"/>
			<path class="st0" d="M206,108.37h-31c-1.1,0-2,0.9-2,2v21c0,1.1,0.9,2,2,2h5.34l-2.24,5.97c-0.29,0.78,0.1,1.64,0.88,1.93
				c0.17,0.07,0.35,0.1,0.53,0.1c0.61,0,1.18-0.37,1.4-0.97l2.64-7.03H189v6.5c0,0.83,0.67,1.5,1.5,1.5c0.83,0,1.5-0.67,1.5-1.5
				v-6.5h5.46l2.64,7.03c0.23,0.6,0.8,0.97,1.4,0.97c0.17,0,0.35-0.03,0.53-0.1c0.78-0.29,1.17-1.16,0.88-1.93l-2.24-5.97H206
				c1.1,0,2-0.9,2-2v-21C208,109.27,207.1,108.37,206,108.37z M184.75,125.87c0,0.55-0.45,1-1,1c-0.55,0-1-0.45-1-1v-2h-4v2
				c0,0.55-0.45,1-1,1c-0.55,0-1-0.45-1-1v-7c0-2.21,1.79-4,4-4c2.21,0,4,1.79,4,4V125.87z M191.75,126.87h-3.5c-0.55,0-1-0.45-1-1
				v-10c0-0.55,0.45-1,1-1h2.5c1.93,0,3.5,1.57,3.5,3.5c0,0.76-0.25,1.46-0.66,2.03c0.99,0.62,1.66,1.71,1.66,2.97
				C195.25,125.3,193.68,126.87,191.75,126.87z M200.25,124.87c1.08,0,2-0.69,2-1.5c0-0.55,0.45-1,1-1c0.55,0,1,0.45,1,1
				c0,1.93-1.79,3.5-4,3.5c-2.21,0-4-1.57-4-3.5v-5c0-1.93,1.79-3.5,4-3.5c2.21,0,4,1.57,4,3.5c0,0.55-0.45,1-1,1
				c-0.55,0-1-0.45-1-1c0-0.81-0.92-1.5-2-1.5s-2,0.69-2,1.5v5C198.25,124.19,199.17,124.87,200.25,124.87z M180.75,116.87
				c-1.1,0-2,0.9-2,2v3h4v-3C182.75,117.77,181.85,116.87,180.75,116.87z M191.75,121.87h-2.5v3h2.5c0.83,0,1.5-0.67,1.5-1.5
				C193.25,122.55,192.58,121.87,191.75,121.87z M192.25,118.37c0-0.83-0.67-1.5-1.5-1.5h-1.5v3h1.5
				C191.58,119.87,192.25,119.2,192.25,118.37z"/>
		</g>
	</g>
	<g>
		<g>
			<path class="st0" d="M132.05,103.62h-19.11c-0.69,0-1.25,0.56-1.25,1.25c0,0.69,0.56,1.25,1.25,1.25h19.11
				c0.69,0,1.25-0.56,1.25-1.25C133.3,104.18,132.75,103.62,132.05,103.62z"/>
			<path class="st0" d="M138,108.37h-31c-1.1,0-2,0.9-2,2v21c0,1.1,0.9,2,2,2h5.34l-2.24,5.97c-0.29,0.78,0.1,1.64,0.88,1.93
				c0.17,0.07,0.35,0.1,0.53,0.1c0.61,0,1.18-0.37,1.4-0.97l2.64-7.03H121v6.5c0,0.83,0.67,1.5,1.5,1.5c0.83,0,1.5-0.67,1.5-1.5
				v-6.5h5.46l2.64,7.03c0.23,0.6,0.8,0.97,1.4,0.97c0.18,0,0.35-0.03,0.53-0.1c0.78-0.29,1.17-1.16,0.88-1.93l-2.24-5.97H138
				c1.1,0,2-0.9,2-2v-21C140,109.27,139.1,108.37,138,108.37z M118.65,115.37c0.96,0,1.73,0.78,1.73,1.73
				c0,0.96-0.78,1.73-1.73,1.73c-0.96,0-1.73-0.78-1.73-1.73C116.92,116.15,117.7,115.37,118.65,115.37z M129.49,128.37h-13.99
				c-0.93,0-1.49-1.02-1.01-1.81l2.05-3.34c0.41-0.66,1.38-0.64,1.76,0.04l1.7,3.06l4.26-6.39c0.4-0.6,1.28-0.61,1.69-0.01
				l4.51,6.59C131.01,127.31,130.45,128.37,129.49,128.37z"/>
		</g>
	</g>
	<g>
		<g>
			<path class="st0" d="M58.4,105.6h-8.78c-0.28,0-0.5,0.22-0.5,0.5v9.13c0,0.38,0.41,0.62,0.74,0.44l4-2.22
				c0.15-0.09,0.34-0.08,0.49,0l3.8,2.19c0.33,0.19,0.75-0.05,0.75-0.43v-9.12C58.9,105.82,58.68,105.6,58.4,105.6z M68.49,106.87
				c-0.69,0-1.25,0.56-1.25,1.25v23.52c0,0.69,0.56,1.25,1.25,1.25c0.69,0,1.25-0.56,1.25-1.25v-23.52
				C69.74,107.43,69.18,106.87,68.49,106.87z"/>
			<path class="st0" d="M67.63,135.57H44.5c-0.72,0-1.31-0.59-1.31-1.31c0-0.72,0.59-1.31,1.31-1.31h19.28c0.55,0,1-0.45,1-1V106.5
				c0-0.55-0.45-1-1-1h-2.38c0,0.03,0.01,0.06,0.01,0.1v10.48c0,0.89-0.48,1.72-1.25,2.16c-0.39,0.22-0.82,0.34-1.25,0.34
				c-0.43,0-0.86-0.11-1.25-0.33l-3.57-2.06l-3.75,2.08c-0.38,0.21-0.8,0.31-1.21,0.31c-0.44,0-0.88-0.12-1.27-0.35
				c-0.76-0.45-1.23-1.27-1.23-2.15V105.6c0-0.03,0.01-0.06,0.01-0.1h-3.37c-2.21,0-4,1.79-4,4v26c0,2.21,1.79,4,4,4h24.37
				c1.09,0,1.97-0.88,1.97-1.97S68.72,135.57,67.63,135.57z M48.11,124.6h13c0.55,0,1,0.45,1,1c0,0.55-0.45,1-1,1h-13
				c-0.55,0-1-0.45-1-1C47.11,125.04,47.56,124.6,48.11,124.6z"/>
		</g>
	</g>
</g>
<g id="title">
</g>
</svg>
