<?xml version="1.0" encoding="utf-8"?>
<!-- Generator: Adobe Illustrator 24.1.1, SVG Export Plug-In . SVG Version: 6.00 Build 0)  -->
<svg version="1.1" xmlns="http://www.w3.org/2000/svg" x="0px" y="0px"
     viewBox="0 0 448 448" style="enable-background:new 0 0 448 448;" xml:space="preserve">
<style type="text/css">
	.st0{fill:#173042;}
</style>
<g id="grid">
</g>
<g id="icons">
	<g>
		<g>
			<path class="st0" d="M410.2,378.8c-4.49-4.49-11.77-4.49-16.26,0l-3.14,3.14c-0.03-2.46-2.03-4.44-4.49-4.44
				c-2.49,0-4.5,2.01-4.5,4.5v8.93l-1.8,1.8c-0.2,0.2-0.2,0.51,0,0.71L395.56,409c0.2,0.2,0.51,0.2,0.71,0l13.94-13.94
				C414.69,390.57,414.69,383.29,410.2,378.8z"/>
			<path class="st0" d="M393.96,410.59l-15.56-15.56c-0.2-0.2-0.51-0.2-0.71,0l-2.12,2.12c-0.2,0.2-0.2,0.51,0,0.71l15.56,15.56
				c0.2,0.2,0.51,0.2,0.71,0l2.12-2.12C394.16,411.1,394.16,410.79,393.96,410.59z"/>
		</g>
	</g>
	<g>
		<g>
			<path class="st0" d="M342.31,378.54c-2.11-2.11-4.83-3.23-7.67-3.23c-3.04,0-6.22,1.28-8.95,4.02c-3.3,3.3-5.15,7.92-5.02,12
				c0.09,2.77-0.83,5.48-2.78,7.46l-0.43,0.43c-0.19,0.2-0.19,0.51,0,0.71l3.58,3.58c0.1,0.1,0.23,0.15,0.35,0.15
				c0.13,0,0.26-0.05,0.36-0.15l0.37-0.37c1.85-1.87,4.36-2.95,6.97-2.95c0.12,0,0.24,0,0.37,0.01c0.16,0.01,0.32,0.01,0.49,0.01
				c3.97,0,8.4-1.84,11.59-5.03C346.81,389.87,346.68,382.91,342.31,378.54z M328.21,386.54c-0.93,0.36-1.89,0.1-2.15-0.58
				c-0.26-0.68,0.28-1.52,1.2-1.88c0.93-0.36,1.89-0.1,2.15,0.58C329.67,385.34,329.14,386.18,328.21,386.54z M332.68,382.75
				c-1.38,0.53-2.82,0.14-3.21-0.87c-0.39-1.01,0.41-2.27,1.79-2.8c1.38-0.53,2.82-0.14,3.21,0.87
				C334.86,380.96,334.06,382.21,332.68,382.75z"/>
			<path class="st0" d="M319.26,405.98c0.19-0.2,0.19-0.51,0-0.71l-3.58-3.58c-0.2-0.2-0.51-0.2-0.71,0l-0.25,0.25
				c-0.77,0.78-1.95,1-2.93,0.53c-1.65-0.79-4.11-1.19-4.32,3.21c-0.05,1.07,0.3,2.15,1.07,2.89c0.77,0.74,1.74,1.12,2.73,1.17
				c0.07,1.14,0.59,2.25,1.57,3.04c1.6,1.29,3.99,1.18,5.51-0.2c1.12-1.01,1.02-2.2,0.39-3.35c-0.57-1.03-0.44-2.3,0.39-3.14
				L319.26,405.98z"/>
		</g>
	</g>
	<g>
		<g>
			<path class="st0" d="M278.01,399.82l-0.01-7.69c0-0.05,0.01-0.1,0.01-0.15c0-0.05-0.01-0.09-0.01-0.14l0-0.18l-0.01,0
				c-0.29-6.88-8.71-12.22-19.4-12.22c-10.14,0-18.11,4.95-19.38,12.03c-0.16,0.9-0.22,1.71-0.21,2.46l-0.01,0l0.01,7.67
				c-0.02,2.62,0.85,4.33,1.7,5.34c1,1.2,2.92,2.63,6.35,2.63c3.07,0,6.8-1.17,10.79-3.38c1.12-0.62,2.49-0.92,4.2-0.92
				c1.69,0,3.45,0.28,5.15,0.56c1.58,0.25,3.07,0.5,4.44,0.5c2.04,0,3.58-0.55,4.71-1.68c1.12-1.13,1.69-2.71,1.68-4.72
				c0-0.03-0.01-0.06-0.01-0.1L278.01,399.82z M271.62,395.38c-2.49,0-6.04-1.05-9.59-1.05c-1.95,0-3.89,0.32-5.66,1.3
				c-3.56,1.97-6.82,3-9.33,3c-3.62,0-5.7-2.13-4.89-6.63c0.93-5.21,7.35-9.56,16.43-9.56c9.07,0,16.4,4.28,16.43,9.56
				C275.02,394.66,273.69,395.38,271.62,395.38z"/>
			<path class="st0" d="M262.61,385.25c-1.26-0.2-2.6-0.32-4.02-0.32c-2.08,0-3.96,0.25-5.62,0.68c-0.44,0.11-0.51,0.71-0.11,0.93
				c2.32,1.25,5.23,3.12,6.84,5.21c0.11,0.14,0.27,0.21,0.44,0.19c0.5-0.05,1.2-0.08,1.62-0.1c0.21-0.01,0.39-0.14,0.45-0.35
				c0.46-1.58,0.93-3.95,0.83-5.78C263.01,385.48,262.84,385.29,262.61,385.25z M248.62,387.68c-0.16-0.06-0.33-0.04-0.47,0.05
				c-2.01,1.36-3.23,3.05-3.53,4.7c-0.25,1.42-0.15,2.5,0.3,3.03c0.46,0.55,1.41,0.66,2.13,0.66c1.74,0,3.45-0.49,5.05-1.16
				c0.3-0.13,2.67-1.43,3.86-1.98c0.32-0.15,0.4-0.57,0.15-0.82C254.12,390.23,250.53,388.46,248.62,387.68z M266.7,386.35
				c-0.32-0.12-0.66,0.12-0.68,0.46c-0.08,1.7-0.48,3.38-0.87,4.65c-0.09,0.29,0.12,0.59,0.42,0.63c0.86,0.11,1.69,0.24,2.48,0.37
				c1.55,0.25,3,0.48,3.94,0.41c0.21-0.02,0.44-0.19,0.47-0.4C272.82,390.28,270.58,387.84,266.7,386.35z"/>
		</g>
	</g>
	<g>
		<g>
			<path class="st0" d="M186.8,393.09c-9.2,0.39-13.36,2.78-14.6,3.67c-0.27,0.19-0.43,0.5-0.42,0.83
				c0.15,6.29,5.19,10.91,12.36,12.91c1.56-1.97,2.68-4.2,3.3-6.67C188.36,400.21,187.99,395.09,186.8,393.09z M179.43,401.09
				c-1.1,0-2-0.9-2-2c0-1.1,0.9-2,2-2c1.1,0,2,0.9,2,2C181.43,400.2,180.54,401.09,179.43,401.09z"/>
			<path class="st0" d="M209,395.95c-0.79-4.58-3.79-7.58-12.95-9.76c-4.71-1.12-7.49-6.49-8.27-11.56
				c-0.14-0.89-1.26-1.18-1.8-0.46c-0.88,1.17-1.19,2.93-1.03,5.67c0.23,3.89-1.19,5.12-4.7,5.6c-0.85,0.12-1.17,1.16-0.55,1.74
				c2.55,2.35,6.05,3.32,9.98,3.43h0.8c0.32,0,0.63,0.01,0.95,0v0h5.27c0.69,0,1.25,0.56,1.25,1.25c0,0.69-0.56,1.25-1.25,1.25
				h-7.24c1.21,3.66,1.37,7.53,0.41,11.33c-0.6,2.39-1.61,4.59-2.98,6.58c0.51,0.05,1.02,0.08,1.54,0.08h4.33
				c0.2,0.73,0.55,1.5,1.16,2.2c1.77,2.02,4.29,1.99,5.1,1.93c0.17-0.01,0.31-0.12,0.36-0.28c0.23-0.63,0.65-2.37-0.56-4.36
				C205.46,408.96,210.3,403.48,209,395.95z"/>
		</g>
	</g>
	<g>
		<g>
			<path class="st0" d="M137.46,387.65c-0.41-3.06-4.48-3.92-5.86-4.2c-0.5-0.1-1.04-0.2-1.6-0.28c0,0.02,0,0.04,0,0.06
				c0,1.02-0.21,2-0.58,2.88c3.07,0.45,5.09,1.2,5.09,2.04c0,1.32-4.91,2.4-11.14,2.49c-0.28,0.03-0.55,0.05-0.84,0.05
				c-0.28,0-0.56-0.02-0.83-0.05c-6.25-0.09-11.19-1.17-11.19-2.49c0-0.85,2.03-1.6,5.14-2.05c-0.37-0.89-0.58-1.86-0.58-2.88
				c0-0.02,0-0.05,0-0.07c-0.58,0.09-1.14,0.18-1.66,0.29c-1.39,0.29-5.46,1.14-5.86,4.2h-0.04v6.64c0,1.19,0.53,2.32,1.44,3.08
				l9.21,7.66c0.46,0.38,0.72,0.94,0.72,1.54v3.99c0,0.73,0.4,1.4,1.03,1.75l3.24,1.79c1.33,0.74,2.97-0.23,2.97-1.75v-5.78
				c0-0.59,0.26-1.16,0.72-1.54l9.22-7.66c0.91-0.76,1.44-1.89,1.44-3.08v-6.64H137.46z"/>
			<path class="st0" d="M123.29,375.04c-0.19-0.26-0.48-0.39-0.77-0.39c-0.29,0-0.58,0.13-0.77,0.39c-1.39,1.95-4.2,6.12-4.2,8.18
				c0,2.74,2.22,4.97,4.97,4.97c2.74,0,4.97-2.22,4.97-4.97C127.49,381.16,124.69,376.99,123.29,375.04z M121,384.65
				c-0.83,0-1.5-0.67-1.5-1.5s0.67-1.5,1.5-1.5s1.5,0.67,1.5,1.5S121.83,384.65,121,384.65z"/>
		</g>
	</g>
	<g>
		<g>
			<path class="st0" d="M54.78,388.76c-2.44-3.89-5.36-7.5-6.03-12.15c-3.01,2.02-4.38,5.42-4.36,8.94c0,0.02,0,0.04,0,0.07
				c0.03,3.44,3.8,8.16,1.04,11.17c-3,3.27-8.11,0.6-6.68-4.44c0.66-2.35,0.24-3.73-0.08-4.38c-3.02,2.29-4.97,5.91-4.97,9.99
				c0,6.39,4.79,11.65,10.97,12.43c-1.03-1.89-1.41-4.02-1.14-6.1c0.07-0.53,0.49-0.93,1.03-0.99c3.97-0.44,7.24-3.21,8.42-6.91
				c0.16-0.5,0.61-0.82,1.13-0.79c1.39,0.09,2.76,0.47,4.03,1.14C57.65,393.74,56.31,391.19,54.78,388.76z"/>
			<path class="st0" d="M74.98,386.37l-1.41-1.41c-0.44-0.44-1.14-0.44-1.58,0l-16.91,16.91c-1.4-0.37-2.96-0.02-4.06,1.08
				l-2.16,2.16c-1.42,1.42-1.75,3.68-0.64,5.36c1.53,2.31,4.68,2.54,6.53,0.69l2.24-2.24c1.1-1.1,1.45-2.66,1.08-4.06l16.91-16.91
				C75.41,387.51,75.41,386.8,74.98,386.37z"/>
		</g>
	</g>
	<g>
		<g>
			<path class="st0" d="M407.21,314.81c0,0-0.01,0-0.01,0c0.06-0.44,0.09-0.89,0.09-1.36c0-3.29-1.5-5.95-3.35-5.95
				c-1.85,0-3.35,2.67-3.35,5.95c0,2.59,0.93,4.79,2.23,5.61c0.92,0.78,2.54,1.3,4.39,1.3c2.87,0,5.2-1.24,5.2-2.77
				C412.41,316.05,410.08,314.81,407.21,314.81z"/>
			<path class="st0" d="M401.8,320.29c-2.88-2.88-7.15-3.43-11.45-0.28l5.04,5.04c0.49,0.49,0.49,1.28,0,1.77
				c-0.24,0.24-0.56,0.37-0.88,0.37s-0.64-0.12-0.88-0.37l-5.17-5.17c-0.01,0.01-0.01,0.01-0.02,0.02c-1.4,1.4-3.54,4.17-5.63,7.36
				l4.31,4.31c0.49,0.49,0.49,1.28,0,1.77c-0.24,0.24-0.56,0.37-0.88,0.37s-0.64-0.12-0.88-0.37l-3.91-3.91
				c-3.42,5.61-6.14,11.75-4.21,13.68c2.53,2.53,12.34-2.96,18.65-7.51l-3.81-3.81c-0.49-0.49-0.49-1.28,0-1.77
				c0.49-0.49,1.28-0.49,1.77,0l4.06,4.06c1.05-0.82,1.92-1.57,2.53-2.18C405.34,328.75,405.12,323.61,401.8,320.29z"/>
		</g>
	</g>
	<g>
		<g>
			<path class="st0" d="M321.95,336.38c-0.32-0.45-2.09-1.77-2.43-2.15c-0.73-0.8-0.73-2.29,1.41-2.44c0.01,0,0.03,0,0.04,0
				c0.71,0.03,1.29-0.59,1.25-1.3c-0.07-1.24-0.46-2.44-1.2-3.48c-2.37-3.33-7.41-3.8-11.26-1.06c-3.85,2.74-5.05,7.66-2.69,10.99
				c0.74,1.04,1.75,1.8,2.9,2.27c0.66,0.27,1.43-0.07,1.63-0.75c0-0.01,0.01-0.03,0.01-0.04c0.84-1.97,2.24-1.49,2.76-0.54
				c0.25,0.45,0.91,2.55,1.24,3c2.18,3.06,4.46,3.25,6.21,2.01C323.56,341.65,324.12,339.43,321.95,336.38z M317.8,329.59
				c-0.31,0.62-1.06,0.87-1.68,0.56c-1.22-0.61-2.5-0.63-3.5-0.04c-1.04,0.61-1.68,1.82-1.7,3.23c-0.01,0.68-0.57,1.23-1.25,1.23
				h-0.02c-0.69-0.01-1.24-0.58-1.23-1.27c0.03-2.3,1.13-4.3,2.94-5.36c1.75-1.02,3.9-1.04,5.89-0.04
				C317.86,328.22,318.11,328.98,317.8,329.59z"/>
			<path class="st0" d="M313.52,316c-1.1,0-2,0.9-2,2s0.9,2,2,2s2-0.9,2-2S314.62,316,313.52,316z M322.02,321
				c-0.83,0-1.5,0.67-1.5,1.5s0.67,1.5,1.5,1.5s1.5-0.67,1.5-1.5S322.85,321,322.02,321z M340.59,310.71
				c-5.75-3.2-12.66-1.77-15.43,3.2c-0.87,1.56-1.22,3.28-1.13,5c0.06,0.99,0.95,1.76,1.93,1.61c0.02,0,0.04-0.01,0.06-0.01
				c2.98-0.12,3.21,1.93,2.33,3.16c-0.42,0.59-2.66,2.68-3.04,3.35c-2.54,4.57-1.43,7.55,1.19,9.01c2.62,1.46,5.74,0.83,8.28-3.74
				c0.38-0.67,0.97-3.68,1.25-4.35c0.58-1.4,2.44-2.28,3.91,0.32c0.01,0.02,0.02,0.04,0.02,0.05c0.39,0.91,1.51,1.26,2.38,0.79
				c1.52-0.83,2.79-2.04,3.66-3.6C348.77,320.53,346.35,313.91,340.59,310.71z M341.89,322.06c-0.05,0.65-0.6,1.15-1.25,1.15
				c-0.03,0-0.07,0-0.1,0c-0.69-0.06-1.2-0.66-1.15-1.35c0.16-2.01-0.54-3.77-1.92-4.83c-1.43-1.1-3.44-1.3-5.39-0.54
				c-0.64,0.25-1.37-0.07-1.62-0.71c-0.25-0.64,0.07-1.37,0.71-1.62c2.77-1.08,5.69-0.75,7.82,0.89
				C341.06,316.64,342.12,319.19,341.89,322.06z M329.52,340c-1.1,0-2,0.9-2,2s0.9,2,2,2s2-0.9,2-2S330.62,340,329.52,340z
				 M337.02,337c-0.83,0-1.5,0.67-1.5,1.5s0.67,1.5,1.5,1.5s1.5-0.67,1.5-1.5S337.85,337,337.02,337z"/>
		</g>
	</g>
	<g>
		<g>
			<g>
				<path class="st0" d="M245.83,308.69c-0.2-0.2-0.51-0.2-0.71,0l-5.09,5.09c-0.2,0.2-0.2,0.51,0,0.71l3.01,3.01
					c0.2,0.2,0.51,0.2,0.71,0l5.09-5.09c0.2-0.2,0.2-0.51,0-0.71L245.83,308.69z M277.1,339.02c-0.26-3.6-3.43-5.62-5.32-9.08
					c-0.18-0.33-0.5-0.49-0.82-0.49c-0.32,0-0.64,0.16-0.82,0.49c-1.89,3.46-5.06,5.48-5.32,9.08c-0.26,3.6,2.7,6.53,6.15,6.53
					C274.4,345.55,277.36,342.63,277.1,339.02z M269.61,341.24c-1.04,0-1.88-0.84-1.88-1.88s0.84-1.88,1.88-1.88
					c1.04,0,1.88,0.84,1.88,1.88S270.65,341.24,269.61,341.24z"/>
				<path class="st0" d="M267.28,307.45h-7.72c-1.15,0-2.25,0.45-3.06,1.26l-12.57,12.44c-0.83,0.82-1.29,1.93-1.29,3.09v1.23
					c-0.75,0.08-1.35,0.71-1.35,1.48s0.59,1.41,1.35,1.48v0.02h1.85c0.83,0,1.5,0.67,1.5,1.5c0,0.83-0.67,1.49-1.49,1.5h-1.7
					c0,0-0.01,0-0.01,0h-0.14v0.01c-0.75,0.08-1.35,0.71-1.35,1.48s0.59,1.41,1.35,1.48v0.02h1.85c0.83,0,1.5,0.67,1.5,1.5
					c0,0.83-0.67,1.49-1.49,1.5h-1.7c0,0-0.01,0-0.01,0h-0.14v0.01c-0.75,0.08-1.35,0.71-1.35,1.48c0,0.79,0.61,1.43,1.38,1.49
					c0.18,2.24,2.03,4.01,4.32,4.01h16.93c-1.19-1.62-1.76-3.58-1.61-5.61c0.22-3.05,1.95-5.19,3.47-7.08c0.8-1,1.56-1.94,2.15-3.02
					c0.6-1.11,1.76-1.79,3.02-1.79c0.23,0,0.46,0.03,0.68,0.08V311.8C271.64,309.4,269.69,307.45,267.28,307.45z M267.64,315.45
					c0,0.55-0.45,1-1,1h-10.79c-0.45,0-0.67-0.54-0.35-0.85l3.85-3.85c0.19-0.19,0.44-0.29,0.71-0.29h6.59c0.55,0,1,0.45,1,1V315.45
					z"/>
			</g>
		</g>
	</g>
	<g>
		<g>
			<path class="st0" d="M199.63,317.45l-7.44-7.44c-3.62-3.62-7.63-2.21-11.49,1.64c-7.38,7.38-15.04,24.62-11.42,28.24l3.95,3.95
				c1.65,1.65,4.34,1.65,5.99,0l20.4-20.4C201.29,321.79,201.29,319.11,199.63,317.45z M177.23,340.97c-0.97,0-1.75-0.78-1.75-1.75
				c0-0.97,0.78-1.75,1.75-1.75c0.97,0,1.75,0.78,1.75,1.75C178.98,340.19,178.19,340.97,177.23,340.97z M181.23,336.97
				c-0.97,0-1.75-0.78-1.75-1.75c0-0.97,0.78-1.75,1.75-1.75c0.97,0,1.75,0.78,1.75,1.75C182.98,336.19,182.19,336.97,181.23,336.97
				z M187.37,322.6c-3.79,3.79-6.29,4.2-7.24,3.25c-0.95-0.95,0.45-4.1,2.41-7.33c0.93-1.54,1.94-2.86,2.74-3.83
				c0.77-0.93,2.11-1.06,2.88-0.28l1.46,1.46C190.58,316.81,191.16,318.81,187.37,322.6z"/>
			<path class="st0" d="M211.69,332.41l-3.91-3.91c-1.27-1.27-3.33-1.27-4.6,0l-1.07,1.07l-2.24-2.24c-0.49-0.49-1.28-0.49-1.77,0
				c-0.49,0.49-0.49,1.28,0,1.77l2.24,2.24l-1.07,1.07c-1.26,1.27-1.26,3.33,0,4.6l3.91,3.91c0.63,0.63,1.47,0.95,2.3,0.95
				c0.83,0,1.67-0.32,2.3-0.95l3.91-3.91l0,0C212.95,335.74,212.95,333.68,211.69,332.41z M206.01,339.15
				c-0.29,0.29-0.77,0.29-1.06,0l-3.91-3.91c-0.29-0.29-0.29-0.77,0-1.06l1.07-1.07l4.97,4.97L206.01,339.15z M209.92,335.24
				l-1.07,1.07l-4.97-4.97l1.07-1.07c0.15-0.15,0.34-0.22,0.53-0.22c0.19,0,0.38,0.07,0.53,0.22l3.91,3.91
				C210.21,334.47,210.21,334.95,209.92,335.24z"/>
		</g>
	</g>
	<g>
		<g>
			<path class="st0" d="M140.5,320.55h-36c-1.1,0-2,0.9-2,2v0.57c0,1.1,0.9,2,2,2h0.32c0.29,5.45,2.14,11.86,7.79,15.28
				c0,0.03-0.02,0.05-0.02,0.08v2.27c0,0.99,0.8,1.8,1.8,1.8h16.22c0.99,0,1.8-0.8,1.8-1.8v-2.27c0-0.13-0.05-0.24-0.13-0.32
				c5.3-3.47,7.54-9.71,7.89-15.03h0.33c1.1,0,2-0.9,2-2v-0.57C142.5,321.45,141.6,320.55,140.5,320.55z M119.67,337.54
				c-0.14,0.57-0.65,0.94-1.21,0.94c-0.1,0-0.21-0.01-0.31-0.04c-4.35-1.11-7.42-4.06-8.86-8.54c-0.21-0.66,0.15-1.36,0.81-1.57
				c0.66-0.21,1.36,0.15,1.57,0.81c1.19,3.67,3.57,5.99,7.1,6.89C119.44,336.19,119.84,336.87,119.67,337.54z"/>
			<path class="st0" d="M138.81,312.1l-3.17-3.17c-0.64-0.64-1.68-0.64-2.32,0c-0.53,0.53-0.62,1.34-0.26,1.97l-8.55,7.16h9.7
				l2.77-3.3c0.61,0.27,1.34,0.17,1.84-0.33C139.46,313.78,139.46,312.74,138.81,312.1z"/>
		</g>
	</g>
	<g>
		<g>
			<path class="st0" d="M73.96,307.04c-1.56-1.56-4.09-1.56-5.66,0c-0.7,0.7-1.07,1.59-1.14,2.5l-0.01-0.01c0,0.05-0.01,0.09,0,0.14
				c0,0.1-0.01,0.2-0.01,0.3c-0.05,0.69-0.32,1.37-0.85,1.9c-0.41,0.41-0.9,0.66-1.42,0.78l-3.54-1.18
				c-1.44-0.48-3.02-0.11-4.09,0.97L40.58,329.1c-1.07,1.07-1.45,2.66-0.97,4.09l1.11,3.32c-0.07,0.65-0.35,1.28-0.85,1.78
				c-0.53,0.53-1.21,0.8-1.9,0.85c-0.1,0-0.2,0-0.3,0.01c-0.05,0-0.09,0.01-0.14,0l0.01,0.01c-0.91,0.07-1.8,0.44-2.5,1.14
				c-1.56,1.56-1.56,4.09,0,5.66c1.56,1.56,4.09,1.56,5.66,0c0.7-0.7,1.07-1.59,1.14-2.5l0.01,0.01c0-0.05,0.01-0.09,0-0.14
				c0-0.1,0.01-0.2,0.01-0.3c0.05-0.69,0.32-1.37,0.85-1.9c0.51-0.51,1.15-0.77,1.82-0.84l3.28,1.09c1.44,0.48,3.02,0.1,4.09-0.97
				l16.66-16.66c1.07-1.07,1.45-2.66,0.97-4.09l-1.18-3.55c0.12-0.52,0.38-1.01,0.79-1.41c0.53-0.53,1.21-0.8,1.9-0.85
				c0.1,0,0.2,0,0.3-0.01c0.05,0,0.09-0.01,0.14,0l-0.01-0.01c0.91-0.07,1.8-0.44,2.5-1.14C75.52,311.14,75.52,308.6,73.96,307.04z
				 M56.61,320.54l-11.95,11.95c-0.24,0.24-0.56,0.37-0.88,0.37s-0.64-0.12-0.88-0.37c-0.49-0.49-0.49-1.28,0-1.77l11.95-11.95
				c0.49-0.49,1.28-0.49,1.77,0C57.1,319.26,57.1,320.05,56.61,320.54z"/>
		</g>
	</g>
	<g>
		<g>
			<g>
				<path class="st0" d="M416.8,248.1l-8.91-8.91c-1.42-1.42-3.73-1.42-5.15,0l-18.83,18.83c-0.18,0.18-0.18,0.47,0,0.64l6.33,6.33
					c9.77-5.57,16.09-12.54,19.02-16.27c0.43-0.54,1.21-0.64,1.76-0.21c0.54,0.43,0.64,1.21,0.21,1.75
					c-2.99,3.81-9.35,10.84-19.16,16.56l1.68,1.68c0.29,0.29,0.73,0.35,1.09,0.16c13.07-7.13,20.32-16.87,22.07-19.41
					C417.16,248.9,417.11,248.41,416.8,248.1z M405.12,243.63c-0.75,0-1.36-0.61-1.36-1.36c0-0.75,0.61-1.36,1.36-1.36
					c0.75,0,1.36,0.61,1.36,1.36C406.49,243.02,405.88,243.63,405.12,243.63z"/>
				<path class="st0" d="M384.53,270.98c1.96-1.96,3.11-4.06,2.83-5.02c-0.01-0.1-0.05-0.21-0.13-0.29l-5.14-5.14
					c-0.2-0.2-0.51-0.2-0.71,0l-7.69,7.69c-2.34,2.34-2.34,6.14,0,8.49l1.05,1.05c1.48,1.48,3.88,1.48,5.36,0l0.35-0.35
					c0.75-0.75,1.04-1.85,0.76-2.88c-0.1-0.34-0.1-0.69-0.08-1.04C382.12,273.04,383.35,272.16,384.53,270.98z M377.49,276.14
					c-0.83,0-1.5-0.67-1.5-1.5s0.67-1.5,1.5-1.5c0.83,0,1.5,0.67,1.5,1.5S378.32,276.14,377.49,276.14z"/>
			</g>
		</g>
	</g>
	<g>
		<g>
			<path class="st0" d="M343.89,241.11c-3.43-3.43-10.34-4.49-15.23,1.34c-3.02,3.59-4.64,7.8-4.65,11.29
				c-0.01,2.51-1.02,4.92-2.98,6.48c-6.09,4.87-12.65,10.61-13.51,11.47c-1.6,1.6-1.6,4.19,0,5.79c1.6,1.6,4.19,1.6,5.79,0
				c0.86-0.86,6.6-7.42,11.47-13.51c1.57-1.96,3.97-2.98,6.48-2.98c3.49-0.01,7.7-1.63,11.29-4.65
				C348.38,251.45,347.31,244.54,343.89,241.11z M310.38,276.03c-0.83,0-1.5-0.67-1.5-1.5c0-0.83,0.67-1.5,1.5-1.5
				c0.83,0,1.5,0.67,1.5,1.5C311.88,275.36,311.2,276.03,310.38,276.03z"/>
		</g>
	</g>
	<g>
		<g>
			<path class="st0" d="M279.55,249.47l-12.02-12.02c-0.78-0.78-2.05-0.78-2.83,0l-9.8,9.8c-1.75,1.75-2.18,4.42-1.08,6.63
				c1.21,2.44,0.54,5.38-1.58,7.07c-6.33,5.05-13.24,11.09-14.14,11.99c-1.65,1.65-1.65,4.31,0,5.96c1.65,1.65,4.31,1.65,5.96,0
				c0.9-0.9,6.94-7.81,11.99-14.14c1.7-2.13,4.64-2.79,7.07-1.58c2.21,1.1,4.88,0.66,6.63-1.08l9.8-9.8
				C280.33,251.52,280.33,250.25,279.55,249.47z M240.93,277.54c-0.83,0-1.5-0.67-1.5-1.5s0.67-1.5,1.5-1.5s1.5,0.67,1.5,1.5
				S241.76,277.54,240.93,277.54z M259.28,251.71c-0.24,0.24-0.56,0.37-0.88,0.37c-0.32,0-0.64-0.12-0.88-0.37
				c-0.49-0.49-0.49-1.28,0-1.77l7.42-7.42c0.49-0.49,1.28-0.49,1.77,0c0.49,0.49,0.49,1.28,0,1.77L259.28,251.71z M262.28,255.97
				c-0.32,0-0.64-0.12-0.88-0.37c-0.49-0.49-0.49-1.28,0-1.77l7.42-7.42c0.49-0.49,1.28-0.49,1.77,0c0.49,0.49,0.49,1.28,0,1.77
				l-7.42,7.42C262.92,255.85,262.6,255.97,262.28,255.97z M274.48,252.07l-7.42,7.42c-0.24,0.24-0.56,0.37-0.88,0.37
				c-0.32,0-0.64-0.12-0.88-0.37c-0.49-0.49-0.49-1.28,0-1.77l7.42-7.42c0.49-0.49,1.28-0.49,1.77,0
				C274.97,250.79,274.97,251.58,274.48,252.07z"/>
		</g>
	</g>
	<g>
		<g>
			<path class="st0" d="M209.23,237.71c-1.39-1.39-13.83,8.71-26.14,20.91c-0.2,0.2-0.2,0.52,0,0.71l9.01,9.01
				c0.4,0.4,1.05,0.39,1.43-0.01C205.43,256.01,211.94,240.41,209.23,237.71z"/>
			<path class="st0" d="M183.76,271.54c1.96-1.96,3.11-4.06,2.83-5.02c-0.01-0.1-0.05-0.21-0.13-0.29l-5.14-5.14
				c-0.2-0.2-0.51-0.2-0.71,0l-7.69,7.69c-2.34,2.34-2.34,6.14,0,8.49l1.05,1.05c1.48,1.48,3.88,1.48,5.36,0l0.35-0.35
				c0.75-0.75,1.04-1.85,0.76-2.88c-0.1-0.34-0.1-0.69-0.08-1.04C181.35,273.59,182.58,272.72,183.76,271.54z M176.72,276.7
				c-0.83,0-1.5-0.67-1.5-1.5c0-0.83,0.67-1.5,1.5-1.5c0.83,0,1.5,0.67,1.5,1.5C178.22,276.03,177.55,276.7,176.72,276.7z"/>
		</g>
	</g>
	<g>
		<g>
			<path class="st0" d="M113.36,274.63c0.58,0.35,0.91,1,0.91,1.68v0.29c0,0.32,0.26,0.59,0.59,0.59h15.28
				c0.32,0,0.59-0.26,0.59-0.59v-0.29c0-0.68,0.33-1.33,0.91-1.68c4.99-3.03,8.34-8.46,8.47-14.69h-35.23
				C105.01,266.16,108.37,271.6,113.36,274.63z M139.13,253.34h-33.25c-0.55,0-1,0.45-1,1v3.1h35.25v-3.1
				C140.13,253.78,139.68,253.34,139.13,253.34z"/>
			<path class="st0" d="M114.26,244.34c-3.41,0-6.21,2.63-6.48,5.98c-0.02,0.28,0.22,0.52,0.5,0.52h2.99c0.25,0,0.48-0.16,0.52-0.41
				c0.19-1.19,1.22-2.09,2.47-2.09c1.24,0,2.27,0.91,2.47,2.09c0.04,0.24,0.27,0.41,0.52,0.41h2.99c0.29,0,0.52-0.24,0.5-0.52
				C120.47,246.97,117.67,244.34,114.26,244.34z M123.45,243.03c0.49-0.49,0.49-1.28,0-1.77c-0.94-0.94-2.18-1.45-3.5-1.45
				c-1.32,0-2.57,0.52-3.5,1.45c-0.49,0.49-0.49,1.28,0,1.77c0.49,0.49,1.28,0.49,1.77,0c0.93-0.93,2.55-0.93,3.47,0
				c0.24,0.24,0.56,0.37,0.88,0.37C122.89,243.4,123.21,243.27,123.45,243.03z M129.01,242.34c0-0.69-0.56-1.25-1.25-1.25
				c-0.69,0-1.25,0.56-1.25,1.25c0,1.52-1.23,2.75-2.75,2.75c-0.69,0-1.25,0.56-1.25,1.25c0,0.69,0.56,1.25,1.25,1.25
				C126.65,247.59,129.01,245.23,129.01,242.34z M135.91,246.35c-1.77-1.77-4.39-2.02-7.29,0.87c-0.82,0.82-1.58,1.81-2.2,2.85
				c-0.2,0.34,0.04,0.76,0.43,0.76h9.72c0.22,0,0.43-0.14,0.49-0.36C137.51,248.87,137,247.44,135.91,246.35z"/>
		</g>
	</g>
	<g>
		<g>
			<g>
				<g>
					<path class="st0" d="M71.5,244.26h-28c-0.55,0-1,0.45-1,1v1h-2.24c-2.63,0-4.76,2.14-4.76,4.76c0,5,4.07,9.06,9.06,9.06h0.81
						c1.12,1.53,2.52,2.85,4.13,3.86c0.62,0.39,0.99,1.08,0.99,1.81c0,0.28,0.22,0.5,0.5,0.5h13c0.28,0,0.5-0.22,0.5-0.5
						c0-0.73,0.37-1.42,0.99-1.81c4.21-2.66,7.01-7.34,7.01-12.69v-6C72.5,244.7,72.05,244.26,71.5,244.26z M38.5,251.02
						c0-0.97,0.79-1.76,1.76-1.76h2.24v2c0,2.04,0.41,3.98,1.15,5.75C40.74,256.56,38.5,254.05,38.5,251.02z M68.95,249.41
						c0,4.04-1.61,7.8-4.54,10.59c-0.24,0.23-0.55,0.34-0.86,0.34c-0.33,0-0.66-0.13-0.91-0.39c-0.48-0.5-0.46-1.29,0.04-1.77
						c2.43-2.31,3.77-5.43,3.77-8.78v-0.29c0-0.69,0.56-1.25,1.25-1.25s1.25,0.56,1.25,1.25V249.41z"/>
					<path class="st0" d="M71.5,268.74h-28c-1.1,0-2,0.9-2,2s0.9,2,2,2h28c1.1,0,2-0.9,2-2S72.6,268.74,71.5,268.74z"/>
				</g>
			</g>
		</g>
	</g>
	<g>
		<g>
			<g>
				<g>
					<path class="st0" d="M413.5,174.75h-38c-1.1,0-2,0.9-2,2v25c0,1.1,0.9,2,2,2h1v1.96c0,0.3,0.24,0.54,0.54,0.54h3.07
						c0.23,0,0.44-0.15,0.51-0.37l0.71-2.13h26.33l0.71,2.13c0.07,0.22,0.28,0.37,0.51,0.37h3.07c0.3,0,0.54-0.24,0.54-0.54v-1.96h1
						c1.1,0,2-0.9,2-2v-25C415.5,175.65,414.6,174.75,413.5,174.75z M400.5,198c0,0.55-0.45,1-1,1h-20.75c-0.55,0-1-0.45-1-1v-17.5
						c0-0.55,0.45-1,1-1h20.75c0.55,0,1,0.45,1,1V198z M406,198.25h-1c-0.83,0-1.5-0.67-1.5-1.5s0.67-1.5,1.5-1.5h1
						c0.83,0,1.5,0.67,1.5,1.5S406.83,198.25,406,198.25z M406,193.25h-1c-0.83,0-1.5-0.67-1.5-1.5s0.67-1.5,1.5-1.5h1
						c0.83,0,1.5,0.67,1.5,1.5S406.83,193.25,406,193.25z M408.5,186.25c-1.93,0-3.5-1.57-3.5-3.5s1.57-3.5,3.5-3.5
						c1.93,0,3.5,1.57,3.5,3.5S410.43,186.25,408.5,186.25z M412,198.25h-1c-0.83,0-1.5-0.67-1.5-1.5s0.67-1.5,1.5-1.5h1
						c0.83,0,1.5,0.67,1.5,1.5S412.83,198.25,412,198.25z M412,193.25h-1c-0.83,0-1.5-0.67-1.5-1.5s0.67-1.5,1.5-1.5h1
						c0.83,0,1.5,0.67,1.5,1.5S412.83,193.25,412,193.25z"/>
					<path class="st0" d="M396,183.75c-0.83,0-1.5,0.67-1.5,1.5v9c0,0.83,0.67,1.5,1.5,1.5s1.5-0.67,1.5-1.5v-9
						C397.5,184.42,396.83,183.75,396,183.75z"/>
				</g>
			</g>
		</g>
	</g>
	<g>
		<g>
			<g>
				<g>
					<path class="st0" d="M345.83,183.72h-38.65c-0.58,0-1.04,0.47-1.04,1.04v2.28c0,0.5,0.35,0.93,0.84,1.02l2.29,0.46v17.22
						c0,2.21,1.79,4,4,4h26.47c2.21,0,4-1.79,4-4v-17.22l2.29-0.46c0.49-0.1,0.84-0.53,0.84-1.02v-2.28
						C346.87,184.19,346.4,183.72,345.83,183.72z M315.51,202.8c0,0.69-0.56,1.25-1.25,1.25c-0.69,0-1.25-0.56-1.25-1.25v-11.55
						c0-0.69,0.56-1.25,1.25-1.25c0.69,0,1.25,0.56,1.25,1.25V202.8z"/>
					<path class="st0" d="M340.68,176.75h-7.08c-0.65-2.79-3.48-5.5-7.1-5.5s-6.45,2.71-7.1,5.5h-7.08c-2.94,0-5.32,2.01-5.32,4.36
						h39C346,178.76,343.62,176.75,340.68,176.75z M322.56,176.75c0.63-1.31,2.18-2.5,3.94-2.5s3.3,1.19,3.94,2.5H322.56z"/>
				</g>
			</g>
		</g>
	</g>
	<g>
		<g>
			<g>
				<path class="st0" d="M273.84,191.6c1.3-1.95,2.06-4.2,2.06-6.6c0-0.94-0.12-1.86-0.34-2.74c-0.25-0.98-1.4-1.39-2.24-0.82
					c-0.01,0.01-0.02,0.01-0.03,0.02c-0.51,0.34-0.76,0.95-0.62,1.55c0.16,0.64,0.24,1.31,0.24,1.99c0,1.67-0.5,3.24-1.36,4.65
					c-2.51-1.83-5.48-3.06-8.72-3.47c0.36-0.33,0.58-0.73,0.58-1.17c0-1.1-1.34-2-3-2s-3,0.9-3,2c0,0.44,0.22,0.84,0.58,1.17
					c-3.53,0.45-6.75,1.86-9.39,3.98c-1.07-1.52-1.68-3.28-1.68-5.15c0-0.68,0.08-1.35,0.24-1.99c0.14-0.6-0.11-1.21-0.62-1.55
					c-0.01-0.01-0.02-0.02-0.03-0.02c-0.84-0.56-2-0.16-2.24,0.82c-0.22,0.88-0.34,1.8-0.34,2.74c0,2.65,0.93,5.12,2.5,7.21
					c-0.36,0.39-0.7,0.8-1.03,1.22l-1.95-1.88c-0.12-0.11-0.28-0.16-0.45-0.13l-4.92,0.98c-0.34,0.07-0.51,0.46-0.33,0.75l4.35,7.03
					c-0.39,1.52-0.63,3.11-0.63,4.76v3.55c0,1.1,0.9,2,2,2h33.89c1.1,0,2-0.9,2-2v-3.55C279.35,199.74,277.24,195.02,273.84,191.6z
					 M269.25,192.45c-0.24,0.39-0.65,0.6-1.07,0.6c-0.22,0-0.45-0.06-0.65-0.18c-0.44-0.27-0.91-0.52-1.38-0.74
					c-0.63-0.29-0.9-1.03-0.61-1.66c0.29-0.63,1.03-0.9,1.66-0.61c0.56,0.26,1.11,0.55,1.63,0.87
					C269.42,191.09,269.61,191.86,269.25,192.45z M275.38,205.86c-0.69,0-1.25-0.56-1.25-1.25c0-3.08-1-5.99-2.88-8.41
					c-0.42-0.55-0.32-1.33,0.22-1.75c0.54-0.42,1.33-0.32,1.75,0.22c2.23,2.87,3.4,6.31,3.4,9.95
					C276.63,205.3,276.07,205.86,275.38,205.86z"/>
				<path class="st0" d="M272.64,175.39c-3.23-3.11-7.87-4.9-12.74-4.9c-4.87,0-9.51,1.78-12.74,4.9c-0.99,0.96-1.02,2.54-0.06,3.54
					c0.96,0.99,2.54,1.02,3.54,0.06c2.3-2.22,5.68-3.49,9.26-3.49s6.96,1.27,9.26,3.49c0.49,0.47,1.11,0.7,1.74,0.7
					c0.65,0,1.31-0.26,1.8-0.76C273.66,177.94,273.63,176.35,272.64,175.39z"/>
			</g>
		</g>
	</g>
	<g>
		<g>
			<path class="st0" d="M192.23,172.41l0-0.01c-0.02,0-0.04,0.01-0.05,0.01c-0.02,0-0.04-0.01-0.07-0.01
				c-0.08,0-0.15,0.03-0.22,0.04c0,0-0.01,0-0.01,0c-0.13,0.03-0.25,0.06-0.36,0.13c-1.6,0.75-4.31,4.6-5.36,12.64
				c-0.34,2.62-0.24,4.83-0.05,6.38c0.18,1.47,1.02,2.79,2.26,3.6c0.6,0.4,0.95,1.09,0.9,1.8l-0.6,9.1c-0.1,1.48,1.2,2.72,2.74,2.47
				c1.15-0.19,1.96-1.25,1.96-2.41v-32.51C193.36,173,192.86,172.47,192.23,172.41z"/>
			<path class="st0" d="M182.59,172.39c-0.51,0-0.93,0.42-0.93,0.93v7.16c0,0.61-0.5,1.11-1.11,1.11c-0.61,0-1.11-0.5-1.11-1.11
				v-6.95c0-0.63-0.51-1.14-1.14-1.14c-0.63,0-1.14,0.51-1.14,1.14v6.95c0,0.61-0.5,1.11-1.11,1.11c-0.61,0-1.11-0.5-1.11-1.11
				v-7.16c0-0.51-0.42-0.93-0.93-0.93c-0.5,0-0.9,0.39-0.93,0.88l-0.43,8.59c-0.09,1.79,0.66,3.51,2.03,4.67l0.03,0.02
				c1.48,1.25,2.23,3.16,1.99,5.09c-0.72,5.73-1.22,13.18-1.22,14.13c0,1.56,1.27,2.83,2.83,2.83c1.56,0,2.83-1.27,2.83-2.83
				c0-0.95-0.5-8.4-1.23-14.14c-0.24-1.93,0.52-3.85,2-5.1c1.37-1.16,2.13-2.89,2.04-4.68l-0.42-8.58
				C183.49,172.78,183.08,172.39,182.59,172.39z M208.33,180.85c-0.41-4.67-3.12-8.46-6.05-8.46c-2.94,0-5.64,3.79-6.05,8.46
				c-0.24,2.75,0.87,4.77,2.43,5.96c1.64,1.25,2.56,3.22,2.23,5.25c-0.83,5.17-1.44,12.68-1.44,13.72c0,1.56,1.27,2.83,2.83,2.83
				c1.56,0,2.83-1.27,2.83-2.83c0-1.04-0.61-8.55-1.44-13.72c-0.33-2.04,0.59-4,2.23-5.25C207.46,185.62,208.57,183.6,208.33,180.85
				z"/>
		</g>
	</g>
	<g>
		<g>
			<path class="st0" d="M127,169.5h-9c-0.55,0-1,0.45-1,1v3.5c0,0.28,0.22,0.5,0.5,0.5h10c0.28,0,0.5-0.22,0.5-0.5v-3.5
				C128,169.95,127.55,169.5,127,169.5z"/>
			<path class="st0" d="M132.34,186.82l-5.14-10.05c-0.09-0.17-0.26-0.27-0.45-0.27h-8.58c-0.19,0-0.36,0.11-0.45,0.27l-5.09,10.06
				c-0.43,0.84-0.65,1.77-0.65,2.71v1.58h21v-1.57C133,188.61,132.77,187.67,132.34,186.82z M121.06,181.28l-3.1,6.13
				c-0.22,0.43-0.66,0.69-1.12,0.69c-0.19,0-0.38-0.04-0.56-0.14c-0.62-0.31-0.86-1.06-0.55-1.68l3.1-6.13
				c0.31-0.62,1.06-0.86,1.68-0.55C121.13,179.91,121.38,180.67,121.06,181.28z M112,207.5c0,2.21,1.79,4,4,4h13c2.21,0,4-1.79,4-4
				v-1.63h-21V207.5z M112,203.37h21v-9.75h-21V203.37z M126.32,196.36c0-0.69,0.56-1.25,1.25-1.25c0.69,0,1.25,0.56,1.25,1.25v2.76
				h0.6c0.69,0,1.25,0.56,1.25,1.25s-0.56,1.25-1.25,1.25h-1.85c-0.69,0-1.25-0.56-1.25-1.25V196.36z M122.49,196.36
				c0-0.69,0.56-1.25,1.25-1.25s1.25,0.56,1.25,1.25v4.01c0,0.69-0.56,1.25-1.25,1.25s-1.25-0.56-1.25-1.25V196.36z M114.68,196.36
				c0-0.5,0.29-0.95,0.75-1.15c0.45-0.2,0.98-0.11,1.35,0.23l1.14,1.05l1.14-1.05c0.37-0.34,0.89-0.43,1.35-0.23
				c0.45,0.2,0.75,0.65,0.75,1.15v4.01c0,0.69-0.56,1.25-1.25,1.25c-0.69,0-1.25-0.56-1.25-1.25v-1.17c-0.44,0.32-1.04,0.32-1.48,0
				v1.17c0,0.69-0.56,1.25-1.25,1.25s-1.25-0.56-1.25-1.25V196.36z"/>
		</g>
	</g>
	<g>
		<g>
			<g>
				<g>
					<path class="st0" d="M67,185.5H42c-0.28,0-0.5,0.22-0.5,0.5v23c0,1.1,0.9,2,2,2h22c1.1,0,2-0.9,2-2v-23
						C67.5,185.72,67.28,185.5,67,185.5z M47.5,194.5c0,0.83-0.67,1.5-1.5,1.5s-1.5-0.67-1.5-1.5v-4c0-0.83,0.67-1.5,1.5-1.5
						s1.5,0.67,1.5,1.5V194.5z"/>
					<path class="st0" d="M65.5,170h-22c-1.1,0-2,0.9-2,2v10.5c0,0.28,0.22,0.5,0.5,0.5h25c0.28,0,0.5-0.22,0.5-0.5V172
						C67.5,170.9,66.6,170,65.5,170z M47.5,178.5c0,0.83-0.67,1.5-1.5,1.5s-1.5-0.67-1.5-1.5v-4c0-0.83,0.67-1.5,1.5-1.5
						s1.5,0.67,1.5,1.5V178.5z"/>
				</g>
			</g>
		</g>
	</g>
	<g>
		<g>
			<path class="st0" d="M390.81,102.12c-5.94,0-10.37,3.42-9.98,5.78c0.14,0.84,0.79,1.45,1.81,1.9c0.71,0.32,1.17,1.03,1.17,1.81
				v3.95h14v-3.95c0-0.78,0.45-1.5,1.17-1.81c1.01-0.45,1.67-1.06,1.81-1.9C401.18,105.54,396.75,102.12,390.81,102.12z
				 M413.81,122.86c-0.65,0-1.23,0.4-1.59,1h-0.91c-0.83,0-1.5,0.67-1.5,1.5c0,0.83,0.67,1.5,1.5,1.5h0.91c0.37,0.6,0.94,1,1.59,1
				c1.1,0,2-1.12,2-2.5S414.91,122.86,413.81,122.86z"/>
			<path class="st0" d="M404.81,139.88h-28c-0.83,0-1.5,0.67-1.5,1.5c0,0.83,0.67,1.5,1.5,1.5h28c0.83,0,1.5-0.67,1.5-1.5
				C406.31,140.55,405.64,139.88,404.81,139.88z M400.41,111.88c-0.03,0.02-0.06,0.04-0.1,0.05v3.68h0.5c0.69,0,1.25,0.56,1.25,1.25
				c0,0.69-0.56,1.25-1.25,1.25h-20c-0.69,0-1.25-0.56-1.25-1.25c0-0.69,0.56-1.25,1.25-1.25h0.5v-3.68
				c-0.04-0.02-0.06-0.04-0.1-0.05c-4.49,0.17-8.02,1.97-8.02,6.55v18.15c0,0.3,0.25,0.55,0.55,0.55h34.14
				c0.3,0,0.55-0.25,0.55-0.55v-18.15C408.43,113.84,404.9,112.05,400.41,111.88z M379.31,133.38c-0.83,0-1.5-0.67-1.5-1.5
				s0.67-1.5,1.5-1.5c0.83,0,1.5,0.67,1.5,1.5S380.14,133.38,379.31,133.38z M385.31,133.38c-0.83,0-1.5-0.67-1.5-1.5
				s0.67-1.5,1.5-1.5c0.83,0,1.5,0.67,1.5,1.5S386.14,133.38,385.31,133.38z"/>
		</g>
	</g>
	<g>
		<g>
			<path class="st0" d="M335.79,100.12h-12.91c-1.1,0-2,0.9-2,2v0.57c0,0.28,0.22,0.5,0.5,0.5h15.91c0.28,0,0.5-0.22,0.5-0.5v-0.57
				C337.79,101.02,336.9,100.12,335.79,100.12z"/>
			<path class="st0" d="M335.37,133.56l-0.69-1.03c-0.08-0.19-0.26-0.31-0.46-0.31h-9.76c-0.2,0-0.38,0.12-0.46,0.31l-0.69,1.03
				c-1.84,2.74-2.95,5.94-2.97,9.24c0,0.01,0,0.55,0,1.07c0,0.55,0.45,1,1,1h16c0.55,0,1-0.45,1-1c0-0.52,0-1.06,0-1.07
				C338.32,139.5,337.21,136.3,335.37,133.56z M329.33,140.22c-1.1,0-2-0.9-2-2s0.9-2,2-2c1.1,0,2,0.9,2,2
				S330.44,140.22,329.33,140.22z M337.33,105.72h-16c-0.42,0-0.81,0.13-1.13,0.35l-4.42,1.89c-1.29,0.55-2.13,1.82-2.13,3.22v6.16
				c0,1.3,0.71,2.49,1.87,3.1l5.58,2.95c0.74,2.28,1.69,4.41,2.86,6.12c0.09,0.14,0.25,0.22,0.41,0.22h9.89
				c0.17,0,0.32-0.08,0.41-0.22c3.02-4.42,4.64-11.65,4.64-17v-4.78C339.33,106.62,338.44,105.72,337.33,105.72z M316.7,118.22
				c-0.33-0.17-0.53-0.51-0.53-0.89v-6.16c0-0.4,0.24-0.76,0.61-0.92l2.56-1.1v3.34c0,2.3,0.3,4.95,0.88,7.58L316.7,118.22z
				 M335.58,114.03c0,2.62-0.36,5.17-1.08,7.58c-0.16,0.54-0.66,0.89-1.2,0.89c-0.12,0-0.24-0.02-0.36-0.05
				c-0.66-0.2-1.04-0.89-0.84-1.55c0.65-2.18,0.98-4.49,0.98-6.87v-2.8c0-0.69,0.56-1.25,1.25-1.25c0.69,0,1.25,0.56,1.25,1.25
				V114.03z"/>
		</g>
	</g>
	<g>
		<g>
			<g>
				<g>
					<path class="st0" d="M258.5,121.75c-0.69,0-1.25,0.56-1.25,1.25v4c0,0.69,0.56,1.25,1.25,1.25s1.25-0.56,1.25-1.25v-4
						C259.75,122.31,259.19,121.75,258.5,121.75z M271.5,104.5h-26c-0.83,0-1.5,0.67-1.5,1.5c0,2.48,1.87,4.5,4.18,4.5h7.32v1.03
						c0,0.26,0.21,0.47,0.47,0.47h5.07c0.26,0,0.47-0.21,0.47-0.47v-1.03h7.32c2.3,0,4.18-2.02,4.18-4.5
						C273,105.17,272.33,104.5,271.5,104.5z"/>
					<path class="st0" d="M271.91,118.19c-0.16-2.08-1.9-3.69-3.99-3.69h-18.85c-2.09,0-3.83,1.61-3.99,3.69l-1.25,16
						c-0.15,1.86,1.01,3.48,2.66,4.07v1.25c0,0.55,0.45,1,1,1h4c0.55,0,1-0.45,1-1v-1h11v1c0,0.55,0.45,1,1,1h4c0.55,0,1-0.45,1-1
						v-1.03c2.17-0.18,3.84-2.06,3.66-4.28L271.91,118.19z M258.5,133.84c-4.05,0-7.34-3.28-7.34-7.34s3.28-7.34,7.34-7.34
						c4.05,0,7.34,3.28,7.34,7.34S262.55,133.84,258.5,133.84z"/>
				</g>
			</g>
		</g>
	</g>
	<g>
		<g>
			<g>
				<g>
					<path class="st0" d="M185.25,104.37c0-0.69-0.56-1.25-1.25-1.25h-4c-0.69,0-1.25,0.56-1.25,1.25c0,0.69,0.56,1.25,1.25,1.25h4
						C184.69,105.62,185.25,105.07,185.25,104.37z M201,103.12h-4c-0.69,0-1.25,0.56-1.25,1.25c0,0.69,0.56,1.25,1.25,1.25h4
						c0.69,0,1.25-0.56,1.25-1.25C202.25,103.68,201.69,103.12,201,103.12z M195,132.12h-9c-0.69,0-1.25,0.56-1.25,1.25
						c0,0.69,0.56,1.25,1.25,1.25h9c0.69,0,1.25-0.56,1.25-1.25C196.25,132.68,195.69,132.12,195,132.12z"/>
					<path class="st0" d="M203.5,106.88h-26c-1.1,0-2,0.9-2,2v6.5c0,0.28,0.22,0.5,0.5,0.5h29c0.28,0,0.5-0.22,0.5-0.5v-6.5
						C205.5,107.77,204.6,106.88,203.5,106.88z M180.5,113.38c-1.1,0-2-0.9-2-2c0-1.1,0.9-2,2-2s2,0.9,2,2
						C182.5,112.48,181.6,113.38,180.5,113.38z M193.5,112.87h-6c-0.83,0-1.5-0.67-1.5-1.5s0.67-1.5,1.5-1.5h6
						c0.83,0,1.5,0.67,1.5,1.5S194.33,112.87,193.5,112.87z M200.5,113.38c-1.1,0-2-0.9-2-2c0-1.1,0.9-2,2-2s2,0.9,2,2
						C202.5,112.48,201.6,113.38,200.5,113.38z M205,117.88h-29c-0.28,0-0.5,0.22-0.5,0.5v21.5c0,1.1,0.9,2,2,2h26c1.1,0,2-0.9,2-2
						v-21.5C205.5,118.1,205.28,117.88,205,117.88z M199.5,135.88c0,0.55-0.45,1-1,1h-16c-0.55,0-1-0.45-1-1v-12c0-0.55,0.45-1,1-1
						h16c0.55,0,1,0.45,1,1V135.88z"/>
				</g>
			</g>
		</g>
	</g>
	<g>
		<g>
			<path class="st0" d="M126.5,109.05h-1.53l-1.11-7.37c-0.03-0.25-0.25-0.43-0.5-0.43h-1.73c-0.25,0-0.46,0.18-0.5,0.43l-1.11,7.37
				h-1.53c-1.1,0-2,0.9-2,2v1.7c0,0.28,0.22,0.5,0.5,0.5h11c0.28,0,0.5-0.22,0.5-0.5v-1.7C128.5,109.95,127.6,109.05,126.5,109.05z"
				/>
			<path class="st0" d="M130.5,115.75h-16c-1.1,0-2,0.9-2,2v24c0,1.1,0.9,2,2,2h16c1.1,0,2-0.9,2-2v-24
				C132.5,116.65,131.6,115.75,130.5,115.75z M127.57,124.92c-0.33,1.83-0.59,3.25-0.88,4.8h-8.39c-0.29-1.56-0.55-2.97-0.88-4.8
				C121.06,122.73,123.94,122.73,127.57,124.92z M128.5,136.22h-12v-4h12V136.22z"/>
		</g>
	</g>
	<g>
		<g>
			<path class="st0" d="M66.5,108.75h-0.4c-0.31-3.5-5.59-6.5-11.6-6.5s-11.29,3-11.6,6.5h-0.4c-2.49,0-4.5,2.54-4.5,5.5h33
				C71,111.29,68.99,108.75,66.5,108.75z M45.95,108.75c0.48-1.27,3.63-3.5,8.55-3.5s8.07,2.23,8.55,3.5H45.95z M56,130h-3
				c-0.69,0-1.25,0.56-1.25,1.25c0,0.69,0.56,1.25,1.25,1.25h3c0.69,0,1.25-0.56,1.25-1.25C57.25,130.56,56.69,130,56,130z"/>
			<path class="st0" d="M73,116.75H36c-0.55,0-1,0.45-1,1v2.18c0,0.48,0.34,0.89,0.8,0.98l2.2,0.44v14.4c0,2.21,1.79,4,4,4v1.26
				c0,0.96,0.78,1.74,1.74,1.74c0.75,0,1.42-0.48,1.65-1.19l0.6-1.81h17l0.6,1.81c0.24,0.71,0.9,1.19,1.65,1.19
				c0.96,0,1.74-0.78,1.74-1.74v-1.26c2.21,0,4-1.79,4-4v-14.4l2.2-0.44c0.47-0.09,0.8-0.5,0.8-0.98v-2.18
				C74,117.2,73.55,116.75,73,116.75z M59,132.75c0,0.55-0.45,1-1,1h-7c-0.55,0-1-0.45-1-1v-8c0-0.55,0.45-1,1-1h7
				c0.55,0,1,0.45,1,1V132.75z"/>
		</g>
	</g>
</g>
<g id="title">
</g>
</svg>
