<?xml version="1.0" encoding="utf-8"?>
<!-- Generator: Adobe Illustrator 24.1.1, SVG Export Plug-In . SVG Version: 6.00 Build 0)  -->
<svg version="1.1" xmlns="http://www.w3.org/2000/svg" x="0px" y="0px"
     viewBox="0 0 448 448" style="enable-background:new 0 0 448 448;" xml:space="preserve">
<style type="text/css">
	.st0{fill:#173042;}
</style>
<g id="grid">
</g>
<g id="icons">
	<g>
		<g>
			<g>
				<g>
					<path class="st0" d="M413.85,411.61l-13.89-24.51c-0.73-1.29-2.6-1.27-3.29,0.04l-5.68,10.66l3.04,5.32
						c0.58,1.01,0.37,2.26-0.43,3.03c-0.35-0.05-0.44-0.07-0.79-0.12l-5.98-10.47c-0.74-1.29-2.61-1.26-3.3,0.06l-8.38,16
						c-0.16,0.31,0.06,0.69,0.42,0.69h37.88C413.8,412.31,414.03,411.92,413.85,411.61z"/>
					<path class="st0" d="M406.37,380.52c-0.16-0.19-0.16-0.46,0-0.65l2.01-2.35c0.28-0.32,0.05-0.83-0.38-0.83h-9.41
						c-0.28,0-0.5,0.22-0.5,0.5v6c0,0.28,0.22,0.5,0.5,0.5H408c0.43,0,0.66-0.5,0.38-0.83L406.37,380.52z"/>
				</g>
			</g>
		</g>
	</g>
	<g>
		<g>
			<path class="st0" d="M331.93,391.33c0,3.17-2.5,5.75-5.57,5.75c-3.07,0-5.56-2.58-5.56-5.75c0-3.17,2.5-5.75,5.56-5.75
				c0.25,0,0.5,0.02,0.75,0.06l3.19-3.19c-1.2-0.56-2.53-0.87-3.93-0.87c-5.27,0-9.56,4.38-9.56,9.75c0,5.38,4.29,9.75,9.56,9.75
				c5.27,0,9.57-4.38,9.57-9.75c0-1.36-0.28-2.66-0.78-3.84l-3.25,3.25C331.92,390.94,331.93,391.13,331.93,391.33z M336.36,404.22
				c3.85-2.99,6.34-7.65,6.34-12.89c0-1.78-0.3-3.5-0.83-5.1l-0.89,0.89c-0.65,0.65-1.52,1.01-2.44,1.01c-0.1,0-0.19-0.02-0.29-0.03
				c0.28,1.03,0.45,2.11,0.45,3.23c0,6.8-5.53,12.33-12.33,12.33c-6.8,0-12.33-5.53-12.33-12.33c0-6.8,5.53-12.33,12.33-12.33
				c1.3,0,2.54,0.2,3.72,0.58c0.02-0.87,0.36-1.72,1-2.36l1.12-1.12c-1.82-0.7-3.78-1.1-5.84-1.1c-9.01,0-16.33,7.33-16.33,16.33
				c0,5.59,2.82,10.53,7.12,13.47l-2.69,7.17c-0.29,0.78,0.1,1.64,0.88,1.93c0.17,0.07,0.35,0.1,0.53,0.1c0.61,0,1.18-0.37,1.4-0.97
				l2.53-6.75c1.72,0.76,3.6,1.22,5.56,1.34v4.88c0,0.83,0.67,1.5,1.5,1.5s1.5-0.67,1.5-1.5v-4.97c1.93-0.24,3.75-0.81,5.41-1.66
				l2.68,7.16c0.23,0.6,0.8,0.97,1.4,0.97c0.17,0,0.35-0.03,0.53-0.1c0.78-0.29,1.17-1.16,0.88-1.93L336.36,404.22z"/>
			<path class="st0" d="M342.37,380.31l-2.84-1.09c-0.25-0.1-0.45-0.29-0.54-0.54l-1.09-2.84c-0.15-0.39-0.51-0.61-0.89-0.61
				c-0.24,0-0.48,0.09-0.67,0.28l-3.48,3.48c-0.26,0.26-0.35,0.66-0.21,1.01l0.92,2.38l-5.98,5.98c-0.37-0.15-0.78-0.24-1.2-0.24
				c-1.77,0-3.21,1.44-3.21,3.21s1.44,3.21,3.21,3.21c1.77,0,3.21-1.44,3.21-3.21c0-0.43-0.09-0.83-0.24-1.2l5.76-5.76l3.11,1.19
				c0.11,0.04,0.23,0.06,0.34,0.06c0.25,0,0.49-0.1,0.67-0.28l3.48-3.48C343.18,381.38,343,380.56,342.37,380.31z"/>
		</g>
	</g>
	<g>
		<g>
			<g>
				<path class="st0" d="M253.5,376h-8c-1.1,0-2,0.9-2,2v0.5c0,0.28,0.22,0.5,0.5,0.5h11c0.28,0,0.5-0.22,0.5-0.5V378
					C255.5,376.9,254.6,376,253.5,376z M271.5,376h-8c-1.1,0-2,0.9-2,2v0.5c0,0.28,0.22,0.5,0.5,0.5h11c0.28,0,0.5-0.22,0.5-0.5V378
					C273.5,376.9,272.6,376,271.5,376z"/>
				<path class="st0" d="M255,410h-8c-0.28,0-0.5,0.22-0.5,0.5v0.5c0,1.1,0.9,2,2,2h5c1.1,0,2-0.9,2-2v-0.5
					C255.5,410.22,255.28,410,255,410z M273,381.5h-11c-0.28,0-0.5,0.22-0.5,0.5v6.5c0,0.55-0.45,1-1,1h-4c-0.55,0-1-0.45-1-1V382
					c0-0.28-0.22-0.5-0.5-0.5h-11c-0.28,0-0.5,0.22-0.5,0.5v18.63c0,0.47,0.34,0.85,0.8,0.98c1.27,0.35,2.2,1.51,2.2,2.89v2.5
					c0,0.28,0.22,0.5,0.5,0.5h8c0.28,0,0.5-0.22,0.5-0.5v-1.5c0-0.55,0.45-1,1-1h4c0.55,0,1,0.45,1,1v1.5c0,0.28,0.22,0.5,0.5,0.5h8
					c0.28,0,0.5-0.22,0.5-0.5v-2.5c0-1.38,0.93-2.54,2.2-2.89c0.46-0.13,0.8-0.5,0.8-0.98V382C273.5,381.72,273.28,381.5,273,381.5z
					 M260.38,397.62c0,1.04-0.84,1.88-1.88,1.88s-1.88-0.84-1.88-1.88v-1.24c0-1.04,0.84-1.88,1.88-1.88s1.88,0.84,1.88,1.88V397.62
					z M270,410h-8c-0.28,0-0.5,0.22-0.5,0.5v0.5c0,1.1,0.9,2,2,2h5c1.1,0,2-0.9,2-2v-0.5C270.5,410.22,270.28,410,270,410z"/>
			</g>
		</g>
	</g>
	<g>
		<g>
			<g>
				<path class="st0" d="M207.59,398.19L207.59,398.19c-0.86-1.08-2.42-1.27-3.51-0.42l-7.08,5.55c-0.35,0.28-0.79,0.43-1.23,0.43
					l-5.07,0.01c-0.69,0-1.25-0.56-1.25-1.25s0.56-1.25,1.25-1.25l4.25,0c1.38,0,2.5-1.12,2.5-2.5c0-1.38-1.12-2.5-2.5-2.5
					l-9.73,0.01l-0.66,0c-1.34,0-2.65,0.45-3.7,1.28l-3.47,2.73c-0.22,0.17-0.26,0.49-0.08,0.7l6.74,8.53
					c0.09,0.12,0.24,0.19,0.39,0.19l8.16,0.07l2.26,0.02c1.37,0.01,2.7-0.44,3.77-1.29l8.57-6.77
					C208.26,400.85,208.45,399.27,207.59,398.19z"/>
				<path class="st0" d="M175.33,402.52c-0.17-0.22-0.49-0.25-0.7-0.08l-1.57,1.24c-0.22,0.17-0.25,0.49-0.08,0.7l6.58,8.33
					c0.17,0.22,0.49,0.25,0.7,0.08l1.57-1.24c0.22-0.17,0.25-0.49,0.08-0.7L175.33,402.52z M199.39,383.1
					c0.01,0.24,0.21,0.42,0.44,0.42h3.09c0.28,0,0.5-0.25,0.45-0.52c-0.49-2.65-2.13-4.89-4.39-6.19c-0.36-0.21-0.78,0.15-0.64,0.54
					C198.92,379,199.27,381.02,199.39,383.1z M189.62,386.19c-0.01-0.24-0.21-0.42-0.45-0.42h-3.09c-0.28,0-0.5,0.25-0.45,0.52
					c0.49,2.65,2.14,4.89,4.39,6.19c0.36,0.21,0.78-0.15,0.64-0.54C190.08,390.29,189.73,388.27,189.62,386.19z M190.02,376.81
					c-2.26,1.3-3.9,3.54-4.39,6.19c-0.05,0.27,0.17,0.52,0.45,0.52h3.09c0.24,0,0.43-0.19,0.45-0.42c0.12-2.08,0.47-4.09,1.05-5.75
					C190.8,376.96,190.38,376.6,190.02,376.81z M194.5,376.11c-0.85,0-2.35,2.63-2.63,7.02c-0.02,0.24,0.19,0.46,0.45,0.46h4.36
					c0.26,0,0.47-0.21,0.45-0.46C196.85,378.74,195.36,376.11,194.5,376.11z M202.93,385.77h-3.09c-0.24,0-0.43,0.19-0.44,0.42
					c-0.12,2.08-0.47,4.09-1.05,5.75c-0.14,0.39,0.28,0.75,0.64,0.54c2.26-1.3,3.9-3.54,4.39-6.19
					C203.43,386.02,203.21,385.77,202.93,385.77z M196.69,385.71h-4.36c-0.26,0-0.47,0.21-0.45,0.46c0.29,4.39,1.78,7.02,2.63,7.02
					c0.85,0,2.35-2.63,2.63-7.02C197.15,385.92,196.94,385.71,196.69,385.71z"/>
			</g>
		</g>
	</g>
	<g>
		<g>
			<g>
				<path class="st0" d="M139.59,397.47c-0.86-1.08-2.42-1.27-3.51-0.42L129,402.6c-0.35,0.28-0.79,0.43-1.23,0.43l-5.07,0.01
					c-0.69,0-1.25-0.56-1.25-1.25c0-0.69,0.56-1.25,1.25-1.25l4.25,0c1.38,0,2.5-1.12,2.5-2.5c0-1.38-1.12-2.5-2.5-2.5l-9.73,0.01
					l-0.66,0c-1.34,0-2.65,0.45-3.7,1.28l-3.47,2.73c-0.22,0.17-0.26,0.49-0.08,0.7l6.74,8.53c0.09,0.12,0.24,0.19,0.39,0.19
					l8.16,0.07l2.26,0.02c1.37,0.01,2.7-0.44,3.77-1.29l8.57-6.77C140.26,400.13,140.45,398.56,139.59,397.47z"/>
				<path class="st0" d="M107.33,401.8c-0.17-0.22-0.49-0.25-0.7-0.08l-1.57,1.24c-0.22,0.17-0.25,0.49-0.08,0.7l6.58,8.33
					c0.17,0.22,0.49,0.25,0.7,0.08l1.57-1.24c0.22-0.17,0.25-0.49,0.08-0.7L107.33,401.8z M131.13,376.83
					c-2.69,0-4.57,2.62-4.57,2.62s-0.94-2.62-4.57-2.62c-2.33,0-4.23,2.22-4.23,4.94c0,4.34,4.56,7.59,7.29,9.15
					c0.98,0.56,2.17,0.59,3.18,0.08c2.71-1.39,7.13-4.39,7.13-9.22C135.35,379.04,133.46,376.83,131.13,376.83z"/>
			</g>
		</g>
	</g>
	<g>
		<g>
			<path class="st0" d="M69.87,396.79l-2.61-6.09v-1.09c0-8.32-7.21-14.97-15.72-14.03c-6.48,0.72-11.73,5.98-12.42,12.47
				c-0.5,4.69,1.3,8.98,4.42,11.88c1.74,1.62,2.49,4.02,1.94,6.33l-1.45,6c-0.22,0.91,0.04,1.23,0.39,1.23h13.73
				c0.26,0,0.48-0.18,0.53-0.43l0.91-4.35c0.21-1.01,1.1-1.73,2.13-1.73h3.62c1.08,0,1.95-0.87,1.95-1.95v-6.74h1.61
				C69.66,398.3,70.18,397.5,69.87,396.79z M58.91,386.73c-1.42,1.46-3.3,1.53-4.95,0.87c-0.52-0.21-1.13-0.22-1.68,0.03
				c-0.56,0.25-0.96,0.7-1.16,1.22c-0.3,0.79-1.22,1.83-2.13,2.46c-0.82,0.57-1.26,1.53-1.26,2.52v1.21c0,0.6-0.49,1.09-1.09,1.09
				c-0.6,0-1.09-0.49-1.09-1.09v-1.48c0-1.01-0.51-1.93-1.31-2.55c-1.3-1-2.03-2.7-1.49-4.51c0.88-2.94,2.99-5.48,6.02-6.82
				c2.81-1.24,5.87-1.19,8.51-0.11C60.54,380.91,61.37,384.2,58.91,386.73z"/>
			<path class="st0" d="M53.27,380.8c-1.36-0.13-2.74,0.09-4,0.65c-2.15,0.95-3.77,2.79-4.45,5.04c-0.2,0.66,0.18,1.36,0.84,1.56
				c0.12,0.04,0.24,0.05,0.36,0.05c0.54,0,1.03-0.35,1.2-0.89c0.47-1.55,1.58-2.82,3.07-3.47c0.87-0.38,1.82-0.54,2.75-0.45
				c0.68,0.06,1.3-0.44,1.36-1.13S53.96,380.87,53.27,380.8z"/>
		</g>
	</g>
	<g>
		<g>
			<g>
				<path class="st0" d="M411.59,328.99L411.59,328.99c-0.86-1.08-2.42-1.27-3.51-0.42l-7.08,5.55c-0.35,0.28-0.79,0.43-1.23,0.43
					l-5.07,0c-0.69,0-1.25-0.56-1.25-1.25c0-0.69,0.56-1.25,1.25-1.25l4.25,0c1.38,0,2.5-1.12,2.5-2.5c0-1.38-1.12-2.5-2.5-2.5
					l-9.73,0.01l-0.66,0c-1.34,0-2.65,0.45-3.7,1.28l-3.47,2.73c-0.22,0.17-0.25,0.49-0.08,0.7l6.74,8.53
					c0.09,0.12,0.24,0.19,0.39,0.19l8.16,0.07l2.26,0.02c1.37,0.01,2.7-0.44,3.77-1.29l8.57-6.77
					C412.26,331.65,412.45,330.08,411.59,328.99z"/>
				<path class="st0" d="M379.33,333.32c-0.17-0.22-0.49-0.25-0.7-0.08l-1.57,1.24c-0.22,0.17-0.25,0.49-0.08,0.7l6.58,8.33
					c0.17,0.22,0.49,0.25,0.7,0.08l1.57-1.24c0.22-0.17,0.25-0.49,0.08-0.7L379.33,333.32z M405.02,309.3l-7.5,7.5l-3.5-3.5l-3,3
					l6.5,6.5l10.5-10.5L405.02,309.3z"/>
			</g>
		</g>
	</g>
	<g>
		<g>
			<path class="st0" d="M343.59,330.09L343.59,330.09c-0.86-1.08-2.42-1.27-3.51-0.42l-7.08,5.55c-0.35,0.28-0.79,0.43-1.23,0.43
				l-5.07,0.01c-0.69,0-1.25-0.56-1.25-1.25c0-0.69,0.56-1.25,1.25-1.25l4.25,0c1.38,0,2.5-1.12,2.5-2.5c0-1.38-1.12-2.5-2.5-2.5
				l-9.73,0.01l-0.66,0c-1.34,0-2.65,0.45-3.7,1.28l-3.47,2.73c-0.22,0.17-0.25,0.49-0.08,0.7l6.74,8.53
				c0.09,0.12,0.24,0.19,0.39,0.19l8.16,0.07l2.26,0.02c1.37,0.01,2.7-0.44,3.77-1.29l8.57-6.77
				C344.26,332.75,344.45,331.17,343.59,330.09z"/>
			<path class="st0" d="M311.33,334.41c-0.17-0.22-0.49-0.25-0.7-0.08l-1.57,1.24c-0.22,0.17-0.25,0.49-0.08,0.7l6.58,8.33
				c0.17,0.22,0.49,0.25,0.7,0.08l1.57-1.24c0.22-0.17,0.25-0.49,0.08-0.7L311.33,334.41z M329.12,308.26
				c-3.24,0.37-6.36,3.47-6.74,6.71c-0.29,2.45,0.57,4.69,2.11,6.28c0.89,0.92,1.38,2.15,1.38,3.43v0c0,0.65,0.53,1.18,1.18,1.18
				h5.92c0.65,0,1.18-0.53,1.18-1.18c0-1.27,0.47-2.5,1.36-3.4c1.36-1.39,2.19-3.28,2.19-5.37
				C337.71,311.36,333.77,307.74,329.12,308.26z M333.68,317.06l-5.2,4.75c-0.27,0.25-0.7-0.03-0.58-0.38l1.11-3.32
				c0.08-0.23-0.1-0.47-0.34-0.47h-2.08c-0.33,0-0.48-0.4-0.24-0.62l5.2-4.75c0.27-0.25,0.7,0.03,0.58,0.38l-1.11,3.32
				c-0.08,0.23,0.09,0.47,0.34,0.47h2.08C333.77,316.44,333.92,316.84,333.68,317.06z"/>
		</g>
	</g>
	<g>
		<g>
			<path class="st0" d="M276.95,327.92l-1.27-6.84c-0.29-1.58-1.67-2.73-3.28-2.73h-2.8c-1.61,0-2.98,1.14-3.28,2.72
				c0.09,0.28,0.19,0.57,0.24,0.87l1.53,8.2c0.18,0.97,0.02,1.95-0.41,2.82c0,0.02,0.01,0.05,0.01,0.07l0.51,6.31
				c0.07,0.87,0.79,1.53,1.66,1.53h2.26c0.87,0,1.59-0.67,1.66-1.53l0.51-6.31c0.02-0.29,0.12-0.57,0.29-0.81l2.1-3.05
				C276.94,328.8,277.03,328.35,276.95,327.92z M246.11,315.99c2.17,0,3.93-1.76,3.93-3.93c0-2.17-1.76-3.93-3.93-3.93
				c-2.17,0-3.93,1.76-3.93,3.93C242.18,314.23,243.94,315.99,246.11,315.99z M271.11,315.99c2.17,0,3.93-1.76,3.93-3.93
				c0-2.17-1.76-3.93-3.93-3.93c-2.17,0-3.93,1.76-3.93,3.93C267.18,314.23,268.94,315.99,271.11,315.99z M247.4,318.35h-2.8
				c-1.61,0-2.99,1.15-3.28,2.73l-1.27,6.84c-0.08,0.44,0.01,0.89,0.27,1.25l2.1,3.05c0.17,0.24,0.27,0.52,0.29,0.81l0.51,6.31
				c0.07,0.87,0.79,1.53,1.66,1.53h2.26c0.87,0,1.59-0.67,1.66-1.53l0.51-6.31c0-0.02,0.01-0.05,0.01-0.07
				c-0.43-0.87-0.59-1.85-0.41-2.82l1.53-8.2c0.06-0.3,0.15-0.59,0.24-0.87C250.38,319.49,249,318.35,247.4,318.35z"/>
			<path class="st0" d="M258.63,316.3c2.6,0,4.71-2.11,4.71-4.71c0-2.6-2.11-4.71-4.71-4.71c-2.6,0-4.71,2.11-4.71,4.71
				C253.92,314.19,256.03,316.3,258.63,316.3z M265.64,330.6l-1.53-8.2c-0.35-1.89-2.01-3.27-3.93-3.27h-3.35
				c-1.93,0-3.58,1.37-3.93,3.27l-1.53,8.2c-0.1,0.52,0.02,1.06,0.32,1.5l2.51,3.65c0.2,0.29,0.32,0.62,0.35,0.97l0.61,7.56
				c0.08,1.04,0.95,1.84,1.99,1.84h2.71c1.04,0,1.91-0.8,1.99-1.84l0.61-7.56c0.03-0.35,0.15-0.68,0.35-0.97l2.51-3.65
				C265.62,331.66,265.73,331.12,265.64,330.6z"/>
		</g>
	</g>
	<g>
		<g>
			<g>
				<path class="st0" d="M193.32,325.59c-0.01,0-0.03,0-0.04,0c-0.8,0.02-1.43,0.68-1.43,1.48v17.56c0,0.83,0.67,1.5,1.5,1.5
					c0.83,0,1.5-0.67,1.5-1.5v-17.56C194.84,326.23,194.15,325.57,193.32,325.59z M203.36,312.45c-0.22-0.26-0.22-0.64,0-0.91
					l2.8-3.27c0.39-0.45,0.07-1.15-0.53-1.15h-13.1c-0.38,0-0.7,0.31-0.7,0.7v8.35c0,0.38,0.31,0.7,0.7,0.7h13.1
					c0.59,0,0.91-0.7,0.53-1.15L203.36,312.45z"/>
				<path class="st0" d="M181.97,316.3c2.6,0,4.71-2.11,4.71-4.71c0-2.6-2.11-4.71-4.71-4.71c-2.6,0-4.71,2.11-4.71,4.71
					C177.26,314.19,179.37,316.3,181.97,316.3z M193.84,319.13H178.5c-0.96,0-1.79,0.69-1.97,1.63l-1.83,9.84
					c-0.1,0.52,0.02,1.06,0.32,1.5l2.51,3.65c0.2,0.29,0.32,0.62,0.35,0.97l0.61,7.56c0.08,1.04,0.95,1.84,1.99,1.84h2.71
					c1.04,0,1.91-0.8,1.99-1.84l0.62-7.72c0.02-0.25,0.09-0.49,0.19-0.71l0.64-1.31c0.13-0.27,0.2-0.57,0.2-0.87v-10.54h7
					c1.1,0,2-0.9,2-2C195.84,320.02,194.95,319.13,193.84,319.13z"/>
			</g>
		</g>
	</g>
	<g>
		<g>
			<path class="st0" d="M137.75,329.05c0,0.04-0.01,0.09-0.01,0.13c0,0.04,0.01,0.07,0.01,0.11V329.05z M136.88,321.42h-9.13
				c-1.1,0-2-0.9-2-2v-3.84c0-2.25-1.86-4.07-4.13-4c-1.05,0.03-1.87,0.95-1.87,2v4c0,2.84-4,4.84-4,6.84v12.79
				c0,0.74,0.41,1.42,1.06,1.77c0.36,0.19,0.79,0.42,1.24,0.66c2.18,1.17,4.62,1.78,7.09,1.78h7.74c1.58,0,2.87-1.28,2.87-2.87
				v-0.26c0-0.48-0.13-0.92-0.34-1.32c0.8-0.51,1.34-1.4,1.34-2.42v-0.76c0-0.81-0.34-1.53-0.87-2.06c1.05-0.39,1.81-1.38,1.86-2.55
				c-0.03-0.68-0.29-1.3-0.71-1.78c1.51-0.08,2.72-1.32,2.72-2.85v-0.26C139.75,322.7,138.47,321.42,136.88,321.42z"/>
			<path class="st0" d="M112.75,322.42h-7c-0.28,0-0.5,0.22-0.5,0.5v16c0,0.28,0.22,0.5,0.5,0.5h7c0.28,0,0.5-0.22,0.5-0.5v-16
				C113.25,322.64,113.03,322.42,112.75,322.42z M109.25,336.42c-0.83,0-1.5-0.67-1.5-1.5s0.67-1.5,1.5-1.5s1.5,0.67,1.5,1.5
				S110.08,336.42,109.25,336.42z"/>
		</g>
	</g>
	<g>
		<g>
			<g>
				<g>
					<path class="st0" d="M64.88,329.58l-7.09,5.53c-0.35,0.27-0.79,0.42-1.23,0.42l-5.07,0c-0.69,0-1.25-0.56-1.25-1.25
						c0-0.69,0.56-1.25,1.25-1.25l4.25,0c1.38,0,2.5-1.12,2.5-2.5c0-1.38-1.12-2.5-2.5-2.5l-9.73-0.01v0l-0.66,0
						c-1.34,0-2.65,0.45-3.71,1.27l-3.48,2.72c-0.22,0.17-0.26,0.49-0.08,0.7l6.73,8.54c0.09,0.12,0.24,0.19,0.39,0.19l8.16,0.08
						l2.26,0.02c1.37,0.01,2.7-0.44,3.77-1.29l8.58-6.76c1.09-0.86,1.27-2.43,0.42-3.52C67.54,328.92,65.97,328.73,64.88,329.58z
						 M70.91,320.28l-6.73-8.54c-0.09-0.12-0.24-0.19-0.39-0.19l-8.16-0.08l-2.26-0.02c-1.37-0.01-2.7,0.44-3.77,1.29l-8.58,6.76
						c-1.09,0.86-1.27,2.43-0.42,3.52c0.85,1.08,2.42,1.27,3.51,0.42l7.09-5.53c0.35-0.27,0.79-0.42,1.23-0.42l5.07,0
						c0.69,0,1.25,0.56,1.25,1.25c0,0.69-0.56,1.25-1.25,1.25l-4.25,0c-1.38,0-2.5,1.12-2.5,2.5c0,1.38,1.12,2.5,2.5,2.5l6.98,0.01
						l3.41,0c1.34,0,2.65-0.45,3.71-1.27l3.48-2.72C71.04,320.81,71.08,320.49,70.91,320.28z"/>
					<path class="st0" d="M36.13,334.27c-0.17-0.22-0.49-0.25-0.7-0.08l-1.57,1.24c-0.22,0.17-0.25,0.49-0.08,0.7l6.57,8.34
						c0.17,0.22,0.49,0.25,0.7,0.08l1.57-1.24c0.22-0.17,0.25-0.49,0.08-0.7L36.13,334.27z M75.23,316.87l-6.57-8.34
						c-0.17-0.22-0.49-0.25-0.7-0.08l-1.57,1.24c-0.22,0.17-0.25,0.49-0.08,0.7l6.57,8.34c0.17,0.22,0.49,0.25,0.7,0.08l1.57-1.24
						C75.36,317.41,75.4,317.09,75.23,316.87z"/>
				</g>
			</g>
		</g>
	</g>
	<g>
		<g>
			<path class="st0" d="M387.87,268.01c-0.07-0.19-0.26-0.32-0.47-0.32h-3.63c-3.68,0-6.67,2.99-6.67,6.67v3.31
				c0,0.28,0.22,0.5,0.5,0.5h13.48c0.35,0,0.59-0.35,0.47-0.68L387.87,268.01z M405.23,267.69h-3.63c-0.21,0-0.39,0.13-0.47,0.32
				l-3.68,9.47c-0.13,0.33,0.11,0.68,0.47,0.68h13.47c0.28,0,0.5-0.22,0.5-0.5v-3.31C411.9,270.68,408.92,267.69,405.23,267.69z"/>
			<path class="st0" d="M394.5,267.96c-0.83,0-1.5,0.67-1.5,1.5v6.99c0,0.83,0.67,1.5,1.5,1.5s1.5-0.67,1.5-1.5v-6.99
				C396,268.64,395.33,267.96,394.5,267.96z M404.39,248.11c-0.61-1.47,0.68-4.25-0.43-5.36c-1.11-1.11-3.89,0.18-5.36-0.43
				c-1.42-0.59-2.46-3.49-4.1-3.49c-1.63,0-2.68,2.9-4.1,3.49c-1.47,0.61-4.25-0.68-5.36,0.43c-1.11,1.11,0.18,3.89-0.43,5.36
				c-0.59,1.42-3.49,2.46-3.49,4.1c0,1.63,2.9,2.68,3.49,4.1c0.61,1.47-0.68,4.25,0.43,5.36c1.11,1.11,3.89-0.18,5.36,0.43
				c1.42,0.59,2.46,3.49,4.1,3.49c1.63,0,2.68-2.9,4.1-3.49c1.47-0.61,4.25,0.68,5.36-0.43c1.11-1.11-0.18-3.89,0.43-5.36
				c0.59-1.42,3.49-2.46,3.49-4.1C407.88,250.58,404.98,249.53,404.39,248.11z M393,246.01c0-0.83,0.67-1.5,1.5-1.5
				s1.5,0.67,1.5,1.5v6.45c0,0.83-0.67,1.5-1.5,1.5s-1.5-0.67-1.5-1.5V246.01z M394.5,259.96c-1.1,0-2-0.9-2-2c0-1.1,0.9-2,2-2
				s2,0.9,2,2C396.5,259.06,395.6,259.96,394.5,259.96z"/>
		</g>
	</g>
	<g>
		<g>
			<path class="st0" d="M319.08,251.14h-1.04c-0.69,0-1.25,0.56-1.25,1.25c0,0.69,0.56,1.25,1.25,1.25h1.04
				c0.69,0,1.25-0.56,1.25-1.25C320.33,251.7,319.77,251.14,319.08,251.14z M326,246.72c0.69,0,1.25-0.56,1.25-1.25v-1.04
				c0-0.69-0.56-1.25-1.25-1.25s-1.25,0.56-1.25,1.25v1.04C324.75,246.16,325.31,246.72,326,246.72z M333.96,251.14h-1.04
				c-0.69,0-1.25,0.56-1.25,1.25c0,0.69,0.56,1.25,1.25,1.25h1.04c0.69,0,1.25-0.56,1.25-1.25
				C335.21,251.7,334.65,251.14,333.96,251.14z M326.5,267.9c-0.83,0-1.5,0.67-1.5,1.5v6.99c0,0.83,0.67,1.5,1.5,1.5
				s1.5-0.67,1.5-1.5v-6.99C328,268.57,327.33,267.9,326.5,267.9z M326,261.61c0.69,0,1.25-0.56,1.25-1.25v-1.04
				c0-0.69-0.56-1.25-1.25-1.25s-1.25,0.56-1.25,1.25v1.04C324.75,261.05,325.31,261.61,326,261.61z"/>
			<path class="st0" d="M339.5,252.39c0-7.46-6.04-13.5-13.5-13.5s-13.5,6.04-13.5,13.5c0,7.46,6.04,13.5,13.5,13.5
				S339.5,259.85,339.5,252.39z M326,262.89c-5.79,0-10.5-4.71-10.5-10.5c0-5.79,4.71-10.5,10.5-10.5s10.5,4.71,10.5,10.5
				C336.5,258.18,331.79,262.89,326,262.89z M330.38,246.47l-4.21,4.21c-0.06,0-0.11-0.02-0.17-0.02c-0.13,0-0.27,0.02-0.39,0.04
				l-3.25-3.25c-0.49-0.49-1.28-0.49-1.77,0c-0.49,0.49-0.49,1.28,0,1.77l3.35,3.35c0,0.06-0.02,0.11-0.02,0.17
				c0,1.15,0.93,2.08,2.08,2.08s2.08-0.93,2.08-2.08c0-0.13-0.02-0.27-0.04-0.39l4.11-4.11c0.49-0.49,0.49-1.28,0-1.77
				C331.66,245.98,330.87,245.98,330.38,246.47z M319.87,267.95c-0.07-0.19-0.26-0.32-0.47-0.32h-3.63c-3.68,0-6.67,2.99-6.67,6.67
				v3.31c0,0.28,0.22,0.5,0.5,0.5h13.48c0.35,0,0.59-0.35,0.47-0.68L319.87,267.95z M337.23,267.63h-3.63
				c-0.21,0-0.39,0.13-0.47,0.32l-3.68,9.47c-0.13,0.33,0.11,0.68,0.47,0.68h13.47c0.28,0,0.5-0.22,0.5-0.5v-3.31
				C343.9,270.62,340.92,267.63,337.23,267.63z"/>
		</g>
	</g>
	<g>
		<g>
			<g>
				<path class="st0" d="M251.87,267.87c-0.07-0.19-0.26-0.32-0.47-0.32h-3.63c-3.68,0-6.67,2.99-6.67,6.67v3.31
					c0,0.28,0.22,0.5,0.5,0.5h13.48c0.35,0,0.59-0.35,0.47-0.68L251.87,267.87z M272.08,252.55c0-7.5-6.08-13.58-13.58-13.58
					c-7.5,0-13.58,6.08-13.58,13.58c0,7.5,6.08,13.58,13.58,13.58C266,266.13,272.08,260.05,272.08,252.55z M258.5,261.53
					c-4.96,0-8.98-4.02-8.98-8.98c0-4.96,4.02-8.98,8.98-8.98c4.96,0,8.98,4.02,8.98,8.98C267.48,257.51,263.46,261.53,258.5,261.53
					z M269.23,267.56h-3.63c-0.21,0-0.39,0.13-0.47,0.32l-3.68,9.48c-0.13,0.33,0.11,0.68,0.47,0.68h13.47c0.28,0,0.5-0.22,0.5-0.5
					v-3.31C275.9,270.54,272.92,267.56,269.23,267.56z"/>
				<path class="st0" d="M258.5,267.83c-0.83,0-1.5,0.67-1.5,1.5v6.99c0,0.83,0.67,1.5,1.5,1.5s1.5-0.67,1.5-1.5v-6.99
					C260,268.5,259.33,267.83,258.5,267.83z M258.5,247.05c-3.04,0-5.5,2.46-5.5,5.5c0,3.04,2.46,5.5,5.5,5.5
					c3.04,0,5.5-2.46,5.5-5.5C264,249.51,261.54,247.05,258.5,247.05z M258.5,254.68c-1.18,0-2.13-0.95-2.13-2.13
					c0-1.18,0.95-2.13,2.13-2.13c1.18,0,2.13,0.95,2.13,2.13C260.63,253.73,259.68,254.68,258.5,254.68z"/>
			</g>
		</g>
	</g>
	<g>
		<g>
			<path class="st0" d="M183.87,267.87c-0.07-0.19-0.26-0.32-0.47-0.32h-3.63c-3.68,0-6.67,2.99-6.67,6.67v3.31
				c0,0.28,0.22,0.5,0.5,0.5h13.48c0.35,0,0.59-0.35,0.47-0.68L183.87,267.87z M201.23,267.56h-3.63c-0.21,0-0.39,0.13-0.47,0.32
				l-3.68,9.48c-0.13,0.33,0.11,0.68,0.47,0.68h13.47c0.28,0,0.5-0.22,0.5-0.5v-3.31C207.9,270.54,204.92,267.56,201.23,267.56z"/>
			<path class="st0" d="M190.5,267.83c-0.83,0-1.5,0.67-1.5,1.5v6.99c0,0.83,0.67,1.5,1.5,1.5c0.83,0,1.5-0.67,1.5-1.5v-6.99
				C192,268.5,191.33,267.83,190.5,267.83z M203.77,250.42c-0.05-0.3-0.31-0.52-0.61-0.52h-1.26c-0.4-0.12-0.73-0.43-0.86-0.85
				c-0.24-0.74-0.55-1.45-0.93-2.12c-0.14-0.24-0.11-0.54,0.09-0.73l1.01-1.01c0.21-0.22,0.25-0.56,0.07-0.81
				c-0.78-1.04-1.7-1.96-2.74-2.74c-0.24-0.18-0.59-0.15-0.81,0.07l-1.01,1.01c-0.2,0.2-0.49,0.23-0.73,0.09
				c-0.93-0.53-1.95-0.94-3.02-1.18c0,0,0,0,0,0v-1.91c0-0.3-0.22-0.57-0.52-0.61c-0.63-0.09-1.28-0.15-1.94-0.15
				s-1.31,0.05-1.94,0.15c-0.3,0.04-0.52,0.31-0.52,0.61v1.91l0,0c-1.08,0.24-2.09,0.65-3.02,1.18c-0.24,0.14-0.54,0.11-0.73-0.09
				l-1.01-1.01c-0.22-0.22-0.56-0.25-0.81-0.07c-1.04,0.78-1.96,1.7-2.74,2.74c-0.18,0.24-0.15,0.59,0.07,0.81l1.01,1.01
				c0.2,0.2,0.23,0.49,0.09,0.73c-0.38,0.67-0.7,1.37-0.93,2.12c-0.13,0.42-0.46,0.73-0.86,0.85h-1.26c-0.3,0-0.57,0.22-0.61,0.52
				c-0.1,0.64-0.15,1.3-0.15,1.97s0.05,1.33,0.15,1.97c0.05,0.3,0.31,0.52,0.61,0.52h1.26c0.4,0.12,0.73,0.43,0.86,0.85
				c0.24,0.74,0.55,1.45,0.93,2.12c0.14,0.24,0.11,0.54-0.09,0.73l-1.01,1.01c-0.21,0.21-0.25,0.56-0.07,0.81
				c0.78,1.04,1.7,1.96,2.74,2.74c0.24,0.18,0.59,0.15,0.81-0.07l1.01-1.01c0.2-0.2,0.49-0.23,0.73-0.09
				c0.93,0.53,1.95,0.94,3.02,1.18c0,0,0,0,0,0v1.91c0,0.3,0.22,0.57,0.52,0.61c0.63,0.09,1.28,0.15,1.94,0.15s1.31-0.05,1.94-0.15
				c0.3-0.04,0.52-0.31,0.52-0.61v-1.91c0,0,0,0,0,0c1.08-0.24,2.09-0.65,3.02-1.18c0.24-0.14,0.54-0.11,0.73,0.09l1.01,1.01
				c0.22,0.22,0.56,0.25,0.81,0.07c1.04-0.78,1.96-1.7,2.74-2.74c0.18-0.24,0.15-0.59-0.07-0.81l-1.01-1.01
				c-0.2-0.2-0.23-0.49-0.09-0.73c0.38-0.67,0.7-1.37,0.93-2.12c0.13-0.42,0.46-0.73,0.86-0.85h1.26c0.3,0,0.57-0.22,0.61-0.52
				c0.1-0.64,0.15-1.3,0.15-1.97S203.87,251.07,203.77,250.42z M195.57,253.21c-0.33,2.16-2.1,3.93-4.26,4.26
				c-3.47,0.53-6.41-2.41-5.88-5.88c0.33-2.16,2.1-3.93,4.26-4.26C193.16,246.8,196.1,249.74,195.57,253.21z"/>
		</g>
	</g>
	<g>
		<g>
			<g>
				<g>
					<g>
						<g>
							<path class="st0" d="M115.87,268.45c-0.07-0.19-0.26-0.32-0.47-0.32h-3.63c-3.68,0-6.67,2.99-6.67,6.67v3.31
								c0,0.28,0.22,0.5,0.5,0.5h13.48c0.35,0,0.59-0.35,0.47-0.68L115.87,268.45z M135.08,253.23c0-6.33-4.7-11.56-10.78-12.43
								v-1.43c0-0.81-0.93-1.26-1.57-0.76l-3.64,2.85c-0.49,0.39-0.49,1.14,0,1.52l3.64,2.85c0.64,0.5,1.57,0.05,1.57-0.76v-1.36
								c4.85,0.91,8.44,5.43,7.84,10.66c-0.51,4.42-4.1,8-8.52,8.5c-5.85,0.66-10.82-3.92-10.82-9.64c0-3.35,1.71-6.29,4.29-8.04
								c0.19-0.13,0.22-0.39,0.06-0.55l-1.55-1.55c-0.13-0.13-0.33-0.14-0.47-0.04c-3.62,2.62-5.79,7.12-5.07,12.05
								c0.81,5.58,5.4,10,11,10.63C128.63,266.58,135.08,260.64,135.08,253.23z M133.23,268.13h-3.63c-0.21,0-0.39,0.13-0.47,0.32
								l-3.68,9.47c-0.13,0.33,0.11,0.68,0.47,0.68h13.47c0.28,0,0.5-0.22,0.5-0.5v-3.31C139.9,271.12,136.92,268.13,133.23,268.13z
								"/>
							<path class="st0" d="M122.37,256.76c0-0.69-0.56-1.25-1.25-1.25h-1.78l0.96-0.95c0.73-0.71,1.74-1.69,1.74-3
								c0-1.3-0.55-2.08-1.01-2.5c-0.57-0.52-1.35-0.81-2.19-0.81c-1.65,0-3.42,1.15-3.42,3.02c0,0.69,0.56,1.25,1.25,1.25
								c0.69,0,1.25-0.56,1.25-1.25c0-0.26,0.46-0.52,0.92-0.52c0.21,0,0.39,0.06,0.5,0.15c0.16,0.15,0.2,0.44,0.2,0.65
								c-0.01,0.27-0.69,0.93-0.98,1.21l-3.12,3.11c-0.36,0.36-0.46,0.89-0.27,1.36c0.19,0.47,0.65,0.77,1.16,0.77h4.79
								C121.81,258.01,122.37,257.45,122.37,256.76z M129.25,253.74v-4.15c0-0.03-0.01-0.05-0.02-0.08
								c-0.01-0.09-0.03-0.17-0.05-0.25c-0.02-0.08-0.04-0.15-0.07-0.22c-0.03-0.07-0.08-0.13-0.13-0.19
								c-0.05-0.07-0.1-0.14-0.17-0.2c-0.02-0.02-0.03-0.04-0.05-0.06c-0.04-0.03-0.09-0.04-0.14-0.07
								c-0.07-0.04-0.15-0.09-0.23-0.11c-0.08-0.03-0.16-0.04-0.25-0.05c-0.05-0.01-0.1-0.03-0.15-0.03c-0.03,0-0.05,0.01-0.08,0.02
								c-0.09,0.01-0.17,0.03-0.25,0.05c-0.08,0.02-0.15,0.04-0.22,0.07c-0.07,0.03-0.13,0.08-0.19,0.13
								c-0.07,0.05-0.14,0.1-0.2,0.17c-0.02,0.02-0.04,0.03-0.06,0.05l-4.17,5.38c-0.29,0.38-0.35,0.89-0.14,1.32
								c0.21,0.43,0.65,0.7,1.12,0.7h2.92v0.54c0,0.69,0.56,1.25,1.25,1.25c0.69,0,1.25-0.56,1.25-1.25v-0.57
								c0.63-0.06,1.13-0.58,1.13-1.23C130.38,254.32,129.88,253.81,129.25,253.74z M127.02,253.72h-0.91l0.91-1.17V253.72z
								 M122.5,268.4c-0.83,0-1.5,0.67-1.5,1.5v6.99c0,0.83,0.67,1.5,1.5,1.5c0.83,0,1.5-0.67,1.5-1.5v-6.99
								C124,269.07,123.33,268.4,122.5,268.4z"/>
						</g>
					</g>
				</g>
			</g>
		</g>
	</g>
	<g>
		<g>
			<path class="st0" d="M47.87,268.82c-0.07-0.19-0.26-0.32-0.47-0.32h-3.63c-3.68,0-6.67,2.99-6.67,6.67v3.31
				c0,0.28,0.22,0.5,0.5,0.5h13.48c0.35,0,0.59-0.35,0.47-0.68L47.87,268.82z M65.23,268.51h-3.63c-0.21,0-0.39,0.13-0.47,0.32
				l-3.68,9.47c-0.13,0.33,0.11,0.68,0.47,0.68H71.4c0.28,0,0.5-0.22,0.5-0.5v-3.31C71.9,271.49,68.92,268.51,65.23,268.51z"/>
			<path class="st0" d="M42,253.52h-2c-0.69,0-1.25,0.56-1.25,1.25c0,0.69,0.56,1.25,1.25,1.25h2c0.69,0,1.25-0.56,1.25-1.25
				C43.25,254.08,42.69,253.52,42,253.52z M54.5,242.52c0.69,0,1.25-0.56,1.25-1.25v-2c0-0.69-0.56-1.25-1.25-1.25
				c-0.69,0-1.25,0.56-1.25,1.25v2C53.25,241.96,53.81,242.52,54.5,242.52z M45.13,244.63l-1.41-1.41c-0.49-0.49-1.28-0.49-1.77,0
				c-0.49,0.49-0.49,1.28,0,1.77l1.41,1.41c0.24,0.24,0.56,0.37,0.88,0.37c0.32,0,0.64-0.12,0.88-0.37
				C45.62,245.91,45.62,245.12,45.13,244.63z M54.5,268.78c-0.83,0-1.5,0.67-1.5,1.5l0,6.99c0,0.83,0.67,1.5,1.5,1.5
				c0.83,0,1.5-0.67,1.5-1.5l0-6.99C56,269.45,55.33,268.78,54.5,268.78z M67.05,243.22c-0.49-0.49-1.28-0.49-1.77,0l-1.41,1.41
				c-0.49,0.49-0.49,1.28,0,1.77c0.24,0.24,0.56,0.37,0.88,0.37c0.32,0,0.64-0.12,0.88-0.37l1.41-1.41
				C67.54,244.5,67.54,243.71,67.05,243.22z M53.41,244.83c-3.94,0.44-7.73,4.21-8.19,8.15c-0.35,2.97,0.7,5.7,2.57,7.63
				c1.08,1.12,1.68,2.61,1.68,4.17v0c0,0.79,0.64,1.44,1.44,1.44h7.19c0.79,0,1.44-0.64,1.44-1.44c0-1.54,0.57-3.03,1.65-4.13
				c1.65-1.68,2.67-3.98,2.67-6.53C63.85,248.6,59.06,244.19,53.41,244.83z M55.75,257.82v3.45c0,0.69-0.56,1.25-1.25,1.25
				c-0.69,0-1.25-0.56-1.25-1.25v-3.45c-1.45-0.45-2.5-1.64-2.5-3.05c0-0.69,0.56-1.25,1.25-1.25c0.69,0,1.25,0.56,1.25,1.25
				c0,0.35,0.53,0.75,1.25,0.75c0.71,0,1.25-0.4,1.25-0.75c0-0.69,0.56-1.25,1.25-1.25c0.69,0,1.25,0.56,1.25,1.25
				C58.25,256.18,57.2,257.37,55.75,257.82z M69,253.52h-2c-0.69,0-1.25,0.56-1.25,1.25c0,0.69,0.56,1.25,1.25,1.25h2
				c0.69,0,1.25-0.56,1.25-1.25C70.25,254.08,69.69,253.52,69,253.52z"/>
		</g>
	</g>
	<g>
		<g>
			<path class="st0" d="M388.48,192.69h-12.95c-0.28,0-0.52,0.24-0.5,0.52c0.27,3.62,3.29,6.48,6.98,6.48s6.71-2.85,6.98-6.48
				C389,192.93,388.76,192.69,388.48,192.69z M413.48,192.69h-12.95c-0.28,0-0.52,0.24-0.5,0.52c0.27,3.62,3.29,6.48,6.98,6.48
				s6.71-2.85,6.98-6.48C414,192.93,413.76,192.69,413.48,192.69z"/>
			<path class="st0" d="M408.15,180.78c-0.16-0.38-0.5-0.65-0.9-0.73c-0.12-0.07-0.25-0.13-0.39-0.17c-2.57-0.64-5.72-1.05-9.22-1.2
				c-0.4-0.83-1.12-1.48-2-1.79l1.27-1.79c0.11-0.15,0.12-0.35,0.04-0.51l-2-4.01c-0.18-0.37-0.71-0.37-0.89,0l-2,4.01
				c-0.08,0.16-0.07,0.36,0.04,0.51l1.27,1.79c-0.88,0.31-1.6,0.95-2,1.79c-3.5,0.15-6.65,0.56-9.22,1.2
				c-0.14,0.04-0.27,0.1-0.39,0.17c-0.4,0.08-0.74,0.35-0.9,0.73l-3.95,9.41h2.71l2.39-5.7l2.39,5.7h2.71l-3.2-7.63
				c2.14-0.45,4.67-0.75,7.45-0.87c0.26,0.55,0.66,1.03,1.15,1.37v19.63h-2c-1.1,0-2,0.9-2,2v1h-3c-1.1,0-2,0.9-2,2v2.5
				c0,0.28,0.22,0.5,0.5,0.5h21c0.28,0,0.5-0.22,0.5-0.5v-2.5c0-1.1-0.9-2-2-2h-3v-1c0-1.1-0.9-2-2-2h-2v-19.63
				c0.5-0.35,0.89-0.82,1.15-1.37c2.78,0.13,5.31,0.42,7.45,0.87l-3.2,7.63h2.71l2.39-5.7l2.39,5.7h2.71L408.15,180.78z"/>
		</g>
	</g>
	<g>
		<g>
			<g>
				<g>
					<path class="st0" d="M338.65,179.13c-0.72-1.73-0.14-4.38-1.44-5.68c-1.3-1.3-3.95-0.72-5.68-1.44c-1.67-0.69-3.11-3-5.03-3
						c-1.92,0-3.36,2.31-5.03,3c-1.73,0.72-4.38,0.14-5.68,1.44c-1.3,1.3-0.72,3.95-1.44,5.68c-0.69,1.67-3,3.11-3,5.03
						c0,1.92,2.31,3.36,3,5.03c0.72,1.73,0.14,4.38,1.44,5.68c1.3,1.3,3.95,0.72,5.68,1.44c1.67,0.69,3.11,3,5.03,3
						c1.92,0,3.36-2.31,5.03-3c1.73-0.72,4.38-0.14,5.68-1.44c1.3-1.3,0.72-3.95,1.44-5.68c0.69-1.67,3-3.11,3-5.03
						C341.65,182.24,339.34,180.8,338.65,179.13z M326.5,192.68c-4.71,0-8.52-3.81-8.52-8.52c0-4.71,3.81-8.52,8.52-8.52
						c4.71,0,8.52,3.81,8.52,8.52C335.02,188.87,331.21,192.68,326.5,192.68z"/>
					<path class="st0" d="M325.59,188.14l1.94-1.94l4.08-4.08l-1.94-1.94l-4.08,4.08l-2.26-2.26l-1.94,1.94l2.26,2.26L325.59,188.14
						z M336.46,210.48l-1.73-12.17c-0.19,0.02-0.38,0.04-0.56,0.05c-0.63,0.06-1.33,0.12-1.68,0.26c-0.31,0.13-0.82,0.57-1.28,0.95
						c-1.11,0.94-2.64,2.24-4.71,2.24c-2.07,0-3.59-1.29-4.71-2.24c-0.46-0.39-0.97-0.82-1.28-0.95c-0.35-0.15-1.06-0.21-1.68-0.26
						c-0.12-0.01-0.25-0.02-0.38-0.04l-1.88,12.44c-0.13,0.85,0.76,1.49,1.53,1.1l8.02-4.14c0.3-0.15,0.65-0.16,0.95-0.01l7.87,3.86
						C335.71,211.95,336.58,211.32,336.46,210.48z"/>
				</g>
			</g>
		</g>
	</g>
	<g>
		<g>
			<path class="st0" d="M278.72,176.11c-0.02-0.13-0.14-0.23-0.28-0.23h-0.57c-0.18-0.05-0.33-0.19-0.39-0.38
				c-0.11-0.34-0.25-0.65-0.42-0.95c-0.06-0.11-0.05-0.24,0.04-0.33l0.46-0.46c0.1-0.1,0.11-0.25,0.03-0.36
				c-0.35-0.47-0.77-0.89-1.23-1.24c-0.11-0.08-0.27-0.07-0.36,0.03l-0.46,0.46c-0.09,0.09-0.22,0.1-0.33,0.04
				c-0.42-0.24-0.88-0.42-1.36-0.53c0,0,0,0,0,0v-0.86c0-0.14-0.1-0.26-0.23-0.28c-0.29-0.04-0.58-0.07-0.88-0.07
				c-0.3,0-0.59,0.02-0.88,0.07c-0.13,0.02-0.23,0.14-0.23,0.28v0.86c0,0,0,0,0,0c-0.49,0.11-0.94,0.29-1.36,0.53
				c-0.11,0.06-0.24,0.05-0.33-0.04l-0.46-0.46c-0.1-0.1-0.25-0.11-0.36-0.03c-0.47,0.35-0.88,0.77-1.23,1.24
				c-0.08,0.11-0.07,0.27,0.03,0.36l0.46,0.46c0.09,0.09,0.1,0.22,0.04,0.33c-0.17,0.3-0.31,0.62-0.42,0.95
				c-0.06,0.19-0.21,0.33-0.39,0.38h-0.57c-0.14,0-0.26,0.1-0.28,0.23c-0.04,0.29-0.07,0.59-0.07,0.89c0,0.3,0.02,0.6,0.07,0.89
				c0.02,0.13,0.14,0.23,0.28,0.23h0.57c0.18,0.05,0.33,0.19,0.39,0.38c0.11,0.34,0.25,0.65,0.42,0.95
				c0.06,0.11,0.05,0.24-0.04,0.33l-0.46,0.46c-0.1,0.1-0.11,0.25-0.03,0.36c0.35,0.47,0.77,0.89,1.23,1.24
				c0.11,0.08,0.27,0.07,0.36-0.03l0.46-0.46c0.09-0.09,0.22-0.1,0.33-0.04c0.42,0.24,0.88,0.42,1.36,0.53c0,0,0,0,0,0v0.86
				c0,0.14,0.1,0.26,0.23,0.28c0.29,0.04,0.58,0.07,0.88,0.07c0.3,0,0.59-0.02,0.88-0.07c0.14-0.02,0.23-0.14,0.23-0.28v-0.86
				c0,0,0,0,0,0c0.49-0.11,0.94-0.29,1.36-0.53c0.11-0.06,0.24-0.05,0.33,0.04l0.46,0.46c0.1,0.1,0.25,0.11,0.36,0.03
				c0.47-0.35,0.88-0.77,1.23-1.24c0.08-0.11,0.07-0.27-0.03-0.36l-0.46-0.46c-0.09-0.09-0.1-0.22-0.04-0.33
				c0.17-0.3,0.31-0.62,0.42-0.95c0.06-0.19,0.21-0.33,0.39-0.38h0.57c0.14,0,0.26-0.1,0.28-0.23c0.04-0.29,0.07-0.59,0.07-0.89
				C278.79,176.7,278.76,176.4,278.72,176.11z M275.02,177.37c-0.15,0.97-0.95,1.77-1.92,1.92c-1.56,0.24-2.89-1.09-2.65-2.65
				c0.15-0.97,0.95-1.77,1.92-1.92C273.93,174.47,275.26,175.8,275.02,177.37z"/>
			<path class="st0" d="M269.05,193.34l-2.61-6.09v-1.09c0-8.32-7.21-14.97-15.72-14.03c-6.48,0.72-11.73,5.98-12.42,12.47
				c-0.5,4.69,1.3,8.98,4.42,11.88c1.74,1.62,2.49,4.02,1.94,6.33l-1.45,6c-0.22,0.91,0.04,1.23,0.39,1.23h13.73
				c0.26,0,0.48-0.18,0.53-0.43l0.91-4.35c0.21-1.01,1.1-1.73,2.13-1.73h3.62c1.08,0,1.95-0.87,1.95-1.95v-6.74h1.61
				C268.83,194.85,269.36,194.06,269.05,193.34z M259.34,186.42c-0.03,0.18-0.18,0.31-0.36,0.31h-0.75
				c-0.24,0.07-0.43,0.26-0.51,0.51c-0.14,0.44-0.33,0.86-0.56,1.26c-0.08,0.14-0.06,0.32,0.05,0.44l0.6,0.6
				c0.13,0.13,0.15,0.33,0.04,0.48c-0.46,0.62-1.01,1.17-1.63,1.63c-0.15,0.11-0.35,0.09-0.48-0.04l-0.6-0.6
				c-0.12-0.12-0.29-0.14-0.44-0.05c-0.56,0.32-1.16,0.56-1.8,0.7c0,0,0,0,0,0v1.14c0,0.18-0.13,0.34-0.31,0.36
				c-0.38,0.06-0.76,0.09-1.16,0.09c-0.39,0-0.78-0.03-1.16-0.09c-0.18-0.03-0.31-0.18-0.31-0.36v-1.14c0,0,0,0,0,0
				c-0.64-0.15-1.25-0.38-1.8-0.7c-0.14-0.08-0.32-0.06-0.44,0.05l-0.6,0.6c-0.13,0.13-0.34,0.15-0.48,0.04
				c-0.62-0.46-1.17-1.01-1.63-1.63c-0.11-0.15-0.09-0.35,0.04-0.48l0.6-0.6c0.12-0.12,0.14-0.29,0.05-0.44
				c-0.23-0.4-0.41-0.82-0.56-1.26c-0.08-0.25-0.27-0.44-0.51-0.51h-0.75c-0.18,0-0.34-0.13-0.36-0.31
				c-0.06-0.38-0.09-0.78-0.09-1.18c0-0.4,0.03-0.79,0.09-1.18c0.03-0.18,0.18-0.31,0.36-0.31h0.75c0.24-0.07,0.43-0.26,0.51-0.51
				c0.14-0.44,0.33-0.86,0.56-1.26c0.08-0.14,0.06-0.32-0.05-0.44l-0.6-0.6c-0.13-0.13-0.15-0.33-0.04-0.48
				c0.46-0.62,1.01-1.17,1.63-1.63c0.15-0.11,0.35-0.09,0.48,0.04l0.6,0.6c0.12,0.12,0.29,0.14,0.44,0.05
				c0.56-0.32,1.16-0.56,1.8-0.7v-1.14c0-0.18,0.13-0.34,0.31-0.36c0.38-0.06,0.76-0.09,1.16-0.09c0.39,0,0.78,0.03,1.16,0.09
				c0.18,0.03,0.31,0.18,0.31,0.36v1.14c0.64,0.15,1.25,0.39,1.8,0.7c0.14,0.08,0.32,0.06,0.44-0.05l0.6-0.6
				c0.13-0.13,0.33-0.15,0.48-0.04c0.62,0.46,1.17,1.01,1.63,1.63c0.11,0.15,0.09,0.35-0.04,0.48l-0.6,0.6
				c-0.12,0.12-0.14,0.29-0.05,0.44c0.23,0.4,0.41,0.82,0.56,1.26c0.08,0.25,0.27,0.44,0.51,0.51h0.75c0.18,0,0.34,0.13,0.36,0.31
				c0.06,0.38,0.09,0.78,0.09,1.18C259.43,185.64,259.4,186.03,259.34,186.42z M250.95,182.22c-1.29,0.2-2.34,1.25-2.54,2.54
				c-0.32,2.07,1.44,3.82,3.5,3.5c1.29-0.2,2.34-1.25,2.54-2.54C254.77,183.66,253.02,181.91,250.95,182.22z"/>
		</g>
	</g>
	<g>
		<g>
			<g>
				<path class="st0" d="M207.59,193.99L207.59,193.99c-0.86-1.08-2.42-1.27-3.51-0.42l-7.08,5.55c-0.35,0.28-0.79,0.43-1.23,0.43
					l-5.07,0.01c-0.69,0-1.25-0.56-1.25-1.25c0-0.69,0.56-1.25,1.25-1.25l4.25,0c1.38,0,2.5-1.12,2.5-2.5c0-1.38-1.12-2.5-2.5-2.5
					l-9.73,0.01l-0.66,0c-1.34,0-2.65,0.45-3.7,1.28l-3.47,2.73c-0.22,0.17-0.26,0.49-0.08,0.7l6.74,8.53
					c0.09,0.12,0.24,0.19,0.39,0.19l8.16,0.07l2.26,0.02c1.37,0.01,2.7-0.44,3.77-1.29l8.57-6.77
					C208.26,196.65,208.45,195.08,207.59,193.99z"/>
				<path class="st0" d="M175.33,198.32c-0.17-0.22-0.49-0.25-0.7-0.08l-1.57,1.24c-0.22,0.17-0.25,0.49-0.08,0.7l6.58,8.33
					c0.17,0.22,0.49,0.25,0.7,0.08l1.57-1.24c0.22-0.17,0.25-0.49,0.08-0.7L175.33,198.32z M202.83,179.37h-1.23
					c-0.23-0.07-0.42-0.25-0.5-0.49c-0.11-0.34-0.25-0.68-0.41-0.99c-0.14-0.28-0.11-0.62,0.11-0.84l0.74-0.74
					c0.28-0.28,0.28-0.73,0-1l-1-1c-0.28-0.28-0.73-0.28-1,0l-0.74,0.74c-0.22,0.22-0.56,0.26-0.84,0.11
					c-0.32-0.16-0.65-0.3-0.99-0.41c-0.3-0.1-0.52-0.36-0.52-0.68v-1.04c0-0.39-0.32-0.71-0.71-0.71h-1.42
					c-0.39,0-0.71,0.32-0.71,0.71v1.04c0,0.32-0.22,0.59-0.52,0.68c-0.34,0.11-0.68,0.25-0.99,0.41c-0.28,0.14-0.62,0.11-0.84-0.11
					l-0.74-0.74c-0.28-0.28-0.73-0.28-1,0l-1,1c-0.28,0.28-0.28,0.73,0,1l0.74,0.74c0.22,0.22,0.26,0.56,0.11,0.84
					c-0.16,0.32-0.3,0.65-0.41,0.99c-0.08,0.24-0.26,0.42-0.5,0.49h-1.23c-0.39,0-0.71,0.32-0.71,0.71v1.45
					c0,0.39,0.32,0.71,0.71,0.71h1.23c0.23,0.07,0.42,0.25,0.5,0.49c0.11,0.34,0.25,0.68,0.41,0.99c0.14,0.28,0.11,0.62-0.11,0.84
					l-0.74,0.74c-0.28,0.28-0.28,0.73,0,1l1,1c0.28,0.28,0.73,0.28,1,0l0.74-0.74c0.22-0.22,0.56-0.26,0.84-0.11
					c0.32,0.16,0.65,0.3,0.99,0.41c0.3,0.1,0.52,0.36,0.52,0.68v1.04c0,0.39,0.32,0.71,0.71,0.71h1.42c0.39,0,0.71-0.32,0.71-0.71
					v-1.04c0-0.32,0.22-0.59,0.52-0.68c0.34-0.11,0.68-0.25,0.99-0.41c0.28-0.14,0.62-0.11,0.84,0.11l0.74,0.74
					c0.28,0.28,0.73,0.28,1,0l1-1c0.28-0.28,0.28-0.73,0-1l-0.74-0.74c-0.22-0.22-0.26-0.56-0.11-0.84c0.16-0.32,0.3-0.65,0.41-0.99
					c0.08-0.24,0.26-0.42,0.5-0.49h1.23c0.39,0,0.71-0.32,0.71-0.71v-1.45C203.54,179.69,203.22,179.37,202.83,179.37z
					 M195.02,183.76c-1.63,0-2.96-1.33-2.96-2.96s1.33-2.96,2.96-2.96s2.96,1.33,2.96,2.96S196.65,183.76,195.02,183.76z"/>
			</g>
		</g>
	</g>
	<g>
		<g>
			<g>
				<g>
					<path class="st0" d="M113.31,194.96c-0.07-0.21-0.26-0.35-0.48-0.35h-2.45c-4.33,0-7.83,3.51-7.83,7.83v3.48
						c0,0.64,0.52,1.17,1.17,1.17h12.86c0.34,0,0.58-0.33,0.48-0.65L113.31,194.96z M119.95,172.49c-5.31,0-9.61,4.3-9.61,9.61
						c0,5.31,4.3,9.61,9.61,9.61c5.31,0,9.61-4.3,9.61-9.61C129.56,176.79,125.26,172.49,119.95,172.49z"/>
					<path class="st0" d="M119.95,194.89c-0.83,0-1.5,0.67-1.5,1.5v8c0,0.83,0.67,1.5,1.5,1.5c0.83,0,1.5-0.67,1.5-1.5v-8
						C121.45,195.56,120.78,194.89,119.95,194.89z M140.01,196.26c-0.43-1.03,0.47-2.98-0.3-3.76c-0.78-0.78-2.73,0.13-3.76-0.3
						c-0.99-0.41-1.73-2.44-2.87-2.44c-1.14,0-1.88,2.03-2.87,2.44c-1.03,0.43-2.98-0.48-3.76,0.3c-0.78,0.78,0.13,2.73-0.3,3.76
						c-0.41,0.99-2.44,1.73-2.44,2.87c0,1.14,2.03,1.88,2.44,2.87c0.43,1.03-0.47,2.98,0.3,3.76c0.78,0.78,2.73-0.13,3.76,0.3
						c0.99,0.41,1.73,2.44,2.87,2.44c1.14,0,1.88-2.03,2.87-2.44c1.03-0.43,2.98,0.48,3.76-0.3c0.78-0.78-0.13-2.73,0.3-3.76
						c0.41-0.99,2.44-1.73,2.44-2.87C142.45,197.99,140.42,197.26,140.01,196.26z M133.07,204.64c-0.83,0-1.5-0.67-1.5-1.5
						c0-0.83,0.67-1.5,1.5-1.5c0.83,0,1.5,0.67,1.5,1.5C134.58,203.96,133.9,204.64,133.07,204.64z M134.58,198.38
						c0,0.83-0.67,1.5-1.5,1.5c-0.83,0-1.5-0.67-1.5-1.5v-3.59c0-0.83,0.67-1.5,1.5-1.5c0.83,0,1.5,0.67,1.5,1.5V198.38z"/>
				</g>
			</g>
		</g>
	</g>
	<g>
		<g>
			<g>
				<g>
					<path class="st0" d="M70,187.71c0,0.04-0.01,0.07-0.01,0.11c0,0.04,0.01,0.08,0.01,0.13V187.71z M69.28,189.6
						c0.42-0.48,0.68-1.1,0.71-1.78c-0.05-1.18-0.81-2.16-1.86-2.55c0.54-0.52,0.87-1.25,0.87-2.06v-0.76
						c0-1.02-0.53-1.91-1.34-2.42c0.21-0.4,0.34-0.84,0.34-1.32v-0.26c0-1.58-1.28-2.87-2.87-2.87h-7.74
						c-2.47,0-4.91,0.61-7.09,1.78c-0.45,0.24-0.88,0.47-1.24,0.66c-0.65,0.35-1.06,1.03-1.06,1.77v12.79c0,2,4,4,4,6.84v4
						c0,1.05,0.82,1.96,1.87,2c2.27,0.07,4.13-1.74,4.13-4v-3.84c0-1.1,0.9-2,2-2h9.13c1.58,0,2.87-1.28,2.87-2.87v-0.26
						C72,190.92,70.79,189.68,69.28,189.6z"/>
					<path class="st0" d="M44.5,177.5h-7c-0.28,0-0.5,0.22-0.5,0.5v16c0,0.28,0.22,0.5,0.5,0.5h7c0.28,0,0.5-0.22,0.5-0.5v-16
						C45,177.72,44.78,177.5,44.5,177.5z M41,191.5c-0.83,0-1.5-0.67-1.5-1.5s0.67-1.5,1.5-1.5s1.5,0.67,1.5,1.5
						S41.83,191.5,41,191.5z"/>
				</g>
			</g>
		</g>
	</g>
	<g>
		<g>
			<g>
				<g>
					<path class="st0" d="M417.06,116.07l-8.34-8.85c-0.19-0.2-0.51-0.21-0.71-0.02l-3.5,3.3c-0.2,0.19-0.21,0.51-0.02,0.71
						l8.34,8.85c0.19,0.2,0.51,0.21,0.71,0.02l3.5-3.3C417.24,116.58,417.25,116.27,417.06,116.07z M414.01,117.07
						c-0.44,0.41-1.13,0.39-1.54-0.05c-0.41-0.44-0.39-1.13,0.05-1.54c0.44-0.41,1.13-0.39,1.54,0.05
						C414.47,115.97,414.45,116.66,414.01,117.07z M380.4,108.42c-0.22-0.17-0.53-0.13-0.7,0.09l-7.78,10.02
						c-0.17,0.22-0.13,0.53,0.09,0.7l3.82,2.97c0.22,0.17,0.53,0.13,0.7-0.09l7.78-10.02c0.17-0.22,0.13-0.53-0.09-0.7L380.4,108.42
						z M376.73,118.86c-0.37,0.48-1.06,0.56-1.54,0.19c-0.48-0.37-0.56-1.06-0.19-1.54c0.37-0.48,1.06-0.56,1.54-0.19
						C377.02,117.7,377.1,118.39,376.73,118.86z"/>
					<path class="st0" d="M405.7,128.57l-8.56-6.68l-1.56,1.43c-2.2,1.98-4.19,2.51-5.69,2.51c-0.38,0-0.74-0.04-1.05-0.09
						c-2.06-0.36-3.45-1.67-4.08-2.8c-0.77-1.23-0.55-2.78,0.55-3.78l6.15-5.59c-0.72-0.55-1.58-0.83-2.43-0.83
						c-1.19,0-2.38,0.53-3.17,1.55l-6,7.75c-0.49,0.63-0.71,1.42-0.61,2.21l0.39,3.15c0.1,0.79,0.5,1.51,1.13,2l10.52,8.2
						c0.29,0.23,0.64,0.34,0.99,0.34c0.44,0,0.87-0.18,1.19-0.52l0.47-0.52c0.62-0.68,0.55-1.74-0.15-2.33l1.77,1.48
						c0.3,0.25,0.67,0.38,1.04,0.38c0.4,0,0.81-0.15,1.12-0.45l0.54-0.52c0.69-0.67,0.65-1.79-0.09-2.4l1.31,1.09
						c0.3,0.25,0.67,0.37,1.03,0.37c0.41,0,0.82-0.15,1.13-0.46l0.48-0.47c0.67-0.66,0.64-1.75-0.07-2.37l0.86,0.75
						c0.31,0.26,0.68,0.39,1.05,0.39c0.46,0,0.92-0.2,1.24-0.58l0.75-0.89C406.53,130.18,406.42,129.13,405.7,128.57z
						 M409.88,120.58l-7.22-7.37c-0.31-0.32-0.72-0.52-1.17-0.58l-3.7-0.48c-0.58-0.08-1.17,0.11-1.6,0.5l-0.87,0.79L387,121
						c-0.09,0.09-0.3,0.33-0.11,0.62l0.05,0.09c0.32,0.6,1.13,1.37,2.34,1.58c1.44,0.25,3.04-0.38,4.63-1.81l3.11-2.85l9.79,7.64
						l3.05-2.86C410.64,122.63,410.65,121.37,409.88,120.58z"/>
				</g>
			</g>
		</g>
	</g>
	<g>
		<g>
			<g>
				<g>
					<path class="st0" d="M343.59,126.62L343.59,126.62c-0.86-1.08-2.42-1.27-3.51-0.42l-7.08,5.55c-0.35,0.28-0.79,0.43-1.23,0.43
						l-5.07,0c-0.69,0-1.25-0.56-1.25-1.25c0-0.69,0.56-1.25,1.25-1.25l4.25,0c1.38,0,2.5-1.12,2.5-2.5c0-1.38-1.12-2.5-2.5-2.5
						l-9.73,0.01l-0.66,0c-1.34,0-2.65,0.45-3.7,1.28l-3.47,2.73c-0.22,0.17-0.25,0.49-0.08,0.7l6.74,8.53
						c0.09,0.12,0.24,0.19,0.39,0.19l8.16,0.07l2.26,0.02c1.37,0.01,2.7-0.44,3.77-1.29l8.57-6.77
						C344.26,129.28,344.45,127.71,343.59,126.62z"/>
					<path class="st0" d="M311.33,130.95c-0.17-0.22-0.49-0.25-0.7-0.08l-1.57,1.24c-0.22,0.17-0.25,0.49-0.08,0.7l6.58,8.33
						c0.17,0.22,0.49,0.25,0.7,0.08l1.57-1.24c0.22-0.17,0.25-0.49,0.08-0.7L311.33,130.95z M329.13,113.11
						c2.6,0,4.71-2.11,4.71-4.71c0-2.6-2.11-4.71-4.71-4.71c-2.6,0-4.71,2.11-4.71,4.71C324.42,110.99,326.53,113.11,329.13,113.11z
						 M333.49,116.06h-8.71c-1.97,0-3.57,1.72-3.57,3.84v1.11c0,0.65,0.49,1.17,1.08,1.17h13.68c0.6,0,1.08-0.52,1.08-1.17v-1.11
						C337.06,117.78,335.46,116.06,333.49,116.06z"/>
				</g>
			</g>
		</g>
	</g>
	<g>
		<g>
			<path class="st0" d="M243.33,131.44c-0.17-0.22-0.49-0.25-0.7-0.08l-1.57,1.24c-0.22,0.17-0.25,0.49-0.08,0.7l6.58,8.33
				c0.17,0.22,0.49,0.25,0.7,0.08l1.57-1.24c0.22-0.17,0.25-0.49,0.08-0.7L243.33,131.44z M257.19,109.36
				c0.24,0.24,0.56,0.37,0.88,0.37c0.32,0,0.64-0.12,0.88-0.37c0.49-0.49,0.49-1.28,0-1.77l-1.42-1.41c-0.49-0.49-1.28-0.49-1.77,0
				c-0.49,0.49-0.49,1.28,0,1.77L257.19,109.36z M263.02,107.68c0.69,0,1.25-0.56,1.25-1.25v-2c0-0.69-0.56-1.25-1.25-1.25
				c-0.69,0-1.25,0.56-1.25,1.25v2C261.77,107.12,262.33,107.68,263.02,107.68z M267.97,109.73c0.32,0,0.64-0.12,0.88-0.37
				l1.41-1.41c0.49-0.49,0.49-1.28,0-1.77c-0.49-0.49-1.28-0.49-1.77,0l-1.41,1.41c-0.49,0.49-0.49,1.28,0,1.77
				C267.33,109.61,267.65,109.73,267.97,109.73z M257.27,113.43c0-0.69-0.56-1.25-1.25-1.25h-2c-0.69,0-1.25,0.56-1.25,1.25
				c0,0.69,0.56,1.25,1.25,1.25h2C256.71,114.68,257.27,114.12,257.27,113.43z M268.85,117.49c-0.49-0.49-1.28-0.49-1.77,0
				c-0.49,0.49-0.49,1.28,0,1.77l1.41,1.41c0.24,0.24,0.56,0.37,0.88,0.37s0.64-0.12,0.88-0.37c0.49-0.49,0.49-1.28,0-1.77
				L268.85,117.49z M272.02,112.18h-2c-0.69,0-1.25,0.56-1.25,1.25c0,0.69,0.56,1.25,1.25,1.25h2c0.69,0,1.25-0.56,1.25-1.25
				C273.27,112.74,272.71,112.18,272.02,112.18z M263.02,109.43c-2.21,0-4,1.79-4,4c0,2.21,1.79,4,4,4c2.21,0,4-1.79,4-4
				C267.02,111.22,265.23,109.43,263.02,109.43z M263.02,119.18c-0.69,0-1.25,0.56-1.25,1.25v2c0,0.69,0.56,1.25,1.25,1.25
				c0.69,0,1.25-0.56,1.25-1.25v-2C264.27,119.74,263.71,119.18,263.02,119.18z M257.19,117.49l-1.42,1.41
				c-0.49,0.49-0.49,1.28,0,1.77c0.24,0.24,0.56,0.37,0.88,0.37c0.32,0,0.64-0.12,0.88-0.37l1.42-1.41c0.49-0.49,0.49-1.28,0-1.77
				C258.47,117.01,257.68,117.01,257.19,117.49z"/>
			<path class="st0" d="M275.59,127.12L275.59,127.12c-0.86-1.08-2.42-1.27-3.51-0.42l-7.08,5.55c-0.35,0.28-0.79,0.43-1.23,0.43
				l-5.07,0.01c-0.69,0-1.25-0.56-1.25-1.25c0-0.69,0.56-1.25,1.25-1.25l1.22,0l2.53,0l0.5,0c1.38,0,2.5-1.12,2.5-2.5
				c0-1.38-1.12-2.5-2.5-2.5l-9.73,0.01l-0.66,0c-1.34,0-2.65,0.45-3.7,1.28l-3.47,2.73c-0.22,0.17-0.25,0.49-0.08,0.7l6.74,8.53
				c0.09,0.12,0.24,0.19,0.39,0.19l8.16,0.07l2.26,0.02c1.37,0.01,2.7-0.44,3.77-1.29l8.57-6.77
				C276.26,129.78,276.45,128.2,275.59,127.12z"/>
		</g>
	</g>
	<g>
		<g>
			<path class="st0" d="M172.66,132.82c-0.17-0.22-0.49-0.25-0.7-0.08l-1.57,1.24c-0.22,0.17-0.25,0.49-0.08,0.7l6.58,8.33
				c0.17,0.22,0.49,0.25,0.7,0.08l1.57-1.24c0.22-0.17,0.25-0.49,0.08-0.7L172.66,132.82z M210.3,116.8h-12.95
				c-0.28,0-0.52,0.24-0.5,0.52c0.27,3.62,3.29,6.48,6.98,6.48c3.69,0,6.71-2.85,6.98-6.48C210.83,117.04,210.59,116.8,210.3,116.8z
				 M189.3,116.8h-12.95c-0.28,0-0.52,0.24-0.5,0.52c0.27,3.62,3.29,6.48,6.98,6.48c3.69,0,6.71-2.85,6.98-6.48
				C189.83,117.04,189.59,116.8,189.3,116.8z"/>
			<path class="st0" d="M204.91,128.49c-0.86-1.08-2.42-1.27-3.51-0.42l-7.08,5.55c-0.35,0.28-0.79,0.43-1.23,0.43l-5.07,0.01
				c-0.69,0-1.25-0.56-1.25-1.25c0-0.69,0.56-1.25,1.25-1.25l4.25,0c1.38,0,2.5-1.12,2.5-2.5c0-1.38-1.12-2.5-2.5-2.5l-9.73,0.01
				l-0.66,0c-1.34,0-2.65,0.45-3.7,1.28l-3.47,2.73c-0.22,0.17-0.25,0.49-0.08,0.7l6.74,8.53c0.09,0.12,0.24,0.19,0.39,0.19
				l8.16,0.07l2.26,0.02c1.37,0.01,2.7-0.44,3.77-1.29l8.57-6.77C205.59,131.15,205.77,129.58,204.91,128.49L204.91,128.49z
				 M204.88,108.71c-0.07-0.11-0.15-0.19-0.25-0.27c-0.06-0.05-0.13-0.09-0.2-0.13c-0.01-0.01-0.02-0.01-0.04-0.02
				c-0.09-0.05-0.17-0.1-0.27-0.13c-2.35-0.59-5.26-0.95-8.5-1.06c-0.22-0.33-0.52-0.61-0.87-0.82l0.47-0.67
				c0.08-0.12,0.1-0.28,0.03-0.41l-1.59-3.18c-0.15-0.29-0.56-0.29-0.71,0l-1.59,3.18c-0.07,0.13-0.05,0.29,0.03,0.41l0.47,0.67
				c-0.34,0.21-0.64,0.48-0.87,0.82c-3.24,0.12-6.15,0.48-8.5,1.06c-0.1,0.03-0.18,0.08-0.27,0.13c-0.01,0.01-0.03,0.01-0.04,0.02
				c-0.07,0.04-0.14,0.08-0.2,0.13c-0.09,0.08-0.18,0.16-0.25,0.27l-3.53,5.6h2.96l1.63-2.59l1.63,2.59h2.96l-2.57-4.08
				c1.74-0.32,3.72-0.53,5.89-0.62c0.24,0.66,0.73,1.19,1.34,1.5v11.19c0,0.69,0.56,1.25,1.25,1.25s1.25-0.56,1.25-1.25v-11.19
				c0.62-0.31,1.1-0.85,1.34-1.5c2.17,0.09,4.15,0.3,5.89,0.62l-2.57,4.08h2.96l1.63-2.59l1.63,2.59h2.96L204.88,108.71z"/>
		</g>
	</g>
	<g>
		<g>
			<path class="st0" d="M135.73,127.56c-0.44-0.6-1.24-1-2-1.06c0.44-0.73,0.38-1.78-0.12-2.48c-0.41-0.58-1.16-0.96-1.89-1.04
				c0.38-0.75,0.25-1.82-0.23-2.49c-0.43-0.6-1.37-1.04-2.09-1.04c-0.06,0-0.12,0-0.18,0.01l4.47-4.47
				c0.62-0.62,0.85-1.58,0.45-2.35c-0.39-0.75-1.09-1.12-1.8-1.12c-0.51,0-1.02,0.2-1.41,0.59l-11.31,11.31
				c-0.78-0.78-0.78-2.05,0-2.83l1.28-1.28c0.27-0.27,0.27-0.71,0-0.98l-0.43-0.43c-0.53-0.53-1.22-0.79-1.91-0.79
				s-1.38,0.26-1.91,0.79l-3.49,3.49c-0.61,0.61-0.93,1.46-0.87,2.32l0.24,3.57c0.05,0.73,0.36,1.41,0.87,1.92l7.82,7.82
				c0.56,0.56,1.33,0.88,2.12,0.88h3.17c0.8,0,1.56-0.32,2.12-0.88l6.82-6.82C136.14,129.51,136.31,128.37,135.73,127.56z"/>
			<path class="st0" d="M111.18,130.55c-0.2-0.2-0.51-0.2-0.71,0l-1.41,1.41c-0.2,0.2-0.2,0.51,0,0.71l9.9,9.9
				c0.2,0.2,0.51,0.2,0.71,0l1.41-1.41c0.2-0.2,0.2-0.51,0-0.71L111.18,130.55z M126.53,102.28c-2.37,0-4.03,2.31-4.03,2.31
				s-0.83-2.31-4.03-2.31c-2.06,0-3.73,1.95-3.73,4.36c0,3.83,4.02,6.69,6.43,8.06c0.87,0.49,1.92,0.52,2.81,0.07
				c2.39-1.22,6.28-3.87,6.28-8.13C130.26,104.23,128.59,102.28,126.53,102.28z"/>
		</g>
	</g>
	<g>
		<g>
			<path class="st0" d="M67.73,127.25c-0.44-0.6-1.24-1-2-1.06c0.44-0.73,0.38-1.78-0.12-2.48c-0.41-0.58-1.16-0.96-1.89-1.04
				c0.38-0.75,0.25-1.82-0.23-2.49c-0.43-0.6-1.37-1.04-2.09-1.04c-0.06,0-0.12,0-0.18,0.01l4.47-4.47
				c0.62-0.62,0.85-1.58,0.45-2.35c-0.39-0.75-1.09-1.12-1.8-1.12c-0.51,0-1.02,0.2-1.41,0.59L51.6,123.1
				c-0.78-0.78-0.78-2.05,0-2.83l1.28-1.28c0.27-0.27,0.27-0.71,0-0.98l-0.43-0.43c-0.53-0.53-1.22-0.79-1.91-0.79
				c-0.69,0-1.38,0.26-1.91,0.79l-3.49,3.49c-0.61,0.61-0.93,1.46-0.87,2.32l0.24,3.57c0.05,0.73,0.36,1.41,0.87,1.92l7.82,7.82
				c0.56,0.56,1.33,0.88,2.12,0.88h3.17c0.8,0,1.56-0.32,2.12-0.88l6.82-6.82C68.14,129.19,68.31,128.06,67.73,127.25z"/>
			<path class="st0" d="M43.18,130.24c-0.2-0.2-0.51-0.2-0.71,0l-1.41,1.41c-0.2,0.2-0.2,0.51,0,0.71l9.9,9.9
				c0.2,0.2,0.51,0.2,0.71,0l1.41-1.41c0.2-0.2,0.2-0.51,0-0.71L43.18,130.24z M62.53,102.6l-7.5,7.5l-3.5-3.5l-3,3l6.5,6.5
				l10.5-10.5L62.53,102.6z"/>
		</g>
	</g>
</g>
<g id="title">
</g>
</svg>
