<?xml version="1.0" encoding="utf-8"?>
<!-- Generator: Adobe Illustrator 24.1.1, SVG Export Plug-In . SVG Version: 6.00 Build 0)  -->
<svg version="1.1" xmlns="http://www.w3.org/2000/svg" x="0px" y="0px"
     viewBox="0 0 448 448" style="enable-background:new 0 0 448 448;" xml:space="preserve">
<style type="text/css">
	.st0{fill:#173042;}
</style>
<g id="grid">
</g>
<g id="icons">
	<g>
		<g>
			<path class="st0" d="M411.83,385.62c-0.92-2.83-4.12-3.95-6.55-2.55c-1.44,0.83-2.23,2.33-2.23,3.88c0,0.53-0.26,1.03-0.72,1.29
				l-0.76,0.44c-0.71,0.41-0.95,1.32-0.54,2.03l0.01,0.01l0.01,0.01c0.41,0.71,1.32,0.95,2.03,0.54l0.76-0.44
				c0.46-0.26,1.01-0.24,1.47,0.02c1.53,0.88,3.52,0.84,5.06-0.39C411.8,389.33,412.4,387.36,411.83,385.62z"/>
			<path class="st0" d="M387.95,398.26c-0.41-0.71-1.32-0.95-2.03-0.54l-0.76,0.44c-0.46,0.26-1.01,0.24-1.47-0.02
				c-1.53-0.88-3.52-0.84-5.06,0.39c-1.43,1.14-2.03,3.11-1.46,4.85c0.93,2.83,4.12,3.95,6.55,2.55c1.44-0.83,2.23-2.33,2.23-3.88
				c0-0.53,0.26-1.03,0.72-1.29l0.76-0.44c0.71-0.41,0.95-1.32,0.54-2.03L387.95,398.26z M387.43,388.68l-0.76-0.44
				c-0.46-0.26-0.71-0.76-0.71-1.29c0-1.76-1.03-3.47-2.87-4.19c-1.7-0.66-3.71-0.2-4.93,1.16c-1.99,2.22-1.36,5.54,1.07,6.94
				c1.44,0.83,3.13,0.77,4.47,0c0.46-0.26,1.02-0.29,1.48-0.03l0.76,0.44c0.71,0.41,1.62,0.16,2.03-0.54l0.02-0.03
				C388.38,390,388.13,389.09,387.43,388.68z M392.24,383.32c0.46,0.27,0.76,0.73,0.76,1.26v0.88c0,0.82,0.67,1.48,1.48,1.48h0.03
				c0.82,0,1.48-0.67,1.48-1.48v-0.88c0-0.53,0.3-1,0.76-1.26c1.53-0.88,2.49-2.63,2.19-4.58c-0.28-1.81-1.68-3.31-3.47-3.69
				c-2.91-0.61-5.48,1.59-5.48,4.4C390,381.11,390.9,382.54,392.24,383.32z M409.78,398.13c-1.44-0.83-3.13-0.77-4.47,0
				c-0.46,0.26-1.02,0.29-1.47,0.03l-0.76-0.44c-0.71-0.41-1.62-0.16-2.03,0.54l-0.02,0.03c-0.41,0.71-0.17,1.62,0.54,2.03
				l0.76,0.44c0.46,0.26,0.71,0.76,0.71,1.29c0,1.76,1.03,3.47,2.87,4.19c1.7,0.66,3.71,0.2,4.93-1.16
				C412.84,402.86,412.21,399.53,409.78,398.13z M394.5,389.5c-2.76,0-5,2.24-5,5c0,2.76,2.24,5,5,5s5-2.24,5-5
				C399.5,391.74,397.26,389.5,394.5,389.5z M396.76,405.68c-0.46-0.27-0.76-0.74-0.76-1.26v-0.88c0-0.82-0.67-1.48-1.48-1.48h-0.03
				c-0.82,0-1.48,0.67-1.48,1.48v0.88c0,0.53-0.3,1-0.76,1.26c-1.53,0.88-2.49,2.63-2.19,4.58c0.28,1.81,1.68,3.31,3.47,3.69
				c2.91,0.61,5.48-1.59,5.48-4.4C399,407.89,398.1,406.46,396.76,405.68z"/>
		</g>
	</g>
	<g>
		<g>
			<path class="st0" d="M342.81,383.35l-2.52,2.52c1.69,2.46,2.67,5.42,2.67,8.63c0,3.2-0.99,6.17-2.67,8.63l2.52,2.52
				c2.31-3.12,3.69-6.97,3.69-11.15C346.5,390.32,345.12,386.48,342.81,383.35z"/>
			<path class="st0" d="M323.18,401.21h1.48c0.15,0,0.29-0.08,0.37-0.22l7.16-12.57c0.16-0.28-0.04-0.64-0.37-0.64h-1.48
				c-0.15,0-0.29,0.08-0.37,0.22l-7.16,12.57C322.65,400.86,322.86,401.21,323.18,401.21z M327.68,407.44
				c-7.15,0-12.94-5.79-12.94-12.94c0-7.15,5.79-12.94,12.94-12.94c3.51,0,6.69,1.4,9.02,3.67l5.82-5.82
				c-3.82-3.76-9.06-6.08-14.84-6.08c-11.7,0-21.18,9.48-21.18,21.18c0,11.7,9.48,21.18,21.18,21.18c5.78,0,11.02-2.32,14.84-6.08
				l-5.82-5.82C334.36,406.04,331.19,407.44,327.68,407.44z M326.39,391.02c0-1.87-1.52-3.39-3.39-3.39c-1.87,0-3.39,1.52-3.39,3.39
				c0,1.87,1.52,3.39,3.39,3.39C324.86,394.41,326.39,392.89,326.39,391.02z M321.47,391.02c0-0.84,0.68-1.52,1.52-1.52
				c0.84,0,1.52,0.68,1.52,1.52c0,0.84-0.68,1.52-1.52,1.52C322.15,392.54,321.47,391.86,321.47,391.02z M332.01,401.37
				c1.87,0,3.39-1.52,3.39-3.39c0-1.87-1.52-3.39-3.39-3.39c-1.87,0-3.39,1.52-3.39,3.39C328.61,399.85,330.14,401.37,332.01,401.37
				z M332.01,396.46c0.84,0,1.52,0.68,1.52,1.52c0,0.84-0.68,1.52-1.52,1.52c-0.84,0-1.52-0.68-1.52-1.52
				C330.48,397.14,331.16,396.46,332.01,396.46z"/>
		</g>
	</g>
	<g>
		<g>
			<path class="st0" d="M264.01,380.15l-5.47-5.47c-0.2-0.2-0.51-0.2-0.71,0l-5.47,5.47c-0.2,0.2-0.2,0.51,0,0.71l5.47,5.47
				c0.2,0.2,0.51,0.2,0.71,0l5.47-5.47C264.2,380.66,264.2,380.35,264.01,380.15z"/>
			<path class="st0" d="M247.68,398.82h21v3c0.49-0.1,0.99-0.15,1.5-0.15c0.51,0,1.01,0.05,1.5,0.15v-3.5c0-1.38-1.12-2.5-2.5-2.5
				h-9.5v-7.26c-0.45,0.26-0.96,0.41-1.5,0.41c-0.54,0-1.05-0.15-1.5-0.41v7.26h-9.5c-1.38,0-2.5,1.12-2.5,2.5v4h3V398.82z
				 M250.18,404.82h-8c-0.28,0-0.5,0.22-0.5,0.5v8c0,0.28,0.22,0.5,0.5,0.5h8c0.28,0,0.5-0.22,0.5-0.5v-8
				C250.68,405.05,250.45,404.82,250.18,404.82z M270.18,404.18c-2.84,0-5.15,2.3-5.15,5.15c0,2.84,2.3,5.15,5.15,5.15
				c2.84,0,5.15-2.3,5.15-5.15C275.32,406.48,273.02,404.18,270.18,404.18z"/>
		</g>
	</g>
	<g>
		<g>
			<g>
				<path class="st0" d="M199.69,409.04l-11.79-11.79c-0.09-0.09-0.15-0.22-0.15-0.35v-19.64c0-0.31-0.28-0.55-0.59-0.5
					c-10.22,1.77-17.49,12.14-14.05,23.39c1.66,5.43,5.82,9.62,11.22,11.37c5.64,1.83,11.03,0.91,15.27-1.7
					C199.88,409.66,199.92,409.27,199.69,409.04z"/>
				<path class="st0" d="M190.78,376.52c-0.29-0.02-0.53,0.22-0.53,0.51v18.62c0,0.13,0.05,0.26,0.15,0.35l11.26,11.26
					c0.19,0.19,0.51,0.2,0.71,0.01c3.31-3.26,5.38-7.78,5.38-12.8C207.75,384.88,200.24,377.06,190.78,376.52z"/>
			</g>
		</g>
	</g>
	<g>
		<g>
			<g>
				<path class="st0" d="M138.25,382.5h-11v-2c0-0.83-0.67-1.5-1.5-1.5s-1.5,0.67-1.5,1.5v28c0,0.83,0.67,1.5,1.5,1.5
					s1.5-0.67,1.5-1.5v-3h9c0.55,0,1-0.45,1-1v-4c0-0.55-0.45-1-1-1h-9V397h6c0.55,0,1-0.45,1-1v-4c0-0.55-0.45-1-1-1h-6v-2.5h11
					c0.55,0,1-0.45,1-1v-4C139.25,382.95,138.8,382.5,138.25,382.5z"/>
				<path class="st0" d="M114.75,400.5v4c0,0.55,0.45,1,1,1h6v-6h-6C115.2,399.5,114.75,399.95,114.75,400.5z M109.75,392v4
					c0,0.55,0.45,1,1,1h11v-6h-11C110.2,391,109.75,391.45,109.75,392z M106.75,382.5c-0.55,0-1,0.45-1,1v4c0,0.55,0.45,1,1,1h15v-6
					H106.75z"/>
			</g>
		</g>
	</g>
	<g>
		<g>
			<g>
				<path class="st0" d="M68.5,397.5H42V379c0-0.83-0.67-1.5-1.5-1.5S39,378.17,39,379v31c0,0.83,0.67,1.5,1.5,1.5s1.5-0.67,1.5-1.5
					v-9.5h3v9c0,0.55,0.45,1,1,1h4c0.55,0,1-0.45,1-1v-9h2.5v6c0,0.55,0.45,1,1,1h4c0.55,0,1-0.45,1-1v-6h9c0.83,0,1.5-0.67,1.5-1.5
					C70,398.17,69.33,397.5,68.5,397.5z"/>
				<path class="st0" d="M50,388h-4c-0.55,0-1,0.45-1,1v6h6v-6C51,388.45,50.55,388,50,388z M67,379h-4c-0.55,0-1,0.45-1,1v15h6v-15
					C68,379.45,67.55,379,67,379z M58.5,383h-4c-0.55,0-1,0.45-1,1v11h6v-11C59.5,383.45,59.05,383,58.5,383z"/>
			</g>
		</g>
	</g>
	<g>
		<g>
			<path class="st0" d="M385.75,311h-6c-1.1,0-2,0.9-2,2v11.5c0,1.1,0.9,2,2,2h6c1.1,0,2-0.9,2-2V313
				C387.75,311.9,386.85,311,385.75,311z M385.75,329h-6c-1.1,0-2,0.9-2,2v9c0,1.1,0.9,2,2,2h6c1.1,0,2-0.9,2-2v-9
				C387.75,329.9,386.85,329,385.75,329z M409.25,311h-17c-1.1,0-2,0.9-2,2v16c0,1.1,0.9,2,2,2h17c1.1,0,2-0.9,2-2v-16
				C411.25,311.9,410.35,311,409.25,311z M409.25,333.5h-6.5c-1.1,0-2,0.9-2,2v4c0,1.1,0.9,2,2,2h6.5c1.1,0,2-0.9,2-2v-4
				C411.25,334.4,410.35,333.5,409.25,333.5z"/>
			<path class="st0" d="M396.25,333.5h-4c-1.1,0-2,0.9-2,2v4c0,1.1,0.9,2,2,2h4c1.1,0,2-0.9,2-2v-4
				C398.25,334.4,397.35,333.5,396.25,333.5z"/>
		</g>
	</g>
	<g>
		<g>
			<path class="st0" d="M317.16,337.23l-2.7-12.59c-0.04-0.19-0.18-0.33-0.36-0.38l-6.47-1.66c-0.38-0.1-0.72,0.26-0.6,0.64
				l6.03,18.56c0.13,0.39,0.64,0.47,0.88,0.14l3.13-4.3C317.16,337.52,317.19,337.37,317.16,337.23z M328.11,312.63l9.48,9.48
				c0.12,0.12,0.3,0.17,0.47,0.13l6.4-1.57c0.41-0.1,0.52-0.64,0.17-0.89l-15.93-11.58c-0.33-0.24-0.8,0-0.79,0.41l0.05,3.67
				C327.96,312.42,328.02,312.54,328.11,312.63z M309.07,320.39l6.26,1.61c0.17,0.04,0.35-0.01,0.48-0.13l9.51-9.51
				c0.1-0.1,0.15-0.23,0.15-0.36l-0.05-3.52c-0.01-0.41-0.47-0.64-0.79-0.4L308.9,319.5C308.55,319.75,308.66,320.28,309.07,320.39z
				 M332.29,336.52c-0.11-0.17-0.32-0.25-0.52-0.21l-12.42,2.66c-0.12,0.03-0.23,0.1-0.3,0.19l-4.17,5.72
				c0.22,0.08,0.44,0.13,0.68,0.13h21.49c0.4,0,0.64-0.45,0.42-0.78L332.29,336.52z M345.38,323.03l-6.58,1.61
				c-0.15,0.04-0.27,0.14-0.34,0.28l-4.31,9.48c-0.07,0.16-0.06,0.34,0.04,0.49l4.91,7.31c0.23,0.35,0.76,0.27,0.89-0.12l5.98-18.4
				C346.09,323.29,345.76,322.93,345.38,323.03z"/>
			<path class="st0" d="M319.26,323.01l5.74,1.48c0.32,0.08,0.63-0.16,0.62-0.49l-0.1-7.12c-0.01-0.44-0.54-0.66-0.85-0.35
				l-5.64,5.64C318.76,322.45,318.88,322.91,319.26,323.01z M324.1,326.84l-6.21-1.6c-0.36-0.09-0.69,0.23-0.61,0.59l1.68,7.82
				c0.09,0.42,0.64,0.54,0.89,0.19l4.54-6.22C324.58,327.33,324.44,326.92,324.1,326.84z M328.74,324.53l5.34-1.31
				c0.38-0.09,0.51-0.56,0.23-0.84l-5.43-5.43c-0.32-0.32-0.86-0.09-0.85,0.36l0.09,6.74C328.13,324.37,328.43,324.61,328.74,324.53
				z M327.26,329.04c-0.19-0.29-0.61-0.3-0.82-0.02l-4.3,5.9c-0.27,0.37,0.06,0.88,0.51,0.78l7.23-1.55
				c0.35-0.07,0.51-0.47,0.31-0.77L327.26,329.04z M334.47,325.7l-4.84,1.19c-0.34,0.08-0.49,0.48-0.3,0.76l2.56,3.82
				c0.22,0.32,0.71,0.28,0.87-0.07l2.28-5.01C335.22,326.01,334.88,325.6,334.47,325.7z"/>
		</g>
	</g>
	<g>
		<g>
			<g>
				<g>
					<g>
						<path class="st0" d="M267.54,317.95l1,6.03c0.76-0.31,1.58-0.48,2.45-0.48c0.17,0,0.34,0.01,0.52,0.03l-1.06-6.39
							c0.94-0.73,1.55-1.86,1.55-3.14c0-2.21-1.79-4-4-4c-2.21,0-4,1.79-4,4C264,316.05,265.55,317.73,267.54,317.95z
							 M263.02,318.17c-0.64-0.77-1.11-1.68-1.34-2.68l-6.95,3.47l0,0l-6.1,3.05c-0.7-0.62-1.62-1.01-2.63-1.01c-2.21,0-4,1.79-4,4
							c0,2.21,1.79,4,4,4c2.21,0,4-1.79,4-4c0-0.11-0.02-0.2-0.03-0.31L263.02,318.17z M271,326c-2.21,0-4,1.79-4,4
							c0,0.21,0.03,0.41,0.06,0.61l-5.6,3.67c0.73,0.69,1.3,1.55,1.65,2.51l5.5-3.61c0.67,0.5,1.49,0.81,2.39,0.81
							c2.21,0,4-1.79,4-4C275,327.79,273.21,326,271,326z"/>
						<path class="st0" d="M257,335c-0.49,0-0.95,0.1-1.38,0.26l-4.53-6.23c-0.63,0.79-1.43,1.43-2.36,1.86l4.66,6.41
							c-0.25,0.52-0.4,1.09-0.4,1.71c0,2.21,1.79,4,4,4c2.21,0,4-1.79,4-4C261,336.79,259.21,335,257,335z"/>
					</g>
				</g>
			</g>
		</g>
	</g>
	<g>
		<g>
			<path class="st0" d="M188.25,327.75h-5.5c-3.59,0-6.5,2.91-6.5,6.5c0,3.59,2.91,6.5,6.5,6.5s6.5-2.91,6.5-6.5v-5.5
				C189.25,328.2,188.8,327.75,188.25,327.75z M180.75,307.25h-1c-4.69,0-8.5,3.81-8.5,8.5v1c0,4.69,3.81,8.5,8.5,8.5h8.5
				c0.55,0,1-0.45,1-1v-8.5C189.25,311.06,185.44,307.25,180.75,307.25z M201.25,327.75h-8.5c-0.55,0-1,0.45-1,1v8.5
				c0,4.69,3.81,8.5,8.5,8.5h1c4.69,0,8.5-3.81,8.5-8.5v-1C209.75,331.56,205.94,327.75,201.25,327.75z"/>
			<path class="st0" d="M205.66,316.75h-12.41c-0.83,0-1.5,0.67-1.5,1.5c0,0.83,0.67,1.5,1.5,1.5h12.41c0.83,0,1.5-0.67,1.5-1.5
				C207.16,317.42,206.49,316.75,205.66,316.75z M200.25,321.75h-7c-0.83,0-1.5,0.67-1.5,1.5c0,0.83,0.67,1.5,1.5,1.5h7
				c0.83,0,1.5-0.67,1.5-1.5C201.75,322.42,201.08,321.75,200.25,321.75z"/>
		</g>
	</g>
	<g>
		<g>
			<g>
				<path class="st0" d="M132.06,317.68c-0.19-0.21-0.53-0.21-0.73-0.01l-2.12,2.12c-0.19,0.19-0.19,0.49-0.01,0.69
					c3.24,3.6,3.06,9.17-0.51,12.56c-3.41,3.23-8.95,3.23-12.36,0c-3.58-3.39-3.75-8.96-0.51-12.56c0.18-0.2,0.18-0.5-0.01-0.69
					l-2.12-2.12c-0.2-0.2-0.53-0.2-0.73,0.01c-4.83,5.22-4.58,13.44,0.73,18.36c4.91,4.55,12.74,4.55,17.65,0
					C136.64,331.12,136.88,322.9,132.06,317.68z"/>
				<path class="st0" d="M116.53,325.97c-0.02,0.28,0.22,0.52,0.5,0.52h3.03c0.23,0,0.44-0.16,0.48-0.38
					c0.18-0.92,0.99-1.62,1.96-1.62c1.1,0,2,0.9,2,2c0,0.97-0.7,1.79-1.62,1.96c-0.23,0.04-0.38,0.25-0.38,0.48v3.03
					c0,0.29,0.24,0.53,0.52,0.5c3.48-0.3,6.11-3.57,5.34-7.27c-0.47-2.27-2.31-4.1-4.57-4.57
					C120.1,319.86,116.83,322.49,116.53,325.97z M141.99,326.5h-3c-0.27,0-0.48,0.22-0.49,0.49c-0.26,8.86-7.73,15.91-16.75,15.5
					c-8.15-0.37-14.85-7.08-15.23-15.23c-0.41-9.02,6.64-16.48,15.5-16.75c0.27-0.01,0.49-0.22,0.49-0.49v-3
					c0-0.28-0.23-0.52-0.52-0.51c-11.16,0.28-20.05,9.71-19.46,21.07c0.53,10.1,8.8,18.37,18.89,18.9
					c11.36,0.6,20.79-8.29,21.07-19.46C142.5,326.73,142.27,326.5,141.99,326.5z"/>
			</g>
		</g>
	</g>
	<g>
		<g>
			<path class="st0" d="M64.96,341.62c-1.73,0-3.22-1.29-3.46-3L61.12,336c-1.84,1.4-4.13,2.24-6.62,2.24
				c-3.35,0-6.34-1.51-8.35-3.87l0.67-0.38c0.36-0.21,0.32-0.74-0.06-0.9l-6.72-2.69c-0.3-0.12-0.63,0.07-0.68,0.39l-1.03,7.16
				c-0.06,0.41,0.38,0.71,0.74,0.5l0.94-0.55c3.28,4.44,8.54,7.33,14.49,7.33c4.07,0,7.82-1.37,10.83-3.66
				C65.21,341.59,65.09,341.62,64.96,341.62z"/>
			<path class="st0" d="M59,312.34l-5.69-4.47c-0.33-0.26-0.81-0.02-0.81,0.39v1.1c-9,1-16,8.61-16,17.87c0,0.76,0.06,1.5,0.15,2.23
				c0.55-1.25,1.79-2.11,3.2-2.11h0c0.45,0,0.89,0.08,1.3,0.25l2.44,0.98c-0.06-0.44-0.09-0.89-0.09-1.35c0-5.39,3.88-9.87,9-10.81
				v0.78c0,0.42,0.48,0.65,0.81,0.39l5.69-4.47C59.25,312.93,59.25,312.54,59,312.34z M70.98,334.44c0.97-2.21,1.52-4.64,1.52-7.2
				c0-7.45-4.54-13.81-10.99-16.55c0.43,0.59,0.68,1.3,0.68,2.05c0,1.08-0.49,2.08-1.34,2.75l-2.07,1.63
				c3.94,1.67,6.72,5.57,6.72,10.12c0,1.29-0.24,2.52-0.64,3.67l-0.67-0.39c-0.36-0.21-0.8,0.09-0.75,0.5l1.03,7.16
				c0.05,0.32,0.38,0.51,0.68,0.39l6.72-2.69c0.39-0.16,0.43-0.69,0.06-0.9L70.98,334.44z"/>
		</g>
	</g>
	<g>
		<g>
			<path class="st0" d="M409.5,264H403c-0.28,0-0.5,0.22-0.5,0.5v5c0,0.28,0.22,0.5,0.5,0.5h6.5c0.55,0,1-0.45,1-1v-4
				C410.5,264.45,410.05,264,409.5,264z M399,253h5.5c0.55,0,1-0.45,1-1v-4c0-0.55-0.45-1-1-1H399c-0.28,0-0.5,0.22-0.5,0.5v5
				C398.5,252.78,398.73,253,399,253z M402.5,256.5c0-0.55-0.45-1-1-1H395c-0.28,0-0.5,0.22-0.5,0.5v5c0,0.28,0.22,0.5,0.5,0.5h6.5
				c0.55,0,1-0.45,1-1V256.5z"/>
			<path class="st0" d="M399.5,264H384v6h15.5c0.28,0,0.5-0.22,0.5-0.5v-5C400,264.22,399.78,264,399.5,264z M392,261v-5
				c0-0.28-0.22-0.5-0.5-0.5H384v6h7.5C391.78,261.5,392,261.28,392,261z M396,252.5v-5c0-0.28-0.22-0.5-0.5-0.5H384v6h11.5
				C395.78,253,396,252.78,396,252.5z M380,243.5c-0.83,0-1.5,0.67-1.5,1.5v27c0,0.83,0.67,1.5,1.5,1.5c0.83,0,1.5-0.67,1.5-1.5v-27
				C381.5,244.17,380.83,243.5,380,243.5z"/>
		</g>
	</g>
	<g>
		<g>
			<path class="st0" d="M334,241.5h-15c-0.55,0-1,0.45-1,1v7c0,0.55,0.45,1,1,1h15c0.55,0,1-0.45,1-1v-7
				C335,241.95,334.55,241.5,334,241.5z"/>
			<path class="st0" d="M344,266.5h-4V261c0-1.38-1.12-2.5-2.5-2.5H328V253h-3v5.5h-9.5c-1.38,0-2.5,1.12-2.5,2.5v5.5h-4
				c-0.55,0-1,0.45-1,1v7c0,0.55,0.45,1,1,1h11c0.55,0,1-0.45,1-1v-7c0-0.55-0.45-1-1-1h-4v-5h21v5h-4c-0.55,0-1,0.45-1,1v7
				c0,0.55,0.45,1,1,1h11c0.55,0,1-0.45,1-1v-7C345,266.95,344.55,266.5,344,266.5z"/>
		</g>
	</g>
	<g>
		<g>
			<path class="st0" d="M271.35,262.46l-4.88-8.44c-0.09-0.16-0.27-0.26-0.46-0.26h-15.02c-0.19,0-0.36,0.1-0.46,0.26l-4.88,8.44
				c-0.2,0.35,0.05,0.79,0.46,0.79h24.79C271.3,263.25,271.55,262.81,271.35,262.46z"/>
			<path class="st0" d="M253.44,251.25h10.12c0.41,0,0.66-0.44,0.46-0.79l-5.06-8.76c-0.2-0.35-0.71-0.35-0.91,0l-5.06,8.76
				C252.78,250.81,253.03,251.25,253.44,251.25z M278.08,274.81l-5.09-8.81c-0.09-0.15-0.25-0.25-0.43-0.25h-28.11
				c-0.18,0-0.34,0.1-0.43,0.25l-5.09,8.81c-0.19,0.33,0.05,0.75,0.43,0.75h38.29C278.03,275.56,278.27,275.14,278.08,274.81z"/>
		</g>
	</g>
	<g>
		<g>
			<path class="st0" d="M192.4,247.65h-8.04v-2.5c0-0.28-0.22-0.5-0.5-0.5h-8c-0.28,0-0.5,0.22-0.5,0.5v8c0,0.28,0.22,0.5,0.5,0.5h8
				c0.28,0,0.5-0.22,0.5-0.5v-2.5h7.84c-0.2-0.41-0.32-0.85-0.32-1.32C191.88,248.72,192.06,248.14,192.4,247.65z"/>
			<path class="st0" d="M181.36,265.16v-9.01h-3v9.01l-4.62,7.73c-0.2,0.33,0.04,0.76,0.43,0.76h11.37c0.39,0,0.63-0.42,0.43-0.76
				L181.36,265.16z M206.18,248.97l-5.47-5.47c-0.2-0.2-0.51-0.2-0.71,0l-5.47,5.47c-0.2,0.2-0.2,0.51,0,0.71l4.33,4.33v8.3
				c0.48-0.11,0.98-0.17,1.5-0.17c0.52,0,1.02,0.06,1.5,0.17v-8.3l4.33-4.33C206.38,249.49,206.38,249.17,206.18,248.97z
				 M200.36,264.65c-1.96,0-3.6,1.26-4.22,3h-10.38l1.79,3h8.59c0.62,1.74,2.27,3,4.22,3c2.49,0,4.5-2.01,4.5-4.5l0,0
				C204.86,266.66,202.84,264.65,200.36,264.65z"/>
		</g>
	</g>
	<g>
		<g>
			<path class="st0" d="M121.19,254.57c0-2.19-1.78-3.97-3.97-3.97c-2.19,0-3.98,1.78-3.98,3.97c0,2.19,1.78,3.97,3.98,3.97
				C119.41,258.54,121.19,256.76,121.19,254.57z M115.43,254.57c0-0.98,0.8-1.79,1.79-1.79c0.99,0,1.79,0.8,1.79,1.79
				c0,0.98-0.8,1.79-1.79,1.79C116.23,256.35,115.43,255.55,115.43,254.57z M127.78,258.75c-2.19,0-3.97,1.78-3.97,3.97
				c0,2.19,1.78,3.98,3.97,3.98c2.19,0,3.98-1.78,3.98-3.98C131.76,260.54,129.97,258.75,127.78,258.75z M127.78,264.52
				c-0.99,0-1.79-0.8-1.79-1.79c0-0.98,0.8-1.79,1.79-1.79c0.99,0,1.79,0.8,1.79,1.79C129.57,263.71,128.77,264.52,127.78,264.52z
				 M127.56,250.78h-1.73c-0.18,0-0.35,0.1-0.43,0.25L117,265.77c-0.19,0.33,0.05,0.75,0.43,0.75h1.73c0.18,0,0.35-0.1,0.43-0.25
				l8.39-14.74C128.19,251.19,127.95,250.78,127.56,250.78z"/>
			<path class="st0" d="M122.5,239.9c-10.27,0-18.6,8.33-18.6,18.6c0,10.27,8.33,18.6,18.6,18.6s18.6-8.33,18.6-18.6
				C141.1,248.23,132.77,239.9,122.5,239.9z M122.5,273.37c-8.21,0-14.87-6.66-14.87-14.87c0-8.21,6.66-14.87,14.87-14.87
				s14.87,6.66,14.87,14.87C137.37,266.71,130.71,273.37,122.5,273.37z"/>
		</g>
	</g>
	<g>
		<g>
			<path class="st0" d="M60.33,268.96c-0.16-0.17-0.41-0.2-0.61-0.07c-1.8,1.1-3.94,1.71-6.24,1.6c-5.41-0.25-9.95-4.58-10.43-9.98
				c-0.49-5.52,3.09-10.27,8.08-11.62c0.22-0.06,0.37-0.25,0.37-0.48v-6.14c0-0.31-0.28-0.55-0.59-0.5
				c-10.22,1.77-17.49,12.14-14.05,23.4c1.52,4.98,6.74,10.09,11.73,11.55c5.95,1.74,11.63,0.48,15.91-2.6
				c0.24-0.17,0.27-0.53,0.06-0.74C63.61,272.37,61.14,269.83,60.33,268.96z M69.6,248.73c-0.18-0.25-0.55-0.28-0.77-0.06
				l-3.31,3.31l-1.76,1.72c-0.16,0.16-0.19,0.4-0.09,0.59c0.84,1.55,1.33,3.32,1.33,5.21c0,2.79-1.04,5.33-2.76,7.27
				c-0.18,0.2-0.17,0.49,0.01,0.68l4.96,4.96c0.2,0.2,0.53,0.2,0.73-0.01c3.14-3.39,5.06-7.92,5.06-12.9
				C73,255.49,71.73,251.79,69.6,248.73z"/>
			<path class="st0" d="M68.01,245.24c-3.49-3.44-8.24-5.6-13.49-5.74c-0.28-0.01-0.52,0.23-0.52,0.51v10.01
				c0,0.27,0.21,0.48,0.48,0.49c2.22,0.12,4.22,1.04,5.72,2.48c0.2,0.19,0.5,0.2,0.69,0.01l2.88-2.8l4.23-4.23
				C68.21,245.76,68.21,245.44,68.01,245.24z"/>
		</g>
	</g>
	<g>
		<g>
			<path class="st0" d="M412.5,202H378v-24.5c0-0.83-0.67-1.5-1.5-1.5s-1.5,0.67-1.5,1.5v26c0,0.83,0.67,1.5,1.5,1.5h36
				c0.83,0,1.5-0.67,1.5-1.5C414,202.67,413.33,202,412.5,202z"/>
			<path class="st0" d="M410.76,186.98c-3.02-1.14-3.57-9.49-8.15-9.49c-5.39,0-4.28,13.08-7.94,13.08c-3.66,0-3.66-6.23-7.33-6.23
				c-3.4,0-3.26,5.71-6.16,6.52c-0.41,0.12-0.72,0.46-0.72,0.89v6.77c0,0.54,0.44,0.98,0.98,0.98h29.04c0.54,0,0.98-0.44,0.98-0.98
				v-10.6C411.46,187.48,411.16,187.13,410.76,186.98z"/>
		</g>
	</g>
	<g>
		<g>
			<g>
				<path class="st0" d="M329,192.91c0-0.55-0.45-1-1-1h-4c-0.55,0-1,0.45-1,1v8h6V192.91z M337.5,188.91c0-0.55-0.45-1-1-1h-4
					c-0.55,0-1,0.45-1,1v12h6V188.91z M320.5,185.91c0-0.55-0.45-1-1-1h-4c-0.55,0-1,0.45-1,1v15h6V185.91z M341.5,203.5h-30
					c-0.83,0-1.5,0.67-1.5,1.5c0,0.83,0.67,1.5,1.5,1.5h30c0.83,0,1.5-0.67,1.5-1.5C343,204.17,342.33,203.5,341.5,203.5z"/>
				<path class="st0" d="M339.81,179.3c-0.1-0.72-0.99-1.02-1.51-0.5l-0.78,0.78l-4.57-3.74c-0.56-0.46-1.37-0.45-1.93,0.02
					l-6.09,5.22l-8.54-6.29c-0.66-0.49-1.6-0.35-2.1,0.32c-0.49,0.67-0.35,1.61,0.32,2.1l9.5,7c0.27,0.2,0.58,0.29,0.89,0.29
					c0.35,0,0.7-0.12,0.98-0.36l6.05-5.18l3.37,2.76l-0.94,0.94c-0.52,0.52-0.22,1.4,0.5,1.51l4.5,0.64c0.59,0.08,1.09-0.42,1-1
					L339.81,179.3z"/>
			</g>
		</g>
	</g>
	<g>
		<g>
			<g>
				<path class="st0" d="M247.79,184.49h-4c-0.55,0-1,0.45-1,1v3.5c0,0.28,0.22,0.5,0.5,0.5h5c0.28,0,0.5-0.22,0.5-0.5v-3.5
					C248.79,184.94,248.34,184.49,247.79,184.49z M256.29,177.49h-4c-0.55,0-1,0.45-1,1v6.5c0,0.28,0.22,0.5,0.5,0.5h5
					c0.28,0,0.5-0.22,0.5-0.5v-6.5C257.29,177.94,256.84,177.49,256.29,177.49z M264.71,181.49h-4c-0.55,0-1,0.45-1,1v6.5
					c0,0.28,0.22,0.5,0.5,0.5h5c0.28,0,0.5-0.22,0.5-0.5v-6.5C265.71,181.94,265.26,181.49,264.71,181.49z M273.21,174.49h-4
					c-0.55,0-1,0.45-1,1v3.5c0,0.28,0.22,0.5,0.5,0.5h5c0.28,0,0.5-0.22,0.5-0.5v-3.5C274.21,174.94,273.76,174.49,273.21,174.49z"
					/>
				<path class="st0" d="M265.71,192.49c0-0.28-0.22-0.5-0.5-0.5h-5c-0.28,0-0.5,0.22-0.5,0.5v8.5h6V192.49z M274.21,182.49
					c0-0.28-0.22-0.5-0.5-0.5h-5c-0.28,0-0.5,0.22-0.5,0.5v18.5h6V182.49z M276.5,203.51h-36c-0.83,0-1.5,0.67-1.5,1.5
					c0,0.83,0.67,1.5,1.5,1.5h36c0.83,0,1.5-0.67,1.5-1.5C278,204.18,277.33,203.51,276.5,203.51z M257.29,188.49
					c0-0.28-0.22-0.5-0.5-0.5h-5c-0.28,0-0.5,0.22-0.5,0.5v12.5h6V188.49z M248.79,192.49c0-0.28-0.22-0.5-0.5-0.5h-5
					c-0.28,0-0.5,0.22-0.5,0.5v8.5h6V192.49z"/>
			</g>
		</g>
	</g>
	<g>
		<g>
			<g>
				<path class="st0" d="M201.76,197.19c-0.31,0.33-0.8,0.42-1.2,0.21l-13.6-7.14c-0.3-0.16-0.65-0.15-0.95,0.01l-9.53,5.24v3
					c0,0.55,0.45,1,1,1h29c0.55,0,1-0.45,1-1V191L201.76,197.19z"/>
				<path class="st0" d="M186.5,187.64c0.56,0,1.13,0.14,1.63,0.4l12.58,6.61l4.95-5.34l1.33-1.44v-1.22c0-0.39-0.23-0.74-0.58-0.91
					l-12.02-5.55c-0.25-0.12-0.55-0.12-0.8-0.02l-11.01,4.59c-0.36,0.15-0.77,0.08-1.06-0.18l-3.36-3.05
					c-0.64-0.58-1.67-0.13-1.67,0.74v10.39l8.32-4.58C185.32,187.79,185.91,187.64,186.5,187.64z M208.5,202H174v-24.5
					c0-0.83-0.67-1.5-1.5-1.5s-1.5,0.67-1.5,1.5v26c0,0.83,0.67,1.5,1.5,1.5h36c0.83,0,1.5-0.67,1.5-1.5
					C210,202.67,209.33,202,208.5,202z"/>
			</g>
		</g>
	</g>
	<g>
		<g>
			<g>
				<path class="st0" d="M128.75,186.25h-4c-0.55,0-1,0.45-1,1v11h6v-11C129.75,186.7,129.3,186.25,128.75,186.25z"/>
				<path class="st0" d="M138.25,178.25c0-0.55-0.45-1-1-1h-4c-0.55,0-1,0.45-1,1v20h6V178.25z M121.25,182.25c0-0.55-0.45-1-1-1h-4
					c-0.55,0-1,0.45-1,1v16h6V182.25z M140.5,200.75h-36c-0.83,0-1.5,0.67-1.5,1.5c0,0.83,0.67,1.5,1.5,1.5h36
					c0.83,0,1.5-0.67,1.5-1.5C142,201.42,141.33,200.75,140.5,200.75z M112.75,189.25c0-0.55-0.45-1-1-1h-4c-0.55,0-1,0.45-1,1v9h6
					V189.25z"/>
			</g>
		</g>
	</g>
	<g>
		<g>
			<path class="st0" d="M59,181.71h-6c-0.55,0-1,0.45-1,1v4.81c0,0.55,0.45,1,1,1h1.75v9.68c0,0.69,0.56,1.25,1.25,1.25
				s1.25-0.56,1.25-1.25v-9.68H59c0.55,0,1-0.45,1-1v-4.81C60,182.16,59.55,181.71,59,181.71z"/>
			<path class="st0" d="M63,195h6c0.55,0,1-0.45,1-1v-6.29c0-0.55-0.45-1-1-1h-1.75V181c0-0.69-0.56-1.25-1.25-1.25
				s-1.25,0.56-1.25,1.25v5.71H63c-0.55,0-1,0.45-1,1V194C62,194.55,62.45,195,63,195z M72.5,202H38v-24.5c0-0.83-0.67-1.5-1.5-1.5
				s-1.5,0.67-1.5,1.5v26c0,0.83,0.67,1.5,1.5,1.5h36c0.83,0,1.5-0.67,1.5-1.5C74,202.67,73.33,202,72.5,202z M42,190.76h1.75v3.44
				c0,0.69,0.56,1.25,1.25,1.25s1.25-0.56,1.25-1.25v-3.44H48c0.55,0,1-0.45,1-1V184c0-0.55-0.45-1-1-1h-1.75v-5
				c0-0.69-0.56-1.25-1.25-1.25s-1.25,0.56-1.25,1.25v5H42c-0.55,0-1,0.45-1,1v5.76C41,190.31,41.45,190.76,42,190.76z"/>
		</g>
	</g>
	<g>
		<g>
			<g>
				<path class="st0" d="M397,119.5c0-0.55-0.45-1-1-1h-4c-0.55,0-1,0.45-1,1v14h6V119.5z M405.5,121.5c0-0.55-0.45-1-1-1h-4
					c-0.55,0-1,0.45-1,1v12h6V121.5z M409.5,136h-30c-0.83,0-1.5,0.67-1.5,1.5c0,0.83,0.67,1.5,1.5,1.5h30c0.83,0,1.5-0.67,1.5-1.5
					C411,136.67,410.33,136,409.5,136z M388.5,124.5c0-0.55-0.45-1-1-1h-4c-0.55,0-1,0.45-1,1v9h6V124.5z"/>
				<path class="st0" d="M406.95,106.01l-4.5,0.64c-0.72,0.1-1.02,0.99-0.5,1.51l1.04,1.04l-3.63,3.63l-5.96-4.52
					c-0.55-0.42-1.32-0.4-1.86,0.04l-9.5,7.81c-0.64,0.53-0.73,1.47-0.21,2.11c0.3,0.36,0.73,0.55,1.16,0.55
					c0.33,0,0.67-0.11,0.95-0.34l8.59-7.06l6.06,4.59c0.6,0.45,1.44,0.4,1.97-0.13l4.55-4.55l0.69,0.69c0.52,0.52,1.4,0.22,1.51-0.5
					l0.64-4.5C408.04,106.43,407.54,105.93,406.95,106.01z"/>
			</g>
		</g>
	</g>
	<g>
		<g>
			<path class="st0" d="M336,123c1.66,0,3-1.34,3-3c0-1.66-1.34-3-3-3s-3,1.34-3,3C333,121.66,334.34,123,336,123z M326,125
				c1.66,0,3-1.34,3-3c0-1.66-1.34-3-3-3s-3,1.34-3,3C323,123.66,324.34,125,326,125z M316.5,130.5c1.66,0,3-1.34,3-3
				c0-1.66-1.34-3-3-3s-3,1.34-3,3C313.5,129.16,314.84,130.5,316.5,130.5z M344.5,134H310v-24.5c0-0.83-0.67-1.5-1.5-1.5
				s-1.5,0.67-1.5,1.5v26c0,0.83,0.67,1.5,1.5,1.5h36c0.83,0,1.5-0.67,1.5-1.5C346,134.67,345.33,134,344.5,134z M317,121
				c1.66,0,3-1.34,3-3c0-1.66-1.34-3-3-3s-3,1.34-3,3C314,119.66,315.34,121,317,121z"/>
			<circle class="st0" cx="327" cy="112" r="3"/>
		</g>
	</g>
	<g>
		<g>
			<g>
				<path class="st0" d="M276.5,134H242v-24.5c0-0.83-0.67-1.5-1.5-1.5s-1.5,0.67-1.5,1.5v26c0,0.83,0.67,1.5,1.5,1.5h36
					c0.83,0,1.5-0.67,1.5-1.5C278,134.67,277.33,134,276.5,134z"/>
				<path class="st0" d="M274,118.86c-0.71,0-1.26-1-2.03-2.52c-0.94-1.86-2.1-4.17-4.71-4.17c-3.84,0-5.36,5.14-6.71,9.68
					c-0.54,1.81-1.43,4.81-2.09,5.36c-0.66-0.09-1.2-1.06-1.93-2.51c-0.94-1.86-2.1-4.17-4.71-4.17c-2.61,0-3.77,2.31-4.71,4.17
					c-0.77,1.52-1.32,2.52-2.03,2.52c-0.83,0-1.5,0.67-1.5,1.5c0,0.83,0.67,1.5,1.5,1.5c2.61,0,3.77-2.31,4.71-4.17
					c0.77-1.52,1.32-2.52,2.03-2.52c0.71,0,1.26,1,2.03,2.52c0.94,1.86,2.1,4.17,4.71,4.17c2.64,0,3.67-3.48,4.87-7.51
					c0.89-3,2.24-7.53,3.84-7.53c0.71,0,1.26,1,2.03,2.52c0.93,1.86,2.1,4.17,4.71,4.17c0.83,0,1.5-0.67,1.5-1.5
					C275.5,119.53,274.83,118.86,274,118.86z"/>
			</g>
		</g>
	</g>
	<g>
		<g>
			<path class="st0" d="M177.31,127.57c-0.59,0.59-0.59,1.54,0,2.12c0.29,0.29,0.68,0.44,1.06,0.44c0.38,0,0.77-0.15,1.06-0.44
				l5.8-5.8l-2.12-2.12L177.31,127.57z M204.95,112.05l-4.5,0.64c-0.72,0.1-1.02,0.99-0.5,1.51l0.76,0.76l-4.77,4.13l-4.01-4.01
				c-0.59-0.59-1.54-0.59-2.12,0l-1.04,1.04l6.04,6.08c0.56,0.56,1.45,0.59,2.04,0.07l5.99-5.19l0.97,0.97
				c0.52,0.52,1.4,0.22,1.51-0.5l0.64-4.5C206.04,112.46,205.54,111.96,204.95,112.05z"/>
			<path class="st0" d="M208.5,134H174v-6.9c0.02-0.02,0.04-0.02,0.06-0.04l8.94-8.94l12.94,12.94c0.29,0.29,0.68,0.44,1.06,0.44
				c0.34,0,0.69-0.12,0.97-0.35l6.5-5.5c0.63-0.54,0.71-1.48,0.18-2.11c-0.54-0.63-1.48-0.71-2.11-0.18l-5.45,4.61l-13.02-13.02
				c-0.59-0.59-1.54-0.59-2.12,0l-7.94,7.94V109.5c0-0.83-0.67-1.5-1.5-1.5s-1.5,0.67-1.5,1.5v26c0,0.83,0.67,1.5,1.5,1.5h36
				c0.83,0,1.5-0.67,1.5-1.5C210,134.67,209.33,134,208.5,134z"/>
		</g>
	</g>
	<g>
		<g>
			<g>
				<path class="st0" d="M136.29,110.57c-1.17,0.23-2.16,1.1-2.57,2.23c-0.37,1-0.24,1.93,0.14,2.71l-4.03,4.99
					c-0.49,0.61-0.43,1.5,0.15,2.01c0.01,0.01,0.02,0.01,0.02,0.02c0.64,0.58,1.62,0.52,2.16-0.15l4.03-4.99
					c0.91,0.22,1.92,0.18,3.17-0.99c0.66-0.62,1.14-1.48,1.14-2.39C140.51,111.84,138.54,110.13,136.29,110.57z"/>
				<path class="st0" d="M113,127.5c1.93,0,3.5-1.57,3.5-3.5c0-0.27-0.04-0.53-0.09-0.78l2.82-2.82c0.25,0.06,0.51,0.09,0.78,0.09
					c0.28,0,0.54-0.04,0.8-0.1l2.58,4.3c-0.54,0.62-0.88,1.41-0.88,2.3c0,1.93,1.57,3.5,3.5,3.5s3.5-1.57,3.5-3.5
					c0-1.88-1.48-3.39-3.33-3.48l-3.01-5.02c0.22-0.45,0.35-0.96,0.35-1.49c0-1.93-1.57-3.5-3.5-3.5s-3.5,1.57-3.5,3.5
					c0,0.55,0.14,1.06,0.36,1.52l-2.34,2.34c-0.46-0.23-0.98-0.36-1.52-0.36c-1.93,0-3.5,1.57-3.5,3.5S111.07,127.5,113,127.5z
					 M140.5,134H106v-24.5c0-0.83-0.67-1.5-1.5-1.5s-1.5,0.67-1.5,1.5v26c0,0.83,0.67,1.5,1.5,1.5h36c0.83,0,1.5-0.67,1.5-1.5
					C142,134.67,141.33,134,140.5,134z"/>
			</g>
		</g>
	</g>
	<g>
		<g>
			<path class="st0" d="M58.25,119.5h-12v6h12c0.55,0,1-0.45,1-1v-4C59.25,119.95,58.8,119.5,58.25,119.5z"/>
			<path class="st0" d="M42.25,107.5c-0.83,0-1.5,0.67-1.5,1.5v27c0,0.83,0.67,1.5,1.5,1.5c0.83,0,1.5-0.67,1.5-1.5v-27
				C43.75,108.17,43.08,107.5,42.25,107.5z M67.25,111h-21v6h21c0.55,0,1-0.45,1-1v-4C68.25,111.45,67.8,111,67.25,111z M62.25,128
				h-16v6h16c0.55,0,1-0.45,1-1v-4C63.25,128.45,62.8,128,62.25,128z"/>
		</g>
	</g>
</g>
<g id="title">
</g>
</svg>
