<?xml version="1.0" encoding="utf-8"?>
<!-- Generator: Adobe Illustrator 24.1.1, SVG Export Plug-In . SVG Version: 6.00 Build 0)  -->
<svg version="1.1" xmlns="http://www.w3.org/2000/svg" x="0px" y="0px"
     viewBox="0 0 448 448" style="enable-background:new 0 0 448 448;" xml:space="preserve">
<style type="text/css">
	.st0{fill:#173042;}
</style>
<g id="grid">
</g>
<g id="icons">
	<g>
		<g>
			<path class="st0" d="M409,378.26h-4c-1.1,0-2,0.9-2,2c0,1.1-0.9,2-2,2s-2-0.9-2-2c0-1.1-0.9-2-2-2h-5c-1.1,0-2,0.9-2,2
				c0,1.1-0.9,2-2,2s-2-0.9-2-2c0-1.1-0.9-2-2-2h-4c-1.1,0-2,0.9-2,2v23c0,1.1,0.9,2,2,2h29c1.1,0,2-0.9,2-2v-23
				C411,379.15,410.1,378.26,409,378.26z M386.64,387.35c1.6,0,2.89,1.3,2.89,2.89s-1.3,2.89-2.89,2.89c-1.6,0-2.89-1.3-2.89-2.89
				S385.04,387.35,386.64,387.35z M391.5,398.63c0,0.4-0.3,0.72-0.67,0.72h-8.39c-0.37,0-0.67-0.32-0.67-0.72v-0.68
				c0-1.3,0.98-2.36,2.19-2.36h5.35c1.21,0,2.19,1.06,2.19,2.36V398.63z M405,398.01h-9c-0.69,0-1.25-0.56-1.25-1.25
				s0.56-1.25,1.25-1.25h9c0.69,0,1.25,0.56,1.25,1.25S405.69,398.01,405,398.01z M405,393.01h-9c-0.69,0-1.25-0.56-1.25-1.25
				s0.56-1.25,1.25-1.25h9c0.69,0,1.25,0.56,1.25,1.25S405.69,393.01,405,393.01z"/>
			<path class="st0" d="M408,407.74h-28c-0.83,0-1.5,0.67-1.5,1.5c0,0.83,0.67,1.5,1.5,1.5h28c0.83,0,1.5-0.67,1.5-1.5
				C409.5,408.42,408.83,407.74,408,407.74z"/>
		</g>
	</g>
	<g>
		<g>
			<path class="st0" d="M338,393h-1.5c-0.83,0-1.5,0.67-1.5,1.5c0,0.83,0.67,1.5,1.5,1.5h1.5c0.83,0,1.5-0.67,1.5-1.5
				C339.5,393.67,338.83,393,338,393z M326.5,403c-0.83,0-1.5,0.67-1.5,1.5v1.5c0,0.83,0.67,1.5,1.5,1.5s1.5-0.67,1.5-1.5v-1.5
				C328,403.67,327.33,403,326.5,403z M316.5,393H315c-0.83,0-1.5,0.67-1.5,1.5c0,0.83,0.67,1.5,1.5,1.5h1.5
				c0.83,0,1.5-0.67,1.5-1.5C318,393.67,317.33,393,316.5,393z M326.5,381.5c-0.83,0-1.5,0.67-1.5,1.5v1.5c0,0.83,0.67,1.5,1.5,1.5
				s1.5-0.67,1.5-1.5V383C328,382.17,327.33,381.5,326.5,381.5z"/>
			<path class="st0" d="M326.5,375c-10.77,0-19.5,8.73-19.5,19.5c0,10.77,8.73,19.5,19.5,19.5c10.77,0,19.5-8.73,19.5-19.5
				C346,383.73,337.27,375,326.5,375z M326.5,409c-8,0-14.5-6.5-14.5-14.5c0-8,6.5-14.5,14.5-14.5c8,0,14.5,6.5,14.5,14.5
				C341,402.5,334.5,409,326.5,409z M333.04,386.16l-5.91,5.91c-0.2-0.04-0.41-0.07-0.63-0.07c-0.32,0-0.62,0.06-0.9,0.15
				l-4.58-4.58c-0.59-0.59-1.54-0.59-2.12,0c-0.59,0.59-0.59,1.54,0,2.12l4.67,4.67c-0.04,0.2-0.07,0.41-0.07,0.63
				c0,1.66,1.34,3,3,3s3-1.34,3-3c0-0.32-0.06-0.62-0.15-0.9l5.81-5.81c0.59-0.59,0.59-1.54,0-2.12
				C334.58,385.58,333.63,385.58,333.04,386.16z"/>
		</g>
	</g>
	<g>
		<g>
			<path class="st0" d="M270.42,396.77l-2.27-2.67c-1.46-1.72-1.24-3.13-1.18-5.37c0.01-0.46-0.29-0.87-0.73-1l-2.63-0.75
				c-0.54-0.15-1.11,0.16-1.24,0.7c-0.44,1.9-2.01,3.7-3.88,3.7c-1.88,0-3.45-1.77-3.88-3.65c-0.12-0.54-0.69-0.85-1.22-0.71
				l-2.66,0.71c-0.45,0.12-0.76,0.54-0.74,1c0.06,2.08,0.25,3.69-1.18,5.38l-2.28,2.7c-1.05,1.24-1.63,2.82-1.63,4.45v5.67
				c0,1.57,1.28,2.85,2.85,2.85h21.43c1.61,0,2.92-1.31,2.92-2.92v-5.53C272.1,399.67,271.5,398.05,270.42,396.77z M258.5,404.78
				c-2.71,0-4.91-2.2-4.91-4.91c0-2.71,2.2-4.91,4.91-4.91c2.71,0,4.91,2.2,4.91,4.91C263.41,402.58,261.21,404.78,258.5,404.78z"/>
			<path class="st0" d="M276.21,384.41c-3.69-3.07-10.54-5.22-17.71-5.22c-7.17,0-14.03,2.15-17.71,5.22
				c-1.26,1.05-2.06,4.4-0.93,6.61c0.82,1.6,1.8,2.28,3.54,1.75l2.9-1.19c1.14-0.29,1.42-1.03,1.18-2.31
				c-0.53-2.83,0.26-3.73,2.8-4.38c2.37-0.6,5.66-0.67,8.21-0.67c2.55,0,5.84,0.07,8.21,0.67c2.54,0.65,3.33,1.55,2.8,4.38
				c-0.24,1.29,0.05,2.02,1.18,2.31l2.9,1.19c1.74,0.53,2.71-0.15,3.54-1.75C278.28,388.82,277.48,385.46,276.21,384.41z"/>
		</g>
	</g>
	<g>
		<g>
			<path class="st0" d="M207.5,390.64h-34c-1.1,0-2,0.9-2,2v17c0,1.1,0.9,2,2,2h34c1.1,0,2-0.9,2-2v-17
				C209.5,391.53,208.6,390.64,207.5,390.64z M182.24,406.78h-5.25c-0.49,0-0.94-0.29-1.14-0.74c-0.2-0.45-0.12-0.97,0.2-1.34
				l3.33-3.77c0.45-0.49,1.12-1.24,1.12-1.7c0-0.47-0.1-0.84-0.29-1.04c-0.16-0.17-0.38-0.2-0.54-0.2c-0.45,0-1.07,0.31-1.07,0.89
				c0,0.69-0.56,1.25-1.25,1.25c-0.69,0-1.25-0.56-1.25-1.25c0-2.09,1.85-3.39,3.57-3.39c0.91,0,1.74,0.34,2.34,0.97
				c0.45,0.47,0.99,1.33,0.99,2.77c0,1.43-1.02,2.56-1.77,3.38l-1.47,1.66h2.48c0.69,0,1.25,0.56,1.25,1.25
				S182.94,406.78,182.24,406.78z M190.77,404.27v1.26c0,0.69-0.56,1.25-1.25,1.25c-0.69,0-1.25-0.56-1.25-1.25v-1.14h-3.64
				c-0.48,0-0.92-0.27-1.12-0.7c-0.21-0.43-0.15-0.94,0.14-1.32l4.89-6.2c0.02-0.02,0.04-0.03,0.06-0.05
				c0.06-0.06,0.13-0.11,0.2-0.17c0.06-0.05,0.12-0.09,0.19-0.13c0.07-0.03,0.14-0.05,0.21-0.07c0.09-0.02,0.17-0.05,0.26-0.05
				c0.02,0,0.05-0.01,0.07-0.01c0.05,0,0.1,0.02,0.15,0.03c0.09,0.01,0.17,0.02,0.25,0.05c0.08,0.03,0.15,0.07,0.23,0.11
				c0.05,0.03,0.1,0.04,0.14,0.07c0.02,0.02,0.03,0.04,0.05,0.06c0.07,0.06,0.11,0.13,0.17,0.2c0.05,0.06,0.09,0.12,0.13,0.19
				c0.03,0.07,0.05,0.14,0.07,0.22c0.02,0.08,0.05,0.17,0.05,0.25c0,0.02,0.01,0.05,0.01,0.07v5.08c0.42,0.2,0.72,0.62,0.72,1.12
				C191.49,403.65,191.19,404.07,190.77,404.27z M196.49,401.59c-0.24,0.23-0.56,0.36-0.89,0.36c-0.33,0-0.65-0.13-0.88-0.36
				c-0.23-0.24-0.37-0.56-0.37-0.89c0-0.08,0.01-0.16,0.03-0.24c0.01-0.08,0.04-0.16,0.07-0.24c0.03-0.07,0.07-0.15,0.11-0.21
				c0.05-0.07,0.1-0.14,0.16-0.19c0.46-0.47,1.3-0.47,1.77,0c0.05,0.05,0.11,0.12,0.15,0.19c0.05,0.06,0.09,0.14,0.12,0.21
				c0.03,0.08,0.05,0.16,0.07,0.24c0.01,0.08,0.02,0.16,0.02,0.24C196.85,401.03,196.72,401.35,196.49,401.59z M205.17,397.36
				l-3.53,8.59c-0.2,0.48-0.66,0.78-1.16,0.78c-0.16,0-0.32-0.03-0.47-0.09c-0.64-0.26-0.94-0.99-0.68-1.63l2.82-6.86h-2.55
				c-0.69,0-1.25-0.56-1.25-1.25s0.56-1.25,1.25-1.25h4.41c0.42,0,0.81,0.21,1.04,0.55C205.28,396.53,205.32,396.97,205.17,397.36z
				 M188.27,401.9v-1.35l-1.06,1.35H188.27z"/>
			<path class="st0" d="M186.12,382.43c-0.3-0.74-1.26-0.95-1.88-0.46l-5.66,4.45c-0.54,0.43-0.64,1.21-0.21,1.76
				c0.25,0.31,0.61,0.48,0.98,0.48c0.27,0,0.54-0.09,0.77-0.27l5.66-4.44c0.45-0.35,0.58-0.96,0.36-1.49
				C186.13,382.45,186.12,382.44,186.12,382.43z M190.5,377.36c-1.79,0-3.25,1.46-3.25,3.25s1.46,3.25,3.25,3.25
				c1.79,0,3.25-1.46,3.25-3.25S192.29,377.36,190.5,377.36z M202.05,386.12l-5.29-4.15c-0.63-0.49-1.58-0.28-1.88,0.46
				c0,0.01-0.01,0.02-0.01,0.02c-0.22,0.53-0.1,1.14,0.36,1.49l5.28,4.15c0.23,0.18,0.5,0.27,0.77,0.27c0.37,0,0.74-0.16,0.98-0.48
				C202.69,387.34,202.59,386.55,202.05,386.12z"/>
		</g>
	</g>
	<g>
		<g>
			<path class="st0" d="M135.75,387.28c-0.14,0-0.27,0.02-0.41,0.04c-1.42-5.9-6.64-10.29-12.86-10.29
				c-6.22,0-11.44,4.39-12.86,10.29c-0.12-0.02-0.25-0.04-0.37-0.04c-1.38,0-2.5,1.12-2.5,2.5v3c0,1.38,1.12,2.5,2.5,2.5
				c0.3,0,0.59-0.06,0.86-0.16c0.74,1.85,2.53,3.16,4.64,3.16c0.55,0,1-0.45,1-1c0-0.55-0.45-1-1-1c-1.65,0-3-1.35-3-3v-3.17
				c0.22-5.87,4.94-10.58,10.73-10.58c5.93,0,10.75,4.93,10.75,10.99c0,0.02,0.01,0.05,0.01,0.07v2.19c0,1.38,1.12,2.5,2.5,2.5
				s2.5-1.12,2.5-2.5v-3C138.25,388.4,137.13,387.28,135.75,387.28z"/>
			<path class="st0" d="M130.69,401.27h-2.93c-0.65,0-1.27,0.32-1.64,0.85l-2.05,2.94c-0.8,1.15-2.51,1.14-3.29-0.02l-1.96-2.89
				c-0.37-0.55-0.99-0.88-1.65-0.88h-2.88c-3.71,0-6.72,3.01-6.72,6.72v2.98c0,0.55,0.45,1,1,1h27.86c0.55,0,1-0.45,1-1v-2.98
				C137.41,404.28,134.4,401.27,130.69,401.27z M122.48,398.77c4.55,0,8.24-3.69,8.24-8.24c0-4.55-3.69-8.24-8.24-8.24
				c-4.55,0-8.24,3.69-8.24,8.24C114.24,395.08,117.93,398.77,122.48,398.77z"/>
		</g>
	</g>
	<g>
		<g>
			<path class="st0" d="M54.5,376c-10.2,0-18.5,8.3-18.5,18.5c0,10.2,8.3,18.5,18.5,18.5S73,404.7,73,394.5
				C73,384.3,64.7,376,54.5,376z M54.5,409c-8,0-14.5-6.5-14.5-14.5c0-8,6.5-14.5,14.5-14.5S69,386.5,69,394.5
				C69,402.5,62.5,409,54.5,409z"/>
			<path class="st0" d="M55,389.3c1.88,0,3.4-1.52,3.4-3.4c0-1.88-1.52-3.4-3.4-3.4c-1.88,0-3.4,1.52-3.4,3.4
				C51.6,387.78,53.12,389.3,55,389.3z M58.3,396.25c0.57-2.44-1.28-4.77-3.78-4.77h-2.93c-0.55,0-1,0.45-1,1
				c0,0.21,0.1,0.41,0.25,0.58c0.49,0.53,0.75,1.23,0.58,1.94l-1.53,6.24c-0.57,2.44,1.28,4.77,3.78,4.77h2.93c0.55,0,1-0.45,1-1
				c0-0.21-0.1-0.41-0.25-0.58c-0.49-0.53-0.75-1.23-0.58-1.94L58.3,396.25z"/>
		</g>
	</g>
	<g>
		<g>
			<path class="st0" d="M414.13,342.62l-1.8-5.4c-0.1-0.31-0.07-0.64,0.08-0.93c1.35-2.63,1.91-5.73,1.33-9
				c-0.9-5.01-4.57-9.18-9.33-10.78c1.23,2.97,1.6,6.27,0.99,9.54c-1.25,6.65-6.57,11.93-13.25,13.12
				c-0.86,0.16-1.74,0.23-2.61,0.25c2.03,2.19,4.74,3.74,7.76,4.29c3.25,0.58,6.34,0.04,8.96-1.29c0.29-0.15,0.62-0.18,0.92-0.08
				l5.42,1.81C413.55,344.47,414.45,343.57,414.13,342.62z"/>
			<path class="st0" d="M386.41,309.03c-5.63,1.05-10.14,5.62-11.15,11.26c-0.59,3.27-0.03,6.37,1.33,9
				c0.15,0.29,0.18,0.62,0.08,0.93l-1.8,5.4c-0.32,0.95,0.59,1.85,1.54,1.54l5.42-1.81c0.31-0.1,0.63-0.07,0.92,0.08
				c2.62,1.33,5.71,1.87,8.96,1.29c5.62-1.01,10.19-5.51,11.24-11.12C404.8,315.7,396.3,307.2,386.41,309.03z M390,327.25h-7
				c-0.69,0-1.25-0.56-1.25-1.25c0-0.69,0.56-1.25,1.25-1.25h7c0.69,0,1.25,0.56,1.25,1.25C391.25,326.69,390.69,327.25,390,327.25z
				 M395,322.25h-12c-0.69,0-1.25-0.56-1.25-1.25c0-0.69,0.56-1.25,1.25-1.25h12c0.69,0,1.25,0.56,1.25,1.25
				C396.25,321.69,395.69,322.25,395,322.25z"/>
		</g>
	</g>
	<g>
		<g>
			<g>
				<path class="st0" d="M326.53,327.98c-0.4,0-0.8,0.15-1.1,0.46c-0.61,0.61-0.61,1.6,0,2.2c0.3,0.3,0.7,0.46,1.1,0.46
					c0.4,0,0.8-0.15,1.1-0.46c0.61-0.61,0.61-1.6,0-2.2C327.32,328.13,326.93,327.98,326.53,327.98z M326.5,319.14
					c-5.62,0-10.18,4.56-10.18,10.18c0,5.62,4.56,10.18,10.18,10.18s10.18-4.56,10.18-10.18
					C336.68,323.7,332.12,319.14,326.5,319.14z M331.85,326.76l-1.94,1.75c0,0,0,0,0,0c0.1,0.33,0.17,0.68,0.17,1.04
					c0,0.95-0.37,1.84-1.04,2.52c-0.67,0.67-1.57,1.04-2.52,1.04c-0.95,0-1.84-0.37-2.52-1.04c-0.67-0.67-1.04-1.57-1.04-2.52
					c0-0.95,0.37-1.84,1.04-2.52c0.67-0.67,1.57-1.04,2.52-1.04c0.49,0,0.96,0.1,1.39,0.28l1.93-1.74c0.62-0.56,1.56-0.51,2.12,0.11
					C332.52,325.25,332.47,326.2,331.85,326.76z"/>
			</g>
			<path class="st0" d="M329.35,313.41v-0.95h2.1c0.28,0,0.5-0.22,0.5-0.5v-3.45c0-0.55-0.45-1-1-1h-8.89c-0.55,0-1,0.45-1,1v3.45
				c0,0.28,0.22,0.5,0.5,0.5h2.1v0.95c-2.86,0.51-5.47,1.77-7.6,3.58l-1.25-1.25c-0.39-0.39-1.02-0.39-1.41,0l-2.45,2.45
				c-0.39,0.39-0.39,1.02,0,1.41l1.59,1.59c-1.4,2.39-2.21,5.16-2.21,8.12c0,8.92,7.26,16.18,16.18,16.18s16.18-7.26,16.18-16.18
				C342.68,321.37,336.91,314.76,329.35,313.41z M326.5,342c-6.99,0-12.68-5.69-12.68-12.68c0-6.99,5.69-12.68,12.68-12.68
				s12.68,5.69,12.68,12.68C339.18,336.31,333.49,342,326.5,342z"/>
		</g>
	</g>
	<g>
		<g>
			<path class="st0" d="M262.17,323.55c-0.02-0.19-0.08-0.38-0.16-0.56c-0.01-0.03-0.03-0.05-0.04-0.08
				c-0.09-0.18-0.21-0.36-0.36-0.52c-1.43-1.43-3.31-2.14-5.18-2.14c-1.88,0-3.75,0.71-5.18,2.14l-6.91,6.91
				c-2.86,2.86-2.86,7.51,0,10.37c1.43,1.43,3.31,2.14,5.18,2.14c1.88,0,3.75-0.71,5.18-2.14l4.07-4.07
				c-1.45-0.25-2.81-0.81-4.02-1.63l-2.87,2.87c-1.26,1.26-3.45,1.26-4.71,0c-1.3-1.3-1.3-3.41,0-4.71l3.78-3.78c0,0,0,0,0,0
				l3.13-3.13c0.32-0.32,0.69-0.56,1.09-0.72c0.21-0.08,0.42-0.15,0.64-0.19c0,0,0,0,0,0c1.05-0.2,2.17,0.11,2.98,0.91
				c0.78,0.78,2.05,0.78,2.83,0c0.27-0.27,0.44-0.6,0.53-0.95c0-0.01,0.01-0.02,0.01-0.03c0.04-0.2,0.05-0.4,0.04-0.6
				C262.18,323.61,262.18,323.58,262.17,323.55z"/>
			<path class="st0" d="M272.66,313.34c-1.38-1.38-3.22-2.15-5.18-2.15c-1.96,0-3.8,0.76-5.18,2.15l-4.07,4.07
				c1.42,0.25,2.79,0.79,4.02,1.63l2.88-2.88c1.26-1.26,3.45-1.26,4.71,0c0.63,0.63,0.98,1.47,0.98,2.36c0,0.89-0.35,1.73-0.98,2.35
				l-1.27,1.27c0,0,0,0,0,0.01l-5.64,5.64c-1.26,1.26-3.45,1.26-4.71,0c-0.78-0.78-2.05-0.78-2.83,0c-0.78,0.78-0.78,2.05,0,2.83
				c1.38,1.38,3.22,2.15,5.18,2.15c1.96,0,3.8-0.76,5.18-2.15l5.64-5.64c0,0,0,0,0.01,0l1.27-1.27c1.38-1.38,2.15-3.22,2.15-5.18
				S274.05,314.72,272.66,313.34z"/>
		</g>
	</g>
	<g>
		<g>
			<path class="st0" d="M207.21,319.03l-14.53-9.05c-1.33-0.83-3.02-0.83-4.35,0l-14.53,9.05c-1.11,0.69-1.77,1.88-1.77,3.16v17.7
				c0,2.07,1.72,3.75,3.85,3.75h29.26c2.13,0,3.85-1.68,3.85-3.75v-17.7C208.98,320.91,208.31,319.72,207.21,319.03z M185.77,333.99
				l-9,7c-0.23,0.18-0.5,0.26-0.77,0.26c-0.37,0-0.74-0.17-0.99-0.48c-0.42-0.54-0.33-1.33,0.22-1.75l9-7
				c0.54-0.42,1.33-0.33,1.75,0.22C186.41,332.78,186.31,333.56,185.77,333.99z M189.31,331.05l-11.4-8.07
				c-1.26-0.89-0.61-2.84,0.95-2.84h23.28c1.56,0,2.21,1.94,0.95,2.84l-11.4,8.07C190.98,331.55,190.02,331.55,189.31,331.05z
				 M205.99,340.77c-0.25,0.32-0.62,0.48-0.99,0.48c-0.27,0-0.54-0.09-0.77-0.26l-9-7c-0.54-0.42-0.64-1.21-0.22-1.75
				c0.42-0.54,1.21-0.64,1.75-0.22l9,7C206.31,339.44,206.41,340.22,205.99,340.77z"/>
			<path class="st0" d="M195,322.5h-8c-0.83,0-1.5,0.67-1.5,1.5c0,0.83,0.67,1.5,1.5,1.5h8c0.83,0,1.5-0.67,1.5-1.5
				C196.5,323.17,195.83,322.5,195,322.5z"/>
		</g>
	</g>
	<g>
		<g>
			<path class="st0" d="M121.29,309.06c-5.9,0.63-10.34,6.3-9.83,12.2c0.67,7.74,7.79,13.51,10.23,15.27
				c0.48,0.35,1.13,0.34,1.6-0.03c2.53-1.98,10.31-8.68,10.31-16.42C133.6,313.57,127.96,308.36,121.29,309.06z M122.5,324.49
				c-2.43,0-4.4-1.97-4.4-4.4c0-2.43,1.97-4.4,4.4-4.4s4.4,1.97,4.4,4.4C126.91,322.52,124.94,324.49,122.5,324.49z"/>
			<path class="st0" d="M136.07,341.5l-1.82-8.24c-0.21-0.94-1.04-1.62-2.01-1.62h-0.58c-1.63,2.17-3.83,4.48-6.83,6.83
				c-0.67,0.52-1.51,0.81-2.36,0.81c-0.81,0-1.59-0.25-2.25-0.73c-1.7-1.23-4.64-3.62-7.1-6.92h-0.43c-0.97,0-1.81,0.68-2.01,1.63
				l-1.76,8.24c-0.27,1.28,0.7,2.49,2.01,2.49h23.13C135.38,344,136.36,342.78,136.07,341.5z"/>
		</g>
	</g>
	<g>
		<g>
			<g>
				<path class="st0" d="M69.25,323h-1.5c-0.28,0-0.5,0.22-0.5,0.5v6c0,0.28,0.22,0.5,0.5,0.5h1.5c1.1,0,2-0.9,2-2v-3
					C71.25,323.9,70.35,323,69.25,323z"/>
				<path class="st0" d="M62.75,310h-23c-1.1,0-2,0.9-2,2v4c0,1.1,0.9,2,2,2h0c1.1,0,2,0.9,2,2c0,1.1-0.9,2-2,2h0c-1.1,0-2,0.9-2,2
					v5c0,1.1,0.9,2,2,2h0c1.1,0,2,0.9,2,2c0,1.1-0.9,2-2,2h0c-1.1,0-2,0.9-2,2v4c0,1.1,0.9,2,2,2h23c1.1,0,2-0.9,2-2v-29
					C64.75,310.9,63.85,310,62.75,310z M60.01,332.45c-1.49,1.5-3.74,1.97-5.68,1.14c-0.43-0.18-0.88-0.42-1.36-0.73
					c0,0-1.61-0.81-3.17-2.4c-1.6-1.56-2.41-3.17-2.41-3.17c-0.31-0.48-0.55-0.93-0.73-1.36c-0.84-1.93-0.37-4.19,1.12-5.68
					c0.47-0.49,1.25-0.07,1.25-0.07l2.6,2.59c0.61,0.66,0.01,1.29,0.01,1.29l-1.59,1.59c0.17,0.77,1.96,2.6,1.96,2.6
					s1.83,1.8,2.6,1.95l1.58-1.58c0,0,0.62-0.6,1.29,0.01l2.59,2.59C60.08,331.2,60.5,331.97,60.01,332.45z M69.25,313.5h-1.5
					c-0.28,0-0.5,0.22-0.5,0.5v6c0,0.28,0.22,0.5,0.5,0.5h1.5c1.1,0,2-0.9,2-2v-3C71.25,314.4,70.35,313.5,69.25,313.5z
					 M69.25,332.4h-1.5c-0.28,0-0.5,0.22-0.5,0.5v6c0,0.28,0.22,0.5,0.5,0.5h1.5c1.1,0,2-0.9,2-2v-3
					C71.25,333.29,70.35,332.4,69.25,332.4z"/>
			</g>
		</g>
	</g>
	<g>
		<g>
			<path class="st0" d="M409.75,261.05c0,0.04-0.01,0.09-0.01,0.13c0,0.04,0.01,0.07,0.01,0.11V261.05z M408.88,253.42h-9.13
				c-1.1,0-2-0.9-2-2v-3.84c0-2.25-1.86-4.07-4.13-4c-1.05,0.03-1.87,0.95-1.87,2v4c0,2.84-4,4.84-4,6.84v12.79
				c0,0.74,0.41,1.42,1.06,1.77c0.36,0.19,0.79,0.42,1.24,0.66c2.18,1.17,4.62,1.78,7.09,1.78h7.74c1.58,0,2.87-1.28,2.87-2.87
				v-0.26c0-0.48-0.13-0.92-0.34-1.32c0.8-0.51,1.34-1.4,1.34-2.42v-0.76c0-0.81-0.34-1.53-0.87-2.06c1.05-0.39,1.81-1.38,1.86-2.55
				c-0.03-0.68-0.29-1.3-0.71-1.78c1.51-0.08,2.72-1.32,2.72-2.85v-0.26C411.75,254.7,410.47,253.42,408.88,253.42z"/>
			<path class="st0" d="M384.75,254.42h-7c-0.28,0-0.5,0.22-0.5,0.5v16c0,0.28,0.22,0.5,0.5,0.5h7c0.28,0,0.5-0.22,0.5-0.5v-16
				C385.25,254.64,385.03,254.42,384.75,254.42z M381.25,268.42c-0.83,0-1.5-0.67-1.5-1.5c0-0.83,0.67-1.5,1.5-1.5s1.5,0.67,1.5,1.5
				C382.75,267.75,382.08,268.42,381.25,268.42z"/>
		</g>
	</g>
	<g>
		<g>
			<g>
				<g>
					<g>
						<path class="st0" d="M336.17,259.44c0-0.69-0.56-1.25-1.25-1.25h-12c-0.69,0-1.25,0.56-1.25,1.25c0,0.69,0.56,1.25,1.25,1.25
							h12C335.61,260.69,336.17,260.13,336.17,259.44z M310.42,268.94c-0.55,0-1-0.45-1-1v-17c0-0.55,0.45-1,1-1h26
							c0.55,0,1,0.45,1,1v9.42l4-4v-12.42c0-2.21-1.79-4-4-4h-28c-2.21,0-4,1.79-4,4v25c0,2.21,1.79,4,4,4h16.32
							c0.08-0.65,0.37-1.26,0.83-1.73c0.36-0.36,1.37-1.37,1.37-1.37l0.9-0.9H310.42z M317.42,243.44h4c0.83,0,1.5,0.67,1.5,1.5
							c0,0.83-0.67,1.5-1.5,1.5h-4c-0.83,0-1.5-0.67-1.5-1.5C315.92,244.11,316.59,243.44,317.42,243.44z M311.42,242.94
							c1.1,0,2,0.9,2,2c0,1.1-0.9,2-2,2c-1.1,0-2-0.9-2-2C309.42,243.84,310.31,242.94,311.42,242.94z M343.48,264.28l-2.87-2.87
							c-0.2-0.2-0.51-0.2-0.71,0l-8.04,8.04c-0.2,0.2-0.2,0.51,0,0.71l2.87,2.87c0.2,0.2,0.51,0.2,0.71,0l8.04-8.04
							C343.68,264.79,343.68,264.47,343.48,264.28z M330.06,271.96c-0.2-0.2-0.51-0.2-0.7,0c-0.33,0.32-0.79,0.79-1.02,1.01
							c-0.08,0.08-0.13,0.19-0.14,0.31l-0.25,3.24c-0.02,0.31,0.24,0.57,0.56,0.54l3.11-0.36c0.11-0.01,0.22-0.06,0.3-0.14
							l1.02-1.02c0.2-0.2,0.2-0.51,0-0.71L330.06,271.96z M312.92,263.19c-0.69,0-1.25,0.56-1.25,1.25c0,0.69,0.56,1.25,1.25,1.25
							h18c0.69,0,1.25-0.56,1.25-1.25c0-0.69-0.56-1.25-1.25-1.25H312.92z M334.92,253.19h-12c-0.69,0-1.25,0.56-1.25,1.25
							c0,0.69,0.56,1.25,1.25,1.25h12c0.69,0,1.25-0.56,1.25-1.25C336.17,253.75,335.61,253.19,334.92,253.19z"/>
						<path class="st0" d="M317.42,252.94h-4c-0.55,0-1,0.45-1,1v5c0,0.55,0.45,1,1,1h4c0.55,0,1-0.45,1-1v-5
							C318.42,253.39,317.97,252.94,317.42,252.94z M347.44,260.33l-2.87-2.87c-0.2-0.2-0.51-0.2-0.71,0l-1.51,1.51
							c-0.2,0.2-0.2,0.51,0,0.71l2.87,2.87c0.2,0.2,0.51,0.2,0.71,0l1.51-1.51C347.63,260.84,347.63,260.52,347.44,260.33z"/>
					</g>
				</g>
			</g>
		</g>
	</g>
	<g>
		<g>
			<path class="st0" d="M275.75,243.42h-2c-1.1,0-2,0.9-2,2v26c0,1.1,0.9,2,2,2h2c1.1,0,2-0.9,2-2v-26
				C277.75,244.32,276.85,243.42,275.75,243.42z"/>
			<path class="st0" d="M268.61,246.3l-22.5,6.33c-0.22,0.06-0.36,0.26-0.36,0.48v11.94h0v3.97c0,1.63,1.18,3.02,2.78,3.29
				l7.33,1.22c0.18,0.03,0.37,0.05,0.55,0.05c0.78,0,1.54-0.28,2.15-0.79c0.75-0.63,1.18-1.56,1.18-2.54v-1.4l8.87,2.4
				c0.32,0.09,0.63-0.15,0.63-0.48v-23.98C269.25,246.45,268.93,246.21,268.61,246.3z M256.75,270.25c0,0.13-0.06,0.21-0.12,0.25
				c-0.05,0.05-0.14,0.1-0.27,0.07c0,0,0,0,0,0l-7.33-1.22c-0.16-0.03-0.28-0.17-0.28-0.33v-3.16l8,2.17V270.25z M242.75,253.42
				h-1.5c-1.1,0-2,0.9-2,2v7c0,1.1,0.9,2,2,2h1.5c0.28,0,0.5-0.22,0.5-0.5v-10C243.25,253.65,243.03,253.42,242.75,253.42z"/>
		</g>
	</g>
	<g>
		<g>
			<g>
				<g>
					<path class="st0" d="M172.99,253.94c0.16,0.06,0.33,0.08,0.49,0.08c0.62,0,1.2-0.39,1.42-1.01c0.2-0.58,0.44-1.15,0.7-1.71
						c0.36-0.75,0.04-1.64-0.7-2c-0.75-0.36-1.64-0.04-2,0.7c-0.32,0.66-0.6,1.34-0.83,2.02
						C171.79,252.81,172.21,253.67,172.99,253.94z M172.62,260.98c0.83-0.05,1.46-0.76,1.41-1.59c-0.02-0.33-0.03-0.67-0.03-1
						c0-0.29,0.01-0.57,0.02-0.85c0.04-0.83-0.59-1.53-1.42-1.57c-0.81-0.04-1.53,0.59-1.57,1.42c-0.02,0.33-0.03,0.67-0.03,1
						c0,0.4,0.01,0.79,0.03,1.18c0.05,0.8,0.71,1.41,1.5,1.41C172.56,260.98,172.59,260.98,172.62,260.98z M177.05,247.97
						c0.41,0,0.82-0.17,1.12-0.5c0.41-0.46,0.85-0.9,1.31-1.31c0.62-0.55,0.67-1.5,0.12-2.12c-0.55-0.62-1.5-0.67-2.12-0.12
						c-0.54,0.48-1.06,1-1.55,1.54c-0.55,0.62-0.5,1.56,0.11,2.12C176.34,247.85,176.69,247.97,177.05,247.97z M178.22,269.46
						c-0.55-0.62-1.5-0.68-2.12-0.12c-0.62,0.55-0.67,1.5-0.12,2.12c0.48,0.54,1,1.06,1.54,1.55c0.29,0.26,0.65,0.38,1,0.38
						c0.41,0,0.82-0.17,1.12-0.5c0.55-0.62,0.5-1.56-0.11-2.12C179.07,270.36,178.63,269.92,178.22,269.46z M182.67,243.77
						c0.22,0,0.44-0.05,0.65-0.15c0.56-0.27,1.13-0.5,1.71-0.7c0.78-0.27,1.2-1.13,0.93-1.91c-0.27-0.78-1.12-1.2-1.91-0.93
						c-0.69,0.24-1.37,0.52-2.02,0.83c-0.75,0.36-1.06,1.25-0.71,2C181.58,243.45,182.11,243.77,182.67,243.77z M185.06,274.07
						c-0.58-0.21-1.15-0.45-1.7-0.71c-0.75-0.36-1.64-0.05-2.01,0.69c-0.36,0.74-0.05,1.64,0.69,2c0.65,0.32,1.33,0.6,2.02,0.85
						c0.17,0.06,0.33,0.09,0.5,0.09c0.62,0,1.2-0.38,1.41-1C186.25,275.2,185.84,274.35,185.06,274.07z M175.65,265.62
						c-0.27-0.55-0.51-1.13-0.71-1.71c-0.28-0.78-1.13-1.19-1.91-0.92c-0.78,0.28-1.19,1.13-0.92,1.91
						c0.24,0.69,0.52,1.36,0.84,2.02c0.26,0.53,0.79,0.85,1.35,0.85c0.22,0,0.44-0.05,0.65-0.15
						C175.7,267.26,176.02,266.37,175.65,265.62z"/>
					<path class="st0" d="M190.5,239H189v39h1.5c10.75,0,19.5-8.8,19.5-19.61C210,247.7,201.25,239,190.5,239z M205.16,250.89h-4.95
						c-0.65-2.92-1.66-5.45-2.94-7.43C200.67,244.99,203.46,247.61,205.16,250.89z M192,242.38c2.09,1.01,4.06,4.06,5.14,8.51H192
						V242.38z M192,253.89h5.7c0.19,1.41,0.3,2.91,0.3,4.5c0,1.59-0.11,3.09-0.3,4.5H192V253.89z M192,274.6v-8.71h5.14
						C196.05,270.39,194.06,273.54,192,274.6z M197.24,273.53c1.31-2.02,2.34-4.64,2.98-7.64h4.99
						C203.51,269.27,200.69,271.97,197.24,273.53z M200.72,262.89c0.18-1.44,0.28-2.94,0.28-4.5c0-1.56-0.1-3.06-0.28-4.5h5.65
						c0.41,1.43,0.64,2.94,0.64,4.5c0,1.56-0.22,3.07-0.62,4.5H200.72z"/>
				</g>
			</g>
		</g>
	</g>
	<g>
		<g>
			<path class="st0" d="M121,262.81h-3.22l1.79-1.79c0.89-0.86,2.1-2.04,2.1-3.56c0-1.53-0.64-2.43-1.17-2.92
				c-0.66-0.61-1.57-0.94-2.55-0.94c-1.93,0-4,1.34-4,3.49c0,0.69,0.56,1.25,1.25,1.25c0.69,0,1.25-0.56,1.25-1.25
				c0-0.57,0.79-0.99,1.5-0.99c0.36,0,0.66,0.1,0.86,0.28c0.24,0.22,0.36,0.58,0.36,1.08c0,0.47-0.84,1.28-1.34,1.77l-3.95,3.95
				c-0.36,0.36-0.46,0.9-0.27,1.36c0.19,0.47,0.65,0.77,1.15,0.77H121c0.69,0,1.25-0.56,1.25-1.25
				C122.25,263.37,121.69,262.81,121,262.81z M130.5,260.31h-0.25v-5.25c0-0.02-0.01-0.03-0.01-0.05c0-0.09-0.03-0.17-0.05-0.26
				c-0.02-0.07-0.03-0.15-0.06-0.21c-0.03-0.07-0.08-0.12-0.12-0.18c-0.05-0.07-0.1-0.15-0.16-0.21c-0.01-0.01-0.02-0.03-0.03-0.04
				c-0.05-0.04-0.1-0.05-0.15-0.08c-0.07-0.05-0.15-0.1-0.23-0.13c-0.08-0.03-0.17-0.04-0.26-0.05c-0.06-0.01-0.11-0.03-0.17-0.03
				c-0.02,0-0.03,0.01-0.05,0.01c-0.09,0-0.17,0.03-0.26,0.05c-0.07,0.02-0.14,0.03-0.21,0.06c-0.07,0.03-0.12,0.08-0.19,0.12
				c-0.07,0.05-0.15,0.1-0.21,0.16c-0.01,0.01-0.03,0.02-0.04,0.03l-5.5,6.5c-0.31,0.37-0.38,0.89-0.18,1.33
				c0.2,0.44,0.65,0.72,1.13,0.72h4.25v1.25c0,0.69,0.56,1.25,1.25,1.25c0.69,0,1.25-0.56,1.25-1.25v-1.25h0.25
				c0.69,0,1.25-0.56,1.25-1.25C131.75,260.87,131.19,260.31,130.5,260.31z M127.75,260.31h-1.55l1.55-1.84V260.31z"/>
			<path class="st0" d="M125,242.77v-1.99c0-1.12-1.29-1.75-2.18-1.06l-5.06,3.97c-0.69,0.54-0.69,1.58,0,2.12l5.06,3.97
				c0.88,0.69,2.18,0.06,2.18-1.06v-1.9c6.75,1.27,11.74,7.55,10.91,14.83c-0.71,6.15-5.7,11.13-11.85,11.82
				c-8.14,0.91-15.06-5.46-15.06-13.41c0-4.65,2.37-8.75,5.97-11.18c0.26-0.18,0.31-0.54,0.08-0.77l-2.16-2.16
				c-0.17-0.17-0.45-0.2-0.65-0.06c-5.03,3.65-8.05,9.9-7.05,16.76c1.13,7.76,7.51,13.91,15.3,14.78
				c10.55,1.18,19.51-7.07,19.51-17.39C140,251.27,133.47,243.99,125,242.77z"/>
		</g>
	</g>
	<g>
		<g>
			<path class="st0" d="M53.5,274h-2c-0.74,0-1.38,0.4-1.72,1H41.5c-1.65,0-3-1.35-3-3c0-0.55-0.45-1-1-1s-1,0.45-1,1
				c0,2.76,2.24,5,5,5h8.28c0.35,0.6,0.98,1,1.72,1h2c1.1,0,2-0.9,2-2C55.5,274.9,54.6,274,53.5,274z"/>
			<path class="st0" d="M70.5,262.56h-0.29v-8.36c0-8.39-6.82-15.21-15.21-15.21s-15.21,6.82-15.21,15.21v8.36H39.5
				c-1.1,0-2,0.9-2,2v3c0,1.1,0.9,2,2,2h1v1c0,1.1,0.9,2,2,2h4c1.1,0,2-0.9,2-2v-9c0-1.1-0.9-2-2-2h-2.71v-5.36
				c0-6.18,5.03-11.21,11.21-11.21s11.21,5.03,11.21,11.21v5.36H63.5c-1.1,0-2,0.9-2,2v9c0,1.1,0.9,2,2,2h4c1.1,0,2-0.9,2-2v-1h1
				c1.1,0,2-0.9,2-2v-3C72.5,263.46,71.6,262.56,70.5,262.56z"/>
		</g>
	</g>
	<g>
		<g>
			<path class="st0" d="M408.75,203.75h-28c-0.83,0-1.5,0.67-1.5,1.5c0,0.83,0.67,1.5,1.5,1.5h28c0.83,0,1.5-0.67,1.5-1.5
				C410.25,204.42,409.58,203.75,408.75,203.75z"/>
			<path class="st0" d="M409,174.25h-4c-1.1,0-2,0.9-2,2c0,1.1-0.9,2-2,2s-2-0.9-2-2c0-1.1-0.9-2-2-2h-5c-1.1,0-2,0.9-2,2
				c0,1.1-0.9,2-2,2s-2-0.9-2-2c0-1.1-0.9-2-2-2h-4c-1.1,0-2,0.9-2,2v23c0,1.1,0.9,2,2,2h29c1.1,0,2-0.9,2-2v-23
				C411,175.14,410.1,174.25,409,174.25z M385.5,197.43c-1.1,0-2-0.9-2-2c0-1.1,0.9-2,2-2s2,0.9,2,2
				C387.5,196.53,386.6,197.43,385.5,197.43z M385.5,191.43c-1.1,0-2-0.9-2-2c0-1.1,0.9-2,2-2s2,0.9,2,2
				C387.5,190.53,386.6,191.43,385.5,191.43z M391.5,197.43c-1.1,0-2-0.9-2-2c0-1.1,0.9-2,2-2s2,0.9,2,2
				C393.5,196.53,392.6,197.43,391.5,197.43z M391.5,191.43c-1.1,0-2-0.9-2-2c0-1.1,0.9-2,2-2s2,0.9,2,2
				C393.5,190.53,392.6,191.43,391.5,191.43z M391.5,185.43c-1.1,0-2-0.9-2-2c0-1.1,0.9-2,2-2s2,0.9,2,2
				C393.5,184.53,392.6,185.43,391.5,185.43z M397.5,197.43c-1.1,0-2-0.9-2-2c0-1.1,0.9-2,2-2s2,0.9,2,2
				C399.5,196.53,398.6,197.43,397.5,197.43z M397.5,191.43c-1.1,0-2-0.9-2-2c0-1.1,0.9-2,2-2s2,0.9,2,2
				C399.5,190.53,398.6,191.43,397.5,191.43z M397.5,185.43c-1.1,0-2-0.9-2-2c0-1.1,0.9-2,2-2s2,0.9,2,2
				C399.5,184.53,398.6,185.43,397.5,185.43z M403.5,191.43c-1.1,0-2-0.9-2-2c0-1.1,0.9-2,2-2s2,0.9,2,2
				C405.5,190.53,404.6,191.43,403.5,191.43z M403.5,185.43c-1.1,0-2-0.9-2-2c0-1.1,0.9-2,2-2s2,0.9,2,2
				C405.5,184.53,404.6,185.43,403.5,185.43z"/>
		</g>
	</g>
	<g>
		<g>
			<g>
				<path class="st0" d="M337.64,194.44h-0.39v2.22h0.39c0.61,0,1.11-0.5,1.11-1.11S338.25,194.44,337.64,194.44z M343.5,186.7h-34
					c-1.1,0-2,0.9-2,2v17c0,1.1,0.9,2,2,2h34c1.1,0,2-0.9,2-2v-17C345.5,187.6,344.6,186.7,343.5,186.7z M319.02,201.22
					c0,0.69-0.56,1.25-1.25,1.25c-0.69,0-1.25-0.56-1.25-1.25v-2.75h-2.27v2.75c0,0.69-0.56,1.25-1.25,1.25s-1.25-0.56-1.25-1.25v-8
					c0-0.69,0.56-1.25,1.25-1.25s1.25,0.56,1.25,1.25v2.75h2.27v-2.75c0-0.69,0.56-1.25,1.25-1.25c0.69,0,1.25,0.56,1.25,1.25
					V201.22z M324.62,195.97c0.69,0,1.25,0.56,1.25,1.25c0,0.69-0.56,1.25-1.25,1.25h-1.69v1.5h2.75c0.69,0,1.25,0.56,1.25,1.25
					c0,0.69-0.56,1.25-1.25,1.25h-4c-0.69,0-1.25-0.56-1.25-1.25v-8c0-0.69,0.56-1.25,1.25-1.25h4c0.69,0,1.25,0.56,1.25,1.25
					c0,0.69-0.56,1.25-1.25,1.25h-2.75v1.5H324.62z M332.5,202.47h-3c-0.09,0-0.17-0.03-0.25-0.05c-0.08,0.02-0.16,0.05-0.25,0.05
					c-0.69,0-1.25-0.56-1.25-1.25v-8c0-0.69,0.56-1.25,1.25-1.25s1.25,0.56,1.25,1.25v6.75h2.25c0.69,0,1.25,0.56,1.25,1.25
					C333.75,201.91,333.19,202.47,332.5,202.47z M337.64,199.16h-0.39v2.03c0,0.69-0.56,1.25-1.25,1.25s-1.25-0.56-1.25-1.25v-8
					c0-0.69,0.56-1.25,1.25-1.25c0.09,0,0.17,0.03,0.25,0.05c0.08-0.02,0.16-0.05,0.25-0.05h1.14c1.99,0,3.61,1.62,3.61,3.61
					C341.25,197.54,339.63,199.16,337.64,199.16z"/>
				<path class="st0" d="M322.31,178.36c-0.3-0.74-1.26-0.95-1.88-0.46l-5.66,4.45c-0.54,0.43-0.64,1.21-0.21,1.76
					c0.25,0.31,0.61,0.48,0.98,0.48c0.27,0,0.54-0.09,0.77-0.27l5.66-4.44c0.45-0.35,0.58-0.96,0.36-1.49L322.31,178.36z
					 M326.69,173.3c-1.79,0-3.25,1.46-3.25,3.25c0,1.79,1.46,3.25,3.25,3.25c1.79,0,3.25-1.46,3.25-3.25
					C329.94,174.75,328.48,173.3,326.69,173.3z M338.24,182.06l-5.29-4.15c-0.63-0.49-1.58-0.28-1.88,0.46
					c0,0.01-0.01,0.02-0.01,0.02c-0.22,0.53-0.1,1.14,0.36,1.49l5.28,4.15c0.23,0.18,0.5,0.27,0.77,0.27c0.37,0,0.74-0.16,0.98-0.48
					C338.88,183.27,338.78,182.48,338.24,182.06z"/>
			</g>
		</g>
	</g>
	<g>
		<g>
			<path class="st0" d="M267.96,185.72c-0.74-0.12-1.58,0.17-2.17,0.67c-0.2-0.83-0.99-1.53-1.83-1.67c-0.7-0.11-1.5,0.14-2.07,0.6
				c-0.26-0.8-1.11-1.46-1.93-1.6c-0.79-0.13-1.87,0.29-2.34,0.88l0-6.32c0-0.87-0.51-1.72-1.35-1.98c-1.38-0.44-2.65,0.58-2.65,1.9
				v16c-1.1,0-2-0.9-2-2v-1.81c0-0.38-0.31-0.69-0.69-0.69h-0.6c-1.49,0-2.7,1.21-2.7,2.7v4.94c0,0.86,0.37,1.69,1.02,2.26
				l2.69,2.36c0.55,0.48,1.25,0.74,1.98,0.74h11.07c0.8,0,1.56-0.32,2.12-0.88l2.24-2.24c0.56-0.56,0.88-1.33,0.88-2.12v-9.65
				C269.63,186.8,268.94,185.88,267.96,185.72z"/>
			<path class="st0" d="M259.94,175.88c0.32,0,0.64-0.12,0.88-0.37l1.06-1.06c0.49-0.49,0.49-1.28,0-1.77
				c-0.49-0.49-1.28-0.49-1.77,0l-1.06,1.06c-0.49,0.49-0.49,1.28,0,1.77C259.3,175.75,259.62,175.88,259.94,175.88z M260.38,178.69
				c0,0.69,0.56,1.25,1.25,1.25h1.5c0.69,0,1.25-0.56,1.25-1.25s-0.56-1.25-1.25-1.25h-1.5C260.93,177.44,260.38,178,260.38,178.69z
				 M255.88,174.19c0.69,0,1.25-0.56,1.25-1.25v-1.5c0-0.69-0.56-1.25-1.25-1.25s-1.25,0.56-1.25,1.25v1.5
				C254.63,173.63,255.18,174.19,255.88,174.19z M266.12,205.15h-14.16c-0.28,0-0.5,0.22-0.5,0.5v4.66c0,0.28,0.22,0.5,0.5,0.5
				h14.16c0.28,0,0.5-0.22,0.5-0.5v-4.66C266.62,205.37,266.4,205.15,266.12,205.15z M263.58,209.04c-0.59,0-1.06-0.48-1.06-1.06
				s0.48-1.06,1.06-1.06c0.59,0,1.06,0.48,1.06,1.06S264.17,209.04,263.58,209.04z M250.93,175.51c0.24,0.24,0.56,0.37,0.88,0.37
				c0.32,0,0.64-0.12,0.88-0.37c0.49-0.49,0.49-1.28,0-1.77l-1.06-1.06c-0.49-0.49-1.28-0.49-1.77,0c-0.49,0.49-0.49,1.28,0,1.77
				L250.93,175.51z M250.13,177.44h-1.5c-0.69,0-1.25,0.56-1.25,1.25s0.56,1.25,1.25,1.25h1.5c0.69,0,1.25-0.56,1.25-1.25
				S250.82,177.44,250.13,177.44z"/>
		</g>
	</g>
	<g>
		<g>
			<path class="st0" d="M206.5,179.25h-32c-2.21,0-4,1.79-4,4v10c0,2.21,1.79,4,4,4h2v-3.5c0-1.93,1.57-3.5,3.5-3.5h21
				c1.93,0,3.5,1.57,3.5,3.5v3.5h2c2.21,0,4-1.79,4-4v-10C210.5,181.04,208.71,179.25,206.5,179.25z M176.33,186.67
				c-1.03,0-1.86-0.83-1.86-1.86c0-1.03,0.83-1.86,1.86-1.86c1.03,0,1.86,0.83,1.86,1.86C178.18,185.84,177.35,186.67,176.33,186.67
				z"/>
			<path class="st0" d="M200.95,173.75h-20.91c-0.83,0-1.5,0.67-1.5,1.5c0,0.83,0.67,1.5,1.5,1.5h20.91c0.83,0,1.5-0.67,1.5-1.5
				C202.45,174.42,201.78,173.75,200.95,173.75z M201,192.75h-21c-0.55,0-1,0.45-1,1v11.5c0,1.1,0.9,2,2,2h19c1.1,0,2-0.9,2-2v-11.5
				C202,193.2,201.55,192.75,201,192.75z M191,204h-7c-0.69,0-1.25-0.56-1.25-1.25c0-0.69,0.56-1.25,1.25-1.25h7
				c0.69,0,1.25,0.56,1.25,1.25C192.25,203.44,191.69,204,191,204z M196,199h-12c-0.69,0-1.25-0.56-1.25-1.25
				c0-0.69,0.56-1.25,1.25-1.25h12c0.69,0,1.25,0.56,1.25,1.25C197.25,198.44,196.69,199,196,199z"/>
		</g>
	</g>
	<g>
		<g>
			<path class="st0" d="M111,177.65h-8c-1.1,0-2,0.9-2,2v26.19c0,1.1,0.9,2,2,2h8c1.1,0,2-0.9,2-2v-26.19
				C113,178.55,112.1,177.65,111,177.65z M140,180.65L140,180.65l0-4.5c0-1.65-1.35-3-3-3h-15c-1.65,0-3,1.35-3,3v4.5h-3.5v25.19
				c0,0.34-0.05,0.68-0.12,1H140c2.21,0,4-1.79,4-4v-18.19C144,182.44,142.21,180.65,140,180.65z M121.5,176.15
				c0-0.28,0.22-0.5,0.5-0.5h15c0.28,0,0.5,0.22,0.5,0.5v12.88c0,0.28-0.22,0.5-0.5,0.5h-15c-0.28,0-0.5-0.22-0.5-0.5V176.15z
				 M123.5,202.53h-2c-0.83,0-1.5-0.67-1.5-1.5s0.67-1.5,1.5-1.5h2c0.83,0,1.5,0.67,1.5,1.5S124.33,202.53,123.5,202.53z
				 M123.5,197.53h-2c-0.83,0-1.5-0.67-1.5-1.5s0.67-1.5,1.5-1.5h2c0.83,0,1.5,0.67,1.5,1.5S124.33,197.53,123.5,197.53z
				 M130.5,202.53h-2c-0.83,0-1.5-0.67-1.5-1.5s0.67-1.5,1.5-1.5h2c0.83,0,1.5,0.67,1.5,1.5S131.33,202.53,130.5,202.53z
				 M130.5,197.53h-2c-0.83,0-1.5-0.67-1.5-1.5s0.67-1.5,1.5-1.5h2c0.83,0,1.5,0.67,1.5,1.5S131.33,197.53,130.5,197.53z
				 M137.5,202.53h-2c-0.83,0-1.5-0.67-1.5-1.5s0.67-1.5,1.5-1.5h2c0.83,0,1.5,0.67,1.5,1.5S138.33,202.53,137.5,202.53z
				 M137.5,197.53h-2c-0.83,0-1.5-0.67-1.5-1.5s0.67-1.5,1.5-1.5h2c0.83,0,1.5,0.67,1.5,1.5S138.33,197.53,137.5,197.53z"/>
			<path class="st0" d="M129.59,183.92h-4c-0.69,0-1.25,0.56-1.25,1.25c0,0.69,0.56,1.25,1.25,1.25h4c0.69,0,1.25-0.56,1.25-1.25
				C130.84,184.48,130.28,183.92,129.59,183.92z M133.59,178.92h-8c-0.69,0-1.25,0.56-1.25,1.25c0,0.69,0.56,1.25,1.25,1.25h8
				c0.69,0,1.25-0.56,1.25-1.25C134.84,179.48,134.28,178.92,133.59,178.92z"/>
		</g>
	</g>
	<g>
		<g>
			<circle class="st0" cx="54.5" cy="190.5" r="2"/>
			<path class="st0" d="M67.47,178.94c-3.59-3.87-8.67-5.83-13.95-5.38c-8.04,0.69-14.52,7-15.41,15.01
				c-0.53,4.84,1.01,9.67,4.23,13.27c3.23,3.61,7.87,5.68,12.72,5.66c0.71,0,1.41-0.39,1.72-1.04c0.71-1.48-0.34-2.94-1.74-2.96
				c-1.96-0.03-3.93-0.26-5.66-1.18c-5.25-2.79-7.89-7.89-7.29-13.31c0.67-6.02,5.73-10.95,11.77-11.46
				c4.04-0.34,7.94,1.16,10.68,4.12c1.59,1.71,2.47,4.02,2.46,6.5v3.86c0,0.84-0.49,1.66-1.3,1.91c-1.33,0.43-2.56-0.56-2.56-1.83
				v-7.51c0-0.94-0.6-1.82-1.51-2.04c-0.91-0.22-1.74,0.19-2.18,0.87c-1.81-1.27-4.11-1.88-6.57-1.43
				c-3.46,0.63-6.25,3.41-6.89,6.88c-1,5.47,3.2,10.26,8.49,10.26c2.53,0,4.8-1.1,6.39-2.84c1.28,1.28,3.15,1.98,5.15,1.66
				c2.75-0.44,4.96-3.28,4.96-6.06v-3.74C71,184.68,69.75,181.4,67.47,178.94z M55.76,194.98c-3.53,0.94-6.67-2.21-5.74-5.74
				c0.41-1.55,1.67-2.8,3.22-3.21c3.53-0.94,6.67,2.21,5.74,5.74C58.56,193.31,57.31,194.56,55.76,194.98z"/>
		</g>
	</g>
	<g>
		<g>
			<path class="st0" d="M386.5,109.5l19,0v-2c0-2.21-1.79-4-4-4h-16c-2.21,0-4,1.79-4,4v30c0,2.21,1.79,4,4,4h16c2.21,0,4-1.79,4-4
				v-8h-4v2c0,0.55-0.45,1-1,1h-14c-0.55,0-1-0.45-1-1v-21C385.5,109.95,385.95,109.5,386.5,109.5z M394.5,139h-2c-1.1,0-2-0.9-2-2
				l0,0c0-1.1,0.9-2,2-2h2c1.1,0,2,0.9,2,2l0,0C396.5,138.1,395.6,139,394.5,139z"/>
			<path class="st0" d="M405.5,112h-14c-1.1,0-2,0.9-2,2v14c0,0.82,0.94,1.29,1.6,0.8l1.87-1.4c0.35-0.26,0.77-0.4,1.2-0.4h11.33
				c1.1,0,2-0.9,2-2v-11C407.5,112.9,406.6,112,405.5,112z M399.5,123.75h-5c-0.69,0-1.25-0.56-1.25-1.25
				c0-0.69,0.56-1.25,1.25-1.25h5c0.69,0,1.25,0.56,1.25,1.25C400.75,123.19,400.19,123.75,399.5,123.75z M403.5,118.75h-9
				c-0.69,0-1.25-0.56-1.25-1.25c0-0.69,0.56-1.25,1.25-1.25h9c0.69,0,1.25,0.56,1.25,1.25
				C404.75,118.19,404.19,118.75,403.5,118.75z"/>
		</g>
	</g>
	<g>
		<g>
			<path class="st0" d="M342.43,122.04c-1,1.09-2,1.99-2.82,2.68c-0.11,7.39-5.77,13.46-12.99,14.2v-28.84
				c0.04,0,0.08,0.01,0.12,0.02c0.15-1.01,0.44-1.99,0.86-2.9c-0.81-0.12-1.63-0.2-2.48-0.2c-9.65,0-17.5,7.85-17.5,17.5
				c0,9.65,7.85,17.5,17.5,17.5c9.65,0,17.5-7.85,17.5-17.5C342.62,123.66,342.54,122.85,342.43,122.04z M318.22,111.75
				c-1.79,2.96-2.93,7.08-3.07,11.75h-4.48C311.02,118.43,313.98,114.06,318.22,111.75z M310.78,126.5h4.41
				c0.27,4.26,1.37,8,3.03,10.75C314.26,135.1,311.42,131.14,310.78,126.5z M323.62,138.65c-2.94-1.4-4.99-6.76-5.41-12.15h5.41
				V138.65z M323.62,123.5h-5.47c0.23-5.71,2.35-11.67,5.47-13.15V123.5z"/>
			<path class="st0" d="M337,103c-0.3,0-0.61,0.02-0.92,0.05c-4.45,0.47-7.81,4.76-7.42,9.22c0.51,5.85,5.88,10.21,7.73,11.54
				c0.18,0.13,0.38,0.19,0.59,0.19c0.22,0,0.44-0.07,0.62-0.21c1.91-1.49,7.79-6.56,7.79-12.4C345.38,106.75,341.62,103,337,103z
				 M337,115.29c-2.16,0-3.91-1.75-3.91-3.91c0-2.16,1.75-3.91,3.91-3.91c2.16,0,3.91,1.75,3.91,3.91
				C340.91,113.54,339.16,115.29,337,115.29z"/>
		</g>
	</g>
	<g>
		<g>
			<g>
				<g>
					<path class="st0" d="M278.13,138.62l-1.8-5.4c-0.1-0.31-0.07-0.64,0.08-0.93c1.35-2.63,1.91-5.73,1.33-9
						c-0.9-5.01-4.57-9.18-9.33-10.78c1.23,2.97,1.6,6.27,0.99,9.54c-1.25,6.65-6.57,11.93-13.25,13.12
						c-0.86,0.16-1.74,0.23-2.61,0.25c2.03,2.19,4.74,3.74,7.76,4.29c3.25,0.58,6.34,0.04,8.96-1.29c0.29-0.15,0.62-0.18,0.92-0.08
						l5.42,1.81C277.55,140.47,278.45,139.57,278.13,138.62z"/>
					<path class="st0" d="M250.41,105.03c-5.63,1.05-10.14,5.62-11.15,11.26c-0.59,3.27-0.03,6.37,1.33,9
						c0.15,0.29,0.18,0.62,0.08,0.93l-1.8,5.4c-0.32,0.95,0.59,1.85,1.54,1.54l5.42-1.81c0.31-0.1,0.63-0.07,0.92,0.08
						c2.62,1.33,5.71,1.87,8.96,1.29c5.62-1.01,10.18-5.51,11.24-11.12C268.8,111.7,260.3,103.2,250.41,105.03z M253,128.01
						c-0.98,0-1.78-0.8-1.78-1.78c0-0.98,0.8-1.78,1.78-1.78c0.98,0,1.78,0.8,1.78,1.78C254.78,127.21,253.98,128.01,253,128.01z
						 M254.72,120.22l0.03,0.7c0,0.97-0.78,1.75-1.75,1.75c-0.97,0-1.75-0.78-1.75-1.75v-0.63c0-1.52,0.92-2.87,2.3-3.36
						c0.64-0.23,1.08-0.84,1.08-1.53c0-0.41-0.18-0.83-0.49-1.14c-0.32-0.32-0.7-0.48-1.14-0.49c-0.89,0-1.62,0.74-1.62,1.63
						c0,0.97-0.78,1.75-1.75,1.75c-0.97,0-1.75-0.78-1.75-1.75c0-2.81,2.29-5.11,5.1-5.13c1.36-0.05,2.66,0.55,3.64,1.52
						c0.97,0.97,1.53,2.3,1.52,3.64C258.12,117.56,256.75,119.49,254.72,120.22z"/>
				</g>
			</g>
		</g>
	</g>
	<g>
		<g>
			<g>
				<g>
					<path class="st0" d="M204.35,129.19l-3.93-2.12c-0.96-0.52-1.7-0.14-2.53,0.99c-1.81,2.49-2.69,2.98-4.91,1.74
						c-2.07-1.16-3.56-2.53-5.42-4.39c-1.86-1.86-3.24-3.34-4.39-5.42c-1.24-2.22-0.75-3.1,1.74-4.91c1.13-0.82,1.51-1.57,0.99-2.53
						l-2.12-3.93c-0.87-1.67-2.09-1.86-3.91-1.25c-2.5,0.85-4.93,4.46-4.81,6.18c0.36,5.02,2.87,11.04,8.1,16.27
						c5.23,5.23,11.25,7.74,16.27,8.1c1.72,0.12,5.31-2.32,6.16-4.83C206.22,131.29,206.03,130.06,204.35,129.19z"/>
					<path class="st0" d="M192.6,114.06c-0.83,0.01-1.49,0.68-1.49,1.51c0.01,0.82,0.68,1.49,1.5,1.49c0.01,0,0.03,0,0.04,0
						c0.89,0,1.73,0.34,2.36,0.97c0.63,0.63,0.98,1.48,0.97,2.38c-0.01,0.83,0.66,1.51,1.49,1.51h0.01c0.82,0,1.49-0.66,1.5-1.49
						c0.01-1.71-0.64-3.32-1.85-4.53C195.92,114.7,194.29,114.07,192.6,114.06z M201.55,111.48c-2.39-2.39-5.61-3.7-8.95-3.69
						c-0.83,0-1.5,0.68-1.49,1.51c0,0.83,0.67,1.49,1.5,1.49c0.01,0,0.03,0,0.04,0c2.56,0,4.97,1,6.78,2.81
						c1.82,1.82,2.82,4.24,2.81,6.82c0,0.83,0.67,1.5,1.49,1.51h0.01c0.83,0,1.5-0.67,1.5-1.49
						C205.25,117.05,203.94,113.87,201.55,111.48z"/>
				</g>
			</g>
		</g>
	</g>
	<g>
		<g>
			<path class="st0" d="M137.43,105.94l-31.45,13.71c-1.54,0.67-1.62,2.84-0.12,3.61l6.38,3.29l19-13.22
				c0.2-0.14,0.41,0.03,0.42,0.21l-15.92,15.19c-0.4,0.38-0.62,0.9-0.62,1.45v7.04c0,2.02,2.65,2.77,3.71,1.04l3.86-6.32l8.17,4.22
				c1.15,0.59,2.56-0.05,2.86-1.31l6.45-26.61C140.56,106.64,138.94,105.28,137.43,105.94z"/>
		</g>
	</g>
	<g>
		<g>
			<path class="st0" d="M69.75,124.79L55.16,111.9c-0.38-0.33-0.95-0.33-1.32,0l-14.59,12.89c-0.11,0.09-0.17,0.23-0.17,0.37v15.16
				c0,0.28,0.22,0.5,0.5,0.5h10.26c0.28,0,0.5-0.22,0.5-0.5v-9.68c0-1.1,0.9-2,2-2h4.33c1.1,0,2,0.9,2,2v9.68
				c0,0.28,0.22,0.5,0.5,0.5h10.26c0.28,0,0.5-0.22,0.5-0.5v-15.16C69.92,125.02,69.86,124.89,69.75,124.79z"/>
			<path class="st0" d="M73.77,119.79l-16.63-14.62c-1.51-1.33-3.77-1.33-5.28,0l-16.63,14.62c-0.82,0.72-0.86,1.98-0.09,2.76v0
				c0.71,0.71,1.84,0.74,2.59,0.08l15.45-13.61c0.76-0.67,1.89-0.67,2.64,0l15.45,13.61c0.75,0.66,1.88,0.62,2.59-0.08
				C74.63,121.77,74.59,120.51,73.77,119.79z"/>
		</g>
	</g>
</g>
<g id="title">
</g>
</svg>
