<?xml version="1.0" encoding="utf-8"?>
<!-- Generator: Adobe Illustrator 24.1.1, SVG Export Plug-In . SVG Version: 6.00 Build 0)  -->
<svg version="1.1" xmlns="http://www.w3.org/2000/svg" x="0px" y="0px"
     viewBox="0 0 448 448" style="enable-background:new 0 0 448 448;" xml:space="preserve">
<style type="text/css">
	.st0{fill:#173042;}
</style>
<g id="grid">
</g>
<g id="icons">
	<g>
		<g>
			<path class="st0" d="M377,410.33V414c0,0.28,0.22,0.5,0.5,0.5H390v-12h-5.17C380.51,402.5,377,406.01,377,410.33z M404.17,402.5
				H399v12h12.5c0.28,0,0.5-0.22,0.5-0.5v-3.67C412,406.01,408.49,402.5,404.17,402.5z"/>
			<path class="st0" d="M404,374.5h-13c-4.42,0-8,3.58-8,8v6c0,0.55,0.45,1,1,1h2v-5c0-2.61,1.67-4.83,4-5.65v0.39
				c0,1.8,1.46,3.26,3.26,3.26h9.39c0.22,0.63,0.35,1.3,0.35,2v5h2c0.55,0,1-0.45,1-1v-12C406,375.4,405.1,374.5,404,374.5z
				 M394.5,405.5c-0.83,0-1.5,0.67-1.5,1.5v6c0,0.83,0.67,1.5,1.5,1.5c0.83,0,1.5-0.67,1.5-1.5v-6
				C396,406.17,395.33,405.5,394.5,405.5z"/>
		</g>
	</g>
	<g>
		<g>
			<path class="st0" d="M338,404.22V402c0-0.55-0.45-1-1-1h-6v3c0,0-2.93,4.73-3,4.81v1.69c0,0.83-0.67,1.5-1.5,1.5
				s-1.5-0.67-1.5-1.5v-1.69c-0.07-0.08-3-4.81-3-4.81v-3h-6c-0.55,0-1,0.45-1,1v2.22c-3.44,0.83-6,3.91-6,7.61v1.67
				c0,0.28,0.22,0.5,0.5,0.5h34c0.28,0,0.5-0.22,0.5-0.5v-1.67C344,408.14,341.44,405.05,338,404.22z"/>
			<path class="st0" d="M330,375h-7c-4.42,0-8,3.58-8,8v6c0,0.55,0.45,1,1,1h1.25v0.5c0,2.34,1.91,4.25,4.25,4.25
				c2.34,0,4.25-1.91,4.25-4.25v-1c0-1.24-1.01-2.25-2.25-2.25h-4c-0.58,0-1.1,0.23-1.5,0.59V385c0-1.51,0.56-2.89,1.49-3.94
				c1.07,1.14,3.8,1.94,7.01,1.94c3.21,0,5.94-0.81,7.01-1.94c0.92,1.06,1.49,2.43,1.49,3.94v2.84c-0.4-0.36-0.92-0.59-1.5-0.59h-4
				c-1.24,0-2.25,1.01-2.25,2.25v1c0,2.34,1.91,4.25,4.25,4.25c2.34,0,4.25-1.91,4.25-4.25V390H337c0.55,0,1-0.45,1-1v-6
				C338,378.58,334.42,375,330,375z"/>
		</g>
	</g>
	<g>
		<g>
			<path class="st0" d="M247,402v2.22c-3.44,0.83-6,3.92-6,7.61v1.67c0,0.28,0.22,0.5,0.5,0.5H252v-7h2v-6h-6
				C247.45,401,247,401.45,247,402z M270,404.22V402c0-0.55-0.45-1-1-1h-6v6h2v7h10.5c0.28,0,0.5-0.22,0.5-0.5v-1.67
				C276,408.14,273.44,405.05,270,404.22z"/>
			<path class="st0" d="M260.5,405.25c-0.6,0-1.08,0.43-1.2,1h-1.6c-0.12-0.57-0.6-1-1.2-1c-0.69,0-1.25,0.56-1.25,1.25v2
				c0,0.69,0.56,1.25,1.25,1.25c0.6,0,1.08-0.43,1.2-1h1.6c0.12,0.57,0.6,1,1.2,1c0.69,0,1.25-0.56,1.25-1.25v-2
				C261.75,405.81,261.19,405.25,260.5,405.25z M262,375h-13c-1.1,0-2,0.9-2,2v12c0,0.55,0.45,1,1,1h2v-5c0-0.7,0.13-1.37,0.35-2
				h9.39c1.8,0,3.26-1.46,3.26-3.26v-0.39c2.33,0.82,4,3.04,4,5.65v5h2c0.55,0,1-0.45,1-1v-6C270,378.58,266.42,375,262,375z"/>
		</g>
	</g>
	<g>
		<g>
			<path class="st0" d="M202,404.72v-2.22c0-0.55-0.45-1-1-1h-6v3c0,0-2.93,4.73-3,4.81V411c0,0.83-0.67,1.5-1.5,1.5
				c-0.83,0-1.5-0.67-1.5-1.5v-1.69c-0.07-0.08-3-4.81-3-4.81v-3h-6c-0.55,0-1,0.45-1,1v2.22c-3.44,0.83-6,3.91-6,7.61V414
				c0,0.28,0.22,0.5,0.5,0.5h34c0.28,0,0.5-0.22,0.5-0.5v-1.67C208,408.64,205.44,405.55,202,404.72z"/>
			<path class="st0" d="M198,394.5h-1c0-2.21-1.79-4-4-4h-5c-2.21,0-4,1.79-4,4h-1c-0.55,0-1,0.45-1,1c0,0.55,0.45,1,1,1h4
				c1.52,0,2.82-0.86,3.5-2.1c0.68,1.25,1.98,2.1,3.5,2.1h4c0.55,0,1-0.45,1-1C199,394.95,198.55,394.5,198,394.5z M198,374.5h-11
				c-1.86,0-3.41,1.28-3.86,3H181c-1.1,0-2,0.9-2,2v9c0,0.55,0.45,1,1,1h2v-6c0-1.1,0.9-2,2-2h13c1.1,0,2,0.9,2,2v6h2
				c0.55,0,1-0.45,1-1v-10C202,376.29,200.21,374.5,198,374.5z"/>
		</g>
	</g>
	<g>
		<g>
			<path class="st0" d="M134,404.22V402c0-0.55-0.45-1-1-1h-6v3c0,0-2.93,4.73-3,4.81v1.69c0,0.83-0.67,1.5-1.5,1.5
				c-0.83,0-1.5-0.67-1.5-1.5v-1.69c-0.07-0.08-3-4.81-3-4.81v-3h-6c-0.55,0-1,0.45-1,1v2.22c-3.44,0.83-6,3.91-6,7.61v1.67
				c0,0.28,0.22,0.5,0.5,0.5h34c0.28,0,0.5-0.22,0.5-0.5v-1.67C140,408.14,137.44,405.05,134,404.22z"/>
			<path class="st0" d="M126,375h-7c-4.42,0-8,3.58-8,8v6c0,0.55,0.45,1,1,1h2v-5c0-1.31,0.42-2.52,1.14-3.51
				c1.47,0.9,4.21,1.51,7.36,1.51c3.15,0,5.89-0.61,7.36-1.51c0.71,0.99,1.14,2.2,1.14,3.51v5h2c0.55,0,1-0.45,1-1v-6
				C134,378.58,130.42,375,126,375z"/>
		</g>
	</g>
	<g>
		<g>
			<path class="st0" d="M64.17,402.5h-4.07c-0.68,0-1.31,0.35-1.68,0.92l-2.23,3.46c-0.79,1.22-2.58,1.22-3.36,0l-2.23-3.46
				c-0.37-0.57-1-0.92-1.68-0.92h-4.07c-4.33,0-7.83,3.51-7.83,7.83V414c0,0.28,0.22,0.5,0.5,0.5h34c0.28,0,0.5-0.22,0.5-0.5v-3.67
				C72,406.01,68.49,402.5,64.17,402.5z"/>
			<path class="st0" d="M57.92,389.5h-6.83c-1.7,0-3.08,1.38-3.08,3.08v4.12c0,0.86,0.34,1.71,1,2.27c1.48,1.26,3.4,2.03,5.5,2.03
				c2.1,0,4.02-0.76,5.5-2.03c0.66-0.56,1-1.41,1-2.27v-4.12C61,390.88,59.62,389.5,57.92,389.5z M56.5,395.5h-4
				c-0.83,0-1.5-0.67-1.5-1.5c0-0.83,0.67-1.5,1.5-1.5h4c0.83,0,1.5,0.67,1.5,1.5C58,394.83,57.33,395.5,56.5,395.5z M64,374.5H51
				c-4.42,0-8,3.58-8,8v6c0,0.55,0.45,1,1,1h2v-4c0-2.61,1.67-4.83,4-5.65v0.39c0,1.8,1.46,3.26,3.26,3.26h9.39
				c0.22,0.63,0.35,1.3,0.35,2v4h2c0.55,0,1-0.45,1-1v-12C66,375.4,65.1,374.5,64,374.5z"/>
		</g>
	</g>
	<g>
		<g>
			<g>
				<path class="st0" d="M408,318.23v-9.07c0-0.69-0.56-1.25-1.25-1.25c-0.69,0-1.25,0.56-1.25,1.25v2.92
					c-2.43-3.26-6.48-5.42-10.67-5.42h-1.08c-6.44,0-12.56,5.09-12.94,11.5c-1.21,0.38-2.1,1.51-2.1,2.85v3.35
					c0,1.43,1.01,2.63,2.35,2.93c0.34,3.54,3.69,6.38,7.24,6.38h11.97c3.55,0,6.9-2.84,7.24-6.38c1.34-0.3,2.35-1.49,2.35-2.93
					v-3.35C409.87,319.75,409.09,318.68,408,318.23z M392.21,309.52h4.15c0.69,0,1.25,0.56,1.25,1.25c0,0.69-0.56,1.25-1.25,1.25
					h-4.15c-0.69,0-1.25-0.56-1.25-1.25C390.96,310.08,391.52,309.52,392.21,309.52z M402.79,325.37c0,2.29-1.85,4.14-4.14,4.14
					h-8.72c-2.29,0-4.14-1.85-4.14-4.14v-2.21c0-4.69,3.81-8.5,8.5-8.5c4.69,0,8.5,3.81,8.5,8.5V325.37z"/>
				<path class="st0" d="M390.79,327.41h8c0.69,0,1.25-0.56,1.25-1.25c0-0.69-0.56-1.25-1.25-1.25h-8c-0.69,0-1.25,0.56-1.25,1.25
					C389.54,326.85,390.1,327.41,390.79,327.41z M405.42,334.67c-1.51,0.94-3.29,1.49-5.14,1.49H388.3c-1.73,0-3.38-0.48-4.83-1.31
					c-2.57,1.03-4.38,3.51-4.38,6.41v4.58c0,0.28,0.22,0.5,0.5,0.5h30.19c0.28,0,0.5-0.22,0.5-0.5v-4.58
					C410.29,338.18,408.24,335.57,405.42,334.67z M403.79,341.48h-4.15c-0.69,0-1.25-0.56-1.25-1.25s0.56-1.25,1.25-1.25h4.15
					c0.69,0,1.25,0.56,1.25,1.25S404.48,341.48,403.79,341.48z"/>
			</g>
		</g>
	</g>
	<g>
		<g>
			<path class="st0" d="M336.17,336h-4.07c-0.68,0-1.31,0.35-1.68,0.92l-2.23,3.46c-0.06,0.1-0.14,0.17-0.21,0.25l4.96,7.37h10.56
				c0.28,0,0.5-0.22,0.5-0.5v-3.67C344,339.51,340.49,336,336.17,336z M320.91,336h-4.07c-4.33,0-7.83,3.51-7.83,7.83v3.67
				c0,0.28,0.22,0.5,0.5,0.5h20.44l-7.54-11.19C322.4,336.81,321.54,336,320.91,336z"/>
			<path class="st0" d="M334.99,310.75c0-0.08,0.01-0.17,0.01-0.25c0-3.04-2.82-5.5-8.5-5.5s-8.5,2.46-8.5,5.5
				c0,0.08,0.01,0.17,0.01,0.25c-1.84,1.47-3.01,3.72-3.01,6.25v6c0,0.55,0.45,1,1,1h2v-6c0-2.97,2.16-5.43,5-5.91V314
				c0,1.1,0.9,2,2,2h3c1.1,0,2-0.9,2-2v-1.91c2.84,0.48,5,2.94,5,5.91v6h2c0.55,0,1-0.45,1-1v-6
				C338,314.47,336.82,312.22,334.99,310.75z"/>
		</g>
	</g>
	<g>
		<g>
			<path class="st0" d="M268.17,334h-4.07c-0.68,0-1.31,0.35-1.68,0.92l-2.18,3.39l2.14,3.14c0.31,0.46,0.19,1.08-0.26,1.39
				l-0.67,0.46c-0.46,0.31-1.08,0.19-1.39-0.26l-1.6-2.34l-1.6,2.34c-0.31,0.46-0.93,0.57-1.39,0.26l-0.67-0.46
				c-0.46-0.31-0.57-0.93-0.26-1.39l2.19-3.21l-2.14-3.32c-0.37-0.57-1-0.92-1.68-0.92h-4.07c-4.33,0-7.83,3.51-7.83,7.83v3.67
				c0,0.28,0.22,0.5,0.5,0.5h34c0.28,0,0.5-0.22,0.5-0.5v-3.67C276,337.51,272.49,334,268.17,334z"/>
			<path class="st0" d="M262,307h-7c-4.42,0-8,3.58-8,8v6c0,0.55,0.45,1,1,1h2v-5c0-0.83,0.17-1.61,0.47-2.33
				c1.1,1.36,4.05,2.33,7.53,2.33c4.3,0,7.79-1.48,7.98-3.34c0.64,0.96,1.02,2.11,1.02,3.34v5h2c0.55,0,1-0.45,1-1v-6
				C270,310.58,266.42,307,262,307z"/>
		</g>
	</g>
	<g>
		<g>
			<g>
				<g>
					<path class="st0" d="M173,342.33V346c0,0.28,0.22,0.5,0.5,0.5h5.5v-5.11c0-0.49,0.4-0.89,0.89-0.89H181v-6h-0.17
						C176.51,334.5,173,338.01,173,342.33z M200.17,334.5H200v6h1.11c0.49,0,0.89,0.4,0.89,0.89v5.11h5.5c0.28,0,0.5-0.22,0.5-0.5
						v-3.67C208,338.01,204.49,334.5,200.17,334.5z M194.41,335.42l-2.23,3.46c-0.79,1.22-2.58,1.22-3.36,0l-2.23-3.46
						c-0.37-0.57-1-0.92-1.68-0.92H183v6h15v-6h-1.91C195.41,334.5,194.78,334.85,194.41,335.42z"/>
					<path class="st0" d="M194,306.5h-7c-4.42,0-8,3.58-8,8v8c0,0.55,0.45,1,1,1h2v-7c0-1.52,0.57-2.9,1.5-3.96
						c1.13,1.14,4.05,1.96,7.5,1.96c2.93,0,5.49-0.59,6.88-1.48c0.7,0.98,1.12,2.18,1.12,3.48v7h2c0.55,0,1-0.45,1-1v-8
						C202,310.08,198.42,306.5,194,306.5z"/>
				</g>
			</g>
		</g>
	</g>
	<g>
		<g>
			<path class="st0" d="M134,337.28v-2.22c0-0.55-0.45-1-1-1h-6v3l-2.8,4.56c-0.06,0.1-0.13,0.17-0.2,0.25v1.69
				c0,0.83-0.67,1.5-1.5,1.5c-0.83,0-1.5-0.67-1.5-1.5v-1.69c-0.07-0.08-0.15-0.16-0.21-0.25l-2.8-4.56v-3h-6c-0.55,0-1,0.45-1,1
				v2.22c-3.44,0.83-6,3.91-6,7.61v1.67c0,0.28,0.22,0.5,0.5,0.5h34c0.28,0,0.5-0.22,0.5-0.5v-1.67
				C140,341.19,137.44,338.1,134,337.28z"/>
			<path class="st0" d="M130,327.05h-1c0-2.21-1.79-4-4-4h-5c-2.21,0-4,1.79-4,4h-1c-0.55,0-1,0.45-1,1c0,0.55,0.45,1,1,1h4
				c1.52,0,2.82-0.86,3.5-2.1c0.68,1.25,1.98,2.1,3.5,2.1h4c0.55,0,1-0.45,1-1C131,327.5,130.55,327.05,130,327.05z M135.5,316.05
				h-2.74l-2.07-7.49c-0.23-0.9-0.85-1.66-1.74-2.13c-1.04-0.55-2.28-0.63-3.4-0.23c-1.97,0.71-4.14,0.71-6.1,0
				c-1.12-0.4-2.36-0.32-3.4,0.23c-0.89,0.47-1.51,1.23-1.73,2.1l-1.82,6.42l-0.28,1.1h-2.72c-0.83,0-1.5,0.67-1.5,1.5
				c0,0.83,0.67,1.5,1.5,1.5h2.5v3h3v-3h15v3h3v-3h2.5c0.83,0,1.5-0.67,1.5-1.5C137,316.72,136.33,316.05,135.5,316.05z"/>
		</g>
	</g>
	<g>
		<g>
			<g>
				<path class="st0" d="M64.17,335.5h-4.07c-0.68,0-1.31,0.35-1.68,0.92l-2.23,3.46c-0.79,1.22-2.58,1.22-3.36,0l-2.23-3.46
					c-0.37-0.57-1-0.92-1.68-0.92h-4.07c-4.33,0-7.83,3.51-7.83,7.83V347c0,0.28,0.22,0.5,0.5,0.5h34c0.28,0,0.5-0.22,0.5-0.5v-3.67
					C72,339.01,68.49,335.5,64.17,335.5z"/>
				<path class="st0" d="M68.84,319.01c0.97-1.65,0.64-3.2-0.88-4.3c-0.31-0.23-0.48-0.59-0.43-0.95c0.22-1.75-0.67-2.99-2.44-3.46
					c-0.4-0.1-0.71-0.39-0.81-0.75c-0.49-1.67-1.8-2.51-3.64-2.32c-0.41,0.04-0.82-0.12-1.07-0.42c-1.16-1.4-2.78-1.71-4.52-0.83
					c-0.34,0.17-0.77,0.17-1.12,0c-1.73-0.88-3.36-0.57-4.52,0.83c-0.25,0.3-0.66,0.46-1.07,0.42c-1.84-0.19-3.15,0.65-3.64,2.32
					c-0.11,0.36-0.42,0.65-0.81,0.75c-1.78,0.46-2.66,1.71-2.44,3.46c0.05,0.36-0.12,0.72-0.43,0.95c-1.51,1.1-1.84,2.65-0.88,4.3
					c0.18,0.3,0.18,0.67,0,0.98c-0.97,1.65-0.64,3.2,0.88,4.3c0.31,0.23,0.48,0.59,0.43,0.95c-0.22,1.75,0.67,2.99,2.44,3.46
					c0.4,0.1,0.71,0.39,0.81,0.75c0.47,1.61,1.72,2.44,3.47,2.32c0.16,0.46,0.42,0.89,0.8,1.21c1.48,1.26,3.4,2.03,5.5,2.03
					c2.1,0,4.02-0.76,5.5-2.03c0.38-0.32,0.64-0.75,0.8-1.21c1.75,0.12,3-0.71,3.47-2.32c0.11-0.36,0.42-0.65,0.81-0.75
					c1.78-0.46,2.66-1.71,2.44-3.46c-0.05-0.36,0.12-0.72,0.43-0.95c1.51-1.1,1.84-2.65,0.88-4.3
					C68.66,319.69,68.66,319.31,68.84,319.01z M48.04,331.5h0.07c0.01,0.04,0.03,0.09,0.04,0.13
					C48.11,331.59,48.08,331.54,48.04,331.5z M56.5,329.5h-4c-0.83,0-1.5-0.67-1.5-1.5c0-0.83,0.67-1.5,1.5-1.5h4
					c0.83,0,1.5,0.67,1.5,1.5C58,328.83,57.33,329.5,56.5,329.5z M60.85,331.63c0.01-0.04,0.03-0.09,0.04-0.13h0.07
					C60.92,331.54,60.89,331.59,60.85,331.63z M63,326c0,0.87-0.14,1.71-0.38,2.5H61v-1.92c0-1.7-1.38-3.08-3.08-3.08h-6.83
					c-1.7,0-3.08,1.38-3.08,3.08v1.92h-1.62c-0.24-0.79-0.38-1.63-0.38-2.5v-4.43c0-1.74,0.55-3.34,1.49-4.66
					c1.07,1.51,3.8,2.59,7.01,2.59s5.94-1.08,7.01-2.59c0.93,1.32,1.49,2.92,1.49,4.66V326z"/>
			</g>
		</g>
	</g>
	<g>
		<g>
			<g>
				<path class="st0" d="M388.39,270.99l-4.31-4.31h-2.09c-0.55,0-1,0.45-1,1v4c0,0.05,0.02,0.1,0.03,0.15
					c-2.24,0.49-3.92,2.49-3.92,4.88v0.97c0,0.28,0.22,0.5,0.5,0.5h15.48v-5.88h-1.5C390.37,272.31,389.24,271.84,388.39,270.99z
					 M407.96,271.83c0.01-0.05,0.03-0.09,0.03-0.14v-4c0-0.55-0.45-1-1-1h-2.07l-4.31,4.31c-0.85,0.85-1.98,1.32-3.18,1.32h-1.35
					v5.88h15.33c0.28,0,0.5-0.22,0.5-0.5v-0.97C411.9,274.31,410.21,272.32,407.96,271.83z"/>
				<path class="st0" d="M409.5,251.69h-30c-0.83,0-1.5,0.67-1.5,1.5c0,0.83,0.67,1.5,1.5,1.5h1.73c-0.14,0.27-0.23,0.57-0.23,0.89
					v2.21c0,1.05,0.85,1.89,1.89,1.89H384v1.73c0,1.06,0.42,2.08,1.17,2.83l4.98,4.98c0.38,0.38,0.88,0.59,1.41,0.59h5.86
					c0.53,0,1.04-0.21,1.41-0.59l4.98-4.98c0.75-0.75,1.17-1.77,1.17-2.83v-1.73h1.11c1.05,0,1.89-0.85,1.89-1.89v-2.21
					c0-0.33-0.09-0.63-0.23-0.89h1.73c0.83,0,1.5-0.67,1.5-1.5C411,252.36,410.33,251.69,409.5,251.69z M389,260.69
					c-1.66,0-3-1.34-3-3c0-1.66,1.34-3,3-3s3,1.34,3,3C392,259.34,390.66,260.69,389,260.69z M400,260.69c-1.66,0-3-1.34-3-3
					c0-1.66,1.34-3,3-3s3,1.34,3,3C403,259.34,401.66,260.69,400,260.69z M403.05,241.92c-0.25-1.15-0.99-2.12-2.03-2.67
					c-1.05-0.54-2.27-0.59-3.35-0.12c-2.01,0.86-4.32,0.86-6.33,0c-1.08-0.46-2.31-0.42-3.35,0.12c-1.05,0.54-1.79,1.51-2.03,2.64
					l-1.62,6.79h20.3L403.05,241.92z"/>
			</g>
		</g>
	</g>
	<g>
		<g>
			<g>
				<g>
					<path class="st0" d="M326.5,269.5c-0.83,0-1.5,0.67-1.5,1.5v6c0,0.83,0.67,1.5,1.5,1.5c0.83,0,1.5-0.67,1.5-1.5v-6
						C328,270.17,327.33,269.5,326.5,269.5z M330,238.5h-7c-4.42,0-8,3.58-8,8v8c0,0.55,0.45,1,1,1h2v-6c0-1.62,0.64-3.08,1.68-4.16
						c1.46,0.71,3.74,1.16,6.32,1.16c2.98,0,5.57-0.61,6.94-1.51c1.26,1.1,2.06,2.71,2.06,4.51v6h2c0.55,0,1-0.45,1-1v-8
						C338,242.08,334.42,238.5,330,238.5z"/>
					<path class="st0" d="M309,274.33V278c0,0.28,0.22,0.5,0.5,0.5H322v-12h-5.17C312.51,266.5,309,270.01,309,274.33z
						 M336.17,266.5H331v12h12.5c0.28,0,0.5-0.22,0.5-0.5v-3.67C344,270.01,340.49,266.5,336.17,266.5z M325,258h-2
						c-0.63,0-1.18,0.3-1.55,0.75h-4.95c-0.69,0-1.25,0.56-1.25,1.25c0,0.69,0.56,1.25,1.25,1.25h4.95
						c0.37,0.45,0.92,0.75,1.55,0.75h2c1.1,0,2-0.9,2-2C327,258.9,326.1,258,325,258z"/>
				</g>
			</g>
		</g>
	</g>
	<g>
		<g>
			<path class="st0" d="M246.5,261.75h4.95c0.37,0.45,0.92,0.75,1.55,0.75h2c1.1,0,2-0.9,2-2c0-1.1-0.9-2-2-2h-2
				c-0.63,0-1.18,0.3-1.55,0.75h-4.95c-0.69,0-1.25,0.56-1.25,1.25C245.25,261.19,245.81,261.75,246.5,261.75z M268.83,267.03
				c-0.86,2.82-5.15,4.97-10.33,4.97c-5.18,0-9.47-2.15-10.33-4.97c-4.01,0.34-7.17,3.7-7.17,7.8v3.67c0,0.28,0.22,0.5,0.5,0.5h34
				c0.28,0,0.5-0.22,0.5-0.5v-3.67C276,270.73,272.85,267.37,268.83,267.03z"/>
			<path class="st0" d="M260.91,238h-4.82c-6.12,0-11.09,5.15-11.09,11.5v7.5h5.02c-0.01-0.17-0.03-0.33-0.03-0.5V250
				c0-1.88,1.3-3.44,3.04-3.87c0.2,1.62,1.56,2.87,3.22,2.87h10.59c0.08,0.32,0.14,0.65,0.14,1v6.5c0,3.25-1.82,6.07-4.5,7.5h5.65
				c2.13,0,3.86-1.79,3.86-4v-10.5C272,243.15,267.04,238,260.91,238z"/>
		</g>
	</g>
	<g>
		<g>
			<g>
				<path class="st0" d="M179,267.5v2.22c-3.44,0.83-6,3.91-6,7.61V279c0,0.28,0.22,0.5,0.5,0.5H184v-10h2v-3h-6
					C179.45,266.5,179,266.95,179,267.5z M202,269.72v-2.22c0-0.55-0.45-1-1-1h-6v3h2v10h10.5c0.28,0,0.5-0.22,0.5-0.5v-1.67
					C208,273.64,205.44,270.55,202,269.72z M191.5,258.75h-2c-0.69,0-1.25,0.56-1.25,1.25c0,0.69,0.56,1.25,1.25,1.25h2
					c0.69,0,1.25-0.56,1.25-1.25C192.75,259.31,192.19,258.75,191.5,258.75z"/>
				<path class="st0" d="M193,237.5h-6c-1.66,0-3,1.34-3,3h-1c-2.76,0-5,2.24-5,5v15c0,1.1,0.9,2,2,2h5.03
					c-1.85-1.56-3.03-3.89-3.03-6.5v-6.5c0-1.48,0.81-2.75,2-3.45v0.18c0,1.8,1.46,3.26,3.26,3.26H199v6.5
					c0,2.61-1.18,4.94-3.03,6.5H201c1.1,0,2-0.9,2-2v-13C203,241.98,198.52,237.5,193,237.5z M192.5,269.75c-0.6,0-1.08,0.43-1.2,1
					h-1.6c-0.12-0.57-0.6-1-1.2-1c-0.69,0-1.25,0.56-1.25,1.25v2c0,0.69,0.56,1.25,1.25,1.25c0.6,0,1.08-0.43,1.2-1h1.6
					c0.12,0.57,0.6,1,1.2,1c0.69,0,1.25-0.56,1.25-1.25v-2C193.75,270.31,193.19,269.75,192.5,269.75z"/>
			</g>
		</g>
	</g>
	<g>
		<g>
			<path class="st0" d="M138.35,257c-1.44-0.01-2.53-1.26-2.4-2.7c0.03-0.31,0.04-0.62,0.04-0.94v-3.86c0-6.35-5.15-11.5-11.5-11.5
				h-4c-5.88,0-10.72,4.42-11.41,10.11c-1.77,0.41-3.09,1.99-3.09,3.89c0,0.91,0.32,1.74,0.83,2.41c-1.12,1.01-1.83,2.46-1.83,4.09
				c0,2.87,2.2,5.22,5,5.47V264h7.9c0.23,0.02,0.47,0.03,0.71,0.05c-2.74-1.41-4.61-4.26-4.61-7.55V251h4.29
				c3.11,0,5.72-2.12,6.48-5H127c2.21,0,4,1.79,4,4v6.5c0,3.19-1.76,5.96-4.35,7.41c0.58-0.07,1.15-0.19,1.7-0.35
				c5.87-1.11,10.04-3.62,10.3-6.56L138.35,257z"/>
			<path class="st0" d="M121.5,261.75h2c0.69,0,1.25-0.56,1.25-1.25c0-0.69-0.56-1.25-1.25-1.25h-2c-0.69,0-1.25,0.56-1.25,1.25
				C120.25,261.19,120.81,261.75,121.5,261.75z M132.17,267h-4.07c-0.68,0-1.31,0.35-1.68,0.92l-2.14,3.32l2.15,3.15
				c0.31,0.46,0.19,1.08-0.26,1.39l-0.67,0.46c-0.46,0.31-1.08,0.19-1.39-0.26l-1.6-2.34l-1.6,2.34c-0.31,0.46-0.93,0.57-1.39,0.26
				l-0.67-0.46c-0.46-0.31-0.57-0.93-0.26-1.39l2.15-3.15l-2.14-3.33c-0.37-0.57-1-0.92-1.68-0.92h-4.07
				c-4.33,0-7.83,3.51-7.83,7.83v3.67c0,0.28,0.22,0.5,0.5,0.5h34c0.28,0,0.5-0.22,0.5-0.5v-3.67C140,270.51,136.49,267,132.17,267z
				"/>
		</g>
	</g>
	<g>
		<g>
			<g>
				<path class="st0" d="M56,238h-6c-1.66,0-3,1.34-3,3v0.35c-2.33,0.82-4,3.04-4,5.65v14c0,1.66,1.34,3,3,3h4.5
					c-2.68-1.43-4.5-4.25-4.5-7.5V250c0-1.86,1.28-3.41,3-3.86v0.6c0,1.8,1.46,3.26,3.26,3.26H63v6.5c0,2.61-1.18,4.94-3.03,6.5h2.7
					c1.84,0,3.33-1.49,3.33-3.33V248C66,242.48,61.52,238,56,238z"/>
				<path class="st0" d="M37,274.83v3.67c0,0.28,0.22,0.5,0.5,0.5H43v-4.11c0-0.49,0.4-0.89,0.89-0.89H45v-7h-0.17
					C40.51,267,37,270.51,37,274.83z M53.5,261.75h2c0.69,0,1.25-0.56,1.25-1.25c0-0.69-0.56-1.25-1.25-1.25h-2
					c-0.69,0-1.25,0.56-1.25,1.25C52.25,261.19,52.81,261.75,53.5,261.75z M64.17,267H64v7h1.11c0.49,0,0.89,0.4,0.89,0.89V279h5.5
					c0.28,0,0.5-0.22,0.5-0.5v-3.67C72,270.51,68.49,267,64.17,267z M58.41,267.92l-2.23,3.46c-0.79,1.22-2.58,1.22-3.36,0
					l-2.23-3.46c-0.37-0.57-1-0.92-1.68-0.92H47v7h15v-7h-1.91C59.41,267,58.78,267.35,58.41,267.92z"/>
			</g>
		</g>
	</g>
	<g>
		<g>
			<path class="st0" d="M393.5,194.83h2c0.69,0,1.25-0.56,1.25-1.25s-0.56-1.25-1.25-1.25h-2c-0.69,0-1.25,0.56-1.25,1.25
				S392.81,194.83,393.5,194.83z M404.17,200.08c0.23,0,0.45,0.02,0.67,0.03c-0.86,2.82-5.15,4.97-10.33,4.97
				c-5.18,0-9.47-2.15-10.33-4.97c0.22-0.02,0.44-0.03,0.67-0.03c-4.33,0-7.83,3.51-7.83,7.83v3.67c0,0.28,0.22,0.5,0.5,0.5h34
				c0.28,0,0.5-0.22,0.5-0.5v-3.67C412,203.59,408.49,200.08,404.17,200.08z"/>
			<path class="st0" d="M411.51,186.45c1.15-2.14,0.75-4.15-1.04-5.57c-0.37-0.29-0.56-0.76-0.51-1.23c0.26-2.27-0.79-3.88-2.9-4.48
				c-0.47-0.13-0.84-0.51-0.96-0.98c-0.58-2.16-2.13-3.25-4.31-3c-0.49,0.05-0.97-0.15-1.26-0.54c-1.37-1.81-3.3-2.22-5.36-1.08
				c-0.41,0.23-0.91,0.23-1.32,0c-2.05-1.14-3.98-0.74-5.36,1.08c-0.29,0.39-0.78,0.59-1.26,0.54c-2.18-0.24-3.73,0.84-4.31,3
				c-0.13,0.47-0.5,0.84-0.96,0.98c-2.11,0.6-3.16,2.22-2.9,4.48c0.05,0.47-0.14,0.94-0.51,1.23c-1.79,1.43-2.19,3.43-1.04,5.57
				c0.21,0.39,0.21,0.87,0,1.27c-1.15,2.14-0.75,4.15,1.04,5.57c0.37,0.29,0.56,0.76,0.51,1.23c-0.26,2.27,0.79,3.88,2.9,4.48
				c0.47,0.13,0.84,0.51,0.96,0.98c0.03,0.11,0.08,0.21,0.11,0.32c0.58-0.14,1.19-0.22,1.82-0.22H390v-3.24c-2.4-1.5-4-4.16-4-7.2
				v-6.55c0-1.64,0.99-3.05,2.41-3.67c1.36,1.01,3.58,1.67,6.09,1.67c2.51,0,4.73-0.66,6.09-1.67c1.42,0.61,2.41,2.02,2.41,3.67
				v6.55c0,3.04-1.6,5.7-4,7.2v3.24h5.17c0.63,0,1.23,0.08,1.82,0.22c0.04-0.11,0.08-0.21,0.11-0.32c0.13-0.47,0.5-0.84,0.96-0.98
				c2.11-0.6,3.16-2.22,2.9-4.48c-0.05-0.47,0.14-0.94,0.51-1.23c1.79-1.43,2.19-3.43,1.04-5.57
				C411.3,187.32,411.3,186.84,411.51,186.45z"/>
		</g>
	</g>
	<g>
		<g>
			<path class="st0" d="M336.17,199h-4.07c-0.68,0-1.31,0.35-1.68,0.92l-2.23,3.46c-0.79,1.22-2.58,1.22-3.36,0l-2.23-3.46
				c-0.37-0.57-1-0.92-1.68-0.92h-4.07c-4.33,0-7.83,3.51-7.83,7.83v3.67c0,0.28,0.22,0.5,0.5,0.5h34c0.28,0,0.5-0.22,0.5-0.5v-3.67
				C344,202.51,340.49,199,336.17,199z M325.5,193.75h2c0.69,0,1.25-0.56,1.25-1.25c0-0.69-0.56-1.25-1.25-1.25h-2
				c-0.69,0-1.25,0.56-1.25,1.25C324.25,193.19,324.81,193.75,325.5,193.75z"/>
			<path class="st0" d="M339.96,187.98c-0.84-1.09-1.26-2.43-1.08-3.79c0.08-0.61,0.12-1.23,0.12-1.86v-0.83
				c0-6.35-4.77-11.5-10.65-11.5h-3.71c-5.88,0-10.65,5.15-10.65,11.5v0.83c0,0.63,0.04,1.25,0.12,1.86
				c0.18,1.37-0.24,2.7-1.08,3.79c-1.24,1.6-1.52,3.98,0.04,6.32c0.15,0.23,0.36,0.43,0.58,0.59c1.14,0.78,2.28,1.11,3.34,1.11V196
				h5.4c-2.62-1.45-4.4-4.24-4.4-7.45V182c0-1.86,1.28-3.41,3-3.86v0.6c0,1.8,1.46,3.26,3.26,3.26H335v6.55c0,3.21-1.78,6-4.4,7.45
				h5.4v-0.01c1.06,0,2.2-0.33,3.34-1.11c0.23-0.15,0.43-0.36,0.58-0.59C341.49,191.95,341.21,189.58,339.96,187.98z"/>
		</g>
	</g>
	<g>
		<g>
			<path class="st0" d="M257.5,193.75h2c0.69,0,1.25-0.56,1.25-1.25c0-0.69-0.56-1.25-1.25-1.25h-2c-0.69,0-1.25,0.56-1.25,1.25
				C256.25,193.19,256.81,193.75,257.5,193.75z M268.83,199.03c-0.86,2.82-5.15,4.97-10.33,4.97c-5.18,0-9.47-2.15-10.33-4.97
				c-4.01,0.34-7.17,3.7-7.17,7.8v3.67c0,0.28,0.22,0.5,0.5,0.5h34c0.28,0,0.5-0.22,0.5-0.5v-3.67
				C276,202.73,272.85,199.37,268.83,199.03z"/>
			<path class="st0" d="M274.35,189c-1.44-0.01-2.53-1.26-2.4-2.7c0.03-0.31,0.04-0.62,0.04-0.94v-3.86c0-6.35-5.15-11.5-11.5-11.5
				h-4c-6.35,0-11.5,5.15-11.5,11.5v4.29c0,0.23,0.01,0.45,0.02,0.67c0.09,1.39-1.05,2.54-2.44,2.54l-0.14,0
				c0,0.08,0,0.16,0.01,0.24c0.22,2.84,4.2,5.25,9.83,6.33c0.66,0.2,1.34,0.33,2.04,0.39c-2.59-1.46-4.33-4.22-4.33-7.4V182
				c0,0,0,0,0-0.01V183h5.29c3.11,0,5.72-2.12,6.48-5H263c2.21,0,4,1.79,4,4v6.55c0,3.14-1.71,5.88-4.24,7.35
				c0.55-0.07,1.08-0.19,1.6-0.34c5.87-1.11,10.04-3.62,10.3-6.56L274.35,189z M253.9,196c0.19,0.02,0.39,0.03,0.58,0.04
				c-0.03-0.01-0.05-0.03-0.08-0.04H253.9z"/>
		</g>
	</g>
	<g>
		<g>
			<path class="st0" d="M189.5,193.75h2c0.69,0,1.25-0.56,1.25-1.25c0-0.69-0.56-1.25-1.25-1.25h-2c-0.69,0-1.25,0.56-1.25,1.25
				C188.25,193.19,188.81,193.75,189.5,193.75z M200.17,199H197v5c0,1.1-0.9,2-2,2h-9c-1.1,0-2-0.9-2-2v-5h-3.17
				c-4.33,0-7.83,3.51-7.83,7.83v3.67c0,0.28,0.22,0.5,0.5,0.5h34c0.28,0,0.5-0.22,0.5-0.5v-3.67C208,202.51,204.49,199,200.17,199z
				"/>
			<path class="st0" d="M192.5,170h-4c-6.35,0-11.5,5.15-11.5,11.5V192c0,2.21,1.79,4,4,4h5.5c-2.56-1.37-4.31-4-4.47-7.06
				c0.77,1.09,2.04,1.81,3.47,1.81c2.34,0,4.25-1.91,4.25-4.25v-1c0-1.24-1.01-2.25-2.25-2.25h-4c-0.58,0-1.1,0.23-1.5,0.59V182
				c0-0.55,0.45-1,1-1h15c0.55,0,1,0.45,1,1v1.84c-0.4-0.36-0.92-0.59-1.5-0.59h-4c-1.24,0-2.25,1.01-2.25,2.25v1
				c0,2.34,1.91,4.25,4.25,4.25c1.43,0,2.7-0.72,3.47-1.81c-0.16,3.06-1.92,5.7-4.47,7.06h5.5c2.21,0,4-1.79,4-4v-10.5
				C204,175.15,198.85,170,192.5,170z"/>
		</g>
	</g>
	<g>
		<g>
			<path class="st0" d="M121.5,194.25h2c0.69,0,1.25-0.56,1.25-1.25c0-0.69-0.56-1.25-1.25-1.25h-2c-0.69,0-1.25,0.56-1.25,1.25
				C120.25,193.69,120.81,194.25,121.5,194.25z M132.83,199.53c-0.86,2.82-5.15,4.97-10.33,4.97c-5.18,0-9.47-2.15-10.33-4.97
				c-4.01,0.34-7.17,3.7-7.17,7.8V211c0,0.28,0.22,0.5,0.5,0.5h34c0.28,0,0.5-0.22,0.5-0.5v-3.67
				C140,203.23,136.85,199.87,132.83,199.53z"/>
			<path class="st0" d="M124.5,169.5h-4.01c-6.35,0-11.5,5.15-11.5,11.5v11.33c0,2.21,1.79,4,4,4h5.13
				c-2.47-1.49-4.13-4.19-4.13-7.28v-6.55c0-1.86,1.28-3.41,3-3.86v1.1c0,1.8,1.46,3.26,3.26,3.26H131v6.05
				c0,3.09-1.66,5.79-4.13,7.28H132c2.21,0,4-1.79,4-4V181C136,174.65,130.85,169.5,124.5,169.5z"/>
		</g>
	</g>
	<g>
		<g>
			<path class="st0" d="M37,206.83v3.67c0,0.28,0.22,0.5,0.5,0.5H50v-12h-5.17C40.51,199,37,202.51,37,206.83z M55.5,191.25h-2
				c-0.69,0-1.25,0.56-1.25,1.25c0,0.69,0.56,1.25,1.25,1.25h2c0.69,0,1.25-0.56,1.25-1.25C56.75,191.81,56.19,191.25,55.5,191.25z
				 M64.17,199H59v12h12.5c0.28,0,0.5-0.22,0.5-0.5v-3.67C72,202.51,68.49,199,64.17,199z"/>
			<path class="st0" d="M54.5,202c-0.83,0-1.5,0.67-1.5,1.5v6c0,0.83,0.67,1.5,1.5,1.5c0.83,0,1.5-0.67,1.5-1.5v-6
				C56,202.67,55.33,202,54.5,202z M54.5,170c-7.46,0-13.5,6.04-13.5,13.5v16.51c1.13-0.64,2.44-1.01,3.83-1.01H50v-3.3
				c-2.4-1.5-4-4.16-4-7.2v-8c0-1.38,1.12-2.5,2.5-2.5s2.5,1.12,2.5,2.5v2.5h11c0.55,0,1,0.45,1,1v4.5c0,3.04-1.6,5.7-4,7.2v3.3
				h5.17c1.39,0,2.7,0.37,3.83,1.01V183.5C68,176.04,61.96,170,54.5,170z"/>
		</g>
	</g>
	<g>
		<g>
			<path class="st0" d="M393.5,125.75h2c0.69,0,1.25-0.56,1.25-1.25c0-0.69-0.56-1.25-1.25-1.25h-2c-0.69,0-1.25,0.56-1.25,1.25
				C392.25,125.19,392.81,125.75,393.5,125.75z M404.17,131h-4.07c-0.68,0-1.31,0.35-1.68,0.92l-2.23,3.46
				c-0.79,1.22-2.58,1.22-3.36,0l-2.23-3.46c-0.37-0.57-1-0.92-1.68-0.92h-4.07c-4.33,0-7.83,3.51-7.83,7.83v3.67
				c0,0.28,0.22,0.5,0.5,0.5h34c0.28,0,0.5-0.22,0.5-0.5v-3.67C412,134.51,408.49,131,404.17,131z"/>
			<path class="st0" d="M408.3,118.58c0.44-0.58,0.7-1.3,0.7-2.08c0-1.76-1.31-3.21-3-3.45V112c0-5.52-4.48-10-10-10h-6
				c-1.66,0-3,1.34-3,3v1h-2c-1.66,0-3,1.34-3,3v9c0,4.87,3.48,8.92,8.1,9.81c-2.45-1.49-4.1-4.18-4.1-7.26V114
				c0-1.04,0.41-1.98,1.06-2.69c0.27,1.53,1.6,2.69,3.21,2.69H403v6.55c0,3.21-1.78,6-4.4,7.45h7.4c2.76,0,5-2.24,5-5
				C411,121.07,409.9,119.42,408.3,118.58z"/>
		</g>
	</g>
	<g>
		<g>
			<path class="st0" d="M325.5,125.75h2c0.69,0,1.25-0.56,1.25-1.25c0-0.69-0.56-1.25-1.25-1.25h-2c-0.69,0-1.25,0.56-1.25,1.25
				C324.25,125.19,324.81,125.75,325.5,125.75z M340,132.01v2.67c0,1.84-1.49,3.33-3.33,3.33H333v-2c0,1.1-0.9,2-2,2h-9
				c-1.1,0-2-0.9-2-2v-5h-3.17c-4.33,0-7.83,3.51-7.83,7.83v3.67c0,0.28,0.22,0.5,0.5,0.5h34c0.28,0,0.5-0.22,0.5-0.5v-3.67
				C344,135.9,342.39,133.35,340,132.01z"/>
			<path class="st0" d="M330,102h-8c-1.66,0-3,1.34-3,3v0.26c-3.45,0.89-6,4.01-6,7.74v18c0,0.32,0.06,0.63,0.16,0.92
				c1.1-0.58,2.34-0.92,3.67-0.92H322v-3.24c-2.4-1.5-4-4.16-4-7.2V114c0-2.21,1.79-4,4-4h3v0.96c0,2.78,2.26,5.04,5.04,5.04H335
				v4.55c0,3.04-1.6,5.7-4,7.2V131h2v7h3.67c1.84,0,3.33-1.49,3.33-3.33V112C340,106.48,335.52,102,330,102z"/>
		</g>
	</g>
	<g>
		<g>
			<g>
				<path class="st0" d="M269,106.5h-1.24c-0.77-2.88-3.39-5-6.51-5h-5.5c-3.12,0-5.74,2.12-6.51,5H248c-2.21,0-4,1.79-4,4v12
					c0,2.21,1.79,4,4,4h3.98c-1.23-1.48-1.98-3.37-1.98-5.45v-6.55c0-2.21,1.79-4,4-4h9c2.21,0,4,1.79,4,4v6.55
					c0,2.07-0.74,3.97-1.98,5.45H269c2.21,0,4-1.79,4-4v-12C273,108.29,271.21,106.5,269,106.5z"/>
				<path class="st0" d="M268.17,131.5h-4.07c-0.68,0-1.31,0.35-1.68,0.92c0,0-2.37,3.63-2.44,3.71l4.96,7.37h10.56
					c0.28,0,0.5-0.22,0.5-0.5v-3.67C276,135.01,272.49,131.5,268.17,131.5z M257.5,126.25h2c0.69,0,1.25-0.56,1.25-1.25
					c0-0.69-0.56-1.25-1.25-1.25h-2c-0.69,0-1.25,0.56-1.25,1.25C256.25,125.69,256.81,126.25,257.5,126.25z M252.91,131.5h-4.07
					c-4.33,0-7.83,3.51-7.83,7.83V143c0,0.28,0.22,0.5,0.5,0.5h20.44l-7.44-11.19C254.12,131.81,253.54,131.5,252.91,131.5z"/>
			</g>
		</g>
	</g>
	<g>
		<g>
			<path class="st0" d="M189.5,125.75h2c0.69,0,1.25-0.56,1.25-1.25c0-0.69-0.56-1.25-1.25-1.25h-2c-0.69,0-1.25,0.56-1.25,1.25
				C188.25,125.19,188.81,125.75,189.5,125.75z M200.17,131h-4.07c-0.68,0-1.31,0.35-1.68,0.92l-2.23,3.46
				c-0.06,0.09-0.13,0.16-0.2,0.23v1.88c0,0.83-0.67,1.5-1.5,1.5s-1.5-0.67-1.5-1.5v-1.92c-0.06-0.07-0.12-0.12-0.17-0.2l-2.23-3.46
				c-0.37-0.57-1-0.92-1.68-0.92h-4.07c-4.33,0-7.83,3.51-7.83,7.83v3.67c0,0.28,0.22,0.5,0.5,0.5h34c0.28,0,0.5-0.22,0.5-0.5v-3.67
				C208,134.51,204.49,131,200.17,131z"/>
			<path class="st0" d="M194,102h-8c-1.66,0-3,1.34-3,3v0.09c-2.84,0.48-5,2.94-5,5.91v14c0,1.66,1.34,3,3,3h5.4
				c-2.62-1.45-4.4-4.24-4.4-7.45V114c0-1.86,1.28-3.41,3-3.86v0.6c0,1.8,1.46,3.26,3.26,3.26H199v6.55c0,2.58-1.15,4.89-2.97,6.45
				h4.64c1.84,0,3.33-1.49,3.33-3.33V112C204,106.48,199.52,102,194,102z"/>
		</g>
	</g>
	<g>
		<g>
			<path class="st0" d="M121.5,125.75h2c0.69,0,1.25-0.56,1.25-1.25c0-0.69-0.56-1.25-1.25-1.25h-2c-0.69,0-1.25,0.56-1.25,1.25
				C120.25,125.19,120.81,125.75,121.5,125.75z M132.83,131.03c-0.86,2.82-5.15,4.97-10.33,4.97c-5.18,0-9.47-2.15-10.33-4.97
				c-4.01,0.34-7.17,3.7-7.17,7.8v3.67c0,0.28,0.22,0.5,0.5,0.5h34c0.28,0,0.5-0.22,0.5-0.5v-3.67
				C140,134.73,136.85,131.37,132.83,131.03z"/>
			<path class="st0" d="M137.5,120.9c0.31-0.57,0.5-1.21,0.5-1.9c0-1.86-1.28-3.41-3-3.86V112c0-5.52-4.48-10-10-10h-5
				c-5.52,0-10,4.48-10,10v3.14c-1.72,0.45-3,2-3,3.86c0,0.5,0.1,0.97,0.27,1.41c-1.34,0.65-2.27,2.01-2.27,3.59c0,2.21,1.79,4,4,4
				h9.4c-2.62-1.45-4.4-4.24-4.4-7.45V114c0-2.21,1.79-4,4-4h5v2.07c0,4.38,3.55,7.93,7.93,7.93H131v0.55c0,3.21-1.78,6-4.4,7.45
				h8.4c2.21,0,4-1.79,4-4C139,122.74,138.41,121.63,137.5,120.9z"/>
		</g>
	</g>
	<g>
		<g>
			<path class="st0" d="M68,123.09v-7.59c0-7.46-6.04-13.5-13.5-13.5c-7.46,0-13.5,6.04-13.5,13.5v7.59c-2.84,0.48-5,2.94-5,5.91
				c0,2.09,1.07,3.92,2.68,5c1.43-1.82,3.65-3,6.15-3h4.07c0.4,0,0.77,0.13,1.09,0.34v-3.64c-2.4-1.5-4-4.16-4-7.2V114
				c0-0.55,0.45-1,1-1h15c0.55,0,1,0.45,1,1v6.5c0,3.04-1.6,5.7-4,7.2v3.64c0.32-0.21,0.7-0.34,1.09-0.34h4.07
				c2.5,0,4.72,1.17,6.15,3c1.61-1.08,2.68-2.91,2.68-5C73,126.03,70.84,123.57,68,123.09z"/>
			<path class="st0" d="M64.17,131h-4.07c-0.68,0-1.31,0.35-1.68,0.92l-2.23,3.46c-0.79,1.22-2.58,1.22-3.36,0l-2.23-3.46
				c-0.37-0.57-1-0.92-1.68-0.92h-4.07c-4.33,0-7.83,3.51-7.83,7.83v3.67c0,0.28,0.22,0.5,0.5,0.5h34c0.28,0,0.5-0.22,0.5-0.5v-3.67
				C72,134.51,68.49,131,64.17,131z M53.5,125.75h2c0.69,0,1.25-0.56,1.25-1.25c0-0.69-0.56-1.25-1.25-1.25h-2
				c-0.69,0-1.25,0.56-1.25,1.25C52.25,125.19,52.81,125.75,53.5,125.75z"/>
		</g>
	</g>
</g>
<g id="title">
</g>
</svg>
