<?xml version="1.0" encoding="utf-8"?>
<!-- Generator: Adobe Illustrator 24.1.1, SVG Export Plug-In . SVG Version: 6.00 Build 0)  -->
<svg version="1.1" xmlns="http://www.w3.org/2000/svg" x="0px" y="0px"
     viewBox="0 0 448 448" style="enable-background:new 0 0 448 448;" xml:space="preserve">
<style type="text/css">
	.st0{display:none;}
	.st1{display:inline;fill:#FFFFFF;}
	.st2{fill:#173042;}
	.st3{display:inline;}
	.st4{fill:#869093;}
</style>
<g id="grid" class="st0">
	<rect x="30" y="98" class="st1" width="48" height="48"/>
	<rect x="98" y="98" class="st1" width="48" height="48"/>
	<rect x="166" y="98" class="st1" width="48" height="48"/>
	<rect x="234" y="98" class="st1" width="48" height="48"/>
	<rect x="302" y="98" class="st1" width="48" height="48"/>
	<rect x="370" y="98" class="st1" width="48" height="48"/>
	<rect x="30" y="166" class="st1" width="48" height="48"/>
	<rect x="98" y="166" class="st1" width="48" height="48"/>
	<rect x="166" y="166" class="st1" width="48" height="48"/>
	<rect x="234" y="166" class="st1" width="48" height="48"/>
	<rect x="302" y="166" class="st1" width="48" height="48"/>
	<rect x="370" y="166" class="st1" width="48" height="48"/>
	<rect x="30" y="234" class="st1" width="48" height="48"/>
	<rect x="98" y="234" class="st1" width="48" height="48"/>
	<rect x="370" y="234" class="st1" width="48" height="48"/>
	<rect x="30" y="302" class="st1" width="48" height="48"/>
	<rect x="98" y="302" class="st1" width="48" height="48"/>
	<rect x="166" y="234" class="st1" width="48" height="48"/>
	<rect x="234" y="234" class="st1" width="48" height="48"/>
	<rect x="302" y="234" class="st1" width="48" height="48"/>
	<rect x="166" y="302" class="st1" width="48" height="48"/>
	<rect x="234" y="302" class="st1" width="48" height="48"/>
	<rect x="302" y="302" class="st1" width="48" height="48"/>
	<rect x="370" y="302" class="st1" width="48" height="48"/>
	<rect x="30" y="370" class="st1" width="48" height="48"/>
	<rect x="98" y="370" class="st1" width="48" height="48"/>
	<rect x="166" y="370" class="st1" width="48" height="48"/>
	<rect x="234" y="370" class="st1" width="48" height="48"/>
	<rect x="302" y="370" class="st1" width="48" height="48"/>
	<rect x="370" y="370" class="st1" width="48" height="48"/>
</g>
<g id="icons">
	<g>
		<g>
			<path class="st2" d="M409.46,387.19c-0.36-2.76-3.71-3.73-5.38-4.1v3.1c1.51,0.42,2.42,0.94,2.42,1.5c0,1.38-5.37,2.5-12,2.5
				s-12-1.12-12-2.5c0-0.56,0.91-1.08,2.42-1.5v-3.1c-1.67,0.37-5.02,1.34-5.38,4.1h-0.04v6.64c0,1.19,0.53,2.32,1.44,3.08
				l9.22,7.66c0.46,0.38,0.72,0.94,0.72,1.54v3.99c0,0.73,0.4,1.4,1.03,1.75l3.24,1.79c1.33,0.74,2.97-0.23,2.97-1.75v-5.78
				c0-0.59,0.26-1.16,0.72-1.54l9.22-7.66c0.91-0.76,1.44-1.89,1.44-3.08v-6.64H409.46z"/>
			<path class="st2" d="M392.5,375.19l-5,4.83h5V375.19z M400.72,375.11h-5.73c0,0.03,0.01,0.05,0.01,0.08v4.83
				c0,1.38-1.12,2.5-2.5,2.5h-5c-0.03,0-0.06-0.01-0.08-0.01v3.99c0,0.42,0.3,0.79,0.72,0.86c1.66,0.26,3.72,0.41,5.95,0.41
				c2.62,0,5.01-0.21,6.79-0.56c0.41-0.08,0.71-0.43,0.71-0.85v-10.39C401.58,375.5,401.2,375.11,400.72,375.11z"/>
		</g>
	</g>
	<g>
		<g>
			<path class="st2" d="M334.71,394.35h-0.59c-0.85,0-1.58-0.54-1.9-1.33l-0.01-0.03c-0.33-0.78-0.2-1.67,0.4-2.27l0.43-0.43
				c0.36-0.36,0.36-0.95,0-1.31l-1.31-1.31c-0.36-0.36-0.95-0.36-1.31,0l-0.43,0.43c-0.6,0.6-1.49,0.73-2.27,0.4
				c-0.01,0-0.02-0.01-0.03-0.01c-0.79-0.33-1.33-1.05-1.33-1.9v-0.59c0-0.51-0.42-0.93-0.93-0.93h-1.86
				c-0.51,0-0.93,0.42-0.93,0.93v0.59c0,0.85-0.54,1.58-1.33,1.9c-0.01,0-0.02,0.01-0.03,0.01c-0.78,0.33-1.67,0.2-2.27-0.4
				l-0.43-0.43c-0.36-0.36-0.95-0.36-1.31,0l-1.31,1.31c-0.36,0.36-0.36,0.95,0,1.31l0.43,0.43c0.6,0.6,0.73,1.49,0.4,2.27
				l-0.01,0.03c-0.32,0.79-1.05,1.33-1.9,1.33h-0.59c-0.51,0-0.93,0.42-0.93,0.93v1.86c0,0.51,0.42,0.93,0.93,0.93h5.96
				c-0.27-0.61-0.41-1.28-0.39-1.98c0.07-2.49,2.24-4.56,4.73-4.51c2.52,0.05,4.55,2.11,4.55,4.64c0,0.66-0.14,1.29-0.39,1.86h5.96
				c0.51,0,0.93-0.42,0.93-0.93v-1.86C335.64,394.76,335.23,394.35,334.71,394.35z M346.66,380.12c-0.02-0.16-0.17-0.28-0.33-0.28
				h-0.68c-0.22-0.06-0.39-0.23-0.46-0.46c-0.13-0.4-0.3-0.78-0.5-1.14c-0.07-0.13-0.06-0.29,0.05-0.4l0.55-0.55
				c0.12-0.12,0.13-0.3,0.04-0.43c-0.42-0.56-0.92-1.06-1.48-1.48c-0.13-0.1-0.32-0.08-0.44,0.04l-0.55,0.55
				c-0.11,0.11-0.27,0.12-0.4,0.05c-0.5-0.29-1.05-0.5-1.63-0.64c0,0,0,0,0,0v-1.03c0-0.16-0.12-0.31-0.28-0.33
				c-0.34-0.05-0.69-0.08-1.05-0.08c-0.36,0-0.71,0.03-1.05,0.08c-0.16,0.02-0.28,0.17-0.28,0.33v1.03c0,0,0,0,0,0
				c-0.58,0.13-1.13,0.35-1.63,0.64c-0.13,0.07-0.29,0.06-0.4-0.05l-0.55-0.55c-0.12-0.12-0.3-0.13-0.44-0.04
				c-0.56,0.42-1.06,0.92-1.48,1.48c-0.1,0.13-0.08,0.32,0.04,0.43l0.55,0.55c0.11,0.11,0.12,0.27,0.05,0.4
				c-0.21,0.36-0.38,0.74-0.5,1.14c-0.07,0.23-0.25,0.4-0.46,0.46h-0.68c-0.16,0-0.31,0.12-0.33,0.28c-0.05,0.35-0.08,0.7-0.08,1.06
				s0.03,0.72,0.08,1.06c0.02,0.16,0.17,0.28,0.33,0.28h0.68c0.22,0.06,0.39,0.23,0.46,0.46c0.13,0.4,0.3,0.78,0.5,1.14
				c0.07,0.13,0.06,0.29-0.05,0.4l-0.55,0.55c-0.12,0.12-0.13,0.3-0.04,0.43c0.42,0.56,0.92,1.06,1.48,1.48
				c0.13,0.1,0.32,0.08,0.44-0.04l0.55-0.55c0.11-0.11,0.27-0.12,0.4-0.05c0.5,0.29,1.05,0.5,1.63,0.64c0,0,0,0,0,0v1.03
				c0,0.16,0.12,0.31,0.28,0.33c0.34,0.05,0.69,0.08,1.05,0.08c0.36,0,0.71-0.03,1.05-0.08c0.16-0.02,0.28-0.17,0.28-0.33v-1.03
				c0,0,0,0,0,0c0.58-0.13,1.13-0.35,1.63-0.64c0.13-0.07,0.29-0.06,0.4,0.05l0.55,0.55c0.12,0.12,0.3,0.13,0.44,0.04
				c0.56-0.42,1.06-0.92,1.48-1.48c0.1-0.13,0.08-0.32-0.04-0.43l-0.55-0.55c-0.11-0.11-0.12-0.27-0.05-0.4
				c0.21-0.36,0.38-0.74,0.5-1.14c0.07-0.23,0.25-0.4,0.46-0.46h0.68c0.16,0,0.31-0.12,0.33-0.28c0.05-0.35,0.08-0.7,0.08-1.06
				S346.72,380.47,346.66,380.12z M341.46,381.5c-0.13,0.84-0.81,1.52-1.65,1.65c-1.34,0.21-2.48-0.94-2.28-2.28
				c0.13-0.84,0.81-1.52,1.65-1.65C340.53,379.02,341.67,380.16,341.46,381.5z"/>
			<path class="st2" d="M347.32,387c-0.56,0.75-1.23,1.42-1.98,1.99c-0.48,0.36-1.09,0.56-1.69,0.56c-0.05,0-0.09-0.02-0.14-0.02
				v11.03h-34v-18h20.36c-0.07-0.46-0.11-0.92-0.11-1.37c0-0.47,0.04-0.95,0.11-1.44c0.07-0.44,0.24-0.84,0.48-1.19H307.5
				c-1.1,0-2,0.9-2,2v25c0,1.1,0.9,2,2,2h14.92l-0.75,4.5H318c-0.83,0-1.5,0.67-1.5,1.5c0,0.83,0.67,1.5,1.5,1.5h17
				c0.83,0,1.5-0.67,1.5-1.5c0-0.83-0.67-1.5-1.5-1.5h-3.67l-0.75-4.5h14.92c1.1,0,2-0.9,2-2v-18.87
				C347.44,386.79,347.39,386.9,347.32,387z M326.5,406.06c-0.83,0-1.5-0.67-1.5-1.5s0.67-1.5,1.5-1.5s1.5,0.67,1.5,1.5
				S327.33,406.06,326.5,406.06z"/>
		</g>
	</g>
	<g>
		<g>
			<path class="st2" d="M258.5,375c-10.75,0-19.5,8.75-19.5,19.5c0,1.2,0.11,2.41,0.33,3.58c0.15,0.82,0.94,1.36,1.75,1.2
				c0.81-0.15,1.35-0.93,1.2-1.75c-0.18-1-0.28-2.02-0.28-3.04c0-1.56,0.23-3.07,0.64-4.5h5.64c-0.18,1.44-0.28,2.94-0.28,4.5
				c0,0.83,0.67,1.5,1.5,1.5s1.5-0.67,1.5-1.5c0-1.49,0.11-3.01,0.33-4.5H257v20.93c-1.16-0.1-2.3-0.32-3.4-0.66
				c-0.79-0.25-1.63,0.2-1.88,0.99c-0.25,0.79,0.2,1.63,0.99,1.88c1.87,0.58,3.82,0.87,5.79,0.87c10.75,0,19.5-8.75,19.5-19.5
				S269.25,375,258.5,375z M248.78,387h-4.96c1.71-3.33,4.51-6,7.93-7.54C250.45,381.46,249.43,384.04,248.78,387z M257,387h-5.09
				c1.01-4.13,2.81-7.57,5.09-8.64V387z M273.18,387h-4.96c-0.65-2.96-1.67-5.54-2.97-7.54C268.67,381,271.47,383.67,273.18,387z
				 M260,378.36c2.29,1.07,4.08,4.51,5.09,8.64H260V378.36z M260,390h5.67c0.21,1.49,0.33,3.01,0.33,4.5s-0.11,3.01-0.33,4.5H260
				V390z M260,410.64V402h5.09C264.08,406.13,262.29,409.57,260,410.64z M265.25,409.54c1.3-2,2.32-4.58,2.97-7.54h4.96
				C271.47,405.33,268.67,408,265.25,409.54z M268.72,399c0.18-1.44,0.28-2.94,0.28-4.5c0-1.56-0.1-3.06-0.28-4.5h5.64
				c0.41,1.43,0.64,2.94,0.64,4.5c0,1.56-0.23,3.07-0.64,4.5H268.72z"/>
			<path class="st2" d="M252.72,397.86l-9.04,2.94c-0.82,0.27-0.94,1.37-0.2,1.81l2.21,1.31l-5.14,5.14c-0.39,0.39-0.39,1.02,0,1.41
				l0.76,0.77c0.39,0.39,1.02,0.39,1.41,0l5.19-5.19l1.28,2.22c0.43,0.75,1.54,0.64,1.82-0.18l2.97-8.97
				C254.23,398.35,253.5,397.61,252.72,397.86z"/>
		</g>
	</g>
	<g>
		<g>
			<path class="st2" d="M196.69,377.3c-6.19,0-11.36,4.35-12.63,10.16c-1.25-0.73-2.7-1.15-4.25-1.15c-4.66,0-8.44,3.78-8.44,8.44
				c0,4.47,3.48,8.12,7.88,8.41l9.3,0c0-0.05-0.01-0.11-0.01-0.16c0-0.54,0.04-1.1,0.13-1.65c0.15-1.01,0.83-1.84,1.73-2.22
				c-0.36-0.91-0.25-1.99,0.36-2.81c0.65-0.87,1.41-1.64,2.28-2.29c0.5-0.37,1.11-0.58,1.73-0.58c0.38,0,0.76,0.08,1.11,0.22
				c0.38-0.91,1.22-1.61,2.24-1.76c0.55-0.08,1.1-0.12,1.63-0.12s1.08,0.04,1.63,0.12c1.02,0.15,1.86,0.84,2.24,1.76
				c0.35-0.14,0.73-0.22,1.11-0.22c0.62,0,1.24,0.2,1.73,0.58c0.7,0.53,1.32,1.15,1.88,1.82c0.82-1.69,1.29-3.59,1.29-5.6
				C209.63,383.09,203.84,377.3,196.69,377.3z"/>
			<path class="st2" d="M208.36,401.71c-0.03-0.19-0.2-0.33-0.4-0.33h-0.82c-0.26-0.08-0.47-0.28-0.56-0.55
				c-0.15-0.48-0.36-0.94-0.61-1.37c-0.09-0.16-0.07-0.35,0.06-0.48l0.66-0.66c0.14-0.14,0.16-0.36,0.04-0.52
				c-0.5-0.68-1.1-1.28-1.78-1.78c-0.16-0.12-0.38-0.1-0.52,0.04l-0.66,0.66c-0.13,0.13-0.32,0.15-0.48,0.06
				c-0.6-0.35-1.26-0.61-1.96-0.77l0,0v-1.24c0-0.2-0.14-0.37-0.34-0.4c-0.41-0.06-0.83-0.1-1.26-0.1s-0.85,0.03-1.26,0.1
				c-0.19,0.03-0.34,0.2-0.34,0.4v1.24l0,0c-0.7,0.16-1.36,0.42-1.96,0.77c-0.16,0.09-0.35,0.07-0.48-0.06l-0.66-0.66
				c-0.14-0.14-0.37-0.16-0.52-0.04c-0.67,0.5-1.27,1.1-1.78,1.78c-0.12,0.16-0.1,0.38,0.04,0.52l0.66,0.66
				c0.13,0.13,0.15,0.32,0.06,0.48c-0.25,0.43-0.45,0.89-0.61,1.37c-0.09,0.27-0.3,0.48-0.56,0.55h-0.82c-0.2,0-0.37,0.14-0.4,0.33
				c-0.06,0.42-0.1,0.84-0.1,1.28c0,0.44,0.04,0.86,0.1,1.28c0.03,0.19,0.2,0.33,0.4,0.33h0.82c0.26,0.08,0.47,0.28,0.56,0.55
				c0.15,0.48,0.36,0.94,0.61,1.37c0.09,0.16,0.07,0.35-0.06,0.48l-0.66,0.66c-0.14,0.14-0.16,0.36-0.04,0.52
				c0.5,0.68,1.1,1.28,1.78,1.78c0.16,0.12,0.38,0.1,0.52-0.04l0.66-0.66c0.13-0.13,0.32-0.15,0.48-0.06
				c0.6,0.35,1.26,0.61,1.96,0.77c0,0,0,0,0,0v1.24c0,0.2,0.14,0.37,0.34,0.4c0.41,0.06,0.83,0.1,1.26,0.1s0.85-0.04,1.26-0.1
				c0.19-0.03,0.34-0.2,0.34-0.4v-1.24c0,0,0,0,0,0c0.7-0.16,1.36-0.42,1.96-0.77c0.16-0.09,0.35-0.07,0.48,0.06l0.66,0.66
				c0.14,0.14,0.37,0.16,0.52,0.04c0.67-0.5,1.27-1.1,1.78-1.78c0.12-0.16,0.1-0.38-0.04-0.52l-0.66-0.66
				c-0.13-0.13-0.15-0.32-0.06-0.48c0.25-0.43,0.45-0.89,0.61-1.37c0.09-0.27,0.3-0.48,0.56-0.55h0.82c0.2,0,0.37-0.14,0.4-0.33
				c0.06-0.42,0.1-0.84,0.1-1.28C208.46,402.56,208.43,402.13,208.36,401.71z M202.11,403.37c-0.15,1.01-0.98,1.83-1.98,1.98
				c-1.62,0.25-2.99-1.12-2.74-2.74c0.15-1.01,0.98-1.83,1.98-1.98C200.99,400.38,202.36,401.75,202.11,403.37z"/>
		</g>
	</g>
	<g>
		<g>
			<g>
				<path class="st2" d="M139,382.5h-11c-2.21,0-4,1.79-4,4v22c0,2.21,1.79,4,4,4h11c2.21,0,4-1.79,4-4v-22
					C143,384.29,141.21,382.5,139,382.5z M134.07,409.98h-1.5c-0.83,0-1.5-0.67-1.5-1.5l0,0c0-0.83,0.67-1.5,1.5-1.5h1.5
					c0.83,0,1.5,0.67,1.5,1.5l0,0C135.57,409.31,134.9,409.98,134.07,409.98z M139.82,403.89c0,0.55-0.45,1-1,1h-10.63
					c-0.55,0-1-0.45-1-1v-16.16c0-0.55,0.45-1,1-1h10.63c0.55,0,1,0.45,1,1V403.89z M109.84,399.91v-18.92c0-0.55,0.45-1,1-1h19.79
					c0.01,0,0.02,0.01,0.03,0.01h7.02c-0.25-1.97-1.91-3.49-3.95-3.49H106c-2.21,0-4,1.79-4,4v19.89c0,2.21,1.79,4,4,4h15.5v-3.49
					h-10.66C110.29,400.91,109.84,400.46,109.84,399.91z M104.18,391.32v-1.74c0-0.96,0.78-1.74,1.74-1.74l0,0
					c0.96,0,1.74,0.78,1.74,1.74v1.74c0,0.96-0.78,1.74-1.74,1.74l0,0C104.96,393.06,104.18,392.28,104.18,391.32z"/>
				<path class="st2" d="M135.99,394.63h-0.83c-0.25,0-0.47-0.17-0.54-0.42c-0.09-0.27-0.2-0.54-0.33-0.79
					c-0.12-0.22-0.09-0.49,0.09-0.67l0.59-0.59c0.22-0.22,0.22-0.58,0-0.8l-0.8-0.8c-0.22-0.22-0.58-0.22-0.8,0l-0.59,0.59
					c-0.18,0.18-0.44,0.2-0.67,0.09c-0.25-0.13-0.51-0.24-0.79-0.33c-0.24-0.08-0.42-0.29-0.42-0.54v-0.83
					c0-0.31-0.25-0.56-0.56-0.56h-1.13c-0.31,0-0.56,0.25-0.56,0.56v3.62c0.35-0.15,0.73-0.24,1.13-0.24c1.56,0,2.82,1.26,2.82,2.82
					c0,1.56-1.26,2.82-2.82,2.82c-0.4,0-0.78-0.09-1.13-0.24v3.62c0,0.31,0.25,0.56,0.56,0.56h1.13c0.31,0,0.56-0.25,0.56-0.56
					v-0.83c0-0.25,0.17-0.47,0.42-0.54c0.27-0.09,0.54-0.2,0.79-0.33c0.22-0.12,0.49-0.09,0.67,0.09l0.59,0.59
					c0.22,0.22,0.58,0.22,0.8,0l0.8-0.8c0.22-0.22,0.22-0.58,0-0.8l-0.59-0.59c-0.18-0.18-0.2-0.44-0.09-0.67
					c0.13-0.25,0.24-0.51,0.33-0.79c0.08-0.24,0.29-0.42,0.54-0.42h0.83c0.31,0,0.56-0.25,0.56-0.56v-1.13
					C136.56,394.89,136.31,394.63,135.99,394.63z M120.99,383.99h-1.13c-0.31,0-0.56,0.25-0.56,0.56v0.83
					c0,0.25-0.17,0.47-0.42,0.54c-0.27,0.09-0.54,0.2-0.79,0.33c-0.22,0.12-0.49,0.09-0.67-0.09l-0.59-0.59
					c-0.22-0.22-0.58-0.22-0.8,0l-0.8,0.8c-0.22,0.22-0.22,0.58,0,0.8l0.59,0.59c0.18,0.18,0.2,0.44,0.09,0.67
					c-0.13,0.25-0.24,0.51-0.33,0.79c-0.08,0.24-0.29,0.42-0.54,0.42h-0.83c-0.31,0-0.56,0.25-0.56,0.56v1.13
					c0,0.31,0.25,0.56,0.56,0.56h0.83c0.25,0,0.47,0.17,0.54,0.42c0.09,0.27,0.2,0.54,0.33,0.79c0.12,0.22,0.09,0.49-0.09,0.67
					l-0.59,0.59c-0.22,0.22-0.22,0.58,0,0.8l0.8,0.8c0.22,0.22,0.58,0.22,0.8,0l0.59-0.59c0.18-0.18,0.44-0.2,0.67-0.09
					c0.25,0.13,0.51,0.24,0.79,0.33c0.24,0.08,0.42,0.29,0.42,0.54v0.83c0,0.31,0.25,0.56,0.56,0.56h1.13
					c0.31,0,0.56-0.25,0.56-0.56v-3.62c-0.35,0.15-0.73,0.24-1.13,0.24c-1.56,0-2.82-1.26-2.82-2.82c0-1.56,1.26-2.82,2.82-2.82
					c0.4,0,0.78,0.09,1.13,0.24v-3.62C121.56,384.25,121.31,383.99,120.99,383.99z"/>
			</g>
		</g>
	</g>
	<g>
		<g>
			<path class="st2" d="M49.6,378.66l-8.5,8.5c-0.13,0.13-0.04,0.34,0.14,0.34h7.93c0.42,0,0.76-0.34,0.76-0.76v-7.93
				C49.94,378.63,49.72,378.54,49.6,378.66z M67.56,402.5h-1.25v-3c0-2.34-1.91-4.25-4.25-4.25c-2.34,0-4.25,1.91-4.25,4.25v3h-1.25
				c-0.28,0-0.5,0.22-0.5,0.5v7c0,0.28,0.22,0.5,0.5,0.5h11c0.28,0,0.5-0.22,0.5-0.5v-7C68.06,402.72,67.84,402.5,67.56,402.5z
				 M63.81,402.5h-3.5v-3c0-0.96,0.79-1.75,1.75-1.75c0.96,0,1.75,0.79,1.75,1.75V402.5z"/>
			<path class="st2" d="M62.81,378.5H52.41c0.01,0.1,0.03,0.2,0.03,0.3v7.93c0,1.8-1.46,3.26-3.26,3.26h-7.93
				c-0.1,0-0.2-0.01-0.3-0.02v16.28c0,1.1,0.9,2,2,2h10.62V403c0-1.21,0.72-2.25,1.75-2.73v-0.77c0-3.72,3.03-6.75,6.75-6.75
				c0.98,0,1.91,0.22,2.75,0.59V380.5C64.81,379.4,63.92,378.5,62.81,378.5z"/>
		</g>
	</g>
	<g>
		<g>
			<g>
				<path class="st2" d="M411.59,329.99L411.59,329.99c-0.86-1.08-2.42-1.27-3.51-0.42l-7.08,5.55c-0.35,0.28-0.79,0.43-1.23,0.43
					l-5.07,0.01c-0.69,0-1.25-0.56-1.25-1.25c0-0.69,0.56-1.25,1.25-1.25l4.25,0c1.38,0,2.5-1.12,2.5-2.5c0-1.38-1.12-2.5-2.5-2.5
					l-9.73,0.01l-0.66,0c-1.34,0-2.65,0.45-3.7,1.28l-3.47,2.73c-0.22,0.17-0.26,0.49-0.08,0.7l6.74,8.53
					c0.09,0.12,0.24,0.19,0.39,0.19l8.16,0.07l2.26,0.02c1.37,0.01,2.7-0.44,3.77-1.29l8.57-6.77
					C412.26,332.65,412.45,331.08,411.59,329.99z"/>
				<path class="st2" d="M379.33,334.32c-0.17-0.22-0.49-0.25-0.7-0.08l-1.57,1.24c-0.22,0.17-0.25,0.49-0.08,0.7l6.58,8.33
					c0.17,0.22,0.49,0.25,0.7,0.08l1.57-1.24c0.22-0.17,0.25-0.49,0.08-0.7L379.33,334.32z M406.83,315.37h-1.23
					c-0.23-0.07-0.42-0.25-0.5-0.49c-0.11-0.34-0.25-0.68-0.41-0.99c-0.14-0.28-0.11-0.62,0.11-0.84l0.74-0.74
					c0.28-0.28,0.28-0.73,0-1l-1-1c-0.28-0.28-0.73-0.28-1,0l-0.74,0.74c-0.22,0.22-0.56,0.26-0.84,0.11
					c-0.32-0.16-0.65-0.3-0.99-0.41c-0.3-0.1-0.52-0.36-0.52-0.68v-1.04c0-0.39-0.32-0.71-0.71-0.71h-1.42
					c-0.39,0-0.71,0.32-0.71,0.71v1.04c0,0.32-0.22,0.59-0.52,0.68c-0.34,0.11-0.68,0.25-0.99,0.41c-0.28,0.14-0.62,0.11-0.84-0.11
					l-0.74-0.74c-0.28-0.28-0.73-0.28-1,0l-1,1c-0.28,0.28-0.28,0.73,0,1l0.74,0.74c0.22,0.22,0.26,0.56,0.11,0.84
					c-0.16,0.32-0.3,0.65-0.41,0.99c-0.08,0.24-0.26,0.42-0.5,0.49h-1.23c-0.39,0-0.71,0.32-0.71,0.71v1.45
					c0,0.39,0.32,0.71,0.71,0.71h1.23c0.23,0.07,0.42,0.25,0.5,0.49c0.11,0.34,0.25,0.68,0.41,0.99c0.14,0.28,0.11,0.62-0.11,0.84
					l-0.74,0.74c-0.28,0.28-0.28,0.73,0,1l1,1c0.28,0.28,0.73,0.28,1,0l0.74-0.74c0.22-0.22,0.56-0.26,0.84-0.11
					c0.32,0.16,0.65,0.3,0.99,0.41c0.3,0.1,0.52,0.36,0.52,0.68v1.04c0,0.39,0.32,0.71,0.71,0.71h1.42c0.39,0,0.71-0.32,0.71-0.71
					v-1.04c0-0.32,0.22-0.59,0.52-0.68c0.34-0.11,0.68-0.25,0.99-0.41c0.28-0.14,0.62-0.11,0.84,0.11l0.74,0.74
					c0.28,0.28,0.73,0.28,1,0l1-1c0.28-0.28,0.28-0.73,0-1l-0.74-0.74c-0.22-0.22-0.26-0.56-0.11-0.84c0.16-0.32,0.3-0.65,0.41-0.99
					c0.08-0.24,0.26-0.42,0.5-0.49h1.23c0.39,0,0.71-0.32,0.71-0.71v-1.45C407.54,315.69,407.22,315.37,406.83,315.37z
					 M399.02,319.76c-1.63,0-2.96-1.33-2.96-2.96c0-1.63,1.33-2.96,2.96-2.96c1.63,0,2.96,1.33,2.96,2.96
					C401.98,318.44,400.65,319.76,399.02,319.76z"/>
			</g>
		</g>
	</g>
	<g>
		<g>
			<path class="st2" d="M337.17,312.8c-2.54-2.54-5.87-3.81-9.19-3.81c-3.33,0-6.65,1.27-9.19,3.81c-4.47,4.47-5,11.39-1.59,16.44
				l-2.44,2.44l-0.35-0.35c-0.2-0.2-0.51-0.2-0.71,0l-8.13,8.13c-0.39,0.39-0.39,1.02,0,1.41l2.83,2.83c0.39,0.39,1.02,0.39,1.41,0
				l8.13-8.13c0.2-0.2,0.2-0.51,0-0.71l-0.35-0.35l2.33-2.33c2.36,1.87,5.21,2.81,8.07,2.81c3.33,0,6.65-1.27,9.19-3.81
				C342.25,326.11,342.25,317.88,337.17,312.8z M334.35,328.36c-1.7,1.7-3.96,2.64-6.36,2.64c-2.4,0-4.66-0.94-6.36-2.64
				c-3.51-3.51-3.51-9.22,0-12.73c1.7-1.7,3.96-2.64,6.36-2.64c2.4,0,4.66,0.94,6.36,2.64
				C337.85,319.14,337.85,324.85,334.35,328.36z"/>
			<path class="st2" d="M329.73,321.88c0-0.69-0.56-1.25-1.25-1.25h-6c-0.69,0-1.25,0.56-1.25,1.25c0,0.69,0.56,1.25,1.25,1.25h6
				C329.17,323.13,329.73,322.57,329.73,321.88z M343.48,319.25h3c0.69,0,1.25-0.56,1.25-1.25c0-0.69-0.56-1.25-1.25-1.25h-3
				c-0.69,0-1.25,0.56-1.25,1.25C342.23,318.69,342.79,319.25,343.48,319.25z M329.48,319.25h2c0.69,0,1.25-0.56,1.25-1.25
				c0-0.69-0.56-1.25-1.25-1.25h-2c-0.69,0-1.25,0.56-1.25,1.25C328.23,318.69,328.79,319.25,329.48,319.25z M325.48,324.75h-1
				c-0.69,0-1.25,0.56-1.25,1.25c0,0.69,0.56,1.25,1.25,1.25h1c0.69,0,1.25-0.56,1.25-1.25
				C326.73,325.31,326.17,324.75,325.48,324.75z M324.48,319.25h1c0.69,0,1.25-0.56,1.25-1.25c0-0.69-0.56-1.25-1.25-1.25h-1
				c-0.69,0-1.25,0.56-1.25,1.25C323.23,318.69,323.79,319.25,324.48,319.25z M346.48,324.75h-3c-0.69,0-1.25,0.56-1.25,1.25
				c0,0.69,0.56,1.25,1.25,1.25h3c0.69,0,1.25-0.56,1.25-1.25C347.73,325.31,347.17,324.75,346.48,324.75z M346.48,320.63h-2
				c-0.69,0-1.25,0.56-1.25,1.25c0,0.69,0.56,1.25,1.25,1.25h2c0.69,0,1.25-0.56,1.25-1.25
				C347.73,321.19,347.17,320.63,346.48,320.63z M333.48,320.63h-1c-0.69,0-1.25,0.56-1.25,1.25c0,0.69,0.56,1.25,1.25,1.25h1
				c0.69,0,1.25-0.56,1.25-1.25C334.73,321.19,334.17,320.63,333.48,320.63z M331.48,324.75h-2c-0.69,0-1.25,0.56-1.25,1.25
				c0,0.69,0.56,1.25,1.25,1.25h2c0.69,0,1.25-0.56,1.25-1.25C332.73,325.31,332.17,324.75,331.48,324.75z"/>
		</g>
	</g>
	<g>
		<g>
			<path class="st2" d="M252.17,336.88l-4.7,2.69c-0.18,0.1-0.3,0.3-0.3,0.51v5.34c0,0.45,0.49,0.73,0.88,0.51l4.7-2.69
				c0.18-0.1,0.3-0.3,0.3-0.51v-5.34C253.05,336.94,252.56,336.65,252.17,336.88z M244.53,339.56l-4.7-2.69
				c-0.39-0.22-0.88,0.06-0.88,0.51v5.34c0,0.21,0.11,0.41,0.3,0.51l4.7,2.69c0.39,0.22,0.88-0.06,0.88-0.51v-5.34
				C244.82,339.86,244.71,339.67,244.53,339.56z M250.96,333.84l-4.67-2.67c-0.18-0.1-0.4-0.1-0.58,0l-4.67,2.67
				c-0.39,0.23-0.39,0.79,0,1.02l4.67,2.67c0.18,0.1,0.4,0.1,0.58,0l4.67-2.67C251.36,334.64,251.36,334.07,250.96,333.84z
				 M277.17,336.88l-4.7,2.69c-0.18,0.1-0.3,0.3-0.3,0.51v5.34c0,0.45,0.49,0.73,0.88,0.51l4.7-2.69c0.18-0.1,0.3-0.3,0.3-0.51
				v-5.34C278.05,336.94,277.56,336.65,277.17,336.88z M275.96,333.84l-4.67-2.67c-0.18-0.1-0.4-0.1-0.58,0l-4.67,2.67
				c-0.39,0.23-0.39,0.79,0,1.02l4.67,2.67c0.18,0.1,0.4,0.1,0.58,0l4.67-2.67C276.36,334.64,276.36,334.07,275.96,333.84z
				 M269.53,339.56l-4.7-2.69c-0.39-0.22-0.88,0.06-0.88,0.51v5.34c0,0.21,0.11,0.41,0.3,0.51l4.7,2.69
				c0.39,0.22,0.88-0.06,0.88-0.51v-5.34C269.83,339.86,269.71,339.67,269.53,339.56z"/>
			<path class="st2" d="M259.18,307c-3.87,0-7,1.57-7,3.5v3.33l0.27,0.34c0.8,1,3.25,2.09,6.73,2.09c3.44,0,6.02-1.09,6.79-2.17
				l0.21-0.3v-3.3C266.18,308.56,263.05,307,259.18,307z M259.18,312c-2.21,0-4-0.67-4-1.5c0-0.83,1.79-1.5,4-1.5
				c2.21,0,4,0.67,4,1.5C263.18,311.33,261.39,312,259.18,312z M263.39,332.01l-2.99-1.8v-2.79c0-0.69-0.56-1.25-1.25-1.25
				c-0.69,0-1.25,0.56-1.25,1.25v2.78l-2.93,1.77c-0.39,0.24-0.6,0.65-0.6,1.07c0,0.22,0.06,0.44,0.18,0.64
				c0.36,0.59,1.13,0.78,1.72,0.42l2.88-1.74l2.96,1.79c0.2,0.12,0.43,0.18,0.65,0.18c0.42,0,0.84-0.21,1.07-0.6
				C264.17,333.14,263.98,332.37,263.39,332.01z M252.18,317.13v3.28c0,0.01,0.01,0.03,0.01,0.04c0,0.02-0.01,0.04-0.01,0.06
				c0,1.93,3.13,3.5,7,3.5c3.87,0,7-1.57,7-3.5c0-0.02,0-0.04-0.01-0.06c0-0.01,0.01-0.03,0.01-0.04v-3.29
				c-1.74,1.03-4.24,1.65-7,1.65C256.4,318.76,253.92,318.15,252.18,317.13z"/>
		</g>
	</g>
	<g>
		<g>
			<path class="st2" d="M204.5,310h-28c-2.21,0-4,1.79-4,4v25c0,2.21,1.79,4,4,4h28c2.21,0,4-1.79,4-4v-25
				C208.5,311.79,206.71,310,204.5,310z M184.5,313.5h4c0.83,0,1.5,0.67,1.5,1.5c0,0.83-0.67,1.5-1.5,1.5h-4
				c-0.83,0-1.5-0.67-1.5-1.5C183,314.17,183.67,313.5,184.5,313.5z M178.5,313c1.1,0,2,0.9,2,2c0,1.1-0.9,2-2,2s-2-0.9-2-2
				C176.5,313.9,177.4,313,178.5,313z M204.5,338c0,0.55-0.45,1-1,1h-26c-0.55,0-1-0.45-1-1v-17c0-0.55,0.45-1,1-1h26
				c0.55,0,1,0.45,1,1V338z"/>
			<path class="st2" d="M187,325.77h9c0.69,0,1.25-0.56,1.25-1.25c0-0.69-0.56-1.25-1.25-1.25h-9c-0.69,0-1.25,0.56-1.25,1.25
				C185.75,325.21,186.31,325.77,187,325.77z M198.44,330.77h3.31c0.69,0,1.25-0.56,1.25-1.25c0-0.69-0.56-1.25-1.25-1.25h-3.31
				c-0.69,0-1.25,0.56-1.25,1.25C197.19,330.21,197.75,330.77,198.44,330.77z M194.81,328.27h-3.63c-0.69,0-1.25,0.56-1.25,1.25
				c0,0.69,0.56,1.25,1.25,1.25h3.63c0.69,0,1.25-0.56,1.25-1.25C196.06,328.83,195.5,328.27,194.81,328.27z M200.12,325.77H202
				c0.69,0,1.25-0.56,1.25-1.25c0-0.69-0.56-1.25-1.25-1.25h-1.88c-0.69,0-1.25,0.56-1.25,1.25
				C198.87,325.21,199.43,325.77,200.12,325.77z M180,330.77h7c0.69,0,1.25-0.56,1.25-1.25c0-0.69-0.56-1.25-1.25-1.25h-7
				c-0.69,0-1.25,0.56-1.25,1.25C178.75,330.21,179.31,330.77,180,330.77z M190.62,333.27H188c-0.69,0-1.25,0.56-1.25,1.25
				c0,0.69,0.56,1.25,1.25,1.25h2.63c0.69,0,1.25-0.56,1.25-1.25C191.87,333.83,191.32,333.27,190.62,333.27z M202,333.27h-7
				c-0.69,0-1.25,0.56-1.25,1.25c0,0.69,0.56,1.25,1.25,1.25h7c0.69,0,1.25-0.56,1.25-1.25C203.25,333.83,202.69,333.27,202,333.27z
				 M183.59,333.27h-3.34c-0.69,0-1.25,0.56-1.25,1.25c0,0.69,0.56,1.25,1.25,1.25h3.34c0.69,0,1.25-0.56,1.25-1.25
				C184.84,333.83,184.28,333.27,183.59,333.27z M180.25,325.77h2.31c0.69,0,1.25-0.56,1.25-1.25c0-0.69-0.56-1.25-1.25-1.25h-2.31
				c-0.69,0-1.25,0.56-1.25,1.25C179,325.21,179.56,325.77,180.25,325.77z"/>
		</g>
	</g>
	<g>
		<g>
			<path class="st2" d="M129.5,314.02v-2.52c0-2.21-1.79-4-4-4h-16c-2.21,0-4,1.79-4,4v30c0,2.21,1.79,4,4,4h16c2.21,0,4-1.79,4-4
				v-5h-19c-0.55,0-1-0.45-1-1v-21c0-0.55,0.45-1,1-1h14c0.55,0,1,0.45,1,1v0.72C126.73,314.59,128.08,314.17,129.5,314.02z
				 M118.5,343h-2c-1.1,0-2-0.9-2-2l0,0c0-1.1,0.9-2,2-2h2c1.1,0,2,0.9,2,2l0,0C120.5,342.1,119.6,343,118.5,343z"/>
			<path class="st2" d="M130.66,316.45c-4.23,0-7.76,2.97-8.63,6.94c-0.85-0.5-1.84-0.79-2.9-0.79c-3.18,0-5.76,2.58-5.76,5.76
				c0,3.05,2.38,5.55,5.38,5.75h4.75c1.1,0,2-0.9,2-2v-4h-1.79c-0.45,0-0.67-0.54-0.35-0.85l3.79-3.79c0.2-0.2,0.51-0.2,0.71,0
				l3.79,3.79c0.32,0.32,0.09,0.85-0.35,0.85h-1.79v5c0,0.37-0.11,0.7-0.28,1h1.82c4.7-0.2,8.45-4.07,8.45-8.82
				C139.5,320.41,135.54,316.45,130.66,316.45z"/>
		</g>
	</g>
	<g>
		<g>
			<g>
				<path class="st2" d="M53.3,338.79c-0.9-0.39-1.58-1.22-1.73-2.23c-0.04-0.27-0.07-0.55-0.09-0.82
					c-0.61,0.04-1.24,0.06-1.87,0.06c-4.31,0-8.3-0.86-11.24-2.33c-0.34-0.17-0.73,0.06-0.73,0.44v2.54c0,0.02,0.01,0.04,0.01,0.07
					c0,0.03-0.01,0.06-0.01,0.09c0,3.18,5.39,5.76,12.03,5.76c1.53,0,2.98-0.14,4.32-0.39c-0.11-0.13-0.23-0.25-0.33-0.39
					C53.04,340.78,52.93,339.7,53.3,338.79z M38.37,324.61c-0.34-0.17-0.73,0.06-0.73,0.44v4.8c0,0.16,0.07,0.31,0.2,0.4
					c2.46,1.86,6.92,3.05,11.78,3.05c0.66,0,1.32-0.03,1.97-0.07c0.16-0.99,0.83-1.81,1.72-2.2c-0.36-0.91-0.25-1.99,0.36-2.81
					c0.51-0.68,1.11-1.29,1.76-1.84c-1.81,0.35-3.77,0.55-5.81,0.55C45.29,326.94,41.3,326.07,38.37,324.61z M49.67,309.38
					c-6.65,0-12.03,2.58-12.03,5.76v5.84c0,0.16,0.07,0.31,0.2,0.4c2.46,1.86,6.92,3.05,11.78,3.05c4.92,0,9.48-1.25,11.91-3.15
					c0.12-0.1,0.19-0.24,0.19-0.4v-5.74C61.7,311.96,56.31,309.38,49.67,309.38z M49.67,317.61c-3.64,0-6.59-1.11-6.59-2.47
					s2.95-2.47,6.59-2.47c3.64,0,6.59,1.11,6.59,2.47S53.31,317.61,49.67,317.61z"/>
				<path class="st2" d="M71.27,333.63c-0.03-0.19-0.2-0.33-0.4-0.33h-0.82c-0.26-0.08-0.47-0.28-0.56-0.55
					c-0.15-0.48-0.36-0.94-0.61-1.37c-0.09-0.16-0.07-0.35,0.06-0.48l0.66-0.66c0.14-0.14,0.16-0.36,0.04-0.52
					c-0.5-0.68-1.1-1.28-1.78-1.78c-0.16-0.12-0.38-0.1-0.52,0.04l-0.66,0.66c-0.13,0.13-0.32,0.15-0.48,0.06
					c-0.6-0.35-1.26-0.61-1.96-0.77c0,0,0,0,0,0v-1.24c0-0.2-0.14-0.37-0.34-0.4c-0.41-0.06-0.83-0.1-1.26-0.1s-0.85,0.03-1.26,0.1
					c-0.19,0.03-0.34,0.2-0.34,0.4v1.24c0,0,0,0,0,0c-0.7,0.16-1.36,0.42-1.96,0.77c-0.16,0.09-0.35,0.07-0.48-0.06l-0.66-0.66
					c-0.14-0.14-0.37-0.16-0.52-0.04c-0.67,0.5-1.27,1.1-1.78,1.78c-0.12,0.16-0.1,0.38,0.04,0.52l0.66,0.66
					c0.13,0.13,0.15,0.32,0.06,0.48c-0.25,0.43-0.45,0.89-0.61,1.37c-0.09,0.27-0.3,0.48-0.56,0.55h-0.82c-0.2,0-0.37,0.14-0.4,0.33
					c-0.06,0.42-0.1,0.84-0.1,1.28c0,0.44,0.04,0.86,0.1,1.28c0.03,0.19,0.2,0.33,0.4,0.33h0.82c0.26,0.08,0.47,0.28,0.56,0.55
					c0.15,0.48,0.36,0.94,0.61,1.37c0.09,0.16,0.07,0.35-0.06,0.48l-0.66,0.66c-0.14,0.14-0.16,0.36-0.04,0.52
					c0.5,0.68,1.1,1.28,1.78,1.78c0.16,0.12,0.38,0.1,0.52-0.04l0.66-0.66c0.13-0.13,0.32-0.15,0.48-0.06
					c0.6,0.35,1.26,0.61,1.96,0.77c0,0,0,0,0,0v1.24c0,0.2,0.14,0.37,0.34,0.4c0.41,0.06,0.83,0.1,1.26,0.1s0.85-0.03,1.26-0.1
					c0.19-0.03,0.34-0.2,0.34-0.4v-1.24c0,0,0,0,0,0c0.7-0.16,1.36-0.42,1.96-0.77c0.16-0.09,0.35-0.07,0.48,0.06l0.66,0.66
					c0.14,0.14,0.36,0.16,0.52,0.04c0.67-0.5,1.27-1.1,1.78-1.78c0.12-0.16,0.1-0.38-0.04-0.52l-0.66-0.66
					c-0.13-0.13-0.15-0.32-0.06-0.48c0.25-0.43,0.45-0.89,0.61-1.37c0.09-0.27,0.3-0.48,0.56-0.55h0.82c0.2,0,0.37-0.14,0.4-0.33
					c0.06-0.42,0.1-0.84,0.1-1.28C71.37,334.48,71.33,334.05,71.27,333.63z M65.02,335.29c-0.15,1.01-0.98,1.83-1.98,1.98
					c-1.62,0.25-2.99-1.12-2.74-2.74c0.15-1.01,0.98-1.83,1.98-1.98C63.89,332.3,65.26,333.67,65.02,335.29z"/>
			</g>
		</g>
	</g>
	<g>
		<g>
			<g>
				<path class="st2" d="M408.5,240h-11c-2.21,0-4,1.79-4,4v0.82c1.28,0.42,2.39,1.22,3.19,2.28v-1.86c0-0.55,0.45-1,1-1h10.63
					c0.55,0,1,0.45,1,1v16.16c0,0.55-0.45,1-1,1H398V270h10.5c2.21,0,4-1.79,4-4v-22C412.5,241.79,410.71,240,408.5,240z
					 M403.75,267.5h-1.5c-0.83,0-1.5-0.67-1.5-1.5l0,0c0-0.83,0.67-1.5,1.5-1.5h1.5c0.83,0,1.5,0.67,1.5,1.5l0,0
					C405.25,266.83,404.58,267.5,403.75,267.5z M391.5,247h-11c-2.21,0-4,1.79-4,4v22c0,2.21,1.79,4,4,4h11c2.21,0,4-1.79,4-4v-22
					C395.5,248.79,393.71,247,391.5,247z M386.75,274.5h-1.5c-0.83,0-1.5-0.67-1.5-1.5l0,0c0-0.83,0.67-1.5,1.5-1.5h1.5
					c0.83,0,1.5,0.67,1.5,1.5l0,0C388.25,273.83,387.58,274.5,386.75,274.5z M392.31,268.39c0,0.55-0.45,1-1,1h-10.63
					c-0.55,0-1-0.45-1-1v-16.16c0-0.55,0.45-1,1-1h10.63c0.55,0,1,0.45,1,1V268.39z"/>
				<path class="st2" d="M390.01,253.5h-1.13c-0.31,0-0.56,0.25-0.56,0.56v0.83c0,0.25-0.17,0.47-0.42,0.54
					c-0.27,0.09-0.54,0.2-0.79,0.33c-0.22,0.12-0.49,0.09-0.67-0.09l-0.59-0.59c-0.22-0.22-0.58-0.22-0.8,0l-0.8,0.8
					c-0.22,0.22-0.22,0.58,0,0.8l0.59,0.59c0.18,0.18,0.2,0.44,0.09,0.67c-0.13,0.25-0.24,0.51-0.33,0.79
					c-0.08,0.24-0.29,0.42-0.54,0.42h-0.83c-0.31,0-0.56,0.25-0.56,0.56v1.13c0,0.31,0.25,0.56,0.56,0.56h0.83
					c0.25,0,0.47,0.17,0.54,0.42c0.09,0.27,0.2,0.54,0.33,0.79c0.11,0.22,0.09,0.49-0.09,0.67l-0.59,0.59
					c-0.22,0.22-0.22,0.58,0,0.8l0.8,0.8c0.22,0.22,0.58,0.22,0.8,0l0.59-0.59c0.18-0.18,0.44-0.2,0.67-0.09
					c0.25,0.13,0.51,0.24,0.79,0.33c0.24,0.08,0.42,0.29,0.42,0.54v0.83c0,0.31,0.25,0.56,0.56,0.56h1.13
					c0.31,0,0.56-0.25,0.56-0.56v-3.62c-0.35,0.15-0.73,0.24-1.13,0.24c-1.56,0-2.82-1.26-2.82-2.82c0-1.56,1.26-2.82,2.82-2.82
					c0.4,0,0.78,0.09,1.13,0.24v-3.62C390.57,253.75,390.32,253.5,390.01,253.5z M405.76,252.14h-0.83c-0.25,0-0.47-0.17-0.54-0.42
					c-0.09-0.27-0.2-0.54-0.33-0.79c-0.11-0.22-0.09-0.49,0.09-0.67l0.59-0.59c0.22-0.22,0.22-0.58,0-0.8l-0.8-0.8
					c-0.22-0.22-0.58-0.22-0.8,0l-0.59,0.59c-0.18,0.18-0.44,0.2-0.67,0.09c-0.25-0.13-0.51-0.24-0.79-0.33
					c-0.24-0.08-0.42-0.29-0.42-0.54v-0.83c0-0.31-0.25-0.56-0.56-0.56h-1.13c-0.31,0-0.56,0.25-0.56,0.56v3.62
					c0.35-0.15,0.73-0.24,1.13-0.24c1.56,0,2.82,1.26,2.82,2.82c0,1.56-1.26,2.82-2.82,2.82c-0.4,0-0.78-0.09-1.13-0.24v3.62
					c0,0.31,0.25,0.56,0.56,0.56h1.13c0.31,0,0.56-0.25,0.56-0.56v-0.83c0-0.25,0.17-0.47,0.42-0.54c0.27-0.09,0.54-0.2,0.79-0.33
					c0.22-0.12,0.49-0.09,0.67,0.09l0.59,0.59c0.22,0.22,0.58,0.22,0.8,0l0.8-0.8c0.22-0.22,0.22-0.58,0-0.8l-0.59-0.59
					c-0.18-0.18-0.2-0.44-0.09-0.67c0.13-0.25,0.24-0.51,0.33-0.79c0.08-0.24,0.29-0.42,0.54-0.42h0.83c0.31,0,0.56-0.25,0.56-0.56
					v-1.13C406.33,252.39,406.07,252.14,405.76,252.14z"/>
			</g>
		</g>
	</g>
	<g>
		<g>
			<path class="st2" d="M333.52,241.5h-10.38v7.97c0,1.94-1.58,3.53-3.53,3.53h-7.97v16.25c0,1.1,0.9,2,2,2h9.49
				c0.03-0.2,0.08-0.4,0.15-0.59c-0.9-0.39-1.58-1.22-1.73-2.22c-0.08-0.56-0.13-1.11-0.13-1.65c0-0.54,0.04-1.1,0.13-1.65
				c0.15-1.01,0.83-1.84,1.73-2.22c-0.36-0.91-0.25-1.99,0.36-2.81c0.65-0.87,1.41-1.64,2.28-2.29c0.5-0.37,1.11-0.58,1.73-0.58
				c0.38,0,0.76,0.08,1.11,0.22c0.38-0.91,1.22-1.61,2.24-1.76c0.55-0.08,1.1-0.12,1.63-0.12c0.53,0,1.08,0.04,1.63,0.12
				c0.46,0.07,0.88,0.26,1.25,0.52V243.5C335.52,242.4,334.62,241.5,333.52,241.5z"/>
			<path class="st2" d="M320.3,241.66l-8.5,8.5c-0.13,0.13-0.04,0.34,0.14,0.34h7.93c0.42,0,0.76-0.34,0.76-0.76v-7.93
				C320.64,241.63,320.43,241.54,320.3,241.66z M341.26,265.51c-0.03-0.19-0.2-0.33-0.4-0.33h-0.82c-0.26-0.08-0.47-0.28-0.56-0.55
				c-0.15-0.48-0.36-0.94-0.61-1.37c-0.09-0.16-0.07-0.35,0.06-0.48l0.66-0.66c0.14-0.14,0.16-0.36,0.04-0.52
				c-0.5-0.68-1.1-1.28-1.78-1.78c-0.16-0.12-0.38-0.1-0.52,0.04l-0.66,0.66c-0.13,0.13-0.32,0.15-0.48,0.06
				c-0.6-0.35-1.26-0.61-1.96-0.77c0,0,0,0,0,0v-1.24c0-0.2-0.14-0.37-0.34-0.4c-0.41-0.06-0.83-0.1-1.26-0.1
				c-0.43,0-0.85,0.03-1.26,0.1c-0.19,0.03-0.34,0.2-0.34,0.4v1.24c0,0,0,0,0,0c-0.7,0.16-1.36,0.42-1.96,0.77
				c-0.16,0.09-0.35,0.07-0.48-0.06l-0.66-0.66c-0.14-0.14-0.37-0.16-0.52-0.04c-0.67,0.5-1.27,1.1-1.78,1.78
				c-0.12,0.16-0.1,0.38,0.04,0.52l0.66,0.66c0.13,0.13,0.15,0.32,0.06,0.48c-0.25,0.43-0.45,0.89-0.61,1.37
				c-0.09,0.27-0.3,0.48-0.56,0.55h-0.82c-0.2,0-0.37,0.14-0.4,0.33c-0.06,0.42-0.1,0.84-0.1,1.28c0,0.44,0.04,0.86,0.1,1.28
				c0.03,0.19,0.2,0.33,0.4,0.33h0.82c0.26,0.08,0.47,0.28,0.56,0.55c0.15,0.48,0.36,0.94,0.61,1.37c0.09,0.16,0.07,0.35-0.06,0.48
				l-0.66,0.66c-0.14,0.14-0.16,0.36-0.04,0.52c0.5,0.68,1.1,1.28,1.78,1.78c0.16,0.12,0.38,0.1,0.52-0.04l0.66-0.66
				c0.13-0.13,0.32-0.15,0.48-0.06c0.6,0.35,1.26,0.61,1.96,0.77c0,0,0,0,0,0v1.24c0,0.2,0.14,0.37,0.34,0.4
				c0.41,0.06,0.83,0.1,1.26,0.1c0.43,0,0.85-0.03,1.26-0.1c0.19-0.03,0.34-0.2,0.34-0.4v-1.24c0,0,0,0,0,0
				c0.7-0.16,1.36-0.42,1.96-0.77c0.16-0.09,0.35-0.07,0.48,0.06l0.66,0.66c0.14,0.14,0.36,0.16,0.52,0.04
				c0.67-0.5,1.27-1.1,1.78-1.78c0.12-0.16,0.1-0.38-0.04-0.52l-0.66-0.66c-0.13-0.13-0.15-0.32-0.06-0.48
				c0.25-0.43,0.45-0.89,0.61-1.37c0.09-0.27,0.3-0.48,0.56-0.55h0.82c0.2,0,0.37-0.14,0.4-0.33c0.06-0.42,0.1-0.84,0.1-1.28
				C341.36,266.35,341.32,265.92,341.26,265.51z M335.01,267.16c-0.15,1.01-0.98,1.83-1.98,1.98c-1.62,0.25-2.99-1.12-2.74-2.74
				c0.15-1.01,0.98-1.83,1.98-1.98C333.88,264.18,335.25,265.55,335.01,267.16z"/>
		</g>
	</g>
	<g>
		<g>
			<path class="st2" d="M254.22,242.79l-8.5,8.5c-0.13,0.13-0.04,0.34,0.14,0.34h7.93c0.42,0,0.76-0.34,0.76-0.76v-7.93
				c0-0.12-0.1-0.2-0.2-0.2C254.31,242.73,254.26,242.74,254.22,242.79z"/>
			<path class="st2" d="M269.44,242.62h-12.41c0.01,0.1,0.03,0.2,0.03,0.3v7.93c0,1.8-1.46,3.26-3.26,3.26h-7.93
				c-0.1,0-0.2-0.01-0.3-0.02v18.28c0,1.1,0.9,2,2,2h21.88c1.1,0,2-0.9,2-2v-27.75C271.44,243.52,270.54,242.62,269.44,242.62z"/>
		</g>
	</g>
	<g>
		<g>
			<path class="st2" d="M200.01,265.08h-1.36c-0.42,0-0.77-0.29-0.9-0.68c-0.14-0.45-0.33-0.88-0.54-1.3
				c-0.19-0.36-0.14-0.81,0.15-1.1l0.97-0.97c0.36-0.36,0.36-0.95,0-1.31l-1.31-1.31c-0.36-0.36-0.95-0.36-1.31,0l-0.97,0.97
				c-0.29,0.29-0.73,0.34-1.1,0.15c-0.41-0.21-0.85-0.4-1.3-0.54c-0.4-0.13-0.68-0.48-0.68-0.9v-1.36c0-0.51-0.42-0.93-0.93-0.93
				h-1.86c-0.51,0-0.93,0.42-0.93,0.93v1.36c0,0.42-0.29,0.77-0.68,0.9c-0.45,0.14-0.88,0.33-1.3,0.54
				c-0.36,0.19-0.81,0.14-1.1-0.15l-0.97-0.97c-0.36-0.36-0.95-0.36-1.31,0l-1.31,1.31c-0.36,0.36-0.36,0.95,0,1.31l0.97,0.97
				c0.29,0.29,0.34,0.73,0.15,1.1c-0.21,0.41-0.4,0.85-0.54,1.3c-0.13,0.4-0.48,0.68-0.9,0.68h-1.36c-0.51,0-0.93,0.42-0.93,0.93
				v1.86c0,0.51,0.42,0.93,0.93,0.93h5.96c-0.25-0.57-0.39-1.2-0.39-1.86c0-2.56,2.08-4.64,4.64-4.64c2.56,0,4.64,2.08,4.64,4.64
				c0,0.66-0.14,1.29-0.39,1.86h5.96c0.51,0,0.93-0.42,0.93-0.93v-1.86C200.94,265.5,200.53,265.08,200.01,265.08z M209.54,247.88
				c-0.02-0.16-0.17-0.28-0.33-0.28h-0.68c-0.22-0.06-0.39-0.23-0.46-0.46c-0.13-0.4-0.3-0.78-0.5-1.14
				c-0.07-0.13-0.06-0.29,0.05-0.4l0.55-0.55c0.12-0.12,0.13-0.3,0.04-0.43c-0.42-0.56-0.92-1.06-1.48-1.48
				c-0.13-0.1-0.32-0.08-0.43,0.04l-0.55,0.55c-0.11,0.11-0.27,0.12-0.4,0.05c-0.5-0.29-1.05-0.5-1.63-0.64v-1.03
				c0-0.16-0.12-0.31-0.28-0.33c-0.34-0.05-0.69-0.08-1.05-0.08c-0.36,0-0.71,0.03-1.05,0.08c-0.16,0.02-0.28,0.17-0.28,0.33v1.03
				l0,0c-0.58,0.13-1.13,0.35-1.63,0.64c-0.13,0.07-0.29,0.06-0.4-0.05l-0.55-0.55c-0.12-0.12-0.3-0.13-0.44-0.04
				c-0.56,0.42-1.06,0.92-1.48,1.48c-0.1,0.13-0.08,0.32,0.04,0.43l0.55,0.55c0.11,0.11,0.12,0.27,0.05,0.4
				c-0.21,0.36-0.38,0.74-0.5,1.14c-0.07,0.23-0.25,0.4-0.46,0.46h-0.68c-0.16,0-0.31,0.12-0.33,0.28c-0.05,0.35-0.08,0.7-0.08,1.06
				c0,0.36,0.03,0.72,0.08,1.06c0.02,0.16,0.17,0.28,0.33,0.28h0.68c0.22,0.06,0.39,0.23,0.46,0.46c0.13,0.4,0.3,0.78,0.5,1.14
				c0.07,0.13,0.06,0.29-0.05,0.4l-0.55,0.55c-0.12,0.12-0.13,0.3-0.04,0.43c0.42,0.56,0.92,1.06,1.48,1.48
				c0.13,0.1,0.32,0.08,0.44-0.04l0.55-0.55c0.11-0.11,0.27-0.12,0.4-0.05c0.5,0.29,1.05,0.5,1.63,0.64c0,0,0,0,0,0v1.03
				c0,0.16,0.12,0.31,0.28,0.33c0.34,0.05,0.69,0.08,1.05,0.08c0.36,0,0.71-0.03,1.05-0.08c0.16-0.02,0.28-0.17,0.28-0.33v-1.03
				c0,0,0,0,0,0c0.58-0.13,1.13-0.35,1.63-0.64c0.13-0.07,0.29-0.06,0.4,0.05l0.55,0.55c0.12,0.12,0.3,0.13,0.43,0.04
				c0.56-0.42,1.06-0.92,1.48-1.48c0.1-0.13,0.08-0.32-0.04-0.43l-0.55-0.55c-0.11-0.11-0.12-0.27-0.05-0.4
				c0.21-0.36,0.38-0.74,0.5-1.14c0.07-0.23,0.25-0.4,0.46-0.46h0.68c0.16,0,0.31-0.12,0.33-0.28c0.05-0.35,0.08-0.7,0.08-1.06
				C209.62,248.59,209.59,248.23,209.54,247.88z M204.34,249.26c-0.13,0.84-0.81,1.52-1.65,1.65c-1.34,0.21-2.48-0.94-2.28-2.28
				c0.13-0.84,0.81-1.52,1.65-1.65C203.41,246.78,204.55,247.92,204.34,249.26z"/>
			<path class="st2" d="M204.73,258.14c-0.02,0.01-0.04,0.01-0.05,0.02c-0.78,0.28-1.3,1.02-1.3,1.85v10.28c0,0.55-0.45,1-1,1h-26
				c-0.55,0-1-0.45-1-1v-17c0-0.55,0.45-1,1-1h17.6c-0.64-0.43-1.11-1.11-1.23-1.91c-0.07-0.48-0.11-0.97-0.11-1.44
				s0.04-0.95,0.11-1.44c0.13-0.85,0.64-1.57,1.35-2c-0.2-0.8-0.05-1.68,0.47-2.38c0.22-0.3,0.47-0.57,0.72-0.84h-19.9
				c-2.21,0-4,1.79-4,4v25c0,2.21,1.79,4,4,4h28c2.21,0,4-1.79,4-4v-11.3C207.38,258.63,206.02,257.67,204.73,258.14z M183.38,245.8
				h4c0.83,0,1.5,0.67,1.5,1.5c0,0.83-0.67,1.5-1.5,1.5h-4c-0.83,0-1.5-0.67-1.5-1.5C181.88,246.47,182.55,245.8,183.38,245.8z
				 M177.38,245.3c1.1,0,2,0.9,2,2c0,1.1-0.9,2-2,2c-1.1,0-2-0.9-2-2C175.38,246.19,176.27,245.3,177.38,245.3z"/>
		</g>
	</g>
	<g>
		<g>
			<path class="st2" d="M128.69,241.74c-6.19,0-11.36,4.35-12.64,10.16c-1.25-0.73-2.7-1.15-4.25-1.15c-4.66,0-8.44,3.78-8.44,8.44
				c0,4.47,3.48,8.12,7.88,8.41l18.01,0c6.89-0.3,12.38-5.96,12.38-12.91C141.63,247.54,135.84,241.74,128.69,241.74z"/>
			<path class="st2" d="M132.24,271.1h-7.54c-0.48-0.7-1.28-1.16-2.2-1.16s-1.72,0.46-2.2,1.16h-7.54c-0.83,0-1.5,0.67-1.5,1.5
				c0,0.83,0.67,1.5,1.5,1.5h7.54c0.48,0.7,1.28,1.16,2.2,1.16s1.72-0.46,2.2-1.16h7.54c0.83,0,1.5-0.67,1.5-1.5
				C133.74,271.77,133.06,271.1,132.24,271.1z"/>
		</g>
	</g>
	<g>
		<g>
			<g>
				<path class="st2" d="M60.69,241.4c-6.19,0-11.36,4.35-12.64,10.16c-1.25-0.73-2.7-1.15-4.25-1.15c-4.66,0-8.44,3.78-8.44,8.44
					c0,4.47,3.48,8.12,7.88,8.41H54.2v-5.16c0-3.48,4-6,9.5-6c4.11,0,7.39,1.41,8.77,3.58c0.74-1.63,1.16-3.42,1.16-5.33
					C73.63,247.2,67.84,241.4,60.69,241.4z"/>
				<path class="st2" d="M63.7,258.6c-3.87,0-7,1.57-7,3.5v3.33l0.27,0.34c0.8,1,3.25,2.09,6.73,2.09c3.44,0,6.02-1.09,6.79-2.17
					l0.21-0.3v-3.3C70.7,260.16,67.56,258.6,63.7,258.6z M63.7,263.6c-2.21,0-4-0.67-4-1.5s1.79-1.5,4-1.5c2.21,0,4,0.67,4,1.5
					S65.91,263.6,63.7,263.6z M56.7,268.73V272c0,0.01,0,0.03,0.01,0.04c0,0.02-0.01,0.04-0.01,0.06c0,1.93,3.13,3.5,7,3.5
					c3.87,0,7-1.57,7-3.5c0-0.02-0.01-0.04-0.01-0.06c0-0.01,0.01-0.03,0.01-0.04v-3.29c-1.74,1.03-4.24,1.65-7,1.65
					C60.92,270.36,58.44,269.76,56.7,268.73z"/>
			</g>
		</g>
	</g>
	<g>
		<g>
			<g>
				<path class="st2" d="M389.8,174.35c-0.05,0-0.1,0.02-0.14,0.06l-8.5,8.5c-0.13,0.13-0.04,0.34,0.14,0.34h7.93
					c0.42,0,0.76-0.34,0.76-0.76v-7.93C390,174.43,389.9,174.35,389.8,174.35z M407,192.59h-12c-0.55,0-1,0.45-1,1v1.74
					c0,0.24,0.08,0.47,0.24,0.65l4.35,5.12c0.15,0.18,0.24,0.41,0.24,0.65v2.71c0,0.36,0.2,0.7,0.52,0.88l2.35,1.3
					c0.16,0.09,0.32,0.13,0.48,0.13c0.52,0,1-0.42,1-1v-4c0-0.24,0.08-0.47,0.24-0.65l4.35-5.12c0.15-0.18,0.24-0.41,0.24-0.65
					v-1.74C408,193.04,407.55,192.59,407,192.59z"/>
				<path class="st2" d="M395,190.09h9.88v-13.84c0-1.1-0.9-2-2-2h-10.41c0.01,0.1,0.03,0.2,0.03,0.3v7.93
					c0,1.8-1.46,3.26-3.26,3.26h-7.93c-0.1,0-0.2-0.01-0.3-0.02V202c0,1.1,0.9,2,2,2h13.33v-1.71l-3.99-4.7
					c-0.54-0.63-0.83-1.44-0.83-2.27v-1.74C391.5,191.66,393.07,190.09,395,190.09z"/>
			</g>
		</g>
	</g>
	<g>
		<g>
			<g>
				<path class="st2" d="M310,176.25h26v0h4v-2c0-1.1-0.9-2-2-2h-30c-1.1,0-2,0.9-2,2v23c0,1.1,0.9,2,2,2h11.83l-0.67,4h-3.67
					c-0.83,0-1.5,0.67-1.5,1.5c0,0.83,0.67,1.5,1.5,1.5h10v-11H310V176.25z M343,178.75h-11c-2.21,0-4,1.79-4,4v22
					c0,2.21,1.79,4,4,4h11c2.21,0,4-1.79,4-4v-22C347,180.54,345.21,178.75,343,178.75z M338.25,206.25h-1.5
					c-0.83,0-1.5-0.67-1.5-1.5l0,0c0-0.83,0.67-1.5,1.5-1.5h1.5c0.83,0,1.5,0.67,1.5,1.5l0,0
					C339.75,205.58,339.08,206.25,338.25,206.25z M343.82,200.14c0,0.55-0.45,1-1,1h-10.63c-0.55,0-1-0.45-1-1v-16.16
					c0-0.55,0.45-1,1-1h10.63c0.55,0,1,0.45,1,1V200.14z"/>
				<path class="st2" d="M324.26,180.25h-1.13c-0.31,0-0.56,0.25-0.56,0.56v0.83c0,0.25-0.17,0.47-0.42,0.54
					c-0.27,0.09-0.54,0.2-0.79,0.33c-0.22,0.12-0.49,0.09-0.67-0.09l-0.59-0.59c-0.22-0.22-0.58-0.22-0.8,0l-0.8,0.8
					c-0.22,0.22-0.22,0.58,0,0.8l0.59,0.59c0.18,0.18,0.2,0.44,0.09,0.67c-0.13,0.25-0.24,0.51-0.33,0.79
					c-0.08,0.24-0.29,0.42-0.54,0.42h-0.83c-0.31,0-0.56,0.25-0.56,0.56v1.13c0,0.31,0.25,0.56,0.56,0.56h0.83
					c0.25,0,0.47,0.17,0.54,0.42c0.09,0.27,0.2,0.54,0.33,0.79c0.11,0.22,0.09,0.49-0.09,0.67l-0.59,0.59
					c-0.22,0.22-0.22,0.58,0,0.8l0.8,0.8c0.22,0.22,0.58,0.22,0.8,0l0.59-0.59c0.18-0.18,0.44-0.2,0.67-0.09
					c0.25,0.13,0.51,0.24,0.79,0.33c0.24,0.08,0.42,0.29,0.42,0.54v0.83c0,0.31,0.25,0.56,0.56,0.56h1.13
					c0.31,0,0.56-0.25,0.56-0.56v-3.62c-0.35,0.15-0.73,0.24-1.13,0.24c-1.56,0-2.82-1.26-2.82-2.82c0-1.56,1.26-2.82,2.82-2.82
					c0.4,0,0.78,0.09,1.13,0.24v-3.62C324.83,180.5,324.57,180.25,324.26,180.25z M340.26,190.89h-0.83c-0.25,0-0.47-0.17-0.54-0.42
					c-0.09-0.27-0.2-0.54-0.33-0.79c-0.11-0.22-0.09-0.49,0.09-0.67l0.59-0.59c0.22-0.22,0.22-0.58,0-0.8l-0.8-0.8
					c-0.22-0.22-0.58-0.22-0.8,0l-0.59,0.59c-0.18,0.18-0.44,0.2-0.67,0.09c-0.25-0.13-0.51-0.24-0.79-0.33
					c-0.24-0.08-0.42-0.29-0.42-0.54v-0.83c0-0.31-0.25-0.56-0.56-0.56h-1.13c-0.31,0-0.56,0.25-0.56,0.56v3.62
					c0.35-0.15,0.73-0.24,1.13-0.24c1.56,0,2.82,1.26,2.82,2.82c0,1.56-1.26,2.82-2.82,2.82c-0.4,0-0.78-0.09-1.13-0.24v3.62
					c0,0.31,0.25,0.56,0.56,0.56h1.13c0.31,0,0.56-0.25,0.56-0.56v-0.83c0-0.25,0.17-0.47,0.42-0.54c0.27-0.09,0.54-0.2,0.79-0.33
					c0.22-0.12,0.49-0.09,0.67,0.09l0.59,0.59c0.22,0.22,0.58,0.22,0.8,0l0.8-0.8c0.22-0.22,0.22-0.58,0-0.8l-0.59-0.59
					c-0.18-0.18-0.2-0.44-0.09-0.67c0.13-0.25,0.24-0.51,0.33-0.79c0.08-0.24,0.29-0.42,0.54-0.42h0.83c0.31,0,0.56-0.25,0.56-0.56
					v-1.13C340.83,191.14,340.57,190.89,340.26,190.89z"/>
			</g>
		</g>
	</g>
	<g>
		<g>
			<path class="st2" d="M241.84,188.81c0.1,0.02,0.19,0.03,0.28,0.03c0.71,0,1.33-0.5,1.47-1.22c0.06-0.3,0.12-0.59,0.2-0.88
				c0.21-0.8-0.28-1.62-1.08-1.83c-0.8-0.21-1.62,0.28-1.83,1.08c-0.09,0.35-0.17,0.71-0.24,1.07
				C240.5,187.87,241.03,188.66,241.84,188.81z M243.64,193.6c-0.12-0.56-0.2-1.13-0.25-1.69c-0.08-0.83-0.8-1.43-1.63-1.36
				c-0.83,0.08-1.43,0.81-1.36,1.63c0.06,0.68,0.16,1.36,0.3,2.03c0.15,0.71,0.77,1.2,1.47,1.2c0.1,0,0.2-0.01,0.31-0.03
				C243.29,195.2,243.81,194.41,243.64,193.6z M271.88,199.69l-5.8,1.14c-0.41,0.08-0.56,0.59-0.27,0.88l1.27,1.27
				c-5.21,3.64-12.35,3.58-17.49-0.19c0,0,0,0,0,0c-0.25-0.18-0.49-0.37-0.72-0.56c-0.64-0.53-1.58-0.44-2.11,0.2
				c-0.53,0.64-0.44,1.58,0.2,2.11c0.28,0.23,0.56,0.45,0.86,0.67c0,0,0,0,0,0c3.14,2.31,6.9,3.46,10.67,3.46
				c3.76,0,7.52-1.15,10.66-3.46c0.03-0.02,0.06-0.05,0.09-0.07l1.23,1.23c0.3,0.3,0.8,0.14,0.88-0.27l1.14-5.8
				C272.57,199.94,272.25,199.62,271.88,199.69z M245.09,197.61c-0.39-0.73-1.3-1.01-2.03-0.62c-0.73,0.39-1.01,1.3-0.62,2.03
				c0.32,0.6,0.68,1.19,1.06,1.75c0.29,0.42,0.76,0.65,1.24,0.65c0.29,0,0.59-0.09,0.85-0.26c0.68-0.47,0.86-1.4,0.39-2.09
				C245.66,198.61,245.36,198.12,245.09,197.61z"/>
			<path class="st2" d="M267.4,188.75h-0.89c-0.28-0.08-0.51-0.3-0.61-0.6c-0.17-0.52-0.39-1.02-0.66-1.49
				c-0.1-0.17-0.07-0.38,0.06-0.52l0.71-0.71c0.15-0.15,0.17-0.4,0.05-0.57c-0.55-0.73-1.2-1.38-1.93-1.93
				c-0.17-0.13-0.42-0.11-0.57,0.05l-0.71,0.71c-0.14,0.14-0.35,0.16-0.52,0.06c-0.66-0.38-1.37-0.66-2.13-0.83c0,0,0,0,0,0v-1.34
				c0-0.21-0.15-0.4-0.36-0.43c-0.45-0.07-0.9-0.1-1.37-0.1c-0.47,0-0.92,0.04-1.37,0.1c-0.21,0.03-0.36,0.22-0.36,0.43v1.34v0
				c-0.76,0.17-1.47,0.46-2.13,0.83c-0.17,0.1-0.38,0.07-0.52-0.06l-0.71-0.71c-0.15-0.15-0.4-0.17-0.57-0.05
				c-0.73,0.55-1.38,1.2-1.93,1.93c-0.13,0.17-0.1,0.42,0.05,0.57l0.71,0.71c0.14,0.14,0.16,0.35,0.06,0.52
				c-0.27,0.47-0.49,0.97-0.66,1.49c-0.09,0.3-0.32,0.52-0.61,0.6h-0.89c-0.21,0-0.4,0.15-0.43,0.36c-0.07,0.45-0.11,0.92-0.11,1.39
				c0,0.47,0.04,0.94,0.11,1.39c0.03,0.21,0.22,0.36,0.43,0.36h0.89c0.28,0.08,0.51,0.3,0.61,0.6c0.17,0.52,0.39,1.02,0.66,1.49
				c0.1,0.17,0.07,0.38-0.06,0.52l-0.71,0.71c-0.15,0.15-0.17,0.4-0.05,0.57c0.55,0.73,1.2,1.38,1.93,1.93
				c0.17,0.13,0.42,0.11,0.57-0.05l0.71-0.71c0.14-0.14,0.35-0.16,0.52-0.06c0.66,0.38,1.37,0.66,2.13,0.83c0,0,0,0,0,0v1.34
				c0,0.21,0.15,0.4,0.36,0.43c0.45,0.07,0.9,0.1,1.37,0.1c0.47,0,0.92-0.04,1.37-0.1c0.21-0.03,0.36-0.22,0.36-0.43v-1.34
				c0,0,0,0,0,0c0.76-0.17,1.47-0.46,2.13-0.83c0.17-0.1,0.38-0.07,0.52,0.06l0.71,0.71c0.15,0.15,0.4,0.17,0.57,0.05
				c0.73-0.55,1.38-1.2,1.93-1.93c0.13-0.17,0.1-0.42-0.05-0.57l-0.71-0.71c-0.14-0.14-0.16-0.35-0.06-0.52
				c0.27-0.47,0.49-0.97,0.66-1.49c0.09-0.3,0.32-0.52,0.61-0.6h0.89c0.21,0,0.4-0.15,0.43-0.36c0.07-0.45,0.11-0.92,0.11-1.39
				c0-0.47-0.04-0.94-0.11-1.39C267.8,188.9,267.62,188.75,267.4,188.75z M262.03,191.21c-0.27,1.41-1.43,2.57-2.84,2.84
				c-2.55,0.48-4.74-1.71-4.25-4.25c0.27-1.41,1.42-2.57,2.84-2.84C260.33,186.47,262.52,188.66,262.03,191.21z M273.38,187.63
				c0.11,0.58,0.19,1.16,0.23,1.73c0.06,0.79,0.72,1.39,1.49,1.39c0.04,0,0.07,0,0.11,0c0.83-0.06,1.45-0.78,1.39-1.61
				c-0.05-0.69-0.14-1.39-0.28-2.08c-0.16-0.81-0.95-1.35-1.76-1.19C273.76,186.03,273.22,186.81,273.38,187.63z M269.16,175.79
				C269.15,175.79,269.15,175.79,269.16,175.79c-6.27-4.6-15.02-4.61-21.3-0.03l-1.31-1.31c-0.3-0.3-0.82-0.15-0.9,0.28l-1.17,5.95
				c-0.07,0.37,0.26,0.7,0.63,0.63l5.95-1.17c0.42-0.08,0.58-0.6,0.28-0.9l-1.31-1.31c5.2-3.55,12.26-3.46,17.36,0.28c0,0,0,0,0,0
				c0.25,0.18,0.49,0.37,0.72,0.56c0.28,0.23,0.62,0.34,0.95,0.34c0.43,0,0.86-0.19,1.16-0.54c0.53-0.64,0.44-1.58-0.2-2.11
				C269.73,176.23,269.45,176,269.16,175.79z M275.09,192.58c-0.81-0.17-1.61,0.34-1.78,1.15c-0.06,0.3-0.14,0.59-0.22,0.88
				c-0.22,0.8,0.24,1.63,1.04,1.85c0.14,0.04,0.27,0.06,0.41,0.06c0.66,0,1.26-0.43,1.44-1.1c0.1-0.35,0.19-0.7,0.26-1.06
				C276.41,193.55,275.9,192.75,275.09,192.58z M273.97,184.14c0.74-0.38,1.02-1.29,0.64-2.02c-0.32-0.62-0.68-1.23-1.08-1.8
				c-0.46-0.69-1.4-0.87-2.08-0.4c-0.69,0.46-0.86,1.4-0.4,2.08c0.33,0.48,0.63,0.99,0.9,1.5c0.27,0.51,0.79,0.81,1.33,0.81
				C273.51,184.31,273.75,184.26,273.97,184.14z"/>
		</g>
	</g>
	<g>
		<g>
			<path class="st2" d="M186.48,185.4v-4.16c-0.92,0.21-1.78,0.55-2.57,1.01c-0.21,0.12-0.47,0.09-0.64-0.08l-0.88-0.88
				c-0.19-0.19-0.49-0.22-0.7-0.06c-0.9,0.68-1.7,1.48-2.38,2.38c-0.16,0.21-0.13,0.51,0.06,0.7l0.88,0.88
				c0.17,0.17,0.2,0.43,0.08,0.64c-0.33,0.58-0.6,1.19-0.81,1.84c-0.12,0.36-0.4,0.64-0.75,0.74h-1.1c-0.26,0-0.49,0.19-0.53,0.45
				c-0.08,0.56-0.13,1.13-0.13,1.71c0,0.58,0.05,1.15,0.13,1.71c0.04,0.26,0.27,0.45,0.53,0.45h1.1c0.35,0.1,0.63,0.38,0.75,0.74
				c0.21,0.65,0.48,1.26,0.81,1.84c0.12,0.21,0.09,0.47-0.08,0.64l-0.88,0.88c-0.19,0.19-0.22,0.49-0.06,0.7
				c0.67,0.9,1.48,1.71,2.38,2.38c0.21,0.16,0.51,0.13,0.7-0.06l0.88-0.88c0.17-0.17,0.43-0.2,0.64-0.08
				c0.79,0.45,1.66,0.8,2.57,1.01v-4.15c-2.27-0.96-3.79-3.37-3.37-6.08C183.4,187.76,184.73,186.15,186.48,185.4z"/>
			<path class="st2" d="M175.65,197.62c-0.27-0.55-0.51-1.13-0.71-1.71c-0.28-0.78-1.13-1.19-1.91-0.92
				c-0.78,0.28-1.19,1.13-0.92,1.91c0.24,0.68,0.52,1.36,0.84,2.02c0.26,0.53,0.79,0.85,1.35,0.85c0.22,0,0.44-0.05,0.65-0.15
				C175.7,199.26,176.02,198.37,175.65,197.62z M172.62,192.98c0.83-0.05,1.46-0.76,1.41-1.59c-0.02-0.33-0.03-0.67-0.03-1
				c0-0.29,0.01-0.57,0.02-0.85c0.04-0.83-0.59-1.53-1.42-1.57c-0.85-0.04-1.53,0.59-1.57,1.42c-0.02,0.33-0.03,0.67-0.03,1
				c0,0.4,0.01,0.79,0.04,1.18c0.05,0.8,0.71,1.41,1.5,1.41C172.56,192.98,172.59,192.98,172.62,192.98z M172.99,185.94
				c0.16,0.06,0.33,0.08,0.49,0.08c0.62,0,1.2-0.39,1.42-1.01c0.2-0.58,0.44-1.16,0.7-1.71c0.36-0.75,0.05-1.64-0.7-2
				c-0.75-0.36-1.64-0.05-2,0.7c-0.31,0.65-0.6,1.33-0.84,2.03C171.79,184.81,172.21,185.67,172.99,185.94z M177.05,179.97
				c0.41,0,0.82-0.17,1.12-0.5c0.41-0.46,0.85-0.9,1.31-1.3c0.62-0.55,0.68-1.5,0.13-2.12c-0.55-0.62-1.5-0.68-2.12-0.13
				c-0.54,0.48-1.06,1-1.55,1.54c-0.55,0.62-0.5,1.56,0.12,2.12C176.34,179.85,176.69,179.97,177.05,179.97z M190.5,171H189v39h1.5
				c10.75,0,19.5-8.8,19.5-19.61C210,179.7,201.25,171,190.5,171z M205.16,182.89h-4.95c-0.65-2.92-1.66-5.45-2.94-7.43
				C200.66,176.99,203.46,179.61,205.16,182.89z M192,174.38c2.09,1.01,4.06,4.06,5.14,8.51H192V174.38z M192,185.89h5.7
				c0.19,1.41,0.3,2.91,0.3,4.5c0,1.59-0.11,3.09-0.3,4.5H192V185.89z M192,206.6v-8.71h5.14C196.05,202.39,194.06,205.54,192,206.6
				z M197.24,205.53c1.31-2.02,2.34-4.64,2.98-7.64h4.99C203.51,201.27,200.69,203.97,197.24,205.53z M200.72,194.89
				c0.18-1.44,0.28-2.94,0.28-4.5c0-1.56-0.1-3.06-0.28-4.5h5.65c0.41,1.43,0.64,2.94,0.64,4.5c0,1.56-0.22,3.07-0.62,4.5H200.72z
				 M185.06,206.07c-0.58-0.21-1.15-0.45-1.71-0.71c-0.75-0.36-1.64-0.05-2.01,0.69c-0.36,0.74-0.05,1.64,0.69,2.01
				c0.65,0.32,1.33,0.6,2.02,0.85c0.16,0.06,0.33,0.09,0.5,0.09c0.62,0,1.2-0.38,1.41-1C186.25,207.2,185.84,206.35,185.06,206.07z
				 M182.67,175.77c0.22,0,0.44-0.05,0.65-0.15c0.55-0.27,1.13-0.5,1.71-0.7c0.78-0.27,1.2-1.12,0.93-1.91
				c-0.27-0.78-1.12-1.2-1.91-0.93c-0.69,0.24-1.37,0.52-2.03,0.83c-0.75,0.36-1.06,1.25-0.7,2
				C181.58,175.45,182.11,175.77,182.67,175.77z M178.22,201.46c-0.55-0.62-1.5-0.67-2.12-0.12c-0.62,0.55-0.67,1.5-0.12,2.12
				c0.48,0.54,1,1.06,1.54,1.55c0.29,0.26,0.65,0.39,1,0.39c0.41,0,0.82-0.17,1.11-0.5c0.55-0.62,0.5-1.56-0.11-2.12
				C179.07,202.36,178.63,201.92,178.22,201.46z"/>
		</g>
	</g>
	<g>
		<g>
			<g>
				<path class="st2" d="M111.29,202.67v-5.11c-0.33,0.04-0.67,0.08-1.02,0.08c-0.69,0-1.35-0.1-1.98-0.27v5.3
					c0,1.93,1.57,3.5,3.5,3.5h3.83v-3h-3.83C111.51,203.17,111.29,202.95,111.29,202.67z M126.12,200h-6c-1.1,0-2,0.9-2,2v5
					c0,1.1,0.9,2,2,2h6c1.1,0,2-0.9,2-2v-5C128.12,200.9,127.22,200,126.12,200z"/>
				<path class="st2" d="M120.12,181h6c1.1,0,2-0.9,2-2v-5c0-1.1-0.9-2-2-2h-6c-1.1,0-2,0.9-2,2v5
					C118.12,180.1,119.02,181,120.12,181z M121.29,184.5v1c0,0.83,0.67,1.5,1.5,1.5c0.83,0,1.5-0.67,1.5-1.5v-1
					c0-0.83-0.67-1.5-1.5-1.5C121.96,183,121.29,183.67,121.29,184.5z M139.59,189.29l-4.51-4.51c-0.2-0.2-0.45-0.29-0.71-0.29
					c-0.26,0-0.51,0.1-0.71,0.29l-3.72,3.72h-14.78c-0.65-2.11-2.58-3.65-4.9-3.65c-2.84,0-5.15,2.3-5.15,5.15
					c0,2.84,2.3,5.15,5.15,5.15c2.32,0,4.25-1.54,4.9-3.65h14.78l3.72,3.72c0.2,0.2,0.45,0.29,0.71,0.29c0.26,0,0.51-0.1,0.71-0.29
					l4.51-4.51C139.98,190.31,139.98,189.68,139.59,189.29z M122.62,194c-0.83,0-1.5,0.67-1.5,1.5v1c0,0.83,0.67,1.5,1.5,1.5
					c0.83,0,1.5-0.67,1.5-1.5v-1C124.12,194.67,123.45,194,122.62,194z"/>
			</g>
		</g>
	</g>
	<g>
		<g>
			<path class="st2" d="M74.71,187.5c-0.07-0.45-0.47-0.79-0.93-0.79h-1.92c-0.61-0.18-1.1-0.66-1.31-1.29
				c-0.36-1.13-0.84-2.21-1.42-3.22c-0.21-0.37-0.16-0.82,0.14-1.12l1.54-1.54c0.33-0.33,0.38-0.85,0.1-1.23
				c-1.18-1.59-2.58-2.99-4.17-4.18c-0.37-0.28-0.9-0.23-1.23,0.1l-1.54,1.54c-0.3,0.3-0.75,0.35-1.12,0.14
				c-1.42-0.81-2.96-1.42-4.6-1.8c0,0,0,0,0,0v-2.9c0-0.46-0.33-0.86-0.79-0.93c-0.97-0.14-1.95-0.23-2.96-0.23
				s-1.99,0.08-2.96,0.23c-0.46,0.07-0.79,0.47-0.79,0.93v2.9c0,0,0,0,0,0c-1.64,0.37-3.18,0.98-4.6,1.8
				c-0.37,0.21-0.82,0.16-1.12-0.14l-1.54-1.54c-0.33-0.33-0.86-0.38-1.23-0.1c-1.58,1.18-2.99,2.59-4.17,4.18
				c-0.28,0.37-0.23,0.9,0.1,1.23l1.54,1.54c0.3,0.3,0.35,0.75,0.14,1.12c-0.58,1.01-1.06,2.09-1.42,3.22
				c-0.2,0.64-0.69,1.12-1.31,1.29h-1.92c-0.46,0-0.86,0.33-0.93,0.79c-0.15,0.98-0.23,1.98-0.23,3c0,1.02,0.08,2.02,0.23,3
				c0.07,0.45,0.47,0.79,0.93,0.79h1.92c0.61,0.18,1.1,0.66,1.31,1.29c0.36,1.13,0.84,2.21,1.42,3.22c0.21,0.37,0.16,0.82-0.14,1.12
				l-1.54,1.54c-0.33,0.33-0.38,0.85-0.1,1.23c1.18,1.58,2.58,2.99,4.17,4.18c0.37,0.28,0.9,0.23,1.23-0.1l1.54-1.54
				c0.3-0.3,0.75-0.35,1.12-0.14c1.42,0.81,2.96,1.42,4.6,1.8c0,0,0,0,0,0v2.9c0,0.46,0.33,0.86,0.79,0.93
				c0.97,0.14,1.95,0.23,2.96,0.23s1.99-0.08,2.96-0.23c0.46-0.07,0.79-0.47,0.79-0.93v-2.9c0,0,0,0,0,0
				c1.64-0.37,3.18-0.98,4.6-1.8c0.37-0.21,0.82-0.16,1.12,0.14l1.54,1.54c0.33,0.33,0.86,0.38,1.23,0.1
				c1.58-1.18,2.99-2.59,4.17-4.18c0.28-0.37,0.23-0.9-0.1-1.23l-1.54-1.54c-0.3-0.3-0.35-0.75-0.14-1.12
				c0.58-1.01,1.06-2.09,1.42-3.22c0.2-0.64,0.69-1.12,1.31-1.29h1.92c0.46,0,0.86-0.33,0.93-0.79c0.15-0.98,0.23-1.98,0.23-3
				C74.94,189.48,74.86,188.48,74.71,187.5z M65.43,192.25c-0.71,4.66-4.52,8.47-9.18,9.18c-7.48,1.15-13.83-5.2-12.68-12.68
				c0.71-4.66,4.52-8.47,9.18-9.18C60.23,178.42,66.58,184.77,65.43,192.25z"/>
			<path class="st2" d="M60,189.13h-1.25v-3c0-2.34-1.91-4.25-4.25-4.25c-2.34,0-4.25,1.91-4.25,4.25v3H49c-0.28,0-0.5,0.22-0.5,0.5
				v7c0,0.28,0.22,0.5,0.5,0.5h11c0.28,0,0.5-0.22,0.5-0.5v-7C60.5,189.35,60.28,189.13,60,189.13z M56.25,189.13h-3.5v-3
				c0-0.96,0.79-1.75,1.75-1.75c0.96,0,1.75,0.79,1.75,1.75V189.13z"/>
		</g>
	</g>
	<g>
		<g>
			<g>
				<g>
					<g>
						<g>
							<path class="st2" d="M409.78,126.23c-0.11-0.02-0.23-0.03-0.34-0.03c-0.65,0-1.33,0.27-1.82,0.69
								c-0.2-0.83-0.99-1.53-1.83-1.67c-0.11-0.02-0.23-0.03-0.34-0.03c-0.61,0-1.25,0.24-1.73,0.63c-0.26-0.8-1.11-1.46-1.93-1.6
								c-0.1-0.02-0.2-0.02-0.3-0.02c-0.75,0-1.63,0.39-2.03,0.9v-6.32c0-0.87-0.51-1.72-1.35-1.98c-0.22-0.07-0.44-0.1-0.65-0.1
								c-1.1,0-2,0.9-2,2v16c-1.1,0-2-0.9-2-2v-1.81c0-0.38-0.31-0.69-0.69-0.69h-0.6c-1.49,0-2.7,1.21-2.7,2.7v4.94
								c0,0.86,0.37,1.69,1.02,2.26l2.69,2.36c0.55,0.48,1.25,0.74,1.98,0.74h11.07c0.8,0,1.56-0.32,2.12-0.88l2.24-2.24
								c0.56-0.56,0.88-1.33,0.88-2.12v-9.65C411.44,127.31,410.76,126.39,409.78,126.23z"/>
							<path class="st2" d="M403.41,112.89c-0.04-0.29-0.3-0.5-0.59-0.5h-1.22c-0.39-0.11-0.7-0.42-0.83-0.82
								c-0.23-0.72-0.53-1.41-0.9-2.05c-0.13-0.23-0.1-0.52,0.09-0.71l0.98-0.98c0.21-0.21,0.24-0.54,0.06-0.78
								c-0.75-1.01-1.64-1.9-2.65-2.66c-0.24-0.18-0.57-0.15-0.78,0.06l-0.98,0.98c-0.19,0.19-0.48,0.22-0.71,0.09
								c-0.78-0.44-1.61-0.79-2.49-1.03c-0.25-0.07-0.43-0.29-0.43-0.56v-1.4c0-0.29-0.21-0.55-0.5-0.59
								c-0.61-0.09-1.24-0.14-1.88-0.14c-0.64,0-1.27,0.05-1.88,0.14c-0.29,0.04-0.5,0.3-0.5,0.59v1.42c0,0.25-0.16,0.47-0.4,0.55
								c-0.64,0.21-1.9,0.65-2.55,1.03c-0.23,0.13-0.51,0.09-0.69-0.1l-0.98-0.98c-0.21-0.21-0.54-0.24-0.78-0.06
								c-1.01,0.75-1.9,1.65-2.65,2.66c-0.18,0.24-0.14,0.57,0.06,0.78l0.98,0.98c0.19,0.19,0.22,0.48,0.09,0.71
								c-0.37,0.64-0.67,1.33-0.9,2.05c-0.13,0.41-0.44,0.71-0.83,0.82h-1.22c-0.29,0-0.55,0.21-0.59,0.5
								c-0.09,0.62-0.15,1.26-0.15,1.91c0,0.65,0.05,1.29,0.15,1.91c0.04,0.29,0.3,0.5,0.59,0.5h1.22c0.39,0.11,0.7,0.42,0.83,0.82
								c0.23,0.72,0.53,1.41,0.9,2.05c0.13,0.23,0.1,0.52-0.09,0.71l-0.98,0.98c-0.21,0.21-0.24,0.54-0.06,0.78
								c0.75,1.01,1.64,1.9,2.65,2.66c0.24,0.18,0.57,0.15,0.78-0.06l0.98-0.98c0.19-0.19,0.48-0.22,0.71-0.09
								c0.78,0.44,1.61,0.79,2.49,1.03c0.25,0.07,0.43,0.29,0.43,0.56l0,1.4c0,0.29,0.21,0.55,0.5,0.59
								c0.61,0.09,1.24,0.14,1.88,0.14c0.64,0,1.27-0.05,1.88-0.14c0.29-0.04,0.5-0.3,0.5-0.59v-1.85c0,0,0,0,0,0l0,0v-6.51
								c0-0.06,0.02-0.12,0.02-0.18c-0.51,0.33-1.08,0.57-1.7,0.67c-3,0.46-5.55-2.09-5.09-5.09c0.29-1.87,1.82-3.4,3.69-3.69
								c2.81-0.43,5.22,1.77,5.14,4.52c0.72-0.47,1.56-0.73,2.45-0.73c0.47,0,0.95,0.07,1.41,0.22c1.34,0.43,2.36,1.47,2.82,2.79
								h1.15c0.29,0,0.55-0.21,0.59-0.5c0.09-0.62,0.15-1.26,0.15-1.91C403.56,114.15,403.5,113.51,403.41,112.89z"/>
						</g>
					</g>
				</g>
			</g>
		</g>
	</g>
	<g>
		<g>
			<path class="st2" d="M325.77,132.16c-1.3,0.17-2.66,0.27-4.07,0.27c-4.31,0-8.3-0.86-11.24-2.33c-0.34-0.17-0.73,0.06-0.73,0.44
				v2.54c0,0.02,0.01,0.04,0.01,0.07c0,0.03-0.01,0.06-0.01,0.09c0,3.18,5.39,5.76,12.03,5.76c1.41,0,2.76-0.12,4.02-0.34
				c0-0.06-0.02-0.11-0.02-0.16V132.16z M321.76,106c-6.65,0-12.03,2.58-12.03,5.76v5.84c0,0.16,0.07,0.31,0.2,0.4
				c2.46,1.86,6.92,3.05,11.78,3.05c4.92,0,9.48-1.25,11.91-3.15c0.12-0.1,0.19-0.24,0.19-0.4v-5.74
				C333.8,108.58,328.41,106,321.76,106z M321.76,114.24c-3.64,0-6.59-1.11-6.59-2.47c0-1.36,2.95-2.47,6.59-2.47
				c3.64,0,6.59,1.11,6.59,2.47C328.35,113.13,325.4,114.24,321.76,114.24z M310.46,121.23c-0.34-0.17-0.73,0.06-0.73,0.44v4.8
				c0,0.16,0.07,0.31,0.2,0.4c2.46,1.86,6.92,3.05,11.78,3.05c1.4,0,2.77-0.11,4.07-0.3v-0.12c0-1.48,1.08-2.72,2.5-2.96v-0.79
				c0-1.09,0.24-2.12,0.66-3.06c-2.18,0.55-4.63,0.87-7.22,0.87C317.39,123.56,313.4,122.7,310.46,121.23z"/>
			<path class="st2" d="M342.77,129h-2v-3.25c0-2.76-2.24-5-5-5s-5,2.24-5,5V129h-2c-0.28,0-0.5,0.22-0.5,0.5v9
				c0,0.28,0.22,0.5,0.5,0.5h14c0.28,0,0.5-0.22,0.5-0.5v-9C343.27,129.22,343.05,129,342.77,129z M338.27,129h-5v-3.25
				c0-1.38,1.12-2.5,2.5-2.5c1.38,0,2.5,1.12,2.5,2.5V129z"/>
		</g>
	</g>
	<g>
		<g>
			<path class="st2" d="M270.53,107.38h-29c-1.1,0-2,0.9-2,2v6c0,1.1,0.9,2,2,2h29c1.1,0,2-0.9,2-2v-6
				C272.53,108.27,271.64,107.38,270.53,107.38z M245.53,114.38c-1.1,0-2-0.9-2-2s0.9-2,2-2c1.1,0,2,0.9,2,2
				S246.64,114.38,245.53,114.38z M252.53,114.38c-1.1,0-2-0.9-2-2s0.9-2,2-2c1.1,0,2,0.9,2,2S253.64,114.38,252.53,114.38z
				 M268.03,113.63h-8c-0.69,0-1.25-0.56-1.25-1.25c0-0.69,0.56-1.25,1.25-1.25h8c0.69,0,1.25,0.56,1.25,1.25
				C269.28,113.07,268.72,113.63,268.03,113.63z M239.53,122.38v6c0,1.1,0.9,2,2,2h16.11c-0.07-0.49-0.11-0.99-0.11-1.47
				c0-0.54,0.04-1.1,0.13-1.65c0.15-1.01,0.83-1.84,1.73-2.22c-0.36-0.91-0.25-1.99,0.36-2.81c0.51-0.69,1.12-1.29,1.77-1.85h-19.99
				C240.43,120.38,239.53,121.27,239.53,122.38z M252.53,123.38c1.1,0,2,0.9,2,2s-0.9,2-2,2c-1.1,0-2-0.9-2-2
				S251.43,123.38,252.53,123.38z M245.53,123.38c1.1,0,2,0.9,2,2s-0.9,2-2,2c-1.1,0-2-0.9-2-2S244.43,123.38,245.53,123.38z"/>
			<path class="st2" d="M277.37,127.63c-0.03-0.19-0.2-0.33-0.4-0.33h-0.82c-0.26-0.08-0.47-0.28-0.56-0.55
				c-0.15-0.48-0.36-0.94-0.61-1.37c-0.09-0.16-0.07-0.35,0.06-0.48l0.66-0.66c0.14-0.14,0.16-0.36,0.04-0.52
				c-0.5-0.68-1.1-1.28-1.78-1.78c-0.07-0.05-0.15-0.08-0.23-0.08c-0.11,0-0.21,0.04-0.29,0.12l-0.66,0.66
				c-0.08,0.08-0.17,0.11-0.27,0.11c-0.07,0-0.14-0.02-0.2-0.05c-0.6-0.35-1.26-0.61-1.96-0.77c0,0,0,0,0,0v-1.24
				c0-0.2-0.14-0.37-0.34-0.4c-0.41-0.06-0.83-0.1-1.26-0.1c-0.43,0-0.85,0.04-1.26,0.1c-0.19,0.03-0.34,0.2-0.34,0.4v1.24l0,0
				c-0.7,0.16-1.36,0.42-1.96,0.77c-0.06,0.04-0.13,0.05-0.2,0.05c-0.1,0-0.2-0.04-0.27-0.11l-0.66-0.66
				c-0.08-0.08-0.18-0.12-0.29-0.12c-0.08,0-0.16,0.03-0.23,0.08c-0.67,0.5-1.27,1.1-1.78,1.78c-0.12,0.16-0.1,0.38,0.04,0.52
				l0.66,0.66c0.13,0.13,0.15,0.32,0.06,0.48c-0.25,0.43-0.45,0.89-0.61,1.37c-0.09,0.27-0.3,0.48-0.56,0.55h-0.82
				c-0.2,0-0.37,0.14-0.4,0.33c-0.06,0.42-0.1,0.84-0.1,1.28c0,0.44,0.04,0.86,0.1,1.28c0.03,0.19,0.2,0.33,0.4,0.33h0.82
				c0.26,0.08,0.47,0.28,0.56,0.55c0.15,0.48,0.36,0.94,0.61,1.37c0.09,0.16,0.07,0.35-0.06,0.48l-0.66,0.66
				c-0.14,0.14-0.16,0.36-0.04,0.52c0.5,0.68,1.1,1.28,1.78,1.78c0.07,0.05,0.15,0.08,0.23,0.08c0.11,0,0.21-0.04,0.29-0.12
				l0.66-0.66c0.08-0.08,0.17-0.11,0.27-0.11c0.07,0,0.14,0.02,0.2,0.05c0.6,0.35,1.26,0.61,1.96,0.77c0,0,0,0,0,0v1.24
				c0,0.2,0.14,0.37,0.34,0.4c0.41,0.06,0.83,0.1,1.26,0.1c0.43,0,0.85-0.03,1.26-0.1c0.19-0.03,0.34-0.2,0.34-0.4v-1.24
				c0,0,0,0,0,0c0.7-0.16,1.36-0.42,1.96-0.77c0.06-0.04,0.13-0.05,0.2-0.05c0.1,0,0.2,0.04,0.27,0.11l0.66,0.66
				c0.08,0.08,0.18,0.12,0.29,0.12c0.08,0,0.16-0.03,0.23-0.08c0.67-0.5,1.27-1.1,1.78-1.78c0.12-0.16,0.1-0.38-0.04-0.52
				l-0.66-0.66c-0.13-0.13-0.15-0.32-0.06-0.48c0.25-0.43,0.45-0.89,0.61-1.37c0.09-0.27,0.3-0.48,0.56-0.55h0.82
				c0.2,0,0.37-0.14,0.4-0.33c0.06-0.42,0.1-0.84,0.1-1.28C277.47,128.48,277.43,128.05,277.37,127.63z M271.12,129.29
				c-0.15,1.01-0.98,1.83-1.98,1.98c-0.13,0.02-0.25,0.03-0.38,0.03c-1.44,0-2.59-1.28-2.36-2.77c0.15-1.01,0.98-1.83,1.98-1.98
				c0.13-0.02,0.25-0.03,0.38-0.03C270.2,126.52,271.34,127.8,271.12,129.29z M257.25,133.38h-13.72c-0.83,0-1.5,0.67-1.5,1.5
				c0,0.83,0.67,1.5,1.5,1.5h13.72c0.83,0,1.5-0.67,1.5-1.5C258.75,134.05,258.08,133.38,257.25,133.38z"/>
		</g>
	</g>
	<g>
		<g>
			<path class="st2" d="M184.17,132.59l-4.7,2.69c-0.18,0.1-0.3,0.3-0.3,0.51v5.34c0,0.45,0.49,0.73,0.88,0.51l4.7-2.69
				c0.18-0.1,0.3-0.3,0.3-0.51v-5.34C185.05,132.65,184.56,132.37,184.17,132.59z M176.53,135.28l-4.7-2.69
				c-0.39-0.22-0.88,0.06-0.88,0.51v5.34c0,0.21,0.11,0.41,0.3,0.51l4.7,2.69c0.39,0.22,0.88-0.06,0.88-0.51v-5.34
				C176.82,135.58,176.71,135.38,176.53,135.28z M182.96,129.55l-4.67-2.67c-0.18-0.1-0.4-0.1-0.58,0l-4.67,2.67
				c-0.39,0.23-0.39,0.79,0,1.02l4.67,2.67c0.18,0.1,0.4,0.1,0.58,0l4.67-2.67C183.36,130.35,183.36,129.78,182.96,129.55z
				 M201.53,135.28l-4.7-2.69c-0.39-0.22-0.88,0.06-0.88,0.51v5.34c0,0.21,0.11,0.41,0.3,0.51l4.7,2.69
				c0.39,0.22,0.88-0.06,0.88-0.51v-5.34C201.82,135.58,201.71,135.38,201.53,135.28z M209.17,132.59l-4.7,2.69
				c-0.18,0.1-0.3,0.3-0.3,0.51v5.34c0,0.45,0.49,0.73,0.88,0.51l4.7-2.69c0.18-0.1,0.3-0.3,0.3-0.51v-5.34
				C210.05,132.65,209.56,132.37,209.17,132.59z M207.96,129.55l-4.67-2.67c-0.18-0.1-0.4-0.1-0.58,0l-4.67,2.67
				c-0.39,0.23-0.39,0.79,0,1.02l4.67,2.67c0.18,0.1,0.4,0.1,0.58,0l4.67-2.67C208.36,130.35,208.36,129.78,207.96,129.55z"/>
			<path class="st2" d="M195.04,128.31l-2.99-1.81v-2.79c0-0.69-0.56-1.25-1.25-1.25c-0.69,0-1.25,0.56-1.25,1.25v2.78l-2.93,1.77
				c-0.39,0.23-0.6,0.65-0.6,1.07c0,0.22,0.06,0.44,0.18,0.64c0.36,0.59,1.13,0.78,1.72,0.42l2.88-1.74l2.96,1.79
				c0.2,0.12,0.42,0.18,0.65,0.18c0.42,0,0.84-0.21,1.07-0.6C195.82,129.43,195.63,128.66,195.04,128.31z M199.45,110.72
				c-0.03-0.19-0.2-0.33-0.4-0.33h-0.82c-0.26-0.08-0.47-0.28-0.56-0.55c-0.15-0.48-0.36-0.94-0.61-1.37
				c-0.09-0.16-0.07-0.35,0.06-0.48l0.66-0.66c0.14-0.14,0.16-0.36,0.04-0.52c-0.5-0.68-1.1-1.27-1.78-1.78
				c-0.07-0.05-0.15-0.08-0.23-0.08c-0.11,0-0.21,0.04-0.29,0.12l-0.66,0.66c-0.08,0.08-0.17,0.11-0.27,0.11
				c-0.07,0-0.14-0.02-0.2-0.05c-0.6-0.35-1.26-0.61-1.96-0.77c0,0,0,0,0,0v-1.24c0-0.2-0.14-0.37-0.34-0.4
				c-0.41-0.06-0.83-0.1-1.26-0.1c-0.43,0-0.85,0.03-1.26,0.1c-0.19,0.03-0.34,0.2-0.34,0.4v1.24h0c-0.7,0.16-1.36,0.42-1.96,0.77
				c-0.06,0.04-0.13,0.05-0.2,0.05c-0.1,0-0.2-0.04-0.27-0.11l-0.66-0.66c-0.08-0.08-0.18-0.12-0.29-0.12
				c-0.08,0-0.16,0.03-0.23,0.08c-0.67,0.5-1.27,1.1-1.78,1.78c-0.12,0.16-0.1,0.38,0.04,0.52l0.66,0.66
				c0.13,0.13,0.15,0.32,0.06,0.48c-0.25,0.43-0.45,0.89-0.61,1.37c-0.09,0.27-0.3,0.48-0.56,0.55h-0.82c-0.2,0-0.37,0.14-0.4,0.33
				c-0.06,0.42-0.1,0.84-0.1,1.28c0,0.44,0.04,0.86,0.1,1.28c0.03,0.19,0.2,0.33,0.4,0.33h0.82c0.26,0.08,0.47,0.28,0.56,0.55
				c0.15,0.48,0.36,0.94,0.61,1.37c0.09,0.16,0.07,0.35-0.06,0.48l-0.66,0.66c-0.14,0.14-0.16,0.36-0.04,0.52
				c0.5,0.68,1.1,1.28,1.78,1.78c0.07,0.05,0.15,0.08,0.23,0.08c0.11,0,0.21-0.04,0.29-0.12l0.66-0.66
				c0.08-0.08,0.17-0.11,0.27-0.11c0.07,0,0.14,0.02,0.2,0.05c0.6,0.35,1.26,0.61,1.96,0.77c0,0,0,0,0,0v1.24
				c0,0.2,0.14,0.37,0.34,0.4c0.41,0.06,0.83,0.1,1.26,0.1c0.43,0,0.85-0.03,1.26-0.1c0.19-0.03,0.34-0.2,0.34-0.4v-1.24
				c0,0,0,0,0,0c0.7-0.16,1.36-0.42,1.96-0.77c0.06-0.04,0.13-0.05,0.2-0.05c0.1,0,0.2,0.04,0.27,0.11l0.66,0.66
				c0.08,0.08,0.18,0.12,0.29,0.12c0.08,0,0.16-0.03,0.23-0.08c0.67-0.5,1.27-1.1,1.78-1.78c0.12-0.16,0.1-0.38-0.04-0.52
				l-0.66-0.66c-0.13-0.13-0.15-0.32-0.06-0.48c0.25-0.43,0.45-0.89,0.61-1.37c0.09-0.27,0.3-0.48,0.56-0.55h0.82
				c0.2,0,0.37-0.14,0.4-0.33c0.06-0.42,0.1-0.84,0.1-1.28C199.54,111.56,199.51,111.13,199.45,110.72z M193.19,112.37
				c-0.15,1.01-0.98,1.83-1.98,1.98c-0.13,0.02-0.25,0.03-0.38,0.03c-1.44,0-2.59-1.28-2.36-2.77c0.15-1.01,0.98-1.83,1.98-1.98
				c0.13-0.02,0.25-0.03,0.38-0.03C192.28,109.6,193.42,110.89,193.19,112.37z"/>
		</g>
	</g>
	<g>
		<g>
			<path class="st2" d="M141.5,104.25h-38c-1.1,0-2,0.9-2,2v25c0,1.1,0.9,2,2,2h14.92l-0.75,4.5H114c-0.83,0-1.5,0.67-1.5,1.5
				s0.67,1.5,1.5,1.5h17c0.83,0,1.5-0.67,1.5-1.5s-0.67-1.5-1.5-1.5h-3.67l-0.75-4.5h14.92c1.1,0,2-0.9,2-2v-25
				C143.5,105.15,142.6,104.25,141.5,104.25z M122.5,131.75c-0.83,0-1.5-0.67-1.5-1.5c0-0.83,0.67-1.5,1.5-1.5s1.5,0.67,1.5,1.5
				C124,131.08,123.33,131.75,122.5,131.75z M139.5,126.25h-34v-18h34V126.25z"/>
			<path class="st2" d="M109.25,113.25h3.31c0.69,0,1.25-0.56,1.25-1.25c0-0.69-0.56-1.25-1.25-1.25h-3.31
				c-0.69,0-1.25,0.56-1.25,1.25C108,112.69,108.56,113.25,109.25,113.25z M117,113.25h8c0.69,0,1.25-0.56,1.25-1.25
				c0-0.69-0.56-1.25-1.25-1.25h-8c-0.69,0-1.25,0.56-1.25,1.25C115.75,112.69,116.31,113.25,117,113.25z M128,115.75h-8.81
				c-0.69,0-1.25,0.56-1.25,1.25c0,0.69,0.56,1.25,1.25,1.25H128c0.69,0,1.25-0.56,1.25-1.25
				C129.25,116.31,128.69,115.75,128,115.75z M135.75,115.75h-3.31c-0.69,0-1.25,0.56-1.25,1.25c0,0.69,0.56,1.25,1.25,1.25h3.31
				c0.69,0,1.25-0.56,1.25-1.25C137,116.31,136.44,115.75,135.75,115.75z M129.12,113.25h6.63c0.69,0,1.25-0.56,1.25-1.25
				c0-0.69-0.56-1.25-1.25-1.25h-6.63c-0.69,0-1.25,0.56-1.25,1.25C127.87,112.69,128.43,113.25,129.12,113.25z M136,120.75h-9
				c-0.69,0-1.25,0.56-1.25,1.25c0,0.69,0.56,1.25,1.25,1.25h9c0.69,0,1.25-0.56,1.25-1.25C137.25,121.31,136.69,120.75,136,120.75z
				 M122.62,120.75H117c-0.69,0-1.25,0.56-1.25,1.25c0,0.69,0.56,1.25,1.25,1.25h5.63c0.69,0,1.25-0.56,1.25-1.25
				C123.87,121.31,123.32,120.75,122.62,120.75z M116.25,117c0-0.69-0.56-1.25-1.25-1.25h-5.75c-0.69,0-1.25,0.56-1.25,1.25
				c0,0.69,0.56,1.25,1.25,1.25H115C115.69,118.25,116.25,117.69,116.25,117z M112.59,120.75h-3.34c-0.69,0-1.25,0.56-1.25,1.25
				c0,0.69,0.56,1.25,1.25,1.25h3.34c0.69,0,1.25-0.56,1.25-1.25C113.84,121.31,113.28,120.75,112.59,120.75z"/>
		</g>
	</g>
	<g>
		<g>
			<g>
				<path class="st2" d="M71.03,116.8l-4.76-4.36c-0.32-0.29-0.84-0.07-0.84,0.37v1.86h-3.62v-7.17c0-2.21-1.79-4-4-4h-16
					c-2.21,0-4,1.79-4,4v30c0,2.21,1.79,4,4,4h16c2.21,0,4-1.79,4-4v-7.8h-4v1.8c0,0.55-0.45,1-1,1h-14c-0.55,0-1-0.45-1-1v-21
					c0-0.55,0.45-1,1-1h14c0.55,0,1,0.45,1,1v4.17h-1.38c-1.1,0-2,0.9-2,2v3h11v1.86c0,0.44,0.52,0.66,0.84,0.37l4.76-4.36
					C71.24,117.34,71.24,117,71.03,116.8z M50.81,139h-2c-1.1,0-2-0.9-2-2l0,0c0-1.1,0.9-2,2-2h2c1.1,0,2,0.9,2,2l0,0
					C52.81,138.1,51.92,139,50.81,139z"/>
				<path class="st2" d="M48.81,116.5v-3c0-0.55-0.45-1-1-1h-3c-0.55,0-1,0.45-1,1v3c0,0.55,0.45,1,1,1h3
					C48.36,117.5,48.81,117.05,48.81,116.5z M52.15,122.17v-1.86c0-0.44-0.52-0.66-0.84-0.37l-4.76,4.36c-0.22,0.2-0.22,0.54,0,0.74
					l4.76,4.36c0.32,0.29,0.84,0.07,0.84-0.37v-1.86h8c1.1,0,2-0.9,2-2v-3H52.15z"/>
			</g>
		</g>
	</g>
</g>
<g id="title" class="st0">
	<g class="st3">
		<path class="st2" d="M31.77,46.17c0-0.68,0.44-1.12,1.12-1.12h4.99c4.19,0,6.17,1.93,6.17,6.06v4.15c0,4.12-1.98,6.06-6.17,6.06
			h-4.99c-0.68,0-1.12-0.44-1.12-1.12V46.17z M37.78,58.52c2.56,0,2.82-1.35,2.82-3.5v-3.66c0-2.12-0.26-3.52-2.82-3.52h-2.66v10.67
			H37.78z"/>
		<path class="st2" d="M49.29,47.61c0.4-1.54,1.54-2.87,3.5-2.87c1.91,0,3.08,1.37,3.47,2.87l3.29,12.47
			c0.16,0.63-0.19,1.24-0.91,1.24h-1.12c-0.68,0-1.14-0.47-1.3-1.12l-0.77-3.05h-5.31l-0.75,3.03c-0.19,0.75-0.58,1.14-1.26,1.14
			h-1.19c-0.72,0-1.05-0.63-0.88-1.26L49.29,47.61z M54.77,54.39l-1.58-6.38c-0.05-0.23-0.19-0.4-0.4-0.4c-0.23,0-0.35,0.16-0.4,0.4
			l-1.58,6.38H54.77z"/>
		<path class="st2" d="M63.67,47.85h-2.66c-0.68,0-1.12-0.44-1.12-1.12v-0.56c0-0.68,0.44-1.12,1.12-1.12h8.67
			c0.68,0,1.12,0.44,1.12,1.12v0.56c0,0.68-0.44,1.12-1.12,1.12h-2.66V60.2c0,0.68-0.44,1.12-1.12,1.12h-1.12
			c-0.68,0-1.12-0.44-1.12-1.12V47.85z"/>
		<path class="st2" d="M74.38,47.61c0.4-1.54,1.54-2.87,3.5-2.87c1.91,0,3.08,1.37,3.47,2.87l3.29,12.47
			c0.16,0.63-0.19,1.24-0.91,1.24h-1.12c-0.68,0-1.14-0.47-1.3-1.12l-0.77-3.05h-5.31l-0.75,3.03c-0.19,0.75-0.58,1.14-1.26,1.14
			h-1.19c-0.72,0-1.05-0.63-0.88-1.26L74.38,47.61z M79.86,54.39l-1.58-6.38c-0.05-0.23-0.19-0.4-0.4-0.4c-0.23,0-0.35,0.16-0.4,0.4
			l-1.58,6.38H79.86z"/>
		<path class="st2" d="M92.55,46.17c0-0.68,0.44-1.12,1.12-1.12h3.61c3.8,0,5.89,2.47,5.89,5.34c0,2.94-2.1,5.34-5.89,5.34h-1.38
			v4.47c0,0.68-0.44,1.12-1.12,1.12h-1.12c-0.68,0-1.12-0.44-1.12-1.12V46.17z M97.17,52.95c1.68,0,2.49-1.19,2.49-2.56
			c0-1.4-0.82-2.54-2.52-2.54h-1.23v5.1H97.17z"/>
		<path class="st2" d="M105.67,46.84c0-0.68,0.46-1.26,1.14-1.44c0.72-0.21,2.45-0.65,4.13-0.65c3.66,0,5.62,2.59,5.62,5.41
			c0,1.49-0.79,3.75-3.05,4.75l2.38,5.1c0.33,0.68-0.09,1.3-0.77,1.3h-1.38c-0.68,0-1.09-0.37-1.37-1l-2.14-4.92h-1.19v4.8
			c0,0.68-0.44,1.12-1.12,1.12h-1.12c-0.68,0-1.12-0.44-1.12-1.12V46.84z M110.68,52.74c1.56,0,2.35-1,2.35-2.59
			c0-1.44-0.61-2.61-2.12-2.61c-0.63,0-1.26,0.07-1.89,0.28v4.92H110.68z"/>
		<path class="st2" d="M118.6,51.69c0-4.01,2.4-6.94,6.55-6.94c4.15,0,6.55,2.94,6.55,6.94v2.98c0,4.01-2.4,6.94-6.55,6.94
			c-4.15,0-6.55-2.94-6.55-6.94V51.69z M128.25,54.42v-2.47c0-2.35-0.63-4.4-3.1-4.4c-2.45,0-3.1,2.05-3.1,4.4v2.47
			c0,2.38,0.65,4.4,3.1,4.4C127.62,58.82,128.25,56.79,128.25,54.42z"/>
		<path class="st2" d="M134.14,50.76c0-3.87,2.35-6.01,6.06-6.01c1.72,0,2.91,0.23,3.87,0.47c0.51,0.14,0.75,0.56,0.63,1.09
			l-0.21,0.96c-0.12,0.51-0.61,0.75-1.12,0.61c-0.63-0.14-1.49-0.33-2.7-0.33c-1.91,0-3.08,0.82-3.08,3.47v4.33
			c0,2.66,1.17,3.47,3.08,3.47c1.49,0,2.4-0.26,2.82-0.35c0.56-0.14,0.88,0.12,1,0.63l0.21,0.96c0.09,0.47-0.12,0.96-0.63,1.1
			c-0.54,0.14-1.93,0.47-3.87,0.47c-3.71,0-6.06-2.12-6.06-6.01V50.76z"/>
		<path class="st2" d="M147.3,49.52c0-2.7,1.72-4.47,5.15-4.47h3.38c0.68,0,1.12,0.44,1.12,1.12v0.56c0,0.68-0.44,1.12-1.12,1.12
			h-3.33c-1.4,0-1.84,0.63-1.84,1.93v1.82h4.47c0.68,0,1.12,0.44,1.12,1.12v0.54c0,0.68-0.44,1.12-1.12,1.12h-4.47v2.24
			c0,1.33,0.44,1.91,1.84,1.91h3.42c0.68,0,1.12,0.44,1.12,1.12v0.56c0,0.68-0.44,1.12-1.12,1.12h-3.47c-3.4,0-5.15-1.77-5.15-4.45
			V49.52z"/>
		<path class="st2" d="M159.16,59.61l0.14-0.61c0.16-0.72,0.68-0.91,1.3-0.72c0.44,0.12,1.68,0.54,3.15,0.54
			c1.58,0,2.24-0.84,2.24-1.96c0-3.17-6.73-1.98-6.73-7.55c0-2.89,2.42-4.57,5.62-4.57c1.49,0,2.52,0.33,3.1,0.51
			c0.63,0.21,0.98,0.72,0.75,1.42l-0.16,0.51c-0.21,0.63-0.75,0.91-1.42,0.7c-0.54-0.16-1.26-0.35-2.26-0.35
			c-1.4,0-2.1,0.7-2.1,1.77c0,2.73,6.73,2.03,6.73,7.55c0,2.87-2.33,4.75-5.76,4.75c-1.61,0-2.87-0.35-3.77-0.63
			C159.3,60.78,159,60.36,159.16,59.61z"/>
		<path class="st2" d="M171.39,59.61l0.14-0.61c0.16-0.72,0.68-0.91,1.3-0.72c0.44,0.12,1.68,0.54,3.15,0.54
			c1.59,0,2.24-0.84,2.24-1.96c0-3.17-6.73-1.98-6.73-7.55c0-2.89,2.42-4.57,5.62-4.57c1.49,0,2.52,0.33,3.1,0.51
			c0.63,0.21,0.98,0.72,0.75,1.42l-0.16,0.51c-0.21,0.63-0.75,0.91-1.42,0.7c-0.54-0.16-1.26-0.35-2.26-0.35
			c-1.4,0-2.1,0.7-2.1,1.77c0,2.73,6.73,2.03,6.73,7.55c0,2.87-2.33,4.75-5.75,4.75c-1.61,0-2.87-0.35-3.77-0.63
			C171.53,60.78,171.23,60.36,171.39,59.61z"/>
		<path class="st2" d="M184.37,46.17c0-0.68,0.44-1.12,1.12-1.12h1.12c0.68,0,1.12,0.44,1.12,1.12V60.2c0,0.68-0.44,1.12-1.12,1.12
			h-1.12c-0.68,0-1.12-0.44-1.12-1.12V46.17z"/>
		<path class="st2" d="M191.27,46.17c0-0.68,0.44-1.12,1.12-1.12h0.93c0.68,0,1.19,0.37,1.56,1.03l5.17,9.13
			c-0.14-1.17-0.21-2.33-0.21-3.22v-5.83c0-0.68,0.44-1.12,1.12-1.12h1.07c0.68,0,1.12,0.44,1.12,1.12V60.2
			c0,0.68-0.44,1.12-1.12,1.12h-0.93c-0.68,0-1.21-0.37-1.58-1.03l-5.15-9.09c0.12,1.17,0.21,2.31,0.21,3.17v5.82
			c0,0.68-0.44,1.12-1.12,1.12h-1.07c-0.68,0-1.12-0.44-1.12-1.12V46.17z"/>
		<path class="st2" d="M206.15,50.76c0-3.87,2.35-6.01,6.06-6.01c1.63,0,2.7,0.19,3.59,0.4c0.79,0.21,1.02,0.63,0.86,1.35
			l-0.12,0.56c-0.14,0.63-0.7,0.93-1.35,0.77c-0.61-0.12-1.28-0.28-2.52-0.28c-1.91,0-3.08,0.82-3.08,3.47v4.33
			c0,2.66,1.17,3.47,3.08,3.47c1.03,0,1.63-0.14,2.33-0.33v-4.31c0-0.68,0.35-1.14,1.03-1.19l1.23-0.09c0.68-0.05,1,0.37,1,1.05
			v5.55c0,0.68-0.51,1.26-1.14,1.42c-1.03,0.26-2.77,0.7-4.92,0.7c-3.7,0-6.06-2.12-6.06-6.01V50.76z"/>
		<path class="st4" d="M226.77,45.71c0-0.7,0.46-1.15,1.15-1.15h1.15c0.7,0,1.15,0.46,1.15,1.15v14.45c0,0.7-0.46,1.15-1.15,1.15
			h-1.15c-0.7,0-1.15-0.46-1.15-1.15V45.71z"/>
		<path class="st4" d="M233.32,50.44c0-3.98,2.42-6.19,6.24-6.19c1.78,0,3,0.24,3.98,0.48c0.53,0.14,0.77,0.58,0.65,1.13l-0.22,0.98
			c-0.12,0.53-0.62,0.77-1.15,0.62c-0.65-0.14-1.54-0.34-2.78-0.34c-1.97,0-3.17,0.84-3.17,3.58v4.46c0,2.74,1.2,3.58,3.17,3.58
			c1.54,0,2.47-0.26,2.9-0.36c0.58-0.14,0.91,0.12,1.03,0.65l0.22,0.98c0.1,0.48-0.12,0.98-0.65,1.13
			c-0.55,0.14-1.99,0.48-3.98,0.48c-3.82,0-6.24-2.18-6.24-6.19V50.44z"/>
		<path class="st4" d="M246.76,51.4c0-4.13,2.47-7.15,6.74-7.15c4.27,0,6.75,3.02,6.75,7.15v3.07c0,4.13-2.47,7.15-6.75,7.15
			c-4.27,0-6.74-3.02-6.74-7.15V51.4z M256.7,54.21v-2.54c0-2.42-0.65-4.54-3.19-4.54c-2.52,0-3.19,2.11-3.19,4.54v2.54
			c0,2.45,0.67,4.54,3.19,4.54C256.05,58.75,256.7,56.66,256.7,54.21z"/>
		<path class="st4" d="M263.32,45.71c0-0.7,0.46-1.15,1.15-1.15h0.96c0.7,0,1.22,0.38,1.61,1.06l5.33,9.41
			c-0.14-1.2-0.22-2.4-0.22-3.31v-6c0-0.7,0.46-1.15,1.15-1.15h1.1c0.7,0,1.15,0.46,1.15,1.15v14.45c0,0.7-0.46,1.15-1.15,1.15
			h-0.96c-0.7,0-1.25-0.38-1.63-1.06l-5.3-9.36c0.12,1.2,0.22,2.38,0.22,3.26v6c0,0.7-0.46,1.15-1.15,1.15h-1.11
			c-0.7,0-1.15-0.46-1.15-1.15V45.71z"/>
		<path class="st4" d="M278.44,59.56l0.14-0.62c0.17-0.74,0.7-0.94,1.34-0.74c0.46,0.12,1.73,0.55,3.24,0.55
			c1.63,0,2.3-0.86,2.3-2.02c0-3.26-6.94-2.04-6.94-7.78c0-2.98,2.5-4.7,5.78-4.7c1.54,0,2.59,0.34,3.19,0.53
			c0.65,0.22,1.01,0.74,0.77,1.46l-0.17,0.53c-0.22,0.65-0.77,0.94-1.46,0.72c-0.55-0.17-1.3-0.36-2.33-0.36
			c-1.44,0-2.16,0.72-2.16,1.82c0,2.81,6.94,2.09,6.94,7.78c0,2.95-2.4,4.9-5.93,4.9c-1.66,0-2.95-0.36-3.89-0.65
			C278.58,60.76,278.27,60.33,278.44,59.56z"/>
	</g>
</g>
</svg>
