<?xml version="1.0" encoding="utf-8"?>
<!-- Generator: Adobe Illustrator 24.1.1, SVG Export Plug-In . SVG Version: 6.00 Build 0)  -->
<svg version="1.1" xmlns="http://www.w3.org/2000/svg" x="0px" y="0px"
     viewBox="0 0 448 448" style="enable-background:new 0 0 448 448;" xml:space="preserve">
<style type="text/css">
	.st0{display:none;}
	.st1{display:inline;fill:#FFFFFF;}
	.st2{fill:#173042;}
	.st3{display:inline;}
	.st4{fill:#869093;}
</style>
<g id="grid" class="st0">
	<rect x="30" y="98" class="st1" width="48" height="48"/>
	<rect x="98" y="98" class="st1" width="48" height="48"/>
	<rect x="166" y="98" class="st1" width="48" height="48"/>
	<rect x="234" y="98" class="st1" width="48" height="48"/>
	<rect x="302" y="98" class="st1" width="48" height="48"/>
	<rect x="370" y="98" class="st1" width="48" height="48"/>
	<rect x="30" y="166" class="st1" width="48" height="48"/>
	<rect x="98" y="166" class="st1" width="48" height="48"/>
	<rect x="166" y="166" class="st1" width="48" height="48"/>
	<rect x="234" y="166" class="st1" width="48" height="48"/>
	<rect x="302" y="166" class="st1" width="48" height="48"/>
	<rect x="370" y="166" class="st1" width="48" height="48"/>
	<rect x="30" y="234" class="st1" width="48" height="48"/>
	<rect x="98" y="234" class="st1" width="48" height="48"/>
	<rect x="370" y="234" class="st1" width="48" height="48"/>
	<rect x="30" y="302" class="st1" width="48" height="48"/>
	<rect x="98" y="302" class="st1" width="48" height="48"/>
	<rect x="166" y="234" class="st1" width="48" height="48"/>
	<rect x="234" y="234" class="st1" width="48" height="48"/>
	<rect x="302" y="234" class="st1" width="48" height="48"/>
	<rect x="166" y="302" class="st1" width="48" height="48"/>
	<rect x="234" y="302" class="st1" width="48" height="48"/>
	<rect x="302" y="302" class="st1" width="48" height="48"/>
	<rect x="370" y="302" class="st1" width="48" height="48"/>
	<rect x="30" y="370" class="st1" width="48" height="48"/>
	<rect x="98" y="370" class="st1" width="48" height="48"/>
	<rect x="166" y="370" class="st1" width="48" height="48"/>
	<rect x="234" y="370" class="st1" width="48" height="48"/>
	<rect x="302" y="370" class="st1" width="48" height="48"/>
	<rect x="370" y="370" class="st1" width="48" height="48"/>
</g>
<g id="icons">
	<g>
		<g>
			<g>
				<path class="st2" d="M394.5,392.5c-3.59,0-6.5,2.91-6.5,6.5s2.91,6.5,6.5,6.5c3.59,0,6.5-2.91,6.5-6.5S398.09,392.5,394.5,392.5
					z M394.5,402c-1.66,0-3-1.34-3-3s1.34-3,3-3s3,1.34,3,3S396.16,402,394.5,402z"/>
				<path class="st2" d="M404,376h-19c-2.21,0-4,1.79-4,4v29c0,2.21,1.79,4,4,4h19c2.21,0,4-1.79,4-4v-29
					C408,377.79,406.21,376,404,376z M388,380c1.66,0,3,1.34,3,3s-1.34,3-3,3s-3-1.34-3-3S386.34,380,388,380z M394.5,408.5
					c-5.24,0-9.5-4.26-9.5-9.5s4.26-9.5,9.5-9.5c5.24,0,9.5,4.26,9.5,9.5S399.74,408.5,394.5,408.5z"/>
			</g>
		</g>
	</g>
	<g>
		<g>
			<g>
				<path class="st2" d="M342.32,397.48l-7.59-21.57c-0.14-0.4-0.52-0.67-0.94-0.67H319.2c-0.42,0-0.8,0.27-0.94,0.67l-7.58,21.57
					c-0.12,0.34-0.05,0.72,0.19,0.99c0.56,0.66,1.77,1.75,3.63,1.75c1.54,0,2.64-0.75,3.29-1.38c0.4-0.39,1.02-0.39,1.42,0
					c0.65,0.63,1.75,1.38,3.29,1.38c1.54,0,2.64-0.75,3.29-1.38c0.4-0.39,1.02-0.39,1.42,0c0.65,0.63,1.75,1.38,3.29,1.38
					c1.54,0,2.64-0.75,3.29-1.38c0.4-0.39,1.02-0.39,1.42,0c0.65,0.63,1.75,1.38,3.29,1.38c1.86,0,3.07-1.09,3.63-1.75
					C342.36,398.2,342.44,397.83,342.32,397.48z M330.92,410.75h-2.93v-7.5c0-0.83-0.67-1.5-1.5-1.5c-0.83,0-1.5,0.67-1.5,1.5v7.5
					h-2.92c-1.42,0-2.57,1.15-2.57,2.57c0,0.24,0.19,0.43,0.43,0.43h13.14c0.24,0,0.43-0.19,0.43-0.43
					C333.49,411.9,332.34,410.75,330.92,410.75z"/>
				<path class="st2" d="M334.5,401.75c-0.83,0-1.5,0.67-1.5,1.5v1.5c0,0.83,0.67,1.5,1.5,1.5c0.83,0,1.5-0.67,1.5-1.5v-1.5
					C336,402.42,335.33,401.75,334.5,401.75z"/>
			</g>
		</g>
	</g>
	<g>
		<g>
			<path class="st2" d="M276.13,382.63h-1.25v-3.37c0-0.83-0.67-1.5-1.5-1.5s-1.5,0.67-1.5,1.5v3.37h-4v-3.37
				c0-0.83-0.67-1.5-1.5-1.5s-1.5,0.67-1.5,1.5v3.37h-1.75c-0.55,0-1,0.45-1,1v3c0,0.55,0.45,1,1,1v3c0,2.21,1.79,4,4,4h5
				c2.21,0,4-1.79,4-4v-3c0.55,0,1-0.45,1-1v-3C277.13,383.07,276.68,382.63,276.13,382.63z"/>
			<path class="st2" d="M268.13,397.13v9c0,1.1-0.9,2-2,2s-2-0.9-2-2v-2.5c0-1.93-1.57-3.5-3.5-3.5h-3.75v-20.38c0-1.1-0.9-2-2-2
				h-13c-1.1,0-2,0.9-2,2v29.5c0,1.1,0.9,2,2,2h13c1.1,0,2-0.9,2-2v-6.12h3.75c0.28,0,0.5,0.22,0.5,0.5v2.5c0,2.76,2.24,5,5,5
				s5-2.24,5-5v-9H268.13z M248.38,381.75c2.61,0,4.79,1.82,5.35,4.25h-1.35c-0.69,0-1.25,0.56-1.25,1.25
				c0,0.69,0.56,1.25,1.25,1.25h1.35c-0.57,2.43-2.74,4.25-5.35,4.25c-2.63,0-4.83-1.85-5.37-4.32c0.12,0.04,0.24,0.07,0.37,0.07h1
				c0.69,0,1.25-0.56,1.25-1.25c0-0.69-0.56-1.25-1.25-1.25h-1c-0.13,0-0.25,0.04-0.37,0.07
				C243.54,383.6,245.74,381.75,248.38,381.75z M252.38,402.5h1c0.13,0,0.25-0.04,0.37-0.07c-0.54,2.47-2.74,4.32-5.37,4.32
				s-4.83-1.85-5.37-4.32c0.12,0.04,0.24,0.07,0.37,0.07h1c0.69,0,1.25-0.56,1.25-1.25c0-0.69-0.56-1.25-1.25-1.25h-1
				c-0.13,0-0.25,0.04-0.37,0.07c0.54-2.47,2.74-4.33,5.37-4.33s4.83,1.85,5.37,4.33c-0.12-0.04-0.24-0.07-0.37-0.07h-1
				c-0.69,0-1.25,0.56-1.25,1.25C251.13,401.94,251.68,402.5,252.38,402.5z"/>
		</g>
	</g>
	<g>
		<g>
			<path class="st2" d="M190,377.5c-8.64,0-15.65,6.91-15.86,15.5h2.46c0.07-2.28,0.75-4.54,2.06-6.52c0.3-0.46,0.93-0.59,1.39-0.28
				c0.46,0.3,0.59,0.92,0.28,1.39c-1.08,1.64-1.65,3.52-1.72,5.42h1.88c0.06-1.45,0.48-2.89,1.27-4.17
				c0.29-0.47,0.91-0.61,1.38-0.32c0.47,0.29,0.61,0.91,0.32,1.38c-0.6,0.95-0.91,2.02-0.97,3.11h5.17c0.18-1.13,1.15-2,2.34-2
				c1.18,0,2.16,0.87,2.34,2h13.52C205.65,384.41,198.64,377.5,190,377.5z"/>
			<path class="st2" d="M207.5,395.5h-34c-2.21,0-4,1.79-4,4v8c0,2.21,1.79,4,4,4h34c2.21,0,4-1.79,4-4v-8
				C211.5,397.29,209.71,395.5,207.5,395.5z M176.5,405.5c-1.1,0-2-0.9-2-2s0.9-2,2-2s2,0.9,2,2S177.6,405.5,176.5,405.5z
				 M199.5,405H184c-0.83,0-1.5-0.67-1.5-1.5c0-0.83,0.67-1.5,1.5-1.5h15.5c0.83,0,1.5,0.67,1.5,1.5
				C201,404.33,200.33,405,199.5,405z"/>
		</g>
	</g>
	<g>
		<g>
			<g>
				<g>
					<path class="st2" d="M135,389.5h-25c-0.28,0-0.5,0.22-0.5,0.5v23c0,1.1,0.9,2,2,2h22c1.1,0,2-0.9,2-2v-23
						C135.5,389.72,135.28,389.5,135,389.5z M115.5,398.5c0,0.83-0.67,1.5-1.5,1.5s-1.5-0.67-1.5-1.5v-4c0-0.83,0.67-1.5,1.5-1.5
						s1.5,0.67,1.5,1.5V398.5z"/>
					<path class="st2" d="M133.5,374h-22c-1.1,0-2,0.9-2,2v10.5c0,0.28,0.22,0.5,0.5,0.5h25c0.28,0,0.5-0.22,0.5-0.5V376
						C135.5,374.9,134.6,374,133.5,374z M115.5,382.5c0,0.83-0.67,1.5-1.5,1.5s-1.5-0.67-1.5-1.5v-4c0-0.83,0.67-1.5,1.5-1.5
						s1.5,0.67,1.5,1.5V382.5z"/>
				</g>
			</g>
		</g>
	</g>
	<g>
		<g>
			<path class="st2" d="M48.06,394.55h3.66c4.6-0.22,11.23-2.01,15.58-4.59v-10.72c-4.99-2.84-13.47-4.75-21.52-4.82
				c-5.67-0.05-10.54,4.45-10.58,10.11c-0.01,1.84,0.46,3.56,1.3,5.05c1.62,2.89,2.3,6.2,2.3,9.51v5.59c0,1.36,0.54,1.89,1.21,1.89
				h0.79v6.5c0,0.83,0.67,1.5,1.5,1.5c0.83,0,1.5-0.67,1.5-1.5v-6.5h8.23c0.78,0,1.26-0.85,0.86-1.51l-1.95-3.25
				c-0.09-0.16-0.14-0.33-0.14-0.51v-4.25h-2.74c-0.69,0-1.25-0.56-1.25-1.25C46.81,395.11,47.37,394.55,48.06,394.55z M44.3,386.58
				c-1.93,0-3.5-1.57-3.5-3.5c0-1.93,1.57-3.5,3.5-3.5c1.93,0,3.5,1.57,3.5,3.5C47.8,385.01,46.23,386.58,44.3,386.58z"/>
			<path class="st2" d="M72.3,379.58h-2.5v10h2.5c0.83,0,1.5-0.67,1.5-1.5v-7C73.8,380.25,73.13,379.58,72.3,379.58z"/>
		</g>
	</g>
	<g>
		<g>
			<path class="st2" d="M390.81,306.12c-5.94,0-10.37,3.42-9.98,5.78c0.14,0.84,0.79,1.45,1.81,1.9c0.71,0.32,1.17,1.03,1.17,1.81
				v3.95h14v-3.95c0-0.78,0.45-1.5,1.17-1.81c1.01-0.45,1.67-1.06,1.81-1.9C401.18,309.54,396.75,306.12,390.81,306.12z
				 M413.81,326.86c-0.65,0-1.23,0.4-1.59,1h-0.91c-0.83,0-1.5,0.67-1.5,1.5c0,0.83,0.67,1.5,1.5,1.5h0.91c0.37,0.6,0.94,1,1.59,1
				c1.1,0,2-1.12,2-2.5C415.81,327.98,414.91,326.86,413.81,326.86z"/>
			<path class="st2" d="M404.81,343.88h-28c-0.83,0-1.5,0.67-1.5,1.5c0,0.83,0.67,1.5,1.5,1.5h28c0.83,0,1.5-0.67,1.5-1.5
				C406.31,344.55,405.64,343.88,404.81,343.88z M400.41,315.88c-0.03,0.02-0.06,0.04-0.1,0.05v3.68h0.5c0.69,0,1.25,0.56,1.25,1.25
				c0,0.69-0.56,1.25-1.25,1.25h-20c-0.69,0-1.25-0.56-1.25-1.25c0-0.69,0.56-1.25,1.25-1.25h0.5v-3.68
				c-0.04-0.02-0.06-0.04-0.1-0.05c-4.49,0.17-8.02,1.97-8.02,6.55v18.15c0,0.3,0.25,0.55,0.55,0.55h34.14
				c0.3,0,0.55-0.25,0.55-0.55v-18.15C408.43,317.84,404.9,316.05,400.41,315.88z M379.31,337.38c-0.83,0-1.5-0.67-1.5-1.5
				s0.67-1.5,1.5-1.5c0.83,0,1.5,0.67,1.5,1.5S380.14,337.38,379.31,337.38z M385.31,337.38c-0.83,0-1.5-0.67-1.5-1.5
				s0.67-1.5,1.5-1.5c0.83,0,1.5,0.67,1.5,1.5S386.14,337.38,385.31,337.38z"/>
		</g>
	</g>
	<g>
		<g>
			<path class="st2" d="M342.5,315.73h-17.97l18.4-5.52c0.79-0.24,1.24-1.07,1.01-1.87c-0.24-0.79-1.07-1.24-1.87-1.01l-27.98,8.39
				h-3.59c-2.21,0-4,1.79-4,4v22c0,2.21,1.79,4,4,4h32c2.21,0,4-1.79,4-4v-22C346.5,317.52,344.71,315.73,342.5,315.73z
				 M318.45,342.99c-3.62,0-6.56-3.01-6.56-6.71c0-3.7,2.94-6.71,6.56-6.71c3.62,0,6.56,3.01,6.56,6.71
				C325.01,339.97,322.06,342.99,318.45,342.99z M339.5,340.5h-8c-0.83,0-1.5-0.67-1.5-1.5s0.67-1.5,1.5-1.5h8
				c0.83,0,1.5,0.67,1.5,1.5S340.33,340.5,339.5,340.5z M339.5,334.5h-8c-0.83,0-1.5-0.67-1.5-1.5s0.67-1.5,1.5-1.5h8
				c0.83,0,1.5,0.67,1.5,1.5S340.33,334.5,339.5,334.5z M343,324.27c0,0.55-0.45,1-1,1h-31c-0.55,0-1-0.45-1-1v-3c0-0.55,0.45-1,1-1
				h31c0.55,0,1,0.45,1,1V324.27z"/>
			<path class="st2" d="M318.45,332.06c-2.24,0-4.06,1.89-4.06,4.21c0,2.32,1.82,4.21,4.06,4.21s4.06-1.89,4.06-4.21
				C322.51,333.95,320.68,332.06,318.45,332.06z"/>
		</g>
	</g>
	<g>
		<g>
			<path class="st2" d="M263.87,308.28c-0.68-0.48-1.61-0.32-2.09,0.36l-4.34,6.11l-3.26-4.17c-0.51-0.65-1.45-0.77-2.11-0.26
				c-0.65,0.51-0.77,1.45-0.26,2.11l4.5,5.75c0.28,0.36,0.72,0.58,1.18,0.58h0.04c0.47-0.01,0.91-0.25,1.19-0.63l5.5-7.75
				C264.7,309.69,264.54,308.76,263.87,308.28z"/>
			<path class="st2" d="M275.5,316h-34c-2.21,0-4,1.79-4,4v21c0,2.21,1.79,4,4,4h34c2.21,0,4-1.79,4-4v-21
				C279.5,317.79,277.71,316,275.5,316z M266.5,337c0,2.21-1.79,4-4,4h-17c-2.21,0-4-1.79-4-4v-13c0-2.21,1.79-4,4-4h17
				c2.21,0,4,1.79,4,4V337z M272.5,337.3c-1.27,0-2.3-1.03-2.3-2.3s1.03-2.3,2.3-2.3s2.3,1.03,2.3,2.3S273.77,337.3,272.5,337.3z
				 M272.5,328.3c-1.27,0-2.3-1.03-2.3-2.3s1.03-2.3,2.3-2.3s2.3,1.03,2.3,2.3S273.77,328.3,272.5,328.3z"/>
		</g>
	</g>
	<g>
		<g>
			<g>
				<g>
					<g>
						<path class="st2" d="M190,320h11c0.69,0,1.25-0.56,1.25-1.25s-0.56-1.25-1.25-1.25h-11c-0.69,0-1.25,0.56-1.25,1.25
							S189.31,320,190,320z M180,330h21c0.69,0,1.25-0.56,1.25-1.25s-0.56-1.25-1.25-1.25h-21c-0.69,0-1.25,0.56-1.25,1.25
							S179.31,330,180,330z M211.68,335.63h0.02l-2.2-0.75V312.5c0-1.1-0.9-2-2-2h-34c-1.1,0-2,0.9-2,2v22.37l-2.2,0.75h0.02
							c-0.77,0.28-1.32,1.01-1.32,1.87v3c0,1.1,0.9,2,2,2h41c1.1,0,2-0.9,2-2v-3C213,336.64,212.45,335.91,211.68,335.63z
							 M193,339.44h-5c-0.83,0-1.5-0.67-1.5-1.5c0-0.83,0.67-1.5,1.5-1.5h5c0.83,0,1.5,0.67,1.5,1.5
							C194.5,338.77,193.83,339.44,193,339.44z M205.5,333.5h-30v-19h30V333.5z M190,325h11c0.69,0,1.25-0.56,1.25-1.25
							s-0.56-1.25-1.25-1.25h-11c-0.69,0-1.25,0.56-1.25,1.25S189.31,325,190,325z"/>
						<path class="st2" d="M184.5,317.25h-4c-0.55,0-1,0.45-1,1v5c0,0.55,0.45,1,1,1h4c0.55,0,1-0.45,1-1v-5
							C185.5,317.69,185.05,317.25,184.5,317.25z"/>
					</g>
				</g>
			</g>
		</g>
	</g>
	<g>
		<g>
			<g>
				<path class="st2" d="M142.5,309.5h-13c-0.55,0-1,0.45-1,1v8h15v-8C143.5,309.95,143.05,309.5,142.5,309.5z"/>
				<path class="st2" d="M128.5,321.5v21.04c0,0.53,0.45,0.96,1,0.96h13c0.55,0,1-0.43,1-0.96V321.5H128.5z M136,338.5
					c-1.1,0-2-0.9-2-2c0-1.1,0.9-2,2-2s2,0.9,2,2C138,337.6,137.1,338.5,136,338.5z M126,313.5v-3c0-0.35,0.07-0.68,0.16-1H103.5
					c-1.1,0-2,0.9-2,2v23c0,1.1,0.9,2,2,2h10.83l-0.67,4H110c-0.83,0-1.5,0.67-1.5,1.5c0,0.83,0.67,1.5,1.5,1.5h16.15
					c-0.09-0.31-0.15-0.62-0.15-0.96v-2.04h-2.67l-0.67-4H126v-4h-20.5v-19H126z"/>
			</g>
		</g>
	</g>
	<g>
		<g>
			<path class="st2" d="M68.5,308h-28c-1.1,0-2,0.9-2,2v6.5c0,0.28,0.22,0.5,0.5,0.5h31c0.28,0,0.5-0.22,0.5-0.5V310
				C70.5,308.9,69.6,308,68.5,308z M46.5,314.5c-1.1,0-2-0.9-2-2c0-1.1,0.9-2,2-2s2,0.9,2,2C48.5,313.6,47.6,314.5,46.5,314.5z
				 M64,314h-7c-0.83,0-1.5-0.67-1.5-1.5s0.67-1.5,1.5-1.5h7c0.83,0,1.5,0.67,1.5,1.5S64.83,314,64,314z M70,319H39
				c-0.28,0-0.5,0.22-0.5,0.5V343c0,1.1,0.9,2,2,2h28c1.1,0,2-0.9,2-2v-23.5C70.5,319.22,70.28,319,70,319z M54.5,340.5
				c-4.69,0-8.5-3.81-8.5-8.5c0-4.69,3.81-8.5,8.5-8.5c4.69,0,8.5,3.81,8.5,8.5C63,336.69,59.19,340.5,54.5,340.5z"/>
			<path class="st2" d="M57.5,332c0-1.66,0.9-3,2-3c0.07,0,0.14,0.02,0.21,0.03c-1.03-1.81-2.98-3.03-5.21-3.03c-3.31,0-6,2.69-6,6
				s2.69,6,6,6c2.23,0,4.18-1.22,5.21-3.03c-0.07,0.01-0.14,0.03-0.21,0.03C58.4,335,57.5,333.66,57.5,332z"/>
		</g>
	</g>
	<g>
		<g>
			<path class="st2" d="M399.97,241.54c-1.45-4.3-9.13-3.97-10.48-3.51c-1.35,0.45-0.52,6.54,0.93,10.84c0.33,0.99,0.67,1.79,1,2.44
				c0.38-0.31,0.81-0.56,1.29-0.72c0.43-0.15,0.88-0.22,1.34-0.22c1.06,0,2.05,0.41,2.8,1.08
				C398.77,248.85,400.97,244.49,399.97,241.54z M390.09,255.89c-0.24-0.7-0.26-1.43-0.13-2.13c-3.22-0.23-7.82,0.19-9.79,2.43
				c-3,3.4,1.22,9.69,2.28,10.63c1.07,0.94,5.92-2.82,8.92-6.22c0.66-0.75,1.17-1.42,1.56-2.02
				C391.62,258.21,390.54,257.23,390.09,255.89z M400.03,253.94c-0.68,0-1.28,0.02-1.82,0.07c0.25,1.94-0.89,3.86-2.82,4.51
				c-0.11,0.04-0.22,0.05-0.32,0.08c1.62,2.69,5.16,6.73,8.51,6.74c4.54,0.02,7-7.37,7.01-8.79
				C410.59,255.13,404.57,253.96,400.03,253.94z"/>
			<path class="st2" d="M387.23,241.92c-0.47-0.68-1.4-0.86-2.08-0.39c-3.66,2.5-6.1,6.46-6.72,10.86
				c-0.11,0.82,0.46,1.58,1.28,1.69c0.07,0.01,0.14,0.01,0.21,0.01c0.74,0,1.38-0.54,1.48-1.29c0.5-3.57,2.48-6.77,5.44-8.79
				C387.52,243.54,387.7,242.6,387.23,241.92z M394.6,256.15c0.88-0.3,1.36-1.26,1.06-2.14c-0.3-0.88-1.26-1.36-2.14-1.06
				c-0.88,0.3-1.36,1.26-1.06,2.14C392.75,255.98,393.71,256.45,394.6,256.15z M401.66,276.23h-2.37l-0.78-6.54
				c0.2-0.06,0.39-0.11,0.59-0.17c0.52-0.18,1.05-0.39,1.61-0.65c0.75-0.35,1.08-1.24,0.73-1.99c-0.35-0.75-1.24-1.08-1.99-0.73
				c-0.46,0.21-0.89,0.39-1.31,0.53c-3.05,1.03-6.36,0.86-9.31-0.47c-0.76-0.34-1.64,0-1.98,0.75c-0.34,0.76,0,1.64,0.75,1.98
				c0.87,0.39,1.78,0.68,2.69,0.91l-0.76,6.37h-2.37c-0.83,0-1.5,0.67-1.5,1.5c0,0.83,0.67,1.5,1.5,1.5h14.5
				c0.83,0,1.5-0.67,1.5-1.5C403.16,276.9,402.48,276.23,401.66,276.23z M409.56,251.61c-0.15-0.8-0.32-1.47-0.53-2.09
				c-0.93-2.75-2.61-5.2-4.86-7.08c-0.64-0.53-1.58-0.44-2.11,0.19c-0.53,0.64-0.44,1.58,0.19,2.11c1.83,1.52,3.19,3.5,3.94,5.73
				c0.17,0.5,0.3,1.04,0.43,1.7c0.14,0.72,0.77,1.22,1.47,1.22c0.09,0,0.19-0.01,0.28-0.03
				C409.18,253.21,409.71,252.42,409.56,251.61z"/>
		</g>
	</g>
	<g>
		<g>
			<path class="st2" d="M335.79,236.12h-12.91c-1.1,0-2,0.9-2,2v0.57c0,0.28,0.22,0.5,0.5,0.5h15.91c0.28,0,0.5-0.22,0.5-0.5v-0.57
				C337.79,237.02,336.9,236.12,335.79,236.12z"/>
			<path class="st2" d="M335.37,269.56l-0.69-1.03c-0.08-0.19-0.26-0.31-0.46-0.31h-9.76c-0.2,0-0.38,0.12-0.46,0.31l-0.69,1.03
				c-1.84,2.74-2.95,5.94-2.97,9.24c0,0.01,0,0.55,0,1.07c0,0.55,0.45,1,1,1h16c0.55,0,1-0.45,1-1c0-0.52,0-1.06,0-1.07
				C338.32,275.5,337.21,272.3,335.37,269.56z M329.33,276.22c-1.1,0-2-0.9-2-2c0-1.1,0.9-2,2-2s2,0.9,2,2
				C331.33,275.33,330.44,276.22,329.33,276.22z M337.33,241.72h-16c-0.42,0-0.81,0.13-1.13,0.35l-4.42,1.89
				c-1.29,0.55-2.13,1.82-2.13,3.22v6.16c0,1.3,0.71,2.49,1.87,3.1l5.58,2.95c0.74,2.28,1.69,4.41,2.86,6.12
				c0.09,0.14,0.25,0.22,0.41,0.22h9.89c0.17,0,0.32-0.08,0.41-0.22c3.02-4.42,4.64-11.65,4.64-17v-4.78
				C339.33,242.62,338.44,241.72,337.33,241.72z M316.7,254.22c-0.33-0.17-0.53-0.51-0.53-0.89v-6.16c0-0.4,0.24-0.76,0.61-0.92
				l2.56-1.1v3.34c0,2.3,0.3,4.95,0.88,7.58L316.7,254.22z M335.58,250.03c0,2.62-0.36,5.17-1.08,7.58
				c-0.16,0.54-0.66,0.89-1.2,0.89c-0.12,0-0.24-0.02-0.36-0.05c-0.66-0.2-1.04-0.89-0.84-1.55c0.65-2.18,0.98-4.49,0.98-6.87v-2.8
				c0-0.69,0.56-1.25,1.25-1.25c0.69,0,1.25,0.56,1.25,1.25V250.03z"/>
		</g>
	</g>
	<g>
		<g>
			<path class="st2" d="M254,249.5h-4c-0.55,0-1,0.45-1,1v5c0,0.55,0.45,1,1,1h4c0.55,0,1-0.45,1-1v-5
				C255,249.95,254.55,249.5,254,249.5z"/>
			<path class="st2" d="M265.5,259.75h-16c-0.69,0-1.25,0.56-1.25,1.25s0.56,1.25,1.25,1.25h16c0.69,0,1.25-0.56,1.25-1.25
				S266.19,259.75,265.5,259.75z M265.5,264.75h-16c-0.69,0-1.25,0.56-1.25,1.25s0.56,1.25,1.25,1.25h16c0.69,0,1.25-0.56,1.25-1.25
				S266.19,264.75,265.5,264.75z M265.5,249.75h-6c-0.69,0-1.25,0.56-1.25,1.25s0.56,1.25,1.25,1.25h6c0.69,0,1.25-0.56,1.25-1.25
				S266.19,249.75,265.5,249.75z M265.5,254.75h-6c-0.69,0-1.25,0.56-1.25,1.25s0.56,1.25,1.25,1.25h6c0.69,0,1.25-0.56,1.25-1.25
				S266.19,254.75,265.5,254.75z M275,242.5h-33c-2.21,0-4,1.79-4,4v24c0,2.21,1.79,4,4,4h33c2.21,0,4-1.79,4-4v-24
				C279,244.29,277.21,242.5,275,242.5z M270,269.5c0,0.55-0.45,1-1,1h-23c-0.55,0-1-0.45-1-1v-22c0-0.55,0.45-1,1-1h23
				c0.55,0,1,0.45,1,1V269.5z M276.5,259.5c0,1.1-0.9,2-2,2c-1.1,0-2-0.9-2-2v-2c0-1.1,0.9-2,2-2c1.1,0,2,0.9,2,2V259.5z"/>
		</g>
	</g>
	<g>
		<g>
			<g>
				<g>
					<path class="st2" d="M185.25,240.37c0-0.69-0.56-1.25-1.25-1.25h-4c-0.69,0-1.25,0.56-1.25,1.25c0,0.69,0.56,1.25,1.25,1.25h4
						C184.69,241.62,185.25,241.07,185.25,240.37z M201,239.12h-4c-0.69,0-1.25,0.56-1.25,1.25c0,0.69,0.56,1.25,1.25,1.25h4
						c0.69,0,1.25-0.56,1.25-1.25C202.25,239.68,201.69,239.12,201,239.12z M195,268.12h-9c-0.69,0-1.25,0.56-1.25,1.25
						c0,0.69,0.56,1.25,1.25,1.25h9c0.69,0,1.25-0.56,1.25-1.25C196.25,268.68,195.69,268.12,195,268.12z"/>
					<path class="st2" d="M203.5,242.88h-26c-1.1,0-2,0.9-2,2v6.5c0,0.28,0.22,0.5,0.5,0.5h29c0.28,0,0.5-0.22,0.5-0.5v-6.5
						C205.5,243.77,204.6,242.88,203.5,242.88z M180.5,249.38c-1.1,0-2-0.9-2-2c0-1.1,0.9-2,2-2s2,0.9,2,2
						C182.5,248.48,181.6,249.38,180.5,249.38z M193.5,248.87h-6c-0.83,0-1.5-0.67-1.5-1.5s0.67-1.5,1.5-1.5h6
						c0.83,0,1.5,0.67,1.5,1.5S194.33,248.87,193.5,248.87z M200.5,249.38c-1.1,0-2-0.9-2-2c0-1.1,0.9-2,2-2s2,0.9,2,2
						C202.5,248.48,201.6,249.38,200.5,249.38z M205,253.88h-29c-0.28,0-0.5,0.22-0.5,0.5v21.5c0,1.1,0.9,2,2,2h26c1.1,0,2-0.9,2-2
						v-21.5C205.5,254.1,205.28,253.88,205,253.88z M199.5,271.88c0,0.55-0.45,1-1,1h-16c-0.55,0-1-0.45-1-1v-12c0-0.55,0.45-1,1-1
						h16c0.55,0,1,0.45,1,1V271.88z"/>
				</g>
			</g>
		</g>
	</g>
	<g>
		<g>
			<g>
				<path class="st2" d="M132.31,240h-20c-4.14,0-7.5,3.36-7.5,7.5v3.5c0,1.1,0.9,2,2,2v18.14c-1.72,0.45-3,2-3,3.86v1
					c0,0.55,0.45,1,1,1h33c0.55,0,1-0.45,1-1v-1c0-2.21-1.79-4-4-4l-9.46,0.15c-3.83,0.06-7.16-2.6-7.95-6.35l-1.95-9.27h-3.13
					c-0.69,0-1.25-0.56-1.25-1.25c0-0.69,0.56-1.25,1.25-1.25l15-0.02c0,1.1,0.9,2,2,2h4c1.1,0,2-0.9,2-2h2.5c1.1,0,2-0.9,2-2v-3.5
					C139.81,243.36,136.46,240,132.31,240z M113.7,247.82c-0.07,0.18-0.18,0.35-0.33,0.49c-0.28,0.28-0.66,0.44-1.06,0.44
					c-0.2,0-0.39-0.04-0.57-0.12c-0.18-0.07-0.35-0.18-0.49-0.32c-0.28-0.29-0.44-0.66-0.44-1.06c0-0.4,0.16-0.79,0.44-1.06
					c0.07-0.07,0.15-0.14,0.23-0.19c0.08-0.05,0.17-0.1,0.26-0.14c0.09-0.04,0.19-0.07,0.28-0.08c0.19-0.04,0.39-0.04,0.59,0
					c0.09,0.01,0.19,0.04,0.28,0.08c0.09,0.04,0.18,0.09,0.26,0.14c0.08,0.05,0.16,0.12,0.22,0.19c0.28,0.27,0.44,0.66,0.44,1.06
					C113.81,247.45,113.78,247.64,113.7,247.82z M118.38,248.31c-0.15,0.14-0.31,0.25-0.49,0.32c-0.18,0.08-0.38,0.12-0.57,0.12
					c-0.4,0-0.78-0.16-1.07-0.44c-0.28-0.29-0.44-0.66-0.44-1.06c0-0.4,0.16-0.78,0.44-1.06c0.07-0.07,0.15-0.14,0.23-0.19
					c0.08-0.05,0.17-0.1,0.26-0.14c0.09-0.04,0.19-0.07,0.28-0.08c0.19-0.04,0.4-0.04,0.59,0c0.09,0.01,0.19,0.04,0.28,0.08
					c0.09,0.04,0.18,0.09,0.26,0.14c0.08,0.05,0.16,0.12,0.23,0.19c0.27,0.28,0.44,0.66,0.44,1.06
					C118.82,247.65,118.66,248.02,118.38,248.31z"/>
				<path class="st2" d="M140.53,257.35H122.1c-0.36,0-0.66,0.29-0.66,0.66v0.75c0,3.52,1.84,6.6,4.62,8.35
					c0.41,0.26,0.65,0.71,0.65,1.19c0,0.18,0.15,0.33,0.33,0.33h8.56c0.18,0,0.33-0.15,0.33-0.33c0-0.48,0.24-0.93,0.65-1.19
					c2.77-1.75,4.62-4.83,4.62-8.35v-0.75C141.19,257.64,140.89,257.35,140.53,257.35z"/>
			</g>
		</g>
	</g>
	<g>
		<g>
			<path class="st2" d="M43.5,262.19c-2.32,0-4.21,1.94-4.21,4.33c0,2.39,1.88,4.33,4.21,4.33s4.21-1.94,4.21-4.33
				C47.71,264.13,45.82,262.19,43.5,262.19z M65.5,262.19c-2.32,0-4.21,1.94-4.21,4.33c0,2.39,1.88,4.33,4.21,4.33
				c2.32,0,4.21-1.94,4.21-4.33C69.71,264.13,67.82,262.19,65.5,262.19z"/>
			<path class="st2" d="M70.5,247.98h-1v-3.46c0-1.93-1.57-3.5-3.5-3.5H43c-1.93,0-3.5,1.57-3.5,3.5v3.46h-1c-2.21,0-4,1.79-4,4v20
				c0,2.21,1.79,4,4,4h32c2.21,0,4-1.79,4-4v-20C74.5,249.77,72.71,247.98,70.5,247.98z M42.5,244.52c0-0.28,0.22-0.5,0.5-0.5h23
				c0.28,0,0.5,0.22,0.5,0.5v3.46h-24V244.52z M38,253.52c0-0.55,0.45-1,1-1h31c0.55,0,1,0.45,1,1v2c0,0.55-0.45,1-1,1H39
				c-0.55,0-1-0.45-1-1V253.52z M43.5,272.85c-3.42,0-6.21-2.84-6.21-6.33c0-3.49,2.78-6.33,6.21-6.33s6.21,2.84,6.21,6.33
				C49.71,270.01,46.92,272.85,43.5,272.85z M55,267.52h-1c-0.83,0-1.5-0.67-1.5-1.5c0-0.83,0.67-1.5,1.5-1.5h1
				c0.83,0,1.5,0.67,1.5,1.5C56.5,266.85,55.83,267.52,55,267.52z M65.5,272.85c-3.42,0-6.21-2.84-6.21-6.33
				c0-3.49,2.78-6.33,6.21-6.33s6.21,2.84,6.21,6.33C71.71,270.01,68.92,272.85,65.5,272.85z"/>
		</g>
	</g>
	<g>
		<g>
			<path class="st2" d="M392.5,180.5h-3c-0.55,0-1,0.45-1,1v5c0,0.55,0.45,1,1,1h3c0.55,0,1-0.45,1-1v-5
				C393.5,180.95,393.05,180.5,392.5,180.5z"/>
			<path class="st2" d="M400,195.75h-11c-0.69,0-1.25,0.56-1.25,1.25c0,0.69,0.56,1.25,1.25,1.25h11c0.69,0,1.25-0.56,1.25-1.25
				C401.25,196.31,400.69,195.75,400,195.75z M400,190.75h-11c-0.69,0-1.25,0.56-1.25,1.25c0,0.69,0.56,1.25,1.25,1.25h11
				c0.69,0,1.25-0.56,1.25-1.25C401.25,191.31,400.69,190.75,400,190.75z M400,180.75h-3c-0.69,0-1.25,0.56-1.25,1.25
				c0,0.69,0.56,1.25,1.25,1.25h3c0.69,0,1.25-0.56,1.25-1.25C401.25,181.31,400.69,180.75,400,180.75z M400,185.75h-3
				c-0.69,0-1.25,0.56-1.25,1.25c0,0.69,0.56,1.25,1.25,1.25h3c0.69,0,1.25-0.56,1.25-1.25C401.25,186.31,400.69,185.75,400,185.75z
				 M402.5,171.5h-16c-2.21,0-4,1.79-4,4v30c0,2.21,1.79,4,4,4h16c2.21,0,4-1.79,4-4v-30C406.5,173.29,404.71,171.5,402.5,171.5z
				 M395.5,207h-2c-1.1,0-2-0.9-2-2l0,0c0-1.1,0.9-2,2-2h2c1.1,0,2,0.9,2,2l0,0C397.5,206.1,396.6,207,395.5,207z M402.5,199.5
				c0,0.55-0.45,1-1,1h-14c-0.55,0-1-0.45-1-1v-21c0-0.55,0.45-1,1-1h14c0.55,0,1,0.45,1,1V199.5z"/>
		</g>
	</g>
	<g>
		<g>
			<circle class="st2" cx="339.5" cy="191.75" r="2"/>
			<path class="st2" d="M341,202.25h-29c-0.83,0-1.5,0.67-1.5,1.5c0,0.83,0.67,1.5,1.5,1.5h29c0.83,0,1.5-0.67,1.5-1.5
				C342.5,202.92,341.83,202.25,341,202.25z M343.5,183.75L343.5,183.75l0-6.5c0-0.83-0.67-1.5-1.5-1.5s-1.5,0.67-1.5,1.5v6.5h-28
				v-6.5c0-0.83-0.67-1.5-1.5-1.5s-1.5,0.67-1.5,1.5v6.5c-2.21,0-4,1.79-4,4v8c0,2.21,1.79,4,4,4h34c2.21,0,4-1.79,4-4v-8
				C347.5,185.54,345.71,183.75,343.5,183.75z M312.5,193.25c0,0.83-0.67,1.5-1.5,1.5c-0.83,0-1.5-0.67-1.5-1.5v-3
				c0-0.83,0.67-1.5,1.5-1.5c0.83,0,1.5,0.67,1.5,1.5V193.25z M318.5,193.25c0,0.83-0.67,1.5-1.5,1.5c-0.83,0-1.5-0.67-1.5-1.5v-3
				c0-0.83,0.67-1.5,1.5-1.5c0.83,0,1.5,0.67,1.5,1.5V193.25z M324.5,193.25c0,0.83-0.67,1.5-1.5,1.5c-0.83,0-1.5-0.67-1.5-1.5v-3
				c0-0.83,0.67-1.5,1.5-1.5c0.83,0,1.5,0.67,1.5,1.5V193.25z M339.5,195.75c-2.21,0-4-1.79-4-4c0-2.21,1.79-4,4-4s4,1.79,4,4
				C343.5,193.96,341.71,195.75,339.5,195.75z"/>
		</g>
	</g>
	<g>
		<g>
			<circle class="st2" cx="267" cy="188.25" r="5.5"/>
			<path class="st2" d="M273,202.25h-29c-0.83,0-1.5,0.67-1.5,1.5c0,0.83,0.67,1.5,1.5,1.5h29c0.83,0,1.5-0.67,1.5-1.5
				C274.5,202.92,273.83,202.25,273,202.25z M279.45,187.24c-0.51-6.42-5.9-11.49-12.45-11.49c-5.3,0-9.84,3.33-11.65,8H241.5
				c-2.21,0-4,1.79-4,4v8c0,2.21,1.79,4,4,4h34c2.21,0,4-1.79,4-4v-8C279.5,187.58,279.47,187.41,279.45,187.24z M243.5,193.25
				c0,0.83-0.67,1.5-1.5,1.5c-0.83,0-1.5-0.67-1.5-1.5v-3c0-0.83,0.67-1.5,1.5-1.5c0.83,0,1.5,0.67,1.5,1.5V193.25z M248.5,193.25
				c0,0.83-0.67,1.5-1.5,1.5s-1.5-0.67-1.5-1.5v-3c0-0.83,0.67-1.5,1.5-1.5s1.5,0.67,1.5,1.5V193.25z M253.5,193.25
				c0,0.83-0.67,1.5-1.5,1.5c-0.83,0-1.5-0.67-1.5-1.5v-3c0-0.83,0.67-1.5,1.5-1.5c0.83,0,1.5,0.67,1.5,1.5V193.25z M267,196.75
				c-4.69,0-8.5-3.81-8.5-8.5c0-4.69,3.81-8.5,8.5-8.5s8.5,3.81,8.5,8.5C275.5,192.94,271.69,196.75,267,196.75z"/>
		</g>
	</g>
	<g>
		<g>
			<path class="st2" d="M196.5,190h-12c-0.83,0-1.5,0.67-1.5,1.5c0,0.83,0.67,1.5,1.5,1.5h12c0.83,0,1.5-0.67,1.5-1.5
				C198,190.67,197.33,190,196.5,190z"/>
			<path class="st2" d="M200.65,175h-14.57c-0.59,0-1.16,0.26-1.54,0.72l-8.07,9.7c-0.3,0.36-0.46,0.81-0.46,1.28v14.95
				c0,2.4,1.95,4.35,4.35,4.35h20.29c2.4,0,4.35-1.95,4.35-4.35v-22.29C205,176.95,203.05,175,200.65,175z M197,179
				c0-0.83,0.67-1.5,1.5-1.5s1.5,0.67,1.5,1.5v3c0,0.83-0.67,1.5-1.5,1.5s-1.5-0.67-1.5-1.5V179z M192,179c0-0.83,0.67-1.5,1.5-1.5
				s1.5,0.67,1.5,1.5v3c0,0.83-0.67,1.5-1.5,1.5s-1.5-0.67-1.5-1.5V179z M187,179c0-0.83,0.67-1.5,1.5-1.5s1.5,0.67,1.5,1.5v3
				c0,0.83-0.67,1.5-1.5,1.5s-1.5-0.67-1.5-1.5V179z M201,200c0,1.1-0.9,2-2,2h-17c-1.1,0-2-0.9-2-2v-11c0-1.1,0.9-2,2-2h17
				c1.1,0,2,0.9,2,2V200z"/>
		</g>
	</g>
	<g>
		<g>
			<path class="st2" d="M139,182.77h-33c-2.21,0-4,1.79-4,4v13c0,2.21,1.79,4,4,4h33c2.21,0,4-1.79,4-4v-13
				C143,184.56,141.21,182.77,139,182.77z M131.05,186.39c1.1,0,1.99,0.89,1.99,1.99c0,1.1-0.89,1.99-1.99,1.99
				c-1.1,0-1.99-0.89-1.99-1.99C129.06,187.28,129.95,186.39,131.05,186.39z M137,199.77h-29c-1.1,0-2-0.9-2-2c0-1.1,0.9-2,2-2h29
				c1.1,0,2,0.9,2,2C139,198.87,138.1,199.77,137,199.77z M137.24,190.38c-1.1,0-1.99-0.89-1.99-1.99c0-1.1,0.89-1.99,1.99-1.99
				c1.1,0,1.99,0.89,1.99,1.99C139.23,189.49,138.34,190.38,137.24,190.38z"/>
			<path class="st2" d="M136.27,177.23h-27.55c-0.83,0-1.5,0.67-1.5,1.5s0.67,1.5,1.5,1.5h27.55c0.83,0,1.5-0.67,1.5-1.5
				S137.1,177.23,136.27,177.23z"/>
		</g>
	</g>
	<g>
		<g>
			<path class="st2" d="M48.96,204.25v0.22c0,2.64,2.14,4.78,4.78,4.78h0.44c2.64,0,4.78-2.14,4.78-4.78v-0.22H48.96z"/>
			<path class="st2" d="M72.21,198.29l-12.25-9.53v-3.01c0-1.1-0.9-2-2-2h-2v-10.5c0-0.83-0.67-1.5-1.5-1.5
				c-0.83,0-1.5,0.67-1.5,1.5v10.5h-2c-1.1,0-2,0.9-2,2v3.08l-12.16,9.46c-1.46,1.13-0.65,3.46,1.19,3.46h33.04
				C72.86,201.75,73.66,199.42,72.21,198.29z"/>
		</g>
	</g>
	<g>
		<g>
			<path class="st2" d="M416.02,132.55c0,0-1.66-11.42-1.91-12.83c-0.96-5.22-3.81-8.75-8.61-9v-0.02h-22v0.02
				c-4.79,0.25-7.65,2.83-8.61,9c-0.22,1.41-1.91,12.83-1.91,12.83l0.02,0.01c-0.01,0.15-0.02,0.31-0.02,0.47
				c0,3.41,2.78,6.18,6.22,6.18c2.2,0,4.13-1.14,5.24-2.86l0.02,0.01l3.49-5.73c0.35-0.57,0.97-0.92,1.63-0.92h9.84
				c0.67,0,1.29,0.35,1.63,0.92l3.49,5.73l0.02-0.01c1.1,1.72,3.04,2.86,5.24,2.86c3.43,0,6.22-2.76,6.22-6.18
				c0-0.16-0.01-0.31-0.02-0.47L416.02,132.55z M403.5,114.7c1.1,0,2,0.9,2,2c0,1.1-0.9,2-2,2c-1.1,0-2-0.9-2-2
				C401.5,115.6,402.4,114.7,403.5,114.7z M388.5,122.7h-1v1c0,1.1-0.9,2-2,2c-1.1,0-2-0.9-2-2v-1h-1c-1.1,0-2-0.9-2-2
				c0-1.1,0.9-2,2-2h1v-1c0-1.1,0.9-2,2-2c1.1,0,2,0.9,2,2v1h1c1.1,0,2,0.9,2,2C390.5,121.81,389.6,122.7,388.5,122.7z M399.5,122.7
				c-1.1,0-2-0.9-2-2c0-1.1,0.9-2,2-2c1.1,0,2,0.9,2,2C401.5,121.81,400.6,122.7,399.5,122.7z M403.5,126.7c-1.1,0-2-0.9-2-2
				c0-1.1,0.9-2,2-2c1.1,0,2,0.9,2,2C405.5,125.81,404.6,126.7,403.5,126.7z M407.5,122.7c-1.1,0-2-0.9-2-2c0-1.1,0.9-2,2-2
				c1.1,0,2,0.9,2,2C409.5,121.81,408.6,122.7,407.5,122.7z"/>
			<path class="st2" d="M389,105.8h-5c-0.69,0-1.25,0.56-1.25,1.25c0,0.69,0.56,1.25,1.25,1.25h5c0.69,0,1.25-0.56,1.25-1.25
				C390.25,106.36,389.69,105.8,389,105.8z M405,105.8h-5c-0.69,0-1.25,0.56-1.25,1.25c0,0.69,0.56,1.25,1.25,1.25h5
				c0.69,0,1.25-0.56,1.25-1.25C406.25,106.36,405.69,105.8,405,105.8z"/>
		</g>
	</g>
	<g>
		<g>
			<path class="st2" d="M338.5,108.75h-0.4c-0.31-3.5-5.59-6.5-11.6-6.5s-11.29,3-11.6,6.5h-0.4c-2.49,0-4.5,2.54-4.5,5.5h33
				C343,111.29,340.99,108.75,338.5,108.75z M317.95,108.75c0.48-1.27,3.63-3.5,8.55-3.5s8.07,2.23,8.55,3.5H317.95z M328,130h-3
				c-0.69,0-1.25,0.56-1.25,1.25c0,0.69,0.56,1.25,1.25,1.25h3c0.69,0,1.25-0.56,1.25-1.25C329.25,130.56,328.69,130,328,130z"/>
			<path class="st2" d="M345,116.75h-37c-0.55,0-1,0.45-1,1v2.18c0,0.48,0.34,0.89,0.8,0.98l2.2,0.44v14.4c0,2.21,1.79,4,4,4v1.26
				c0,0.96,0.78,1.74,1.74,1.74c0.75,0,1.42-0.48,1.65-1.19l0.6-1.81h17l0.6,1.81c0.24,0.71,0.9,1.19,1.65,1.19
				c0.96,0,1.74-0.78,1.74-1.74v-1.26c2.21,0,4-1.79,4-4v-14.4l2.2-0.44c0.47-0.09,0.8-0.5,0.8-0.98v-2.18
				C346,117.2,345.55,116.75,345,116.75z M331,132.75c0,0.55-0.45,1-1,1h-7c-0.55,0-1-0.45-1-1v-8c0-0.55,0.45-1,1-1h7
				c0.55,0,1,0.45,1,1V132.75z"/>
		</g>
	</g>
	<g>
		<g>
			<g>
				<g>
					<g>
						<g>
							<path class="st2" d="M277.5,135H256c-0.06,0-0.12-0.01-0.17-0.02h-5.63c-0.69,0-1.25-0.56-1.25-1.25
								c0-0.69,0.56-1.25,1.25-1.25H254V123h11.71c0.42,0,0.8,0.26,0.94,0.66l0.61,1.68c0.14,0.4,0.52,0.66,0.94,0.66h8.3
								c0.55,0,1-0.45,1-1v-14c0-1.1-0.9-2-2-2h-24v-3h0.5c0.28,0,0.5-0.22,0.5-0.5v-2c0-0.28-0.22-0.5-0.5-0.5h-8
								c-0.28,0-0.5,0.22-0.5,0.5v2c0,0.28,0.22,0.5,0.5,0.5h0.5v3h-4c-1.1,0-2,0.9-2,2v27c0,2.21,1.79,4,4,4h32c2.21,0,4-1.79,4-4
								v-2C278.5,135.45,278.05,135,277.5,135z M270.58,119.09c0.75-0.75,2.09-0.75,2.83,0c0.38,0.37,0.59,0.88,0.59,1.41
								c0,0.27-0.05,0.52-0.15,0.77c-0.1,0.24-0.25,0.46-0.44,0.64c-0.19,0.19-0.4,0.34-0.65,0.44c-0.24,0.1-0.5,0.15-0.76,0.15
								c-0.53,0-1.04-0.21-1.42-0.59c-0.18-0.18-0.33-0.4-0.43-0.64c-0.1-0.25-0.15-0.5-0.15-0.77
								C270,119.97,270.21,119.46,270.58,119.09z M246.25,114.88c1.04,0,1.88,0.84,1.88,1.88c0,1.04-0.84,1.88-1.88,1.88
								c-1.04,0-1.88-0.84-1.88-1.88C244.38,115.71,245.22,114.88,246.25,114.88z M246.25,127.75c-1.52,0-2.75-1.23-2.75-2.75
								c0-1.52,1.23-2.75,2.75-2.75c1.52,0,2.75,1.23,2.75,2.75C249,126.52,247.77,127.75,246.25,127.75z"/>
							<path class="st2" d="M272.19,127.25c-0.69,0-1.25,0.56-1.25,1.25v2.5c0,0.69,0.56,1.25,1.25,1.25s1.25-0.56,1.25-1.25v-2.5
								C273.44,127.81,272.88,127.25,272.19,127.25z"/>
						</g>
					</g>
				</g>
			</g>
		</g>
	</g>
	<g>
		<g>
			<path class="st2" d="M206.5,111.25h-32c-2.21,0-4,1.79-4,4v10c0,2.21,1.79,4,4,4h2v-3.5c0-1.93,1.57-3.5,3.5-3.5h21
				c1.93,0,3.5,1.57,3.5,3.5v3.5h2c2.21,0,4-1.79,4-4v-10C210.5,113.04,208.71,111.25,206.5,111.25z M176.33,118.67
				c-1.03,0-1.86-0.83-1.86-1.86c0-1.03,0.83-1.86,1.86-1.86c1.03,0,1.86,0.83,1.86,1.86C178.18,117.84,177.35,118.67,176.33,118.67
				z"/>
			<path class="st2" d="M200.95,105.75h-20.91c-0.83,0-1.5,0.67-1.5,1.5c0,0.83,0.67,1.5,1.5,1.5h20.91c0.83,0,1.5-0.67,1.5-1.5
				C202.45,106.42,201.78,105.75,200.95,105.75z M201,124.75h-21c-0.55,0-1,0.45-1,1v11.5c0,1.1,0.9,2,2,2h19c1.1,0,2-0.9,2-2v-11.5
				C202,125.2,201.55,124.75,201,124.75z M191,136h-7c-0.69,0-1.25-0.56-1.25-1.25c0-0.69,0.56-1.25,1.25-1.25h7
				c0.69,0,1.25,0.56,1.25,1.25C192.25,135.44,191.69,136,191,136z M196,131h-12c-0.69,0-1.25-0.56-1.25-1.25
				c0-0.69,0.56-1.25,1.25-1.25h12c0.69,0,1.25,0.56,1.25,1.25C197.25,130.44,196.69,131,196,131z"/>
		</g>
	</g>
	<g>
		<g>
			<g>
				<g>
					<path class="st2" d="M141.5,106.75h-38c-1.1,0-2,0.9-2,2v25c0,1.1,0.9,2,2,2h1v1.96c0,0.3,0.24,0.54,0.54,0.54h3.07
						c0.23,0,0.44-0.15,0.51-0.37l0.71-2.13h26.33l0.71,2.13c0.07,0.22,0.28,0.37,0.51,0.37h3.07c0.3,0,0.54-0.24,0.54-0.54v-1.96h1
						c1.1,0,2-0.9,2-2v-25C143.5,107.65,142.6,106.75,141.5,106.75z M128.5,130c0,0.55-0.45,1-1,1h-20.75c-0.55,0-1-0.45-1-1v-17.5
						c0-0.55,0.45-1,1-1h20.75c0.55,0,1,0.45,1,1V130z M134,130.25h-1c-0.83,0-1.5-0.67-1.5-1.5c0-0.83,0.67-1.5,1.5-1.5h1
						c0.83,0,1.5,0.67,1.5,1.5C135.5,129.58,134.83,130.25,134,130.25z M134,125.25h-1c-0.83,0-1.5-0.67-1.5-1.5s0.67-1.5,1.5-1.5h1
						c0.83,0,1.5,0.67,1.5,1.5S134.83,125.25,134,125.25z M136.5,118.25c-1.93,0-3.5-1.57-3.5-3.5s1.57-3.5,3.5-3.5
						c1.93,0,3.5,1.57,3.5,3.5S138.43,118.25,136.5,118.25z M140,130.25h-1c-0.83,0-1.5-0.67-1.5-1.5c0-0.83,0.67-1.5,1.5-1.5h1
						c0.83,0,1.5,0.67,1.5,1.5C141.5,129.58,140.83,130.25,140,130.25z M140,125.25h-1c-0.83,0-1.5-0.67-1.5-1.5s0.67-1.5,1.5-1.5h1
						c0.83,0,1.5,0.67,1.5,1.5S140.83,125.25,140,125.25z"/>
					<path class="st2" d="M124,115.75c-0.83,0-1.5,0.67-1.5,1.5v9c0,0.83,0.67,1.5,1.5,1.5s1.5-0.67,1.5-1.5v-9
						C125.5,116.42,124.83,115.75,124,115.75z"/>
				</g>
			</g>
		</g>
	</g>
	<g>
		<g>
			<path class="st2" d="M75.18,127.76c-0.35-11.7-12.11-19.47-22.99-19.47H38.91c-0.99,0-1.83,0.72-1.98,1.7l-0.6,3.98h-0.56
				c-0.56,0-1.03,0.41-1.12,0.96l-0.52,3.38c-0.11,0.68,0.42,1.3,1.12,1.3h0.24l-1.23,8.19c0,0.01,0,0.02,0,0.03
				c0,0.01-0.01,0.02-0.01,0.02c0,0.01,0.01,0.02,0.01,0.04c0,0.06,0.02,0.12,0.05,0.17c0.64,1.83,9.47,3.22,20.37,3.22
				c10.82,0,19.66-1.43,20.42-3.24c0.04-0.07,0.06-0.14,0.06-0.22c0-0.01,0.01-0.03,0.01-0.04
				C75.19,127.78,75.18,127.77,75.18,127.76z M60.69,118.45c-0.29,1.67-4.58,2.31-9.37,2.41c-2.28,0.05-4.4-0.13-5.98-0.33
				c-1.53-0.19-2.65-1.54-2.41-2.9l0.44-2.56c0.29-1.67,1.93-3.65,8.64-2.17C58.72,114.38,60.98,116.78,60.69,118.45z"/>
			<path class="st2" d="M48.69,119.3h4c0.83,0,1.5-0.67,1.5-1.5s-0.67-1.5-1.5-1.5h-4c-0.83,0-1.5,0.67-1.5,1.5
				S47.86,119.3,48.69,119.3z M75.5,131.69c-0.02-0.33-0.34-0.56-0.66-0.45c-3.3,1.16-10.47,2.46-20.16,2.46
				c-9.87,0-17.12-1.35-20.33-2.52c-0.3-0.11-0.61,0.09-0.66,0.4l-0.3,1.97c-0.04,0.24,0.09,0.47,0.32,0.55
				c5.73,2.06,16.08,2.6,20.97,2.6c4.78,0,14.78-0.52,20.58-2.47c0.21-0.07,0.34-0.27,0.34-0.49
				C75.57,133.09,75.54,132.4,75.5,131.69z"/>
		</g>
	</g>
</g>
<g id="title" class="st0">
	<g class="st3">
		<path class="st2" d="M31.77,46.17c0-0.68,0.44-1.12,1.12-1.12h1.12c0.68,0,1.12,0.44,1.12,1.12v5.41h5.43v-5.41
			c0-0.68,0.44-1.12,1.12-1.12h1.12c0.68,0,1.12,0.44,1.12,1.12V60.2c0,0.68-0.44,1.12-1.12,1.12h-1.12c-0.68,0-1.12-0.44-1.12-1.12
			v-5.87h-5.43v5.87c0,0.68-0.44,1.12-1.12,1.12h-1.12c-0.68,0-1.12-0.44-1.12-1.12V46.17z"/>
		<path class="st2" d="M46.89,51.69c0-4.01,2.4-6.94,6.55-6.94c4.15,0,6.55,2.94,6.55,6.94v2.98c0,4.01-2.4,6.94-6.55,6.94
			c-4.15,0-6.55-2.94-6.55-6.94V51.69z M56.54,54.42v-2.47c0-2.35-0.63-4.4-3.1-4.4c-2.45,0-3.1,2.05-3.1,4.4v2.47
			c0,2.38,0.65,4.4,3.1,4.4C55.91,58.82,56.54,56.79,56.54,54.42z"/>
		<path class="st2" d="M63.97,46.24c0.09-0.77,0.58-1.19,1.26-1.19h1.4c0.68,0,1.19,0.4,1.4,1.09l3.24,10.97
			c0.02,0.09,0.09,0.26,0.19,0.26c0.09,0,0.16-0.16,0.19-0.26l3.22-10.95c0.21-0.72,0.72-1.12,1.4-1.12h1.4
			c0.68,0,1.17,0.44,1.26,1.17l1.65,13.93c0.09,0.75-0.3,1.17-0.98,1.17h-1.12c-0.68,0-1.14-0.44-1.21-1.12l-0.61-6.08
			c-0.09-0.84-0.14-1.96-0.19-3.08c-0.21,1.14-0.44,2.24-0.7,3.08l-1,3.38c-0.44,1.51-1.33,2.82-3.31,2.82
			c-1.96,0-2.89-1.3-3.31-2.82l-1-3.52c-0.26-0.84-0.49-1.93-0.7-3.05c-0.05,1.14-0.09,2.26-0.19,3.12l-0.63,6.13
			c-0.07,0.68-0.51,1.14-1.19,1.14h-1.14c-0.68,0-1.07-0.44-0.98-1.17L63.97,46.24z"/>
		<path class="st2" d="M83,49.52c0-2.7,1.72-4.47,5.15-4.47h3.38c0.68,0,1.12,0.44,1.12,1.12v0.56c0,0.68-0.44,1.12-1.12,1.12H88.2
			c-1.4,0-1.84,0.63-1.84,1.93v1.82h4.47c0.68,0,1.12,0.44,1.12,1.12v0.54c0,0.68-0.44,1.12-1.12,1.12h-4.47v2.24
			c0,1.33,0.44,1.91,1.84,1.91h3.43c0.68,0,1.12,0.44,1.12,1.12v0.56c0,0.68-0.44,1.12-1.12,1.12h-3.47c-3.4,0-5.15-1.77-5.15-4.45
			V49.52z"/>
		<path class="st2" d="M103.22,47.61c0.4-1.54,1.54-2.87,3.49-2.87c1.91,0,3.08,1.37,3.47,2.87l3.29,12.47
			c0.16,0.63-0.19,1.24-0.91,1.24h-1.12c-0.68,0-1.14-0.47-1.3-1.12l-0.77-3.05h-5.31l-0.75,3.03c-0.19,0.75-0.58,1.14-1.26,1.14
			h-1.19c-0.72,0-1.05-0.63-0.89-1.26L103.22,47.61z M108.7,54.39l-1.58-6.38c-0.05-0.23-0.19-0.4-0.4-0.4
			c-0.23,0-0.35,0.16-0.4,0.4l-1.58,6.38H108.7z"/>
		<path class="st2" d="M116.27,46.17c0-0.68,0.44-1.12,1.12-1.12H121c3.8,0,5.89,2.47,5.89,5.34c0,2.94-2.1,5.33-5.89,5.33h-1.38
			v4.47c0,0.68-0.44,1.12-1.12,1.12h-1.12c-0.68,0-1.12-0.44-1.12-1.12V46.17z M120.88,52.95c1.68,0,2.49-1.19,2.49-2.56
			c0-1.4-0.82-2.54-2.52-2.54h-1.23v5.1H120.88z"/>
		<path class="st2" d="M129.39,46.17c0-0.68,0.44-1.12,1.12-1.12h3.61c3.8,0,5.89,2.47,5.89,5.34c0,2.94-2.1,5.33-5.89,5.33h-1.38
			v4.47c0,0.68-0.44,1.12-1.12,1.12h-1.12c-0.68,0-1.12-0.44-1.12-1.12V46.17z M134,52.95c1.68,0,2.49-1.19,2.49-2.56
			c0-1.4-0.82-2.54-2.52-2.54h-1.23v5.1H134z"/>
		<path class="st2" d="M142.5,46.17c0-0.68,0.44-1.12,1.12-1.12h1.12c0.68,0,1.12,0.44,1.12,1.12v12.35h5.78
			c0.68,0,1.12,0.44,1.12,1.12v0.56c0,0.68-0.44,1.12-1.12,1.12h-8.02c-0.68,0-1.12-0.44-1.12-1.12V46.17z"/>
		<path class="st2" d="M155.25,46.17c0-0.68,0.44-1.12,1.12-1.12h1.12c0.68,0,1.12,0.44,1.12,1.12V60.2c0,0.68-0.44,1.12-1.12,1.12
			h-1.12c-0.68,0-1.12-0.44-1.12-1.12V46.17z"/>
		<path class="st2" d="M164.64,47.61c0.4-1.54,1.54-2.87,3.49-2.87c1.91,0,3.08,1.37,3.47,2.87l3.29,12.47
			c0.16,0.63-0.19,1.24-0.91,1.24h-1.12c-0.68,0-1.14-0.47-1.3-1.12l-0.77-3.05h-5.31l-0.75,3.03c-0.19,0.75-0.58,1.14-1.26,1.14
			h-1.19c-0.72,0-1.05-0.63-0.89-1.26L164.64,47.61z M170.11,54.39l-1.58-6.38c-0.05-0.23-0.19-0.4-0.4-0.4
			c-0.23,0-0.35,0.16-0.4,0.4l-1.58,6.38H170.11z"/>
		<path class="st2" d="M177.68,46.17c0-0.68,0.44-1.12,1.12-1.12h0.93c0.68,0,1.19,0.37,1.56,1.03l5.17,9.13
			c-0.14-1.17-0.21-2.33-0.21-3.22v-5.83c0-0.68,0.44-1.12,1.12-1.12h1.07c0.68,0,1.12,0.44,1.12,1.12V60.2
			c0,0.68-0.44,1.12-1.12,1.12h-0.93c-0.68,0-1.21-0.37-1.58-1.03l-5.15-9.09c0.12,1.17,0.21,2.31,0.21,3.17v5.82
			c0,0.68-0.44,1.12-1.12,1.12h-1.07c-0.68,0-1.12-0.44-1.12-1.12V46.17z"/>
		<path class="st2" d="M192.57,50.76c0-3.87,2.35-6.01,6.06-6.01c1.72,0,2.91,0.23,3.87,0.47c0.51,0.14,0.75,0.56,0.63,1.09
			l-0.21,0.96c-0.12,0.51-0.61,0.75-1.12,0.61c-0.63-0.14-1.49-0.33-2.7-0.33c-1.91,0-3.08,0.82-3.08,3.47v4.33
			c0,2.66,1.17,3.47,3.08,3.47c1.49,0,2.4-0.26,2.82-0.35c0.56-0.14,0.89,0.12,1,0.63l0.21,0.96c0.09,0.47-0.12,0.96-0.63,1.1
			c-0.54,0.14-1.93,0.47-3.87,0.47c-3.7,0-6.06-2.12-6.06-6.01V50.76z"/>
		<path class="st2" d="M205.73,49.52c0-2.7,1.72-4.47,5.15-4.47h3.38c0.68,0,1.12,0.44,1.12,1.12v0.56c0,0.68-0.44,1.12-1.12,1.12
			h-3.33c-1.4,0-1.84,0.63-1.84,1.93v1.82h4.47c0.68,0,1.12,0.44,1.12,1.12v0.54c0,0.68-0.44,1.12-1.12,1.12h-4.47v2.24
			c0,1.33,0.44,1.91,1.84,1.91h3.43c0.68,0,1.12,0.44,1.12,1.12v0.56c0,0.68-0.44,1.12-1.12,1.12h-3.47c-3.4,0-5.15-1.77-5.15-4.45
			V49.52z"/>
		<path class="st4" d="M223.67,45.71c0-0.7,0.46-1.15,1.15-1.15h1.15c0.7,0,1.15,0.46,1.15,1.15v14.45c0,0.7-0.46,1.15-1.15,1.15
			h-1.15c-0.7,0-1.15-0.46-1.15-1.15V45.71z"/>
		<path class="st4" d="M230.22,50.44c0-3.98,2.42-6.19,6.24-6.19c1.78,0,3,0.24,3.98,0.48c0.53,0.14,0.77,0.58,0.65,1.13l-0.22,0.98
			c-0.12,0.53-0.62,0.77-1.15,0.62c-0.65-0.14-1.54-0.34-2.78-0.34c-1.97,0-3.17,0.84-3.17,3.58v4.46c0,2.74,1.2,3.58,3.17,3.58
			c1.54,0,2.47-0.26,2.9-0.36c0.58-0.14,0.91,0.12,1.03,0.65l0.22,0.98c0.1,0.48-0.12,0.98-0.65,1.13
			c-0.55,0.14-1.99,0.48-3.98,0.48c-3.82,0-6.24-2.18-6.24-6.19V50.44z"/>
		<path class="st4" d="M243.66,51.4c0-4.13,2.47-7.15,6.74-7.15c4.27,0,6.74,3.02,6.74,7.15v3.07c0,4.13-2.47,7.15-6.74,7.15
			c-4.27,0-6.74-3.02-6.74-7.15V51.4z M253.6,54.21v-2.54c0-2.42-0.65-4.54-3.19-4.54c-2.52,0-3.19,2.11-3.19,4.54v2.54
			c0,2.45,0.67,4.54,3.19,4.54C252.95,58.75,253.6,56.66,253.6,54.21z"/>
		<path class="st4" d="M260.22,45.71c0-0.7,0.46-1.15,1.15-1.15h0.96c0.7,0,1.22,0.38,1.61,1.06l5.33,9.41
			c-0.14-1.2-0.22-2.4-0.22-3.31v-6c0-0.7,0.46-1.15,1.15-1.15h1.1c0.7,0,1.15,0.46,1.15,1.15v14.45c0,0.7-0.46,1.15-1.15,1.15
			h-0.96c-0.7,0-1.25-0.38-1.63-1.06l-5.3-9.36c0.12,1.2,0.22,2.38,0.22,3.26v6c0,0.7-0.46,1.15-1.15,1.15h-1.1
			c-0.7,0-1.15-0.46-1.15-1.15V45.71z"/>
		<path class="st4" d="M275.34,59.56l0.14-0.62c0.17-0.74,0.7-0.94,1.34-0.74c0.46,0.12,1.73,0.55,3.24,0.55
			c1.63,0,2.3-0.86,2.3-2.02c0-3.26-6.94-2.04-6.94-7.78c0-2.98,2.5-4.7,5.78-4.7c1.54,0,2.59,0.34,3.19,0.53
			c0.65,0.22,1.01,0.74,0.77,1.46l-0.17,0.53c-0.22,0.65-0.77,0.94-1.46,0.72c-0.55-0.17-1.3-0.36-2.33-0.36
			c-1.44,0-2.16,0.72-2.16,1.82c0,2.81,6.94,2.09,6.94,7.78c0,2.95-2.4,4.9-5.93,4.9c-1.66,0-2.95-0.36-3.89-0.65
			C275.49,60.76,275.17,60.33,275.34,59.56z"/>
	</g>
</g>
</svg>
