<?xml version="1.0" encoding="utf-8"?>
<!-- Generator: Adobe Illustrator 24.1.1, SVG Export Plug-In . SVG Version: 6.00 Build 0)  -->
<svg version="1.1" xmlns="http://www.w3.org/2000/svg" x="0px" y="0px"
     viewBox="0 0 448 448" style="enable-background:new 0 0 448 448;" xml:space="preserve">
<style type="text/css">
	.st0{display:none;}
	.st1{display:inline;fill:#FFFFFF;}
	.st2{fill:#173042;}
	.st3{display:inline;}
	.st4{fill:#869093;}
</style>
<g id="grid" class="st0">
	<rect x="30" y="98" class="st1" width="48" height="48"/>
	<rect x="98" y="98" class="st1" width="48" height="48"/>
	<rect x="166" y="98" class="st1" width="48" height="48"/>
	<rect x="234" y="98" class="st1" width="48" height="48"/>
	<rect x="302" y="98" class="st1" width="48" height="48"/>
	<rect x="370" y="98" class="st1" width="48" height="48"/>
	<rect x="30" y="166" class="st1" width="48" height="48"/>
	<rect x="98" y="166" class="st1" width="48" height="48"/>
	<rect x="166" y="166" class="st1" width="48" height="48"/>
	<rect x="234" y="166" class="st1" width="48" height="48"/>
	<rect x="302" y="166" class="st1" width="48" height="48"/>
	<rect x="370" y="166" class="st1" width="48" height="48"/>
	<rect x="30" y="234" class="st1" width="48" height="48"/>
	<rect x="98" y="234" class="st1" width="48" height="48"/>
	<rect x="370" y="234" class="st1" width="48" height="48"/>
	<rect x="30" y="302" class="st1" width="48" height="48"/>
	<rect x="98" y="302" class="st1" width="48" height="48"/>
	<rect x="166" y="234" class="st1" width="48" height="48"/>
	<rect x="234" y="234" class="st1" width="48" height="48"/>
	<rect x="302" y="234" class="st1" width="48" height="48"/>
	<rect x="166" y="302" class="st1" width="48" height="48"/>
	<rect x="234" y="302" class="st1" width="48" height="48"/>
	<rect x="302" y="302" class="st1" width="48" height="48"/>
	<rect x="370" y="302" class="st1" width="48" height="48"/>
	<rect x="30" y="370" class="st1" width="48" height="48"/>
	<rect x="98" y="370" class="st1" width="48" height="48"/>
	<rect x="166" y="370" class="st1" width="48" height="48"/>
	<rect x="234" y="370" class="st1" width="48" height="48"/>
	<rect x="302" y="370" class="st1" width="48" height="48"/>
	<rect x="370" y="370" class="st1" width="48" height="48"/>
</g>
<g id="icons">
	<g>
		<g>
			<path class="st2" d="M410.5,383.73h-17.97l18.4-5.52c0.79-0.24,1.24-1.07,1.01-1.87c-0.24-0.79-1.07-1.24-1.87-1.01l-27.98,8.39
				h-3.59c-2.21,0-4,1.79-4,4v22c0,2.21,1.79,4,4,4h32c2.21,0,4-1.79,4-4v-22C414.5,385.52,412.71,383.73,410.5,383.73z
				 M386.45,410.99c-3.62,0-6.56-3.01-6.56-6.71c0-3.7,2.94-6.71,6.56-6.71c3.62,0,6.56,3.01,6.56,6.71
				C393.01,407.97,390.06,410.99,386.45,410.99z M407.5,408.5h-8c-0.83,0-1.5-0.67-1.5-1.5s0.67-1.5,1.5-1.5h8
				c0.83,0,1.5,0.67,1.5,1.5S408.33,408.5,407.5,408.5z M407.5,402.5h-8c-0.83,0-1.5-0.67-1.5-1.5s0.67-1.5,1.5-1.5h8
				c0.83,0,1.5,0.67,1.5,1.5S408.33,402.5,407.5,402.5z M411,392.27c0,0.55-0.45,1-1,1h-31c-0.55,0-1-0.45-1-1v-3c0-0.55,0.45-1,1-1
				h31c0.55,0,1,0.45,1,1V392.27z"/>
			<path class="st2" d="M386.45,400.06c-2.24,0-4.06,1.89-4.06,4.21c0,2.32,1.82,4.21,4.06,4.21s4.06-1.89,4.06-4.21
				C390.51,401.95,388.68,400.06,386.45,400.06z"/>
		</g>
	</g>
	<g>
		<g>
			<g>
				<path class="st2" d="M327.52,411.9l-3.78-6.88c-0.21-0.38-0.64-0.58-1.06-0.5c-0.48,0.1-0.97,0.15-1.47,0.15
					c-1.4,0-2.7-0.39-3.82-1.05c-0.47-0.28-1.08-0.14-1.37,0.32l-4.86,7.87c-0.77,1.25,0.13,2.86,1.59,2.86h13.13
					C327.3,414.67,328.21,413.14,327.52,411.9z"/>
				<path class="st2" d="M341.83,398c-1.44-2.36-4.63-7.17-9.29-12.01l1.55-1.53c1.22,0.43,2.63,0.17,3.61-0.81
					c1.35-1.35,1.35-3.55,0-4.91c-1.35-1.35-3.55-1.35-4.91,0c-0.97,0.97-1.23,2.37-0.81,3.58l-1.57,1.55
					c-4.76-4.5-9.58-7.75-11.95-9.23c-0.9-0.57-2.1-0.34-2.74,0.52c-3.95,5.36-3.26,13.46,1.59,19.81c-0.37,0.65-0.6,1.39-0.6,2.2
					c0,2.49,2.01,4.5,4.5,4.5c1.02,0,1.95-0.35,2.7-0.92c5.89,3.34,12.69,3.43,17.39-0.03C342.15,400.08,342.38,398.9,341.83,398z
					 M319.98,391.83c-0.21,0.13-0.44,0.19-0.67,0.19c-0.41,0-0.82-0.21-1.06-0.58c-2.14-3.39-2.76-7.26-1.7-10.61
					c0.21-0.66,0.91-1.02,1.57-0.81c0.66,0.21,1.02,0.91,0.81,1.57c-0.83,2.61-0.29,5.79,1.43,8.52
					C320.73,390.68,320.56,391.46,319.98,391.83z"/>
			</g>
		</g>
	</g>
	<g>
		<g>
			<path class="st2" d="M252.5,391h-4c-0.55,0-1,0.45-1,1v5c0,0.55,0.45,1,1,1h4c0.55,0,1-0.45,1-1v-5
				C253.5,391.45,253.05,391,252.5,391z"/>
			<path class="st2" d="M272.5,378h-28c-2.21,0-4,1.79-4,4v25c0,2.21,1.79,4,4,4h28c2.21,0,4-1.79,4-4v-25
				C276.5,379.79,274.71,378,272.5,378z M252.5,381.5h4c0.83,0,1.5,0.67,1.5,1.5s-0.67,1.5-1.5,1.5h-4c-0.83,0-1.5-0.67-1.5-1.5
				S251.67,381.5,252.5,381.5z M246.5,381c1.1,0,2,0.9,2,2s-0.9,2-2,2s-2-0.9-2-2S245.4,381,246.5,381z M272.5,406
				c0,0.55-0.45,1-1,1h-26c-0.55,0-1-0.45-1-1v-17c0-0.55,0.45-1,1-1h26c0.55,0,1,0.45,1,1V406z M268,391.25h-10
				c-0.69,0-1.25,0.56-1.25,1.25s0.56,1.25,1.25,1.25h10c0.69,0,1.25-0.56,1.25-1.25S268.69,391.25,268,391.25z M268,396.25h-10
				c-0.69,0-1.25,0.56-1.25,1.25s0.56,1.25,1.25,1.25h10c0.69,0,1.25-0.56,1.25-1.25S268.69,396.25,268,396.25z M268,401.25h-19
				c-0.69,0-1.25,0.56-1.25,1.25s0.56,1.25,1.25,1.25h19c0.69,0,1.25-0.56,1.25-1.25S268.69,401.25,268,401.25z"/>
		</g>
	</g>
	<g>
		<g>
			<path class="st2" d="M207.75,379.42h-2c-1.1,0-2,0.9-2,2v26c0,1.1,0.9,2,2,2h2c1.1,0,2-0.9,2-2v-26
				C209.75,380.32,208.85,379.42,207.75,379.42z"/>
			<path class="st2" d="M200.61,382.3l-22.5,6.33c-0.22,0.06-0.36,0.26-0.36,0.48v11.94h0v3.97c0,1.63,1.18,3.02,2.78,3.29
				l7.33,1.22c0.18,0.03,0.37,0.05,0.55,0.05c0.78,0,1.54-0.28,2.15-0.79c0.75-0.63,1.18-1.56,1.18-2.54v-1.4l8.87,2.4
				c0.32,0.09,0.63-0.15,0.63-0.48v-23.98C201.25,382.45,200.93,382.21,200.61,382.3z M188.75,406.25c0,0.13-0.06,0.21-0.12,0.25
				c-0.05,0.05-0.14,0.1-0.27,0.07c0,0,0,0,0,0l-7.33-1.22c-0.16-0.03-0.28-0.17-0.28-0.33v-3.16l8,2.17V406.25z M174.75,389.42
				h-1.5c-1.1,0-2,0.9-2,2v7c0,1.1,0.9,2,2,2h1.5c0.28,0,0.5-0.22,0.5-0.5v-10C175.25,389.65,175.03,389.42,174.75,389.42z"/>
		</g>
	</g>
	<g>
		<g>
			<path class="st2" d="M105.25,388.5c-1.1,0-2,0.9-2,2v17c0,1.1,0.9,2,2,2s2-0.9,2-2v-17C107.25,389.4,106.35,388.5,105.25,388.5z"
				/>
			<path class="st2" d="M139.75,379.5h-28c-1.1,0-2,0.93-2,2.07v27.93h28c2.21,0,4-1.85,4-4.14v-23.79
				C141.75,380.43,140.85,379.5,139.75,379.5z M127.75,385.5c0-0.55,0.45-1,1-1h6c0.55,0,1,0.45,1,1v6c0,0.55-0.45,1-1,1h-6
				c-0.55,0-1-0.45-1-1V385.5z M116.25,385.75h6c0.69,0,1.25,0.56,1.25,1.25s-0.56,1.25-1.25,1.25h-6c-0.69,0-1.25-0.56-1.25-1.25
				S115.56,385.75,116.25,385.75z M116.25,390.75h6c0.69,0,1.25,0.56,1.25,1.25s-0.56,1.25-1.25,1.25h-6
				c-0.69,0-1.25-0.56-1.25-1.25S115.56,390.75,116.25,390.75z M135.25,403.25h-19c-0.69,0-1.25-0.56-1.25-1.25s0.56-1.25,1.25-1.25
				h19c0.69,0,1.25,0.56,1.25,1.25S135.94,403.25,135.25,403.25z M135.25,398.25h-19c-0.69,0-1.25-0.56-1.25-1.25
				s0.56-1.25,1.25-1.25h19c0.69,0,1.25,0.56,1.25,1.25S135.94,398.25,135.25,398.25z"/>
		</g>
	</g>
	<g>
		<g>
			<path class="st2" d="M50.33,413.34c0,1.1,0.9,2,2,2h4c1.1,0,2-0.9,2-2v-8.5h-8V413.34z M54.5,373.66c-4.6,0-8.34,3.73-8.34,8.34
				s3.56,6.67,8.17,6.67c4.6,0,8.51-2.06,8.51-6.67S59.1,373.66,54.5,373.66z"/>
			<path class="st2" d="M60.33,391.34h-12c-1.1,0-2,0.9-2,2v7c0,1.1,0.9,2,2,2h12c1.1,0,2-0.9,2-2v-7
				C62.33,392.23,61.43,391.34,60.33,391.34z M58.33,399.84h-8c-0.55,0-1-0.45-1-1c0-0.55,0.45-1,1-1h8c0.55,0,1,0.45,1,1
				C59.33,399.39,58.88,399.84,58.33,399.84z M58.33,395.84h-8c-0.55,0-1-0.45-1-1c0-0.55,0.45-1,1-1h8c0.55,0,1,0.45,1,1
				C59.33,395.39,58.88,395.84,58.33,395.84z"/>
		</g>
	</g>
	<g>
		<g>
			<path class="st2" d="M386.5,313.5l19,0v-2c0-2.21-1.79-4-4-4h-16c-2.21,0-4,1.79-4,4v30c0,2.21,1.79,4,4,4h16c2.21,0,4-1.79,4-4
				v-8h-4v2c0,0.55-0.45,1-1,1h-14c-0.55,0-1-0.45-1-1v-21C385.5,313.95,385.95,313.5,386.5,313.5z M394.5,343h-2c-1.1,0-2-0.9-2-2
				l0,0c0-1.1,0.9-2,2-2h2c1.1,0,2,0.9,2,2l0,0C396.5,342.1,395.6,343,394.5,343z"/>
			<path class="st2" d="M405.5,316h-14c-1.1,0-2,0.9-2,2v14c0,0.82,0.94,1.29,1.6,0.8l1.87-1.4c0.35-0.26,0.77-0.4,1.2-0.4h11.33
				c1.1,0,2-0.9,2-2v-11C407.5,316.9,406.6,316,405.5,316z M399.5,327.75h-5c-0.69,0-1.25-0.56-1.25-1.25
				c0-0.69,0.56-1.25,1.25-1.25h5c0.69,0,1.25,0.56,1.25,1.25C400.75,327.19,400.19,327.75,399.5,327.75z M403.5,322.75h-9
				c-0.69,0-1.25-0.56-1.25-1.25c0-0.69,0.56-1.25,1.25-1.25h9c0.69,0,1.25,0.56,1.25,1.25
				C404.75,322.19,404.19,322.75,403.5,322.75z"/>
		</g>
	</g>
	<g>
		<g>
			<g>
				<path class="st2" d="M341.5,323.44c0-8.28-6.72-15-15-15s-15,6.72-15,15c0,7.65,5.74,13.96,13.14,14.87
					c-0.24,1.03-0.97,1.86-1.94,2.25h-3.21c-1.1,0-2,0.9-2,2c0,1.1,0.9,2,2,2h14c1.1,0,2-0.9,2-2c0-1.1-0.9-2-2-2h-3.2
					c-0.96-0.39-1.69-1.22-1.94-2.25C335.76,337.39,341.5,331.09,341.5,323.44z M326.5,310.71c0.75,0,1.36,0.61,1.36,1.36
					c0,0.75-0.61,1.36-1.36,1.36s-1.36-0.61-1.36-1.36C325.14,311.32,325.75,310.71,326.5,310.71z M326.5,331.89
					c-4.66,0-8.45-3.79-8.45-8.45c0-4.66,3.79-8.45,8.45-8.45s8.45,3.79,8.45,8.45C334.95,328.1,331.16,331.89,326.5,331.89z"/>
				<path class="st2" d="M326.5,317.98c-3.01,0-5.45,2.44-5.45,5.45c0,3.01,2.44,5.45,5.45,5.45s5.45-2.44,5.45-5.45
					C331.95,320.42,329.51,317.98,326.5,317.98z"/>
			</g>
		</g>
	</g>
	<g>
		<g>
			<path class="st2" d="M279.68,335.89h0.02l-2.2-0.75v-7.44c-0.17,0.02-0.33,0.05-0.5,0.05h-3.5v6.02h-30v-19h15v-2.52
				c0-0.52,0.11-1.02,0.27-1.48H241.5c-1.1,0-2,0.9-2,2v22.37l-2.2,0.75h0.02c-0.77,0.28-1.32,1.01-1.32,1.87v3c0,1.1,0.9,2,2,2h41
				c1.1,0,2-0.9,2-2v-3C281,336.9,280.45,336.17,279.68,335.89z M261,339.7h-5c-0.83,0-1.5-0.67-1.5-1.5s0.67-1.5,1.5-1.5h5
				c0.83,0,1.5,0.67,1.5,1.5S261.83,339.7,261,339.7z M250.81,324.73c2.14,0.97,4.22-0.57,4.22-2.6c0-1.6-1.3-2.89-2.89-2.89
				c-2.03,0-3.56,2.08-2.6,4.22C249.8,324.02,250.25,324.48,250.81,324.73z M247.28,329.84v0.68c0,0.4,0.3,0.72,0.67,0.72h8.39
				c0.37,0,0.67-0.32,0.67-0.72v-0.68c0-1.3-0.98-2.36-2.19-2.36h-5.35C248.26,327.48,247.28,328.54,247.28,329.84z"/>
			<path class="st2" d="M277,310.24h-14c-1.1,0-2,0.9-2,2v14c0,0.59,0.49,1,1,1c0.2,0,0.41-0.06,0.6-0.2l1.87-1.4
				c0.35-0.26,0.77-0.4,1.2-0.4H277c1.1,0,2-0.9,2-2v-11C279,311.14,278.1,310.24,277,310.24z M273.61,318.09l-4.09,2.51
				c-0.67,0.41-1.52-0.07-1.52-0.85v-5.01c0-0.78,0.86-1.26,1.52-0.85l4.09,2.51C274.25,316.78,274.25,317.7,273.61,318.09z"/>
		</g>
	</g>
	<g>
		<g>
			<path class="st2" d="M199.5,309.5h-18V308c0-1.38-1.12-2.5-2.5-2.5c-1.38,0-2.5,1.12-2.5,2.5v35.5c0,2.21,1.79,4,4,4h19
				c2.21,0,4-1.79,4-4v-30C203.5,311.29,201.71,309.5,199.5,309.5z M184,343.5h-2c-0.83,0-1.5-0.67-1.5-1.5s0.67-1.5,1.5-1.5h2
				c0.83,0,1.5,0.67,1.5,1.5S184.83,343.5,184,343.5z M184,338.5h-2c-0.83,0-1.5-0.67-1.5-1.5s0.67-1.5,1.5-1.5h2
				c0.83,0,1.5,0.67,1.5,1.5S184.83,338.5,184,338.5z M184,333.5h-2c-0.83,0-1.5-0.67-1.5-1.5s0.67-1.5,1.5-1.5h2
				c0.83,0,1.5,0.67,1.5,1.5S184.83,333.5,184,333.5z M191,343.5h-2c-0.83,0-1.5-0.67-1.5-1.5s0.67-1.5,1.5-1.5h2
				c0.83,0,1.5,0.67,1.5,1.5S191.83,343.5,191,343.5z M191,338.5h-2c-0.83,0-1.5-0.67-1.5-1.5s0.67-1.5,1.5-1.5h2
				c0.83,0,1.5,0.67,1.5,1.5S191.83,338.5,191,338.5z M191,333.5h-2c-0.83,0-1.5-0.67-1.5-1.5s0.67-1.5,1.5-1.5h2
				c0.83,0,1.5,0.67,1.5,1.5S191.83,333.5,191,333.5z M198,343.5h-2c-0.83,0-1.5-0.67-1.5-1.5s0.67-1.5,1.5-1.5h2
				c0.83,0,1.5,0.67,1.5,1.5S198.83,343.5,198,343.5z M198,338.5h-2c-0.83,0-1.5-0.67-1.5-1.5s0.67-1.5,1.5-1.5h2
				c0.83,0,1.5,0.67,1.5,1.5S198.83,338.5,198,338.5z M198,333.5h-2c-0.83,0-1.5-0.67-1.5-1.5s0.67-1.5,1.5-1.5h2
				c0.83,0,1.5,0.67,1.5,1.5S198.83,333.5,198,333.5z M199.5,326c0,0.55-0.45,1-1,1h-17c-0.55,0-1-0.45-1-1v-9c0-0.55,0.45-1,1-1h17
				c0.55,0,1,0.45,1,1V326z"/>
			<path class="st2" d="M195.5,321.53h-11c-0.69,0-1.25,0.56-1.25,1.25s0.56,1.25,1.25,1.25h11c0.69,0,1.25-0.56,1.25-1.25
				S196.19,321.53,195.5,321.53z"/>
		</g>
	</g>
	<g>
		<g>
			<path class="st2" d="M131.5,313.26v-0.96c0-1.1-0.9-2-2-2h-1c-1.1,0-2,0.9-2,2v0.91h-8v-1.91c0-0.55-0.45-1-1-1v-3.5
				c0-0.83-0.67-1.5-1.5-1.5s-1.5,0.67-1.5,1.5v3.5c-0.55,0-1,0.45-1,1v1.96c-1.97,0.25-3.5,1.91-3.5,3.95v10.5
				c0,1.26,0.59,2.37,1.5,3.1v12.9c0,2.21,1.79,4,4,4h14c2.21,0,4-1.79,4-4v-12.9c0.91-0.73,1.5-1.84,1.5-3.1v-10.5
				C135,315.17,133.47,313.51,131.5,313.26z M127.5,341.46h-10c-0.69,0-1.25-0.56-1.25-1.25c0-0.69,0.56-1.25,1.25-1.25h10
				c0.69,0,1.25,0.56,1.25,1.25C128.75,340.9,128.19,341.46,127.5,341.46z M127.5,336.46h-10c-0.69,0-1.25-0.56-1.25-1.25
				s0.56-1.25,1.25-1.25h10c0.69,0,1.25,0.56,1.25,1.25S128.19,336.46,127.5,336.46z M131.5,325.93c0,0.48-0.47,0.86-1.06,0.86
				h-15.88c-0.58,0-1.06-0.39-1.06-0.86v-7.77c0-0.48,0.47-0.86,1.06-0.86h15.88c0.58,0,1.06,0.39,1.06,0.86V325.93z"/>
			<path class="st2" d="M128,321.47h-11c-0.69,0-1.25,0.56-1.25,1.25c0,0.69,0.56,1.25,1.25,1.25h11c0.69,0,1.25-0.56,1.25-1.25
				C129.25,322.03,128.69,321.47,128,321.47z"/>
		</g>
	</g>
	<g>
		<g>
			<path class="st2" d="M59.87,308.28c-0.68-0.48-1.61-0.32-2.09,0.36l-4.34,6.11l-3.26-4.17c-0.51-0.65-1.45-0.77-2.11-0.26
				c-0.65,0.51-0.77,1.45-0.26,2.11l4.5,5.75c0.28,0.36,0.72,0.58,1.18,0.58h0.04c0.47-0.01,0.91-0.25,1.19-0.63l5.5-7.75
				C60.7,309.69,60.54,308.76,59.87,308.28z"/>
			<path class="st2" d="M71.5,316h-34c-2.21,0-4,1.79-4,4v21c0,2.21,1.79,4,4,4h34c2.21,0,4-1.79,4-4v-21
				C75.5,317.79,73.71,316,71.5,316z M62.5,337c0,2.21-1.79,4-4,4h-17c-2.21,0-4-1.79-4-4v-13c0-2.21,1.79-4,4-4h17
				c2.21,0,4,1.79,4,4V337z M68.5,337.3c-1.27,0-2.3-1.03-2.3-2.3s1.03-2.3,2.3-2.3s2.3,1.03,2.3,2.3S69.77,337.3,68.5,337.3z
				 M68.5,328.3c-1.27,0-2.3-1.03-2.3-2.3s1.03-2.3,2.3-2.3s2.3,1.03,2.3,2.3S69.77,328.3,68.5,328.3z"/>
		</g>
	</g>
	<g>
		<g>
			<path class="st2" d="M398.17,255.55c-0.02-0.19-0.08-0.38-0.16-0.56c-0.01-0.03-0.03-0.05-0.04-0.08
				c-0.09-0.18-0.21-0.36-0.36-0.52c-1.43-1.43-3.31-2.14-5.18-2.14c-1.88,0-3.75,0.71-5.18,2.14l-6.91,6.91
				c-2.86,2.86-2.86,7.51,0,10.37c1.43,1.43,3.31,2.14,5.18,2.14c1.88,0,3.75-0.71,5.18-2.14l4.07-4.07
				c-1.45-0.25-2.81-0.81-4.02-1.63l-2.87,2.87c-1.26,1.26-3.45,1.26-4.71,0c-1.3-1.3-1.3-3.41,0-4.71l3.78-3.78c0,0,0,0,0,0
				l3.13-3.13c0.32-0.32,0.69-0.56,1.09-0.72c0.21-0.08,0.42-0.15,0.64-0.19c0,0,0,0,0,0c1.05-0.2,2.17,0.11,2.98,0.91
				c0.78,0.78,2.05,0.78,2.83,0c0.27-0.27,0.44-0.6,0.53-0.95c0-0.01,0.01-0.02,0.01-0.03c0.04-0.2,0.05-0.4,0.04-0.6
				C398.18,255.61,398.18,255.58,398.17,255.55z"/>
			<path class="st2" d="M408.66,245.34c-1.38-1.38-3.22-2.15-5.18-2.15c-1.96,0-3.8,0.76-5.18,2.15l-4.07,4.07
				c1.42,0.25,2.79,0.79,4.02,1.63l2.88-2.88c1.26-1.26,3.45-1.26,4.71,0c0.63,0.63,0.98,1.47,0.98,2.36c0,0.89-0.35,1.73-0.98,2.35
				l-1.27,1.27c0,0,0,0,0,0.01l-5.64,5.64c-1.26,1.26-3.45,1.26-4.71,0c-0.78-0.78-2.05-0.78-2.83,0c-0.78,0.78-0.78,2.05,0,2.83
				c1.38,1.38,3.22,2.15,5.18,2.15c1.96,0,3.8-0.76,5.18-2.15l5.64-5.64c0,0,0,0,0.01,0l1.27-1.27c1.38-1.38,2.15-3.22,2.15-5.18
				C410.81,248.56,410.05,246.72,408.66,245.34z"/>
		</g>
	</g>
	<g>
		<g>
			<g>
				<g>
					<path class="st2" d="M340.35,265.19l-3.93-2.12c-0.96-0.52-1.7-0.14-2.53,0.99c-1.81,2.49-2.69,2.98-4.91,1.74
						c-2.07-1.16-3.56-2.53-5.42-4.39c-1.86-1.86-3.24-3.34-4.39-5.42c-1.24-2.22-0.75-3.1,1.74-4.91c1.13-0.82,1.51-1.57,0.99-2.53
						l-2.12-3.93c-0.87-1.67-2.09-1.86-3.91-1.25c-2.5,0.85-4.93,4.46-4.81,6.18c0.36,5.02,2.87,11.04,8.1,16.27
						c5.23,5.23,11.25,7.74,16.27,8.1c1.72,0.12,5.31-2.32,6.16-4.83C342.22,267.29,342.03,266.06,340.35,265.19z"/>
					<path class="st2" d="M328.6,250.06c-0.83,0.01-1.49,0.68-1.49,1.51c0.01,0.82,0.68,1.49,1.5,1.49c0.01,0,0.03,0,0.04,0
						c0.89,0,1.73,0.34,2.36,0.97c0.63,0.63,0.98,1.48,0.97,2.38c-0.01,0.83,0.66,1.51,1.49,1.51h0.01c0.82,0,1.49-0.66,1.5-1.49
						c0.01-1.71-0.64-3.32-1.85-4.53C331.92,250.7,330.29,250.07,328.6,250.06z M337.55,247.48c-2.39-2.39-5.61-3.7-8.95-3.69
						c-0.83,0-1.5,0.68-1.49,1.51c0,0.83,0.67,1.49,1.5,1.49c0.01,0,0.03,0,0.04,0c2.56,0,4.97,1,6.78,2.81
						c1.82,1.82,2.82,4.24,2.81,6.82c0,0.83,0.67,1.5,1.49,1.51h0.01c0.83,0,1.5-0.67,1.5-1.49
						C341.25,253.05,339.94,249.87,337.55,247.48z"/>
				</g>
			</g>
		</g>
	</g>
	<g>
		<g>
			<path class="st2" d="M271,248.39h-25c-0.55,0-1,0.45-1,1v27c0,0.55,0.45,1,1,1h25c0.55,0,1-0.45,1-1v-27
				C272,248.83,271.55,248.39,271,248.39z M250.25,253.23h6.25c0.69,0,1.25,0.56,1.25,1.25s-0.56,1.25-1.25,1.25h-6.25
				c-0.69,0-1.25-0.56-1.25-1.25S249.56,253.23,250.25,253.23z M250.25,259.14h6.25c0.69,0,1.25,0.56,1.25,1.25
				c0,0.69-0.56,1.25-1.25,1.25h-6.25c-0.69,0-1.25-0.56-1.25-1.25C249,259.7,249.56,259.14,250.25,259.14z M265.5,273.64h-15.25
				c-0.69,0-1.25-0.56-1.25-1.25c0-0.69,0.56-1.25,1.25-1.25h15.25c0.69,0,1.25,0.56,1.25,1.25
				C266.75,273.08,266.19,273.64,265.5,273.64z M265.5,267.64h-15.25c-0.69,0-1.25-0.56-1.25-1.25c0-0.69,0.56-1.25,1.25-1.25h15.25
				c0.69,0,1.25,0.56,1.25,1.25C266.75,267.08,266.19,267.64,265.5,267.64z M267,259.98c0,0.55-0.45,1-1,1h-4c-0.55,0-1-0.45-1-1
				v-5.5c0-0.55,0.45-1,1-1h4c0.55,0,1,0.45,1,1V259.98z"/>
			<path class="st2" d="M267.8,239.64l-22.16,4.6c-0.37,0.09-0.63,0.42-0.63,0.8c0,0.46,0.37,0.82,0.82,0.82H268c0.55,0,1-0.45,1-1
				v-4.25C269,239.98,268.42,239.51,267.8,239.64z"/>
		</g>
	</g>
	<g>
		<g>
			<path class="st2" d="M190.5,239c-10.75,0-19.5,8.75-19.5,19.5c0,1.2,0.11,2.41,0.33,3.58c0.15,0.82,0.94,1.36,1.75,1.2
				c0.81-0.15,1.35-0.93,1.2-1.75c-0.18-1-0.28-2.02-0.28-3.04c0-1.56,0.23-3.07,0.64-4.5h5.64c-0.18,1.44-0.28,2.94-0.28,4.5
				c0,0.83,0.67,1.5,1.5,1.5s1.5-0.67,1.5-1.5c0-1.49,0.11-3.01,0.33-4.5H189v20.93c-1.16-0.1-2.3-0.32-3.4-0.66
				c-0.79-0.25-1.63,0.2-1.88,0.99c-0.25,0.79,0.2,1.63,0.99,1.88c1.87,0.58,3.82,0.87,5.79,0.87c10.75,0,19.5-8.75,19.5-19.5
				C210,247.75,201.25,239,190.5,239z M180.78,251h-4.96c1.71-3.33,4.51-6,7.93-7.54C182.45,245.46,181.43,248.04,180.78,251z
				 M189,251h-5.09c1.01-4.13,2.81-7.57,5.09-8.65V251z M205.18,251h-4.96c-0.65-2.96-1.67-5.54-2.97-7.54
				C200.67,245,203.47,247.67,205.18,251z M192,242.35c2.29,1.07,4.08,4.51,5.09,8.65H192V242.35z M192,254h5.67
				c0.21,1.49,0.33,3.01,0.33,4.5s-0.11,3.01-0.33,4.5H192V254z M192,274.64V266h5.09C196.08,270.13,194.29,273.57,192,274.64z
				 M197.25,273.54c1.3-2,2.32-4.58,2.97-7.54h4.96C203.47,269.33,200.67,272,197.25,273.54z M200.72,263
				c0.18-1.44,0.28-2.94,0.28-4.5s-0.1-3.06-0.28-4.5h5.64c0.41,1.43,0.64,2.94,0.64,4.5s-0.23,3.07-0.64,4.5H200.72z"/>
			<path class="st2" d="M184.72,261.86l-9.04,2.94c-0.82,0.27-0.94,1.37-0.2,1.81l2.21,1.31l-5.14,5.14c-0.39,0.39-0.39,1.02,0,1.41
				l0.76,0.77c0.39,0.39,1.02,0.39,1.41,0l5.19-5.19l1.28,2.22c0.43,0.75,1.54,0.64,1.82-0.18l2.97-8.97
				C186.23,262.35,185.5,261.61,184.72,261.86z"/>
		</g>
	</g>
	<g>
		<g>
			<path class="st2" d="M111,245.65h-8c-1.1,0-2,0.9-2,2v26.19c0,1.1,0.9,2,2,2h8c1.1,0,2-0.9,2-2v-26.19
				C113,246.55,112.1,245.65,111,245.65z M140,248.65L140,248.65l0-4.5c0-1.65-1.35-3-3-3h-15c-1.65,0-3,1.35-3,3v4.5h-3.5v25.19
				c0,0.34-0.05,0.68-0.12,1H140c2.21,0,4-1.79,4-4v-18.19C144,250.44,142.21,248.65,140,248.65z M121.5,244.15
				c0-0.28,0.22-0.5,0.5-0.5h15c0.28,0,0.5,0.22,0.5,0.5v12.88c0,0.28-0.22,0.5-0.5,0.5h-15c-0.28,0-0.5-0.22-0.5-0.5V244.15z
				 M123.5,270.53h-2c-0.83,0-1.5-0.67-1.5-1.5s0.67-1.5,1.5-1.5h2c0.83,0,1.5,0.67,1.5,1.5S124.33,270.53,123.5,270.53z
				 M123.5,265.53h-2c-0.83,0-1.5-0.67-1.5-1.5s0.67-1.5,1.5-1.5h2c0.83,0,1.5,0.67,1.5,1.5S124.33,265.53,123.5,265.53z
				 M130.5,270.53h-2c-0.83,0-1.5-0.67-1.5-1.5s0.67-1.5,1.5-1.5h2c0.83,0,1.5,0.67,1.5,1.5S131.33,270.53,130.5,270.53z
				 M130.5,265.53h-2c-0.83,0-1.5-0.67-1.5-1.5s0.67-1.5,1.5-1.5h2c0.83,0,1.5,0.67,1.5,1.5S131.33,265.53,130.5,265.53z
				 M137.5,270.53h-2c-0.83,0-1.5-0.67-1.5-1.5s0.67-1.5,1.5-1.5h2c0.83,0,1.5,0.67,1.5,1.5S138.33,270.53,137.5,270.53z
				 M137.5,265.53h-2c-0.83,0-1.5-0.67-1.5-1.5s0.67-1.5,1.5-1.5h2c0.83,0,1.5,0.67,1.5,1.5S138.33,265.53,137.5,265.53z"/>
			<path class="st2" d="M129.59,251.92h-4c-0.69,0-1.25,0.56-1.25,1.25c0,0.69,0.56,1.25,1.25,1.25h4c0.69,0,1.25-0.56,1.25-1.25
				C130.84,252.48,130.28,251.92,129.59,251.92z M133.59,246.92h-8c-0.69,0-1.25,0.56-1.25,1.25c0,0.69,0.56,1.25,1.25,1.25h8
				c0.69,0,1.25-0.56,1.25-1.25C134.84,247.48,134.28,246.92,133.59,246.92z"/>
		</g>
	</g>
	<g>
		<g>
			<path class="st2" d="M45.48,261.5c-0.49-0.49-1.21-0.55-1.62-0.15l-8.43,8.43c-0.41,0.41-0.34,1.13,0.15,1.62l6.01,6.01
				c0.49,0.49,1.21,0.55,1.62,0.15l8.43-8.43c0.41-0.41,0.34-1.13-0.15-1.62L45.48,261.5z M73.42,245.6l-6.01-6.01
				c-0.49-0.49-1.21-0.55-1.62-0.15l-8.43,8.43c-0.41,0.41-0.34,1.13,0.15,1.62l6.02,6.01c0.49,0.49,1.21,0.55,1.62,0.15l8.43-8.43
				C73.97,246.81,73.9,246.08,73.42,245.6z"/>
			<path class="st2" d="M70.13,261.85c-2.3-1.69-5.63-1.64-8.5,0.01c0.7-1.09,0.97-1.97,1.05-2.6c0.08-0.61-0.14-1.22-0.57-1.65
				l-7.95-7.95c-1.32-1.32-3.32-1.51-4.85-0.61l-0.81-0.81c-1.17-1.17-3.07-1.17-4.24,0c-1.17,1.17-1.17,3.07,0,4.24l0.81,0.81
				c-0.9,1.53-0.71,3.53,0.61,4.85l8.02,8.02c0.41,0.41,0.97,0.64,1.54,0.58c0.59-0.05,1.41-0.29,2.44-0.94
				c-1.65,2.88-1.71,6.23-0.01,8.53c0.31,0.41,0.89,0.53,1.33,0.26c1.09-0.67,3.24-2.09,5.47-4.17l0.97,0.97
				c-0.22,0.83-0.01,1.75,0.64,2.41c0.98,0.98,2.56,0.98,3.54,0c0.98-0.98,0.98-2.56,0-3.54c-0.65-0.65-1.57-0.86-2.41-0.64
				l-0.97-0.97c2.02-2.2,3.47-4.37,4.16-5.46C70.66,262.74,70.55,262.15,70.13,261.85z M49.73,256.49
				c-0.24,0.24-0.56,0.37-0.88,0.37c-0.32,0-0.64-0.12-0.88-0.37l-0.76-0.76c-0.49-0.49-0.49-1.28,0-1.77
				c0.49-0.49,1.28-0.49,1.77,0l0.76,0.76C50.21,255.22,50.21,256.01,49.73,256.49z M55.5,262.27c-0.24,0.24-0.56,0.37-0.88,0.37
				s-0.64-0.12-0.88-0.37l-2.47-2.47c-0.49-0.49-0.49-1.28,0-1.77s1.28-0.49,1.77,0l2.47,2.47
				C55.99,260.99,55.99,261.78,55.5,262.27z"/>
		</g>
	</g>
	<g>
		<g>
			<path class="st2" d="M411.21,183.03l-14.53-9.05c-1.33-0.83-3.02-0.83-4.35,0l-14.53,9.05c-1.11,0.69-1.77,1.88-1.77,3.16v17.7
				c0,2.07,1.72,3.75,3.85,3.75h29.26c2.13,0,3.85-1.68,3.85-3.75v-17.7C412.98,184.91,412.31,183.72,411.21,183.03z M389.77,197.99
				l-9,7c-0.23,0.18-0.5,0.26-0.77,0.26c-0.37,0-0.74-0.17-0.99-0.48c-0.42-0.54-0.33-1.33,0.22-1.75l9-7
				c0.54-0.42,1.33-0.33,1.75,0.22C390.41,196.78,390.31,197.56,389.77,197.99z M393.31,195.05l-11.4-8.07
				c-1.26-0.89-0.61-2.84,0.95-2.84h23.28c1.56,0,2.21,1.94,0.95,2.84l-11.4,8.07C394.98,195.55,394.02,195.55,393.31,195.05z
				 M409.99,204.77c-0.25,0.32-0.62,0.48-0.99,0.48c-0.27,0-0.54-0.09-0.77-0.26l-9-7c-0.54-0.42-0.64-1.21-0.22-1.75
				c0.42-0.54,1.21-0.64,1.75-0.22l9,7C410.31,203.44,410.41,204.22,409.99,204.77z"/>
			<path class="st2" d="M399,186.5h-8c-0.83,0-1.5,0.67-1.5,1.5s0.67,1.5,1.5,1.5h8c0.83,0,1.5-0.67,1.5-1.5S399.83,186.5,399,186.5
				z"/>
		</g>
	</g>
	<g>
		<g>
			<g>
				<path class="st2" d="M323.25,206.54V207c0,1.66,1.34,3,3,3h0.5c1.66,0,3-1.34,3-3v-0.46H323.25z"/>
				<path class="st2" d="M339.3,197.27c-1.98-2.76-3.05-6.07-3.05-9.47v-2.92c0-4.67-3.17-8.8-7.58-9.83V173c0-1.1-0.9-2-2-2h-0.33
					c-1.1,0-2,0.9-2,2v2.04c-4.34,0.99-7.58,4.86-7.58,9.5v3.25c0,3.4-1.07,6.71-3.05,9.47c-0.13,0.18-0.2,0.4-0.2,0.62v5.07
					c0,0.6,0.49,1.08,1.08,1.08h23.83c0.6,0,1.08-0.49,1.08-1.08v-5.07C339.5,197.66,339.43,197.45,339.3,197.27z"/>
			</g>
		</g>
	</g>
	<g>
		<g>
			<path class="st2" d="M273,174.26h-4c-1.1,0-2,0.9-2,2s-0.9,2-2,2s-2-0.9-2-2s-0.9-2-2-2h-5c-1.1,0-2,0.9-2,2s-0.9,2-2,2
				s-2-0.9-2-2s-0.9-2-2-2h-4c-1.1,0-2,0.9-2,2v23c0,1.1,0.9,2,2,2h29c1.1,0,2-0.9,2-2v-23C275,175.15,274.1,174.26,273,174.26z
				 M250.64,183.35c1.6,0,2.89,1.3,2.89,2.89s-1.3,2.89-2.89,2.89c-1.6,0-2.89-1.3-2.89-2.89S249.04,183.35,250.64,183.35z
				 M255.5,194.63c0,0.4-0.3,0.72-0.67,0.72h-8.39c-0.37,0-0.67-0.32-0.67-0.72v-0.68c0-1.3,0.98-2.36,2.19-2.36h5.35
				c1.21,0,2.19,1.06,2.19,2.36V194.63z M269,194.01h-9c-0.69,0-1.25-0.56-1.25-1.25s0.56-1.25,1.25-1.25h9
				c0.69,0,1.25,0.56,1.25,1.25S269.69,194.01,269,194.01z M269,189.01h-9c-0.69,0-1.25-0.56-1.25-1.25s0.56-1.25,1.25-1.25h9
				c0.69,0,1.25,0.56,1.25,1.25S269.69,189.01,269,189.01z"/>
			<path class="st2" d="M272,203.74h-28c-0.83,0-1.5,0.67-1.5,1.5s0.67,1.5,1.5,1.5h28c0.83,0,1.5-0.67,1.5-1.5
				S272.83,203.74,272,203.74z"/>
		</g>
	</g>
	<g>
		<g>
			<path class="st2" d="M190,170.24c-4.86,0-8.81,4.2-8.81,9.38s3.94,7.13,8.81,7.13s8.81-1.95,8.81-7.13S194.86,170.24,190,170.24z
				"/>
			<path class="st2" d="M190,189.26c-2.35,0-4.38-0.4-6.05-1.16l1.88,20.66c0,1.1,0.9,2,2,2h4c1.1,0,2-0.9,2-2l1.86-20.49
				C194.09,188.91,192.18,189.26,190,189.26z M189.83,197.76c-0.83,0-1.5-0.67-1.5-1.5c0-0.83,0.67-1.5,1.5-1.5
				c0.83,0,1.5,0.67,1.5,1.5C191.33,197.08,190.66,197.76,189.83,197.76z"/>
		</g>
	</g>
	<g>
		<g>
			<g>
				<path class="st2" d="M137.25,187h-1.5c-0.28,0-0.5,0.22-0.5,0.5v6c0,0.28,0.22,0.5,0.5,0.5h1.5c1.1,0,2-0.9,2-2v-3
					C139.25,187.9,138.35,187,137.25,187z"/>
				<path class="st2" d="M130.75,174h-23c-1.1,0-2,0.9-2,2v4c0,1.1,0.9,2,2,2h0c1.1,0,2,0.9,2,2s-0.9,2-2,2h0c-1.1,0-2,0.9-2,2v5
					c0,1.1,0.9,2,2,2h0c1.1,0,2,0.9,2,2s-0.9,2-2,2h0c-1.1,0-2,0.9-2,2v4c0,1.1,0.9,2,2,2h23c1.1,0,2-0.9,2-2v-29
					C132.75,174.9,131.85,174,130.75,174z M128.01,196.45c-1.49,1.5-3.74,1.97-5.68,1.14c-0.43-0.19-0.88-0.42-1.36-0.73
					c0,0-1.61-0.81-3.17-2.4c-1.6-1.56-2.41-3.17-2.41-3.17c-0.31-0.48-0.55-0.93-0.73-1.36c-0.84-1.93-0.37-4.19,1.12-5.68
					c0.47-0.49,1.25-0.07,1.25-0.07l2.6,2.59c0.61,0.66,0.01,1.29,0.01,1.29l-1.59,1.59c0.17,0.77,1.96,2.6,1.96,2.6
					s1.83,1.8,2.6,1.95l1.58-1.58c0,0,0.62-0.6,1.29,0.01l2.59,2.59C128.08,195.2,128.5,195.97,128.01,196.45z M137.25,177.5h-1.5
					c-0.28,0-0.5,0.22-0.5,0.5v6c0,0.28,0.22,0.5,0.5,0.5h1.5c1.1,0,2-0.9,2-2v-3C139.25,178.4,138.35,177.5,137.25,177.5z
					 M137.25,196.4h-1.5c-0.28,0-0.5,0.22-0.5,0.5v6c0,0.28,0.22,0.5,0.5,0.5h1.5c1.1,0,2-0.9,2-2v-3
					C139.25,197.29,138.35,196.4,137.25,196.4z"/>
			</g>
		</g>
	</g>
	<g>
		<g>
			<circle class="st2" cx="54.5" cy="190.5" r="2"/>
			<path class="st2" d="M67.47,178.94c-3.59-3.87-8.67-5.83-13.95-5.38c-8.04,0.69-14.52,7-15.41,15.01
				c-0.53,4.84,1.01,9.67,4.23,13.27c3.23,3.61,7.87,5.68,12.72,5.66c0.71,0,1.41-0.39,1.72-1.04c0.71-1.48-0.34-2.94-1.74-2.96
				c-1.96-0.03-3.93-0.26-5.66-1.18c-5.25-2.79-7.89-7.89-7.29-13.31c0.67-6.02,5.73-10.95,11.77-11.46
				c4.04-0.34,7.94,1.16,10.68,4.12c1.59,1.71,2.47,4.02,2.46,6.5v3.86c0,0.84-0.49,1.66-1.3,1.91c-1.33,0.43-2.56-0.56-2.56-1.83
				v-7.51c0-0.94-0.6-1.82-1.51-2.04c-0.91-0.22-1.74,0.19-2.18,0.87c-1.81-1.27-4.11-1.88-6.57-1.43
				c-3.46,0.63-6.25,3.41-6.89,6.88c-1,5.47,3.2,10.26,8.49,10.26c2.53,0,4.8-1.1,6.39-2.84c1.28,1.28,3.15,1.98,5.15,1.66
				c2.75-0.44,4.96-3.28,4.96-6.06v-3.74C71,184.68,69.75,181.4,67.47,178.94z M55.76,194.98c-3.53,0.94-6.67-2.21-5.74-5.74
				c0.41-1.55,1.67-2.8,3.22-3.21c3.53-0.94,6.67,2.21,5.74,5.74C58.56,193.31,57.31,194.56,55.76,194.98z"/>
		</g>
	</g>
	<g>
		<g>
			<path class="st2" d="M407.75,115.28c-0.14,0-0.27,0.02-0.41,0.04c-1.42-5.9-6.64-10.29-12.86-10.29
				c-6.22,0-11.44,4.39-12.86,10.29c-0.12-0.02-0.25-0.04-0.37-0.04c-1.38,0-2.5,1.12-2.5,2.5v3c0,1.38,1.12,2.5,2.5,2.5
				c0.3,0,0.59-0.06,0.86-0.16c0.74,1.85,2.53,3.16,4.64,3.16c0.55,0,1-0.45,1-1c0-0.55-0.45-1-1-1c-1.65,0-3-1.35-3-3v-3.17
				c0.22-5.87,4.94-10.58,10.73-10.58c5.93,0,10.75,4.93,10.75,10.99c0,0.02,0.01,0.05,0.01,0.07v2.19c0,1.38,1.12,2.5,2.5,2.5
				c1.38,0,2.5-1.12,2.5-2.5v-3C410.25,116.4,409.13,115.28,407.75,115.28z"/>
			<path class="st2" d="M402.69,129.27h-2.93c-0.65,0-1.27,0.32-1.64,0.85l-2.05,2.94c-0.8,1.15-2.51,1.14-3.29-0.02l-1.96-2.89
				c-0.37-0.55-0.99-0.88-1.65-0.88h-2.88c-3.71,0-6.72,3.01-6.72,6.72v2.98c0,0.55,0.45,1,1,1h27.86c0.55,0,1-0.45,1-1v-2.98
				C409.41,132.28,406.4,129.27,402.69,129.27z M394.48,126.77c4.55,0,8.24-3.69,8.24-8.24c0-4.55-3.69-8.24-8.24-8.24
				c-4.55,0-8.24,3.69-8.24,8.24C386.24,123.08,389.93,126.77,394.48,126.77z"/>
		</g>
	</g>
	<g>
		<g>
			<path class="st2" d="M346.13,138.62l-1.8-5.4c-0.1-0.31-0.07-0.64,0.08-0.93c1.35-2.63,1.91-5.73,1.33-9
				c-0.9-5.01-4.57-9.18-9.33-10.78c1.23,2.97,1.6,6.27,0.99,9.54c-1.25,6.65-6.57,11.93-13.25,13.12
				c-0.86,0.16-1.74,0.23-2.61,0.25c2.03,2.19,4.74,3.74,7.76,4.29c3.25,0.58,6.34,0.04,8.96-1.29c0.29-0.15,0.62-0.18,0.92-0.08
				l5.42,1.81C345.55,140.47,346.45,139.57,346.13,138.62z"/>
			<path class="st2" d="M318.41,105.03c-5.63,1.05-10.14,5.62-11.15,11.26c-0.59,3.27-0.03,6.37,1.33,9
				c0.15,0.29,0.18,0.62,0.08,0.93l-1.8,5.4c-0.32,0.95,0.59,1.85,1.54,1.54l5.42-1.81c0.31-0.1,0.63-0.07,0.92,0.08
				c2.62,1.33,5.71,1.87,8.96,1.29c5.62-1.01,10.19-5.51,11.24-11.12C336.8,111.7,328.3,103.2,318.41,105.03z M322,123.25h-7
				c-0.69,0-1.25-0.56-1.25-1.25c0-0.69,0.56-1.25,1.25-1.25h7c0.69,0,1.25,0.56,1.25,1.25C323.25,122.69,322.69,123.25,322,123.25z
				 M327,118.25h-12c-0.69,0-1.25-0.56-1.25-1.25c0-0.69,0.56-1.25,1.25-1.25h12c0.69,0,1.25,0.56,1.25,1.25
				C328.25,117.69,327.69,118.25,327,118.25z"/>
		</g>
	</g>
	<g>
		<g>
			<path class="st2" d="M270.42,124.77l-2.27-2.67c-1.46-1.72-1.24-3.13-1.18-5.37c0.01-0.46-0.29-0.87-0.73-1l-2.63-0.75
				c-0.54-0.15-1.11,0.16-1.24,0.7c-0.44,1.9-2.01,3.7-3.88,3.7c-1.88,0-3.45-1.77-3.88-3.65c-0.12-0.54-0.69-0.85-1.22-0.71
				l-2.66,0.71c-0.45,0.12-0.76,0.54-0.74,1c0.06,2.08,0.25,3.69-1.18,5.38l-2.28,2.7c-1.05,1.24-1.63,2.82-1.63,4.45v5.67
				c0,1.57,1.28,2.85,2.85,2.85h21.43c1.61,0,2.92-1.31,2.92-2.92v-5.53C272.1,127.67,271.5,126.05,270.42,124.77z M258.5,132.78
				c-2.71,0-4.91-2.2-4.91-4.91c0-2.71,2.2-4.91,4.91-4.91c2.71,0,4.91,2.2,4.91,4.91C263.41,130.58,261.21,132.78,258.5,132.78z"/>
			<path class="st2" d="M276.21,112.41c-3.69-3.07-10.54-5.22-17.71-5.22c-7.17,0-14.03,2.15-17.71,5.22
				c-1.26,1.05-2.06,4.4-0.93,6.61c0.82,1.6,1.8,2.28,3.54,1.75l2.9-1.19c1.14-0.29,1.42-1.03,1.18-2.31
				c-0.53-2.83,0.26-3.73,2.8-4.38c2.37-0.6,5.66-0.67,8.21-0.67c2.55,0,5.84,0.07,8.21,0.67c2.54,0.65,3.33,1.55,2.8,4.38
				c-0.24,1.29,0.05,2.02,1.18,2.31l2.9,1.19c1.74,0.53,2.71-0.15,3.54-1.75C278.28,116.82,277.48,113.46,276.21,112.41z"/>
		</g>
	</g>
	<g>
		<g>
			<path class="st2" d="M204.93,105.94l-31.45,13.71c-1.54,0.67-1.62,2.84-0.12,3.61l6.38,3.29l19-13.22
				c0.2-0.14,0.41,0.03,0.42,0.21l-15.92,15.19c-0.4,0.38-0.62,0.9-0.62,1.45v7.04c0,2.02,2.65,2.77,3.71,1.04l3.86-6.32l8.17,4.22
				c1.15,0.59,2.56-0.05,2.86-1.31l6.45-26.61C208.06,106.64,206.44,105.28,204.93,105.94z"/>
		</g>
	</g>
	<g>
		<g>
			<path class="st2" d="M120.5,112.5h-3c-0.55,0-1,0.45-1,1v3c0,0.55,0.45,1,1,1h3c0.55,0,1-0.45,1-1v-3
				C121.5,112.95,121.05,112.5,120.5,112.5z M120.5,119.5h-3c-0.55,0-1,0.45-1,1v3c0,0.55,0.45,1,1,1h3c0.55,0,1-0.45,1-1v-3
				C121.5,119.95,121.05,119.5,120.5,119.5z M127.5,112.5h-3c-0.55,0-1,0.45-1,1v3c0,0.55,0.45,1,1,1h3c0.55,0,1-0.45,1-1v-3
				C128.5,112.95,128.05,112.5,127.5,112.5z"/>
			<path class="st2" d="M130.5,103.5h-16c-2.21,0-4,1.79-4,4v30c0,2.21,1.79,4,4,4h16c2.21,0,4-1.79,4-4v-30
				C134.5,105.29,132.71,103.5,130.5,103.5z M123.5,139h-2c-1.1,0-2-0.9-2-2c0-1.1,0.9-2,2-2h2c1.1,0,2,0.9,2,2
				C125.5,138.1,124.6,139,123.5,139z M130.5,131.5c0,0.55-0.45,1-1,1h-14c-0.55,0-1-0.45-1-1v-21c0-0.55,0.45-1,1-1h14
				c0.55,0,1,0.45,1,1V131.5z"/>
		</g>
	</g>
	<g>
		<g>
			<path class="st2" d="M53.5,138h-2c-0.74,0-1.38,0.4-1.72,1H41.5c-1.65,0-3-1.35-3-3c0-0.55-0.45-1-1-1s-1,0.45-1,1
				c0,2.76,2.24,5,5,5h8.28c0.35,0.6,0.98,1,1.72,1h2c1.1,0,2-0.9,2-2C55.5,138.9,54.6,138,53.5,138z"/>
			<path class="st2" d="M70.5,126.56h-0.29v-8.36c0-8.39-6.82-15.21-15.21-15.21s-15.21,6.82-15.21,15.21v8.36H39.5
				c-1.1,0-2,0.9-2,2v3c0,1.1,0.9,2,2,2h1v1c0,1.1,0.9,2,2,2h4c1.1,0,2-0.9,2-2v-9c0-1.1-0.9-2-2-2h-2.71v-5.36
				c0-6.18,5.03-11.21,11.21-11.21s11.21,5.03,11.21,11.21v5.36H63.5c-1.1,0-2,0.9-2,2v9c0,1.1,0.9,2,2,2h4c1.1,0,2-0.9,2-2v-1h1
				c1.1,0,2-0.9,2-2v-3C72.5,127.46,71.6,126.56,70.5,126.56z"/>
		</g>
	</g>
</g>
<g id="title" class="st0">
	<g class="st3">
		<path class="st2" d="M31.23,50.76c0-3.87,2.35-6.01,6.06-6.01c1.72,0,2.91,0.23,3.87,0.47c0.51,0.14,0.75,0.56,0.63,1.1
			l-0.21,0.96c-0.12,0.51-0.61,0.75-1.12,0.61c-0.63-0.14-1.49-0.33-2.7-0.33c-1.91,0-3.08,0.82-3.08,3.47v4.33
			c0,2.66,1.16,3.47,3.08,3.47c1.49,0,2.4-0.26,2.82-0.35c0.56-0.14,0.89,0.12,1,0.63l0.21,0.96c0.09,0.47-0.12,0.96-0.63,1.1
			c-0.54,0.14-1.93,0.47-3.87,0.47c-3.7,0-6.06-2.12-6.06-6.01V50.76z"/>
		<path class="st2" d="M44.28,51.69c0-4.01,2.4-6.94,6.55-6.94c4.15,0,6.55,2.94,6.55,6.94v2.98c0,4.01-2.4,6.94-6.55,6.94
			c-4.15,0-6.55-2.94-6.55-6.94V51.69z M53.93,54.42v-2.47c0-2.35-0.63-4.4-3.1-4.4c-2.45,0-3.1,2.05-3.1,4.4v2.47
			c0,2.38,0.65,4.4,3.1,4.4C53.3,58.82,53.93,56.79,53.93,54.42z"/>
		<path class="st2" d="M61.36,46.24c0.09-0.77,0.58-1.19,1.26-1.19h1.4c0.68,0,1.19,0.4,1.4,1.1l3.24,10.97
			c0.02,0.09,0.09,0.26,0.19,0.26s0.16-0.16,0.19-0.26l3.22-10.95c0.21-0.72,0.72-1.12,1.4-1.12h1.4c0.68,0,1.17,0.44,1.26,1.17
			l1.65,13.93c0.09,0.75-0.3,1.17-0.98,1.17h-1.12c-0.68,0-1.14-0.44-1.21-1.12l-0.61-6.08c-0.09-0.84-0.14-1.96-0.19-3.08
			c-0.21,1.14-0.44,2.24-0.7,3.08l-1,3.38c-0.44,1.51-1.33,2.82-3.31,2.82c-1.96,0-2.89-1.3-3.31-2.82l-1-3.52
			c-0.26-0.84-0.49-1.93-0.7-3.05c-0.05,1.14-0.09,2.26-0.19,3.12l-0.63,6.13c-0.07,0.68-0.51,1.14-1.19,1.14h-1.14
			c-0.68,0-1.07-0.44-0.98-1.17L61.36,46.24z"/>
		<path class="st2" d="M81.84,46.24c0.09-0.77,0.58-1.19,1.26-1.19h1.4c0.68,0,1.19,0.4,1.4,1.1l3.24,10.97
			c0.02,0.09,0.09,0.26,0.19,0.26s0.16-0.16,0.19-0.26l3.22-10.95c0.21-0.72,0.72-1.12,1.4-1.12h1.4c0.68,0,1.17,0.44,1.26,1.17
			l1.65,13.93c0.09,0.75-0.3,1.17-0.98,1.17h-1.12c-0.68,0-1.14-0.44-1.21-1.12l-0.61-6.08c-0.09-0.84-0.14-1.96-0.19-3.08
			c-0.21,1.14-0.44,2.24-0.7,3.08l-1,3.38c-0.44,1.51-1.33,2.82-3.31,2.82c-1.96,0-2.89-1.3-3.31-2.82l-1-3.52
			c-0.26-0.84-0.49-1.93-0.7-3.05c-0.05,1.14-0.09,2.26-0.19,3.12l-0.63,6.13c-0.07,0.68-0.51,1.14-1.19,1.14h-1.14
			c-0.68,0-1.07-0.44-0.98-1.17L81.84,46.24z"/>
		<path class="st2" d="M100.97,46.17c0-0.68,0.44-1.12,1.12-1.12h1.12c0.68,0,1.12,0.44,1.12,1.12v9.39c0,1.56,0.77,3.26,2.91,3.26
			c2.1,0,2.89-1.7,2.89-3.26v-9.39c0-0.68,0.44-1.12,1.12-1.12h1.12c0.68,0,1.12,0.44,1.12,1.12v8.99c0,4.01-2.19,6.45-6.24,6.45
			c-4.01,0-6.27-2.42-6.27-6.45V46.17z"/>
		<path class="st2" d="M116.67,46.17c0-0.68,0.44-1.12,1.12-1.12h0.93c0.68,0,1.19,0.37,1.56,1.03l5.17,9.13
			c-0.14-1.17-0.21-2.33-0.21-3.22v-5.83c0-0.68,0.44-1.12,1.12-1.12h1.07c0.68,0,1.12,0.44,1.12,1.12V60.2
			c0,0.68-0.44,1.12-1.12,1.12h-0.93c-0.68,0-1.21-0.37-1.58-1.03l-5.15-9.09c0.12,1.17,0.21,2.31,0.21,3.17v5.82
			c0,0.68-0.44,1.12-1.12,1.12h-1.07c-0.68,0-1.12-0.44-1.12-1.12V46.17z"/>
		<path class="st2" d="M132.09,46.17c0-0.68,0.44-1.12,1.12-1.12h1.12c0.68,0,1.12,0.44,1.12,1.12V60.2c0,0.68-0.44,1.12-1.12,1.12
			h-1.12c-0.68,0-1.12-0.44-1.12-1.12V46.17z"/>
		<path class="st2" d="M138.45,50.76c0-3.87,2.35-6.01,6.06-6.01c1.72,0,2.91,0.23,3.87,0.47c0.51,0.14,0.75,0.56,0.63,1.1
			l-0.21,0.96c-0.12,0.51-0.61,0.75-1.12,0.61c-0.63-0.14-1.49-0.33-2.7-0.33c-1.91,0-3.08,0.82-3.08,3.47v4.33
			c0,2.66,1.17,3.47,3.08,3.47c1.49,0,2.4-0.26,2.82-0.35c0.56-0.14,0.89,0.12,1,0.63l0.21,0.96c0.09,0.47-0.12,0.96-0.63,1.1
			c-0.54,0.14-1.93,0.47-3.87,0.47c-3.7,0-6.06-2.12-6.06-6.01V50.76z"/>
		<path class="st2" d="M154.55,47.61c0.4-1.54,1.54-2.87,3.49-2.87c1.91,0,3.08,1.37,3.47,2.87l3.29,12.47
			c0.16,0.63-0.19,1.23-0.91,1.23h-1.12c-0.68,0-1.14-0.47-1.3-1.12l-0.77-3.05h-5.31l-0.75,3.03c-0.19,0.75-0.58,1.14-1.26,1.14
			h-1.19c-0.72,0-1.05-0.63-0.89-1.26L154.55,47.61z M160.03,54.39l-1.58-6.38c-0.05-0.23-0.19-0.4-0.4-0.4
			c-0.23,0-0.35,0.16-0.4,0.4l-1.58,6.38H160.03z"/>
		<path class="st2" d="M168.92,47.85h-2.66c-0.68,0-1.12-0.44-1.12-1.12v-0.56c0-0.68,0.44-1.12,1.12-1.12h8.67
			c0.68,0,1.12,0.44,1.12,1.12v0.56c0,0.68-0.44,1.12-1.12,1.12h-2.66V60.2c0,0.68-0.44,1.12-1.12,1.12h-1.12
			c-0.68,0-1.12-0.44-1.12-1.12V47.85z"/>
		<path class="st2" d="M178.43,46.17c0-0.68,0.44-1.12,1.12-1.12h1.12c0.68,0,1.12,0.44,1.12,1.12V60.2c0,0.68-0.44,1.12-1.12,1.12
			h-1.12c-0.68,0-1.12-0.44-1.12-1.12V46.17z"/>
		<path class="st2" d="M184.77,51.69c0-4.01,2.4-6.94,6.55-6.94c4.15,0,6.55,2.94,6.55,6.94v2.98c0,4.01-2.4,6.94-6.55,6.94
			c-4.15,0-6.55-2.94-6.55-6.94V51.69z M194.41,54.42v-2.47c0-2.35-0.63-4.4-3.1-4.4c-2.45,0-3.1,2.05-3.1,4.4v2.47
			c0,2.38,0.65,4.4,3.1,4.4C193.78,58.82,194.41,56.79,194.41,54.42z"/>
		<path class="st2" d="M200.84,46.17c0-0.68,0.44-1.12,1.12-1.12h0.93c0.68,0,1.19,0.37,1.56,1.03l5.17,9.13
			c-0.14-1.17-0.21-2.33-0.21-3.22v-5.83c0-0.68,0.44-1.12,1.12-1.12h1.07c0.68,0,1.12,0.44,1.12,1.12V60.2
			c0,0.68-0.44,1.12-1.12,1.12h-0.93c-0.68,0-1.21-0.37-1.58-1.03l-5.15-9.09c0.12,1.17,0.21,2.31,0.21,3.17v5.82
			c0,0.68-0.44,1.12-1.12,1.12h-1.07c-0.68,0-1.12-0.44-1.12-1.12V46.17z"/>
		<path class="st4" d="M221.6,45.71c0-0.7,0.46-1.15,1.15-1.15h1.15c0.7,0,1.15,0.46,1.15,1.15v14.45c0,0.7-0.46,1.15-1.15,1.15
			h-1.15c-0.7,0-1.15-0.46-1.15-1.15V45.71z"/>
		<path class="st4" d="M228.15,50.44c0-3.98,2.42-6.19,6.24-6.19c1.78,0,3,0.24,3.98,0.48c0.53,0.14,0.77,0.58,0.65,1.13l-0.22,0.98
			c-0.12,0.53-0.62,0.77-1.15,0.62c-0.65-0.14-1.54-0.34-2.78-0.34c-1.97,0-3.17,0.84-3.17,3.58v4.46c0,2.74,1.2,3.58,3.17,3.58
			c1.54,0,2.47-0.26,2.9-0.36c0.58-0.14,0.91,0.12,1.03,0.65l0.22,0.98c0.1,0.48-0.12,0.98-0.65,1.13
			c-0.55,0.14-1.99,0.48-3.98,0.48c-3.82,0-6.24-2.18-6.24-6.19V50.44z"/>
		<path class="st4" d="M241.59,51.4c0-4.13,2.47-7.15,6.74-7.15c4.27,0,6.74,3.02,6.74,7.15v3.07c0,4.13-2.47,7.15-6.74,7.15
			c-4.27,0-6.74-3.02-6.74-7.15V51.4z M251.53,54.21v-2.54c0-2.42-0.65-4.54-3.19-4.54c-2.52,0-3.19,2.11-3.19,4.54v2.54
			c0,2.45,0.67,4.54,3.19,4.54C250.88,58.75,251.53,56.66,251.53,54.21z"/>
		<path class="st4" d="M258.15,45.71c0-0.7,0.46-1.15,1.15-1.15h0.96c0.7,0,1.22,0.38,1.61,1.06l5.33,9.41
			c-0.14-1.2-0.22-2.4-0.22-3.31v-6c0-0.7,0.46-1.15,1.15-1.15h1.1c0.7,0,1.15,0.46,1.15,1.15v14.45c0,0.7-0.46,1.15-1.15,1.15
			h-0.96c-0.7,0-1.25-0.38-1.63-1.06l-5.3-9.36c0.12,1.2,0.22,2.38,0.22,3.26v6c0,0.7-0.46,1.15-1.15,1.15h-1.1
			c-0.7,0-1.15-0.46-1.15-1.15V45.71z"/>
		<path class="st4" d="M273.27,59.56l0.14-0.62c0.17-0.74,0.7-0.94,1.34-0.74c0.46,0.12,1.73,0.55,3.24,0.55
			c1.63,0,2.3-0.86,2.3-2.02c0-3.26-6.94-2.04-6.94-7.78c0-2.98,2.5-4.7,5.78-4.7c1.54,0,2.59,0.34,3.19,0.53
			c0.65,0.22,1.01,0.74,0.77,1.46l-0.17,0.53c-0.22,0.65-0.77,0.94-1.46,0.72c-0.55-0.17-1.3-0.36-2.33-0.36
			c-1.44,0-2.16,0.72-2.16,1.82c0,2.81,6.94,2.09,6.94,7.78c0,2.95-2.4,4.9-5.93,4.9c-1.66,0-2.95-0.36-3.89-0.65
			C273.41,60.76,273.1,60.33,273.27,59.56z"/>
	</g>
</g>
</svg>
