<?xml version="1.0" encoding="utf-8"?>
<!-- Generator: Adobe Illustrator 24.1.1, SVG Export Plug-In . SVG Version: 6.00 Build 0)  -->
<svg version="1.1" xmlns="http://www.w3.org/2000/svg" x="0px" y="0px"
     viewBox="0 0 448 448" style="enable-background:new 0 0 448 448;" xml:space="preserve">
<style type="text/css">
	.st0{display:none;}
	.st1{display:inline;fill:#FFFFFF;}
	.st2{fill:#173042;}
	.st3{display:inline;}
	.st4{fill:#869093;}
</style>
<g id="grid" class="st0">
	<rect x="30" y="98" class="st1" width="48" height="48"/>
	<rect x="98" y="98" class="st1" width="48" height="48"/>
	<rect x="166" y="98" class="st1" width="48" height="48"/>
	<rect x="234" y="98" class="st1" width="48" height="48"/>
	<rect x="302" y="98" class="st1" width="48" height="48"/>
	<rect x="370" y="98" class="st1" width="48" height="48"/>
	<rect x="30" y="166" class="st1" width="48" height="48"/>
	<rect x="98" y="166" class="st1" width="48" height="48"/>
	<rect x="166" y="166" class="st1" width="48" height="48"/>
	<rect x="234" y="166" class="st1" width="48" height="48"/>
	<rect x="302" y="166" class="st1" width="48" height="48"/>
	<rect x="370" y="166" class="st1" width="48" height="48"/>
	<rect x="30" y="234" class="st1" width="48" height="48"/>
	<rect x="98" y="234" class="st1" width="48" height="48"/>
	<rect x="370" y="234" class="st1" width="48" height="48"/>
	<rect x="30" y="302" class="st1" width="48" height="48"/>
	<rect x="98" y="302" class="st1" width="48" height="48"/>
	<rect x="166" y="234" class="st1" width="48" height="48"/>
	<rect x="234" y="234" class="st1" width="48" height="48"/>
	<rect x="302" y="234" class="st1" width="48" height="48"/>
	<rect x="166" y="302" class="st1" width="48" height="48"/>
	<rect x="234" y="302" class="st1" width="48" height="48"/>
	<rect x="302" y="302" class="st1" width="48" height="48"/>
	<rect x="370" y="302" class="st1" width="48" height="48"/>
	<rect x="30" y="370" class="st1" width="48" height="48"/>
	<rect x="98" y="370" class="st1" width="48" height="48"/>
	<rect x="166" y="370" class="st1" width="48" height="48"/>
	<rect x="234" y="370" class="st1" width="48" height="48"/>
	<rect x="302" y="370" class="st1" width="48" height="48"/>
	<rect x="370" y="370" class="st1" width="48" height="48"/>
</g>
<g id="icons">
	<g>
		<g>
			<g>
				<g>
					<g>
						<path class="st2" d="M407.15,380.44c0-1.1-0.9-2-2-2h-29c-1.1,0-2,0.9-2,2v22c0,1.1,0.9,2,2,2h17.96
							c0.44-0.44,1.1-1.1,1.1-1.1l11.94-11.94V380.44z M382.4,389.88c-0.24,0.21-0.53,0.31-0.82,0.31c-0.35,0-0.7-0.15-0.94-0.43
							l-2-2.3c-0.39-0.44-0.41-1.09-0.06-1.56l2-2.7c0.41-0.56,1.19-0.67,1.75-0.26c0.56,0.41,0.67,1.19,0.26,1.75l-1.4,1.9
							l1.34,1.54C382.97,388.64,382.92,389.43,382.4,389.88z M388.78,383.27l-1.93,7c-0.15,0.55-0.66,0.92-1.2,0.92
							c-0.11,0-0.22-0.01-0.33-0.04c-0.67-0.18-1.06-0.87-0.87-1.54l1.93-7c0.18-0.67,0.87-1.05,1.54-0.87
							C388.58,381.92,388.97,382.61,388.78,383.27z M394.58,386.98l-2,2.7c-0.25,0.33-0.62,0.51-1.01,0.51
							c-0.26,0-0.52-0.08-0.74-0.25c-0.56-0.41-0.67-1.19-0.26-1.75l1.4-1.9l-1.34-1.54c-0.45-0.52-0.4-1.31,0.12-1.76
							c0.52-0.45,1.31-0.4,1.76,0.12l2,2.3C394.91,385.86,394.93,386.51,394.58,386.98z M410.75,397.78l-2.87-2.87
							c-0.2-0.2-0.51-0.2-0.71,0l-8.04,8.04c-0.2,0.2-0.2,0.51,0,0.71l2.87,2.87c0.2,0.2,0.51,0.2,0.71,0l8.04-8.04
							C410.95,398.29,410.95,397.97,410.75,397.78z M397.33,405.46c-0.2-0.19-0.51-0.2-0.7,0c-0.33,0.32-0.79,0.79-1.02,1.01
							c-0.08,0.08-0.13,0.19-0.14,0.31l-0.25,3.24c-0.02,0.31,0.24,0.57,0.56,0.54l3.11-0.36c0.11-0.01,0.22-0.06,0.3-0.14
							l1.02-1.02c0.2-0.2,0.2-0.51,0-0.71L397.33,405.46z"/>
						<path class="st2" d="M391.25,406.94h-15c-0.83,0-1.5,0.67-1.5,1.5c0,0.83,0.67,1.5,1.5,1.5h15c0.83,0,1.5-0.67,1.5-1.5
							C392.75,407.61,392.08,406.94,391.25,406.94z M414.71,393.83l-2.87-2.87c-0.2-0.2-0.51-0.2-0.71,0l-1.51,1.51
							c-0.2,0.2-0.2,0.51,0,0.71l2.87,2.87c0.2,0.2,0.51,0.2,0.71,0l1.51-1.51C414.9,394.34,414.9,394.02,414.71,393.83z"/>
					</g>
				</g>
			</g>
		</g>
	</g>
	<g>
		<g>
			<g>
				<path class="st2" d="M340.5,378h-28c-2.21,0-4,1.79-4,4v25c0,2.21,1.79,4,4,4h28c2.21,0,4-1.79,4-4v-25
					C344.5,379.79,342.71,378,340.5,378z M320.5,381.5h4c0.83,0,1.5,0.67,1.5,1.5s-0.67,1.5-1.5,1.5h-4c-0.83,0-1.5-0.67-1.5-1.5
					S319.67,381.5,320.5,381.5z M314.5,381c1.1,0,2,0.9,2,2c0,1.1-0.9,2-2,2s-2-0.9-2-2C312.5,381.9,313.4,381,314.5,381z
					 M340.5,406c0,0.55-0.45,1-1,1h-26c-0.55,0-1-0.45-1-1v-17c0-0.55,0.45-1,1-1h26c0.55,0,1,0.45,1,1V406z"/>
				<path class="st2" d="M337.14,400.79h-1.36c-0.42,0-0.77-0.29-0.9-0.68c-0.14-0.45-0.33-0.88-0.54-1.3
					c-0.19-0.36-0.14-0.81,0.15-1.1l0.97-0.97c0.36-0.36,0.36-0.95,0-1.31l-1.31-1.31c-0.36-0.36-0.95-0.36-1.31,0l-0.97,0.97
					c-0.29,0.29-0.73,0.34-1.1,0.15c-0.41-0.22-0.85-0.4-1.3-0.54c-0.4-0.13-0.68-0.48-0.68-0.9v-1.36c0-0.51-0.42-0.93-0.93-0.93
					h-1.86c-0.51,0-0.93,0.42-0.93,0.93v1.36c0,0.42-0.29,0.77-0.68,0.9c-0.45,0.14-0.88,0.33-1.3,0.54
					c-0.36,0.19-0.81,0.14-1.1-0.15l-0.97-0.97c-0.36-0.36-0.95-0.36-1.31,0l-1.31,1.31c-0.36,0.36-0.36,0.95,0,1.31l0.97,0.97
					c0.29,0.29,0.34,0.73,0.15,1.1c-0.21,0.41-0.4,0.85-0.54,1.3c-0.13,0.4-0.48,0.68-0.9,0.68h-1.36c-0.51,0-0.93,0.42-0.93,0.93
					v1.86c0,0.51,0.42,0.93,0.93,0.93h5.96c-0.25-0.57-0.39-1.2-0.39-1.86c0-2.56,2.08-4.64,4.64-4.64c2.56,0,4.64,2.08,4.64,4.64
					c0,0.66-0.14,1.29-0.39,1.86h5.96c0.51,0,0.93-0.42,0.93-0.93v-1.86C338.06,401.2,337.65,400.79,337.14,400.79z"/>
			</g>
		</g>
	</g>
	<g>
		<g>
			<g>
				<g>
					<g>
						<path class="st2" d="M268.17,395.44c0-0.69-0.56-1.25-1.25-1.25h-12c-0.69,0-1.25,0.56-1.25,1.25c0,0.69,0.56,1.25,1.25,1.25
							h12C267.61,396.69,268.17,396.13,268.17,395.44z M242.42,404.94c-0.55,0-1-0.45-1-1v-17c0-0.55,0.45-1,1-1h26
							c0.55,0,1,0.45,1,1v9.42l4-4v-12.42c0-2.21-1.79-4-4-4h-28c-2.21,0-4,1.79-4,4v25c0,2.21,1.79,4,4,4h16.32
							c0.08-0.65,0.37-1.26,0.83-1.73c0.36-0.36,1.37-1.37,1.37-1.37l0.9-0.9H242.42z M249.42,379.44h4c0.83,0,1.5,0.67,1.5,1.5
							c0,0.83-0.67,1.5-1.5,1.5h-4c-0.83,0-1.5-0.67-1.5-1.5C247.92,380.11,248.59,379.44,249.42,379.44z M243.42,378.94
							c1.1,0,2,0.9,2,2c0,1.1-0.9,2-2,2s-2-0.9-2-2C241.42,379.84,242.31,378.94,243.42,378.94z M275.48,400.28l-2.87-2.87
							c-0.2-0.2-0.51-0.2-0.71,0l-8.04,8.04c-0.2,0.2-0.2,0.51,0,0.71l2.87,2.87c0.2,0.2,0.51,0.2,0.71,0l8.04-8.04
							C275.68,400.79,275.68,400.47,275.48,400.28z M262.06,407.96c-0.2-0.19-0.51-0.2-0.7,0c-0.33,0.32-0.79,0.79-1.02,1.01
							c-0.08,0.08-0.13,0.19-0.14,0.31l-0.25,3.24c-0.02,0.31,0.24,0.57,0.56,0.54l3.11-0.36c0.11-0.01,0.22-0.06,0.3-0.14
							l1.02-1.02c0.2-0.2,0.2-0.51,0-0.71L262.06,407.96z M244.92,399.19c-0.69,0-1.25,0.56-1.25,1.25c0,0.69,0.56,1.25,1.25,1.25
							h18c0.69,0,1.25-0.56,1.25-1.25c0-0.69-0.56-1.25-1.25-1.25H244.92z M266.92,389.19h-12c-0.69,0-1.25,0.56-1.25,1.25
							c0,0.69,0.56,1.25,1.25,1.25h12c0.69,0,1.25-0.56,1.25-1.25C268.17,389.75,267.61,389.19,266.92,389.19z"/>
						<path class="st2" d="M249.42,388.94h-4c-0.55,0-1,0.45-1,1v5c0,0.55,0.45,1,1,1h4c0.55,0,1-0.45,1-1v-5
							C250.42,389.39,249.97,388.94,249.42,388.94z M279.44,396.33l-2.87-2.87c-0.2-0.2-0.51-0.2-0.71,0l-1.51,1.51
							c-0.2,0.2-0.2,0.51,0,0.71l2.87,2.87c0.2,0.2,0.51,0.2,0.71,0l1.51-1.51C279.63,396.84,279.63,396.52,279.44,396.33z"/>
					</g>
				</g>
			</g>
		</g>
	</g>
	<g>
		<g>
			<g>
				<g>
					<path class="st2" d="M204,378h-28c-2.21,0-4,1.79-4,4v25c0,2.21,1.79,4,4,4h19.6c-1.18-1.08-2.09-2.45-2.61-4H177
						c-0.55,0-1-0.45-1-1v-17c0-0.55,0.45-1,1-1h26c0.55,0,1,0.45,1,1v5.72c1.5,0.32,2.86,1,4,1.94V382
						C208,379.79,206.21,378,204,378z M178,385c-1.1,0-2-0.9-2-2c0-1.1,0.9-2,2-2c1.1,0,2,0.9,2,2C180,384.1,179.1,385,178,385z
						 M188,384.5h-4c-0.83,0-1.5-0.67-1.5-1.5s0.67-1.5,1.5-1.5h4c0.83,0,1.5,0.67,1.5,1.5S188.83,384.5,188,384.5z M187.5,400.75
						c-0.69,0-1.25,0.56-1.25,1.25s0.56,1.25,1.25,1.25h4c0.69,0,1.25-0.56,1.25-1.25s-0.56-1.25-1.25-1.25H187.5z M195.75,397
						c0-0.69-0.56-1.25-1.25-1.25h-7c-0.69,0-1.25,0.56-1.25,1.25s0.56,1.25,1.25,1.25h7C195.19,398.25,195.75,397.69,195.75,397z
						 M199.5,390.75h-19c-0.69,0-1.25,0.56-1.25,1.25s0.56,1.25,1.25,1.25h19c0.69,0,1.25-0.56,1.25-1.25
						S200.19,390.75,199.5,390.75z"/>
					<path class="st2" d="M183,396.5h-2.5c-0.55,0-1,0.45-1,1v4c0,0.55,0.45,1,1,1h2.5c0.55,0,1-0.45,1-1v-4
						C184,396.95,183.55,396.5,183,396.5z M202,397c-3.87,0-7,3.13-7,7s3.13,7,7,7s7-3.13,7-7S205.87,397,202,397z M201.02,407.29
						l-3.17-3.17l1.52-1.52l1.73,1.73l3.61-3.61l1.44,1.44L201.02,407.29z"/>
				</g>
			</g>
		</g>
	</g>
	<g>
		<g>
			<g>
				<g>
					<path class="st2" d="M142.99,393.48c0-4.96-4.02-8.98-8.98-8.98c-4.96,0-8.98,4.02-8.98,8.98c0,4.49,3.3,8.19,7.6,8.86v1.5
						h-0.04c-0.55,0-1,0.45-1,1v7.67c0,0.55,0.45,1,1,1h2.83c0.55,0,1-0.45,1-1v-7.67c0-0.55-0.45-1-1-1h-0.04v-1.5
						C139.69,401.67,142.99,397.96,142.99,393.48z M134.01,399c-3.05,0-5.52-2.47-5.52-5.52s2.47-5.52,5.52-5.52
						c3.05,0,5.52,2.47,5.52,5.52S137.06,399,134.01,399z M114.01,394h-3.5c-0.55,0-1,0.45-1,1v4c0,0.55,0.45,1,1,1h3.5
						c0.55,0,1-0.45,1-1v-4C115.01,394.45,114.56,394,114.01,394z"/>
					<path class="st2" d="M134.01,375.5h-28c-2.21,0-4,1.79-4,4v25c0,2.21,1.79,4,4,4h23.08v-3.98c0-0.01,0-0.02,0-0.02h-22.09
						c-0.55,0-1-0.45-1-1v-17c0-0.55,0.45-1,1-1h18.79c2.01-2.07,4.79-3.4,7.86-3.49c0.12,0,0.24-0.01,0.35-0.01
						c1.41,0,2.75,0.27,4,0.73v-3.23C138.01,377.29,136.22,375.5,134.01,375.5z M108.01,382.5c-1.1,0-2-0.9-2-2c0-1.1,0.9-2,2-2
						s2,0.9,2,2C110.01,381.6,109.12,382.5,108.01,382.5z M118.01,382h-4c-0.83,0-1.5-0.67-1.5-1.5s0.67-1.5,1.5-1.5h4
						c0.83,0,1.5,0.67,1.5,1.5S118.84,382,118.01,382z M118.51,400.75h5c0.69,0,1.25-0.56,1.25-1.25s-0.56-1.25-1.25-1.25h-5
						c-0.69,0-1.25,0.56-1.25,1.25S117.82,400.75,118.51,400.75z M121.51,388.25h-11c-0.69,0-1.25,0.56-1.25,1.25
						s0.56,1.25,1.25,1.25h11c0.69,0,1.25-0.56,1.25-1.25S122.2,388.25,121.51,388.25z M121.51,393.25h-3
						c-0.69,0-1.25,0.56-1.25,1.25s0.56,1.25,1.25,1.25h3c0.69,0,1.25-0.56,1.25-1.25S122.2,393.25,121.51,393.25z"/>
				</g>
			</g>
		</g>
	</g>
	<g>
		<g>
			<path class="st2" d="M48.5,391h-4c-0.55,0-1,0.45-1,1v5c0,0.55,0.45,1,1,1h4c0.55,0,1-0.45,1-1v-5
				C49.5,391.45,49.05,391,48.5,391z"/>
			<path class="st2" d="M68.5,378h-28c-2.21,0-4,1.79-4,4v25c0,2.21,1.79,4,4,4h28c2.21,0,4-1.79,4-4v-25
				C72.5,379.79,70.71,378,68.5,378z M48.5,381.5h4c0.83,0,1.5,0.67,1.5,1.5s-0.67,1.5-1.5,1.5h-4c-0.83,0-1.5-0.67-1.5-1.5
				S47.67,381.5,48.5,381.5z M42.5,381c1.1,0,2,0.9,2,2s-0.9,2-2,2s-2-0.9-2-2S41.4,381,42.5,381z M68.5,406c0,0.55-0.45,1-1,1h-26
				c-0.55,0-1-0.45-1-1v-17c0-0.55,0.45-1,1-1h26c0.55,0,1,0.45,1,1V406z M64,391.25H54c-0.69,0-1.25,0.56-1.25,1.25
				s0.56,1.25,1.25,1.25h10c0.69,0,1.25-0.56,1.25-1.25S64.69,391.25,64,391.25z M64,396.25H54c-0.69,0-1.25,0.56-1.25,1.25
				s0.56,1.25,1.25,1.25h10c0.69,0,1.25-0.56,1.25-1.25S64.69,396.25,64,396.25z M64,401.25H45c-0.69,0-1.25,0.56-1.25,1.25
				s0.56,1.25,1.25,1.25h19c0.69,0,1.25-0.56,1.25-1.25S64.69,401.25,64,401.25z"/>
		</g>
	</g>
	<g>
		<g>
			<path class="st2" d="M409.75,329.05c0,0.04-0.01,0.09-0.01,0.13c0,0.04,0.01,0.07,0.01,0.11V329.05z M408.88,321.42h-9.13
				c-1.1,0-2-0.9-2-2v-3.84c0-2.25-1.86-4.07-4.13-4c-1.05,0.03-1.87,0.95-1.87,2v4c0,2.84-4,4.84-4,6.84v12.79
				c0,0.74,0.41,1.42,1.06,1.77c0.36,0.19,0.79,0.42,1.24,0.66c2.18,1.17,4.62,1.78,7.09,1.78h7.74c1.58,0,2.87-1.28,2.87-2.87
				v-0.26c0-0.48-0.13-0.92-0.34-1.32c0.8-0.51,1.34-1.4,1.34-2.42v-0.76c0-0.81-0.34-1.53-0.87-2.06c1.05-0.39,1.81-1.38,1.86-2.55
				c-0.03-0.68-0.29-1.3-0.71-1.78c1.51-0.08,2.72-1.32,2.72-2.85v-0.26C411.75,322.7,410.47,321.42,408.88,321.42z"/>
			<path class="st2" d="M384.75,322.42h-7c-0.28,0-0.5,0.22-0.5,0.5v16c0,0.28,0.22,0.5,0.5,0.5h7c0.28,0,0.5-0.22,0.5-0.5v-16
				C385.25,322.64,385.03,322.42,384.75,322.42z M381.25,336.42c-0.83,0-1.5-0.67-1.5-1.5s0.67-1.5,1.5-1.5s1.5,0.67,1.5,1.5
				S382.08,336.42,381.25,336.42z"/>
		</g>
	</g>
	<g>
		<g>
			<path class="st2" d="M330.17,323.55c-0.02-0.19-0.08-0.38-0.16-0.56c-0.01-0.03-0.03-0.05-0.04-0.08
				c-0.09-0.18-0.21-0.36-0.36-0.52c-1.43-1.43-3.31-2.14-5.18-2.14c-1.88,0-3.75,0.71-5.18,2.14l-6.91,6.91
				c-2.86,2.86-2.86,7.51,0,10.37c1.43,1.43,3.31,2.14,5.18,2.14c1.88,0,3.75-0.71,5.18-2.14l4.07-4.07
				c-1.45-0.25-2.81-0.81-4.02-1.63l-2.87,2.87c-1.26,1.26-3.45,1.26-4.71,0c-1.3-1.3-1.3-3.41,0-4.71l3.78-3.78c0,0,0,0,0,0
				l3.13-3.13c0.32-0.32,0.69-0.56,1.09-0.72c0.21-0.08,0.42-0.15,0.64-0.19c0,0,0,0,0,0c1.05-0.2,2.17,0.11,2.98,0.91
				c0.78,0.78,2.05,0.78,2.83,0c0.27-0.27,0.44-0.6,0.53-0.95c0-0.01,0.01-0.02,0.01-0.03c0.04-0.2,0.05-0.4,0.04-0.6
				C330.18,323.61,330.18,323.58,330.17,323.55z"/>
			<path class="st2" d="M340.66,313.34c-1.38-1.38-3.22-2.15-5.18-2.15c-1.96,0-3.8,0.76-5.18,2.15l-4.07,4.07
				c1.42,0.25,2.79,0.79,4.02,1.63l2.88-2.88c1.26-1.26,3.45-1.26,4.71,0c0.63,0.63,0.98,1.47,0.98,2.36c0,0.89-0.35,1.73-0.98,2.35
				l-1.27,1.27c0,0,0,0,0,0.01l-5.64,5.64c-1.26,1.26-3.45,1.26-4.71,0c-0.78-0.78-2.05-0.78-2.83,0c-0.78,0.78-0.78,2.05,0,2.83
				c1.38,1.38,3.22,2.15,5.18,2.15c1.96,0,3.8-0.76,5.18-2.15l5.64-5.64c0,0,0,0,0.01,0l1.27-1.27c1.38-1.38,2.15-3.22,2.15-5.18
				C342.81,316.56,342.05,314.72,340.66,313.34z"/>
		</g>
	</g>
	<g>
		<g>
			<path class="st2" d="M245.31,331.57c-0.59,0.59-0.59,1.54,0,2.12c0.29,0.29,0.68,0.44,1.06,0.44c0.38,0,0.77-0.15,1.06-0.44
				l5.8-5.8l-2.12-2.12L245.31,331.57z M272.95,316.05l-4.5,0.64c-0.72,0.1-1.02,0.99-0.5,1.51l0.76,0.76l-4.77,4.13l-4.01-4.01
				c-0.59-0.59-1.54-0.59-2.12,0l-1.04,1.04l6.04,6.08c0.56,0.56,1.45,0.59,2.04,0.07l5.99-5.19l0.97,0.97
				c0.52,0.52,1.4,0.22,1.51-0.5l0.64-4.5C274.04,316.46,273.54,315.96,272.95,316.05z"/>
			<path class="st2" d="M276.5,338H242v-6.9c0.02-0.02,0.04-0.02,0.06-0.04l8.94-8.94l12.94,12.94c0.29,0.29,0.68,0.44,1.06,0.44
				c0.34,0,0.69-0.12,0.97-0.36l6.5-5.5c0.63-0.54,0.71-1.48,0.18-2.11c-0.54-0.63-1.48-0.71-2.11-0.18l-5.45,4.61l-13.02-13.02
				c-0.59-0.59-1.54-0.59-2.12,0l-7.94,7.94V313.5c0-0.83-0.67-1.5-1.5-1.5s-1.5,0.67-1.5,1.5v26c0,0.83,0.67,1.5,1.5,1.5h36
				c0.83,0,1.5-0.67,1.5-1.5S277.33,338,276.5,338z"/>
		</g>
	</g>
	<g>
		<g>
			<path class="st2" d="M190.5,307c-10.75,0-19.5,8.75-19.5,19.5c0,1.2,0.11,2.41,0.33,3.58c0.15,0.82,0.94,1.36,1.75,1.2
				c0.81-0.15,1.35-0.93,1.2-1.75c-0.18-1-0.28-2.02-0.28-3.04c0-1.56,0.23-3.07,0.64-4.5h5.64c-0.18,1.44-0.28,2.94-0.28,4.5
				c0,0.83,0.67,1.5,1.5,1.5s1.5-0.67,1.5-1.5c0-1.49,0.11-3.01,0.33-4.5H189v20.93c-1.16-0.1-2.3-0.32-3.4-0.66
				c-0.79-0.25-1.63,0.2-1.88,0.99c-0.25,0.79,0.2,1.63,0.99,1.88c1.87,0.58,3.82,0.87,5.79,0.87c10.75,0,19.5-8.75,19.5-19.5
				S201.25,307,190.5,307z M180.78,319h-4.96c1.71-3.33,4.51-6,7.93-7.54C182.45,313.46,181.43,316.04,180.78,319z M189,319h-5.09
				c1.01-4.13,2.81-7.57,5.09-8.64V319z M205.18,319h-4.96c-0.65-2.96-1.67-5.54-2.97-7.54C200.67,313,203.47,315.67,205.18,319z
				 M192,310.36c2.29,1.07,4.08,4.51,5.09,8.64H192V310.36z M192,322h5.67c0.21,1.49,0.33,3.01,0.33,4.5s-0.11,3.01-0.33,4.5H192
				V322z M192,342.64V334h5.09C196.08,338.13,194.29,341.57,192,342.64z M197.25,341.54c1.3-2,2.32-4.58,2.97-7.54h4.96
				C203.47,337.33,200.67,340,197.25,341.54z M200.72,331c0.18-1.44,0.28-2.94,0.28-4.5s-0.1-3.06-0.28-4.5h5.64
				c0.41,1.43,0.64,2.94,0.64,4.5s-0.23,3.07-0.64,4.5H200.72z"/>
			<path class="st2" d="M184.72,329.86l-9.04,2.94c-0.82,0.27-0.94,1.37-0.2,1.81l2.21,1.31l-5.14,5.14c-0.39,0.39-0.39,1.02,0,1.41
				l0.76,0.77c0.39,0.39,1.02,0.39,1.41,0l5.19-5.19l1.28,2.22c0.43,0.75,1.54,0.64,1.82-0.18l2.97-8.97
				C186.23,330.35,185.5,329.61,184.72,329.86z"/>
		</g>
	</g>
	<g>
		<g>
			<path class="st2" d="M131.91,326.4c-0.39,0.76-0.9,1.47-1.54,2.11c-1.61,1.61-3.74,2.49-6.01,2.49s-4.41-0.88-6.01-2.49
				c-3.31-3.31-3.31-8.71,0-12.02c0.35-0.35,0.72-0.65,1.11-0.93V311c-1.43,0.61-2.77,1.49-3.94,2.65
				c-4.28,4.28-4.81,10.88-1.59,15.73l-2.3,2.3l-0.35-0.35c-0.2-0.2-0.51-0.2-0.71,0l-8.13,8.13c-0.39,0.39-0.39,1.02,0,1.41
				l2.83,2.83c0.39,0.39,1.02,0.39,1.41,0l8.13-8.13c0.2-0.2,0.2-0.51,0-0.71l-0.35-0.35l2.19-2.19c2.26,1.77,4.98,2.67,7.71,2.67
				c3.2,0,6.4-1.22,8.84-3.66c1.43-1.43,2.44-3.13,3.03-4.94H131.91z"/>
			<path class="st2" d="M140.86,309h-17c-1.1,0-2,0.9-2,2v14c0,0.82,0.94,1.29,1.6,0.8l1.87-1.4c0.35-0.26,0.77-0.4,1.2-0.4h14.33
				c1.1,0,2-0.9,2-2v-11C142.86,309.89,141.96,309,140.86,309z M128.18,319.94c-0.24,0.21-0.53,0.31-0.82,0.31
				c-0.35,0-0.7-0.15-0.94-0.43l-2-2.3c-0.39-0.44-0.41-1.09-0.06-1.56l2-2.7c0.41-0.56,1.19-0.67,1.75-0.26
				c0.56,0.41,0.67,1.19,0.26,1.75l-1.4,1.9l1.34,1.54C128.75,318.7,128.7,319.49,128.18,319.94z M134.56,313.33l-1.93,7
				c-0.15,0.55-0.66,0.92-1.2,0.92c-0.11,0-0.22-0.01-0.33-0.04c-0.67-0.18-1.06-0.87-0.87-1.54l1.93-7
				c0.18-0.67,0.87-1.05,1.54-0.87C134.35,311.98,134.75,312.66,134.56,313.33z M140.36,317.04l-2,2.7
				c-0.25,0.33-0.62,0.51-1.01,0.51c-0.26,0-0.52-0.08-0.74-0.25c-0.56-0.41-0.67-1.19-0.26-1.75l1.4-1.9l-1.34-1.54
				c-0.45-0.52-0.4-1.31,0.12-1.76c0.52-0.45,1.31-0.4,1.76,0.12l2,2.3C140.68,315.91,140.71,316.56,140.36,317.04z"/>
		</g>
	</g>
	<g>
		<g>
			<path class="st2" d="M64.51,317.61c-1.33-1.33-3.09-2.06-4.97-2.06c-1.88,0-3.64,0.73-4.97,2.06c-0.49,0.49-0.49,1.28,0,1.77
				c0.49,0.49,1.28,0.49,1.77,0c0.85-0.86,1.99-1.33,3.2-1.33c1.21,0,2.35,0.47,3.2,1.33c0.24,0.24,0.56,0.37,0.88,0.37
				s0.64-0.12,0.88-0.37C65,318.89,65,318.1,64.51,317.61z"/>
			<path class="st2" d="M68.2,313.16c-2.44-2.44-5.64-3.66-8.84-3.66c-3.2,0-6.4,1.22-8.84,3.66c-4.28,4.28-4.81,10.88-1.59,15.73
				l-2.3,2.3l-0.35-0.35c-0.2-0.2-0.51-0.2-0.71,0l-8.13,8.13c-0.39,0.39-0.39,1.02,0,1.41l2.83,2.83c0.39,0.39,1.02,0.39,1.41,0
				l8.13-8.13c0.2-0.2,0.2-0.51,0-0.71l-0.35-0.35l2.19-2.19c2.26,1.77,4.98,2.67,7.71,2.67c3.2,0,6.4-1.22,8.84-3.66
				C73.08,325.95,73.08,318.04,68.2,313.16z M65.37,328.01c-1.61,1.61-3.74,2.49-6.01,2.49c-2.27,0-4.4-0.88-6.01-2.49
				c-1.61-1.61-2.49-3.74-2.49-6.01c0-2.27,0.88-4.4,2.49-6.01c1.61-1.61,3.74-2.49,6.01-2.49c2.27,0,4.4,0.88,6.01,2.49
				c1.61,1.61,2.49,3.74,2.49,6.01C67.86,324.27,66.97,326.4,65.37,328.01z"/>
		</g>
	</g>
	<g>
		<g>
			<path class="st2" d="M408.5,241.75h-28c-2.21,0-4,1.79-4,4v5.46c0,0.28,0.22,0.5,0.5,0.5h35c0.28,0,0.5-0.22,0.5-0.5v-5.46
				C412.5,243.54,410.71,241.75,408.5,241.75z M382.5,248.75c-1.1,0-2-0.9-2-2c0-1.1,0.9-2,2-2s2,0.9,2,2
				C384.5,247.85,383.6,248.75,382.5,248.75z M389,248.75c-1.1,0-2-0.9-2-2c0-1.1,0.9-2,2-2s2,0.9,2,2
				C391,247.85,390.1,248.75,389,248.75z"/>
			<path class="st2" d="M412,254.21h-35c-0.28,0-0.5,0.22-0.5,0.5v16.54c0,2.21,1.79,4,4,4h28c2.21,0,4-1.79,4-4v-16.54
				C412.5,254.44,412.28,254.21,412,254.21z M389.55,268.76c0,0.55-0.45,1-1,1c-0.55,0-1-0.45-1-1v-1.84h-3.83c-0.55,0-1-0.45-1-1
				v-5.19c0-0.55,0.45-1,1-1c0.55,0,1,0.45,1,1v4.19h2.83v-4.19c0-0.55,0.45-1,1-1c0.55,0,1,0.45,1,1V268.76z M397.84,266.74
				c0,1.65-1.35,3-3,3h-0.51c-1.65,0-3-1.35-3-3v-4.03c0-1.65,1.35-3,3-3h0.51c1.65,0,3,1.35,3,3V266.74z M406.26,268.76
				c0,0.55-0.45,1-1,1c-0.55,0-1-0.45-1-1v-1.84h-3.83c-0.55,0-1-0.45-1-1v-5.19c0-0.55,0.45-1,1-1c0.55,0,1,0.45,1,1v4.19h2.83
				v-4.19c0-0.55,0.45-1,1-1c0.55,0,1,0.45,1,1V268.76z M394.84,261.71h-0.51c-0.55,0-1,0.45-1,1v4.03c0,0.55,0.45,1,1,1h0.51
				c0.55,0,1-0.45,1-1v-4.03C395.84,262.15,395.39,261.71,394.84,261.71z"/>
		</g>
	</g>
	<g>
		<g>
			<g>
				<path class="st2" d="M344,254.21h-35c-0.28,0-0.5,0.22-0.5,0.5v16.54c0,2.21,1.79,4,4,4h28c2.21,0,4-1.79,4-4v-16.54
					C344.5,254.44,344.28,254.21,344,254.21z M322.32,268.17c-0.24,0.21-0.53,0.31-0.82,0.31c-0.35,0-0.7-0.15-0.94-0.43l-2-2.3
					c-0.39-0.44-0.41-1.09-0.06-1.56l2-2.7c0.41-0.56,1.19-0.67,1.75-0.26c0.56,0.41,0.67,1.19,0.26,1.75l-1.4,1.9l1.34,1.54
					C322.9,266.93,322.84,267.72,322.32,268.17z M328.71,261.57l-1.93,7c-0.15,0.55-0.66,0.92-1.2,0.92c-0.11,0-0.22-0.01-0.33-0.04
					c-0.67-0.18-1.06-0.87-0.87-1.54l1.93-7c0.18-0.67,0.87-1.05,1.54-0.87C328.5,260.21,328.89,260.9,328.71,261.57z M334.5,265.27
					l-2,2.7c-0.25,0.33-0.62,0.51-1.01,0.51c-0.26,0-0.52-0.08-0.74-0.25c-0.56-0.41-0.67-1.19-0.26-1.75l1.4-1.9l-1.34-1.54
					c-0.45-0.52-0.4-1.31,0.12-1.76c0.52-0.45,1.31-0.4,1.76,0.12l2,2.3C334.83,264.15,334.85,264.8,334.5,265.27z"/>
				<path class="st2" d="M340.5,241.75h-28c-2.21,0-4,1.79-4,4v5.46c0,0.28,0.22,0.5,0.5,0.5h35c0.28,0,0.5-0.22,0.5-0.5v-5.46
					C344.5,243.54,342.71,241.75,340.5,241.75z M314.5,248.75c-1.1,0-2-0.9-2-2c0-1.1,0.9-2,2-2s2,0.9,2,2
					C316.5,247.85,315.6,248.75,314.5,248.75z M321,248.75c-1.1,0-2-0.9-2-2c0-1.1,0.9-2,2-2s2,0.9,2,2
					C323,247.85,322.1,248.75,321,248.75z"/>
			</g>
		</g>
	</g>
	<g>
		<g>
			<path class="st2" d="M267.96,253.72c-0.74-0.12-1.58,0.17-2.17,0.67c-0.2-0.83-0.99-1.53-1.83-1.67c-0.7-0.11-1.5,0.14-2.07,0.6
				c-0.26-0.8-1.11-1.46-1.93-1.6c-0.79-0.13-1.87,0.29-2.34,0.88l0-6.32c0-0.87-0.51-1.72-1.35-1.98c-1.38-0.44-2.65,0.58-2.65,1.9
				v16c-1.1,0-2-0.9-2-2v-1.81c0-0.38-0.31-0.69-0.69-0.69h-0.6c-1.49,0-2.7,1.21-2.7,2.7v4.94c0,0.86,0.37,1.69,1.02,2.26
				l2.69,2.36c0.55,0.48,1.25,0.74,1.98,0.74h11.07c0.8,0,1.56-0.32,2.12-0.88l2.24-2.24c0.56-0.56,0.88-1.33,0.88-2.12v-9.65
				C269.63,254.8,268.94,253.88,267.96,253.72z"/>
			<path class="st2" d="M259.94,243.88c0.32,0,0.64-0.12,0.88-0.37l1.06-1.06c0.49-0.49,0.49-1.28,0-1.77
				c-0.49-0.49-1.28-0.49-1.77,0l-1.06,1.06c-0.49,0.49-0.49,1.28,0,1.77C259.3,243.75,259.62,243.88,259.94,243.88z M260.38,246.69
				c0,0.69,0.56,1.25,1.25,1.25h1.5c0.69,0,1.25-0.56,1.25-1.25s-0.56-1.25-1.25-1.25h-1.5C260.93,245.44,260.38,246,260.38,246.69z
				 M255.88,242.19c0.69,0,1.25-0.56,1.25-1.25v-1.5c0-0.69-0.56-1.25-1.25-1.25s-1.25,0.56-1.25,1.25v1.5
				C254.63,241.63,255.18,242.19,255.88,242.19z M266.12,273.14h-14.16c-0.28,0-0.5,0.22-0.5,0.5v4.66c0,0.28,0.22,0.5,0.5,0.5
				h14.16c0.28,0,0.5-0.22,0.5-0.5v-4.66C266.62,273.37,266.4,273.14,266.12,273.14z M263.58,277.04c-0.59,0-1.06-0.48-1.06-1.06
				c0-0.59,0.48-1.06,1.06-1.06c0.59,0,1.06,0.48,1.06,1.06C264.64,276.56,264.17,277.04,263.58,277.04z M250.93,243.51
				c0.24,0.24,0.56,0.37,0.88,0.37c0.32,0,0.64-0.12,0.88-0.37c0.49-0.49,0.49-1.28,0-1.77l-1.06-1.06c-0.49-0.49-1.28-0.49-1.77,0
				c-0.49,0.49-0.49,1.28,0,1.77L250.93,243.51z M250.13,245.44h-1.5c-0.69,0-1.25,0.56-1.25,1.25s0.56,1.25,1.25,1.25h1.5
				c0.69,0,1.25-0.56,1.25-1.25S250.82,245.44,250.13,245.44z"/>
		</g>
	</g>
	<g>
		<g>
			<g>
				<path class="st2" d="M179.29,270.67v-5.11c-0.33,0.04-0.67,0.08-1.02,0.08c-0.69,0-1.35-0.1-1.98-0.27v5.3
					c0,1.93,1.57,3.5,3.5,3.5h3.83v-3h-3.83C179.51,271.17,179.29,270.95,179.29,270.67z M194.12,268h-6c-1.1,0-2,0.9-2,2v5
					c0,1.1,0.9,2,2,2h6c1.1,0,2-0.9,2-2v-5C196.12,268.9,195.22,268,194.12,268z"/>
				<path class="st2" d="M188.12,249h6c1.1,0,2-0.9,2-2v-5c0-1.1-0.9-2-2-2h-6c-1.1,0-2,0.9-2,2v5
					C186.12,248.1,187.02,249,188.12,249z M189.29,252.5v1c0,0.83,0.67,1.5,1.5,1.5c0.83,0,1.5-0.67,1.5-1.5v-1
					c0-0.83-0.67-1.5-1.5-1.5C189.96,251,189.29,251.67,189.29,252.5z M207.59,257.29l-4.51-4.51c-0.2-0.2-0.45-0.29-0.71-0.29
					c-0.26,0-0.51,0.1-0.71,0.29l-3.72,3.72h-14.78c-0.65-2.11-2.58-3.65-4.9-3.65c-2.84,0-5.15,2.3-5.15,5.15
					c0,2.84,2.3,5.15,5.15,5.15c2.32,0,4.25-1.54,4.9-3.65h14.78l3.72,3.72c0.2,0.2,0.45,0.29,0.71,0.29c0.26,0,0.51-0.1,0.71-0.29
					l4.51-4.51C207.98,258.31,207.98,257.68,207.59,257.29z M190.62,262c-0.83,0-1.5,0.67-1.5,1.5v1c0,0.83,0.67,1.5,1.5,1.5
					s1.5-0.67,1.5-1.5v-1C192.12,262.67,191.45,262,190.62,262z"/>
			</g>
		</g>
	</g>
	<g>
		<g>
			<path class="st2" d="M139.75,243.42h-2c-1.1,0-2,0.9-2,2v26c0,1.1,0.9,2,2,2h2c1.1,0,2-0.9,2-2v-26
				C141.75,244.32,140.85,243.42,139.75,243.42z"/>
			<path class="st2" d="M132.61,246.3l-22.5,6.33c-0.22,0.06-0.36,0.26-0.36,0.48v11.94h0v3.97c0,1.63,1.18,3.02,2.79,3.29
				l7.33,1.22c0.18,0.03,0.37,0.05,0.55,0.05c0.78,0,1.54-0.28,2.15-0.79c0.75-0.63,1.18-1.56,1.18-2.54v-1.4l8.87,2.4
				c0.32,0.09,0.63-0.15,0.63-0.48v-23.98C133.25,246.45,132.93,246.21,132.61,246.3z M120.75,270.25c0,0.13-0.06,0.21-0.12,0.25
				c-0.05,0.05-0.14,0.1-0.27,0.07c0,0,0,0,0,0l-7.33-1.22c-0.16-0.03-0.28-0.17-0.28-0.33v-3.16l8,2.17V270.25z M106.75,253.42
				h-1.5c-1.1,0-2,0.9-2,2v7c0,1.1,0.9,2,2,2h1.5c0.28,0,0.5-0.22,0.5-0.5v-10C107.25,253.65,107.03,253.42,106.75,253.42z"/>
		</g>
	</g>
	<g>
		<g>
			<circle class="st2" cx="49" cy="273" r="3"/>
			<path class="st2" d="M41.59,271.5H38c-0.83,0-1.5,0.67-1.5,1.5s0.67,1.5,1.5,1.5h3.59c0.81,0,1.42-0.68,1.41-1.48v-0.03
				C43,272.18,42.4,271.5,41.59,271.5z M70,241H39c-1.66,0-3,1.34-3,3v20c0,1.66,1.34,3,3,3h31c1.66,0,3-1.34,3-3v-20
				C73,242.34,71.66,241,70,241z M60.56,254.78l-8.67,5.31c-0.61,0.37-1.39-0.07-1.39-0.78v-10.62c0-0.71,0.78-1.15,1.39-0.78
				l8.67,5.31C61.15,253.58,61.15,254.42,60.56,254.78z M71,271.5H56.41c-0.81,0-1.42,0.68-1.41,1.48v0.03
				c0,0.81,0.6,1.48,1.41,1.48H71c0.83,0,1.5-0.67,1.5-1.5S71.83,271.5,71,271.5z"/>
		</g>
	</g>
	<g>
		<g>
			<path class="st2" d="M390.2,205.91l-11-11c-0.59-0.59-1.54-0.59-2.12,0c-0.59,0.59-0.59,1.54,0,2.12l11,11
				c0.29,0.29,0.68,0.44,1.06,0.44s0.77-0.15,1.06-0.44C390.78,207.44,390.78,206.49,390.2,205.91z"/>
			<path class="st2" d="M412.34,186.95l-1.74-10.99c-0.14-0.86-0.81-1.53-1.66-1.66l-10.99-1.74c-0.63-0.1-1.27,0.11-1.73,0.56
				l-16.25,16.25c-0.78,0.78-0.78,2.05,0,2.83l12.73,12.73c0.78,0.78,2.05,0.78,2.83,0l16.25-16.25
				C412.23,188.22,412.44,187.58,412.34,186.95z M406.59,181.34c-0.78,0.78-2.05,0.78-2.83,0c-0.78-0.78-0.78-2.05,0-2.83
				c0.78-0.78,2.05-0.78,2.83,0C407.37,179.3,407.37,180.56,406.59,181.34z"/>
		</g>
	</g>
	<g>
		<g>
			<path class="st2" d="M337.53,197.15l-5.66-5.66c-0.2-0.2-0.51-0.2-0.71,0l-5.3,5.3c-1.95,1.95-3.18,3.18-6.01,0.35
				s-1.6-4.06,0.35-6.01l5.3-5.3c0.2-0.2,0.2-0.51,0-0.71l-5.66-5.66c-0.2-0.2-0.51-0.2-0.71,0l-6.01,6.01
				c-5.47,5.47-6.72,10.96,0.35,18.03v0c7.07,7.07,12.56,5.82,18.03,0.35l6.01-6.01C337.73,197.66,337.73,197.34,337.53,197.15z"/>
			<path class="st2" d="M326.57,172.75c-0.2-0.2-0.51-0.2-0.71,0l-4.24,4.24c-0.2,0.2-0.2,0.51,0,0.71l5.66,5.66
				c0.2,0.2,0.51,0.2,0.71,0l4.24-4.24c0.2-0.2,0.2-0.51,0-0.71L326.57,172.75z M344.25,190.43l-5.66-5.66c-0.2-0.2-0.51-0.2-0.71,0
				l-4.24,4.24c-0.2,0.2-0.2,0.51,0,0.71l5.66,5.66c0.2,0.2,0.51,0.2,0.71,0l4.24-4.24C344.44,190.94,344.44,190.62,344.25,190.43z"
				/>
		</g>
	</g>
	<g>
		<g>
			<path class="st2" d="M275,182.75h-33c-2.21,0-4,1.79-4,4v13c0,2.21,1.79,4,4,4h33c2.21,0,4-1.79,4-4v-13
				C279,184.54,277.21,182.75,275,182.75z M257.5,186.75h2c0.83,0,1.5,0.67,1.5,1.5s-0.67,1.5-1.5,1.5h-2c-0.83,0-1.5-0.67-1.5-1.5
				S256.67,186.75,257.5,186.75z M257.5,191.75h2c0.83,0,1.5,0.67,1.5,1.5s-0.67,1.5-1.5,1.5h-2c-0.83,0-1.5-0.67-1.5-1.5
				S256.67,191.75,257.5,191.75z M250.5,186.75h2c0.83,0,1.5,0.67,1.5,1.5s-0.67,1.5-1.5,1.5h-2c-0.83,0-1.5-0.67-1.5-1.5
				S249.67,186.75,250.5,186.75z M250.5,191.75h2c0.83,0,1.5,0.67,1.5,1.5s-0.67,1.5-1.5,1.5h-2c-0.83,0-1.5-0.67-1.5-1.5
				S249.67,191.75,250.5,191.75z M245.5,199.75h-2c-0.83,0-1.5-0.67-1.5-1.5s0.67-1.5,1.5-1.5h2c0.83,0,1.5,0.67,1.5,1.5
				S246.33,199.75,245.5,199.75z M245.5,194.75h-2c-0.83,0-1.5-0.67-1.5-1.5s0.67-1.5,1.5-1.5h2c0.83,0,1.5,0.67,1.5,1.5
				S246.33,194.75,245.5,194.75z M245.5,189.75h-2c-0.83,0-1.5-0.67-1.5-1.5s0.67-1.5,1.5-1.5h2c0.83,0,1.5,0.67,1.5,1.5
				S246.33,189.75,245.5,189.75z M266.5,199.75h-16c-0.83,0-1.5-0.67-1.5-1.5s0.67-1.5,1.5-1.5h16c0.83,0,1.5,0.67,1.5,1.5
				S267.33,199.75,266.5,199.75z M266.5,194.75h-2c-0.83,0-1.5-0.67-1.5-1.5s0.67-1.5,1.5-1.5h2c0.83,0,1.5,0.67,1.5,1.5
				S267.33,194.75,266.5,194.75z M266.5,189.75h-2c-0.83,0-1.5-0.67-1.5-1.5s0.67-1.5,1.5-1.5h2c0.83,0,1.5,0.67,1.5,1.5
				S267.33,189.75,266.5,189.75z M273.5,199.75h-2c-0.83,0-1.5-0.67-1.5-1.5s0.67-1.5,1.5-1.5h2c0.83,0,1.5,0.67,1.5,1.5
				S274.33,199.75,273.5,199.75z M273.5,194.75h-2c-0.83,0-1.5-0.67-1.5-1.5s0.67-1.5,1.5-1.5h2c0.83,0,1.5,0.67,1.5,1.5
				S274.33,194.75,273.5,194.75z M273.5,189.75h-2c-0.83,0-1.5-0.67-1.5-1.5s0.67-1.5,1.5-1.5h2c0.83,0,1.5,0.67,1.5,1.5
				S274.33,189.75,273.5,189.75z"/>
			<path class="st2" d="M272.5,177.25h-28c-0.83,0-1.5,0.67-1.5,1.5s0.67,1.5,1.5,1.5h28c0.83,0,1.5-0.67,1.5-1.5
				S273.33,177.25,272.5,177.25z"/>
		</g>
	</g>
	<g>
		<g>
			<path class="st2" d="M196.5,172.82h-12c-1.87,0-3.38,1.51-3.38,3.38v2.48h3.38v-2.48h12v2.48h3.38v-2.48
				C199.88,174.33,198.37,172.82,196.5,172.82z"/>
			<path class="st2" d="M192,199.68v0.71c0,0.83-0.67,1.5-1.5,1.5s-1.5-0.67-1.5-1.5v-0.71h-13.5c-0.7,0-1.37-0.11-2-0.32v6.82
				c0,1.1,0.9,2,2,2h30c1.1,0,2-0.9,2-2v-6.82c-0.63,0.2-1.3,0.32-2,0.32H192z M207.5,181.18h-34c-1.1,0-2,0.9-2,2v10
				c0,2.21,1.79,4,4,4H189v-1.17c0-0.83,0.67-1.5,1.5-1.5s1.5,0.67,1.5,1.5v1.17h13.5c2.21,0,4-1.79,4-4v-10
				C209.5,182.08,208.6,181.18,207.5,181.18z"/>
		</g>
	</g>
	<g>
		<g>
			<path class="st2" d="M107.92,191.05c0.29,0.29,0.68,0.44,1.06,0.44c0.38,0,0.77-0.15,1.06-0.44l2.12-2.12l2.12,2.12
				c0.29,0.29,0.68,0.44,1.06,0.44c0.38,0,0.77-0.15,1.06-0.44c0.59-0.59,0.59-1.54,0-2.12l-2.12-2.12l2.12-2.12
				c0.59-0.59,0.59-1.54,0-2.12c-0.59-0.59-1.54-0.59-2.12,0l-2.12,2.12l-2.12-2.12c-0.59-0.59-1.54-0.59-2.12,0
				c-0.59,0.59-0.59,1.54,0,2.12l2.12,2.12l-2.12,2.12C107.33,189.52,107.33,190.47,107.92,191.05z M124.55,191.79
				c1.04-1.04,1.61-2.42,1.61-3.89v-6.77h-3v6.77c0,0.66-0.27,1.3-0.73,1.77l-8.25,8.25c-0.75-0.39-1.61-0.61-2.51-0.61
				c-3.03,0-5.5,2.47-5.5,5.5s2.47,5.5,5.5,5.5s5.5-2.47,5.5-5.5c0-1.04-0.29-2.01-0.8-2.83L124.55,191.79z M111.66,205.31
				c-1.38,0-2.5-1.12-2.5-2.5c0-1.38,1.12-2.5,2.5-2.5c1.38,0,2.5,1.12,2.5,2.5C114.16,204.19,113.04,205.31,111.66,205.31z
				 M129.28,203.81l2.12-2.12c0.59-0.59,0.59-1.54,0-2.12c-0.59-0.59-1.54-0.59-2.12,0l-2.12,2.12l-2.12-2.12
				c-0.59-0.59-1.54-0.59-2.12,0c-0.59,0.59-0.59,1.54,0,2.12l2.12,2.12l-2.12,2.12c-0.59,0.59-0.59,1.54,0,2.12
				c0.29,0.29,0.68,0.44,1.06,0.44c0.38,0,0.77-0.15,1.06-0.44l2.12-2.12l2.12,2.12c0.29,0.29,0.68,0.44,1.06,0.44
				c0.38,0,0.77-0.15,1.06-0.44c0.59-0.59,0.59-1.54,0-2.12L129.28,203.81z"/>
			<path class="st2" d="M125.52,172.89c-0.45-0.51-1.24-0.51-1.68,0l-3.4,3.89c-0.63,0.72-0.12,1.85,0.84,1.85h6.81
				c0.96,0,1.47-1.13,0.84-1.85L125.52,172.89z M136.28,188.81l2.12-2.12c0.59-0.59,0.59-1.54,0-2.12c-0.59-0.59-1.54-0.59-2.12,0
				l-2.12,2.12l-2.12-2.12c-0.59-0.59-1.54-0.59-2.12,0c-0.59,0.59-0.59,1.54,0,2.12l2.12,2.12l-2.12,2.12
				c-0.59,0.59-0.59,1.54,0,2.12c0.29,0.29,0.68,0.44,1.06,0.44c0.38,0,0.77-0.15,1.06-0.44l2.12-2.12l2.12,2.12
				c0.29,0.29,0.68,0.44,1.06,0.44c0.38,0,0.77-0.15,1.06-0.44c0.59-0.59,0.59-1.54,0-2.12L136.28,188.81z"/>
		</g>
	</g>
	<g>
		<g>
			<path class="st2" d="M37.25,184.5c-1.1,0-2,0.9-2,2v17c0,1.1,0.9,2,2,2s2-0.9,2-2v-17C39.25,185.4,38.35,184.5,37.25,184.5z"/>
			<path class="st2" d="M71.75,175.5h-28c-1.1,0-2,0.93-2,2.07v27.93h28c2.21,0,4-1.85,4-4.14v-23.79
				C73.75,176.43,72.85,175.5,71.75,175.5z M59.75,181.5c0-0.55,0.45-1,1-1h6c0.55,0,1,0.45,1,1v6c0,0.55-0.45,1-1,1h-6
				c-0.55,0-1-0.45-1-1V181.5z M48.25,181.75h6c0.69,0,1.25,0.56,1.25,1.25s-0.56,1.25-1.25,1.25h-6c-0.69,0-1.25-0.56-1.25-1.25
				S47.56,181.75,48.25,181.75z M48.25,186.75h6c0.69,0,1.25,0.56,1.25,1.25s-0.56,1.25-1.25,1.25h-6c-0.69,0-1.25-0.56-1.25-1.25
				S47.56,186.75,48.25,186.75z M67.25,199.25h-19c-0.69,0-1.25-0.56-1.25-1.25s0.56-1.25,1.25-1.25h19c0.69,0,1.25,0.56,1.25,1.25
				S67.94,199.25,67.25,199.25z M67.25,194.25h-19c-0.69,0-1.25-0.56-1.25-1.25s0.56-1.25,1.25-1.25h19c0.69,0,1.25,0.56,1.25,1.25
				S67.94,194.25,67.25,194.25z"/>
		</g>
	</g>
	<g>
		<g>
			<path class="st2" d="M411.21,115.03l-14.53-9.05c-1.33-0.83-3.02-0.83-4.35,0l-14.53,9.05c-1.11,0.69-1.77,1.88-1.77,3.16v17.7
				c0,2.07,1.72,3.75,3.85,3.75h29.26c2.13,0,3.85-1.68,3.85-3.75v-17.7C412.98,116.91,412.31,115.72,411.21,115.03z M389.77,129.99
				l-9,7c-0.23,0.18-0.5,0.26-0.77,0.26c-0.37,0-0.74-0.17-0.99-0.48c-0.42-0.54-0.33-1.33,0.22-1.75l9-7
				c0.54-0.42,1.33-0.33,1.75,0.22C390.41,128.78,390.31,129.56,389.77,129.99z M393.31,127.05l-11.4-8.07
				c-1.26-0.89-0.61-2.84,0.95-2.84h23.28c1.56,0,2.21,1.94,0.95,2.84l-11.4,8.07C394.98,127.55,394.02,127.55,393.31,127.05z
				 M409.99,136.77c-0.25,0.32-0.62,0.48-0.99,0.48c-0.27,0-0.54-0.09-0.77-0.26l-9-7c-0.54-0.42-0.64-1.21-0.22-1.75
				c0.42-0.54,1.21-0.64,1.75-0.22l9,7C410.31,135.44,410.41,136.22,409.99,136.77z"/>
			<path class="st2" d="M399,118.5h-8c-0.83,0-1.5,0.67-1.5,1.5s0.67,1.5,1.5,1.5h8c0.83,0,1.5-0.67,1.5-1.5S399.83,118.5,399,118.5
				z"/>
		</g>
	</g>
	<g>
		<g>
			<path class="st2" d="M331.93,119.33c0,3.17-2.5,5.75-5.57,5.75c-3.07,0-5.56-2.58-5.56-5.75c0-3.17,2.5-5.75,5.56-5.75
				c0.25,0,0.5,0.02,0.75,0.06l3.19-3.19c-1.2-0.56-2.53-0.87-3.93-0.87c-5.27,0-9.56,4.38-9.56,9.75c0,5.38,4.29,9.75,9.56,9.75
				c5.27,0,9.57-4.38,9.57-9.75c0-1.36-0.28-2.66-0.78-3.84l-3.25,3.25C331.92,118.94,331.93,119.13,331.93,119.33z M336.36,132.22
				c3.85-2.99,6.34-7.65,6.34-12.89c0-1.78-0.3-3.5-0.83-5.1l-0.89,0.89c-0.65,0.65-1.52,1.01-2.44,1.01c-0.1,0-0.19-0.02-0.29-0.03
				c0.28,1.03,0.45,2.11,0.45,3.23c0,6.8-5.53,12.33-12.33,12.33c-6.8,0-12.33-5.53-12.33-12.33c0-6.8,5.53-12.33,12.33-12.33
				c1.3,0,2.54,0.2,3.72,0.58c0.02-0.87,0.36-1.72,1-2.36l1.12-1.12c-1.82-0.7-3.78-1.1-5.84-1.1c-9.01,0-16.33,7.33-16.33,16.33
				c0,5.59,2.82,10.53,7.12,13.47l-2.69,7.17c-0.29,0.78,0.1,1.64,0.88,1.93c0.17,0.07,0.35,0.1,0.53,0.1c0.61,0,1.18-0.37,1.4-0.97
				l2.53-6.75c1.72,0.76,3.6,1.22,5.56,1.34v4.88c0,0.83,0.67,1.5,1.5,1.5s1.5-0.67,1.5-1.5v-4.97c1.93-0.24,3.75-0.81,5.41-1.66
				l2.68,7.16c0.23,0.6,0.8,0.97,1.4,0.97c0.17,0,0.35-0.03,0.53-0.1c0.78-0.29,1.17-1.16,0.88-1.93L336.36,132.22z"/>
			<path class="st2" d="M342.37,108.31l-2.84-1.09c-0.25-0.1-0.45-0.29-0.54-0.54l-1.09-2.84c-0.15-0.39-0.51-0.61-0.89-0.61
				c-0.24,0-0.48,0.09-0.67,0.28l-3.48,3.48c-0.26,0.26-0.35,0.66-0.21,1.01l0.92,2.38l-5.98,5.98c-0.37-0.15-0.78-0.24-1.2-0.24
				c-1.77,0-3.21,1.44-3.21,3.21s1.44,3.21,3.21,3.21c1.77,0,3.21-1.44,3.21-3.21c0-0.43-0.09-0.83-0.24-1.2l5.76-5.76l3.11,1.19
				c0.11,0.04,0.23,0.06,0.34,0.06c0.25,0,0.49-0.1,0.67-0.28l3.48-3.48C343.18,109.38,343,108.56,342.37,108.31z"/>
		</g>
	</g>
	<g>
		<g>
			<g>
				<g>
					<path class="st2" d="M250,126v-17c0-0.55,0.45-1,1-1h12c0.55,0,1,0.45,1,1v12.5c0.25,0,0.5,0.02,0.74,0.06
						c0.83,0.14,1.61,0.51,2.26,1.04c0,0,0,0,0.01,0V107c0-2.21-1.79-4-4-4h-12c-2.21,0-4,1.79-4,4v21.09
						c0.83-0.84,1.94-1.41,3.19-1.54C250.08,126.39,250,126.21,250,126z M268.34,125.03c-0.74-0.12-1.58,0.17-2.17,0.67
						c-0.2-0.83-0.99-1.53-1.83-1.67c-0.7-0.11-1.5,0.14-2.07,0.6c-0.26-0.8-1.11-1.46-1.93-1.6c-0.79-0.13-1.87,0.29-2.34,0.88
						l0-6.32c0-0.87-0.51-1.72-1.35-1.98c-1.38-0.44-2.65,0.58-2.65,1.9v16c-1.1,0-2-0.9-2-2v-1.81c0-0.38-0.31-0.69-0.69-0.69h-0.6
						c-1.49,0-2.7,1.21-2.7,2.7v4.94c0,0.86,0.37,1.69,1.02,2.26l2.69,2.36c0.55,0.48,1.25,0.74,1.98,0.74h11.07
						c0.8,0,1.56-0.32,2.12-0.88l2.24-2.24c0.56-0.56,0.88-1.33,0.88-2.12v-9.65C270,126.11,269.32,125.19,268.34,125.03z"/>
				</g>
				<path class="st2" d="M254.41,109.99h-2.01c-0.28,0-0.5,0.22-0.5,0.5v2.01c0,0.28,0.22,0.5,0.5,0.5h2.01c0.28,0,0.5-0.22,0.5-0.5
					v-2.01C254.91,110.21,254.68,109.99,254.41,109.99z M259.41,109.99h-2.01c-0.28,0-0.5,0.22-0.5,0.5v2.01
					c0,0.28,0.22,0.5,0.5,0.5h2.01c0.28,0,0.5-0.22,0.5-0.5v-2.01C259.91,110.21,259.68,109.99,259.41,109.99z"/>
			</g>
		</g>
	</g>
	<g>
		<g>
			<g>
				<path class="st2" d="M174,108.25h26v0h4v-2c0-1.1-0.9-2-2-2h-30c-1.1,0-2,0.9-2,2v23c0,1.1,0.9,2,2,2h11.83l-0.67,4h-3.67
					c-0.83,0-1.5,0.67-1.5,1.5s0.67,1.5,1.5,1.5h10v-11H174V108.25z M207,110.75h-11c-2.21,0-4,1.79-4,4v22c0,2.21,1.79,4,4,4h11
					c2.21,0,4-1.79,4-4v-22C211,112.54,209.21,110.75,207,110.75z M202.25,138.25h-1.5c-0.83,0-1.5-0.67-1.5-1.5l0,0
					c0-0.83,0.67-1.5,1.5-1.5h1.5c0.83,0,1.5,0.67,1.5,1.5l0,0C203.75,137.58,203.08,138.25,202.25,138.25z M207.82,132.14
					c0,0.55-0.45,1-1,1h-10.63c-0.55,0-1-0.45-1-1v-16.16c0-0.55,0.45-1,1-1h10.63c0.55,0,1,0.45,1,1V132.14z"/>
				<path class="st2" d="M188.26,112.25h-1.13c-0.31,0-0.56,0.25-0.56,0.56v0.83c0,0.25-0.17,0.47-0.42,0.54
					c-0.27,0.09-0.54,0.2-0.79,0.33c-0.22,0.11-0.49,0.09-0.67-0.09l-0.59-0.59c-0.22-0.22-0.58-0.22-0.8,0l-0.8,0.8
					c-0.22,0.22-0.22,0.58,0,0.8l0.59,0.59c0.18,0.18,0.2,0.44,0.09,0.67c-0.13,0.25-0.24,0.51-0.33,0.79
					c-0.08,0.24-0.29,0.42-0.54,0.42h-0.83c-0.31,0-0.56,0.25-0.56,0.56v1.13c0,0.31,0.25,0.56,0.56,0.56h0.83
					c0.25,0,0.47,0.17,0.54,0.42c0.09,0.27,0.2,0.54,0.33,0.79c0.12,0.22,0.09,0.49-0.09,0.67l-0.59,0.59
					c-0.22,0.22-0.22,0.58,0,0.8l0.8,0.8c0.22,0.22,0.58,0.22,0.8,0l0.59-0.59c0.18-0.18,0.44-0.2,0.67-0.09
					c0.25,0.13,0.51,0.24,0.79,0.33c0.24,0.08,0.42,0.29,0.42,0.54v0.83c0,0.31,0.25,0.56,0.56,0.56h1.13
					c0.31,0,0.56-0.25,0.56-0.56v-3.62c-0.35,0.15-0.73,0.24-1.13,0.24c-1.56,0-2.82-1.26-2.82-2.82c0-1.56,1.26-2.82,2.82-2.82
					c0.4,0,0.78,0.09,1.13,0.24v-3.62C188.83,112.5,188.57,112.25,188.26,112.25z M204.26,122.89h-0.83c-0.25,0-0.47-0.17-0.54-0.42
					c-0.09-0.27-0.2-0.54-0.33-0.79c-0.12-0.22-0.09-0.49,0.09-0.67l0.59-0.59c0.22-0.22,0.22-0.58,0-0.8l-0.8-0.8
					c-0.22-0.22-0.58-0.22-0.8,0l-0.59,0.59c-0.18,0.18-0.44,0.2-0.67,0.09c-0.25-0.13-0.51-0.24-0.79-0.33
					c-0.24-0.08-0.42-0.29-0.42-0.54v-0.83c0-0.31-0.25-0.56-0.56-0.56h-1.13c-0.31,0-0.56,0.25-0.56,0.56v3.62
					c0.35-0.15,0.73-0.24,1.13-0.24c1.56,0,2.82,1.26,2.82,2.82c0,1.56-1.26,2.82-2.82,2.82c-0.4,0-0.78-0.09-1.13-0.24v3.62
					c0,0.31,0.25,0.56,0.56,0.56h1.13c0.31,0,0.56-0.25,0.56-0.56v-0.83c0-0.25,0.17-0.47,0.42-0.54c0.27-0.09,0.54-0.2,0.79-0.33
					c0.22-0.12,0.49-0.09,0.67,0.09l0.59,0.59c0.22,0.22,0.58,0.22,0.8,0l0.8-0.8c0.22-0.22,0.22-0.58,0-0.8l-0.59-0.59
					c-0.18-0.18-0.2-0.44-0.09-0.67c0.13-0.25,0.24-0.51,0.33-0.79c0.08-0.24,0.29-0.42,0.54-0.42h0.83c0.31,0,0.56-0.25,0.56-0.56
					v-1.13C204.83,123.14,204.57,122.89,204.26,122.89z"/>
			</g>
		</g>
	</g>
	<g>
		<g>
			<path class="st2" d="M127.31,135.12h-9.61c-0.9,0-1.63,0.73-1.63,1.63v0.23c0,0.9,0.73,1.63,1.63,1.63h1.59V139
				c0,1.66,1.34,3,3,3h0.43c1.66,0,3-1.34,3-3v-0.39h1.59c0.9,0,1.63-0.73,1.63-1.63v-0.23
				C128.93,135.85,128.2,135.12,127.31,135.12z"/>
			<path class="st2" d="M121.01,103.08c-5.41,0.61-10.61,5.79-11.25,11.19c-0.48,4.08,0.96,7.83,3.52,10.47
				c1.49,1.53,2.31,3.59,2.31,5.72v0c0,1.09,0.88,1.97,1.97,1.97h9.87c1.09,0,1.97-0.88,1.97-1.97c0-2.11,0.78-4.17,2.26-5.67
				c2.26-2.31,3.66-5.47,3.66-8.96C135.33,108.25,128.76,102.21,121.01,103.08z M121.25,127.5c0,0.69-0.56,1.25-1.25,1.25
				s-1.25-0.56-1.25-1.25v-5.41c0-1.7-1.38-3.08-3.08-3.08c-0.69,0-1.25-0.56-1.25-1.25c0-0.69,0.56-1.25,1.25-1.25
				c3.08,0,5.58,2.5,5.58,5.58V127.5z M129.33,119.01c-1.7,0-3.08,1.38-3.08,3.08v5.41c0,0.69-0.56,1.25-1.25,1.25
				s-1.25-0.56-1.25-1.25v-5.41c0-3.08,2.5-5.58,5.58-5.58c0.69,0,1.25,0.56,1.25,1.25C130.58,118.45,130.02,119.01,129.33,119.01z"
				/>
		</g>
	</g>
	<g>
		<g>
			<path class="st2" d="M73.5,104.25h-38c-1.1,0-2,0.9-2,2v25c0,1.1,0.9,2,2,2h14.92l-0.75,4.5H46c-0.83,0-1.5,0.67-1.5,1.5
				s0.67,1.5,1.5,1.5h17c0.83,0,1.5-0.67,1.5-1.5s-0.67-1.5-1.5-1.5h-3.67l-0.75-4.5H73.5c1.1,0,2-0.9,2-2v-25
				C75.5,105.15,74.6,104.25,73.5,104.25z M54.5,131.75c-0.83,0-1.5-0.67-1.5-1.5s0.67-1.5,1.5-1.5s1.5,0.67,1.5,1.5
				S55.33,131.75,54.5,131.75z M71.5,126.25h-34v-18h34V126.25z"/>
			<path class="st2" d="M64.71,120.04h-1.36c-0.42,0-0.77-0.29-0.9-0.68c-0.14-0.45-0.33-0.88-0.54-1.3
				c-0.19-0.36-0.14-0.81,0.15-1.1l0.97-0.97c0.36-0.36,0.36-0.95,0-1.31l-1.31-1.31c-0.36-0.36-0.95-0.36-1.31,0l-0.97,0.97
				c-0.29,0.29-0.73,0.34-1.1,0.15c-0.41-0.22-0.85-0.4-1.3-0.54c-0.4-0.13-0.68-0.48-0.68-0.9v-1.36c0-0.51-0.42-0.93-0.93-0.93
				h-1.86c-0.51,0-0.93,0.42-0.93,0.93v1.36c0,0.42-0.29,0.77-0.68,0.9c-0.45,0.14-0.88,0.33-1.3,0.54
				c-0.36,0.19-0.81,0.14-1.1-0.15l-0.97-0.97c-0.36-0.36-0.95-0.36-1.31,0l-1.31,1.31c-0.36,0.36-0.36,0.95,0,1.31l0.97,0.97
				c0.29,0.29,0.34,0.73,0.15,1.1c-0.21,0.41-0.4,0.85-0.54,1.3c-0.13,0.4-0.48,0.68-0.9,0.68h-1.36c-0.51,0-0.93,0.42-0.93,0.93
				v1.86c0,0.51,0.42,0.93,0.93,0.93h5.96c-0.25-0.57-0.39-1.2-0.39-1.86c0-2.56,2.08-4.64,4.64-4.64s4.64,2.08,4.64,4.64
				c0,0.66-0.14,1.29-0.39,1.86h5.96c0.51,0,0.93-0.42,0.93-0.93v-1.86C65.64,120.45,65.23,120.04,64.71,120.04z"/>
		</g>
	</g>
</g>
<g id="title" class="st0">
	<g class="st3">
		<path class="st2" d="M31.03,59.61l0.14-0.61c0.16-0.72,0.68-0.91,1.3-0.72c0.44,0.12,1.68,0.54,3.15,0.54
			c1.58,0,2.24-0.84,2.24-1.96c0-3.17-6.73-1.98-6.73-7.55c0-2.89,2.42-4.57,5.62-4.57c1.49,0,2.52,0.33,3.1,0.51
			c0.63,0.21,0.98,0.72,0.75,1.42l-0.16,0.51c-0.21,0.63-0.75,0.91-1.42,0.7c-0.54-0.16-1.26-0.35-2.26-0.35
			c-1.4,0-2.1,0.7-2.1,1.77c0,2.73,6.73,2.03,6.73,7.55c0,2.87-2.33,4.75-5.76,4.75c-1.61,0-2.87-0.35-3.77-0.63
			C31.17,60.78,30.86,60.36,31.03,59.61z"/>
		<path class="st2" d="M43.56,49.52c0-2.7,1.72-4.47,5.15-4.47h3.38c0.68,0,1.12,0.44,1.12,1.12v0.56c0,0.68-0.44,1.12-1.12,1.12
			h-3.33c-1.4,0-1.84,0.63-1.84,1.93v1.82h4.47c0.68,0,1.12,0.44,1.12,1.12v0.54c0,0.68-0.44,1.12-1.12,1.12h-4.47v2.24
			c0,1.33,0.44,1.91,1.84,1.91h3.43c0.68,0,1.12,0.44,1.12,1.12v0.56c0,0.68-0.44,1.12-1.12,1.12h-3.47c-3.4,0-5.15-1.77-5.15-4.45
			V49.52z"/>
		<path class="st2" d="M55.6,51.69c0-4.01,2.4-6.94,6.55-6.94c4.15,0,6.55,2.94,6.55,6.94v2.98c0,4.01-2.4,6.94-6.55,6.94
			c-4.15,0-6.55-2.94-6.55-6.94V51.69z M65.25,54.42v-2.47c0-2.35-0.63-4.4-3.1-4.4c-2.45,0-3.1,2.05-3.1,4.4v2.47
			c0,2.38,0.65,4.4,3.1,4.4C64.62,58.82,65.25,56.79,65.25,54.42z"/>
		<path class="st4" d="M77.01,45.71c0-0.7,0.46-1.15,1.15-1.15h1.15c0.7,0,1.15,0.46,1.15,1.15v14.45c0,0.7-0.46,1.15-1.15,1.15
			h-1.15c-0.7,0-1.15-0.46-1.15-1.15V45.71z"/>
		<path class="st4" d="M83.56,50.44c0-3.98,2.42-6.19,6.24-6.19c1.78,0,3,0.24,3.98,0.48c0.53,0.14,0.77,0.58,0.65,1.13l-0.22,0.98
			c-0.12,0.53-0.62,0.77-1.15,0.62c-0.65-0.14-1.54-0.34-2.78-0.34c-1.97,0-3.17,0.84-3.17,3.58v4.46c0,2.74,1.2,3.58,3.17,3.58
			c1.54,0,2.47-0.26,2.9-0.36c0.58-0.14,0.91,0.12,1.03,0.65l0.22,0.98c0.1,0.48-0.12,0.98-0.65,1.13
			c-0.55,0.14-1.99,0.48-3.98,0.48c-3.82,0-6.24-2.18-6.24-6.19V50.44z"/>
		<path class="st4" d="M97,51.4c0-4.13,2.47-7.15,6.74-7.15c4.27,0,6.74,3.02,6.74,7.15v3.07c0,4.13-2.47,7.15-6.74,7.15
			c-4.27,0-6.74-3.02-6.74-7.15V51.4z M106.94,54.21v-2.54c0-2.42-0.65-4.54-3.19-4.54c-2.52,0-3.19,2.11-3.19,4.54v2.54
			c0,2.45,0.67,4.54,3.19,4.54C106.29,58.75,106.94,56.66,106.94,54.21z"/>
		<path class="st4" d="M113.56,45.71c0-0.7,0.46-1.15,1.15-1.15h0.96c0.7,0,1.22,0.38,1.61,1.06l5.33,9.41
			c-0.14-1.2-0.22-2.4-0.22-3.31v-6c0-0.7,0.46-1.15,1.15-1.15h1.1c0.7,0,1.15,0.46,1.15,1.15v14.45c0,0.7-0.46,1.15-1.15,1.15
			h-0.96c-0.7,0-1.25-0.38-1.63-1.06l-5.3-9.36c0.12,1.2,0.22,2.38,0.22,3.26v6c0,0.7-0.46,1.15-1.15,1.15h-1.1
			c-0.7,0-1.15-0.46-1.15-1.15V45.71z"/>
		<path class="st4" d="M128.68,59.56l0.14-0.62c0.17-0.74,0.7-0.94,1.34-0.74c0.46,0.12,1.73,0.55,3.24,0.55
			c1.63,0,2.3-0.86,2.3-2.02c0-3.26-6.94-2.04-6.94-7.78c0-2.98,2.5-4.7,5.78-4.7c1.54,0,2.59,0.34,3.19,0.53
			c0.65,0.22,1.01,0.74,0.77,1.46l-0.17,0.53c-0.22,0.65-0.77,0.94-1.46,0.72c-0.55-0.17-1.3-0.36-2.33-0.36
			c-1.44,0-2.16,0.72-2.16,1.82c0,2.81,6.94,2.09,6.94,7.78c0,2.95-2.4,4.9-5.93,4.9c-1.66,0-2.95-0.36-3.89-0.65
			C128.83,60.76,128.52,60.33,128.68,59.56z"/>
	</g>
</g>
</svg>
