<?xml version="1.0" encoding="utf-8"?>
<!-- Generator: Adobe Illustrator 24.1.1, SVG Export Plug-In . SVG Version: 6.00 Build 0)  -->
<svg version="1.1" xmlns="http://www.w3.org/2000/svg" x="0px" y="0px"
     viewBox="0 0 448 448" style="enable-background:new 0 0 448 448;" xml:space="preserve">
<style type="text/css">
	.st0{display:none;}
	.st1{display:inline;fill:#FFFFFF;}
	.st2{fill:#173042;}
	.st3{display:inline;}
	.st4{fill:#869093;}
</style>
<g id="grid" class="st0">
	<rect x="30" y="98" class="st1" width="48" height="48"/>
	<rect x="98" y="98" class="st1" width="48" height="48"/>
	<rect x="166" y="98" class="st1" width="48" height="48"/>
	<rect x="234" y="98" class="st1" width="48" height="48"/>
	<rect x="302" y="98" class="st1" width="48" height="48"/>
	<rect x="370" y="98" class="st1" width="48" height="48"/>
	<rect x="30" y="166" class="st1" width="48" height="48"/>
	<rect x="98" y="166" class="st1" width="48" height="48"/>
	<rect x="166" y="166" class="st1" width="48" height="48"/>
	<rect x="234" y="166" class="st1" width="48" height="48"/>
	<rect x="302" y="166" class="st1" width="48" height="48"/>
	<rect x="370" y="166" class="st1" width="48" height="48"/>
	<rect x="30" y="234" class="st1" width="48" height="48"/>
	<rect x="98" y="234" class="st1" width="48" height="48"/>
	<rect x="370" y="234" class="st1" width="48" height="48"/>
	<rect x="30" y="302" class="st1" width="48" height="48"/>
	<rect x="98" y="302" class="st1" width="48" height="48"/>
	<rect x="166" y="234" class="st1" width="48" height="48"/>
	<rect x="234" y="234" class="st1" width="48" height="48"/>
	<rect x="302" y="234" class="st1" width="48" height="48"/>
	<rect x="166" y="302" class="st1" width="48" height="48"/>
	<rect x="234" y="302" class="st1" width="48" height="48"/>
	<rect x="302" y="302" class="st1" width="48" height="48"/>
	<rect x="370" y="302" class="st1" width="48" height="48"/>
	<rect x="30" y="370" class="st1" width="48" height="48"/>
	<rect x="98" y="370" class="st1" width="48" height="48"/>
	<rect x="166" y="370" class="st1" width="48" height="48"/>
	<rect x="234" y="370" class="st1" width="48" height="48"/>
	<rect x="302" y="370" class="st1" width="48" height="48"/>
	<rect x="370" y="370" class="st1" width="48" height="48"/>
</g>
<g id="icons">
	<g>
		<g>
			<g>
				<g>
					<g>
						<g>
							<path class="st2" d="M409.78,398.23c-0.11-0.02-0.23-0.03-0.34-0.03c-0.65,0-1.33,0.27-1.82,0.69
								c-0.2-0.83-0.99-1.53-1.83-1.67c-0.11-0.02-0.23-0.03-0.34-0.03c-0.61,0-1.25,0.24-1.73,0.63c-0.26-0.8-1.11-1.46-1.93-1.6
								c-0.1-0.02-0.2-0.02-0.3-0.02c-0.75,0-1.63,0.39-2.03,0.9v-6.32c0-0.87-0.51-1.72-1.35-1.98c-0.22-0.07-0.44-0.1-0.65-0.1
								c-1.1,0-2,0.9-2,2v16c-1.1,0-2-0.9-2-2v-1.81c0-0.38-0.31-0.69-0.69-0.69h-0.6c-1.49,0-2.7,1.21-2.7,2.7v4.94
								c0,0.86,0.37,1.69,1.02,2.26l2.69,2.36c0.55,0.48,1.25,0.74,1.98,0.74h11.07c0.8,0,1.56-0.32,2.12-0.88l2.24-2.24
								c0.56-0.56,0.88-1.33,0.88-2.12v-9.65C411.44,399.31,410.76,398.39,409.78,398.23z"/>
							<path class="st2" d="M403.41,384.89c-0.04-0.29-0.3-0.5-0.59-0.5h-1.22c-0.39-0.11-0.7-0.42-0.83-0.82
								c-0.23-0.72-0.53-1.41-0.9-2.05c-0.13-0.23-0.1-0.52,0.09-0.71l0.98-0.98c0.21-0.21,0.24-0.54,0.06-0.78
								c-0.75-1.01-1.64-1.9-2.65-2.66c-0.24-0.18-0.57-0.15-0.78,0.06l-0.98,0.98c-0.19,0.19-0.48,0.22-0.71,0.09
								c-0.78-0.44-1.61-0.79-2.49-1.03c-0.25-0.07-0.43-0.29-0.43-0.56v-1.4c0-0.29-0.21-0.55-0.5-0.59
								c-0.61-0.09-1.24-0.14-1.88-0.14c-0.64,0-1.27,0.05-1.88,0.14c-0.29,0.04-0.5,0.3-0.5,0.59v1.42c0,0.25-0.16,0.47-0.4,0.55
								c-0.64,0.21-1.9,0.65-2.55,1.03c-0.23,0.13-0.51,0.09-0.69-0.1l-0.98-0.98c-0.21-0.21-0.54-0.24-0.78-0.06
								c-1.01,0.75-1.9,1.65-2.65,2.66c-0.18,0.24-0.14,0.57,0.06,0.78l0.98,0.98c0.19,0.19,0.22,0.48,0.09,0.71
								c-0.37,0.64-0.67,1.33-0.9,2.05c-0.13,0.41-0.44,0.71-0.83,0.82h-1.22c-0.29,0-0.55,0.21-0.59,0.5
								c-0.09,0.62-0.15,1.26-0.15,1.91c0,0.65,0.05,1.29,0.15,1.91c0.04,0.29,0.3,0.5,0.59,0.5h1.22c0.39,0.11,0.7,0.42,0.83,0.82
								c0.23,0.72,0.53,1.41,0.9,2.05c0.13,0.23,0.1,0.52-0.09,0.71l-0.98,0.98c-0.21,0.21-0.24,0.54-0.06,0.78
								c0.75,1.01,1.64,1.9,2.65,2.66c0.24,0.18,0.57,0.15,0.78-0.06l0.98-0.98c0.19-0.19,0.48-0.22,0.71-0.09
								c0.78,0.44,1.61,0.79,2.49,1.03c0.25,0.07,0.43,0.29,0.43,0.56l0,1.4c0,0.29,0.21,0.55,0.5,0.59
								c0.61,0.09,1.24,0.14,1.88,0.14c0.64,0,1.27-0.05,1.88-0.14c0.29-0.04,0.5-0.3,0.5-0.59v-1.85c0,0,0,0,0,0l0,0v-6.51
								c0-0.06,0.02-0.12,0.02-0.18c-0.51,0.33-1.08,0.57-1.7,0.67c-3,0.46-5.55-2.09-5.09-5.09c0.29-1.87,1.82-3.4,3.69-3.69
								c2.81-0.43,5.22,1.77,5.14,4.52c0.72-0.47,1.56-0.73,2.45-0.73c0.47,0,0.95,0.07,1.41,0.22c1.34,0.43,2.36,1.47,2.82,2.79
								h1.15c0.29,0,0.55-0.21,0.59-0.5c0.09-0.62,0.15-1.26,0.15-1.91C403.56,386.15,403.5,385.51,403.41,384.89z"/>
						</g>
					</g>
				</g>
			</g>
		</g>
	</g>
	<g>
		<g>
			<path class="st2" d="M324.25,374.49c-0.27-0.06-0.55-0.09-0.81-0.09c-1.7,0-3.23,1.17-3.61,2.9c-0.45,2,0.81,3.98,2.81,4.43
				c0.27,0.06,0.55,0.09,0.81,0.09c1.7,0,3.23-1.17,3.61-2.9C327.51,376.92,326.25,374.94,324.25,374.49z"/>
			<path class="st2" d="M324.97,402.99c-0.04-0.15-0.11-0.28-0.18-0.4l0,0c0-0.01-0.8-1.2-1.78-2.67c-0.05-0.07-0.12-0.13-0.19-0.17
				l-10.76-5.39c-0.27-0.14-0.6,0-0.7,0.29c-0.56,1.69-2.26,6.82-2.8,8.8l-3.01,8.69c-0.29,0.84,0.01,1.82,0.8,2.24
				c1,0.54,2.19,0.04,2.55-0.98l2.36-6.81c0.01,0,2.45-4.73,3.6-6.95l6.82,4.8l2.47,8.69c0.24,0.86,1.05,1.48,1.94,1.38
				c1.13-0.13,1.82-1.22,1.52-2.26L324.97,402.99z M347.37,410.88l-4.33-10.42c-0.81-1.96-3.54-2.09-4.54-0.22l-0.51,0.96
				l-10.46-5.24l-4.47-11.01c-0.05-0.11-0.13-0.21-0.25-0.26l-5.49-2.66c-0.07-0.03-0.14-0.05-0.22-0.05l-6.09-0.03
				c-1.15-0.01-2.2,0.64-2.71,1.67l-1.52,3.08c-0.49,0.99-0.08,2.19,0.91,2.68l0.83,0.41l3.99,2l0,0l7.59,3.8c0,0,0-0.01-0.01-0.01
				l17.45,8.74l0.03-0.06l0.36,0.17c0.78,0.37,0.76,1.49-0.04,1.83l-3.35,1.41l-1.59,2.99c-0.89,1.68,0.32,3.7,2.22,3.7h9.88
				C346.84,414.36,348.06,412.54,347.37,410.88z M313.67,389.01l-3.66-1.83l0.78-1.58c0.17-0.34,0.52-0.56,0.9-0.56l3.63,0.02
				L313.67,389.01z M320.83,392.6l0.98-2.44l1.52,3.69L320.83,392.6z"/>
		</g>
	</g>
	<g>
		<g>
			<path class="st2" d="M260.01,394.49c-0.18-0.25-0.54-0.28-0.76-0.06l-1.68,1.68c-0.17,0.17-0.2,0.44-0.05,0.64l4.72,6.64
				c0.18,0.25,0.54,0.28,0.76,0.06l1.68-1.68c0.17-0.17,0.2-0.44,0.05-0.64L260.01,394.49z M255.81,398.68
				c-0.18-0.25-0.54-0.28-0.76-0.06l-1.68,1.68c-0.17,0.17-0.2,0.44-0.05,0.64l4.72,6.64c0.18,0.25,0.54,0.28,0.76,0.06l1.68-1.68
				c0.17-0.17,0.2-0.44,0.05-0.64L255.81,398.68z M279.6,391.74l-11.22-11.22c-0.36-0.36-0.96-0.36-1.32,0l-4.17,4.17
				c-0.23,0.23-0.33,0.57-0.25,0.89l0.87,3.45c0.04,0.16,0.13,0.31,0.25,0.43l0.22,0.22l-2.23,2.23c-0.17,0.17-0.2,0.44-0.05,0.64
				l4.72,6.64c0.18,0.25,0.54,0.28,0.76,0.06l3.19-3.19l0.28,0.28c0.12,0.12,0.27,0.2,0.43,0.24l3.45,0.87
				c0.32,0.08,0.66-0.01,0.89-0.25l4.17-4.17C279.97,392.69,279.97,392.1,279.6,391.74z"/>
			<path class="st2" d="M251.62,402.87c-0.18-0.25-0.54-0.28-0.76-0.06l-4.75,4.75c-0.17,0.17-0.26,0.42-0.24,0.66l0.5,5.01
				c0.02,0.24,0.21,0.42,0.45,0.45l5.01,0.5c0.25,0.02,0.49-0.06,0.66-0.24l3.79-3.79c0.17-0.17,0.2-0.44,0.05-0.64L251.62,402.87z
				 M258.26,383.66l-4.82-8.34c-0.18-0.31-0.51-0.5-0.87-0.5h-9.63c-0.36,0-0.69,0.19-0.87,0.5l-4.82,8.34c-0.18,0.31-0.18,0.69,0,1
				l4.82,8.34c0.18,0.31,0.51,0.5,0.87,0.5h9.63c0.36,0,0.69-0.19,0.87-0.5l4.82-8.34C258.44,384.35,258.44,383.97,258.26,383.66z
				 M247.76,388.78c-2.55,0-4.62-2.07-4.62-4.62c0-2.55,2.07-4.62,4.62-4.62c2.55,0,4.62,2.07,4.62,4.62
				C252.38,386.71,250.31,388.78,247.76,388.78z"/>
		</g>
	</g>
	<g>
		<g>
			<path class="st2" d="M196.82,381.81c-0.1-0.1-0.23-0.15-0.35-0.15s-0.26,0.05-0.35,0.15l-17.97,17.97c-0.2,0.2-0.2,0.51,0,0.71
				l2.3,2.3l18.68-18.68L196.82,381.81z M185.38,389.01l-8.49-8.49c-0.2-0.2-0.49-0.22-0.66-0.05l-3.79,3.79
				c-0.34,0.34-0.3,0.93,0.09,1.32l8.13,8.13L185.38,389.01z M203.19,388.18l-2.3-2.3l-18.68,18.68l2.3,2.3
				c0.1,0.1,0.23,0.15,0.35,0.15s0.26-0.05,0.35-0.15l17.97-17.97C203.38,388.69,203.38,388.37,203.19,388.18z M204.48,408.1
				l-8.49-8.49l-4.71,4.71l8.13,8.13c0.39,0.39,0.98,0.43,1.32,0.09l3.79-3.79C204.69,408.59,204.67,408.3,204.48,408.1z"/>
			<path class="st2" d="M179.61,377.11l-0.94,0.94c-0.2,0.2-0.2,0.51,0,0.71l8.49,8.49l2.01-2.01l-8.13-8.13
				C180.63,376.71,180,376.71,179.61,377.11z M176.61,402.47c-0.26-0.26-0.71-0.16-0.83,0.2l-2.9,8.82
				c-0.13,0.39,0.24,0.76,0.63,0.63l8.82-2.9c0.35-0.12,0.46-0.57,0.2-0.83L176.61,402.47z M208.2,381.05l-4.24-4.24
				c-0.78-0.78-2.05-0.78-2.83,0l-2.92,2.92c0.14,0.1,0.27,0.2,0.39,0.32l6.36,6.36c0.12,0.12,0.22,0.25,0.32,0.39l2.92-2.92
				C208.98,383.09,208.98,381.83,208.2,381.05z M199.76,395.84l-2.01,2.01l8.49,8.49c0.2,0.2,0.51,0.2,0.71,0l0.94-0.94
				c0.39-0.39,0.39-1.02,0-1.41L199.76,395.84z"/>
		</g>
	</g>
	<g>
		<g>
			<path class="st2" d="M111.58,379.13l-2.92,2.92c-0.17,0.17-0.17,0.45,0,0.63l0.31,0.31c0.76,0.76,0.68,2.04-0.23,2.7
				c-0.72,0.51-1.72,0.36-2.34-0.26l-0.25-0.25c-0.17-0.17-0.45-0.17-0.63,0l-3.32,3.32c-0.17,0.17-0.17,0.45,0,0.63l6.26,6.26
				c0.17,0.17,0.45,0.17,0.63,0l3.32-3.32c0.17-0.17,0.17-0.45,0-0.63l-0.31-0.31c-0.76-0.76-0.68-2.04,0.23-2.7
				c0.72-0.52,1.72-0.36,2.34,0.26l0.18,0.18l0,0l4.04,4.29l4.49-4.49l-4.22-3.98c0,0,0,0,0,0c-0.68-0.68-0.68-1.77,0-2.45
				l0.98-0.98c1.12-1.12,2.46-1.91,3.87-2.37c0.35-0.11,0.41-0.57,0.11-0.78C120.32,375.38,114.99,375.71,111.58,379.13z
				 M131.57,396.4l-4.96,4.96l10.71,11.36l5.61-5.61L131.57,396.4z"/>
			<path class="st2" d="M141.15,383.47l-3.44,3.44c-0.25,0.25-0.62,0.35-0.97,0.26l-2.53-0.68c-0.35-0.09-0.61-0.36-0.71-0.71
				l-0.68-2.53c-0.09-0.35,0.01-0.71,0.26-0.97l3.44-3.44c-2.43-0.87-5.15-0.42-6.99,1.41c-1.87,1.87-2.3,4.66-1.36,7.13
				l-11.38,11.38c-2.57-1.03-5.51-0.59-7.47,1.36c-1.89,1.89-2.36,4.7-1.46,7.22l3.57-3.57c0.25-0.25,0.62-0.35,0.97-0.26l2.65,0.71
				c0.35,0.09,0.61,0.36,0.71,0.71l0.71,2.65c0.09,0.35-0.01,0.71-0.26,0.97l-3.57,3.57c2.51,0.9,5.32,0.43,7.22-1.46
				c1.96-1.96,2.39-4.89,1.36-7.47l11.38-11.38c2.47,0.94,5.26,0.51,7.13-1.36C141.57,388.62,142.02,385.9,141.15,383.47z"/>
		</g>
	</g>
	<g>
		<g>
			<path class="st2" d="M43.42,377.39c-3.29,0-5.96,2.35-5.96,5.25v23.48c0,2.9,2.67,5.25,5.96,5.25c3.29,0,5.96-2.35,5.96-5.25
				c0,0,0,0,0,0v-23.48c0,0,0,0,0,0C49.38,379.74,46.71,377.39,43.42,377.39z M43.42,408.66c-1.8,0-3.26-1.13-3.26-2.53
				s1.46-2.53,3.26-2.53c1.8,0,3.26,1.13,3.26,2.53S45.22,408.66,43.42,408.66z"/>
			<path class="st2" d="M70.54,383.39H51.88v22.73c0,2.14-0.95,4.08-2.49,5.49h21.15c0.55,0,1-0.45,1-1v-26.22
				C71.54,383.84,71.09,383.39,70.54,383.39z M56.63,394.78c0-0.12,0.05-0.23,0.14-0.31l4.92-4.26c0.15-0.13,0.38-0.13,0.54,0
				l4.92,4.26c0.09,0.08,0.14,0.19,0.14,0.31v4.92c0,0.23-0.18,0.41-0.41,0.41h-2.86c-0.23,0-0.41-0.18-0.41-0.41v-3.23
				c0-0.23-0.18-0.41-0.41-0.41h-2.49c-0.23,0-0.41,0.18-0.41,0.41v3.23c0,0.23-0.18,0.41-0.41,0.41h-2.86
				c-0.23,0-0.41-0.18-0.41-0.41V394.78z M66.46,406.14h-9c-0.69,0-1.25-0.56-1.25-1.25c0-0.69,0.56-1.25,1.25-1.25h9
				c0.69,0,1.25,0.56,1.25,1.25C67.71,405.58,67.15,406.14,66.46,406.14z"/>
		</g>
	</g>
	<g>
		<g>
			<path class="st2" d="M415.02,312.28l-7.73-7.73c-0.39-0.39-1.02-0.39-1.41,0l-16.87,16.87l6.9,6.9l0.53,0.53l0.15,0.74l0.93,4.6
				c0.02-0.38,0.13-0.77,0.44-1.18c1.17-1.51,2.78-0.26,3.95-1.76c1.17-1.51-0.45-2.76,0.72-4.26c1.17-1.51,2.78-0.26,3.95-1.76
				c1.17-1.51-0.45-2.76,0.72-4.27c1.17-1.51,2.78-0.26,3.95-1.76c1.17-1.51-0.45-2.76,0.72-4.27c0.75-0.96,1.68-0.8,2.55-0.95
				C415.29,313.84,415.58,312.85,415.02,312.28z"/>
			<path class="st2" d="M394.12,330.09l-7.96-7.96l-11.89,11.89c-0.86,0.86-0.77,2.3,0.26,3.05c0.33,0.24,0.72,0.35,1.11,0.35
				c0.56,0,1.12-0.23,1.54-0.64l0,0c0.17-0.17,0.4-0.26,0.63-0.26c0.23,0,0.46,0.09,0.63,0.26l7.22,7.22c0.35,0.35,0.35,0.91,0,1.26
				c-0.63,0.63-0.87,1.61-0.45,2.39c0.39,0.73,1.09,1.1,1.79,1.1c0.51,0,1.02-0.2,1.41-0.59l7.78-7.78L394.12,330.09z
				 M389.95,339.79c-0.78,0.78-2.05,0.78-2.83,0l-4.95-4.95c-0.78-0.78-0.78-2.05,0-2.83c0.78-0.78,2.05-0.78,2.83,0l4.95,4.95
				C390.73,337.74,390.73,339.01,389.95,339.79z"/>
		</g>
	</g>
	<g>
		<g>
			<path class="st2" d="M334.76,334.5l-16.26-16.26c-0.2-0.2-0.51-0.2-0.71,0l-3.89,3.89c-1.56,1.56-1.56,4.09,0,5.66l3.55,3.55
				c-0.05,0.05-0.11,0.11-0.15,0.16c-1.51,1.67-3.43,2.87-5.58,3.54c-1.01,0.31-1.94,0.95-2.62,1.92c-1.16,1.63-1.21,3.88-0.11,5.56
				c1.81,2.76,5.55,3.04,7.75,0.84c0.61-0.61,1.03-1.33,1.26-2.1c0.61-2.04,1.65-3.92,3.27-5.31c0.14-0.12,0.27-0.25,0.41-0.38
				l3.55,3.55c1.56,1.56,4.09,1.56,5.66,0l3.89-3.89C334.96,335.01,334.96,334.7,334.76,334.5z M313.9,341.22
				c-0.59,0.59-1.54,0.59-2.12,0c-0.59-0.59-0.59-1.54,0-2.12c0.59-0.59,1.54-0.59,2.12,0C314.49,339.68,314.49,340.63,313.9,341.22
				z"/>
			<path class="st2" d="M344.66,324.6l-16.26-16.26c-0.2-0.2-0.51-0.2-0.71,0l-7.42,7.42c-0.2,0.2-0.2,0.51,0,0.71l16.26,16.26
				c0.2,0.2,0.51,0.2,0.71,0l7.42-7.42C344.86,325.12,344.86,324.8,344.66,324.6z"/>
		</g>
	</g>
	<g>
		<g>
			<path class="st2" d="M277.61,309.53l-1.82-1.82c-0.14-0.14-0.34-0.18-0.52-0.12l-4.68,1.61c-0.13,0.05-0.24,0.14-0.3,0.27
				l-1.1,2.51c-0.08,0.19-0.04,0.41,0.1,0.55l0.32,0.32l-7.1,7.1l2.83,2.83l7.1-7.1l0.32,0.32c0.15,0.15,0.37,0.19,0.55,0.1
				l2.51-1.1c0.13-0.06,0.23-0.16,0.27-0.29l1.61-4.68C277.79,309.86,277.74,309.66,277.61,309.53z"/>
			<path class="st2" d="M265.4,326.36l-7.07-7.07c-0.2-0.2-0.51-0.2-0.71,0l-3.18,3.18l0.67,0.67c0.78,0.78,0.78,2.05,0,2.83
				c-0.39,0.39-0.9,0.59-1.41,0.59c-0.51,0-1.02-0.2-1.41-0.59l-0.67-0.67l-11.49,11.49c-1.17,1.17-1.17,3.07,0,4.24l3.54,3.54
				c1.17,1.17,3.07,1.17,4.24,0l11.49-11.49l-0.75-0.75c-0.78-0.78-0.78-2.05,0-2.83c0.78-0.78,2.05-0.78,2.83,0l0.75,0.75
				l3.18-3.18C265.59,326.87,265.59,326.55,265.4,326.36z M253.95,332.86l-7,7c-0.29,0.29-0.68,0.44-1.06,0.44
				c-0.38,0-0.77-0.15-1.06-0.44c-0.59-0.59-0.59-1.54,0-2.12l7-7c0.59-0.59,1.54-0.59,2.12,0
				C254.53,331.32,254.53,332.27,253.95,332.86z"/>
		</g>
	</g>
	<g>
		<g>
			<g>
				<path class="st2" d="M205.22,317.41c-1.34-1.05-2.6-2.14-3.76-3.18c0.4-0.76,0.29-1.71-0.34-2.35l-1.23-1.23
					c-0.67-0.67-1.68-0.76-2.46-0.29c-0.82-0.83-1.39-1.45-1.65-1.72c-0.42-0.44-1.11-0.44-1.54-0.02l-7.58,7.58
					c-0.43,0.43-0.42,1.13,0.02,1.54c0.51,0.48,1.1,1.04,1.68,1.6l-18.96,18.96c-0.78,0.78-0.78,2.05,0,2.83l1.23,1.23
					c0.04,0.04,0.08,0.06,0.12,0.09c1.28,1.21,2.53,2.11,4.54,2.2c0.65,0.03,1.31-0.55,1.41-1.21c0.69-4.37,4.27-8.59,7.63-11.96
					l7.7-7.7c0.66,0.99,1.29,2.05,1.9,3.22c0.13,0.26,0.44,0.38,0.71,0.25c2.67-1.23,5.23-3.03,7.51-5.31
					c1.21-1.21,2.27-2.49,3.2-3.83C205.5,317.91,205.44,317.58,205.22,317.41z"/>
				<path class="st2" d="M211.55,321.25c-0.96-0.44-2.24-1.06-3.45-1.8c-0.23-0.14-0.53-0.09-0.7,0.12
					c-0.68,0.87-2.37,3.03-3.5,4.16c-2.55,2.55-5.4,4.51-8.31,5.84c-0.25,0.12-0.37,0.39-0.28,0.66c0.25,0.71,0.72,2.09,1.04,3.09
					c0.18,0.56,0.79,0.89,1.35,0.7c3.69-1.25,7.41-3.54,10.66-6.79c1.4-1.4,2.61-2.89,3.65-4.42
					C212.38,322.27,212.15,321.52,211.55,321.25z"/>
			</g>
		</g>
	</g>
	<g>
		<g>
			<path class="st2" d="M143.51,323.41l-3.48-3.48c-0.22-0.22-0.57-0.22-0.79,0l-0.31,0.31c-0.78,0.78-2.05,0.98-2.95,0.33
				c-1.15-0.83-1.24-2.44-0.29-3.39l0.39-0.39c0.22-0.22,0.22-0.57,0-0.79l-4.38-4.38c-4.3-4.3-11.01-4.73-15.79-1.29
				c-0.37,0.27-0.3,0.85,0.14,0.99c1.78,0.57,3.46,1.56,4.88,2.98l0.41,0.41c0.85,0.85,0.85,2.23,0,3.08
				c-0.22,0.22-0.22,0.57,0,0.79l6.09,6.09c0.22,0.22,0.57,0.22,0.79,0l0.31-0.31c0.78-0.78,2.05-0.98,2.95-0.33
				c1.15,0.83,1.24,2.44,0.29,3.39l-0.39,0.39c-0.22,0.22-0.22,0.57,0,0.79l3.48,3.48c0.22,0.22,0.57,0.22,0.79,0l7.88-7.88
				C143.72,323.98,143.72,323.63,143.51,323.41z"/>
			<path class="st2" d="M124.43,325.43l-3.56-3.56c-0.19-0.19-0.5-0.2-0.69-0.01l-18.21,16.97c-0.83,0.77-0.85,2.08-0.05,2.88
				l2.68,2.68c0.8,0.8,2.11,0.78,2.88-0.05l16.97-18.21C124.63,325.93,124.62,325.62,124.43,325.43z"/>
		</g>
	</g>
	<g>
		<g>
			<path class="st2" d="M50.15,336.34l-5.3-5.3c-0.2-0.2-0.51-0.2-0.71,0l-7.64,7.64c-1.66,1.66-1.66,4.35,0,6.01
				c1.66,1.66,4.35,1.66,6.01,0l7.64-7.64C50.34,336.85,50.34,336.54,50.15,336.34z"/>
			<path class="st2" d="M51.87,327.2l-3.66,3.66l2.12,2.12l3.66-3.66c0.59-0.59,0.59-1.54,0-2.12
				C53.4,326.61,52.45,326.61,51.87,327.2z M69.82,307.22l-25.23,8.19c-2.13,0.69-2.78,3.39-1.19,4.97l5.87,5.87l0.83-0.83
				c1.56-1.56,4.09-1.56,5.66,0c1.56,1.56,1.56,4.09,0,5.66l-0.83,0.83l5.5,5.5c1.58,1.58,4.28,0.94,4.97-1.19L73.6,311
				C74.35,308.67,72.15,306.46,69.82,307.22z"/>
		</g>
	</g>
	<g>
		<g>
			<path class="st2" d="M413.09,269.48l-15.13-25.99c-1.54-2.65-5.37-2.65-6.91,0l-15.13,25.99c-1.55,2.67,0.37,6.01,3.46,6.01
				h30.27C412.72,275.5,414.64,272.15,413.09,269.48z M400.68,261l-8.82,9.08c-0.37,0.38-1,0-0.83-0.51l1.85-5.54
				c0.11-0.32-0.13-0.66-0.47-0.66h-4.24c-0.36,0-0.6-0.36-0.46-0.69l3.81-9.22c0.08-0.19,0.26-0.31,0.46-0.31h5.77
				c0.39,0,0.63,0.42,0.43,0.75l-3.23,5.49c-0.2,0.33,0.04,0.75,0.43,0.75h4.94C400.76,260.16,400.98,260.69,400.68,261z"/>
		</g>
	</g>
	<g>
		<g>
			<g>
				<g>
					<path class="st2" d="M336.17,267.5h-4.07c-0.68,0-1.31,0.35-1.68,0.92l-2.23,3.46c-0.79,1.22-2.58,1.22-3.36,0l-2.23-3.46
						c-0.37-0.57-1-0.92-1.68-0.92h-4.07c-4.33,0-7.83,3.51-7.83,7.83V279c0,0.28,0.22,0.5,0.5,0.5h34c0.28,0,0.5-0.22,0.5-0.5
						v-3.67C344,271.01,340.49,267.5,336.17,267.5z"/>
					<path class="st2" d="M329.92,254.5h-6.83c-1.7,0-3.08,1.38-3.08,3.08v4.12c0,0.86,0.34,1.71,1,2.27
						c1.48,1.26,3.4,2.03,5.5,2.03s4.02-0.76,5.5-2.03c0.66-0.56,1-1.41,1-2.27v-4.12C333,255.88,331.62,254.5,329.92,254.5z
						 M328.5,260.5h-4c-0.83,0-1.5-0.67-1.5-1.5s0.67-1.5,1.5-1.5h4c0.83,0,1.5,0.67,1.5,1.5S329.33,260.5,328.5,260.5z
						 M336.5,248.5H336c0-3.41-1.8-6.39-4.5-8.07V246H329v-6.54c0-1.08-0.88-1.96-1.96-1.96h-1.07c-1.08,0-1.96,0.88-1.96,1.96V246
						h-2.5v-5.57c-2.7,1.68-4.5,4.66-4.5,8.07h-0.5c-0.83,0-1.5,0.67-1.5,1.5s0.67,1.5,1.5,1.5h20c0.83,0,1.5-0.67,1.5-1.5
						S337.33,248.5,336.5,248.5z"/>
				</g>
			</g>
		</g>
	</g>
	<g>
		<g>
			<path class="st2" d="M278.63,248.99h-3.05v-0.25c0-1.1-0.9-2-2-2h-3v6.89h3c1.1,0,2-0.9,2-2v-0.14h3.05
				c0.69,0,1.25-0.56,1.25-1.25C279.88,249.55,279.32,248.99,278.63,248.99z"/>
			<path class="st2" d="M265.8,243.63h-10.67v2.11c0,1.1-0.9,2-2,2s-2-0.9-2-2v-2.11h-4v2.11c0,1.1-0.9,2-2,2s-2-0.9-2-2v-2.11h-2
				c-2.21,0-4,1.79-4,4v5.11c0,2.21,1.79,4,4,4h0.38l-3.79,12.13c-0.06,0.19-0.09,0.39-0.09,0.6v1.91c0,1.1,0.9,2,2,2h11.95
				c1.19,0,2.19-0.9,2.3-2.09c0.13-1.36-0.94-2.54-2.3-2.54h-1.23c-0.83,0-1.5-0.67-1.5-1.5c0-0.83,0.67-1.5,1.5-1.5h2.28
				c0.83,0,1.5-0.67,1.5-1.5c0-0.83-0.67-1.5-1.5-1.5h-0.28l-0.22-0.02c-0.72-0.11-1.28-0.73-1.28-1.48c0-0.83,0.67-1.5,1.5-1.5
				h4.79c0.48,0,0.91-0.32,1.06-0.8l0.7-2.2h6.9c1.23,0,2.22-1,2.22-2.22v-8.67C268.02,244.62,267.03,243.63,265.8,243.63z"/>
		</g>
	</g>
	<g>
		<g>
			<g>
				<path class="st2" d="M176,267.75c-0.83,0-1.5,0.67-1.5,1.5c0,0.83,0.67,1.5,1.5,1.5s1.5-0.67,1.5-1.5
					C177.5,268.42,176.83,267.75,176,267.75z M199,257.5c0-1.24-1.01-2.25-2.25-2.25h-4.12l-3.07-12.13
					c-0.22-0.89-1.02-1.51-1.94-1.51h-10.44c-1.1,0-2,0.9-2,2v11.65c-1.21,0.04-2.18,1.02-2.18,2.24v5.44c-2.36,1.13-4,3.53-4,6.31
					c0,3.86,3.14,7,7,7c3.16,0,5.84-2.11,6.71-5h2.59c0.86,2.89,3.54,5,6.71,5c3.86,0,7-3.14,7-7c0-0.05-0.01-0.11-0.01-0.16
					c0-0.03,0.01-0.06,0.01-0.09V257.5z M176,273.25c-2.21,0-4-1.79-4-4s1.79-4,4-4s4,1.79,4,4S178.21,273.25,176,273.25z
					 M187.38,255.61h-3.2v2c0,0.55-0.45,1-1,1h-4c-0.55,0-1-0.45-1-1v-2.37c-0.01-0.04-0.03-0.08-0.03-0.13l0.03-9
					c0-0.28,0.22-0.5,0.5-0.5h6.9c0.24,0,0.44,0.17,0.49,0.4l1.8,9C187.93,255.32,187.69,255.61,187.38,255.61z M192,273.25
					c-2.21,0-4-1.79-4-4s1.79-4,4-4s4,1.79,4,4S194.21,273.25,192,273.25z M192,267.75c-0.83,0-1.5,0.67-1.5,1.5
					c0,0.83,0.67,1.5,1.5,1.5s1.5-0.67,1.5-1.5C193.5,268.42,192.83,267.75,192,267.75z"/>
				<path class="st2" d="M210,267.25h-4.5v-24.5c0-1.1-0.9-2-2-2s-2,0.9-2,2v26.5c0,1.1,0.9,2,2,2h6.5c1.1,0,2-0.9,2-2
					S211.1,267.25,210,267.25z"/>
			</g>
		</g>
	</g>
	<g>
		<g>
			<path class="st2" d="M107.98,249.24v-1.85c0-0.83-0.67-1.5-1.5-1.5s-1.5,0.67-1.5,1.5v3.14c0,0.83,0.67,1.5,1.5,1.5
				c1.34,0,2.43,1.09,2.43,2.43c0,1.34-1.09,2.43-2.43,2.43c-1.34,0-2.43-1.09-2.43-2.43c0-0.83-0.67-1.5-1.5-1.5
				c-0.83,0-1.5,0.67-1.5,1.5c0,2.99,2.44,5.43,5.43,5.43c2.99,0,5.43-2.44,5.43-5.43C111.91,251.98,110.25,249.89,107.98,249.24z"
				/>
			<path class="st2" d="M125.39,269.06c-0.83,0-1.5,0.67-1.5,1.5c0,0.83,0.67,1.5,1.5,1.5c0.83,0,1.5-0.67,1.5-1.5
				C126.89,269.73,126.22,269.06,125.39,269.06z M138.68,260.6v-1.45c0-0.17-0.02-0.33-0.06-0.49l-3.56-14.05
				c-0.22-0.89-1.02-1.51-1.94-1.51h-8.44c-1.1,0-2,0.9-2,2v16h15.5C138.46,261.1,138.68,260.88,138.68,260.6z M133.06,256.1h-6.88
				c-0.28,0-0.5-0.22-0.5-0.5v-8c0-0.28,0.22-0.5,0.5-0.5h5.1c0.23,0,0.44,0.16,0.49,0.39l1.78,8
				C133.62,255.81,133.38,256.1,133.06,256.1z M142.82,266.74c-1.29-1.99-3.5-3.18-5.87-3.18h-24.03c-2.37,0-4.58,1.2-5.87,3.18
				c-1.51,2.32-1.51,5.31,0,7.63c1.29,1.99,3.5,3.18,5.87,3.18h24.03c2.37,0,4.58-1.2,5.87-3.18
				C144.32,272.05,144.32,269.06,142.82,266.74z M113.39,274.56c-2.21,0-4-1.79-4-4c0-2.21,1.79-4,4-4c2.21,0,4,1.79,4,4
				C117.39,272.76,115.59,274.56,113.39,274.56z M125.39,274.56c-2.21,0-4-1.79-4-4c0-2.21,1.79-4,4-4c2.21,0,4,1.79,4,4
				C129.39,272.76,127.59,274.56,125.39,274.56z M137.39,274.56c-2.21,0-4-1.79-4-4c0-2.21,1.79-4,4-4c2.21,0,4,1.79,4,4
				C141.39,272.76,139.59,274.56,137.39,274.56z M137.39,269.06c-0.83,0-1.5,0.67-1.5,1.5c0,0.83,0.67,1.5,1.5,1.5
				c0.83,0,1.5-0.67,1.5-1.5C138.89,269.73,138.22,269.06,137.39,269.06z M113.39,269.06c-0.83,0-1.5,0.67-1.5,1.5
				c0,0.83,0.67,1.5,1.5,1.5c0.83,0,1.5-0.67,1.5-1.5C114.89,269.73,114.22,269.06,113.39,269.06z M112.93,243.88
				c0.11,1.39,0.9,2.57,2.05,3.23v13.94h5.5v-15.29c0.41-0.64,0.65-1.39,0.65-2.21c0-2.27-1.85-4.12-4.12-4.12
				c-1.24,0-2.35,0.57-3.1,1.44h-7.93c-0.83,0-1.5,0.67-1.5,1.5s0.67,1.5,1.5,1.5H112.93z M117.02,241.94
				c0.89,0,1.62,0.73,1.62,1.62c0,0.89-0.72,1.62-1.62,1.62c-0.89,0-1.62-0.73-1.62-1.62C115.4,242.67,116.13,241.94,117.02,241.94z
				"/>
		</g>
	</g>
	<g>
		<g>
			<g>
				<path class="st2" d="M38.51,259.24h17.5c0.28,0,0.5-0.22,0.5-0.5v-1.45c0-0.17-0.02-0.33-0.06-0.49l-3.56-14.05
					c-0.22-0.89-1.02-1.51-1.94-1.51h-8.44c-1.1,0-2,0.9-2,2v12h-2c-1.1,0-2,0.9-2,2C36.51,258.35,37.41,259.24,38.51,259.24z
					 M43.51,245.74c0-0.28,0.22-0.5,0.5-0.5h5.1c0.23,0,0.44,0.16,0.49,0.39l1.78,8c0.07,0.31-0.17,0.61-0.49,0.61h-6.88
					c-0.28,0-0.5-0.22-0.5-0.5V245.74z M54.62,267.26c-0.83,0-1.5,0.67-1.5,1.5c0,0.83,0.67,1.5,1.5,1.5c0.83,0,1.5-0.67,1.5-1.5
					C56.12,267.93,55.45,267.26,54.62,267.26z M61.17,265.73c-1.16-2.43-3.62-3.98-6.31-3.98H40.38c-2.69,0-5.15,1.55-6.31,3.98
					c-0.92,1.91-0.92,4.14,0,6.05c1.16,2.43,3.62,3.98,6.31,3.98h14.48c2.69,0,5.15-1.55,6.31-3.98
					C62.09,269.87,62.09,267.65,61.17,265.73z M40.62,272.76c-2.21,0-4-1.79-4-4c0-2.21,1.79-4,4-4c2.21,0,4,1.79,4,4
					C44.62,270.96,42.83,272.76,40.62,272.76z M54.62,272.76c-2.21,0-4-1.79-4-4c0-2.21,1.79-4,4-4c2.21,0,4,1.79,4,4
					C58.62,270.96,56.83,272.76,54.62,272.76z M40.62,267.26c-0.83,0-1.5,0.67-1.5,1.5c0,0.83,0.67,1.5,1.5,1.5s1.5-0.67,1.5-1.5
					C42.12,267.93,41.45,267.26,40.62,267.26z"/>
				<path class="st2" d="M75.36,266.47L71.04,264c-0.26-0.15-0.45-0.41-0.49-0.72l-1.8-11.68c-0.08-0.49-0.49-0.85-0.99-0.85h-2.4
					c-0.55,0-1,0.45-1,1v5.01l-3.25,0.03c-0.83,0.01-1.49,0.68-1.49,1.51c0.01,0.82,0.68,1.49,1.5,1.49h0.01l3.23-0.03v7.99
					c0,0.55,0.45,1,1,1h9.26c0.55,0,1-0.45,1-1v-0.62C75.62,266.89,75.53,266.66,75.36,266.47z"/>
			</g>
		</g>
	</g>
	<g>
		<g>
			<g>
				<path class="st2" d="M415.12,191.23l-3.5-9.36c-0.29-0.78-1.04-1.3-1.87-1.3h-8.5c-1.1,0-2,0.9-2,2v13.65h-7.19
					c-1.19-0.94-2.69-1.5-4.31-1.5s-3.12,0.56-4.31,1.5h-4.24c-0.24,0-0.44,0.21-0.44,0.46v4.58c0,0.25,0.2,0.46,0.44,0.46h1.56
					c0,0,0,0,0,0c0,3.86,3.14,7,7,7s7-3.14,7-7c0,0,0,0,0,0h3c0,0,0,0,0,0c0,3.86,3.14,7,7,7s7-3.14,7-7c0-0.05-0.01-0.1-0.01-0.15
					h1.51c1.1,0,2-0.9,2-2v-7.64C415.25,191.69,415.21,191.45,415.12,191.23z M387.75,205.72c-2.21,0-4-1.79-4-4c0-2.21,1.79-4,4-4
					s4,1.79,4,4C391.75,203.92,389.96,205.72,387.75,205.72z M404.75,205.72c-2.21,0-4-1.79-4-4c0-2.21,1.79-4,4-4s4,1.79,4,4
					C408.75,203.92,406.96,205.72,404.75,205.72z M410.47,190.48l-7.78-0.86c-0.25-0.03-0.44-0.24-0.44-0.5v-4.05
					c0-0.28,0.22-0.5,0.5-0.5h6.14c0.22,0,0.41,0.14,0.47,0.34l1.64,4.92C411.12,190.17,410.84,190.52,410.47,190.48z
					 M387.75,200.22c-0.83,0-1.5,0.67-1.5,1.5c0,0.83,0.67,1.5,1.5,1.5s1.5-0.67,1.5-1.5C389.25,200.89,388.58,200.22,387.75,200.22
					z M404.75,200.22c-0.83,0-1.5,0.67-1.5,1.5c0,0.83,0.67,1.5,1.5,1.5s1.5-0.67,1.5-1.5
					C406.25,200.89,405.58,200.22,404.75,200.22z"/>
				<path class="st2" d="M373.75,176.85v11.18c0,5.49,23,5.49,23,0v-11.18C396.75,170.76,373.75,170.76,373.75,176.85z"/>
			</g>
		</g>
	</g>
	<g>
		<g>
			<path class="st2" d="M306.38,181.12h9c0.28,0,0.5-0.22,0.5-0.5v-5c0-0.28-0.22-0.5-0.5-0.5h-9c-0.28,0-0.5,0.22-0.5,0.5v5
				C305.88,180.9,306.1,181.12,306.38,181.12z M327.88,183.62h-21.5c-0.28,0-0.5,0.22-0.5,0.5v5c0,0.28,0.22,0.5,0.5,0.5h21.5
				c0.28,0,0.5-0.22,0.5-0.5v-5C328.38,183.85,328.15,183.62,327.88,183.62z M327.88,175.12h-9c-0.28,0-0.5,0.22-0.5,0.5v5
				c0,0.28,0.22,0.5,0.5,0.5h9c0.28,0,0.5-0.22,0.5-0.5v-5C328.38,175.35,328.15,175.12,327.88,175.12z"/>
			<path class="st2" d="M319.63,197.37c-0.83,0-1.5,0.67-1.5,1.5s0.67,1.5,1.5,1.5s1.5-0.67,1.5-1.5S320.45,197.37,319.63,197.37z
				 M336.63,197.37c-0.83,0-1.5,0.67-1.5,1.5s0.67,1.5,1.5,1.5s1.5-0.67,1.5-1.5S337.45,197.37,336.63,197.37z M347,188.39
				l-3.5-9.36c-0.29-0.78-1.04-1.3-1.87-1.3h-8.5c-1.1,0-2,0.9-2,2v13.65h-7.19c-1.19-0.94-2.69-1.5-4.31-1.5s-3.12,0.56-4.31,1.5
				h-4.24c-0.24,0-0.44,0.21-0.44,0.46v4.58c0,0.25,0.2,0.46,0.44,0.46h1.56c0,0,0,0,0,0c0,3.86,3.14,7,7,7s7-3.14,7-7c0,0,0,0,0,0
				h3c0,0,0,0,0,0c0,3.86,3.14,7,7,7s7-3.14,7-7c0-0.05-0.01-0.1-0.01-0.15h1.51c1.1,0,2-0.9,2-2v-7.64
				C347.13,188.85,347.08,188.61,347,188.39z M319.63,202.88c-2.21,0-4-1.79-4-4c0-2.21,1.79-4,4-4s4,1.79,4,4
				C323.63,201.08,321.83,202.88,319.63,202.88z M336.63,202.88c-2.21,0-4-1.79-4-4c0-2.21,1.79-4,4-4s4,1.79,4,4
				C340.63,201.08,338.83,202.88,336.63,202.88z M342.35,187.64l-7.78-0.86c-0.25-0.03-0.44-0.24-0.44-0.5v-4.05
				c0-0.28,0.22-0.5,0.5-0.5h6.14c0.22,0,0.41,0.14,0.47,0.34l1.64,4.92C342.99,187.33,342.71,187.68,342.35,187.64z"/>
		</g>
	</g>
	<g>
		<g>
			<path class="st2" d="M259.75,172h-21c-0.55,0-1,0.45-1,1v19c0,0.55,0.45,1,1,1h21c0.55,0,1-0.45,1-1v-19
				C260.75,172.45,260.3,172,259.75,172z M244.75,187.5c0,0.83-0.67,1.5-1.5,1.5c-0.83,0-1.5-0.67-1.5-1.5v-10
				c0-0.83,0.67-1.5,1.5-1.5c0.83,0,1.5,0.67,1.5,1.5V187.5z M250.75,187.5c0,0.83-0.67,1.5-1.5,1.5c-0.83,0-1.5-0.67-1.5-1.5v-10
				c0-0.83,0.67-1.5,1.5-1.5c0.83,0,1.5,0.67,1.5,1.5V187.5z M256.75,187.5c0,0.83-0.67,1.5-1.5,1.5c-0.83,0-1.5-0.67-1.5-1.5v-10
				c0-0.83,0.67-1.5,1.5-1.5c0.83,0,1.5,0.67,1.5,1.5V187.5z"/>
			<path class="st2" d="M251.75,200.5c-0.83,0-1.5,0.67-1.5,1.5s0.67,1.5,1.5,1.5s1.5-0.67,1.5-1.5S252.58,200.5,251.75,200.5z
				 M279.12,191.51l-3.5-9.36c-0.29-0.78-1.04-1.3-1.87-1.3h-8.5c-1.1,0-2,0.9-2,2v13.65h-7.19c-1.19-0.94-2.69-1.5-4.31-1.5
				s-3.12,0.56-4.31,1.5h-4.24c-0.24,0-0.44,0.21-0.44,0.46v4.58c0,0.25,0.2,0.46,0.44,0.46h1.56c0,0,0,0,0,0c0,3.86,3.14,7,7,7
				s7-3.14,7-7c0,0,0,0,0,0h3c0,0,0,0,0,0c0,3.86,3.14,7,7,7s7-3.14,7-7c0-0.05-0.01-0.1-0.01-0.15h1.51c1.1,0,2-0.9,2-2v-7.64
				C279.25,191.97,279.21,191.74,279.12,191.51z M251.75,206c-2.21,0-4-1.79-4-4c0-2.21,1.79-4,4-4s4,1.79,4,4
				C255.75,204.21,253.96,206,251.75,206z M268.75,206c-2.21,0-4-1.79-4-4c0-2.21,1.79-4,4-4s4,1.79,4,4
				C272.75,204.21,270.96,206,268.75,206z M274.47,190.77l-7.78-0.86c-0.25-0.03-0.44-0.24-0.44-0.5v-4.05c0-0.28,0.22-0.5,0.5-0.5
				h6.14c0.22,0,0.41,0.14,0.47,0.34l1.64,4.92C275.12,190.46,274.84,190.81,274.47,190.77z M268.75,200.5c-0.83,0-1.5,0.67-1.5,1.5
				s0.67,1.5,1.5,1.5s1.5-0.67,1.5-1.5S269.58,200.5,268.75,200.5z"/>
		</g>
	</g>
	<g>
		<g>
			<path class="st2" d="M187.58,172.19c-0.79,0-1.51,0.23-2.14,0.62h-9.23c-0.83,0-1.5,0.67-1.5,1.5s0.67,1.5,1.5,1.5h7
				c0.1,0,0.2,0.02,0.3,0.03c-0.02,0.16-0.05,0.31-0.05,0.47c0,1.39,0.69,2.61,1.75,3.36v13.32h5.5v-14.04
				c0.6-0.72,0.98-1.63,0.98-2.64C191.7,174.04,189.85,172.19,187.58,172.19z M187.58,177.92c-0.89,0-1.62-0.72-1.62-1.62
				c0-0.89,0.72-1.62,1.62-1.62s1.62,0.73,1.62,1.62C189.2,177.2,188.47,177.92,187.58,177.92z"/>
			<path class="st2" d="M182.14,186.38c0-2.47-1.66-4.57-3.93-5.22v-1.85c0-0.83-0.67-1.5-1.5-1.5s-1.5,0.67-1.5,1.5v3.14
				c0,0.83,0.67,1.5,1.5,1.5c1.34,0,2.43,1.09,2.43,2.43s-1.09,2.43-2.43,2.43s-2.43-1.09-2.43-2.43c0-0.83-0.67-1.5-1.5-1.5
				c-0.83,0-1.5,0.67-1.5,1.5c0,2.99,2.44,5.43,5.43,5.43S182.14,189.37,182.14,186.38z M209.59,191.32l-3.5-9.36
				c-0.29-0.78-1.04-1.3-1.87-1.3h-8.5c-1.1,0-2,0.9-2,2v13.65h-7.18c-1.19-0.94-2.69-1.5-4.32-1.5s-3.12,0.56-4.31,1.5h-4.24
				c-0.24,0-0.44,0.21-0.44,0.46v4.58c0,0.25,0.2,0.46,0.44,0.46h1.56c0,0,0,0,0,0c0,3.86,3.14,7,7,7c3.86,0,7-3.14,7-7c0,0,0,0,0,0
				h3c0,0,0,0,0,0c0,3.86,3.14,7,7,7c3.86,0,7-3.14,7-7c0-0.05-0.01-0.1-0.01-0.15h1.51c1.1,0,2-0.9,2-2v-7.64
				C209.71,191.78,209.67,191.54,209.59,191.32z M182.21,205.81c-2.21,0-4-1.79-4-4c0-2.21,1.79-4,4-4c2.21,0,4,1.79,4,4
				C186.21,204.01,184.42,205.81,182.21,205.81z M199.21,205.81c-2.21,0-4-1.79-4-4c0-2.21,1.79-4,4-4c2.21,0,4,1.79,4,4
				C203.21,204.01,201.42,205.81,199.21,205.81z M204.94,190.57l-7.78-0.86c-0.25-0.03-0.44-0.24-0.44-0.5v-4.05
				c0-0.28,0.22-0.5,0.5-0.5h6.14c0.22,0,0.41,0.14,0.47,0.34l1.64,4.92C205.58,190.26,205.3,190.61,204.94,190.57z M182.21,200.31
				c-0.83,0-1.5,0.67-1.5,1.5c0,0.83,0.67,1.5,1.5,1.5s1.5-0.67,1.5-1.5C183.71,200.98,183.04,200.31,182.21,200.31z M199.21,200.31
				c-0.83,0-1.5,0.67-1.5,1.5c0,0.83,0.67,1.5,1.5,1.5s1.5-0.67,1.5-1.5C200.71,200.98,200.04,200.31,199.21,200.31z"/>
		</g>
	</g>
	<g>
		<g>
			<path class="st2" d="M136.11,172.19l-7-0.07c-0.56,0.03-1.03,0.34-1.2,0.85l-0.84,2.51l-23.48,0.03c-0.48,0-0.89,0.34-0.98,0.81
				l-1.84,9.36c-0.1,0.51,0.21,1.02,0.72,1.16l22.66,6.18c0.54,0.15,1.1-0.18,1.23-0.72l3.89-15.51c0-0.01,0.01-0.02,0.01-0.03
				l0.71-2.14l6.09,0.06h0.01c0.68,0,1.24-0.55,1.25-1.24C137.36,172.76,136.8,172.2,136.11,172.19z M109.39,180.24l-0.83,3.48
				c-0.17,0.69-0.78,1.15-1.46,1.15c-0.12,0-0.23-0.01-0.35-0.04c-0.81-0.19-1.3-1-1.11-1.81l0.83-3.48c0.19-0.81,1-1.31,1.81-1.11
				C109.09,178.63,109.58,179.43,109.39,180.24z M116.05,180.29l-1.5,5.48c-0.18,0.67-0.79,1.1-1.45,1.1c-0.13,0-0.26-0.02-0.4-0.05
				c-0.8-0.22-1.27-1.04-1.05-1.84l1.5-5.48c0.22-0.8,1.04-1.27,1.84-1.05C115.8,178.66,116.26,179.49,116.05,180.29z
				 M122.71,180.31l-2.17,7.48c-0.19,0.66-0.79,1.08-1.44,1.08c-0.14,0-0.28-0.02-0.42-0.06c-0.8-0.23-1.25-1.06-1.02-1.86
				l2.17-7.48c0.23-0.8,1.07-1.26,1.86-1.02C122.48,178.68,122.94,179.51,122.71,180.31z"/>
			<path class="st2" d="M117.6,200.37c-0.83,0-1.5,0.67-1.5,1.5c0,0.83,0.67,1.5,1.5,1.5s1.5-0.67,1.5-1.5
				C119.1,201.05,118.43,200.37,117.6,200.37z M134.6,200.37c-0.83,0-1.5,0.67-1.5,1.5c0,0.83,0.67,1.5,1.5,1.5s1.5-0.67,1.5-1.5
				C136.1,201.05,135.43,200.37,134.6,200.37z M144.11,191.39l-3.5-9.36c-0.29-0.78-1.04-1.3-1.87-1.3h-5.88
				c-0.94,0-1.76,0.66-1.96,1.58l-3.34,14.07h-5.65c-1.19-0.94-2.69-1.5-4.31-1.5c-1.63,0-3.12,0.56-4.31,1.5h-4.24
				c-0.24,0-0.44,0.21-0.44,0.46v4.58c0,0.25,0.2,0.46,0.44,0.46h1.56c0,0,0,0,0,0c0,3.86,3.14,7,7,7c3.86,0,7-3.14,7-7c0,0,0,0,0,0
				h3c0,0,0,0,0,0c0,3.86,3.14,7,7,7c3.86,0,7-3.14,7-7c0-0.05-0.01-0.1-0.01-0.15h0.65c1.1,0,2-0.9,2-2v-7.64
				C144.24,191.85,144.2,191.61,144.11,191.39z M117.6,205.88c-2.21,0-4-1.79-4-4s1.79-4,4-4c2.21,0,4,1.79,4,4
				S119.81,205.88,117.6,205.88z M134.6,205.88c-2.21,0-4-1.79-4-4s1.79-4,4-4c2.21,0,4,1.79,4,4S136.81,205.88,134.6,205.88z
				 M139.79,189.66l-6.62-0.55c-0.3-0.03-0.51-0.31-0.45-0.61l0.78-3.38c0.05-0.23,0.25-0.39,0.49-0.39h4.26
				c0.2,0,0.39,0.12,0.46,0.31l1.57,3.93C140.44,189.32,140.16,189.69,139.79,189.66z"/>
		</g>
	</g>
	<g>
		<g>
			<g>
				<path class="st2" d="M75.54,190.76l-3.5-9.36c-0.29-0.78-1.04-1.3-1.87-1.3h-8.5c-1.1,0-2,0.9-2,2v13.65h-7.19
					c-1.19-0.94-2.69-1.5-4.31-1.5c-1.63,0-3.12,0.56-4.31,1.5h-4.24c-0.24,0-0.44,0.21-0.44,0.46v4.58c0,0.25,0.2,0.46,0.44,0.46
					h1.56c0,0,0,0,0,0c0,3.86,3.14,7,7,7s7-3.14,7-7c0,0,0,0,0,0h3c0,0,0,0,0,0c0,3.86,3.14,7,7,7s7-3.14,7-7
					c0-0.05-0.01-0.1-0.01-0.15h1.51c1.1,0,2-0.9,2-2v-7.64C75.67,191.22,75.62,190.98,75.54,190.76z M48.17,205.25
					c-2.21,0-4-1.79-4-4c0-2.21,1.79-4,4-4c2.21,0,4,1.79,4,4C52.17,203.45,50.37,205.25,48.17,205.25z M65.17,205.25
					c-2.21,0-4-1.79-4-4c0-2.21,1.79-4,4-4c2.21,0,4,1.79,4,4C69.17,203.45,67.37,205.25,65.17,205.25z M70.89,190.01l-7.78-0.86
					c-0.25-0.03-0.44-0.24-0.44-0.5v-4.05c0-0.28,0.22-0.5,0.5-0.5h6.14c0.22,0,0.41,0.14,0.47,0.34l1.64,4.92
					C71.53,189.7,71.25,190.05,70.89,190.01z M48.17,199.75c-0.83,0-1.5,0.67-1.5,1.5c0,0.83,0.67,1.5,1.5,1.5s1.5-0.67,1.5-1.5
					C49.67,200.42,48.99,199.75,48.17,199.75z M65.17,199.75c-0.83,0-1.5,0.67-1.5,1.5c0,0.83,0.67,1.5,1.5,1.5s1.5-0.67,1.5-1.5
					C66.67,200.42,65.99,199.75,65.17,199.75z"/>
				<path class="st2" d="M57.77,179.28l-3.99-5.47c-0.15-0.2-0.36-0.34-0.61-0.39l-3.2-0.65c-0.51-0.1-1.02,0.2-1.16,0.71
					l-2.75,9.61c-0.16,0.55-0.66,0.91-1.2,0.91c-0.11,0-0.23-0.02-0.34-0.05c-0.66-0.19-1.05-0.88-0.86-1.55l2.32-8.13
					c0.21-0.73-0.44-1.41-1.18-1.25l-9.05,1.99c-0.2,0.04-0.37,0.14-0.51,0.29c-0.46,0.48-1.49,1.72-1.8,3.43
					c-0.31,1.73,0.01,3.86,0.17,4.73c0.05,0.26,0.19,0.48,0.4,0.63l9.86,6.98c0.11,0.08,0.24,0.14,0.38,0.16l5.09,1.03
					c0.24,0.05,0.5,0.01,0.71-0.12l5.8-3.49c0.24-0.14,0.41-0.38,0.46-0.66l1.6-7.92C58,179.8,57.94,179.51,57.77,179.28z"/>
			</g>
		</g>
	</g>
	<g>
		<g>
			<path class="st2" d="M403.25,123.44l-2.59-7.23c-0.07-0.2-0.26-0.33-0.47-0.33h-11.11c-0.21,0-0.4,0.13-0.47,0.33l-2.59,7.23
				c-0.12,0.33,0.13,0.67,0.47,0.67h16.28C403.12,124.11,403.36,123.77,403.25,123.44z"/>
			<path class="st2" d="M410.64,134.5h-3.44l-2.52-7.06c-0.07-0.2-0.26-0.33-0.47-0.33h-19.14c-0.21,0-0.4,0.13-0.47,0.33
				l-2.53,7.06h-3.72c-0.28,0-0.5,0.22-0.5,0.5v4c0,0.28,0.22,0.5,0.5,0.5h32.29c0.28,0,0.5-0.22,0.5-0.5v-4
				C411.14,134.72,410.92,134.5,410.64,134.5z M390.52,112.89h8.24c0.35,0,0.59-0.34,0.47-0.67l-2.29-6.39
				c-0.07-0.2-0.26-0.33-0.47-0.33h-3.67c-0.21,0-0.4,0.13-0.47,0.33l-2.29,6.39C389.93,112.54,390.17,112.89,390.52,112.89z"/>
		</g>
	</g>
	<g>
		<g>
			<path class="st2" d="M345.09,133.48l-15.13-25.99c-1.54-2.65-5.37-2.65-6.91,0l-15.13,25.99c-1.55,2.67,0.37,6.01,3.46,6.01
				h30.27C344.72,139.5,346.64,136.15,345.09,133.48z M326.5,135.34c-1.4,0-2.54-1.14-2.54-2.54s1.14-2.54,2.54-2.54
				c1.4,0,2.54,1.14,2.54,2.54S327.9,135.34,326.5,135.34z M329.97,119.12l-1.47,6.5c-0.25,1.1-1.35,1.8-2.45,1.55
				c-0.8-0.18-1.38-0.8-1.55-1.55l-1.47-6.5c-0.43-1.91,0.77-3.82,2.68-4.25c1.91-0.43,3.82,0.77,4.25,2.68
				C330.09,118.08,330.08,118.62,329.97,119.12z"/>
		</g>
	</g>
	<g>
		<g>
			<g>
				<path class="st2" d="M271.28,122.4l-11.57-10.02c-0.7-0.6-1.73-0.6-2.42,0l-11.57,10.02c-0.41,0.35-0.64,0.86-0.64,1.4v14.58
					c0,0.26,0.21,0.46,0.46,0.46h8.33c0.26,0,0.46-0.21,0.46-0.46v-9.87c0-1.02,0.83-1.85,1.85-1.85h4.63
					c1.02,0,1.85,0.83,1.85,1.85v9.87c0,0.26,0.21,0.46,0.46,0.46h8.33c0.26,0,0.46-0.21,0.46-0.46V123.8
					C271.92,123.26,271.69,122.75,271.28,122.4z"/>
				<path class="st2" d="M275.75,117.81l-14.63-12.67c-1.5-1.3-3.73-1.3-5.24,0l-5.69,4.93v-4.15h-5.16v8.62l-3.78,3.28
					c-0.83,0.72-0.87,1.99-0.1,2.76h0c0.7,0.7,1.82,0.74,2.57,0.09L257.19,109c0.75-0.65,1.87-0.65,2.62,0l13.47,11.66
					c0.75,0.65,1.87,0.61,2.57-0.09C276.63,119.8,276.58,118.53,275.75,117.81z"/>
			</g>
		</g>
	</g>
	<g>
		<g>
			<path class="st2" d="M200.11,106.06c-0.69,0-1.25,0.56-1.25,1.25v2.05c-0.07-0.01-0.14-0.02-0.22-0.02h-16.28
				c-0.07,0-0.13,0.01-0.19,0.02v-2.07c0-0.69-0.56-1.25-1.25-1.25c-0.69,0-1.25,0.56-1.25,1.25v4.56c0,0.07-0.02,0.13-0.02,0.2
				v4.98c0,0.72,0.29,1.41,0.79,1.92l5.19,5.19c0.51,0.51,1.2,0.79,1.92,0.79h5.89c0.72,0,1.41-0.29,1.92-0.79l5.19-5.19
				c0.51-0.51,0.79-1.2,0.79-1.92v-0.54c0-0.01,0-0.02,0-0.02v-9.17C201.36,106.62,200.8,106.06,200.11,106.06z M190.5,119.06
				c-1.43,0-2.6-1.16-2.6-2.6c0-1.43,1.16-2.6,2.6-2.6c1.43,0,2.6,1.16,2.6,2.6C193.1,117.9,191.93,119.06,190.5,119.06z"/>
			<path class="st2" d="M193.4,131.93c-0.89-0.56-1.4-1.41-1.4-2.31v-0.17c0-0.83-0.67-1.5-1.5-1.5s-1.5,0.67-1.5,1.5v0.17
				c0,1.93,1.05,3.74,2.8,4.85c0.88,0.56,1.3,1.6,1.06,2.65c-0.2,0.86-0.91,1.57-1.77,1.77c-0.77,0.18-1.51,0.01-2.1-0.46
				c-0.58-0.46-0.92-1.16-0.92-1.9c0-0.83-0.67-1.5-1.5-1.5c-0.83,0-1.5,0.67-1.5,1.5c0,1.66,0.75,3.21,2.05,4.25
				c0.97,0.77,2.16,1.18,3.39,1.18c0.42,0,0.84-0.05,1.25-0.14c1.99-0.45,3.57-2.03,4.03-4.03
				C196.31,135.47,195.37,133.18,193.4,131.93z M187.11,106.06h6.78c0.83,0,1.5-0.67,1.5-1.5c0-0.83-0.67-1.5-1.5-1.5h-6.78
				c-0.83,0-1.5,0.67-1.5,1.5C185.61,105.38,186.28,106.06,187.11,106.06z"/>
		</g>
	</g>
	<g>
		<g>
			<path class="st2" d="M111.75,129.24h-7.5c-0.28,0-0.5,0.22-0.5,0.5v7.25c0,0.28,0.22,0.5,0.5,0.5h7.5c0.28,0,0.5-0.22,0.5-0.5
				v-7.25C112.25,129.46,112.03,129.24,111.75,129.24z M104.25,126.51h17c0.28,0,0.5-0.22,0.5-0.5v-7.25c0-0.28-0.22-0.5-0.5-0.5
				h-17c-0.28,0-0.5,0.22-0.5,0.5v7.25C103.75,126.29,103.97,126.51,104.25,126.51z M104.25,115.76h7.5c0.28,0,0.5-0.22,0.5-0.5
				v-7.25c0-0.28-0.22-0.5-0.5-0.5h-7.5c-0.28,0-0.5,0.22-0.5,0.5v7.25C103.75,115.54,103.97,115.76,104.25,115.76z M140.75,107.51
				h-8c-0.28,0-0.5,0.22-0.5,0.5v7.25c0,0.28,0.22,0.5,0.5,0.5h8c0.28,0,0.5-0.22,0.5-0.5v-7.25
				C141.25,107.74,141.03,107.51,140.75,107.51z M140.75,118.26h-16c-0.28,0-0.5,0.22-0.5,0.5v7.25c0,0.28,0.22,0.5,0.5,0.5h16
				c0.28,0,0.5-0.22,0.5-0.5v-7.25C141.25,118.49,141.03,118.26,140.75,118.26z M129.25,129.24h-14c-0.28,0-0.5,0.22-0.5,0.5v7.25
				c0,0.28,0.22,0.5,0.5,0.5h14c0.28,0,0.5-0.22,0.5-0.5v-7.25C129.75,129.46,129.53,129.24,129.25,129.24z"/>
			<path class="st2" d="M129.25,107.51h-14c-0.28,0-0.5,0.22-0.5,0.5v7.25c0,0.28,0.22,0.5,0.5,0.5h14c0.28,0,0.5-0.22,0.5-0.5
				v-7.25C129.75,107.74,129.53,107.51,129.25,107.51z M140.75,129.24h-8c-0.28,0-0.5,0.22-0.5,0.5v7.25c0,0.28,0.22,0.5,0.5,0.5h8
				c0.28,0,0.5-0.22,0.5-0.5v-7.25C141.25,129.46,141.03,129.24,140.75,129.24z"/>
		</g>
	</g>
	<g>
		<g>
			<path class="st2" d="M42,104.5c-1.66,0-3,1.34-3,3s1.34,3,3,3s3-1.34,3-3S43.66,104.5,42,104.5z M67,104.5c-1.66,0-3,1.34-3,3
				s1.34,3,3,3s3-1.34,3-3S68.66,104.5,67,104.5z M47,135.5h15v-3H47V135.5z"/>
			<path class="st2" d="M72.5,113.5h-36c-0.55,0-1,0.45-1,1v11c0,0.55,0.45,1,1,1h3v14h5v-14h20v14h5v-14h3c0.55,0,1-0.45,1-1v-11
				C73.5,113.95,73.05,113.5,72.5,113.5z M43.62,123.5H38.5v-1.64l2.88-5.36h6.01L43.62,123.5z M55.62,123.5h-6l3.77-7h6.01
				L55.62,123.5z M70.5,118.16l-2.88,5.34h-6l3.77-7h5.12V118.16z"/>
		</g>
	</g>
</g>
<g id="title" class="st0">
	<g class="st3">
		<path class="st2" d="M31.23,50.76c0-3.87,2.35-6.01,6.06-6.01c1.72,0,2.91,0.23,3.87,0.47c0.51,0.14,0.75,0.56,0.63,1.09
			l-0.21,0.96c-0.12,0.51-0.61,0.75-1.12,0.61c-0.63-0.14-1.49-0.33-2.7-0.33c-1.91,0-3.08,0.82-3.08,3.47v4.33
			c0,2.66,1.16,3.47,3.08,3.47c1.49,0,2.4-0.26,2.82-0.35c0.56-0.14,0.89,0.12,1,0.63l0.21,0.96c0.09,0.47-0.12,0.96-0.63,1.1
			c-0.54,0.14-1.93,0.47-3.87,0.47c-3.71,0-6.06-2.12-6.06-6.01V50.76z"/>
		<path class="st2" d="M44.28,51.69c0-4.01,2.4-6.94,6.55-6.94c4.15,0,6.55,2.94,6.55,6.94v2.98c0,4.01-2.4,6.94-6.55,6.94
			c-4.15,0-6.55-2.94-6.55-6.94V51.69z M53.93,54.42v-2.47c0-2.35-0.63-4.4-3.1-4.4c-2.45,0-3.1,2.05-3.1,4.4v2.47
			c0,2.38,0.65,4.4,3.1,4.4C53.3,58.82,53.93,56.79,53.93,54.42z"/>
		<path class="st2" d="M60.36,46.17c0-0.68,0.44-1.12,1.12-1.12h0.93c0.68,0,1.19,0.37,1.56,1.03l5.17,9.13
			c-0.14-1.17-0.21-2.33-0.21-3.22v-5.83c0-0.68,0.44-1.12,1.12-1.12h1.07c0.68,0,1.12,0.44,1.12,1.12V60.2
			c0,0.68-0.44,1.12-1.12,1.12h-0.93c-0.68,0-1.21-0.37-1.58-1.03l-5.15-9.09c0.12,1.17,0.21,2.31,0.21,3.17v5.82
			c0,0.68-0.44,1.12-1.12,1.12h-1.07c-0.68,0-1.12-0.44-1.12-1.12V46.17z"/>
		<path class="st2" d="M75.03,59.61l0.14-0.61c0.16-0.72,0.68-0.91,1.3-0.72c0.44,0.12,1.68,0.54,3.15,0.54
			c1.58,0,2.24-0.84,2.24-1.96c0-3.17-6.73-1.98-6.73-7.55c0-2.89,2.42-4.57,5.62-4.57c1.49,0,2.52,0.33,3.1,0.51
			c0.63,0.21,0.98,0.72,0.75,1.42l-0.16,0.51c-0.21,0.63-0.75,0.91-1.42,0.7c-0.54-0.16-1.26-0.35-2.26-0.35
			c-1.4,0-2.1,0.7-2.1,1.77c0,2.73,6.73,2.03,6.73,7.55c0,2.87-2.33,4.75-5.75,4.75c-1.61,0-2.87-0.35-3.77-0.63
			C75.17,60.78,74.87,60.36,75.03,59.61z"/>
		<path class="st2" d="M90.62,47.85h-2.66c-0.68,0-1.12-0.44-1.12-1.12v-0.56c0-0.68,0.44-1.12,1.12-1.12h8.67
			c0.67,0,1.12,0.44,1.12,1.12v0.56c0,0.68-0.44,1.12-1.12,1.12h-2.66V60.2c0,0.68-0.44,1.12-1.12,1.12h-1.12
			c-0.68,0-1.12-0.44-1.12-1.12V47.85z"/>
		<path class="st2" d="M100.13,46.84c0-0.68,0.47-1.26,1.14-1.44c0.72-0.21,2.45-0.65,4.12-0.65c3.66,0,5.62,2.59,5.62,5.41
			c0,1.49-0.79,3.75-3.05,4.75l2.38,5.1c0.33,0.68-0.09,1.3-0.77,1.3h-1.38c-0.68,0-1.09-0.37-1.38-1l-2.14-4.92h-1.19v4.8
			c0,0.68-0.44,1.12-1.12,1.12h-1.12c-0.68,0-1.12-0.44-1.12-1.12V46.84z M105.13,52.74c1.56,0,2.35-1,2.35-2.59
			c0-1.44-0.61-2.61-2.12-2.61c-0.63,0-1.26,0.07-1.89,0.28v4.92H105.13z"/>
		<path class="st2" d="M113.27,46.17c0-0.68,0.44-1.12,1.12-1.12h1.12c0.68,0,1.12,0.44,1.12,1.12v9.39c0,1.56,0.77,3.26,2.91,3.26
			c2.1,0,2.89-1.7,2.89-3.26v-9.39c0-0.68,0.44-1.12,1.12-1.12h1.12c0.68,0,1.12,0.44,1.12,1.12v8.99c0,4.01-2.19,6.45-6.24,6.45
			c-4.01,0-6.27-2.42-6.27-6.45V46.17z"/>
		<path class="st2" d="M128.43,50.76c0-3.87,2.35-6.01,6.06-6.01c1.72,0,2.91,0.23,3.87,0.47c0.51,0.14,0.75,0.56,0.63,1.09
			l-0.21,0.96c-0.12,0.51-0.61,0.75-1.12,0.61c-0.63-0.14-1.49-0.33-2.7-0.33c-1.91,0-3.08,0.82-3.08,3.47v4.33
			c0,2.66,1.16,3.47,3.08,3.47c1.49,0,2.4-0.26,2.82-0.35c0.56-0.14,0.89,0.12,1,0.63l0.21,0.96c0.09,0.47-0.12,0.96-0.63,1.1
			c-0.54,0.14-1.93,0.47-3.87,0.47c-3.7,0-6.06-2.12-6.06-6.01V50.76z"/>
		<path class="st2" d="M144.65,47.85h-2.66c-0.68,0-1.12-0.44-1.12-1.12v-0.56c0-0.68,0.44-1.12,1.12-1.12h8.67
			c0.67,0,1.12,0.44,1.12,1.12v0.56c0,0.68-0.44,1.12-1.12,1.12H148V60.2c0,0.68-0.44,1.12-1.12,1.12h-1.12
			c-0.68,0-1.12-0.44-1.12-1.12V47.85z"/>
		<path class="st2" d="M154.15,46.17c0-0.68,0.44-1.12,1.12-1.12h1.12c0.67,0,1.12,0.44,1.12,1.12V60.2c0,0.68-0.44,1.12-1.12,1.12
			h-1.12c-0.68,0-1.12-0.44-1.12-1.12V46.17z"/>
		<path class="st2" d="M160.49,51.69c0-4.01,2.4-6.94,6.55-6.94c4.15,0,6.55,2.94,6.55,6.94v2.98c0,4.01-2.4,6.94-6.55,6.94
			c-4.15,0-6.55-2.94-6.55-6.94V51.69z M170.14,54.42v-2.47c0-2.35-0.63-4.4-3.1-4.4c-2.45,0-3.1,2.05-3.1,4.4v2.47
			c0,2.38,0.65,4.4,3.1,4.4C169.51,58.82,170.14,56.79,170.14,54.42z"/>
		<path class="st2" d="M176.57,46.17c0-0.68,0.44-1.12,1.12-1.12h0.93c0.68,0,1.19,0.37,1.56,1.03l5.17,9.13
			c-0.14-1.17-0.21-2.33-0.21-3.22v-5.83c0-0.68,0.44-1.12,1.12-1.12h1.07c0.68,0,1.12,0.44,1.12,1.12V60.2
			c0,0.68-0.44,1.12-1.12,1.12h-0.93c-0.68,0-1.21-0.37-1.58-1.03l-5.15-9.09c0.12,1.17,0.21,2.31,0.21,3.17v5.82
			c0,0.68-0.44,1.12-1.12,1.12h-1.07c-0.68,0-1.12-0.44-1.12-1.12V46.17z"/>
		<path class="st4" d="M197.32,45.71c0-0.7,0.46-1.15,1.15-1.15h1.15c0.7,0,1.15,0.46,1.15,1.15v14.45c0,0.7-0.46,1.15-1.15,1.15
			h-1.15c-0.7,0-1.15-0.46-1.15-1.15V45.71z"/>
		<path class="st4" d="M203.87,50.44c0-3.98,2.42-6.19,6.24-6.19c1.78,0,3,0.24,3.98,0.48c0.53,0.14,0.77,0.58,0.65,1.13l-0.22,0.98
			c-0.12,0.53-0.62,0.77-1.15,0.62c-0.65-0.14-1.54-0.34-2.78-0.34c-1.97,0-3.17,0.84-3.17,3.58v4.46c0,2.74,1.2,3.58,3.17,3.58
			c1.54,0,2.47-0.26,2.9-0.36c0.58-0.14,0.91,0.12,1.03,0.65l0.22,0.98c0.1,0.48-0.12,0.98-0.65,1.13
			c-0.55,0.14-1.99,0.48-3.98,0.48c-3.82,0-6.24-2.18-6.24-6.19V50.44z"/>
		<path class="st4" d="M217.31,51.4c0-4.13,2.47-7.15,6.74-7.15c4.27,0,6.75,3.02,6.75,7.15v3.07c0,4.13-2.47,7.15-6.75,7.15
			c-4.27,0-6.74-3.02-6.74-7.15V51.4z M227.25,54.21v-2.54c0-2.42-0.65-4.54-3.19-4.54c-2.52,0-3.19,2.11-3.19,4.54v2.54
			c0,2.45,0.67,4.54,3.19,4.54C226.6,58.75,227.25,56.66,227.25,54.21z"/>
		<path class="st4" d="M233.87,45.71c0-0.7,0.46-1.15,1.15-1.15h0.96c0.7,0,1.22,0.38,1.61,1.06l5.33,9.41
			c-0.14-1.2-0.22-2.4-0.22-3.31v-6c0-0.7,0.46-1.15,1.15-1.15h1.1c0.7,0,1.15,0.46,1.15,1.15v14.45c0,0.7-0.46,1.15-1.15,1.15H244
			c-0.7,0-1.25-0.38-1.63-1.06l-5.3-9.36c0.12,1.2,0.22,2.38,0.22,3.26v6c0,0.7-0.46,1.15-1.15,1.15h-1.11
			c-0.7,0-1.15-0.46-1.15-1.15V45.71z"/>
		<path class="st4" d="M248.99,59.56l0.14-0.62c0.17-0.74,0.7-0.94,1.34-0.74c0.46,0.12,1.73,0.55,3.24,0.55
			c1.63,0,2.3-0.86,2.3-2.02c0-3.26-6.94-2.04-6.94-7.78c0-2.98,2.5-4.7,5.78-4.7c1.54,0,2.59,0.34,3.19,0.53
			c0.65,0.22,1.01,0.74,0.77,1.46l-0.17,0.53c-0.22,0.65-0.77,0.94-1.46,0.72c-0.55-0.17-1.3-0.36-2.33-0.36
			c-1.44,0-2.16,0.72-2.16,1.82c0,2.81,6.94,2.09,6.94,7.78c0,2.95-2.4,4.9-5.93,4.9c-1.66,0-2.95-0.36-3.89-0.65
			C249.14,60.76,248.82,60.33,248.99,59.56z"/>
	</g>
</g>
</svg>
