<?xml version="1.0" encoding="utf-8"?>
<!-- Generator: Adobe Illustrator 24.1.1, SVG Export Plug-In . SVG Version: 6.00 Build 0)  -->
<svg version="1.1" xmlns="http://www.w3.org/2000/svg" x="0px" y="0px"
     viewBox="0 0 448 448" style="enable-background:new 0 0 448 448;" xml:space="preserve">
<style type="text/css">
	.st0{display:none;}
	.st1{display:inline;fill:#FFFFFF;}
	.st2{fill:#173042;}
	.st3{display:inline;}
	.st4{fill:#869093;}
</style>
<g id="grid" class="st0">
	<rect x="30" y="98" class="st1" width="48" height="48"/>
	<rect x="98" y="98" class="st1" width="48" height="48"/>
	<rect x="166" y="98" class="st1" width="48" height="48"/>
	<rect x="234" y="98" class="st1" width="48" height="48"/>
	<rect x="302" y="98" class="st1" width="48" height="48"/>
	<rect x="370" y="98" class="st1" width="48" height="48"/>
	<rect x="30" y="166" class="st1" width="48" height="48"/>
	<rect x="98" y="166" class="st1" width="48" height="48"/>
	<rect x="166" y="166" class="st1" width="48" height="48"/>
	<rect x="234" y="166" class="st1" width="48" height="48"/>
	<rect x="302" y="166" class="st1" width="48" height="48"/>
	<rect x="370" y="166" class="st1" width="48" height="48"/>
	<rect x="30" y="234" class="st1" width="48" height="48"/>
	<rect x="98" y="234" class="st1" width="48" height="48"/>
	<rect x="370" y="234" class="st1" width="48" height="48"/>
	<rect x="30" y="302" class="st1" width="48" height="48"/>
	<rect x="98" y="302" class="st1" width="48" height="48"/>
	<rect x="166" y="234" class="st1" width="48" height="48"/>
	<rect x="234" y="234" class="st1" width="48" height="48"/>
	<rect x="302" y="234" class="st1" width="48" height="48"/>
	<rect x="166" y="302" class="st1" width="48" height="48"/>
	<rect x="234" y="302" class="st1" width="48" height="48"/>
	<rect x="302" y="302" class="st1" width="48" height="48"/>
	<rect x="370" y="302" class="st1" width="48" height="48"/>
	<rect x="30" y="370" class="st1" width="48" height="48"/>
	<rect x="98" y="370" class="st1" width="48" height="48"/>
	<rect x="166" y="370" class="st1" width="48" height="48"/>
	<rect x="234" y="370" class="st1" width="48" height="48"/>
	<rect x="302" y="370" class="st1" width="48" height="48"/>
	<rect x="370" y="370" class="st1" width="48" height="48"/>
</g>
<g id="icons">
	<g>
		<g>
			<path class="st2" d="M406.39,385.21l-12.19,3.21c-0.88,0.23-1.49,1.03-1.49,1.93v14.94h-2.13c-2.12,0-3.83,1.72-3.83,3.83
				c0,2.12,1.72,3.83,3.83,3.83h0.85c1.97,0,3.58-1.49,3.79-3.41h0.04v-14.78l11.08-3.41v10.52h-2.13c-2.12,0-3.83,1.72-3.83,3.83
				c0,2.12,1.72,3.83,3.83,3.83h0.85c2.12,0,3.83-1.72,3.83-3.83v-18.58C408.9,385.83,407.66,384.87,406.39,385.21z"/>
			<path class="st2" d="M397.58,376.09l-10.25,2.41c-0.75,0.2-1.27,0.87-1.27,1.65v14.17h-2.13c-2.12,0-3.83,1.72-3.83,3.83
				c0,2.12,1.72,3.83,3.83,3.83h0.85c1.97,0,3.58-1.49,3.79-3.41h0.04V384.8l9.87-2.28c0.91-0.21,1.55-1.02,1.55-1.95v-2.53
				C400.04,376.75,398.84,375.8,397.58,376.09z"/>
		</g>
	</g>
	<g>
		<g>
			<g>
				<path class="st2" d="M326.5,375.5c-11.03,0-20,8.97-20,20c0,5.27,2.04,10.25,5.74,14.01c0.39,0.4,0.91,0.6,1.43,0.6
					c0.51,0,1.01-0.19,1.4-0.57c0.79-0.77,0.8-2.04,0.03-2.83c-2.96-3.01-4.59-6.99-4.59-11.21c0-8.82,7.18-16,16-16s16,7.18,16,16
					c0,3.95-1.47,7.76-4.14,10.71c-0.74,0.82-0.68,2.08,0.14,2.83c0.82,0.74,2.08,0.68,2.82-0.14c3.34-3.69,5.18-8.45,5.18-13.4
					C346.5,384.47,337.53,375.5,326.5,375.5z"/>
			</g>
			<path class="st2" d="M334.99,387.01c-4.69-4.69-12.28-4.69-16.97,0c-4.69,4.69-4.69,12.28,0,16.97c4.69,4.69,12.28,4.69,16.97,0
				C339.67,399.3,339.67,391.7,334.99,387.01z M332.16,392.67c-0.78,0.78-2.05,0.78-2.83,0c-0.78-0.78-0.78-2.05,0-2.83
				c0.78-0.78,2.05-0.78,2.83,0C332.94,390.62,332.94,391.89,332.16,392.67z"/>
		</g>
	</g>
	<path class="st2" d="M257.45,400.83c-0.33-0.22-0.78,0.02-0.78,0.42v4.88c0,0.4,0.45,0.64,0.78,0.42l3.66-2.44
		c0.3-0.2,0.3-0.63,0-0.83L257.45,400.83z M262,383.5h-3.63c-0.55,0-1,0.45-1,1v4.63h-1.69c-0.93,0-1.69,0.76-1.69,1.69
		c0,0.93,0.76,1.69,1.69,1.69h1.13c0.93,0,1.69-0.76,1.69-1.69v-2.94c0-0.55,0.45-1,1-1h2.5c0.55,0,1-0.45,1-1v-1.38
		C263,383.95,262.55,383.5,262,383.5z M266.5,375.5h-16c-2.21,0-4,1.79-4,4v30c0,2.21,1.79,4,4,4h16c2.21,0,4-1.79,4-4v-30
		C270.5,377.29,268.71,375.5,266.5,375.5z M258.38,409.69c-3.28,0-5.94-2.67-5.94-5.94s2.67-5.94,5.94-5.94
		c3.28,0,5.94,2.67,5.94,5.94S261.65,409.69,258.38,409.69z M266.5,393.5c0,0.55-0.45,1-1,1h-14c-0.55,0-1-0.45-1-1v-11
		c0-0.55,0.45-1,1-1h14c0.55,0,1,0.45,1,1V393.5z"/>
	<g>
		<g>
			<g>
				<path class="st2" d="M190,408.28c-5.11,0-9.65-1.17-12.86-3.05v1.23c-0.02,0.14-0.04,0.28-0.04,0.42c0,3.86,6.49,5.88,12.9,5.88
					c6.23,0,12.53-1.92,12.87-5.57c0.02-0.1,0.03-0.2,0.03-0.31v-1.67C199.69,407.1,195.14,408.28,190,408.28z"/>
				<path class="st2" d="M202.16,388.61c-3.15,1.66-7.41,2.67-12.16,2.67c-4.73,0-8.97-1-12.12-2.64c-0.34-0.18-0.74,0.06-0.74,0.44
					v12.91c0,0.16,0.07,0.31,0.2,0.41c2.76,2.03,7.45,3.39,12.66,3.39c5.24,0,9.94-1.38,12.7-3.43c0.13-0.1,0.2-0.25,0.2-0.41v-12.9
					C202.9,388.67,202.5,388.44,202.16,388.61z M193.3,400.78c0,0.82-0.66,1.48-1.48,1.48h-0.33c-0.82,0-1.48-0.66-1.48-1.48
					c0-0.82,0.66-1.48,1.48-1.48h0.82v-3.29l-4.28,1.32v4.93h-0.02c-0.08,0.74-0.7,1.32-1.46,1.32h-0.33
					c-0.82,0-1.48-0.66-1.48-1.48c0-0.82,0.66-1.48,1.48-1.48h0.82v-5.08c0-0.3,0.2-0.56,0.49-0.64l4.93-1.3
					c0.42-0.11,0.83,0.2,0.83,0.64V400.78z M202.86,380.92c-0.47-3.67-8.21-4.68-12.86-4.68c-4.79,0-12.9,1.06-12.9,5.03
					c0,0.12,0.03,0.23,0.04,0.34v3.36c0,0.16,0.07,0.31,0.2,0.41c2.76,2.03,7.45,3.39,12.66,3.39c5.24,0,9.94-1.38,12.7-3.43
					c0.13-0.1,0.2-0.25,0.2-0.41v-3.67C202.9,381.15,202.88,381.04,202.86,380.92z M190,383.74c-5.01,0-9.07-1.1-9.07-2.47
					c0-1.36,4.06-2.47,9.07-2.47c5.01,0,9.07,1.1,9.07,2.47C199.07,382.64,195.01,383.74,190,383.74z"/>
			</g>
		</g>
	</g>
	<g>
		<g>
			<path class="st2" d="M138.01,395.05l-2.69-9.4c-0.42-1.48-1.65-2.56-3.12-2.83c-0.76,0.57-1.69,0.93-2.71,0.93H126v2.5h3.86
				c0.95,0,1.77,0.67,1.96,1.61l1.38,6.89h-21.4l1.28-6.4c0.02-0.12,0.04-0.25,0.07-0.37l0.02-0.12c0.01-0.07,0.04-0.13,0.06-0.2
				c0.01-0.02,0.01-0.04,0.02-0.06c0.01-0.04,0.03-0.08,0.04-0.12c0.74-2.16,2.79-3.73,5.2-3.73h0.5v-1h-5.48
				c-1.79,0-3.36,1.18-3.85,2.9l-2.69,9.4c-1.46,0.6-2.49,2.03-2.49,3.7v10h2v3c0,1.1,0.9,2,2,2h2c1.1,0,2-0.9,2-2v-3h20v3
				c0,1.1,0.9,2,2,2h2c1.1,0,2-0.9,2-2v-3h2v-10C140.5,397.08,139.47,395.65,138.01,395.05z M111.5,404.75c-1.66,0-3-1.34-3-3
				s1.34-3,3-3s3,1.34,3,3S113.16,404.75,111.5,404.75z M124.5,402.75h-4c-0.55,0-1-0.45-1-1s0.45-1,1-1h4c0.55,0,1,0.45,1,1
				S125.05,402.75,124.5,402.75z M133.5,404.75c-1.66,0-3-1.34-3-3s1.34-3,3-3s3,1.34,3,3S135.16,404.75,133.5,404.75z"/>
			<path class="st2" d="M129.5,375.25h-6c-1.1,0-2,0.9-2,2v9h-3c-1.66,0-3,1.34-3,3s1.34,3,3,3h2c1.66,0,3-1.34,3-3v-6
				c0-1.1,0.9-2,2-2h4c1.1,0,2-0.9,2-2v-2C131.5,376.15,130.6,375.25,129.5,375.25z"/>
		</g>
	</g>
	<g>
		<g>
			<path class="st2" d="M69.5,378.81h-29c-0.83,0-1.5,0.67-1.5,1.5s0.67,1.5,1.5,1.5h29c0.83,0,1.5-0.67,1.5-1.5
				S70.33,378.81,69.5,378.81z"/>
			<path class="st2" d="M71,384.19H38c-2.21,0-4,1.79-4,4v18c0,2.21,1.79,4,4,4h33c2.21,0,4-1.79,4-4v-18
				C75,385.98,73.21,384.19,71,384.19z M51.36,400.53c0,1.19-0.97,2.16-2.16,2.16h-0.48c-1.19,0-2.16-0.97-2.16-2.16
				c0-1.19,0.97-2.16,2.16-2.16h1.2v-4.8l-6.24,1.92v7.2h-0.02c-0.12,1.08-1.02,1.92-2.14,1.92h-0.48c-1.19,0-2.16-0.97-2.16-2.16
				c0-1.19,0.97-2.16,2.16-2.16h1.2v-7.42c0-0.44,0.29-0.82,0.72-0.93l7.2-1.89c0.61-0.16,1.2,0.3,1.2,0.93V400.53z M57.5,402.94h-1
				c-0.69,0-1.25-0.56-1.25-1.25s0.56-1.25,1.25-1.25h1c0.69,0,1.25,0.56,1.25,1.25S58.19,402.94,57.5,402.94z M57.5,397.94h-1
				c-0.69,0-1.25-0.56-1.25-1.25s0.56-1.25,1.25-1.25h1c0.69,0,1.25,0.56,1.25,1.25S58.19,397.94,57.5,397.94z M57.5,392.94h-1
				c-0.69,0-1.25-0.56-1.25-1.25s0.56-1.25,1.25-1.25h1c0.69,0,1.25,0.56,1.25,1.25S58.19,392.94,57.5,392.94z M69.5,402.94h-7
				c-0.69,0-1.25-0.56-1.25-1.25s0.56-1.25,1.25-1.25h7c0.69,0,1.25,0.56,1.25,1.25S70.19,402.94,69.5,402.94z M69.5,397.94h-7
				c-0.69,0-1.25-0.56-1.25-1.25s0.56-1.25,1.25-1.25h7c0.69,0,1.25,0.56,1.25,1.25S70.19,397.94,69.5,397.94z M69.5,392.94h-7
				c-0.69,0-1.25-0.56-1.25-1.25s0.56-1.25,1.25-1.25h7c0.69,0,1.25,0.56,1.25,1.25S70.19,392.94,69.5,392.94z"/>
		</g>
	</g>
	<g>
		<g>
			<path class="st2" d="M379.5,314.5c-0.83,0-1.5,0.67-1.5,1.5v21c0,0.83,0.67,1.5,1.5,1.5s1.5-0.67,1.5-1.5v-21
				C381,315.17,380.33,314.5,379.5,314.5z M409.5,314.5c-0.83,0-1.5,0.67-1.5,1.5v21c0,0.83,0.67,1.5,1.5,1.5s1.5-0.67,1.5-1.5v-21
				C411,315.17,410.33,314.5,409.5,314.5z"/>
			<path class="st2" d="M403.5,310.5h-18c-1.1,0-2,0.9-2,2v28c0,1.1,0.9,2,2,2h18c1.1,0,2-0.9,2-2v-28
				C405.5,311.4,404.6,310.5,403.5,310.5z M391.3,323.58h0.82v-5.08c0-0.3,0.2-0.56,0.49-0.64l4.93-1.3
				c0.42-0.11,0.83,0.2,0.83,0.64v6.55c0,0.82-0.66,1.48-1.48,1.48h-0.33c-0.82,0-1.48-0.66-1.48-1.48c0-0.82,0.66-1.48,1.48-1.48
				h0.82v-3.29l-4.28,1.32v4.93h-0.02c-0.08,0.74-0.7,1.32-1.46,1.32h-0.33c-0.82,0-1.48-0.66-1.48-1.48
				C389.82,324.25,390.48,323.58,391.3,323.58z M395.09,338.29h-7c-0.69,0-1.25-0.56-1.25-1.25c0-0.69,0.56-1.25,1.25-1.25h7
				c0.69,0,1.25,0.56,1.25,1.25C396.34,337.73,395.78,338.29,395.09,338.29z M400.09,333.29h-12c-0.69,0-1.25-0.56-1.25-1.25
				c0-0.69,0.56-1.25,1.25-1.25h12c0.69,0,1.25,0.56,1.25,1.25C401.34,332.73,400.78,333.29,400.09,333.29z"/>
		</g>
	</g>
	<g>
		<g>
			<path class="st2" d="M337,316h-6c-1.1,0-2,0.9-2,2v8h-3c-1.66,0-3,1.34-3,3v0c0,1.66,1.34,3,3,3h2c1.66,0,3-1.34,3-3v-5
				c0-1.1,0.9-2,2-2h4c1.1,0,2-0.9,2-2v-2C339,316.89,338.1,316,337,316z"/>
			<path class="st2" d="M319,313.5h11.99c0,0,0.01,0,0.01,0h6c0.34,0,0.68,0.05,1,0.12v-2.12c0-2.21-1.79-4-4-4h-16
				c-2.21,0-4,1.79-4,4v30c0,2.21,1.79,4,4,4h16c2.21,0,4-1.79,4-4v-17.12c-0.32,0.07-0.66,0.12-1,0.12h-3v11c0,0.55-0.45,1-1,1h-14
				c-0.55,0-1-0.45-1-1v-21C318,313.95,318.45,313.5,319,313.5z M327,343h-2c-1.1,0-2-0.9-2-2l0,0c0-1.1,0.9-2,2-2h2
				c1.1,0,2,0.9,2,2l0,0C329,342.1,328.1,343,327,343z"/>
		</g>
	</g>
	<g>
		<g>
			<circle class="st2" cx="253" cy="341" r="3"/>
			<path class="st2" d="M274,309h-31c-1.66,0-3,1.34-3,3v20c0,1.66,1.34,3,3,3h31c1.66,0,3-1.34,3-3v-20
				C277,310.34,275.66,309,274,309z M265.5,318.75c0,0.83-0.67,1.5-1.5,1.5h-4c-0.83,0-1.5,0.67-1.5,1.5v4.63
				c0,1.45-1.18,2.63-2.63,2.63h-1.75c-1.45,0-2.63-1.18-2.63-2.63s1.18-2.63,2.63-2.63h2.63v-7.25c0-0.83,0.67-1.5,1.5-1.5H264
				c0.83,0,1.5,0.67,1.5,1.5V318.75z M245.58,339.5H242c-0.83,0-1.5,0.67-1.5,1.5s0.67,1.5,1.5,1.5h3.58c0.81,0,1.42-0.67,1.42-1.48
				v-0.03C247,340.17,246.39,339.5,245.58,339.5z M275,339.5h-14.58c-0.81,0-1.42,0.67-1.42,1.48v0.03c0,0.81,0.61,1.48,1.42,1.48
				H275c0.83,0,1.5-0.67,1.5-1.5S275.83,339.5,275,339.5z"/>
		</g>
	</g>
	<g>
		<g>
			<g>
				<path class="st2" d="M190.46,321.51h-12.01c-2.78,0-5.04,2.26-5.04,5.04v8.63c0,0.58,0.47,1.05,1.05,1.05h15.69v-8.34
					c0-2.17,1.47-4.07,3.57-4.63l0.44-0.12C193.24,322.15,191.93,321.51,190.46,321.51z M184.37,319.09c3.41,0,6.18-2.77,6.18-6.18
					c0-3.41-2.77-6.18-6.18-6.18c-3.41,0-6.18,2.77-6.18,6.18C178.19,316.33,180.96,319.09,184.37,319.09z"/>
				<path class="st2" d="M205.35,323.31l-10.87,2.86c-0.78,0.21-1.33,0.91-1.33,1.72v11.54h-1.9c-1.89,0-3.42,1.53-3.42,3.42
					c0,1.89,1.53,3.42,3.42,3.42h0.76c1.76,0,3.19-1.33,3.38-3.04h0.04v-11.4l9.88-3.04v7.6h-1.9c-1.89,0-3.42,1.53-3.42,3.42
					c0,1.89,1.53,3.42,3.42,3.42h0.76c1.89,0,3.42-1.53,3.42-3.42v-14.78C207.59,323.86,206.48,323.01,205.35,323.31z"/>
			</g>
		</g>
	</g>
	<g>
		<g>
			<g>
				<path class="st2" d="M136.35,334.19l-3.93-2.12c-0.96-0.52-1.7-0.14-2.53,0.99c-1.81,2.49-2.69,2.98-4.91,1.74
					c-2.07-1.16-3.56-2.53-5.42-4.39c-1.86-1.86-3.24-3.34-4.39-5.42c-1.24-2.22-0.75-3.1,1.74-4.91c1.13-0.82,1.51-1.57,0.99-2.53
					l-2.12-3.93c-0.87-1.67-2.09-1.86-3.91-1.25c-2.5,0.85-4.93,4.46-4.81,6.18c0.36,5.02,2.87,11.04,8.1,16.27
					c5.23,5.23,11.25,7.74,16.27,8.1c1.72,0.12,5.31-2.32,6.16-4.83C138.22,336.28,138.03,335.05,136.35,334.19z"/>
				<path class="st2" d="M133.58,310.13l-6.25,1.41c-0.75,0.2-1.27,0.87-1.27,1.65v9.17h-2.13c-2.12,0-3.83,1.72-3.83,3.83
					c0,2.12,1.72,3.83,3.83,3.83h0.85c1.97,0,3.58-1.49,3.79-3.41h0.04v-8.78l5.87-1.28c0.91-0.21,1.55-1.02,1.55-1.95v-2.53
					C136.04,310.78,134.84,309.83,133.58,310.13z"/>
			</g>
		</g>
	</g>
	<g>
		<g>
			<circle class="st2" cx="54.5" cy="326.5" r="2"/>
			<path class="st2" d="M68.5,313.69V331c0,0.4-0.16,0.78-0.44,1.06l-3.92,3.92l0.46,0.46l-3.89,3.89c-0.98,0.98-2.56,0.98-3.54,0
				s-0.98-2.56,0-3.54l3.89-3.89l0.96,0.96l3.48-3.48v-19.35c-3.11-2.21-6.9-3.53-11-3.53c-10.49,0-19,8.51-19,19s8.51,19,19,19
				s19-8.51,19-19C73.5,321.56,71.6,317.07,68.5,313.69z M40.68,324.33c-0.11,0-0.22-0.01-0.33-0.04c-0.81-0.18-1.31-0.99-1.13-1.79
				c1.29-5.72,5.84-10.17,11.58-11.35c0.81-0.16,1.6,0.36,1.77,1.17c0.17,0.81-0.36,1.6-1.17,1.77c-4.59,0.94-8.22,4.5-9.26,9.07
				C41.98,323.86,41.37,324.33,40.68,324.33z M47.42,324.43c-0.15,0.7-0.77,1.18-1.46,1.18c-0.1,0-0.21-0.01-0.32-0.03
				c-0.81-0.17-1.33-0.97-1.15-1.78c0.77-3.59,3.59-6.45,7.17-7.28c0.81-0.19,1.61,0.32,1.8,1.13c0.19,0.81-0.32,1.61-1.13,1.8
				C49.88,320.01,47.95,321.97,47.42,324.43z M49.5,326.5c0-2.76,2.24-5,5-5s5,2.24,5,5s-2.24,5-5,5S49.5,329.26,49.5,326.5z"/>
		</g>
	</g>
	<g>
		<g>
			<path class="st2" d="M410.5,245.5h-32c-2.21,0-4,1.79-4,4v18c0,2.21,1.79,4,4,4h32c2.21,0,4-1.79,4-4v-18
				C414.5,247.29,412.71,245.5,410.5,245.5z M404,265.47v0.03h-18.5c-3.86,0-7-3.14-7-7s3.14-7,7-7s7,3.14,7,7
				c0,1.49-0.47,2.86-1.26,4h6.53c-0.79-1.14-1.26-2.51-1.26-4c0-3.86,3.14-7,7-7s7,3.14,7,7C410.5,262.19,407.63,265.22,404,265.47
				z"/>
			<path class="st2" d="M385.5,254.5c-2.21,0-4,1.79-4,4s1.79,4,4,4s4-1.79,4-4S387.71,254.5,385.5,254.5z M403.5,254.5
				c-2.21,0-4,1.79-4,4s1.79,4,4,4s4-1.79,4-4S405.71,254.5,403.5,254.5z"/>
		</g>
	</g>
	<g>
		<g>
			<path class="st2" d="M341.63,242.25h-1c-0.83,0-1.5,0.67-1.5,1.5v8c0,0.83,0.67,1.5,1.5,1.5h1c0.83,0,1.5-0.67,1.5-1.5v-8
				C343.13,242.92,342.45,242.25,341.63,242.25z"/>
			<path class="st2" d="M328.82,239.25c-4.66,0-8.44,3.78-8.44,8.44c0,1.38,0.33,2.69,0.92,3.84c1.33,2.59,2.08,5.43,2.08,8.33v5.05
				c0,0.55,0.45,1,1,1h0.5v5.83c0,1.65-1.35,3-3,3s-3-1.35-3-3c1.1,0,2-0.9,2-2v-7c0-1.1-0.9-2-2-2v-2.46
				c0-3.61-2.93-6.54-6.54-6.54h-0.96c-0.83,0-1.5,0.67-1.5,1.5s0.67,1.5,1.5,1.5h0.96c1.95,0,3.54,1.59,3.54,3.54v2.46
				c-1.1,0-2,0.9-2,2v7c0,1.1,0.9,2,2,2c0,3.31,2.69,6,6,6s6-2.69,6-6v-5.83h0.5c0.55,0,1-0.45,1-1v-7.9c0-0.49,0.35-0.92,0.84-0.99
				c2.06-0.28,4.41-1.14,6.37-2.38v-11.92C334.16,240.2,331.16,239.25,328.82,239.25z M331.88,252.25h-3c-0.83,0-1.5-0.68-1.5-1.5
				c0-0.83,0.67-1.5,1.5-1.5h3c0.83,0,1.5,0.67,1.5,1.5C333.38,251.57,332.7,252.25,331.88,252.25z"/>
		</g>
	</g>
	<g>
		<g>
			<path class="st2" d="M258.5,246.92c3.81,0,7.02-0.9,8.05-3.17c-1.37-3.29-4.46-5.59-8.05-5.59c-3.6,0-6.68,2.3-8.05,5.59
				C251.48,246.02,254.69,246.92,258.5,246.92z M267.28,246.88c-2.65,2.29-7.04,2.54-8.78,2.54s-6.13-0.25-8.78-2.54
				c-0.01,0.22-0.03,0.44-0.03,0.66c0,5.18,3.94,7.13,8.81,7.13c4.86,0,8.81-1.95,8.81-7.13
				C267.31,247.32,267.29,247.1,267.28,246.88z"/>
			<path class="st2" d="M258.5,257.17c-2.36,0-4.39-0.41-6.06-1.16l1.89,20.83c0,1.1,0.9,2,2,2h4c1.1,0,2-0.9,2-2l1.88-20.67
				C262.6,256.83,260.69,257.17,258.5,257.17z M258.33,264.67c-0.83,0-1.5-0.67-1.5-1.5c0-0.83,0.67-1.5,1.5-1.5
				c0.83,0,1.5,0.67,1.5,1.5C259.83,264,259.16,264.67,258.33,264.67z"/>
		</g>
	</g>
	<g>
		<g>
			<path class="st2" d="M190.5,239.47c-10.49,0-19,8.51-19,19c0,10.49,8.51,19,19,19c1.87,0,3.66-0.28,5.37-0.78
				c-1.31-1.59-2.09-3.62-2.09-5.84c0-2.93,1.45-5.93,3.7-7.64c0.44-0.33,0.97-0.51,1.51-0.51c0.06,0,0.12,0,0.18,0.01
				c0.4-2.23,1.64-4.53,4.21-5.56c0.3-0.12,0.61-0.18,0.93-0.18c0.43,0,0.87,0.11,1.25,0.34c0.66,0.38,1.12,1.05,1.22,1.81
				c0.21,1.45,1.06,2.76,2.05,4.26c0.42-1.57,0.66-3.21,0.66-4.91C209.5,247.98,200.99,239.47,190.5,239.47z M176.68,256.31
				c-0.11,0-0.22-0.01-0.33-0.04c-0.81-0.18-1.32-0.99-1.13-1.79c1.29-5.72,5.84-10.17,11.58-11.35c0.81-0.16,1.6,0.36,1.77,1.17
				c0.17,0.81-0.36,1.6-1.17,1.77c-4.59,0.94-8.22,4.5-9.26,9.07C177.98,255.83,177.37,256.31,176.68,256.31z M183.42,256.4
				c-0.15,0.7-0.77,1.18-1.46,1.18c-0.1,0-0.21-0.01-0.32-0.03c-0.81-0.17-1.33-0.97-1.15-1.78c0.77-3.59,3.59-6.45,7.17-7.28
				c0.81-0.19,1.61,0.32,1.8,1.13c0.19,0.81-0.32,1.61-1.13,1.8C185.88,251.98,183.95,253.94,183.42,256.4z M190.5,263.47
				c-2.76,0-5-2.24-5-5c0-2.76,2.24-5,5-5s5,2.24,5,5C195.5,261.23,193.26,263.47,190.5,263.47z"/>
			<path class="st2" d="M190.5,256.47c-1.1,0-2,0.9-2,2c0,1.1,0.9,2,2,2c1.1,0,2-0.9,2-2C192.5,257.37,191.6,256.47,190.5,256.47z
				 M209.4,270.83c-0.15-1.87-0.95-3.41-1.87-4.88c-1.3-2.07-2.86-4-3.21-6.48c-2.05,0.82-2.79,3.04-2.78,4.91
				c0.02,1.84,2.48,4.24,1.01,5.85c-1.6,1.75-4.32,0.32-3.56-2.37c0.35-1.25,0.19-2.31,0.01-2.66c-1.61,1.22-2.71,3.47-2.71,5.65
				c0,3.61,2.87,6.55,6.45,6.68C206.21,277.37,209.7,274.58,209.4,270.83z"/>
		</g>
	</g>
	<g>
		<g>
			<circle class="st2" cx="114.5" cy="241.5" r="2"/>
			<path class="st2" d="M117.5,246.5c0-0.55-0.45-1-1-1h-4c-0.55,0-1,0.45-1,1v6.5h6V246.5z M130,244.5c-3.58,0-6.5,2.92-6.5,6.5v19
				c0,1.93-1.57,3.5-3.5,3.5s-3.5-1.57-3.5-3.5v-0.25c-0.64,0.16-1.31,0.25-2,0.25s-1.36-0.09-2-0.25V270c0,4.14,3.36,7.5,7.5,7.5
				s7.5-3.36,7.5-7.5v-19c0-1.38,1.12-2.5,2.5-2.5s2.5,1.12,2.5,2.5v20c0,1.1,0.9,2,2,2s2-0.9,2-2v-20
				C136.5,247.42,133.58,244.5,130,244.5z M120.5,261.5v-5c0-0.55-0.45-1-1-1h-10c-0.55,0-1,0.45-1,1v5c0,3.31,2.69,6,6,6
				S120.5,264.81,120.5,261.5z"/>
		</g>
	</g>
	<g>
		<g>
			<path class="st2" d="M62,253.25H47c-0.28,0-0.5,0.22-0.5,0.5v2.23c0,4.26,3.22,7.98,7.47,8.26c4.66,0.3,8.53-3.39,8.53-7.98v-2.5
				C62.5,253.47,62.28,253.25,62,253.25z M55.03,238.77c-4.66-0.3-8.53,3.39-8.53,7.98v3.5c0,0.28,0.22,0.5,0.5,0.5h15
				c0.28,0,0.5-0.22,0.5-0.5v-3.23C62.5,242.76,59.28,239.04,55.03,238.77z"/>
			<path class="st2" d="M69.5,257.25c0-1.1-0.9-2-2-2s-2,0.9-2,2c0,6.07-4.93,11-11,11s-11-4.93-11-11c0-1.1-0.9-2-2-2s-2,0.9-2,2
				c0,7.63,5.73,13.93,13.11,14.87c-0.27,0.97-0.97,1.76-1.9,2.13H49.5c-1.1,0-2,0.9-2,2s0.9,2,2,2h10c1.1,0,2-0.9,2-2
				c0-1.1-0.9-2-2-2h-1.21c-0.93-0.37-1.63-1.16-1.9-2.13C63.77,271.18,69.5,264.88,69.5,257.25z"/>
		</g>
	</g>
	<g>
		<g>
			<g>
				<path class="st2" d="M403.13,197.14h-16.42c-3.71,0-6.72,3.01-6.72,6.72v2.98c0,0.55,0.45,1,1,1h27.86c0.55,0,1-0.45,1-1v-2.98
					C409.85,200.15,406.84,197.14,403.13,197.14z M394.92,194.64c4.55,0,8.24-3.69,8.24-8.24c0-4.55-3.69-8.24-8.24-8.24
					c-4.55,0-8.24,3.69-8.24,8.24C386.68,190.95,390.37,194.64,394.92,194.64z"/>
				<path class="st2" d="M408,183.15c-0.31,0-0.6,0.06-0.87,0.16c-1.37-5.82-6.5-10.16-12.63-10.16c-6.13,0-11.26,4.34-12.63,10.16
					c-0.27-0.1-0.56-0.16-0.87-0.16c-1.38,0-2.5,1.12-2.5,2.5v3c0,1.38,1.12,2.5,2.5,2.5s2.5-1.12,2.5-2.5v-2.26
					c0-6.2,4.93-11.24,11-11.24c6.07,0,11,5.04,11,11.24v2.26c0,1.38,1.12,2.5,2.5,2.5s2.5-1.12,2.5-2.5v-3
					C410.5,184.28,409.38,183.15,408,183.15z"/>
			</g>
		</g>
	</g>
	<g>
		<g>
			<path class="st2" d="M315.5,194.19c-2.32,0-4.21,1.94-4.21,4.33c0,2.39,1.88,4.33,4.21,4.33s4.21-1.94,4.21-4.33
				C319.71,196.13,317.82,194.19,315.5,194.19z M337.5,194.19c-2.32,0-4.21,1.94-4.21,4.33c0,2.39,1.88,4.33,4.21,4.33
				s4.21-1.94,4.21-4.33C341.71,196.13,339.82,194.19,337.5,194.19z"/>
			<path class="st2" d="M342.5,179.98h-1v-3.46c0-1.93-1.57-3.5-3.5-3.5h-23c-1.93,0-3.5,1.57-3.5,3.5v3.46h-1c-2.21,0-4,1.79-4,4
				v20c0,2.21,1.79,4,4,4h32c2.21,0,4-1.79,4-4v-20C346.5,181.77,344.71,179.98,342.5,179.98z M314.5,176.52
				c0-0.28,0.22-0.5,0.5-0.5h23c0.28,0,0.5,0.22,0.5,0.5v3.46h-24V176.52z M310,185.52c0-0.55,0.45-1,1-1h31c0.55,0,1,0.45,1,1v2
				c0,0.55-0.45,1-1,1h-31c-0.55,0-1-0.45-1-1V185.52z M315.5,204.85c-3.42,0-6.21-2.84-6.21-6.33c0-3.49,2.78-6.33,6.21-6.33
				s6.21,2.84,6.21,6.33C321.71,202.01,318.92,204.85,315.5,204.85z M327,199.52h-1c-0.83,0-1.5-0.67-1.5-1.5
				c0-0.83,0.67-1.5,1.5-1.5h1c0.83,0,1.5,0.67,1.5,1.5C328.5,198.85,327.83,199.52,327,199.52z M337.5,204.85
				c-3.42,0-6.21-2.84-6.21-6.33c0-3.49,2.78-6.33,6.21-6.33s6.21,2.84,6.21,6.33C343.71,202.01,340.92,204.85,337.5,204.85z"/>
		</g>
	</g>
	<g>
		<g>
			<path class="st2" d="M265.49,175.36l-15,3.95c-0.88,0.23-1.49,1.03-1.49,1.93v15.46h-2.5c-2.49,0-4.5,2.01-4.5,4.5
				c0,2.49,2.01,4.5,4.5,4.5h1c2.31,0,4.2-1.75,4.45-4H252v-15l13-4v10h-2.5c-2.49,0-4.5,2.01-4.5,4.5c0,2.49,2.01,4.5,4.5,4.5h1
				c2.49,0,4.5-2.01,4.5-4.5V177.3C268,175.99,266.76,175.03,265.49,175.36z"/>
			<path class="st2" d="M272.5,185.7h3c0.83,0,1.5-0.67,1.5-1.5c0-0.83-0.67-1.5-1.5-1.5h-3c-0.83,0-1.5,0.67-1.5,1.5
				C271,185.03,271.67,185.7,272.5,185.7z M244.5,188.7h-3c-0.83,0-1.5,0.67-1.5,1.5c0,0.83,0.67,1.5,1.5,1.5h3
				c0.83,0,1.5-0.67,1.5-1.5C246,189.38,245.33,188.7,244.5,188.7z M275.5,188.7h-3c-0.83,0-1.5,0.67-1.5,1.5
				c0,0.83,0.67,1.5,1.5,1.5h3c0.83,0,1.5-0.67,1.5-1.5C277,189.38,276.33,188.7,275.5,188.7z M244.5,182.7h-3
				c-0.83,0-1.5,0.67-1.5,1.5c0,0.83,0.67,1.5,1.5,1.5h3c0.83,0,1.5-0.67,1.5-1.5C246,183.38,245.33,182.7,244.5,182.7z"/>
		</g>
	</g>
	<g>
		<g>
			<path class="st2" d="M206.69,181.31c-2.54-2.54-5.87-3.81-9.19-3.81v2.2c2.96-0.05,5.85,1.19,7.84,3.5
				c0.27,0.31,0.24,0.79-0.08,1.06c-0.14,0.12-0.32,0.18-0.49,0.18c-0.21,0-0.42-0.09-0.57-0.26c-1.7-1.97-4.17-3.03-6.7-2.98v1.97
				c1.9-0.05,3.78,0.72,5.09,2.17c0.28,0.31,0.25,0.78-0.05,1.06c-0.14,0.13-0.32,0.19-0.5,0.19c-0.2,0-0.41-0.08-0.56-0.25
				c-1.02-1.13-2.49-1.72-3.98-1.67V188c0.64,0,1.28,0.24,1.77,0.73c0.98,0.98,0.98,2.56,0,3.54c-0.49,0.49-1.13,0.73-1.77,0.73
				v10.5c3.33,0,6.65-1.27,9.19-3.81C211.77,194.62,211.77,186.38,206.69,181.31z"/>
			<path class="st2" d="M193,175.5h-15.5c-0.28,0-0.5,0.22-0.5,0.5v29c0,0.28,0.22,0.5,0.5,0.5H193c1.1,0,2-0.9,2-2v-26
				C195,176.4,194.1,175.5,193,175.5z M191.4,188.17c0,0.49-0.4,0.89-0.89,0.89h-2.67c-0.49,0-0.89,0.4-0.89,0.89v3.76
				c0,0.98-0.8,1.78-1.78,1.78h-1.78c-0.98,0-1.78-0.8-1.78-1.78s0.8-1.78,1.78-1.78h1.67v-5.54c0-0.49,0.4-0.89,0.89-0.89h4.56
				c0.49,0,0.89,0.4,0.89,0.89V188.17z M174,175.5h-2.5c-0.55,0-1,0.45-1,1v28c0,0.55,0.45,1,1,1h2.5c0.28,0,0.5-0.22,0.5-0.5v-29
				C174.5,175.72,174.28,175.5,174,175.5z"/>
		</g>
	</g>
	<g>
		<g>
			<path class="st2" d="M126,185.5c-1.1,0-2,0.9-2,2v7c0,1.1,0.9,2,2,2c1.1,0,2-0.9,2-2v-7C128,186.4,127.1,185.5,126,185.5z
				 M133,178.5c-1.1,0-2,0.9-2,2v20c0,1.1,0.9,2,2,2c1.1,0,2-0.9,2-2v-20C135,179.4,134.1,178.5,133,178.5z"/>
			<path class="st2" d="M105,186.5L105,186.5c-1.11,0-2,0.9-2,2v4c0,1.1,0.9,2,2,2h0c1.1,0,2-0.9,2-2v-4
				C107,187.4,106.11,186.5,105,186.5z M112,180.5L112,180.5c-1.1,0-2,0.9-2,2v17c0,1.1,0.9,2,2,2h0c1.1,0,2-0.9,2-2v-17
				C114,181.4,113.11,180.5,112,180.5z M140,187.5c-1.1,0-2,0.9-2,2v3c0,1.1,0.9,2,2,2c1.1,0,2-0.9,2-2v-3
				C142,188.4,141.1,187.5,140,187.5z M119,175.5c-1.1,0-2,0.9-2,2v26c0,1.1,0.9,2,2,2c1.1,0,2-0.9,2-2v-26
				C121,176.4,120.11,175.5,119,175.5z"/>
		</g>
	</g>
	<g>
		<g>
			<path class="st2" d="M60.69,172.77c-6.19,0-11.36,4.35-12.64,10.16c-1.25-0.73-2.7-1.15-4.25-1.15c-4.66,0-8.44,3.78-8.44,8.44
				c0,4.47,3.48,8.12,7.88,8.41h3.95v-5.36c0-1.69,1.14-3.17,2.78-3.6l9.17-2.41c0.31-0.08,0.63-0.12,0.95-0.12
				c2.05,0,3.72,1.67,3.72,3.72v7.41c5.64-1.4,9.82-6.48,9.82-12.54C73.63,178.57,67.84,172.77,60.69,172.77z"/>
			<path class="st2" d="M59.78,189.67l-9.17,2.41c-0.54,0.14-0.91,0.63-0.91,1.18v9.45h-1.53c-1.52,0-2.75,1.23-2.75,2.75
				s1.23,2.75,2.75,2.75h0.61c1.41,0,2.57-1.07,2.72-2.45h0.03v-9.17l7.95-2.45v6.11h-1.53c-1.52,0-2.75,1.23-2.75,2.75
				c0,1.52,1.23,2.75,2.75,2.75h0.61c1.52,0,2.75-1.23,2.75-2.75v-12.17C61.32,190.05,60.56,189.47,59.78,189.67z"/>
		</g>
	</g>
	<g>
		<g>
			<path class="st2" d="M384,125.09c-0.58,0-1.12,0.13-1.62,0.35v-4.57c0-1.06,0.15-2.07,0.4-3.05c-1.14,0.07-2.31-0.22-3.3-0.96
				c-0.17-0.13-0.32-0.28-0.47-0.43c-0.41,1.41-0.64,2.9-0.64,4.44v8.65c-0.8,0.26-1.38,1.01-1.38,1.89v3c0,1.1,0.9,2,2,2h1v0.31
				c0,2.21,1.79,4,4,4c2.21,0,4-1.79,4-4v-7.63C388,126.88,386.21,125.09,384,125.09z M410.62,129.51v-8.65
				c0-1.54-0.23-3.02-0.64-4.44c-0.15,0.15-0.3,0.3-0.47,0.43c-0.9,0.67-1.94,0.99-2.98,0.99c-0.11,0-0.21-0.01-0.32-0.02
				c0.25,0.97,0.4,1.99,0.4,3.04v4.57c-0.5-0.22-1.04-0.35-1.62-0.35c-2.21,0-4,1.79-4,4v7.63c0,2.21,1.79,4,4,4c2.21,0,4-1.79,4-4
				v-0.31h1c1.1,0,2-0.9,2-2v-3C412,130.52,411.42,129.77,410.62,129.51z"/>
			<path class="st2" d="M408.54,111.36c-3.34-4.5-8.46-7.07-14.04-7.07s-10.69,2.58-14.04,7.07c-0.82,1.11-0.59,2.67,0.51,3.5
				c1.11,0.82,2.67,0.59,3.5-0.51c2.39-3.21,6.04-5.06,10.02-5.06s7.63,1.84,10.02,5.06c0.49,0.66,1.24,1.01,2.01,1.01
				c0.52,0,1.04-0.16,1.49-0.49C409.13,114.03,409.36,112.46,408.54,111.36z"/>
		</g>
	</g>
	<g>
		<g>
			<g>
				<path class="st2" d="M326.5,120.5c-3.59,0-6.5,2.91-6.5,6.5s2.91,6.5,6.5,6.5s6.5-2.91,6.5-6.5S330.09,120.5,326.5,120.5z
					 M326.5,130c-1.66,0-3-1.34-3-3c0-1.66,1.34-3,3-3s3,1.34,3,3C329.5,128.66,328.16,130,326.5,130z"/>
				<path class="st2" d="M336,104h-19c-2.21,0-4,1.79-4,4v29c0,2.21,1.79,4,4,4h19c2.21,0,4-1.79,4-4v-29
					C340,105.79,338.21,104,336,104z M320,108c1.66,0,3,1.34,3,3s-1.34,3-3,3s-3-1.34-3-3S318.34,108,320,108z M326.5,136.5
					c-5.24,0-9.5-4.26-9.5-9.5s4.26-9.5,9.5-9.5s9.5,4.26,9.5,9.5S331.74,136.5,326.5,136.5z"/>
			</g>
		</g>
	</g>
	<g>
		<g>
			<g>
				<path class="st2" d="M249,123c-1.93,0-3.5,1.57-3.5,3.5s1.57,3.5,3.5,3.5s3.5-1.57,3.5-3.5S250.93,123,249,123z M253.24,123
					c0.79,0.95,1.26,2.17,1.26,3.5s-0.47,2.55-1.26,3.5h10.52c-0.79-0.95-1.26-2.17-1.26-3.5s0.47-2.55,1.26-3.5H253.24z
					 M275,108.75h-0.4l-0.2,0.69l-1.09,3.8c-0.55,1.92-2.33,3.26-4.33,3.26h-19.98c-2,0-3.78-1.34-4.33-3.26l-1.09-3.8l-0.2-0.69
					H242c-2.21,0-4,1.79-4,4v19.5c0,2.21,1.79,4,4,4h33c2.21,0,4-1.79,4-4v-19.5C279,110.54,277.21,108.75,275,108.75z M268,132.5
					h-19c-3.31,0-6-2.69-6-6c0-3.31,2.69-6,6-6h19c3.31,0,6,2.69,6,6C274,129.81,271.31,132.5,268,132.5z M268,123
					c-1.93,0-3.5,1.57-3.5,3.5s1.57,3.5,3.5,3.5s3.5-1.57,3.5-3.5S269.93,123,268,123z"/>
				<path class="st2" d="M246,108.75l1.09,3.8c0.25,0.86,1.03,1.45,1.92,1.45h19.98c0.89,0,1.68-0.59,1.92-1.45l1.09-3.8H246z"/>
			</g>
		</g>
	</g>
	<g>
		<g>
			<path class="st2" d="M188,120.8c-1.1,0-2,0.9-2,2s0.9,2,2,2s2-0.9,2-2S189.1,120.8,188,120.8z M188,103.5c-10.49,0-19,8.51-19,19
				s8.51,19,19,19c2.04,0,4.01-0.33,5.86-0.93c-1.14-1.11-1.86-2.65-1.86-4.36c0-3.35,2.73-6.08,6.08-6.08h0.68v-8.64
				c0-2.37,1.92-4.29,4.29-4.29h3.19C203.94,109.29,196.65,103.5,188,103.5z M174.18,120.64c-0.11,0-0.22-0.01-0.33-0.04
				c-0.81-0.18-1.32-0.99-1.13-1.79c1.29-5.72,5.84-10.17,11.58-11.35c0.81-0.16,1.6,0.36,1.77,1.17c0.17,0.81-0.36,1.6-1.17,1.77
				c-4.59,0.94-8.22,4.5-9.26,9.07C175.48,120.16,174.87,120.64,174.18,120.64z M180.92,120.73c-0.15,0.7-0.77,1.18-1.46,1.18
				c-0.1,0-0.21-0.01-0.32-0.03c-0.81-0.17-1.33-0.97-1.15-1.78c0.77-3.59,3.59-6.45,7.17-7.28c0.8-0.19,1.61,0.32,1.8,1.13
				c0.19,0.81-0.32,1.61-1.13,1.8C183.38,116.31,181.45,118.27,180.92,120.73z M188,127.8c-2.76,0-5-2.24-5-5c0-2.76,2.24-5,5-5
				s5,2.24,5,5C193,125.56,190.76,127.8,188,127.8z"/>
			<path class="st2" d="M210.21,119.7h-7.16c-0.99,0-1.79,0.8-1.79,1.79v11.14h-3.18c-1.98,0-3.58,1.6-3.58,3.58
				c0,1.98,1.6,3.58,3.58,3.58h1.39c1.98,0,3.58-1.6,3.58-3.58v-7.56c0-0.99,0.8-1.79,1.79-1.79h5.37c0.99,0,1.79-0.8,1.79-1.79
				v-3.58C212,120.5,211.2,119.7,210.21,119.7z"/>
		</g>
	</g>
	<g>
		<g>
			<path class="st2" d="M120.5,125.68v11.82c0,1.1,0.9,2,2,2c1.1,0,2-0.9,2-2v-11.82c-0.63,0.2-1.3,0.32-2,0.32
				S121.13,125.89,120.5,125.68z M124.5,116.05v-8.55c0-1.1-0.9-2-2-2c-1.1,0-2,0.9-2,2v8.55c-1.19,0.69-2,1.97-2,3.45
				c0,2.21,1.79,4,4,4c2.21,0,4-1.79,4-4C126.5,118.02,125.69,116.75,124.5,116.05z M122.5,121.5c-1.1,0-2-0.9-2-2c0-1.1,0.9-2,2-2
				c1.1,0,2,0.9,2,2C124.5,120.6,123.6,121.5,122.5,121.5z"/>
			<path class="st2" d="M113.5,118.32V107.5c0-1.1-0.9-2-2-2c-1.1,0-2,0.9-2,2v10.82c0.63-0.2,1.3-0.32,2-0.32
				S112.87,118.11,113.5,118.32z M135.5,118.32V107.5c0-1.1-0.9-2-2-2c-1.1,0-2,0.9-2,2v10.82c0.63-0.2,1.3-0.32,2-0.32
				S134.87,118.11,135.5,118.32z M133.5,120.5c-2.21,0-4,1.79-4,4c0,1.48,0.81,2.75,2,3.45v9.55c0,1.1,0.9,2,2,2c1.1,0,2-0.9,2-2
				v-9.55c1.19-0.69,2-1.97,2-3.45C137.5,122.29,135.71,120.5,133.5,120.5z M133.5,126.5c-1.1,0-2-0.9-2-2c0-1.1,0.9-2,2-2
				c1.1,0,2,0.9,2,2C135.5,125.6,134.6,126.5,133.5,126.5z M111.5,120.5c-2.21,0-4,1.79-4,4c0,1.48,0.81,2.75,2,3.45v9.55
				c0,1.1,0.9,2,2,2c1.1,0,2-0.9,2-2v-9.55c1.19-0.69,2-1.97,2-3.45C115.5,122.29,113.71,120.5,111.5,120.5z M111.5,126.5
				c-1.1,0-2-0.9-2-2c0-1.1,0.9-2,2-2c1.1,0,2,0.9,2,2C113.5,125.6,112.6,126.5,111.5,126.5z"/>
		</g>
	</g>
	<g>
		<g>
			<path class="st2" d="M61.1,115.86c-0.7,0.45-0.9,1.38-0.45,2.07c1.76,2.73,1.79,6.27,0.06,9.02c-0.44,0.7-0.23,1.63,0.48,2.07
				c0.25,0.16,0.52,0.23,0.79,0.23c0.5,0,0.99-0.25,1.27-0.7c2.34-3.74,2.3-8.54-0.09-12.24C62.73,115.61,61.8,115.41,61.1,115.86z
				 M68.42,113.12c-0.44-0.7-1.37-0.91-2.07-0.47c-0.7,0.44-0.91,1.37-0.47,2.07c3.05,4.83,2.99,11.03-0.16,15.8
				c-0.46,0.69-0.27,1.62,0.43,2.08c0.25,0.17,0.54,0.25,0.83,0.25c0.49,0,0.96-0.24,1.25-0.67
				C72.02,126.42,72.1,118.94,68.42,113.12z"/>
			<path class="st2" d="M54.65,108.76l-8.72,6.74h-6.06c-1.1,0-2,0.9-2,2v10c0,1.1,0.9,2,2,2h6.06l8.72,6.74
				c1.31,1.02,3.22,0.08,3.22-1.58v-24.31C57.88,108.68,55.97,107.75,54.65,108.76z"/>
		</g>
	</g>
</g>
<g id="title" class="st0">
	<g class="st3">
		<path class="st2" d="M32.77,46.24c0.09-0.77,0.58-1.19,1.26-1.19h1.4c0.68,0,1.19,0.4,1.4,1.09l3.24,10.97
			c0.02,0.09,0.09,0.26,0.19,0.26c0.09,0,0.16-0.16,0.19-0.26l3.22-10.95c0.21-0.72,0.72-1.12,1.4-1.12h1.4
			c0.68,0,1.17,0.44,1.26,1.16l1.65,13.93c0.09,0.75-0.3,1.17-0.98,1.17h-1.12c-0.68,0-1.14-0.44-1.21-1.12l-0.61-6.08
			c-0.09-0.84-0.14-1.96-0.19-3.08c-0.21,1.14-0.44,2.24-0.7,3.08l-1,3.38c-0.44,1.52-1.33,2.82-3.31,2.82
			c-1.96,0-2.89-1.3-3.31-2.82l-1-3.52c-0.26-0.84-0.49-1.93-0.7-3.05c-0.05,1.14-0.09,2.26-0.19,3.12l-0.63,6.13
			c-0.07,0.68-0.51,1.14-1.19,1.14H32.1c-0.68,0-1.07-0.44-0.98-1.17L32.77,46.24z"/>
		<path class="st2" d="M51.9,46.17c0-0.68,0.44-1.12,1.12-1.12h1.12c0.68,0,1.12,0.44,1.12,1.12v9.39c0,1.56,0.77,3.26,2.91,3.26
			c2.1,0,2.89-1.7,2.89-3.26v-9.39c0-0.68,0.44-1.12,1.12-1.12h1.12c0.68,0,1.12,0.44,1.12,1.12v8.99c0,4.01-2.19,6.46-6.24,6.46
			c-4.01,0-6.27-2.42-6.27-6.46V46.17z"/>
		<path class="st2" d="M66.86,59.61L67,59.01c0.16-0.72,0.68-0.91,1.3-0.72c0.44,0.12,1.68,0.54,3.15,0.54
			c1.58,0,2.24-0.84,2.24-1.96c0-3.17-6.73-1.98-6.73-7.55c0-2.89,2.42-4.57,5.62-4.57c1.49,0,2.52,0.33,3.1,0.51
			c0.63,0.21,0.98,0.72,0.75,1.42l-0.16,0.51c-0.21,0.63-0.75,0.91-1.42,0.7c-0.54-0.16-1.26-0.35-2.26-0.35
			c-1.4,0-2.1,0.7-2.1,1.77c0,2.73,6.73,2.03,6.73,7.55c0,2.87-2.33,4.75-5.76,4.75c-1.61,0-2.87-0.35-3.77-0.63
			C67,60.78,66.69,60.36,66.86,59.61z"/>
		<path class="st2" d="M79.83,46.17c0-0.68,0.44-1.12,1.12-1.12h1.12c0.68,0,1.12,0.44,1.12,1.12V60.2c0,0.68-0.44,1.12-1.12,1.12
			h-1.12c-0.68,0-1.12-0.44-1.12-1.12V46.17z"/>
		<path class="st2" d="M86.19,50.76c0-3.87,2.35-6.01,6.06-6.01c1.72,0,2.91,0.23,3.87,0.46c0.51,0.14,0.75,0.56,0.63,1.1
			l-0.21,0.96c-0.12,0.51-0.61,0.75-1.12,0.61c-0.63-0.14-1.49-0.33-2.7-0.33c-1.91,0-3.08,0.82-3.08,3.47v4.33
			c0,2.66,1.17,3.47,3.08,3.47c1.49,0,2.4-0.26,2.82-0.35c0.56-0.14,0.89,0.12,1,0.63l0.21,0.96c0.09,0.47-0.12,0.96-0.63,1.09
			c-0.54,0.14-1.93,0.47-3.87,0.47c-3.7,0-6.06-2.12-6.06-6.01V50.76z"/>
		<path class="st2" d="M106.88,52.55c-1.21-0.77-1.91-1.96-1.91-3.47c0-2.82,2.42-4.99,5.85-4.99c1,0,1.86,0.14,2.28,0.23
			c0.65,0.14,1,0.7,0.86,1.35l-0.12,0.56c-0.14,0.65-0.7,0.96-1.38,0.84c-0.4-0.07-0.91-0.14-1.61-0.14c-1.58,0-2.4,0.82-2.4,2.14
			c0,1.44,0.82,2.35,2.4,2.35h4.85c0.68,0,1.12,0.37,1.12,1.05v0.37c0,0.68-0.44,1.05-1.12,1.05h-0.16v5.52
			c0,0.68-0.35,1.26-1.07,1.51c-0.72,0.26-2.26,0.68-3.94,0.68c-3.98,0-6.17-2.19-6.17-5.15C104.37,54.65,105.27,53.3,106.88,52.55z
			 M110.59,58.77c0.72,0,1.58-0.09,2.24-0.3V53.9h-2.21c-1.89,0-2.75,0.98-2.75,2.52C107.86,57.89,108.65,58.77,110.59,58.77z"/>
		<path class="st2" d="M126.66,47.61c0.4-1.54,1.54-2.87,3.49-2.87c1.91,0,3.08,1.37,3.47,2.87l3.29,12.47
			c0.16,0.63-0.19,1.24-0.91,1.24h-1.12c-0.68,0-1.14-0.47-1.3-1.12l-0.77-3.05h-5.31l-0.75,3.03c-0.19,0.75-0.58,1.14-1.26,1.14
			h-1.19c-0.72,0-1.05-0.63-0.89-1.26L126.66,47.61z M132.14,54.39l-1.58-6.38c-0.05-0.23-0.19-0.4-0.4-0.4
			c-0.23,0-0.35,0.16-0.4,0.4l-1.58,6.38H132.14z"/>
		<path class="st2" d="M139.13,46.17c0-0.68,0.44-1.12,1.12-1.12h1.12c0.68,0,1.12,0.44,1.12,1.12v9.39c0,1.56,0.77,3.26,2.91,3.26
			c2.1,0,2.89-1.7,2.89-3.26v-9.39c0-0.68,0.44-1.12,1.12-1.12h1.12c0.68,0,1.12,0.44,1.12,1.12v8.99c0,4.01-2.19,6.46-6.24,6.46
			c-4.01,0-6.27-2.42-6.27-6.46V46.17z"/>
		<path class="st2" d="M154.83,46.17c0-0.68,0.44-1.12,1.12-1.12h4.99c4.19,0,6.17,1.93,6.17,6.06v4.15c0,4.12-1.98,6.06-6.17,6.06
			h-4.99c-0.68,0-1.12-0.44-1.12-1.12V46.17z M160.84,58.52c2.56,0,2.82-1.35,2.82-3.49v-3.66c0-2.12-0.26-3.52-2.82-3.52h-2.66
			v10.67H160.84z"/>
		<path class="st2" d="M170.09,46.17c0-0.68,0.44-1.12,1.12-1.12h1.12c0.68,0,1.12,0.44,1.12,1.12V60.2c0,0.68-0.44,1.12-1.12,1.12
			h-1.12c-0.68,0-1.12-0.44-1.12-1.12V46.17z"/>
		<path class="st2" d="M176.43,51.69c0-4.01,2.4-6.94,6.55-6.94c4.15,0,6.55,2.94,6.55,6.94v2.98c0,4.01-2.4,6.94-6.55,6.94
			c-4.15,0-6.55-2.94-6.55-6.94V51.69z M186.07,54.42v-2.47c0-2.35-0.63-4.4-3.1-4.4c-2.45,0-3.1,2.05-3.1,4.4v2.47
			c0,2.38,0.65,4.4,3.1,4.4C185.44,58.82,186.07,56.79,186.07,54.42z"/>
		<path class="st4" d="M197.83,45.71c0-0.7,0.46-1.15,1.15-1.15h1.15c0.7,0,1.15,0.46,1.15,1.15v14.45c0,0.7-0.46,1.15-1.15,1.15
			h-1.15c-0.7,0-1.15-0.46-1.15-1.15V45.71z"/>
		<path class="st4" d="M204.39,50.44c0-3.98,2.42-6.19,6.24-6.19c1.78,0,3,0.24,3.98,0.48c0.53,0.14,0.77,0.58,0.65,1.13l-0.22,0.98
			c-0.12,0.53-0.62,0.77-1.15,0.62c-0.65-0.14-1.54-0.34-2.78-0.34c-1.97,0-3.17,0.84-3.17,3.58v4.46c0,2.74,1.2,3.58,3.17,3.58
			c1.54,0,2.47-0.26,2.9-0.36c0.58-0.14,0.91,0.12,1.03,0.65l0.22,0.98c0.1,0.48-0.12,0.98-0.65,1.13
			c-0.55,0.14-1.99,0.48-3.98,0.48c-3.82,0-6.24-2.18-6.24-6.19V50.44z"/>
		<path class="st4" d="M217.83,51.4c0-4.13,2.47-7.15,6.74-7.15s6.74,3.03,6.74,7.15v3.07c0,4.13-2.47,7.15-6.74,7.15
			s-6.74-3.02-6.74-7.15V51.4z M227.76,54.21v-2.54c0-2.42-0.65-4.54-3.19-4.54c-2.52,0-3.19,2.11-3.19,4.54v2.54
			c0,2.45,0.67,4.54,3.19,4.54C227.12,58.75,227.76,56.66,227.76,54.21z"/>
		<path class="st4" d="M234.39,45.71c0-0.7,0.46-1.15,1.15-1.15h0.96c0.7,0,1.22,0.38,1.61,1.06l5.33,9.41
			c-0.14-1.2-0.22-2.4-0.22-3.31v-6c0-0.7,0.46-1.15,1.15-1.15h1.1c0.7,0,1.15,0.46,1.15,1.15v14.45c0,0.7-0.46,1.15-1.15,1.15
			h-0.96c-0.7,0-1.25-0.38-1.63-1.06l-5.3-9.36c0.12,1.2,0.22,2.38,0.22,3.26v6c0,0.7-0.46,1.15-1.15,1.15h-1.1
			c-0.7,0-1.15-0.46-1.15-1.15V45.71z"/>
		<path class="st4" d="M249.51,59.56l0.14-0.63c0.17-0.74,0.7-0.94,1.34-0.74c0.46,0.12,1.73,0.55,3.24,0.55
			c1.63,0,2.3-0.86,2.3-2.02c0-3.26-6.94-2.04-6.94-7.78c0-2.98,2.5-4.71,5.78-4.71c1.54,0,2.59,0.34,3.19,0.53
			c0.65,0.22,1.01,0.74,0.77,1.46l-0.17,0.53c-0.22,0.65-0.77,0.94-1.46,0.72c-0.55-0.17-1.3-0.36-2.33-0.36
			c-1.44,0-2.16,0.72-2.16,1.82c0,2.81,6.94,2.09,6.94,7.78c0,2.95-2.4,4.9-5.93,4.9c-1.66,0-2.95-0.36-3.89-0.65
			C249.65,60.76,249.34,60.33,249.51,59.56z"/>
	</g>
</g>
</svg>
