<?xml version="1.0" encoding="utf-8"?>
<!-- Generator: Adobe Illustrator 24.1.1, SVG Export Plug-In . SVG Version: 6.00 Build 0)  -->
<svg version="1.1" xmlns="http://www.w3.org/2000/svg" x="0px" y="0px"
     viewBox="0 0 448 448" style="enable-background:new 0 0 448 448;" xml:space="preserve">
<style type="text/css">
	.st0{display:none;}
	.st1{display:inline;fill:#FFFFFF;}
	.st2{fill:#173042;}
	.st3{display:inline;}
	.st4{fill:#869093;}
</style>
<g id="grid" class="st0">
	<rect x="30" y="98" class="st1" width="48" height="48"/>
	<rect x="98" y="98" class="st1" width="48" height="48"/>
	<rect x="166" y="98" class="st1" width="48" height="48"/>
	<rect x="234" y="98" class="st1" width="48" height="48"/>
	<rect x="302" y="98" class="st1" width="48" height="48"/>
	<rect x="370" y="98" class="st1" width="48" height="48"/>
	<rect x="30" y="166" class="st1" width="48" height="48"/>
	<rect x="98" y="166" class="st1" width="48" height="48"/>
	<rect x="166" y="166" class="st1" width="48" height="48"/>
	<rect x="234" y="166" class="st1" width="48" height="48"/>
	<rect x="302" y="166" class="st1" width="48" height="48"/>
	<rect x="370" y="166" class="st1" width="48" height="48"/>
	<rect x="30" y="234" class="st1" width="48" height="48"/>
	<rect x="98" y="234" class="st1" width="48" height="48"/>
	<rect x="370" y="234" class="st1" width="48" height="48"/>
	<rect x="30" y="302" class="st1" width="48" height="48"/>
	<rect x="98" y="302" class="st1" width="48" height="48"/>
	<rect x="166" y="234" class="st1" width="48" height="48"/>
	<rect x="234" y="234" class="st1" width="48" height="48"/>
	<rect x="302" y="234" class="st1" width="48" height="48"/>
	<rect x="166" y="302" class="st1" width="48" height="48"/>
	<rect x="234" y="302" class="st1" width="48" height="48"/>
	<rect x="302" y="302" class="st1" width="48" height="48"/>
	<rect x="370" y="302" class="st1" width="48" height="48"/>
	<rect x="30" y="370" class="st1" width="48" height="48"/>
	<rect x="98" y="370" class="st1" width="48" height="48"/>
	<rect x="166" y="370" class="st1" width="48" height="48"/>
	<rect x="234" y="370" class="st1" width="48" height="48"/>
	<rect x="302" y="370" class="st1" width="48" height="48"/>
	<rect x="370" y="370" class="st1" width="48" height="48"/>
</g>
<g id="icons">
	<g>
		<g>
			<path class="st2" d="M415.65,389.94l-7.15-10.21c-0.14-0.2-0.34-0.35-0.58-0.43l-13.06-4.35c-0.24-0.08-0.49-0.08-0.73,0
				l-13.06,4.35c-0.23,0.08-0.44,0.23-0.58,0.43l-7.15,10.21c-0.37,0.53-0.23,1.26,0.3,1.61l1.51,1.01
				c0.53,0.35,1.24,0.21,1.59-0.32l6.03-9.04c0.15-0.22,0.37-0.39,0.63-0.46l10.76-3.23c0.22-0.06,0.44-0.06,0.66,0l10.76,3.23
				c0.26,0.08,0.48,0.24,0.63,0.46l6.03,9.04c0.35,0.53,1.07,0.67,1.59,0.32l1.51-1.01C415.89,391.19,416.02,390.47,415.65,389.94z"
				/>
			<path class="st2" d="M409,408.12h2c0.83,0,1.5-0.67,1.5-1.5c0-0.83-0.67-1.5-1.5-1.5h-2c-0.83,0-1.5-0.67-1.5-1.5
				c0-0.83,0.67-1.5,1.5-1.5h2c0.83,0,1.5-0.67,1.5-1.5c0-0.83-0.67-1.5-1.5-1.5h-1.5v-6.48c0-0.23-0.07-0.45-0.19-0.64l-4.2-6.28
				c-0.14-0.21-0.35-0.37-0.59-0.45l-9.65-3.2c-0.23-0.08-0.49-0.08-0.72,0l-9.65,3.2c-0.24,0.08-0.45,0.24-0.59,0.45l-4.2,6.28
				c-0.13,0.19-0.19,0.41-0.19,0.64v6.48H378c-0.83,0-1.5,0.67-1.5,1.5c0,0.83,0.67,1.5,1.5,1.5h2c0.83,0,1.5,0.67,1.5,1.5
				c0,0.83-0.67,1.5-1.5,1.5h-2c-0.83,0-1.5,0.67-1.5,1.5c0,0.83,0.67,1.5,1.5,1.5h2c0.83,0,1.5,0.67,1.5,1.5
				c0,0.83-0.67,1.5-1.5,1.5h-2c-0.83,0-1.5,0.67-1.5,1.5c0,0.83,0.67,1.5,1.5,1.5h2.65c0,0,0,0,0,0h8.74c0.3,0,0.6-0.12,0.81-0.33
				l3.93-3.92c0.22-0.22,0.59-0.22,0.81,0l3.93,3.92c0.22,0.21,0.51,0.33,0.81,0.33h8.66c0,0,0,0,0,0H411c0.83,0,1.5-0.67,1.5-1.5
				c0-0.83-0.67-1.5-1.5-1.5h-2c-0.83,0-1.5-0.67-1.5-1.5C407.5,408.79,408.17,408.12,409,408.12z M394.5,387.12c2.21,0,4,1.79,4,4
				c0,2.21-1.79,4-4,4c-2.21,0-4-1.79-4-4C390.5,388.91,392.29,387.12,394.5,387.12z M392.4,408.25l-3.92,3.92
				c-0.36,0.36-0.98,0.11-0.98-0.41v-7.84c0-0.51,0.62-0.77,0.98-0.41l3.92,3.92C392.63,407.66,392.63,408.02,392.4,408.25z
				 M394.13,405.45l-3.35-3.35c-0.36-0.36-0.11-0.98,0.41-0.98h6.69c0.51,0,0.77,0.62,0.41,0.98l-3.35,3.35
				C394.72,405.67,394.36,405.67,394.13,405.45z M401.5,411.69c0,0.51-0.62,0.77-0.98,0.41l-3.84-3.84c-0.22-0.22-0.22-0.59,0-0.81
				l3.84-3.84c0.36-0.36,0.98-0.11,0.98,0.41V411.69z"/>
		</g>
	</g>
	<g>
		<g>
			<g>
				<path class="st2" d="M342.32,397.48l-7.59-21.57c-0.14-0.4-0.52-0.67-0.94-0.67H319.2c-0.42,0-0.8,0.27-0.94,0.67l-7.58,21.57
					c-0.12,0.34-0.05,0.72,0.19,0.99c0.56,0.66,1.77,1.75,3.63,1.75c1.54,0,2.64-0.75,3.29-1.38c0.4-0.39,1.02-0.39,1.42,0
					c0.65,0.63,1.75,1.38,3.29,1.38c1.54,0,2.64-0.75,3.29-1.38c0.4-0.39,1.02-0.39,1.42,0c0.65,0.63,1.75,1.38,3.29,1.38
					c1.54,0,2.64-0.75,3.29-1.38c0.4-0.39,1.02-0.39,1.42,0c0.65,0.63,1.75,1.38,3.29,1.38c1.86,0,3.07-1.09,3.63-1.75
					C342.36,398.2,342.44,397.83,342.32,397.48z M330.92,410.75h-2.93v-7.5c0-0.83-0.67-1.5-1.5-1.5c-0.83,0-1.5,0.67-1.5,1.5v7.5
					h-2.92c-1.42,0-2.57,1.15-2.57,2.57c0,0.24,0.19,0.43,0.43,0.43h13.14c0.24,0,0.43-0.19,0.43-0.43
					C333.49,411.9,332.34,410.75,330.92,410.75z"/>
				<path class="st2" d="M334.5,401.75c-0.83,0-1.5,0.67-1.5,1.5v1.5c0,0.83,0.67,1.5,1.5,1.5c0.83,0,1.5-0.67,1.5-1.5v-1.5
					C336,402.42,335.33,401.75,334.5,401.75z"/>
			</g>
		</g>
	</g>
	<g>
		<g>
			<path class="st2" d="M269.51,397.8l-2.13-8.54c-0.22-0.89-1.02-1.51-1.94-1.51h-13.88c-0.92,0-1.72,0.62-1.94,1.51l-2.13,8.54
				c-1.41,0.24-2.49,1.47-2.49,2.95v12c0,0.55,0.45,1,1,1h3c0.55,0,1-0.45,1-1v-4h17v4c0,0.55,0.45,1,1,1h3c0.55,0,1-0.45,1-1v-12
				C272,399.27,270.92,398.05,269.51,397.8z M251.83,391.53c0.1-0.46,0.51-0.78,0.98-0.78h11.4c0.47,0,0.87,0.33,0.98,0.78
				l1.38,6.22h-16.11L251.83,391.53z M250.5,405.75c-1.38,0-2.5-1.12-2.5-2.5c0-1.38,1.12-2.5,2.5-2.5s2.5,1.12,2.5,2.5
				C253,404.63,251.88,405.75,250.5,405.75z M261,404.25h-5c-0.55,0-1-0.45-1-1c0-0.55,0.45-1,1-1h5c0.55,0,1,0.45,1,1
				C262,403.8,261.55,404.25,261,404.25z M266.5,405.75c-1.38,0-2.5-1.12-2.5-2.5c0-1.38,1.12-2.5,2.5-2.5s2.5,1.12,2.5,2.5
				C269,404.63,267.88,405.75,266.5,405.75z"/>
			<path class="st2" d="M276.09,383.5l-16.5-8c-0.69-0.33-1.49-0.33-2.18,0l-16.5,8c-1.24,0.6-1.76,2.1-1.16,3.34
				c0.6,1.24,2.1,1.76,3.34,1.16l15.41-7.47l15.41,7.47c0.35,0.17,0.72,0.25,1.09,0.25c0.93,0,1.82-0.52,2.25-1.41
				C277.85,385.6,277.33,384.1,276.09,383.5z"/>
		</g>
	</g>
	<g>
		<g>
			<path class="st2" d="M209,398.38h-1.5v-4.5h-8v4.5h-5v-4.5h-8v4.5h-5v-4.5h-8v4.5H172c-0.28,0-0.5,0.22-0.5,0.5v2
				c0,0.28,0.22,0.5,0.5,0.5h1.5v7c0,0.55,0.45,1,1,1h6c0.55,0,1-0.45,1-1v-7h5v7c0,0.55,0.45,1,1,1h6c0.55,0,1-0.45,1-1v-7h5v7
				c0,0.55,0.45,1,1,1h6c0.55,0,1-0.45,1-1v-7h1.5c0.28,0,0.5-0.22,0.5-0.5v-2C209.5,398.6,209.28,398.38,209,398.38z"/>
			<path class="st2" d="M209,388.38h-1.5v-5.5c0-0.31-0.15-0.61-0.4-0.8l-3-2.25c-0.36-0.27-0.84-0.27-1.2,0l-3,2.25
				c-0.25,0.19-0.4,0.49-0.4,0.8v5.5h-5v-5.5c0-0.31-0.15-0.61-0.4-0.8l-3-2.25c-0.36-0.27-0.84-0.27-1.2,0l-3,2.25
				c-0.25,0.19-0.4,0.49-0.4,0.8v5.5h-5v-5.5c0-0.31-0.15-0.61-0.4-0.8l-3-2.25c-0.36-0.27-0.84-0.27-1.2,0l-3,2.25
				c-0.25,0.19-0.4,0.49-0.4,0.8v5.5H172c-0.28,0-0.5,0.22-0.5,0.5v2c0,0.28,0.22,0.5,0.5,0.5h37c0.28,0,0.5-0.22,0.5-0.5v-2
				C209.5,388.6,209.28,388.38,209,388.38z"/>
		</g>
	</g>
	<g>
		<g>
			<path class="st2" d="M141,378.75h-37c-0.28,0-0.5,0.22-0.5,0.5v4c0,0.28,0.22,0.5,0.5,0.5h37c0.28,0,0.5-0.22,0.5-0.5v-4
				C141.5,378.97,141.28,378.75,141,378.75z M137,398.25h2c0.83,0,1.5-0.67,1.5-1.5c0-0.83-0.67-1.5-1.5-1.5h-2
				c-0.83,0-1.5-0.67-1.5-1.5c0-0.83,0.67-1.5,1.5-1.5h2c0.28,0,0.5-0.22,0.5-0.5v-5c0-0.28-0.22-0.5-0.5-0.5h-33
				c-0.28,0-0.5,0.22-0.5,0.5v5c0,0.28,0.22,0.5,0.5,0.5h3c0.83,0,1.5,0.67,1.5,1.5c0,0.83-0.67,1.5-1.5,1.5h-2
				c-0.83,0-1.5,0.67-1.5,1.5c0,0.83,0.67,1.5,1.5,1.5h2c0.83,0,1.5,0.67,1.5,1.5c0,0.83-0.67,1.5-1.5,1.5h-2
				c-0.83,0-1.5,0.67-1.5,1.5c0,0.83,0.67,1.5,1.5,1.5h2c0.83,0,1.5,0.67,1.5,1.5c0,0.83-0.67,1.5-1.5,1.5h-2
				c-0.83,0-1.5,0.67-1.5,1.5c0,0.83,0.67,1.5,1.5,1.5h9.5v-10.5c0-3.59,2.91-6.5,6.5-6.5s6.5,2.91,6.5,6.5v10.5h9.5
				c0.83,0,1.5-0.67,1.5-1.5c0-0.83-0.67-1.5-1.5-1.5h-2c-0.83,0-1.5-0.67-1.5-1.5c0-0.83,0.67-1.5,1.5-1.5h2
				c0.83,0,1.5-0.67,1.5-1.5c0-0.83-0.67-1.5-1.5-1.5h-2c-0.83,0-1.5-0.67-1.5-1.5C135.5,398.92,136.17,398.25,137,398.25z"/>
			<path class="st2" d="M125.83,402.41c-0.77-1.23-1.69-2.36-1.9-3.83c-0.95,0.64-1.38,1.71-1.37,2.82c0,0.01,0,0.01,0,0.02
				c0.01,1.08,1.2,2.57,0.33,3.52c-0.95,1.03-2.55,0.19-2.1-1.4c0.21-0.74,0.08-1.18-0.03-1.38c-0.95,0.72-1.57,1.86-1.57,3.15
				c0,2.13,1.69,3.87,3.81,3.95c2.06-0.09,4.12-1.75,3.94-3.96C126.85,404.19,126.38,403.28,125.83,402.41z"/>
		</g>
	</g>
	<g>
		<g>
			<g>
				<path class="st2" d="M54.18,374.62c-0.62,0-4.57,3.44-5.3,7.91c1.62,0.22,3.86,0.87,5.61,2.68c0,0,0,0,0,0c0,0,0,0,0,0
					c1.54-1.59,3.45-2.28,4.99-2.58C58.82,378.1,54.8,374.62,54.18,374.62z"/>
				<path class="st2" d="M52.71,394.38L52.71,394.38l3.55,0.01v-0.01c1.47-0.03,3.47-0.73,5-2.31c2.35-2.42,2.08-6.63,1.77-6.95
					c-0.31-0.32-4.39-0.59-6.73,1.83c-0.85,0.88-1.44,1.91-1.8,2.91c-0.36-1-0.95-2.03-1.8-2.91c-2.35-2.42-6.42-2.15-6.73-1.83
					c-0.31,0.32-0.58,4.52,1.77,6.95C49.26,393.64,51.25,394.34,52.71,394.38z M65,396.38H44c-0.55,0-1,0.45-1,1v4.5
					c0,0.28,0.22,0.5,0.5,0.5h0.89l1.83,10.05c0.21,1.13,1.19,1.95,2.34,1.95h11.4c1.15,0,2.13-0.82,2.34-1.95l1.38-7.56h-3.67
					c-0.69,0-1.25-0.56-1.25-1.25c0-0.67,0.53-1.2,1.19-1.24h5.57c0.28,0,0.5-0.22,0.5-0.5v-4.5C66,396.83,65.55,396.38,65,396.38z"
					/>
			</g>
		</g>
	</g>
	<g>
		<g>
			<path class="st2" d="M407,318.08h-1.79l-5.75-6.33c-0.35,0.99-1.01,1.83-1.88,2.39l3.57,3.93h-12.31l3.57-3.93
				c-0.87-0.56-1.52-1.4-1.88-2.39l-5.75,6.33H382c-1.1,0-2,0.9-2,2v24c0,1.1,0.9,2,2,2h25c1.1,0,2-0.9,2-2v-24
				C409,318.98,408.1,318.08,407,318.08z M405,342.08h-21v-20h21V342.08z"/>
			<path class="st2" d="M390.71,330.4c0.92,0,1.67-0.75,1.67-1.67s-0.75-1.67-1.67-1.67s-1.67,0.75-1.67,1.67
				S389.79,330.4,390.71,330.4z M395,313.42c1.79,0,3.25-1.46,3.25-3.25c0-1.79-1.46-3.25-3.25-3.25c-1.79,0-3.25,1.46-3.25,3.25
				C391.75,311.96,393.21,313.42,395,313.42z M402.97,337.23l-4.51-6.59c-0.41-0.6-1.29-0.59-1.69,0.01l-4.26,6.39l-1.7-3.06
				c-0.38-0.68-1.35-0.7-1.76-0.04l-2.05,3.34c-0.49,0.79,0.08,1.81,1.01,1.81h13.98C402.94,339.08,403.51,338.01,402.97,337.23z"/>
		</g>
	</g>
	<g>
		<g>
			<path class="st2" d="M339.46,306.99h-12.71l6.37,1.41c1.4,0.31,2.38,1.53,2.38,2.97v30.62h3.96c0.3,0,0.54-0.24,0.54-0.54v-33.92
				C340,307.24,339.76,306.99,339.46,306.99z"/>
			<path class="st2" d="M332.58,310.85l-18.92-4.2c-0.34-0.08-0.66,0.18-0.66,0.53v34.45c0,0.25,0.18,0.47,0.42,0.53l18.92,4.2
				c0.34,0.08,0.66-0.18,0.66-0.53v-34.45C333,311.13,332.82,310.91,332.58,310.85z M329.25,330c0,0.69-0.56,1.25-1.25,1.25
				s-1.25-0.56-1.25-1.25v-5c0-0.69,0.56-1.25,1.25-1.25s1.25,0.56,1.25,1.25V330z"/>
		</g>
	</g>
	<g>
		<g>
			<path class="st2" d="M272.5,306.25h-28c-0.55,0-1,0.45-1,1v31.5c0,0.28,0.22,0.5,0.5,0.5h29c0.28,0,0.5-0.22,0.5-0.5v-31.5
				C273.5,306.7,273.05,306.25,272.5,306.25z M256.5,334.75c0,0.28-0.22,0.5-0.5,0.5h-8c-0.28,0-0.5-0.22-0.5-0.5v-10
				c0-0.28,0.22-0.5,0.5-0.5h8c0.28,0,0.5,0.22,0.5,0.5V334.75z M256.5,320.75c0,0.28-0.22,0.5-0.5,0.5h-8c-0.28,0-0.5-0.22-0.5-0.5
				v-10c0-0.28,0.22-0.5,0.5-0.5h8c0.28,0,0.5,0.22,0.5,0.5V320.75z M269.5,334.75c0,0.28-0.22,0.5-0.5,0.5h-8
				c-0.28,0-0.5-0.22-0.5-0.5v-10c0-0.28,0.22-0.5,0.5-0.5h8c0.28,0,0.5,0.22,0.5,0.5V334.75z M269.5,320.75
				c0,0.28-0.22,0.5-0.5,0.5h-8c-0.28,0-0.5-0.22-0.5-0.5v-10c0-0.28,0.22-0.5,0.5-0.5h8c0.28,0,0.5,0.22,0.5,0.5V320.75z"/>
			<path class="st2" d="M274.5,341.75h-32c-0.55,0-1,0.45-1,1v3c0,0.55,0.45,1,1,1h32c0.55,0,1-0.45,1-1v-3
				C275.5,342.2,275.05,341.75,274.5,341.75z"/>
		</g>
	</g>
	<g>
		<g>
			<path class="st2" d="M209.14,331.1l-1.53-8.2c-0.35-1.89-2.01-3.27-3.93-3.27h-3.35c-1.93,0-3.58,1.37-3.93,3.27l-1.53,8.2
				c-0.1,0.52,0.02,1.06,0.32,1.5l1.26,1.83l-1.5,5.06c-0.1,0.32,0.15,0.64,0.48,0.64h2.86l0.38,4.66c0.08,1.04,0.95,1.84,1.99,1.84
				h2.71c1.04,0,1.91-0.8,1.99-1.84l0.38-4.66h2.38c0.33,0,0.57-0.31,0.48-0.63l-1.24-4.77l1.47-2.13
				C209.12,332.16,209.23,331.62,209.14,331.1z M179.13,316.8c2.6,0,4.71-2.11,4.71-4.71c0-2.6-2.11-4.71-4.71-4.71
				c-2.6,0-4.71,2.11-4.71,4.71C174.42,314.69,176.53,316.8,179.13,316.8z M202.13,316.8c2.6,0,4.71-2.11,4.71-4.71
				c0-2.6-2.11-4.71-4.71-4.71c-2.6,0-4.71,2.11-4.71,4.71C197.42,314.69,199.53,316.8,202.13,316.8z M184.61,322.89
				c-0.35-1.89-2.01-3.27-3.93-3.27h-3.35c-1.93,0-3.58,1.37-3.93,3.27l-1.53,8.2c-0.1,0.52,0.02,1.06,0.32,1.5l2.51,3.65
				c0.2,0.29,0.32,0.62,0.35,0.97l0.61,7.56c0.08,1.04,0.95,1.84,1.99,1.84h2.71c1.04,0,1.91-0.8,1.99-1.84l0.61-7.56
				c0.03-0.35,0.15-0.69,0.35-0.97l2.51-3.65c0.3-0.44,0.42-0.98,0.32-1.5L184.61,322.89z"/>
			<path class="st2" d="M190.5,306.38c-0.69,0-1.25,0.56-1.25,1.25v37c0,0.69,0.56,1.25,1.25,1.25s1.25-0.56,1.25-1.25v-37
				C191.75,306.93,191.19,306.38,190.5,306.38z"/>
		</g>
	</g>
	<g>
		<g>
			<g>
				<g>
					<path class="st2" d="M116,309.5h-6c-0.83,0-1.5,0.67-1.5,1.5s0.67,1.5,1.5,1.5h6c0.83,0,1.5-0.67,1.5-1.5
						S116.83,309.5,116,309.5z"/>
					<path class="st2" d="M136.75,314.5h-28.49c-1.52,0-2.75,1.23-2.75,2.75c0,1.29,0.89,2.36,2.08,2.66l2.99,15.71
						c0.16,0.82,0.49,1.56,0.93,2.21v5.12c0,0.3,0.24,0.54,0.54,0.54h2.07c0.23,0,0.44-0.15,0.51-0.37l0.9-2.71
						c0.31,0.05,0.62,0.08,0.94,0.08h12.07c0.32,0,0.63-0.03,0.94-0.08l0.9,2.71c0.07,0.22,0.28,0.37,0.51,0.37h2.07
						c0.3,0,0.54-0.24,0.54-0.54v-5.12c0.44-0.66,0.77-1.4,0.93-2.21l2.99-15.71c1.19-0.3,2.08-1.37,2.08-2.66
						C139.5,315.73,138.27,314.5,136.75,314.5z M112.37,324.83l-0.59-2.55c-0.16-0.67,0.26-1.34,0.94-1.5
						c0.68-0.16,1.34,0.26,1.5,0.94l0.59,2.55c0.16,0.67-0.26,1.34-0.94,1.5c-0.09,0.02-0.19,0.03-0.28,0.03
						C113.02,325.8,112.5,325.41,112.37,324.83z M116.28,336.22c-0.09,0.02-0.19,0.03-0.28,0.03c-0.57,0-1.08-0.39-1.22-0.97
						l-1.07-4.62c-0.16-0.67,0.26-1.34,0.94-1.5c0.68-0.16,1.34,0.26,1.5,0.94l1.07,4.62C117.37,335.39,116.95,336.06,116.28,336.22
						z"/>
				</g>
			</g>
		</g>
	</g>
	<g>
		<g>
			<path class="st2" d="M72,316.94h-3.5v-3.38c0-2.99-2.34-5.4-5.32-5.5c-0.01,0-0.01,0-0.02,0c0,0,0,0,0,0c0,0,0,0,0,0
				c-0.12-0.01-0.23,0-0.34,0.02c-1.37,0.04-2.66,0.56-3.65,1.53c-1.08,1.04-1.67,2.45-1.67,3.95v0.38h-10v-0.38
				c0-0.68,0.27-1.32,0.76-1.79c0.49-0.47,1.13-0.72,1.86-0.7H53c0.83,0,1.5-0.67,1.5-1.5c0-0.83-0.67-1.5-1.5-1.5l-2.84,0
				c-1.5-0.04-2.92,0.51-3.99,1.55c-1.08,1.04-1.67,2.45-1.67,3.95v3.38H37c-0.83,0-1.5,0.67-1.5,1.5c0,0.83,0.67,1.5,1.5,1.5h7.5
				v6.5c0,0.83,0.67,1.5,1.5,1.5s1.5-0.67,1.5-1.5v-2.5h10v2.5c0,0.83,0.67,1.5,1.5,1.5s1.5-0.67,1.5-1.5v-12.88
				c0-0.68,0.27-1.32,0.76-1.79c0.49-0.47,1.14-0.7,1.81-0.71h0c0,0,0,0,0,0c1.36,0.04,2.43,1.14,2.43,2.5v3.38H63
				c-0.83,0-1.5,0.67-1.5,1.5c0,0.83,0.67,1.5,1.5,1.5h9c0.83,0,1.5-0.67,1.5-1.5C73.5,317.61,72.83,316.94,72,316.94z M57.5,320.94
				h-10v-4h10V320.94z"/>
			<path class="st2" d="M72.14,332.02c-5.1-1.43-11.36-2.27-18.14-2.27s-13.04,0.84-18.14,2.27c-0.22,0.06-0.36,0.26-0.36,0.48
				v11.93c0,0.28,0.22,0.5,0.5,0.5h36c0.28,0,0.5-0.22,0.5-0.5v-11.93C72.5,332.28,72.35,332.09,72.14,332.02z"/>
		</g>
	</g>
	<g>
		<g>
			<path class="st2" d="M408.5,240h-28c-1.1,0-2,0.9-2,2v6.5c0,0.28,0.22,0.5,0.5,0.5h31c0.28,0,0.5-0.22,0.5-0.5V242
				C410.5,240.9,409.6,240,408.5,240z M386.5,246.5c-1.1,0-2-0.9-2-2s0.9-2,2-2s2,0.9,2,2S387.6,246.5,386.5,246.5z M404,246h-7
				c-0.83,0-1.5-0.67-1.5-1.5s0.67-1.5,1.5-1.5h7c0.83,0,1.5,0.67,1.5,1.5S404.83,246,404,246z M410,251h-31
				c-0.28,0-0.5,0.22-0.5,0.5V275c0,1.1,0.9,2,2,2h28c1.1,0,2-0.9,2-2v-23.5C410.5,251.22,410.28,251,410,251z M394.5,272.5
				c-4.69,0-8.5-3.81-8.5-8.5c0-4.69,3.81-8.5,8.5-8.5c4.69,0,8.5,3.81,8.5,8.5C403,268.69,399.19,272.5,394.5,272.5z"/>
			<path class="st2" d="M397.5,264c0-1.66,0.9-3,2-3c0.07,0,0.14,0.02,0.21,0.03c-1.03-1.81-2.98-3.03-5.21-3.03c-3.31,0-6,2.69-6,6
				s2.69,6,6,6c2.23,0,4.18-1.22,5.21-3.03c-0.07,0.01-0.14,0.03-0.21,0.03C398.4,267,397.5,265.66,397.5,264z"/>
		</g>
	</g>
	<g>
		<g>
			<path class="st2" d="M344,245.8h-11c-0.28,0-0.5,0.22-0.5,0.5v7c0,0.28-0.22,0.5-0.5,0.5h-7c-0.28,0-0.5,0.22-0.5,0.5v7
				c0,0.28-0.22,0.5-0.5,0.5h-7c-0.28,0-0.5,0.22-0.5,0.5v7c0,0.28-0.22,0.5-0.5,0.5h-7c-0.28,0-0.5,0.22-0.5,0.5v3
				c0,0.28,0.22,0.5,0.5,0.5h11c0.28,0,0.5-0.22,0.5-0.5v-7c0-0.28,0.22-0.5,0.5-0.5h7c0.28,0,0.5-0.22,0.5-0.5v-7
				c0-0.28,0.22-0.5,0.5-0.5h7c0.28,0,0.5-0.22,0.5-0.5v-7c0-0.28,0.22-0.5,0.5-0.5h7c0.28,0,0.5-0.22,0.5-0.5v-3
				C344.5,246.02,344.28,245.8,344,245.8z"/>
			<path class="st2" d="M321.97,243.21l-5.84,0.73c-0.83,0.1-1.17,1.11-0.58,1.7l0.84,0.84l-6.15,6.15c-0.39,0.39-0.39,1.02,0,1.41
				l2.01,2.01c0.39,0.39,1.02,0.39,1.41,0l6.15-6.15l0.84,0.84c0.59,0.59,1.6,0.24,1.7-0.58l0.73-5.84
				C323.17,243.68,322.62,243.13,321.97,243.21z"/>
		</g>
	</g>
	<g>
		<g>
			<g>
				<path class="st2" d="M265.34,259.5h-13.68c-1.19,0-2.16,0.97-2.16,2.16v0c0,0.46,0.38,0.84,0.84,0.84h16.32
					c0.46,0,0.84-0.38,0.84-0.84v0C267.5,260.47,266.53,259.5,265.34,259.5z"/>
				<path class="st2" d="M249.91,257.9c0.53-0.25,1.13-0.4,1.75-0.4h13.68c0.63,0,1.22,0.15,1.75,0.4c0.48-3.01,2.88-5.39,5.91-5.82
					v-7.58c0-2.21-1.79-4-4-4h-21c-2.21,0-4,1.79-4,4v7.58C247.02,252.51,249.43,254.89,249.91,257.9z M274,254.5
					c-2.49,0-4.5,2.01-4.5,4.5v5c0,0.28-0.22,0.5-0.5,0.5h-21c-0.28,0-0.5-0.22-0.5-0.5v-5c0-2.49-2.01-4.5-4.5-4.5
					s-4.5,2.01-4.5,4.5v8.5c0,2.21,1.79,4,4,4v4.46c0,0.3,0.24,0.54,0.54,0.54h2.07c0.23,0,0.44-0.15,0.51-0.37l1.54-4.63h22.67
					l1.54,4.63c0.07,0.22,0.28,0.37,0.51,0.37h2.07c0.3,0,0.54-0.24,0.54-0.54v-4.46c2.21,0,4-1.79,4-4V259
					C278.5,256.51,276.49,254.5,274,254.5z"/>
			</g>
		</g>
	</g>
	<g>
		<g>
			<g>
				<path class="st2" d="M182.73,256.53c-0.46-0.79-0.73-1.7-0.73-2.66c0-6.26,1.29-11.35,3.43-14.4
					c-7.47,1.78-12.93,7.39-12.93,14.4c0,1.66,1.51,3,3.17,3h5.67C181.83,256.88,182.3,256.74,182.73,256.53z M182.84,262.24
					c-0.3-0.77-1.16-1.16-1.94-0.86c-0.77,0.3-1.16,1.17-0.86,1.94l1.85,4.82l-2.8,7.47c-0.29,0.78,0.1,1.64,0.88,1.93
					c0.78,0.29,1.64-0.1,1.93-0.88l2.64-7.03h1.95v-3h-1.96L182.84,262.24z M197.54,266.63H192v-7.25h-3v17.25
					c0,0.83,0.67,1.5,1.5,1.5s1.5-0.67,1.5-1.5v-7h3.46l2.64,7.03c0.23,0.6,0.8,0.97,1.4,0.97c0.18,0,0.35-0.03,0.53-0.1
					c0.78-0.29,1.17-1.16,0.88-1.93L197.54,266.63z M195.57,239.47c2.13,3.05,3.43,8.15,3.43,14.4c0,0.96-0.27,1.86-0.73,2.66
					c0.43,0.21,0.91,0.34,1.4,0.34h5.67c1.66,0,3.17-1.34,3.17-3C208.5,246.87,203.04,241.25,195.57,239.47z"/>
				<path class="st2" d="M190.5,238.88c-3.31,0-6,6.48-6,15c0,1.66,1.51,3,3.17,3h5.67c1.66,0,3.17-1.34,3.17-3
					C196.5,245.35,193.81,238.88,190.5,238.88z"/>
			</g>
		</g>
	</g>
	<g>
		<g>
			<path class="st2" d="M116.96,272.25v0.22c0,2.64,2.14,4.78,4.78,4.78h0.44c2.64,0,4.78-2.14,4.78-4.78v-0.22H116.96z"/>
			<path class="st2" d="M140.21,266.29l-12.25-9.53v-3.01c0-1.1-0.9-2-2-2h-2v-10.5c0-0.83-0.67-1.5-1.5-1.5s-1.5,0.67-1.5,1.5v10.5
				h-2c-1.1,0-2,0.9-2,2v3.08l-12.16,9.46c-1.46,1.13-0.65,3.46,1.19,3.46h33.04C140.86,269.75,141.66,267.42,140.21,266.29z"/>
		</g>
	</g>
	<g>
		<g>
			<g>
				<path class="st2" d="M63.04,257H45.96c-1.36,0-2.46,1.1-2.46,2.46c0,0.28,0.22,0.5,0.5,0.5h21c0.28,0,0.5-0.22,0.5-0.5
					C65.5,258.1,64.4,257,63.04,257z"/>
				<path class="st2" d="M63.37,238H62c0,0,0,0,0,0c0,0,0,0,0,0h-7.5c0,0,0,0,0,0c0,0,0,0,0,0H47c0,0,0,0,0,0c0,0,0,0,0,0h-1.37
					c-1.18,0-2.13,0.95-2.13,2.13v2.74c0,1.13,0.89,2.05,2,2.12v9.56c0.15-0.01,0.3-0.05,0.46-0.05h2.54V245H53v9.5h3V245h4.5v9.5
					h2.54c0.16,0,0.31,0.03,0.46,0.05v-9.56c1.11-0.07,2-0.99,2-2.12v-2.74C65.5,238.95,64.55,238,63.37,238z M44,262.46
					c-0.17,0-0.33-0.02-0.5-0.05V263c0,0.09,0.01,0.17,0.03,0.25c-0.01,0.08-0.03,0.16-0.03,0.25v14c0,0.83,0.67,1.5,1.5,1.5
					c0.83,0,1.5-0.67,1.5-1.5v-6.82h16v6.82c0,0.83,0.67,1.5,1.5,1.5c0.83,0,1.5-0.67,1.5-1.5v-14c0-0.09-0.01-0.17-0.03-0.25
					c0.01-0.08,0.03-0.16,0.03-0.25v-0.59c-0.16,0.03-0.33,0.05-0.5,0.05H44z M62.5,267.68h-16V265h16V267.68z"/>
			</g>
		</g>
	</g>
	<g>
		<g>
			<path class="st2" d="M408.23,171h-8.46c-0.43,0-0.77,0.34-0.77,0.77V178h10v-6.23C409,171.34,408.66,171,408.23,171z"/>
			<path class="st2" d="M399.77,197h8.46c0.42,0,0.77-0.33,0.77-0.74V180.5h-10v15.76C399,196.67,399.34,197,399.77,197z M404.5,190
				c0.83,0,1.5,0.67,1.5,1.5s-0.67,1.5-1.5,1.5s-1.5-0.67-1.5-1.5S403.67,190,404.5,190z M379,192h8.08l-0.75,3h-1.61
				c-0.55,0-1,0.45-1,1s0.45,1,1,1h10.71c0.55,0,1-0.45,1-1s-0.45-1-1-1h-1.61l-0.75-3h3.42v-4H381v-13h15.5v-3.23
				c0-0.27,0.04-0.52,0.1-0.77H379c-1.1,0-2,0.9-2,2v17C377,191.1,377.9,192,379,192z M414,199.5h-39c-0.28,0-0.53,0.11-0.71,0.29
				c-0.18,0.18-0.29,0.43-0.29,0.71v2c0,0.55,0.45,1,1,1h2v6c0,0.28,0.22,0.5,0.5,0.5h3c0.28,0,0.5-0.22,0.5-0.5v-6h27v6
				c0,0.28,0.22,0.5,0.5,0.5h3c0.28,0,0.5-0.22,0.5-0.5v-6h2c0.55,0,1-0.45,1-1v-2C415,199.95,414.55,199.5,414,199.5z"/>
		</g>
	</g>
	<g>
		<g>
			<path class="st2" d="M337.36,184.06l-4.36-8.71c-0.11-0.22-0.33-0.36-0.58-0.36h-0.93v-5.36c0-0.36-0.29-0.64-0.64-0.64h-8.71
				c-0.36,0-0.64,0.29-0.64,0.64V175h-0.93c-0.24,0-0.47,0.14-0.58,0.36l-4.36,8.71c-0.09,0.18-0.14,0.38-0.14,0.58v1.72
				c0,0.36,0.29,0.64,0.64,0.64h20.71c0.35,0,0.64-0.29,0.64-0.64v-1.72C337.5,184.44,337.45,184.24,337.36,184.06z"/>
			<path class="st2" d="M340,205h-27c-0.28,0-0.5,0.22-0.5,0.5v6c0,0.28,0.22,0.5,0.5,0.5h7.75v-2.9c0-0.55,0.45-1,1-1h9.5
				c0.55,0,1,0.45,1,1v2.9H340c0.28,0,0.5-0.22,0.5-0.5v-6C340.5,205.22,340.28,205,340,205z M339.5,193.5h-26c-1.1,0-2,0.9-2,2v6.5
				c0,0.28,0.22,0.5,0.5,0.5h29c0.28,0,0.5-0.22,0.5-0.5v-6.5C341.5,194.4,340.6,193.5,339.5,193.5z M317,200.5
				c-1.38,0-2.5-1.12-2.5-2.5c0-1.38,1.12-2.5,2.5-2.5s2.5,1.12,2.5,2.5C319.5,199.38,318.38,200.5,317,200.5z M329.5,199.5h-6
				c-0.55,0-1-0.45-1-1s0.45-1,1-1h6c0.55,0,1,0.45,1,1S330.05,199.5,329.5,199.5z M336,200.5c-1.38,0-2.5-1.12-2.5-2.5
				c0-1.38,1.12-2.5,2.5-2.5s2.5,1.12,2.5,2.5C338.5,199.38,337.38,200.5,336,200.5z"/>
		</g>
	</g>
	<g>
		<g>
			<path class="st2" d="M276.5,187.25h-36c-1.1,0-2,0.9-2,2v2c0,1.1,0.9,2,2,2h0.03c0.27,8.88,7.53,16,16.47,16h3
				c8.94,0,16.21-7.12,16.47-16h0.03c1.1,0,2-0.9,2-2v-2C278.5,188.15,277.6,187.25,276.5,187.25z M247.04,198.96
				c-0.15,0.06-0.3,0.09-0.45,0.09c-0.5,0-0.97-0.3-1.17-0.8c-0.25-0.63-0.45-1.3-0.59-1.98c-0.14-0.67,0.29-1.34,0.96-1.48
				c0.67-0.14,1.34,0.29,1.48,0.96c0.12,0.54,0.28,1.08,0.47,1.59C248,197.99,247.68,198.71,247.04,198.96z M257.47,206.5
				c-3.02,0-5.96-1.06-8.27-2.99c-0.53-0.44-0.6-1.23-0.16-1.76c0.44-0.53,1.23-0.6,1.76-0.16c1.87,1.56,4.24,2.41,6.67,2.41
				c0.69,0,1.25,0.56,1.25,1.25S258.16,206.5,257.47,206.5z M243,184.75h4c0.28,0,0.5-0.22,0.5-0.5v-3c0-0.28,0.22-0.5,0.5-0.5h5.5
				v1h4v-4.5c0-0.28-0.22-0.5-0.5-0.5h-14c-0.28,0-0.5,0.22-0.5,0.5v7C242.5,184.53,242.72,184.75,243,184.75z"/>
			<path class="st2" d="M253,171.75h-6c-0.83,0-1.5,0.67-1.5,1.5s0.67,1.5,1.5,1.5h6c0.83,0,1.5-0.67,1.5-1.5
				S253.83,171.75,253,171.75z"/>
		</g>
	</g>
	<g>
		<g>
			<path class="st2" d="M206.47,178.3l-15.5-7.09c-0.68-0.31-1.47-0.3-2.15,0.03l-14.37,7.09c-1.24,0.61-1.75,2.11-1.14,3.35
				c0.61,1.24,2.11,1.74,3.35,1.14l13.3-6.57l14.42,6.6c0.34,0.15,0.69,0.23,1.04,0.23c0.95,0,1.85-0.54,2.27-1.46
				C208.28,180.36,207.73,178.87,206.47,178.3z"/>
			<path class="st2" d="M202.17,198.82h-23.33c-1.03,0-1.87,0.84-1.87,1.87s0.84,1.87,1.87,1.87v7.47h23.33v-7.47h0
				c1.03,0,1.87-0.84,1.87-1.87S203.2,198.82,202.17,198.82z M179.77,196.32h21.47c0.52,0,0.93-0.42,0.93-0.93v-10.6
				c0-0.36-0.21-0.69-0.54-0.85l-11.18-5.16c-0.26-0.12-0.56-0.11-0.81,0.01l-10.28,5.14c-0.32,0.16-0.52,0.48-0.52,0.83v10.62
				C178.83,195.9,179.25,196.32,179.77,196.32z M190.5,185.12c2.06,0,3.73,1.67,3.73,3.73c0,2.06-1.67,3.73-3.73,3.73
				s-3.73-1.67-3.73-3.73C186.77,186.79,188.44,185.12,190.5,185.12z"/>
		</g>
	</g>
	<g>
		<g>
			<path class="st2" d="M131.75,185.53l-1.56-14c-0.11-1.01-0.97-1.78-1.99-1.78h-11.42c-1.02,0-1.88,0.77-1.99,1.78l-1.56,14
				c-0.13,1.18,0.8,2.22,1.99,2.22h14.53C130.96,187.75,131.88,186.71,131.75,185.53z"/>
			<path class="st2" d="M139,179.25h-4c-0.55,0-1,0.45-1,1v2c0,0.55,0.45,1,1,1h0.5v5.81l-3.54,3.78c-0.2-1.46-1.44-2.59-2.96-2.59
				h-13c-1.52,0-2.76,1.13-2.96,2.59l-3.54-3.78v-5.81h0.5c0.55,0,1-0.45,1-1v-2c0-0.55-0.45-1-1-1h-4c-0.55,0-1,0.45-1,1v2
				c0,0.55,0.45,1,1,1h0.5v6.01c0,0.63,0.24,1.24,0.67,1.71l4.67,5c0.47,0.51,1.13,0.79,1.83,0.79h5.83v1.5c0,0.55,0.45,1,1,1h0.5
				v4.48l-6.56,2.62c-0.57,0.23-0.94,0.78-0.94,1.39v3c0,0.28,0.22,0.5,0.5,0.5h2c0.28,0,0.5-0.22,0.5-0.5v-1.98l4.5-1.8v3.78
				c0,0.28,0.22,0.5,0.5,0.5h2c0.28,0,0.5-0.22,0.5-0.5v-3.78l4.5,1.8v1.98c0,0.28,0.22,0.5,0.5,0.5h2c0.28,0,0.5-0.22,0.5-0.5v-3
				c0-0.61-0.37-1.16-0.94-1.39l-6.56-2.62v-4.48h0.5c0.55,0,1-0.45,1-1v-1.5h5.83c0.69,0,1.35-0.29,1.83-0.79l4.67-4.99
				c0.43-0.46,0.67-1.07,0.67-1.71v-6h0.5c0.55,0,1-0.45,1-1v-2C140,179.7,139.55,179.25,139,179.25z"/>
		</g>
	</g>
	<g>
		<g>
			<g>
				<path class="st2" d="M70.5,205.13h-32c-1.1,0-2,0.9-2,2s0.9,2,2,2h32c1.1,0,2-0.9,2-2S71.6,205.13,70.5,205.13z"/>
				<path class="st2" d="M40.07,171.88l7.53,7.37h12.86l7.86-7.37H40.07z M50.4,177.35c-1,0-1.8-0.81-1.8-1.8
					c0-0.99,0.81-1.8,1.8-1.8c1,0,1.8,0.81,1.8,1.8C52.2,176.55,51.39,177.35,50.4,177.35z M57.6,177.35c-1,0-1.8-0.81-1.8-1.8
					c0-0.99,0.81-1.8,1.8-1.8c1,0,1.8,0.81,1.8,1.8C59.41,176.55,58.6,177.35,57.6,177.35z M38.25,202.63h8.5v-20.71l-8.5-8.32
					V202.63z M42.51,181.49c0.99,0,1.8,0.81,1.8,1.8c0,1-0.81,1.8-1.8,1.8c-1,0-1.8-0.81-1.8-1.8
					C40.71,182.3,41.52,181.49,42.51,181.49z M42.51,188.79c0.99,0,1.8,0.81,1.8,1.8s-0.81,1.8-1.8,1.8c-1,0-1.8-0.81-1.8-1.8
					S41.52,188.79,42.51,188.79z M42.51,196.08c0.99,0,1.8,0.81,1.8,1.8s-0.81,1.8-1.8,1.8c-1,0-1.8-0.81-1.8-1.8
					S41.52,196.08,42.51,196.08z M61.25,181.93v20.7h8.5v-28.66L61.25,181.93z M65.48,199.68c-1,0-1.8-0.81-1.8-1.8
					s0.81-1.8,1.8-1.8s1.8,0.81,1.8,1.8S66.47,199.68,65.48,199.68z M65.48,192.39c-1,0-1.8-0.81-1.8-1.8s0.81-1.8,1.8-1.8
					s1.8,0.81,1.8,1.8S66.47,192.39,65.48,192.39z M65.48,185.09c-1,0-1.8-0.81-1.8-1.8c0-1,0.81-1.8,1.8-1.8s1.8,0.81,1.8,1.8
					C67.28,184.29,66.47,185.09,65.48,185.09z"/>
			</g>
		</g>
	</g>
	<g>
		<g>
			<path class="st2" d="M410.5,115.75h-15c-0.55,0-1,0.45-1,1v1.5c0,0.28,0.22,0.5,0.5,0.5h16c0.28,0,0.5-0.22,0.5-0.5v-1.5
				C411.5,116.2,411.05,115.75,410.5,115.75z"/>
			<path class="st2" d="M392.5,117.75v-7.5h-2c-0.69,0-1.25-0.56-1.25-1.25s0.56-1.25,1.25-1.25h2v0h0.5c0.28,0,0.5-0.22,0.5-0.5v-3
				c0-0.28-0.22-0.5-0.5-0.5h-15c-0.28,0-0.5,0.22-0.5,0.5v3c0,0.28,0.22,0.5,0.5,0.5h0.5v10c0,0.55,0.45,1,1,1h12
				C392.05,118.75,392.5,118.3,392.5,117.75z M411,121.25h-29c-0.28,0-0.5,0.22-0.5,0.5v2.38c0,0.52,0.2,1.01,0.56,1.39l7.44,7.74v3
				H388c-1.38,0-2.5,1.12-2.5,2.5c0,1.38,1.12,2.5,2.5,2.5h15c1.38,0,2.5-1.12,2.5-2.5c0-1.38-1.12-2.5-2.5-2.5h-4
				c-0.83,0-1.5-0.67-1.5-1.5c0-0.77,0.59-1.4,1.34-1.48l0-0.02H399c0,0,0,0,0,0h1.5c6.07,0,11-4.93,11-11v-0.5
				C411.5,121.47,411.28,121.25,411,121.25z"/>
		</g>
	</g>
	<g>
		<g>
			<path class="st2" d="M329.99,122.25h-15c-0.28,0-0.5,0.22-0.5,0.5v1c0,0.28,0.22,0.5,0.5,0.5h15c0.28,0,0.5-0.22,0.5-0.5v-1
				C330.49,122.47,330.27,122.25,329.99,122.25z"/>
			<path class="st2" d="M322.49,136.25c-0.83,0-1.5,0.67-1.5,1.5v2c0,0.83,0.67,1.5,1.5,1.5c0.83,0,1.5-0.67,1.5-1.5v-2
				C323.99,136.92,323.32,136.25,322.49,136.25z M316.49,134.25c-0.83,0-1.5,0.67-1.5,1.5v2c0,0.83,0.67,1.5,1.5,1.5
				c0.83,0,1.5-0.67,1.5-1.5v-2C317.99,134.92,317.32,134.25,316.49,134.25z M316.49,126.25c-0.83,0-1.5,0.67-1.5,1.5v2
				c0,0.83,0.67,1.5,1.5,1.5c0.83,0,1.5-0.67,1.5-1.5v-2C317.99,126.92,317.32,126.25,316.49,126.25z M322.49,128.25
				c-0.83,0-1.5,0.67-1.5,1.5v2c0,0.83,0.67,1.5,1.5,1.5c0.83,0,1.5-0.67,1.5-1.5v-2C323.99,128.92,323.32,128.25,322.49,128.25z
				 M328.49,134.25c-0.83,0-1.5,0.67-1.5,1.5v2c0,0.83,0.67,1.5,1.5,1.5c0.83,0,1.5-0.67,1.5-1.5v-2
				C329.99,134.92,329.32,134.25,328.49,134.25z M329.34,103.77c-4.12,0.28-7.42,3.28-8.48,7.13c-4.02,0.74-7.11,4.15-7.35,8.33
				c-0.02,0.28,0.22,0.52,0.51,0.52h16.96c0.28,0,0.52-0.24,0.51-0.52c-0.22-3.89-2.92-7.12-6.54-8.14c0.91-2.12,3.11-3.56,5.6-3.32
				c2.86,0.28,4.95,2.85,4.95,5.72v26.75c0,0.28,0.22,0.5,0.5,0.5h3c0.28,0,0.5-0.22,0.5-0.5v-27
				C339.49,107.8,334.87,103.4,329.34,103.77z M328.49,126.25c-0.83,0-1.5,0.67-1.5,1.5v2c0,0.83,0.67,1.5,1.5,1.5
				c0.83,0,1.5-0.67,1.5-1.5v-2C329.99,126.92,329.32,126.25,328.49,126.25z"/>
		</g>
	</g>
	<g>
		<g>
			<g>
				<path class="st2" d="M245,123.5h10.08l-0.63,2.5H252c-0.55,0-1,0.45-1,1s0.45,1,1,1h13c0.55,0,1-0.45,1-1s-0.45-1-1-1h-3.29
					l-0.63-2.5H272c1.1,0,2-0.9,2-2v-16c0-1.1-0.9-2-2-2h-27c-1.1,0-2,0.9-2,2v16C243,122.6,243.9,123.5,245,123.5z M247,107.5h23
					v12h-23V107.5z M277.5,130.5h-38c-0.28,0-0.53,0.11-0.71,0.29c-0.18,0.18-0.29,0.43-0.29,0.71v2c0,0.55,0.45,1,1,1h1v6.43
					c0,0.16,0.06,0.3,0.16,0.4c0.1,0.1,0.24,0.17,0.39,0.17h34.91c0.08,0,0.15-0.02,0.21-0.04c0.07-0.03,0.12-0.07,0.17-0.12
					c0.1-0.1,0.16-0.25,0.16-0.4v-6.43h1c0.55,0,1-0.45,1-1v-2C278.5,130.95,278.05,130.5,277.5,130.5z M253.5,138h-8
					c-0.55,0-1-0.45-1-1c0-0.55,0.45-1,1-1h8c0.55,0,1,0.45,1,1C254.5,137.55,254.05,138,253.5,138z M271.5,138h-8
					c-0.55,0-1-0.45-1-1c0-0.55,0.45-1,1-1h8c0.55,0,1,0.45,1,1C272.5,137.55,272.05,138,271.5,138z"/>
				<path class="st2" d="M261.81,113.17l-3.71-2.27c-0.26-0.16-0.59,0.03-0.59,0.33v4.54c0,0.3,0.33,0.49,0.59,0.33l3.71-2.27
					C262.06,113.68,262.06,113.32,261.81,113.17z"/>
			</g>
		</g>
	</g>
	<g>
		<g>
			<g>
				<path class="st2" d="M208,103.25h-35c-0.55,0-1,0.45-1,1v3c0,0.55,0.45,1,1,1h35c0.55,0,1-0.45,1-1v-3
					C209,103.7,208.55,103.25,208,103.25z"/>
				<path class="st2" d="M190.5,128.25c-0.83,0-1.5,0.67-1.5,1.5s0.67,1.5,1.5,1.5s1.5-0.67,1.5-1.5S191.33,128.25,190.5,128.25z
					 M207,110.75h-33c-0.55,0-1,0.45-1,1v25c0,0.55,0.45,1,1,1h1v3.46c0,0.3,0.24,0.54,0.54,0.54h2.07c0.23,0,0.44-0.15,0.51-0.37
					l1.21-3.63h22.33l1.21,3.63c0.07,0.22,0.28,0.37,0.51,0.37h2.07c0.3,0,0.54-0.24,0.54-0.54v-3.46h1c0.55,0,1-0.45,1-1v-25
					C208,111.2,207.55,110.75,207,110.75z M204,133.25c0,0.28-0.22,0.5-0.5,0.5h-26c-0.28,0-0.5-0.22-0.5-0.5v-7
					c0-0.28,0.22-0.5,0.5-0.5h26c0.28,0,0.5,0.22,0.5,0.5V133.25z M204,122.25c0,0.28-0.22,0.5-0.5,0.5h-26
					c-0.28,0-0.5-0.22-0.5-0.5v-7c0-0.28,0.22-0.5,0.5-0.5h26c0.28,0,0.5,0.22,0.5,0.5V122.25z M190.5,117.25
					c-0.83,0-1.5,0.67-1.5,1.5s0.67,1.5,1.5,1.5s1.5-0.67,1.5-1.5S191.33,117.25,190.5,117.25z"/>
			</g>
		</g>
	</g>
	<g>
		<g>
			<path class="st2" d="M108.5,118.24l0-1.79c0-0.92,0.63-1.73,1.53-1.95c3.31-0.81,5.64-0.81,8.95,0c0.89,0.22,1.52,1.03,1.53,1.95
				l0,1.79h3.02l0-1.78c0-0.92,0.63-1.73,1.52-1.95c3.3-0.81,5.63-0.81,8.93,0c0.89,0.22,1.52,1.03,1.52,1.95l0,1.78h3v-12.5
				c0-0.55-0.45-1-1-1h-2.26c-0.55,0-1,0.45-1,1v1.11c-3.02-1.29-7.38-2.11-12.24-2.11s-9.22,0.82-12.24,2.11v-1.11
				c0-0.55-0.45-1-1-1h-2.26c-0.55,0-1,0.45-1,1v12.61c0.33-0.07,0.67-0.11,1-0.11H108.5z M142,130.26h-39c-0.28,0-0.5,0.22-0.5,0.5
				v4c0,0.28,0.22,0.5,0.5,0.5h2.5v4c0,0.55,0.45,1,1,1h2c0.55,0,1-0.45,1-1v-4h26v4c0,0.55,0.45,1,1,1h2c0.55,0,1-0.45,1-1v-4h2.5
				c0.28,0,0.5-0.22,0.5-0.5v-4C142.5,130.48,142.28,130.26,142,130.26z"/>
			<path class="st2" d="M138.5,120.74h-32c-1.66,0-4,1.75-4,4.38v2.19c0,0.24,0.22,0.44,0.5,0.44h39c0.28,0,0.5-0.2,0.5-0.44v-2.19
				C142.5,122.49,140.16,120.74,138.5,120.74z"/>
		</g>
	</g>
	<g>
		<g>
			<g>
				<path class="st2" d="M61.34,125.5H47.66c-1.19,0-2.16,0.97-2.16,2.16c0,0.46,0.38,0.84,0.84,0.84h16.32
					c0.46,0,0.84-0.38,0.84-0.84C63.5,126.47,62.53,125.5,61.34,125.5z"/>
				<path class="st2" d="M41.25,116.37c2.38,0.81,4.2,2.86,4.64,5.48c0.07,0.38,0.11,0.76,0.11,1.15v0.85
					c0.51-0.22,1.07-0.35,1.66-0.35h13.68c0.59,0,1.15,0.13,1.66,0.35V123c0-0.39,0.04-0.77,0.11-1.15
					c0.43-2.62,2.25-4.67,4.64-5.48c0.21-1.68,0.53-3.34,0.99-4.98c0.19-0.68,0.28-1.4,0.26-2.15c-0.14-3.82-3.49-6.75-7.32-6.75
					H47.32c-3.82,0-7.18,2.92-7.32,6.75c-0.03,0.75,0.07,1.47,0.26,2.15C40.72,113.03,41.05,114.69,41.25,116.37z M60,108.5
					c0.83,0,1.5,0.67,1.5,1.5s-0.67,1.5-1.5,1.5s-1.5-0.67-1.5-1.5S59.17,108.5,60,108.5z M60,116.5c0.83,0,1.5,0.67,1.5,1.5
					s-0.67,1.5-1.5,1.5s-1.5-0.67-1.5-1.5S59.17,116.5,60,116.5z M49,108.5c0.83,0,1.5,0.67,1.5,1.5s-0.67,1.5-1.5,1.5
					s-1.5-0.67-1.5-1.5S48.17,108.5,49,108.5z M49,116.5c0.83,0,1.5,0.67,1.5,1.5s-0.67,1.5-1.5,1.5s-1.5-0.67-1.5-1.5
					S48.17,116.5,49,116.5z M70,118.5c-2.24,0-4.09,1.65-4.43,3.79c-0.05,0.23-0.07,0.46-0.07,0.71v7c0,0.28-0.22,0.5-0.5,0.5H44
					c-0.28,0-0.5-0.22-0.5-0.5v-7c0-0.24-0.02-0.48-0.07-0.71c-0.34-2.15-2.19-3.79-4.43-3.79c-2.49,0-4.5,2.01-4.5,4.5
					c0,1.56,0.79,2.93,2,3.74v6.76c0,2.21,1.79,4,4,4v4.46c0,0.3,0.24,0.54,0.54,0.54h2.07c0.23,0,0.44-0.15,0.51-0.37l1.54-4.63
					h18.67l1.54,4.63c0.07,0.22,0.28,0.37,0.51,0.37h2.07c0.3,0,0.54-0.24,0.54-0.54v-4.46c2.21,0,4-1.79,4-4v-6.76
					c1.21-0.81,2-2.18,2-3.74C74.5,120.51,72.49,118.5,70,118.5z"/>
			</g>
		</g>
	</g>
</g>
<g id="title" class="st0">
	<g class="st3">
		<path class="st2" d="M31.77,46.17c0-0.68,0.44-1.12,1.12-1.12h1.12c0.68,0,1.12,0.44,1.12,1.12v5.41h5.43v-5.41
			c0-0.68,0.44-1.12,1.12-1.12h1.12c0.68,0,1.12,0.44,1.12,1.12V60.2c0,0.68-0.44,1.12-1.12,1.12h-1.12c-0.68,0-1.12-0.44-1.12-1.12
			v-5.87h-5.43v5.87c0,0.68-0.44,1.12-1.12,1.12h-1.12c-0.68,0-1.12-0.44-1.12-1.12V46.17z"/>
		<path class="st2" d="M46.89,51.69c0-4.01,2.4-6.94,6.55-6.94c4.15,0,6.55,2.94,6.55,6.94v2.98c0,4.01-2.4,6.94-6.55,6.94
			c-4.15,0-6.55-2.94-6.55-6.94V51.69z M56.54,54.42v-2.47c0-2.35-0.63-4.4-3.1-4.4c-2.45,0-3.1,2.05-3.1,4.4v2.47
			c0,2.38,0.65,4.4,3.1,4.4C55.91,58.82,56.54,56.79,56.54,54.42z"/>
		<path class="st2" d="M63.97,46.24c0.09-0.77,0.58-1.19,1.26-1.19h1.4c0.68,0,1.19,0.4,1.4,1.09l3.24,10.97
			c0.02,0.09,0.09,0.26,0.19,0.26c0.09,0,0.16-0.16,0.19-0.26l3.22-10.95c0.21-0.72,0.72-1.12,1.4-1.12h1.4
			c0.68,0,1.17,0.44,1.26,1.17l1.65,13.93c0.09,0.75-0.3,1.17-0.98,1.17h-1.12c-0.68,0-1.14-0.44-1.21-1.12l-0.61-6.08
			c-0.09-0.84-0.14-1.96-0.19-3.08c-0.21,1.14-0.44,2.24-0.7,3.08l-1,3.38c-0.44,1.51-1.33,2.82-3.31,2.82
			c-1.96,0-2.89-1.3-3.31-2.82l-1-3.52c-0.26-0.84-0.49-1.93-0.7-3.05c-0.05,1.14-0.09,2.26-0.19,3.12l-0.63,6.13
			c-0.07,0.68-0.51,1.14-1.19,1.14h-1.14c-0.68,0-1.07-0.44-0.98-1.17L63.97,46.24z"/>
		<path class="st2" d="M83,49.52c0-2.7,1.72-4.47,5.15-4.47h3.38c0.68,0,1.12,0.44,1.12,1.12v0.56c0,0.68-0.44,1.12-1.12,1.12H88.2
			c-1.4,0-1.84,0.63-1.84,1.93v1.82h4.47c0.68,0,1.12,0.44,1.12,1.12v0.54c0,0.68-0.44,1.12-1.12,1.12h-4.47v2.24
			c0,1.33,0.44,1.91,1.84,1.91h3.43c0.68,0,1.12,0.44,1.12,1.12v0.56c0,0.68-0.44,1.12-1.12,1.12h-3.47c-3.4,0-5.15-1.77-5.15-4.45
			V49.52z"/>
		<path class="st2" d="M102.69,52.55c-1.21-0.77-1.91-1.96-1.91-3.47c0-2.82,2.42-4.99,5.85-4.99c1,0,1.86,0.14,2.28,0.23
			c0.65,0.14,1,0.7,0.86,1.35l-0.12,0.56c-0.14,0.65-0.7,0.96-1.38,0.84c-0.4-0.07-0.91-0.14-1.61-0.14c-1.58,0-2.4,0.82-2.4,2.14
			c0,1.44,0.82,2.35,2.4,2.35h4.85c0.68,0,1.12,0.37,1.12,1.05v0.37c0,0.68-0.44,1.05-1.12,1.05h-0.16v5.52
			c0,0.68-0.35,1.26-1.07,1.51c-0.72,0.26-2.26,0.68-3.94,0.68c-3.98,0-6.17-2.19-6.17-5.15C100.17,54.65,101.08,53.3,102.69,52.55z
			 M106.39,58.77c0.72,0,1.58-0.09,2.24-0.3V53.9h-2.21c-1.89,0-2.75,0.98-2.75,2.52C103.67,57.89,104.46,58.77,106.39,58.77z"/>
		<path class="st2" d="M119.97,46.17c0-0.68,0.44-1.12,1.12-1.12h1.12c0.68,0,1.12,0.44,1.12,1.12V60.2c0,0.68-0.44,1.12-1.12,1.12
			h-1.12c-0.68,0-1.12-0.44-1.12-1.12V46.17z"/>
		<path class="st2" d="M126.87,46.17c0-0.68,0.44-1.12,1.12-1.12h0.93c0.68,0,1.19,0.37,1.56,1.03l5.17,9.13
			c-0.14-1.17-0.21-2.33-0.21-3.22v-5.83c0-0.68,0.44-1.12,1.12-1.12h1.07c0.68,0,1.12,0.44,1.12,1.12V60.2
			c0,0.68-0.44,1.12-1.12,1.12h-0.93c-0.68,0-1.21-0.37-1.58-1.03l-5.15-9.09c0.12,1.17,0.21,2.31,0.21,3.17v5.82
			c0,0.68-0.44,1.12-1.12,1.12h-1.07c-0.68,0-1.12-0.44-1.12-1.12V46.17z"/>
		<path class="st2" d="M144.9,47.85h-2.66c-0.68,0-1.12-0.44-1.12-1.12v-0.56c0-0.68,0.44-1.12,1.12-1.12h8.67
			c0.68,0,1.12,0.44,1.12,1.12v0.56c0,0.68-0.44,1.12-1.12,1.12h-2.66V60.2c0,0.68-0.44,1.12-1.12,1.12h-1.12
			c-0.68,0-1.12-0.44-1.12-1.12V47.85z"/>
		<path class="st2" d="M153.73,49.52c0-2.7,1.72-4.47,5.15-4.47h3.38c0.68,0,1.12,0.44,1.12,1.12v0.56c0,0.68-0.44,1.12-1.12,1.12
			h-3.33c-1.4,0-1.84,0.63-1.84,1.93v1.82h4.47c0.68,0,1.12,0.44,1.12,1.12v0.54c0,0.68-0.44,1.12-1.12,1.12h-4.47v2.24
			c0,1.33,0.44,1.91,1.84,1.91h3.43c0.68,0,1.12,0.44,1.12,1.12v0.56c0,0.68-0.44,1.12-1.12,1.12h-3.47c-3.4,0-5.15-1.77-5.15-4.45
			V49.52z"/>
		<path class="st2" d="M166.34,46.84c0-0.68,0.47-1.26,1.14-1.44c0.72-0.21,2.45-0.65,4.12-0.65c3.66,0,5.62,2.59,5.62,5.41
			c0,1.49-0.79,3.75-3.05,4.75l2.38,5.1c0.33,0.68-0.09,1.3-0.77,1.3h-1.38c-0.68,0-1.09-0.37-1.37-1l-2.14-4.92h-1.19v4.8
			c0,0.68-0.44,1.12-1.12,1.12h-1.12c-0.68,0-1.12-0.44-1.12-1.12V46.84z M171.35,52.74c1.56,0,2.35-1,2.35-2.59
			c0-1.44-0.61-2.61-2.12-2.61c-0.63,0-1.26,0.07-1.89,0.28v4.92H171.35z"/>
		<path class="st2" d="M179.83,46.17c0-0.68,0.44-1.12,1.12-1.12h1.12c0.68,0,1.12,0.44,1.12,1.12V60.2c0,0.68-0.44,1.12-1.12,1.12
			h-1.12c-0.68,0-1.12-0.44-1.12-1.12V46.17z"/>
		<path class="st2" d="M186.16,51.69c0-4.01,2.4-6.94,6.55-6.94c4.15,0,6.55,2.94,6.55,6.94v2.98c0,4.01-2.4,6.94-6.55,6.94
			c-4.15,0-6.55-2.94-6.55-6.94V51.69z M195.81,54.42v-2.47c0-2.35-0.63-4.4-3.1-4.4c-2.45,0-3.1,2.05-3.1,4.4v2.47
			c0,2.38,0.65,4.4,3.1,4.4C195.18,58.82,195.81,56.79,195.81,54.42z"/>
		<path class="st2" d="M202.24,46.84c0-0.68,0.47-1.26,1.14-1.44c0.72-0.21,2.45-0.65,4.12-0.65c3.66,0,5.62,2.59,5.62,5.41
			c0,1.49-0.79,3.75-3.05,4.75l2.38,5.1c0.33,0.68-0.09,1.3-0.77,1.3h-1.38c-0.68,0-1.09-0.37-1.37-1l-2.14-4.92h-1.19v4.8
			c0,0.68-0.44,1.12-1.12,1.12h-1.12c-0.68,0-1.12-0.44-1.12-1.12V46.84z M207.25,52.74c1.56,0,2.35-1,2.35-2.59
			c0-1.44-0.61-2.61-2.12-2.61c-0.63,0-1.26,0.07-1.89,0.28v4.92H207.25z"/>
		<path class="st4" d="M221.06,45.71c0-0.7,0.46-1.15,1.15-1.15h1.15c0.7,0,1.15,0.46,1.15,1.15v14.45c0,0.7-0.46,1.15-1.15,1.15
			h-1.15c-0.7,0-1.15-0.46-1.15-1.15V45.71z"/>
		<path class="st4" d="M227.61,50.44c0-3.98,2.42-6.19,6.24-6.19c1.78,0,3,0.24,3.98,0.48c0.53,0.14,0.77,0.58,0.65,1.13l-0.22,0.98
			c-0.12,0.53-0.62,0.77-1.15,0.62c-0.65-0.14-1.54-0.34-2.78-0.34c-1.97,0-3.17,0.84-3.17,3.58v4.46c0,2.74,1.2,3.58,3.17,3.58
			c1.54,0,2.47-0.26,2.9-0.36c0.58-0.14,0.91,0.12,1.03,0.65l0.22,0.98c0.1,0.48-0.12,0.98-0.65,1.13
			c-0.55,0.14-1.99,0.48-3.98,0.48c-3.82,0-6.24-2.18-6.24-6.19V50.44z"/>
		<path class="st4" d="M241.05,51.4c0-4.13,2.47-7.15,6.74-7.15c4.27,0,6.74,3.02,6.74,7.15v3.07c0,4.13-2.47,7.15-6.74,7.15
			c-4.27,0-6.74-3.02-6.74-7.15V51.4z M250.99,54.21v-2.54c0-2.42-0.65-4.54-3.19-4.54c-2.52,0-3.19,2.11-3.19,4.54v2.54
			c0,2.45,0.67,4.54,3.19,4.54C250.34,58.75,250.99,56.66,250.99,54.21z"/>
		<path class="st4" d="M257.61,45.71c0-0.7,0.46-1.15,1.15-1.15h0.96c0.7,0,1.22,0.38,1.61,1.06l5.33,9.41
			c-0.14-1.2-0.22-2.4-0.22-3.31v-6c0-0.7,0.46-1.15,1.15-1.15h1.1c0.7,0,1.15,0.46,1.15,1.15v14.45c0,0.7-0.46,1.15-1.15,1.15
			h-0.96c-0.7,0-1.25-0.38-1.63-1.06l-5.3-9.36c0.12,1.2,0.22,2.38,0.22,3.26v6c0,0.7-0.46,1.15-1.15,1.15h-1.1
			c-0.7,0-1.15-0.46-1.15-1.15V45.71z"/>
		<path class="st4" d="M272.73,59.56l0.14-0.62c0.17-0.74,0.7-0.94,1.34-0.74c0.46,0.12,1.73,0.55,3.24,0.55
			c1.63,0,2.3-0.86,2.3-2.02c0-3.26-6.94-2.04-6.94-7.78c0-2.98,2.5-4.7,5.78-4.7c1.54,0,2.59,0.34,3.19,0.53
			c0.65,0.22,1.01,0.74,0.77,1.46l-0.17,0.53c-0.22,0.65-0.77,0.94-1.46,0.72c-0.55-0.17-1.3-0.36-2.33-0.36
			c-1.44,0-2.16,0.72-2.16,1.82c0,2.81,6.94,2.09,6.94,7.78c0,2.95-2.4,4.9-5.93,4.9c-1.66,0-2.95-0.36-3.89-0.65
			C272.88,60.76,272.56,60.33,272.73,59.56z"/>
	</g>
</g>
</svg>
