<?xml version="1.0" encoding="utf-8"?>
<!-- Generator: Adobe Illustrator 24.1.1, SVG Export Plug-In . SVG Version: 6.00 Build 0)  -->
<svg version="1.1" xmlns="http://www.w3.org/2000/svg" x="0px" y="0px"
     viewBox="0 0 448 448" style="enable-background:new 0 0 448 448;" xml:space="preserve">
<style type="text/css">
	.st0{display:none;}
	.st1{display:inline;fill:#FFFFFF;}
	.st2{fill:#173042;}
	.st3{display:inline;}
	.st4{fill:#869093;}
</style>
<g id="grid" class="st0">
	<rect x="30" y="98" class="st1" width="48" height="48"/>
	<rect x="98" y="98" class="st1" width="48" height="48"/>
	<rect x="166" y="98" class="st1" width="48" height="48"/>
	<rect x="234" y="98" class="st1" width="48" height="48"/>
	<rect x="302" y="98" class="st1" width="48" height="48"/>
	<rect x="370" y="98" class="st1" width="48" height="48"/>
	<rect x="30" y="166" class="st1" width="48" height="48"/>
	<rect x="98" y="166" class="st1" width="48" height="48"/>
	<rect x="166" y="166" class="st1" width="48" height="48"/>
	<rect x="234" y="166" class="st1" width="48" height="48"/>
	<rect x="302" y="166" class="st1" width="48" height="48"/>
	<rect x="370" y="166" class="st1" width="48" height="48"/>
	<rect x="30" y="234" class="st1" width="48" height="48"/>
	<rect x="98" y="234" class="st1" width="48" height="48"/>
	<rect x="370" y="234" class="st1" width="48" height="48"/>
	<rect x="30" y="302" class="st1" width="48" height="48"/>
	<rect x="98" y="302" class="st1" width="48" height="48"/>
	<rect x="166" y="234" class="st1" width="48" height="48"/>
	<rect x="234" y="234" class="st1" width="48" height="48"/>
	<rect x="302" y="234" class="st1" width="48" height="48"/>
	<rect x="166" y="302" class="st1" width="48" height="48"/>
	<rect x="234" y="302" class="st1" width="48" height="48"/>
	<rect x="302" y="302" class="st1" width="48" height="48"/>
	<rect x="370" y="302" class="st1" width="48" height="48"/>
	<rect x="30" y="370" class="st1" width="48" height="48"/>
	<rect x="98" y="370" class="st1" width="48" height="48"/>
	<rect x="166" y="370" class="st1" width="48" height="48"/>
	<rect x="234" y="370" class="st1" width="48" height="48"/>
	<rect x="302" y="370" class="st1" width="48" height="48"/>
	<rect x="370" y="370" class="st1" width="48" height="48"/>
</g>
<g id="icons">
	<g>
		<g>
			<path class="st2" d="M388.5,391h-4c-0.55,0-1,0.45-1,1v5c0,0.55,0.45,1,1,1h4c0.55,0,1-0.45,1-1v-5
				C389.5,391.45,389.05,391,388.5,391z"/>
			<path class="st2" d="M408.5,378h-28c-2.21,0-4,1.79-4,4v25c0,2.21,1.79,4,4,4h28c2.21,0,4-1.79,4-4v-25
				C412.5,379.79,410.71,378,408.5,378z M388.5,381.5h4c0.83,0,1.5,0.67,1.5,1.5s-0.67,1.5-1.5,1.5h-4c-0.83,0-1.5-0.67-1.5-1.5
				S387.67,381.5,388.5,381.5z M382.5,381c1.1,0,2,0.9,2,2s-0.9,2-2,2c-1.1,0-2-0.9-2-2S381.4,381,382.5,381z M408.5,406
				c0,0.55-0.45,1-1,1h-26c-0.55,0-1-0.45-1-1v-17c0-0.55,0.45-1,1-1h26c0.55,0,1,0.45,1,1V406z M404,391.25h-10
				c-0.69,0-1.25,0.56-1.25,1.25s0.56,1.25,1.25,1.25h10c0.69,0,1.25-0.56,1.25-1.25S404.69,391.25,404,391.25z M404,396.25h-10
				c-0.69,0-1.25,0.56-1.25,1.25s0.56,1.25,1.25,1.25h10c0.69,0,1.25-0.56,1.25-1.25S404.69,396.25,404,396.25z M404,401.25h-19
				c-0.69,0-1.25,0.56-1.25,1.25s0.56,1.25,1.25,1.25h19c0.69,0,1.25-0.56,1.25-1.25S404.69,401.25,404,401.25z"/>
		</g>
	</g>
	<g>
		<g>
			<g>
				<path class="st2" d="M343,382.75h-11c-2.21,0-4,1.79-4,4v22c0,2.21,1.79,4,4,4h11c2.21,0,4-1.79,4-4v-22
					C347,384.54,345.21,382.75,343,382.75z M338.25,410.25h-1.5c-0.83,0-1.5-0.67-1.5-1.5l0,0c0-0.83,0.67-1.5,1.5-1.5h1.5
					c0.83,0,1.5,0.67,1.5,1.5l0,0C339.75,409.58,339.08,410.25,338.25,410.25z M343.82,404.14c0,0.55-0.45,1-1,1h-10.63
					c-0.55,0-1-0.45-1-1v-16.16c0-0.55,0.45-1,1-1h10.63c0.55,0,1,0.45,1,1V404.14z M325.5,399.25H310v-19h26v0h4v-2
					c0-1.1-0.9-2-2-2h-30c-1.1,0-2,0.9-2,2v23c0,1.1,0.9,2,2,2h11.83l-0.67,4h-3.67c-0.83,0-1.5,0.67-1.5,1.5
					c0,0.83,0.67,1.5,1.5,1.5h10.18c-0.11-0.48-0.18-0.98-0.18-1.5V399.25z"/>
				<path class="st2" d="M325,395.25h-11c-0.55,0-1,0.45-1,1c0,0.55,0.45,1,1,1h11c0.55,0,1-0.45,1-1
					C326,395.7,325.55,395.25,325,395.25z M341,401.25h-7c-0.55,0-1,0.45-1,1c0,0.55,0.45,1,1,1h7c0.55,0,1-0.45,1-1
					C342,401.7,341.55,401.25,341,401.25z"/>
			</g>
		</g>
	</g>
	<g>
		<g>
			<g>
				<path class="st2" d="M258.53,395.98c-0.4,0-0.8,0.15-1.1,0.46c-0.61,0.61-0.61,1.6,0,2.2c0.3,0.3,0.7,0.46,1.1,0.46
					c0.4,0,0.8-0.15,1.1-0.46c0.61-0.61,0.61-1.6,0-2.2C259.32,396.13,258.93,395.98,258.53,395.98z M258.5,387.14
					c-5.62,0-10.18,4.56-10.18,10.18c0,5.62,4.56,10.18,10.18,10.18c5.62,0,10.18-4.56,10.18-10.18
					C268.68,391.7,264.12,387.14,258.5,387.14z M263.85,394.76l-1.94,1.75c0,0,0,0,0,0c0.1,0.33,0.17,0.68,0.17,1.04
					c0,0.95-0.37,1.84-1.04,2.52c-0.67,0.67-1.57,1.04-2.52,1.04c-0.95,0-1.84-0.37-2.52-1.04c-0.67-0.67-1.04-1.57-1.04-2.52
					c0-0.95,0.37-1.84,1.04-2.52c0.67-0.67,1.57-1.04,2.52-1.04c0.49,0,0.96,0.1,1.39,0.28l1.93-1.74c0.62-0.56,1.56-0.51,2.12,0.11
					C264.52,393.25,264.47,394.2,263.85,394.76z"/>
			</g>
			<path class="st2" d="M261.35,381.41v-0.95h2.1c0.28,0,0.5-0.22,0.5-0.5v-3.45c0-0.55-0.45-1-1-1h-8.89c-0.55,0-1,0.45-1,1v3.45
				c0,0.28,0.22,0.5,0.5,0.5h2.1v0.95c-2.86,0.51-5.47,1.77-7.6,3.58l-1.25-1.25c-0.39-0.39-1.02-0.39-1.41,0l-2.45,2.45
				c-0.39,0.39-0.39,1.02,0,1.41l1.59,1.59c-1.4,2.39-2.21,5.16-2.21,8.12c0,8.92,7.26,16.18,16.18,16.18
				c8.92,0,16.18-7.26,16.18-16.18C274.68,389.37,268.91,382.76,261.35,381.41z M258.5,410c-6.99,0-12.68-5.69-12.68-12.68
				c0-6.99,5.69-12.68,12.68-12.68c6.99,0,12.68,5.69,12.68,12.68C271.18,404.31,265.49,410,258.5,410z"/>
		</g>
	</g>
	<g>
		<g>
			<path class="st2" d="M195.31,407.12h-9.61c-0.9,0-1.63,0.73-1.63,1.63v0.23c0,0.9,0.73,1.63,1.63,1.63h1.59V411
				c0,1.66,1.34,3,3,3h0.43c1.66,0,3-1.34,3-3v-0.39h1.59c0.9,0,1.63-0.73,1.63-1.63v-0.23
				C196.93,407.85,196.2,407.12,195.31,407.12z"/>
			<path class="st2" d="M189.01,375.08c-5.41,0.61-10.61,5.79-11.25,11.19c-0.48,4.08,0.96,7.83,3.52,10.47
				c1.49,1.53,2.31,3.59,2.31,5.72v0c0,1.09,0.88,1.97,1.97,1.97h9.87c1.09,0,1.97-0.88,1.97-1.97c0-2.11,0.78-4.17,2.26-5.67
				c2.26-2.31,3.66-5.47,3.66-8.96C203.33,380.25,196.76,374.21,189.01,375.08z M189.25,399.5c0,0.69-0.56,1.25-1.25,1.25
				s-1.25-0.56-1.25-1.25v-5.41c0-1.7-1.38-3.08-3.08-3.08c-0.69,0-1.25-0.56-1.25-1.25c0-0.69,0.56-1.25,1.25-1.25
				c3.08,0,5.58,2.5,5.58,5.58V399.5z M197.33,391.01c-1.7,0-3.08,1.38-3.08,3.08v5.41c0,0.69-0.56,1.25-1.25,1.25
				s-1.25-0.56-1.25-1.25v-5.41c0-3.08,2.5-5.58,5.58-5.58c0.69,0,1.25,0.56,1.25,1.25C198.58,390.45,198.02,391.01,197.33,391.01z"
				/>
		</g>
	</g>
	<g>
		<g>
			<g>
				<path class="st2" d="M109.84,399.91v-18.92c0-0.55,0.45-1,1-1h19.79c0.01,0,0.02,0.01,0.03,0.01h7.02
					c-0.25-1.97-1.91-3.49-3.95-3.49H106c-2.21,0-4,1.79-4,4v19.89c0,2.21,1.79,4,4,4h15.5v-3.49h-10.66
					C110.29,400.91,109.84,400.46,109.84,399.91z M104.18,391.32v-1.74c0-0.96,0.78-1.74,1.74-1.74l0,0c0.96,0,1.74,0.78,1.74,1.74
					v1.74c0,0.96-0.78,1.74-1.74,1.74l0,0C104.96,393.06,104.18,392.28,104.18,391.32z M139,382.5h-11c-2.21,0-4,1.79-4,4v22
					c0,2.21,1.79,4,4,4h11c2.21,0,4-1.79,4-4v-22C143,384.29,141.21,382.5,139,382.5z M134.25,409.99h-1.5c-0.83,0-1.5-0.67-1.5-1.5
					l0,0c0-0.83,0.67-1.5,1.5-1.5h1.5c0.83,0,1.5,0.67,1.5,1.5l0,0C135.75,409.32,135.08,409.99,134.25,409.99z M139.82,403.89
					c0,0.55-0.45,1-1,1h-10.63c-0.55,0-1-0.45-1-1v-16.16c0-0.55,0.45-1,1-1h10.63c0.55,0,1,0.45,1,1V403.89z"/>
				<path class="st2" d="M120.73,396.99h-8c-0.55,0-1,0.45-1,1c0,0.55,0.45,1,1,1h8c0.55,0,1-0.45,1-1
					C121.73,397.44,121.29,396.99,120.73,396.99z M137,400.99h-7c-0.55,0-1,0.45-1,1c0,0.55,0.45,1,1,1h7c0.55,0,1-0.45,1-1
					C138,401.44,137.56,400.99,137,400.99z"/>
			</g>
		</g>
	</g>
	<g>
		<g>
			<g>
				<path class="st2" d="M54.47,382.01c-3.97,0-7.2,3.24-7.2,7.24c0,4,3.22,7.24,7.2,7.24s7.2-3.24,7.2-7.24
					C61.66,385.25,58.44,382.01,54.47,382.01z M53.47,393.13l-3.78-3.78l1.96-1.96l1.79,1.79l3.81-3.81l1.99,1.99L53.47,393.13z"/>
				<path class="st2" d="M73.5,376.25h-38c-1.1,0-2,0.9-2,2v25c0,1.1,0.9,2,2,2h14.92l-0.75,4.5H46c-0.83,0-1.5,0.67-1.5,1.5
					s0.67,1.5,1.5,1.5h17c0.83,0,1.5-0.67,1.5-1.5s-0.67-1.5-1.5-1.5h-3.67l-0.75-4.5H73.5c1.1,0,2-0.9,2-2v-25
					C75.5,377.15,74.6,376.25,73.5,376.25z M54.5,403.75c-0.83,0-1.5-0.67-1.5-1.5s0.67-1.5,1.5-1.5s1.5,0.67,1.5,1.5
					S55.33,403.75,54.5,403.75z M71.5,398.25h-34v-18h34V398.25z"/>
			</g>
		</g>
	</g>
	<g>
		<g>
			<g>
				<g>
					<path class="st2" d="M386,330v-17c0-0.55,0.45-1,1-1h12c0.55,0,1,0.45,1,1v12.5c0.25,0,0.5,0.02,0.74,0.06
						c0.83,0.14,1.61,0.51,2.26,1.04c0,0,0,0,0.01,0V311c0-2.21-1.79-4-4-4h-12c-2.21,0-4,1.79-4,4v21.09
						c0.83-0.84,1.94-1.41,3.19-1.54C386.08,330.39,386,330.21,386,330z M404.34,329.03c-0.74-0.12-1.58,0.17-2.17,0.67
						c-0.2-0.83-0.99-1.53-1.83-1.67c-0.7-0.11-1.5,0.14-2.07,0.6c-0.26-0.8-1.11-1.46-1.93-1.6c-0.79-0.13-1.87,0.29-2.34,0.88
						l0-6.32c0-0.87-0.51-1.72-1.35-1.98c-1.38-0.44-2.65,0.58-2.65,1.9v16c-1.1,0-2-0.9-2-2v-1.81c0-0.38-0.31-0.69-0.69-0.69h-0.6
						c-1.49,0-2.7,1.21-2.7,2.7v4.94c0,0.86,0.37,1.69,1.02,2.26l2.69,2.36c0.55,0.48,1.25,0.74,1.98,0.74h11.07
						c0.8,0,1.56-0.32,2.12-0.88l2.24-2.24c0.56-0.56,0.88-1.33,0.88-2.12v-9.65C406,330.11,405.32,329.19,404.34,329.03z"/>
				</g>
				<path class="st2" d="M390.41,313.99h-2.01c-0.28,0-0.5,0.22-0.5,0.5v2.01c0,0.28,0.22,0.5,0.5,0.5h2.01c0.28,0,0.5-0.22,0.5-0.5
					v-2.01C390.91,314.21,390.68,313.99,390.41,313.99z M395.41,313.99h-2.01c-0.28,0-0.5,0.22-0.5,0.5v2.01
					c0,0.28,0.22,0.5,0.5,0.5h2.01c0.28,0,0.5-0.22,0.5-0.5v-2.01C395.91,314.21,395.68,313.99,395.41,313.99z"/>
			</g>
		</g>
	</g>
	<g>
		<g>
			<path class="st2" d="M345.5,308.25h-38c-1.1,0-2,0.9-2,2v25c0,1.1,0.9,2,2,2h14.92l-0.75,4.5H318c-0.83,0-1.5,0.67-1.5,1.5
				s0.67,1.5,1.5,1.5h17c0.83,0,1.5-0.67,1.5-1.5s-0.67-1.5-1.5-1.5h-3.67l-0.75-4.5h14.92c1.1,0,2-0.9,2-2v-25
				C347.5,309.15,346.6,308.25,345.5,308.25z M326.5,335.75c-0.83,0-1.5-0.67-1.5-1.5s0.67-1.5,1.5-1.5s1.5,0.67,1.5,1.5
				S327.33,335.75,326.5,335.75z M343.5,330.25h-34v-18h34V330.25z"/>
			<path class="st2" d="M332.08,314.37l-9.04,2.94c-0.82,0.27-0.94,1.37-0.2,1.81l2.21,1.31l-5.14,5.14c-0.39,0.39-0.39,1.02,0,1.41
				l0.76,0.77c0.39,0.39,1.02,0.39,1.41,0l5.19-5.19l1.28,2.22c0.43,0.75,1.54,0.64,1.82-0.18l2.97-8.97
				C333.59,314.85,332.86,314.11,332.08,314.37z"/>
		</g>
	</g>
	<g>
		<g>
			<path class="st2" d="M273,337.11c-0.83,0-1.5,0.67-1.5,1.5v2c0,0.2-0.32,0.5-0.82,0.5h-24.36c-0.5,0-0.82-0.3-0.82-0.5v-2
				c0-0.83-0.67-1.5-1.5-1.5s-1.5,0.67-1.5,1.5v2c0,1.93,1.71,3.5,3.82,3.5h24.36c2.11,0,3.82-1.57,3.82-3.5v-2
				C274.5,337.78,273.83,337.11,273,337.11z M245.67,326.25c0-1.65,1.35-3,3-3h19.66c1.65,0,3,1.35,3,3v6.68
				c3.77-2.26,6.3-6.37,6.3-11.09c0-7.15-5.79-12.94-12.94-12.94c-6.19,0-11.36,4.35-12.63,10.16c-1.25-0.73-2.7-1.16-4.25-1.16
				c-4.66,0-8.44,3.78-8.44,8.44c0,3.92,2.68,7.21,6.3,8.16V326.25z"/>
			<path class="st2" d="M268.33,325.75h-19.66c-0.28,0-0.5,0.22-0.5,0.5v12c0,0.28,0.22,0.5,0.5,0.5h19.66c0.28,0,0.5-0.22,0.5-0.5
				v-12C268.83,325.97,268.61,325.75,268.33,325.75z M254.32,335.69c-0.24,0.21-0.53,0.31-0.82,0.31c-0.35,0-0.7-0.15-0.94-0.43
				l-2-2.3c-0.39-0.44-0.41-1.09-0.06-1.56l2-2.7c0.41-0.56,1.19-0.67,1.75-0.26c0.56,0.41,0.67,1.19,0.26,1.75l-1.4,1.9l1.34,1.54
				C254.9,334.45,254.84,335.24,254.32,335.69z M260.71,329.08l-1.93,7c-0.15,0.55-0.66,0.92-1.2,0.92c-0.11,0-0.22-0.01-0.33-0.04
				c-0.67-0.18-1.06-0.87-0.87-1.54l1.93-7c0.18-0.67,0.87-1.05,1.54-0.87C260.5,327.73,260.89,328.42,260.71,329.08z M266.5,332.79
				l-2,2.7c-0.25,0.33-0.62,0.51-1.01,0.51c-0.26,0-0.52-0.08-0.74-0.25c-0.56-0.41-0.67-1.19-0.26-1.75l1.4-1.9l-1.34-1.54
				c-0.45-0.52-0.4-1.31,0.12-1.76c0.52-0.45,1.31-0.4,1.76,0.12l2,2.3C266.83,331.67,266.85,332.32,266.5,332.79z"/>
		</g>
	</g>
	<g>
		<g>
			<path class="st2" d="M207,318.75h-33c-2.21,0-4,1.79-4,4v13c0,2.21,1.79,4,4,4h33c2.21,0,4-1.79,4-4v-13
				C211,320.54,209.21,318.75,207,318.75z M189.5,322.75h2c0.83,0,1.5,0.67,1.5,1.5s-0.67,1.5-1.5,1.5h-2c-0.83,0-1.5-0.67-1.5-1.5
				S188.67,322.75,189.5,322.75z M189.5,327.75h2c0.83,0,1.5,0.67,1.5,1.5s-0.67,1.5-1.5,1.5h-2c-0.83,0-1.5-0.67-1.5-1.5
				S188.67,327.75,189.5,327.75z M182.5,322.75h2c0.83,0,1.5,0.67,1.5,1.5s-0.67,1.5-1.5,1.5h-2c-0.83,0-1.5-0.67-1.5-1.5
				S181.67,322.75,182.5,322.75z M182.5,327.75h2c0.83,0,1.5,0.67,1.5,1.5s-0.67,1.5-1.5,1.5h-2c-0.83,0-1.5-0.67-1.5-1.5
				S181.67,327.75,182.5,327.75z M177.5,335.75h-2c-0.83,0-1.5-0.67-1.5-1.5s0.67-1.5,1.5-1.5h2c0.83,0,1.5,0.67,1.5,1.5
				S178.33,335.75,177.5,335.75z M177.5,330.75h-2c-0.83,0-1.5-0.67-1.5-1.5s0.67-1.5,1.5-1.5h2c0.83,0,1.5,0.67,1.5,1.5
				S178.33,330.75,177.5,330.75z M177.5,325.75h-2c-0.83,0-1.5-0.67-1.5-1.5s0.67-1.5,1.5-1.5h2c0.83,0,1.5,0.67,1.5,1.5
				S178.33,325.75,177.5,325.75z M198.5,335.75h-16c-0.83,0-1.5-0.67-1.5-1.5s0.67-1.5,1.5-1.5h16c0.83,0,1.5,0.67,1.5,1.5
				S199.33,335.75,198.5,335.75z M198.5,330.75h-2c-0.83,0-1.5-0.67-1.5-1.5s0.67-1.5,1.5-1.5h2c0.83,0,1.5,0.67,1.5,1.5
				S199.33,330.75,198.5,330.75z M198.5,325.75h-2c-0.83,0-1.5-0.67-1.5-1.5s0.67-1.5,1.5-1.5h2c0.83,0,1.5,0.67,1.5,1.5
				S199.33,325.75,198.5,325.75z M205.5,335.75h-2c-0.83,0-1.5-0.67-1.5-1.5s0.67-1.5,1.5-1.5h2c0.83,0,1.5,0.67,1.5,1.5
				S206.33,335.75,205.5,335.75z M205.5,330.75h-2c-0.83,0-1.5-0.67-1.5-1.5s0.67-1.5,1.5-1.5h2c0.83,0,1.5,0.67,1.5,1.5
				S206.33,330.75,205.5,330.75z M205.5,325.75h-2c-0.83,0-1.5-0.67-1.5-1.5s0.67-1.5,1.5-1.5h2c0.83,0,1.5,0.67,1.5,1.5
				S206.33,325.75,205.5,325.75z"/>
			<path class="st2" d="M204.5,313.25h-28c-0.83,0-1.5,0.67-1.5,1.5s0.67,1.5,1.5,1.5h28c0.83,0,1.5-0.67,1.5-1.5
				S205.33,313.25,204.5,313.25z"/>
		</g>
	</g>
	<g>
		<g>
			<path class="st2" d="M131.91,326.4c-0.39,0.76-0.9,1.47-1.54,2.11c-1.61,1.61-3.74,2.49-6.01,2.49s-4.41-0.88-6.01-2.49
				c-3.31-3.31-3.31-8.71,0-12.02c0.35-0.35,0.72-0.65,1.11-0.93V311c-1.43,0.61-2.77,1.49-3.94,2.65
				c-4.28,4.28-4.81,10.88-1.59,15.73l-2.3,2.3l-0.35-0.35c-0.2-0.2-0.51-0.2-0.71,0l-8.13,8.13c-0.39,0.39-0.39,1.02,0,1.41
				l2.83,2.83c0.39,0.39,1.02,0.39,1.41,0l8.13-8.13c0.2-0.2,0.2-0.51,0-0.71l-0.35-0.35l2.19-2.19c2.26,1.77,4.98,2.67,7.71,2.67
				c3.2,0,6.4-1.22,8.84-3.66c1.43-1.43,2.44-3.13,3.03-4.94H131.91z"/>
			<path class="st2" d="M140.86,309h-17c-1.1,0-2,0.9-2,2v14c0,0.82,0.94,1.29,1.6,0.8l1.87-1.4c0.35-0.26,0.77-0.4,1.2-0.4h14.33
				c1.1,0,2-0.9,2-2v-11C142.86,309.89,141.96,309,140.86,309z M128.18,319.94c-0.24,0.21-0.53,0.31-0.82,0.31
				c-0.35,0-0.7-0.15-0.94-0.43l-2-2.3c-0.39-0.44-0.41-1.09-0.06-1.56l2-2.7c0.41-0.56,1.19-0.67,1.75-0.26
				c0.56,0.41,0.67,1.19,0.26,1.75l-1.4,1.9l1.34,1.54C128.75,318.7,128.7,319.49,128.18,319.94z M134.56,313.33l-1.93,7
				c-0.15,0.55-0.66,0.92-1.2,0.92c-0.11,0-0.22-0.01-0.33-0.04c-0.67-0.18-1.06-0.87-0.87-1.54l1.93-7
				c0.18-0.67,0.87-1.05,1.54-0.87C134.35,311.98,134.75,312.66,134.56,313.33z M140.36,317.04l-2,2.7
				c-0.25,0.33-0.62,0.51-1.01,0.51c-0.26,0-0.52-0.08-0.74-0.25c-0.56-0.41-0.67-1.19-0.26-1.75l1.4-1.9l-1.34-1.54
				c-0.45-0.52-0.4-1.31,0.12-1.76c0.52-0.45,1.31-0.4,1.76,0.12l2,2.3C140.68,315.91,140.71,316.56,140.36,317.04z"/>
		</g>
	</g>
	<g>
		<g>
			<g>
				<path class="st2" d="M43.29,338.67v-5.11c-0.33,0.04-0.67,0.08-1.02,0.08c-0.69,0-1.35-0.1-1.98-0.27v5.3
					c0,1.93,1.57,3.5,3.5,3.5h3.83v-3h-3.83C43.51,339.17,43.29,338.95,43.29,338.67z M58.12,336h-6c-1.1,0-2,0.9-2,2v5
					c0,1.1,0.9,2,2,2h6c1.1,0,2-0.9,2-2v-5C60.12,336.9,59.22,336,58.12,336z"/>
				<path class="st2" d="M52.12,317h6c1.1,0,2-0.9,2-2v-5c0-1.1-0.9-2-2-2h-6c-1.1,0-2,0.9-2,2v5C50.12,316.1,51.02,317,52.12,317z
					 M53.29,320.5v1c0,0.83,0.67,1.5,1.5,1.5c0.83,0,1.5-0.67,1.5-1.5v-1c0-0.83-0.67-1.5-1.5-1.5
					C53.96,319,53.29,319.67,53.29,320.5z M71.59,325.29l-4.51-4.51c-0.2-0.2-0.45-0.29-0.71-0.29s-0.51,0.1-0.71,0.29l-3.72,3.72
					H47.16c-0.65-2.11-2.58-3.65-4.9-3.65c-2.84,0-5.15,2.3-5.15,5.15c0,2.84,2.3,5.15,5.15,5.15c2.32,0,4.25-1.54,4.9-3.65h14.78
					l3.72,3.72c0.2,0.2,0.45,0.29,0.71,0.29s0.51-0.1,0.71-0.29l4.51-4.51C71.98,326.31,71.98,325.68,71.59,325.29z M54.62,330
					c-0.83,0-1.5,0.67-1.5,1.5v1c0,0.83,0.67,1.5,1.5,1.5c0.83,0,1.5-0.67,1.5-1.5v-1C56.12,330.67,55.45,330,54.62,330z"/>
			</g>
		</g>
	</g>
	<g>
		<g>
			<path class="st2" d="M408.5,241.75h-28c-2.21,0-4,1.79-4,4v5.46c0,0.28,0.22,0.5,0.5,0.5h35c0.28,0,0.5-0.22,0.5-0.5v-5.46
				C412.5,243.54,410.71,241.75,408.5,241.75z M382.5,248.75c-1.1,0-2-0.9-2-2c0-1.1,0.9-2,2-2c1.1,0,2,0.9,2,2
				C384.5,247.85,383.6,248.75,382.5,248.75z M389,248.75c-1.1,0-2-0.9-2-2c0-1.1,0.9-2,2-2c1.1,0,2,0.9,2,2
				C391,247.85,390.1,248.75,389,248.75z"/>
			<path class="st2" d="M412,254.21h-35c-0.28,0-0.5,0.22-0.5,0.5v16.54c0,2.21,1.79,4,4,4h28c2.21,0,4-1.79,4-4v-16.54
				C412.5,254.44,412.28,254.21,412,254.21z M389.55,268.76c0,0.55-0.45,1-1,1c-0.55,0-1-0.45-1-1v-1.84h-3.83c-0.55,0-1-0.45-1-1
				v-5.19c0-0.55,0.45-1,1-1c0.55,0,1,0.45,1,1v4.19h2.83v-4.19c0-0.55,0.45-1,1-1c0.55,0,1,0.45,1,1V268.76z M397.84,266.74
				c0,1.65-1.35,3-3,3h-0.51c-1.65,0-3-1.35-3-3v-4.03c0-1.65,1.35-3,3-3h0.51c1.65,0,3,1.35,3,3V266.74z M406.26,268.76
				c0,0.55-0.45,1-1,1c-0.55,0-1-0.45-1-1v-1.84h-3.83c-0.55,0-1-0.45-1-1v-5.19c0-0.55,0.45-1,1-1c0.55,0,1,0.45,1,1v4.19h2.83
				v-4.19c0-0.55,0.45-1,1-1c0.55,0,1,0.45,1,1V268.76z M394.84,261.71h-0.51c-0.55,0-1,0.45-1,1v4.03c0,0.55,0.45,1,1,1h0.51
				c0.55,0,1-0.45,1-1v-4.03C395.84,262.15,395.39,261.71,394.84,261.71z"/>
		</g>
	</g>
	<g>
		<g>
			<g>
				<g>
					<path class="st2" d="M324.52,269h-13.05c-3.02,0-5.48,2.45-5.48,5.48v3.02c0,0.28,0.22,0.5,0.5,0.5h23c0.28,0,0.5-0.22,0.5-0.5
						v-3.02C330,271.45,327.55,269,324.52,269z M317.91,266.29c3.71,0,6.72-3.01,6.72-6.72c0-3.71-3.01-6.72-6.72-6.72
						c-3.71,0-6.72,3.01-6.72,6.72C311.19,263.28,314.2,266.29,317.91,266.29z"/>
					<path class="st2" d="M345,239h-17c-1.1,0-2,0.9-2,2v14c0,0.59,0.49,1,1,1c0.2,0,0.41-0.06,0.6-0.2l1.87-1.4
						c0.35-0.26,0.77-0.4,1.2-0.4H345c1.1,0,2-0.9,2-2v-11C347,239.9,346.1,239,345,239z M332.32,249.94
						c-0.24,0.21-0.53,0.31-0.82,0.31c-0.35,0-0.7-0.15-0.94-0.43l-2-2.3c-0.39-0.44-0.41-1.09-0.06-1.56l2-2.7
						c0.41-0.56,1.19-0.67,1.75-0.26c0.56,0.41,0.67,1.19,0.26,1.75l-1.4,1.9l1.34,1.54C332.9,248.7,332.84,249.49,332.32,249.94z
						 M338.71,243.33l-1.93,7c-0.15,0.55-0.66,0.92-1.2,0.92c-0.11,0-0.22-0.01-0.33-0.04c-0.67-0.18-1.06-0.87-0.87-1.54l1.93-7
						c0.18-0.67,0.87-1.05,1.54-0.87C338.5,241.98,338.89,242.67,338.71,243.33z M344.5,247.04l-2,2.7
						c-0.25,0.33-0.62,0.51-1.01,0.51c-0.26,0-0.52-0.08-0.74-0.25c-0.56-0.41-0.67-1.19-0.26-1.75l1.4-1.9l-1.34-1.54
						c-0.45-0.52-0.4-1.31,0.12-1.76c0.52-0.45,1.31-0.4,1.76,0.12l2,2.3C344.83,245.92,344.85,246.57,344.5,247.04z"/>
				</g>
			</g>
		</g>
	</g>
	<g>
		<g>
			<g>
				<path class="st2" d="M275,246.5h-11c-2.21,0-4,1.79-4,4v22c0,2.21,1.79,4,4,4h11c2.21,0,4-1.79,4-4v-22
					C279,248.29,277.21,246.5,275,246.5z M270.07,273.98h-1.5c-0.83,0-1.5-0.67-1.5-1.5l0,0c0-0.83,0.67-1.5,1.5-1.5h1.5
					c0.83,0,1.5,0.67,1.5,1.5l0,0C271.57,273.31,270.9,273.98,270.07,273.98z M275.82,267.89c0,0.55-0.45,1-1,1h-10.63
					c-0.55,0-1-0.45-1-1v-16.16c0-0.55,0.45-1,1-1h10.63c0.55,0,1,0.45,1,1V267.89z M245.84,263.91v-18.92c0-0.55,0.45-1,1-1h19.79
					c0.01,0,0.02,0.01,0.03,0.01h7.02c-0.25-1.97-1.91-3.49-3.95-3.49H242c-2.21,0-4,1.79-4,4v19.89c0,2.21,1.79,4,4,4h15.5v-3.49
					h-10.66C246.29,264.91,245.84,264.46,245.84,263.91z M240.18,255.32v-1.74c0-0.96,0.78-1.74,1.74-1.74l0,0
					c0.96,0,1.74,0.78,1.74,1.74v1.74c0,0.96-0.78,1.74-1.74,1.74l0,0C240.96,257.06,240.18,256.28,240.18,255.32z"/>
				<path class="st2" d="M271.99,258.63h-0.83c-0.25,0-0.47-0.17-0.54-0.42c-0.09-0.27-0.2-0.54-0.33-0.79
					c-0.12-0.22-0.09-0.49,0.09-0.67l0.59-0.59c0.22-0.22,0.22-0.58,0-0.8l-0.8-0.8c-0.22-0.22-0.58-0.22-0.8,0l-0.59,0.59
					c-0.18,0.18-0.44,0.2-0.67,0.09c-0.25-0.13-0.51-0.24-0.79-0.33c-0.24-0.08-0.42-0.29-0.42-0.54v-0.83
					c0-0.31-0.25-0.56-0.56-0.56h-1.13c-0.31,0-0.56,0.25-0.56,0.56v3.62c0.35-0.15,0.73-0.24,1.13-0.24c1.56,0,2.82,1.26,2.82,2.82
					s-1.26,2.82-2.82,2.82c-0.4,0-0.78-0.09-1.13-0.24v3.62c0,0.31,0.25,0.56,0.56,0.56h1.13c0.31,0,0.56-0.25,0.56-0.56v-0.83
					c0-0.25,0.17-0.47,0.42-0.54c0.27-0.09,0.54-0.2,0.79-0.33c0.22-0.12,0.49-0.09,0.67,0.09l0.59,0.59c0.22,0.22,0.58,0.22,0.8,0
					l0.8-0.8c0.22-0.22,0.22-0.58,0-0.8l-0.59-0.59c-0.18-0.18-0.2-0.44-0.09-0.67c0.13-0.25,0.24-0.51,0.33-0.79
					c0.08-0.24,0.29-0.42,0.54-0.42h0.83c0.31,0,0.56-0.25,0.56-0.56v-1.13C272.56,258.89,272.31,258.63,271.99,258.63z
					 M256.99,247.99h-1.13c-0.31,0-0.56,0.25-0.56,0.56v0.83c0,0.25-0.17,0.47-0.42,0.54c-0.27,0.09-0.54,0.2-0.79,0.33
					c-0.22,0.12-0.49,0.09-0.67-0.09l-0.59-0.59c-0.22-0.22-0.58-0.22-0.8,0l-0.8,0.8c-0.22,0.22-0.22,0.58,0,0.8l0.59,0.59
					c0.18,0.18,0.2,0.44,0.09,0.67c-0.13,0.25-0.24,0.51-0.33,0.79c-0.08,0.24-0.29,0.42-0.54,0.42h-0.83
					c-0.31,0-0.56,0.25-0.56,0.56v1.13c0,0.31,0.25,0.56,0.56,0.56h0.83c0.25,0,0.47,0.17,0.54,0.42c0.09,0.27,0.2,0.54,0.33,0.79
					c0.12,0.22,0.09,0.49-0.09,0.67l-0.59,0.59c-0.22,0.22-0.22,0.58,0,0.8l0.8,0.8c0.22,0.22,0.58,0.22,0.8,0l0.59-0.59
					c0.18-0.18,0.44-0.2,0.67-0.09c0.25,0.13,0.51,0.24,0.79,0.33c0.24,0.08,0.42,0.29,0.42,0.54v0.83c0,0.31,0.25,0.56,0.56,0.56
					h1.13c0.31,0,0.56-0.25,0.56-0.56v-3.62c-0.35,0.15-0.73,0.24-1.13,0.24c-1.56,0-2.82-1.26-2.82-2.82
					c0-1.56,1.26-2.82,2.82-2.82c0.4,0,0.78,0.09,1.13,0.24v-3.62C257.56,248.25,257.31,247.99,256.99,247.99z"/>
			</g>
		</g>
	</g>
	<g>
		<g>
			<g>
				<path class="st2" d="M205,244h-29c-1.1,0-2,0.9-2,2v6c0,1.1,0.9,2,2,2h29c1.1,0,2-0.9,2-2v-6C207,244.9,206.1,244,205,244z
					 M180,251c-1.1,0-2-0.9-2-2s0.9-2,2-2s2,0.9,2,2S181.1,251,180,251z M187,251c-1.1,0-2-0.9-2-2s0.9-2,2-2s2,0.9,2,2
					S188.1,251,187,251z M202.5,250.25h-8c-0.69,0-1.25-0.56-1.25-1.25s0.56-1.25,1.25-1.25h8c0.69,0,1.25,0.56,1.25,1.25
					S203.19,250.25,202.5,250.25z M205,257h-29c-1.1,0-2,0.9-2,2v6c0,1.1,0.9,2,2,2h29c1.1,0,2-0.9,2-2v-6
					C207,257.9,206.1,257,205,257z M180,264c-1.1,0-2-0.9-2-2s0.9-2,2-2s2,0.9,2,2S181.1,264,180,264z M187,264c-1.1,0-2-0.9-2-2
					s0.9-2,2-2s2,0.9,2,2S188.1,264,187,264z M202.5,263.25h-8c-0.69,0-1.25-0.56-1.25-1.25s0.56-1.25,1.25-1.25h8
					c0.69,0,1.25,0.56,1.25,1.25S203.19,263.25,202.5,263.25z"/>
				<path class="st2" d="M203,270h-25c-0.83,0-1.5,0.67-1.5,1.5s0.67,1.5,1.5,1.5h25c0.83,0,1.5-0.67,1.5-1.5S203.83,270,203,270z"
					/>
			</g>
		</g>
	</g>
	<g>
		<g>
			<g>
				<path class="st2" d="M106,244.25h26v0h4v-2c0-1.1-0.9-2-2-2h-30c-1.1,0-2,0.9-2,2v23c0,1.1,0.9,2,2,2h11.83l-0.67,4h-3.67
					c-0.83,0-1.5,0.67-1.5,1.5c0,0.83,0.67,1.5,1.5,1.5h10v-11H106V244.25z M139,246.75h-11c-2.21,0-4,1.79-4,4v22
					c0,2.21,1.79,4,4,4h11c2.21,0,4-1.79,4-4v-22C143,248.54,141.21,246.75,139,246.75z M134.25,274.25h-1.5
					c-0.83,0-1.5-0.67-1.5-1.5l0,0c0-0.83,0.67-1.5,1.5-1.5h1.5c0.83,0,1.5,0.67,1.5,1.5l0,0
					C135.75,273.58,135.08,274.25,134.25,274.25z M139.82,268.14c0,0.55-0.45,1-1,1h-10.63c-0.55,0-1-0.45-1-1v-16.16
					c0-0.55,0.45-1,1-1h10.63c0.55,0,1,0.45,1,1V268.14z"/>
				<path class="st2" d="M120.26,248.25h-1.13c-0.31,0-0.56,0.25-0.56,0.56v0.83c0,0.25-0.17,0.47-0.42,0.54
					c-0.27,0.09-0.54,0.2-0.79,0.33c-0.22,0.11-0.49,0.09-0.67-0.09l-0.59-0.59c-0.22-0.22-0.58-0.22-0.8,0l-0.8,0.8
					c-0.22,0.22-0.22,0.58,0,0.8l0.59,0.59c0.18,0.18,0.2,0.44,0.09,0.67c-0.13,0.25-0.24,0.51-0.33,0.79
					c-0.08,0.24-0.29,0.42-0.54,0.42h-0.83c-0.31,0-0.56,0.25-0.56,0.56v1.13c0,0.31,0.25,0.56,0.56,0.56h0.83
					c0.25,0,0.47,0.17,0.54,0.42c0.09,0.27,0.2,0.54,0.33,0.79c0.12,0.22,0.09,0.49-0.09,0.67l-0.59,0.59
					c-0.22,0.22-0.22,0.58,0,0.8l0.8,0.8c0.22,0.22,0.58,0.22,0.8,0l0.59-0.59c0.18-0.18,0.44-0.2,0.67-0.09
					c0.25,0.13,0.51,0.24,0.79,0.33c0.24,0.08,0.42,0.29,0.42,0.54v0.83c0,0.31,0.25,0.56,0.56,0.56h1.13
					c0.31,0,0.56-0.25,0.56-0.56v-3.62c-0.35,0.15-0.73,0.24-1.13,0.24c-1.56,0-2.82-1.26-2.82-2.82c0-1.56,1.26-2.82,2.82-2.82
					c0.4,0,0.78,0.09,1.13,0.24v-3.62C120.83,248.5,120.57,248.25,120.26,248.25z M136.26,258.89h-0.83c-0.25,0-0.47-0.17-0.54-0.42
					c-0.09-0.27-0.2-0.54-0.33-0.79c-0.12-0.22-0.09-0.49,0.09-0.67l0.59-0.59c0.22-0.22,0.22-0.58,0-0.8l-0.8-0.8
					c-0.22-0.22-0.58-0.22-0.8,0l-0.59,0.59c-0.18,0.18-0.44,0.2-0.67,0.09c-0.25-0.13-0.51-0.24-0.79-0.33
					c-0.24-0.08-0.42-0.29-0.42-0.54v-0.83c0-0.31-0.25-0.56-0.56-0.56h-1.13c-0.31,0-0.56,0.25-0.56,0.56v3.62
					c0.35-0.15,0.73-0.24,1.13-0.24c1.56,0,2.82,1.26,2.82,2.82c0,1.56-1.26,2.82-2.82,2.82c-0.4,0-0.78-0.09-1.13-0.24v3.62
					c0,0.31,0.25,0.56,0.56,0.56h1.13c0.31,0,0.56-0.25,0.56-0.56v-0.83c0-0.25,0.17-0.47,0.42-0.54c0.27-0.09,0.54-0.2,0.79-0.33
					c0.22-0.12,0.49-0.09,0.67,0.09l0.59,0.59c0.22,0.22,0.58,0.22,0.8,0l0.8-0.8c0.22-0.22,0.22-0.58,0-0.8l-0.59-0.59
					c-0.18-0.18-0.2-0.44-0.09-0.67c0.13-0.25,0.24-0.51,0.33-0.79c0.08-0.24,0.29-0.42,0.54-0.42h0.83c0.31,0,0.56-0.25,0.56-0.56
					v-1.13C136.83,259.14,136.57,258.89,136.26,258.89z"/>
			</g>
		</g>
	</g>
	<g>
		<g>
			<path class="st2" d="M66,256.85c1.38,0,2.5-1.12,2.5-2.5v-8.46c0-0.84-0.42-1.62-1.11-2.08l-2.55-1.7
				c-0.69-0.46-1.62-0.27-2.08,0.42c-0.46,0.69-0.27,1.62,0.42,2.08l2.33,1.55v7.7h-2v-0.7c0-2.21-1.79-4-4-4h-10
				c-2.21,0-4,1.79-4,4v0.7h-2v-7.7l2.33-1.55c0.69-0.46,0.88-1.39,0.42-2.08c-0.46-0.69-1.39-0.88-2.08-0.42l-2.55,1.7
				c-0.7,0.46-1.11,1.24-1.11,2.08v8.46c0,1.38,1.12,2.5,2.5,2.5h2.5v3H43c-1.38,0-2.5,1.12-2.5,2.5v9.43c0,0.87,0.47,1.7,1.21,2.14
				l4.51,2.71c0.24,0.15,0.51,0.21,0.77,0.21c0.51,0,1.01-0.26,1.29-0.73c0.43-0.71,0.2-1.63-0.51-2.06l-4.27-2.56v-8.65h2v4.39
				c0,1.43,0.76,2.75,2,3.46l4.25,2.45c0.67,0.38,1.5-0.1,1.5-0.87v-15.44c0-0.69,0.56-1.25,1.25-1.25s1.25,0.56,1.25,1.25v15.44
				c0,0.77,0.83,1.25,1.5,0.87l4.25-2.45c1.24-0.71,2-2.04,2-3.46v-4.39h2v8.65l-4.27,2.56c-0.71,0.43-0.94,1.35-0.51,2.06
				c0.28,0.47,0.78,0.73,1.29,0.73c0.26,0,0.53-0.07,0.77-0.21l4.51-2.71c0.75-0.45,1.21-1.27,1.21-2.14v-9.43
				c0-1.38-1.12-2.5-2.5-2.5h-2.5v-3H66z"/>
			<path class="st2" d="M58.82,242.34l-3.32-1.91c-0.62-0.36-1.38-0.36-2,0l-3.32,1.91c-0.62,0.36-1,1.02-1,1.73v2.28
				c0,0.28,0.22,0.5,0.5,0.5h9.63c0.28,0,0.5-0.22,0.5-0.5v-2.28C59.82,243.35,59.43,242.69,58.82,242.34z"/>
		</g>
	</g>
	<g>
		<g>
			<path class="st2" d="M398.05,203.25h-19c-0.83,0-1.5,0.67-1.5,1.5s0.67,1.5,1.5,1.5h19c0.83,0,1.5-0.67,1.5-1.5
				S398.88,203.25,398.05,203.25z M411.59,191.75h-10.6c-0.26,0-0.47,0.21-0.47,0.47v5.68c0,4.16,4.56,6.87,5.57,7.42
				c0.13,0.07,0.27,0.07,0.4,0.02c1.03-0.46,5.56-2.77,5.56-7.44v-5.68C412.06,191.96,411.85,191.75,411.59,191.75z"/>
			<path class="st2" d="M407.94,174.75h-29c-1.1,0-2,0.9-2,2v22c0,1.1,0.9,2,2,2h19.57c-0.31-0.87-0.5-1.82-0.5-2.85v-5.68
				c0-1.64,1.33-2.97,2.97-2.97h8.96v-12.5C409.94,175.65,409.05,174.75,407.94,174.75z M385.19,186.19
				c-0.24,0.21-0.53,0.31-0.82,0.31c-0.35,0-0.7-0.15-0.94-0.43l-2-2.3c-0.39-0.44-0.41-1.09-0.06-1.56l2-2.7
				c0.41-0.56,1.19-0.67,1.75-0.26c0.56,0.41,0.67,1.19,0.26,1.75l-1.4,1.9l1.34,1.54C385.77,184.95,385.72,185.74,385.19,186.19z
				 M391.58,179.58l-1.93,7c-0.15,0.55-0.66,0.92-1.2,0.92c-0.11,0-0.22-0.01-0.33-0.04c-0.67-0.18-1.06-0.87-0.87-1.54l1.93-7
				c0.18-0.67,0.87-1.05,1.54-0.87C391.37,178.23,391.76,178.92,391.58,179.58z M397.38,183.29l-2,2.7
				c-0.25,0.33-0.62,0.51-1.01,0.51c-0.26,0-0.52-0.08-0.74-0.25c-0.56-0.41-0.67-1.19-0.26-1.75l1.4-1.9l-1.34-1.54
				c-0.45-0.52-0.4-1.31,0.12-1.76s1.31-0.4,1.76,0.12l2,2.3C397.7,182.17,397.73,182.82,397.38,183.29z"/>
		</g>
	</g>
	<g>
		<g>
			<path class="st2" d="M326.93,195.25v-6c0-1.65,1.35-3,3-3h10.64v-9.5c0-1.1-0.9-2-2-2h-29c-1.1,0-2,0.9-2,2v22c0,1.1,0.9,2,2,2
				h22.36v-2.5h-2C328.27,198.25,326.93,196.9,326.93,195.25z M315.82,186.19c-0.24,0.21-0.53,0.31-0.82,0.31
				c-0.35,0-0.7-0.15-0.94-0.43l-2-2.3c-0.39-0.44-0.41-1.09-0.06-1.56l2-2.7c0.41-0.56,1.19-0.67,1.75-0.26
				c0.56,0.41,0.67,1.19,0.26,1.75l-1.4,1.9l1.34,1.54C316.4,184.95,316.34,185.74,315.82,186.19z M322.21,179.58l-1.93,7
				c-0.15,0.55-0.66,0.92-1.2,0.92c-0.11,0-0.22-0.01-0.33-0.04c-0.66-0.18-1.06-0.87-0.87-1.54l1.93-7
				c0.18-0.67,0.87-1.05,1.54-0.87C322,178.23,322.39,178.92,322.21,179.58z M325,186.5c-0.26,0-0.52-0.08-0.74-0.25
				c-0.56-0.41-0.67-1.19-0.26-1.75l1.4-1.9l-1.34-1.54c-0.45-0.52-0.4-1.31,0.12-1.76s1.31-0.4,1.76,0.12l2,2.3
				c0.39,0.44,0.41,1.09,0.06,1.56l-2,2.7C325.76,186.33,325.38,186.5,325,186.5z M345.28,192.6l-3.71-3.71
				c-0.09-0.09-0.22-0.15-0.35-0.15h-11.29c-0.28,0-0.5,0.22-0.5,0.5v6c0,0.28,0.22,0.5,0.5,0.5h15c0.28,0,0.5-0.22,0.5-0.5v-2.29
				C345.43,192.82,345.38,192.7,345.28,192.6z"/>
			<path class="st2" d="M329.68,203.25h-20c-0.83,0-1.5,0.67-1.5,1.5s0.67,1.5,1.5,1.5h20c0.83,0,1.5-0.67,1.5-1.5
				S330.51,203.25,329.68,203.25z M334.43,198.25v6.88c0,0.35,0.22,0.63,0.5,0.63h3c0.28,0,0.5-0.28,0.5-0.63v-6.88H334.43z"/>
		</g>
	</g>
	<g>
		<g>
			<path class="st2" d="M256.69,203.13h-15c-0.83,0-1.5,0.67-1.5,1.5s0.67,1.5,1.5,1.5h15c0.83,0,1.5-0.67,1.5-1.5
				S257.51,203.13,256.69,203.13z M277.32,196.38c-0.03-0.19-0.2-0.33-0.4-0.33h-0.82c-0.26-0.08-0.47-0.28-0.56-0.55
				c-0.15-0.48-0.36-0.94-0.61-1.37c-0.09-0.16-0.07-0.35,0.06-0.48l0.66-0.66c0.14-0.14,0.16-0.36,0.04-0.52
				c-0.5-0.68-1.1-1.28-1.78-1.78c-0.16-0.12-0.38-0.1-0.52,0.04l-0.66,0.66c-0.13,0.13-0.32,0.15-0.48,0.06
				c-0.6-0.35-1.26-0.61-1.96-0.77c0,0,0,0,0,0v-1.24c0-0.2-0.14-0.37-0.34-0.4c-0.41-0.06-0.83-0.1-1.26-0.1
				c-0.43,0-0.85,0.03-1.26,0.1c-0.19,0.03-0.34,0.2-0.34,0.4v1.24c0,0,0,0,0,0c-0.7,0.16-1.36,0.42-1.96,0.77
				c-0.16,0.09-0.35,0.07-0.48-0.06l-0.66-0.66c-0.14-0.14-0.36-0.16-0.52-0.04c-0.67,0.5-1.27,1.1-1.78,1.78
				c-0.12,0.16-0.1,0.38,0.04,0.52l0.66,0.66c0.13,0.13,0.15,0.32,0.06,0.48c-0.25,0.43-0.45,0.89-0.61,1.37
				c-0.09,0.27-0.3,0.48-0.56,0.55h-0.82c-0.2,0-0.37,0.14-0.4,0.33c-0.06,0.42-0.1,0.84-0.1,1.28c0,0.44,0.04,0.86,0.1,1.28
				c0.03,0.19,0.2,0.33,0.4,0.33h0.82c0.26,0.08,0.47,0.28,0.56,0.55c0.15,0.48,0.36,0.94,0.61,1.37c0.09,0.16,0.07,0.35-0.06,0.48
				l-0.66,0.66c-0.14,0.14-0.16,0.36-0.04,0.52c0.5,0.68,1.1,1.28,1.78,1.78c0.16,0.12,0.38,0.1,0.52-0.04l0.66-0.66
				c0.13-0.13,0.32-0.15,0.48-0.06c0.6,0.35,1.26,0.61,1.96,0.77c0,0,0,0,0,0v1.24c0,0.2,0.14,0.37,0.34,0.4
				c0.41,0.06,0.83,0.1,1.26,0.1c0.43,0,0.85-0.03,1.26-0.1c0.19-0.03,0.34-0.2,0.34-0.4v-1.24l0,0c0.7-0.16,1.36-0.42,1.96-0.77
				c0.16-0.09,0.35-0.07,0.48,0.06l0.66,0.66c0.14,0.14,0.36,0.16,0.52,0.04c0.67-0.5,1.27-1.1,1.78-1.78
				c0.12-0.16,0.1-0.38-0.04-0.52l-0.66-0.66c-0.13-0.13-0.15-0.32-0.06-0.48c0.25-0.43,0.45-0.89,0.61-1.37
				c0.09-0.27,0.3-0.48,0.56-0.55h0.82c0.2,0,0.37-0.14,0.4-0.33c0.06-0.42,0.1-0.84,0.1-1.28
				C277.42,197.23,277.38,196.8,277.32,196.38z M271.07,198.04c-0.15,1.01-0.98,1.83-1.98,1.98c-1.62,0.25-2.99-1.12-2.74-2.74
				c0.15-1.01,0.98-1.83,1.98-1.98C269.94,195.05,271.32,196.42,271.07,198.04z"/>
			<path class="st2" d="M270.58,174.63h-29c-1.1,0-2,0.9-2,2v22c0,1.1,0.9,2,2,2h16.6c-0.29-0.38-0.49-0.82-0.56-1.31
				c-0.08-0.56-0.13-1.11-0.13-1.65c0-0.54,0.04-1.1,0.13-1.65c0.15-1.01,0.83-1.84,1.73-2.23c-0.36-0.91-0.25-1.99,0.36-2.81
				c0.65-0.87,1.41-1.64,2.28-2.29c0.5-0.37,1.11-0.58,1.73-0.58c0.38,0,0.76,0.08,1.11,0.22c0.38-0.91,1.22-1.61,2.24-1.76
				c0.55-0.08,1.1-0.12,1.63-0.12c0.53,0,1.08,0.04,1.63,0.12c1.02,0.15,1.86,0.84,2.24,1.76l0,0v-11.71
				C272.58,175.52,271.69,174.63,270.58,174.63z M247.83,186.07c-0.24,0.21-0.53,0.31-0.82,0.31c-0.35,0-0.7-0.15-0.94-0.43l-2-2.3
				c-0.39-0.44-0.41-1.09-0.06-1.56l2-2.7c0.41-0.56,1.19-0.67,1.75-0.26c0.56,0.41,0.67,1.19,0.26,1.75l-1.4,1.9l1.34,1.54
				C248.41,184.82,248.35,185.61,247.83,186.07z M254.22,179.46l-1.93,7c-0.15,0.55-0.66,0.92-1.2,0.92c-0.11,0-0.22-0.01-0.33-0.04
				c-0.67-0.18-1.06-0.87-0.87-1.54l1.93-7c0.18-0.67,0.87-1.05,1.54-0.87C254.01,178.1,254.4,178.79,254.22,179.46z M260.02,183.16
				l-2,2.7c-0.25,0.33-0.62,0.51-1.01,0.51c-0.26,0-0.52-0.08-0.74-0.25c-0.56-0.41-0.67-1.19-0.26-1.75l1.4-1.9l-1.34-1.54
				c-0.45-0.52-0.4-1.31,0.12-1.76s1.31-0.4,1.76,0.12l2,2.3C260.34,182.04,260.36,182.69,260.02,183.16z"/>
		</g>
	</g>
	<g>
		<g>
			<path class="st2" d="M203.39,173.5h-29c-1.1,0-2,0.9-2,2v22c0,1.1,0.9,2,2,2h17.71V194c0-3.48,4-6,9.5-6
				c1.37,0,2.64,0.16,3.79,0.44V175.5C205.39,174.4,204.5,173.5,203.39,173.5z M180.64,184.94c-0.24,0.21-0.53,0.31-0.82,0.31
				c-0.35,0-0.7-0.15-0.94-0.43l-2-2.3c-0.39-0.44-0.41-1.09-0.06-1.56l2-2.7c0.41-0.56,1.19-0.67,1.75-0.26
				c0.56,0.41,0.67,1.19,0.26,1.75l-1.4,1.9l1.34,1.54C181.22,183.7,181.16,184.49,180.64,184.94z M187.03,178.33l-1.93,7
				c-0.15,0.55-0.66,0.92-1.2,0.92c-0.11,0-0.22-0.01-0.33-0.04c-0.67-0.18-1.06-0.87-0.87-1.54l1.93-7
				c0.18-0.67,0.87-1.05,1.54-0.87C186.82,176.98,187.21,177.67,187.03,178.33z M192.83,182.04l-2,2.7
				c-0.25,0.33-0.62,0.51-1.01,0.51c-0.26,0-0.52-0.08-0.74-0.25c-0.56-0.41-0.67-1.19-0.26-1.75l1.4-1.9l-1.34-1.54
				c-0.45-0.52-0.4-1.31,0.12-1.76c0.52-0.45,1.31-0.4,1.76,0.12l2,2.3C193.15,180.92,193.18,181.57,192.83,182.04z"/>
			<path class="st2" d="M190.5,202h-16c-0.83,0-1.5,0.67-1.5,1.5s0.67,1.5,1.5,1.5h16c0.83,0,1.5-0.67,1.5-1.5S191.33,202,190.5,202
				z M194.61,201.37v2.54c0,0.01,0.01,0.03,0.01,0.04c0,0.02-0.01,0.04-0.01,0.06c0,1.93,3.13,3.5,7,3.5c3.87,0,7-1.57,7-3.5
				c0-0.02-0.01-0.04-0.01-0.06c0-0.01,0.01-0.03,0.01-0.04v-2.55c-1.75,1.03-4.24,1.65-7,1.65
				C198.83,203,196.35,202.39,194.61,201.37z M201.61,190.5c-3.87,0-7,1.57-7,3.5v4.07l0.27,0.34c0.8,1,3.25,2.09,6.73,2.09
				c3.44,0,6.02-1.09,6.79-2.17l0.21-0.3V194C208.61,192.07,205.47,190.5,201.61,190.5z M201.61,195.5c-2.21,0-4-0.67-4-1.5
				s1.79-1.5,4-1.5c2.21,0,4,0.67,4,1.5S203.82,195.5,201.61,195.5z"/>
		</g>
	</g>
	<g>
		<g>
			<path class="st2" d="M136.04,174.75h-29c-1.1,0-2,0.9-2,2v22c0,1.1,0.9,2,2,2h18.34v-4.33c0-1.6,0.86-3.1,2.25-3.9l4.09-2.36
				c0.68-0.39,1.46-0.6,2.25-0.6c0.79,0,1.57,0.21,2.25,0.6l1.82,1.05v-14.46C138.04,175.65,137.14,174.75,136.04,174.75z
				 M113.29,186.19c-0.24,0.21-0.53,0.31-0.82,0.31c-0.35,0-0.7-0.15-0.94-0.43l-2-2.3c-0.39-0.44-0.41-1.09-0.06-1.56l2-2.7
				c0.41-0.56,1.19-0.67,1.75-0.26c0.56,0.41,0.67,1.19,0.26,1.75l-1.4,1.9l1.34,1.54C113.86,184.95,113.81,185.74,113.29,186.19z
				 M119.67,179.58l-1.93,7c-0.15,0.55-0.66,0.92-1.2,0.92c-0.11,0-0.22-0.01-0.33-0.04c-0.67-0.18-1.06-0.87-0.87-1.54l1.93-7
				c0.18-0.67,0.87-1.05,1.54-0.87C119.46,178.23,119.85,178.92,119.67,179.58z M125.47,183.29l-2,2.7
				c-0.25,0.33-0.62,0.51-1.01,0.51c-0.26,0-0.52-0.08-0.74-0.25c-0.56-0.41-0.67-1.19-0.26-1.75l1.4-1.9l-1.34-1.54
				c-0.45-0.52-0.4-1.31,0.12-1.76c0.52-0.45,1.31-0.4,1.76,0.12l2,2.3C125.79,182.17,125.82,182.82,125.47,183.29z"/>
			<path class="st2" d="M132.71,199.19l-4-2.29c-0.33-0.19-0.75,0.05-0.75,0.43v4.55c0,0.18,0.1,0.35,0.25,0.43l4,2.29
				c0.33,0.19,0.75-0.05,0.75-0.43v-4.55C132.96,199.44,132.87,199.28,132.71,199.19z M123.14,203.25h-16c-0.83,0-1.5,0.67-1.5,1.5
				s0.67,1.5,1.5,1.5h16c0.83,0,1.5-0.67,1.5-1.5S123.97,203.25,123.14,203.25z M139.22,196.9l-4,2.29
				c-0.16,0.09-0.25,0.25-0.25,0.43v4.55c0,0.38,0.41,0.62,0.75,0.43l4-2.29c0.16-0.09,0.25-0.25,0.25-0.43v-4.55
				C139.96,196.95,139.55,196.71,139.22,196.9z M138.19,194.32l-3.98-2.27c-0.15-0.09-0.34-0.09-0.5,0l-3.98,2.27
				c-0.34,0.19-0.34,0.68,0,0.87l3.98,2.27c0.15,0.09,0.34,0.09,0.5,0l3.98-2.27C138.53,194.99,138.53,194.51,138.19,194.32z"/>
		</g>
	</g>
	<g>
		<g>
			<g>
				<g>
					<g>
						<path class="st2" d="M67.15,176.44c0-1.1-0.9-2-2-2h-29c-1.1,0-2,0.9-2,2v22c0,1.1,0.9,2,2,2h17.96c0.44-0.44,1.1-1.1,1.1-1.1
							l11.94-11.94V176.44z M42.4,185.88c-0.24,0.21-0.53,0.31-0.82,0.31c-0.35,0-0.7-0.15-0.94-0.43l-2-2.3
							c-0.39-0.44-0.41-1.09-0.06-1.56l2-2.7c0.41-0.56,1.19-0.67,1.75-0.26s0.67,1.19,0.26,1.75l-1.4,1.9l1.34,1.54
							C42.97,184.64,42.92,185.43,42.4,185.88z M48.78,179.27l-1.93,7c-0.15,0.55-0.66,0.92-1.2,0.92c-0.11,0-0.22-0.01-0.33-0.04
							c-0.67-0.18-1.06-0.87-0.87-1.54l1.93-7c0.18-0.67,0.87-1.05,1.54-0.87C48.58,177.92,48.97,178.61,48.78,179.27z
							 M54.58,182.98l-2,2.7c-0.25,0.33-0.62,0.51-1.01,0.51c-0.26,0-0.52-0.08-0.74-0.25c-0.56-0.41-0.67-1.19-0.26-1.75l1.4-1.9
							l-1.34-1.54c-0.45-0.52-0.4-1.31,0.12-1.76c0.52-0.45,1.31-0.4,1.76,0.12l2,2.3C54.91,181.86,54.93,182.51,54.58,182.98z
							 M70.75,193.78l-2.87-2.87c-0.2-0.2-0.51-0.2-0.71,0l-8.04,8.04c-0.2,0.2-0.2,0.51,0,0.71l2.87,2.87c0.2,0.2,0.51,0.2,0.71,0
							l8.04-8.04C70.95,194.29,70.95,193.97,70.75,193.78z M57.33,201.46c-0.19-0.2-0.51-0.2-0.7,0c-0.33,0.32-0.79,0.79-1.02,1.01
							c-0.08,0.08-0.13,0.19-0.14,0.31l-0.25,3.24c-0.02,0.31,0.24,0.57,0.56,0.54l3.11-0.36c0.11-0.01,0.22-0.06,0.3-0.14
							l1.02-1.02c0.2-0.2,0.2-0.51,0-0.71L57.33,201.46z"/>
						<path class="st2" d="M51.25,202.94h-15c-0.83,0-1.5,0.67-1.5,1.5s0.67,1.5,1.5,1.5h15c0.83,0,1.5-0.67,1.5-1.5
							S52.08,202.94,51.25,202.94z M74.71,189.83l-2.87-2.87c-0.2-0.2-0.51-0.2-0.71,0l-1.51,1.51c-0.2,0.2-0.2,0.51,0,0.71
							l2.87,2.87c0.2,0.2,0.51,0.2,0.71,0l1.51-1.51C74.9,190.34,74.9,190.02,74.71,189.83z"/>
					</g>
				</g>
			</g>
		</g>
	</g>
	<g>
		<g>
			<g>
				<g>
					<path class="st2" d="M387.5,139c0,1.1,0.9,2,2,2h10c1.1,0,2-0.9,2-2v-4h-14V139z M399.5,104h-10c-1.1,0-2,0.9-2,2v4h14v-4
						C401.5,104.9,400.6,104,399.5,104z"/>
					<path class="st2" d="M402.6,112.5H386.4c-1.05,0-1.9,0.9-1.9,2v16c0,1.1,0.85,2,1.9,2h16.19c1.05,0,1.9-0.9,1.9-2v-16
						C404.5,113.4,403.65,112.5,402.6,112.5z M390.32,125.94c-0.24,0.21-0.53,0.31-0.82,0.31c-0.35,0-0.7-0.15-0.94-0.43l-2-2.3
						c-0.39-0.44-0.41-1.09-0.06-1.56l2-2.7c0.41-0.56,1.19-0.67,1.75-0.26c0.56,0.41,0.67,1.19,0.26,1.75l-1.4,1.9l1.34,1.54
						C390.9,124.7,390.84,125.49,390.32,125.94z M396.7,119.33l-1.93,7c-0.15,0.55-0.66,0.92-1.2,0.92c-0.11,0-0.22-0.01-0.33-0.04
						c-0.67-0.18-1.06-0.87-0.87-1.54l1.93-7c0.18-0.67,0.87-1.05,1.54-0.87C396.5,117.98,396.89,118.67,396.7,119.33z
						 M402.5,123.04l-2,2.7c-0.25,0.33-0.62,0.51-1.01,0.51c-0.26,0-0.52-0.08-0.74-0.25c-0.56-0.41-0.67-1.19-0.26-1.75l1.4-1.9
						l-1.34-1.54c-0.45-0.52-0.4-1.31,0.12-1.76c0.52-0.45,1.31-0.4,1.76,0.12l2,2.3C402.83,121.92,402.85,122.57,402.5,123.04z"/>
				</g>
			</g>
		</g>
	</g>
	<g>
		<g>
			<path class="st2" d="M317,109.5h14c0,0,0,0,0.01,0H336v-2c0-2.21-1.79-4-4-4h-16c-2.21,0-4,1.79-4,4v30c0,2.21,1.79,4,4,4h16
				c2.21,0,4-1.79,4-4v-8h-4v2c0,0.55-0.45,1-1,1h-14c-0.55,0-1-0.45-1-1v-21C316,109.95,316.45,109.5,317,109.5z M325,139h-2
				c-1.1,0-2-0.9-2-2l0,0c0-1.1,0.9-2,2-2h2c1.1,0,2,0.9,2,2l0,0C327,138.1,326.1,139,325,139z"/>
			<path class="st2" d="M339,112h-17c-1.1,0-2,0.9-2,2v14c0,0.82,0.94,1.29,1.6,0.8l1.87-1.4c0.35-0.26,0.77-0.4,1.2-0.4H339
				c1.1,0,2-0.9,2-2v-11C341,112.9,340.1,112,339,112z M326.32,122.94c-0.24,0.21-0.53,0.31-0.82,0.31c-0.35,0-0.7-0.15-0.94-0.43
				l-2-2.3c-0.39-0.44-0.41-1.09-0.06-1.56l2-2.7c0.41-0.56,1.19-0.67,1.75-0.26c0.56,0.41,0.67,1.19,0.26,1.75l-1.4,1.9l1.34,1.54
				C326.9,121.7,326.84,122.49,326.32,122.94z M332.7,116.33l-1.93,7c-0.15,0.55-0.66,0.92-1.2,0.92c-0.11,0-0.22-0.01-0.33-0.04
				c-0.67-0.18-1.06-0.87-0.87-1.54l1.93-7c0.18-0.67,0.87-1.06,1.54-0.87C332.5,114.98,332.89,115.67,332.7,116.33z M338.5,120.04
				l-2,2.7c-0.25,0.33-0.62,0.51-1.01,0.51c-0.26,0-0.52-0.08-0.74-0.25c-0.56-0.41-0.67-1.19-0.26-1.75l1.4-1.9l-1.34-1.54
				c-0.45-0.52-0.4-1.31,0.12-1.76c0.52-0.45,1.31-0.4,1.76,0.12l2,2.3C338.83,118.92,338.85,119.57,338.5,120.04z"/>
		</g>
	</g>
	<g>
		<g>
			<path class="st2" d="M277.5,121.75h-2v4.5h-34v-18H256v-2c0-0.72,0.19-1.39,0.49-2H239.5c-1.1,0-2,0.9-2,2v25c0,1.1,0.9,2,2,2
				h14.92l-0.75,4.5H250c-0.83,0-1.5,0.67-1.5,1.5s0.67,1.5,1.5,1.5h17c0.83,0,1.5-0.67,1.5-1.5s-0.67-1.5-1.5-1.5h-3.67l-0.75-4.5
				h14.92c1.1,0,2-0.9,2-2v-9.99C278.89,121.56,278.22,121.75,277.5,121.75z M258.5,131.75c-0.83,0-1.5-0.67-1.5-1.5
				s0.67-1.5,1.5-1.5s1.5,0.67,1.5,1.5S259.33,131.75,258.5,131.75z"/>
			<path class="st2" d="M277.5,104.25h-17c-1.1,0-2,0.9-2,2v14c0,0.82,0.94,1.29,1.6,0.8l1.87-1.4c0.35-0.26,0.77-0.4,1.2-0.4h14.33
				c1.1,0,2-0.9,2-2v-11C279.5,105.15,278.6,104.25,277.5,104.25z M264.82,115.19c-0.24,0.21-0.53,0.31-0.82,0.31
				c-0.35,0-0.7-0.15-0.94-0.43l-2-2.3c-0.39-0.44-0.41-1.09-0.06-1.56l2-2.7c0.41-0.56,1.19-0.67,1.75-0.26
				c0.56,0.41,0.67,1.19,0.26,1.75l-1.4,1.9l1.34,1.54C265.4,113.95,265.34,114.74,264.82,115.19z M271.2,108.58l-1.93,7
				c-0.15,0.55-0.66,0.92-1.2,0.92c-0.11,0-0.22-0.01-0.33-0.04c-0.67-0.18-1.06-0.87-0.87-1.54l1.93-7
				c0.18-0.67,0.87-1.05,1.54-0.87C271,107.23,271.39,107.92,271.2,108.58z M277,112.29l-2,2.7c-0.25,0.33-0.62,0.51-1.01,0.51
				c-0.26,0-0.52-0.08-0.74-0.25c-0.56-0.41-0.67-1.19-0.26-1.75l1.4-1.9l-1.34-1.54c-0.45-0.52-0.4-1.31,0.12-1.76
				c0.52-0.45,1.31-0.4,1.76,0.12l2,2.3C277.33,111.17,277.35,111.82,277,112.29z"/>
		</g>
	</g>
	<g>
		<g>
			<path class="st2" d="M204.5,135.25h-28c-0.83,0-1.5,0.67-1.5,1.5s0.67,1.5,1.5,1.5h28c0.83,0,1.5-0.67,1.5-1.5
				S205.33,135.25,204.5,135.25z"/>
			<path class="st2" d="M205,106.75h-29c-1.1,0-2,0.9-2,2v22c0,1.1,0.9,2,2,2h29c1.1,0,2-0.9,2-2v-22
				C207,107.65,206.1,106.75,205,106.75z M188.15,120.21l-5,6c-0.3,0.36-0.72,0.54-1.15,0.54c-0.34,0-0.68-0.11-0.96-0.35
				c-0.64-0.53-0.72-1.48-0.19-2.11l4.12-4.95l-4.03-4.03c-0.59-0.59-0.59-1.54,0-2.12c0.59-0.59,1.54-0.59,2.12,0l5,5
				C188.61,118.74,188.65,119.61,188.15,120.21z M199,126.75h-8c-0.83,0-1.5-0.67-1.5-1.5s0.67-1.5,1.5-1.5h8
				c0.83,0,1.5,0.67,1.5,1.5S199.83,126.75,199,126.75z"/>
		</g>
	</g>
	<g>
		<g>
			<g>
				<path class="st2" d="M130.5,103.5h-16c-2.21,0-4,1.79-4,4v30c0,2.21,1.79,4,4,4h16c2.21,0,4-1.79,4-4v-30
					C134.5,105.29,132.71,103.5,130.5,103.5z M123.5,139h-2c-1.1,0-2-0.9-2-2l0,0c0-1.1,0.9-2,2-2h2c1.1,0,2,0.9,2,2l0,0
					C125.5,138.1,124.6,139,123.5,139z M130.5,131.5c0,0.55-0.45,1-1,1h-14c-0.55,0-1-0.45-1-1v-21c0-0.55,0.45-1,1-1h14
					c0.55,0,1,0.45,1,1V131.5z"/>
				<path class="st2" d="M127.79,112.29h-1.5c-0.41,0-0.75,0.34-0.75,0.75v1.1c0,0.34-0.23,0.62-0.55,0.72
					c-0.36,0.12-0.71,0.26-1.05,0.44c-0.29,0.15-0.65,0.12-0.89-0.12l-0.79-0.79c-0.29-0.29-0.77-0.29-1.06,0l-1.06,1.06
					c-0.29,0.29-0.29,0.77,0,1.06l0.79,0.79c0.23,0.23,0.27,0.59,0.12,0.89c-0.17,0.33-0.32,0.68-0.44,1.05
					c-0.1,0.32-0.39,0.55-0.72,0.55h-1.1c-0.41,0-0.75,0.34-0.75,0.75v1.5c0,0.41,0.34,0.75,0.75,0.75h1.1
					c0.34,0,0.62,0.23,0.72,0.55c0.12,0.36,0.26,0.71,0.44,1.05c0.15,0.29,0.12,0.65-0.12,0.89l-0.79,0.79
					c-0.29,0.29-0.29,0.77,0,1.06l1.06,1.06c0.29,0.29,0.77,0.29,1.06,0l0.79-0.79c0.23-0.23,0.59-0.27,0.89-0.12
					c0.33,0.17,0.68,0.32,1.05,0.44c0.32,0.1,0.55,0.39,0.55,0.72v1.1c0,0.41,0.34,0.75,0.75,0.75h1.5c0.41,0,0.75-0.34,0.75-0.75
					v-4.82c-0.46,0.2-0.97,0.32-1.5,0.32c-2.07,0-3.75-1.68-3.75-3.75s1.68-3.75,3.75-3.75c0.53,0,1.04,0.12,1.5,0.32v-4.82
					C128.54,112.63,128.2,112.29,127.79,112.29z"/>
			</g>
		</g>
	</g>
	<g>
		<g>
			<path class="st2" d="M73.5,104.25h-38c-1.1,0-2,0.9-2,2v25c0,1.1,0.9,2,2,2h14.92l-0.75,4.5H46c-0.83,0-1.5,0.67-1.5,1.5
				s0.67,1.5,1.5,1.5h17c0.83,0,1.5-0.67,1.5-1.5s-0.67-1.5-1.5-1.5h-3.67l-0.75-4.5H73.5c1.1,0,2-0.9,2-2v-25
				C75.5,105.15,74.6,104.25,73.5,104.25z M54.5,131.75c-0.83,0-1.5-0.67-1.5-1.5s0.67-1.5,1.5-1.5s1.5,0.67,1.5,1.5
				S55.33,131.75,54.5,131.75z M71.5,126.25h-34v-18h34V126.25z"/>
			<path class="st2" d="M64.71,120.04h-1.36c-0.42,0-0.77-0.29-0.9-0.68c-0.14-0.45-0.33-0.88-0.54-1.3
				c-0.19-0.36-0.14-0.81,0.15-1.1l0.97-0.97c0.36-0.36,0.36-0.95,0-1.31l-1.31-1.31c-0.36-0.36-0.95-0.36-1.31,0l-0.97,0.97
				c-0.29,0.29-0.73,0.34-1.1,0.15c-0.41-0.22-0.85-0.4-1.3-0.54c-0.4-0.13-0.68-0.48-0.68-0.9v-1.36c0-0.51-0.42-0.93-0.93-0.93
				h-1.86c-0.51,0-0.93,0.42-0.93,0.93v1.36c0,0.42-0.29,0.77-0.68,0.9c-0.45,0.14-0.88,0.33-1.3,0.54
				c-0.36,0.19-0.81,0.14-1.1-0.15l-0.97-0.97c-0.36-0.36-0.95-0.36-1.31,0l-1.31,1.31c-0.36,0.36-0.36,0.95,0,1.31l0.97,0.97
				c0.29,0.29,0.34,0.73,0.15,1.1c-0.21,0.41-0.4,0.85-0.54,1.3c-0.13,0.4-0.48,0.68-0.9,0.68h-1.36c-0.51,0-0.93,0.42-0.93,0.93
				v1.86c0,0.51,0.42,0.93,0.93,0.93h5.96c-0.25-0.57-0.39-1.2-0.39-1.86c0-2.56,2.08-4.64,4.64-4.64s4.64,2.08,4.64,4.64
				c0,0.66-0.14,1.29-0.39,1.86h5.96c0.51,0,0.93-0.42,0.93-0.93v-1.86C65.64,120.45,65.23,120.04,64.71,120.04z"/>
		</g>
	</g>
</g>
<g id="title" class="st0">
	<g class="st3">
		<path class="st2" d="M31.07,46.33c-0.16-0.82,0.23-1.28,0.91-1.28h1.23c0.68,0,1.1,0.42,1.21,1.09l1,5.9
			c0.21,1.26,0.42,3.03,0.61,4.68c0.19-1.65,0.4-3.42,0.68-4.68l0.68-3.17c0.33-1.51,1.26-2.82,3.22-2.82c1.96,0,2.89,1.3,3.22,2.82
			l0.68,3.17c0.26,1.28,0.49,3.1,0.68,4.8c0.19-1.7,0.42-3.52,0.63-4.8l1-5.9c0.12-0.68,0.58-1.09,1.26-1.09h1.17
			c0.68,0,1.1,0.47,0.93,1.28l-2.77,13.82c-0.14,0.7-0.68,1.17-1.35,1.17h-1.51c-0.68,0-1.21-0.42-1.38-1.14l-2.42-10.93
			c-0.02-0.09-0.07-0.14-0.12-0.14c-0.05,0-0.09,0.05-0.12,0.14l-2.42,10.93c-0.16,0.72-0.7,1.14-1.38,1.14H35.2
			c-0.68,0-1.21-0.47-1.35-1.17L31.07,46.33z"/>
		<path class="st2" d="M52.32,49.52c0-2.7,1.72-4.47,5.15-4.47h3.38c0.68,0,1.12,0.44,1.12,1.12v0.56c0,0.68-0.44,1.12-1.12,1.12
			h-3.33c-1.4,0-1.84,0.63-1.84,1.93v1.82h4.47c0.68,0,1.12,0.44,1.12,1.12v0.54c0,0.68-0.44,1.12-1.12,1.12h-4.47v2.24
			c0,1.33,0.44,1.91,1.84,1.91h3.43c0.68,0,1.12,0.44,1.12,1.12v0.56c0,0.68-0.44,1.12-1.12,1.12h-3.47c-3.4,0-5.15-1.77-5.15-4.45
			V49.52z"/>
		<path class="st2" d="M64.92,46.96c0-0.72,0.51-1.3,1.14-1.51c0.65-0.21,2.17-0.7,3.8-0.7c3.4,0,5.48,2.14,5.48,4.75
			c0,1.42-0.61,2.47-1.7,3.15c1.61,0.72,2.54,2.03,2.54,3.75c0,2.68-2.21,4.92-5.99,4.92h-4.15c-0.68,0-1.12-0.44-1.12-1.12V46.96z
			 M69.79,51.58c1.4,0,2.1-0.96,2.1-2.07c0-1.14-0.68-1.96-2.07-1.96c-0.61,0-1.03,0.09-1.54,0.28v3.75H69.79z M70.07,58.52
			c1.61,0,2.59-0.86,2.59-2.12c0-1.3-0.75-2.24-2.59-2.24h-1.79v4.36H70.07z"/>
		<path class="st2" d="M85.91,52.55C84.7,51.78,84,50.6,84,49.08c0-2.82,2.42-4.99,5.85-4.99c1,0,1.86,0.14,2.28,0.23
			c0.65,0.14,1,0.7,0.86,1.35l-0.12,0.56c-0.14,0.65-0.7,0.96-1.38,0.84c-0.4-0.07-0.91-0.14-1.61-0.14c-1.58,0-2.4,0.82-2.4,2.14
			c0,1.44,0.82,2.35,2.4,2.35h4.85c0.68,0,1.12,0.37,1.12,1.05v0.37c0,0.68-0.44,1.05-1.12,1.05h-0.16v5.52
			c0,0.68-0.35,1.26-1.07,1.51c-0.72,0.26-2.26,0.68-3.94,0.68c-3.98,0-6.17-2.19-6.17-5.15C83.4,54.65,84.31,53.3,85.91,52.55z
			 M89.62,58.77c0.72,0,1.58-0.09,2.24-0.3V53.9h-2.21c-1.89,0-2.75,0.98-2.75,2.52C86.89,57.89,87.69,58.77,89.62,58.77z"/>
		<path class="st2" d="M105.69,47.61c0.4-1.54,1.54-2.87,3.49-2.87c1.91,0,3.08,1.37,3.47,2.87l3.29,12.47
			c0.16,0.63-0.19,1.24-0.91,1.24h-1.12c-0.68,0-1.14-0.47-1.3-1.12l-0.77-3.05h-5.31l-0.75,3.03c-0.19,0.75-0.58,1.14-1.26,1.14
			h-1.19c-0.72,0-1.05-0.63-0.89-1.26L105.69,47.61z M111.17,54.39l-1.58-6.38c-0.05-0.23-0.19-0.4-0.4-0.4
			c-0.23,0-0.35,0.16-0.4,0.4l-1.58,6.38H111.17z"/>
		<path class="st2" d="M118.74,46.17c0-0.68,0.44-1.12,1.12-1.12h3.61c3.8,0,5.89,2.47,5.89,5.34c0,2.94-2.1,5.33-5.89,5.33h-1.38
			v4.47c0,0.68-0.44,1.12-1.12,1.12h-1.12c-0.68,0-1.12-0.44-1.12-1.12V46.17z M123.35,52.95c1.68,0,2.49-1.19,2.49-2.56
			c0-1.4-0.82-2.54-2.52-2.54h-1.23v5.1H123.35z"/>
		<path class="st2" d="M131.86,46.17c0-0.68,0.44-1.12,1.12-1.12h3.61c3.8,0,5.89,2.47,5.89,5.34c0,2.94-2.1,5.33-5.89,5.33h-1.38
			v4.47c0,0.68-0.44,1.12-1.12,1.12h-1.12c-0.68,0-1.12-0.44-1.12-1.12V46.17z M136.47,52.95c1.68,0,2.49-1.19,2.49-2.56
			c0-1.4-0.82-2.54-2.52-2.54h-1.23v5.1H136.47z"/>
		<path class="st2" d="M150.1,46.17c0-0.68,0.44-1.12,1.12-1.12h4.99c4.19,0,6.17,1.93,6.17,6.06v4.15c0,4.12-1.98,6.06-6.17,6.06
			h-4.99c-0.68,0-1.12-0.44-1.12-1.12V46.17z M156.11,58.52c2.56,0,2.82-1.35,2.82-3.5v-3.66c0-2.12-0.26-3.52-2.82-3.52h-2.66
			v10.67H156.11z"/>
		<path class="st2" d="M164.92,49.52c0-2.7,1.72-4.47,5.15-4.47h3.38c0.68,0,1.12,0.44,1.12,1.12v0.56c0,0.68-0.44,1.12-1.12,1.12
			h-3.33c-1.4,0-1.84,0.63-1.84,1.93v1.82h4.47c0.68,0,1.12,0.44,1.12,1.12v0.54c0,0.68-0.44,1.12-1.12,1.12h-4.47v2.24
			c0,1.33,0.44,1.91,1.84,1.91h3.43c0.68,0,1.12,0.44,1.12,1.12v0.56c0,0.68-0.44,1.12-1.12,1.12h-3.47c-3.4,0-5.15-1.77-5.15-4.45
			V49.52z"/>
		<path class="st2" d="M176.73,46.33c-0.23-0.75,0.12-1.28,0.86-1.28h1.14c0.68,0,1.14,0.33,1.33,0.96l2.38,8.08
			c0.28,0.93,0.58,2.28,0.84,3.54c0.28-1.26,0.58-2.61,0.86-3.54l2.35-8.01c0.19-0.63,0.68-1.03,1.35-1.03h1.14
			c0.75,0,1.1,0.54,0.84,1.33l-4.29,13.72c-0.23,0.75-0.82,1.21-1.49,1.21h-1.51c-0.68,0-1.26-0.47-1.49-1.21L176.73,46.33z"/>
		<path class="st4" d="M197.93,45.71c0-0.7,0.46-1.15,1.15-1.15h1.15c0.7,0,1.15,0.46,1.15,1.15v14.45c0,0.7-0.46,1.15-1.15,1.15
			h-1.15c-0.7,0-1.15-0.46-1.15-1.15V45.71z"/>
		<path class="st4" d="M204.48,50.44c0-3.98,2.42-6.19,6.24-6.19c1.78,0,3,0.24,3.98,0.48c0.53,0.14,0.77,0.58,0.65,1.13l-0.22,0.98
			c-0.12,0.53-0.62,0.77-1.15,0.62c-0.65-0.14-1.54-0.34-2.78-0.34c-1.97,0-3.17,0.84-3.17,3.58v4.46c0,2.74,1.2,3.58,3.17,3.58
			c1.54,0,2.47-0.26,2.9-0.36c0.58-0.14,0.91,0.12,1.03,0.65l0.22,0.98c0.1,0.48-0.12,0.98-0.65,1.13
			c-0.55,0.14-1.99,0.48-3.98,0.48c-3.82,0-6.24-2.18-6.24-6.19V50.44z"/>
		<path class="st4" d="M217.92,51.4c0-4.13,2.47-7.15,6.74-7.15s6.74,3.02,6.74,7.15v3.07c0,4.13-2.47,7.15-6.74,7.15
			s-6.74-3.02-6.74-7.15V51.4z M227.85,54.21v-2.54c0-2.42-0.65-4.54-3.19-4.54c-2.52,0-3.19,2.11-3.19,4.54v2.54
			c0,2.45,0.67,4.54,3.19,4.54C227.21,58.75,227.85,56.66,227.85,54.21z"/>
		<path class="st4" d="M234.48,45.71c0-0.7,0.46-1.15,1.15-1.15h0.96c0.7,0,1.22,0.38,1.61,1.06l5.33,9.41
			c-0.14-1.2-0.22-2.4-0.22-3.31v-6c0-0.7,0.46-1.15,1.15-1.15h1.1c0.7,0,1.15,0.46,1.15,1.15v14.45c0,0.7-0.46,1.15-1.15,1.15
			h-0.96c-0.7,0-1.25-0.38-1.63-1.06l-5.3-9.36c0.12,1.2,0.22,2.38,0.22,3.26v6c0,0.7-0.46,1.15-1.15,1.15h-1.1
			c-0.7,0-1.15-0.46-1.15-1.15V45.71z"/>
		<path class="st4" d="M249.6,59.56l0.14-0.62c0.17-0.74,0.7-0.94,1.34-0.74c0.46,0.12,1.73,0.55,3.24,0.55
			c1.63,0,2.3-0.86,2.3-2.02c0-3.26-6.94-2.04-6.94-7.78c0-2.98,2.5-4.7,5.78-4.7c1.54,0,2.59,0.34,3.19,0.53
			c0.65,0.22,1.01,0.74,0.77,1.46l-0.17,0.53c-0.22,0.65-0.77,0.94-1.46,0.72c-0.55-0.17-1.3-0.36-2.33-0.36
			c-1.44,0-2.16,0.72-2.16,1.82c0,2.81,6.94,2.09,6.94,7.78c0,2.95-2.4,4.9-5.93,4.9c-1.66,0-2.95-0.36-3.89-0.65
			C249.74,60.76,249.43,60.33,249.6,59.56z"/>
	</g>
</g>
</svg>
