<?xml version="1.0" encoding="utf-8"?>
<!-- Generator: Adobe Illustrator 24.1.1, SVG Export Plug-In . SVG Version: 6.00 Build 0)  -->
<svg version="1.1" xmlns="http://www.w3.org/2000/svg" x="0px" y="0px"
     viewBox="0 0 448 448" style="enable-background:new 0 0 448 448;" xml:space="preserve">
<style type="text/css">
	.st0{display:none;}
	.st1{display:inline;fill:#FFFFFF;}
	.st2{fill:#173042;}
	.st3{display:inline;}
	.st4{fill:#869093;}
</style>
<g id="grid" class="st0">
	<rect x="30" y="98" class="st1" width="48" height="48"/>
	<rect x="98" y="98" class="st1" width="48" height="48"/>
	<rect x="166" y="98" class="st1" width="48" height="48"/>
	<rect x="234" y="98" class="st1" width="48" height="48"/>
	<rect x="302" y="98" class="st1" width="48" height="48"/>
	<rect x="370" y="98" class="st1" width="48" height="48"/>
	<rect x="30" y="166" class="st1" width="48" height="48"/>
	<rect x="98" y="166" class="st1" width="48" height="48"/>
	<rect x="166" y="166" class="st1" width="48" height="48"/>
	<rect x="234" y="166" class="st1" width="48" height="48"/>
	<rect x="302" y="166" class="st1" width="48" height="48"/>
	<rect x="370" y="166" class="st1" width="48" height="48"/>
	<rect x="30" y="234" class="st1" width="48" height="48"/>
	<rect x="98" y="234" class="st1" width="48" height="48"/>
	<rect x="370" y="234" class="st1" width="48" height="48"/>
	<rect x="30" y="302" class="st1" width="48" height="48"/>
	<rect x="98" y="302" class="st1" width="48" height="48"/>
	<rect x="166" y="234" class="st1" width="48" height="48"/>
	<rect x="234" y="234" class="st1" width="48" height="48"/>
	<rect x="302" y="234" class="st1" width="48" height="48"/>
	<rect x="166" y="302" class="st1" width="48" height="48"/>
	<rect x="234" y="302" class="st1" width="48" height="48"/>
	<rect x="302" y="302" class="st1" width="48" height="48"/>
	<rect x="370" y="302" class="st1" width="48" height="48"/>
	<rect x="30" y="370" class="st1" width="48" height="48"/>
	<rect x="98" y="370" class="st1" width="48" height="48"/>
	<rect x="166" y="370" class="st1" width="48" height="48"/>
	<rect x="234" y="370" class="st1" width="48" height="48"/>
	<rect x="302" y="370" class="st1" width="48" height="48"/>
	<rect x="370" y="370" class="st1" width="48" height="48"/>
</g>
<g id="icons">
	<g>
		<g>
			<path class="st2" d="M410.5,381.5h-32c-2.21,0-4,1.79-4,4v18c0,2.21,1.79,4,4,4h32c2.21,0,4-1.79,4-4v-18
				C414.5,383.29,412.71,381.5,410.5,381.5z M404,401.47v0.03h-18.5c-3.86,0-7-3.14-7-7s3.14-7,7-7c3.86,0,7,3.14,7,7
				c0,1.49-0.47,2.86-1.26,4h6.53c-0.79-1.14-1.26-2.51-1.26-4c0-3.86,3.14-7,7-7c3.86,0,7,3.14,7,7
				C410.5,398.19,407.63,401.22,404,401.47z"/>
			<path class="st2" d="M385.5,390.5c-2.21,0-4,1.79-4,4s1.79,4,4,4c2.21,0,4-1.79,4-4S387.71,390.5,385.5,390.5z M403.5,390.5
				c-2.21,0-4,1.79-4,4s1.79,4,4,4c2.21,0,4-1.79,4-4S405.71,390.5,403.5,390.5z"/>
		</g>
	</g>
	<g>
		<g>
			<g>
				<g>
					<path class="st2" d="M339.8,381h-28c-0.69,0-1.25,0.56-1.25,1.25c0,0.69,0.56,1.25,1.25,1.25h28c0.69,0,1.25-0.56,1.25-1.25
						C341.05,381.56,340.49,381,339.8,381z"/>
					<path class="st2" d="M344.02,391.6c0.87-0.24,1.48-1.02,1.48-1.93V388c0-1.1-0.9-2-2-2h-7.34v1.5c0,0.69-0.56,1.25-1.25,1.25
						s-1.25-0.56-1.25-1.25V386H309.5c-1.1,0-2,0.9-2,2v1.64c0,0.94,0.66,1.72,1.57,1.95c2.55,0.64,3.31,2.82,3.31,5.41
						c0,2.57-1.01,4.74-3.4,5.4c-0.87,0.24-1.48,1.02-1.48,1.93V406c0,1.1,0.9,2,2,2h24.16v-1.5c0-0.69,0.56-1.25,1.25-1.25
						s1.25,0.56,1.25,1.25v1.5h7.34c1.1,0,2-0.9,2-2v-1.64c0-0.94-0.66-1.72-1.57-1.95c-2.55-0.64-3.31-2.82-3.31-5.41
						C340.62,394.43,341.63,392.26,344.02,391.6z M328.72,396.62l-1.61,1.57c-0.21,0.21-0.31,0.51-0.26,0.8l0.38,2.22
						c0.13,0.74-0.65,1.31-1.32,0.96l-1.99-1.05c-0.26-0.14-0.58-0.14-0.85,0l-1.99,1.05c-0.67,0.35-1.44-0.22-1.32-0.96l0.38-2.22
						c0.05-0.29-0.05-0.6-0.26-0.8l-1.61-1.57c-0.54-0.53-0.24-1.44,0.5-1.55l2.23-0.32c0.3-0.04,0.55-0.23,0.68-0.5l1-2.02
						c0.33-0.67,1.3-0.67,1.63,0l1,2.02c0.13,0.27,0.39,0.45,0.68,0.5l2.23,0.32C328.97,395.18,329.26,396.09,328.72,396.62z
						 M336.16,402.37c0,0.69-0.56,1.25-1.25,1.25s-1.25-0.56-1.25-1.25v-3.3c0-0.69,0.56-1.25,1.25-1.25s1.25,0.56,1.25,1.25V402.37
						z M336.16,394.93c0,0.69-0.56,1.25-1.25,1.25s-1.25-0.56-1.25-1.25v-3.3c0-0.69,0.56-1.25,1.25-1.25s1.25,0.56,1.25,1.25
						V394.93z"/>
				</g>
			</g>
		</g>
	</g>
	<g>
		<g>
			<path class="st2" d="M275.75,379.42h-2c-1.1,0-2,0.9-2,2v26c0,1.1,0.9,2,2,2h2c1.1,0,2-0.9,2-2v-26
				C277.75,380.32,276.85,379.42,275.75,379.42z"/>
			<path class="st2" d="M268.61,382.3l-22.5,6.33c-0.22,0.06-0.36,0.26-0.36,0.48v11.94h0v3.97c0,1.63,1.18,3.02,2.79,3.29
				l7.33,1.22c0.18,0.03,0.37,0.05,0.55,0.05c0.78,0,1.54-0.28,2.15-0.79c0.75-0.63,1.18-1.56,1.18-2.54v-1.4l8.87,2.4
				c0.32,0.09,0.63-0.15,0.63-0.48v-23.98C269.25,382.45,268.93,382.21,268.61,382.3z M256.75,406.25c0,0.13-0.06,0.21-0.12,0.25
				c-0.05,0.05-0.14,0.1-0.27,0.07c0,0,0,0,0,0l-7.33-1.22c-0.16-0.03-0.28-0.17-0.28-0.33v-3.16l8,2.17V406.25z M242.75,389.42
				h-1.5c-1.1,0-2,0.9-2,2v7c0,1.1,0.9,2,2,2h1.5c0.28,0,0.5-0.22,0.5-0.5v-10C243.25,389.65,243.03,389.42,242.75,389.42z"/>
		</g>
	</g>
	<g>
		<g>
			<path class="st2" d="M204,384.55h-27c-0.55,0-1,0.45-1,1v4c0,0.55,0.45,1,1,1h3.09l1.73,19H179c-0.55,0-1,0.45-1,1v2
				c0,0.55,0.45,1,1,1h23c0.55,0,1-0.45,1-1v-2c0-0.55-0.45-1-1-1h-2.82l1.73-19H204c0.55,0,1-0.45,1-1v-4
				C205,385,204.55,384.55,204,384.55z M194.5,402.17c0,0.27-0.11,0.52-0.29,0.71l-1.38,1.38c-0.19,0.19-0.44,0.29-0.71,0.29h-3.23
				c-0.27,0-0.52-0.11-0.71-0.29l-1.38-1.38c-0.19-0.19-0.29-0.44-0.29-0.71v-7.23c0-0.27,0.11-0.52,0.29-0.71l1.38-1.38
				c0.19-0.19,0.44-0.29,0.71-0.29h3.23c0.27,0,0.52,0.11,0.71,0.29l1.38,1.38c0.19,0.19,0.29,0.44,0.29,0.71V402.17z"/>
			<path class="st2" d="M192.74,376.44c-0.49-0.99-1.9-1.29-3.13-0.67c-0.95,0.48-1.52,1.36-1.51,2.19l-2.21,1.47
				c-0.56,0.37-0.89,0.99-0.89,1.66v0.63c0,0.55,0.45,1,1,1c0.55,0,1-0.45,1-1v-0.63l2.33-1.55c0.61,0.2,1.36,0.16,2.07-0.2
				C192.63,378.73,193.23,377.42,192.74,376.44z"/>
		</g>
	</g>
	<g>
		<g>
			<path class="st2" d="M132.82,396.42c-0.4-0.1-0.8-0.22-1.2-0.34c-0.65,1.47-4.45,2.6-9.05,2.6c-4.53,0-8.28-1.09-9.02-2.53
				c-0.28,0.1-0.57,0.21-0.85,0.29c-1.79,0.54-3.62,0.91-5.51,0.99c-0.27,0-0.53,0-0.8-0.01c2.37,4.43,8.74,9.19,16.25,9.19
				c7.76,0,14.31-5.07,16.47-9.62c-0.24,0.02-0.49,0.06-0.73,0.07C136.48,397.12,134.63,396.86,132.82,396.42z M143.58,392.9
				c-0.16-0.3-0.53-0.42-0.84-0.26l-0.12,0.06c-0.56,0.29-1.17,0.43-1.81,0.47c-4.03-0.09-7.92-6.88-8.38-7.71
				c-0.79-1.8-2.73-3.07-5.01-3.07c-2.15,0-3.99,1.14-4.86,2.77c-0.87-1.64-2.71-2.77-4.86-2.77c-2.24,0-4.17,1.23-4.98,2.99l0,0
				c0,0-3.6,6.69-7.56,7.67c-0.93,0.05-1.82-0.04-2.58-0.43l-0.16-0.08c-0.26-0.13-0.59-0.1-0.82,0.1
				c-0.31,0.27-0.35,0.74-0.08,1.05c0.73,0.85,1.74,1.31,2.71,1.55c0.98,0.25,1.96,0.34,2.91,0.33c1.91-0.06,3.76-0.41,5.56-0.94
				c0.9-0.26,1.79-0.58,2.67-1c0.71-0.34,1.33-0.52,2.04-0.57c0.34-0.02,0.69-0.01,1.03,0.04c0.17,0.03,0.34,0.06,0.5,0.1
				c0.16,0.04,0.31,0.09,0.59,0.17c0.98,0.28,2,0.44,3.03,0.43c1.02-0.02,2.04-0.17,3.02-0.46c0.28-0.08,0.42-0.13,0.59-0.17
				c0.17-0.05,0.34-0.08,0.51-0.1c0.34-0.05,0.69-0.07,1.03-0.05c0.71,0.05,1.34,0.22,2.06,0.56c0.87,0.43,1.77,0.72,2.67,0.98
				c1.8,0.51,3.64,0.86,5.54,0.9c0.95,0,1.92-0.1,2.88-0.34c0.95-0.24,1.94-0.7,2.64-1.52C143.66,393.4,143.7,393.13,143.58,392.9z"
				/>
			<path class="st2" d="M106.74,383.74c-0.9,0-1.63,0.73-1.63,1.63c0,0.9,0.73,1.63,1.63,1.63c0.9,0,1.63-0.73,1.63-1.63
				C108.37,384.48,107.64,383.74,106.74,383.74z"/>
		</g>
	</g>
	<g>
		<g>
			<path class="st2" d="M43.29,389.8l-4.38-5.92c-0.2-0.27-0.6-0.27-0.8,0l-4.4,5.95c-0.24,0.33-0.01,0.8,0.4,0.8l8.79-0.03
				C43.3,390.59,43.53,390.13,43.29,389.8z M45.92,393.32c-0.06-0.21-0.26-0.36-0.48-0.36H35.26c-0.44,0-0.66,0.52-0.37,0.84
				l14.69,17.71c0.36,0.38,0.99,0.03,0.85-0.48L45.92,393.32z M50.06,390.46h8.81c0.41,0,0.65-0.47,0.4-0.8l-4.4-5.95
				c-0.2-0.27-0.6-0.27-0.8,0l-4.4,5.95C49.41,389.99,49.65,390.46,50.06,390.46z M75.3,389.66l-4.4-5.95c-0.2-0.27-0.6-0.27-0.8,0
				l-4.4,5.95c-0.24,0.33-0.01,0.8,0.4,0.8h8.81C75.31,390.46,75.55,389.99,75.3,389.66z M73.45,392.96H63.38
				c-0.21,0-0.4,0.13-0.47,0.33l-5.6,17.54c-0.18,0.5,0.44,0.9,0.82,0.52l15.67-17.54C74.12,393.5,73.89,392.96,73.45,392.96z
				 M59.71,392.96H49.07c-0.33,0-0.57,0.32-0.48,0.64l4.72,18.42c0.13,0.47,0.79,0.49,0.95,0.03l5.92-18.42
				C60.29,393.3,60.05,392.96,59.71,392.96z"/>
			<path class="st2" d="M66.89,382.49h-8.81c-0.41,0-0.65,0.47-0.4,0.8l4.4,5.95c0.2,0.27,0.6,0.27,0.8,0l4.4-5.95
				C67.54,382.96,67.3,382.49,66.89,382.49z M51.48,381.66c-2.96-0.96-3.91-1.92-4.87-4.87c-0.07-0.21-0.37-0.21-0.43,0
				c-0.96,2.96-1.92,3.91-4.87,4.87c-0.21,0.07-0.21,0.36,0,0.43c2.96,0.96,3.91,1.92,4.87,4.87c0.07,0.21,0.36,0.21,0.43,0
				c0.96-2.96,1.92-3.91,4.87-4.87C51.69,382.02,51.69,381.73,51.48,381.66z M71.24,408.74c-1.83-0.6-2.42-1.19-3.02-3.02
				c-0.04-0.13-0.23-0.13-0.27,0c-0.6,1.83-1.19,2.42-3.02,3.02c-0.13,0.04-0.13,0.23,0,0.27c1.83,0.6,2.42,1.19,3.02,3.02
				c0.04,0.13,0.23,0.13,0.27,0c0.6-1.83,1.19-2.42,3.02-3.02C71.38,408.97,71.38,408.78,71.24,408.74z"/>
		</g>
	</g>
	<g>
		<g>
			<path class="st2" d="M405.52,323.49h-21.07c-1.64,0-2.96,1.33-2.96,2.96h27C408.48,324.81,407.16,323.49,405.52,323.49z"/>
			<path class="st2" d="M383.5,320.92c0.83,0,1.5-0.67,1.5-1.5v-2.39h19v2.39c0,0.83,0.67,1.5,1.5,1.5s1.5-0.67,1.5-1.5v-12.89
				c0-0.83-0.67-1.5-1.5-1.5s-1.5,0.67-1.5,1.5v0.5h-19v-0.5c0-0.83-0.67-1.5-1.5-1.5s-1.5,0.67-1.5,1.5v12.89
				C382,320.25,382.67,320.92,383.5,320.92z M407,332.97c1.1,0,2-0.9,2-2c0-1.1-0.9-2-2-2h-25c-1.1,0-2,0.9-2,2c0,1.1,0.9,2,2,2
				h1.04l8.51,5.81l-9.87,6.44c-0.69,0.45-0.89,1.38-0.44,2.08c0.29,0.44,0.77,0.68,1.26,0.68c0.28,0,0.57-0.08,0.82-0.24
				l10.92-7.12l10.42,7.1c0.26,0.18,0.55,0.26,0.84,0.26c0.48,0,0.95-0.23,1.24-0.66c0.47-0.68,0.29-1.62-0.39-2.08l-9.39-6.4
				l8.99-5.86H407z M394.27,337l-5.91-4.03h12.09L394.27,337z"/>
		</g>
	</g>
	<g>
		<g>
			<path class="st2" d="M342.5,315.73h-17.97l18.4-5.52c0.79-0.24,1.24-1.07,1.01-1.87c-0.24-0.79-1.07-1.24-1.87-1.01l-27.98,8.39
				h-3.59c-2.21,0-4,1.79-4,4v22c0,2.21,1.79,4,4,4h32c2.21,0,4-1.79,4-4v-22C346.5,317.52,344.71,315.73,342.5,315.73z
				 M318.45,342.99c-3.62,0-6.56-3.01-6.56-6.71c0-3.7,2.94-6.71,6.56-6.71c3.62,0,6.56,3.01,6.56,6.71
				C325.01,339.97,322.06,342.99,318.45,342.99z M339.5,340.5h-8c-0.83,0-1.5-0.67-1.5-1.5s0.67-1.5,1.5-1.5h8
				c0.83,0,1.5,0.67,1.5,1.5S340.33,340.5,339.5,340.5z M339.5,334.5h-8c-0.83,0-1.5-0.67-1.5-1.5s0.67-1.5,1.5-1.5h8
				c0.83,0,1.5,0.67,1.5,1.5S340.33,334.5,339.5,334.5z M343,324.27c0,0.55-0.45,1-1,1h-31c-0.55,0-1-0.45-1-1v-3c0-0.55,0.45-1,1-1
				h31c0.55,0,1,0.45,1,1V324.27z"/>
			<path class="st2" d="M318.45,332.06c-2.24,0-4.06,1.89-4.06,4.21c0,2.32,1.82,4.21,4.06,4.21c2.24,0,4.06-1.89,4.06-4.21
				C322.51,333.95,320.68,332.06,318.45,332.06z"/>
		</g>
	</g>
	<g>
		<g>
			<g>
				<path class="st2" d="M268.96,312.69l-5.82-1.42l-3.45-5.38c-0.56-0.87-1.83-0.87-2.39,0l-3.45,5.38l-5.82,1.42
					c-1.04,0.25-1.44,1.53-0.72,2.33l4.22,4.7l-0.65,5.95c-0.12,1.1,1,1.9,2,1.44l5.62-2.58l5.62,2.58c1,0.46,2.12-0.35,2-1.44
					l-0.65-5.95l4.22-4.7C270.4,314.22,270.01,312.95,268.96,312.69z"/>
				<path class="st2" d="M268,344.75h-1.5v-2.13c0-2.14-1.73-3.87-3.87-3.87h-8.27c-2.13,0-3.87,1.73-3.87,3.87v2.13H249
					c-0.28,0-0.5,0.22-0.5,0.5v2c0,0.28,0.22,0.5,0.5,0.5h19c0.28,0,0.5-0.22,0.5-0.5v-2C268.5,344.97,268.28,344.75,268,344.75z
					 M262.94,343.25c0,0.28-0.22,0.5-0.5,0.5h-7.89c-0.28,0-0.5-0.22-0.5-0.5v-1c0-0.28,0.22-0.5,0.5-0.5h7.89
					c0.28,0,0.5,0.22,0.5,0.5V343.25z M255,336.25h7c0.28,0,0.5-0.22,0.5-0.5v-6.62l-4-1.83l-4,1.83v6.62
					C254.5,336.03,254.72,336.25,255,336.25z"/>
			</g>
		</g>
	</g>
	<g>
		<g>
			<path class="st2" d="M195.87,308.28c-0.68-0.48-1.61-0.32-2.09,0.36l-4.34,6.11l-3.26-4.17c-0.51-0.65-1.45-0.77-2.11-0.26
				c-0.65,0.51-0.77,1.45-0.26,2.11l4.5,5.75c0.28,0.36,0.72,0.58,1.18,0.58h0.04c0.47-0.01,0.91-0.25,1.19-0.63l5.5-7.75
				C196.7,309.69,196.54,308.76,195.87,308.28z"/>
			<path class="st2" d="M207.5,316h-34c-2.21,0-4,1.79-4,4v21c0,2.21,1.79,4,4,4h34c2.21,0,4-1.79,4-4v-21
				C211.5,317.79,209.71,316,207.5,316z M198.5,337c0,2.21-1.79,4-4,4h-17c-2.21,0-4-1.79-4-4v-13c0-2.21,1.79-4,4-4h17
				c2.21,0,4,1.79,4,4V337z M204.5,337.3c-1.27,0-2.3-1.03-2.3-2.3s1.03-2.3,2.3-2.3c1.27,0,2.3,1.03,2.3,2.3
				S205.77,337.3,204.5,337.3z M204.5,328.3c-1.27,0-2.3-1.03-2.3-2.3s1.03-2.3,2.3-2.3c1.27,0,2.3,1.03,2.3,2.3
				S205.77,328.3,204.5,328.3z"/>
		</g>
	</g>
	<g>
		<g>
			<circle class="st2" cx="122.5" cy="326.5" r="2"/>
			<path class="st2" d="M122.5,309.5c-9.39,0-17,7.61-17,17s7.61,17,17,17c9.39,0,17-7.61,17-17S131.89,309.5,122.5,309.5z
				 M119.56,313.83c0.95-0.22,1.93-0.33,2.94-0.33s2,0.12,2.94,0.33c1.06,0.24,1.43,1.57,0.68,2.35l-2.61,2.72
				c-0.55,0.58-1.48,0.58-2.03,0l-2.61-2.72C118.13,315.4,118.5,314.08,119.56,313.83z M109.38,325.62c0.1-1.21,0.36-2.41,0.78-3.54
				c0.28-0.76,0.64-1.49,1.06-2.19c0.57-0.92,1.91-0.88,2.43,0.06l2.01,3.63c0.41,0.74,0.08,1.67-0.7,1.99l-3.64,1.49
				C110.34,327.46,109.29,326.68,109.38,325.62z M117.34,338.79c-1.68-0.72-3.18-1.77-4.41-3.08c-0.84-0.89-0.26-2.34,0.95-2.39
				l3.57-0.15c0.73-0.03,1.36,0.5,1.46,1.23l0.37,2.91C119.43,338.38,118.34,339.21,117.34,338.79z M122.5,330.5c-2.21,0-4-1.79-4-4
				s1.79-4,4-4c2.21,0,4,1.79,4,4S124.71,330.5,122.5,330.5z M132.07,335.71c-1.23,1.31-2.73,2.37-4.41,3.08
				c-1,0.43-2.08-0.41-1.94-1.49l0.37-2.91c0.09-0.73,0.73-1.26,1.46-1.23l3.57,0.15C132.33,333.36,132.91,334.82,132.07,335.71z
				 M133.68,327.06l-3.64-1.49c-0.78-0.32-1.11-1.25-0.7-1.98l2-3.63c0.52-0.95,1.88-0.99,2.44-0.06c1.05,1.74,1.68,3.71,1.85,5.74
				C135.71,326.69,134.66,327.46,133.68,327.06z"/>
		</g>
	</g>
	<g>
		<g>
			<path class="st2" d="M57.75,317.5h-1v-4c0-1.65-1.35-3-3-3H38.78c-1.1,0-2,0.9-2,2s0.9,2,2,2h13.97v3h-15c-2.21,0-4,1.79-4,4v17
				c0,2.21,1.79,4,4,4h20c2.21,0,4-1.79,4-4v-17C61.75,319.29,59.96,317.5,57.75,317.5z M55.44,325.06c-1.1,0-2-0.9-2-2
				c0-1.1,0.9-2,2-2c1.1,0,2,0.9,2,2C57.43,324.17,56.54,325.06,55.44,325.06z"/>
			<path class="st2" d="M72.29,321.11l-7,3.82c-0.64,0.35-1.04,1.02-1.04,1.76v6.63c0,0.73,0.4,1.41,1.04,1.76l7,3.82
				c1.33,0.73,2.96-0.24,2.96-1.76v-14.26C75.25,321.35,73.63,320.39,72.29,321.11z"/>
		</g>
	</g>
	<g>
		<g>
			<g>
				<path class="st2" d="M410.5,273.13h-32c-1.1,0-2,0.9-2,2s0.9,2,2,2h32c1.1,0,2-0.9,2-2S411.6,273.13,410.5,273.13z"/>
				<path class="st2" d="M380.07,239.88l7.53,7.37h12.86l7.86-7.37H380.07z M390.4,245.35c-1,0-1.8-0.81-1.8-1.8
					c0-0.99,0.81-1.8,1.8-1.8s1.8,0.81,1.8,1.8C392.2,244.55,391.39,245.35,390.4,245.35z M397.6,245.35c-1,0-1.8-0.81-1.8-1.8
					c0-0.99,0.81-1.8,1.8-1.8c1,0,1.8,0.81,1.8,1.8C399.41,244.55,398.6,245.35,397.6,245.35z M378.25,270.63h8.5v-20.71l-8.5-8.32
					V270.63z M382.51,249.49c0.99,0,1.8,0.81,1.8,1.8c0,1-0.81,1.8-1.8,1.8c-1,0-1.8-0.81-1.8-1.8
					C380.71,250.3,381.52,249.49,382.51,249.49z M382.51,256.79c0.99,0,1.8,0.81,1.8,1.8c0,1-0.81,1.8-1.8,1.8
					c-1,0-1.8-0.81-1.8-1.8C380.71,257.59,381.52,256.79,382.51,256.79z M382.51,264.08c0.99,0,1.8,0.81,1.8,1.8
					c0,1-0.81,1.8-1.8,1.8c-1,0-1.8-0.81-1.8-1.8C380.71,264.89,381.52,264.08,382.51,264.08z M401.25,249.93v20.7h8.5v-28.66
					L401.25,249.93z M405.48,267.68c-1,0-1.8-0.81-1.8-1.8c0-1,0.81-1.8,1.8-1.8c1,0,1.8,0.81,1.8,1.8
					C407.28,266.88,406.47,267.68,405.48,267.68z M405.48,260.39c-1,0-1.8-0.81-1.8-1.8c0-1,0.81-1.8,1.8-1.8c1,0,1.8,0.81,1.8,1.8
					C407.28,259.58,406.47,260.39,405.48,260.39z M405.48,253.09c-1,0-1.8-0.81-1.8-1.8c0-1,0.81-1.8,1.8-1.8c1,0,1.8,0.81,1.8,1.8
					C407.28,252.29,406.47,253.09,405.48,253.09z"/>
			</g>
		</g>
	</g>
	<g>
		<g>
			<circle class="st2" cx="321" cy="273" r="3"/>
			<path class="st2" d="M313.59,271.5H310c-0.83,0-1.5,0.67-1.5,1.5s0.67,1.5,1.5,1.5h3.59c0.81,0,1.42-0.68,1.41-1.48v-0.03
				C315,272.18,314.4,271.5,313.59,271.5z M342,241h-31c-1.66,0-3,1.34-3,3v20c0,1.66,1.34,3,3,3h31c1.66,0,3-1.34,3-3v-20
				C345,242.34,343.66,241,342,241z M332.56,254.78l-8.67,5.31c-0.61,0.37-1.39-0.07-1.39-0.78v-10.62c0-0.71,0.78-1.15,1.39-0.78
				l8.67,5.31C333.15,253.58,333.15,254.42,332.56,254.78z M343,271.5h-14.59c-0.81,0-1.42,0.68-1.41,1.48v0.03
				c0,0.81,0.6,1.48,1.41,1.48H343c0.83,0,1.5-0.67,1.5-1.5S343.83,271.5,343,271.5z"/>
		</g>
	</g>
	<g>
		<g>
			<path class="st2" d="M262.91,248.41c-0.34-0.38-0.9-0.48-1.33-0.22l-2.63,1.58c-0.32,0.19-0.72,0.2-1.04,0.01l-2.6-1.48
				c-0.44-0.25-1.01-0.14-1.33,0.25c-0.83,1.01-1.33,2.28-1.33,3.69c0,0.98,0.25,1.9,0.69,2.71c0.28,0.52,0.95,0.71,1.46,0.4
				l2.47-1.48v5.69c0,0.69,0.56,1.25,1.25,1.25s1.25-0.56,1.25-1.25v-5.81l2.57,1.46c0.52,0.29,1.19,0.1,1.45-0.44
				c0.37-0.77,0.59-1.62,0.59-2.53C264.36,250.77,263.81,249.43,262.91,248.41z"/>
			<path class="st2" d="M274.06,245.3l-3.57-0.89c-0.72-1.04-1.82-1.78-3.08-2.04c-2.93-0.61-5.92-0.92-8.91-0.92
				c-2.99,0-5.99,0.31-8.91,0.92c-1.29,0.27-2.41,1.03-3.13,2.12l-3.5,0.83c-0.85,0.2-1.46,1.04-1.46,2.02v26.17
				c0,1.14,0.82,2.06,1.84,2.06h30.32c1.01,0,1.84-0.92,1.84-2.06v-26.19C275.5,246.34,274.9,245.51,274.06,245.3z M258.5,268.97
				c-0.76,0-1.52-0.42-1.86-1.26L248.76,248c-0.46-1.15,0.23-2.45,1.45-2.7c2.74-0.57,5.52-0.86,8.3-0.86c2.78,0,5.56,0.29,8.3,0.86
				c1.22,0.26,1.91,1.55,1.45,2.7l-7.89,19.72C260.02,268.55,259.26,268.97,258.5,268.97z M271,271.25h-6
				c-0.69,0-1.25-0.56-1.25-1.25s0.56-1.25,1.25-1.25h6c0.69,0,1.25,0.56,1.25,1.25S271.69,271.25,271,271.25z"/>
		</g>
	</g>
	<g>
		<g>
			<path class="st2" d="M208.3,241.2l-7,3.5c-0.34,0.17-0.55,0.52-0.55,0.89v16.64c0,0.38,0.21,0.73,0.55,0.89l7,3.5
				c0.66,0.33,1.45-0.15,1.45-0.89v-23.64C209.75,241.35,208.97,240.86,208.3,241.2z"/>
			<path class="st2" d="M197.25,244.91h-18c-2.21,0-4,1.79-4,4v1h-2c-1.1,0-2,0.9-2,2v4c0,1.1,0.9,2,2,2h2v1c0,2.21,1.79,4,4,4h6v11
				c0,1.1,0.9,2,2,2c1.1,0,2-0.9,2-2l-0.03-14c0-0.69,0.56-1.25,1.25-1.25c0.69,0,1.25,0.56,1.25,1.25v3h5.53c0.55,0,1-0.45,1-1v-16
				C198.25,245.36,197.8,244.91,197.25,244.91z M186.75,256.25h-6c-0.69,0-1.25-0.56-1.25-1.25s0.56-1.25,1.25-1.25h6
				c0.69,0,1.25,0.56,1.25,1.25S187.44,256.25,186.75,256.25z M186.75,251.25h-6c-0.69,0-1.25-0.56-1.25-1.25s0.56-1.25,1.25-1.25h6
				c0.69,0,1.25,0.56,1.25,1.25S187.44,251.25,186.75,251.25z"/>
		</g>
	</g>
	<g>
		<g>
			<path class="st2" d="M118.33,277.34c0,1.1,0.9,2,2,2h4c1.1,0,2-0.9,2-2v-8.5h-8V277.34z M122.5,237.66
				c-4.61,0-8.34,3.73-8.34,8.34s3.56,6.67,8.17,6.67c4.6,0,8.51-2.06,8.51-6.67S127.11,237.66,122.5,237.66z"/>
			<path class="st2" d="M128.33,255.34h-12c-1.1,0-2,0.9-2,2v7c0,1.1,0.9,2,2,2h12c1.1,0,2-0.9,2-2v-7
				C130.33,256.23,129.43,255.34,128.33,255.34z M126.33,263.84h-8c-0.55,0-1-0.45-1-1c0-0.55,0.45-1,1-1h8c0.55,0,1,0.45,1,1
				C127.33,263.39,126.88,263.84,126.33,263.84z M126.33,259.84h-8c-0.55,0-1-0.45-1-1c0-0.55,0.45-1,1-1h8c0.55,0,1,0.45,1,1
				C127.33,259.39,126.88,259.84,126.33,259.84z"/>
		</g>
	</g>
	<g>
		<g>
			<path class="st2" d="M49.2,267.89c-2.26-1.12-3.72-2.99-3.72-5.14c0-1.96,1.2-3.68,3.12-4.82l-0.26-4.3c0,0,0-0.01,0-0.01
				l-0.05-0.84c-0.1-1.63-1.45-2.9-3.08-2.9h-0.3c-0.89,0-1.74,0.39-2.33,1.06c-0.59,0.68-0.85,1.57-0.73,2.46l3.33,23.48
				c0.12,0.86,0.87,1.5,1.73,1.5h2.92l-0.62-10.27L49.2,267.89z M63.06,243.46c0-0.01,0-0.02,0-0.03c0-2.65-2.15-4.8-4.8-4.8
				c-1.8,0-3.35,1-4.17,2.46c-0.75-0.55-1.67-0.88-2.67-0.88c-2.15,0-3.93,1.49-4.42,3.49c-0.11-0.01-0.22-0.03-0.33-0.03
				c-2.42,0-4.38,1.96-4.38,4.38c0.8-0.43,1.7-0.67,2.63-0.67h0.3c1.8,0,3.41,0.86,4.43,2.2c0.1-0.12,0.19-0.24,0.3-0.35
				c1.11-1.18,2.67-1.85,4.29-1.85c1.62,0,3.18,0.68,4.29,1.85c0.1,0.11,0.2,0.23,0.3,0.35c1.02-1.34,2.63-2.2,4.43-2.2
				c1.41,0,2.77,0.53,3.79,1.48c0.08-0.34,0.14-0.68,0.14-1.04C67.18,245.48,65.35,243.6,63.06,243.46z M63.25,249.87
				c-1.63,0-2.98,1.27-3.08,2.9l-0.31,5.15c1.92,1.14,3.12,2.86,3.12,4.82c0,2.16-1.46,4.02-3.72,5.14l-0.63,10.48h2.62
				c0.87,0,1.61-0.65,1.73-1.5l3.33-23.48c0.13-0.89-0.14-1.78-0.73-2.46C64.99,250.26,64.14,249.87,63.25,249.87z"/>
			<path class="st2" d="M54.23,256.5c1.13,0,2.2,0.15,3.18,0.42l0.21-3.44c0.06-0.94-0.27-1.84-0.92-2.53
				c-1.3-1.38-3.65-1.38-4.95,0c-0.65,0.69-0.97,1.59-0.92,2.53l0.21,3.45C52.03,256.65,53.1,256.5,54.23,256.5z M51.76,268.75
				l0.58,9.62h3.77l0.58-9.62c-0.78,0.16-1.61,0.25-2.47,0.25C53.37,269,52.54,268.91,51.76,268.75z M54.23,259
				c-3.39,0-6.25,1.72-6.25,3.75c0,2.03,2.86,3.75,6.25,3.75c3.39,0,6.25-1.72,6.25-3.75C60.48,260.72,57.62,259,54.23,259z"/>
		</g>
	</g>
	<g>
		<g>
			<path class="st2" d="M382.61,194.5h-2.12c0,0,0,0,0,0h-4.38c-0.31,0-0.55,0.27-0.49,0.57l1.81,9.05
				c0.04,0.22,0.25,0.39,0.49,0.39h2.57c0.28,0,0.5-0.21,0.5-0.48v-5.15c0-1.29,0.32-2.87,1.77-3.9
				C382.99,194.82,382.89,194.5,382.61,194.5z"/>
			<path class="st2" d="M409.37,197.91l-1.31-0.31c-3.57-0.84-6.76-2.64-9.31-5.1H393c-0.83,0-1.5-0.67-1.5-1.5
				c0-0.83,0.67-1.5,1.5-1.5h3.2c0-0.01-0.01-0.01-0.01-0.02c0.74-0.09,1.32-0.72,1.32-1.48c0-0.83-0.67-1.5-1.5-1.5h-5
				c-0.83,0-1.5-0.67-1.5-1.5c0-0.83,0.67-1.5,1.5-1.5h2.36l-2.26-7.15c-0.07-0.21-0.26-0.35-0.48-0.35H379.3
				c-0.19,0-0.35,0.1-0.44,0.26c-0.7,1.33-3.72,7.49-3.85,15.22c0,0.28,0.23,0.51,0.51,0.51l7.49,0c6.63,0,7,13,13,13h17
				c0.55,0,1-0.45,1-1v-0.25C414,200.97,412.08,198.55,409.37,197.91z"/>
		</g>
	</g>
	<g>
		<g>
			<g>
				<path class="st2" d="M334.63,195.73c-0.24-1.01-0.23-2.11,0.15-3.26c0.51-1.55,1.69-2.82,3.16-3.53
					c1.27-0.61,2.48-0.71,3.59-0.52c0.3,0.05,0.56-0.19,0.56-0.5v-13.6c0-1.1-0.9-2-2-2h-27c-1.1,0-2,0.9-2,2v13.58
					c0,0.3,0.26,0.54,0.56,0.49c1.29-0.19,2.71,0.01,4.23,1.03c1.07,0.72,1.92,1.76,2.33,2.98c0.4,1.17,0.42,2.3,0.17,3.32
					c-0.07,0.31,0.17,0.6,0.49,0.6h1.3c0.23,0,0.43-0.16,0.48-0.39c0.64-2.64,3.02-4.6,5.86-4.6c2.83,0,5.21,1.97,5.86,4.6
					c0.06,0.23,0.25,0.39,0.48,0.39h1.3C334.45,196.33,334.7,196.04,334.63,195.73z M331.37,184.59l-6.05,3.7
					c-0.98,0.6-2.25-0.11-2.25-1.26v-7.4c0-1.15,1.26-1.86,2.25-1.26l6.05,3.7C332.31,182.64,332.31,184.01,331.37,184.59z
					 M312.5,198.4c2.23,0,4.04-1.81,4.04-4.03c0-2.23-1.81-4.04-4.04-4.04c-2.23,0-4.03,1.81-4.03,4.04
					C308.46,196.59,310.27,198.4,312.5,198.4z M336.46,194.37c0,2.23,1.81,4.03,4.03,4.03c2.23,0,4.04-1.81,4.04-4.03
					c0-2.23-1.81-4.04-4.04-4.04C338.27,190.33,336.46,192.14,336.46,194.37z M344.52,200.43h-8.04c-1.16,0-2.17,0.6-2.76,1.51
					c-0.15,0.23-0.1,0.52,0.11,0.69c0.84,0.68,1.47,1.6,1.77,2.67c0.06,0.22,0.25,0.38,0.48,0.38h10.72c0.55,0,1-0.45,1-1v-0.95
					C347.81,201.91,346.34,200.43,344.52,200.43z M316.52,200.43h-8.04c-1.82,0-3.29,1.47-3.29,3.29v0.95c0,0.55,0.45,1,1,1h10.72
					c0.23,0,0.42-0.16,0.48-0.38c0.3-1.07,0.93-1.99,1.77-2.67c0.21-0.17,0.26-0.46,0.11-0.69
					C318.69,201.04,317.68,200.43,316.52,200.43z"/>
				<path class="st2" d="M326.5,201.4c2.23,0,4.04-1.81,4.04-4.03c0-2.23-1.81-4.04-4.04-4.04c-2.23,0-4.03,1.81-4.03,4.04
					C322.46,199.59,324.27,201.4,326.5,201.4z M330.52,203.43h-8.04c-1.82,0-3.29,1.47-3.29,3.29v0.95c0,0.55,0.45,1,1,1h12.62
					c0.55,0,1-0.45,1-1v-0.95C333.81,204.91,332.34,203.43,330.52,203.43z"/>
			</g>
		</g>
	</g>
	<g>
		<g>
			<g>
				<g>
					<g>
						<path class="st2" d="M277.5,176h-2c-0.28,0-0.5,0.22-0.5,0.5v3c0,0.28-0.22,0.5-0.5,0.5h-3c-0.28,0-0.5-0.22-0.5-0.5v-3
							c0-0.28-0.22-0.5-0.5-0.5h-24c-0.28,0-0.5,0.22-0.5,0.5v3c0,0.28-0.22,0.5-0.5,0.5h-3c-0.28,0-0.5-0.22-0.5-0.5v-3
							c0-0.28-0.22-0.5-0.5-0.5h-2c-0.28,0-0.5,0.22-0.5,0.5v28c0,0.28,0.22,0.5,0.5,0.5h2c0.28,0,0.5-0.22,0.5-0.5v-3
							c0-0.28,0.22-0.5,0.5-0.5h3c0.28,0,0.5,0.22,0.5,0.5v3c0,0.28,0.22,0.5,0.5,0.5h24c0.28,0,0.5-0.22,0.5-0.5v-3
							c0-0.28,0.22-0.5,0.5-0.5h3c0.28,0,0.5,0.22,0.5,0.5v3c0,0.28,0.22,0.5,0.5,0.5h2c0.28,0,0.5-0.22,0.5-0.5v-28
							C278,176.22,277.78,176,277.5,176z M246,197.5c0,0.28-0.22,0.5-0.5,0.5h-3c-0.28,0-0.5-0.22-0.5-0.5v-5
							c0-0.28,0.22-0.5,0.5-0.5h3c0.28,0,0.5,0.22,0.5,0.5V197.5z M246,188.5c0,0.28-0.22,0.5-0.5,0.5h-3c-0.28,0-0.5-0.22-0.5-0.5
							v-5c0-0.28,0.22-0.5,0.5-0.5h3c0.28,0,0.5,0.22,0.5,0.5V188.5z M260.07,198.35c-5.64,1.07-10.49-3.78-9.42-9.42
							c0.6-3.15,3.14-5.69,6.29-6.29c5.64-1.07,10.49,3.78,9.42,9.42C265.75,195.22,263.21,197.75,260.07,198.35z M275,197.5
							c0,0.28-0.22,0.5-0.5,0.5h-3c-0.28,0-0.5-0.22-0.5-0.5v-5c0-0.28,0.22-0.5,0.5-0.5h3c0.28,0,0.5,0.22,0.5,0.5V197.5z
							 M275,188.5c0,0.28-0.22,0.5-0.5,0.5h-3c-0.28,0-0.5-0.22-0.5-0.5v-5c0-0.28,0.22-0.5,0.5-0.5h3c0.28,0,0.5,0.22,0.5,0.5
							V188.5z"/>
						<path class="st2" d="M262.49,190l-5.6-3.43c-0.39-0.24-0.9,0.04-0.9,0.5v6.86c0,0.46,0.5,0.74,0.9,0.5l5.6-3.43
							C262.87,190.77,262.87,190.23,262.49,190z"/>
					</g>
				</g>
			</g>
		</g>
	</g>
	<g>
		<g>
			<path class="st2" d="M189.4,175.54c1.87,0,3.39-1.52,3.39-3.39c0-1.88-1.52-3.39-3.39-3.39c-1.87,0-3.39,1.52-3.39,3.39
				C186.01,174.02,187.53,175.54,189.4,175.54z M189.4,177.75c-4.42,0-8,3.58-8,8v5.5c0,0.28,0.22,0.5,0.5,0.5
				c1.46,0,2.73,1.01,3.04,2.44l1.28,5.78c0.1,0.46,0.51,0.78,0.98,0.78h4.4c0.47,0,0.87-0.33,0.98-0.78l1.28-5.78
				c0.32-1.43,1.58-2.44,3.04-2.44c0.28,0,0.5-0.22,0.5-0.5v-5.5C197.4,181.33,193.82,177.75,189.4,177.75z"/>
			<path class="st2" d="M182.1,176.45c0.4-0.16,0.4-0.74,0-0.9c-1.41-0.57-2.09-1.24-2.65-2.65c-0.16-0.4-0.74-0.4-0.9,0
				c-0.57,1.41-1.24,2.09-2.65,2.65c-0.4,0.16-0.4,0.74,0,0.9c1.41,0.57,2.09,1.24,2.65,2.65c0.16,0.4,0.74,0.4,0.9,0
				C180.02,177.69,180.69,177.02,182.1,176.45z M205.15,185.62c-1.21-0.48-1.78-1.06-2.26-2.26c-0.14-0.34-0.63-0.34-0.77,0
				c-0.48,1.21-1.06,1.78-2.26,2.26c-0.34,0.14-0.34,0.63,0,0.77c1.21,0.48,1.78,1.06,2.26,2.26c0.14,0.34,0.63,0.34,0.77,0
				c0.48-1.21,1.06-1.78,2.26-2.26C205.49,186.25,205.49,185.75,205.15,185.62z M198.9,209.25h-1.5v-5.5c0-0.28-0.22-0.5-0.5-0.5
				h-15c-0.28,0-0.5,0.22-0.5,0.5v5.5h-1.5c-0.28,0-0.5,0.22-0.5,0.5v2c0,0.28,0.22,0.5,0.5,0.5h19c0.28,0,0.5-0.22,0.5-0.5v-2
				C199.4,209.47,199.18,209.25,198.9,209.25z M193.85,207.75c0,0.28-0.22,0.5-0.5,0.5h-7.89c-0.28,0-0.5-0.22-0.5-0.5v-1
				c0-0.28,0.22-0.5,0.5-0.5h7.89c0.28,0,0.5,0.22,0.5,0.5V207.75z"/>
		</g>
	</g>
	<g>
		<g>
			<path class="st2" d="M105.25,184.5c-1.1,0-2,0.9-2,2v17c0,1.1,0.9,2,2,2c1.1,0,2-0.9,2-2v-17
				C107.25,185.4,106.35,184.5,105.25,184.5z"/>
			<path class="st2" d="M139.75,175.5h-28c-1.1,0-2,0.93-2,2.07v27.93h28c2.21,0,4-1.85,4-4.14v-23.79
				C141.75,176.43,140.85,175.5,139.75,175.5z M128.75,181.75h6c0.69,0,1.25,0.56,1.25,1.25c0,0.69-0.56,1.25-1.25,1.25h-6
				c-0.69,0-1.25-0.56-1.25-1.25C127.5,182.31,128.06,181.75,128.75,181.75z M128.75,186.75h6c0.69,0,1.25,0.56,1.25,1.25
				c0,0.69-0.56,1.25-1.25,1.25h-6c-0.69,0-1.25-0.56-1.25-1.25C127.5,187.31,128.06,186.75,128.75,186.75z M119.95,179.36
				c1.32,0,2.39,1.07,2.39,2.39c0,1.32-1.07,2.39-2.39,2.39s-2.39-1.07-2.39-2.39C117.55,180.44,118.63,179.36,119.95,179.36z
				 M115.61,187.99c0-1.08,0.87-1.95,1.95-1.95h4.77c1.08,0,1.95,0.87,1.95,1.95v0.56c0,0.33-0.27,0.59-0.59,0.59h-7.49
				c-0.33,0-0.59-0.27-0.59-0.59V187.99z M135.25,199.25h-19c-0.69,0-1.25-0.56-1.25-1.25c0-0.69,0.56-1.25,1.25-1.25h19
				c0.69,0,1.25,0.56,1.25,1.25C136.5,198.69,135.94,199.25,135.25,199.25z M135.25,194.25h-19c-0.69,0-1.25-0.56-1.25-1.25
				c0-0.69,0.56-1.25,1.25-1.25h19c0.69,0,1.25,0.56,1.25,1.25C136.5,193.69,135.94,194.25,135.25,194.25z"/>
		</g>
	</g>
	<g>
		<g>
			<path class="st2" d="M59.83,198.51c-1.09,0-2.15-0.12-3.17-0.34v1.84c0,0.55-0.45,1-1,1h-14c-0.55,0-1-0.45-1-1V179
				c0-0.55,0.45-1,1-1h4.22c0.93-2.34,2.42-4.4,4.31-5.99h-9.53c-2.21,0-4,1.79-4,4v30c0,2.21,1.79,4,4,4h16c2.21,0,4-1.79,4-4
				v-7.54C60.38,198.48,60.11,198.51,59.83,198.51z M50.01,207.51h-2c-1.1,0-2-0.9-2-2l0,0c0-1.1,0.9-2,2-2h2c1.1,0,2,0.9,2,2l0,0
				C52.01,206.61,51.12,207.51,50.01,207.51z"/>
			<path class="st2" d="M53.93,181.23c-0.04,0-0.07,0-0.1,0c-0.63,0-0.85,0.58-0.89,0.71c-0.04,0.13-0.22,0.77,0.37,1.12
				c0.26,0.16,0.65,0.3,1.01,0.13c0.3-0.15,0.5-0.49,0.56-0.92c0.01-0.04,0.01-0.08,0.02-0.12
				C54.76,181.69,54.48,181.29,53.93,181.23z M60.93,181.23c-0.04,0-0.07,0-0.1,0c-0.63,0-0.85,0.58-0.89,0.71
				c-0.04,0.13-0.22,0.77,0.37,1.12c0.26,0.16,0.65,0.3,1.01,0.13c0.3-0.15,0.5-0.49,0.56-0.92c0.01-0.04,0.01-0.08,0.02-0.12
				C61.76,181.69,61.48,181.29,60.93,181.23z M59.83,170.99c-6.91,0-12.51,5.6-12.51,12.51s5.6,12.51,12.51,12.51
				c6.91,0,12.51-5.6,12.51-12.51S66.74,170.99,59.83,170.99z M56.98,183.55c-0.21,2.22-1.7,4.46-4.05,4.46
				c-0.12,0-0.24-0.01-0.36-0.02c-0.55-0.05-0.95-0.54-0.9-1.09c0.05-0.55,0.54-0.96,1.09-0.9c0.68,0.07,1.18-0.27,1.54-0.75
				c-0.66,0.07-1.36-0.08-2.01-0.47c-1.2-0.71-1.7-2.1-1.25-3.46c0.45-1.38,1.69-2.2,3.09-2.07
				C56.03,179.43,57.2,181.2,56.98,183.55z M63.98,183.55c-0.21,2.22-1.7,4.46-4.05,4.46c-0.12,0-0.24-0.01-0.36-0.02
				c-0.55-0.05-0.95-0.54-0.9-1.09c0.05-0.55,0.54-0.96,1.09-0.9c0.68,0.07,1.18-0.27,1.54-0.75c-0.66,0.07-1.36-0.08-2.01-0.47
				c-1.2-0.71-1.7-2.1-1.25-3.46c0.45-1.38,1.69-2.2,3.09-2.07C63.03,179.43,64.2,181.2,63.98,183.55z M70.14,184.73h-1.28v1.28
				c0,0.55-0.45,1-1,1c-0.55,0-1-0.45-1-1v-1.28h-1.28c-0.55,0-1-0.45-1-1s0.45-1,1-1h1.28v-1.28c0-0.55,0.45-1,1-1
				c0.55,0,1,0.45,1,1v1.28h1.28c0.55,0,1,0.45,1,1S70.69,184.73,70.14,184.73z"/>
		</g>
	</g>
	<g>
		<g>
			<path class="st2" d="M400.68,110.52l-3.44-0.84l-2.04-3.18c-0.33-0.51-1.08-0.51-1.41,0l-2.04,3.18l-3.44,0.84
				c-0.62,0.15-0.85,0.9-0.43,1.37l2.49,2.78l-0.39,3.52c-0.07,0.65,0.59,1.13,1.18,0.85l3.32-1.52l3.32,1.52
				c0.59,0.27,1.25-0.21,1.18-0.85l-0.39-3.52l2.49-2.78C401.53,111.43,401.3,110.67,400.68,110.52z M387.17,115.55l-1.76-0.43
				l-1.05-1.63c-0.17-0.26-0.55-0.26-0.72,0l-1.05,1.63l-1.76,0.43c-0.32,0.08-0.44,0.46-0.22,0.71l1.28,1.42l-0.2,1.8
				c-0.04,0.33,0.3,0.58,0.61,0.44l1.7-0.78l1.7,0.78c0.3,0.14,0.64-0.11,0.61-0.44l-0.2-1.8l1.28-1.42
				C387.61,116.01,387.49,115.62,387.17,115.55z M408.17,115.55l-1.76-0.43l-1.05-1.63c-0.17-0.26-0.55-0.26-0.72,0l-1.05,1.63
				l-1.76,0.43c-0.32,0.08-0.44,0.46-0.22,0.71l1.28,1.42l-0.2,1.8c-0.04,0.33,0.3,0.58,0.61,0.44l1.7-0.78l1.7,0.78
				c0.3,0.14,0.64-0.11,0.61-0.44l-0.2-1.8l1.28-1.42C408.61,116.01,408.49,115.62,408.17,115.55z"/>
			<path class="st2" d="M401.5,126.63c0-0.28-0.22-0.5-0.5-0.5h-1.5v1h1.5C401.28,127.13,401.5,126.9,401.5,126.63z M382,133.13h25
				c0.28,0,0.5-0.22,0.5-0.5v-10c0-0.28-0.22-0.5-0.5-0.5h-25c-0.28,0-0.5,0.22-0.5,0.5v10C381.5,132.9,381.72,133.13,382,133.13z
				 M397.5,125.13c0-0.55,0.45-1,1-1h2.5c1.38,0,2.5,1.12,2.5,2.5c0,1.38-1.12,2.5-2.5,2.5h-1.5v1c0,0.55-0.45,1-1,1
				c-0.55,0-1-0.45-1-1V125.13z M393.5,125.13c0-0.55,0.45-1,1-1c0.55,0,1,0.45,1,1v5c0,0.55-0.45,1-1,1c-0.55,0-1-0.45-1-1V125.13z
				 M386.13,124.2c0.51-0.21,1.09,0.04,1.3,0.56l1.07,2.68l1.07-2.68c0.21-0.51,0.79-0.76,1.3-0.56c0.51,0.21,0.76,0.79,0.56,1.3
				l-2,5c-0.15,0.38-0.52,0.63-0.93,0.63c-0.41,0-0.78-0.25-0.93-0.63l-2-5C385.37,124.98,385.62,124.4,386.13,124.2z
				 M413.38,133.31c-0.05-0.12-0.05-0.25,0-0.37l1.95-4.88c0.13-0.33-0.11-0.69-0.46-0.69H410v5.25c0,1.65-1.35,3-3,3h-3.25v1.25
				c0,1.1,0.9,2,2,2h9.12c0.35,0,0.6-0.36,0.46-0.69L413.38,133.31z M379,132.63v-5.25h-4.87c-0.35,0-0.6,0.36-0.46,0.69l1.95,4.88
				c0.05,0.12,0.05,0.25,0,0.37l-1.95,4.88c-0.13,0.33,0.11,0.69,0.46,0.69h9.12c1.1,0,2-0.9,2-2v-1.25H382
				C380.35,135.63,379,134.28,379,132.63z"/>
		</g>
	</g>
	<g>
		<g>
			<g>
				<path class="st2" d="M319.3,108.32c-1.41-0.57-2.09-1.24-2.65-2.65c-0.16-0.4-0.74-0.4-0.9,0c-0.57,1.41-1.24,2.09-2.65,2.65
					c-0.4,0.16-0.4,0.74,0,0.9c1.41,0.57,2.09,1.24,2.65,2.65c0.16,0.4,0.74,0.4,0.9,0c0.57-1.41,1.24-2.09,2.65-2.65
					C319.7,109.06,319.7,108.48,319.3,108.32z"/>
				<path class="st2" d="M337.05,110.15c1.21,0.48,1.78,1.06,2.26,2.26c0.14,0.34,0.63,0.34,0.77,0c0.48-1.21,1.06-1.78,2.26-2.26
					c0.34-0.14,0.34-0.63,0-0.77c-1.21-0.48-1.78-1.06-2.26-2.26c-0.14-0.34-0.63-0.34-0.77,0c-0.48,1.21-1.06,1.78-2.26,2.26
					C336.71,109.52,336.71,110.02,337.05,110.15z M312.35,130.38c-1.21-0.48-1.78-1.06-2.26-2.26c-0.14-0.34-0.63-0.34-0.77,0
					c-0.48,1.21-1.06,1.78-2.26,2.26c-0.34,0.14-0.34,0.63,0,0.77c1.21,0.48,1.78,1.06,2.26,2.26c0.14,0.34,0.63,0.34,0.77,0
					c0.48-1.21,1.06-1.78,2.26-2.26C312.69,131.02,312.69,130.52,312.35,130.38z M344.58,117.45l-9.09-1.76
					c-0.57-0.11-1.06-0.46-1.35-0.96l-4.82-8.26c-0.77-1.32-2.68-1.32-3.46,0l-4.82,8.26c-0.29,0.5-0.78,0.85-1.35,0.96l-8.73,1.69
					c-1.51,0.29-2.14,2.1-1.14,3.27l6.2,7.22c0.36,0.42,0.53,0.96,0.47,1.51l-0.82,7.83c-0.18,1.7,1.72,2.82,3.12,1.86
					c0.49-0.34,0.79-0.9,0.79-1.5v-1.61c0-3.55,2.88-6.43,6.43-6.43h3.13c3.55,0,6.43,2.88,6.43,6.43v1.61c0,0.6,0.29,1.16,0.79,1.5
					l0.32,0.22c1.35,0.93,3.18-0.07,3.13-1.71l-0.22-7.39c-0.01-0.43,0.11-0.85,0.36-1.2l5.86-8.42
					C346.67,119.37,346,117.72,344.58,117.45z M327.6,126.52c-2.76,0-5-2.24-5-5c0-2.76,2.24-5,5-5s5,2.24,5,5
					C332.6,124.28,330.36,126.52,327.6,126.52z"/>
			</g>
		</g>
	</g>
	<g>
		<g>
			<path class="st2" d="M254.64,114.42c-2.64,1.46-6.4,2.43-10.66,2.56c-0.27,0.01-0.49,0.23-0.49,0.49v2.99
				c0,0.28,0.23,0.51,0.51,0.51c0.01,0,0.01,0,0.02,0c5.77-0.23,10.66-2.4,13-5.44c-0.03-0.06-0.05-0.13-0.08-0.19
				C256.11,115.16,255.34,114.84,254.64,114.42z M273.01,116.98c-4.26-0.13-8.02-1.1-10.66-2.56c-0.7,0.42-1.47,0.74-2.3,0.91
				c-0.03,0.06-0.05,0.13-0.08,0.19c2.34,3.05,7.23,5.21,13,5.44c0.01,0,0.01,0,0.02,0c0.28,0,0.51-0.23,0.51-0.51v-2.99
				C273.5,117.2,273.28,116.99,273.01,116.98z"/>
			<path class="st2" d="M256.5,119.46V132c0,0.28,0.22,0.5,0.5,0.5h3c0.28,0,0.5-0.22,0.5-0.5v-12.54c-0.74-0.56-1.43-1.15-2-1.8
				C257.93,118.31,257.24,118.9,256.5,119.46z M258.5,113c2.76,0,5-2.24,5-5s-2.24-5-5-5c-2.76,0-5,2.24-5,5S255.74,113,258.5,113z
				 M265.5,138h-2v-2c0-0.55-0.45-1-1-1h-8c-0.55,0-1,0.45-1,1v2h-2c-0.55,0-1,0.45-1,1v2c0,0.55,0.45,1,1,1h14c0.55,0,1-0.45,1-1
				v-2C266.5,138.45,266.05,138,265.5,138z"/>
		</g>
	</g>
	<g>
		<g>
			<g>
				<g>
					<path class="st2" d="M183.01,107.57c-1.59-0.64-2.34-1.39-2.98-2.98c-0.18-0.45-0.83-0.45-1.01,0
						c-0.64,1.59-1.39,2.34-2.98,2.98c-0.45,0.18-0.45,0.83,0,1.01c1.59,0.64,2.34,1.39,2.98,2.98c0.18,0.45,0.83,0.45,1.01,0
						c0.64-1.59,1.39-2.34,2.98-2.98C183.46,108.4,183.46,107.75,183.01,107.57z M192.5,121.75c-3.31,0-6,2.69-6,6
						c0,3.31,2.69,6,6,6c3.31,0,6-2.69,6-6C198.5,124.44,195.81,121.75,192.5,121.75z"/>
					<path class="st2" d="M205.5,114.75h-2.14l-1.71-2.98c-0.71-1.25-2.04-2.02-3.47-2.02h-10.36c-1.44,0-2.76,0.77-3.47,2.02
						l-1.71,2.98h-7.14c-2.21,0-4,1.79-4,4v18c0,2.21,1.79,4,4,4h30c2.21,0,4-1.79,4-4v-18C209.5,116.54,207.71,114.75,205.5,114.75
						z M177.5,122.75c-1.1,0-2-0.9-2-2c0-1.1,0.9-2,2-2c1.1,0,2,0.9,2,2C179.5,121.85,178.6,122.75,177.5,122.75z M192.5,136.75
						c-4.96,0-9-4.04-9-9s4.04-9,9-9c4.96,0,9,4.04,9,9S197.46,136.75,192.5,136.75z"/>
				</g>
			</g>
		</g>
	</g>
	<g>
		<g>
			<path class="st2" d="M135.5,115c-1.1,0-2,0.9-2,2v4c0,6.07-4.93,11-11,11c-6.07,0-11-4.93-11-11v-4c0-1.1-0.9-2-2-2
				c-1.1,0-2,0.9-2,2v4c0,7.63,5.73,13.93,13.11,14.87c-0.27,0.97-0.97,1.76-1.9,2.13h-1.21c-1.1,0-2,0.9-2,2s0.9,2,2,2h10
				c1.1,0,2-0.9,2-2c0-1.1-0.9-2-2-2h-1.21c-0.93-0.37-1.63-1.16-1.9-2.13c7.38-0.94,13.11-7.24,13.11-14.87v-4
				C137.5,115.9,136.6,115,135.5,115z"/>
			<path class="st2" d="M127,117h3.5v-3.5h-3c-0.83,0-1.5-0.67-1.5-1.5s0.67-1.5,1.5-1.5h2.97c-0.26-4.18-3.73-7.5-7.97-7.5
				c-4.25,0-7.72,3.32-7.97,7.5h3.66c1,0,1.81,0.67,1.81,1.5s-0.81,1.5-1.81,1.5h-3.69v3.5h3.5c0.83,0,1.5,0.67,1.5,1.5
				s-0.67,1.5-1.5,1.5h-3.5v1c0,4.42,3.58,8,8,8c4.42,0,8-3.58,8-8v-1H127c-0.83,0-1.5-0.67-1.5-1.5S126.17,117,127,117z"/>
		</g>
	</g>
	<g>
		<g>
			<path class="st2" d="M35.98,112.85l5.57-5.57c0.32-0.31,0.09-0.85-0.35-0.85h-4.7c-1.1,0-2,0.9-2,2V113h1.13
				C35.76,113,35.89,112.95,35.98,112.85z M53.05,113h7.52c0.13,0,0.26-0.05,0.35-0.15l5.57-5.57c0.31-0.31,0.09-0.85-0.35-0.85
				h-7.52c-0.13,0-0.26,0.05-0.35,0.15l-5.57,5.57C52.38,112.46,52.61,113,53.05,113z M48.75,131.25h10.5v-5.57h-10.5V131.25z
				 M74,115.5H35c-0.28,0-0.5,0.22-0.5,0.5v20.57c0,1.1,0.9,2,2,2h36c1.1,0,2-0.9,2-2V116C74.5,115.72,74.28,115.5,74,115.5z
				 M70.5,131.25c0.69,0,1.25,0.56,1.25,1.25s-0.56,1.25-1.25,1.25h-31c-0.69,0-1.25-0.56-1.25-1.25s0.56-1.25,1.25-1.25h6.75v-5.57
				H39.5c-0.69,0-1.25-0.56-1.25-1.25c0-0.69,0.56-1.25,1.25-1.25h31c0.69,0,1.25,0.56,1.25,1.25c0,0.69-0.56,1.25-1.25,1.25h-8.75
				v5.57H70.5z"/>
			<path class="st2" d="M53.67,106.43h-7.52c-0.13,0-0.26,0.05-0.35,0.15l-5.57,5.57c-0.31,0.31-0.09,0.85,0.35,0.85h7.52
				c0.13,0,0.26-0.05,0.35-0.15l5.57-5.57C54.34,106.97,54.12,106.43,53.67,106.43z M72.5,106.43h-1.61l-5.72,5.72
				c-0.32,0.31-0.09,0.85,0.35,0.85H74c0.28,0,0.5-0.22,0.5-0.5v-4.07C74.5,107.32,73.6,106.43,72.5,106.43z"/>
		</g>
	</g>
</g>
<g id="title" class="st0">
	<g class="st3">
		<path class="st2" d="M31.23,50.76c0-3.87,2.35-6.01,6.06-6.01c1.72,0,2.91,0.23,3.87,0.47c0.51,0.14,0.75,0.56,0.63,1.09
			l-0.21,0.96c-0.12,0.51-0.61,0.75-1.12,0.61c-0.63-0.14-1.49-0.33-2.7-0.33c-1.91,0-3.08,0.82-3.08,3.47v4.33
			c0,2.66,1.16,3.47,3.08,3.47c1.49,0,2.4-0.26,2.82-0.35c0.56-0.14,0.89,0.12,1,0.63l0.21,0.96c0.09,0.47-0.12,0.96-0.63,1.1
			c-0.54,0.14-1.93,0.47-3.87,0.47c-3.71,0-6.06-2.12-6.06-6.01V50.76z"/>
		<path class="st2" d="M44.84,46.17c0-0.68,0.44-1.12,1.12-1.12h1.12c0.67,0,1.12,0.44,1.12,1.12V60.2c0,0.68-0.44,1.12-1.12,1.12
			h-1.12c-0.68,0-1.12-0.44-1.12-1.12V46.17z"/>
		<path class="st2" d="M51.74,46.17c0-0.68,0.44-1.12,1.12-1.12h0.93c0.68,0,1.19,0.37,1.56,1.03l5.17,9.13
			c-0.14-1.17-0.21-2.33-0.21-3.22v-5.83c0-0.68,0.44-1.12,1.12-1.12h1.07c0.68,0,1.12,0.44,1.12,1.12V60.2
			c0,0.68-0.44,1.12-1.12,1.12h-0.93c-0.68,0-1.21-0.37-1.58-1.03l-5.15-9.09c0.12,1.17,0.21,2.31,0.21,3.17v5.82
			c0,0.68-0.44,1.12-1.12,1.12h-1.07c-0.68,0-1.12-0.44-1.12-1.12V46.17z"/>
		<path class="st2" d="M66.72,49.52c0-2.7,1.72-4.47,5.15-4.47h3.38c0.68,0,1.12,0.44,1.12,1.12v0.56c0,0.68-0.44,1.12-1.12,1.12
			h-3.33c-1.4,0-1.84,0.63-1.84,1.93v1.82h4.47c0.68,0,1.12,0.44,1.12,1.12v0.54c0,0.68-0.44,1.12-1.12,1.12h-4.47v2.24
			c0,1.33,0.44,1.91,1.84,1.91h3.43c0.68,0,1.12,0.44,1.12,1.12v0.56c0,0.68-0.44,1.12-1.12,1.12h-3.47c-3.4,0-5.15-1.77-5.15-4.45
			V49.52z"/>
		<path class="st2" d="M80.32,46.24c0.09-0.77,0.58-1.19,1.26-1.19h1.4c0.68,0,1.19,0.4,1.4,1.09l3.24,10.97
			c0.02,0.09,0.09,0.26,0.19,0.26c0.09,0,0.16-0.16,0.19-0.26l3.21-10.95c0.21-0.72,0.72-1.12,1.4-1.12H94
			c0.68,0,1.16,0.44,1.26,1.17l1.65,13.93c0.09,0.75-0.3,1.17-0.98,1.17h-1.12c-0.68,0-1.14-0.44-1.21-1.12L93,54.11
			c-0.09-0.84-0.14-1.96-0.19-3.08c-0.21,1.14-0.44,2.24-0.7,3.08l-1,3.38c-0.44,1.51-1.33,2.82-3.31,2.82
			c-1.96,0-2.89-1.3-3.31-2.82l-1-3.52c-0.26-0.84-0.49-1.93-0.7-3.05c-0.05,1.14-0.09,2.26-0.19,3.12l-0.63,6.13
			c-0.07,0.68-0.51,1.14-1.19,1.14h-1.14c-0.68,0-1.07-0.44-0.98-1.17L80.32,46.24z"/>
		<path class="st2" d="M102.29,47.61c0.4-1.54,1.54-2.87,3.49-2.87c1.91,0,3.08,1.37,3.47,2.87l3.29,12.47
			c0.16,0.63-0.19,1.24-0.91,1.24h-1.12c-0.68,0-1.14-0.47-1.3-1.12l-0.77-3.05h-5.31l-0.75,3.03c-0.19,0.75-0.58,1.14-1.26,1.14
			h-1.19c-0.72,0-1.05-0.63-0.88-1.26L102.29,47.61z M107.77,54.39l-1.58-6.38c-0.05-0.23-0.19-0.4-0.4-0.4
			c-0.23,0-0.35,0.16-0.4,0.4l-1.59,6.38H107.77z"/>
		<path class="st2" d="M122.42,52.55c-1.21-0.77-1.91-1.96-1.91-3.47c0-2.82,2.42-4.99,5.85-4.99c1,0,1.86,0.14,2.28,0.23
			c0.65,0.14,1,0.7,0.86,1.35l-0.12,0.56c-0.14,0.65-0.7,0.96-1.38,0.84c-0.4-0.07-0.91-0.14-1.61-0.14c-1.58,0-2.4,0.82-2.4,2.14
			c0,1.44,0.82,2.35,2.4,2.35h4.85c0.68,0,1.12,0.37,1.12,1.05v0.37c0,0.68-0.44,1.05-1.12,1.05h-0.16v5.52
			c0,0.68-0.35,1.26-1.07,1.51c-0.72,0.26-2.26,0.68-3.94,0.68c-3.98,0-6.18-2.19-6.18-5.15C119.9,54.65,120.81,53.3,122.42,52.55z
			 M126.13,58.77c0.72,0,1.58-0.09,2.24-0.3V53.9h-2.21c-1.89,0-2.75,0.98-2.75,2.52C123.4,57.89,124.19,58.77,126.13,58.77z"/>
		<path class="st2" d="M139.17,50.76c0-3.87,2.35-6.01,6.06-6.01c1.72,0,2.91,0.23,3.87,0.47c0.51,0.14,0.75,0.56,0.63,1.09
			l-0.21,0.96c-0.12,0.51-0.61,0.75-1.12,0.61c-0.63-0.14-1.49-0.33-2.7-0.33c-1.91,0-3.08,0.82-3.08,3.47v4.33
			c0,2.66,1.17,3.47,3.08,3.47c1.49,0,2.4-0.26,2.82-0.35c0.56-0.14,0.89,0.12,1,0.63l0.21,0.96c0.09,0.47-0.12,0.96-0.63,1.1
			c-0.54,0.14-1.93,0.47-3.87,0.47c-3.7,0-6.06-2.12-6.06-6.01V50.76z"/>
		<path class="st2" d="M152.33,49.52c0-2.7,1.72-4.47,5.15-4.47h3.38c0.68,0,1.12,0.44,1.12,1.12v0.56c0,0.68-0.44,1.12-1.12,1.12
			h-3.33c-1.4,0-1.84,0.63-1.84,1.93v1.82h4.47c0.68,0,1.12,0.44,1.12,1.12v0.54c0,0.68-0.44,1.12-1.12,1.12h-4.47v2.24
			c0,1.33,0.44,1.91,1.84,1.91h3.42c0.68,0,1.12,0.44,1.12,1.12v0.56c0,0.68-0.44,1.12-1.12,1.12h-3.47c-3.4,0-5.15-1.77-5.15-4.45
			V49.52z"/>
		<path class="st2" d="M164.94,46.17c0-0.68,0.44-1.12,1.12-1.12h1.12c0.67,0,1.12,0.44,1.12,1.12v12.35h5.78
			c0.68,0,1.12,0.44,1.12,1.12v0.56c0,0.68-0.44,1.12-1.12,1.12h-8.02c-0.68,0-1.12-0.44-1.12-1.12V46.17z"/>
		<path class="st2" d="M177.24,49.52c0-2.7,1.72-4.47,5.15-4.47h3.38c0.68,0,1.12,0.44,1.12,1.12v0.56c0,0.68-0.44,1.12-1.12,1.12
			h-3.33c-1.4,0-1.84,0.63-1.84,1.93v1.82h4.47c0.68,0,1.12,0.44,1.12,1.12v0.54c0,0.68-0.44,1.12-1.12,1.12h-4.47v2.24
			c0,1.33,0.44,1.91,1.84,1.91h3.43c0.68,0,1.12,0.44,1.12,1.12v0.56c0,0.68-0.44,1.12-1.12,1.12h-3.47c-3.4,0-5.15-1.77-5.15-4.45
			V49.52z"/>
		<path class="st2" d="M189.84,46.96c0-0.72,0.51-1.3,1.14-1.51c0.65-0.21,2.17-0.7,3.8-0.7c3.4,0,5.48,2.14,5.48,4.75
			c0,1.42-0.61,2.47-1.7,3.15c1.61,0.72,2.54,2.03,2.54,3.75c0,2.68-2.21,4.92-5.99,4.92h-4.15c-0.68,0-1.12-0.44-1.12-1.12V46.96z
			 M194.71,51.58c1.4,0,2.1-0.96,2.1-2.07c0-1.14-0.68-1.96-2.07-1.96c-0.61,0-1.03,0.09-1.54,0.28v3.75H194.71z M194.99,58.52
			c1.61,0,2.59-0.86,2.59-2.12c0-1.3-0.75-2.24-2.59-2.24h-1.79v4.36H194.99z"/>
		<path class="st2" d="M203.75,46.84c0-0.68,0.47-1.26,1.14-1.44c0.72-0.21,2.45-0.65,4.12-0.65c3.66,0,5.62,2.59,5.62,5.41
			c0,1.49-0.79,3.75-3.05,4.75l2.38,5.1c0.33,0.68-0.09,1.3-0.77,1.3h-1.38c-0.68,0-1.1-0.37-1.38-1l-2.14-4.92h-1.19v4.8
			c0,0.68-0.44,1.12-1.12,1.12h-1.12c-0.68,0-1.12-0.44-1.12-1.12V46.84z M208.76,52.74c1.56,0,2.35-1,2.35-2.59
			c0-1.44-0.61-2.61-2.12-2.61c-0.63,0-1.26,0.07-1.89,0.28v4.92H208.76z"/>
		<path class="st2" d="M217.24,46.17c0-0.68,0.44-1.12,1.12-1.12h1.12c0.68,0,1.12,0.44,1.12,1.12V60.2c0,0.68-0.44,1.12-1.12,1.12
			h-1.12c-0.68,0-1.12-0.44-1.12-1.12V46.17z"/>
		<path class="st2" d="M226.75,47.85h-2.66c-0.68,0-1.12-0.44-1.12-1.12v-0.56c0-0.68,0.44-1.12,1.12-1.12h8.67
			c0.67,0,1.12,0.44,1.12,1.12v0.56c0,0.68-0.44,1.12-1.12,1.12h-2.66V60.2c0,0.68-0.44,1.12-1.12,1.12h-1.12
			c-0.68,0-1.12-0.44-1.12-1.12V47.85z"/>
		<path class="st2" d="M239.72,54.86c-1.93-0.54-2.94-2-3.38-4.15l-0.91-4.4c-0.14-0.72,0.26-1.26,0.93-1.26h1.12
			c0.68,0,1.14,0.47,1.28,1.14l0.77,3.75c0.28,1.42,0.63,2.38,1.84,2.38c1.21,0,1.56-0.91,1.84-2.33l0.77-3.77
			c0.14-0.7,0.61-1.17,1.28-1.17h1.14c0.68,0,1.05,0.51,0.91,1.23l-0.91,4.43c-0.44,2.14-1.47,3.61-3.36,4.15v5.33
			c0,0.68-0.44,1.12-1.12,1.12h-1.1c-0.68,0-1.12-0.44-1.12-1.12V54.86z"/>
		<path class="st4" d="M255.38,45.71c0-0.7,0.46-1.15,1.15-1.15h1.15c0.7,0,1.15,0.46,1.15,1.15v14.45c0,0.7-0.46,1.15-1.15,1.15
			h-1.15c-0.7,0-1.15-0.46-1.15-1.15V45.71z"/>
		<path class="st4" d="M261.93,50.44c0-3.98,2.42-6.19,6.24-6.19c1.78,0,3,0.24,3.98,0.48c0.53,0.14,0.77,0.58,0.65,1.13l-0.21,0.98
			c-0.12,0.53-0.63,0.77-1.15,0.62c-0.65-0.14-1.54-0.34-2.79-0.34c-1.97,0-3.17,0.84-3.17,3.58v4.46c0,2.74,1.2,3.58,3.17,3.58
			c1.54,0,2.47-0.26,2.9-0.36c0.58-0.14,0.91,0.12,1.03,0.65l0.21,0.98c0.1,0.48-0.12,0.98-0.65,1.13
			c-0.55,0.14-1.99,0.48-3.98,0.48c-3.82,0-6.24-2.18-6.24-6.19V50.44z"/>
		<path class="st4" d="M275.37,51.4c0-4.13,2.47-7.15,6.75-7.15c4.27,0,6.74,3.02,6.74,7.15v3.07c0,4.13-2.47,7.15-6.74,7.15
			c-4.27,0-6.75-3.02-6.75-7.15V51.4z M285.31,54.21v-2.54c0-2.42-0.65-4.54-3.19-4.54c-2.52,0-3.19,2.11-3.19,4.54v2.54
			c0,2.45,0.67,4.54,3.19,4.54C284.66,58.75,285.31,56.66,285.31,54.21z"/>
		<path class="st4" d="M291.93,45.71c0-0.7,0.46-1.15,1.15-1.15h0.96c0.7,0,1.22,0.38,1.61,1.06l5.33,9.41
			c-0.14-1.2-0.22-2.4-0.22-3.31v-6c0-0.7,0.46-1.15,1.15-1.15h1.1c0.7,0,1.15,0.46,1.15,1.15v14.45c0,0.7-0.46,1.15-1.15,1.15
			h-0.96c-0.7,0-1.25-0.38-1.63-1.06l-5.3-9.36c0.12,1.2,0.22,2.38,0.22,3.26v6c0,0.7-0.46,1.15-1.15,1.15h-1.1
			c-0.7,0-1.15-0.46-1.15-1.15V45.71z"/>
		<path class="st4" d="M307.05,59.56l0.14-0.62c0.17-0.74,0.7-0.94,1.34-0.74c0.46,0.12,1.73,0.55,3.24,0.55
			c1.63,0,2.3-0.86,2.3-2.02c0-3.26-6.94-2.04-6.94-7.78c0-2.98,2.5-4.7,5.78-4.7c1.54,0,2.59,0.34,3.19,0.53
			c0.65,0.22,1.01,0.74,0.77,1.46l-0.17,0.53c-0.22,0.65-0.77,0.94-1.46,0.72c-0.55-0.17-1.3-0.36-2.33-0.36
			c-1.44,0-2.16,0.72-2.16,1.82c0,2.81,6.94,2.09,6.94,7.78c0,2.95-2.4,4.9-5.93,4.9c-1.66,0-2.95-0.36-3.89-0.65
			C307.19,60.76,306.88,60.33,307.05,59.56z"/>
	</g>
</g>
</svg>
