<?xml version="1.0" encoding="utf-8"?>
<!-- Generator: Adobe Illustrator 24.1.1, SVG Export Plug-In . SVG Version: 6.00 Build 0)  -->
<svg version="1.1" xmlns="http://www.w3.org/2000/svg" x="0px" y="0px"
     viewBox="0 0 448 448" style="enable-background:new 0 0 448 448;" xml:space="preserve">
<style type="text/css">
	.st0{fill:#173042;}
</style>
<g id="grid">
</g>
<g id="icons">
	<g>
		<g>
			<path class="st0" d="M391.96,389.15l-3.85-2.36c-0.27-0.17-0.62,0.03-0.62,0.34v4.71c0,0.32,0.35,0.51,0.62,0.35l3.85-2.36
				C392.22,389.69,392.22,389.31,391.96,389.15z"/>
			<path class="st0" d="M395.81,397.5c0.06,0,0.13,0,0.19,0.01V389c0-1.2,0.47-2.33,1.32-3.18c0.06-0.06,0.12-0.1,0.18-0.15v-3.36
				c0-0.17,0.14-0.3,0.3-0.3h2.39c0.17,0,0.3,0.14,0.3,0.3v2.2c0,0,0,0,0,0c0.47,0,0.95,0.07,1.41,0.22
				c0.61,0.19,1.14,0.52,1.59,0.93v-9.35c0-0.17-0.14-0.3-0.3-0.3h-2.7v2.7c0,0.17-0.14,0.3-0.3,0.3h-2.39c-0.17,0-0.3-0.14-0.3-0.3
				V376h-17v2.7c0,0.17-0.14,0.3-0.3,0.3h-2.39c-0.17,0-0.3-0.14-0.3-0.3V376h-2.7c-0.17,0-0.3,0.14-0.3,0.3v26.39
				c0,0.17,0.14,0.3,0.3,0.3h2.7v-2.7c0-0.17,0.14-0.3,0.3-0.3h2.39c0.17,0,0.3,0.14,0.3,0.3v2.7h9.5v-0.49
				c0-2.77,2.24-5.01,5.01-5.01H395.81z M380.5,396.7c0,0.17-0.14,0.3-0.3,0.3h-2.39c-0.17,0-0.3-0.14-0.3-0.3v-5.39
				c0-0.17,0.14-0.3,0.3-0.3h2.39c0.17,0,0.3,0.14,0.3,0.3V396.7z M380.5,387.7c0,0.17-0.14,0.3-0.3,0.3h-2.39
				c-0.17,0-0.3-0.14-0.3-0.3v-5.39c0-0.17,0.14-0.3,0.3-0.3h2.39c0.17,0,0.3,0.14,0.3,0.3V387.7z M394.19,391.37
				c-0.52,1.56-1.77,2.81-3.33,3.33c-4.29,1.42-8.23-2.3-7.2-6.56c0.47-1.95,2.02-3.5,3.97-3.97
				C391.89,383.14,395.61,387.07,394.19,391.37z M412.84,396.03c-0.74-0.12-1.58,0.17-2.17,0.67c-0.2-0.83-0.99-1.53-1.83-1.67
				c-0.7-0.11-1.5,0.14-2.07,0.6c-0.26-0.8-1.11-1.46-1.93-1.6c-0.79-0.13-1.87,0.29-2.34,0.88v-5.96c0-0.69-0.35-1.36-0.97-1.68
				c-1.52-0.78-3.03,0.3-3.03,1.74v16c-1.1,0-2-0.9-2-2v-2.31c0-0.38-0.31-0.69-0.69-0.69h-0.8c-1.38,0-2.51,1.12-2.51,2.51v5.22
				c0,0.81,0.35,1.58,0.96,2.11l2.81,2.47c0.51,0.45,1.17,0.7,1.85,0.7h11.22c0.74,0,1.46-0.3,1.98-0.82l2.36-2.36
				c0.53-0.53,0.82-1.24,0.82-1.98v-9.73C414.5,397.11,413.82,396.19,412.84,396.03z"/>
		</g>
	</g>
	<g>
		<g>
			<path class="st0" d="M317,389c1.1,0,2-0.9,2-2c0-1.1-0.9-2-2-2s-2,0.9-2,2C315,388.1,315.9,389,317,389z M328.07,395.17
				l-4.45-6.5c-0.4-0.59-1.27-0.58-1.67,0.01l-4.21,6.31l-1.68-3.03c-0.37-0.67-1.33-0.69-1.74-0.04l-2.03,3.3
				c-0.48,0.78,0.08,1.78,1,1.78h13.81C328.05,397,328.6,395.95,328.07,395.17z"/>
			<path class="st0" d="M310,380h21v4.99c0.62-0.31,1.29-0.49,2-0.49c0.47,0,0.95,0.07,1.41,0.22c0.21,0.07,0.4,0.15,0.59,0.24
				v-8.46c0-0.28-0.22-0.5-0.5-0.5h-28c-0.28,0-0.5,0.22-0.5,0.5v26c0,0.28,0.22,0.5,0.5,0.5h16v-0.3c0-1.45,0.6-2.76,1.56-3.7H310
				V380z M345.34,396.03c-0.74-0.12-1.58,0.17-2.17,0.67c-0.2-0.83-0.99-1.53-1.83-1.67c-0.7-0.11-1.5,0.14-2.07,0.6
				c-0.26-0.8-1.11-1.46-1.93-1.6c-0.79-0.13-1.87,0.29-2.34,0.88v-5.82c0-0.87-0.51-1.72-1.35-1.98c-1.38-0.44-2.65,0.58-2.65,1.9
				v16c-1.1,0-2-0.9-2-2v-2.31c0-0.38-0.31-0.69-0.69-0.69h-0.6c-1.49,0-2.7,1.21-2.7,2.7v4.94c0,0.86,0.37,1.69,1.02,2.26
				l2.69,2.36c0.55,0.48,1.25,0.74,1.98,0.74h11.07c0.8,0,1.56-0.32,2.12-0.88l2.24-2.24c0.56-0.56,0.88-1.33,0.88-2.12v-9.65
				C347,397.11,346.32,396.19,345.34,396.03z"/>
		</g>
	</g>
	<g>
		<g>
			<path class="st0" d="M254.92,406.97h-14.4c-0.83,0-1.5,0.67-1.5,1.5c0,0.83,0.67,1.5,1.5,1.5h14.4c0.83,0,1.5-0.67,1.5-1.5
				C256.42,407.64,255.74,406.97,254.92,406.97z M278.44,393.8l-2.87-2.87c-0.2-0.2-0.51-0.2-0.71,0l-1.51,1.51
				c-0.2,0.2-0.2,0.51,0,0.71l2.87,2.87c0.2,0.2,0.51,0.2,0.71,0l1.51-1.51C278.63,394.31,278.63,393.99,278.44,393.8z"/>
			<path class="st0" d="M260.84,401.41H244.7c-1.35,0-2.18-1.48-1.47-2.64l3-4.88c0.6-0.97,2.02-0.94,2.57,0.06l2.49,4.48l6.23-9.34
				c0.59-0.88,1.87-0.89,2.47-0.01l5.36,7.84l6.08-6.08v-10.37c0-1.1-0.9-2-2-2h-29c-1.1,0-2,0.9-2,2v22c0,1.1,0.9,2,2,2h17.37
				c0.44-0.44,1.16-1.16,1.16-1.16s0,0,0,0L260.84,401.41z M249.92,383.41c1.38,0,2.5,1.12,2.5,2.5c0,1.38-1.12,2.5-2.5,2.5
				c-1.38,0-2.5-1.12-2.5-2.5C247.42,384.53,248.54,383.41,249.92,383.41z M274.49,397.75l-2.87-2.87c-0.2-0.2-0.51-0.2-0.71,0
				l-8.04,8.04c-0.2,0.2-0.2,0.51,0,0.71l2.87,2.87c0.2,0.2,0.51,0.2,0.71,0l8.04-8.04C274.68,398.26,274.68,397.94,274.49,397.75z
				 M261.06,405.43c-0.2-0.19-0.51-0.2-0.7,0c-0.33,0.32-0.79,0.79-1.02,1.01c-0.08,0.08-0.13,0.19-0.14,0.31l-0.25,3.24
				c-0.02,0.31,0.24,0.57,0.56,0.54l3.11-0.36c0.11-0.01,0.22-0.06,0.3-0.14l1.02-1.02c0.2-0.2,0.2-0.51,0-0.71L261.06,405.43z"/>
		</g>
	</g>
	<g>
		<g>
			<g>
				<g>
					<g>
						<path class="st0" d="M209.5,380h-2c-0.28,0-0.5,0.22-0.5,0.5v3c0,0.28-0.22,0.5-0.5,0.5h-3c-0.28,0-0.5-0.22-0.5-0.5v-3
							c0-0.28-0.22-0.5-0.5-0.5h-24c-0.28,0-0.5,0.22-0.5,0.5v3c0,0.28-0.22,0.5-0.5,0.5h-3c-0.28,0-0.5-0.22-0.5-0.5v-3
							c0-0.28-0.22-0.5-0.5-0.5h-2c-0.28,0-0.5,0.22-0.5,0.5v28c0,0.28,0.22,0.5,0.5,0.5h2c0.28,0,0.5-0.22,0.5-0.5v-3
							c0-0.28,0.22-0.5,0.5-0.5h3c0.28,0,0.5,0.22,0.5,0.5v3c0,0.28,0.22,0.5,0.5,0.5h24c0.28,0,0.5-0.22,0.5-0.5v-3
							c0-0.28,0.22-0.5,0.5-0.5h3c0.28,0,0.5,0.22,0.5,0.5v3c0,0.28,0.22,0.5,0.5,0.5h2c0.28,0,0.5-0.22,0.5-0.5v-28
							C210,380.22,209.78,380,209.5,380z M178,401.5c0,0.28-0.22,0.5-0.5,0.5h-3c-0.28,0-0.5-0.22-0.5-0.5v-5
							c0-0.28,0.22-0.5,0.5-0.5h3c0.28,0,0.5,0.22,0.5,0.5V401.5z M178,392.5c0,0.28-0.22,0.5-0.5,0.5h-3c-0.28,0-0.5-0.22-0.5-0.5
							v-5c0-0.28,0.22-0.5,0.5-0.5h3c0.28,0,0.5,0.22,0.5,0.5V392.5z M192.07,402.35c-5.64,1.07-10.49-3.78-9.42-9.42
							c0.6-3.15,3.14-5.69,6.29-6.29c5.64-1.07,10.49,3.78,9.42,9.42C197.75,399.22,195.21,401.75,192.07,402.35z M207,401.5
							c0,0.28-0.22,0.5-0.5,0.5h-3c-0.28,0-0.5-0.22-0.5-0.5v-5c0-0.28,0.22-0.5,0.5-0.5h3c0.28,0,0.5,0.22,0.5,0.5V401.5z
							 M207,392.5c0,0.28-0.22,0.5-0.5,0.5h-3c-0.28,0-0.5-0.22-0.5-0.5v-5c0-0.28,0.22-0.5,0.5-0.5h3c0.28,0,0.5,0.22,0.5,0.5
							V392.5z"/>
						<path class="st0" d="M194.49,394l-5.6-3.43c-0.39-0.24-0.9,0.04-0.9,0.5v6.86c0,0.46,0.5,0.74,0.9,0.5l5.6-3.43
							C194.87,394.77,194.87,394.23,194.49,394z"/>
					</g>
				</g>
			</g>
		</g>
	</g>
	<g>
		<g>
			<path class="st0" d="M107.59,379.36c-0.14-0.19-0.41-0.24-0.59-0.1c-2.78,2.05-3.15,6.06-0.79,8.58l7.12,7.64l-1.29,1.73
				c-0.64,0.87-1.66,1.34-2.74,1.39c-1.83,0.08-3.6,1.04-4.62,2.79c-1.36,2.34-0.78,5.45,1.33,7.15c1.01,0.82,2.24,1.25,3.51,1.25
				c0.28,0,0.56-0.02,0.84-0.06c1.48-0.22,2.79-1,3.68-2.21c1.07-1.44,1.34-3.24,0.89-4.84c-0.32-1.12,0.06-2.33,0.86-3.19l0.65-0.7
				l0.01,0.01v-7.52L107.59,379.36z M111.97,406L111.97,406c-0.48,0.65-1.18,1.07-1.98,1.19c-0.8,0.12-1.59-0.08-2.24-0.56
				c-1.34-0.99-1.62-2.88-0.63-4.22c0.59-0.8,1.5-1.22,2.43-1.22c0.62,0,1.25,0.19,1.79,0.59
				C112.68,402.77,112.96,404.67,111.97,406z"/>
			<path class="st0" d="M140.55,380.53h-14.5v3.5c0,0.28-0.22,0.5-0.5,0.5h-3c-0.28,0-0.5-0.22-0.5-0.5v-3.5h-2.59
				c-0.28,0-0.5,0.22-0.5,0.5v28c0,0.28,0.22,0.5,0.5,0.5h2.59v-3.5c0-0.28,0.22-0.5,0.5-0.5h3c0.28,0,0.5,0.22,0.5,0.5v3.5h14.5
				c0.28,0,0.5-0.22,0.5-0.5v-28C141.05,380.75,140.82,380.53,140.55,380.53z M126.05,402.03c0,0.28-0.22,0.5-0.5,0.5h-3
				c-0.28,0-0.5-0.22-0.5-0.5v-5c0-0.28,0.22-0.5,0.5-0.5h3c0.28,0,0.5,0.22,0.5,0.5V402.03z M126.05,393.03
				c0,0.28-0.22,0.5-0.5,0.5h-3c-0.28,0-0.5-0.22-0.5-0.5v-5c0-0.28,0.22-0.5,0.5-0.5h3c0.28,0,0.5,0.22,0.5,0.5V393.03z"/>
		</g>
	</g>
	<g>
		<g>
			<g>
				<g>
					<circle class="st0" cx="57" cy="397" r="6"/>
					<path class="st0" d="M71.29,383h-3.43l-2.08-3.63c-0.48-0.85-1.38-1.37-2.36-1.37H51.58c-0.97,0-1.87,0.52-2.36,1.37L47.14,383
						h-9.43c-1.5,0-2.71,1.21-2.71,2.71v22.57c0,1.5,1.22,2.71,2.71,2.71h33.57c1.5,0,2.71-1.21,2.71-2.71v-22.57
						C74,384.21,72.79,383,71.29,383z M41,391c-1.1,0-2-0.9-2-2s0.9-2,2-2c1.1,0,2,0.9,2,2S42.1,391,41,391z M64.88,401.52
						c-0.73,1.44-1.91,2.63-3.36,3.36c-8.31,4.18-16.58-4.1-12.41-12.41c0.73-1.44,1.91-2.63,3.36-3.36
						C60.78,384.94,69.06,393.22,64.88,401.52z"/>
				</g>
			</g>
		</g>
	</g>
	<g>
		<g>
			<path class="st0" d="M396,335.5h-1.5v1h1.5c0.28,0,0.5-0.22,0.5-0.5S396.28,335.5,396,335.5z M406.71,308.17h-24.42
				c-1.1,0-2,0.9-2,2v32.66c0,1.1,0.9,2,2,2h24.42c1.1,0,2-0.9,2-2v-32.66C408.71,309.06,407.82,308.17,406.71,308.17z
				 M389.77,341.5h-2.18c-1.15,0-2.09-0.94-2.09-2.09v-3.82c0-1.15,0.94-2.09,2.09-2.09h1.91c0.55,0,1,0.45,1,1s-0.45,1-1,1h-1.91
				c-0.05,0-0.09,0.04-0.09,0.09v0.91h1.27c0.55,0,1,0.45,1,1s-0.45,1-1,1h-1.27v0.91c0,0.05,0.04,0.09,0.09,0.09h2.18
				c0.55,0,1,0.45,1,1S390.32,341.5,389.77,341.5z M396,338.5h-1.5v2c0,0.55-0.45,1-1,1s-1-0.45-1-1v-6c0-0.55,0.45-1,1-1h2.5
				c1.38,0,2.5,1.12,2.5,2.5S397.38,338.5,396,338.5z M402,336.5c1.38,0,2.5,1.12,2.5,2.5s-1.12,2.5-2.5,2.5h-1.5
				c-0.55,0-1-0.45-1-1s0.45-1,1-1h1.5c0.28,0,0.5-0.22,0.5-0.5s-0.22-0.5-0.5-0.5c-1.38,0-2.5-1.12-2.5-2.5s1.12-2.5,2.5-2.5h1.5
				c0.55,0,1,0.45,1,1s-0.45,1-1,1H402c-0.28,0-0.5,0.22-0.5,0.5S401.72,336.5,402,336.5z M405.29,329.5c0,0.55-0.45,1-1,1h-19.58
				c-0.55,0-1-0.45-1-1v-16.67c0-0.55,0.45-1,1-1h19.58c0.55,0,1,0.45,1,1V329.5z"/>
			<path class="st0" d="M401.5,318.88h-14.35c-0.55,0-1,0.45-1,1c0,0.55,0.45,1,1,1h2.55c-1.08,1.14-1.75,2.69-1.75,4.38
				c0,0.55,0.45,1,1,1c0.55,0,1-0.45,1-1c0-2.42,1.97-4.38,4.38-4.38c2.42,0,4.38,1.97,4.38,4.38c0,0.55,0.45,1,1,1
				c0.55,0,1-0.45,1-1c0-1.7-0.67-3.24-1.75-4.38h2.55c0.55,0,1-0.45,1-1C402.5,319.33,402.05,318.88,401.5,318.88z"/>
		</g>
	</g>
	<g>
		<g>
			<path class="st0" d="M323.11,319.07c0.99,0,1.79-0.8,1.79-1.79c0-0.99-0.8-1.79-1.79-1.79c-0.99,0-1.79,0.8-1.79,1.79
				C321.32,318.27,322.12,319.07,323.11,319.07z M334.28,325.67l-4.45-6.5c-0.4-0.59-1.27-0.58-1.67,0.01l-4.21,6.31l-1.68-3.03
				c-0.37-0.67-1.33-0.69-1.74-0.04l-2.03,3.3c-0.48,0.78,0.08,1.78,1,1.78h13.81C334.26,327.5,334.81,326.45,334.28,325.67z"/>
			<path class="st0" d="M338.71,308.17h-24.42c-1.1,0-2,0.9-2,2v32.66c0,1.1,0.9,2,2,2h24.42c1.1,0,2-0.9,2-2v-32.66
				C340.71,309.06,339.82,308.17,338.71,308.17z M321.5,339.5h0.5c0.28,0,0.5-0.22,0.5-0.5v-0.5h-1c-0.55,0-1-0.45-1-1s0.45-1,1-1h2
				c0.55,0,1,0.45,1,1v1.5c0,1.38-1.12,2.5-2.5,2.5h-0.5c-2.21,0-4-1.79-4-4s1.79-4,4-4h2c0.55,0,1,0.45,1,1s-0.45,1-1,1h-2
				c-1.1,0-2,0.9-2,2S320.4,339.5,321.5,339.5z M328.5,340.5c0,0.55-0.45,1-1,1s-1-0.45-1-1v-6c0-0.55,0.45-1,1-1s1,0.45,1,1V340.5z
				 M335.5,335.5h-2.74c-0.14,0-0.26,0.12-0.26,0.26v0.74h2c0.55,0,1,0.45,1,1s-0.45,1-1,1h-2v2c0,0.55-0.45,1-1,1s-1-0.45-1-1
				v-4.74c0-1.25,1.01-2.26,2.26-2.26h2.74c0.55,0,1,0.45,1,1S336.05,335.5,335.5,335.5z M337.29,329.5c0,0.55-0.45,1-1,1h-19.58
				c-0.55,0-1-0.45-1-1v-16.67c0-0.55,0.45-1,1-1h19.58c0.55,0,1,0.45,1,1V329.5z"/>
		</g>
	</g>
	<g>
		<g>
			<path class="st0" d="M273.5,314.5c-0.83,0-1.5,0.67-1.5,1.5v21c0,0.83,0.67,1.5,1.5,1.5s1.5-0.67,1.5-1.5v-21
				C275,315.17,274.33,314.5,273.5,314.5z M243.5,314.5c-0.83,0-1.5,0.67-1.5,1.5v21c0,0.83,0.67,1.5,1.5,1.5s1.5-0.67,1.5-1.5v-21
				C245,315.17,244.33,314.5,243.5,314.5z"/>
			<path class="st0" d="M267.5,310.5h-18c-1.1,0-2,0.9-2,2v28c0,1.1,0.9,2,2,2h18c1.1,0,2-0.9,2-2v-28
				C269.5,311.4,268.61,310.5,267.5,310.5z M254.77,315.81c0-0.64,0.72-1.03,1.25-0.67l7.03,4.69c0.48,0.32,0.48,1.02,0,1.34
				l-7.03,4.69c-0.54,0.36-1.25-0.03-1.25-0.67V315.81z M259.09,338.29h-7c-0.69,0-1.25-0.56-1.25-1.25c0-0.69,0.56-1.25,1.25-1.25
				h7c0.69,0,1.25,0.56,1.25,1.25C260.34,337.73,259.79,338.29,259.09,338.29z M264.09,333.29h-12c-0.69,0-1.25-0.56-1.25-1.25
				c0-0.69,0.56-1.25,1.25-1.25h12c0.69,0,1.25,0.56,1.25,1.25C265.34,332.73,264.79,333.29,264.09,333.29z"/>
		</g>
	</g>
	<g>
		<g>
			<path class="st0" d="M175.5,314.5c-0.83,0-1.5,0.67-1.5,1.5v21c0,0.83,0.67,1.5,1.5,1.5c0.83,0,1.5-0.67,1.5-1.5v-21
				C177,315.17,176.33,314.5,175.5,314.5z M205.5,314.5c-0.83,0-1.5,0.67-1.5,1.5v21c0,0.83,0.67,1.5,1.5,1.5
				c0.83,0,1.5-0.67,1.5-1.5v-21C207,315.17,206.33,314.5,205.5,314.5z"/>
			<path class="st0" d="M199.5,310.5h-18c-1.1,0-2,0.9-2,2v28c0,1.1,0.9,2,2,2h18c1.1,0,2-0.9,2-2v-28
				C201.5,311.4,200.6,310.5,199.5,310.5z M191.09,338.29h-7c-0.69,0-1.25-0.56-1.25-1.25c0-0.69,0.56-1.25,1.25-1.25h7
				c0.69,0,1.25,0.56,1.25,1.25C192.34,337.73,191.79,338.29,191.09,338.29z M196.09,333.29h-12c-0.69,0-1.25-0.56-1.25-1.25
				c0-0.69,0.56-1.25,1.25-1.25h12c0.69,0,1.25,0.56,1.25,1.25C197.34,332.73,196.79,333.29,196.09,333.29z M196.6,323.5h-12.2
				c-0.81,0-1.3-0.89-0.88-1.57l1.79-2.91c0.36-0.58,1.2-0.56,1.53,0.03l1.48,2.67l3.72-5.57c0.35-0.52,1.12-0.53,1.47-0.01
				l3.93,5.74C197.92,322.57,197.43,323.5,196.6,323.5z"/>
		</g>
	</g>
	<g>
		<g>
			<path class="st0" d="M134.53,331.14c-0.08,0.06-0.16,0.1-0.24,0.16c0.08,0.09,0.13,0.2,0.13,0.32v5c0,0.28-0.22,0.5-0.5,0.5h-3
				c-0.28,0-0.5-0.22-0.5-0.5v-5c0-0.11,0.04-0.21,0.11-0.29c-0.06-0.04-0.12-0.07-0.18-0.11c-2.38-1.72-7.99-6.45-8.57-13.07
				c-0.09-1.03-0.02-2.05,0.18-3.03h-10.04c-0.28,0-0.5,0.22-0.5,0.5v3c0,0.28-0.22,0.5-0.5,0.5h-3c-0.28,0-0.5-0.22-0.5-0.5v-3
				c0-0.28-0.22-0.5-0.5-0.5h-2c-0.28,0-0.5,0.22-0.5,0.5v28c0,0.28,0.22,0.5,0.5,0.5h2c0.28,0,0.5-0.22,0.5-0.5v-3
				c0-0.28,0.22-0.5,0.5-0.5h3c0.28,0,0.5,0.22,0.5,0.5v3c0,0.28,0.22,0.5,0.5,0.5h18c0.28,0,0.5-0.22,0.5-0.5v-3
				c0-0.28,0.22-0.5,0.5-0.5h3c0.28,0,0.5,0.22,0.5,0.5v3c0,0.28,0.22,0.5,0.5,0.5h2c0.28,0,0.5-0.22,0.5-0.5v-15.05
				C136.32,329.68,135.28,330.56,134.53,331.14z M111.41,336.62c0,0.28-0.22,0.5-0.5,0.5h-3c-0.28,0-0.5-0.22-0.5-0.5v-5
				c0-0.28,0.22-0.5,0.5-0.5h3c0.28,0,0.5,0.22,0.5,0.5V336.62z M111.41,327.62c0,0.28-0.22,0.5-0.5,0.5h-3
				c-0.28,0-0.5-0.22-0.5-0.5v-5c0-0.28,0.22-0.5,0.5-0.5h3c0.28,0,0.5,0.22,0.5,0.5V327.62z M124.22,330.16l-5.97,3.66
				c-0.42,0.26-0.96-0.04-0.96-0.54v-7.31c0-0.49,0.54-0.79,0.96-0.54l5.97,3.66C124.62,329.33,124.62,329.91,124.22,330.16z"/>
			<path class="st0" d="M131.51,308.93c-4.35,0.46-7.63,4.65-7.25,9c0.5,5.71,5.74,9.96,7.54,11.26c0.36,0.26,0.83,0.25,1.18-0.02
				c1.87-1.46,7.6-6.4,7.6-12.11C140.59,312.25,136.43,308.4,131.51,308.93z M132.41,320.88c-2.11,0-3.82-1.71-3.82-3.82
				c0-2.11,1.71-3.82,3.82-3.82c2.11,0,3.82,1.71,3.82,3.82C136.23,319.17,134.52,320.88,132.41,320.88z"/>
		</g>
	</g>
	<g>
		<g>
			<g>
				<path class="st0" d="M65.51,308.3c-4.35,0.46-7.63,4.65-7.25,9c0.5,5.71,5.74,9.96,7.54,11.26c0.36,0.26,0.83,0.25,1.18-0.02
					c1.87-1.46,7.6-6.4,7.6-12.11C74.59,311.62,70.43,307.77,65.51,308.3z M66.41,320.25c-2.11,0-3.82-1.71-3.82-3.82
					c0-2.11,1.71-3.82,3.82-3.82c2.11,0,3.82,1.71,3.82,3.82C70.23,318.54,68.52,320.25,66.41,320.25z"/>
				<path class="st0" d="M64.34,330.59c-2.36-1.7-7.85-6.34-8.54-12.84H38.41c-2.21,0-4,1.79-4,4v19c0,2.21,1.79,4,4,4h23
					c2.21,0,4-1.79,4-4v-9.64C65.03,331,64.67,330.83,64.34,330.59z M45.5,323.26c1.47,0,2.65,1.19,2.65,2.65
					c0,1.47-1.19,2.65-2.65,2.65c-1.47,0-2.65-1.19-2.65-2.65C42.85,324.44,44.03,323.26,45.5,323.26z M60.67,341.08H40.15
					c-1.36,0-2.19-1.49-1.48-2.65l3.01-4.9c0.6-0.97,2.03-0.94,2.58,0.06l2.5,4.5l6.25-9.38c0.59-0.88,1.88-0.89,2.48-0.01
					l6.61,9.66C62.89,339.52,62.07,341.08,60.67,341.08z"/>
			</g>
		</g>
	</g>
	<g>
		<g>
			<circle class="st0" cx="389" cy="273" r="3"/>
			<path class="st0" d="M381.59,271.5H378c-0.83,0-1.5,0.67-1.5,1.5s0.67,1.5,1.5,1.5h3.59c0.81,0,1.42-0.68,1.41-1.48v-0.03
				C383,272.18,382.4,271.5,381.59,271.5z M410,241h-31c-1.66,0-3,1.34-3,3v20c0,1.66,1.34,3,3,3h31c1.66,0,3-1.34,3-3v-20
				C413,242.34,411.66,241,410,241z M400.56,254.78l-8.67,5.31c-0.61,0.37-1.39-0.07-1.39-0.78v-10.62c0-0.71,0.78-1.15,1.39-0.78
				l8.67,5.31C401.15,253.58,401.15,254.42,400.56,254.78z M411,271.5h-14.59c-0.81,0-1.42,0.68-1.41,1.48v0.03
				c0,0.81,0.6,1.48,1.41,1.48H411c0.83,0,1.5-0.67,1.5-1.5S411.83,271.5,411,271.5z"/>
		</g>
	</g>
	<g>
		<g>
			<path class="st0" d="M326.5,247.25c-3.45,0-6.25,2.8-6.25,6.25c0,3.45,2.8,6.25,6.25,6.25s6.25-2.8,6.25-6.25
				C332.75,250.05,329.95,247.25,326.5,247.25z M329.85,253.9l-4.43,2.71c-0.31,0.19-0.71-0.03-0.71-0.4v-5.42
				c0-0.36,0.4-0.59,0.71-0.4l4.43,2.71C330.15,253.28,330.15,253.72,329.85,253.9z"/>
			<path class="st0" d="M338.71,239.5h-24.42c-1.1,0-2,0.9-2,2v34c0,1.1,0.9,2,2,2h24.42c1.1,0,2-0.9,2-2v-34
				C340.71,240.4,339.82,239.5,338.71,239.5z M319.29,272.85c-0.33,0.22-0.75,0.22-1.09,0c-0.79-0.51-2.16-1.61-2.18-3.05
				c-0.01-0.67,0.41-1.32,1.05-1.53c0.65-0.22,1.27-0.02,1.67,0.39c0.4-0.41,1.02-0.61,1.67-0.39c0.64,0.21,1.06,0.86,1.05,1.53
				C321.45,271.24,320.08,272.34,319.29,272.85z M330,273.92h-5.03c-0.69,0-1.25-0.56-1.25-1.25s0.56-1.25,1.25-1.25H330
				c0.69,0,1.25,0.56,1.25,1.25S330.69,273.92,330,273.92z M335,268.92h-10.03c-0.69,0-1.25-0.56-1.25-1.25s0.56-1.25,1.25-1.25H335
				c0.69,0,1.25,0.56,1.25,1.25S335.69,268.92,335,268.92z M337.29,261.5c0,0.55-0.45,1-1,1h-19.58c-0.55,0-1-0.45-1-1v-16
				c0-0.55,0.45-1,1-1h19.58c0.55,0,1,0.45,1,1V261.5z"/>
		</g>
	</g>
	<g>
		<g>
			<path class="st0" d="M255.11,252.07c0.99,0,1.79-0.8,1.79-1.79c0-0.99-0.8-1.79-1.79-1.79c-0.99,0-1.79,0.8-1.79,1.79
				C253.32,251.27,254.12,252.07,255.11,252.07z M266.28,258.67l-4.45-6.5c-0.4-0.59-1.27-0.58-1.67,0.01l-4.21,6.31l-1.68-3.03
				c-0.37-0.67-1.33-0.69-1.74-0.04l-2.03,3.3c-0.48,0.78,0.08,1.78,1,1.78h13.81C266.26,260.5,266.81,259.45,266.28,258.67z"/>
			<path class="st0" d="M270.71,240.5h-24.42c-1.1,0-2,0.9-2,2v34c0,1.1,0.9,2,2,2h24.42c1.1,0,2-0.9,2-2v-34
				C272.71,241.4,271.82,240.5,270.71,240.5z M251.32,273.85c-0.33,0.22-0.75,0.22-1.09,0c-0.79-0.51-2.16-1.61-2.18-3.05
				c-0.01-0.67,0.41-1.32,1.05-1.53c0.65-0.22,1.27-0.02,1.67,0.39c0.4-0.41,1.02-0.61,1.67-0.39c0.64,0.21,1.06,0.86,1.05,1.53
				C253.48,272.24,252.11,273.34,251.32,273.85z M262,274.92h-5c-0.69,0-1.25-0.56-1.25-1.25s0.56-1.25,1.25-1.25h5
				c0.69,0,1.25,0.56,1.25,1.25S262.69,274.92,262,274.92z M268,270.25h-11c-0.69,0-1.25-0.56-1.25-1.25c0-0.69,0.56-1.25,1.25-1.25
				h11c0.69,0,1.25,0.56,1.25,1.25C269.25,269.69,268.69,270.25,268,270.25z M269.29,262.5c0,0.55-0.45,1-1,1h-19.58
				c-0.55,0-1-0.45-1-1v-16c0-0.55,0.45-1,1-1h19.58c0.55,0,1,0.45,1,1V262.5z"/>
		</g>
	</g>
	<g>
		<g>
			<path class="st0" d="M198.9,257.68H182.1c-0.28,0-0.5,0.22-0.5,0.5v12c0,0.28,0.22,0.5,0.5,0.5h16.81c0.28,0,0.5-0.22,0.5-0.5
				v-12C199.4,257.9,199.18,257.68,198.9,257.68z M195.44,268.24h-9.87c-0.65,0-1.05-0.72-0.71-1.27l1.45-2.36
				c0.29-0.47,0.97-0.45,1.24,0.03l1.2,2.16l3.01-4.51c0.28-0.42,0.9-0.43,1.19-0.01l3.18,4.65
				C196.51,267.48,196.11,268.24,195.44,268.24z"/>
			<path class="st0" d="M196.69,240.82c-6.19,0-11.36,4.35-12.63,10.16c-1.25-0.73-2.7-1.15-4.25-1.15c-4.66,0-8.44,3.78-8.44,8.44
				c0,4.42,3.4,8.03,7.73,8.4v-8.48c0-1.65,1.35-3,3-3h16.81c1.65,0,3,1.35,3,3v7.41c4.55-2,7.73-6.54,7.73-11.83
				C209.63,246.62,203.84,240.82,196.69,240.82z M203,269.18c-0.83,0-1.5,0.67-1.5,1.5v2c0,0.28-0.22,0.5-0.5,0.5h-21
				c-0.28,0-0.5-0.22-0.5-0.5v-2c0-0.83-0.67-1.5-1.5-1.5c-0.83,0-1.5,0.67-1.5,1.5v2c0,1.93,1.57,3.5,3.5,3.5h21
				c1.93,0,3.5-1.57,3.5-3.5v-2C204.5,269.85,203.83,269.18,203,269.18z"/>
		</g>
	</g>
	<g>
		<g>
			<path class="st0" d="M130.9,257.68H114.1c-0.28,0-0.5,0.22-0.5,0.5v12c0,0.28,0.22,0.5,0.5,0.5h16.81c0.28,0,0.5-0.22,0.5-0.5
				v-12C131.4,257.9,131.18,257.68,130.9,257.68z M126.25,264.62l-4.96,3.04c-0.35,0.21-0.79-0.04-0.79-0.44v-6.07
				c0-0.41,0.45-0.66,0.79-0.44l4.96,3.04C126.58,263.94,126.58,264.42,126.25,264.62z"/>
			<path class="st0" d="M135,269.18c-0.83,0-1.5,0.67-1.5,1.5v2c0,0.28-0.22,0.5-0.5,0.5h-21c-0.28,0-0.5-0.22-0.5-0.5v-2
				c0-0.83-0.67-1.5-1.5-1.5c-0.83,0-1.5,0.67-1.5,1.5v2c0,1.93,1.57,3.5,3.5,3.5h21c1.93,0,3.5-1.57,3.5-3.5v-2
				C136.5,269.85,135.83,269.18,135,269.18z M128.69,240.82c-6.19,0-11.36,4.35-12.63,10.16c-1.25-0.73-2.7-1.15-4.25-1.15
				c-4.66,0-8.44,3.78-8.44,8.44c0,4.42,3.4,8.03,7.73,8.4v-8.48c0-1.65,1.35-3,3-3h16.81c1.65,0,3,1.35,3,3v7.41
				c4.55-2,7.73-6.54,7.73-11.83C141.63,246.62,135.84,240.82,128.69,240.82z"/>
		</g>
	</g>
	<g>
		<g>
			<path class="st0" d="M57.75,249.5h-1v-4c0-1.65-1.35-3-3-3H38.78c-1.1,0-2,0.9-2,2s0.9,2,2,2h13.97v3h-15c-2.21,0-4,1.79-4,4v17
				c0,2.21,1.79,4,4,4h20c2.21,0,4-1.79,4-4v-17C61.75,251.29,59.96,249.5,57.75,249.5z M55.44,257.06c-1.1,0-2-0.9-2-2
				c0-1.1,0.9-2,2-2c1.1,0,2,0.9,2,2C57.43,256.17,56.54,257.06,55.44,257.06z"/>
			<path class="st0" d="M72.29,253.11l-7,3.82c-0.64,0.35-1.04,1.02-1.04,1.76v6.63c0,0.73,0.4,1.41,1.04,1.76l7,3.82
				c1.33,0.73,2.96-0.24,2.96-1.76v-14.26C75.25,253.35,73.63,252.39,72.29,253.11z"/>
		</g>
	</g>
	<g>
		<g>
			<path class="st0" d="M412.88,194.63h-2.32c-0.45,0-0.82-0.37-0.82-0.82v-6.63c0-0.45,0.37-0.82,0.82-0.82h2.32
				c0.83,0,1.5-0.67,1.5-1.5c0-0.83-0.67-1.5-1.5-1.5h-2.32c-2.1,0-3.82,1.71-3.82,3.82v6.63c0,2.1,1.71,3.82,3.82,3.82h2.32
				c0.83,0,1.5-0.67,1.5-1.5C414.38,195.3,413.7,194.63,412.88,194.63z M403.77,186.37c0.83,0,1.5-0.67,1.5-1.5
				c0-0.83-0.67-1.5-1.5-1.5h-4.63c-0.83,0-1.5,0.67-1.5,1.5v11.26c0,0.83,0.67,1.5,1.5,1.5h4.63c0.83,0,1.5-0.67,1.5-1.5
				c0-0.83-0.67-1.5-1.5-1.5h-3.13V192h1.97c0.83,0,1.5-0.67,1.5-1.5s-0.67-1.5-1.5-1.5h-1.97v-2.63H403.77z M391.9,183.37h-4.02
				c-0.83,0-1.5,0.67-1.5,1.5v11.26c0,0.83,0.67,1.5,1.5,1.5s1.5-0.67,1.5-1.5v-4.1l3.01,4.88c0.28,0.46,0.77,0.71,1.28,0.71
				c0.27,0,0.54-0.07,0.79-0.22c0.71-0.43,0.92-1.36,0.49-2.06l-2.15-3.48c1.37-0.39,2.37-1.64,2.37-3.13v-2.1
				C395.16,184.83,393.7,183.37,391.9,183.37z M392.16,188.73c0,0.15-0.12,0.27-0.27,0.27h-2.52v-2.63h2.52
				c0.15,0,0.27,0.12,0.27,0.27V188.73z"/>
			<circle class="st0" cx="378.75" cy="190.5" r="4.13"/>
		</g>
	</g>
	<g>
		<g>
			<path class="st0" d="M340.5,202.75h-27c-0.83,0-1.5,0.67-1.5,1.5s0.67,1.5,1.5,1.5h27c0.83,0,1.5-0.67,1.5-1.5
				S341.33,202.75,340.5,202.75z"/>
			<path class="st0" d="M342,175.25h-31c-1.1,0-2,0.9-2,2v21c0,1.1,0.9,2,2,2h31c1.1,0,2-0.9,2-2v-21
				C344,176.15,343.1,175.25,342,175.25z M321.5,178.75c1.38,0,2.5,1.12,2.5,2.5s-1.12,2.5-2.5,2.5c-1.38,0-2.5-1.12-2.5-2.5
				S320.12,178.75,321.5,178.75z M336.72,196.75h-20.44c-1.35,0-2.18-1.48-1.47-2.64l3-4.88c0.6-0.97,2.02-0.94,2.57,0.06l2.49,4.48
				l6.23-9.34c0.59-0.88,1.87-0.89,2.47-0.01l6.58,9.62C338.93,195.19,338.11,196.75,336.72,196.75z"/>
		</g>
	</g>
	<g>
		<g>
			<g>
				<path class="st0" d="M250.5,177.5l19,0h0v-2c0-2.21-1.79-4-4-4h-16c-2.21,0-4,1.79-4,4v30c0,2.21,1.79,4,4,4h16
					c2.21,0,4-1.79,4-4v-8h-4v2c0,0.55-0.45,1-1,1h-14c-0.55,0-1-0.45-1-1v-21C249.5,177.95,249.95,177.5,250.5,177.5z M258.5,207
					h-2c-1.1,0-2-0.9-2-2l0,0c0-1.1,0.9-2,2-2h2c1.1,0,2,0.9,2,2l0,0C260.5,206.1,259.6,207,258.5,207z"/>
				<path class="st0" d="M269.5,180h-14c-1.1,0-2,0.9-2,2v14c0,0.82,0.94,1.29,1.6,0.8l1.87-1.4c0.35-0.26,0.77-0.4,1.2-0.4h11.33
					c1.1,0,2-0.9,2-2v-11C271.5,180.9,270.6,180,269.5,180z M262.5,191.47c0,0-4-2-4-5c0-1.29,1.04-2.33,2.33-2.33
					c0.65,0,1.24,0.27,1.67,0.7c0.42-0.43,1.01-0.7,1.67-0.7c1.29,0,2.33,1.04,2.33,2.33C266.5,189.47,262.5,191.47,262.5,191.47z"
					/>
			</g>
		</g>
	</g>
	<g>
		<g>
			<g>
				<path class="st0" d="M182.5,177.5l19,0v-2c0-2.21-1.79-4-4-4h-16c-2.21,0-4,1.79-4,4v30c0,2.21,1.79,4,4,4h16c2.21,0,4-1.79,4-4
					v-8h-4v2c0,0.55-0.45,1-1,1h-14c-0.55,0-1-0.45-1-1v-21C181.5,177.95,181.95,177.5,182.5,177.5z M190.5,207h-2c-1.1,0-2-0.9-2-2
					l0,0c0-1.1,0.9-2,2-2h2c1.1,0,2,0.9,2,2l0,0C192.5,206.1,191.6,207,190.5,207z"/>
				<path class="st0" d="M201.5,180h-14c-1.1,0-2,0.9-2,2v14c0,0.82,0.94,1.29,1.6,0.8l1.87-1.4c0.35-0.26,0.77-0.4,1.2-0.4h11.33
					c1.1,0,2-0.9,2-2v-11C203.5,180.9,202.6,180,201.5,180z M192.1,182.5c0.83,0,1.5,0.67,1.5,1.5s-0.67,1.5-1.5,1.5
					c-0.83,0-1.5-0.67-1.5-1.5S191.27,182.5,192.1,182.5z M199.68,191.5h-10.36c-0.69,0-1.11-0.75-0.75-1.34l1.52-2.47
					c0.3-0.49,1.02-0.48,1.3,0.03l1.26,2.27l3.16-4.73c0.3-0.45,0.95-0.45,1.25-0.01l3.34,4.88
					C200.8,190.71,200.39,191.5,199.68,191.5z"/>
			</g>
		</g>
	</g>
	<g>
		<g>
			<g>
				<path class="st0" d="M114.5,177.5h19v-2c0-2.21-1.79-4-4-4h-16c-2.21,0-4,1.79-4,4v30c0,2.21,1.79,4,4,4h16c2.21,0,4-1.79,4-4
					v-8h-4v2c0,0.55-0.45,1-1,1h-14c-0.55,0-1-0.45-1-1v-21C113.5,177.95,113.95,177.5,114.5,177.5z M122.5,207h-2c-1.1,0-2-0.9-2-2
					l0,0c0-1.1,0.9-2,2-2h2c1.1,0,2,0.9,2,2l0,0C124.5,206.1,123.6,207,122.5,207z"/>
				<path class="st0" d="M133.5,180h-14c-1.1,0-2,0.9-2,2v14c0,0.82,0.94,1.29,1.6,0.8l1.87-1.4c0.35-0.26,0.77-0.4,1.2-0.4h11.33
					c1.1,0,2-0.9,2-2v-11C135.5,180.9,134.6,180,133.5,180z M129.87,188.35l-4.09,2.51c-0.67,0.41-1.52-0.07-1.52-0.85v-5.01
					c0-0.78,0.86-1.26,1.52-0.85l4.09,2.51C130.5,187.04,130.5,187.96,129.87,188.35z"/>
			</g>
		</g>
	</g>
	<g>
		<g>
			<path class="st0" d="M64.05,171.62H44.95c-0.69,0-1.25,0.56-1.25,1.25c0,0.69,0.56,1.25,1.25,1.25h19.11
				c0.69,0,1.25-0.56,1.25-1.25C65.3,172.18,64.75,171.62,64.05,171.62z"/>
			<path class="st0" d="M70,176.37H39c-1.1,0-2,0.9-2,2v21c0,1.1,0.9,2,2,2h5.34l-2.24,5.97c-0.29,0.78,0.1,1.64,0.88,1.93
				c0.17,0.07,0.35,0.1,0.53,0.1c0.61,0,1.18-0.37,1.4-0.97l2.64-7.03H53v6.5c0,0.83,0.67,1.5,1.5,1.5c0.83,0,1.5-0.67,1.5-1.5v-6.5
				h5.46l2.64,7.03c0.23,0.6,0.8,0.97,1.4,0.97c0.18,0,0.35-0.03,0.53-0.1c0.78-0.29,1.17-1.16,0.88-1.93l-2.24-5.97H70
				c1.1,0,2-0.9,2-2v-21C72,177.27,71.1,176.37,70,176.37z M50.65,183.37c0.96,0,1.73,0.78,1.73,1.73c0,0.96-0.78,1.73-1.73,1.73
				s-1.73-0.78-1.73-1.73C48.92,184.15,49.7,183.37,50.65,183.37z M61.49,196.37H47.51c-0.93,0-1.49-1.02-1.01-1.81l2.05-3.34
				c0.41-0.66,1.38-0.64,1.76,0.04l1.7,3.06l4.26-6.39c0.4-0.6,1.28-0.61,1.69-0.01l4.51,6.59
				C63.01,195.31,62.45,196.37,61.49,196.37z"/>
		</g>
	</g>
	<g>
		<g>
			<path class="st0" d="M405,136.75h-21c-0.83,0-1.5,0.67-1.5,1.5s0.67,1.5,1.5,1.5h21c0.83,0,1.5-0.67,1.5-1.5
				S405.83,136.75,405,136.75z"/>
			<path class="st0" d="M393.88,116.05c-1.65,0.25-2.99,1.6-3.25,3.25c-0.41,2.64,1.84,4.89,4.48,4.48c1.65-0.25,2.99-1.6,3.25-3.25
				C398.77,117.89,396.52,115.64,393.88,116.05z M413.5,105.25h-38c-1.1,0-2,0.9-2,2v25c0,1.1,0.9,2,2,2h38c1.1,0,2-0.9,2-2v-25
				C415.5,106.15,414.6,105.25,413.5,105.25z M404.5,119.97c0,0.77-0.62,1.39-1.39,1.39H403c-0.6,0-1.12,0.38-1.31,0.95
				c-0.08,0.22-0.16,0.45-0.26,0.66c-0.23,0.52-0.12,1.13,0.28,1.54l0.06,0.06c0.54,0.54,0.54,1.42,0,1.97l-0.49,0.49
				c-0.54,0.54-1.42,0.54-1.97,0l0,0c-0.42-0.42-1.07-0.51-1.61-0.26c-0.21,0.1-0.43,0.19-0.65,0.27c-0.56,0.2-0.95,0.72-0.95,1.32
				c0,0.77-0.62,1.39-1.39,1.39h-0.44c-0.77,0-1.39-0.62-1.39-1.39c0-0.6-0.39-1.11-0.95-1.32c-0.22-0.08-0.44-0.17-0.65-0.27
				c-0.54-0.26-1.18-0.17-1.61,0.26l0,0c-0.54,0.54-1.42,0.54-1.97,0l-0.49-0.49c-0.54-0.54-0.54-1.42,0-1.97l0.06-0.06
				c0.41-0.41,0.52-1.02,0.28-1.54c-0.1-0.22-0.18-0.44-0.26-0.66c-0.19-0.57-0.71-0.95-1.31-0.95h-0.11
				c-0.77,0-1.39-0.62-1.39-1.39v-0.44c0-0.77,0.62-1.39,1.39-1.39h0.23c0.58,0,1.09-0.36,1.3-0.9c0.07-0.19,0.15-0.38,0.24-0.57
				c0.25-0.53,0.15-1.16-0.27-1.58l-0.17-0.17c-0.54-0.54-0.54-1.42,0-1.97l0.49-0.49c0.54-0.54,1.42-0.54,1.97,0l0.23,0.23
				c0.41,0.41,1.02,0.51,1.55,0.28c0.17-0.07,0.34-0.14,0.51-0.2c0.55-0.2,0.93-0.72,0.93-1.31v-0.33c0-0.77,0.62-1.39,1.39-1.39
				h0.44c0.77,0,1.39,0.62,1.39,1.39v0.33c0,0.59,0.38,1.11,0.93,1.31c0.17,0.06,0.34,0.13,0.51,0.2c0.53,0.23,1.14,0.13,1.55-0.28
				l0.23-0.23c0.54-0.54,1.42-0.54,1.97,0l0.49,0.49c0.54,0.54,0.54,1.42,0,1.97l-0.17,0.17c-0.42,0.42-0.52,1.05-0.27,1.58
				c0.09,0.18,0.17,0.37,0.24,0.56c0.2,0.54,0.72,0.9,1.3,0.9h0.23c0.77,0,1.39,0.62,1.39,1.39V119.97z"/>
		</g>
	</g>
	<g>
		<g>
			<path class="st0" d="M337,136.75h-21c-0.83,0-1.5,0.67-1.5,1.5s0.67,1.5,1.5,1.5h21c0.83,0,1.5-0.67,1.5-1.5
				S337.83,136.75,337,136.75z"/>
			<path class="st0" d="M345.5,105.25h-38c-1.1,0-2,0.9-2,2v25c0,1.1,0.9,2,2,2h38c1.1,0,2-0.9,2-2v-25
				C347.5,106.15,346.6,105.25,345.5,105.25z M330.24,126.91c-0.44,0.7-1.37,0.92-2.07,0.48c-1.02-0.64-2.33-0.63-3.33,0.02
				c-0.25,0.16-0.53,0.24-0.81,0.24c-0.49,0-0.97-0.24-1.26-0.69c-0.45-0.7-0.25-1.63,0.45-2.07c1.98-1.28,4.56-1.3,6.56-0.05
				C330.47,125.29,330.68,126.21,330.24,126.91z M333.09,121.77c-0.44,0.7-1.37,0.92-2.07,0.48c-2.75-1.72-6.29-1.7-9.02,0.07
				c-0.25,0.16-0.53,0.24-0.81,0.24c-0.49,0-0.97-0.24-1.26-0.69c-0.45-0.7-0.25-1.62,0.45-2.07c3.7-2.39,8.5-2.43,12.24-0.09
				C333.31,120.14,333.53,121.07,333.09,121.77z M336.47,116.82c-0.29,0.44-0.77,0.67-1.25,0.67c-0.28,0-0.57-0.08-0.83-0.25
				c-4.77-3.15-10.97-3.21-15.8-0.16c-0.7,0.44-1.63,0.23-2.07-0.47c-0.44-0.7-0.23-1.63,0.47-2.07c5.83-3.68,13.31-3.6,19.05,0.19
				C336.73,115.2,336.92,116.13,336.47,116.82z"/>
		</g>
	</g>
	<g>
		<g>
			<path class="st0" d="M269,136.75h-21c-0.83,0-1.5,0.67-1.5,1.5s0.67,1.5,1.5,1.5h21c0.83,0,1.5-0.67,1.5-1.5
				S269.83,136.75,269,136.75z"/>
			<path class="st0" d="M277.5,105.25h-38c-1.1,0-2,0.9-2,2v25c0,1.1,0.9,2,2,2h38c1.1,0,2-0.9,2-2v-25
				C279.5,106.15,278.6,105.25,277.5,105.25z M250.5,118.25h1c2.48,0,4.5,2.02,4.5,4.5s-2.02,4.5-4.5,4.5h-4
				c-0.83,0-1.5-0.67-1.5-1.5s0.67-1.5,1.5-1.5h4c0.83,0,1.5-0.67,1.5-1.5s-0.67-1.5-1.5-1.5h-1c-2.48,0-4.5-2.02-4.5-4.5
				s2.02-4.5,4.5-4.5h4c0.83,0,1.5,0.67,1.5,1.5s-0.67,1.5-1.5,1.5h-4c-0.83,0-1.5,0.67-1.5,1.5S249.67,118.25,250.5,118.25z
				 M263.5,127.25h-3c-0.83,0-1.5-0.67-1.5-1.5v-12c0-0.83,0.67-1.5,1.5-1.5h3c4.14,0,7.5,3.36,7.5,7.5S267.64,127.25,263.5,127.25z
				 M263.5,115.25H262v9h1.5c2.48,0,4.5-2.02,4.5-4.5S265.98,115.25,263.5,115.25z"/>
		</g>
	</g>
	<g>
		<g>
			<path class="st0" d="M201,136.75h-21c-0.83,0-1.5,0.67-1.5,1.5s0.67,1.5,1.5,1.5h21c0.83,0,1.5-0.67,1.5-1.5
				S201.83,136.75,201,136.75z"/>
			<path class="st0" d="M195.92,115.26h-1.5v9h1.5c2.48,0,4.5-2.02,4.5-4.5S198.4,115.26,195.92,115.26z M209.5,105.25h-38
				c-1.1,0-2,0.9-2,2v25c0,1.1,0.9,2,2,2h38c1.1,0,2-0.9,2-2v-25C211.5,106.15,210.6,105.25,209.5,105.25z M188.71,125.92
				c0,0.83-0.67,1.5-1.5,1.5c-0.83,0-1.5-0.67-1.5-1.5v-4.67h-5.13V126c0,0.83-0.67,1.5-1.5,1.5c-0.83,0-1.5-0.67-1.5-1.5v-12.5
				c0-0.83,0.67-1.5,1.5-1.5c0.83,0,1.5,0.67,1.5,1.5v4.76h5.13v-4.5c0-0.83,0.67-1.5,1.5-1.5c0.83,0,1.5,0.67,1.5,1.5V125.92z
				 M195.92,127.26h-3c-0.83,0-1.5-0.67-1.5-1.5v-12c0-0.83,0.67-1.5,1.5-1.5h3c4.14,0,7.5,3.36,7.5,7.5
				C203.42,123.89,200.05,127.26,195.92,127.26z"/>
		</g>
	</g>
	<g>
		<g>
			<path class="st0" d="M133,136.75h-21c-0.83,0-1.5,0.67-1.5,1.5s0.67,1.5,1.5,1.5h21c0.83,0,1.5-0.67,1.5-1.5
				S133.83,136.75,133,136.75z"/>
			<path class="st0" d="M116.04,121.26v-2.74l-1.91,2.74H116.04z M141.5,105.25h-38c-1.1,0-2,0.9-2,2v25c0,1.1,0.9,2,2,2h38
				c1.1,0,2-0.9,2-2v-25C143.5,106.15,142.6,105.25,141.5,105.25z M119.25,124.26h-0.21v1.67c0,0.83-0.67,1.5-1.5,1.5
				c-0.83,0-1.5-0.67-1.5-1.5v-1.67h-4.79c-0.56,0-1.07-0.31-1.33-0.81c-0.26-0.5-0.22-1.09,0.1-1.55l6.29-9
				c0.02-0.03,0.05-0.06,0.07-0.08c0.04-0.04,0.07-0.09,0.11-0.13c0.04-0.04,0.08-0.07,0.12-0.1c0.04-0.03,0.07-0.06,0.11-0.08
				c0.04-0.03,0.09-0.05,0.14-0.07c0.04-0.02,0.08-0.04,0.12-0.06c0.05-0.02,0.1-0.03,0.14-0.04c0.05-0.01,0.09-0.03,0.14-0.04
				c0.06-0.01,0.12-0.01,0.17-0.02c0.04,0,0.07-0.01,0.11-0.01c0,0,0.01,0,0.01,0c0.06,0,0.13,0.01,0.19,0.02
				c0.03,0,0.07,0,0.1,0.01c0.04,0.01,0.08,0.03,0.12,0.04c0.05,0.02,0.11,0.03,0.16,0.05c0.03,0.01,0.05,0.03,0.07,0.04
				c0.06,0.03,0.13,0.06,0.18,0.1c0,0,0.01,0,0.01,0.01c0.03,0.02,0.05,0.05,0.08,0.07c0.04,0.04,0.09,0.07,0.13,0.11
				c0.03,0.04,0.06,0.07,0.09,0.11c0.03,0.04,0.06,0.07,0.09,0.11c0.03,0.04,0.05,0.09,0.07,0.13c0.02,0.04,0.05,0.08,0.07,0.13
				c0.02,0.05,0.03,0.09,0.04,0.14c0.01,0.05,0.03,0.09,0.04,0.14c0.01,0.06,0.01,0.12,0.02,0.18c0,0.03,0.01,0.07,0.01,0.1v7.5
				h0.21c0.83,0,1.5,0.67,1.5,1.5C120.75,123.59,120.08,124.26,119.25,124.26z M134.95,125.1c0.5,0.66,0.36,1.6-0.3,2.1
				c-0.27,0.2-0.59,0.3-0.9,0.3c-0.46,0-0.91-0.21-1.2-0.6l-4.32-5.76l-1.31,1.31V126c0,0.83-0.67,1.5-1.5,1.5
				c-0.83,0-1.5-0.67-1.5-1.5v-12.5c0-0.83,0.67-1.5,1.5-1.5c0.83,0,1.5,0.67,1.5,1.5v4.71l5.77-5.77c0.59-0.59,1.54-0.59,2.12,0
				c0.59,0.59,0.59,1.54,0,2.12l-4.44,4.44L134.95,125.1z"/>
		</g>
	</g>
	<g>
		<g>
			<path class="st0" d="M65,136.75H44c-0.83,0-1.5,0.67-1.5,1.5s0.67,1.5,1.5,1.5h21c0.83,0,1.5-0.67,1.5-1.5
				S65.83,136.75,65,136.75z"/>
			<path class="st0" d="M47.38,120.17c-1.31,0-2.38,1.07-2.38,2.38c0,1.31,1.07,2.38,2.38,2.38c1.31,0,2.38-1.07,2.38-2.38
				C49.77,121.24,48.7,120.17,47.38,120.17z M73.5,105.25h-38c-1.1,0-2,0.9-2,2v25c0,1.1,0.9,2,2,2h38c1.1,0,2-0.9,2-2v-25
				C75.5,106.15,74.6,105.25,73.5,105.25z M47.38,127.94c-2.87,0-5.19-2.26-5.35-5.08c-0.02-0.1-0.03-0.2-0.03-0.3v-5.89
				c0-2.81,2.29-5.1,5.1-5.1h0.56c1.57,0,3.03,0.71,4,1.94c0.51,0.65,0.4,1.59-0.25,2.11c-0.65,0.52-1.59,0.4-2.11-0.25
				c-0.4-0.51-1-0.8-1.65-0.8H47.1c-1.16,0-2.1,0.94-2.1,2.1v1.09c0.72-0.36,1.52-0.58,2.38-0.58c2.97,0,5.38,2.42,5.38,5.38
				C52.77,125.52,50.35,127.94,47.38,127.94z M66.7,125.09c0.5,0.66,0.36,1.6-0.3,2.1c-0.27,0.2-0.59,0.3-0.9,0.3
				c-0.46,0-0.91-0.21-1.2-0.6l-4.32-5.76l-1.31,1.31v3.55c0,0.83-0.67,1.5-1.5,1.5c-0.83,0-1.5-0.67-1.5-1.5v-12.5
				c0-0.83,0.67-1.5,1.5-1.5c0.83,0,1.5,0.67,1.5,1.5v4.71l5.77-5.77c0.59-0.59,1.54-0.59,2.12,0c0.59,0.59,0.59,1.54,0,2.12
				l-4.44,4.44L66.7,125.09z"/>
		</g>
	</g>
</g>
<g id="title">
</g>
</svg>
