<?xml version="1.0" encoding="utf-8"?>
<!-- Generator: Adobe Illustrator 24.1.1, SVG Export Plug-In . SVG Version: 6.00 Build 0)  -->
<svg version="1.1" xmlns="http://www.w3.org/2000/svg" x="0px" y="0px"
     viewBox="0 0 448 448" style="enable-background:new 0 0 448 448;" xml:space="preserve">
<style type="text/css">
	.st0{fill:#173042;}
</style>
<g id="grid">
</g>
<g id="icons">
	<g>
		<g>
			<path class="st0" d="M388,393h-3c-0.55,0-1,0.45-1,1v3c0,0.55,0.45,1,1,1h3c0.55,0,1-0.45,1-1v-3C389,393.45,388.55,393,388,393z
				 M395,386h-3c-0.55,0-1,0.45-1,1v3c0,0.55,0.45,1,1,1h3c0.55,0,1-0.45,1-1v-3C396,386.45,395.55,386,395,386z M388,386h-3
				c-0.55,0-1,0.45-1,1v3c0,0.55,0.45,1,1,1h3c0.55,0,1-0.45,1-1v-3C389,386.45,388.55,386,388,386z"/>
			<path class="st0" d="M411,378.5h-33c-2.21,0-4,1.79-4,4v24c0,2.21,1.79,4,4,4h33c2.21,0,4-1.79,4-4v-24
				C415,380.29,413.21,378.5,411,378.5z M406,405.5c0,0.55-0.45,1-1,1h-23c-0.55,0-1-0.45-1-1v-22c0-0.55,0.45-1,1-1h23
				c0.55,0,1,0.45,1,1V405.5z M408.5,395.5v-2c0-1.1,0.9-2,2-2l0,0c1.1,0,2,0.9,2,2v2c0,1.1-0.9,2-2,2l0,0
				C409.4,397.5,408.5,396.6,408.5,395.5z"/>
		</g>
	</g>
	<g>
		<g>
			<g>
				<path class="st0" d="M326.5,392.5c-3.59,0-6.5,2.91-6.5,6.5s2.91,6.5,6.5,6.5s6.5-2.91,6.5-6.5S330.09,392.5,326.5,392.5z
					 M326.5,402c-1.66,0-3-1.34-3-3s1.34-3,3-3s3,1.34,3,3S328.16,402,326.5,402z"/>
				<path class="st0" d="M336,376h-19c-2.21,0-4,1.79-4,4v29c0,2.21,1.79,4,4,4h19c2.21,0,4-1.79,4-4v-29
					C340,377.79,338.21,376,336,376z M320,380c1.66,0,3,1.34,3,3s-1.34,3-3,3s-3-1.34-3-3S318.34,380,320,380z M326.5,408.5
					c-5.24,0-9.5-4.26-9.5-9.5s4.26-9.5,9.5-9.5s9.5,4.26,9.5,9.5S331.74,408.5,326.5,408.5z"/>
			</g>
		</g>
	</g>
	<g>
		<g>
			<path class="st0" d="M256.71,392.46v-5.41c0-0.99,0.8-1.79,1.79-1.79l0,0c0.99,0,1.79,0.8,1.79,1.79v5.41
				c0,0.99-0.8,1.79-1.79,1.79l0,0C257.51,394.25,256.71,393.45,256.71,392.46z"/>
			<path class="st0" d="M267.5,391.25h4v-4c0-4.42-3.58-8-8-8H260v-4c0-0.83-0.67-1.5-1.5-1.5s-1.5,0.67-1.5,1.5v4h-3.5
				c-4.42,0-8,3.58-8,8v4h4c0.83,0,1.5,0.67,1.5,1.5s-0.67,1.5-1.5,1.5h-4v8c0,7.18,5.82,13,13,13c7.18,0,13-5.82,13-13v-8h-4
				c-0.83,0-1.5-0.67-1.5-1.5S266.67,391.25,267.5,391.25z M262.79,392.46c0,2.37-1.93,4.29-4.29,4.29s-4.29-1.93-4.29-4.29v-5.41
				c0-2.37,1.93-4.29,4.29-4.29s4.29,1.93,4.29,4.29V392.46z"/>
		</g>
	</g>
	<g>
		<g>
			<circle class="st0" cx="190.5" cy="394.5" r="2"/>
			<path class="st0" d="M190.5,375.5c-10.49,0-19,8.51-19,19s8.51,19,19,19s19-8.51,19-19S200.99,375.5,190.5,375.5z M176.68,392.33
				c-0.11,0-0.22-0.01-0.33-0.04c-0.81-0.18-1.32-0.99-1.13-1.79c1.29-5.72,5.84-10.17,11.58-11.35c0.82-0.17,1.6,0.36,1.77,1.17
				c0.17,0.81-0.36,1.6-1.17,1.77c-4.59,0.94-8.22,4.5-9.26,9.07C177.98,391.86,177.37,392.33,176.68,392.33z M183.42,392.43
				c-0.15,0.7-0.77,1.18-1.46,1.18c-0.1,0-0.21-0.01-0.32-0.03c-0.81-0.17-1.33-0.97-1.15-1.78c0.77-3.59,3.59-6.45,7.17-7.28
				c0.8-0.19,1.61,0.32,1.8,1.13c0.19,0.81-0.32,1.61-1.13,1.8C185.88,388.01,183.95,389.97,183.42,392.43z M185.5,394.5
				c0-2.76,2.24-5,5-5s5,2.24,5,5s-2.24,5-5,5S185.5,397.26,185.5,394.5z M191.54,403.35c-0.19-0.81,0.32-1.61,1.13-1.8
				c2.45-0.57,4.38-2.52,4.91-4.98c0.17-0.81,0.97-1.32,1.78-1.15c0.81,0.17,1.33,0.97,1.15,1.78c-0.77,3.59-3.59,6.45-7.17,7.28
				c-0.11,0.03-0.23,0.04-0.34,0.04C192.32,404.51,191.7,404.04,191.54,403.35z M194.2,409.84c-0.1,0.02-0.2,0.03-0.3,0.03
				c-0.7,0-1.32-0.49-1.47-1.2c-0.17-0.81,0.36-1.6,1.17-1.77c4.59-0.94,8.22-4.5,9.26-9.07c0.18-0.81,0.98-1.32,1.79-1.13
				c0.81,0.18,1.32,0.99,1.13,1.79C204.49,404.21,199.95,408.67,194.2,409.84z"/>
		</g>
	</g>
	<g>
		<g>
			<path class="st0" d="M128.46,387.57h-11.93c-1.1,0-2,0.9-2,2v23.3c0,1.1,0.9,2,2,2h11.93c1.1,0,2-0.9,2-2v-23.3
				C130.46,388.47,129.57,387.57,128.46,387.57z M122.5,410.32c-1.26,0-2.28-1.02-2.28-2.28c0-1.26,1.02-2.28,2.28-2.28
				s2.28,1.02,2.28,2.28C124.78,409.3,123.76,410.32,122.5,410.32z M122.5,401.52c-2.36,0-4.28-1.92-4.28-4.27
				c0-2.36,1.92-4.28,4.28-4.28s4.28,1.92,4.28,4.28C126.78,399.6,124.86,401.52,122.5,401.52z"/>
			<path class="st0" d="M122.5,394.97c-1.26,0-2.28,1.02-2.28,2.28c0,1.26,1.02,2.27,2.28,2.27s2.28-1.02,2.28-2.27
				C124.78,395.98,123.76,394.97,122.5,394.97z M122.5,380.38c-1.71,0-3.31,0.67-4.51,1.9c-0.58,0.59-0.57,1.54,0.02,2.12
				c0.59,0.58,1.54,0.57,2.12-0.02c1.27-1.29,3.48-1.29,4.75,0c0.29,0.3,0.68,0.45,1.07,0.45c0.38,0,0.76-0.14,1.05-0.43
				c0.59-0.58,0.6-1.53,0.02-2.12C125.81,381.06,124.21,380.38,122.5,380.38z M131.43,377.85c-2.38-2.4-5.56-3.72-8.93-3.72
				s-6.55,1.32-8.93,3.72c-0.58,0.59-0.58,1.54,0.01,2.12c0.59,0.58,1.54,0.58,2.12-0.01c1.82-1.83,4.23-2.83,6.8-2.83
				s4.99,1.01,6.8,2.83c0.29,0.3,0.68,0.44,1.06,0.44c0.38,0,0.76-0.15,1.06-0.44C132.01,379.39,132.02,378.44,131.43,377.85z"/>
		</g>
	</g>
	<g>
		<g>
			<path class="st0" d="M41.5,380.75l1.09,3.8c0.25,0.86,1.03,1.45,1.92,1.45h19.98c0.89,0,1.68-0.59,1.92-1.45l1.09-3.8H41.5z"/>
			<path class="st0" d="M71,380.75h-0.9l-0.2,0.69l-1.09,3.8c-0.55,1.92-2.33,3.26-4.33,3.26H44.51c-2,0-3.78-1.34-4.33-3.26
				l-1.09-3.8l-0.2-0.69H38c-2.21,0-4,1.79-4,4v19.5c0,2.21,1.79,4,4,4h33c2.21,0,4-1.79,4-4v-19.5
				C75,382.54,73.21,380.75,71,380.75z M42,400.75c-1.93,0-3.5-1.57-3.5-3.5s1.57-3.5,3.5-3.5s3.5,1.57,3.5,3.5
				S43.93,400.75,42,400.75z M58,399.75h-7c-1.1,0-2-0.9-2-2s0.9-2,2-2h7c1.1,0,2,0.9,2,2S59.1,399.75,58,399.75z M67,400.75
				c-1.93,0-3.5-1.57-3.5-3.5s1.57-3.5,3.5-3.5s3.5,1.57,3.5,3.5S68.93,400.75,67,400.75z"/>
		</g>
	</g>
	<g>
		<g>
			<circle class="st0" cx="389" cy="341" r="3"/>
			<path class="st0" d="M381.59,339.5H378c-0.83,0-1.5,0.67-1.5,1.5s0.67,1.5,1.5,1.5h3.59c0.81,0,1.42-0.68,1.41-1.48v-0.03
				C383,340.18,382.4,339.5,381.59,339.5z M410,309h-31c-1.66,0-3,1.34-3,3v20c0,1.66,1.34,3,3,3h31c1.66,0,3-1.34,3-3v-20
				C413,310.34,411.66,309,410,309z M400.56,322.78l-8.67,5.31c-0.61,0.37-1.39-0.07-1.39-0.78v-10.62c0-0.71,0.78-1.15,1.39-0.78
				l8.67,5.31C401.15,321.58,401.15,322.42,400.56,322.78z M411,339.5h-14.59c-0.81,0-1.42,0.68-1.41,1.48v0.03
				c0,0.81,0.6,1.48,1.41,1.48H411c0.83,0,1.5-0.67,1.5-1.5S411.83,339.5,411,339.5z"/>
		</g>
	</g>
	<g>
		<g>
			<path class="st0" d="M323.02,311.71c0.81-0.17,1.33-0.96,1.17-1.77c-0.17-0.81-0.96-1.33-1.77-1.17
				c-6.75,1.38-12.09,6.62-13.61,13.34c-0.18,0.81,0.32,1.61,1.13,1.79c0.11,0.03,0.22,0.04,0.33,0.04c0.69,0,1.3-0.47,1.46-1.17
				C313,317.2,317.43,312.86,323.02,311.71z M325.16,315.97c-0.19-0.81-0.99-1.31-1.8-1.13c-4.29,0.99-7.67,4.41-8.59,8.72
				c-0.17,0.81,0.34,1.61,1.15,1.78c0.11,0.02,0.21,0.03,0.32,0.03c0.69,0,1.31-0.48,1.46-1.18c0.68-3.17,3.17-5.7,6.33-6.42
				C324.84,317.58,325.35,316.78,325.16,315.97z"/>
			<path class="st0" d="M341.05,336.13l-4.95,4.95l3.18,3.18l4.95-4.95L341.05,336.13z M339.98,330.82l-9.19-9.19
				c-1.56-1.56-4.09-1.56-5.66,0l-3.54,3.54c-1.56,1.56-1.56,4.09,0,5.66l9.19,9.19c0.78,0.78,2.05,0.78,2.83,0l6.36-6.36
				C340.77,332.87,340.77,331.6,339.98,330.82z M326.2,329.06c-0.59,0.59-1.54,0.59-2.12,0c-0.59-0.59-0.59-1.54,0-2.12
				c0.59-0.59,1.54-0.59,2.12,0C326.78,327.52,326.78,328.47,326.2,329.06z"/>
		</g>
	</g>
	<g>
		<g>
			<path class="st0" d="M258,309.5c-8.64,0-15.65,6.91-15.86,15.5h2.46c0.07-2.28,0.75-4.54,2.06-6.52c0.3-0.46,0.93-0.59,1.39-0.28
				c0.46,0.3,0.59,0.92,0.28,1.39c-1.08,1.64-1.65,3.52-1.72,5.42h1.88c0.06-1.45,0.48-2.89,1.27-4.17
				c0.29-0.47,0.91-0.61,1.38-0.32c0.47,0.29,0.61,0.91,0.32,1.38c-0.6,0.95-0.91,2.02-0.97,3.11h5.17c0.18-1.13,1.15-2,2.34-2
				c1.18,0,2.16,0.87,2.34,2h13.52C273.65,316.41,266.64,309.5,258,309.5z"/>
			<path class="st0" d="M275.5,327.5h-34c-2.21,0-4,1.79-4,4v8c0,2.21,1.79,4,4,4h34c2.21,0,4-1.79,4-4v-8
				C279.5,329.29,277.71,327.5,275.5,327.5z M244.5,337.5c-1.1,0-2-0.9-2-2s0.9-2,2-2s2,0.9,2,2S245.6,337.5,244.5,337.5z
				 M267.5,337H252c-0.83,0-1.5-0.67-1.5-1.5c0-0.83,0.67-1.5,1.5-1.5h15.5c0.83,0,1.5,0.67,1.5,1.5
				C269,336.33,268.33,337,267.5,337z"/>
		</g>
	</g>
	<g>
		<g>
			<path class="st0" d="M179.5,329.09c-0.58,0-1.12,0.13-1.62,0.35v-4.57c0-1.06,0.15-2.07,0.4-3.05c-1.14,0.07-2.31-0.22-3.3-0.96
				c-0.17-0.13-0.32-0.28-0.47-0.43c-0.41,1.41-0.64,2.9-0.64,4.44v8.65c-0.8,0.26-1.38,1.01-1.38,1.89v3c0,1.1,0.9,2,2,2h1v0.31
				c0,2.21,1.79,4,4,4c2.21,0,4-1.79,4-4v-7.63C183.5,330.88,181.71,329.09,179.5,329.09z M206.12,333.51v-8.65
				c0-1.54-0.23-3.02-0.64-4.44c-0.15,0.15-0.3,0.3-0.47,0.43c-0.9,0.67-1.94,0.99-2.98,0.99c-0.11,0-0.21-0.01-0.32-0.02
				c0.25,0.97,0.4,1.99,0.4,3.04v4.57c-0.5-0.22-1.04-0.35-1.62-0.35c-2.21,0-4,1.79-4,4v7.63c0,2.21,1.79,4,4,4c2.21,0,4-1.79,4-4
				v-0.31h1c1.1,0,2-0.9,2-2v-3C207.5,334.52,206.92,333.77,206.12,333.51z"/>
			<path class="st0" d="M204.04,315.36c-3.34-4.5-8.46-7.07-14.04-7.07s-10.69,2.58-14.04,7.07c-0.82,1.11-0.59,2.67,0.51,3.5
				c1.11,0.82,2.67,0.59,3.5-0.51c2.39-3.21,6.04-5.06,10.02-5.06s7.63,1.84,10.02,5.06c0.49,0.66,1.24,1.01,2.01,1.01
				c0.52,0,1.04-0.16,1.49-0.49C204.63,318.03,204.86,316.46,204.04,315.36z"/>
		</g>
	</g>
	<g>
		<g>
			<path class="st0" d="M137.5,314.5c-0.83,0-1.5,0.67-1.5,1.5v21c0,0.83,0.67,1.5,1.5,1.5s1.5-0.67,1.5-1.5v-21
				C139,315.17,138.33,314.5,137.5,314.5z M107.5,314.5c-0.83,0-1.5,0.67-1.5,1.5v21c0,0.83,0.67,1.5,1.5,1.5s1.5-0.67,1.5-1.5v-21
				C109,315.17,108.33,314.5,107.5,314.5z"/>
			<path class="st0" d="M131.5,310.5h-18c-1.1,0-2,0.9-2,2v28c0,1.1,0.9,2,2,2h18c1.1,0,2-0.9,2-2v-28
				C133.5,311.4,132.6,310.5,131.5,310.5z M118.77,315.81c0-0.64,0.72-1.03,1.25-0.67l7.03,4.69c0.48,0.32,0.48,1.02,0,1.34
				l-7.03,4.69c-0.54,0.36-1.25-0.03-1.25-0.67V315.81z M123.09,338.29h-7c-0.69,0-1.25-0.56-1.25-1.25c0-0.69,0.56-1.25,1.25-1.25
				h7c0.69,0,1.25,0.56,1.25,1.25C124.34,337.73,123.79,338.29,123.09,338.29z M128.09,333.29h-12c-0.69,0-1.25-0.56-1.25-1.25
				c0-0.69,0.56-1.25,1.25-1.25h12c0.69,0,1.25,0.56,1.25,1.25C129.34,332.73,128.79,333.29,128.09,333.29z"/>
		</g>
	</g>
	<g>
		<g>
			<circle class="st0" cx="54.5" cy="326.5" r="2"/>
			<path class="st0" d="M54.5,309.5c-9.39,0-17,7.61-17,17s7.61,17,17,17s17-7.61,17-17S63.89,309.5,54.5,309.5z M51.56,313.83
				c0.95-0.22,1.93-0.33,2.94-0.33c1.01,0,2,0.12,2.94,0.33c1.06,0.24,1.43,1.57,0.68,2.35l-2.61,2.72c-0.55,0.58-1.48,0.58-2.03,0
				l-2.61-2.72C50.13,315.4,50.5,314.08,51.56,313.83z M41.38,325.62c0.1-1.21,0.36-2.41,0.78-3.54c0.28-0.76,0.64-1.49,1.06-2.19
				c0.57-0.92,1.91-0.88,2.43,0.06l2.01,3.63c0.41,0.74,0.08,1.67-0.7,1.99l-3.64,1.49C42.34,327.46,41.29,326.68,41.38,325.62z
				 M49.34,338.79c-1.68-0.72-3.18-1.77-4.41-3.08c-0.84-0.89-0.26-2.34,0.95-2.39l3.57-0.15c0.73-0.03,1.36,0.5,1.46,1.23
				l0.37,2.91C51.43,338.38,50.34,339.21,49.34,338.79z M54.5,330.5c-2.21,0-4-1.79-4-4s1.79-4,4-4s4,1.79,4,4
				S56.71,330.5,54.5,330.5z M64.07,335.71c-1.23,1.31-2.73,2.37-4.41,3.08c-1,0.43-2.08-0.41-1.94-1.49l0.37-2.91
				c0.09-0.73,0.73-1.26,1.46-1.23l3.57,0.15C64.33,333.36,64.91,334.82,64.07,335.71z M65.68,327.06l-3.64-1.49
				c-0.78-0.32-1.11-1.25-0.7-1.98l2-3.63c0.52-0.95,1.88-0.99,2.44-0.06c1.05,1.74,1.68,3.71,1.85,5.74
				C67.71,326.69,66.66,327.46,65.68,327.06z"/>
		</g>
	</g>
	<g>
		<g>
			<path class="st0" d="M400,254.5h-11c-0.83,0-1.5,0.67-1.5,1.5s0.67,1.5,1.5,1.5h11c0.83,0,1.5-0.67,1.5-1.5
				S400.83,254.5,400,254.5z"/>
			<path class="st0" d="M404,241.5h-18V240c0-1.38-1.12-2.5-2.5-2.5c-1.38,0-2.5,1.12-2.5,2.5v35.5c0,2.21,1.79,4,4,4h19
				c2.21,0,4-1.79,4-4v-30C408,243.29,406.21,241.5,404,241.5z M388.5,275.5h-2c-0.83,0-1.5-0.67-1.5-1.5s0.67-1.5,1.5-1.5h2
				c0.83,0,1.5,0.67,1.5,1.5S389.33,275.5,388.5,275.5z M388.5,270.5h-2c-0.83,0-1.5-0.67-1.5-1.5s0.67-1.5,1.5-1.5h2
				c0.83,0,1.5,0.67,1.5,1.5S389.33,270.5,388.5,270.5z M388.5,265.5h-2c-0.83,0-1.5-0.67-1.5-1.5s0.67-1.5,1.5-1.5h2
				c0.83,0,1.5,0.67,1.5,1.5S389.33,265.5,388.5,265.5z M395.5,275.5h-2c-0.83,0-1.5-0.67-1.5-1.5s0.67-1.5,1.5-1.5h2
				c0.83,0,1.5,0.67,1.5,1.5S396.33,275.5,395.5,275.5z M397,269c0,0.83-0.67,1.5-1.5,1.5h-2c-0.83,0-1.5-0.67-1.5-1.5v-5
				c0-0.83,0.67-1.5,1.5-1.5h2c0.83,0,1.5,0.67,1.5,1.5V269z M402.5,275.5h-2c-0.83,0-1.5-0.67-1.5-1.5s0.67-1.5,1.5-1.5h2
				c0.83,0,1.5,0.67,1.5,1.5S403.33,275.5,402.5,275.5z M402.5,270.5h-2c-0.83,0-1.5-0.67-1.5-1.5s0.67-1.5,1.5-1.5h2
				c0.83,0,1.5,0.67,1.5,1.5S403.33,270.5,402.5,270.5z M402.5,265.5h-2c-0.83,0-1.5-0.67-1.5-1.5s0.67-1.5,1.5-1.5h2
				c0.83,0,1.5,0.67,1.5,1.5S403.33,265.5,402.5,265.5z M404,258c0,0.55-0.45,1-1,1h-17c-0.55,0-1-0.45-1-1v-9c0-0.55,0.45-1,1-1h17
				c0.55,0,1,0.45,1,1V258z"/>
		</g>
	</g>
	<g>
		<g>
			<circle class="st0" cx="339.5" cy="259.75" r="2"/>
			<path class="st0" d="M341,270.25h-29c-0.83,0-1.5,0.67-1.5,1.5c0,0.83,0.67,1.5,1.5,1.5h29c0.83,0,1.5-0.67,1.5-1.5
				C342.5,270.92,341.83,270.25,341,270.25z M343.5,251.75L343.5,251.75l0-6.5c0-0.83-0.67-1.5-1.5-1.5s-1.5,0.67-1.5,1.5v6.5h-28
				v-6.5c0-0.83-0.67-1.5-1.5-1.5s-1.5,0.67-1.5,1.5v6.5c-2.21,0-4,1.79-4,4v8c0,2.21,1.79,4,4,4h34c2.21,0,4-1.79,4-4v-8
				C347.5,253.54,345.71,251.75,343.5,251.75z M312.5,261.25c0,0.83-0.67,1.5-1.5,1.5c-0.83,0-1.5-0.67-1.5-1.5v-3
				c0-0.83,0.67-1.5,1.5-1.5c0.83,0,1.5,0.67,1.5,1.5V261.25z M318.5,261.25c0,0.83-0.67,1.5-1.5,1.5c-0.83,0-1.5-0.67-1.5-1.5v-3
				c0-0.83,0.67-1.5,1.5-1.5c0.83,0,1.5,0.67,1.5,1.5V261.25z M324.5,261.25c0,0.83-0.67,1.5-1.5,1.5c-0.83,0-1.5-0.67-1.5-1.5v-3
				c0-0.83,0.67-1.5,1.5-1.5c0.83,0,1.5,0.67,1.5,1.5V261.25z M339.5,263.75c-2.21,0-4-1.79-4-4s1.79-4,4-4s4,1.79,4,4
				S341.71,263.75,339.5,263.75z"/>
		</g>
	</g>
	<g>
		<g>
			<path class="st0" d="M247.77,264.07c-1.27,0-2.3,1.03-2.3,2.3c0,1.27,1.03,2.3,2.3,2.3c1.27,0,2.3-1.03,2.3-2.3
				C250.07,265.1,249.04,264.07,247.77,264.07z"/>
			<path class="st0" d="M275.5,247.38h-31v-2.75h32c0.83,0,1.5-0.67,1.5-1.5s-0.67-1.5-1.5-1.5H243c-0.83,0-1.5,0.67-1.5,1.5v4.25
				c-2.21,0-4,1.79-4,4v20c0,2.21,1.79,4,4,4h34c2.21,0,4-1.79,4-4v-20C279.5,249.17,277.71,247.38,275.5,247.38z M241,255.63v-3
				c0-0.55,0.45-1,1-1h25v5h-25C241.45,256.63,241,256.18,241,255.63z M247.77,270.68c-2.37,0-4.3-1.93-4.3-4.3
				c0-2.37,1.93-4.3,4.3-4.3c2.37,0,4.3,1.93,4.3,4.3C252.07,268.75,250.14,270.68,247.77,270.68z M263.5,270
				c0,0.83-0.67,1.5-1.5,1.5s-1.5-0.67-1.5-1.5v-7c0-0.83,0.67-1.5,1.5-1.5s1.5,0.67,1.5,1.5V270z M268.5,270
				c0,0.83-0.67,1.5-1.5,1.5c-0.83,0-1.5-0.67-1.5-1.5v-7c0-0.83,0.67-1.5,1.5-1.5c0.83,0,1.5,0.67,1.5,1.5V270z M273.5,270
				c0,0.83-0.67,1.5-1.5,1.5s-1.5-0.67-1.5-1.5v-7c0-0.83,0.67-1.5,1.5-1.5s1.5,0.67,1.5,1.5V270z M276,255.63c0,0.55-0.45,1-1,1h-5
				v-5h5c0.55,0,1,0.45,1,1V255.63z"/>
		</g>
	</g>
	<g>
		<g>
			<g>
				<path class="st0" d="M190,238.5c-4.43,0-8.01,3.59-8.01,8.01c0,4.43,3.59,8.01,8.01,8.01c4.43,0,8.01-3.59,8.01-8.01
					C198.01,242.09,194.43,238.5,190,238.5z M188,247c-1.1,0-2-0.9-2-2s0.9-2,2-2c1.1,0,2,0.9,2,2S189.1,247,188,247z"/>
				<path class="st0" d="M204.12,272.65l-2.24-2.24c-0.56-0.56-1.33-0.88-2.12-0.88h-5.19l-0.45-3.14
					c-0.07-0.49-0.49-0.86-0.99-0.86h-0.63v-8.81c-0.8,0.2-1.64,0.31-2.5,0.31s-1.7-0.12-2.5-0.31v8.81h-0.63
					c-0.5,0-0.92,0.37-0.99,0.86l-0.45,3.14h-5.19c-0.8,0-1.56,0.32-2.12,0.88l-2.24,2.24c-0.56,0.56-0.88,1.33-0.88,2.12v1.73
					c0,1.1,0.9,2,2,2h26c1.1,0,2-0.9,2-2v-1.73C205,273.98,204.68,273.21,204.12,272.65z"/>
			</g>
		</g>
	</g>
	<g>
		<g>
			<path class="st0" d="M143.68,267.63h0.02l-2.2-0.75V244.5c0-1.1-0.9-2-2-2h-34c-1.1,0-2,0.9-2,2v22.37l-2.2,0.75h0.02
				c-0.77,0.28-1.32,1.01-1.32,1.87v3c0,1.1,0.9,2,2,2h41c1.1,0,2-0.9,2-2v-3C145,268.64,144.45,267.91,143.68,267.63z M125,271.44
				h-5c-0.83,0-1.5-0.67-1.5-1.5c0-0.83,0.67-1.5,1.5-1.5h5c0.83,0,1.5,0.67,1.5,1.5C126.5,270.77,125.83,271.44,125,271.44z
				 M137.5,265.5h-30v-19h30V265.5z"/>
			<path class="st0" d="M115,256.99h-3c-0.55,0-1,0.45-1,1v3c0,0.55,0.45,1,1,1h3c0.55,0,1-0.45,1-1v-3
				C116,257.44,115.55,256.99,115,256.99z M122,249.99h-3c-0.55,0-1,0.45-1,1v3c0,0.55,0.45,1,1,1h3c0.55,0,1-0.45,1-1v-3
				C123,250.44,122.55,249.99,122,249.99z M115,249.99h-3c-0.55,0-1,0.45-1,1v3c0,0.55,0.45,1,1,1h3c0.55,0,1-0.45,1-1v-3
				C116,250.44,115.55,249.99,115,249.99z"/>
		</g>
	</g>
	<g>
		<g>
			<path class="st0" d="M67.5,251c-1.1,0-2,0.9-2,2v4c0,6.07-4.93,11-11,11s-11-4.93-11-11v-4c0-1.1-0.9-2-2-2s-2,0.9-2,2v4
				c0,7.63,5.73,13.93,13.11,14.87c-0.27,0.97-0.97,1.76-1.9,2.13H49.5c-1.1,0-2,0.9-2,2s0.9,2,2,2h10c1.1,0,2-0.9,2-2
				c0-1.1-0.9-2-2-2h-1.21c-0.93-0.37-1.63-1.16-1.9-2.13c7.38-0.94,13.11-7.24,13.11-14.87v-4C69.5,251.9,68.6,251,67.5,251z"/>
			<path class="st0" d="M59,253h3.5v-3.5h-3c-0.83,0-1.5-0.67-1.5-1.5s0.67-1.5,1.5-1.5h2.97c-0.26-4.18-3.73-7.5-7.97-7.5
				s-7.72,3.32-7.97,7.5h3.66c1,0,1.81,0.67,1.81,1.5s-0.81,1.5-1.81,1.5H46.5v3.5H50c0.83,0,1.5,0.67,1.5,1.5S50.83,256,50,256
				h-3.5v1c0,4.42,3.58,8,8,8s8-3.58,8-8v-1H59c-0.83,0-1.5-0.67-1.5-1.5S58.17,253,59,253z"/>
		</g>
	</g>
	<g>
		<g>
			<path class="st0" d="M387.5,208.5c0,1.1,0.9,2,2,2h10c1.1,0,2-0.9,2-2V203h-14V208.5z M399.5,170.5h-10c-1.1,0-2,0.9-2,2v5.5h14
				v-5.5C401.5,171.4,400.6,170.5,399.5,170.5z"/>
			<path class="st0" d="M402.6,180.5H386.4c-1.05,0-1.9,0.9-1.9,2v16c0,1.1,0.85,2,1.9,2h16.19c1.05,0,1.9-0.9,1.9-2v-16
				C404.5,181.4,403.65,180.5,402.6,180.5z M396.5,191c0,0.47-0.22,0.92-0.6,1.2l-4,3c-0.27,0.2-0.59,0.3-0.9,0.3
				c-0.46,0-0.91-0.21-1.2-0.6c-0.5-0.66-0.36-1.6,0.3-2.1l3.4-2.55V186c0-0.83,0.67-1.5,1.5-1.5s1.5,0.67,1.5,1.5V191z"/>
		</g>
	</g>
	<g>
		<g>
			<g>
				<path class="st0" d="M345.5,172.25h-38c-1.1,0-2,0.9-2,2v25c0,1.1,0.9,2,2,2h14.92l-0.75,4.5H318c-0.83,0-1.5,0.67-1.5,1.5
					s0.67,1.5,1.5,1.5h17c0.83,0,1.5-0.67,1.5-1.5s-0.67-1.5-1.5-1.5h-3.67l-0.75-4.5h14.92c1.1,0,2-0.9,2-2v-25
					C347.5,173.15,346.6,172.25,345.5,172.25z M326.5,199.75c-0.83,0-1.5-0.67-1.5-1.5s0.67-1.5,1.5-1.5s1.5,0.67,1.5,1.5
					S327.33,199.75,326.5,199.75z M343.5,194.25h-34v-18h34V194.25z"/>
				<path class="st0" d="M320.97,183.78c-1.09,0-1.97,0.88-1.97,1.97s0.88,1.97,1.97,1.97c1.09,0,1.97-0.88,1.97-1.97
					S322.06,183.78,320.97,183.78z M326.5,183.78c-1.09,0-1.97,0.88-1.97,1.97s0.88,1.97,1.97,1.97s1.97-0.88,1.97-1.97
					S327.59,183.78,326.5,183.78z M332.03,183.78c-1.09,0-1.97,0.88-1.97,1.97s0.88,1.97,1.97,1.97s1.97-0.88,1.97-1.97
					S333.12,183.78,332.03,183.78z"/>
			</g>
		</g>
	</g>
	<g>
		<g>
			<path class="st0" d="M271.17,186.39c0.38,0,0.76-0.14,1.05-0.43c0.59-0.58,0.6-1.53,0.02-2.12c-1.2-1.22-2.8-1.89-4.51-1.89
				c-1.71,0-3.31,0.67-4.51,1.89c-0.58,0.59-0.57,1.54,0.02,2.12c0.59,0.58,1.54,0.57,2.12-0.02c1.27-1.29,3.48-1.29,4.75,0
				C270.39,186.24,270.78,186.39,271.17,186.39z M271,195.31c-1.1,0-2,0.9-2,2c0,1.1,0.9,2,2,2s2-0.9,2-2
				C273,196.21,272.1,195.31,271,195.31z M276.66,179.41c-2.38-2.4-5.56-3.72-8.93-3.72c-3.38,0-6.55,1.32-8.93,3.72
				c-0.58,0.59-0.58,1.54,0.01,2.12c0.59,0.58,1.54,0.58,2.12-0.01c1.82-1.83,4.23-2.83,6.8-2.83c2.57,0,4.99,1.01,6.8,2.83
				c0.29,0.3,0.68,0.44,1.06,0.44c0.38,0,0.76-0.15,1.06-0.44C277.24,180.95,277.24,180,276.66,179.41z"/>
			<path class="st0" d="M275.5,189.31h-34c-2.21,0-4,1.79-4,4v8c0,2.21,1.79,4,4,4h34c2.21,0,4-1.79,4-4v-8
				C279.5,191.1,277.71,189.31,275.5,189.31z M244.5,199.31c-1.1,0-2-0.9-2-2c0-1.1,0.9-2,2-2s2,0.9,2,2
				C246.5,198.42,245.6,199.31,244.5,199.31z M251.5,199.31c-1.1,0-2-0.9-2-2c0-1.1,0.9-2,2-2s2,0.9,2,2
				C253.5,198.42,252.6,199.31,251.5,199.31z M271,201.31c-2.21,0-4-1.79-4-4c0-2.21,1.79-4,4-4s4,1.79,4,4
				C275,199.52,273.21,201.31,271,201.31z"/>
		</g>
	</g>
	<path class="st0" d="M188.82,196.83c-0.33-0.22-0.78,0.02-0.78,0.42v4.88c0,0.4,0.45,0.64,0.78,0.42l3.66-2.44
		c0.3-0.2,0.3-0.63,0-0.83L188.82,196.83z M197.88,171.5h-16c-2.21,0-4,1.79-4,4v30c0,2.21,1.79,4,4,4h16c2.21,0,4-1.79,4-4v-30
		C201.88,173.29,200.08,171.5,197.88,171.5z M189.75,205.69c-3.28,0-5.94-2.67-5.94-5.94s2.67-5.94,5.94-5.94s5.94,2.67,5.94,5.94
		S193.03,205.69,189.75,205.69z M197.88,189.5c0,0.55-0.45,1-1,1h-14c-0.55,0-1-0.45-1-1v-11c0-0.55,0.45-1,1-1h14
		c0.55,0,1,0.45,1,1V189.5z"/>
	<g>
		<g>
			<circle class="st0" cx="131" cy="188.25" r="5.5"/>
			<path class="st0" d="M137,202.25h-29c-0.83,0-1.5,0.67-1.5,1.5s0.67,1.5,1.5,1.5h29c0.83,0,1.5-0.67,1.5-1.5
				S137.83,202.25,137,202.25z M143.45,187.24c-0.51-6.42-5.9-11.49-12.45-11.49c-5.3,0-9.84,3.33-11.65,8H105.5c-2.21,0-4,1.79-4,4
				v8c0,2.21,1.79,4,4,4h34c2.21,0,4-1.79,4-4v-8C143.5,187.58,143.47,187.41,143.45,187.24z M107.5,193.25c0,0.83-0.67,1.5-1.5,1.5
				s-1.5-0.67-1.5-1.5v-3c0-0.83,0.67-1.5,1.5-1.5s1.5,0.67,1.5,1.5V193.25z M112.5,193.25c0,0.83-0.67,1.5-1.5,1.5
				s-1.5-0.67-1.5-1.5v-3c0-0.83,0.67-1.5,1.5-1.5s1.5,0.67,1.5,1.5V193.25z M117.5,193.25c0,0.83-0.67,1.5-1.5,1.5
				s-1.5-0.67-1.5-1.5v-3c0-0.83,0.67-1.5,1.5-1.5s1.5,0.67,1.5,1.5V193.25z M131,196.75c-4.69,0-8.5-3.81-8.5-8.5
				c0-4.69,3.81-8.5,8.5-8.5c4.69,0,8.5,3.81,8.5,8.5C139.5,192.94,135.69,196.75,131,196.75z"/>
		</g>
	</g>
	<g>
		<g>
			<g>
				<path class="st0" d="M74.5,173.5h-13c-0.55,0-1,0.45-1,1v8h15v-8C75.5,173.95,75.05,173.5,74.5,173.5z"/>
				<path class="st0" d="M60.5,185.5v21.04c0,0.53,0.45,0.96,1,0.96h13c0.55,0,1-0.43,1-0.96V185.5H60.5z M68,202.5
					c-1.1,0-2-0.9-2-2s0.9-2,2-2s2,0.9,2,2S69.1,202.5,68,202.5z M58,177.5v-3c0-0.35,0.07-0.68,0.16-1H35.5c-1.1,0-2,0.9-2,2v23
					c0,1.1,0.9,2,2,2h10.83l-0.67,4H42c-0.83,0-1.5,0.67-1.5,1.5c0,0.83,0.67,1.5,1.5,1.5h16.15c-0.09-0.31-0.15-0.62-0.15-0.96
					v-2.04h-2.67l-0.67-4H58v-4H37.5v-19H58z"/>
			</g>
		</g>
	</g>
	<g>
		<g>
			<path class="st0" d="M392,112h-6c-0.83,0-1.5,0.67-1.5,1.5s0.67,1.5,1.5,1.5h1.5v10.5c0,0.83,0.67,1.5,1.5,1.5s1.5-0.67,1.5-1.5
				V115h1.5c0.83,0,1.5-0.67,1.5-1.5S392.83,112,392,112z M403.37,112.05c-0.8-0.21-1.62,0.28-1.83,1.08l-1.57,6.11l-1.52-6.1
				c-0.2-0.8-1.01-1.29-1.82-1.09c-0.8,0.2-1.29,1.01-1.09,1.82l2.96,11.85c0.17,0.67,0.76,1.13,1.45,1.14h0
				c0.68,0,1.28-0.46,1.45-1.13l3.04-11.85C404.66,113.07,404.18,112.25,403.37,112.05z"/>
			<path class="st0" d="M413.5,105h-38c-1.1,0-2,0.9-2,2v25c0,1.1,0.9,2,2,2h13.88l-0.72,2.88c-0.01,0.04,0,0.08,0,0.12H384
				c-0.83,0-1.5,0.67-1.5,1.5c0,0.83,0.67,1.5,1.5,1.5h21c0.83,0,1.5-0.67,1.5-1.5c0-0.83-0.67-1.5-1.5-1.5h-4.65
				c0-0.04,0.01-0.08,0-0.12l-0.72-2.88h13.88c1.1,0,2-0.9,2-2v-25C415.5,105.9,414.6,105,413.5,105z M411.5,130h-34v-21h34V130z"/>
		</g>
	</g>
	<g>
		<g>
			<g>
				<path class="st0" d="M341.5,119.44c0-8.28-6.72-15-15-15s-15,6.72-15,15c0,7.65,5.74,13.96,13.14,14.87
					c-0.24,1.03-0.97,1.86-1.94,2.25h-3.21c-1.1,0-2,0.9-2,2c0,1.1,0.9,2,2,2h14c1.1,0,2-0.9,2-2c0-1.1-0.9-2-2-2h-3.2
					c-0.96-0.39-1.69-1.22-1.94-2.25C335.76,133.39,341.5,127.09,341.5,119.44z M326.5,106.71c0.75,0,1.36,0.61,1.36,1.36
					c0,0.75-0.61,1.36-1.36,1.36s-1.36-0.61-1.36-1.36C325.14,107.32,325.75,106.71,326.5,106.71z M326.5,127.89
					c-4.66,0-8.45-3.79-8.45-8.45c0-4.66,3.79-8.45,8.45-8.45s8.45,3.79,8.45,8.45C334.95,124.1,331.16,127.89,326.5,127.89z"/>
				<path class="st0" d="M326.5,113.98c-3.01,0-5.45,2.44-5.45,5.45c0,3.01,2.44,5.45,5.45,5.45s5.45-2.44,5.45-5.45
					C331.95,116.42,329.51,113.98,326.5,113.98z"/>
			</g>
		</g>
	</g>
	<g>
		<g>
			<path class="st0" d="M261.75,113.5h-1v-4c0-1.65-1.35-3-3-3h-14.97c-1.1,0-2,0.9-2,2s0.9,2,2,2h13.97v3h-15c-2.21,0-4,1.79-4,4
				v17c0,2.21,1.79,4,4,4h20c2.21,0,4-1.79,4-4v-17C265.75,115.29,263.96,113.5,261.75,113.5z M259.44,121.06c-1.1,0-2-0.9-2-2
				c0-1.1,0.9-2,2-2c1.1,0,2,0.9,2,2C261.43,120.17,260.54,121.06,259.44,121.06z"/>
			<path class="st0" d="M276.29,117.11l-7,3.82c-0.64,0.35-1.04,1.02-1.04,1.76v6.63c0,0.73,0.4,1.41,1.04,1.76l7,3.82
				c1.33,0.73,2.96-0.24,2.96-1.76v-14.26C279.25,117.35,277.63,116.39,276.29,117.11z"/>
		</g>
	</g>
	<g>
		<g>
			<path class="st0" d="M206.5,111.25h-32c-2.21,0-4,1.79-4,4v10c0,2.21,1.79,4,4,4h2v-3.5c0-1.93,1.57-3.5,3.5-3.5h21
				c1.93,0,3.5,1.57,3.5,3.5v3.5h2c2.21,0,4-1.79,4-4v-10C210.5,113.04,208.71,111.25,206.5,111.25z M176.33,118.67
				c-1.03,0-1.86-0.83-1.86-1.86c0-1.03,0.83-1.86,1.86-1.86c1.03,0,1.86,0.83,1.86,1.86C178.18,117.84,177.35,118.67,176.33,118.67
				z"/>
			<path class="st0" d="M200.95,105.75h-20.91c-0.83,0-1.5,0.67-1.5,1.5s0.67,1.5,1.5,1.5h20.91c0.83,0,1.5-0.67,1.5-1.5
				S201.78,105.75,200.95,105.75z M201,124.75h-21c-0.55,0-1,0.45-1,1v11.5c0,1.1,0.9,2,2,2h19c1.1,0,2-0.9,2-2v-11.5
				C202,125.2,201.55,124.75,201,124.75z M191,136h-7c-0.69,0-1.25-0.56-1.25-1.25s0.56-1.25,1.25-1.25h7
				c0.69,0,1.25,0.56,1.25,1.25S191.69,136,191,136z M196,131h-12c-0.69,0-1.25-0.56-1.25-1.25s0.56-1.25,1.25-1.25h12
				c0.69,0,1.25,0.56,1.25,1.25S196.69,131,196,131z"/>
		</g>
	</g>
	<g>
		<g>
			<path class="st0" d="M120.5,112.5h-3c-0.55,0-1,0.45-1,1v3c0,0.55,0.45,1,1,1h3c0.55,0,1-0.45,1-1v-3
				C121.5,112.95,121.05,112.5,120.5,112.5z M120.5,119.5h-3c-0.55,0-1,0.45-1,1v3c0,0.55,0.45,1,1,1h3c0.55,0,1-0.45,1-1v-3
				C121.5,119.95,121.05,119.5,120.5,119.5z M127.5,112.5h-3c-0.55,0-1,0.45-1,1v3c0,0.55,0.45,1,1,1h3c0.55,0,1-0.45,1-1v-3
				C128.5,112.95,128.05,112.5,127.5,112.5z"/>
			<path class="st0" d="M130.5,103.5h-16c-2.21,0-4,1.79-4,4v30c0,2.21,1.79,4,4,4h16c2.21,0,4-1.79,4-4v-30
				C134.5,105.29,132.71,103.5,130.5,103.5z M123.5,139h-2c-1.1,0-2-0.9-2-2c0-1.1,0.9-2,2-2h2c1.1,0,2,0.9,2,2
				C125.5,138.1,124.6,139,123.5,139z M130.5,131.5c0,0.55-0.45,1-1,1h-14c-0.55,0-1-0.45-1-1v-21c0-0.55,0.45-1,1-1h14
				c0.55,0,1,0.45,1,1V131.5z"/>
		</g>
	</g>
	<g>
		<g>
			<g>
				<g>
					<circle class="st0" cx="57" cy="125" r="6"/>
					<path class="st0" d="M71.29,111h-3.43l-2.08-3.63c-0.48-0.85-1.38-1.37-2.36-1.37H51.58c-0.97,0-1.87,0.52-2.36,1.37L47.14,111
						h-9.43c-1.5,0-2.71,1.21-2.71,2.71v22.57c0,1.5,1.22,2.71,2.71,2.71h33.57c1.5,0,2.71-1.21,2.71-2.71v-22.57
						C74,112.21,72.79,111,71.29,111z M41,119c-1.1,0-2-0.9-2-2s0.9-2,2-2c1.1,0,2,0.9,2,2S42.1,119,41,119z M64.88,129.52
						c-0.73,1.44-1.91,2.63-3.36,3.36c-8.31,4.18-16.58-4.1-12.41-12.41c0.73-1.44,1.91-2.63,3.36-3.36
						C60.78,112.94,69.06,121.22,64.88,129.52z"/>
				</g>
			</g>
		</g>
	</g>
</g>
<g id="title">
</g>
</svg>
