<?xml version="1.0" encoding="utf-8"?>
<!-- Generator: Adobe Illustrator 24.1.1, SVG Export Plug-In . SVG Version: 6.00 Build 0)  -->
<svg version="1.1" xmlns="http://www.w3.org/2000/svg" x="0px" y="0px"
     viewBox="0 0 448 448" style="enable-background:new 0 0 448 448;" xml:space="preserve">
<style type="text/css">
	.st0{fill:#173042;}
</style>
<g id="grid">
</g>
<g id="icons">
	<g>
		<g>
			<path class="st0" d="M411.9,403.27c-0.4-0.89-1.3-1.47-2.28-1.47h-8.13v-0.03c-3.9-0.26-6.99-3.5-7-7.47c0-3.74,2.9-7,6.61-7.46
				c0.23-0.03,0.46-0.05,0.69-0.05c0.9-0.02,1.23-1.18,0.54-1.75c-5.8-4.89-15.43-3.47-18.95,4.31l-6.29,13.91
				c-0.75,1.65,0.46,3.53,2.28,3.53h30.25C411.44,406.8,412.65,404.92,411.9,403.27z"/>
			<path class="st0" d="M410.25,392.11c-3.8-2.52-9.46-1.41-11.61,3.34l-0.75,1.65c0.84,1.22,2.2,2.07,3.78,2.17l0.26,0.02h3.99
				c-0.05-0.36-0.06-0.74-0.03-1.12c0.19-1.92,1.56-3.59,3.4-4.16c0.18-0.06,0.36-0.1,0.53-0.13
				C410.68,393.71,410.98,392.59,410.25,392.11z"/>
		</g>
	</g>
	<g>
		<g>
			<path class="st0" d="M330.94,406.22c-0.02,0.16-0.04,0.32-0.06,0.48c-0.14,1.06-0.73,1.98-1.64,2.54
				c-1.12,0.68-2.66,1.03-4.58,1.03c-1.32,0-2.36-0.16-3.2-0.5c-1.33-0.53-2.13-1.81-2.14-3.19c-6.08,1.48-10.34,4.56-10.34,5.69
				c0,0.5,7.61,2.5,17,2.5c9.39,0,17-2,17-2.5C342.99,411.04,337.91,407.48,330.94,406.22z"/>
			<path class="st0" d="M339.37,379.41c-0.42-0.17-0.88-0.23-1.32-0.18c-1.84,0.22-4.37,1.32-6.79,2.58l5.12-5.34
				c0.14-0.14,0.21-0.34,0.21-0.54c0-0.2-0.09-0.39-0.23-0.53c-0.94-0.9-3.74-1.66-5.98-0.8c-0.37,0.14-0.69,0.37-0.94,0.67
				c-1.19,1.4-2.27,4.12-3.09,6.63c-2.53-2.08-5.38-4.11-7.49-4.76c-0.43-0.13-0.89-0.15-1.34-0.07c-2.84,0.58-5.18,3.15-5.54,4.68
				c-0.1,0.4,0.15,0.8,0.55,0.9l9.31,2.32c-2.49,0.52-4.86,1.21-6.33,2.13c-0.38,0.24-0.71,0.57-0.93,0.96
				c-1.47,2.54-1.16,6.03-0.3,7.32c0.11,0.17,0.29,0.28,0.49,0.32c0.05,0.01,0.09,0.01,0.14,0.01c0.15,0,0.3-0.05,0.43-0.14
				l9.48-6.64c-0.3,4.37-1.06,11.87-2.93,17.26c-0.17,0.49,0.05,1.04,0.53,1.23c0.44,0.18,1.14,0.32,2.26,0.32
				c1.83,0,2.81-0.37,3.28-0.66c0.26-0.16,0.42-0.42,0.46-0.72c0.66-5.2,0.32-13.34,0.1-17.3l7.91,9.17
				c0.13,0.15,0.32,0.25,0.52,0.26c0.01,0,0.03,0,0.05,0c0.19,0,0.37-0.07,0.5-0.19c1.15-1.04,2.29-4.34,1.47-7.17
				c-0.13-0.44-0.36-0.84-0.67-1.17c-1.17-1.22-3.22-2.45-5.43-3.55l10.46-0.63c0.2-0.01,0.38-0.1,0.52-0.25
				c0.13-0.15,0.2-0.34,0.19-0.54C343.92,383.44,342.06,380.49,339.37,379.41z"/>
		</g>
	</g>
	<g>
		<g>
			<path class="st0" d="M262.68,391.55h5.28c0.83,0,1.5-0.67,1.5-1.5c0-0.83-0.67-1.5-1.5-1.5h-5.28c-0.83,0-1.5,0.67-1.5,1.5
				C261.18,390.88,261.85,391.55,262.68,391.55z M267.96,392.96h-5.28c-0.83,0-1.5,0.67-1.5,1.5c0,0.83,0.67,1.5,1.5,1.5h5.28
				c0.83,0,1.5-0.67,1.5-1.5C269.46,393.63,268.78,392.96,267.96,392.96z"/>
			<path class="st0" d="M263.32,403.12c0,3.58-2.92,6.5-6.5,6.5c-3.58,0-6.5-2.92-6.5-6.5v-0.5h2.14c0.8,0,1.27-0.89,0.83-1.55
				l-3.15-4.77c-0.31-0.69-1.01-1.18-1.82-1.18c-1.1,0-2,0.9-2,2v6c0,5.79,4.71,10.5,10.5,10.5s10.5-4.71,10.5-10.5v-4.73h-4V403.12
				z M265.32,375.38c-2.96,0-5.37,2.41-5.37,5.37s2.41,5.37,5.37,5.37s5.37-2.41,5.37-5.37S268.28,375.38,265.32,375.38z
				 M265.32,382.12c-0.75,0-1.37-0.61-1.37-1.37s0.61-1.37,1.37-1.37s1.37,0.61,1.37,1.37S266.07,382.12,265.32,382.12z"/>
		</g>
	</g>
	<g>
		<g>
			<g>
				<path class="st0" d="M197.5,402.5c-0.83,0-1.5,0.67-1.5,1.5s0.67,1.5,1.5,1.5c0.83,0,1.5-0.67,1.5-1.5S198.33,402.5,197.5,402.5
					z M206.5,378h-28c-4.42,0-8,3.58-8,8v18.5c0,0.28,0.22,0.5,0.5,0.5h3.5v4.5c0,0.83,0.67,1.5,1.5,1.5c0.83,0,1.5-0.67,1.5-1.5
					V405h13.08c0.49,3.39,3.4,6,6.92,6c3.52,0,6.43-2.61,6.92-6H210c0.28,0,0.5-0.22,0.5-0.5V382C210.5,379.79,208.71,378,206.5,378
					z M185.5,400h-10v-15c0-1.1,0.9-2,2-2h6c1.1,0,2,0.9,2,2V400z M197.5,408c-2.21,0-4-1.79-4-4s1.79-4,4-4c2.21,0,4,1.79,4,4
					S199.71,408,197.5,408z M205.5,388c0,1.1-0.9,2-2,2h-11c-1.1,0-2-0.9-2-2v-3c0-1.1,0.9-2,2-2h11c1.1,0,2,0.9,2,2V388z"/>
				<path class="st0" d="M182,387.5c-0.83,0-1.5,0.67-1.5,1.5v4c0,0.83,0.67,1.5,1.5,1.5c0.83,0,1.5-0.67,1.5-1.5v-4
					C183.5,388.17,182.83,387.5,182,387.5z"/>
			</g>
		</g>
	</g>
	<g>
		<g>
			<path class="st0" d="M138.76,405.34l-1.27-1.44c-0.34-0.39-0.92-0.42-1.33-0.1c-6.42,5.04-15.72,4.53-21.56-1.31
				c-5.91-5.91-6.37-15.28-1.19-21.71c0.32-0.4,0.29-0.98-0.09-1.32l-1.43-1.29c-0.4-0.36-1.03-0.33-1.37,0.09
				c-6.5,7.95-5.97,19.6,1.37,26.94c7.25,7.25,18.82,7.85,26.76,1.52C139.08,406.38,139.12,405.75,138.76,405.34z"/>
			<path class="st0" d="M135.49,400.66l-0.34-0.33c0,0,0,0,0,0l-18.78-18.68c-0.28-0.26-0.73-0.23-0.97,0.06
				c-4.59,5.61-4.21,13.83,0.97,19.01c5.12,5.12,13.44,5.38,19.04,0.91C135.71,401.39,135.74,400.95,135.49,400.66z M116.41,391.48
				c-0.78-0.78-0.78-2.05,0-2.83c0.78-0.78,2.05-0.78,2.83,0l1.41,1.41l-1.41,1.41C118.46,392.26,117.19,392.26,116.41,391.48z
				 M123.36,395.72c0,1.1-0.9,2-2,2c-1.1,0-2-0.9-2-2c0-1.1,0.9-2,2-2h2V395.72z M128.43,400.67c-0.78,0.78-2.05,0.78-2.83,0
				c-0.78-0.78-0.78-2.05,0-2.83l1.41-1.41l1.41,1.41C129.21,398.62,129.21,399.89,128.43,400.67z"/>
		</g>
	</g>
	<g>
		<g>
			<path class="st0" d="M67.82,394.37c-0.8-0.13-1.53,0.23-1.95,0.82l0-0.01l-3.26,4.94c-0.44,0.66,0.04,1.55,0.83,1.55h1.16
				c-1.43,3.33-4.45,5.82-8.1,6.5v-9c0-0.28-0.22-0.5-0.5-0.5h-3c-0.28,0-0.5,0.22-0.5,0.5v9c-3.65-0.67-6.67-3.16-8.1-6.48h1.16
				c0.8,0,1.27-0.89,0.83-1.55l-3.2-4.84c-0.39-0.62-1.09-1.01-1.89-0.94c-1.05,0.1-1.8,1.06-1.8,2.11v0.45
				c0,8.07,6.19,15.02,14.25,15.42c8.61,0.42,15.75-6.46,15.75-14.98v-0.89C69.5,395.45,68.81,394.52,67.82,394.37z"/>
			<path class="st0" d="M60.1,390.66h-3.6v-3.35c2.1-0.78,3.6-2.79,3.6-5.15c0-3.03-2.47-5.5-5.5-5.5s-5.5,2.47-5.5,5.5
				c0,2.29,1.41,4.25,3.4,5.08v3.42h-3.4c-1.1,0-2,0.9-2,2s0.9,2,2,2h11c1.1,0,2-0.9,2-2S61.2,390.66,60.1,390.66z M54.6,383.66
				c-0.83,0-1.5-0.67-1.5-1.5c0-0.83,0.67-1.5,1.5-1.5c0.83,0,1.5,0.67,1.5,1.5C56.1,382.98,55.43,383.66,54.6,383.66z"/>
		</g>
	</g>
	<g>
		<g>
			<g>
				<path class="st0" d="M391,315.85h5c0.28,0,0.5-0.22,0.5-0.5v-4.79c0-0.28-0.22-0.5-0.5-0.5h-5c-0.28,0-0.5,0.22-0.5,0.5v4.79
					C390.5,315.62,390.72,315.85,391,315.85z M381,315.85h5c0.28,0,0.5-0.22,0.5-0.5v-4.79c0-0.28-0.22-0.5-0.5-0.5h-5
					c-0.28,0-0.5,0.22-0.5,0.5v4.79C380.5,315.62,380.72,315.85,381,315.85z M412.84,327.95H401.8c-0.51,0-1,0.19-1.37,0.54
					l-3.09,2.91c-0.37,0.35-0.86,0.54-1.37,0.54h-19.81c-1.25,0-2.19,1.13-1.97,2.36l1.27,7c0.17,0.95,1,1.64,1.97,1.64h31.1
					c0.82,0,1.56-0.5,1.86-1.27l4.3-11C415.21,329.36,414.24,327.95,412.84,327.95z"/>
				<path class="st0" d="M408.4,324.74l-2.77-6.1c-0.08-0.18-0.26-0.29-0.46-0.29H379c-0.28,0-0.5,0.22-0.5,0.5v10
					c0,0.28,0.22,0.5,0.5,0.5h16.88l2.84-2.68c0.83-0.79,1.94-1.23,3.09-1.23h6.15C408.31,325.45,408.56,325.07,408.4,324.74z
					 M384.5,324.85c0,0.28-0.22,0.5-0.5,0.5h-2c-0.28,0-0.5-0.22-0.5-0.5v-2c0-0.28,0.22-0.5,0.5-0.5h2c0.28,0,0.5,0.22,0.5,0.5
					V324.85z M389.5,324.85c0,0.28-0.22,0.5-0.5,0.5h-2c-0.28,0-0.5-0.22-0.5-0.5v-2c0-0.28,0.22-0.5,0.5-0.5h2
					c0.28,0,0.5,0.22,0.5,0.5V324.85z M394.5,324.85c0,0.28-0.22,0.5-0.5,0.5h-2c-0.28,0-0.5-0.22-0.5-0.5v-2
					c0-0.28,0.22-0.5,0.5-0.5h2c0.28,0,0.5,0.22,0.5,0.5V324.85z"/>
			</g>
		</g>
	</g>
	<g>
		<g>
			<path class="st0" d="M334.5,314.37c0-0.02,0-0.03,0-0.05c0-4.42-3.58-8-8-8s-8,3.58-8,8c0,0.02,0,0.03,0,0.05
				c-2.25,0.25-4,2.13-4,4.45c0,2.49,2.01,4.5,4.5,4.5h15c2.49,0,4.5-2.01,4.5-4.5C338.5,316.5,336.75,314.62,334.5,314.37z"/>
			<path class="st0" d="M334,325.81h-15.33c-0.28,0-0.5,0.22-0.5,0.5v4c0,0.28,0.22,0.5,0.5,0.5h1.07l3.26,15.08
				c0.1,0.46,0.51,0.79,0.98,0.79h4.73c0.47,0,0.88-0.33,0.98-0.79l2.82-13.08h-4c-0.55,0-1-0.45-1-1s0.45-1,1-1l5.5,0
				c0.28,0,0.5-0.22,0.5-0.5v-4C334.5,326.04,334.28,325.81,334,325.81z"/>
		</g>
	</g>
	<g>
		<g>
			<path class="st0" d="M266.49,338.5h-16c-0.28,0-0.5,0.22-0.5,0.5v6c0,1.1,0.9,2,2,2h13c1.1,0,2-0.9,2-2v-6
				C266.99,338.72,266.76,338.5,266.49,338.5z"/>
			<path class="st0" d="M269.33,312h-21.58c-0.29,0-0.52,0.25-0.5,0.54l1.6,21.61c0.08,1.04,0.95,1.85,1.99,1.85h15.29
				c1.04,0,1.91-0.8,1.99-1.84l1.69-21.62C269.85,312.25,269.62,312,269.33,312z M261.68,319.95c0.37-0.38,0.98-0.38,1.36,0
				c0.37,0.37,0.37,0.98,0,1.36c-0.37,0.37-1.4,0.66-1.71,0.35C261.02,321.35,261.3,320.33,261.68,319.95z M258.99,318.3
				c0.53,0,0.96,0.43,0.96,0.96s-0.52,1.46-0.96,1.46c-0.44,0-0.96-0.93-0.96-1.46S258.46,318.3,258.99,318.3z M253.29,324
				c0-0.53,0.43-0.96,0.96-0.96c0.53,0,1.46,0.52,1.46,0.96s-0.93,0.96-1.46,0.96C253.72,324.96,253.29,324.53,253.29,324z
				 M256.3,328.05c-0.37,0.38-0.98,0.38-1.36,0c-0.37-0.37-0.37-0.98,0-1.36c0.38-0.38,1.4-0.66,1.71-0.35
				C256.96,326.65,256.67,327.67,256.3,328.05z M256.65,321.66c-0.31,0.31-1.33,0.02-1.71-0.35c-0.37-0.38-0.37-0.98,0-1.36
				c0.38-0.38,0.98-0.38,1.36,0C256.67,320.33,256.96,321.35,256.65,321.66z M258.99,329.7c-0.53,0-0.96-0.43-0.96-0.96
				s0.52-1.46,0.96-1.46c0.44,0,0.96,0.93,0.96,1.46S259.52,329.7,258.99,329.7z M258.99,326c-1.1,0-2-0.9-2-2s0.9-2,2-2
				c1.1,0,2,0.9,2,2S260.09,326,258.99,326z M263.04,328.05c-0.37,0.38-0.98,0.38-1.36,0c-0.37-0.37-0.66-1.4-0.35-1.71
				c0.31-0.31,1.33-0.02,1.71,0.35C263.41,327.06,263.41,327.67,263.04,328.05z M263.73,324.96c-0.53,0-1.46-0.52-1.46-0.96
				s0.93-0.96,1.46-0.96c0.53,0,0.96,0.43,0.96,0.96S264.26,324.96,263.73,324.96z M268.99,306h-20.98c-0.56,0-1.01,0.46-1,1.02
				l0.06,1.99c0.01,0.27,0.23,0.49,0.5,0.49h21.92c0.28,0,0.5-0.22,0.5-0.5v-2C269.99,306.45,269.54,306,268.99,306z"/>
		</g>
	</g>
	<g>
		<g>
			<path class="st0" d="M202.96,306.17l-4.55-0.15c-3.16-0.19-5.86,2.28-6.03,5.51l0.86,26.56c-0.25,4.65,3.23,8.63,7.77,8.9l0,0
				c4.54,0.27,8.42-3.28,8.67-7.92l1.05-24C210.98,310.42,207.5,306.43,202.96,306.17z M208.12,335.74
				c-0.05,0.69-0.64,1.19-1.34,1.16c-0.69-0.05-1.21-0.65-1.16-1.34c0.01-0.11,0.68-10.52-4.51-16c-5.14,5.97-2.94,16.06-2.92,16.17
				c0.15,0.67-0.27,1.34-0.94,1.5c-0.09,0.02-0.19,0.03-0.28,0.03c-0.57,0-1.08-0.39-1.22-0.97c-0.11-0.5-2.64-12.01,3.95-18.89
				v-2.15c0-0.69,0.56-1.25,1.25-1.25s1.25,0.56,1.25,1.25v1.89C208.94,323.25,208.16,335.23,208.12,335.74z"/>
			<path class="st0" d="M188.74,311.53c-0.17-3.23-2.89-5.7-6.07-5.51l-4.58,0.15c-4.57,0.27-8.07,4.26-7.82,8.9l1.05,24
				c0.25,4.65,4.15,8.19,8.72,7.92c4.57-0.27,8.07-4.26,7.82-8.9L188.74,311.53z M185.3,336.29c-0.13,0.58-0.65,0.97-1.22,0.97
				c-0.09,0-0.19-0.01-0.28-0.03c-0.67-0.15-1.09-0.82-0.94-1.5c0.02-0.11,2.23-10.2-2.92-16.17c-5.2,5.48-4.52,15.89-4.51,16
				c0.05,0.69-0.47,1.29-1.16,1.34c-0.7,0.03-1.29-0.47-1.34-1.16c-0.04-0.52-0.82-12.49,5.92-18.6v-1.89
				c0-0.69,0.56-1.25,1.25-1.25c0.69,0,1.25,0.56,1.25,1.25v2.15C187.94,324.27,185.41,335.79,185.3,336.29z"/>
		</g>
	</g>
	<g>
		<g>
			<g>
				<path class="st0" d="M122.49,305.25L122.49,305.25c-3.71,0-6.7,5.01-6.7,13.65c0,9.3,2.75,15.84,4.73,19.35h3.96
					c1.97-3.51,4.72-10.05,4.72-19.36C129.21,310.25,126.19,305.25,122.49,305.25z"/>
				<path class="st0" d="M117.5,338.25h0.19c-2.04-3.99-4.4-10.5-4.4-19.35c0-5.63,1.19-10.11,3.26-12.91
					c-6.46,1.69-11.06,6.2-11.06,12.92c0,9.76,6.63,16.04,11.62,19.38C117.25,338.28,117.37,338.25,117.5,338.25z M128.37,305.97
					c2.27,3.1,3.34,8.01,3.34,12.92c0,8.86-2.35,15.37-4.38,19.36h0.18c0.1,0,0.2,0.02,0.3,0.03c4.99-3.38,11.7-9.73,11.7-19.4
					C139.5,312.15,134.86,307.64,128.37,305.97z M127.5,340.75h-10c-1.1,0-2,0.9-2,2v3c0,1.1,0.9,2,2,2h10c1.1,0,2-0.9,2-2v-3
					C129.5,341.65,128.6,340.75,127.5,340.75z"/>
			</g>
		</g>
	</g>
	<g>
		<g>
			<g>
				<path class="st0" d="M62.54,332.92l-4.2-9.44c-0.16-0.37-0.45-0.65-0.82-0.82l-9.44-4.2c-0.89-0.4-2.01,0.72-1.61,1.61l4.2,9.44
					c0.16,0.37,0.45,0.65,0.82,0.82l9.44,4.2C61.81,334.93,62.93,333.81,62.54,332.92z M54.5,328.44c-1.07,0-1.94-0.87-1.94-1.94
					s0.87-1.94,1.94-1.94c1.07,0,1.94,0.87,1.94,1.94S55.57,328.44,54.5,328.44z"/>
				<path class="st0" d="M54.5,335c-0.83,0-1.5,0.67-1.5,1.5v1c0,0.83,0.67,1.5,1.5,1.5c0.83,0,1.5-0.67,1.5-1.5v-1
					C56,335.67,55.33,335,54.5,335z M45,325.5h-1c-0.83,0-1.5,0.67-1.5,1.5s0.67,1.5,1.5,1.5h1c0.83,0,1.5-0.67,1.5-1.5
					S45.83,325.5,45,325.5z M54.5,315c-0.83,0-1.5,0.67-1.5,1.5v1c0,0.83,0.67,1.5,1.5,1.5c0.83,0,1.5-0.67,1.5-1.5v-1
					C56,315.67,55.33,315,54.5,315z M54.5,307c-10.75,0-19.5,8.75-19.5,19.5S43.75,346,54.5,346c10.75,0,19.5-8.75,19.5-19.5
					S65.25,307,54.5,307z M54.5,341c-8,0-14.5-6.5-14.5-14.5S46.5,312,54.5,312c8,0,14.5,6.5,14.5,14.5S62.5,341,54.5,341z
					 M65,325.5h-1c-0.83,0-1.5,0.67-1.5,1.5s0.67,1.5,1.5,1.5h1c0.83,0,1.5-0.67,1.5-1.5S65.83,325.5,65,325.5z"/>
			</g>
		</g>
	</g>
	<g>
		<g>
			<path class="st0" d="M392.74,272.67l-15.95-4.31c-0.28-0.08-0.57,0.1-0.62,0.39l-0.14,0.76c-0.12,0.61,0.26,1.2,0.85,1.37
				l14.73,4.05c0.76,0.21,1.5-0.36,1.5-1.14v-0.62C393.11,272.93,392.95,272.73,392.74,272.67z M412.84,268.75
				c-0.05-0.29-0.34-0.47-0.62-0.39l-15.95,4.31c-0.22,0.06-0.37,0.26-0.37,0.48v0.63c0,0.78,0.75,1.35,1.5,1.14l14.74-4.05
				c0.6-0.16,0.97-0.76,0.85-1.37L412.84,268.75z M412.27,265.22l-0.54-4.84l-0.26-0.93c-1.2,0.73-2.54,1.11-3.85,1.11
				c-1.63,0-3.19-0.58-4.37-1.75c-0.49-0.49-0.49-1.28,0-1.77c0.49-0.49,1.28-0.49,1.77,0c1.44,1.44,3.91,1.33,5.74-0.16l-2.13-7.63
				c-0.12-0.35-0.44-0.58-0.81-0.58h-10.74c-0.66,0-1.19,0.53-1.19,1.19v7.8c0,0.77-0.62,1.39-1.39,1.39
				c-0.77,0-1.39-0.62-1.39-1.39v-7.8c0-0.66-0.53-1.19-1.19-1.19h-10.74c-0.37,0-0.69,0.23-0.81,0.58l-2.13,7.63
				c1.83,1.48,4.29,1.6,5.74,0.16c0.49-0.49,1.28-0.49,1.77,0c0.49,0.49,0.49,1.28,0,1.77c-1.18,1.18-2.74,1.75-4.37,1.75
				c-1.3,0-2.64-0.38-3.85-1.12l-0.26,0.93l-0.63,5.3l17.73,4.79c0.09,0.02,0.18,0.02,0.26,0l17.28-4.67
				C412.17,265.72,412.32,265.47,412.27,265.22z"/>
			<path class="st0" d="M406,242.03h-23c-1.1,0-2,0.9-2,2c0,1.1,0.9,2,2,2h23c1.1,0,2-0.9,2-2C408,242.93,407.1,242.03,406,242.03z"
				/>
		</g>
	</g>
	<g>
		<g>
			<g>
				<path class="st0" d="M338.75,251.78c0.85,0.27,1.55,0.24,1.87-0.08c0.56-0.56,0.24-2.43-1.35-4.39
					c-0.25-0.28-0.49-0.57-0.76-0.83c-0.26-0.26-0.53-0.48-0.8-0.72c-0.83-0.67-1.72-1.18-2.53-1.44c-0.38-0.12-0.74-0.18-1.04-0.18
					c-0.37,0-0.65,0.09-0.83,0.26c-0.63,0.64-0.13,2.99,2.1,5.21C336.44,250.64,337.66,251.44,338.75,251.78z M331.05,245.11
					c0.02-0.84,0.3-1.57,0.85-2.12c0.16-0.16,0.33-0.28,0.52-0.4c-1.9-0.7-3.9-1.07-5.91-1.07c-4.36,0-8.72,1.66-12.03,4.98
					c-5.17,5.18-6.28,12.89-3.36,19.17c0.07-0.84,0.23-1.73,0.48-2.66c0.99-3.57,3.29-7.29,6.48-10.49
					c3.85-3.86,8.51-6.4,12.55-6.92C330.87,245.57,331.04,245.36,331.05,245.11z M342.42,252.6c-0.11,0.18-0.24,0.35-0.39,0.51
					c-0.56,0.57-1.33,0.85-2.24,0.85c-0.11,0-0.24-0.02-0.36-0.03c-0.38,4.14-2.95,9-6.94,13c-3.19,3.2-6.91,5.51-10.48,6.5
					c-0.92,0.26-1.81,0.42-2.65,0.49c6.29,2.9,13.99,1.78,19.16-3.4C343.36,265.68,344.65,258.63,342.42,252.6z"/>
				<path class="st0" d="M337.15,253.28c-1.09-0.51-2.18-1.27-3.16-2.25c-1.03-1.02-1.8-2.12-2.29-3.19
					c-0.09-0.19-0.28-0.31-0.49-0.29c-3.66,0.34-8.06,2.72-11.72,6.39c-2.95,2.96-5.07,6.37-5.97,9.61
					c-0.84,3.04-0.5,5.52,0.98,6.99c0,0,0,0,0,0c1.47,1.47,3.95,1.81,6.99,0.96c3.24-0.9,6.65-3.03,9.6-5.99
					c3.67-3.68,6.04-8.08,6.37-11.75C337.47,253.56,337.35,253.37,337.15,253.28z"/>
			</g>
		</g>
	</g>
	<g>
		<g>
			<path class="st0" d="M277.1,241.9c-0.05-1.09-0.92-1.96-2.01-2.01c-8.75-0.42-17.28,2.88-23.48,9.08l-1.46,1.46
				c-0.82,0.82-0.82,2.16,0,2.98l3.53,3.53l3.41-3.41c0.66-0.66,1.54-1.02,2.47-1.02c0.93,0,1.81,0.36,2.47,1.03l1.41,1.41
				c0.66,0.66,1.03,1.54,1.03,2.47c0,0.94-0.36,1.81-1.02,2.47l-3.41,3.4l3.53,3.53c0.82,0.82,2.16,0.82,2.98,0l1.46-1.46
				C274.23,259.18,277.52,250.66,277.1,241.9z"/>
			<path class="st0" d="M261.7,258.13c0.39-0.39,0.39-1.02,0-1.41l-1.41-1.41c-0.2-0.2-0.45-0.29-0.71-0.29
				c-0.26,0-0.51,0.1-0.71,0.29l-7.01,7.01c-0.09,0.09-0.16,0.18-0.23,0.28l-4.25-1.4c-0.72-0.24-1.51-0.05-2.04,0.49l-4.9,4.9
				c-0.78,0.78-0.78,2.05,0,2.83l7.15,7.15c0.38,0.38,0.88,0.59,1.41,0.59s1.04-0.21,1.41-0.59l4.9-4.9
				c0.53-0.53,0.72-1.32,0.49-2.04l-1.4-4.25c0.1-0.07,0.19-0.14,0.28-0.23L261.7,258.13z M249.01,272.31l-4.32-4.32l2.61-2.61
				l3.25,1.07l1.07,3.25L249.01,272.31z"/>
		</g>
	</g>
	<g>
		<g>
			<g>
				<path class="st0" d="M181.46,253.93l8.13-0.01c0.85,0,1.28-1.03,0.68-1.64l-5.74-5.74c-0.42-0.42-1.11-0.36-1.46,0.12
					c-1.37,1.85-2.22,3.97-2.55,6.15C180.42,253.4,180.87,253.93,181.46,253.93z M189.57,255.84l-8.12,0.01
					c-0.59,0-1.04,0.53-0.95,1.11c0.32,2.18,1.17,4.29,2.53,6.14c0.35,0.48,1.04,0.54,1.46,0.12l5.75-5.75
					C190.85,256.87,190.42,255.84,189.57,255.84z M202.53,264.56l-5.74-5.74c-0.6-0.6-1.63-0.18-1.64,0.68l-0.01,8.13
					c0,0.59,0.53,1.04,1.12,0.95c2.18-0.33,4.3-1.18,6.15-2.55C202.89,265.67,202.95,264.98,202.53,264.56z M191.6,258.83
					l-5.75,5.75c-0.42,0.42-0.36,1.11,0.12,1.46c1.85,1.36,3.96,2.21,6.14,2.53c0.58,0.09,1.11-0.36,1.11-0.95l0.01-8.12
					C193.24,258.65,192.21,258.23,191.6,258.83z"/>
				<path class="st0" d="M194.9,256.66c0.37-0.14,0.46-0.63,0.18-0.91l-1.76-1.76c-0.28-0.28-0.76-0.19-0.91,0.18
					c-0.27,0.69-0.13,1.5,0.43,2.05C193.4,256.79,194.21,256.93,194.9,256.66z M206.76,269.34l-1.27-1.44
					c-0.34-0.39-0.92-0.42-1.33-0.1c-6.42,5.04-15.72,4.53-21.56-1.31c-5.91-5.91-6.37-15.28-1.19-21.71
					c0.32-0.4,0.29-0.98-0.09-1.32l-1.43-1.29c-0.4-0.36-1.03-0.33-1.37,0.09c-6.5,7.95-5.97,19.6,1.37,26.94
					c7.25,7.25,18.82,7.85,26.76,1.52C207.08,270.38,207.12,269.75,206.76,269.34z"/>
			</g>
		</g>
	</g>
	<g>
		<g>
			<path class="st0" d="M121.29,241.06c-5.9,0.63-10.34,6.3-9.83,12.2c0.67,7.74,7.79,13.51,10.23,15.27
				c0.48,0.35,1.13,0.34,1.6-0.03c2.53-1.98,10.31-8.68,10.31-16.42C133.6,245.57,127.96,240.36,121.29,241.06z M122.5,256.49
				c-2.43,0-4.4-1.97-4.4-4.4c0-2.43,1.97-4.4,4.4-4.4s4.4,1.97,4.4,4.4C126.91,254.52,124.94,256.49,122.5,256.49z"/>
			<path class="st0" d="M136.07,273.5l-1.82-8.24c-0.21-0.94-1.04-1.62-2.01-1.62h-0.58c-1.63,2.17-3.83,4.48-6.83,6.83
				c-0.67,0.52-1.51,0.81-2.36,0.81c-0.81,0-1.59-0.25-2.25-0.73c-1.7-1.23-4.64-3.62-7.1-6.92h-0.43c-0.97,0-1.81,0.68-2.01,1.63
				l-1.76,8.24c-0.27,1.28,0.7,2.49,2.01,2.49h23.13C135.38,276,136.36,274.78,136.07,273.5z"/>
		</g>
	</g>
	<g>
		<g>
			<path class="st0" d="M68,270.5h3c0.83,0,1.5-0.67,1.5-1.5s-0.67-1.5-1.5-1.5h-3c-0.83,0-1.5-0.67-1.5-1.5s0.67-1.5,1.5-1.5h3
				c0.83,0,1.5-0.67,1.5-1.5s-0.67-1.5-1.5-1.5h-3c-0.83,0-1.5-0.67-1.5-1.5s0.67-1.5,1.5-1.5h3c0.28,0,0.5-0.22,0.5-0.5v-1.33
				c-0.69-0.03-1.36-0.23-1.96-0.59l-15.04-9.02l-15.04,9.02c-0.59,0.36-1.27,0.55-1.96,0.59V258c0,0.28,0.22,0.5,0.5,0.5h4
				c0.83,0,1.5,0.67,1.5,1.5s-0.67,1.5-1.5,1.5h-3c-0.83,0-1.5,0.67-1.5,1.5s0.67,1.5,1.5,1.5h3c0.83,0,1.5,0.67,1.5,1.5
				s-0.67,1.5-1.5,1.5h-3c-0.83,0-1.5,0.67-1.5,1.5s0.67,1.5,1.5,1.5h3c0.83,0,1.5,0.67,1.5,1.5s-0.67,1.5-1.5,1.5h-3
				c-0.83,0-1.5,0.67-1.5,1.5s0.67,1.5,1.5,1.5h32c0.83,0,1.5-0.67,1.5-1.5s-0.67-1.5-1.5-1.5h-3c-0.83,0-1.5-0.67-1.5-1.5
				S67.17,270.5,68,270.5z M58.1,269.33c0,0.55-0.45,1-1,1h-5.2c-0.55,0-1-0.45-1-1v-7.26c0-0.55,0.45-1,1-1h5.2c0.55,0,1,0.45,1,1
				V269.33z"/>
			<path class="st0" d="M72.58,251.02L55.8,240.96c-0.41-0.24-0.91-0.46-1.3-0.46c-0.39,0-0.89,0.21-1.3,0.46l-16.78,10.06
				c-0.81,0.48-1.07,1.53-0.59,2.34c0.48,0.81,1.53,1.07,2.34,0.59l16.33-9.79l16.33,9.79c0.81,0.48,1.85,0.22,2.34-0.59
				C73.65,252.55,73.39,251.5,72.58,251.02z"/>
		</g>
	</g>
	<g>
		<g>
			<path class="st0" d="M408,188c-0.36,0-0.71,0.03-1.06,0.07l-4.01-12.04c-0.2-0.61-0.78-1.03-1.42-1.03h-5
				c-0.83,0-1.5,0.67-1.5,1.5s0.67,1.5,1.5,1.5h3.92l1.67,5H387.5c-0.58,0-1.12,0.34-1.36,0.87l-2.15,4.65
				c-0.94-0.33-1.94-0.52-2.99-0.52c-4.96,0-9,4.04-9,9s4.04,9,9,9c4.27,0,7.86-3,8.77-7h2.69c0.44,0,0.86-0.19,1.15-0.53
				l9.78-11.59l0.68,2.04c-2.99,1.46-5.06,4.53-5.06,8.08c0,4.96,4.04,9,9,9s9-4.04,9-9S412.96,188,408,188z M381,203
				c-3.31,0-6-2.69-6-6s2.69-6,6-6c0.6,0,1.18,0.09,1.73,0.26l-2.59,5.61c-0.21,0.46-0.18,1.01,0.1,1.44
				c0.28,0.43,0.75,0.69,1.26,0.69h5.15C385.82,201.33,383.61,203,381,203z M383.84,196l1.46-3.17c0.83,0.85,1.4,1.95,1.6,3.17
				H383.84z M391.76,196h-1.82c-0.27-2.43-1.51-4.56-3.32-6.02l1.84-3.98h11.73L391.76,196z M408,203c-3.31,0-6-2.69-6-6
				c0-2.22,1.22-4.16,3.02-5.2l2.06,6.17c0.21,0.63,0.79,1.03,1.42,1.03c0.16,0,0.32-0.02,0.47-0.08c0.79-0.26,1.21-1.11,0.95-1.9
				l-2.01-6.02c0.03,0,0.06,0,0.08,0c3.31,0,6,2.69,6,6S411.31,203,408,203z"/>
			<path class="st0" d="M390,177.5h-6c-0.83,0-1.5,0.67-1.5,1.5s0.67,1.5,1.5,1.5h6c0.83,0,1.5-0.67,1.5-1.5S390.83,177.5,390,177.5
				z"/>
		</g>
	</g>
	<g>
		<g>
			<path class="st0" d="M345.24,185.11c0.88-0.24,1.51-1.02,1.51-1.93v-3.67c0-1.1-0.9-2-2-2h-8.5c-0.28,0-0.5,0.22-0.5,0.5v25
				c0,0.28,0.22,0.5,0.5,0.5h8.5c1.1,0,2-0.9,2-2v-3.64c0-0.93-0.64-1.72-1.54-1.94c-2.61-0.62-4.39-2.81-4.39-5.42
				C340.82,187.93,342.84,185.77,345.24,185.11z"/>
			<path class="st0" d="M332.75,177.5h-24.5c-1.1,0-2,0.9-2,2v22c0,1.1,0.9,2,2,2h24.5c0.28,0,0.5-0.22,0.5-0.5v-25
				C333.25,177.72,333.03,177.5,332.75,177.5z M326.47,191.96h-5.12v2.93l1.48,0.37c0.45,0.11,0.76,0.51,0.76,0.97v0.93h-7.68v-0.93
				c0-0.46,0.31-0.86,0.76-0.97l1.48-0.37v-2.93h-5.12v-1.22c0-0.46,0.31-0.86,0.76-0.97l4.36-1.09v-3.24
				c0-0.97,0.87-1.74,1.87-1.58c0.79,0.13,1.33,0.87,1.33,1.66v3.15l4.36,1.09c0.45,0.11,0.76,0.51,0.76,0.97V191.96z"/>
		</g>
	</g>
	<g>
		<g>
			<g>
				<path class="st0" d="M264.07,171.67c2.13,3.05,3.43,8.15,3.43,14.4c0,0.96-0.27,1.86-0.74,2.66c0.43,0.21,0.91,0.34,1.4,0.34
					h5.67c1.66,0,3.17-1.34,3.17-3C277,179.06,271.54,173.44,264.07,171.67z M251.83,189.56c-0.83-0.96-1.33-2.18-1.33-3.49
					c0-7.2,1.71-12.87,4.45-15.64c-8.64,1.52-14.95,7.85-14.95,15.64c0,2.17,1.91,4,4.17,4h5.67
					C250.55,190.07,251.23,189.89,251.83,189.56z M257,199.32h-8c-1.1,0-2,0.9-2,2c0,1.1,0.9,2,2,2h8v5.25c0,1.1,0.9,2,2,2
					s2-0.9,2-2v-17h-4V199.32z M271.99,192.59c-0.96-0.55-2.18-0.21-2.73,0.74l-3.42,5.99h-2.34v4h4.66l4.58-8.01
					C273.28,194.35,272.95,193.13,271.99,192.59z"/>
				<path class="st0" d="M259,171.07c-3.31,0-6,6.48-6,15c0,1.66,1.51,3,3.17,3h5.67c1.66,0,3.17-1.34,3.17-3
					C265,177.55,262.31,171.07,259,171.07z"/>
			</g>
		</g>
	</g>
	<g>
		<g>
			<path class="st0" d="M196.26,173.38l-5.37-2.3c-0.66-0.28-1.39,0.2-1.39,0.92v4.6c0,0.72,0.73,1.2,1.39,0.92l5.37-2.3
				C197.06,174.87,197.06,173.73,196.26,173.38z"/>
			<path class="st0" d="M210.11,199.5c-0.83-0.06-1.52,0.55-1.6,1.35L192.5,180c-0.48-0.64-1.21-1.01-2-1.01
				c-0.8,0-1.53,0.37-1.99,0.99l-16.02,20.87c-0.08-0.79-0.77-1.41-1.6-1.35c-0.8,0.06-1.39,0.8-1.39,1.61v8.39
				c0,0.28,0.22,0.5,0.5,0.5h2c0.28,0,0.5-0.22,0.5-0.5v-3.74l3-3.91v7.65c0,0.28,0.22,0.5,0.5,0.5h7.56c0.17,0,0.33-0.08,0.43-0.23
				c2.84-4.43,5.1-10.86,6.04-13.75c0.15-0.46,0.8-0.46,0.95,0c0.94,2.9,3.2,9.32,6.04,13.75c0.09,0.15,0.25,0.23,0.43,0.23H205
				c0.28,0,0.5-0.22,0.5-0.5v-7.65l3,3.91v3.74c0,0.28,0.22,0.5,0.5,0.5h2c0.28,0,0.5-0.22,0.5-0.5v-8.39
				C211.5,200.31,210.91,199.56,210.11,199.5z"/>
		</g>
	</g>
	<g>
		<g>
			<g>
				<path class="st0" d="M124.17,194h-7c-0.28,0-0.5,0.22-0.5,0.5V209c0,0.28,0.22,0.5,0.5,0.5h7c0.28,0,0.5-0.22,0.5-0.5v-14.5
					C124.67,194.22,124.45,194,124.17,194z M122.67,171.5h-4c-1.1,0-2,0.9-2,2v2c0,0.28,0.22,0.5,0.5,0.5h7c0.28,0,0.5-0.22,0.5-0.5
					v-2C124.67,172.4,123.78,171.5,122.67,171.5z"/>
				<path class="st0" d="M137.38,183.75l-3.6-4.5c-0.38-0.47-0.95-0.75-1.56-0.75h-23.04c-1.1,0-2,0.9-2,2v9c0,1.1,0.9,2,2,2h23.04
					c0.61,0,1.18-0.28,1.56-0.75l3.6-4.5C137.97,185.52,137.97,184.48,137.38,183.75z"/>
			</g>
		</g>
	</g>
	<g>
		<g>
			<g>
				<g>
					<circle class="st0" cx="57" cy="193" r="6"/>
					<path class="st0" d="M71.29,179h-3.43l-2.08-3.63c-0.48-0.85-1.38-1.37-2.36-1.37H51.58c-0.97,0-1.87,0.52-2.36,1.37L47.14,179
						h-9.43c-1.5,0-2.71,1.21-2.71,2.71v22.57c0,1.5,1.22,2.71,2.71,2.71h33.57c1.5,0,2.71-1.21,2.71-2.71v-22.57
						C74,180.21,72.79,179,71.29,179z M41,187c-1.1,0-2-0.9-2-2s0.9-2,2-2c1.1,0,2,0.9,2,2S42.1,187,41,187z M64.88,197.52
						c-0.73,1.44-1.91,2.63-3.36,3.36c-8.31,4.18-16.58-4.1-12.41-12.41c0.73-1.44,1.91-2.63,3.36-3.36
						C60.78,180.94,69.06,189.22,64.88,197.52z"/>
				</g>
			</g>
		</g>
	</g>
	<g>
		<g>
			<path class="st0" d="M405.11,111.89c-2.83-2.83-6.6-4.39-10.61-4.39s-7.77,1.56-10.61,4.39c-2.83,2.83-4.39,6.6-4.39,10.61
				c0,4.01,1.56,7.77,4.39,10.61c2.83,2.83,6.6,4.39,10.61,4.39s7.77-1.56,10.61-4.39c2.83-2.83,4.39-6.6,4.39-10.61
				C409.5,118.49,407.94,114.73,405.11,111.89z M394.5,109.5c1.94,0,3.87,0.44,5.65,1.31l-2.37,4.27c-1.04-0.46-2.16-0.7-3.28-0.7
				s-2.24,0.24-3.28,0.7l-2.37-4.27C390.63,109.94,392.56,109.5,394.5,109.5z M387.07,125.78l-4.27,2.37
				c-1.72-3.56-1.72-7.74,0-11.31l4.27,2.37C386.15,121.3,386.15,123.7,387.07,125.78z M394.5,135.5c-1.94,0-3.87-0.44-5.65-1.31
				l2.37-4.27c1.04,0.46,2.16,0.7,3.28,0.7c1.12,0,2.24-0.24,3.28-0.7l2.37,4.27C398.37,135.06,396.44,135.5,394.5,135.5z
				 M398.83,126.83c-1.16,1.16-2.7,1.79-4.33,1.79c-1.64,0-3.17-0.64-4.33-1.79c-1.16-1.16-1.79-2.69-1.79-4.33
				c0-1.64,0.64-3.17,1.79-4.33c1.16-1.16,2.7-1.79,4.33-1.79c1.64,0,3.17,0.64,4.33,1.79
				C401.22,120.56,401.22,124.44,398.83,126.83z M401.93,125.78c0.92-2.09,0.92-4.48,0-6.57l4.27-2.37c1.72,3.56,1.72,7.74,0,11.31
				L401.93,125.78z"/>
			<path class="st0" d="M398.11,106.76c2.05-0.87,5.56,0.61,8.54,3.59c2.98,2.98,4.46,6.5,3.59,8.54c-0.22,0.51,0.02,1.1,0.53,1.31
				c0.13,0.05,0.26,0.08,0.39,0.08c0.39,0,0.76-0.23,0.92-0.61c1.48-3.49-1.24-7.96-4.01-10.74c-2.78-2.78-7.26-5.49-10.74-4.01
				c-0.51,0.22-0.75,0.8-0.53,1.31C397.02,106.74,397.6,106.97,398.11,106.76z M390.89,138.24c-2.05,0.87-5.56-0.61-8.54-3.59
				c-2.98-2.98-4.46-6.49-3.59-8.54c0.22-0.51-0.02-1.1-0.53-1.31c-0.51-0.21-1.1,0.02-1.31,0.53c-1.48,3.48,1.24,7.96,4.01,10.74
				c2.23,2.24,5.57,4.43,8.61,4.43c0.74,0,1.45-0.13,2.13-0.42c0.51-0.22,0.75-0.8,0.53-1.31
				C391.98,138.26,391.4,138.03,390.89,138.24z M391.67,104.92c-3.49-1.48-7.96,1.24-10.74,4.01c-2.78,2.78-5.49,7.25-4.01,10.74
				c0.16,0.38,0.53,0.61,0.92,0.61c0.13,0,0.26-0.03,0.39-0.08c0.51-0.22,0.75-0.8,0.53-1.31c-0.87-2.05,0.61-5.56,3.59-8.54
				c2.98-2.98,6.5-4.46,8.54-3.59c0.51,0.21,1.09-0.02,1.31-0.53C392.42,105.72,392.18,105.13,391.67,104.92z M410.77,124.8
				c-0.51,0.22-0.75,0.8-0.53,1.31c0.87,2.05-0.61,5.56-3.59,8.54c-2.98,2.98-6.49,4.46-8.54,3.59c-0.51-0.21-1.09,0.02-1.31,0.53
				c-0.22,0.51,0.02,1.1,0.53,1.31c0.68,0.29,1.4,0.42,2.13,0.42c3.04,0,6.37-2.2,8.61-4.43c2.78-2.78,5.49-7.25,4.01-10.74
				C411.87,124.82,411.28,124.59,410.77,124.8z"/>
		</g>
	</g>
	<g>
		<g>
			<g>
				<path class="st0" d="M316.5,101.54h-2.36c-2.01,0-3.64,1.63-3.64,3.65v0.71c0,2.01,1.63,3.65,3.64,3.65h2.36c1.1,0,2-0.9,2-2v-4
					C318.5,102.44,317.6,101.54,316.5,101.54z M337.86,101.54h-2.36c-1.1,0-2,0.9-2,2v4c0,1.1,0.9,2,2,2h2.36
					c2.01,0,3.64-1.63,3.64-3.65v-0.71C341.5,103.18,339.87,101.54,337.86,101.54z M329,101.54h-6c-1.1,0-2,0.9-2,2v4
					c0,1.1,0.9,2,2,2h6c1.1,0,2-0.9,2-2v-4C331,102.44,330.1,101.54,329,101.54z"/>
				<path class="st0" d="M310.62,118.04h-1.37c-2.21,0-4,1.79-4,4v7c0,2.21,1.79,4,4,4h0.4c0.26,0,0.48-0.21,0.5-0.47
					c0.33-4.83,0.59-8.54,0.97-13.99C311.14,118.3,310.91,118.04,310.62,118.04z M318.53,127.04h15.93c2.5,0,4.53-2.03,4.53-4.53
					v-8.47c0-1.1-0.9-2-2-2h-21c-1.1,0-2,0.9-2,2v8.47C314,125.01,316.03,127.04,318.53,127.04z M326.5,116.54
					c1.38,0,2.5,1.12,2.5,2.5c0,1.38-1.12,2.5-2.5,2.5c-1.38,0-2.5-1.12-2.5-2.5C324,117.66,325.12,116.54,326.5,116.54z
					 M343.75,118.04h-1.37c-0.29,0-0.52,0.25-0.5,0.54c0.38,5.45,0.63,9.15,0.97,13.99c0.02,0.26,0.24,0.47,0.5,0.47h0.4
					c2.21,0,4-1.79,4-4v-7C347.75,119.83,345.96,118.04,343.75,118.04z M339.17,127.71c-1.25,1.14-2.89,1.83-4.71,1.83h-15.93
					c-1.81,0-3.46-0.7-4.71-1.83c-0.31-0.29-0.81-0.1-0.84,0.32c-0.21,3.02-0.42,6.07-0.7,10.1c-0.16,2.29,1.67,4.51,3.98,4.73
					c8.17,0.79,12.3,0.79,20.47,0c2.32-0.22,4.14-2.44,3.98-4.73c-0.28-4.03-0.49-7.08-0.7-10.1
					C339.99,127.61,339.49,127.43,339.17,127.71z M330.5,137.04h-8c-0.83,0-1.5-0.67-1.5-1.5s0.67-1.5,1.5-1.5h8
					c0.83,0,1.5,0.67,1.5,1.5S331.33,137.04,330.5,137.04z"/>
			</g>
		</g>
	</g>
	<g>
		<g>
			<path class="st0" d="M258.5,131.5h-1c-1.1,0-2,0.9-2,2v5.5c0,0.28,0.22,0.5,0.5,0.5h2.5c1.1,0,2-0.9,2-2v-4
				C260.5,132.4,259.6,131.5,258.5,131.5z"/>
			<path class="st0" d="M250.5,109v-3c0-0.28-0.22-0.5-0.5-0.5h-4c-0.28,0-0.5,0.22-0.5,0.5v3.07c0.33-0.04,0.66-0.07,1-0.07H250.5z
				 M270.5,111.5h-24c-2.76,0-5,2.24-5,5v8c0,2.76,2.24,5,5,5h4.5c1.57,0,3.06-0.74,4-2l1.9-2.53c0.8-1.07,2.4-1.07,3.2,0l1.9,2.53
				c0.94,1.26,2.43,2,4,2h4.5c2.76,0,5-2.24,5-5v-8C275.5,113.74,273.26,111.5,270.5,111.5z M247.5,123.5c0,0.83-0.67,1.5-1.5,1.5
				s-1.5-0.67-1.5-1.5v-6c0-0.83,0.67-1.5,1.5-1.5s1.5,0.67,1.5,1.5V123.5z M253,134.5h-1.27c-0.68,0-1.23-0.55-1.23-1.23V132h-4
				c-0.34,0-0.67-0.03-1-0.07v2.28c0,2.93,2.37,5.3,5.3,5.3h2.2c0.28,0,0.5-0.22,0.5-0.5v-4C253.5,134.72,253.28,134.5,253,134.5z"
				/>
		</g>
	</g>
	<g>
		<g>
			<path class="st0" d="M196.5,104.51h-12c-1.87,0-3.38,1.51-3.38,3.38v3.1h3.38v-3.1h12v3.1h3.38v-3.1
				C199.88,106.03,198.37,104.51,196.5,104.51z"/>
			<path class="st0" d="M171.5,117.49v19c0,2.21,1.79,4,4,4h1v-27h-1C173.29,113.49,171.5,115.28,171.5,117.49z M179.5,140.49h22
				v-27h-22V140.49z M183.34,126.31l6.48-6.48c0.36-0.36,0.94-0.36,1.3,0l3.37,3.37c0.36,0.36,0.36,0.94,0,1.3l-6.48,6.48
				c-0.36,0.36-0.94,0.36-1.3,0l-3.37-3.37C182.99,127.25,182.99,126.67,183.34,126.31z M205.5,113.49h-1v27h1c2.21,0,4-1.79,4-4
				v-19C209.5,115.28,207.71,113.49,205.5,113.49z"/>
		</g>
	</g>
	<g>
		<g>
			<g>
				<path class="st0" d="M139.88,130.7h-34.76c-0.74,0-1.23,0.78-0.89,1.45l4,8c0.17,0.34,0.52,0.55,0.89,0.55h26.76
					c0.38,0,0.72-0.21,0.89-0.55l4-8C141.11,131.48,140.63,130.7,139.88,130.7z M122.96,128.2h11.86c0.75,0,1.23-0.79,0.89-1.46
					l-11.36-21.9c-0.48-0.93-1.89-0.59-1.89,0.46v22.4C122.46,127.98,122.69,128.2,122.96,128.2z"/>
				<path class="st0" d="M118.16,112.59l-8.78,11.68c-0.43,0.58-0.13,1.41,0.57,1.57l9.39,2.21c0.31,0.07,0.61-0.16,0.61-0.49V113.2
					C119.96,112.23,118.74,111.83,118.16,112.59z"/>
			</g>
		</g>
	</g>
	<g>
		<g>
			<path class="st0" d="M72.5,122.5c0-1.47-3.41-2.46-3.77-3.81c-0.37-1.4,2.07-3.96,1.36-5.19c-0.72-1.24-4.17-0.4-5.18-1.41
				c-1.01-1.01-0.17-4.46-1.41-5.18c-0.16-0.09-0.34-0.13-0.53-0.13c-1.22,0-3.1,1.53-4.34,1.53c-0.11,0-0.22-0.01-0.32-0.04
				c-1.35-0.36-2.35-3.77-3.81-3.77c-1.47,0-2.46,3.41-3.81,3.77c-0.1,0.03-0.21,0.04-0.32,0.04c-1.24,0-3.12-1.53-4.34-1.53
				c-0.19,0-0.37,0.04-0.53,0.13c-1.24,0.72-0.4,4.17-1.41,5.18c-1.01,1.01-4.46,0.17-5.18,1.41c-0.71,1.22,1.73,3.79,1.36,5.19
				c-0.36,1.35-3.77,2.35-3.77,3.81c0,1.47,3.41,2.46,3.77,3.81c0.37,1.4-2.07,3.96-1.36,5.19c0.72,1.24,4.17,0.4,5.18,1.41
				c1.01,1.01,0.17,4.46,1.41,5.18c0.16,0.09,0.34,0.13,0.53,0.13c1.22,0,3.1-1.53,4.34-1.53c0.11,0,0.22,0.01,0.32,0.04
				c1.35,0.36,2.35,3.77,3.81,3.77c1.47,0,2.46-3.41,3.81-3.77c0.1-0.03,0.21-0.04,0.32-0.04c1.24,0,3.12,1.53,4.34,1.53
				c0.2,0,0.37-0.04,0.53-0.13c1.24-0.72,0.4-4.17,1.41-5.18c1.01-1.01,4.46-0.17,5.18-1.41c0.71-1.22-1.73-3.79-1.36-5.19
				C69.09,124.96,72.5,123.97,72.5,122.5z M54.5,134c-6.34,0-11.5-5.16-11.5-11.5c0-6.34,5.16-11.5,11.5-11.5
				c6.34,0,11.5,5.16,11.5,11.5C66,128.84,60.84,134,54.5,134z"/>
			<circle class="st0" cx="54.5" cy="122.5" r="9"/>
		</g>
	</g>
</g>
<g id="title">
</g>
</svg>
