<?xml version="1.0" encoding="utf-8"?>
<!-- Generator: Adobe Illustrator 20.1.0, SVG Export Plug-In . SVG Version: 6.00 Build 0)  -->
<svg version="1.1" id="Layer_1" xmlns="http://www.w3.org/2000/svg" xmlns:xlink="http://www.w3.org/1999/xlink" x="0px" y="0px"
	 viewBox="0 0 841.9 595.3" style="enable-background:new 0 0 841.9 595.3;" xml:space="preserve">
<style type="text/css">
	.st0{fill:#F7A584;}
	.st1{fill:#0B2C48;}
	.st2{fill:#E36A41;}
	.st3{fill:#008162;}
	.st4{fill:#6DB8DE;}
	.st5{fill:#2782AB;}
	.st6{fill:#EA8723;}
	.st7{fill:#51646F;}
	.st8{clip-path:url(#SVGID_2_);}
	.st9{fill:#E87F72;}
	.st10{fill:#F18C80;}
	.st11{fill:#F7B1AD;}
	.st12{fill:#F0CA4A;}
	.st13{fill:#E83837;}
	.st14{fill:#55A896;}
	.st15{clip-path:url(#SVGID_4_);}
	.st16{fill:#833B23;}
	.st17{fill:#FFFFFF;}
	.st18{fill:#553030;}
	.st19{clip-path:url(#SVGID_6_);}
	.st20{clip-path:url(#SVGID_8_);}
	.st21{clip-path:url(#SVGID_10_);}
	.st22{fill:#B8BEC2;}
	.st23{clip-path:url(#SVGID_12_);}
	.st24{fill:#F58F63;}
	.st25{clip-path:url(#SVGID_14_);}
	.st26{clip-path:url(#SVGID_16_);}
	.st27{clip-path:url(#SVGID_18_);}
	.st28{clip-path:url(#SVGID_20_);}
	.st29{clip-path:url(#SVGID_22_);}
	.st30{clip-path:url(#SVGID_24_);}
	.st31{fill:#641B1B;}
	.st32{clip-path:url(#SVGID_26_);}
	.st33{clip-path:url(#SVGID_28_);}
	.st34{clip-path:url(#SVGID_30_);}
	.st35{fill:#BA4A27;}
	.st36{clip-path:url(#SVGID_32_);}
	.st37{clip-path:url(#SVGID_34_);}
	.st38{clip-path:url(#SVGID_36_);}
	.st39{clip-path:url(#SVGID_38_);}
	.st40{fill:#F59D6D;}
	.st41{clip-path:url(#SVGID_40_);}
	.st42{clip-path:url(#SVGID_42_);}
	.st43{clip-path:url(#SVGID_44_);}
	.st44{clip-path:url(#SVGID_46_);}
	.st45{clip-path:url(#SVGID_48_);}
	.st46{clip-path:url(#SVGID_50_);}
	.st47{clip-path:url(#SVGID_52_);}
	.st48{fill:#EEC84C;}
	.st49{clip-path:url(#SVGID_54_);}
	.st50{clip-path:url(#SVGID_56_);}
	.st51{clip-path:url(#SVGID_58_);}
	.st52{clip-path:url(#SVGID_60_);}
	.st53{clip-path:url(#SVGID_62_);}
	.st54{clip-path:url(#SVGID_64_);}
	.st55{clip-path:url(#SVGID_66_);}
	.st56{clip-path:url(#SVGID_68_);}
	.st57{clip-path:url(#SVGID_70_);}
	.st58{clip-path:url(#SVGID_72_);}
	.st59{clip-path:url(#SVGID_74_);}
	.st60{clip-path:url(#SVGID_76_);}
	.st61{clip-path:url(#SVGID_78_);}
	.st62{clip-path:url(#SVGID_80_);}
	.st63{clip-path:url(#SVGID_82_);}
	.st64{clip-path:url(#SVGID_84_);}
	.st65{clip-path:url(#SVGID_86_);}
	.st66{clip-path:url(#SVGID_88_);}
	.st67{clip-path:url(#SVGID_90_);}
	.st68{clip-path:url(#SVGID_92_);}
	.st69{clip-path:url(#SVGID_94_);}
	.st70{clip-path:url(#SVGID_96_);}
	.st71{clip-path:url(#SVGID_98_);}
	.st72{clip-path:url(#SVGID_100_);fill:#55A896;}
	.st73{clip-path:url(#SVGID_100_);fill:#BA4A27;}
	.st74{clip-path:url(#SVGID_100_);}
	.st75{clip-path:url(#SVGID_100_);fill:#0B2C48;}
	.st76{clip-path:url(#SVGID_102_);}
	.st77{clip-path:url(#SVGID_104_);}
	.st78{clip-path:url(#SVGID_106_);}
	.st79{clip-path:url(#SVGID_108_);}
	.st80{clip-path:url(#SVGID_110_);}
	.st81{clip-path:url(#SVGID_112_);}
	.st82{clip-path:url(#SVGID_114_);}
	.st83{clip-path:url(#SVGID_114_);fill:none;}
	.st84{clip-path:url(#SVGID_116_);}
	.st85{clip-path:url(#SVGID_118_);}
	.st86{clip-path:url(#SVGID_120_);}
	.st87{clip-path:url(#SVGID_122_);}
	.st88{clip-path:url(#SVGID_124_);}
	.st89{clip-path:url(#SVGID_126_);}
	.st90{clip-path:url(#SVGID_128_);}
	.st91{clip-path:url(#SVGID_130_);}
	.st92{clip-path:url(#SVGID_132_);}
	.st93{clip-path:url(#SVGID_134_);}
	.st94{clip-path:url(#SVGID_136_);}
	.st95{clip-path:url(#SVGID_138_);}
	.st96{clip-path:url(#SVGID_140_);}
	.st97{clip-path:url(#SVGID_142_);}
	.st98{clip-path:url(#SVGID_144_);}
	.st99{clip-path:url(#SVGID_146_);}
	.st100{clip-path:url(#SVGID_148_);}
	.st101{clip-path:url(#SVGID_150_);}
	.st102{clip-path:url(#SVGID_152_);}
	.st103{clip-path:url(#SVGID_154_);}
	.st104{clip-path:url(#SVGID_156_);}
	.st105{clip-path:url(#SVGID_158_);}
	.st106{clip-path:url(#SVGID_160_);}
	.st107{clip-path:url(#SVGID_162_);}
	.st108{clip-path:url(#SVGID_164_);}
	.st109{clip-path:url(#SVGID_166_);}
	.st110{clip-path:url(#SVGID_168_);}
	.st111{clip-path:url(#SVGID_170_);}
	.st112{clip-path:url(#SVGID_172_);}
	.st113{clip-path:url(#SVGID_174_);}
	.st114{clip-path:url(#SVGID_176_);}
	.st115{clip-path:url(#SVGID_178_);}
	.st116{clip-path:url(#SVGID_180_);}
	.st117{clip-path:url(#SVGID_182_);}
	.st118{clip-path:url(#SVGID_184_);}
	.st119{clip-path:url(#SVGID_186_);}
	.st120{clip-path:url(#SVGID_188_);}
	.st121{clip-path:url(#SVGID_190_);}
	.st122{clip-path:url(#SVGID_192_);}
	.st123{clip-path:url(#SVGID_194_);}
	.st124{clip-path:url(#SVGID_196_);}
	.st125{clip-path:url(#SVGID_198_);}
	.st126{clip-path:url(#SVGID_200_);}
	.st127{clip-path:url(#SVGID_202_);fill:#55A896;}
	.st128{clip-path:url(#SVGID_202_);fill:#BA4A27;}
	.st129{clip-path:url(#SVGID_202_);}
	.st130{clip-path:url(#SVGID_202_);fill:#E36A41;}
	.st131{clip-path:url(#SVGID_204_);}
	.st132{clip-path:url(#SVGID_206_);}
	.st133{clip-path:url(#SVGID_208_);}
	.st134{clip-path:url(#SVGID_210_);}
	.st135{clip-path:url(#SVGID_212_);}
	.st136{clip-path:url(#SVGID_214_);}
	.st137{clip-path:url(#SVGID_216_);}
	.st138{clip-path:url(#SVGID_216_);fill:none;}
	.st139{clip-path:url(#SVGID_218_);}
	.st140{clip-path:url(#SVGID_220_);}
	.st141{clip-path:url(#SVGID_222_);}
	.st142{clip-path:url(#SVGID_224_);}
	.st143{clip-path:url(#SVGID_226_);}
	.st144{clip-path:url(#SVGID_228_);}
	.st145{clip-path:url(#SVGID_230_);}
	.st146{clip-path:url(#SVGID_232_);}
	.st147{clip-path:url(#SVGID_234_);}
	.st148{clip-path:url(#SVGID_236_);}
	.st149{clip-path:url(#SVGID_238_);}
	.st150{clip-path:url(#SVGID_240_);}
	.st151{clip-path:url(#SVGID_242_);}
	.st152{clip-path:url(#SVGID_244_);}
	.st153{clip-path:url(#SVGID_246_);}
	.st154{clip-path:url(#SVGID_248_);}
	.st155{clip-path:url(#SVGID_250_);}
	.st156{clip-path:url(#SVGID_252_);}
	.st157{clip-path:url(#SVGID_254_);}
	.st158{clip-path:url(#SVGID_256_);}
	.st159{clip-path:url(#SVGID_258_);}
	.st160{clip-path:url(#SVGID_260_);}
	.st161{clip-path:url(#SVGID_262_);}
	.st162{clip-path:url(#SVGID_264_);}
	.st163{fill:#FCA886;}
</style>

<g>
	<circle class="st0" cx="204" cy="237.3" r="22"/>
	<circle class="st0" cx="251.9" cy="237.3" r="22"/>
	<circle class="st0" cx="299.9" cy="237.3" r="22"/>
	<circle class="st0" cx="347.8" cy="237.3" r="22"/>
	<circle class="st0" cx="395.8" cy="237.3" r="22"/>
	<g>

	</g>
	<g>
		<g>
			<ellipse class="st1" cx="244" cy="234.2" rx="2.2" ry="2.2"/>
			<ellipse class="st1" cx="258.6" cy="234.2" rx="2.2" ry="2.2"/>
		</g>
		<g>
			<g>
				<path class="st16" d="M239.8,231.1c2.2-1.1,4.7-1.5,7.1-1.5c2.2,0.1,2.2-3.4,0-3.5c-3.1-0.1-6.1,0.5-8.9,1.9
					C236.1,229.1,237.8,232.1,239.8,231.1L239.8,231.1z"/>
			</g>
			<g>
				<path class="st16" d="M262.8,231.1c-2.2-1.1-4.7-1.5-7.1-1.5c-2.2,0.1-2.2-3.4,0-3.5c3.1-0.1,6.1,0.5,8.9,1.9
					C266.6,229.1,264.8,232.1,262.8,231.1L262.8,231.1z"/>
			</g>
		</g>
		<path class="st7" d="M260.6,247.6c0,0.7-0.6,1.3-1.3,1.3h-12.9c-0.7,0-1.3-0.6-1.3-1.3l0,0c0-0.7,0.6-1.3,1.3-1.3h12.9
			C260,246.3,260.6,246.9,260.6,247.6L260.6,247.6z"/>
	</g>
	<g>
		<g>
			<ellipse class="st1" cx="293.6" cy="230.4" rx="2.2" ry="2.2"/>
			<ellipse class="st1" cx="308.2" cy="230.4" rx="2.2" ry="2.2"/>
		</g>
		<g>
			<path class="st2" d="M294.4,241.5c-0.4,0-0.6-0.1-0.9-0.3c-0.2,0.5-0.2,1.1-0.2,1.6c0,3.1,2.5,5.6,5.6,5.6c3.1,0,5.6-2.5,5.6-5.6
				c0-0.5-0.1-0.9-0.2-1.3H294.4z"/>
			<path class="st1" d="M291,238.7c0.9,4.2,4,7.3,7.8,7.3c3.8,0,7-3.1,7.8-7.3c-1.7,1.6-4.6,2.6-7.8,2.6
				C295.6,241.3,292.7,240.3,291,238.7z"/>
		</g>
		<g>
			<g>
				<path class="st2" d="M287.3,226.1c2.3-0.4,4.6-0.7,7-1.1c1.3-0.2,0.7-2.1-0.5-1.9c-2.3,0.4-4.6,0.7-7,1.1
					C285.5,224.3,286,226.3,287.3,226.1L287.3,226.1z"/>
			</g>
			<g>
				<path class="st2" d="M310.4,226.1c-2.3-0.4-4.6-0.7-7-1.1c-1.3-0.2-0.7-2.1,0.5-1.9c2.3,0.4,4.6,0.7,7,1.1
					C312.2,224.3,311.7,226.3,310.4,226.1L310.4,226.1z"/>
			</g>
		</g>
	</g>
	<g>
		<ellipse class="st1" cx="339.9" cy="232.2" rx="2.2" ry="2.2"/>
		<ellipse class="st1" cx="354.5" cy="232.2" rx="2.2" ry="2.2"/>
	</g>
	<g>
		<g>
			<path class="st1" d="M336.2,227.3c1.5-1.3,3.5-1.8,5.4-1.2c1.7,0.5,2.4-2.1,0.7-2.6c-2.8-0.8-5.8-0.1-8,1.9
				C333.1,226.6,335,228.5,336.2,227.3L336.2,227.3z"/>
		</g>
		<g>
			<path class="st1" d="M360,225.4c-2.2-2-5.1-2.7-8-1.9c-1.7,0.5-1,3.1,0.7,2.6c1.9-0.5,3.9-0.1,5.4,1.2
				C359.4,228.5,361.3,226.6,360,225.4L360,225.4z"/>
		</g>
	</g>
	<ellipse class="st13" cx="347.2" cy="244" rx="4.5" ry="3.5"/>
	<ellipse class="st13" cx="347.2" cy="247.4" rx="6.7" ry="4.5"/>
	<g>
		<path class="st17" d="M351.8,242.6c-2.5,2.3-6.8,2.3-9.2,0c-1.8-1.7-4.4,1-2.6,2.7c4,3.8,10.5,3.8,14.5,0
			C356.2,243.6,353.6,240.9,351.8,242.6L351.8,242.6z"/>
	</g>
	<g>
		<ellipse class="st1" cx="390.5" cy="231.4" rx="2.2" ry="2.2"/>
		<ellipse class="st1" cx="405.1" cy="231.4" rx="2.2" ry="2.2"/>
	</g>
	<g>
		<path class="st17" d="M400.4,243.7c-2.5,2.3-6.7,2.3-9.2,0c-1.7-1.7-4.4,1-2.6,2.7c4,3.8,10.5,3.8,14.5,0
			C404.7,244.7,402.1,242.1,400.4,243.7L400.4,243.7z"/>
	</g>
	<g>
		<g>
			<path class="st10" d="M384.3,227.2c2.2-1.1,4.7-1.5,7.1-1.5c2.2,0.1,2.2-3.4,0-3.5c-3.1-0.1-6.1,0.5-8.9,1.9
				C380.5,225.2,382.3,228.2,384.3,227.2L384.3,227.2z"/>
		</g>
		<g>
			<path class="st10" d="M407.3,227.2c-2.2-1.1-4.7-1.5-7.1-1.5c-2.2,0.1-2.2-3.4,0-3.5c3.1-0.1,6.1,0.5,8.9,1.9
				C411,225.2,409.2,228.2,407.3,227.2L407.3,227.2z"/>
		</g>
	</g>
	<circle class="st0" cx="204" cy="185" r="22"/>
	<circle class="st0" cx="251.9" cy="185" r="22"/>
	<circle class="st0" cx="299.9" cy="185" r="22"/>
	<g>
		<ellipse class="st1" cx="196.9" cy="180.2" rx="2.2" ry="2.2"/>
		<ellipse class="st1" cx="211.4" cy="180.2" rx="2.2" ry="2.2"/>
	</g>
	<g>
		<path class="st1" d="M196.1,190.3c0.1,5.1,3.7,9.3,8,9.3c4.4,0,7.9-4.1,8-9.3c-2.2,1.2-5,1.9-8,1.9
			C201.1,192.3,198.3,191.5,196.1,190.3z"/>
		<path class="st17" d="M199.6,195.2h9c0.8,0,1.4-0.6,1.4-1.4v-2.6c-1.8,0.6-3.8,1-5.9,1c-2.1,0-4.1-0.4-5.9-1v2.6
			C198.2,194.6,198.9,195.2,199.6,195.2z"/>
	</g>
	<g>
		<g>
			<path class="st18" d="M192,176.6c2.2-0.5,4.5-0.9,6.7-1.4c1.7-0.4,1-3.1-0.7-2.7c-2.2,0.5-4.5,0.9-6.7,1.4
				C189.5,174.2,190.3,176.9,192,176.6L192,176.6z"/>
		</g>
		<g>
			<path class="st18" d="M217,173.9c-2.2-0.5-4.5-0.9-6.7-1.4c-1.7-0.4-2.5,2.3-0.7,2.7c2.2,0.5,4.5,0.9,6.7,1.4
				C218,176.9,218.7,174.2,217,173.9L217,173.9z"/>
		</g>
	</g>
	<g>
		<g>
			<ellipse class="st18" cx="243.5" cy="182" rx="2.2" ry="2.2"/>
			<ellipse class="st18" cx="258.1" cy="182" rx="2.2" ry="2.2"/>
		</g>
		<g>
			<g>
				<path class="st2" d="M257.3,191.7c-2.7,4.3-10.3,4.3-13,0c-0.7-1.1-2.4-0.1-1.7,1c3.5,5.6,13,5.6,16.4,0
					C259.7,191.6,258,190.6,257.3,191.7L257.3,191.7z"/>
			</g>
			<path class="st2" d="M256.2,195.4c0,1.3-1.1,2.4-2.4,2.4h-6.1c-1.3,0-2.4-1.1-2.4-2.4l0,0c0-1.3,1.1-2.4,2.4-2.4h6.1
				C255.2,193,256.2,194.1,256.2,195.4L256.2,195.4z"/>
		</g>
		<g>
			<g>
				<path class="st2" d="M238.8,178.2c1.8-2,4.3-2.8,6.8-2.9c1.3,0,1.3-2,0-2c-3.1,0-6.1,1.1-8.3,3.5
					C236.6,177.7,238,179.2,238.8,178.2L238.8,178.2z"/>
			</g>
			<g>
				<path class="st2" d="M264.2,176.8c-2.1-2.3-5.2-3.4-8.3-3.5c-1.3,0-1.3,2,0,2c2.6,0,5.1,0.9,6.8,2.9
					C263.6,179.2,265,177.7,264.2,176.8L264.2,176.8z"/>
			</g>
		</g>
	</g>
	<g>
		<ellipse class="st1" cx="292.4" cy="179" rx="2.2" ry="2.2"/>
		<ellipse class="st1" cx="307" cy="179" rx="2.2" ry="2.2"/>
	</g>
	<path class="st1" d="M291.6,189.2c0.1,5.1,3.7,9.3,8.1,9.3c4.4,0,7.9-4.1,8.1-9.3c-2.2,1.2-5,1.9-8.1,1.9S293.9,190.4,291.6,189.2z
		"/>
	<g>
		<g>
			<path class="st2" d="M288.8,174.2c1.5-1.3,3.5-1.8,5.3-1.2c1.7,0.5,2.4-2.1,0.7-2.6c-2.8-0.8-5.8-0.1-7.9,1.9
				C285.6,173.5,287.5,175.4,288.8,174.2L288.8,174.2z"/>
		</g>
		<g>
			<path class="st2" d="M312.5,172.3c-2.2-2-5.1-2.7-7.9-1.9c-1.7,0.5-1,3.1,0.7,2.6c1.9-0.5,3.9-0.1,5.3,1.2
				C311.9,175.4,313.8,173.5,312.5,172.3L312.5,172.3z"/>
		</g>
	</g>
	<circle class="st0" cx="347.8" cy="185" r="22"/>
	<g>
		<g>
			<ellipse class="st18" cx="340" cy="180.8" rx="2.2" ry="2.2"/>
			<ellipse class="st18" cx="354.6" cy="180.8" rx="2.2" ry="2.2"/>
		</g>
		<g>
			<g>
				<path class="st13" d="M353.8,190.4c-2.7,4.3-10.3,4.3-13,0c-0.7-1.1-2.4-0.1-1.7,1c3.5,5.6,13,5.6,16.5,0
					C356.3,190.3,354.5,189.3,353.8,190.4L353.8,190.4z"/>
			</g>
			<path class="st13" d="M352.8,194.1c0,1.3-1.1,2.4-2.4,2.4h-6.2c-1.3,0-2.4-1.1-2.4-2.4l0,0c0-1.3,1.1-2.4,2.4-2.4h6.2
				C351.7,191.7,352.8,192.8,352.8,194.1L352.8,194.1z"/>
		</g>
		<g>
			<g>
				<path class="st2" d="M335.3,176.9c1.8-2,4.3-2.8,6.9-2.9c1.3,0,1.3-2,0-2c-3.1,0-6.2,1.1-8.3,3.5
					C333.1,176.4,334.5,177.9,335.3,176.9L335.3,176.9z"/>
			</g>
			<g>
				<path class="st2" d="M360.7,175.5c-2.1-2.3-5.2-3.4-8.3-3.5c-1.3,0-1.3,2,0,2c2.6,0,5.1,0.9,6.9,2.9
					C360.2,177.9,361.6,176.4,360.7,175.5L360.7,175.5z"/>
			</g>
		</g>
	</g>
	<circle class="st0" cx="395.8" cy="185" r="22"/>
	<g>
		<ellipse class="st7" cx="388.9" cy="180.4" rx="2.2" ry="2.2"/>
		<ellipse class="st7" cx="403.5" cy="180.4" rx="2.2" ry="2.2"/>
	</g>
	<g>
		<path class="st13" d="M401,190.4c-2.7,4.3-10.3,4.3-13,0c-0.7-1.1-2.4-0.1-1.7,1c3.5,5.6,12.9,5.6,16.4,0
			C403.4,190.3,401.7,189.3,401,190.4L401,190.4z"/>
	</g>
	<g>
		<g>
			<path class="st2" d="M383.7,174.7c2,0.3,4-0.4,5.6-1.7c0.8-0.6,1.8,0.6,1,1.2c-1.9,1.5-4.3,2.4-6.7,2
				C382.5,176.2,382.7,174.6,383.7,174.7L383.7,174.7z"/>
		</g>
		<g>
			<path class="st2" d="M405.3,174.7c-2,0.3-4-0.4-5.6-1.7c-0.8-0.6-1.8,0.6-1,1.2c1.9,1.5,4.3,2.4,6.7,2
				C406.5,176.2,406.3,174.6,405.3,174.7L405.3,174.7z"/>
		</g>
	</g>
	<circle class="st0" cx="204" cy="289.6" r="22"/>
	<circle class="st0" cx="251.9" cy="289.6" r="22"/>
	<circle class="st0" cx="299.9" cy="289.6" r="22"/>
	<circle class="st0" cx="347.8" cy="289.6" r="22"/>
	<circle class="st0" cx="395.8" cy="289.6" r="22"/>
	<g>
		<g>
			<ellipse class="st1" cx="197.7" cy="286" rx="2.2" ry="2.2"/>
			<ellipse class="st1" cx="212.2" cy="286" rx="2.2" ry="2.2"/>
		</g>
		<g>
			<g>
				<path class="st7" d="M194.1,281.2c1.5-1.3,3.4-1.8,5.3-1.2c1.7,0.5,2.4-2.1,0.7-2.6c-2.8-0.8-5.8-0.1-7.9,1.9
					C190.9,280.4,192.8,282.3,194.1,281.2L194.1,281.2z"/>
			</g>
			<g>
				<path class="st7" d="M217.7,279.3c-2.2-2-5.1-2.7-7.9-1.9c-1.6,0.5-0.9,3.1,0.7,2.6c1.9-0.5,3.9-0.1,5.3,1.2
					C217.1,282.3,219,280.4,217.7,279.3L217.7,279.3z"/>
			</g>
		</g>
		<g>
			<ellipse class="st2" cx="204.9" cy="297.2" rx="6.2" ry="4.4"/>
			<ellipse class="st2" cx="204.9" cy="300.4" rx="6.2" ry="5.4"/>
			<g>
				<path class="st1" d="M197.3,294.7c0.1,4.8,3.5,8.6,7.6,8.6c4.1,0,7.5-3.8,7.6-8.6c-2.1,1.1-4.7,1.8-7.6,1.8
					C202.1,296.5,199.5,295.8,197.3,294.7z"/>
				<path class="st17" d="M200.7,299.3h8.5c0.7,0,1.3-0.6,1.3-1.3v-2.4c-1.7,0.6-3.6,0.9-5.6,0.9c-2,0-3.9-0.3-5.6-0.9v2.4
					C199.4,298.7,200,299.3,200.7,299.3z"/>
			</g>
		</g>
	</g>
	<g>
		<g>
			<ellipse class="st1" cx="245.2" cy="286.1" rx="2.2" ry="2.2"/>
			<ellipse class="st1" cx="259.8" cy="286.1" rx="2.2" ry="2.2"/>
		</g>
		<g>
			<g>
				<path class="st17" d="M240.6,282.3c1.8-2,4.3-2.8,6.8-2.9c1.3,0,1.3-2,0-2c-3.1,0-6.1,1.1-8.3,3.5
					C238.3,281.8,239.7,283.2,240.6,282.3L240.6,282.3z"/>
			</g>
			<g>
				<path class="st17" d="M265.9,280.9c-2.1-2.3-5.2-3.4-8.3-3.5c-1.3,0-1.3,2,0,2c2.6,0,5.1,0.9,6.8,2.9
					C265.3,283.2,266.8,281.8,265.9,280.9L265.9,280.9z"/>
			</g>
		</g>
		<path class="st2" d="M247.7,298.2c-0.1,0-0.2,0-0.3,0c-0.3,0.7-0.4,1.4-0.4,2.2c0,3.1,2.5,5.6,5.6,5.6s5.6-2.5,5.6-5.6
			c0-0.8-0.1-1.5-0.4-2.1H247.7z"/>
		<ellipse class="st2" cx="252.5" cy="299.3" rx="6.3" ry="3.2"/>
		<path class="st1" d="M244.7,296.1c0.9,4.2,4,7.3,7.8,7.3s7-3.1,7.8-7.3c-1.7,1.6-4.6,2.6-7.8,2.6
			C249.3,298.7,246.4,297.7,244.7,296.1z"/>
	</g>
	<g>
		<ellipse class="st1" cx="292.5" cy="288.3" rx="2.2" ry="2.2"/>
		<ellipse class="st1" cx="307.2" cy="288.3" rx="2.2" ry="2.2"/>
	</g>
	<g>
		<g>
			<path class="st16" d="M288.3,279.2c2.2-1.1,4.7-1.5,7.1-1.5c2.2,0.1,2.2-3.4,0-3.5c-3.1-0.1-6.1,0.5-8.9,1.9
				C284.6,277.1,286.3,280.2,288.3,279.2L288.3,279.2z"/>
		</g>
		<g>
			<path class="st16" d="M311.4,279.2c-2.2-1.1-4.7-1.5-7.1-1.5c-2.2,0.1-2.2-3.4,0-3.5c3.1-0.1,6.1,0.5,8.9,1.9
				C315.1,277.1,313.4,280.2,311.4,279.2L311.4,279.2z"/>
		</g>
	</g>
	<path class="st16" d="M308,299.9c-2-3.4-4.9-5.5-8.1-5.5c-3.3,0-6.2,2.2-8.1,5.5H308z"/>
	<g>
		<path class="st7" d="M310.4,277.3c-4.2,0-7.8,3.2-8.4,7.3h-4.3c-0.6-4.1-4.1-7.3-8.4-7.3c-4.7,0-8.5,3.8-8.5,8.5
			c0,4.7,3.8,8.5,8.5,8.5c4.2,0,7.8-3.2,8.4-7.3h4.3c0.6,4.1,4.1,7.3,8.4,7.3c4.7,0,8.5-3.8,8.5-8.5
			C318.8,281.1,315,277.3,310.4,277.3z M289.4,291.8c-3.3,0-6-2.7-6-6c0-3.3,2.7-6,6-6c3.3,0,6,2.7,6,6
			C295.4,289.1,292.7,291.8,289.4,291.8z M310.4,291.8c-3.3,0-6-2.7-6-6c0-3.3,2.7-6,6-6c3.3,0,6,2.7,6,6
			C316.3,289.1,313.7,291.8,310.4,291.8z"/>
	</g>
	<path class="st1" d="M292,299.3c0.9,4.2,4,7.3,7.8,7.3c3.8,0,7-3.1,7.8-7.3c-1.7,1.6-4.6,2.6-7.8,2.6
		C296.6,301.9,293.7,300.9,292,299.3z"/>
	<g>
		<g>
			
				<ellipse transform="matrix(1 -6.857171e-03 6.857171e-03 1 -1.9604 2.3517)" class="st1" cx="342" cy="287.1" rx="2.2" ry="2.2"/>
			
				<ellipse transform="matrix(1 -6.852449e-03 6.852449e-03 1 -1.9581 2.4503)" class="st1" cx="356.6" cy="287" rx="2.2" ry="2.2"/>
		</g>
		<g>
			<path class="st1" d="M341.3,297.2c0.2,5.1,3.8,9.2,8.1,9.2c4.4,0,7.9-4.2,8-9.3c-2.2,1.2-5,2-8.1,2
				C346.3,299.1,343.5,298.4,341.3,297.2z"/>
			<path class="st17" d="M344.9,302.1l9.1-0.1c0.8,0,1.4-0.6,1.4-1.4l0-2.6c-1.8,0.6-3.8,1-5.9,1c-2.1,0-4.1-0.3-5.9-0.9l0,2.6
				C343.5,301.5,344.1,302.1,344.9,302.1z"/>
		</g>
		<g>
			<g>
				<path class="st18" d="M337.1,283.4c2.2-0.5,4.5-1,6.7-1.4c1.8-0.4,1-3.1-0.8-2.7c-2.2,0.5-4.5,1-6.7,1.4
					C334.6,281.1,335.3,283.8,337.1,283.4L337.1,283.4z"/>
			</g>
			<g>
				<path class="st18" d="M362.2,280.6c-2.2-0.5-4.5-0.9-6.7-1.4c-1.8-0.4-2.5,2.3-0.7,2.7c2.2,0.5,4.5,0.9,6.7,1.4
					C363.2,283.6,363.9,280.9,362.2,280.6L362.2,280.6z"/>
			</g>
		</g>
	</g>
	<g>
		<g>
			<ellipse class="st1" cx="388.5" cy="287.3" rx="2.2" ry="2.2"/>
			<ellipse class="st1" cx="403" cy="287.3" rx="2.2" ry="2.2"/>
		</g>
		<g>
			<g>
				<path class="st16" d="M383.8,283.4c1.8-2,4.2-2.8,6.8-2.9c1.3,0,1.3-2,0-2c-3.1,0-6.1,1.1-8.2,3.5
					C381.5,283,383,284.4,383.8,283.4L383.8,283.4z"/>
			</g>
			<g>
				<path class="st16" d="M409.1,282c-2.1-2.3-5.2-3.4-8.2-3.5c-1.3,0-1.3,2,0,2c2.6,0,5.1,0.9,6.8,2.9
					C408.6,284.4,410,283,409.1,282L409.1,282z"/>
			</g>
		</g>
		<path class="st13" d="M390.9,299.3c-0.1,0-0.2,0-0.3,0c-0.3,0.7-0.4,1.4-0.4,2.2c0,3.1,2.5,5.6,5.6,5.6c3.1,0,5.6-2.5,5.6-5.6
			c0-0.8-0.1-1.5-0.4-2.1H390.9z"/>
		<ellipse class="st13" cx="395.8" cy="300.5" rx="6.3" ry="3.2"/>
		<path class="st1" d="M387.9,297.3c0.9,4.2,4,7.3,7.8,7.3c3.8,0,7-3.1,7.8-7.3c-1.7,1.6-4.6,2.6-7.8,2.6
			C392.5,299.9,389.6,298.9,387.9,297.3z"/>
	</g>
	<circle class="st0" cx="204" cy="341.9" r="22"/>
	<circle class="st0" cx="251.9" cy="341.9" r="22"/>
	<circle class="st0" cx="299.9" cy="341.9" r="22"/>
	<circle class="st0" cx="347.8" cy="341.9" r="22"/>
	<circle class="st0" cx="395.8" cy="341.9" r="22"/>
	<g>
		<g>
			<ellipse class="st1" cx="196.5" cy="334.9" rx="2.2" ry="2.2"/>
			<ellipse class="st1" cx="211.1" cy="334.9" rx="2.2" ry="2.2"/>
		</g>
		<g>
			<g>
				<path class="st17" d="M192.3,325.8c2.2-1.1,4.7-1.5,7.1-1.5c2.2,0.1,2.2-3.4,0-3.5c-3.1-0.1-6.1,0.5-8.8,1.9
					C188.6,323.8,190.3,326.8,192.3,325.8L192.3,325.8z"/>
			</g>
			<g>
				<path class="st17" d="M215.3,325.8c-2.2-1.1-4.7-1.5-7.1-1.5c-2.2,0.1-2.2-3.4,0-3.5c3.1-0.1,6.1,0.5,8.8,1.9
					C219,323.8,217.3,326.8,215.3,325.8L215.3,325.8z"/>
			</g>
		</g>
		<g>
			<g>
				<path class="st1" d="M196.2,343.1c0.1,4.8,3.5,8.6,7.6,8.6c4.1,0,7.5-3.8,7.6-8.6c-2.1,1.1-4.7,1.8-7.6,1.8
					C201,344.9,198.3,344.2,196.2,343.1z"/>
			</g>
		</g>
	</g>
	<g>

	</g>
	<g>
		<g>
			<g>
				<path class="st17" d="M245.4,348c0.1,4.2,3.1,7.5,6.7,7.5c3.6,0,6.5-3.3,6.7-7.5c-1.9,1-4.2,1.6-6.7,1.6
					C249.6,349.6,247.3,349,245.4,348z"/>
			</g>
		</g>
		<g>
			<ellipse class="st1" cx="244.8" cy="334" rx="2.2" ry="2.2"/>
			<ellipse class="st1" cx="259.4" cy="334" rx="2.2" ry="2.2"/>
		</g>
		<g>
			<g>
				<path class="st16" d="M240.6,330.9c2.2-1.1,4.7-1.5,7.1-1.5c2.2,0.1,2.2-3.4,0-3.5c-3.1-0.1-6.1,0.5-8.9,1.9
					C236.8,328.9,238.6,331.9,240.6,330.9L240.6,330.9z"/>
			</g>
			<g>
				<path class="st16" d="M263.6,330.9c-2.2-1.1-4.7-1.5-7.1-1.5c-2.2,0.1-2.2-3.4,0-3.5c3.1-0.1,6.1,0.5,8.9,1.9
					C267.3,328.9,265.6,331.9,263.6,330.9L263.6,330.9z"/>
			</g>
		</g>
	</g>
	<g>
		<ellipse class="st1" cx="292.1" cy="336" rx="2.2" ry="2.2"/>
		<ellipse class="st1" cx="306.7" cy="336" rx="2.2" ry="2.2"/>
	</g>
	<g>
		<ellipse class="st2" cx="299.4" cy="350.4" rx="6.2" ry="5.4"/>
		<g>
			<path class="st1" d="M291.8,344.7c0.1,4.8,3.5,8.6,7.6,8.6c4.1,0,7.5-3.8,7.6-8.6c-2.1,1.1-4.8,1.8-7.6,1.8
				C296.6,346.5,293.9,345.8,291.8,344.7z"/>
			<path class="st17" d="M295.2,349.2h8.5c0.7,0,1.3-0.6,1.3-1.3v-2.4c-1.7,0.6-3.6,0.9-5.6,0.9c-2,0-3.9-0.3-5.6-0.9v2.4
				C293.8,348.6,294.4,349.2,295.2,349.2z"/>
		</g>
	</g>
	<g>
		<ellipse class="st1" cx="340.5" cy="337.2" rx="2.2" ry="2.2"/>
		<ellipse class="st1" cx="355.1" cy="337.2" rx="2.2" ry="2.2"/>
	</g>
	<g>
		<g>
			<path class="st16" d="M336.3,332.1c2.2-1.1,4.7-1.5,7.1-1.5c2.2,0.1,2.2-3.4,0-3.5c-3.1-0.1-6.1,0.5-8.9,1.9
				C332.5,330.1,334.3,333.1,336.3,332.1L336.3,332.1z"/>
		</g>
		<g>
			<path class="st16" d="M359.4,332.1c-2.2-1.1-4.7-1.5-7.1-1.5c-2.2,0.1-2.2-3.4,0-3.5c3.1-0.1,6.1,0.5,8.9,1.9
				C363.1,330.1,361.3,333.1,359.4,332.1L359.4,332.1z"/>
		</g>
	</g>
	<path class="st17" d="M341,349.7c1.4,2.7,4,4.5,6.8,4.5c2.9,0,5.4-1.8,6.8-4.5H341z"/>
	<path class="st16" d="M355.9,349.9c-2-4-4.9-6.5-8.1-6.5c-3.3,0-6.2,2.5-8.1,6.5H355.9z"/>
	<g>
		<g>
			<ellipse class="st1" cx="388.5" cy="334.4" rx="2.2" ry="2.2"/>
			<ellipse class="st1" cx="403" cy="334.4" rx="2.2" ry="2.2"/>
		</g>
		<g>
			<g>
				<path class="st10" d="M384.3,331.4c2.2-1.1,4.7-1.5,7.1-1.5c2.2,0.1,2.2-3.4,0-3.5c-3.1-0.1-6.1,0.5-8.9,1.9
					C380.5,329.4,382.3,332.4,384.3,331.4L384.3,331.4z"/>
			</g>
			<g>
				<path class="st10" d="M407.3,331.4c-2.2-1.1-4.7-1.5-7.1-1.5c-2.2,0.1-2.2-3.4,0-3.5c3.1-0.1,6.1,0.5,8.9,1.9
					C411,329.4,409.2,332.4,407.3,331.4L407.3,331.4z"/>
			</g>
		</g>
		<g>
			<path class="st10" d="M390.9,347.7c-0.4,0-0.7-0.1-1-0.3c-0.2,0.6-0.3,1.2-0.3,1.8c0,3.4,2.8,6.1,6.2,6.1c3.4,0,6.2-2.7,6.2-6.1
				c0-0.5-0.1-1-0.2-1.5H390.9z"/>
			<path class="st17" d="M387.9,345c0.9,4.2,4,7.3,7.8,7.3c3.8,0,7-3.1,7.8-7.3c-1.7,1.6-4.6,2.6-7.8,2.6
				C392.5,347.6,389.6,346.5,387.9,345z"/>
		</g>
	</g>
	<circle class="st0" cx="204.3" cy="395" r="22"/>
	<circle class="st0" cx="252.3" cy="395" r="22"/>
	<circle class="st0" cx="300.2" cy="395" r="22"/>
	<circle class="st0" cx="348.2" cy="395" r="22"/>
	<circle class="st0" cx="396.1" cy="395" r="22"/>
	<g>
		<g>
			<ellipse class="st1" cx="241.7" cy="395.1" rx="2.2" ry="2.2"/>
			<ellipse class="st1" cx="256.2" cy="395.1" rx="2.2" ry="2.2"/>
		</g>
		<g>
			<g>
				<path class="st13" d="M242.3,407.1c-0.1,0-0.2,0-0.3,0c-0.3,0.7-0.4,1.4-0.4,2.2c0,3.1,2.5,5.6,5.5,5.6c3.1,0,5.5-2.5,5.5-5.6
					c0-0.8-0.1-1.5-0.4-2.1H242.3z"/>
				<ellipse class="st13" cx="247.1" cy="408.3" rx="6.3" ry="3.2"/>
				<path class="st1" d="M239.3,405.1c0.9,4.2,4,7.3,7.8,7.3c3.8,0,7-3.1,7.8-7.3c-1.7,1.6-4.6,2.6-7.8,2.6
					C243.8,407.7,241,406.7,239.3,405.1z"/>
			</g>
			<g>
				<g>
					<path class="st2" d="M236.3,388.9c2,0.3,4-0.4,5.6-1.7c0.8-0.6,1.8,0.6,1,1.2c-1.9,1.5-4.3,2.4-6.7,2
						C235.2,390.3,235.3,388.7,236.3,388.9L236.3,388.9z"/>
				</g>
				<g>
					<path class="st2" d="M257.9,388.9c-2,0.3-4-0.4-5.6-1.7c-0.8-0.6-1.8,0.6-1,1.2c1.9,1.5,4.3,2.4,6.7,2
						C259,390.3,258.9,388.7,257.9,388.9L257.9,388.9z"/>
				</g>
			</g>
		</g>
	</g>
	<g>
		<g>
			<ellipse class="st1" cx="200.9" cy="392.1" rx="2.2" ry="2.2"/>
			<ellipse class="st1" cx="215.5" cy="392.1" rx="2.2" ry="2.2"/>
		</g>
		<g>
			<path class="st1" d="M200.4,401.9c0,0,0,0.1,0,0.1c0,4.3,3.5,7.8,7.8,7.8c4.3,0,7.8-3.5,7.8-7.8c0,0,0-0.1,0-0.1H200.4z"/>
			<path class="st17" d="M201.7,401.9v0.7c0,1.4,1.1,2.5,2.4,2.5h8c1.3,0,2.4-1.1,2.4-2.5v-0.7H201.7z"/>
		</g>
	</g>
	<g>
		<ellipse class="st1" cx="283.8" cy="394.7" rx="2.2" ry="2.2"/>
		<ellipse class="st1" cx="298.4" cy="394.7" rx="2.2" ry="2.2"/>
	</g>
	<g>
		<g>
			<path class="st16" d="M279.5,385.6c2.2-1.1,4.7-1.5,7.1-1.5c2.2,0.1,2.2-3.4,0-3.5c-3.1-0.1-6.1,0.5-8.9,1.9
				C275.8,383.6,277.5,386.6,279.5,385.6L279.5,385.6z"/>
		</g>
		<g>
			<path class="st16" d="M302.6,385.6c-2.2-1.1-4.7-1.5-7.1-1.5c-2.2,0.1-2.2-3.4,0-3.5c3.1-0.1,6.1,0.5,8.9,1.9
				C306.4,383.6,304.6,386.6,302.6,385.6L302.6,385.6z"/>
		</g>
	</g>
	<g>
		<path class="st3" d="M301.6,383.8c-4.2,0-7.8,3.2-8.4,7.3h-4.3c-0.6-4.1-4.1-7.3-8.4-7.3c-4.7,0-8.5,3.8-8.5,8.5
			c0,4.7,3.8,8.5,8.5,8.5c4.2,0,7.8-3.2,8.4-7.3h4.3c0.6,4.1,4.1,7.3,8.4,7.3c4.7,0,8.5-3.8,8.5-8.5
			C310,387.6,306.2,383.8,301.6,383.8z M280.6,398.3c-3.3,0-6-2.7-6-6c0-3.3,2.7-6,6-6c3.3,0,6,2.7,6,6
			C286.6,395.6,283.9,398.3,280.6,398.3z M301.6,398.3c-3.3,0-6-2.7-6-6c0-3.3,2.7-6,6-6c3.3,0,6,2.7,6,6
			C307.6,395.6,304.9,398.3,301.6,398.3z"/>
	</g>
	<g>
		<ellipse class="st2" cx="291.1" cy="408.6" rx="6.2" ry="5.4"/>
		<g>
			<path class="st1" d="M283.5,402.9c0.1,4.8,3.5,8.6,7.6,8.6c4.1,0,7.5-3.8,7.6-8.6c-2.1,1.1-4.8,1.8-7.6,1.8
				C288.2,404.7,285.6,404,283.5,402.9z"/>
			<path class="st17" d="M286.8,407.4h8.5c0.7,0,1.3-0.6,1.3-1.3v-2.4c-1.7,0.6-3.6,0.9-5.6,0.9c-2,0-3.9-0.3-5.6-0.9v2.4
				C285.5,406.9,286.1,407.4,286.8,407.4z"/>
		</g>
	</g>
	<g>
		<g>
			<ellipse class="st1" cx="345.9" cy="393.5" rx="2.2" ry="2.2"/>
			<ellipse class="st1" cx="360.6" cy="393.5" rx="2.2" ry="2.2"/>
		</g>
		<g>
			<g>
				<path class="st1" d="M345.6,401.7c0.1,4.8,3.5,8.6,7.6,8.6c4.1,0,7.5-3.8,7.6-8.6c-2.1,1.1-4.8,1.8-7.6,1.8
					C350.4,403.5,347.8,402.8,345.6,401.7z"/>
			</g>
		</g>
		<g>
			<g>
				<path class="st2" d="M342.3,388.5c1.5-1.3,3.5-1.8,5.4-1.2c1.7,0.5,2.4-2.1,0.7-2.6c-2.8-0.8-5.8-0.1-8,1.9
					C339.1,387.8,341,389.6,342.3,388.5L342.3,388.5z"/>
			</g>
			<g>
				<path class="st2" d="M366.1,386.6c-2.2-2-5.1-2.7-8-1.9c-1.7,0.5-1,3.1,0.7,2.6c1.9-0.5,3.9-0.1,5.4,1.2
					C365.5,389.6,367.4,387.8,366.1,386.6L366.1,386.6z"/>
			</g>
		</g>
	</g>
	<g>
		<ellipse class="st1" cx="381.7" cy="393.3" rx="2.2" ry="2.2"/>
		<ellipse class="st1" cx="396.2" cy="393.3" rx="2.2" ry="2.2"/>
	</g>
	<g>
		<path class="st2" d="M385.1,385.7c0.2,0.9-0.4,1.8-1.4,1.9l-4.9,0.9c-0.9,0.2-1.8-0.4-1.9-1.4l0,0c-0.2-0.9,0.4-1.8,1.4-1.9
			l4.9-0.9C384,384.2,384.9,384.8,385.1,385.7L385.1,385.7z"/>
		<path class="st2" d="M392.8,385.7c-0.2,0.9,0.4,1.8,1.4,1.9l4.9,0.9c0.9,0.2,1.8-0.4,1.9-1.4l0,0c0.2-0.9-0.4-1.8-1.4-1.9
			l-4.9-0.9C393.9,384.2,393,384.8,392.8,385.7L392.8,385.7z"/>
	</g>
	<g>
		<path class="st17" d="M393.5,406.8c-2.5,2.3-6.7,2.3-9.2,0c-1.7-1.7-4.4,1-2.6,2.7c4,3.8,10.5,3.8,14.5,0
			C397.9,407.8,395.2,405.1,393.5,406.8L393.5,406.8z"/>
	</g>
	<circle class="st0" cx="446.1" cy="185" r="22"/>
	<circle class="st0" cx="494.1" cy="185" r="22"/>
	<circle class="st0" cx="542" cy="185" r="22"/>
	<circle class="st0" cx="590" cy="185" r="22"/>
	<circle class="st0" cx="637.9" cy="185" r="22"/>
	<g>
		<g>
			<ellipse class="st1" cx="434.3" cy="182.5" rx="2.2" ry="2.2"/>
			<ellipse class="st1" cx="448.9" cy="182.5" rx="2.2" ry="2.2"/>
		</g>
		<g>
			<path class="st2" d="M445.5,177.2c-0.2-0.9,0.4-1.8,1.3-1.9l4.9-0.9c0.9-0.2,1.8,0.4,1.9,1.4l0,0c0.2,0.9-0.4,1.8-1.3,1.9
				l-4.9,0.9C446.5,178.8,445.6,178.1,445.5,177.2L445.5,177.2z"/>
			<path class="st2" d="M437.7,177.2c0.2-0.9-0.4-1.8-1.3-1.9l-4.9-0.9c-0.9-0.2-1.8,0.4-1.9,1.4l0,0c-0.2,0.9,0.4,1.8,1.3,1.9
				l4.9,0.9C436.7,178.8,437.6,178.1,437.7,177.2L437.7,177.2z"/>
		</g>
		<g>
			<path class="st1" d="M433.9,193.9c0,0,0,0.1,0,0.1c0,4.3,3.5,7.8,7.8,7.8s7.8-3.5,7.8-7.8c0,0,0-0.1,0-0.1H433.9z"/>
			<path class="st17" d="M435.2,193.9v0.7c0,1.3,1.1,2.4,2.4,2.4h8c1.3,0,2.4-1.1,2.4-2.4v-0.7H435.2z"/>
		</g>
	</g>
	<g>
		<circle class="st31" cx="484.2" cy="182.5" r="2.2"/>
		<circle class="st31" cx="498.8" cy="182.5" r="2.2"/>
	</g>
	<g>
		<path class="st31" d="M489.4,174.5c0,1.5-1.2,2.7-2.7,2.7h-5.3c-1.5,0-2.7-1.2-2.7-2.7l0,0c0-1.5,1.2-2.7,2.7-2.7h5.3
			C488.2,171.8,489.4,173,489.4,174.5L489.4,174.5z"/>
		<path class="st31" d="M504.3,174.5c0,1.5-1.2,2.7-2.7,2.7h-5.3c-1.5,0-2.7-1.2-2.7-2.7l0,0c0-1.5,1.2-2.7,2.7-2.7h5.3
			C503.1,171.8,504.3,173,504.3,174.5L504.3,174.5z"/>
	</g>
	<path class="st1" d="M498.1,200.1l-0.3,2.4c0,1.4-1.3,2.6-2.9,2.6h-6.8c-1.6,0-2.9-1.2-2.9-2.6l-0.3-2.4h-2.7l0.7,5.3
		c0,2,1.8,3.6,4,3.6h9.3c2.2,0,4-1.6,4-3.6l0.6-5.3H498.1z"/>
	<g>
		<g>
			<path class="st1" d="M501.1,193.7c0.6,1.3-0.3,3.1-2.2,3.6c-5.2,1.3-9.8,1.3-15,0c-1.8-0.5-2.8-2.3-2.2-3.6l0,0
				c0.6-1.3,2.2-1.9,3.7-1.5c4.2,1,7.7,1,11.9,0C498.9,191.8,500.5,192.3,501.1,193.7L501.1,193.7z"/>
			<path class="st17" d="M499.6,193.7c-0.2-0.6-0.3-0.9-0.6-1.5c-0.5-0.1-1.1-0.1-1.6,0.1c-4.2,1-7.7,1-11.9,0
				c-0.5-0.2-1.1-0.2-1.6-0.1c-0.2,0.6-0.3,0.9-0.6,1.5C489,195.5,494,195.5,499.6,193.7z"/>
		</g>
	</g>
	<g>
		<g>
			
				<ellipse transform="matrix(1 -6.788337e-03 6.788337e-03 1 -1.2256 3.6322)" class="st1" cx="534.4" cy="182.4" rx="2.2" ry="2.2"/>
			
				<ellipse transform="matrix(1 -6.844115e-03 6.844115e-03 1 -1.2345 3.7621)" class="st1" cx="549.1" cy="182.3" rx="2.2" ry="2.2"/>
		</g>
		<g>
			<path class="st1" d="M532.4,192.7c0.2,5.1,3.8,9.2,8.1,9.2c4.4,0,7.9-4.1,8-9.3c-2.2,1.2-5,1.9-8.1,2
				C537.5,194.5,534.7,193.9,532.4,192.7z"/>
			<path class="st17" d="M534.8,196.7C534.8,196.7,534.8,196.7,534.8,196.7l11.5,0c0.1-0.2,0.2-0.4,0.2-0.7l0-2.5
				c-1.8,0.6-3.8,1-5.9,1c-2.1,0-4.1-0.3-5.9-0.9l0,2.5C534.6,196.3,534.7,196.5,534.8,196.7z"/>
		</g>
		<g>
			<g>
				<path class="st31" d="M528.7,181.3c0.9-3,4.6-3.7,7-2.1c1.4,1,2.8-1.4,1.3-2.3c-3.9-2.6-9.6-0.9-10.9,3.7
					C525.7,182.2,528.2,182.9,528.7,181.3L528.7,181.3z"/>
			</g>
			<g>
				<path class="st31" d="M554.9,180.6c-1.4-4.6-7-6.3-10.9-3.7c-1.4,0.9-0.1,3.3,1.3,2.3c2.5-1.6,6.1-0.9,7,2.1
					C552.8,182.9,555.4,182.2,554.9,180.6L554.9,180.6z"/>
			</g>
		</g>
	</g>
	<g>
		<g>
			<ellipse class="st18" cx="584.1" cy="185.1" rx="2.2" ry="2.2"/>
			<ellipse class="st18" cx="598.7" cy="185.1" rx="2.2" ry="2.2"/>
		</g>
		<g>
			<g>
				<path class="st35" d="M597.9,194.7c-2.7,4.3-10.3,4.3-13,0c-0.7-1.1-2.4-0.1-1.7,1c3.5,5.6,13,5.6,16.5,0
					C600.3,194.6,598.6,193.6,597.9,194.7L597.9,194.7z"/>
			</g>
			<path class="st35" d="M596.8,198.4c0,1.3-1.1,2.4-2.4,2.4h-6.2c-1.3,0-2.4-1.1-2.4-2.4l0,0c0-1.3,1.1-2.4,2.4-2.4h6.2
				C595.8,196,596.8,197.1,596.8,198.4L596.8,198.4z"/>
		</g>
		<g>
			<g>
				<path class="st10" d="M579.4,181.3c1.8-1.9,4.3-2.8,6.9-2.9c1.3,0,1.3-2,0-2c-3.1,0-6.2,1.1-8.3,3.4
					C577.1,180.8,578.5,182.2,579.4,181.3L579.4,181.3z"/>
			</g>
			<g>
				<path class="st10" d="M604.8,179.9c-2.1-2.3-5.2-3.4-8.3-3.4c-1.3,0-1.3,2,0,2c2.6,0,5.1,0.9,6.9,2.9
					C604.2,182.2,605.6,180.8,604.8,179.9L604.8,179.9z"/>
			</g>
		</g>
	</g>
	<g>
		<ellipse class="st1" cx="629" cy="184.5" rx="2.2" ry="2.2"/>
		<ellipse class="st1" cx="643.6" cy="184.5" rx="2.2" ry="2.2"/>
	</g>
	<g>
		<g>
			<path class="st7" d="M625.4,179.7c1.5-1.3,3.4-1.7,5.3-1.2c1.7,0.5,2.4-2.1,0.7-2.6c-2.8-0.8-5.8-0.1-7.9,1.9
				C622.3,179,624.2,180.9,625.4,179.7L625.4,179.7z"/>
		</g>
		<g>
			<path class="st7" d="M649.1,177.8c-2.2-2-5.1-2.7-7.9-1.9c-1.6,0.5-0.9,3,0.7,2.6c1.9-0.5,3.9-0.1,5.3,1.2
				C648.5,180.9,650.4,179,649.1,177.8L649.1,177.8z"/>
		</g>
	</g>
	<g>
		<ellipse class="st2" cx="636.3" cy="195.6" rx="6.2" ry="4.3"/>
		<ellipse class="st13" cx="636.3" cy="198.8" rx="6.2" ry="5.3"/>
		<g>
			<path class="st1" d="M628.7,193.2c0.1,4.7,3.5,8.5,7.6,8.5s7.5-3.8,7.6-8.5c-2.1,1.1-4.7,1.8-7.6,1.8
				C633.5,194.9,630.8,194.3,628.7,193.2z"/>
			<path class="st17" d="M632.1,197.7h8.5c0.7,0,1.3-0.6,1.3-1.3V194c-1.7,0.6-3.6,0.9-5.6,0.9c-2,0-3.9-0.3-5.6-0.9v2.4
				C630.8,197.1,631.3,197.7,632.1,197.7z"/>
		</g>
	</g>
	<circle class="st0" cx="446.1" cy="238" r="22"/>
	<circle class="st0" cx="494.1" cy="238" r="22"/>
	<circle class="st0" cx="542" cy="238" r="22"/>
	<circle class="st0" cx="590" cy="238" r="22"/>
	<circle class="st0" cx="637.9" cy="238" r="22"/>
	<g>
		<g>
			<ellipse class="st18" cx="444.4" cy="238.1" rx="2.2" ry="2.2"/>
			<ellipse class="st18" cx="458.9" cy="238.1" rx="2.2" ry="2.2"/>
		</g>
		<g>
			<g>
				<path class="st2" d="M458.1,247.8c-2.7,4.3-10.3,4.3-12.9,0c-0.7-1.1-2.4-0.1-1.7,1c3.5,5.6,12.9,5.6,16.4,0
					C460.5,247.7,458.8,246.7,458.1,247.8L458.1,247.8z"/>
			</g>
		</g>
		<g>
			<g>
				<path class="st2" d="M439.7,234.3c1.8-2,4.2-2.8,6.8-2.9c1.3,0,1.3-2,0-2c-3.1,0-6.1,1.1-8.2,3.5
					C437.4,233.8,438.9,235.2,439.7,234.3L439.7,234.3z"/>
			</g>
			<g>
				<path class="st2" d="M465,232.8c-2.1-2.3-5.2-3.4-8.2-3.5c-1.3,0-1.3,2,0,2c2.6,0,5.1,0.9,6.8,2.9
					C464.4,235.2,465.8,233.8,465,232.8L465,232.8z"/>
			</g>
		</g>
	</g>
	<g>
		<ellipse class="st1" cx="487.2" cy="235.8" rx="2.2" ry="2.2"/>
		<ellipse class="st1" cx="501.7" cy="235.8" rx="2.2" ry="2.2"/>
	</g>
	<g>
		<g>
			<path class="st7" d="M483.5,231c1.5-1.3,3.5-1.8,5.3-1.2c1.7,0.5,2.4-2.1,0.7-2.6c-2.8-0.8-5.8-0.1-7.9,1.9
				C480.4,230.2,482.3,232.1,483.5,231L483.5,231z"/>
		</g>
		<g>
			<path class="st7" d="M507.3,229.1c-2.2-2-5.1-2.7-7.9-1.9c-1.7,0.5-0.9,3.1,0.7,2.6c1.9-0.5,3.9-0.1,5.3,1.2
				C506.6,232.1,508.5,230.2,507.3,229.1L507.3,229.1z"/>
		</g>
	</g>
	<g>
		<ellipse class="st13" cx="494.4" cy="247" rx="6.2" ry="4.4"/>
		<ellipse class="st13" cx="494.4" cy="250.2" rx="6.2" ry="5.4"/>
		<g>
			<path class="st1" d="M486.8,244.5c0.1,4.8,3.5,8.6,7.6,8.6c4.1,0,7.5-3.8,7.6-8.6c-2.1,1.1-4.8,1.8-7.6,1.8
				C491.6,246.3,489,245.6,486.8,244.5z"/>
			<path class="st17" d="M490.2,249.1h8.5c0.7,0,1.3-0.6,1.3-1.3v-2.4c-1.7,0.6-3.6,0.9-5.6,0.9c-2,0-3.9-0.3-5.6-0.9v2.4
				C488.9,248.5,489.5,249.1,490.2,249.1z"/>
		</g>
	</g>
	<g>
		<g>
			
				<ellipse transform="matrix(1 -6.845695e-03 6.845695e-03 1 -1.6142 3.6679)" class="st1" cx="535" cy="237.6" rx="2.2" ry="2.2"/>
			
				<ellipse transform="matrix(1 -6.891746e-03 6.891746e-03 1 -1.6239 3.7933)" class="st1" cx="549.6" cy="237.5" rx="2.2" ry="2.2"/>
		</g>
		<g>
			<path class="st1" d="M534.2,246c0.2,5.2,3.8,9.3,8.1,9.2c4.4,0,7.9-4.2,8-9.3c-2.2,1.2-5,2-8.1,2
				C539.3,247.9,536.5,247.2,534.2,246z"/>
			<path class="st17" d="M536.5,250.1C536.5,250.1,536.6,250.1,536.5,250.1l11.5,0c0.1-0.2,0.2-0.4,0.2-0.7l0-2.6
				c-1.8,0.6-3.8,1-5.9,1c-2.1,0-4.1-0.3-5.9-0.9l0,2.6C536.4,249.7,536.4,249.9,536.5,250.1z"/>
		</g>
		<g>
			<path class="st31" d="M540.2,232.7c0,1.5-1.2,2.7-2.7,2.7h-5.3c-1.5,0-2.7-1.2-2.7-2.7l0,0c0-1.5,1.2-2.7,2.7-2.7h5.3
				C539,230,540.2,231.2,540.2,232.7L540.2,232.7z"/>
			<path class="st31" d="M555.1,232.7c0,1.5-1.2,2.7-2.7,2.7h-5.3c-1.5,0-2.7-1.2-2.7-2.7l0,0c0-1.5,1.2-2.7,2.7-2.7h5.3
				C553.9,230,555.1,231.2,555.1,232.7L555.1,232.7z"/>
		</g>
	</g>
	<g>
		<ellipse class="st1" cx="582.8" cy="237" rx="2.2" ry="2.2"/>
		<ellipse class="st1" cx="597.5" cy="237" rx="2.2" ry="2.2"/>
	</g>
	<g>
		<g>
			<path class="st17" d="M597.9,251.5c-0.1-0.2-0.2-0.4-0.3-0.6c-0.6-1.2-2.1-1.7-3.4-1.4c-3.2,0.9-4.9,0.9-8.1,0
				c-1.3-0.4-2.8,0.1-3.4,1.4c-0.1,0.2-0.2,0.4-0.3,0.6C588.3,254.2,592,254.2,597.9,251.5z"/>
		</g>
	</g>
	<g>
		<g>
			<path class="st1" d="M579.5,234.9c0.9-3.1,4.6-3.8,7-2.1c1.4,1,2.8-1.4,1.3-2.3c-3.9-2.6-9.6-0.9-10.9,3.7
				C576.5,235.9,579,236.6,579.5,234.9L579.5,234.9z"/>
		</g>
		<g>
			<path class="st1" d="M605.7,234.2c-1.4-4.7-7-6.4-10.9-3.7c-1.4,1-0.1,3.3,1.3,2.3c2.5-1.6,6.1-0.9,7,2.1
				C603.6,236.6,606.2,235.9,605.7,234.2L605.7,234.2z"/>
		</g>
	</g>
	<g>
		<g>
			<ellipse class="st18" cx="629.1" cy="238" rx="2.2" ry="2.2"/>
			<ellipse class="st18" cx="643.7" cy="238" rx="2.2" ry="2.2"/>
		</g>
		<g>
			<g>
				<path class="st2" d="M624.5,234.1c1.8-2,4.2-2.8,6.8-2.9c1.3,0,1.3-2,0-2c-3.1,0-6.1,1.1-8.2,3.5
					C622.2,233.6,623.6,235.1,624.5,234.1L624.5,234.1z"/>
			</g>
			<g>
				<path class="st2" d="M649.8,232.7c-2.1-2.3-5.2-3.4-8.2-3.5c-1.3,0-1.3,2,0,2c2.6,0,5.1,0.9,6.8,2.9
					C649.2,235.1,650.6,233.6,649.8,232.7L649.8,232.7z"/>
			</g>
		</g>
		<g>
			<path class="st17" d="M641,246c-2.5,2.4-6.7,2.4-9.2,0c-1.7-1.7-4.4,1-2.6,2.7c4,3.8,10.5,3.8,14.5,0
				C645.4,247,642.8,244.3,641,246L641,246z"/>
		</g>
	</g>
	<circle class="st0" cx="446.1" cy="290.1" r="22"/>
	<circle class="st0" cx="494.1" cy="290.1" r="22"/>
	<circle class="st0" cx="542" cy="290.1" r="22"/>
	<circle class="st0" cx="590" cy="290.1" r="22"/>
	<circle class="st0" cx="637.9" cy="290.1" r="22"/>
	<g>
		<g>
			<ellipse class="st1" cx="442.4" cy="284.7" rx="2.2" ry="2.2"/>
			<ellipse class="st1" cx="456.9" cy="284.7" rx="2.2" ry="2.2"/>
		</g>
		<g>
			<g>
				<path class="st1" d="M457.6,298.8c0.6,1.3-0.3,3.1-2.2,3.7c-5.2,1.3-9.7,1.3-14.9,0c-1.8-0.6-2.8-2.3-2.2-3.7l0,0
					c0.6-1.3,2.2-1.9,3.7-1.5c4.2,1,7.7,1,11.9,0C455.4,296.9,457,297.5,457.6,298.8L457.6,298.8z"/>
				<path class="st17" d="M456.1,298.8c-0.2-0.6-0.3-0.9-0.6-1.5c-0.5-0.1-1.1-0.1-1.6,0.1c-4.2,1-7.7,1-11.9,0
					c-0.5-0.2-1.1-0.2-1.6-0.1c-0.2,0.6-0.3,0.9-0.6,1.5C445.5,300.6,450.5,300.6,456.1,298.8z"/>
			</g>
		</g>
		<g>
			<path class="st31" d="M445.9,280.7c0,1.5-1.2,2.7-2.7,2.7h-5.3c-1.5,0-2.7-1.2-2.7-2.7l0,0c0-1.5,1.2-2.7,2.7-2.7h5.3
				C444.7,278,445.9,279.2,445.9,280.7L445.9,280.7z"/>
			<path class="st31" d="M460.7,280.7c0,1.5-1.2,2.7-2.7,2.7h-5.3c-1.5,0-2.7-1.2-2.7-2.7l0,0c0-1.5,1.2-2.7,2.7-2.7h5.3
				C459.5,278,460.7,279.2,460.7,280.7L460.7,280.7z"/>
		</g>
	</g>
	<g>
		<g>
			<polygon class="st31" points="490.5,298.3 480.7,298.3 490.5,294.7 			"/>
			<polygon class="st31" points="491.3,298.3 501.1,298.3 491.3,294.7 			"/>
		</g>
		<g>
			<g>
				<path class="st31" d="M505.3,281.5c-0.2,1.3-1.3,2.2-2.6,2l-6.2-0.8c-1.3-0.2-2.2-1.4-2-2.6l0,0c0.2-1.3,1.3-2.2,2.6-2l6.2,0.8
					C504.5,279,505.4,280.2,505.3,281.5L505.3,281.5z"/>
			</g>
			<g>
				<path class="st31" d="M476.5,281.5c0.2,1.3,1.3,2.2,2.6,2l6.2-0.8c1.3-0.2,2.2-1.4,2-2.6l0,0c-0.2-1.3-1.3-2.2-2.6-2l-6.2,0.8
					C477.2,279,476.3,280.2,476.5,281.5L476.5,281.5z"/>
			</g>
		</g>
		<g>
			<ellipse class="st1" cx="483.6" cy="286.6" rx="2.2" ry="2.2"/>
			<ellipse class="st1" cx="498.2" cy="286.6" rx="2.2" ry="2.2"/>
		</g>
		<g>
			<g>
				<path class="st17" d="M498.6,301.1c-0.1-0.2-0.2-0.4-0.3-0.6c-0.6-1.2-2-1.7-3.4-1.4c-3.2,0.9-4.9,0.9-8.1,0
					c-1.3-0.4-2.8,0.1-3.4,1.4c-0.1,0.2-0.2,0.4-0.3,0.6C489,303.8,492.7,303.8,498.6,301.1z"/>
			</g>
		</g>
	</g>
	<g>
		<g>
			
				<ellipse transform="matrix(5.633978e-03 -1 1 5.633978e-03 236.8487 811.5911)" class="st1" cx="526.5" cy="286.7" rx="2.2" ry="2.2"/>
			
				<ellipse transform="matrix(5.634121e-03 -1 1 5.634121e-03 251.2971 826.2865)" class="st1" cx="541.1" cy="286.8" rx="2.2" ry="2.2"/>
		</g>
		<g>
			
				<ellipse transform="matrix(5.665299e-03 -1 1 5.665299e-03 232.9199 829.9763)" class="st13" cx="533.8" cy="297.9" rx="4.4" ry="6.2"/>
			
				<ellipse transform="matrix(5.665198e-03 -1 1 5.665198e-03 229.6671 833.1747)" class="st13" cx="533.8" cy="301.1" rx="5.4" ry="6.2"/>
			<g>
				<path class="st1" d="M526.2,295.4c0.1,4.8,3.4,8.6,7.6,8.6c4.1,0,7.5-3.8,7.7-8.5c-2.1,1.1-4.8,1.7-7.6,1.7
					C530.9,297.2,528.3,296.5,526.2,295.4z"/>
				<path class="st17" d="M529.5,299.9l8.5,0c0.7,0,1.3-0.6,1.3-1.3l0-2.4c-1.7,0.6-3.6,0.9-5.6,0.9c-2,0-3.9-0.3-5.6-0.9l0,2.4
					C528.2,299.3,528.8,299.9,529.5,299.9z"/>
			</g>
		</g>
		<g>
			<g>
				<path class="st2" d="M522.5,283.6c0.8-2.5,3.1-4.9,5.9-3.6c1.2,0.5,2.2-1.2,1-1.7c-4-1.9-7.6,0.9-8.9,4.8
					C520.2,284.3,522.1,284.8,522.5,283.6L522.5,283.6z"/>
			</g>
			<g>
				<path class="st2" d="M545.1,283.6c-0.8-2.5-3.1-4.9-5.9-3.6c-1.2,0.5-2.2-1.2-1-1.7c4-1.9,7.6,0.9,8.9,4.8
					C547.5,284.3,545.5,284.8,545.1,283.6L545.1,283.6z"/>
			</g>
		</g>
	</g>
	<g>
		<ellipse class="st1" cx="586.8" cy="286.9" rx="2.2" ry="2.2"/>
		<ellipse class="st1" cx="601.5" cy="286.9" rx="2.2" ry="2.2"/>
	</g>
	<g>
		<path class="st13" d="M589.3,299c-0.1,0-0.2,0-0.3,0c-0.3,0.7-0.4,1.4-0.4,2.2c0,3.1,2.5,5.6,5.6,5.6c3.1,0,5.6-2.5,5.6-5.6
			c0-0.8-0.1-1.5-0.4-2.1H589.3z"/>
		<ellipse class="st13" cx="594.2" cy="300.1" rx="6.3" ry="3.2"/>
		<path class="st1" d="M586.3,296.9c0.9,4.2,4.1,7.3,7.9,7.3c3.8,0,7-3.1,7.9-7.3c-1.7,1.6-4.6,2.6-7.9,2.6
			C590.9,299.5,588,298.5,586.3,296.9z"/>
	</g>
	<g>
		<g>
			<path class="st2" d="M583.3,280.7c2,0.3,4-0.4,5.6-1.7c0.8-0.6,1.8,0.6,1,1.2c-1.9,1.5-4.3,2.4-6.7,2
				C582.2,282.1,582.3,280.5,583.3,280.7L583.3,280.7z"/>
		</g>
		<g>
			<path class="st2" d="M605,280.7c-2,0.3-4-0.4-5.6-1.7c-0.8-0.6-1.8,0.6-1,1.2c1.9,1.5,4.3,2.4,6.7,2
				C606.2,282.1,606,280.5,605,280.7L605,280.7z"/>
		</g>
	</g>
	<g>
		<g>
			<ellipse class="st1" cx="622.4" cy="287.2" rx="2.2" ry="2.2"/>
			<ellipse class="st1" cx="637" cy="287.2" rx="2.2" ry="2.2"/>
		</g>
		<g>
			<g>
				<path class="st12" d="M618.8,282.3c1.5-1.3,3.4-1.8,5.3-1.2c1.7,0.5,2.4-2.1,0.7-2.6c-2.8-0.8-5.8-0.1-7.9,1.9
					C615.7,281.6,617.6,283.5,618.8,282.3L618.8,282.3z"/>
			</g>
			<g>
				<path class="st12" d="M642.5,280.4c-2.2-2-5.1-2.7-7.9-1.9c-1.6,0.5-0.9,3,0.7,2.6c1.9-0.5,3.9-0.1,5.3,1.2
					C641.9,283.5,643.8,281.6,642.5,280.4L642.5,280.4z"/>
			</g>
		</g>
		<g>
			<ellipse class="st13" cx="629.7" cy="298.3" rx="6.2" ry="4.4"/>
			<ellipse class="st13" cx="629.7" cy="301.5" rx="6.2" ry="5.4"/>
			<g>
				<path class="st1" d="M622.1,295.8c0.1,4.8,3.5,8.6,7.6,8.6s7.5-3.8,7.6-8.6c-2.1,1.1-4.7,1.8-7.6,1.8
					C626.9,297.6,624.2,297,622.1,295.8z"/>
				<path class="st17" d="M625.5,300.4h8.5c0.7,0,1.3-0.6,1.3-1.3v-2.4c-1.7,0.6-3.6,0.9-5.6,0.9c-2,0-3.9-0.3-5.6-0.9v2.4
					C624.1,299.8,624.7,300.4,625.5,300.4z"/>
			</g>
		</g>
	</g>
	<circle class="st0" cx="446.1" cy="342.1" r="22"/>
	<circle class="st0" cx="494.1" cy="342.1" r="22"/>
	<circle class="st0" cx="542" cy="342.1" r="22"/>
	<circle class="st0" cx="590" cy="342.1" r="22"/>
	<circle class="st0" cx="637.9" cy="342.1" r="22"/>
	<g>
		<g>
			<path class="st16" d="M446.8,333.2c2.2-1.1,4.7-1.5,7.1-1.5c2.2,0.1,2.2-3.4,0-3.5c-3.1-0.1-6.1,0.5-8.8,1.9
				C443.1,331.2,444.8,334.2,446.8,333.2L446.8,333.2z"/>
		</g>
		<g>
			<path class="st16" d="M469.8,333.2c-2.2-1.1-4.7-1.5-7.1-1.5c-2.2,0.1-2.2-3.4,0-3.5c3.1-0.1,6.1,0.5,8.8,1.9
				C473.5,331.2,471.8,334.2,469.8,333.2L469.8,333.2z"/>
		</g>
	</g>
	<g>
		<ellipse class="st1" cx="451" cy="336.5" rx="2.2" ry="2.2"/>
		<ellipse class="st1" cx="465.6" cy="336.5" rx="2.2" ry="2.2"/>
	</g>
	<g>
		<g>
			<path class="st17" d="M466,351c-0.1-0.2-0.2-0.4-0.3-0.6c-0.6-1.2-2-1.7-3.4-1.4c-3.2,0.9-4.9,0.9-8.1,0
				c-1.3-0.4-2.8,0.1-3.4,1.4c-0.1,0.2-0.2,0.4-0.3,0.6C456.5,353.7,460.1,353.7,466,351z"/>
		</g>
	</g>
	<g>
		<g>
			<ellipse class="st1" cx="491.2" cy="336.8" rx="2.2" ry="2.2"/>
			<ellipse class="st1" cx="505.8" cy="336.8" rx="2.2" ry="2.2"/>
		</g>
		<g>
			<path class="st13" d="M493.6,348.8c-0.1,0-0.2,0-0.3,0c-0.3,0.7-0.4,1.4-0.4,2.2c0,3.1,2.5,5.6,5.6,5.6c3.1,0,5.6-2.5,5.6-5.6
				c0-0.8-0.1-1.5-0.4-2.1H493.6z"/>
			<ellipse class="st13" cx="498.5" cy="350" rx="6.3" ry="3.2"/>
			<path class="st1" d="M490.6,346.8c0.9,4.2,4,7.3,7.8,7.3c3.8,0,7-3.1,7.8-7.3c-1.7,1.6-4.6,2.6-7.8,2.6
				C495.2,349.4,492.3,348.4,490.6,346.8z"/>
		</g>
		<g>
			<g>
				<path class="st2" d="M487.6,330.6c2,0.3,4-0.4,5.6-1.7c0.8-0.6,1.8,0.6,1,1.2c-1.9,1.5-4.3,2.4-6.7,2
					C486.5,332,486.6,330.4,487.6,330.6L487.6,330.6z"/>
			</g>
			<g>
				<path class="st2" d="M509.3,330.6c-2,0.3-4-0.4-5.6-1.7c-0.8-0.6-1.8,0.6-1,1.2c1.9,1.5,4.3,2.4,6.7,2
					C510.4,332,510.3,330.4,509.3,330.6L509.3,330.6z"/>
			</g>
		</g>
	</g>
	<g>
		<g>
			<ellipse class="st1" cx="531.6" cy="337.3" rx="2.2" ry="2.2"/>
			<ellipse class="st1" cx="546.2" cy="337.3" rx="2.2" ry="2.2"/>
		</g>
		<g>
			<g>
				<path class="st17" d="M546.6,351.8c-0.1-0.2-0.2-0.4-0.3-0.6c-0.6-1.2-2.1-1.7-3.4-1.4c-3.2,0.9-4.9,0.9-8.1,0
					c-1.3-0.4-2.8,0.1-3.4,1.4c-0.1,0.2-0.2,0.4-0.3,0.6C537.1,354.5,540.7,354.5,546.6,351.8z"/>
			</g>
		</g>
		<g>
			<polygon class="st35" points="538.5,349 528.7,349 538.5,345.4 			"/>
			<polygon class="st35" points="539.3,349 549.1,349 539.3,345.4 			"/>
		</g>
		<g>
			<path class="st6" d="M536,332c0,1.5-1.2,2.7-2.7,2.7H528c-1.5,0-2.7-1.2-2.7-2.7l0,0c0-1.5,1.2-2.7,2.7-2.7h5.3
				C534.8,329.3,536,330.5,536,332L536,332z"/>
			<path class="st6" d="M552.5,332c0,1.5-1.2,2.7-2.7,2.7h-5.3c-1.5,0-2.7-1.2-2.7-2.7l0,0c0-1.5,1.2-2.7,2.7-2.7h5.3
				C551.3,329.3,552.5,330.5,552.5,332L552.5,332z"/>
		</g>
		<path class="st35" d="M538.9,358.2c-3.3,0-6.1-1.1-7.7-2.8c-0.8,0.9-1.3,1.9-1.3,3c0,3.2,4,5.8,9,5.8c5,0,9-2.6,9-5.8
			c0-1.1-0.5-2.1-1.3-3C545,357.1,542.2,358.2,538.9,358.2z"/>
	</g>
	<g>
		<g>
			<ellipse class="st1" cx="572.8" cy="335.1" rx="2.2" ry="2.2"/>
			<ellipse class="st1" cx="587.5" cy="335.1" rx="2.2" ry="2.2"/>
		</g>
		<g>
			<g>
				<path class="st31" d="M568.2,331.3c1.8-2,4.3-2.8,6.9-2.9c1.3,0,1.3-2,0-2c-3.1,0-6.2,1.1-8.3,3.5
					C565.9,330.8,567.3,332.2,568.2,331.3L568.2,331.3z"/>
			</g>
			<g>
				<path class="st31" d="M593.6,329.8c-2.1-2.3-5.2-3.4-8.3-3.5c-1.3,0-1.3,2,0,2c2.6,0,5.1,0.9,6.9,2.9
					C593,332.2,594.4,330.8,593.6,329.8L593.6,329.8z"/>
			</g>
		</g>
		<path class="st2" d="M575.3,347.1c-0.1,0-0.2,0-0.3,0c-0.3,0.7-0.4,1.4-0.4,2.2c0,3.1,2.5,5.6,5.6,5.6s5.6-2.5,5.6-5.6
			c0-0.8-0.1-1.5-0.4-2.1H575.3z"/>
		<ellipse class="st2" cx="580.2" cy="348.3" rx="6.3" ry="3.2"/>
		<path class="st1" d="M572.3,345.1c0.9,4.2,4.1,7.3,7.9,7.3s7-3.1,7.9-7.3c-1.7,1.6-4.6,2.6-7.9,2.6S574,346.7,572.3,345.1z"/>
	</g>
	<g>
		
			<ellipse transform="matrix(1 -6.851044e-03 6.851044e-03 1 -2.2915 4.3319)" class="st1" cx="631.1" cy="336.6" rx="2.2" ry="2.2"/>
		
			<ellipse transform="matrix(1 -6.897166e-03 6.897166e-03 1 -2.3058 4.4616)" class="st1" cx="645.7" cy="336.5" rx="2.2" ry="2.2"/>
	</g>
	<g>
		<path class="st1" d="M630.9,348.1c1.2,3.6,4.1,6.1,7.6,6.1c3.4,0,6.3-2.6,7.4-6.1H630.9z"/>
	</g>
	<g>
		<g>
			<path class="st31" d="M627.9,334c0.7-2.1,3.5-2.5,5.3-1.6c1,0.5,2.3,0.3,2.9-0.8c0.5-0.9,0.3-2.4-0.8-2.9
				c-4.3-2.1-9.9-0.8-11.5,4.2C622.9,335.5,627,336.6,627.9,334L627.9,334z"/>
		</g>
		<g>
			<path class="st31" d="M649,334c-0.7-2.1-3.5-2.5-5.3-1.6c-1,0.5-2.3,0.3-2.9-0.8c-0.5-0.9-0.3-2.4,0.8-2.9
				c4.3-2.1,9.9-0.8,11.5,4.2C653.9,335.5,649.8,336.6,649,334L649,334z"/>
		</g>
	</g>
	<circle class="st0" cx="446.1" cy="394.2" r="22"/>
	<circle class="st0" cx="494.1" cy="394.2" r="22"/>
	<circle class="st0" cx="542" cy="394.2" r="22"/>
	<circle class="st0" cx="590" cy="394.2" r="22"/>
	<circle class="st0" cx="637.9" cy="394.2" r="22"/>
	<g>
		<ellipse class="st1" cx="445.4" cy="389.5" rx="2.2" ry="2.2"/>
		<ellipse class="st1" cx="460" cy="389.5" rx="2.2" ry="2.2"/>
	</g>
	<g>
		<g>
			<path class="st31" d="M441.8,384.7c1.5-1.3,3.4-1.8,5.3-1.2c1.7,0.5,2.4-2.1,0.7-2.6c-2.8-0.8-5.8-0.1-7.9,1.9
				C438.7,384,440.6,385.9,441.8,384.7L441.8,384.7z"/>
		</g>
		<g>
			<path class="st31" d="M465.5,382.8c-2.2-2-5.1-2.7-7.9-1.9c-1.6,0.5-0.9,3,0.7,2.6c1.9-0.5,3.9-0.1,5.3,1.2
				C464.8,385.9,466.7,384,465.5,382.8L465.5,382.8z"/>
		</g>
	</g>
	<g>
		<ellipse class="st35" cx="452.7" cy="400.4" rx="6.8" ry="4.6"/>
		<ellipse class="st35" cx="452.7" cy="404.9" rx="7.2" ry="5.3"/>
		<g>
			<path class="st1" d="M445.1,398.2c0.1,4.8,3.5,8.6,7.6,8.6c4.1,0,7.5-3.8,7.6-8.6c-2.1,1.1-4.7,1.8-7.6,1.8
				C449.9,400,447.2,399.3,445.1,398.2z"/>
			<path class="st17" d="M448.4,402.7h8.5c0.7,0,1.3-0.6,1.3-1.3v-2.4c-1.7,0.6-3.6,0.9-5.6,0.9c-2,0-3.9-0.3-5.6-0.9v2.4
				C447.1,402.1,447.7,402.7,448.4,402.7z"/>
		</g>
	</g>
	<g>
		<g>
			<ellipse class="st1" cx="485.2" cy="389" rx="2.2" ry="2.2"/>
			<ellipse class="st1" cx="499.8" cy="389" rx="2.2" ry="2.2"/>
		</g>
		<ellipse class="st13" cx="492.5" cy="400.8" rx="4.4" ry="3.5"/>
		<ellipse class="st13" cx="492.5" cy="404.2" rx="6.7" ry="4.5"/>
		<g>
			<path class="st17" d="M497.1,399.4c-2.5,2.3-6.7,2.3-9.2,0c-1.8-1.7-4.4,1-2.6,2.6c4,3.8,10.5,3.8,14.5,0
				C501.5,400.4,498.8,397.7,497.1,399.4L497.1,399.4z"/>
		</g>
		<g>
			<g>
				<path class="st48" d="M481.2,386.3c0.8-2.5,3.1-4.9,5.9-3.6c1.2,0.5,2.2-1.2,1-1.7c-4-1.9-7.6,0.9-8.9,4.8
					C478.8,387,480.8,387.5,481.2,386.3L481.2,386.3z"/>
			</g>
			<g>
				<path class="st48" d="M503.8,386.3c-0.8-2.5-3.1-4.9-5.9-3.6c-1.2,0.5-2.2-1.2-1-1.7c4-1.9,7.6,0.9,8.9,4.8
					C506.1,387,504.2,387.5,503.8,386.3L503.8,386.3z"/>
			</g>
		</g>
	</g>
	<g>
		<g>
			<ellipse class="st18" cx="525.2" cy="391.5" rx="2.2" ry="2.2"/>
			<ellipse class="st18" cx="539.8" cy="391.5" rx="2.2" ry="2.2"/>
		</g>
		<g>
			<g>
				<path class="st2" d="M520.5,387.7c1.8-2,4.3-2.8,6.9-2.9c1.3,0,1.3-2,0-2c-3.1,0-6.2,1.1-8.3,3.4
					C518.2,387.2,519.6,388.7,520.5,387.7L520.5,387.7z"/>
			</g>
			<g>
				<path class="st2" d="M545.9,386.3c-2.1-2.3-5.2-3.4-8.3-3.4c-1.3,0-1.3,2,0,2c2.6,0,5.1,0.9,6.9,2.9
					C545.3,388.7,546.7,387.2,545.9,386.3L545.9,386.3z"/>
			</g>
		</g>
		<g>
			<path class="st17" d="M537.1,399.5c-2.5,2.3-6.8,2.3-9.2,0c-1.8-1.7-4.4,1-2.6,2.6c4,3.8,10.5,3.8,14.5,0
				C541.5,400.5,538.9,397.9,537.1,399.5L537.1,399.5z"/>
		</g>
	</g>


</g>


</svg>
