<?xml version="1.0" encoding="utf-8"?>
<!-- Generator: Adobe Illustrator 20.1.0, SVG Export Plug-In . SVG Version: 6.00 Build 0)  -->
<svg version="1.1" id="Layer_1" xmlns="http://www.w3.org/2000/svg" xmlns:xlink="http://www.w3.org/1999/xlink" x="0px" y="0px"
	 viewBox="0 0 841.9 1399.6" style="enable-background:new 0 0 841.9 1399.6;" xml:space="preserve">
<style type="text/css">
	.st0{fill:#F7A584;}
	.st1{fill:#0B2C48;}
	.st2{fill:#E36A41;}
	.st3{fill:#008162;}
	.st4{fill:#6DB8DE;}
	.st5{fill:#2782AB;}
	.st6{fill:#EA8723;}
	.st7{fill:#51646F;}
	.st8{clip-path:url(#SVGID_2_);}
	.st9{fill:#E87F72;}
	.st10{fill:#F18C80;}
	.st11{fill:#F7B1AD;}
	.st12{fill:#F0CA4A;}
	.st13{fill:#E83837;}
	.st14{fill:#55A896;}
	.st15{clip-path:url(#SVGID_4_);}
	.st16{fill:#833B23;}
	.st17{fill:#FFFFFF;}
	.st18{fill:#553030;}
	.st19{clip-path:url(#SVGID_6_);}
	.st20{clip-path:url(#SVGID_8_);}
	.st21{clip-path:url(#SVGID_10_);}
	.st22{fill:#B8BEC2;}
	.st23{clip-path:url(#SVGID_12_);}
	.st24{fill:#F58F63;}
	.st25{clip-path:url(#SVGID_14_);}
	.st26{clip-path:url(#SVGID_16_);}
	.st27{clip-path:url(#SVGID_18_);}
	.st28{clip-path:url(#SVGID_20_);}
	.st29{clip-path:url(#SVGID_22_);}
	.st30{clip-path:url(#SVGID_24_);}
	.st31{fill:#641B1B;}
	.st32{clip-path:url(#SVGID_26_);}
	.st33{clip-path:url(#SVGID_28_);}
	.st34{clip-path:url(#SVGID_30_);}
	.st35{fill:#BA4A27;}
	.st36{clip-path:url(#SVGID_32_);}
	.st37{clip-path:url(#SVGID_34_);}
	.st38{clip-path:url(#SVGID_36_);}
	.st39{clip-path:url(#SVGID_38_);}
	.st40{fill:#F59D6D;}
	.st41{clip-path:url(#SVGID_40_);}
	.st42{clip-path:url(#SVGID_42_);}
	.st43{clip-path:url(#SVGID_44_);}
	.st44{clip-path:url(#SVGID_46_);}
	.st45{clip-path:url(#SVGID_48_);}
	.st46{clip-path:url(#SVGID_50_);}
	.st47{clip-path:url(#SVGID_52_);}
	.st48{fill:#EEC84C;}
	.st49{clip-path:url(#SVGID_54_);}
	.st50{clip-path:url(#SVGID_56_);}
	.st51{clip-path:url(#SVGID_58_);}
	.st52{clip-path:url(#SVGID_60_);}
	.st53{clip-path:url(#SVGID_62_);}
	.st54{clip-path:url(#SVGID_64_);}
	.st55{clip-path:url(#SVGID_66_);}
	.st56{clip-path:url(#SVGID_68_);}
	.st57{clip-path:url(#SVGID_70_);}
	.st58{clip-path:url(#SVGID_72_);}
	.st59{clip-path:url(#SVGID_74_);}
	.st60{clip-path:url(#SVGID_76_);}
	.st61{clip-path:url(#SVGID_78_);}
	.st62{clip-path:url(#SVGID_80_);}
	.st63{clip-path:url(#SVGID_82_);}
	.st64{clip-path:url(#SVGID_84_);}
	.st65{clip-path:url(#SVGID_86_);}
	.st66{clip-path:url(#SVGID_88_);}
	.st67{clip-path:url(#SVGID_90_);}
	.st68{clip-path:url(#SVGID_92_);}
	.st69{clip-path:url(#SVGID_94_);}
	.st70{clip-path:url(#SVGID_96_);}
	.st71{clip-path:url(#SVGID_98_);}
	.st72{clip-path:url(#SVGID_100_);fill:#55A896;}
	.st73{clip-path:url(#SVGID_100_);fill:#BA4A27;}
	.st74{clip-path:url(#SVGID_100_);}
	.st75{clip-path:url(#SVGID_100_);fill:#0B2C48;}
	.st76{clip-path:url(#SVGID_102_);}
	.st77{clip-path:url(#SVGID_104_);}
	.st78{clip-path:url(#SVGID_106_);}
	.st79{clip-path:url(#SVGID_108_);}
	.st80{clip-path:url(#SVGID_110_);}
	.st81{clip-path:url(#SVGID_112_);}
	.st82{clip-path:url(#SVGID_114_);}
	.st83{clip-path:url(#SVGID_114_);fill:none;}
	.st84{clip-path:url(#SVGID_116_);}
	.st85{clip-path:url(#SVGID_118_);}
	.st86{clip-path:url(#SVGID_120_);}
	.st87{clip-path:url(#SVGID_122_);}
	.st88{clip-path:url(#SVGID_124_);}
	.st89{clip-path:url(#SVGID_126_);}
	.st90{clip-path:url(#SVGID_128_);}
	.st91{clip-path:url(#SVGID_130_);}
	.st92{clip-path:url(#SVGID_132_);}
	.st93{clip-path:url(#SVGID_134_);}
	.st94{clip-path:url(#SVGID_136_);}
	.st95{clip-path:url(#SVGID_138_);}
	.st96{clip-path:url(#SVGID_140_);}
	.st97{clip-path:url(#SVGID_142_);}
	.st98{clip-path:url(#SVGID_144_);}
	.st99{clip-path:url(#SVGID_146_);}
	.st100{clip-path:url(#SVGID_148_);}
	.st101{clip-path:url(#SVGID_150_);}
	.st102{clip-path:url(#SVGID_152_);}
	.st103{clip-path:url(#SVGID_154_);}
	.st104{clip-path:url(#SVGID_156_);}
	.st105{clip-path:url(#SVGID_158_);}
	.st106{clip-path:url(#SVGID_160_);}
	.st107{clip-path:url(#SVGID_162_);}
	.st108{clip-path:url(#SVGID_164_);}
	.st109{clip-path:url(#SVGID_166_);}
	.st110{clip-path:url(#SVGID_168_);}
	.st111{clip-path:url(#SVGID_170_);}
	.st112{clip-path:url(#SVGID_172_);}
	.st113{clip-path:url(#SVGID_174_);}
	.st114{clip-path:url(#SVGID_176_);}
	.st115{clip-path:url(#SVGID_178_);}
	.st116{clip-path:url(#SVGID_180_);}
	.st117{clip-path:url(#SVGID_182_);}
	.st118{clip-path:url(#SVGID_184_);}
	.st119{clip-path:url(#SVGID_186_);}
	.st120{clip-path:url(#SVGID_188_);}
	.st121{clip-path:url(#SVGID_190_);}
	.st122{clip-path:url(#SVGID_192_);}
	.st123{clip-path:url(#SVGID_194_);}
	.st124{clip-path:url(#SVGID_196_);}
	.st125{clip-path:url(#SVGID_198_);}
	.st126{clip-path:url(#SVGID_200_);}
	.st127{clip-path:url(#SVGID_202_);fill:#55A896;}
	.st128{clip-path:url(#SVGID_202_);fill:#BA4A27;}
	.st129{clip-path:url(#SVGID_202_);}
	.st130{clip-path:url(#SVGID_202_);fill:#E36A41;}
	.st131{clip-path:url(#SVGID_204_);}
	.st132{clip-path:url(#SVGID_206_);}
	.st133{clip-path:url(#SVGID_208_);}
	.st134{clip-path:url(#SVGID_210_);}
	.st135{clip-path:url(#SVGID_212_);}
	.st136{clip-path:url(#SVGID_214_);}
	.st137{clip-path:url(#SVGID_216_);}
	.st138{clip-path:url(#SVGID_216_);fill:none;}
	.st139{clip-path:url(#SVGID_218_);}
	.st140{clip-path:url(#SVGID_220_);}
	.st141{clip-path:url(#SVGID_222_);}
	.st142{clip-path:url(#SVGID_224_);}
	.st143{clip-path:url(#SVGID_226_);}
	.st144{clip-path:url(#SVGID_228_);}
	.st145{clip-path:url(#SVGID_230_);}
	.st146{clip-path:url(#SVGID_232_);}
	.st147{clip-path:url(#SVGID_234_);}
	.st148{clip-path:url(#SVGID_236_);}
	.st149{clip-path:url(#SVGID_238_);}
	.st150{clip-path:url(#SVGID_240_);}
	.st151{clip-path:url(#SVGID_242_);}
	.st152{clip-path:url(#SVGID_244_);}
	.st153{clip-path:url(#SVGID_246_);}
	.st154{clip-path:url(#SVGID_248_);}
	.st155{clip-path:url(#SVGID_250_);}
	.st156{clip-path:url(#SVGID_252_);}
	.st157{clip-path:url(#SVGID_254_);}
	.st158{clip-path:url(#SVGID_256_);}
	.st159{clip-path:url(#SVGID_258_);}
	.st160{clip-path:url(#SVGID_260_);}
	.st161{clip-path:url(#SVGID_262_);}
	.st162{clip-path:url(#SVGID_264_);}
	.st163{fill:#FCA886;}
</style>



<path class="st12" d="M452.4,1151.3c0.8-3,1.2-6.2,1.2-9.5c0-21-16.7-38.1-37.3-38.1c-20.6,0-37.3,17-37.3,38.1
	c0,3.3,0.4,6.5,1.2,9.5H452.4z"/>







<path class="st35" d="M330,870.9c-0.1-19.3,7.4-35.7,17.9-41.5c-2.2-0.4-4.5-0.5-6.9-0.4c-14.8,1-26.1,13.2-25.2,27.2
	c0.6,9.2,6.3,16.9,14.4,20.8C330.1,875,330,873,330,870.9z"/>
<ellipse class="st2" cx="534.9" cy="770.2" rx="30.2" ry="28.3"/>
<g>
	<g>
		<g>
			<path class="st31" d="M495.7,781.6c3-1.1,4.3-5,2.9-8.6c-1.4-3.7-4.9-5.8-7.8-4.7c-3,1.1-4.3,5-2.9,8.6
				C489.2,780.6,492.8,782.7,495.7,781.6z"/>
			<path class="st31" d="M500.5,794.3c3-1.1,4.3-5,2.9-8.6c-1.4-3.7-4.9-5.8-7.8-4.7c-3,1.1-4.3,5-2.9,8.6
				C494,793.4,497.5,795.4,500.5,794.3z"/>
			<path class="st31" d="M505.2,807.1c3-1.1,4.3-5,2.9-8.6c-1.4-3.7-4.9-5.8-7.8-4.7c-3,1.1-4.3,5-2.9,8.6
				C498.7,806.1,502.2,808.2,505.2,807.1z"/>
		</g>
		<g>
			<path class="st31" d="M446.3,781.6c-3-1.1-4.3-5-2.9-8.6c1.4-3.7,4.9-5.8,7.8-4.7c3,1.1,4.3,5,2.9,8.6
				C452.8,780.6,449.3,782.7,446.3,781.6z"/>
			<path class="st31" d="M441.6,794.3c-3-1.1-4.3-5-2.9-8.6c1.4-3.7,4.9-5.8,7.8-4.7c3,1.1,4.3,5,2.9,8.6
				C448,793.4,444.5,795.4,441.6,794.3z"/>
			<path class="st31" d="M436.8,807.1c-3-1.1-4.3-5-2.9-8.6c1.4-3.7,4.9-5.8,7.8-4.7c3,1.1,4.3,5,2.9,8.6
				C443.3,806.1,439.8,808.2,436.8,807.1z"/>
		</g>
	</g>
	<ellipse class="st31" cx="471" cy="805.8" rx="31.9" ry="6.4"/>
	<ellipse class="st31" cx="471" cy="766.6" rx="24" ry="21.9"/>
	<polygon class="st31" points="447.5,762.5 439,806 503.1,806 493.7,762.5 	"/>
</g>
<path class="st1" d="M386.6,708.4c0,11.8-9.5,21.4-21.3,21.4h-12.1c-11.8,0-21.3-9.6-21.3-21.4v-20.1c0-11.8,9.5-21.4,21.3-21.4
	h12.1c11.8,0,21.3,9.6,21.3,21.4V708.4z"/>

<path class="st13" d="M447.5,598.7c0-15.7-13.5-28.4-30.3-28.4c-16.7,0-30.3,12.7-30.3,28.4c0,0.8,0,1.6,0.1,2.4v34.3h60.3v-34.3
	C447.5,600.4,447.5,599.6,447.5,598.7z"/>
<g>
	<ellipse class="st17" cx="316.6" cy="594.2" rx="15.2" ry="17.4"/>
	<path class="st17" d="M303,585c-2.7-4.9-7.5-8.2-12.9-8.2c-8.4,0-15.2,7.8-15.2,17.4c0,9.6,6.8,17.4,15.2,17.4
		c5.4,0,10.2-3.3,12.9-8.2V585z"/>
</g>

<ellipse class="st31" cx="417.5" cy="494.8" rx="23.1" ry="24.6"/>
<path class="st1" d="M333.5,496.9c0-15.7-13.5-28.5-30.1-28.5c-16.6,0-30.1,12.8-30.1,28.5c0,0.8,0,1.6,0.1,2.4v55.4h60v-55.4
	C333.4,498.5,333.5,497.7,333.5,496.9z"/>
<path class="st1" d="M320.6,486.9c0,3.8-3.1,6.9-6.9,6.9H293c-3.8,0-6.9-3.1-6.9-6.9l0,0c0-3.8,3.1-6.9,6.9-6.9h20.8
	C317.6,480,320.6,483.1,320.6,486.9L320.6,486.9z"/>
<ellipse class="st1" cx="471.7" cy="405.1" rx="37.4" ry="37.5"/>
<ellipse class="st16" cx="303.6" cy="288" rx="10" ry="10"/>
<ellipse class="st6" cx="359.5" cy="288" rx="10" ry="10"/>
<path class="st12" d="M557.9,279.5c1.7-3,2.6-6.5,2.6-10.2v-30.9c0-11.8-9.6-21.4-21.5-21.4h-7.8c-11.8,0-21.5,9.6-21.5,21.4v30.9
	c0,3.7,0.9,7.2,2.6,10.2H557.9z"/>
<path class="st1" d="M494.3,263c0,10.7-8.7,19.3-19.5,19.3h-7.1c-10.8,0-19.5-8.7-19.5-19.3v-25.3c0-10.7,8.7-19.3,19.5-19.3h7.1
	c10.8,0,19.5,8.7,19.5,19.3V263z"/>

<path class="st1" d="M440.5,336.1c0,10.7-8.7,19.3-19.5,19.3h-7.1c-10.8,0-19.5-8.7-19.5-19.3v-25.3c0-10.7,8.7-19.3,19.5-19.3h7.1
	c10.8,0,19.5,8.7,19.5,19.3V336.1z"/>
<circle class="st0" cx="303.4" cy="248.3" r="22"/>
<circle class="st0" cx="359.3" cy="248.3" r="22"/>
<circle class="st0" cx="417.3" cy="248.3" r="22"/>
<circle class="st0" cx="471.2" cy="248.3" r="22"/>
<circle class="st0" cx="534.9" cy="248.3" r="22"/>
<g>
	<g>
		<polygon class="st16" points="339.3,254.9 336.5,254.9 336.5,236.5 342.2,233.6 		"/>
		<path class="st16" d="M372.9,220.7H360h-1.4h-12.9c-5.1,0-9.2,4.2-9.2,9.3v8.4v6c2.5-6.6,4.9-9.4,10.2-10.2
			c0.9,3.1,6.2,5.5,12.6,5.5c6.4,0,11.7-2.4,12.6-5.5c5.3,0.8,7.7,3.5,10.2,10.2v-6V230C382.1,224.9,378,220.7,372.9,220.7z"/>
	</g>
	<polygon class="st16" points="382.1,254.9 379.4,254.9 376.4,233.6 382.1,236.5 	"/>
</g>

<g>
	<circle class="st0" cx="303.4" cy="395.9" r="22"/>
	<circle class="st0" cx="359.3" cy="395.9" r="22"/>
	<circle class="st0" cx="417.3" cy="395.9" r="22"/>
	<circle class="st0" cx="471.2" cy="395.9" r="22"/>
	<circle class="st0" cx="534.9" cy="395.9" r="22"/>
	<g>
		<ellipse class="st1" cx="296.3" cy="405.6" rx="2.2" ry="2.2"/>
		<ellipse class="st1" cx="310.9" cy="405.6" rx="2.2" ry="2.2"/>
	</g>
	<g>
		<g>
			<path class="st2" d="M292.6,400.8c1.5-1.3,3.5-1.8,5.3-1.2c1.7,0.5,2.4-2.1,0.7-2.6c-2.8-0.8-5.8-0.1-7.9,1.9
				C289.5,400.1,291.4,402,292.6,400.8L292.6,400.8z"/>
		</g>
		<g>
			<path class="st2" d="M316.4,398.9c-2.2-2-5.1-2.7-7.9-1.9c-1.7,0.5-1,3.1,0.7,2.6c1.9-0.5,3.9-0.1,5.3,1.2
				C315.8,402,317.7,400.1,316.4,398.9L316.4,398.9z"/>
		</g>
	</g>
	<g>
		<ellipse class="st1" cx="353" cy="405.6" rx="2.2" ry="2.2"/>
		<ellipse class="st1" cx="367.6" cy="405.6" rx="2.2" ry="2.2"/>
	</g>
	<g>
		<g>
			<path class="st2" d="M349.4,400.8c1.5-1.3,3.5-1.8,5.3-1.2c1.7,0.5,2.4-2.1,0.7-2.6c-2.8-0.8-5.8-0.1-7.9,1.9
				C346.2,400.1,348.1,402,349.4,400.8L349.4,400.8z"/>
		</g>
		<g>
			<path class="st2" d="M373.1,398.9c-2.2-2-5.1-2.7-7.9-1.9c-1.7,0.5-1,3.1,0.7,2.6c1.9-0.5,3.9-0.1,5.3,1.2
				C372.5,402,374.4,400.1,373.1,398.9L373.1,398.9z"/>
		</g>
	</g>
	<g>
		<ellipse class="st1" cx="410" cy="405.6" rx="2.2" ry="2.2"/>
		<ellipse class="st1" cx="424.6" cy="405.6" rx="2.2" ry="2.2"/>
	</g>
	<g>
		<g>
			<path class="st2" d="M406.3,400.8c1.5-1.3,3.5-1.8,5.3-1.2c1.7,0.5,2.4-2.1,0.7-2.6c-2.8-0.8-5.8-0.1-7.9,1.9
				C403.2,400.1,405.1,402,406.3,400.8L406.3,400.8z"/>
		</g>
		<g>
			<path class="st2" d="M430.1,398.9c-2.2-2-5.1-2.7-7.9-1.9c-1.7,0.5-1,3.1,0.7,2.6c1.9-0.5,3.9-0.1,5.3,1.2
				C429.5,402,431.4,400.1,430.1,398.9L430.1,398.9z"/>
		</g>
	</g>
	<g>
		<ellipse class="st1" cx="463.9" cy="405.6" rx="2.2" ry="2.2"/>
		<ellipse class="st1" cx="478.5" cy="405.6" rx="2.2" ry="2.2"/>
	</g>
	<g>
		<g>
			<path class="st2" d="M460.3,400.8c1.5-1.3,3.5-1.8,5.3-1.2c1.7,0.5,2.4-2.1,0.7-2.6c-2.8-0.8-5.8-0.1-7.9,1.9
				C457.1,400.1,459,402,460.3,400.8L460.3,400.8z"/>
		</g>
		<g>
			<path class="st2" d="M484,398.9c-2.2-2-5.1-2.7-7.9-1.9c-1.7,0.5-1,3.1,0.7,2.6c1.9-0.5,3.9-0.1,5.3,1.2
				C483.4,402,485.3,400.1,484,398.9L484,398.9z"/>
		</g>
	</g>
	<g>
		<ellipse class="st1" cx="527.5" cy="405.6" rx="2.2" ry="2.2"/>
		<ellipse class="st1" cx="542.1" cy="405.6" rx="2.2" ry="2.2"/>
	</g>
	<g>
		<g>
			<path class="st2" d="M523.9,400.8c1.5-1.3,3.5-1.8,5.3-1.2c1.7,0.5,2.4-2.1,0.7-2.6c-2.8-0.8-5.8-0.1-7.9,1.9
				C520.7,400.1,522.6,402,523.9,400.8L523.9,400.8z"/>
		</g>
		<g>
			<path class="st2" d="M547.7,398.9c-2.2-2-5.1-2.7-7.9-1.9c-1.7,0.5-1,3.1,0.7,2.6c1.9-0.5,3.9-0.1,5.3,1.2
				C547,402,548.9,400.1,547.7,398.9L547.7,398.9z"/>
		</g>
	</g>
</g>
<g>
	<circle class="st0" cx="303.4" cy="497.4" r="22"/>
	<circle class="st0" cx="359.3" cy="497.4" r="22"/>
	<circle class="st0" cx="417.3" cy="497.4" r="22"/>
	<circle class="st0" cx="471.2" cy="497.4" r="22"/>
	<circle class="st0" cx="534.9" cy="497.4" r="22"/>
	<g>
		<ellipse class="st1" cx="296.3" cy="507.1" rx="2.2" ry="2.2"/>
		<ellipse class="st1" cx="310.9" cy="507.1" rx="2.2" ry="2.2"/>
	</g>
	<g>
		<g>
			<path class="st2" d="M292.6,502.2c1.5-1.3,3.5-1.8,5.3-1.2c1.7,0.5,2.4-2.1,0.7-2.6c-2.8-0.8-5.8-0.1-7.9,1.9
				C289.5,501.5,291.4,503.4,292.6,502.2L292.6,502.2z"/>
		</g>
		<g>
			<path class="st2" d="M316.4,500.3c-2.2-2-5.1-2.7-7.9-1.9c-1.7,0.5-1,3.1,0.7,2.6c1.9-0.5,3.9-0.1,5.3,1.2
				C315.8,503.4,317.7,501.5,316.4,500.3L316.4,500.3z"/>
		</g>
	</g>
	<g>
		<ellipse class="st1" cx="353" cy="507.1" rx="2.2" ry="2.2"/>
		<ellipse class="st1" cx="367.6" cy="507.1" rx="2.2" ry="2.2"/>
	</g>
	<g>
		<g>
			<path class="st2" d="M349.4,502.2c1.5-1.3,3.5-1.8,5.3-1.2c1.7,0.5,2.4-2.1,0.7-2.6c-2.8-0.8-5.8-0.1-7.9,1.9
				C346.2,501.5,348.1,503.4,349.4,502.2L349.4,502.2z"/>
		</g>
		<g>
			<path class="st2" d="M373.1,500.3c-2.2-2-5.1-2.7-7.9-1.9c-1.7,0.5-1,3.1,0.7,2.6c1.9-0.5,3.9-0.1,5.3,1.2
				C372.5,503.4,374.4,501.5,373.1,500.3L373.1,500.3z"/>
		</g>
	</g>
	<g>
		<ellipse class="st1" cx="410" cy="507.1" rx="2.2" ry="2.2"/>
		<ellipse class="st1" cx="424.6" cy="507.1" rx="2.2" ry="2.2"/>
	</g>
	<g>
		<g>
			<path class="st2" d="M406.3,502.2c1.5-1.3,3.5-1.8,5.3-1.2c1.7,0.5,2.4-2.1,0.7-2.6c-2.8-0.8-5.8-0.1-7.9,1.9
				C403.2,501.5,405.1,503.4,406.3,502.2L406.3,502.2z"/>
		</g>
		<g>
			<path class="st2" d="M430.1,500.3c-2.2-2-5.1-2.7-7.9-1.9c-1.7,0.5-1,3.1,0.7,2.6c1.9-0.5,3.9-0.1,5.3,1.2
				C429.5,503.4,431.4,501.5,430.1,500.3L430.1,500.3z"/>
		</g>
	</g>
	<g>
		<ellipse class="st1" cx="463.9" cy="507.1" rx="2.2" ry="2.2"/>
		<ellipse class="st1" cx="478.5" cy="507.1" rx="2.2" ry="2.2"/>
	</g>
	<g>
		<g>
			<path class="st2" d="M460.3,502.2c1.5-1.3,3.5-1.8,5.3-1.2c1.7,0.5,2.4-2.1,0.7-2.6c-2.8-0.8-5.8-0.1-7.9,1.9
				C457.1,501.5,459,503.4,460.3,502.2L460.3,502.2z"/>
		</g>
		<g>
			<path class="st2" d="M484,500.3c-2.2-2-5.1-2.7-7.9-1.9c-1.7,0.5-1,3.1,0.7,2.6c1.9-0.5,3.9-0.1,5.3,1.2
				C483.4,503.4,485.3,501.5,484,500.3L484,500.3z"/>
		</g>
	</g>
	<g>
		<ellipse class="st1" cx="527.5" cy="507.1" rx="2.2" ry="2.2"/>
		<ellipse class="st1" cx="542.1" cy="507.1" rx="2.2" ry="2.2"/>
	</g>
	<g>
		<g>
			<path class="st2" d="M523.9,502.2c1.5-1.3,3.5-1.8,5.3-1.2c1.7,0.5,2.4-2.1,0.7-2.6c-2.8-0.8-5.8-0.1-7.9,1.9
				C520.7,501.5,522.6,503.4,523.9,502.2L523.9,502.2z"/>
		</g>
		<g>
			<path class="st2" d="M547.7,500.3c-2.2-2-5.1-2.7-7.9-1.9c-1.7,0.5-1,3.1,0.7,2.6c1.9-0.5,3.9-0.1,5.3,1.2
				C547,503.4,548.9,501.5,547.7,500.3L547.7,500.3z"/>
		</g>
	</g>
</g>
<circle class="st0" cx="303.4" cy="602.5" r="22"/>
<circle class="st0" cx="359.3" cy="602.5" r="22"/>
<circle class="st0" cx="417.3" cy="602.5" r="22"/>
<circle class="st0" cx="471.2" cy="602.5" r="22"/>
<circle class="st0" cx="534.9" cy="602.5" r="22"/>
<g>
	<ellipse class="st1" cx="296.3" cy="612.2" rx="2.2" ry="2.2"/>
	<ellipse class="st1" cx="310.9" cy="612.2" rx="2.2" ry="2.2"/>
</g>
<g>
	<g>
		<path class="st2" d="M292.6,607.4c1.5-1.3,3.5-1.8,5.3-1.2c1.7,0.5,2.4-2.1,0.7-2.6c-2.8-0.8-5.8-0.1-7.9,1.9
			C289.5,606.6,291.4,608.5,292.6,607.4L292.6,607.4z"/>
	</g>
	<g>
		<path class="st2" d="M316.4,605.5c-2.2-2-5.1-2.7-7.9-1.9c-1.7,0.5-1,3.1,0.7,2.6c1.9-0.5,3.9-0.1,5.3,1.2
			C315.8,608.5,317.7,606.6,316.4,605.5L316.4,605.5z"/>
	</g>
</g>
<g>
	<ellipse class="st1" cx="353" cy="612.2" rx="2.2" ry="2.2"/>
	<ellipse class="st1" cx="367.6" cy="612.2" rx="2.2" ry="2.2"/>
</g>
<g>
	<g>
		<path class="st2" d="M349.4,607.4c1.5-1.3,3.5-1.8,5.3-1.2c1.7,0.5,2.4-2.1,0.7-2.6c-2.8-0.8-5.8-0.1-7.9,1.9
			C346.2,606.6,348.1,608.5,349.4,607.4L349.4,607.4z"/>
	</g>
	<g>
		<path class="st2" d="M373.1,605.5c-2.2-2-5.1-2.7-7.9-1.9c-1.7,0.5-1,3.1,0.7,2.6c1.9-0.5,3.9-0.1,5.3,1.2
			C372.5,608.5,374.4,606.6,373.1,605.5L373.1,605.5z"/>
	</g>
</g>
<g>
	<ellipse class="st1" cx="410" cy="612.2" rx="2.2" ry="2.2"/>
	<ellipse class="st1" cx="424.6" cy="612.2" rx="2.2" ry="2.2"/>
</g>
<g>
	<g>
		<path class="st2" d="M406.3,607.4c1.5-1.3,3.5-1.8,5.3-1.2c1.7,0.5,2.4-2.1,0.7-2.6c-2.8-0.8-5.8-0.1-7.9,1.9
			C403.2,606.6,405.1,608.5,406.3,607.4L406.3,607.4z"/>
	</g>
	<g>
		<path class="st2" d="M430.1,605.5c-2.2-2-5.1-2.7-7.9-1.9c-1.7,0.5-1,3.1,0.7,2.6c1.9-0.5,3.9-0.1,5.3,1.2
			C429.5,608.5,431.4,606.6,430.1,605.5L430.1,605.5z"/>
	</g>
</g>
<g>
	<ellipse class="st1" cx="463.9" cy="612.2" rx="2.2" ry="2.2"/>
	<ellipse class="st1" cx="478.5" cy="612.2" rx="2.2" ry="2.2"/>
</g>
<g>
	<g>
		<path class="st2" d="M460.3,607.4c1.5-1.3,3.5-1.8,5.3-1.2c1.7,0.5,2.4-2.1,0.7-2.6c-2.8-0.8-5.8-0.1-7.9,1.9
			C457.1,606.6,459,608.5,460.3,607.4L460.3,607.4z"/>
	</g>
	<g>
		<path class="st2" d="M484,605.5c-2.2-2-5.1-2.7-7.9-1.9c-1.7,0.5-1,3.1,0.7,2.6c1.9-0.5,3.9-0.1,5.3,1.2
			C483.4,608.5,485.3,606.6,484,605.5L484,605.5z"/>
	</g>
</g>
<g>
	<ellipse class="st1" cx="527.5" cy="612.2" rx="2.2" ry="2.2"/>
	<ellipse class="st1" cx="542.1" cy="612.2" rx="2.2" ry="2.2"/>
</g>
<g>
	<g>
		<path class="st2" d="M523.9,607.4c1.5-1.3,3.5-1.8,5.3-1.2c1.7,0.5,2.4-2.1,0.7-2.6c-2.8-0.8-5.8-0.1-7.9,1.9
			C520.7,606.6,522.6,608.5,523.9,607.4L523.9,607.4z"/>
	</g>
	<g>
		<path class="st2" d="M547.7,605.5c-2.2-2-5.1-2.7-7.9-1.9c-1.7,0.5-1,3.1,0.7,2.6c1.9-0.5,3.9-0.1,5.3,1.2
			C547,608.5,548.9,606.6,547.7,605.5L547.7,605.5z"/>
	</g>
</g>
<circle class="st0" cx="303.4" cy="696.4" r="22"/>
<circle class="st0" cx="359.3" cy="696.4" r="22"/>
<circle class="st0" cx="417.3" cy="696.4" r="22"/>
<circle class="st0" cx="471.2" cy="696.4" r="22"/>
<circle class="st0" cx="534.9" cy="696.4" r="22"/>
<g>
	<ellipse class="st1" cx="296.3" cy="706.1" rx="2.2" ry="2.2"/>
	<ellipse class="st1" cx="310.9" cy="706.1" rx="2.2" ry="2.2"/>
</g>
<g>
	<g>
		<path class="st2" d="M292.6,701.3c1.5-1.3,3.5-1.8,5.3-1.2c1.7,0.5,2.4-2.1,0.7-2.6c-2.8-0.8-5.8-0.1-7.9,1.9
			C289.5,700.6,291.4,702.5,292.6,701.3L292.6,701.3z"/>
	</g>
	<g>
		<path class="st2" d="M316.4,699.4c-2.2-2-5.1-2.7-7.9-1.9c-1.7,0.5-1,3.1,0.7,2.6c1.9-0.5,3.9-0.1,5.3,1.2
			C315.8,702.5,317.7,700.6,316.4,699.4L316.4,699.4z"/>
	</g>
</g>
<g>
	<ellipse class="st1" cx="353" cy="706.1" rx="2.2" ry="2.2"/>
	<ellipse class="st1" cx="367.6" cy="706.1" rx="2.2" ry="2.2"/>
</g>
<g>
	<g>
		<path class="st2" d="M349.4,701.3c1.5-1.3,3.5-1.8,5.3-1.2c1.7,0.5,2.4-2.1,0.7-2.6c-2.8-0.8-5.8-0.1-7.9,1.9
			C346.2,700.6,348.1,702.5,349.4,701.3L349.4,701.3z"/>
	</g>
	<g>
		<path class="st2" d="M373.1,699.4c-2.2-2-5.1-2.7-7.9-1.9c-1.7,0.5-1,3.1,0.7,2.6c1.9-0.5,3.9-0.1,5.3,1.2
			C372.5,702.5,374.4,700.6,373.1,699.4L373.1,699.4z"/>
	</g>
</g>
<g>
	<ellipse class="st1" cx="410" cy="706.1" rx="2.2" ry="2.2"/>
	<ellipse class="st1" cx="424.6" cy="706.1" rx="2.2" ry="2.2"/>
</g>
<g>
	<g>
		<path class="st2" d="M406.3,701.3c1.5-1.3,3.5-1.8,5.3-1.2c1.7,0.5,2.4-2.1,0.7-2.6c-2.8-0.8-5.8-0.1-7.9,1.9
			C403.2,700.6,405.1,702.5,406.3,701.3L406.3,701.3z"/>
	</g>
	<g>
		<path class="st2" d="M430.1,699.4c-2.2-2-5.1-2.7-7.9-1.9c-1.7,0.5-1,3.1,0.7,2.6c1.9-0.5,3.9-0.1,5.3,1.2
			C429.5,702.5,431.4,700.6,430.1,699.4L430.1,699.4z"/>
	</g>
</g>
<g>
	<ellipse class="st1" cx="463.9" cy="706.1" rx="2.2" ry="2.2"/>
	<ellipse class="st1" cx="478.5" cy="706.1" rx="2.2" ry="2.2"/>
</g>
<g>
	<g>
		<path class="st2" d="M460.3,701.3c1.5-1.3,3.5-1.8,5.3-1.2c1.7,0.5,2.4-2.1,0.7-2.6c-2.8-0.8-5.8-0.1-7.9,1.9
			C457.1,700.6,459,702.5,460.3,701.3L460.3,701.3z"/>
	</g>
	<g>
		<path class="st2" d="M484,699.4c-2.2-2-5.1-2.7-7.9-1.9c-1.7,0.5-1,3.1,0.7,2.6c1.9-0.5,3.9-0.1,5.3,1.2
			C483.4,702.5,485.3,700.6,484,699.4L484,699.4z"/>
	</g>
</g>
<g>
	<ellipse class="st1" cx="527.5" cy="706.1" rx="2.2" ry="2.2"/>
	<ellipse class="st1" cx="542.1" cy="706.1" rx="2.2" ry="2.2"/>
</g>
<g>
	<g>
		<path class="st2" d="M523.9,701.3c1.5-1.3,3.5-1.8,5.3-1.2c1.7,0.5,2.4-2.1,0.7-2.6c-2.8-0.8-5.8-0.1-7.9,1.9
			C520.7,700.6,522.6,702.5,523.9,701.3L523.9,701.3z"/>
	</g>
	<g>
		<path class="st2" d="M547.7,699.4c-2.2-2-5.1-2.7-7.9-1.9c-1.7,0.5-1,3.1,0.7,2.6c1.9-0.5,3.9-0.1,5.3,1.2
			C547,702.5,548.9,700.6,547.7,699.4L547.7,699.4z"/>
	</g>
</g>
<circle class="st0" cx="303.4" cy="769.5" r="22"/>
<circle class="st0" cx="359.3" cy="769.5" r="22"/>
<circle class="st0" cx="417.3" cy="769.5" r="22"/>
<circle class="st0" cx="471.2" cy="769.5" r="22"/>
<circle class="st0" cx="534.9" cy="769.5" r="22"/>
<g>
	<ellipse class="st1" cx="296.3" cy="779.2" rx="2.2" ry="2.2"/>
	<ellipse class="st1" cx="310.9" cy="779.2" rx="2.2" ry="2.2"/>
</g>
<g>
	<g>
		<path class="st2" d="M292.6,774.4c1.5-1.3,3.5-1.8,5.3-1.2c1.7,0.5,2.4-2.1,0.7-2.6c-2.8-0.8-5.8-0.1-7.9,1.9
			C289.5,773.7,291.4,775.6,292.6,774.4L292.6,774.4z"/>
	</g>
	<g>
		<path class="st2" d="M316.4,772.5c-2.2-2-5.1-2.7-7.9-1.9c-1.7,0.5-1,3.1,0.7,2.6c1.9-0.5,3.9-0.1,5.3,1.2
			C315.8,775.6,317.7,773.7,316.4,772.5L316.4,772.5z"/>
	</g>
</g>
<g>
	<ellipse class="st1" cx="353" cy="779.2" rx="2.2" ry="2.2"/>
	<ellipse class="st1" cx="367.6" cy="779.2" rx="2.2" ry="2.2"/>
</g>
<g>
	<g>
		<path class="st2" d="M349.4,774.4c1.5-1.3,3.5-1.8,5.3-1.2c1.7,0.5,2.4-2.1,0.7-2.6c-2.8-0.8-5.8-0.1-7.9,1.9
			C346.2,773.7,348.1,775.6,349.4,774.4L349.4,774.4z"/>
	</g>
	<g>
		<path class="st2" d="M373.1,772.5c-2.2-2-5.1-2.7-7.9-1.9c-1.7,0.5-1,3.1,0.7,2.6c1.9-0.5,3.9-0.1,5.3,1.2
			C372.5,775.6,374.4,773.7,373.1,772.5L373.1,772.5z"/>
	</g>
</g>
<g>
	<ellipse class="st1" cx="410" cy="779.2" rx="2.2" ry="2.2"/>
	<ellipse class="st1" cx="424.6" cy="779.2" rx="2.2" ry="2.2"/>
</g>
<g>
	<g>
		<path class="st2" d="M406.3,774.4c1.5-1.3,3.5-1.8,5.3-1.2c1.7,0.5,2.4-2.1,0.7-2.6c-2.8-0.8-5.8-0.1-7.9,1.9
			C403.2,773.7,405.1,775.6,406.3,774.4L406.3,774.4z"/>
	</g>
	<g>
		<path class="st2" d="M430.1,772.5c-2.2-2-5.1-2.7-7.9-1.9c-1.7,0.5-1,3.1,0.7,2.6c1.9-0.5,3.9-0.1,5.3,1.2
			C429.5,775.6,431.4,773.7,430.1,772.5L430.1,772.5z"/>
	</g>
</g>
<g>
	<ellipse class="st1" cx="463.9" cy="779.2" rx="2.2" ry="2.2"/>
	<ellipse class="st1" cx="478.5" cy="779.2" rx="2.2" ry="2.2"/>
</g>
<g>
	<g>
		<path class="st2" d="M460.3,774.4c1.5-1.3,3.5-1.8,5.3-1.2c1.7,0.5,2.4-2.1,0.7-2.6c-2.8-0.8-5.8-0.1-7.9,1.9
			C457.1,773.7,459,775.6,460.3,774.4L460.3,774.4z"/>
	</g>
	<g>
		<path class="st2" d="M484,772.5c-2.2-2-5.1-2.7-7.9-1.9c-1.7,0.5-1,3.1,0.7,2.6c1.9-0.5,3.9-0.1,5.3,1.2
			C483.4,775.6,485.3,773.7,484,772.5L484,772.5z"/>
	</g>
</g>
<g>
	<ellipse class="st1" cx="527.5" cy="779.2" rx="2.2" ry="2.2"/>
	<ellipse class="st1" cx="542.1" cy="779.2" rx="2.2" ry="2.2"/>
</g>
<g>
	<g>
		<path class="st2" d="M523.9,774.4c1.5-1.3,3.5-1.8,5.3-1.2c1.7,0.5,2.4-2.1,0.7-2.6c-2.8-0.8-5.8-0.1-7.9,1.9
			C520.7,773.7,522.6,775.6,523.9,774.4L523.9,774.4z"/>
	</g>
	<g>
		<path class="st2" d="M547.7,772.5c-2.2-2-5.1-2.7-7.9-1.9c-1.7,0.5-1,3.1,0.7,2.6c1.9-0.5,3.9-0.1,5.3,1.2
			C547,775.6,548.9,773.7,547.7,772.5L547.7,772.5z"/>
	</g>
</g>
<circle class="st0" cx="303.4" cy="852" r="22"/>
<circle class="st0" cx="359.3" cy="852" r="22"/>
<circle class="st0" cx="417.3" cy="852" r="22"/>
<circle class="st0" cx="471.2" cy="852" r="22"/>
<circle class="st0" cx="534.9" cy="852" r="22"/>
<g>
	<ellipse class="st1" cx="296.3" cy="861.7" rx="2.2" ry="2.2"/>
	<ellipse class="st1" cx="310.9" cy="861.7" rx="2.2" ry="2.2"/>
</g>
<g>
	<g>
		<path class="st2" d="M292.6,856.9c1.5-1.3,3.5-1.8,5.3-1.2c1.7,0.5,2.4-2.1,0.7-2.6c-2.8-0.8-5.8-0.1-7.9,1.9
			C289.5,856.2,291.4,858.1,292.6,856.9L292.6,856.9z"/>
	</g>
	<g>
		<path class="st2" d="M316.4,855c-2.2-2-5.1-2.7-7.9-1.9c-1.7,0.5-1,3.1,0.7,2.6c1.9-0.5,3.9-0.1,5.3,1.2
			C315.8,858.1,317.7,856.2,316.4,855L316.4,855z"/>
	</g>
</g>
<g>
	<ellipse class="st1" cx="353" cy="861.7" rx="2.2" ry="2.2"/>
	<ellipse class="st1" cx="367.6" cy="861.7" rx="2.2" ry="2.2"/>
</g>
<g>
	<g>
		<path class="st2" d="M349.4,856.9c1.5-1.3,3.5-1.8,5.3-1.2c1.7,0.5,2.4-2.1,0.7-2.6c-2.8-0.8-5.8-0.1-7.9,1.9
			C346.2,856.2,348.1,858.1,349.4,856.9L349.4,856.9z"/>
	</g>
	<g>
		<path class="st2" d="M373.1,855c-2.2-2-5.1-2.7-7.9-1.9c-1.7,0.5-1,3.1,0.7,2.6c1.9-0.5,3.9-0.1,5.3,1.2
			C372.5,858.1,374.4,856.2,373.1,855L373.1,855z"/>
	</g>
</g>
<g>
	<ellipse class="st1" cx="410" cy="861.7" rx="2.2" ry="2.2"/>
	<ellipse class="st1" cx="424.6" cy="861.7" rx="2.2" ry="2.2"/>
</g>
<g>
	<g>
		<path class="st2" d="M406.3,856.9c1.5-1.3,3.5-1.8,5.3-1.2c1.7,0.5,2.4-2.1,0.7-2.6c-2.8-0.8-5.8-0.1-7.9,1.9
			C403.2,856.2,405.1,858.1,406.3,856.9L406.3,856.9z"/>
	</g>
	<g>
		<path class="st2" d="M430.1,855c-2.2-2-5.1-2.7-7.9-1.9c-1.7,0.5-1,3.1,0.7,2.6c1.9-0.5,3.9-0.1,5.3,1.2
			C429.5,858.1,431.4,856.2,430.1,855L430.1,855z"/>
	</g>
</g>
<g>
	<ellipse class="st1" cx="463.9" cy="861.7" rx="2.2" ry="2.2"/>
	<ellipse class="st1" cx="478.5" cy="861.7" rx="2.2" ry="2.2"/>
</g>
<g>
	<g>
		<path class="st2" d="M460.3,856.9c1.5-1.3,3.5-1.8,5.3-1.2c1.7,0.5,2.4-2.1,0.7-2.6c-2.8-0.8-5.8-0.1-7.9,1.9
			C457.1,856.2,459,858.1,460.3,856.9L460.3,856.9z"/>
	</g>
	<g>
		<path class="st2" d="M484,855c-2.2-2-5.1-2.7-7.9-1.9c-1.7,0.5-1,3.1,0.7,2.6c1.9-0.5,3.9-0.1,5.3,1.2
			C483.4,858.1,485.3,856.2,484,855L484,855z"/>
	</g>
</g>
<g>
	<ellipse class="st1" cx="527.5" cy="861.7" rx="2.2" ry="2.2"/>
	<ellipse class="st1" cx="542.1" cy="861.7" rx="2.2" ry="2.2"/>
</g>
<g>
	<g>
		<path class="st2" d="M523.9,856.9c1.5-1.3,3.5-1.8,5.3-1.2c1.7,0.5,2.4-2.1,0.7-2.6c-2.8-0.8-5.8-0.1-7.9,1.9
			C520.7,856.2,522.6,858.1,523.9,856.9L523.9,856.9z"/>
	</g>
	<g>
		<path class="st2" d="M547.7,855c-2.2-2-5.1-2.7-7.9-1.9c-1.7,0.5-1,3.1,0.7,2.6c1.9-0.5,3.9-0.1,5.3,1.2
			C547,858.1,548.9,856.2,547.7,855L547.7,855z"/>
	</g>
</g>
<circle class="st0" cx="303.4" cy="942.8" r="22"/>
<circle class="st0" cx="359.3" cy="942.8" r="22"/>
<circle class="st0" cx="417.3" cy="942.8" r="22"/>
<circle class="st0" cx="471.2" cy="942.8" r="22"/>
<circle class="st0" cx="534.9" cy="942.8" r="22"/>
<g>
	<ellipse class="st1" cx="296.3" cy="952.5" rx="2.2" ry="2.2"/>
	<ellipse class="st1" cx="310.9" cy="952.5" rx="2.2" ry="2.2"/>
</g>
<g>
	<g>
		<path class="st2" d="M292.6,947.7c1.5-1.3,3.5-1.8,5.3-1.2c1.7,0.5,2.4-2.1,0.7-2.6c-2.8-0.8-5.8-0.1-7.9,1.9
			C289.5,946.9,291.4,948.8,292.6,947.7L292.6,947.7z"/>
	</g>
	<g>
		<path class="st2" d="M316.4,945.8c-2.2-2-5.1-2.7-7.9-1.9c-1.7,0.5-1,3.1,0.7,2.6c1.9-0.5,3.9-0.1,5.3,1.2
			C315.8,948.8,317.7,946.9,316.4,945.8L316.4,945.8z"/>
	</g>
</g>
<g>
	<ellipse class="st1" cx="353" cy="952.5" rx="2.2" ry="2.2"/>
	<ellipse class="st1" cx="367.6" cy="952.5" rx="2.2" ry="2.2"/>
</g>
<g>
	<g>
		<path class="st2" d="M349.4,947.7c1.5-1.3,3.5-1.8,5.3-1.2c1.7,0.5,2.4-2.1,0.7-2.6c-2.8-0.8-5.8-0.1-7.9,1.9
			C346.2,946.9,348.1,948.8,349.4,947.7L349.4,947.7z"/>
	</g>
	<g>
		<path class="st2" d="M373.1,945.8c-2.2-2-5.1-2.7-7.9-1.9c-1.7,0.5-1,3.1,0.7,2.6c1.9-0.5,3.9-0.1,5.3,1.2
			C372.5,948.8,374.4,946.9,373.1,945.8L373.1,945.8z"/>
	</g>
</g>
<g>
	<ellipse class="st1" cx="410" cy="952.5" rx="2.2" ry="2.2"/>
	<ellipse class="st1" cx="424.6" cy="952.5" rx="2.2" ry="2.2"/>
</g>
<g>
	<g>
		<path class="st2" d="M406.3,947.7c1.5-1.3,3.5-1.8,5.3-1.2c1.7,0.5,2.4-2.1,0.7-2.6c-2.8-0.8-5.8-0.1-7.9,1.9
			C403.2,946.9,405.1,948.8,406.3,947.7L406.3,947.7z"/>
	</g>
	<g>
		<path class="st2" d="M430.1,945.8c-2.2-2-5.1-2.7-7.9-1.9c-1.7,0.5-1,3.1,0.7,2.6c1.9-0.5,3.9-0.1,5.3,1.2
			C429.5,948.8,431.4,946.9,430.1,945.8L430.1,945.8z"/>
	</g>
</g>
<g>
	<ellipse class="st1" cx="463.9" cy="952.5" rx="2.2" ry="2.2"/>
	<ellipse class="st1" cx="478.5" cy="952.5" rx="2.2" ry="2.2"/>
</g>
<g>
	<g>
		<path class="st2" d="M460.3,947.7c1.5-1.3,3.5-1.8,5.3-1.2c1.7,0.5,2.4-2.1,0.7-2.6c-2.8-0.8-5.8-0.1-7.9,1.9
			C457.1,946.9,459,948.8,460.3,947.7L460.3,947.7z"/>
	</g>
	<g>
		<path class="st2" d="M484,945.8c-2.2-2-5.1-2.7-7.9-1.9c-1.7,0.5-1,3.1,0.7,2.6c1.9-0.5,3.9-0.1,5.3,1.2
			C483.4,948.8,485.3,946.9,484,945.8L484,945.8z"/>
	</g>
</g>
<g>
	<ellipse class="st1" cx="527.5" cy="952.5" rx="2.2" ry="2.2"/>
	<ellipse class="st1" cx="542.1" cy="952.5" rx="2.2" ry="2.2"/>
</g>
<g>
	<g>
		<path class="st2" d="M523.9,947.7c1.5-1.3,3.5-1.8,5.3-1.2c1.7,0.5,2.4-2.1,0.7-2.6c-2.8-0.8-5.8-0.1-7.9,1.9
			C520.7,946.9,522.6,948.8,523.9,947.7L523.9,947.7z"/>
	</g>
	<g>
		<path class="st2" d="M547.7,945.8c-2.2-2-5.1-2.7-7.9-1.9c-1.7,0.5-1,3.1,0.7,2.6c1.9-0.5,3.9-0.1,5.3,1.2
			C547,948.8,548.9,946.9,547.7,945.8L547.7,945.8z"/>
	</g>
</g>
<circle class="st0" cx="303.4" cy="1029.7" r="22"/>
<circle class="st0" cx="359.3" cy="1029.7" r="22"/>
<circle class="st0" cx="417.3" cy="1029.7" r="22"/>
<circle class="st0" cx="471.2" cy="1029.7" r="22"/>
<circle class="st0" cx="534.9" cy="1029.7" r="22"/>
<g>
	<ellipse class="st1" cx="296.3" cy="1039.4" rx="2.2" ry="2.2"/>
	<ellipse class="st1" cx="310.9" cy="1039.4" rx="2.2" ry="2.2"/>
</g>
<g>
	<g>
		<path class="st2" d="M292.6,1034.6c1.5-1.3,3.5-1.8,5.3-1.2c1.7,0.5,2.4-2.1,0.7-2.6c-2.8-0.8-5.8-0.1-7.9,1.9
			C289.5,1033.8,291.4,1035.7,292.6,1034.6L292.6,1034.6z"/>
	</g>
	<g>
		<path class="st2" d="M316.4,1032.7c-2.2-2-5.1-2.7-7.9-1.9c-1.7,0.5-1,3.1,0.7,2.6c1.9-0.5,3.9-0.1,5.3,1.2
			C315.8,1035.7,317.7,1033.8,316.4,1032.7L316.4,1032.7z"/>
	</g>
</g>
<g>
	<ellipse class="st1" cx="353" cy="1039.4" rx="2.2" ry="2.2"/>
	<ellipse class="st1" cx="367.6" cy="1039.4" rx="2.2" ry="2.2"/>
</g>
<g>
	<g>
		<path class="st2" d="M349.4,1034.6c1.5-1.3,3.5-1.8,5.3-1.2c1.7,0.5,2.4-2.1,0.7-2.6c-2.8-0.8-5.8-0.1-7.9,1.9
			C346.2,1033.8,348.1,1035.7,349.4,1034.6L349.4,1034.6z"/>
	</g>
	<g>
		<path class="st2" d="M373.1,1032.7c-2.2-2-5.1-2.7-7.9-1.9c-1.7,0.5-1,3.1,0.7,2.6c1.9-0.5,3.9-0.1,5.3,1.2
			C372.5,1035.7,374.4,1033.8,373.1,1032.7L373.1,1032.7z"/>
	</g>
</g>
<g>
	<ellipse class="st1" cx="410" cy="1039.4" rx="2.2" ry="2.2"/>
	<ellipse class="st1" cx="424.6" cy="1039.4" rx="2.2" ry="2.2"/>
</g>
<g>
	<g>
		<path class="st2" d="M406.3,1034.6c1.5-1.3,3.5-1.8,5.3-1.2c1.7,0.5,2.4-2.1,0.7-2.6c-2.8-0.8-5.8-0.1-7.9,1.9
			C403.2,1033.8,405.1,1035.7,406.3,1034.6L406.3,1034.6z"/>
	</g>
	<g>
		<path class="st2" d="M430.1,1032.7c-2.2-2-5.1-2.7-7.9-1.9c-1.7,0.5-1,3.1,0.7,2.6c1.9-0.5,3.9-0.1,5.3,1.2
			C429.5,1035.7,431.4,1033.8,430.1,1032.7L430.1,1032.7z"/>
	</g>
</g>
<g>
	<ellipse class="st1" cx="463.9" cy="1039.4" rx="2.2" ry="2.2"/>
	<ellipse class="st1" cx="478.5" cy="1039.4" rx="2.2" ry="2.2"/>
</g>
<g>
	<g>
		<path class="st2" d="M460.3,1034.6c1.5-1.3,3.5-1.8,5.3-1.2c1.7,0.5,2.4-2.1,0.7-2.6c-2.8-0.8-5.8-0.1-7.9,1.9
			C457.1,1033.8,459,1035.7,460.3,1034.6L460.3,1034.6z"/>
	</g>
	<g>
		<path class="st2" d="M484,1032.7c-2.2-2-5.1-2.7-7.9-1.9c-1.7,0.5-1,3.1,0.7,2.6c1.9-0.5,3.9-0.1,5.3,1.2
			C483.4,1035.7,485.3,1033.8,484,1032.7L484,1032.7z"/>
	</g>
</g>
<g>
	<ellipse class="st1" cx="527.5" cy="1039.4" rx="2.2" ry="2.2"/>
	<ellipse class="st1" cx="542.1" cy="1039.4" rx="2.2" ry="2.2"/>
</g>
<g>
	<g>
		<path class="st2" d="M523.9,1034.6c1.5-1.3,3.5-1.8,5.3-1.2c1.7,0.5,2.4-2.1,0.7-2.6c-2.8-0.8-5.8-0.1-7.9,1.9
			C520.7,1033.8,522.6,1035.7,523.9,1034.6L523.9,1034.6z"/>
	</g>
	<g>
		<path class="st2" d="M547.7,1032.7c-2.2-2-5.1-2.7-7.9-1.9c-1.7,0.5-1,3.1,0.7,2.6c1.9-0.5,3.9-0.1,5.3,1.2
			C547,1035.7,548.9,1033.8,547.7,1032.7L547.7,1032.7z"/>
	</g>
</g>
<g>
	<circle class="st0" cx="303.4" cy="1128.4" r="22"/>
	<circle class="st0" cx="359.3" cy="1128.4" r="22"/>
	<circle class="st0" cx="417.3" cy="1128.4" r="22"/>
	<circle class="st0" cx="471.2" cy="1128.4" r="22"/>
	<circle class="st0" cx="534.9" cy="1128.4" r="22"/>
	<g>
		<ellipse class="st1" cx="296.3" cy="1138.1" rx="2.2" ry="2.2"/>
		<ellipse class="st1" cx="310.9" cy="1138.1" rx="2.2" ry="2.2"/>
	</g>
	<g>
		<g>
			<path class="st2" d="M292.6,1133.2c1.5-1.3,3.5-1.8,5.3-1.2c1.7,0.5,2.4-2.1,0.7-2.6c-2.8-0.8-5.8-0.1-7.9,1.9
				C289.5,1132.5,291.4,1134.4,292.6,1133.2L292.6,1133.2z"/>
		</g>
		<g>
			<path class="st2" d="M316.4,1131.4c-2.2-2-5.1-2.7-7.9-1.9c-1.7,0.5-1,3.1,0.7,2.6c1.9-0.5,3.9-0.1,5.3,1.2
				C315.8,1134.4,317.7,1132.5,316.4,1131.4L316.4,1131.4z"/>
		</g>
	</g>
	<g>
		<ellipse class="st1" cx="353" cy="1138.1" rx="2.2" ry="2.2"/>
		<ellipse class="st1" cx="367.6" cy="1138.1" rx="2.2" ry="2.2"/>
	</g>
	<g>
		<g>
			<path class="st2" d="M349.4,1133.2c1.5-1.3,3.5-1.8,5.3-1.2c1.7,0.5,2.4-2.1,0.7-2.6c-2.8-0.8-5.8-0.1-7.9,1.9
				C346.2,1132.5,348.1,1134.4,349.4,1133.2L349.4,1133.2z"/>
		</g>
		<g>
			<path class="st2" d="M373.1,1131.4c-2.2-2-5.1-2.7-7.9-1.9c-1.7,0.5-1,3.1,0.7,2.6c1.9-0.5,3.9-0.1,5.3,1.2
				C372.5,1134.4,374.4,1132.5,373.1,1131.4L373.1,1131.4z"/>
		</g>
	</g>
	<g>
		<ellipse class="st1" cx="410" cy="1138.1" rx="2.2" ry="2.2"/>
		<ellipse class="st1" cx="424.6" cy="1138.1" rx="2.2" ry="2.2"/>
	</g>
	<g>
		<g>
			<path class="st2" d="M406.3,1133.2c1.5-1.3,3.5-1.8,5.3-1.2c1.7,0.5,2.4-2.1,0.7-2.6c-2.8-0.8-5.8-0.1-7.9,1.9
				C403.2,1132.5,405.1,1134.4,406.3,1133.2L406.3,1133.2z"/>
		</g>
		<g>
			<path class="st2" d="M430.1,1131.4c-2.2-2-5.1-2.7-7.9-1.9c-1.7,0.5-1,3.1,0.7,2.6c1.9-0.5,3.9-0.1,5.3,1.2
				C429.5,1134.4,431.4,1132.5,430.1,1131.4L430.1,1131.4z"/>
		</g>
	</g>
	<g>
		<ellipse class="st1" cx="463.9" cy="1138.1" rx="2.2" ry="2.2"/>
		<ellipse class="st1" cx="478.5" cy="1138.1" rx="2.2" ry="2.2"/>
	</g>
	<g>
		<g>
			<path class="st2" d="M460.3,1133.2c1.5-1.3,3.5-1.8,5.3-1.2c1.7,0.5,2.4-2.1,0.7-2.6c-2.8-0.8-5.8-0.1-7.9,1.9
				C457.1,1132.5,459,1134.4,460.3,1133.2L460.3,1133.2z"/>
		</g>
		<g>
			<path class="st2" d="M484,1131.4c-2.2-2-5.1-2.7-7.9-1.9c-1.7,0.5-1,3.1,0.7,2.6c1.9-0.5,3.9-0.1,5.3,1.2
				C483.4,1134.4,485.3,1132.5,484,1131.4L484,1131.4z"/>
		</g>
	</g>
	<g>
		<ellipse class="st1" cx="527.5" cy="1138.1" rx="2.2" ry="2.2"/>
		<ellipse class="st1" cx="542.1" cy="1138.1" rx="2.2" ry="2.2"/>
	</g>
	<g>
		<g>
			<path class="st2" d="M523.9,1133.2c1.5-1.3,3.5-1.8,5.3-1.2c1.7,0.5,2.4-2.1,0.7-2.6c-2.8-0.8-5.8-0.1-7.9,1.9
				C520.7,1132.5,522.6,1134.4,523.9,1133.2L523.9,1133.2z"/>
		</g>
		<g>
			<path class="st2" d="M547.7,1131.4c-2.2-2-5.1-2.7-7.9-1.9c-1.7,0.5-1,3.1,0.7,2.6c1.9-0.5,3.9-0.1,5.3,1.2
				C547,1134.4,548.9,1132.5,547.7,1131.4L547.7,1131.4z"/>
		</g>
	</g>
</g>
<g>
	<circle class="st0" cx="303.4" cy="315.7" r="22"/>
	<circle class="st0" cx="359.3" cy="315.7" r="22"/>
	<circle class="st0" cx="417.3" cy="315.7" r="22"/>
	<circle class="st0" cx="471.2" cy="315.7" r="22"/>
	<circle class="st0" cx="534.9" cy="315.7" r="22"/>
	<g>
		<ellipse class="st1" cx="296.3" cy="326.3" rx="2.2" ry="2.2"/>
		<ellipse class="st1" cx="310.9" cy="326.3" rx="2.2" ry="2.2"/>
	</g>
	<g>
		<g>
			<path class="st2" d="M292.6,321.4c1.5-1.3,3.5-1.8,5.3-1.2c1.7,0.5,2.4-2.1,0.7-2.6c-2.8-0.8-5.8-0.1-7.9,1.9
				C289.5,320.7,291.4,322.6,292.6,321.4L292.6,321.4z"/>
		</g>
		<g>
			<path class="st2" d="M316.4,319.5c-2.2-2-5.1-2.7-7.9-1.9c-1.7,0.5-1,3.1,0.7,2.6c1.9-0.5,3.9-0.1,5.3,1.2
				C315.8,322.6,317.7,320.7,316.4,319.5L316.4,319.5z"/>
		</g>
	</g>
	<g>
		<ellipse class="st1" cx="353" cy="326.3" rx="2.2" ry="2.2"/>
		<ellipse class="st1" cx="367.6" cy="326.3" rx="2.2" ry="2.2"/>
	</g>
	<g>
		<g>
			<path class="st2" d="M349.4,321.4c1.5-1.3,3.5-1.8,5.3-1.2c1.7,0.5,2.4-2.1,0.7-2.6c-2.8-0.8-5.8-0.1-7.9,1.9
				C346.2,320.7,348.1,322.6,349.4,321.4L349.4,321.4z"/>
		</g>
		<g>
			<path class="st2" d="M373.1,319.5c-2.2-2-5.1-2.7-7.9-1.9c-1.7,0.5-1,3.1,0.7,2.6c1.9-0.5,3.9-0.1,5.3,1.2
				C372.5,322.6,374.4,320.7,373.1,319.5L373.1,319.5z"/>
		</g>
	</g>
	<g>
		<ellipse class="st1" cx="410" cy="326.3" rx="2.2" ry="2.2"/>
		<ellipse class="st1" cx="424.6" cy="326.3" rx="2.2" ry="2.2"/>
	</g>
	<g>
		<g>
			<path class="st2" d="M406.3,321.4c1.5-1.3,3.5-1.8,5.3-1.2c1.7,0.5,2.4-2.1,0.7-2.6c-2.8-0.8-5.8-0.1-7.9,1.9
				C403.2,320.7,405.1,322.6,406.3,321.4L406.3,321.4z"/>
		</g>
		<g>
			<path class="st2" d="M430.1,319.5c-2.2-2-5.1-2.7-7.9-1.9c-1.7,0.5-1,3.1,0.7,2.6c1.9-0.5,3.9-0.1,5.3,1.2
				C429.5,322.6,431.4,320.7,430.1,319.5L430.1,319.5z"/>
		</g>
	</g>
	<g>
		<ellipse class="st1" cx="463.9" cy="326.3" rx="2.2" ry="2.2"/>
		<ellipse class="st1" cx="478.5" cy="326.3" rx="2.2" ry="2.2"/>
	</g>
	<g>
		<g>
			<path class="st2" d="M460.3,321.4c1.5-1.3,3.5-1.8,5.3-1.2c1.7,0.5,2.4-2.1,0.7-2.6c-2.8-0.8-5.8-0.1-7.9,1.9
				C457.1,320.7,459,322.6,460.3,321.4L460.3,321.4z"/>
		</g>
		<g>
			<path class="st2" d="M484,319.5c-2.2-2-5.1-2.7-7.9-1.9c-1.7,0.5-1,3.1,0.7,2.6c1.9-0.5,3.9-0.1,5.3,1.2
				C483.4,322.6,485.3,320.7,484,319.5L484,319.5z"/>
		</g>
	</g>
	<g>
		<ellipse class="st1" cx="527.5" cy="326.3" rx="2.2" ry="2.2"/>
		<ellipse class="st1" cx="542.1" cy="326.3" rx="2.2" ry="2.2"/>
	</g>
	<g>
		<g>
			<path class="st2" d="M523.9,321.4c1.5-1.3,3.5-1.8,5.3-1.2c1.7,0.5,2.4-2.1,0.7-2.6c-2.8-0.8-5.8-0.1-7.9,1.9
				C520.7,320.7,522.6,322.6,523.9,321.4L523.9,321.4z"/>
		</g>
		<g>
			<path class="st2" d="M547.7,319.5c-2.2-2-5.1-2.7-7.9-1.9c-1.7,0.5-1,3.1,0.7,2.6c1.9-0.5,3.9-0.1,5.3,1.2
				C547,322.6,548.9,320.7,547.7,319.5L547.7,319.5z"/>
		</g>
	</g>
</g>

<path class="st6" d="M359.3,288.6c-12.7,0-22.9,9.4-22.9,21.1c0,3.9,1.1,7.5,3.1,10.6l2.3-16.4c1.3-0.9,2.9-1.5,4.8-1.8
	c0.9,3.1,6.3,5.5,12.7,5.5c6.4,0,11.8-2.4,12.7-5.5c2,0.3,3.5,0.9,4.8,1.8l2.3,16.4c2-3.1,3.1-6.7,3.1-10.6
	C382.2,298,372,288.6,359.3,288.6z"/>
<g>
	<path class="st1" d="M471.2,220.7c-12.7,0-22.9,10.6-22.9,23.6c0,4.3,1.1,8.4,3.1,11.9l2.3-18.4c1.3-1,2.9-1.7,4.8-2
		c0.9,3.5,6.3,6.2,12.7,6.2c6.4,0,11.8-2.7,12.7-6.2c2,0.3,3.5,1,4.8,2l2.3,18.4c2-3.5,3.1-7.5,3.1-11.9
		C494.2,231.3,483.9,220.7,471.2,220.7z"/>
	<ellipse class="st1" cx="471.2" cy="237.6" rx="17.8" ry="6.5"/>
</g>
<ellipse class="st1" cx="417.3" cy="286.6" rx="10" ry="10"/>
<g>
	<path class="st1" d="M417.3,287.9c-12.7,0-22.9,10.6-22.9,23.6c0,4.3,1.1,8.4,3.1,11.9l2.3-18.4c1.3-1,2.9-1.7,4.8-2
		c0.9,3.5,6.3,6.2,12.7,6.2c6.4,0,11.8-2.7,12.7-6.2c2,0.3,3.5,1,4.8,2l2.3,18.4c2-3.5,3.1-7.5,3.1-11.9
		C440.2,298.5,429.9,287.9,417.3,287.9z"/>
	<ellipse class="st1" cx="417.3" cy="304.8" rx="17.8" ry="6.5"/>
</g>
<g>
	<path class="st12" d="M535.1,217.7c-12.6,0-22.8,10.6-22.8,23.6c0,4.3,1.1,8.4,3.1,11.9l2.3-18.4c1.3-1,2.9-1.7,4.8-2
		c0.9,3.5,6.2,6.2,12.7,6.2c6.4,0,11.7-2.7,12.6-6.2c1.9,0.3,3.5,1,4.8,2l2.3,18.4c2-3.5,3.1-7.5,3.1-11.9
		C558,228.3,547.7,217.7,535.1,217.7z"/>
	<ellipse class="st12" cx="535.1" cy="234.6" rx="17.7" ry="6.5"/>
</g>
<path class="st12" d="M303.4,374.4c-12.6,0-22.8,9.4-22.8,21.1c0,3.9,1.1,7.5,3.1,10.6l2.3-16.4l34.9,0l2.3,16.4
	c2-3.1,3.1-6.7,3.1-10.6C326.2,383.8,316,374.4,303.4,374.4z"/>
<g>
	<path class="st31" d="M340,399.1c-0.4-1.7-0.6-3.4-0.6-5.2c0-11.5,8.9-20.9,19.9-20.9c11,0,19.9,9.3,19.9,20.9
		c0,1.8-0.2,3.6-0.6,5.2h3.3c0.4-1.9,0.6-3.8,0.6-5.8c0-14.4-10.4-26.1-23.1-26.1c-12.8,0-23.1,11.7-23.1,26.1c0,2,0.2,3.9,0.6,5.8
		H340z"/>
	<path class="st31" d="M372,374.2c1.6,3.9-4.4,10.1-13.3,13.8c-9,3.7-17.5,3.5-19.1-0.5c-1.6-3.9,4.4-10.1,13.3-13.8
		C361.9,370.1,370.4,370.3,372,374.2z"/>
</g>
<g>
	<path class="st31" d="M451.9,323.5c-0.4-1.7-0.6-3.4-0.6-5.2c0-11.5,8.9-20.9,19.9-20.9c11,0,19.9,9.3,19.9,20.9
		c0,1.8-0.2,3.6-0.6,5.2h3.3c0.4-1.9,0.6-3.8,0.6-5.8c0-14.4-10.4-26.1-23.1-26.1c-12.8,0-23.1,11.7-23.1,26.1c0,2,0.2,3.9,0.6,5.8
		H451.9z"/>
	<path class="st31" d="M491.9,311.5c-1.7,3.9-10.3,4.1-19.2,0.3c-8.9-3.7-14.9-10-13.2-13.9c1.7-3.9,10.3-4.1,19.2-0.3
		C487.6,301.3,493.6,307.6,491.9,311.5z"/>
</g>
<g>
	<path class="st13" d="M417.4,366.8c-12.7,0-22.9,10.6-22.9,23.6c0,4.3,1.1,8.4,3.1,11.9l2.9-22.6h33.8l2.9,22.6
		c2-3.5,3.1-7.6,3.1-11.9C440.4,377.3,430.1,366.8,417.4,366.8z"/>
</g>
<g>
	<g>
		<path class="st13" d="M417.3,378.7c-1-4-5-6.5-9-5.5l-7.4,1.8c-0.8,1.7-1.5,3.4-2.2,5.2c-0.3,5.2-1.1,11.3-1.1,11.3l14.2-3.7
			C415.8,386.8,418.3,382.8,417.3,378.7z"/>
	</g>
	<g>
		<g>
			<path class="st13" d="M432.7,374.7l-6.1-1.5c-4-1-8,1.5-9,5.5c-1,4,1.5,8.1,5.5,9.1l14.2,3.7c0,0-0.8-6.2-1.1-11.4
				C435,378.3,433.8,376.5,432.7,374.7z"/>
		</g>
	</g>
</g>

<g>
	<g>
		<g>
			<g>
				
					<ellipse transform="matrix(6.666803e-02 -0.9978 0.9978 6.666803e-02 -29.3851 767.2286)" class="st13" cx="395.4" cy="399.3" rx="5.8" ry="2.7"/>
				
					<ellipse transform="matrix(6.666912e-02 -0.9978 0.9978 6.666912e-02 -39.7109 776.0759)" class="st13" cx="395" cy="409.3" rx="5.8" ry="2.7"/>
				
					<ellipse transform="matrix(6.665032e-02 -0.9978 0.9978 6.665032e-02 -50.0298 784.9323)" class="st13" cx="394.5" cy="419.2" rx="5.8" ry="2.7"/>
			</g>
			<path class="st13" d="M397.5,431.7c0-0.2,0-0.5,0-0.7c0.1-3.8-1.3-6.8-3-6.9c-1.7,0-3.2,3-3.3,6.7c0,0.3,0,0.6,0,0.8H397.5z"/>
		</g>
		<rect x="392.2" y="423.5" class="st4" width="4.4" height="2.2"/>
	</g>
	<g>
		<g>
			<g>
				
					<ellipse transform="matrix(0.9978 -6.666668e-02 6.666668e-02 0.9978 -25.6437 30.1872)" class="st13" cx="439.5" cy="399.3" rx="2.7" ry="5.8"/>
				
					<ellipse transform="matrix(0.9978 -6.667184e-02 6.667184e-02 0.9978 -26.3076 30.2406)" class="st13" cx="439.9" cy="409.3" rx="2.7" ry="5.8"/>
				
					<ellipse transform="matrix(0.9978 -6.664869e-02 6.664869e-02 0.9978 -26.9605 30.2808)" class="st13" cx="440.3" cy="419.2" rx="2.7" ry="5.8"/>
			</g>
			<path class="st13" d="M437.3,431.7c0-0.2,0-0.5,0-0.7c-0.1-3.8,1.3-6.8,3-6.9c1.7,0,3.2,3,3.3,6.7c0,0.3,0,0.6,0,0.8H437.3z"/>
		</g>
		<rect x="438.2" y="423.5" class="st4" width="4.4" height="2.2"/>
	</g>
</g>
<g>
	<g>
		<polygon class="st16" points="283.3,322.9 280.5,322.9 280.5,304.5 286.3,301.6 		"/>
		<path class="st16" d="M317,288.7h-12.9h-1.4h-12.9c-5.1,0-9.2,4.2-9.2,9.3v8.4v6c2.5-6.6,4.9-9.4,10.2-10.2
			c0.9,3.1,6.2,5.5,12.6,5.5c6.4,0,11.7-2.4,12.6-5.5c5.3,0.8,7.7,3.5,10.2,10.2v-6V298C326.2,292.9,322.1,288.7,317,288.7z"/>
	</g>
	<polygon class="st16" points="326.2,322.9 323.4,322.9 320.5,301.6 326.2,304.5 	"/>
</g>
<g>
	<ellipse class="st1" cx="296.3" cy="258.3" rx="2.2" ry="2.2"/>
	<ellipse class="st1" cx="310.9" cy="258.3" rx="2.2" ry="2.2"/>
</g>
<g>
	<g>
		<path class="st2" d="M292.6,253.4c1.5-1.3,3.5-1.8,5.3-1.2c1.7,0.5,2.4-2.1,0.7-2.6c-2.8-0.8-5.8-0.1-7.9,1.9
			C289.5,252.7,291.4,254.6,292.6,253.4L292.6,253.4z"/>
	</g>
	<g>
		<path class="st2" d="M316.4,251.5c-2.2-2-5.1-2.7-7.9-1.9c-1.7,0.5-1,3.1,0.7,2.6c1.9-0.5,3.9-0.1,5.3,1.2
			C315.8,254.6,317.7,252.7,316.4,251.5L316.4,251.5z"/>
	</g>
</g>
<g>
	<ellipse class="st1" cx="353" cy="258.3" rx="2.2" ry="2.2"/>
	<ellipse class="st1" cx="367.6" cy="258.3" rx="2.2" ry="2.2"/>
</g>
<g>
	<g>
		<path class="st2" d="M349.4,253.4c1.5-1.3,3.5-1.8,5.3-1.2c1.7,0.5,2.4-2.1,0.7-2.6c-2.8-0.8-5.8-0.1-7.9,1.9
			C346.2,252.7,348.1,254.6,349.4,253.4L349.4,253.4z"/>
	</g>
	<g>
		<path class="st2" d="M373.1,251.5c-2.2-2-5.1-2.7-7.9-1.9c-1.7,0.5-1,3.1,0.7,2.6c1.9-0.5,3.9-0.1,5.3,1.2
			C372.5,254.6,374.4,252.7,373.1,251.5L373.1,251.5z"/>
	</g>
</g>
<g>
	<ellipse class="st1" cx="410" cy="258.3" rx="2.2" ry="2.2"/>
	<ellipse class="st1" cx="424.6" cy="258.3" rx="2.2" ry="2.2"/>
</g>
<g>
	<g>
		<path class="st2" d="M406.3,253.4c1.5-1.3,3.5-1.8,5.3-1.2c1.7,0.5,2.4-2.1,0.7-2.6c-2.8-0.8-5.8-0.1-7.9,1.9
			C403.2,252.7,405.1,254.6,406.3,253.4L406.3,253.4z"/>
	</g>
	<g>
		<path class="st2" d="M430.1,251.5c-2.2-2-5.1-2.7-7.9-1.9c-1.7,0.5-1,3.1,0.7,2.6c1.9-0.5,3.9-0.1,5.3,1.2
			C429.5,254.6,431.4,252.7,430.1,251.5L430.1,251.5z"/>
	</g>
</g>
<g>
	<ellipse class="st1" cx="463.9" cy="258.3" rx="2.2" ry="2.2"/>
	<ellipse class="st1" cx="478.5" cy="258.3" rx="2.2" ry="2.2"/>
</g>
<g>
	<g>
		<path class="st2" d="M460.3,253.4c1.5-1.3,3.5-1.8,5.3-1.2c1.7,0.5,2.4-2.1,0.7-2.6c-2.8-0.8-5.8-0.1-7.9,1.9
			C457.1,252.7,459,254.6,460.3,253.4L460.3,253.4z"/>
	</g>
	<g>
		<path class="st2" d="M484,251.5c-2.2-2-5.1-2.7-7.9-1.9c-1.7,0.5-1,3.1,0.7,2.6c1.9-0.5,3.9-0.1,5.3,1.2
			C483.4,254.6,485.3,252.7,484,251.5L484,251.5z"/>
	</g>
</g>
<g>
	<ellipse class="st1" cx="527.5" cy="258.3" rx="2.2" ry="2.2"/>
	<ellipse class="st1" cx="542.1" cy="258.3" rx="2.2" ry="2.2"/>
</g>
<g>
	<g>
		<path class="st2" d="M523.9,253.4c1.5-1.3,3.5-1.8,5.3-1.2c1.7,0.5,2.4-2.1,0.7-2.6c-2.8-0.8-5.8-0.1-7.9,1.9
			C520.7,252.7,522.6,254.6,523.9,253.4L523.9,253.4z"/>
	</g>
	<g>
		<path class="st2" d="M547.7,251.5c-2.2-2-5.1-2.7-7.9-1.9c-1.7,0.5-1,3.1,0.7,2.6c1.9-0.5,3.9-0.1,5.3,1.2
			C547,254.6,548.9,252.7,547.7,251.5L547.7,251.5z"/>
	</g>
</g>
<g>
	<path class="st1" d="M471.7,371.8c-12.7,0-22.9,9.7-22.9,21.8c0,4,1.1,7.7,3.1,10.9l2.3-16.9c1.3-1,2.9-1.5,4.8-1.8
		c0.9,3.2,6.3,5.7,12.7,5.7c6.4,0,11.8-2.5,12.7-5.7c2,0.3,3.5,0.9,4.8,1.8l2.3,16.9c2-3.2,3.1-7,3.1-10.9
		C494.6,381.6,484.4,371.8,471.7,371.8z"/>
	<ellipse class="st1" cx="471.7" cy="383.2" rx="18" ry="9.8"/>
</g>
<g>
	<path class="st13" d="M516.1,402.9c-0.4-1.7-0.6-3.4-0.6-5.2c0-11.5,8.9-20.9,19.9-20.9c11,0,19.9,9.3,19.9,20.9
		c0,1.8-0.2,3.6-0.6,5.2h3.3c0.4-1.9,0.6-3.8,0.6-5.8c0-14.4-10.3-26.1-23.1-26.1c-12.7,0-23.1,11.7-23.1,26.1c0,2,0.2,3.9,0.6,5.8
		H516.1z"/>
	<ellipse class="st13" cx="535.3" cy="379.6" rx="7.1" ry="5.9"/>
</g>
<path class="st1" d="M303.4,472.6c-12.6,0-22.8,9.8-22.8,21.8c0,4,1.1,7.7,3.1,11l2.3-16.9c1.3-1,2.9-1.5,4.8-1.8
	c0.9,3.2,6.2,5.7,12.6,5.7c6.4,0,11.7-2.5,12.6-5.7c1.9,0.3,3.5,0.9,4.8,1.8l2.3,16.9c2-3.2,3.1-7,3.1-11
	C326.2,482.4,316,472.6,303.4,472.6z"/>
<g>
	<path class="st22" d="M372.2,470.3c0,4.4-3.6,8.1-8,8.1h-9.3c-4.4,0-8-3.6-8-8.1l0,0c0-4.4,3.6-8.1,8-8.1h9.3
		C368.6,462.2,372.2,465.8,372.2,470.3L372.2,470.3z"/>
	<g>
		<path class="st17" d="M359.5,469.8c-12.6,0-22.9,10.6-22.9,23.7c0,4.3,1.1,8.4,3.1,11.9L342,487l35,0l2.3,18.4
			c2-3.5,3.1-7.6,3.1-11.9C382.4,480.4,372.2,469.8,359.5,469.8z"/>
	</g>
	<g>
		<path class="st17" d="M351.7,479.2h-9.8c-0.8,5-1.6,10-2.3,15h12.1c4.1,0,7.5-3.4,7.5-7.5C359.2,482.5,355.9,479.2,351.7,479.2z"
			/>
		<path class="st17" d="M367.3,479.2h9.8c0.8,5,1.6,10,2.3,15h-12.1c-4.1,0-7.5-3.4-7.5-7.5C359.9,482.5,363.2,479.2,367.3,479.2z"
			/>
	</g>
</g>
<g>
	<path class="st31" d="M394.3,499c0,2.1,0.2,4.1,0.6,6.1h3.3c-0.4-1.8-0.6-3.6-0.6-5.5c0-5.8,2.1-11.1,5.5-15v-6.9
		C397.7,482.7,394.3,490.4,394.3,499z"/>
	<path class="st31" d="M432,477.7v6.9c3.4,3.9,5.5,9.2,5.5,15c0,1.9-0.2,3.7-0.6,5.5h3.3c0.4-1.9,0.6-4,0.6-6.1
		C440.7,490.4,437.3,482.7,432,477.7z"/>
</g>
<g>
	<polygon class="st1" points="452.2,502.1 449.6,502.1 449.5,484.7 454.9,481.9 	"/>
	<polygon class="st1" points="493.2,502 490.6,502.1 487.6,481.9 493.2,484.7 	"/>
	<g>
		<path class="st1" d="M479.9,471.3h-23.1v17.3h36.4v-3.9C493.2,477.3,487.2,471.3,479.9,471.3z"/>
		<path class="st1" d="M480.6,471.3h-36.2v3.9c0,7.4,6,13.4,13.3,13.4h22.8V471.3z"/>
	</g>
</g>

<g>
	<rect x="377" y="589.8" class="st1" width="3.4" height="23.9"/>
	<rect x="338.3" y="588.9" class="st1" width="3.4" height="23.9"/>
</g>
<path class="st1" d="M375.8,587.8c0,3.6-2.6,6.5-5.8,6.5h-21c-3.2,0-5.8-2.9-5.8-6.5l0,0c0-3.6,2.6-6.5,5.8-6.5h21
	C373.1,581.3,375.8,584.2,375.8,587.8L375.8,587.8z"/>
<path class="st1" d="M380.6,591.1V579c0-2.4-1.9-4.3-4.3-4.3h-33.8c-2.4,0-4.3,1.9-4.3,4.3v12.1H380.6z"/>
<g>
	<path class="st17" d="M438.9,598.8c0.2-1.3,0.3-2.6,0.3-3.9c0-12.4-9.9-22.4-22-22.4c-12.2,0-22,10-22,22.4c0,1.3,0.1,2.6,0.3,3.9
		H438.9z"/>
	<path class="st13" d="M438.9,602c0.2-1.3,0.3-2.6,0.3-3.9c0-12.4-9.9-22.4-22-22.4c-12.2,0-22,10-22,22.4c0,1.3,0.1,2.6,0.3,3.9
		H438.9z"/>
</g>
<g>
	<path class="st31" d="M448,603.9c0,2.1,0.2,4.1,0.6,6h3.3c-0.4-1.7-0.6-3.6-0.6-5.5c0-5.8,2.1-11.1,5.5-15v-6.9
		C451.4,587.6,448,595.3,448,603.9z"/>
	<path class="st31" d="M485.7,582.6v6.9c3.4,3.9,5.5,9.2,5.5,15c0,1.9-0.2,3.7-0.6,5.5h3.3c0.4-1.9,0.6-4,0.6-6
		C494.4,595.3,491,587.6,485.7,582.6z"/>
</g>
<path class="st31" d="M471.2,585.3c10.5,0,19.1,6.2,19.7,13.9c1.7-2.3,2.6-5,2.6-7.8c0-9.2-10-16.7-22.3-16.7s-22.3,7.5-22.3,16.7
	c0,2.8,0.9,5.5,2.6,7.8C452.1,591.4,460.7,585.3,471.2,585.3z"/>
<g>
	<path class="st1" d="M515.1,609.6c-0.4-1.7-0.7-3.5-0.7-5.4c0-11.9,9.2-21.5,20.4-21.5s20.4,9.6,20.4,21.5c0,1.9-0.2,3.7-0.7,5.4
		h3.4c0.4-1.9,0.6-3.9,0.6-6c0-14.8-10.6-26.9-23.7-26.9c-13.1,0-23.7,12-23.7,26.9c0,2.1,0.2,4,0.6,6H515.1z"/>
	<path class="st1" d="M523.7,584.1c-1.6,4.1,4.5,10.4,13.7,14.2c9.2,3.8,18,3.6,19.7-0.5c1.6-4.1-4.5-10.4-13.7-14.2
		C534.1,579.8,525.3,580,523.7,584.1z"/>
	<path class="st1" d="M534.5,582.6c-1.9-2.2-7.8-0.3-13.2,4.3c-5.4,4.6-8.3,10.2-6.4,12.4c1.9,2.2,7.8,0.3,13.2-4.3
		C533.5,590.4,536.4,584.9,534.5,582.6z"/>
</g>

<path class="st1" d="M381,693.6c0.2-1.2,0.3-2.5,0.3-3.8c0-12.1-9.8-22-22-22c-12.1,0-22,9.8-22,22c0,1.3,0.1,2.6,0.3,3.8H381z"/>
<path class="st13" d="M397.9,701.5c-0.4-1.7-0.6-3.4-0.6-5.2c0-11.5,8.9-20.9,20-20.9c11,0,20,9.3,20,20.9c0,1.8-0.2,3.6-0.6,5.2
	h3.3c0.4-1.9,0.6-3.8,0.6-5.8c0-14.4-10.4-26.1-23.2-26.1c-12.8,0-23.2,11.7-23.2,26.1c0,2,0.2,3.9,0.6,5.8H397.9z"/>
<path class="st12" d="M451.9,701.5c-0.4-1.7-0.6-3.4-0.6-5.2c0-11.5,8.9-20.9,20-20.9c11,0,20,9.3,20,20.9c0,1.8-0.2,3.6-0.6,5.2
	h3.3c0.4-1.9,0.6-3.8,0.6-5.8c0-14.4-10.4-26.1-23.2-26.1c-12.8,0-23.2,11.7-23.2,26.1c0,2,0.2,3.9,0.6,5.8H451.9z"/>
<path class="st13" d="M410.4,672c-0.1,0.4-0.2,0.9-0.2,1.3v11.6c0,2.7,2.2,4.9,4.9,4.9h4.2c2.7,0,4.9-2.2,4.9-4.9v-11.6
	c0-0.5-0.1-0.9-0.2-1.3H410.4z"/>
<path class="st12" d="M453.5,683.6c0,4.4,8.1,7.9,18.1,7.9c10,0,18-3.6,18-8c0-4.4-8.1-7.9-18.1-7.9
	C461.5,675.6,453.4,679.2,453.5,683.6z"/>
<g>
	<polygon class="st12" points="554.1,698.9 556.7,698.9 556.8,681.5 551.4,678.7 	"/>
	<polygon class="st12" points="513.3,698.8 515.9,698.8 518.8,678.7 513.3,681.5 	"/>
	<g>
		<path class="st12" d="M526.6,668.1h23v17.3h-36.2v-3.9C513.3,674.1,519.2,668.1,526.6,668.1z"/>
		<path class="st12" d="M525.9,668.1h36v3.9c0,7.4-5.9,13.4-13.3,13.4h-22.7V668.1z"/>
	</g>
</g>
<g>
	<polygon class="st13" points="322.4,775.1 325,775.1 325.2,757.9 319.8,755 	"/>
	<polygon class="st13" points="281.7,775.1 284.3,775.1 287.2,755 281.7,757.8 	"/>
</g>
<path class="st1" d="M340,774.9c-0.4-1.7-0.6-3.4-0.6-5.2c0-11.5,8.9-20.8,19.9-20.8c11,0,19.9,9.3,19.9,20.8c0,1.8-0.2,3.6-0.6,5.2
	h3.3c0.4-1.9,0.6-3.8,0.6-5.8c0-14.4-10.4-26-23.1-26c-12.8,0-23.1,11.6-23.1,26c0,2,0.2,3.9,0.6,5.8H340z"/>
<path class="st1" d="M349.6,747.1v10.4c0,2.7,2.2,4.9,4.9,4.9h9.6c2.7,0,4.9-2.2,4.9-4.9v-10.4H349.6z"/>
<g>
	<g>
		<polygon class="st35" points="398.1,773.9 395.5,773.9 395.3,756.6 400.7,753.8 		"/>
		<polygon class="st35" points="439.2,773.8 436.6,773.9 433.6,753.8 439.2,756.6 		"/>
	</g>
	<path class="st35" d="M406.7,756.7c1.9,4.5,5.5,7.6,9.6,7.6h19v-7.6H406.7z"/>
	<path class="st35" d="M439.2,757.1v-8c0-2.8-2.3-5-5-5h-33.7c-2.8,0-5,2.3-5,5v8H439.2z"/>
</g>
<g>
	<g>
		<path class="st31" d="M471,746.4c-12.4,0-22.4,10.8-22.4,24.2c0,4.4,1.1,8.6,3,12.2l2.2-18.8l34.3,0l2.2,18.8
			c1.9-3.6,3-7.7,3-12.2C493.4,757.3,483.4,746.4,471,746.4z"/>
	</g>
	<g>
		<ellipse class="st31" cx="458.4" cy="764.6" rx="6.6" ry="5.3"/>
		<ellipse class="st31" cx="471" cy="764.6" rx="6.6" ry="5.3"/>
		<ellipse class="st31" cx="483.6" cy="764.6" rx="6.6" ry="5.3"/>
	</g>
</g>
<g>
	<path class="st17" d="M534.9,746.1c-12.6,0-22.8,9.7-22.8,21.6c0,4,1.1,7.7,3.1,10.9l2.3-16.8c1.3-0.9,2.9-1.5,4.8-1.8
		c0.9,3.2,6.2,5.7,12.7,5.7c6.4,0,11.7-2.5,12.6-5.7c1.9,0.3,3.5,0.9,4.8,1.8l2.3,16.8c2-3.2,3.1-6.9,3.1-10.9
		C557.7,755.7,547.5,746.1,534.9,746.1z"/>
	<path class="st2" d="M552.2,760.3c0,3.8-3.1,6.9-6.9,6.9h-20.8c-3.8,0-6.9-3.1-6.9-6.9l0,0c0-3.8,3.1-6.9,6.9-6.9h20.8
		C549.1,753.4,552.2,756.5,552.2,760.3L552.2,760.3z"/>
</g>
<path class="st31" d="M303.4,828.8c-12.6,0-22.8,9.5-22.8,21.2c0,3.9,1.1,7.5,3.1,10.6l2.3-16.4c1.3-0.9,2.9-1.5,4.8-1.8
	c0.9,3.1,6.2,5.5,12.6,5.5c6.4,0,11.7-2.4,12.6-5.5c1.9,0.3,3.5,0.9,4.8,1.8l2.3,16.4c2-3.1,3.1-6.8,3.1-10.6
	C326.2,838.2,316,828.8,303.4,828.8z"/>
<path class="st35" d="M349.4,839.6l19.7-0.1c4.6,0,8.3,3.4,8.4,7.8l1.3,10.4c3-3.7,4.7-8.4,4.7-13.4c0-12.4-10.6-22.4-23.7-22.4
	s-23.7,10-23.7,22.4c0,4.8,1.6,9.2,4.2,12.8l0.9-9.5C341.1,843.2,344.8,839.7,349.4,839.6z"/>
<path class="st35" d="M381.2,835.1h-25.6c-0.1,0.2-0.1,0.5-0.2,0.8c-1.4,7.5,5.6,15.2,15.8,17.2c8.5,1.7,16.5-1.2,19.7-6.6
	C385.6,845.3,381.8,840.6,381.2,835.1z"/>
<g>
	<g>
		<polygon class="st1" points="398.6,858.2 396,858.2 395.9,841.3 401.2,838.5 		"/>
		<polygon class="st1" points="438.6,858.2 436.1,858.2 433.2,838.5 438.6,841.2 		"/>
	</g>
</g>
<path class="st1" d="M438.2,842.9v-2.2c0-5.4-4.4-9.8-9.8-9.8h-22.2c-5.4,0-9.8,4.4-9.8,9.8v2.2H438.2z"/>
<g>
	<g>
		<ellipse class="st1" cx="400.5" cy="833.8" rx="5.7" ry="5.7"/>
		<ellipse class="st1" cx="408" cy="831.6" rx="5.7" ry="5.7"/>
	</g>
	<g>
		<ellipse class="st1" cx="434.1" cy="833.8" rx="5.7" ry="5.7"/>
		<ellipse class="st1" cx="426.5" cy="831.6" rx="5.7" ry="5.7"/>
	</g>
</g>
<ellipse class="st1" cx="417.3" cy="829.8" rx="5.7" ry="5.7"/>
<g>
	<polygon class="st17" points="490.3,860.6 493,860.6 493.1,843.2 487.7,840.4 	"/>
	<polygon class="st17" points="449.4,860.6 452,860.6 454.9,840.4 449.4,843.2 	"/>
</g>


<path class="st31" d="M377.7,926.6c0,5.3-4.3,9.6-9.6,9.6h-17.3c-5.3,0-9.6-4.3-9.6-9.6l0,0c0-5.3,4.3-9.6,9.6-9.6h17.3
	C373.5,917,377.7,921.3,377.7,926.6L377.7,926.6z"/>
<g>
	<polygon class="st31" points="378.6,945.8 381.2,945.8 381.3,928.5 375.9,925.6 	"/>
	<polygon class="st31" points="337.7,945.8 340.3,945.8 343.3,925.6 337.7,928.4 	"/>
</g>
<g>
	<polygon class="st35" points="436.4,948.2 439,948.3 439.2,930.9 433.8,928 	"/>
	<polygon class="st35" points="395.5,947.9 398.1,948 401.1,927.9 395.6,930.6 	"/>
	<g>
		<path class="st35" d="M409,917.3l23,0.1l-0.1,17.3l-36.4-0.2l0-3.9C395.6,923.2,401.6,917.3,409,917.3z"/>
	</g>
</g>
<g>
	<path class="st35" d="M422.8,923.1l-0.5,14.4c0.8,0.1,1.6,0.2,2.4,0.2c9.3,0,17.1-6.9,17.4-15.5c0.2-5.2-2.4-9.8-6.6-12.7
		C434.7,916.1,429.5,921.5,422.8,923.1z"/>
	<path class="st35" d="M422.6,923.1c3.8-0.2,7.1,3,7.3,6.9c0.2,4-2.7,7.3-6.5,7.5c-3.8,0.2-7.1-3-7.3-6.9
		C415.9,926.6,418.8,923.3,422.6,923.1z"/>
</g>

<g>
	<path class="st12" d="M460.9,932.8l19.6-0.1c4.6,0,8.3,3.4,8.4,7.7l1.3,10.3c3-3.7,4.7-8.4,4.7-13.4c0-12.4-10.6-22.4-23.7-22.4
		c-13.1,0-23.7,10-23.7,22.4c0,4.7,1.6,9.1,4.2,12.7l0.9-9.5C452.6,936.3,456.3,932.8,460.9,932.8z"/>
	<g>
		<path class="st12" d="M492.4,931h-25.6c-0.1,0.2-0.1,0.5-0.2,0.7c-1.4,7.5,5.6,15.2,15.8,17.1c8.5,1.6,16.5-1.2,19.7-6.6
			C496.8,941.1,493,936.5,492.4,931z"/>
		<path class="st12" d="M450,931h25.6c0.1,0.2,0.1,0.5,0.2,0.7c1.4,7.5-5.6,15.2-15.8,17.1c-8.5,1.6-16.5-1.2-19.7-6.6
			C445.6,941.1,449.4,936.5,450,931z"/>
	</g>
</g>
<g>
	<polygon class="st31" points="323,1038.4 325.6,1038.4 325.7,1014.4 320.3,1010.5 	"/>
	<polygon class="st31" points="282.3,1038.2 284.9,1038.2 287.7,1010.4 282.2,1014.2 	"/>
</g>
<g>
	<ellipse class="st35" cx="290.1" cy="1008.3" rx="8.2" ry="8.3"/>
	<ellipse class="st35" cx="301.9" cy="1006.3" rx="9.1" ry="9.2"/>
	<ellipse class="st35" cx="313.4" cy="1007.6" rx="8.2" ry="8.3"/>
	<ellipse class="st35" cx="323.3" cy="1011.9" rx="6.6" ry="6.7"/>
	<ellipse class="st35" cx="281.9" cy="1010.7" rx="5.7" ry="5.8"/>
	<ellipse class="st35" cx="276.7" cy="1016.8" rx="4.6" ry="4.6"/>
</g>
<g>
	<g>
		<path class="st35" d="M360.6,1006.3c-17.9,1.9-31.7,14.5-31.7,29.8c0,11.3,7.5,21.1,18.6,26.2c-2.4-5.8-3.7-12.3-3.7-19.2
			C343.8,1027.6,350.5,1014,360.6,1006.3z"/>
		<path class="st35" d="M360.6,1006.3c17.9,1.9,31.7,14.5,31.7,29.8c0,11.3-7.5,21.1-18.6,26.2c2.4-5.8,3.7-12.3,3.7-19.2
			C377.5,1027.6,370.8,1014,360.6,1006.3z"/>
	</g>
	<path class="st35" d="M341.5,1038c-0.4-1.7-0.6-3.4-0.6-5.2c0-11.5,8.9-20.7,19.8-20.7c10.9,0,19.8,9.3,19.8,20.7
		c0,1.8-0.2,3.5-0.6,5.2h3.3c0.4-1.9,0.6-3.8,0.6-5.8c0-14.3-10.3-26-23-26c-12.7,0-23,11.6-23,26c0,2,0.2,3.9,0.6,5.8H341.5z"/>
	<path class="st35" d="M341.5,1041.6c-0.4-1.7-0.6-3.4-0.6-5.2c0-11.5,8.9-20.7,19.8-20.7c10.9,0,19.8,9.3,19.8,20.7
		c0,1.8-0.2,3.5-0.6,5.2h3.3c0.4-1.9,0.6-3.8,0.6-5.8c0-14.3-10.3-26-23-26c-12.7,0-23,11.6-23,26c0,2,0.2,3.9,0.6,5.8H341.5z"/>
	<path class="st35" d="M341.5,1046c-0.4-1.7-0.6-3.4-0.6-5.2c0-11.5,8.9-20.7,19.8-20.7c10.9,0,19.8,9.3,19.8,20.7
		c0,1.8-0.2,3.5-0.6,5.2h3.3c0.4-1.9,0.6-3.8,0.6-5.8c0-14.3-10.3-26-23-26c-12.7,0-23,11.6-23,26c0,2,0.2,3.9,0.6,5.8H341.5z"/>
</g>
<g>
	<polygon class="st6" points="436.4,1032.6 439,1032.6 439.2,1015.3 433.8,1012.4 	"/>
	<polygon class="st6" points="395.5,1032.5 398.1,1032.6 401.1,1012.4 395.5,1015.2 	"/>
</g>
<g>
	<path class="st6" d="M436.9,1017.7c-0.5,4.4-4.4,7.6-8.8,7.1l-14.4-1.5c-4.4-0.5-7.6-4.4-7.1-8.8l0,0c0.5-4.4,4.4-7.6,8.8-7.1
		l14.4,1.5C434.1,1009.4,437.3,1013.3,436.9,1017.7L436.9,1017.7z"/>
	<g>
		<path class="st6" d="M417.6,1008l2.6,14.6c-0.8,0.2-1.6,0.4-2.5,0.5c-9.8,1.5-19-4.4-20.6-13.2c-0.9-5.3,1.1-10.4,5.1-13.9
			C404.1,1002.6,410.3,1007.3,417.6,1008z"/>
		<path class="st6" d="M417.8,1007.9c-4,0.4-7,4.1-6.6,8.2c0.4,4.1,3.9,7.1,7.9,6.6c4-0.4,7-4.1,6.6-8.2
			C425.4,1010.5,421.8,1007.5,417.8,1007.9z"/>
	</g>
</g>
<path class="st6" d="M435.3,1013.7c-0.4,3.8-7.6,6.1-16.1,5.3c-8.6-0.8-15.2-4.5-14.9-8.3c0.4-3.8,7.6-6.1,16.1-5.3
	C429,1006.3,435.7,1010,435.3,1013.7z"/>




<g>
	<path class="st12" d="M416.3,1104c-12.6,0-22.9,9.7-22.9,21.7c0,4,1.1,7.7,3.1,10.9l2.3-16.9c1.3-1,2.9-1.5,4.8-1.8
		c0.9,3.2,6.2,5.7,12.7,5.7c6.4,0,11.7-2.5,12.7-5.7c1.9,0.3,3.5,0.9,4.8,1.8l2.3,16.9c2-3.2,3.1-6.9,3.1-10.9
		C439.2,1113.7,428.9,1104,416.3,1104z"/>
	<ellipse class="st48" cx="416.3" cy="1115.3" rx="18" ry="9.8"/>
</g>
<g>

</g>



</svg>
